<?xml version="1.0" encoding="utf-8"?>
<!-- Generator: Adobe Illustrator 24.3.0, SVG Export Plug-In . SVG Version: 6.00 Build 0)  -->
<svg version="1.1" id="圖層_1" xmlns="http://www.w3.org/2000/svg" xmlns:xlink="http://www.w3.org/1999/xlink" x="0px" y="0px"
	 viewBox="0 0 58.3 58.3" style="enable-background:new 0 0 58.3 58.3;" xml:space="preserve">
<style type="text/css">
	.st0{fill:#575A6D;}
</style>
<path class="st0" d="M27.9,2.1v54.1c15.7,0,28.4-12.1,28.4-27.1C56.3,14.2,43.6,2.1,27.9,2.1z M47.3,29.8l-8,7.6
	c-0.4,0.4-1,0.4-1.4,0l-0.9-0.9c-0.4-0.4-0.4-1,0-1.3l6.3-6.1l-6.3-6.1c-0.4-0.4-0.4-1,0-1.3l0.9-0.9c0.4-0.4,1-0.4,1.4,0l8,7.6
	C47.7,28.9,47.7,29.4,47.3,29.8z"/>
</svg>
