<?xml version="1.0" encoding="utf-8"?>
<!-- Generator: Adobe Illustrator 24.3.0, SVG Export Plug-In . SVG Version: 6.00 Build 0)  -->
<svg version="1.1" id="圖層_1" xmlns="http://www.w3.org/2000/svg" xmlns:xlink="http://www.w3.org/1999/xlink" x="0px" y="0px"
	 viewBox="0 0 58.3 58.3" style="enable-background:new 0 0 58.3 58.3;" xml:space="preserve">
<style type="text/css">
	.st0{fill:#575A6D;}
</style>
<path class="st0" d="M30.4,2.1v54.1C14.7,56.2,2,44.1,2,29.1C2,14.2,14.7,2.1,30.4,2.1z M11,29.8l8,7.6c0.4,0.4,1,0.4,1.4,0l0.9-0.9
	c0.4-0.4,0.4-1,0-1.3L15,29.1l6.3-6.1c0.4-0.4,0.4-1,0-1.3l-0.9-0.9c-0.4-0.4-1-0.4-1.4,0l-8,7.6C10.6,28.9,10.6,29.4,11,29.8z"/>
</svg>
