<?xml version="1.0" encoding="utf-8"?>
<!-- Generator: Adobe Illustrator 24.3.0, SVG Export Plug-In . SVG Version: 6.00 Build 0)  -->
<svg version="1.1" id="圖層_1" xmlns="http://www.w3.org/2000/svg" xmlns:xlink="http://www.w3.org/1999/xlink" x="0px" y="0px"
	 viewBox="0 0 58.3 58.3" style="enable-background:new 0 0 58.3 58.3;" xml:space="preserve">
<style type="text/css">
	.st0{fill:#F7F0E9;}
	.st1{fill:#575A6D;}
</style>
<ellipse class="st0" cx="29.1" cy="28.7" rx="19.8" ry="19.5"/>
<path class="st1" d="M29.1,1C13.6,1,1,13.6,1,29.2s12.6,28.2,28.2,28.2s28.2-12.6,28.2-28.2S44.7,1,29.1,1z M16.2,27.2l15.4-15.4
	c1.1-1.1,2.8-1.1,3.8,0l1.9,1.9c1.1,1.1,1.1,2.8,0,3.8L25.8,29.2l11.5,11.5c1.1,1.1,1.1,2.8,0,3.8l-1.9,1.9c-1.1,1.1-2.8,1.1-3.8,0
	L16.2,31.1C15.1,30,15.1,28.3,16.2,27.2z"/>
</svg>
