<?xml version="1.0" encoding="utf-8"?>
<!-- Generator: Adobe Illustrator 24.3.0, SVG Export Plug-In . SVG Version: 6.00 Build 0)  -->
<svg version="1.1" id="圖層_1" xmlns="http://www.w3.org/2000/svg" xmlns:xlink="http://www.w3.org/1999/xlink" x="0px" y="0px"
	 viewBox="0 0 58.3 58.3" style="enable-background:new 0 0 58.3 58.3;" xml:space="preserve">
<style type="text/css">
	.st0{fill:#575A6D;}
</style>
<path class="st0" d="M0.9,29.3c0,15.5,12.6,28.1,28.2,28.1s28.2-12.6,28.2-28.2S44.8,1,29.1,1S0.9,13.7,0.9,29.3z M27.1,42.2
	L11.8,26.8c-1.1-1.1-1.1-2.8,0-3.8l1.9-1.9c1.1-1.1,2.8-1.1,3.8,0l11.7,11.5l11.5-11.5c1.1-1.1,2.8-1.1,3.8,0l1.9,1.9
	c1.1,1.1,1.1,2.8,0,3.8L31,42.2C29.9,43.3,28.2,43.3,27.1,42.2z"/>
</svg>
