<?xml version="1.0" encoding="utf-8"?>
<!-- Generator: Adobe Illustrator 24.3.0, SVG Export Plug-In . SVG Version: 6.00 Build 0)  -->
<svg version="1.1" id="圖層_1" xmlns="http://www.w3.org/2000/svg" xmlns:xlink="http://www.w3.org/1999/xlink" x="0px" y="0px"
	 viewBox="0 0 177.7 168.4" style="enable-background:new 0 0 177.7 168.4;" xml:space="preserve">
<style type="text/css">
	.st0{fill:#7D7F91;}
	.st1{fill:none;stroke:#575A6D;stroke-width:1.3;stroke-miterlimit:10;}
	.st2{fill:#F7F0EA;stroke:#575A6D;stroke-width:3;stroke-miterlimit:10;}
	.st3{opacity:0.4;fill:url(#SVGID_1_);}
	.st4{opacity:0.4;fill:url(#SVGID_2_);}
	.st5{fill:#FA5560;stroke:#FA5560;stroke-width:15;stroke-linecap:round;stroke-linejoin:round;stroke-miterlimit:10;}
	.st6{fill:#FEE48B;}
	.st7{fill:#FA5560;stroke:#FA5560;stroke-width:21.3573;stroke-linecap:round;stroke-linejoin:round;stroke-miterlimit:10;}
	.st8{clip-path:url(#SVGID_4_);}
	.st9{fill:#E2C179;}
	.st10{clip-path:url(#SVGID_6_);}
	.st11{clip-path:url(#SVGID_8_);}
	.st12{clip-path:url(#SVGID_10_);}
	.st13{clip-path:url(#SVGID_12_);}
	.st14{clip-path:url(#SVGID_14_);}
	.st15{clip-path:url(#SVGID_16_);}
	.st16{fill:#FA5560;stroke:#E4463B;stroke-width:23.0455;stroke-linecap:round;stroke-linejoin:round;stroke-miterlimit:10;}
	.st17{clip-path:url(#SVGID_18_);}
	.st18{clip-path:url(#SVGID_20_);}
	.st19{clip-path:url(#SVGID_22_);}
	.st20{clip-path:url(#SVGID_24_);}
	.st21{clip-path:url(#SVGID_26_);}
	.st22{clip-path:url(#SVGID_28_);}
	.st23{clip-path:url(#SVGID_30_);}
	.st24{fill:none;stroke:#575A6D;stroke-width:1.3;stroke-linecap:round;stroke-linejoin:round;stroke-miterlimit:10;}
	.st25{fill:none;stroke:#575A6D;stroke-width:1.6182;stroke-miterlimit:10;}
	.st26{fill:none;stroke:#575A6D;stroke-width:2;stroke-miterlimit:10;}
	.st27{fill:#575A6D;}
	.st28{fill:#575A6D;stroke:#575A6D;stroke-width:1.3;stroke-linecap:round;stroke-linejoin:round;stroke-miterlimit:10;}
	.st29{fill:none;}
	.st30{clip-path:url(#SVGID_32_);}
	.st31{fill:none;stroke:#575A6D;stroke-width:1.6344;stroke-miterlimit:10;}
	.st32{fill:#694C52;}
	.st33{clip-path:url(#SVGID_34_);}
	.st34{fill:none;stroke:#575A6D;stroke-width:0.7;stroke-linecap:round;stroke-linejoin:round;stroke-miterlimit:10;}
	.st35{fill:#FFFFFF;}
	.st36{fill:#E2E2E2;}
	.st37{fill:#F1C080;}
	.st38{fill:#F29B9A;}
	.st39{fill:none;stroke:#1D1115;stroke-width:1.3;stroke-linecap:round;stroke-linejoin:round;stroke-miterlimit:10;}
	.st40{fill:#F29B9A;stroke:#1D1115;stroke-width:1.3;stroke-linecap:round;stroke-linejoin:round;stroke-miterlimit:10;}
	.st41{fill:#82827E;stroke:#1D1115;stroke-width:1.3;stroke-linecap:round;stroke-linejoin:round;stroke-miterlimit:10;}
	.st42{fill:#232326;}
	.st43{fill:#C1B680;stroke:#575A6D;stroke-width:1.3;stroke-miterlimit:10;}
	.st44{fill:#FFE8D9;}
	.st45{fill:#DBD8D5;}
	.st46{fill:#F7F0EA;}
	.st47{fill:#313C36;}
	.st48{fill:#FBFBFD;}
	.st49{fill:#AF8C7E;}
	.st50{fill:#231815;stroke:#1D1115;stroke-width:2;stroke-linecap:round;stroke-linejoin:round;stroke-miterlimit:10;}
	.st51{fill:#ADA49E;}
	.st52{fill:#EDE3DD;}
	.st53{fill:#3B4941;}
	.st54{fill:#1D1115;}
	.st55{fill:#EAEAEA;stroke:#1D1115;stroke-width:0.521;stroke-linecap:round;stroke-linejoin:round;stroke-miterlimit:10;}
	.st56{fill:#4C4C4C;stroke:#1D1115;stroke-width:0.3721;stroke-miterlimit:10;}
	.st57{fill:#C1C1C1;stroke:#1D1115;stroke-width:0.521;stroke-miterlimit:10;}
	.st58{fill:none;stroke:#1D1115;stroke-width:1.3;stroke-linecap:round;stroke-miterlimit:10;}
	.st59{fill:#FFE8D9;stroke:#1D1115;stroke-width:1.3;stroke-linecap:round;stroke-linejoin:round;stroke-miterlimit:10;}
	.st60{fill:#912424;}
	.st61{fill:#8F3E38;stroke:#1D1115;stroke-width:1.312;stroke-miterlimit:10;}
	.st62{clip-path:url(#SVGID_36_);fill:none;stroke:#575A6D;stroke-width:1.3;stroke-miterlimit:10;}
	.st63{clip-path:url(#SVGID_36_);fill:#7D7F91;}
	.st64{opacity:0.4;clip-path:url(#SVGID_36_);fill:url(#SVGID_37_);}
	
		.st65{clip-path:url(#SVGID_36_);fill:none;stroke:#575A6D;stroke-width:1.3;stroke-linecap:round;stroke-linejoin:round;stroke-miterlimit:10;}
	.st66{clip-path:url(#SVGID_36_);}
	
		.st67{clip-path:url(#SVGID_36_);fill:none;stroke:#1D1115;stroke-width:1.3;stroke-linecap:round;stroke-linejoin:round;stroke-miterlimit:10;}
	.st68{clip-path:url(#SVGID_36_);fill:none;}
	.st69{clip-path:url(#SVGID_36_);fill:none;stroke:#575A6D;stroke-width:1.6344;stroke-miterlimit:10;}
	
		.st70{clip-path:url(#SVGID_36_);fill:#575A6D;stroke:#575A6D;stroke-width:1.3;stroke-linecap:round;stroke-linejoin:round;stroke-miterlimit:10;}
	.st71{fill:#FAC0BF;}
	.st72{fill:none;stroke:#1D1115;stroke-width:2;stroke-linecap:round;stroke-linejoin:round;stroke-miterlimit:10;}
	.st73{fill:#8E563B;}
	.st74{fill:#EC9898;stroke:#1D1115;stroke-width:2;stroke-linecap:round;stroke-linejoin:round;stroke-miterlimit:10;}
	.st75{fill:#F7F0EA;stroke:#1D1115;stroke-width:2;stroke-linecap:round;stroke-linejoin:round;stroke-miterlimit:10;}
	.st76{clip-path:url(#SVGID_36_);fill:#C1B680;stroke:#575A6D;stroke-width:1.3;stroke-miterlimit:10;}
	.st77{fill:#F7F7F7;stroke:#1D1115;stroke-width:2.1832;stroke-linecap:round;stroke-linejoin:round;stroke-miterlimit:10;}
	.st78{fill:#FFFFFF;stroke:#1D1115;stroke-width:2.1832;stroke-linecap:round;stroke-linejoin:round;stroke-miterlimit:10;}
	.st79{fill:none;stroke:#1D1115;stroke-width:2.7785;stroke-linecap:round;stroke-linejoin:round;stroke-miterlimit:10;}
	.st80{fill:#8F3E38;stroke:#1D1115;stroke-width:2.1832;stroke-miterlimit:10;}
	
		.st81{clip-path:url(#SVGID_36_);fill:none;stroke:#232326;stroke-width:1.3;stroke-linecap:round;stroke-linejoin:round;stroke-miterlimit:10;}
	.st82{fill:#606372;}
	.st83{fill:#575A6D;stroke:#575A6D;stroke-width:0.6901;stroke-miterlimit:10;}
	.st84{fill:none;stroke:#575A6D;stroke-width:5;stroke-miterlimit:10;}
	.st85{clip-path:url(#SVGID_39_);}
	.st86{fill:#B24242;}
	.st87{clip-path:url(#SVGID_41_);}
	.st88{clip-path:url(#SVGID_43_);}
	.st89{clip-path:url(#SVGID_45_);}
	.st90{clip-path:url(#SVGID_47_);}
	.st91{clip-path:url(#SVGID_49_);}
	.st92{clip-path:url(#SVGID_51_);}
	.st93{clip-path:url(#SVGID_53_);}
	.st94{clip-path:url(#SVGID_55_);}
	.st95{clip-path:url(#SVGID_57_);}
	.st96{clip-path:url(#SVGID_59_);}
	.st97{fill:none;stroke:#575A6D;stroke-linecap:round;stroke-linejoin:round;stroke-miterlimit:10;}
	.st98{fill:none;stroke:#575A6D;stroke-width:1.6344;stroke-linecap:round;stroke-linejoin:round;stroke-miterlimit:10;}
	.st99{fill:none;stroke:#575A6D;stroke-width:0.5705;stroke-miterlimit:10;}
	.st100{fill:none;stroke:#575A6D;stroke-width:0.3072;stroke-linecap:round;stroke-linejoin:round;stroke-miterlimit:10;}
	.st101{fill:none;stroke:#232326;stroke-width:1.3;stroke-linecap:round;stroke-linejoin:round;stroke-miterlimit:10;}
	.st102{fill:none;stroke:#575A6D;stroke-width:1.6995;stroke-linecap:round;stroke-linejoin:round;stroke-miterlimit:10;}
	.st103{fill:none;stroke:#575A6D;stroke-width:1.7979;stroke-miterlimit:10;}
	.st104{fill:none;stroke:#575A6D;stroke-width:1.7979;stroke-linecap:round;stroke-linejoin:round;stroke-miterlimit:10;}
	.st105{fill:none;stroke:#575A6D;stroke-width:1.4024;stroke-linecap:round;stroke-linejoin:round;stroke-miterlimit:10;}
	.st106{fill:none;stroke:#575A6D;stroke-width:1.4;stroke-linecap:round;stroke-linejoin:round;stroke-miterlimit:10;}
	.st107{fill:#948962;}
	.st108{fill:#99B4C9;}
	.st109{fill:#FFBC57;}
	.st110{fill:#FD8B8A;}
	.st111{fill:#F8EFEA;}
	.st112{fill:#E8AE56;}
	.st113{fill:#E7B383;}
	.st114{fill:#FFE6D0;}
	
		.st115{clip-path:url(#SVGID_101_);fill:none;stroke:#575A6D;stroke-width:1.2991;stroke-linecap:round;stroke-linejoin:round;stroke-miterlimit:10;}
	
		.st116{clip-path:url(#SVGID_101_);fill:none;stroke:#575A6D;stroke-width:0.9993;stroke-linecap:round;stroke-linejoin:round;stroke-miterlimit:10;}
	
		.st117{clip-path:url(#SVGID_103_);fill:none;stroke:#575A6D;stroke-width:1.2991;stroke-linecap:round;stroke-linejoin:round;stroke-miterlimit:10;}
	
		.st118{clip-path:url(#SVGID_103_);fill:none;stroke:#575A6D;stroke-width:0.9993;stroke-linecap:round;stroke-linejoin:round;stroke-miterlimit:10;}
	
		.st119{clip-path:url(#SVGID_105_);fill:none;stroke:#575A6D;stroke-width:1.2991;stroke-linecap:round;stroke-linejoin:round;stroke-miterlimit:10;}
	
		.st120{clip-path:url(#SVGID_105_);fill:none;stroke:#575A6D;stroke-width:0.9993;stroke-linecap:round;stroke-linejoin:round;stroke-miterlimit:10;}
	
		.st121{clip-path:url(#SVGID_107_);fill:none;stroke:#575A6D;stroke-width:1.2991;stroke-linecap:round;stroke-linejoin:round;stroke-miterlimit:10;}
	
		.st122{clip-path:url(#SVGID_107_);fill:none;stroke:#575A6D;stroke-width:0.9993;stroke-linecap:round;stroke-linejoin:round;stroke-miterlimit:10;}
	
		.st123{clip-path:url(#SVGID_109_);fill:none;stroke:#575A6D;stroke-width:1.2991;stroke-linecap:round;stroke-linejoin:round;stroke-miterlimit:10;}
	
		.st124{clip-path:url(#SVGID_109_);fill:none;stroke:#575A6D;stroke-width:0.9993;stroke-linecap:round;stroke-linejoin:round;stroke-miterlimit:10;}
	.st125{fill:none;stroke:#575A6D;stroke-width:0.9993;stroke-linecap:round;stroke-linejoin:round;stroke-miterlimit:10;}
	.st126{fill:#828397;}
	.st127{fill:none;stroke:#575A6D;stroke-width:0.5;stroke-linecap:round;stroke-linejoin:round;stroke-miterlimit:10;}
	.st128{fill:none;stroke:#575A6D;stroke-width:0.4035;stroke-miterlimit:10;}
	.st129{fill:none;stroke:#575A6D;stroke-width:0.4035;stroke-linecap:round;stroke-linejoin:round;stroke-miterlimit:10;}
	.st130{fill:#F7F0EA;stroke:#575A6D;stroke-width:2.031;stroke-miterlimit:10;}
	.st131{fill:#7D7F91;stroke:#575A6D;stroke-width:2.6;stroke-linecap:round;stroke-linejoin:round;stroke-miterlimit:10;}
	.st132{fill:none;stroke:#575A6D;stroke-width:1.9379;stroke-miterlimit:10;}
	.st133{clip-path:url(#SVGID_151_);}
	.st134{clip-path:url(#SVGID_153_);}
	.st135{clip-path:url(#SVGID_155_);}
	.st136{clip-path:url(#SVGID_157_);}
	.st137{fill:#E27960;}
	.st138{fill:#575A6D;stroke:#575A6D;stroke-width:1.264;stroke-miterlimit:10;}
	.st139{fill:none;stroke:#575A6D;stroke-width:1.264;stroke-miterlimit:10;}
	.st140{fill:#F7F0EA;stroke:#575A6D;stroke-width:2.6129;stroke-miterlimit:10;}
	.st141{fill:none;stroke:#575A6D;stroke-width:8;stroke-miterlimit:10;}
	.st142{clip-path:url(#SVGID_159_);}
	.st143{clip-path:url(#SVGID_161_);}
	.st144{clip-path:url(#SVGID_163_);}
	.st145{clip-path:url(#SVGID_165_);}
	.st146{fill:none;stroke:#575A6D;stroke-width:2.493;stroke-miterlimit:10;}
	.st147{fill:#FDD485;}
	.st148{fill:#FBD0C6;}
	.st149{fill:#866359;}
	.st150{fill:none;stroke:#212226;stroke-width:1.9841;stroke-linecap:round;stroke-linejoin:round;stroke-miterlimit:10;}
	.st151{fill:#EB9485;stroke:#212226;stroke-width:1.9841;stroke-linecap:round;stroke-linejoin:round;stroke-miterlimit:10;}
	.st152{fill:#212226;stroke:#212226;stroke-width:1.9841;stroke-linecap:round;stroke-linejoin:round;stroke-miterlimit:10;}
	.st153{clip-path:url(#SVGID_167_);}
	.st154{clip-path:url(#SVGID_169_);}
	.st155{clip-path:url(#SVGID_171_);}
	.st156{clip-path:url(#SVGID_173_);}
	.st157{fill:#53B777;}
	.st158{fill:#FBD3CC;}
	.st159{fill:#885E4D;}
	.st160{fill:none;stroke:#212226;stroke-width:1.1762;stroke-linecap:round;stroke-linejoin:round;stroke-miterlimit:10;}
	.st161{fill:none;stroke:#212226;stroke-width:1.7592;stroke-linecap:round;stroke-linejoin:round;stroke-miterlimit:10;}
	.st162{clip-path:url(#SVGID_175_);}
	.st163{clip-path:url(#SVGID_177_);}
	.st164{clip-path:url(#SVGID_179_);}
	.st165{clip-path:url(#SVGID_181_);}
	.st166{fill:#231815;stroke:#1D1115;stroke-width:2.0318;stroke-linecap:round;stroke-linejoin:round;stroke-miterlimit:10;}
	.st167{fill:#C79E93;}
	.st168{fill:#FFDBA5;}
	.st169{fill:#C89F96;}
	.st170{fill:none;stroke:#1D1115;stroke-width:2.1549;stroke-linecap:round;stroke-linejoin:round;stroke-miterlimit:10;}
	.st171{fill:#1D1115;stroke:#1D1115;stroke-width:2.1549;stroke-linecap:round;stroke-linejoin:round;stroke-miterlimit:10;}
	.st172{fill:#7D7F91;stroke:#575A6D;stroke-width:1.6112;stroke-linecap:round;stroke-linejoin:round;stroke-miterlimit:10;}
	.st173{clip-path:url(#SVGID_183_);}
	.st174{fill:#E27960;stroke:#575A6D;stroke-width:3;stroke-miterlimit:10;}
	.st175{fill:#575A6D;stroke:#575A6D;stroke-width:0.824;stroke-miterlimit:10;}
	.st176{fill:none;stroke:#575A6D;stroke-width:0.824;stroke-miterlimit:10;}
	.st177{fill:none;stroke:#212226;stroke-width:0.9867;stroke-linecap:round;stroke-linejoin:round;stroke-miterlimit:10;}
	.st178{fill:#EB9485;stroke:#212226;stroke-width:0.9867;stroke-linecap:round;stroke-linejoin:round;stroke-miterlimit:10;}
	.st179{fill:#212226;stroke:#212226;stroke-width:0.9867;stroke-linecap:round;stroke-linejoin:round;stroke-miterlimit:10;}
	.st180{clip-path:url(#SVGID_185_);}
	.st181{clip-path:url(#SVGID_187_);}
	.st182{fill:#231815;stroke:#1D1115;stroke-width:1.1799;stroke-linecap:round;stroke-linejoin:round;stroke-miterlimit:10;}
	.st183{fill:none;stroke:#212226;stroke-width:0.6742;stroke-linecap:round;stroke-linejoin:round;stroke-miterlimit:10;}
	.st184{fill:none;stroke:#212226;stroke-width:1.0083;stroke-linecap:round;stroke-linejoin:round;stroke-miterlimit:10;}
	.st185{fill:none;stroke:#1D1115;stroke-width:1.2208;stroke-linecap:round;stroke-linejoin:round;stroke-miterlimit:10;}
	.st186{fill:#1D1115;stroke:#1D1115;stroke-width:1.2208;stroke-linecap:round;stroke-linejoin:round;stroke-miterlimit:10;}
	.st187{fill:#63632C;}
	.st188{fill:#006358;}
	.st189{fill:#A3703C;}
	.st190{fill:#BCEE3B;}
	.st191{clip-path:url(#SVGID_189_);fill:#7A5233;}
	.st192{clip-path:url(#SVGID_189_);}
	.st193{fill:#54453C;}
	.st194{fill:#37312D;}
	.st195{fill:#0D474B;}
	.st196{fill:#00714B;}
	.st197{fill:#88E02C;}
	.st198{fill:#00A664;}
	.st199{fill:#55C117;}
	.st200{fill:none;stroke:#000000;stroke-width:1.3;stroke-miterlimit:10;}
</style>
<g>
	<g id="XMLID_8_">
		<g>
			<g>
				<path class="st44" d="M130.3,141.4c1.8-0.7,3.6-1.4,5.4-2.1c-0.3-0.3-0.6-0.5-1-0.8c-0.6,0.2-1.2,0.3-1.8,0.3
					c-1.4,0-3.5-0.4-5-0.9c-0.1,0-0.2,0.1-0.3,0.1c-0.2,0.1-0.4,0.1-0.5,0.2c-0.7,0.2-1.4,0.5-2.1,0.5c-0.9,0-1.9-0.3-2.4-1
					c-0.5-0.7-0.1-2.2,0.7-2.6c1.5-0.9,3.1-1.6,4.7-2.3c2.9-1.2,6-2,9.2-2.4c0-0.1,0.1-0.3,0.1-0.4l0,0l4.1-14.9l0.1,0
					c0.6-0.8,1.9-0.2,2.3,0.7c0.3,0.9,0,1.9-0.2,2.9c-0.5,2.4-0.5,4.9,0.2,7.3c0.7,0.6,1.3,1.3,1.7,2.1l-0.1,0.1
					c0.1,0.1,0.2,0.3,0.4,0.4c4.5-0.6,9.5-1.2,14-1.6c0.1,0,0.3,0,0.4,0l0,0.1c0.2,1.1,0.3,2.2,0.5,3.3c1,6.2,2.3,12.4,3.7,18.4l0,0
					c0,0,0,0,0.1,0.1c2,2.3,4.1,5,3.8,8l0,0.2c-3.2,0.4-6.7,0.3-9.8,1.1c-2.5,0.6-4.9,1.8-7.2,3.1c-0.9,0.5-1.9,1-2.9,1.4
					c-0.4-0.6-0.8-1.2-1-1.9c-0.6-1.7-0.5-3.6-0.3-5.4c0.3-2.5,0.9-5.1,0.5-7.6l0-0.1c-1.4,0.6-2.7,1.1-4.1,1.5
					c-2.5,0.8-5,1.5-7.6,1.7c-0.6,0.1-1.3,0.1-1.7-0.4c-0.7-0.8,0.2-1.9,1-2.5c2.2-1.4,4.8-2.2,7.2-3.3c0.7-0.3,1.3-0.7,2-1
					l-0.1-0.1c-0.7-0.2-1.3-0.7-1.8-1.3l0-0.1c-0.2,0-0.4,0.1-0.6,0.1c-4.5,1.2-8.9,3.2-13.4,4.5c-0.8,0.2-1.5,0.4-2.3,0.3
					c-0.7-0.1-1.4-0.5-1.7-1.1c0-0.1-0.1-0.1-0.1-0.2c-0.3-0.8,0.1-1.7,0.7-2.3c0.6-0.6,1.4-0.9,2.2-1.2
					C128.3,142.2,129.3,141.8,130.3,141.4z"/>
			</g>
			<g>
				<path class="st45" d="M163.7,127.3c0.6,0.3,0.8,1.1,0.4,1.7c-0.2,0.2-0.3,0.4-0.6,0.6c-0.6,0.5-2,0.8-2.7,1l0,0
					c-0.2-1.1-0.4-2.2-0.5-3.3l0-0.1c1-0.1,2.1-0.1,3.1,0.1C163.5,127.2,163.6,127.2,163.7,127.3z"/>
			</g>
			<g>
				<path class="st46" d="M37.2,128.9c-0.1,0-0.3,0-0.4,0c1.8-10.4,5.1-19.1,8.5-28.5c0.4-1.1,0.8-2.3,1.2-3.5
					c0.7-1.9,1.4-3.9,2-5.9c0.3-0.9,0.6-1.9,1-3c1-2.8,2.4-6.1,4.4-9.1c0.3-0.4,0.6-0.8,0.9-1.2c3.8-5.2,10.7-7.4,17.1-7.7
					c4-0.2,8.2,0.6,12-0.5l0,0c0.9-0.1,1.8-0.2,2.7-0.5c0.8,0.9,1.7,1.6,2.7,2.1l0,0.2c0,0.1,0,0.2,0,0.2c-0.8,0.1-1.6,0.4-2.2,0.9
					l0,0c-2.4,2.2-2.9,5.8-3,9c-0.2,7.1,1.1,14.5,5.4,20.1c4.4,5.6,12.4,8.6,18.8,5.7c6.3-2.9,9.2-11,8.8-17.9
					c0.4-0.3,0.8-0.5,1.1-0.8c4.6-3.5,7.4-8.2,9.3-13.7c0.2-0.5,0.4-1.1,0.5-1.7c0.8,0.1,1.5,0.2,2.3,0.4c3.5,0.2,9.1,0.7,12,2.5
					c3.5,2.1,7.2,7.1,8.8,10.9c5.9,13.8,6.8,20.6,9.7,29.5c1.2,3.7,2,8,2.9,11c-0.1-0.1-0.2-0.1-0.4-0.1c-1-0.2-2.1-0.1-3.1-0.1
					c-0.1,0-0.3,0-0.4,0c-4.5,0.3-9.5,1-14,1.6c-0.1-0.1-0.3-0.3-0.4-0.4l0.1-0.1c-0.5-0.8-1.1-1.5-1.7-2.1
					c-0.6-2.4-0.7-4.9-0.2-7.3c0.2-0.9,0.5-2,0.2-2.9s-1.7-1.4-2.3-0.7l-0.1,0l0.7-2.6c0.4-1.6-0.7-3.2-2.4-3.3l-13.9-1.1
					c-2-0.2-3.9,1.1-4.4,3.1l-0.5,1.8c-5.4,4-10.4,8.4-15.1,13.2l0.1,0.2c-0.7,0.3-1.4,0.6-2.1,1l0,0c-2.9,1.5-5.3,3.7-7.8,5.7
					c-1,0.8-2,1.6-3.1,2.2l0,0.1c-0.9,0.5-1.9,1-2.9,1.3l0-0.1c-10.5,4.1-19,7.7-28.4,8c-2.4,0.1-4.8,0.1-7.3,0.1
					c0-0.2,0.1-0.4,0.1-0.7c1.1-3,2-5.7,2.8-8.6l0,0c1.6,0.3,3.5,0.3,5.2,0.3c0.3,0,0.8-0.1,0.9-0.3c0,0,0-0.1,0.1-0.1
					c0.1-0.2,0-0.3-0.1-0.5c-0.2-0.3-0.5-0.5-0.8-0.6c-1.5-0.6-3.1-1.2-4.7-1.7C51.2,130.5,44.3,129.2,37.2,128.9z"/>
			</g>
			<g>
				<path class="st44" d="M147.6,148.1c0.5,2.5-0.1,5.1-0.5,7.6c-0.2,1.8-0.3,3.7,0.3,5.4c-1.8-3.6-3.3-7.4-3.9-11.4l0-0.1
					C144.8,149.1,146.2,148.6,147.6,148.1L147.6,148.1z"/>
			</g>
			<g>
				<path class="st44" d="M144.3,143.9l0.1,0.1c-0.6,0.4-1.3,0.7-2,1l-0.1-0.1c-0.1-0.8-0.3-1.5-0.4-2.3l0,0c0.2,0,0.4-0.1,0.6-0.1
					l0,0.1C143,143.2,143.6,143.6,144.3,143.9z"/>
			</g>
			<g>
				<path class="st47" d="M139.7,109.3c1.7,0.1,2.8,1.7,2.4,3.3l-0.7,2.6l-4.1,14.9l0,0c0,0.1-0.1,0.3-0.1,0.4
					c-3.1,0.4-6.2,1.2-9.2,2.4l0,0c-3.5-1.7-7.4-2.1-11.3-2.1l0-0.2l0.7-2.7l2.2-8.4l0,0c0.8-0.7,1.5-1.5,2-2.4
					c0.7-1.3,0.4-3.1-0.7-4l0.5-1.8c0.5-2,2.4-3.3,4.4-3.1L139.7,109.3z"/>
			</g>
			<g>
				<path class="st48" d="M135.6,139.3c-1.8,0.7-3.6,1.4-5.4,2.1c-0.7-1.3-1.9-2.6-3.2-3l0-0.1c0.2-0.1,0.4-0.1,0.5-0.2
					c0.1,0,0.2-0.1,0.3-0.1c1.4,0.5,3.5,0.9,5,0.9c0.6,0,1.3-0.1,1.8-0.3C135,138.8,135.3,139,135.6,139.3z"/>
			</g>
			<g>
				<path class="st49" d="M83.9,69.5c-3.9,1.1-8,0.3-12,0.5c-6.4,0.2-13.4,2.5-17.1,7.7c-0.3,0.4-0.6,0.8-0.9,1.2
					c-0.5-0.3-0.9-0.7-1.1-1.3l0.1,0c-0.7-1.8-0.6-3.7,0.1-5.6c0.6-1.8,1.8-3.6,3.2-4.9c1.1-1,2.3-2,3.5-2.8c2-1.4,4-2.6,5.9-4
					C69.1,57.5,72,54,74,49.9c0.8-1.6,1.4-3.2,2-4.9c1.2-3.4,2.2-6.9,3.9-10.1c2.5-4.7,7.1-9,12.4-8.7l0-0.1c0.3-0.1,0.7-0.1,1,0
					c0.3-0.3,0.7-0.6,1-0.9c2.2-1.8,5.8-3.4,8.8-3.8l0,0c1.1-0.2,2.3-0.4,3.4-0.6c9-2.9,21.6,4,25.9,11.9c4.4,8,4.1,16.4,2,23.1
					l-0.1,0c-0.3,1.1-0.9,2.1-1.6,3l0,0c-1.1,1.7-1.9,3.6-2.5,5.5c-0.2-0.8-0.3-1.6-0.3-2.3c-0.2-3.4,0.1-6.7-0.2-10.1
					c-0.3-2.6-1-5.3-2.5-7.3l0,0c-1-1.1-2.5-1.7-4-2c-1.5-0.3-2.9,0.3-4.3-0.1c0,0,0,0,0,0c-2.4-0.8-5.1-0.9-7.6-0.3l0,0
					c-2.3,0.8-4.4,2.1-6.2,3.8c-2.1,2.1-3.6,4.8-5.6,7.1s-4.2,4.2-7.3,4.3l0,0c-0.5,0-1-0.1-1.5-0.1l-0.1,0c-1.1-1-2.9-1.5-4-0.9
					c-1.4,0.8-2.4,2.4-2.7,4c-0.5,3,0.6,6.2,2.6,8.5C85.7,69.3,84.8,69.4,83.9,69.5L83.9,69.5z"/>
			</g>
			<g>
				<path class="st44" d="M34,146.7c0.9-6,1.9-12.1,3.1-17.9c7.1,0.3,14,1.6,20.8,3.8c-0.2,1-0.4,1.9-0.7,2.9
					c-0.8,2.9-1.7,5.7-2.8,8.6c0,0.2,0,0.4-0.1,0.7c2.4-0.1,4.9,0,7.3-0.1c9.3-0.3,17.9-3.9,28.4-8l0,0.1c1-0.3,2-0.8,2.9-1.3l0-0.1
					c1.1-0.6,2.1-1.4,3.1-2.2c2.5-2.1,5-4.3,7.8-5.7l0,0c0.7-0.3,1.4-0.6,2.1-1l-0.1-0.2c4.7-4.8,9.7-9.2,15.1-13.2
					c1.1,0.9,1.3,2.7,0.7,4c-0.5,0.9-1.2,1.7-2,2.4c-0.3,0.3-0.6,0.5-0.9,0.8c-1.7,1.6-3.1,3.4-4.3,5.4c-0.4,0.7-0.8,1.5-1.2,2.2
					c0.2,0,0.3,0,0.4,0.1v-0.1c1.2,0,2.4,0,3.6,0l0,0l-0.7,2.7l0,0.2c3.9,0,7.8,0.4,11.3,2.1l0,0c-1.6,0.6-3.2,1.4-4.7,2.3
					c-0.8,0.4-1.2,1.9-0.7,2.6c0.5,0.7,1.5,1,2.4,1c0.7,0,1.4-0.2,2.1-0.5l0,0.1c1.3,0.5,2.6,1.8,3.2,3c-1,0.4-2,0.8-3,1.2
					c-0.8,0.3-1.6,0.6-2.2,1.2c-0.6,0.6-1,1.5-0.7,2.3c0,0.1,0.1,0.1,0.1,0.2c-0.2,0.1-0.3,0.1-0.5,0.2l0,0c-1,0.4-2.1,0.4-3.2,0.4
					c-1.2,0-2.4,0.1-3.6,0.3c-1.3,0.2-2.5,0.4-3.8,0.8l0,0c-0.5-0.1-1-0.1-1.5,0.1l0,0.1c-2.6,1.8-5.8,2.4-9,2.7
					c-2.2,0.2-4.4,0.2-6.7,0.4c-0.8,0.1-1.7,0.2-2.5,0.3c-1,0.1-1.9,0.2-2.9,0.7l0-0.1c-6.8,4.3-14.4,8.1-21.9,10.9
					c-0.3-0.1-0.5-0.3-0.8-0.4c-2.3-1.1-4.7-2.3-7.3-2.6c-5.2-0.8-10.5,1.8-15.7,1c-3-0.5-5.9-2-8.9-2.1c-0.6,0-1.2,0-1.8,0.1l0-0.1
					c-1.5-2.5-1.2-5.7-0.8-8.7C33.7,149.1,33.8,147.9,34,146.7z"/>
			</g>
			<g>
				<path class="st44" d="M89.2,71.1c-1-0.5-1.9-1.3-2.7-2.1c-2.1-2.3-3.1-5.4-2.6-8.5c0.3-1.6,1.2-3.2,2.7-4c1.1-0.6,2.9-0.1,4,0.9
					l0.1,0c0.5,0,1,0.1,1.5,0.1l0,0c3-0.1,5.3-2,7.3-4.3s3.4-5,5.6-7.1c1.7-1.7,3.9-3,6.2-3.8l0,0c2.5-0.6,5.1-0.5,7.6,0.3
					c0,0,0,0,0,0c1.4,0.4,2.8-0.1,4.3,0.1c1.5,0.3,3,0.9,4,2l0,0c1.5,2.1,2.3,4.7,2.5,7.3c0.4,3.3,0.1,6.7,0.2,10.1
					c0,0.8,0.1,1.5,0.3,2.3c-0.9,2.9-1.4,5.9-2.3,8.8c-0.2,0.6-0.3,1.1-0.5,1.7c-1.9,5.5-4.7,10.2-9.3,13.7
					c-0.4,0.3-0.7,0.6-1.1,0.8c0.4,6.9-7.5,27.4-11.3,30.8c-5.3,4.7-9.4-6.9-16.3-18.5c-3.6-6.1-5.6-13-5.4-20.1
					c0.1-3.3,0.6-6.8,3-9l0,0c0.6-0.5,1.4-0.9,2.2-0.9c0-0.1,0-0.2,0-0.2L89.2,71.1z M123.6,67.3c0.1-1-0.6-1.8-1.5-1.9
					c-0.9-0.1-1.7,0.7-1.8,1.6c-0.1,1,0.6,1.8,1.5,1.9C122.7,69,123.5,68.3,123.6,67.3z M108.5,66.4c0-1-0.8-1.8-1.8-1.8
					s-1.8,0.8-1.8,1.8s0.8,1.8,1.8,1.8S108.5,67.4,108.5,66.4z"/>
			</g>
			<g>
				<path class="st182" d="M122,65.4c0.9,0.1,1.6,0.9,1.5,1.9c-0.1,1-0.9,1.7-1.8,1.6c-0.9-0.1-1.6-0.9-1.5-1.9
					C120.3,66,121.1,65.3,122,65.4z"/>
			</g>
			<g>
				<path class="st46" d="M113.7,127.9v0.1c-0.1-0.1-0.3-0.1-0.4-0.1c0.4-0.7,0.8-1.5,1.2-2.2c1.2-2,2.6-3.8,4.3-5.4
					c0.3-0.3,0.6-0.5,0.9-0.8l0,0l-2.2,8.4l0,0C116.1,127.9,114.9,127.9,113.7,127.9z"/>
			</g>
			<g>
				<path class="st46" d="M113.4,148c1.2-0.3,2.5-0.6,3.8-0.8c-0.2,0.3-0.5,0.5-0.7,0.7l0,0c-1.3,1.9-3.4,3.2-5.6,3.9
					c-2.1,0.7-4.4,1-6.7,1.2c-0.4-0.1-0.7-0.2-1.1-0.3c-1.7-0.5-5.4-1.4-6.8-1.4l0-0.2c2.2-0.2,4.4-0.2,6.7-0.4
					c3.1-0.3,6.3-0.9,9-2.7l0-0.1C112.3,147.9,112.8,147.9,113.4,148L113.4,148z"/>
			</g>
			<g>
				<circle class="st182" cx="106.7" cy="66.4" r="1.8"/>
			</g>
			<g>
				<path class="st45" d="M63.4,134.9c0,0.2,0,0.4,0,0.6c-0.2,0.3-0.6,0.3-0.9,0.3c-1.6,0-3.5,0-5.2-0.3l0,0
					c0.2-0.9,0.5-1.9,0.7-2.9c1.6,0.5,3.1,1.1,4.7,1.7C62.8,134.4,63.2,134.7,63.4,134.9z"/>
			</g>
			<g>
				<path class="st44" d="M24.1,14L24.1,14c0.1-0.6,0.6-1.1,1.2-1.2l0,0c0.6-0.2,1.4,0.2,1.8,0.8c0.4,0.6,0.8,1.4,0.9,2.1
					c0.3,0.4,0.7,0.8,1,1.3c1.8,0.6,3.2,1.7,4.3,3.3c2.7,3.9,3.6,10.2,5.9,14.5c0.5,0.9,1.1,1.9,1.8,2.9c1.7,2.4,3.6,4.9,4.4,7.3
					c0.8,2.3,0.7,5.1-0.4,7.2c0.2,0.9,0.5,1.9,0.9,2.8l-0.1,0c0.1,1.4,0.7,2.8,1.3,4.1c1.9,4.3,3.8,8.6,5.7,12.9l0.1,0
					c-0.6,1.8-0.8,3.8-0.1,5.6l-0.1,0c0.2,0.5,0.6,1,1.1,1.3c-2,3-3.4,6.4-4.4,9.1c-0.9-0.2-1.8-0.3-2.6-0.3l0,0
					c-2.9-0.7-5.9,0.3-8.8,1.3c-0.1-0.3-0.1-0.5-0.1-0.8l0,0C37.6,82,36.9,75.4,35.8,69l-0.1,0c-1.1,7.9-2,15-2.3,21.5
					c-2.4,0.6-4.8,1-7.2,1.7c-5.6,1.6-10.7,4.8-15.2,8.6c-2.2,1.9-4.3,4-5.8,6.5c-0.3-9.2,3.4-18.5,7-27
					c4.4-10.5,8.9-21.1,13.3-31.6c0.3-0.7,0.7-1.3,1-2c-2-4.8-4-8.6-8-13.5c-2.3-2.9-4.8-5.7-6.1-9.1c-0.2-0.9-0.4-1.8-0.6-2.8
					c-0.4-0.8-1-1.5-1.5-2.2c-1-1.3-1.9-2.8-1.8-4.5s1.4-3.3,3-3.2c0.8,0,1.6,0.5,2.1,1.2c0-0.2,0-0.4,0-0.6h0
					c-0.3-0.8,0.5-1.7,1.4-1.7c0.8,0,1.6,0.6,2,1.3c0.1,0.2,0.2,0.3,0.2,0.5c0.5-1.2,2.3-1.6,3.2-0.6c0.1,0.1,0.2,0.3,0.3,0.6
					c0.2-0.4,0.6-0.6,1.1-0.6l0,0c0.6-0.1,1.3,0.2,1.7,0.6C23.9,12.7,24,13.4,24.1,14z"/>
			</g>
			<g>
				<path class="st44" d="M39.6,3.5L39.6,3.5c0.5-0.5,1.3-0.6,2-0.3c0.3,0.2,0.6,0.4,0.8,0.7c0.1,0,0.3,0,0.4,0l0,0
					c0.8-0.1,1.7,0.5,2.1,1.2c0.4-0.2,0.8-0.4,1.2-0.6l0,0c0.8-0.4,1.9-0.1,2.5,0.6c0.7,0.8,0.9,2,0.9,3c0,0.5,0,0.9-0.1,1.4l0,0
					c1.3,2,0.9,4.7,0,7c-1,2.4-2.4,4.6-2.7,7.2l0.1,0c0.2,0.6,0.5,1.2,0.7,1.9l0,0c1.1,2.1,1.3,4.8,0.4,7c-0.9,2.2-2.8,3.9-5.1,4.4
					c0,0,0,0,0,0c-0.5,0.3-1.1,0.6-1.7,0.7c-0.7-1-1.3-2-1.8-2.9c-2.2-4.3-3.1-10.6-5.9-14.5l0.1,0c0.2-0.8,0.3-1.6,0.1-2.4
					c0.3-3.6,0.7-7.2,1-10.9h0c0-0.4,0-0.8,0-1.2h-0.1c-0.1-0.7-0.1-1.5,0.2-2.1C35,3,35.8,2.5,36.5,2.8c0.1,0.1,0.2,0.2,0.3,0.3
					c0.5-0.4,1.7-0.6,2.2-0.3C39.2,3,39.4,3.2,39.6,3.5z"/>
			</g>
			<g>
				<path class="st51" d="M38.1,89c2.9-1.1,5.8-2.1,8.8-1.3l0,0c0.9-0.1,1.8,0,2.6,0.3c-0.4,1.1-0.7,2.1-1,3c-0.7,2-1.4,4-2,5.9
					c-0.9,0.2-1.8,0.5-2.7,1l0,0c-8.3,2.7-16.5,10-19.7,18.1c-3.3,8.2-2.6,17.9,1.7,25.6l0,0c0.2,0.5,0.5,1,0.9,1.4
					c-3.2-0.4-6.6-1.1-9.3-1.9c-3.5-1.1-6.9-2.7-9.4-5.3c-4.4-4.5-5.4-11.2-5.2-17.5c0.1-3.5,0.5-7.2,2.1-10.3
					c0.1-0.2,0.2-0.5,0.4-0.7c1.4-2.5,3.6-4.6,5.8-6.5c4.5-3.8,9.6-7,15.2-8.6c2.4-0.7,4.8-1.1,7.2-1.7c0.6-0.1,1.1-0.3,1.7-0.5
					C36.1,89.7,37.1,89.4,38.1,89z"/>
			</g>
			<g>
				<path class="st52" d="M25.8,141.6L25.8,141.6c-4.4-7.7-5-17.4-1.7-25.6c3.2-8.1,11.4-15.3,19.7-18.1l0,0c0.8-0.4,1.8-0.8,2.7-1
					c-0.4,1.2-0.8,2.3-1.2,3.5c-0.8,0.3-1.5,0.8-2.2,1.3l0.1,0.1c-1.7,0.9-3.4,1.8-5,2.9c-6.8,4.6-11.7,11.9-12.7,20
					c-0.8,6.4,1.2,13.4,5.2,18.5l-0.2,0.1c-1.1,0-2.4-0.1-3.6-0.3C26.4,142.6,26.1,142.1,25.8,141.6z"/>
			</g>
			<g>
				<path class="st44" d="M43,101.7l-0.1-0.1c0.7-0.5,1.4-0.9,2.2-1.3c-3.4,9.4-6.6,18.1-8.5,28.5c0.1,0,0.3,0,0.4,0
					c-1.2,5.8-2.2,12-3.1,17.9c-1.3-1-2.5-2.2-3.5-3.6c-4-5.1-6-12.1-5.2-18.5c1-8.1,6-15.5,12.7-20C39.6,103.6,41.3,102.6,43,101.7
					z"/>
			</g>
		</g>
		<g>
			<path class="st53" d="M131.5,124.9c-0.5,0.1-1,0-1.1-0.4c-0.1-0.2,0-0.4,0-0.6c0-0.1,0.1-0.3,0.2-0.4c0.3-0.2,0.6-0.5,0.6-0.5
				l1.3-1h-1l-2,1.5l1.1-2.9h-0.7l-1.9,5h0.7l0.4-1l0.5-0.3c-0.1,0.8,0.4,1.4,1.3,1.4c0.1,0,0.3,0,0.4,0L131.5,124.9z"/>
		</g>
	</g>
	<g>
		<path class="st54" d="M109.8,92.4c-0.1,0-0.3,0-0.4,0c-2.5-0.1-5.1-1.2-7.8-3.3c-5.6-4.3-9.3-9.7-10.7-15.2
			c-0.1-0.3,0.1-0.5,0.4-0.6c0.3-0.1,0.5,0.1,0.6,0.4c1.3,5.3,4.9,10.6,10.3,14.7c2.6,2,4.9,3,7.2,3.1c2.6,0.1,5.4-1,8.4-3.3
			c4.1-3.2,7.1-7.6,9.1-13.4c0.6-1.8,1.1-3.8,1.5-5.6c0.9-3.8,1.8-7.7,4.2-10.9c0.2-0.2,0.5-0.3,0.7-0.1c0.2,0.2,0.3,0.5,0.1,0.7
			c-2.2,3.1-3.1,6.7-4,10.6c-0.5,1.9-0.9,3.9-1.6,5.7c-2.1,6.1-5.2,10.6-9.5,13.9C115.5,91.2,112.5,92.4,109.8,92.4z"/>
	</g>
	<g>
		<path class="st54" d="M90.5,72.1c-0.1,0-0.1,0-0.2,0c-2.2-0.8-4.2-2.4-5.5-4.6c-1.3-2.2-1.8-4.7-1.4-7c0.3-1.9,1.4-3.6,2.9-4.4
			c0.8-0.4,1.8-0.4,2.9-0.1c1.2,0.4,2.1,1.2,2.5,2.1c0.1,0.3,0,0.5-0.3,0.6c-0.3,0.1-0.5,0-0.6-0.3c-0.2-0.6-1-1.2-1.9-1.6
			c-0.8-0.3-1.6-0.3-2.1,0c-1.2,0.7-2.2,2.1-2.4,3.7c-0.7,4.4,2,9.1,6.2,10.6c0.3,0.1,0.4,0.4,0.3,0.6C90.9,72,90.7,72.1,90.5,72.1z
			"/>
	</g>
	<g>
		<path class="st54" d="M106.7,68.7c-1.3,0-2.3-1-2.3-2.3c0-1.3,1-2.3,2.3-2.3c1.3,0,2.3,1,2.3,2.3C109,67.7,108,68.7,106.7,68.7z
			 M106.7,65.2c-0.7,0-1.3,0.6-1.3,1.3s0.6,1.3,1.3,1.3c0.7,0,1.3-0.6,1.3-1.3S107.4,65.2,106.7,65.2z"/>
	</g>
	<g>
		<path class="st54" d="M121.9,69.4c-0.1,0-0.1,0-0.2,0c-0.6,0-1.1-0.3-1.5-0.8c-0.4-0.5-0.5-1-0.5-1.6c0.1-1.2,1.2-2.2,2.4-2.1
			c0.6,0,1.1,0.3,1.5,0.8c0.4,0.5,0.5,1,0.5,1.6l0,0c0,0.6-0.3,1.1-0.8,1.5C122.9,69.2,122.4,69.4,121.9,69.4z M121.9,65.9
			c-0.6,0-1.2,0.5-1.2,1.2c0,0.3,0.1,0.7,0.3,0.9c0.2,0.3,0.5,0.4,0.8,0.4c0.3,0,0.6-0.1,0.9-0.3c0.3-0.2,0.4-0.5,0.4-0.9l0,0
			c0-0.3-0.1-0.7-0.3-0.9C122.6,66,122.3,65.9,121.9,65.9C122,65.9,121.9,65.9,121.9,65.9z"/>
	</g>
	<g>
		<path class="st54" d="M110,65c-0.1,0-0.3-0.1-0.4-0.2c-0.9-0.9-2.2-1.5-3.5-1.5c0,0,0,0,0,0c-1.3,0-2.6,0.5-3.5,1.5
			c-0.2,0.2-0.5,0.2-0.7,0c-0.2-0.2-0.2-0.5,0-0.7c1.1-1.1,2.6-1.8,4.2-1.8c0,0,0,0,0,0c1.6,0,3.1,0.7,4.2,1.8
			c0.2,0.2,0.2,0.5,0,0.7C110.2,65,110.1,65,110,65z"/>
	</g>
	<g>
		<path class="st54" d="M126.1,66.4c-0.2,0-0.4-0.1-0.4-0.3c-0.6-1.2-1.7-2-3-2.1c-1.2-0.2-2.5,0.4-3.4,1.3
			c-0.2,0.2-0.5,0.2-0.7,0.1c-0.2-0.2-0.2-0.5-0.1-0.7c1.1-1.2,2.7-1.9,4.2-1.7c1.6,0.2,3,1.2,3.7,2.7c0.1,0.2,0,0.5-0.2,0.7
			C126.2,66.4,126.1,66.4,126.1,66.4z"/>
	</g>
	<g>
		<path class="st54" d="M114.8,77.6c-0.2,0-0.4-0.1-0.4-0.3c-0.1-0.2,0-0.5,0.3-0.6c0.7-0.3,1.3-0.6,1.9-1c0.6-0.5,0.9-1,0.9-1.6
			c0-0.5-0.2-1.1-0.4-1.6c0-0.1-0.1-0.1-0.1-0.2c-1.3-3.2-1.2-6.5,0.1-8.9c0.1-0.2,0.4-0.3,0.7-0.2c0.2,0.1,0.3,0.4,0.2,0.7
			c-1.2,2.2-1.2,5.1,0,8c0,0.1,0.1,0.1,0.1,0.2c0.2,0.6,0.5,1.3,0.5,2.1c-0.1,0.8-0.5,1.6-1.3,2.3c-0.6,0.5-1.4,0.9-2.1,1.2
			C115,77.6,114.9,77.6,114.8,77.6z"/>
	</g>
	<g>
		<path class="st54" d="M112.7,82.7c-2.9,0-5.9-0.9-8.3-2.5c-0.2-0.2-0.3-0.5-0.1-0.7c0.2-0.2,0.5-0.3,0.7-0.1
			c3.7,2.6,8.9,3.1,13,1.3c0.2-0.1,0.5,0,0.6,0.3c0.1,0.2,0,0.5-0.3,0.6C116.6,82.4,114.6,82.7,112.7,82.7z"/>
	</g>
	<g>
		<path class="st54" d="M101.3,59.4c-0.2,0-0.3-0.1-0.4-0.2c-0.2-0.2-0.1-0.5,0.1-0.7c2.7-1.9,6.5-2,9.3-0.2
			c0.2,0.1,0.3,0.4,0.1,0.7c-0.1,0.2-0.4,0.3-0.7,0.1c-2.5-1.6-5.8-1.5-8.2,0.2C101.5,59.3,101.4,59.4,101.3,59.4z"/>
	</g>
	<g>
		<path class="st54" d="M128.3,61.1c-0.1,0-0.3-0.1-0.4-0.2c-1.9-2.1-5.2-2.7-7.7-1.3c-0.2,0.1-0.5,0-0.7-0.2
			c-0.1-0.2,0-0.5,0.2-0.7c2.8-1.6,6.8-0.9,8.9,1.5c0.2,0.2,0.2,0.5,0,0.7C128.5,61,128.4,61.1,128.3,61.1z"/>
	</g>
	<g>
		<path class="st54" d="M92.2,57.9c-0.3,0-0.5-0.2-0.5-0.5c0-0.3,0.2-0.5,0.5-0.5c2.4-0.1,4.6-1.4,6.9-4.1c0.8-0.9,1.5-1.9,2.1-2.8
			c1.1-1.5,2.1-3,3.5-4.3c1.9-1.8,4.2-3.2,6.7-4c0.3-0.1,0.5,0.1,0.6,0.3c0.1,0.3-0.1,0.5-0.3,0.6c-2.4,0.7-4.5,2-6.3,3.8
			c-1.3,1.2-2.3,2.7-3.3,4.2c-0.7,1-1.4,2-2.2,2.9C98.3,55.3,95.8,57.8,92.2,57.9C92.2,57.9,92.2,57.9,92.2,57.9z"/>
	</g>
	<g>
		<path class="st54" d="M101.9,62.3c-0.2,0-0.4-0.1-0.5-0.3c-0.1-0.3,0.1-0.5,0.3-0.6c2.9-0.9,5.7-3.6,7.7-7.5
			c1.8-3.6,2.9-7.7,3.9-11.6c0.1-0.3,0.3-0.4,0.6-0.4c0.3,0.1,0.4,0.3,0.4,0.6c-1,4-2.1,8.2-4,11.8c-2.1,4.2-5.1,7-8.3,8
			C102,62.2,101.9,62.3,101.9,62.3z"/>
	</g>
	<g>
		<path class="st54" d="M128.9,65.6c-0.1,0-0.1,0-0.2,0c-1.4-0.6-2.5-1.6-3.5-3c-0.8-1.2-1.5-2.6-2-4.2c-0.5-1.7-0.7-3.5-1-5.2
			c-0.2-1.2-0.3-2.4-0.6-3.6c-0.7-3.4-2.1-5.9-4-7.3c-0.2-0.2-0.3-0.5-0.1-0.7c0.2-0.2,0.5-0.3,0.7-0.1c2.2,1.6,3.6,4.2,4.4,7.9
			c0.2,1.2,0.4,2.4,0.6,3.6c0.2,1.7,0.5,3.4,0.9,5.1c0.5,1.9,1.9,5.2,4.9,6.6c0.2,0.1,0.4,0.4,0.3,0.6
			C129.3,65.5,129.1,65.6,128.9,65.6z"/>
	</g>
	<g>
		<path class="st54" d="M133,69.2c-0.1,0-0.2,0-0.2-0.1c-2-1.1-3.1-3.4-3.3-7c-0.1-1.4-0.1-2.9-0.1-4.3c0-1.9,0-3.8-0.2-5.7
			c-0.3-2.7-1.2-6.3-3.9-8.7c-0.2-0.2-0.2-0.5,0-0.7c0.2-0.2,0.5-0.2,0.7,0c2.9,2.5,3.9,6.5,4.2,9.3c0.2,2,0.2,3.9,0.2,5.9
			c0,1.4,0,2.8,0.1,4.2c0.2,3.2,1.1,5.3,2.8,6.2c0.2,0.1,0.3,0.4,0.2,0.7C133.4,69.1,133.2,69.2,133,69.2z"/>
	</g>
	<g>
		<path class="st54" d="M106.3,96.7c-0.1,0-0.2,0-0.3-0.1c-0.2-0.2-0.3-0.5-0.1-0.7c1.2-1.5,2.4-2.9,3.8-4.2c0.2-0.2,0.5-0.2,0.7,0
			c0.2,0.2,0.2,0.5,0,0.7c-1.3,1.3-2.6,2.7-3.7,4.1C106.6,96.6,106.4,96.7,106.3,96.7z"/>
	</g>
	<g>
		<path class="st54" d="M87.2,76.8c-0.1,0-0.3-0.1-0.4-0.2c-0.2-0.2-0.2-0.5,0-0.7c1.3-1.1,2-2.9,1.9-4.6c0-0.3,0.2-0.5,0.5-0.5
			c0.3,0,0.5,0.2,0.5,0.5c0.1,2-0.7,4-2.2,5.4C87.5,76.7,87.3,76.8,87.2,76.8z"/>
	</g>
	<g>
		<path class="st54" d="M103.3,121.2c-0.6,0-1-0.1-2.3-0.8c-4.4-2.4-9.3-14-11.6-16.9c-2.1-2.7-4-7.6-4.9-11.4
			c-0.8-3.2-1.1-6.8-1-10.7c0.1-2.1,0.3-3.7,0.7-5.2c0.6-1.9,1.5-3.4,2.7-4.4c0.2-0.2,0.5-0.1,0.7,0.1c0.2,0.2,0.1,0.5-0.1,0.7
			c-2.6,2.2-3,6.1-3.1,8.9c-0.1,3.8,0.2,7.3,1,10.5c0.9,3.6,2.8,8.4,4.8,10.9c2.1,2.7,8,15,11,16.7c1.9,1,2.7,1.4,4.3,0
			c2.3-2.1,7.7-16.5,9.2-19.8c1.4-3,2-6.6,1.8-10.1c0-0.3,0.2-0.5,0.5-0.5c0.3,0,0.5,0.2,0.5,0.5c0.2,3.6-0.4,7.4-1.9,10.5
			c-1.6,3.5-7.2,18.8-9.7,20.3C104.6,121.2,104.3,121.2,103.3,121.2z"/>
	</g>
	<g>
		<path class="st54" d="M62.2,136.3c-1.6,0-3.2-0.1-4.8-0.4c-0.3,0-0.4-0.3-0.4-0.6c0-0.3,0.3-0.4,0.6-0.4c1.6,0.3,3.2,0.4,4.8,0.4
			c0.4,0,0.5-0.1,0.6-0.1c0,0,0,0,0,0c0-0.1-0.2-0.3-0.6-0.4c-8.6-3.4-17.2-5.2-25.7-5.5c-0.1,0-0.3-0.1-0.4-0.2
			c-0.1-0.1-0.1-0.3-0.1-0.4c1.8-9.9,4.8-18.3,8-27.2c1.2-3.4,2.5-7,3.8-10.7c1.1-3.3,3-8.9,6.3-13.5c1.8-2.5,4.5-4.5,7.8-5.9
			c2.9-1.2,6.3-1.9,9.7-2c1.4-0.1,2.8,0,4.1,0.1c2.8,0.1,5.4,0.2,8-0.5c0.3-0.1,0.5,0.1,0.6,0.3c0.1,0.3-0.1,0.5-0.3,0.6
			c-2.7,0.8-5.5,0.7-8.3,0.6c-1.3-0.1-2.7-0.1-4-0.1c-3.4,0.1-6.6,0.8-9.4,2c-3.2,1.3-5.7,3.2-7.4,5.5c-3.3,4.5-5.1,9.9-6.2,13.2
			c-1.2,3.7-2.5,7.3-3.8,10.8c-3.1,8.6-6.1,16.8-7.9,26.5c8.4,0.3,16.9,2.2,25.4,5.5c1,0.4,1.4,1,1.2,1.7c-0.2,0.5-0.7,0.7-1.5,0.7
			C62.3,136.3,62.3,136.3,62.2,136.3z"/>
	</g>
	<g>
		<path class="st54" d="M34.4,159.5c-0.2,0-0.3-0.1-0.4-0.2c-1.6-2.6-1.3-5.9-0.9-9c0.9-7.1,2.2-14.3,3.6-21.3
			c0.1-0.3,0.3-0.4,0.6-0.4c0.3,0.1,0.4,0.3,0.4,0.6c-1.5,7-2.7,14.1-3.6,21.2c-0.4,2.9-0.7,6,0.8,8.4c0.1,0.2,0.1,0.5-0.2,0.7
			C34.5,159.4,34.4,159.5,34.4,159.5z"/>
	</g>
	<g>
		<path class="st27" d="M74.4,166.3c-0.1,0-0.1,0-0.2,0l-6.4-3.1c-2.3-1.1-4.6-2.2-7.1-2.6c-2.5-0.4-5.1,0.1-7.7,0.5
			c-2.6,0.4-5.3,0.9-8,0.5c-1.3-0.2-2.6-0.6-3.9-1c-1.7-0.5-3.3-1-5-1.1c-0.6,0-1.2,0-1.8,0.1c-0.9,0.1-1.8,0.1-2.7,0
			c-0.8-0.1-1.7-0.4-2.3-0.9c-0.8-0.6-1.2-1.3-1.4-2.1c0-0.3,0.1-0.5,0.4-0.6c0.3,0,0.5,0.1,0.6,0.4c0.2,1.3,1.6,2,2.8,2.2
			c0.8,0.1,1.7,0.1,2.5,0c0.6,0,1.2-0.1,1.9-0.1c1.8,0,3.5,0.6,5.2,1.1c1.2,0.4,2.5,0.8,3.8,1c2.5,0.4,5.2-0.1,7.7-0.5
			c2.6-0.4,5.3-0.9,8-0.5c2.7,0.4,5.1,1.6,7.4,2.7l6.4,3.1c0.2,0.1,0.3,0.4,0.2,0.7C74.7,166.2,74.6,166.3,74.4,166.3z"/>
	</g>
	<g>
		<path class="st54" d="M54.4,144.9c-0.1,0-0.1,0-0.2,0c-0.3-0.1-0.4-0.4-0.3-0.6c1.4-3.8,2.5-7.1,3.4-11.5c0.1-0.3,0.3-0.4,0.6-0.4
			c0.3,0.1,0.4,0.3,0.4,0.6c-0.9,4.4-2,7.8-3.4,11.6C54.7,144.8,54.6,144.9,54.4,144.9z"/>
	</g>
	<g>
		<path class="st54" d="M40.6,148.2c-0.2,0-0.3-0.1-0.4-0.3c-0.1-0.2,0-0.5,0.2-0.7c5.2-2.8,11.2-2.9,17.1-2.9c1.4,0,2.9,0,4.3-0.1
			c8.5-0.3,16.6-3.4,25.9-7.1c1-0.4,1.9-0.8,2.9-1.1c0.3-0.1,0.5,0,0.6,0.3c0.1,0.3,0,0.5-0.3,0.6c-1,0.4-2,0.8-2.9,1.1
			c-9.4,3.7-17.5,6.8-26.2,7.1c-1.4,0.1-2.9,0.1-4.3,0.1c-5.7,0-11.7,0.1-16.6,2.8C40.7,148.1,40.6,148.2,40.6,148.2z"/>
	</g>
	<g>
		<path class="st54" d="M92.3,136.2c-0.2,0-0.4-0.1-0.4-0.3c-0.1-0.2,0-0.5,0.2-0.7c1.3-0.6,2.5-1.5,3.6-2.5c0.3-0.3,0.6-0.5,1-0.8
			c2.4-2,4.9-4,7.7-5.3c0.2-0.1,0.5,0,0.6,0.2c0.1,0.2,0,0.5-0.2,0.6c-2.8,1.2-5.2,3.3-7.5,5.2c-0.3,0.3-0.6,0.5-1,0.8
			c-1.2,1-2.4,2-3.9,2.6C92.4,136.2,92.3,136.2,92.3,136.2z"/>
	</g>
	<g>
		<path class="st54" d="M112.6,129.8c-0.1,0-0.2,0-0.2-0.1c-0.2-0.1-0.3-0.4-0.2-0.7l0.6-1.2c0.4-0.8,0.8-1.6,1.3-2.4
			c1.2-2,2.6-3.9,4.3-5.5c0.2-0.2,0.4-0.3,0.6-0.5c0.9-0.8,1.7-1.6,2.2-2.5c0.5-1,0.4-2.3-0.3-3.1c-5.2,3.9-10.2,8.2-14.7,12.9
			c-0.2,0.2-0.5,0.2-0.7,0c-0.2-0.2-0.2-0.5,0-0.7c4.7-4.8,9.8-9.3,15.2-13.3c0.2-0.1,0.4-0.1,0.6,0c1.2,1,1.6,3.1,0.8,4.6
			c-0.6,1.1-1.5,2-2.4,2.8c-0.2,0.2-0.4,0.3-0.5,0.5c-1.6,1.5-3,3.3-4.2,5.3c-0.4,0.8-0.9,1.6-1.3,2.4l-0.6,1.2
			C112.9,129.7,112.8,129.8,112.6,129.8z"/>
	</g>
	<g>
		<path class="st54" d="M128,133.4c-0.1,0-0.1,0-0.2,0c-4.3-2.1-9.4-2.1-14.2-2c-1.6,0.1-2.5-0.4-2.8-1.3c-0.1-0.3,0-0.5,0.3-0.6
			c0.3-0.1,0.5,0,0.6,0.3c0.2,0.6,1.1,0.6,1.9,0.6c5-0.2,10.2-0.1,14.7,2.1c0.2,0.1,0.3,0.4,0.2,0.7
			C128.3,133.3,128.1,133.4,128,133.4z"/>
	</g>
	<g>
		<path class="st54" d="M124.8,139.3c-1.1,0-2.1-0.4-2.6-1.2c-0.3-0.4-0.4-1-0.3-1.7c0.2-0.7,0.6-1.4,1.1-1.7
			c4.5-2.6,9.7-4.2,14.9-4.8c0.2,0,0.5-0.1,0.7-0.1c1.4-0.1,2.8-0.3,4.1-0.9c0.2-0.1,0.5,0,0.7,0.2c0.1,0.2,0,0.5-0.2,0.7
			c-1.4,0.6-2.9,0.8-4.4,0.9c-0.2,0-0.5,0-0.7,0.1c-5,0.6-10.1,2.2-14.5,4.7c-0.3,0.2-0.5,0.6-0.6,1c-0.1,0.4,0,0.7,0.1,0.9
			c0.5,0.6,1.3,0.8,2,0.8c0.8,0,1.7-0.4,2.4-0.7l5.8-2.3c1.7-0.7,3.5-0.5,5.3-0.4c1.2,0.1,2.5,0.2,3.7,0c0.3,0,0.5,0.1,0.6,0.4
			c0,0.3-0.1,0.5-0.4,0.6c-1.3,0.2-2.6,0.1-4,0c-1.7-0.1-3.4-0.2-4.9,0.3l-5.8,2.3c-0.8,0.3-1.8,0.7-2.8,0.7
			C124.9,139.3,124.9,139.3,124.8,139.3z"/>
	</g>
	<g>
		<path class="st54" d="M122.1,137.8C122.1,137.8,122.1,137.8,122.1,137.8l-10.8-1.1c-0.3,0-0.5-0.3-0.4-0.5c0-0.3,0.3-0.5,0.5-0.4
			l10.7,1.1c0.3,0,0.5,0.3,0.4,0.5C122.6,137.7,122.4,137.8,122.1,137.8z"/>
	</g>
	<g>
		<path class="st54" d="M132.8,139.4c-1.5,0-3.1-0.3-4.5-0.8c-0.3-0.1-0.4-0.4-0.3-0.6c0.1-0.3,0.4-0.4,0.6-0.3
			c1.4,0.5,2.8,0.7,4.2,0.7c0,0,0,0,0,0c1.1,0,1.8-0.2,2.2-0.7c0.2-0.3,0.3-0.7,0.1-1c-0.1-0.1-0.2-0.3-0.4-0.4
			c-0.3,0-0.5-0.3-0.4-0.5c0-0.3,0.3-0.5,0.5-0.4c0.5,0,1,0.4,1.2,0.9c0.3,0.7,0.2,1.5-0.3,2.1C135.2,139,134.2,139.4,132.8,139.4
			C132.8,139.4,132.8,139.4,132.8,139.4z"/>
	</g>
	<g>
		<path class="st54" d="M126.6,148c-0.2,0-0.3,0-0.5,0c-1-0.1-1.9-0.8-2.2-1.6c-0.3-0.8-0.2-1.9,0.8-2.9c0.7-0.7,1.6-1,2.4-1.3
			l14.8-5.8c0.3-0.1,0.5,0,0.6,0.3c0.1,0.3,0,0.5-0.3,0.6l-14.8,5.8c-0.7,0.3-1.5,0.6-2.1,1.1c-0.4,0.4-0.8,1.2-0.6,1.8
			c0.2,0.5,0.8,0.9,1.4,1c0.7,0.1,1.4-0.1,2.1-0.3c2.1-0.6,4.2-1.4,6.2-2.1c3.6-1.3,7.3-2.7,11.2-3.2c0.3,0,0.5,0.2,0.5,0.4
			c0,0.3-0.2,0.5-0.4,0.5c-3.8,0.4-7.4,1.8-11,3.1c-2.1,0.8-4.2,1.6-6.3,2.2C128,147.8,127.3,148,126.6,148z"/>
	</g>
	<g>
		<path class="st54" d="M63.3,136.1C63.3,136.1,63.3,136.1,63.3,136.1c-0.3,0-0.5-0.2-0.5-0.5c0-4.2,0.9-8.3,1.7-12.3
			c0.4-1.8,0.8-3.7,1.1-5.6c1.3-7.8,1.1-15.7-0.4-23.4c-0.1-0.3,0.1-0.5,0.4-0.6c0.3-0.1,0.5,0.1,0.6,0.4c1.6,7.9,1.7,15.9,0.5,23.8
			c-0.3,1.9-0.7,3.8-1.1,5.7c-0.8,3.9-1.6,8-1.7,12.1C63.8,135.9,63.6,136.1,63.3,136.1z"/>
	</g>
	<g>
		<path class="st54" d="M67,110c-0.1,0-0.1,0-0.2,0c-0.3-0.1-0.4-0.4-0.3-0.6c2.8-7.4,4.1-15.2,4.1-23.2c0-0.3,0.2-0.5,0.5-0.5
			c0,0,0,0,0,0c0.3,0,0.5,0.2,0.5,0.5c0.1,8.1-1.3,16-4.1,23.5C67.4,109.9,67.2,110,67,110z"/>
	</g>
	<g>
		<path class="st54" d="M125.3,143.7c-0.1,0-0.1,0-0.2,0c-4.1-1.4-8.6-1.8-13-1.4c-0.3,0-0.5-0.2-0.5-0.4c0-0.3,0.2-0.5,0.4-0.5
			c4.5-0.4,9.1,0.1,13.4,1.5c0.3,0.1,0.4,0.4,0.3,0.6C125.7,143.6,125.5,143.7,125.3,143.7z"/>
	</g>
	<g>
		<path class="st54" d="M130.2,141.8c-0.2,0-0.4-0.1-0.4-0.3c-0.6-1.2-1.7-2.2-2.9-2.6c-0.3-0.1-0.4-0.4-0.3-0.6
			c0.1-0.3,0.4-0.4,0.6-0.3c1.5,0.5,2.8,1.7,3.5,3.1c0.1,0.2,0,0.5-0.2,0.7C130.4,141.7,130.3,141.8,130.2,141.8z"/>
	</g>
	<g>
		<path class="st54" d="M113.3,148.6c-0.2,0-0.4-0.1-0.5-0.4c-0.1-0.3,0.1-0.5,0.3-0.6c2.5-0.7,5.1-1.1,7.6-1.1c0.1,0,0.2,0,0.3,0
			c1,0,1.9,0,2.7-0.4c0.3-0.1,0.5,0,0.6,0.3c0.1,0.3,0,0.5-0.3,0.6c-1,0.4-2,0.4-3,0.4c-0.1,0-0.2,0-0.3,0c-2.5,0-5,0.4-7.4,1.1
			C113.3,148.6,113.3,148.6,113.3,148.6z"/>
	</g>
	<g>
		<path class="st54" d="M93.5,152.1c-0.2,0-0.4-0.2-0.5-0.4c0-0.3,0.1-0.5,0.4-0.6c2-0.3,4-0.4,6-0.5c1.1-0.1,2.3-0.1,3.5-0.2
			c3.8-0.3,6.6-1.2,8.7-2.6c0.2-0.2,0.5-0.1,0.7,0.1c0.2,0.2,0.1,0.5-0.1,0.7c-2.3,1.5-5.2,2.4-9.2,2.8c-1.2,0.1-2.4,0.2-3.5,0.2
			C97.5,151.7,95.5,151.8,93.5,152.1C93.5,152.1,93.5,152.1,93.5,152.1z"/>
	</g>
	<g>
		<path class="st54" d="M69.1,163.4c-0.2,0-0.4-0.1-0.5-0.3c-0.1-0.3,0-0.5,0.3-0.6c7.8-2.9,15.4-6.7,22.4-11.1
			c0.2-0.1,0.5-0.1,0.7,0.2c0.1,0.2,0.1,0.5-0.2,0.7c-7.1,4.5-14.7,8.3-22.6,11.2C69.2,163.4,69.2,163.4,69.1,163.4z"/>
	</g>
	<g>
		<path class="st54" d="M116.7,131.1c0,0-0.1,0-0.1,0c-0.3-0.1-0.4-0.3-0.3-0.6l2.9-11.1c0.1-0.3,0.3-0.4,0.6-0.3
			c0.3,0.1,0.4,0.3,0.3,0.6l-2.9,11.1C117.1,131,116.9,131.1,116.7,131.1z"/>
	</g>
	<g>
		<path class="st54" d="M137.3,130.7c0,0-0.1,0-0.1,0c-0.3-0.1-0.4-0.3-0.3-0.6l4.8-17.5c0.2-0.6,0.1-1.3-0.3-1.8
			c-0.4-0.5-1-0.9-1.6-0.9l-13.9-1.1c-1.8-0.1-3.4,1-3.9,2.7l-0.5,1.8c-0.1,0.3-0.3,0.4-0.6,0.3c-0.3-0.1-0.4-0.3-0.3-0.6l0.5-1.8
			c0.6-2.2,2.6-3.6,4.9-3.5l13.9,1.1c0.9,0.1,1.8,0.6,2.3,1.3c0.5,0.8,0.7,1.7,0.5,2.6l-4.8,17.5
			C137.7,130.5,137.5,130.7,137.3,130.7z"/>
	</g>
	<g>
		<path class="st54" d="M143.8,126.9c-0.2,0-0.4-0.1-0.5-0.4c-0.8-2.5-0.8-5.3-0.3-7.9c0-0.1,0-0.2,0.1-0.3c0.2-0.8,0.4-1.6,0.1-2.3
			c-0.1-0.4-0.5-0.7-0.9-0.7c-0.2,0-0.4,0-0.5,0.2c-0.2,0.2-0.5,0.3-0.7,0.1c-0.2-0.2-0.3-0.5-0.1-0.7c0.3-0.4,0.9-0.6,1.4-0.5
			c0.7,0.1,1.4,0.7,1.7,1.3c0.4,0.9,0.1,1.9-0.1,2.8c0,0.1,0,0.2-0.1,0.3c-0.5,2.4-0.5,5,0.3,7.4c0.1,0.3-0.1,0.5-0.3,0.6
			C143.9,126.9,143.9,126.9,143.8,126.9z"/>
	</g>
	<g>
		<path class="st54" d="M117.3,128.4h-3.6c-0.3,0-0.5-0.2-0.5-0.5s0.2-0.5,0.5-0.5h3.6c0.3,0,0.5,0.2,0.5,0.5
			S117.6,128.4,117.3,128.4z"/>
	</g>
	<g>
		<path class="st54" d="M135.4,139.5c-0.1,0-0.2,0-0.3-0.1l-0.7-0.4c-0.2-0.1-0.3-0.4-0.2-0.7c0.1-0.2,0.4-0.3,0.7-0.2l0.7,0.4
			c0.2,0.1,0.3,0.4,0.2,0.7C135.8,139.4,135.6,139.5,135.4,139.5z"/>
	</g>
	<g>
		<path class="st54" d="M144.3,144.3c-0.1,0-0.1,0-0.2,0c-0.8-0.3-1.5-0.8-2-1.4c-0.2-0.2-0.1-0.5,0.1-0.7c0.2-0.2,0.5-0.1,0.7,0.1
			c0.4,0.5,0.9,0.9,1.5,1.1c0.3,0.1,0.4,0.4,0.3,0.6C144.7,144.2,144.5,144.3,144.3,144.3z"/>
	</g>
	<g>
		<path class="st54" d="M135.4,151.8c-0.6,0-1.2-0.1-1.6-0.6c-0.3-0.3-0.4-0.8-0.3-1.2c0.1-0.9,0.9-1.6,1.5-2c1.5-1,3.2-1.7,4.9-2.3
			c2.1-0.9,4-1.7,5.6-2.9c0.2-0.2,0.5-0.1,0.7,0.1c0.2,0.2,0.1,0.5-0.1,0.7c-1.7,1.3-3.8,2.2-5.8,3.1c-1.6,0.7-3.3,1.4-4.7,2.3
			c-0.5,0.3-1,0.9-1,1.3c0,0.2,0,0.3,0.1,0.4c0.3,0.3,0.8,0.3,1.3,0.2c5-0.5,9.9-2.5,14.5-4.4c0.2-0.1,0.5,0,0.6,0.3
			c0.1,0.2,0,0.5-0.3,0.6c-4.6,2-9.6,4-14.8,4.5C135.7,151.8,135.5,151.8,135.4,151.8z"/>
	</g>
	<g>
		<path class="st54" d="M158.9,143.4c-0.2,0-0.4-0.2-0.5-0.4c-0.5-2.1-1.8-4.1-3.9-6.1c-1.1-1.1-2.4-2.1-3.6-3
			c-0.8-0.6-1.5-1.2-2.3-1.8c-1.5-1.3-3-2.7-4.3-4.2c-0.2-0.2-0.2-0.5,0-0.7c0.2-0.2,0.5-0.2,0.7,0c1.3,1.5,2.7,2.9,4.2,4.1
			c0.7,0.6,1.5,1.2,2.3,1.8c1.2,1,2.5,2,3.7,3.1c2.2,2.1,3.6,4.3,4.2,6.6c0.1,0.3-0.1,0.5-0.4,0.6C159,143.4,159,143.4,158.9,143.4z
			"/>
	</g>
	<g>
		<path class="st54" d="M151.6,147.2c-0.3,0-0.5,0-0.8,0c-0.3,0-0.5-0.3-0.4-0.5c0-0.3,0.3-0.5,0.5-0.4c1.8,0.2,3.7-0.3,5.2-1.4
			c0.2-0.2,0.5-0.1,0.7,0.1c0.2,0.2,0.1,0.5-0.1,0.7C155.2,146.6,153.4,147.2,151.6,147.2z"/>
	</g>
	<g>
		<path class="st54" d="M148.4,163.5c-0.1,0-0.3-0.1-0.4-0.2c-1.4-1.8-1.9-4.3-1.4-7.7c0.1-0.5,0.2-1.1,0.2-1.6
			c0.3-1.9,0.6-3.9,0.2-5.8c-0.1-0.3,0.1-0.5,0.4-0.6c0.3-0.1,0.5,0.1,0.6,0.4c0.4,2.1,0.1,4.1-0.2,6.1c-0.1,0.5-0.2,1.1-0.2,1.6
			c-0.4,3.1,0,5.4,1.2,7c0.2,0.2,0.1,0.5-0.1,0.7C148.7,163.5,148.6,163.5,148.4,163.5z"/>
	</g>
	<g>
		<path class="st54" d="M168.3,157.6C168.3,157.6,168.3,157.6,168.3,157.6c-0.3,0-0.5-0.3-0.5-0.5c0.3-2.8-1.7-5.3-3.7-7.7l-4.8-5.5
			c-0.2-0.2-0.2-0.5,0.1-0.7c0.2-0.2,0.5-0.2,0.7,0.1l4.8,5.5c2.2,2.5,4.2,5.2,3.9,8.4C168.8,157.4,168.5,157.6,168.3,157.6z"/>
	</g>
	<g>
		<path class="st27" d="M144.9,164.2c-1.2,0-2.2-0.3-3.1-0.8c-0.2-0.1-0.3-0.4-0.2-0.7c0.1-0.2,0.4-0.3,0.7-0.2
			c0.7,0.4,2.1,1,4.4,0.5c1.5-0.4,2.8-1.1,4.2-1.8l0.2-0.1c2.3-1.2,4.7-2.5,7.3-3.1c2-0.5,4.2-0.6,6.2-0.8c3.7-0.3,7.2-0.5,10-2.6
			c0.2-0.2,0.5-0.1,0.7,0.1c0.2,0.2,0.1,0.5-0.1,0.7c-3,2.3-6.9,2.5-10.6,2.8c-2,0.1-4.1,0.3-6.1,0.8c-2.5,0.6-4.9,1.8-7.1,3
			l-0.2,0.1c-1.4,0.7-2.8,1.5-4.4,1.9C146.3,164.1,145.6,164.2,144.9,164.2z"/>
	</g>
	<g>
		<path class="st54" d="M147.8,162.7c-0.2,0-0.3-0.1-0.4-0.3c-2.1-4-3.6-8.3-4.3-12.7c0-0.3,0.1-0.5,0.4-0.6c0.3,0,0.5,0.1,0.6,0.4
			c0.7,4.3,2.1,8.5,4.2,12.4c0.1,0.2,0,0.5-0.2,0.7C147.9,162.7,147.8,162.7,147.8,162.7z"/>
	</g>
	<g>
		<path class="st54" d="M142.3,145.4c-0.2,0-0.4-0.2-0.5-0.4l-0.4-2.3c0-0.3,0.1-0.5,0.4-0.6c0.3,0,0.5,0.1,0.6,0.4l0.4,2.3
			C142.8,145.1,142.7,145.3,142.3,145.4C142.4,145.4,142.3,145.4,142.3,145.4z"/>
	</g>
	<g>
		<path class="st54" d="M161.3,131c-0.2,0-0.4-0.1-0.5-0.4c-0.1-0.3,0.1-0.5,0.3-0.6c0.7-0.2,1.5-0.4,2.1-0.8
			c0.2-0.1,0.3-0.3,0.5-0.5c0.1-0.2,0.2-0.4,0.1-0.6c-0.1-0.2-0.3-0.4-0.5-0.4c-1.1-0.2-2.2-0.1-3.4,0c-4.5,0.3-9.1,0.8-13.7,1.4
			c-0.3,0-0.5-0.2-0.5-0.4c0-0.3,0.2-0.5,0.4-0.5c4.5-0.6,9.2-1,13.7-1.4c1.3-0.1,2.5-0.2,3.6,0c0.6,0.1,1,0.5,1.2,1
			c0.2,0.5,0.1,1.1-0.2,1.6c-0.2,0.2-0.4,0.5-0.7,0.7c-0.7,0.5-1.6,0.8-2.4,1C161.4,130.9,161.3,131,161.3,131z"/>
	</g>
	<g>
		<path class="st54" d="M164.4,149.2c-0.2,0-0.4-0.2-0.5-0.4c-1.7-7.1-3.1-14.4-4.2-21.6c0-0.3,0.1-0.5,0.4-0.6
			c0.3,0,0.5,0.1,0.6,0.4c1.1,7.2,2.5,14.4,4.1,21.5c0.1,0.3-0.1,0.5-0.4,0.6C164.5,149.2,164.4,149.2,164.4,149.2z"/>
	</g>
	<g>
		<path class="st54" d="M163.8,127.5c-0.2,0-0.4-0.1-0.5-0.3c-0.4-1.2-0.7-2.6-1.1-4.1c-0.5-2-1.1-4.3-1.8-6.5
			c-1-2.9-1.7-5.5-2.5-8.4c-1.6-5.8-3.3-11.8-7.2-21.1c-1.5-3.6-5.2-8.6-8.6-10.6c-2.7-1.6-7.9-2.2-12-2.4c-0.3,0-0.5-0.3-0.5-0.5
			c0-0.3,0.3-0.5,0.5-0.5c4.3,0.3,9.5,0.8,12.4,2.6c3.6,2.2,7.4,7.3,9,11.1c3.9,9.3,5.6,15.4,7.3,21.2c0.8,2.8,1.5,5.4,2.5,8.3
			c0.8,2.3,1.3,4.6,1.8,6.6c0.4,1.5,0.7,2.9,1.1,4.1c0.1,0.3-0.1,0.5-0.3,0.6C163.9,127.5,163.8,127.5,163.8,127.5z"/>
	</g>
	<g>
		<path class="st54" d="M133,107.3C132.9,107.3,132.9,107.3,133,107.3c-0.4-0.1-0.5-0.3-0.5-0.6l2.1-12c0.3-1.6,0.7-3.2,1.9-4.2
			c0.2-0.2,0.5-0.1,0.7,0.1c0.2,0.2,0.1,0.5-0.1,0.7c-1,0.8-1.3,2.1-1.5,3.6l-2.1,12C133.4,107.2,133.2,107.3,133,107.3z"/>
	</g>
	<g>
		<path class="st54" d="M134.8,106.4c-0.1,0-0.2,0-0.3-0.1c-0.2-0.1-0.3-0.5-0.1-0.7c2.5-3.8,5.8-7,9.6-9.3c0.2-0.1,0.5-0.1,0.7,0.2
			c0.1,0.2,0.1,0.5-0.2,0.7c-3.7,2.2-6.9,5.3-9.3,9C135.1,106.3,134.9,106.4,134.8,106.4z"/>
	</g>
	<g>
		<path class="st54" d="M103.9,153.7c-0.2,0-0.5-0.2-0.5-0.4c0-0.3,0.2-0.5,0.4-0.5c2.4-0.2,4.6-0.5,6.7-1.2
			c1.7-0.6,3.9-1.7,5.4-3.7c0.2-0.2,0.5-0.3,0.7-0.1c0.2,0.2,0.3,0.5,0.1,0.7c-1.6,2.3-4.1,3.5-5.9,4.1
			C108.7,153.2,106.4,153.5,103.9,153.7C104,153.7,103.9,153.7,103.9,153.7z"/>
	</g>
	<g>
		<path class="st54" d="M110.5,154.5c-2.6,0-5.2-0.4-7.6-1.1c-1.8-0.6-5.4-1.4-6.6-1.4c-0.3,0-0.5-0.2-0.5-0.5
			c0-0.3,0.2-0.5,0.5-0.5c1.5,0,5.4,1,6.9,1.5c3,0.9,6.3,1.3,9.5,1c3.2-0.3,6.4-1.2,9.2-2.7c0.2-0.1,0.5,0,0.7,0.2
			c0.1,0.2,0,0.5-0.2,0.7c-2.9,1.5-6.2,2.5-9.5,2.8C112,154.5,111.2,154.5,110.5,154.5z"/>
	</g>
	<g>
		<path class="st54" d="M84.8,58.1c-0.2,0-0.4-0.1-0.4-0.3c-1.6-3.6-2-8.8-1.3-13.6c1.2-7.6,5.1-14.4,11-19.3c2.4-2,6.5-3.7,9.6-4
			c0.3,0,0.5,0.2,0.5,0.4c0,0.3-0.2,0.5-0.4,0.5c-2.9,0.2-6.8,1.9-9,3.7c-5.7,4.7-9.5,11.4-10.7,18.7c-0.7,4.6-0.3,9.6,1.2,13
			c0.1,0.2,0,0.5-0.3,0.6C84.9,58.1,84.9,58.1,84.8,58.1z"/>
	</g>
	<g>
		<path class="st54" d="M134.4,56.8c-0.1,0-0.1,0-0.2,0c-0.3-0.1-0.4-0.4-0.3-0.6c1.2-3.7,1.8-7.4,1.6-11.1
			c-0.2-4.3-1.3-8.3-3.4-12.1c-2.1-3.8-6.3-7.5-11.2-9.9c-2.5-1.2-5-2-7.4-2.3c-2.6-0.3-5-0.1-7.1,0.6c-0.3,0.1-0.5,0-0.6-0.3
			c-0.1-0.3,0-0.5,0.3-0.6c2.2-0.8,4.8-1,7.5-0.6c2.5,0.3,5.1,1.1,7.7,2.4c5,2.4,9.4,6.3,11.6,10.3c2.1,3.9,3.3,8.1,3.5,12.5
			c0.2,3.8-0.4,7.6-1.7,11.4C134.7,56.7,134.6,56.8,134.4,56.8z"/>
	</g>
	<g>
		<path class="st54" d="M112,36c-0.2,0-0.4-0.1-0.5-0.3l-5.2-12.2c-0.1-0.2,0-0.5,0.3-0.6c0.2-0.1,0.5,0,0.6,0.3l5.2,12.2
			c0.1,0.2,0,0.5-0.3,0.6C112.2,36,112.1,36,112,36z"/>
	</g>
	<g>
		<path class="st54" d="M52.8,78.1c-0.2,0-0.4-0.1-0.5-0.3c-0.7-1.8-0.7-3.8,0.1-5.9c0.6-1.8,1.8-3.6,3.3-5.1
			c1.8-1.7,3.8-3.1,5.8-4.4c1.2-0.8,2.5-1.6,3.6-2.5c3.5-2.7,6.4-6.2,8.4-10.1c1.1-2.3,2-4.8,2.8-7.2c0.9-2.6,1.8-5.3,3.1-7.8
			c1.4-2.6,3.2-4.8,5.3-6.4c2.4-1.8,5.1-2.7,7.7-2.5c0.3,0,0.5,0.3,0.5,0.5c0,0.3-0.3,0.5-0.5,0.5c-2.4-0.2-4.8,0.6-7,2.3
			c-2,1.5-3.8,3.6-5.1,6.1c-1.3,2.4-2.2,5.1-3.1,7.7c-0.8,2.4-1.7,4.9-2.9,7.3c-2,4.1-5,7.7-8.7,10.5c-1.2,0.9-2.5,1.7-3.7,2.5
			c-2,1.3-4,2.6-5.7,4.3c-1.4,1.4-2.5,3-3.1,4.7c-0.7,1.9-0.7,3.7-0.1,5.2c0.1,0.3,0,0.5-0.3,0.6C52.9,78.1,52.8,78.1,52.8,78.1z"/>
	</g>
	<g>
		<path class="st54" d="M67.7,70.8c-0.1,0-0.3-0.1-0.4-0.2c-0.2-0.2-0.1-0.5,0.1-0.7c3.7-3,6.3-5.8,8.2-8.8
			c2.4-3.6,3.6-7.5,3.7-11.2c0-0.3,0.2-0.5,0.5-0.5c0,0,0,0,0,0c0.3,0,0.5,0.2,0.5,0.5c0,3.9-1.3,7.9-3.8,11.7c-2,3-4.7,5.9-8.4,9
			C68,70.7,67.8,70.8,67.7,70.8z"/>
	</g>
	<g>
		<path class="st54" d="M59.5,64.7c-0.2,0-0.4-0.1-0.4-0.3c-0.7-1.4-0.9-3-0.6-4.8c0.3-1.6,1-3.1,2-4.4c2-2.5,4.7-4,7.6-5.6l0.4-0.2
			c2.5-1.3,5.2-2.7,7.1-4.8c0.2-0.2,0.5-0.2,0.7,0c0.2,0.2,0.2,0.5,0,0.7c-2.1,2.2-4.8,3.6-7.4,5l-0.4,0.2c-2.8,1.5-5.4,3-7.3,5.3
			c-1.7,2.1-2.7,5.4-1.4,8.1c0.1,0.2,0,0.5-0.2,0.7C59.6,64.7,59.6,64.7,59.5,64.7z"/>
	</g>
	<g>
		<path class="st54" d="M33.7,147c-0.1,0-0.2,0-0.3-0.1c-3.1-2.5-5.6-6-7.1-10c-1.5-3.9-2-8.2-1.5-12.3c1-8,5.8-15.6,12.9-20.4
			c1.7-1.2,3.6-2.2,5.4-3.1c0.2-0.1,0.5,0,0.7,0.2c0.1,0.2,0,0.5-0.2,0.7c-1.8,1-3.6,1.9-5.3,3.1c-6.9,4.6-11.5,12-12.5,19.7
			c-1,8.1,2.2,16.5,8.3,21.4c0.2,0.2,0.2,0.5,0.1,0.7C34,146.9,33.9,147,33.7,147z"/>
	</g>
	<g>
		<path class="st54" d="M30.3,143.8C30.3,143.8,30.3,143.8,30.3,143.8c-4.2-0.2-9.3-1-13.1-2.2c-4.2-1.3-7.4-3.1-9.6-5.4
			c-3.8-3.9-5.6-9.9-5.4-17.8c0.1-3,0.4-7,2.2-10.5c1.6-3.2,4.2-5.6,6.3-7.4c5-4.3,10.2-7.2,15.4-8.7c1.4-0.4,2.8-0.7,4.1-1
			c1.6-0.3,3.2-0.7,4.8-1.2c0.8-0.3,1.7-0.6,2.5-0.9c3.1-1.1,6.2-2.3,9.4-1.5c0.3,0.1,0.4,0.3,0.4,0.6c-0.1,0.3-0.3,0.4-0.6,0.4
			c-2.9-0.7-5.9,0.4-8.8,1.4c-0.8,0.3-1.7,0.6-2.6,0.9c-1.6,0.5-3.3,0.9-4.9,1.2c-1.3,0.3-2.7,0.6-4,1c-5.1,1.4-10.1,4.3-15,8.5
			c-2,1.7-4.5,4.1-6,7.1c-1.7,3.3-2,7.2-2.1,10.1C3,126,4.7,131.8,8.3,135.5c2.1,2.2,5.1,3.9,9.2,5.2c3.7,1.2,8.7,2,12.8,2.2
			c0.3,0,0.5,0.2,0.5,0.5C30.8,143.6,30.6,143.8,30.3,143.8z"/>
	</g>
	<g>
		<path class="st54" d="M25.8,142.1c-0.2,0-0.3-0.1-0.4-0.3c-2.2-3.8-3.5-8.3-3.8-12.8c-0.3-4.5,0.4-9.1,2-13.2
			c1.6-4.1,4.5-8,8.2-11.4c3.6-3.3,8-5.8,12.2-7.1c0.3-0.1,0.5,0.1,0.6,0.3c0.1,0.3-0.1,0.5-0.3,0.6c-8.5,2.7-16.6,10-19.8,17.9
			c-1.6,4-2.3,8.4-2,12.8c0.3,4.4,1.6,8.7,3.6,12.4c0.1,0.2,0,0.5-0.2,0.7C26,142.1,25.9,142.1,25.8,142.1z"/>
	</g>
	<g>
		<path class="st54" d="M18.3,104.7c-0.1,0-0.2,0-0.3-0.1c-2.4-1.5-5.3-2.1-8.5-1.9c-0.3,0-0.5-0.2-0.5-0.5c0-0.3,0.2-0.5,0.5-0.5
			c3.2-0.2,6.2,0.4,8.7,1.8c4.5-5.3,10.2-9.5,16.6-12.3c0.2-0.1,0.5,0,0.6,0.3c0.1,0.2,0,0.5-0.3,0.6c-6.3,2.8-12,7.1-16.5,12.4
			C18.5,104.7,18.4,104.7,18.3,104.7z"/>
	</g>
	<g>
		<path class="st54" d="M38,89c-0.3,0-0.5-0.2-0.5-0.5c-0.7-10.7-2.3-21.7-4.4-31c-0.1-0.3,0.1-0.5,0.4-0.6c0.3-0.1,0.5,0.1,0.6,0.4
			c2.1,9.3,3.7,20.4,4.4,31.1C38.6,88.7,38.3,89,38,89C38.1,89,38.1,89,38,89z"/>
	</g>
	<g>
		<path class="st54" d="M52.7,72.5c-0.2,0-0.4-0.1-0.4-0.3l-5.7-12.9C46,58,45.4,56.5,45.3,55c0-0.3,0.2-0.5,0.5-0.5
			c0.3,0,0.5,0.2,0.5,0.5c0.1,1.4,0.7,2.7,1.2,4l5.7,12.9c0.1,0.2,0,0.5-0.3,0.6C52.9,72.4,52.8,72.5,52.7,72.5z"/>
	</g>
	<g>
		<path class="st54" d="M42.8,55c-0.2,0-0.3-0.1-0.4-0.3c-0.1-0.2,0-0.5,0.2-0.7c2.2-1.2,3.8-4.7,2.4-8.9c-0.6-1.9-2.1-4-3.5-6
			c-1-1.4-2-2.8-2.7-4.1c-1-1.9-1.7-4.2-2.4-6.4c-0.8-2.5-1.6-5.1-2.8-7.1c-1.3-2.3-2.9-3.6-4.9-4.1c-0.3-0.1-0.4-0.3-0.3-0.6
			c0.1-0.3,0.3-0.4,0.6-0.3c5,1.3,6.7,6.7,8.3,11.9c0.7,2.3,1.4,4.5,2.4,6.3c0.7,1.3,1.6,2.6,2.6,4c1.5,2.1,3,4.2,3.7,6.3
			c0.6,1.8,0.7,3.9,0.3,5.6c-0.5,2-1.6,3.6-3.2,4.4C42.9,54.9,42.8,55,42.8,55z"/>
	</g>
	<g>
		<path class="st54" d="M32.8,56.8c-0.1,0-0.2,0-0.3-0.1c-2.3-1.6-4.2-4-5.2-6.6c-2.7-7-4.5-10.9-9.2-16.6c-0.2-0.3-0.5-0.6-0.7-0.9
			c-2.3-2.8-4.7-5.7-5.8-9.2c-0.1-0.3,0.1-0.5,0.3-0.6c0.3-0.1,0.5,0.1,0.6,0.3c1.1,3.3,3.4,6.2,5.7,8.9c0.2,0.3,0.5,0.6,0.7,0.9
			c5.1,6.3,7.1,10.8,9.4,16.9c0.9,2.3,2.7,4.7,4.8,6.1c0.2,0.2,0.3,0.5,0.1,0.7C33.1,56.7,33,56.8,32.8,56.8z"/>
	</g>
	<g>
		<path class="st54" d="M11.9,22.1c-0.2,0-0.4-0.1-0.5-0.3c-0.3-0.7-0.7-1.2-1.2-1.9c-0.1-0.1-0.2-0.3-0.3-0.4
			c-1.3-1.7-2-3.3-1.9-4.8c0-1.1,0.5-2.1,1.3-2.8c0.6-0.6,1.4-0.9,2.2-0.8c1.2,0.1,2.3,0.9,3,2.1c0.6,1.1,0.8,2.3,0.9,3.3
			c0.1,0.4,0.1,0.8,0.3,1c0.1,0.1,0.2,0.2,0.3,0.2c0,0,0.1,0,0.1,0c0.2-0.2,0.5-0.2,0.7,0c0.2,0.2,0.2,0.5,0,0.7
			c-0.2,0.2-0.5,0.4-0.8,0.4c0,0,0,0,0,0c-0.4,0-0.8-0.2-1.1-0.5c-0.4-0.5-0.5-1-0.6-1.5c-0.2-1.2-0.4-2.1-0.8-3
			c-0.4-0.7-1.2-1.5-2.2-1.6c-0.7,0-1.2,0.3-1.5,0.6c-0.6,0.5-1,1.4-1,2.1c-0.1,1.3,0.5,2.6,1.7,4.1c0.1,0.1,0.2,0.3,0.3,0.4
			c0.5,0.6,1.1,1.3,1.4,2.1c0.1,0.3,0,0.5-0.3,0.6C12,22.1,12,22.1,11.9,22.1z"/>
	</g>
	<g>
		<path class="st54" d="M18.6,17c-0.1,0-0.3-0.1-0.4-0.2c-0.6-0.8-0.8-1.7-1-2.5l0-0.2c-0.1-0.7-0.3-1.4-0.6-2
			c-0.3-0.5-0.9-1.1-1.6-1.1c-0.3,0-0.6,0.2-0.8,0.5c-0.1,0.1-0.2,0.3-0.1,0.6c0.1,0.3,0,0.5-0.3,0.6c-0.3,0.1-0.5,0-0.6-0.3
			c-0.2-0.5-0.1-1,0.2-1.5c0.4-0.5,1-0.9,1.6-0.9c0.9,0,1.9,0.6,2.5,1.6c0.4,0.7,0.6,1.6,0.7,2.3l0,0.2c0.1,0.8,0.3,1.5,0.8,2.1
			c0.2,0.2,0.1,0.5-0.1,0.7C18.8,17,18.7,17,18.6,17z"/>
	</g>
	<g>
		<path class="st54" d="M21.5,15.6c-0.2,0-0.4-0.1-0.5-0.3c-0.1-0.4-0.3-0.8-0.4-1.4c-0.2-0.7-0.3-1.6-0.6-1.9
			c-0.3-0.4-0.9-0.4-1.3-0.4c-0.4,0.1-0.9,0.4-1.1,0.9c-0.1,0.3-0.4,0.4-0.6,0.3c-0.3-0.1-0.4-0.4-0.3-0.6c0.2-0.8,0.9-1.4,1.8-1.6
			c0.9-0.2,1.8,0.1,2.3,0.7c0.5,0.5,0.7,1.5,0.9,2.4c0.1,0.5,0.2,0.9,0.3,1.2c0.1,0.3,0,0.5-0.3,0.6C21.6,15.6,21.6,15.6,21.5,15.6z
			"/>
	</g>
	<g>
		<path class="st54" d="M24.2,15.3c-0.2,0-0.4-0.2-0.5-0.4c0-0.2-0.1-0.3-0.1-0.5c-0.1-0.7-0.2-1.5-0.5-1.9c-0.3-0.4-1-0.7-1.4-0.4
			c-0.2,0.2-0.5,0.1-0.7-0.1c-0.2-0.2-0.1-0.5,0.1-0.7c0.9-0.7,2.1-0.3,2.8,0.5c0.5,0.6,0.6,1.6,0.7,2.3c0,0.2,0,0.3,0.1,0.5
			C24.8,15,24.6,15.3,24.2,15.3C24.3,15.3,24.2,15.3,24.2,15.3z"/>
	</g>
	<g>
		<path class="st54" d="M28.1,16.5c-0.3,0-0.5-0.2-0.5-0.5c0-0.6-0.4-1.4-0.9-2.2c-0.3-0.5-1-0.8-1.4-0.5c-0.2,0.1-0.5,0.1-0.7-0.2
			c-0.1-0.2-0.1-0.5,0.2-0.7c0.9-0.6,2.2-0.1,2.7,0.8c0.4,0.5,1,1.6,1.1,2.6C28.6,16.2,28.4,16.5,28.1,16.5
			C28.1,16.5,28.1,16.5,28.1,16.5z"/>
	</g>
	<g>
		<path class="st54" d="M25.3,28.7C25.3,28.7,25.3,28.7,25.3,28.7c-0.3,0-0.5-0.2-0.5-0.5c0.2-3.2-1.2-6.4-3.6-8.5
			c-0.2-0.2-0.2-0.5,0-0.7c0.2-0.2,0.5-0.2,0.7,0c2.6,2.3,4,5.8,3.9,9.3C25.8,28.5,25.6,28.7,25.3,28.7z"/>
	</g>
	<g>
		<path class="st54" d="M33.5,91C33.4,91,33.4,91,33.5,91c-0.3,0-0.5-0.2-0.5-0.5c0.3-6.5,1.2-13.4,2.3-21.4l0-0.2
			c0-0.3,0.3-0.5,0.6-0.4c0.3,0,0.5,0.3,0.4,0.6l0,0.2c-1.1,7.9-2,14.8-2.3,21.3C33.9,90.8,33.7,91,33.5,91z"/>
	</g>
	<g>
		<path class="st54" d="M5.4,107.3c-0.3,0-0.5-0.2-0.5-0.5c-0.3-9.5,3.5-18.6,6.9-26.7l13.4-31.9c0.1-0.2,0.4-0.4,0.6-0.3
			c0.2,0.1,0.4,0.4,0.3,0.6L12.7,80.5c-3.4,8-7.2,17-6.9,26.3C5.9,107.1,5.7,107.3,5.4,107.3C5.4,107.3,5.4,107.3,5.4,107.3z"/>
	</g>
	<g>
		<path class="st54" d="M42.5,37.5c-0.2,0-0.4-0.2-0.5-0.4c-0.1-0.3,0.1-0.5,0.4-0.6c2.1-0.4,4.1-2.1,4.9-4.2
			c0.8-2.1,0.7-4.5-0.4-6.6c-0.1-0.2,0-0.5,0.2-0.7c0.2-0.1,0.5,0,0.7,0.2c1.2,2.3,1.4,5.1,0.4,7.4C47.2,35.1,45,37,42.5,37.5
			C42.5,37.5,42.5,37.5,42.5,37.5z"/>
	</g>
	<g>
		<path class="st54" d="M46.5,24.4C46.5,24.4,46.5,24.4,46.5,24.4c-0.3,0-0.5-0.3-0.5-0.5c0.2-2,1-3.7,1.8-5.4
			c0.3-0.7,0.7-1.4,1-2.1c1.7-4.3,0.2-6.4-0.3-7c-0.2-0.2-0.2-0.5,0-0.7c0.2-0.2,0.5-0.2,0.7,0c0.9,1,1.4,2.3,1.4,3.9
			c0,1.6-0.5,3.1-0.9,4.1c-0.3,0.7-0.6,1.5-1,2.2c-0.8,1.7-1.6,3.3-1.7,5.1C47,24.2,46.7,24.4,46.5,24.4z"/>
	</g>
	<g>
		<path class="st54" d="M33.4,18.8C33.4,18.8,33.4,18.8,33.4,18.8c-0.3,0-0.5-0.3-0.5-0.5L34,6.9c0-0.3,0.3-0.5,0.5-0.4
			C34.8,6.5,35,6.7,35,7l-1.1,11.3C33.9,18.6,33.7,18.8,33.4,18.8z"/>
	</g>
	<g>
		<path class="st54" d="M34.5,6.3c-0.3,0-0.5-0.2-0.5-0.5c-0.1-0.7-0.1-1.6,0.3-2.4c0.2-0.5,0.7-0.9,1.2-1.1
			c0.4-0.1,0.9-0.1,1.2,0.1c0.7,0.4,1.1,1.3,0.9,2.5c0,0.3-0.3,0.5-0.5,0.4c-0.3,0-0.5-0.3-0.4-0.5c0-0.4,0.1-1.3-0.4-1.5
			c-0.2-0.1-0.3-0.1-0.5,0c-0.3,0.1-0.5,0.3-0.7,0.6c-0.3,0.6-0.2,1.3-0.2,1.9C35,6,34.8,6.2,34.5,6.3C34.5,6.3,34.5,6.3,34.5,6.3z"
			/>
	</g>
	<g>
		<path class="st54" d="M39.7,5.1c0,0-0.1,0-0.1,0c-0.3-0.1-0.4-0.3-0.3-0.6c0.1-0.4-0.1-1-0.5-1.2c-0.4-0.2-1-0.2-1.3,0.1
			c-0.2,0.2-0.5,0.2-0.7,0c-0.2-0.2-0.2-0.5,0-0.7c0.6-0.6,1.7-0.7,2.5-0.3c0.8,0.5,1.1,1.5,0.9,2.3C40.1,5,39.9,5.1,39.7,5.1z"/>
	</g>
	<g>
		<path class="st54" d="M42.5,5.4C42.5,5.4,42.5,5.4,42.5,5.4c-0.3,0-0.5-0.3-0.5-0.5c0-0.5-0.2-1-0.7-1.2c-0.4-0.2-1-0.1-1.4,0.2
			c-0.2,0.2-0.5,0.2-0.7,0c-0.2-0.2-0.2-0.5,0-0.7c0.6-0.6,1.7-0.8,2.5-0.4C42.5,3.1,43.1,4,43,4.9C43,5.2,42.7,5.4,42.5,5.4z"/>
	</g>
	<g>
		<path class="st54" d="M46.4,8.1C46.4,8.1,46.4,8.1,46.4,8.1c-0.9-0.2-1.9-1.2-2-2c0-0.4-0.2-0.8-0.6-1.2c-0.4-0.3-0.8-0.5-1.2-0.4
			c-0.3,0-0.5-0.1-0.6-0.4c0-0.3,0.1-0.5,0.4-0.6c0.7-0.1,1.4,0.1,2,0.6c0.6,0.5,0.9,1.2,0.9,1.9c0,0.4,0.6,1,1.1,1.1
			c0.3,0,0.4,0.3,0.4,0.6C46.9,7.9,46.7,8.1,46.4,8.1z"/>
	</g>
	<g>
		<path class="st54" d="M49.3,10C49.3,10,49.2,10,49.3,10c-0.3,0-0.5-0.3-0.5-0.6c0.1-0.4,0.1-0.9,0.1-1.3c0-1.2-0.2-2.1-0.8-2.7
			c-0.3-0.4-0.8-0.6-1.3-0.6c-0.2,0-0.6,0-0.9,0.3c-0.2,0.2-0.5,0.2-0.7,0c-0.2-0.2-0.2-0.5,0-0.7c0.4-0.4,1-0.6,1.6-0.6
			c0.7,0,1.5,0.4,2,0.9c0.7,0.8,1,1.9,1,3.4c0,0.5,0,1-0.1,1.5C49.7,9.8,49.5,10,49.3,10z"/>
	</g>
	<g>
		<path class="st54" d="M43.3,6.5c0,0-0.1,0-0.1,0c-1.7-0.5-3.5-0.5-5.2-0.2c-0.3,0-0.5-0.1-0.6-0.4c0-0.3,0.1-0.5,0.4-0.6
			c1.9-0.3,3.8-0.2,5.6,0.3c0.3,0.1,0.4,0.3,0.3,0.6C43.7,6.3,43.5,6.5,43.3,6.5z"/>
	</g>
	<g>
		<path class="st54" d="M44.4,24.2c-0.1,0-0.2,0-0.3-0.1c-1.4-0.9-3.2-1.3-4.8-1.1c-0.3,0-0.5-0.1-0.6-0.4c0-0.3,0.1-0.5,0.4-0.6
			c1.9-0.3,3.9,0.2,5.5,1.2c0.2,0.1,0.3,0.5,0.1,0.7C44.7,24.1,44.5,24.2,44.4,24.2z"/>
	</g>
	<g>
		<path class="st54" d="M124.6,113.2c-0.1,0-0.2,0-0.3-0.1c-0.2-0.1-0.4-0.3-0.5-0.6c-0.1-0.3,0-0.5,0.1-0.8
			c0.3-0.5,0.9-0.8,1.3-0.5c0.2,0.1,0.4,0.3,0.5,0.6c0.1,0.3,0,0.5-0.1,0.8c-0.1,0.3-0.3,0.5-0.6,0.6
			C124.9,113.2,124.7,113.2,124.6,113.2z M124.9,111.6c-0.2,0-0.4,0.1-0.6,0.3c-0.1,0.1-0.1,0.3-0.1,0.4c0,0.1,0.1,0.2,0.2,0.3
			c0.1,0.1,0.2,0,0.3,0c0.1-0.1,0.2-0.2,0.3-0.3c0,0,0,0,0,0c0.1-0.1,0.1-0.3,0.1-0.4c0-0.1-0.1-0.2-0.2-0.3
			C125,111.6,125,111.6,124.9,111.6z"/>
		<g>
			<path class="st54" d="M123.5,115.9c-0.1,0-0.2,0-0.3-0.1c-0.2-0.1-0.4-0.3-0.5-0.6c-0.1-0.3,0-0.5,0.1-0.8
				c0.3-0.5,0.9-0.8,1.3-0.5c0.2,0.1,0.4,0.3,0.5,0.6c0.1,0.3,0,0.5-0.1,0.8c-0.1,0.3-0.3,0.5-0.6,0.6
				C123.8,115.9,123.7,115.9,123.5,115.9z M123.9,114.3c-0.2,0-0.4,0.1-0.6,0.3c-0.1,0.1-0.1,0.3-0.1,0.4c0,0.1,0.1,0.2,0.2,0.3
				c0.1,0.1,0.2,0,0.3,0c0.1-0.1,0.2-0.2,0.3-0.3c0,0,0,0,0,0c0.1-0.1,0.1-0.3,0.1-0.4c0-0.1-0.1-0.2-0.2-0.3
				C123.9,114.3,123.9,114.3,123.9,114.3z"/>
		</g>
		<g>
			<path class="st54" d="M126.4,115.1c-0.1,0-0.2,0-0.3-0.1c-0.2-0.1-0.4-0.3-0.5-0.6c-0.1-0.3,0-0.5,0.1-0.8
				c0.3-0.5,0.9-0.8,1.3-0.5c0.2,0.1,0.4,0.3,0.5,0.6c0.1,0.3,0,0.5-0.1,0.8c-0.1,0.3-0.3,0.5-0.6,0.6
				C126.7,115.1,126.5,115.1,126.4,115.1z M126.7,113.5c-0.2,0-0.4,0.1-0.6,0.3c-0.1,0.1-0.1,0.3-0.1,0.4c0,0.1,0.1,0.2,0.2,0.3
				c0.1,0.1,0.2,0,0.3,0c0.1-0.1,0.2-0.2,0.3-0.3c0,0,0,0,0,0c0.1-0.1,0.1-0.3,0.1-0.4c0-0.1-0.1-0.2-0.2-0.3
				C126.8,113.5,126.8,113.5,126.7,113.5z"/>
		</g>
	</g>
</g>
</svg>
