<?xml version="1.0" encoding="utf-8"?>
<!-- Generator: Adobe Illustrator 24.3.0, SVG Export Plug-In . SVG Version: 6.00 Build 0)  -->
<svg version="1.1" id="圖層_1" xmlns="http://www.w3.org/2000/svg" xmlns:xlink="http://www.w3.org/1999/xlink" x="0px" y="0px"
	 viewBox="0 0 134.1 225.1" style="enable-background:new 0 0 134.1 225.1;" xml:space="preserve">
<style type="text/css">
	.st0{fill:#7D7F91;}
	.st1{fill:none;stroke:#575A6D;stroke-width:1.3;stroke-miterlimit:10;}
	.st2{fill:#F7F0EA;stroke:#575A6D;stroke-width:3;stroke-miterlimit:10;}
	.st3{opacity:0.4;fill:url(#SVGID_1_);}
	.st4{opacity:0.4;fill:url(#SVGID_2_);}
	.st5{fill:#FA5560;stroke:#FA5560;stroke-width:15;stroke-linecap:round;stroke-linejoin:round;stroke-miterlimit:10;}
	.st6{fill:#FEE48B;}
	.st7{fill:#FA5560;stroke:#FA5560;stroke-width:21.3573;stroke-linecap:round;stroke-linejoin:round;stroke-miterlimit:10;}
	.st8{clip-path:url(#SVGID_4_);}
	.st9{fill:#E2C179;}
	.st10{clip-path:url(#SVGID_6_);}
	.st11{clip-path:url(#SVGID_8_);}
	.st12{clip-path:url(#SVGID_10_);}
	.st13{clip-path:url(#SVGID_12_);}
	.st14{clip-path:url(#SVGID_14_);}
	.st15{clip-path:url(#SVGID_16_);}
	.st16{fill:#FA5560;stroke:#E4463B;stroke-width:23.0455;stroke-linecap:round;stroke-linejoin:round;stroke-miterlimit:10;}
	.st17{clip-path:url(#SVGID_18_);}
	.st18{clip-path:url(#SVGID_20_);}
	.st19{clip-path:url(#SVGID_22_);}
	.st20{clip-path:url(#SVGID_24_);}
	.st21{clip-path:url(#SVGID_26_);}
	.st22{clip-path:url(#SVGID_28_);}
	.st23{clip-path:url(#SVGID_30_);}
	.st24{fill:none;stroke:#575A6D;stroke-width:1.3;stroke-linecap:round;stroke-linejoin:round;stroke-miterlimit:10;}
	.st25{fill:none;stroke:#575A6D;stroke-width:1.6182;stroke-miterlimit:10;}
	.st26{fill:none;stroke:#575A6D;stroke-width:2;stroke-miterlimit:10;}
	.st27{fill:#575A6D;}
	.st28{fill:#575A6D;stroke:#575A6D;stroke-width:1.3;stroke-linecap:round;stroke-linejoin:round;stroke-miterlimit:10;}
	.st29{fill:none;}
	.st30{clip-path:url(#SVGID_32_);}
	.st31{fill:none;stroke:#575A6D;stroke-width:1.6344;stroke-miterlimit:10;}
	.st32{fill:#694C52;}
	.st33{clip-path:url(#SVGID_34_);}
	.st34{fill:none;stroke:#575A6D;stroke-width:0.7;stroke-linecap:round;stroke-linejoin:round;stroke-miterlimit:10;}
	.st35{fill:#FFFFFF;}
	.st36{fill:#E2E2E2;}
	.st37{fill:#F1C080;}
	.st38{fill:#F29B9A;}
	.st39{fill:none;stroke:#1D1115;stroke-width:1.3;stroke-linecap:round;stroke-linejoin:round;stroke-miterlimit:10;}
	.st40{fill:#F29B9A;stroke:#1D1115;stroke-width:1.3;stroke-linecap:round;stroke-linejoin:round;stroke-miterlimit:10;}
	.st41{fill:#82827E;stroke:#1D1115;stroke-width:1.3;stroke-linecap:round;stroke-linejoin:round;stroke-miterlimit:10;}
	.st42{fill:#232326;}
	.st43{fill:#C1B680;stroke:#575A6D;stroke-width:1.3;stroke-miterlimit:10;}
	.st44{fill:#FFE8D9;}
	.st45{fill:#DBD8D5;}
	.st46{fill:#F7F0EA;}
	.st47{fill:#313C36;}
	.st48{fill:#FBFBFD;}
	.st49{fill:#AF8C7E;}
	.st50{fill:#231815;stroke:#1D1115;stroke-width:2;stroke-linecap:round;stroke-linejoin:round;stroke-miterlimit:10;}
	.st51{fill:#ADA49E;}
	.st52{fill:#EDE3DD;}
	.st53{fill:#3B4941;}
	.st54{fill:#1D1115;}
	.st55{fill:#EAEAEA;stroke:#1D1115;stroke-width:0.521;stroke-linecap:round;stroke-linejoin:round;stroke-miterlimit:10;}
	.st56{fill:#4C4C4C;stroke:#1D1115;stroke-width:0.3721;stroke-miterlimit:10;}
	.st57{fill:#C1C1C1;stroke:#1D1115;stroke-width:0.521;stroke-miterlimit:10;}
	.st58{fill:none;stroke:#1D1115;stroke-width:1.3;stroke-linecap:round;stroke-miterlimit:10;}
	.st59{fill:#FFE8D9;stroke:#1D1115;stroke-width:1.3;stroke-linecap:round;stroke-linejoin:round;stroke-miterlimit:10;}
	.st60{fill:#912424;}
	.st61{fill:#8F3E38;stroke:#1D1115;stroke-width:1.312;stroke-miterlimit:10;}
	.st62{clip-path:url(#SVGID_36_);fill:none;stroke:#575A6D;stroke-width:1.3;stroke-miterlimit:10;}
	.st63{clip-path:url(#SVGID_36_);fill:#7D7F91;}
	.st64{opacity:0.4;clip-path:url(#SVGID_36_);fill:url(#SVGID_37_);}
	
		.st65{clip-path:url(#SVGID_36_);fill:none;stroke:#575A6D;stroke-width:1.3;stroke-linecap:round;stroke-linejoin:round;stroke-miterlimit:10;}
	.st66{clip-path:url(#SVGID_36_);}
	
		.st67{clip-path:url(#SVGID_36_);fill:none;stroke:#1D1115;stroke-width:1.3;stroke-linecap:round;stroke-linejoin:round;stroke-miterlimit:10;}
	.st68{clip-path:url(#SVGID_36_);fill:none;}
	.st69{clip-path:url(#SVGID_36_);fill:none;stroke:#575A6D;stroke-width:1.6344;stroke-miterlimit:10;}
	
		.st70{clip-path:url(#SVGID_36_);fill:#575A6D;stroke:#575A6D;stroke-width:1.3;stroke-linecap:round;stroke-linejoin:round;stroke-miterlimit:10;}
	.st71{fill:#FAC0BF;}
	.st72{fill:none;stroke:#1D1115;stroke-width:2;stroke-linecap:round;stroke-linejoin:round;stroke-miterlimit:10;}
	.st73{fill:#8E563B;}
	.st74{fill:#EC9898;stroke:#1D1115;stroke-width:2;stroke-linecap:round;stroke-linejoin:round;stroke-miterlimit:10;}
	.st75{fill:#F7F0EA;stroke:#1D1115;stroke-width:2;stroke-linecap:round;stroke-linejoin:round;stroke-miterlimit:10;}
	.st76{clip-path:url(#SVGID_36_);fill:#C1B680;stroke:#575A6D;stroke-width:1.3;stroke-miterlimit:10;}
	.st77{fill:#F7F7F7;stroke:#1D1115;stroke-width:2.1832;stroke-linecap:round;stroke-linejoin:round;stroke-miterlimit:10;}
	.st78{fill:#FFFFFF;stroke:#1D1115;stroke-width:2.1832;stroke-linecap:round;stroke-linejoin:round;stroke-miterlimit:10;}
	.st79{fill:none;stroke:#1D1115;stroke-width:2.7785;stroke-linecap:round;stroke-linejoin:round;stroke-miterlimit:10;}
	.st80{fill:#8F3E38;stroke:#1D1115;stroke-width:2.1832;stroke-miterlimit:10;}
	
		.st81{clip-path:url(#SVGID_36_);fill:none;stroke:#232326;stroke-width:1.3;stroke-linecap:round;stroke-linejoin:round;stroke-miterlimit:10;}
	.st82{fill:#606372;}
	.st83{fill:#575A6D;stroke:#575A6D;stroke-width:0.6901;stroke-miterlimit:10;}
	.st84{fill:none;stroke:#575A6D;stroke-width:5;stroke-miterlimit:10;}
	.st85{clip-path:url(#SVGID_39_);}
	.st86{fill:#B24242;}
	.st87{clip-path:url(#SVGID_41_);}
	.st88{clip-path:url(#SVGID_43_);}
	.st89{clip-path:url(#SVGID_45_);}
	.st90{clip-path:url(#SVGID_47_);}
	.st91{clip-path:url(#SVGID_49_);}
	.st92{clip-path:url(#SVGID_51_);}
	.st93{clip-path:url(#SVGID_53_);}
	.st94{clip-path:url(#SVGID_55_);}
	.st95{clip-path:url(#SVGID_57_);}
	.st96{clip-path:url(#SVGID_59_);}
	.st97{fill:none;stroke:#575A6D;stroke-linecap:round;stroke-linejoin:round;stroke-miterlimit:10;}
	.st98{fill:none;stroke:#575A6D;stroke-width:1.6344;stroke-linecap:round;stroke-linejoin:round;stroke-miterlimit:10;}
	.st99{fill:none;stroke:#575A6D;stroke-width:0.5705;stroke-miterlimit:10;}
	.st100{fill:none;stroke:#575A6D;stroke-width:0.3072;stroke-linecap:round;stroke-linejoin:round;stroke-miterlimit:10;}
	.st101{fill:none;stroke:#232326;stroke-width:1.3;stroke-linecap:round;stroke-linejoin:round;stroke-miterlimit:10;}
	.st102{fill:none;stroke:#575A6D;stroke-width:1.6995;stroke-linecap:round;stroke-linejoin:round;stroke-miterlimit:10;}
	.st103{fill:none;stroke:#575A6D;stroke-width:1.7979;stroke-miterlimit:10;}
	.st104{fill:none;stroke:#575A6D;stroke-width:1.7979;stroke-linecap:round;stroke-linejoin:round;stroke-miterlimit:10;}
	.st105{fill:none;stroke:#575A6D;stroke-width:1.4024;stroke-linecap:round;stroke-linejoin:round;stroke-miterlimit:10;}
	.st106{fill:none;stroke:#575A6D;stroke-width:1.4;stroke-linecap:round;stroke-linejoin:round;stroke-miterlimit:10;}
	.st107{fill:#948962;}
	.st108{fill:#99B4C9;}
	.st109{fill:#FFBC57;}
	.st110{fill:#FD8B8A;}
	.st111{fill:#F8EFEA;}
	.st112{fill:#E8AE56;}
	.st113{fill:#E7B383;}
	.st114{fill:#FFE6D0;}
	
		.st115{clip-path:url(#SVGID_101_);fill:none;stroke:#575A6D;stroke-width:1.2991;stroke-linecap:round;stroke-linejoin:round;stroke-miterlimit:10;}
	
		.st116{clip-path:url(#SVGID_101_);fill:none;stroke:#575A6D;stroke-width:0.9993;stroke-linecap:round;stroke-linejoin:round;stroke-miterlimit:10;}
	
		.st117{clip-path:url(#SVGID_103_);fill:none;stroke:#575A6D;stroke-width:1.2991;stroke-linecap:round;stroke-linejoin:round;stroke-miterlimit:10;}
	
		.st118{clip-path:url(#SVGID_103_);fill:none;stroke:#575A6D;stroke-width:0.9993;stroke-linecap:round;stroke-linejoin:round;stroke-miterlimit:10;}
	
		.st119{clip-path:url(#SVGID_105_);fill:none;stroke:#575A6D;stroke-width:1.2991;stroke-linecap:round;stroke-linejoin:round;stroke-miterlimit:10;}
	
		.st120{clip-path:url(#SVGID_105_);fill:none;stroke:#575A6D;stroke-width:0.9993;stroke-linecap:round;stroke-linejoin:round;stroke-miterlimit:10;}
	
		.st121{clip-path:url(#SVGID_107_);fill:none;stroke:#575A6D;stroke-width:1.2991;stroke-linecap:round;stroke-linejoin:round;stroke-miterlimit:10;}
	
		.st122{clip-path:url(#SVGID_107_);fill:none;stroke:#575A6D;stroke-width:0.9993;stroke-linecap:round;stroke-linejoin:round;stroke-miterlimit:10;}
	
		.st123{clip-path:url(#SVGID_109_);fill:none;stroke:#575A6D;stroke-width:1.2991;stroke-linecap:round;stroke-linejoin:round;stroke-miterlimit:10;}
	
		.st124{clip-path:url(#SVGID_109_);fill:none;stroke:#575A6D;stroke-width:0.9993;stroke-linecap:round;stroke-linejoin:round;stroke-miterlimit:10;}
	.st125{fill:none;stroke:#575A6D;stroke-width:0.9993;stroke-linecap:round;stroke-linejoin:round;stroke-miterlimit:10;}
	.st126{fill:#828397;}
	.st127{fill:none;stroke:#575A6D;stroke-width:0.5;stroke-linecap:round;stroke-linejoin:round;stroke-miterlimit:10;}
	.st128{fill:none;stroke:#575A6D;stroke-width:0.4035;stroke-miterlimit:10;}
	.st129{fill:none;stroke:#575A6D;stroke-width:0.4035;stroke-linecap:round;stroke-linejoin:round;stroke-miterlimit:10;}
	.st130{fill:#F7F0EA;stroke:#575A6D;stroke-width:2.031;stroke-miterlimit:10;}
	.st131{fill:#7D7F91;stroke:#575A6D;stroke-width:2.6;stroke-linecap:round;stroke-linejoin:round;stroke-miterlimit:10;}
	.st132{fill:none;stroke:#575A6D;stroke-width:1.9379;stroke-miterlimit:10;}
	.st133{clip-path:url(#SVGID_151_);}
	.st134{clip-path:url(#SVGID_153_);}
	.st135{clip-path:url(#SVGID_155_);}
	.st136{clip-path:url(#SVGID_157_);}
	.st137{fill:#E27960;}
	.st138{fill:#575A6D;stroke:#575A6D;stroke-width:1.264;stroke-miterlimit:10;}
	.st139{fill:none;stroke:#575A6D;stroke-width:1.264;stroke-miterlimit:10;}
	.st140{fill:#F7F0EA;stroke:#575A6D;stroke-width:2.6129;stroke-miterlimit:10;}
	.st141{fill:none;stroke:#575A6D;stroke-width:8;stroke-miterlimit:10;}
	.st142{clip-path:url(#SVGID_159_);}
	.st143{clip-path:url(#SVGID_161_);}
	.st144{clip-path:url(#SVGID_163_);}
	.st145{clip-path:url(#SVGID_165_);}
	.st146{fill:none;stroke:#575A6D;stroke-width:2.493;stroke-miterlimit:10;}
	.st147{fill:#FDD485;}
	.st148{fill:#FBD0C6;}
	.st149{fill:#866359;}
	.st150{fill:none;stroke:#212226;stroke-width:1.9841;stroke-linecap:round;stroke-linejoin:round;stroke-miterlimit:10;}
	.st151{fill:#EB9485;stroke:#212226;stroke-width:1.9841;stroke-linecap:round;stroke-linejoin:round;stroke-miterlimit:10;}
	.st152{fill:#212226;stroke:#212226;stroke-width:1.9841;stroke-linecap:round;stroke-linejoin:round;stroke-miterlimit:10;}
	.st153{clip-path:url(#SVGID_167_);}
	.st154{clip-path:url(#SVGID_169_);}
	.st155{clip-path:url(#SVGID_171_);}
	.st156{clip-path:url(#SVGID_173_);}
	.st157{fill:#53B777;}
	.st158{fill:#FBD3CC;}
	.st159{fill:#885E4D;}
	.st160{fill:none;stroke:#212226;stroke-width:1.1762;stroke-linecap:round;stroke-linejoin:round;stroke-miterlimit:10;}
	.st161{fill:none;stroke:#212226;stroke-width:1.7592;stroke-linecap:round;stroke-linejoin:round;stroke-miterlimit:10;}
	.st162{clip-path:url(#SVGID_175_);}
	.st163{clip-path:url(#SVGID_177_);}
	.st164{clip-path:url(#SVGID_179_);}
	.st165{clip-path:url(#SVGID_181_);}
	.st166{fill:#231815;stroke:#1D1115;stroke-width:2.0318;stroke-linecap:round;stroke-linejoin:round;stroke-miterlimit:10;}
	.st167{fill:#C79E93;}
	.st168{fill:#FFDBA5;}
	.st169{fill:#C89F96;}
	.st170{fill:none;stroke:#1D1115;stroke-width:2.1549;stroke-linecap:round;stroke-linejoin:round;stroke-miterlimit:10;}
	.st171{fill:#1D1115;stroke:#1D1115;stroke-width:2.1549;stroke-linecap:round;stroke-linejoin:round;stroke-miterlimit:10;}
	.st172{fill:#7D7F91;stroke:#575A6D;stroke-width:1.6112;stroke-linecap:round;stroke-linejoin:round;stroke-miterlimit:10;}
	.st173{clip-path:url(#SVGID_183_);}
	.st174{fill:#E27960;stroke:#575A6D;stroke-width:3;stroke-miterlimit:10;}
	.st175{fill:#575A6D;stroke:#575A6D;stroke-width:0.824;stroke-miterlimit:10;}
	.st176{fill:none;stroke:#575A6D;stroke-width:0.824;stroke-miterlimit:10;}
	.st177{fill:none;stroke:#212226;stroke-width:0.9867;stroke-linecap:round;stroke-linejoin:round;stroke-miterlimit:10;}
	.st178{fill:#EB9485;stroke:#212226;stroke-width:0.9867;stroke-linecap:round;stroke-linejoin:round;stroke-miterlimit:10;}
	.st179{fill:#212226;stroke:#212226;stroke-width:0.9867;stroke-linecap:round;stroke-linejoin:round;stroke-miterlimit:10;}
	.st180{clip-path:url(#SVGID_185_);}
	.st181{clip-path:url(#SVGID_187_);}
	.st182{fill:#231815;stroke:#1D1115;stroke-width:1.1799;stroke-linecap:round;stroke-linejoin:round;stroke-miterlimit:10;}
	.st183{fill:none;stroke:#212226;stroke-width:0.6742;stroke-linecap:round;stroke-linejoin:round;stroke-miterlimit:10;}
	.st184{fill:none;stroke:#212226;stroke-width:1.0083;stroke-linecap:round;stroke-linejoin:round;stroke-miterlimit:10;}
	.st185{fill:none;stroke:#1D1115;stroke-width:1.2208;stroke-linecap:round;stroke-linejoin:round;stroke-miterlimit:10;}
	.st186{fill:#1D1115;stroke:#1D1115;stroke-width:1.2208;stroke-linecap:round;stroke-linejoin:round;stroke-miterlimit:10;}
	.st187{fill:#63632C;}
	.st188{fill:#006358;}
	.st189{fill:#A3703C;}
	.st190{fill:#BCEE3B;}
	.st191{clip-path:url(#SVGID_189_);fill:#7A5233;}
	.st192{clip-path:url(#SVGID_189_);}
	.st193{fill:#54453C;}
	.st194{fill:#37312D;}
	.st195{fill:#0D474B;}
	.st196{fill:#00714B;}
	.st197{fill:#88E02C;}
	.st198{fill:#00A664;}
	.st199{fill:#55C117;}
	.st200{fill:none;stroke:#000000;stroke-width:1.3;stroke-miterlimit:10;}
</style>
<g>
	<path class="st167" d="M43.5,119.9c0,0-5.4,3.4-7.3,9c-1.9,5.5-10,21.8-10,21.8l-4,9.5l-0.6-3l0.3-8.5l0.6-11.1l1.3-6.2l2.8-5.4
		l6-6.2l0.5-0.9c0,0,6,0.2,8.1-2.2L43.5,119.9z"/>
	<path class="st168" d="M46.2,62c0,0-5.2-1.5-10,2.6s-6.8,13.1-6.8,13.1S28,89.8,28,90.9s-1.3,9.9-1.3,9.9l-0.5,8.6l2.3,5.7l3.3,3.1
		l4.1,0.7l5.4-2.2l1.2,2.7l0.5,1.3c0,0-2.9,0.1-7.5,9.8S22.7,159,22.7,159l-5.2,13l-7,7.4l-1.4,2.7l-0.7,3.3l-3.7,5.6l-0.4,1.7
		l2.3,3.4l5.9,4.4l8.3,1l4.4,0.2l2,2.2c0,0,14.4,9.7,22.4,11.4c8,1.7,25.3,3.9,34.8,2.8s15.9,0.6,26-2.8s15.5-10.7,15.5-10.7l2-3.4
		c0,0,2-16.1,1.6-18.8s-2.7-15.3-7.6-20.4s-2.6-3-2.6-3s-0.3-7.1-1.4-9.3c-1-2.2-0.3-4.9-1-7c-0.7-2.1-1.1-5.5-2.5-8.8
		c-1.4-3.3,0.1-20.5,0.7-21.4c0.6-0.9,4.6-22.5,4.6-24.9s0.8-12.8-0.3-14.6c-1.1-1.8-3.2-6.1-7.4-6C108.1,67.2,46.2,62,46.2,62z"/>
	<path class="st169" d="M43.8,35.5c0,0-2.7-1.4-3.3-2.3s-2.8-5.7-1-9s4-9.5,14.5-14s17.3-3.4,19.8-1.5c0,0,14.8-2.2,19.6,12.7
		l2.5,6.8c0,0-1.7,9.7,0.5,12.6s3.3,5.2,5.5,6.8s7.3,5.5,8.5,7.2s3.3,5.2,2.9,8.3s-2.2,7-1.5,9c0.7,2,0.3,3,1.1,3.6
		c0.8,0.6,3.4,1.4,3.4,1.4s-2.9,2-7.2,1.1c-4.3-0.9-3.2,0.6-6.9-0.4c-3.7-1-7.6,1.8-11.9,1.2c-4.3-0.6-6.4-0.2-6.2-2.1
		c0.1-1.9,0.1,4-13,0.3c0,0-4.9,2.9-8.1,3.2c0,0-4.6,2.6-6,1.6l1.1-3.7c0,0,0.1-3.7-0.7-4.6c-0.9-0.8-6.2-4.2-6.2-4.2l-4.3-3
		l-0.8-2.8l0.7-3.4l2.7-4.2l4.7-3.2l1.9-1l0.6-0.3c0,0-1,1.3-0.7-2.7c0.3-4,2.4-8.4,2.4-8.4l1-6.6c0,0-0.9,3.4-5.1,2.4
		c-4.2-1-5.2-4.4-5.2-4.4L47,26.2l0.2-5.3c0,0-2.8,2.2-3.3,3.8s-0.9,5.6-0.5,7c0.4,1.4,1.1,3.1,1.1,3.1L43.8,35.5z"/>
	<path class="st44" d="M46.9,21.3c0,0-3.7,1.6-3.7,7.6s1.7,5.9,1.7,5.9l1,3.3c0,0-1.5,5-2.7,6c-1.2,1-1.8,1.5-1.4,2.3
		c0.4,0.8,2.3,2.9,2.8,3.1c0.6,0.2-0.8,4.2,0.5,6.5c1.1,2-0.1,1.6-0.1,1.6l1.5,0.9l1.7-0.7l4.7-4.2l3.5-1.9c0,0-0.4,0.3,0-2.4
		c0.4-2.7,1.3-6.8,1.3-6.8l1.9-5.1v-3.5c0,0-1.5,3.2-4.7,2.5c-3.2-0.7-6.3-5.6-6.3-5.6l-1.6-6.3V21.3z"/>
	<path class="st185" d="M47.4,13.8c0,0,17.1-11.4,26.9-4.8c0,0,12.9-4.2,20.4,15.6c3.3,8.8-4.4,15,9.6,24.8c9,6.3,9.6,10.9,8.7,16.1
		c-0.9,5.2-3.4,10.7,3.3,11.6"/>
	<path class="st185" d="M44.5,17.2c0,0-6.1,5.5-5.8,11.2c0.3,5.7,5.8,7.8,5.8,7.8"/>
	<path class="st185" d="M47.4,20.1c0,0-3.5,11.2,7.3,16.1"/>
	<path class="st185" d="M49.2,21.3c0,0,0,7.8,7.8,13.2"/>
	<path class="st185" d="M43.8,24.4c0,0-1.8,5.8,0.8,10.1"/>
	<path class="st185" d="M58.5,30c0.5,0.1,1.9,6-0.4,11c-1.6,3.3-2.5,6.9-2,9"/>
	<path class="st185" d="M66.3,36.2c0,0-0.9,11.1-10.4,15.5s-10.6,10.6-9.6,13.6c1,3,10.5,6.3,11.3,8.7c0.8,2.4,0.5,6.4-0.7,7.7"/>
	<path class="st185" d="M64.6,67.7c0,0,6,5.6-1.6,12.5"/>
	<path class="st185" d="M77.5,47c0,0-5.1,5.9-5.1,10.5s6.3,8,6.9,10.1c0.7,2.1,1.3,8.1-9.1,9.3"/>
	<path class="st185" d="M83.2,66.4c0,0,5.1,3.5,0.7,10.7"/>
	<path class="st185" d="M83.2,58.9c0.8,0.8,5.6,5.6,10.3,7.5c4.7,1.9,2,12.7-3.9,12.5"/>
	<path class="st185" d="M98.1,70.7c0,0-0.8,6.8,6.1,7.4"/>
	<path class="st185" d="M92.5,47.5c0.3,0.8-0.2,3.7,1.8,5.3c2,1.5,11.4,10.1,11.3,13.6c-0.1,3.5-4.1,6.7-2.2,9.1
		c2,2.4,5.4,2.3,5.4,2.3"/>
	<path class="st185" d="M114.7,67.7c0,0,10.1,1.3,3.3,31.4s-3.1,36.1-2.4,37.1c0.6,1.1,2.3,9.1,1.6,11.5"/>
	<path class="st185" d="M118,149.9c0,0,2.2,4,1.1,13.2c-1.1,9.2-0.5,14.8,2.2,16"/>
	<path class="st185" d="M121.3,161c0,0,9.2,11.1,8.4,25.1s-1.6,15.9-2.5,17c-0.9,1-7.8,15.6-37.7,15.1s-41.1,1.5-65.2-16.4"/>
	<path class="st185" d="M39.5,202.1c0,0-22.8-0.2-26.4-1.4s-8.7-6.5-8.7-8.4s4.5-4.8,4.6-9.3c0.2-4.5,8.3-9.2,9.1-12.2
		c0.7-3,19.1-47.9,22.6-48.6"/>
	<path class="st185" d="M36.7,99.2c0.5,1.2,2.9,9.1,2.9,12.4s3.9,8,3.9,12.7"/>
	<path class="st185" d="M40.1,117.1c0,0-8.2,6.1-12.9-4.4C24.5,106.8,28,94.8,28,92c0-2.8-0.5-29.8,15.5-30"/>
	<path class="st185" d="M33.8,74c0,0,4.5,1.9,5.6,10.6"/>
	<path class="st185" d="M34.8,93.2c0,0,8.1-0.3,8.7-2.8"/>
	<path class="st185" d="M29.7,104.3c0,0,2,4.4,4,5.1"/>
	<path class="st185" d="M33.1,119.5c0,0-9.8,6-10.6,18.2c-0.8,12.1-0.9,22-0.9,22"/>
	<path class="st185" d="M43.8,34.9c0.3,0.1,2.8,2.2,1.7,5.2c-1.1,2.9-3.8,4.8-3.9,5.8c-0.1,1,1.9,3.2,2.6,3.4"/>
	<path class="st185" d="M44.5,52.6c0,0,1,1.1,2.6,1.3"/>
	<path class="st185" d="M45,56c0,0-1.4,3,2.6,2.4"/>
	<path class="st185" d="M47.9,35.5c0,0,3,0.5,4,2.7"/>
	<g>
		<path class="st186" d="M48.7,41.3c-0.6,0-1.1-0.9-1.1-2s0.5-2,1.1-2s1.1,0.9,1.1,2S49.3,41.3,48.7,41.3z"/>
	</g>
</g>
</svg>
