<?xml version="1.0" encoding="utf-8"?>
<!-- Generator: Adobe Illustrator 24.3.0, SVG Export Plug-In . SVG Version: 6.00 Build 0)  -->
<svg version="1.1" id="圖層_1" xmlns="http://www.w3.org/2000/svg" xmlns:xlink="http://www.w3.org/1999/xlink" x="0px" y="0px"
	 viewBox="0 0 533.5 302.2" style="enable-background:new 0 0 533.5 302.2;" xml:space="preserve">
<style type="text/css">
	.st0{fill:#7D7F91;}
	.st1{fill:none;stroke:#575A6D;stroke-width:1.3;stroke-miterlimit:10;}
	.st2{fill:#F7F0EA;stroke:#575A6D;stroke-width:3;stroke-miterlimit:10;}
	.st3{opacity:0.4;fill:url(#SVGID_1_);}
	.st4{opacity:0.4;fill:url(#SVGID_2_);}
	.st5{fill:#FA5560;stroke:#FA5560;stroke-width:15;stroke-linecap:round;stroke-linejoin:round;stroke-miterlimit:10;}
	.st6{fill:#FEE48B;}
	.st7{fill:#FA5560;stroke:#FA5560;stroke-width:21.3573;stroke-linecap:round;stroke-linejoin:round;stroke-miterlimit:10;}
	.st8{clip-path:url(#SVGID_4_);}
	.st9{fill:#E2C179;}
	.st10{clip-path:url(#SVGID_6_);}
	.st11{clip-path:url(#SVGID_8_);}
	.st12{clip-path:url(#SVGID_10_);}
	.st13{clip-path:url(#SVGID_12_);}
	.st14{clip-path:url(#SVGID_14_);}
	.st15{clip-path:url(#SVGID_16_);}
	.st16{fill:#FA5560;stroke:#E4463B;stroke-width:23.0455;stroke-linecap:round;stroke-linejoin:round;stroke-miterlimit:10;}
	.st17{clip-path:url(#SVGID_18_);}
	.st18{clip-path:url(#SVGID_20_);}
	.st19{clip-path:url(#SVGID_22_);}
	.st20{clip-path:url(#SVGID_24_);}
	.st21{clip-path:url(#SVGID_26_);}
	.st22{clip-path:url(#SVGID_28_);}
	.st23{clip-path:url(#SVGID_30_);}
	.st24{fill:none;stroke:#575A6D;stroke-width:1.3;stroke-linecap:round;stroke-linejoin:round;stroke-miterlimit:10;}
	.st25{fill:none;stroke:#575A6D;stroke-width:1.6182;stroke-miterlimit:10;}
	.st26{fill:none;stroke:#575A6D;stroke-width:2;stroke-miterlimit:10;}
	.st27{fill:#575A6D;}
	.st28{fill:#575A6D;stroke:#575A6D;stroke-width:1.3;stroke-linecap:round;stroke-linejoin:round;stroke-miterlimit:10;}
	.st29{fill:none;}
	.st30{clip-path:url(#SVGID_32_);}
	.st31{fill:none;stroke:#575A6D;stroke-width:1.6344;stroke-miterlimit:10;}
	.st32{fill:#694C52;}
	.st33{clip-path:url(#SVGID_34_);}
	.st34{fill:none;stroke:#575A6D;stroke-width:0.7;stroke-linecap:round;stroke-linejoin:round;stroke-miterlimit:10;}
	.st35{fill:#FFFFFF;}
	.st36{fill:#E2E2E2;}
	.st37{fill:#F1C080;}
	.st38{fill:#F29B9A;}
	.st39{fill:none;stroke:#1D1115;stroke-width:1.3;stroke-linecap:round;stroke-linejoin:round;stroke-miterlimit:10;}
	.st40{fill:#F29B9A;stroke:#1D1115;stroke-width:1.3;stroke-linecap:round;stroke-linejoin:round;stroke-miterlimit:10;}
	.st41{fill:#82827E;stroke:#1D1115;stroke-width:1.3;stroke-linecap:round;stroke-linejoin:round;stroke-miterlimit:10;}
	.st42{fill:#232326;}
	.st43{fill:#C1B680;stroke:#575A6D;stroke-width:1.3;stroke-miterlimit:10;}
	.st44{fill:#FFE8D9;}
	.st45{fill:#DBD8D5;}
	.st46{fill:#F7F0EA;}
	.st47{fill:#313C36;}
	.st48{fill:#FBFBFD;}
	.st49{fill:#AF8C7E;}
	.st50{fill:#231815;stroke:#1D1115;stroke-width:2;stroke-linecap:round;stroke-linejoin:round;stroke-miterlimit:10;}
	.st51{fill:#ADA49E;}
	.st52{fill:#EDE3DD;}
	.st53{fill:#3B4941;}
	.st54{fill:#1D1115;}
	.st55{fill:#EAEAEA;stroke:#1D1115;stroke-width:0.521;stroke-linecap:round;stroke-linejoin:round;stroke-miterlimit:10;}
	.st56{fill:#4C4C4C;stroke:#1D1115;stroke-width:0.3721;stroke-miterlimit:10;}
	.st57{fill:#C1C1C1;stroke:#1D1115;stroke-width:0.521;stroke-miterlimit:10;}
	.st58{fill:none;stroke:#1D1115;stroke-width:1.3;stroke-linecap:round;stroke-miterlimit:10;}
	.st59{fill:#FFE8D9;stroke:#1D1115;stroke-width:1.3;stroke-linecap:round;stroke-linejoin:round;stroke-miterlimit:10;}
	.st60{fill:#912424;}
	.st61{fill:#8F3E38;stroke:#1D1115;stroke-width:1.312;stroke-miterlimit:10;}
	.st62{clip-path:url(#SVGID_36_);fill:none;stroke:#575A6D;stroke-width:1.3;stroke-miterlimit:10;}
	.st63{clip-path:url(#SVGID_36_);fill:#7D7F91;}
	.st64{opacity:0.4;clip-path:url(#SVGID_36_);fill:url(#SVGID_37_);}
	
		.st65{clip-path:url(#SVGID_36_);fill:none;stroke:#575A6D;stroke-width:1.3;stroke-linecap:round;stroke-linejoin:round;stroke-miterlimit:10;}
	.st66{clip-path:url(#SVGID_36_);}
	
		.st67{clip-path:url(#SVGID_36_);fill:none;stroke:#1D1115;stroke-width:1.3;stroke-linecap:round;stroke-linejoin:round;stroke-miterlimit:10;}
	.st68{clip-path:url(#SVGID_36_);fill:none;}
	.st69{clip-path:url(#SVGID_36_);fill:none;stroke:#575A6D;stroke-width:1.6344;stroke-miterlimit:10;}
	
		.st70{clip-path:url(#SVGID_36_);fill:#575A6D;stroke:#575A6D;stroke-width:1.3;stroke-linecap:round;stroke-linejoin:round;stroke-miterlimit:10;}
	.st71{fill:#FAC0BF;}
	.st72{fill:none;stroke:#1D1115;stroke-width:2;stroke-linecap:round;stroke-linejoin:round;stroke-miterlimit:10;}
	.st73{fill:#8E563B;}
	.st74{fill:#EC9898;stroke:#1D1115;stroke-width:2;stroke-linecap:round;stroke-linejoin:round;stroke-miterlimit:10;}
	.st75{fill:#F7F0EA;stroke:#1D1115;stroke-width:2;stroke-linecap:round;stroke-linejoin:round;stroke-miterlimit:10;}
	.st76{clip-path:url(#SVGID_36_);fill:#C1B680;stroke:#575A6D;stroke-width:1.3;stroke-miterlimit:10;}
	.st77{fill:#F7F7F7;stroke:#1D1115;stroke-width:2.1832;stroke-linecap:round;stroke-linejoin:round;stroke-miterlimit:10;}
	.st78{fill:#FFFFFF;stroke:#1D1115;stroke-width:2.1832;stroke-linecap:round;stroke-linejoin:round;stroke-miterlimit:10;}
	.st79{fill:none;stroke:#1D1115;stroke-width:2.7785;stroke-linecap:round;stroke-linejoin:round;stroke-miterlimit:10;}
	.st80{fill:#8F3E38;stroke:#1D1115;stroke-width:2.1832;stroke-miterlimit:10;}
	
		.st81{clip-path:url(#SVGID_36_);fill:none;stroke:#232326;stroke-width:1.3;stroke-linecap:round;stroke-linejoin:round;stroke-miterlimit:10;}
	.st82{fill:#606372;}
	.st83{fill:#575A6D;stroke:#575A6D;stroke-width:0.6901;stroke-miterlimit:10;}
	.st84{fill:none;stroke:#575A6D;stroke-width:5;stroke-miterlimit:10;}
	.st85{clip-path:url(#SVGID_39_);}
	.st86{fill:#B24242;}
	.st87{clip-path:url(#SVGID_41_);}
	.st88{clip-path:url(#SVGID_43_);}
	.st89{clip-path:url(#SVGID_45_);}
	.st90{clip-path:url(#SVGID_47_);}
	.st91{clip-path:url(#SVGID_49_);}
	.st92{clip-path:url(#SVGID_51_);}
	.st93{clip-path:url(#SVGID_53_);}
	.st94{clip-path:url(#SVGID_55_);}
	.st95{clip-path:url(#SVGID_57_);}
	.st96{clip-path:url(#SVGID_59_);}
	.st97{fill:none;stroke:#575A6D;stroke-linecap:round;stroke-linejoin:round;stroke-miterlimit:10;}
	.st98{fill:none;stroke:#575A6D;stroke-width:1.6344;stroke-linecap:round;stroke-linejoin:round;stroke-miterlimit:10;}
	.st99{fill:none;stroke:#575A6D;stroke-width:0.5705;stroke-miterlimit:10;}
	.st100{fill:none;stroke:#575A6D;stroke-width:0.3072;stroke-linecap:round;stroke-linejoin:round;stroke-miterlimit:10;}
	.st101{fill:none;stroke:#232326;stroke-width:1.3;stroke-linecap:round;stroke-linejoin:round;stroke-miterlimit:10;}
	.st102{fill:none;stroke:#575A6D;stroke-width:1.6995;stroke-linecap:round;stroke-linejoin:round;stroke-miterlimit:10;}
	.st103{fill:none;stroke:#575A6D;stroke-width:1.7979;stroke-miterlimit:10;}
	.st104{fill:none;stroke:#575A6D;stroke-width:1.7979;stroke-linecap:round;stroke-linejoin:round;stroke-miterlimit:10;}
	.st105{fill:none;stroke:#575A6D;stroke-width:1.4024;stroke-linecap:round;stroke-linejoin:round;stroke-miterlimit:10;}
	.st106{fill:none;stroke:#575A6D;stroke-width:1.4;stroke-linecap:round;stroke-linejoin:round;stroke-miterlimit:10;}
	.st107{fill:#948962;}
	.st108{fill:#99B4C9;}
	.st109{fill:#FFBC57;}
	.st110{fill:#FD8B8A;}
	.st111{fill:#F8EFEA;}
	.st112{fill:#E8AE56;}
	.st113{fill:#E7B383;}
	.st114{fill:#FFE6D0;}
	
		.st115{clip-path:url(#SVGID_101_);fill:none;stroke:#575A6D;stroke-width:1.2991;stroke-linecap:round;stroke-linejoin:round;stroke-miterlimit:10;}
	
		.st116{clip-path:url(#SVGID_101_);fill:none;stroke:#575A6D;stroke-width:0.9993;stroke-linecap:round;stroke-linejoin:round;stroke-miterlimit:10;}
	
		.st117{clip-path:url(#SVGID_103_);fill:none;stroke:#575A6D;stroke-width:1.2991;stroke-linecap:round;stroke-linejoin:round;stroke-miterlimit:10;}
	
		.st118{clip-path:url(#SVGID_103_);fill:none;stroke:#575A6D;stroke-width:0.9993;stroke-linecap:round;stroke-linejoin:round;stroke-miterlimit:10;}
	
		.st119{clip-path:url(#SVGID_105_);fill:none;stroke:#575A6D;stroke-width:1.2991;stroke-linecap:round;stroke-linejoin:round;stroke-miterlimit:10;}
	
		.st120{clip-path:url(#SVGID_105_);fill:none;stroke:#575A6D;stroke-width:0.9993;stroke-linecap:round;stroke-linejoin:round;stroke-miterlimit:10;}
	
		.st121{clip-path:url(#SVGID_107_);fill:none;stroke:#575A6D;stroke-width:1.2991;stroke-linecap:round;stroke-linejoin:round;stroke-miterlimit:10;}
	
		.st122{clip-path:url(#SVGID_107_);fill:none;stroke:#575A6D;stroke-width:0.9993;stroke-linecap:round;stroke-linejoin:round;stroke-miterlimit:10;}
	
		.st123{clip-path:url(#SVGID_109_);fill:none;stroke:#575A6D;stroke-width:1.2991;stroke-linecap:round;stroke-linejoin:round;stroke-miterlimit:10;}
	
		.st124{clip-path:url(#SVGID_109_);fill:none;stroke:#575A6D;stroke-width:0.9993;stroke-linecap:round;stroke-linejoin:round;stroke-miterlimit:10;}
	.st125{fill:none;stroke:#575A6D;stroke-width:0.9993;stroke-linecap:round;stroke-linejoin:round;stroke-miterlimit:10;}
	.st126{fill:#828397;}
	.st127{fill:none;stroke:#575A6D;stroke-width:0.5;stroke-linecap:round;stroke-linejoin:round;stroke-miterlimit:10;}
	.st128{fill:none;stroke:#575A6D;stroke-width:0.4035;stroke-miterlimit:10;}
	.st129{fill:none;stroke:#575A6D;stroke-width:0.4035;stroke-linecap:round;stroke-linejoin:round;stroke-miterlimit:10;}
	.st130{fill:#F7F0EA;stroke:#575A6D;stroke-width:2.031;stroke-miterlimit:10;}
	.st131{fill:#7D7F91;stroke:#575A6D;stroke-width:2.6;stroke-linecap:round;stroke-linejoin:round;stroke-miterlimit:10;}
	.st132{fill:none;stroke:#575A6D;stroke-width:1.9379;stroke-miterlimit:10;}
	.st133{clip-path:url(#SVGID_151_);}
	.st134{clip-path:url(#SVGID_153_);}
	.st135{clip-path:url(#SVGID_155_);}
	.st136{clip-path:url(#SVGID_157_);}
	.st137{fill:#E27960;}
	.st138{fill:#575A6D;stroke:#575A6D;stroke-width:1.264;stroke-miterlimit:10;}
	.st139{fill:none;stroke:#575A6D;stroke-width:1.264;stroke-miterlimit:10;}
	.st140{fill:#F7F0EA;stroke:#575A6D;stroke-width:2.6129;stroke-miterlimit:10;}
	.st141{fill:none;stroke:#575A6D;stroke-width:8;stroke-miterlimit:10;}
	.st142{clip-path:url(#SVGID_159_);}
	.st143{clip-path:url(#SVGID_161_);}
	.st144{clip-path:url(#SVGID_163_);}
	.st145{clip-path:url(#SVGID_165_);}
	.st146{fill:none;stroke:#575A6D;stroke-width:2.493;stroke-miterlimit:10;}
	.st147{fill:#FDD485;}
	.st148{fill:#FBD0C6;}
	.st149{fill:#866359;}
	.st150{fill:none;stroke:#212226;stroke-width:1.9841;stroke-linecap:round;stroke-linejoin:round;stroke-miterlimit:10;}
	.st151{fill:#EB9485;stroke:#212226;stroke-width:1.9841;stroke-linecap:round;stroke-linejoin:round;stroke-miterlimit:10;}
	.st152{fill:#212226;stroke:#212226;stroke-width:1.9841;stroke-linecap:round;stroke-linejoin:round;stroke-miterlimit:10;}
	.st153{clip-path:url(#SVGID_167_);}
	.st154{clip-path:url(#SVGID_169_);}
	.st155{clip-path:url(#SVGID_171_);}
	.st156{clip-path:url(#SVGID_173_);}
	.st157{fill:#53B777;}
	.st158{fill:#FBD3CC;}
	.st159{fill:#885E4D;}
	.st160{fill:none;stroke:#212226;stroke-width:1.1762;stroke-linecap:round;stroke-linejoin:round;stroke-miterlimit:10;}
	.st161{fill:none;stroke:#212226;stroke-width:1.7592;stroke-linecap:round;stroke-linejoin:round;stroke-miterlimit:10;}
	.st162{clip-path:url(#SVGID_175_);}
	.st163{clip-path:url(#SVGID_177_);}
	.st164{clip-path:url(#SVGID_179_);}
	.st165{clip-path:url(#SVGID_181_);}
	.st166{fill:#231815;stroke:#1D1115;stroke-width:2.0318;stroke-linecap:round;stroke-linejoin:round;stroke-miterlimit:10;}
	.st167{fill:#C79E93;}
	.st168{fill:#FFDBA5;}
	.st169{fill:#C89F96;}
	.st170{fill:none;stroke:#1D1115;stroke-width:2.1549;stroke-linecap:round;stroke-linejoin:round;stroke-miterlimit:10;}
	.st171{fill:#1D1115;stroke:#1D1115;stroke-width:2.1549;stroke-linecap:round;stroke-linejoin:round;stroke-miterlimit:10;}
	.st172{fill:#7D7F91;stroke:#575A6D;stroke-width:1.6112;stroke-linecap:round;stroke-linejoin:round;stroke-miterlimit:10;}
	.st173{clip-path:url(#SVGID_183_);}
	.st174{fill:#E27960;stroke:#575A6D;stroke-width:3;stroke-miterlimit:10;}
	.st175{fill:#575A6D;stroke:#575A6D;stroke-width:0.824;stroke-miterlimit:10;}
	.st176{fill:none;stroke:#575A6D;stroke-width:0.824;stroke-miterlimit:10;}
	.st177{fill:none;stroke:#212226;stroke-width:0.9867;stroke-linecap:round;stroke-linejoin:round;stroke-miterlimit:10;}
	.st178{fill:#EB9485;stroke:#212226;stroke-width:0.9867;stroke-linecap:round;stroke-linejoin:round;stroke-miterlimit:10;}
	.st179{fill:#212226;stroke:#212226;stroke-width:0.9867;stroke-linecap:round;stroke-linejoin:round;stroke-miterlimit:10;}
	.st180{clip-path:url(#SVGID_185_);}
	.st181{clip-path:url(#SVGID_187_);}
	.st182{fill:#231815;stroke:#1D1115;stroke-width:1.1799;stroke-linecap:round;stroke-linejoin:round;stroke-miterlimit:10;}
	.st183{fill:none;stroke:#212226;stroke-width:0.6742;stroke-linecap:round;stroke-linejoin:round;stroke-miterlimit:10;}
	.st184{fill:none;stroke:#212226;stroke-width:1.0083;stroke-linecap:round;stroke-linejoin:round;stroke-miterlimit:10;}
	.st185{fill:none;stroke:#1D1115;stroke-width:1.2208;stroke-linecap:round;stroke-linejoin:round;stroke-miterlimit:10;}
	.st186{fill:#1D1115;stroke:#1D1115;stroke-width:1.2208;stroke-linecap:round;stroke-linejoin:round;stroke-miterlimit:10;}
	.st187{fill:#63632C;}
	.st188{fill:#006358;}
	.st189{fill:#A3703C;}
	.st190{fill:#BCEE3B;}
	.st191{clip-path:url(#SVGID_189_);fill:#7A5233;}
	.st192{clip-path:url(#SVGID_189_);}
	.st193{fill:#54453C;}
	.st194{fill:#37312D;}
	.st195{fill:#0D474B;}
	.st196{fill:#00714B;}
	.st197{fill:#88E02C;}
	.st198{fill:#00A664;}
	.st199{fill:#55C117;}
	.st200{fill:none;stroke:#000000;stroke-width:1.3;stroke-miterlimit:10;}
	.st201{fill:#202345;}
	.st202{fill:#FABFBF;}
	.st203{fill:#FFFFFF;stroke:#1D1115;stroke-width:1.3;stroke-linecap:round;stroke-linejoin:round;stroke-miterlimit:10;}
	.st204{fill:#593E29;}
	.st205{fill:none;stroke:#212226;stroke-width:1.3;stroke-linecap:round;stroke-linejoin:round;stroke-miterlimit:10;}
	.st206{fill:#231815;stroke:#1D1115;stroke-width:1.3;stroke-linecap:round;stroke-linejoin:round;stroke-miterlimit:10;}
	.st207{fill:#DECEC5;stroke:#1D1115;stroke-width:2.253;stroke-miterlimit:10;}
	.st208{fill:#F5E4D5;stroke:#1D1115;stroke-width:2.253;stroke-miterlimit:10;}
	.st209{fill:#E0A377;stroke:#1D1115;stroke-width:2.253;stroke-miterlimit:10;}
	.st210{fill:none;stroke:#212226;stroke-width:0.9963;stroke-linecap:round;stroke-linejoin:round;stroke-miterlimit:10;}
	.st211{fill:#DECEC5;stroke:#1D1115;stroke-width:1.3;stroke-miterlimit:10;}
	.st212{fill:#F5E4D5;stroke:#1D1115;stroke-width:1.3;stroke-miterlimit:10;}
	.st213{fill:#E0A377;stroke:#1D1115;stroke-width:1.3;stroke-miterlimit:10;}
	.st214{fill:#FFFFFF;stroke:#1D1115;stroke-width:1.1;stroke-linecap:round;stroke-linejoin:round;stroke-miterlimit:10;}
	.st215{fill:none;stroke:#212226;stroke-width:1.1;stroke-linecap:round;stroke-linejoin:round;stroke-miterlimit:10;}
	.st216{fill:#231815;stroke:#1D1115;stroke-width:1.1;stroke-linecap:round;stroke-linejoin:round;stroke-miterlimit:10;}
	.st217{fill:none;stroke:#1D1115;stroke-width:1.1;stroke-linecap:round;stroke-linejoin:round;stroke-miterlimit:10;}
	.st218{fill:#DECEC5;stroke:#1D1115;stroke-width:1.1;stroke-miterlimit:10;}
	.st219{fill:#F5E4D5;stroke:#1D1115;stroke-width:1.1;stroke-miterlimit:10;}
	.st220{fill:#E0A377;stroke:#1D1115;stroke-width:1.1;stroke-miterlimit:10;}
	.st221{fill:#686868;}
	.st222{fill:#A3A3A3;}
	.st223{fill:#BB7059;}
	.st224{fill:#FDDFD7;}
	.st225{fill:#A38C6A;}
	.st226{fill:#3E3E3E;stroke:#1D1115;stroke-width:1.1;stroke-linecap:round;stroke-linejoin:round;stroke-miterlimit:10;}
	.st227{fill:#1D1115;stroke:#1D1115;stroke-width:1.1;stroke-linecap:round;stroke-linejoin:round;stroke-miterlimit:10;}
	.st228{fill:#595B5A;stroke:#1D1115;stroke-width:1.1;stroke-linecap:round;stroke-linejoin:round;stroke-miterlimit:10;}
	.st229{fill:#3D3D3D;stroke:#1D1115;stroke-width:1.1;stroke-linecap:round;stroke-linejoin:round;stroke-miterlimit:10;}
	.st230{fill:#FFFFFF;stroke:#1D1115;stroke-linecap:round;stroke-linejoin:round;stroke-miterlimit:10;}
</style>
<path class="st203" d="M361,122.5c0,0,3.5-9.4-7.5-11.2c0,0,2.2-12.2-11.2-13.3c0,0-1.2-9-11-7c0,0-2.2-8.3-10.7-5.3
	c0,0-5.4-6.4-11.1,0.7c-5.7,7.2-2.8,13.1-0.5,13.8c0,0-9.4,1-6.8,11.2c0,0-9.2-4-12.5,6.9c0,0-15.3-1.8-9,16s24.8,8.9,24.8,8.9
	s-3.8,11.7,8.6,15.1c0,0-3.7,9.8,7.5,12.2c0,0,3,7.7,13,1.7c0,0,14.8,9.9,25.3-4.7c0,0,23.6,8.1,38.4-6.5c0,0,20.2,4.9,25.1-9.7
	c0,0,8.1-8.2,1.7-13c0,0-6.2-16.8-22.7-12.9c0,0-0.6-5.9-10.2-7c-9.7-1.1-13.9,1.8-13.9,2.8C377.9,122.1,373.4,114.4,361,122.5z"/>
<path class="st203" d="M133.1,151.2c0,0,2.2,9.8,12.4,5.2c0,0,4.8,11.4,16.6,5c0,0,5.9,6.9,13.1-0.1c0,0,6.4,5.7,11.8-1.4
	c0,0,8,2.4,8.9-6.7c0.9-9.1-4.8-12.5-7.1-11.8c0,0,7.3-6-0.4-13.1c0,0,9.9-1.6,6.7-12.6c0,0,13.8-6.9-1.2-18.3
	c-15-11.4-25.6,6.1-25.6,6.1s-3.3-11.9-15.4-8c0,0-2.3-10.2-12.9-6.1c0,0-6.7-4.8-11.8,5.7c0,0-17.8-0.2-18.6,17.8
	c0,0-24.2,6.1-28.5,26.4c0,0-19.6,7-15.7,21.9c0,0-2.3,11.3,5.7,11.8c0,0,14.3,10.7,26-1.6c0,0,3.7,4.6,12.4,0.3s10.6-9.1,10.1-9.9
	C119.1,160.7,127.1,164.7,133.1,151.2z"/>
<path class="st203" d="M231.4,163.6c0,0-3.1,9.5,8,10.9c0,0-1.7,12.2,11.7,12.8c0,0,1.6,8.9,11.3,6.6c0,0,2.5,8.2,10.9,4.9
	c0,0,5.6,6.2,11.1-1.2c5.4-7.4,2.3-13.2,0-13.8c0,0,9.3-1.4,6.4-11.5c0,0,9.3,3.7,12.2-7.4c0,0,15.4,1.2,8.4-16.3
	c-7-17.5-25.1-8-25.1-8s3.3-11.9-9.1-14.8c0,0,3.3-9.9-8-11.9c0,0-3.3-7.6-13-1.2c0,0-15.2-9.3-25.1,5.6c0,0-23.9-7.2-38.1,8
	c0,0-20.4-4.1-24.7,10.7c0,0-7.8,8.6-1.2,13c0,0,6.8,16.5,23.1,12.1c0,0,0.8,5.8,10.5,6.6c9.7,0.8,13.8-2.3,13.8-3.3
	C214.5,164.6,219.4,172.1,231.4,163.6z"/>
<path class="st203" d="M426.4,137.1c0,0-3.1,9.5,8,10.9c0,0-1.7,12.2,11.7,12.8c0,0,1.6,8.9,11.3,6.6c0,0,2.5,8.2,10.9,4.9
	c0,0,5.6,6.2,11.1-1.2c5.4-7.4,2.3-13.2,0-13.8c0,0,9.3-1.4,6.4-11.5c0,0,9.3,3.7,12.2-7.4c0,0,15.4,1.2,8.4-16.3s-25.1-8-25.1-8
	s3.3-11.9-9.1-14.8c0,0,3.3-9.9-8-11.9c0,0-3.3-7.6-13-1.2c0,0-15.2-9.3-25.1,5.6c0,0-23.9-7.2-38.1,8c0,0-20.4-4.1-24.7,10.7
	c0,0-7.8,8.6-1.2,13c0,0,6.8,16.5,23.1,12.1c0,0,0.8,5.8,10.5,6.6c9.7,0.8,13.8-2.3,13.8-3.3S414.3,145.7,426.4,137.1z"/>
<path class="st203" d="M103.2,143c0,0,8.5-5.3,0.9-13.5c0,0,9.2-8.3-0.7-17.3c0,0,4.5-7.9-4.4-12.3c0,0,3.3-7.9-5.2-10.7
	c0,0-0.3-8.4-9.3-6.2c-8.9,2.2-10.3,8.7-8.8,10.6c0,0-8-4.9-12.3,4.7c0,0-4.8-8.8-14.1-2.2c0,0-11-10.7-16.9,7.2
	s14.1,22.2,14.1,22.2s-10.1,7-2.5,17.2c0,0-8.9,5.5-1.5,14.2c0,0-2.3,7.9,9.3,9.2c0,0,5.7,16.9,22.9,11.7c0,0,13.7,20.8,34.3,18.3
	c0,0,13.1,16.2,25.8,7.6c0,0,11.4-1.6,9.2-9.3c0,0,5.4-17-10-24.1c0,0,3.1-5-3.8-11.8c-7-6.8-12.1-7.1-12.7-6.3
	C116.8,153.1,118,144.1,103.2,143z"/>
<g>
	<g>
		<path class="st202" d="M445.9,62.3c0,0,6.9-2.8,8.8-1.3s3.8,5.4,0.9,7.8c-2.9,2.3-10.4,5.9-12.4,5.1S445.9,62.3,445.9,62.3z"/>
		<path class="st202" d="M440.4,73.6c0,0,1.7,0.5,9.8,8.5c0,0,8.9,1.3,9.2,1.2c0.4-0.2-3.2,2.7-3.8,3.3c-0.5,0.6-5.1,5.4-0.6,13.5
			s12.2,10.3,12.2,10.3l-21.6,0.9l-14-29.6L440.4,73.6z"/>
		<path class="st202" d="M436.1,27.3c2.9,2.3,4.9,9.8,4.6,14.3s-1.3,12-2,15.2c-0.7,3.3-4.1,14.2,3.7,17.5
			c1.2,0.5-0.8,13.6-0.8,13.6s3.2,0.1,4.8,5.3c1.5,5.2,3.8,9.6,19.3,16.9c0,0,10.1,4.4,6.7,23.4c0,0,13.3,20.8,22.7,24.8
			c9.4,4-19.6,24.7-19.6,24.7l-150.7-20.3l4.7-28c0,0,17.8,4,21.5,4.3c3.7,0.3,16.1-1.7,24.8-9.6s29-18.1,30.3-18.6
			c1.3-0.5,11.2-5.1,28-1.1c0,0,1.1-17-10.2-20.4l-5.8-1.8l-6.7-2.4l-1.8-1.9c0,0,1.1-3.3,1.5-4.4c0.1-0.2,0.1-0.3,0.1-0.5
			c0.4-2,3-15.7,4.4-14.5l-2.9-3.3c0,0-1.6-5.3,3.1-6c4.7-0.7,5.3-3.5,5.3-3.5l1.5-7.7l1.1-4.8C423.5,38.5,433.2,25,436.1,27.3z"/>
		<path class="st202" d="M445.5,70.4l-6,7.8l8.3,2.3c0,0-0.2-7.1,2.3-8.2c2.5-1.1-3.9-2.7-3.9-2.7L445.5,70.4z"/>
		<path class="st204" d="M415.7,54.5c0,0-1.8-2.9-1.4-7.4s0.9-11.3,5.8-15.3c4.9-4,15.2-10.2,22.1-11.1c0,0,11-3.8,19.1-1.3
			s14.7,7,18.2,12.1l4.7,7.3c0,0,3.8-5.2,8.2-3.7c4.3,1.5,10.3,5.8,10.3,6.4c0,0.6,3.1,5.4,2.4,7.5c-0.6,2-3,8.7-5.1,9.2
			c-2.2,0.5-4.7,3.4-10.3,0.1c0,0-3.2,10.1-5,12.1s-5.7,8-9,9.5c-3.2,1.5-12.4,4.1-17,3.2c-4.6-0.9-8-0.2-11.2-2.7
			c0,0-1.4-6.1,3-8.1c4.4-2,6.1-6.1,6.1-6.1l-0.4-3.3l-2.4-2.3c0,0-5.5,0.6-6.9,2.2c-1.4,1.6-3.9,9.5-3,10.4
			c0.9,0.9-0.7,2.1-2.1,1.2c-1.4-0.9-4.2-2.3-4.7-8.7c-0.4-6.3,2.2-12.1,2.2-12.1l1.4-16l-2.4-8.5l-3.2-2.1c0,0-4.9,2.5-7.1,4.9
			s-5.4,8.4-5.4,8.4l-1.2,9.4l-3,3.7L415.7,54.5z"/>
		<path class="st205" d="M415.3,53.4c0,0-6.6-18.7,14.4-28.1"/>
		<path class="st205" d="M433.5,25.8c0,0,12.4,2.4,4.7,33.2c-3.7,14.5,4.3,15.3,4.3,15.3"/>
		<path class="st205" d="M431.2,29.7c0,0-9.4,5-9.5,17.9c0,7.9-8.6,5.7-9.5,9.7c-0.9,4,3.2,6.6,3.2,6.6"/>
		<path class="st205" d="M411.7,74.4c0,0-0.2,4.1-1.5,5.8c-1.4,1.8-0.9,6.2,8.3,7.3c9.2,1.2,17,11.8,15.5,22.2"/>
		<path class="st205" d="M412.4,68.5c0,0,4.1,5.4,12.2,4.1"/>
		<path class="st205" d="M424.8,108.6c0,0-15.2-5.2-42.4,15.8s-33.1,13.6-33.1,13.6"/>
		<path class="st205" d="M424.4,42.4c0,0,6.5-0.1,8.2,5.5"/>
		<path class="st205" d="M426,49.3c0,0,5.2,1.9,5.2,6.6"/>
		<g>
			
				<ellipse transform="matrix(0.1241 -0.9923 0.9923 0.1241 319.7118 470.9981)" class="st206" cx="426.6" cy="54.4" rx="2.3" ry="1.4"/>
		</g>
		<path class="st210" d="M439.3,21.9c0,0,31.1-15.9,47.6,22.6c5.6,13.1,0.6,19.9,0.6,19.9"/>
		<path class="st210" d="M443.7,25.1c0,0,6.5-2.6,11-0.3"/>
		<path class="st210" d="M445.8,29c0,0,6.6,0,13.1,4.7c6.5,4.8,14.5,3.4,14.5,3.4"/>
		<path class="st210" d="M450.9,36.4c0,0,6.2,16,26.7,16.9"/>
		<path class="st210" d="M451.7,48.8c0,0,2.9,12.6,14.5,18"/>
		<path class="st205" d="M449,62.1c0,0,4.6-3.4,7.3,0.8c2.7,4.2-5.5,11.3-11.2,10.8"/>
		<path class="st210" d="M455.9,82.7c0,0,22.4,5.2,30.1-15"/>
		<path class="st210" d="M447.8,80.5c0,0,1.8,1.5,5,1.8"/>
		<path class="st210" d="M457.9,84.9c0,0-5.6,3.6-4.8,8c1,6.1,1.5,10.5,8,14c7.9,4.3,10.9,9.3,11.7,15.2"/>
		<path class="st210" d="M485.5,37.3c0,0,3.9-3.9,8.9-1.5c4.9,2.4,14.3,8.1,9,18.2c-5.3,10.1-13.8,4.2-13.8,4.2"/>
		<path class="st210" d="M488.1,42.7c2.5-0.1,6.2-0.5,8.1,1"/>
		<path class="st210" d="M490.6,55.6c0,0,3.7,1.5,5.5,0.2"/>
		<path class="st210" d="M488.6,49.3c0,0,5.8-1.2,9.1-0.2"/>
	</g>
	<g>
		<path class="st202" d="M50.3,88.3c0,0-6.5-12.7-14-9.1c0,0-2.5,0.9-2.4,3.5c0,0-3.8,2.4-1.6,6.4c0,0-1.2,2.9-0.5,4.3
			c0.7,1.5-0.4,5,0.8,8.4c1.2,3.4,4.3,11.5,6.3,13.6c2.1,2.1,8.4,6.1,8.4,6.1l3.4,5.1c0,0,5.4,14.7,11.3,19.3c0,0,6.1,10.2,17.3,2.2
			c0,0,6.9-6.2,10.7-5c3.8,1.2,32.6,8.8,38.1,9.8s39.8,5.7,47.1,2.7c7.3-3,6.9-32.8,6.9-32.8s-30.1-2.2-48.9-7.1
			c-18.9-5-21.9-7.6-32.8-14.3S75.9,86.2,71.9,81.8c-4-4.4-5.7-8.2-5.7-8.2s-4.2-9-8.9-6.9l-0.9,1.9c0,0-2.7,0.1-2.4,6.3
			c0.3,6.1,1.6,9.1,1.6,9.1l3,10.2l4.6,7.8l6,4.3c0,0,5.8,7.9,5.9,10.2c0.1,2.4-4.6-3.2-4.6-3.2l-9-9.6L51.3,90L50.3,88.3z"/>
		<g>
			<path class="st39" d="M85.9,122.9c0,0-10.2,0.6-32.2-28.9c-3.6-4.8-6.3-14.2-14.7-15.8c-5-1,0.4,2.9,4.4,8.5"/>
			<path class="st39" d="M41.5,90.7c0,0-4.7-7.7-6.8-8.4c-2.1-0.7,0.4-3.9,2.7-3"/>
			<path class="st39" d="M39.7,95c0,0-1.3-6.5-3.9-6.7s-5.2,1.2-4.1,5"/>
			<path class="st39" d="M33.8,82.6c0,0-3.9,1.8-2,5.4"/>
			<path class="st39" d="M33.1,95.7c0,0,7.6-1.5,6.2,5.2"/>
			<path class="st39" d="M32.2,99c0,0,2.4,16.1,11.5,20.2c9.1,4.1,5.9,12,15.3,23.4c8,9.7,13,12.6,24.1,2.3"/>
			<path class="st39" d="M88.1,142.5c0,0,73.5,25.2,101.4,8.3c15.5-9.4,16.4-3.1,16.4-3.1"/>
			<path class="st39" d="M91,123.5c0,0,49,10.5,64,7.9c15-2.6,49.1,4.4,53.8,6"/>
			<path class="st39" d="M105.8,104.7c0,0-36.4-20.1-39.2-29.7c-2.7-9.6-9.8-8.6-9.8-7.7"/>
			<path class="st39" d="M54.8,70c0,0,3.5-4.7,5.2,1.8"/>
			<path class="st39" d="M54.6,77c0,0-2.6-7,3.5-4.9c3.1,1,2.5,4.9,2.5,4.9"/>
			<path class="st39" d="M63.9,86.3c0,0-1.8-0.7-1.8-7.2c0-3.6-8.6-3.6-7.6,0.4c1.4,5.7,2.8,11.8,3.6,13.7c3.5,8.5,5,9.4,11.1,13.1
				c2.8,1.7,5.9,10.2,5.9,10.2"/>
			<path class="st39" d="M114.1,129.9c0,0,23.5,0.7,44.8,9.8s37.1,3.8,37.1,3.8"/>
			<path class="st39" d="M108.9,106.8c0,0,28.9,14.4,75.6,16.1"/>
		</g>
	</g>
	<g>
		<path class="st211" d="M503.3,137.8h-473c-4.2,0-7.6-3.4-7.6-7.6v0c0-4.2,3.4-7.6,7.6-7.6h473c4.2,0,7.6,3.4,7.6,7.6v0
			C510.8,134.4,507.4,137.8,503.3,137.8z"/>
		<path class="st212" d="M400.7,264.8h-263c-56,0-101.4-45.4-101.4-101.4v-25.6h465.9v25.6C502.1,219.4,456.7,264.8,400.7,264.8z"/>
		<path class="st213" d="M410.5,261.5c-4.1-3.9-3.8-9.6-0.3-13.9c4-4.7,11.3-10,22.8-5c14.2,6.1-2.3,34.4,14.6,41.4
			c11.1,4.6-2.1,5.3-7.5,5c-5.4-0.3-13.1-19.1-19.3-21.7C417.1,265.8,413.3,264.2,410.5,261.5z"/>
		<path class="st213" d="M129.8,261.5c4.1-3.9,3.8-9.6,0.3-13.9c-4-4.7-11.3-10-22.8-5c-14.2,6.1,2.3,34.4-14.6,41.4
			c-11.1,4.6,2.1,5.3,7.5,5c5.4-0.3,13.1-19.1,19.3-21.7C123.1,265.8,127,264.2,129.8,261.5z"/>
	</g>
</g>
<circle class="st230" cx="361.5" cy="60.1" r="4.2"/>
<circle class="st230" cx="505.2" cy="95.5" r="4.2"/>
<circle class="st230" cx="367.8" cy="80.5" r="2.1"/>
<circle class="st230" cx="212.5" cy="97.2" r="2.1"/>
<circle class="st230" cx="120.4" cy="80.5" r="2.1"/>
<circle class="st230" cx="102.7" cy="75.3" r="3.1"/>
</svg>
