<?xml version="1.0" encoding="utf-8"?>
<!-- Generator: Adobe Illustrator 24.3.0, SVG Export Plug-In . SVG Version: 6.00 Build 0)  -->
<svg version="1.1" id="圖層_1" xmlns="http://www.w3.org/2000/svg" xmlns:xlink="http://www.w3.org/1999/xlink" x="0px" y="0px"
	 viewBox="0 0 113.1 161.5" style="enable-background:new 0 0 113.1 161.5;" xml:space="preserve">
<style type="text/css">
	.st0{fill:#4B8092;}
	.st1{fill:#FFFFFF;}
	.st2{fill:#686868;}
	.st3{fill:#A3A3A3;}
	.st4{fill:#BB7059;}
	.st5{fill:#FDDFD7;}
	.st6{fill:#A38C6A;}
	.st7{fill:none;stroke:#1D1115;stroke-width:1.1;stroke-linecap:round;stroke-linejoin:round;stroke-miterlimit:10;}
	.st8{fill:#3E3E3E;stroke:#1D1115;stroke-width:1.1;stroke-linecap:round;stroke-linejoin:round;stroke-miterlimit:10;}
	.st9{fill:#FFFFFF;stroke:#1D1115;stroke-width:1.1;stroke-linecap:round;stroke-linejoin:round;stroke-miterlimit:10;}
	.st10{fill:#1D1115;stroke:#1D1115;stroke-width:1.1;stroke-linecap:round;stroke-linejoin:round;stroke-miterlimit:10;}
	.st11{fill:#595B5A;stroke:#1D1115;stroke-width:1.1;stroke-linecap:round;stroke-linejoin:round;stroke-miterlimit:10;}
	.st12{fill:#3D3D3D;stroke:#1D1115;stroke-width:1.1;stroke-linecap:round;stroke-linejoin:round;stroke-miterlimit:10;}
</style>
<g>
	<path class="st0" d="M48.8,69l-1-8.6L30.7,65c0,0-8.3,2.6-10.7,5s-4.4,5.1-5.8,8.1s-2.9,10.4-2.9,10.4s-2,12.4-2.7,14.2
		c-0.7,1.8-2.3,4.1-2.5,4.5S2.8,113,4.5,118c0,0-1.1,0-1.4,5.8s0.8,11.6,1.7,13.4s2.5,5.8,7.9,5.5c0,0,5.5,0.2,8.6-5.8v-0.5l2-0.6
		c0,0,1.7,1.9,1.5,3s-1,2.9-1.5,4.3s-2.7,9.4-2.6,13.6h70.8l-1.2-5.9c0,0,4.1,1.8,6.1,1.1s3.4-1.7,4.1-2.4s3.8-4,4.2-5.5
		s2.9-4.7,2.8-7.9s0.8-5.3-0.8-8.8c0,0-1.2-1.4,1-4.5c0,0,1.5-2.1,1.1-4c0,0-1.2-3.5-1.2-7.7c0,0,0.9-7.6,2.1-13.6
		c0,0,0.9-13.7-1-17.1c0,0-0.2-2-2.8-4.3s-8.6-4.5-11.1-6.7s-9.9-6-9.9-6L48.8,69z"/>
	<path class="st1" d="M43.3,87.3c0,0-1.4-1.5,0.8-3.9h8.2l0.2-1.6l0.4-0.5L73.2,81l0.6,0.8l0.1,0.9l2.8,0.3h1.7l0.2,0.6v2l-3.1,0.3
		L75,86.4l-0.2,1h-4.6l0.5-0.6l0.2-1l-0.6-0.6l-1,0.2L69,85.8l-1-0.6l-1.4-0.7h-1.8l-3.1,0.7l-2,1.5L59.2,87l-11,0.2l-1-0.6
		l-2.8,0.2L43.3,87.3z"/>
	<path class="st2" d="M59.3,87l-11,0.2l0.9,1.2l0.7,2.7l0.1,0.4l1.7,1.9l1.5,3.6l0.2,1.2l20.3,0.1v-1.8c0,0-1-0.1-1.4-0.6
		s-0.5-1.4-0.5-1.4l1.3-1.7l1.7-1.3l-0.1-4.3l0.1,0.2h-4l-0.1-0.7L70,87.3L59.3,87z"/>
	<path class="st3" d="M44.4,83.1c0,0,1.1-2.3,5.9-2.3l1.4,0.2v2.5l-7.6-0.1L44.4,83.1z"/>
	<path class="st4" d="M82,80.9c0,0,3.1-4.9,2.5-10.6l0.2-0.9l1.7,0.3c0,0-0.3,11.5-2.5,12.2L82,80.9z"/>
	<polygon class="st4" points="40.8,61.4 36.5,66 30.5,72 27.3,76.2 25.3,80.6 24.7,84.4 25,86.9 26.1,90.6 27.9,93.9 30.2,96.5 
		32.8,98.1 33.2,98.3 33.2,100.2 31.2,99.3 27.8,96.2 24.5,91.5 23.4,88.8 22.7,85.6 23,81.6 24.2,77.8 26,74.6 28.2,71.8 
		32.1,67.9 36.9,63.4 40.4,60 41.1,61 	"/>
	<path class="st4" d="M74.8,91.2c0,0-0.7-5.4,1.2-5.6l4.9,0.5l0.1,2.2c0,0-3.3,1-4.1,1.6C76.2,90.4,74.8,91.2,74.8,91.2z"/>
	<path class="st4" d="M47.2,94.7c0,0,1.3,0.6,2.4,1.9c0,0,1.7,2.6,3.9,1.6l20.3,0.1v-1.8c0,0,2.4-1.2,2.7-1.5
		c0.3-0.3,1.9-2.3,3.6-2.1H81l-2.1,1.8l-3.4,3.5l-1.9,3.8H49.2l-0.1-1.5L47.8,97L47.2,94.7z"/>
	<path class="st4" d="M42.8,88.2c0,0,0.5-1.9,3.8-1.6c0,0,2.6-0.3,3.3,4.5l-2.7-2.3L46.3,88L42.8,88.2z"/>
	<path class="st5" d="M77.3,82.7c0,0-2.5-2,1.5-2.3c0,0,3.1,0,4.2,1.2c1.1,1.1,2.4,1.2,2.5,2.8c0.1,1.6,0,6.7,0,6.7l1.3,1.4
		c0,0,2,0.8,2.1,1.5s0.2,1.2,0.2,1.2s0.9,0.4,1.2,1.1c0.3,0.7,0.4,1.6,0.4,1.6s0.8,0.8,0.8,1.3s-0.6,2.6-0.6,2.6l-3.8,6.8
		c0,0-0.8,1.2-0.8,1.6s0.8,1.3,0.8,2s1.1,5.2-1,7s-4.2,2.2-7.1,0.6l-1.1-0.7c0,0-2-6.2-2.1-7.2c-0.1-1.1-3.8-4.7-3.8-4.7
		s-2.5-4.3-2.3-5.1h3.9l1.9-3.8l5.3-5.3c0,0-2.2,0.2-2.5,0.5s-3.2,3.2-4.1,3.2c-1,0-1.9-0.7-1.9-0.7L72,94.7c0,0,4.2-4.7,5.7-5
		s2.1-1.1,3.3-1c0,0,0-1,0-1.7s0.6-1.8,0.6-1.8L80.3,84L80,83.4L77.3,82.7z"/>
	<path class="st5" d="M38.8,84.1c0,0,1.2-5,7.2-6.2c0,0,3.9-0.3,4.5,0.2s-1.3,3.1-5.4,3.2c0,0-2.3,3.2-2.1,5.1c0.2,1.8,0.2,1,0.2,1
		l-0.5,0.9c0,0,2.9-1,3.6-0.3l5.2,5.1l1.5,3.1l0.6,1.9c0,0-1.1,0.7-2.1,0.2c-0.9-0.5-3.7-3.6-4.2-3.7l0.1,1.2c0,0,1.7,4,1.7,5.1
		s0,1,0,1H51c0,0-1.5,4.5-2.8,5.2c0,0-7.1,6-7.3,6.3l-3,3.5c0,0-6.7,0.1-8.4-4.2c0,0-0.8-3,2.5-4c0,0,1.7,0.5,1.5-6.7
		c0,0-0.7-8.1,0.5-10.6l3.6-1.3C37.6,90.2,37.1,87.5,38.8,84.1z"/>
	<path class="st5" d="M56.5,8.7c0,0-11.1,10.3-12.4,18.4L43.9,29c0,0,0.6,6.4,1.3,8c0,0,0.8,11.4,2.6,13.5c0,0,2.7,5.5,5.6,6.4
		c0,0,1,8.4-4.4,7l-0.7,3.4c0,0,0.6,9.8,9.3,13.9L72,81c0,0,8.2-6.1,7.2-16.1c0,0-7.5-0.6-3.7-17.5c0,0,0.4-8.6-3.5-14.3
		C68.2,27.4,57.7,8.2,57.7,8.2L56.5,8.7z"/>
	<path class="st6" d="M55.4,10.5c0,0-10.3,11.4-10.9,15s-0.6,6.8,0.2,9s0.6,3.1,0.6,3.1s0.3,7.5,1.4,9.3c1,1.8,0.5,3.1,2,5.3
		s3.6,4.4,4.8,4.7c0,0,1.2,8.1-4.4,7c0,0,0,6.9-5.6,7.2c0,0,1-1.3,1.2-1.8s0.9-2.3-0.1-3.4s-3.9-5.5-3.9-5.5s-3.9-4.2-2.4-9.9
		c1.6-5.7,2.7-10.9,2.7-10.9s1.6-3.3,0.3-5.7s-2.6-4.7-2.5-6.9s-0.5-8.5,4.6-14.2s14.3-8.2,18.9-8.6c4.6-0.4,14.4,1.5,18.6,8.2
		c0,0,6.1,8.1,5.7,22.2c0,0-0.7,7,2.7,12c0,0,2.7,4.7,2.2,11L91,61.2c0,0-2.2,4.9-2.7,5.9s0.2,4,0.2,4s-4.2-0.4-7-2.2
		c0,0-1.1-0.6-1.6-3.5c0,0-2.5-0.9-4.1-3.5c0,0-2.7-4.7-0.1-14.6c0,0-0.5-7-1.2-8.9s-2.4-6-4.7-7.9c-2.3-1.9-7-5-10.9-18.1
		c0,0-1.4-1.9-2.2-2C56.1,10.5,55.4,10.5,55.4,10.5z"/>
	<g>
		<path class="st7" d="M56.5,5.2c0,0-12,2.3-16.3,12.3S41.4,34,41.4,34"/>
		<path class="st7" d="M58.4,4.7c0,0,10.8-2.9,18.7,3.7s9.3,16.8,9.4,28.2s4.5,7.3,4.9,18.7s-4.5,7.7-3,15.8"/>
		<path class="st7" d="M79.6,47.4c0,0,3.1,3.3,0.7,12.5s2.6,9.9,2.6,9.9"/>
		<path class="st7" d="M75.5,47.4c0,0-4.2,14.5,3.3,17.5"/>
		<path class="st7" d="M48.1,14.5c0,0-10.9,7-4,24.4"/>
		<path class="st7" d="M41.8,36.4c0,0-3.9,13-3.9,16.9c0,5.9,7.1,11,7.1,13.9S42.8,72,41.5,72"/>
		<path class="st7" d="M42.7,47.4c0,0-1.2,4.9,3.4,9.8s2.6,12,0,12.9"/>
		<path class="st7" d="M53.4,56.9c0,0,1.3,8.2-4.6,6.9"/>
		<path class="st7" d="M55.4,10.5c0,0-10.3,8.8-5.7,19"/>
		<path class="st7" d="M56.5,10.5c0,0-3,15.5,4.9,19"/>
		<path class="st7" d="M58.7,12.5c0,0,3.8,12.7,9.2,16.6s7.4,10.4,7.1,14.2"/>
		<path class="st7" d="M45.7,23c0,0-2.1,3.1-1.8,6.8s1.4,6.7,1.4,7.8S46,54.8,54,56.9s15.9-3.7,18-5.6"/>
		<path class="st7" d="M45.7,27.9c0,0,3.2-2.4,6.9-0.4"/>
		<path class="st7" d="M59.9,27.3c0,0,5.5-2.8,8.8,0.6"/>
		<path class="st7" d="M60.4,33.1c0,0,3.8-3.5,8.1,0"/>
		<path class="st7" d="M46.2,33.1c0,0,3.8-2.8,7,0.4"/>
		<path class="st7" d="M55.4,31.9c0,0,0.9,2.1,0,3.6s-3.2,4.8-2.3,6.1s1.6,1.6,1.6,1.6"/>
		<path class="st7" d="M52,46.9c0,0,5,3.1,11.4-0.5"/>
		<path class="st7" d="M48.8,69c0,0,0.7,8.2,8.6,12"/>
		<path class="st7" d="M72.4,80.5c0,0,6.8-5.7,6.8-12.2"/>
		<path class="st7" d="M36.9,63.3c0,0-12.6,3-15,5.7"/>
		<path class="st7" d="M20.3,69.8c0,0-6.1,4.2-8.3,14.7s-2.3,18.1-5.4,21.8c-3.1,3.7-3,10.6-2.2,11.7"/>
		<path class="st7" d="M3.4,119.9c0,0-3.1,22.5,8.8,22.8c6.4,0.2,9.1-5.8,9.1-5.8"/>
		<path class="st7" d="M5.2,120.5c0,0,3.4-2.1,6-1.9"/>
		<path class="st7" d="M6.5,124.4c0,0,3-7.2,11.1-7.4c8.1-0.2,8.8-8.8,13.1-7.3"/>
		<path class="st7" d="M25.8,95.5c0,0,3.8,10.4-0.7,17.7"/>
		<path class="st7" d="M16.8,107.9c0,0-1.5,1.6,0.7,3.3c2.2,1.6,4.6,4,4.6,4"/>
		<path class="st7" d="M23.6,114.7c0,0-1,2.2,0.3,3.4"/>
		<path class="st7" d="M31.6,124c0,0,2.6,0.2,3.2-0.5"/>
		<path class="st7" d="M39.6,115.2c0,0,0.3,2.3-1.3,3.4s-4,5.4-4.7,6.2s-5.4,8.8-8.5,10.3s-7.8,2-9.9,3.8"/>
		<path class="st7" d="M23.9,137.1c0,0,1.7,0.8,0,4.4c-1.7,3.6-3.8,10.6-3.6,13.7"/>
		<path class="st7" d="M22,71.2c0,0,2.2,3.4,2.3,5.4"/>
		<path class="st7" d="M89.8,66.1c0,0,7.8,5.5,13.4,8.2c3.5,1.7,5.1,4.7,5.1,4.7"/>
		<path class="st7" d="M108.7,80.5c0,0,2.9,10.5,0,23s0.7,13,0,16.7s-2.2,3.4-2.2,5.1"/>
		<path class="st7" d="M106.5,80.5c0,0-10.1,3.4-12.9,18.1s-3.5,15.9-3.5,15.9"/>
		<path class="st7" d="M104,107.8c0,0-4.4,11.9-9.3,13.4"/>
		<path class="st7" d="M104,126.8c0,0-2.2,1.2-5,0"/>
		<path class="st7" d="M87.5,112.2c0,0,2.8,0.1,2.7,3.4c-0.1,3.3,1.2,2.6,1.4,4.7c0.3,2.1-0.9,3.4-0.9,3.4"/>
		<path class="st7" d="M101.5,133.8c0,0,3.2-4-3.7-7.9c-2.5-1.4,0.4-2.5-6.2-5.6"/>
		<path class="st7" d="M76.8,117c0,0-0.8,1.7,0.6,3.3s1.2,4.5,1.3,5.7s5.6,16.2,5.7,16.7c0.1,0.6,0.7,4.4,1.9,5.8
			c1.2,1.4,6.9,4.7,11.3,3.1c4.4-1.6,13.2-13.6,9.2-24.3"/>
		<path class="st7" d="M79,125.1c0,0,0.4,1.8,2.7,1.9"/>
		<path class="st7" d="M69.9,102.5c0,0,0.6,3.2,3.1,5.6c2.6,2.4,2.8,3.6,2.8,3.6s1.6,7,2.2,7.4c0.7,0.4,6.9,4.2,9-2.2
			c0.8-2.5-0.4-5.9-0.4-5.9"/>
		<path class="st7" d="M87.5,92.6c0,0,1.5,0.9,1.5,2.5c0,0,1.5,0.7,1.5,2.2c0,1,1.1,1,0.9,2.8c-0.3,1.9-5.2,9.4-5.1,9.9"/>
		<path class="st7" d="M86.3,91.8c0,0-2.9-3.8-6.4-3.2c-3.4,0.6-8.2,5.7-8.1,6.1c0.1,0.5,0.8,3.1,3.8,1s1.6-2.8,5.4-2.9"/>
		<path class="st7" d="M82.6,93c0,0,2.7,0.1,4,1.2"/>
		<path class="st7" d="M80.2,93.4c0,0-4.7,4.2-5,5.2c-0.4,1-1.7,3.7-2,4s0.4,2.2,2.6,1.3s2.5-3.7,3.2-4.1c0.7-0.3,0.9-0.3,0.9-0.3"
			/>
		<path class="st7" d="M89,96.5c0,0-2.6-2.3-4.4-1.8s-4.1,3.7-4.4,4.3c-0.3,0.5-0.2,3.4-0.3,3.7c-0.1,0.3,0.4,2.2,2.2,0.6
			c1.8-1.7,0-2.4,2.5-3.4c1.2-0.5,1.7-1.7,1.7-1.7"/>
		<path class="st7" d="M85.5,99.6c0,0,2.7,0.2,3.1-0.1"/>
		<path class="st7" d="M83.8,100.7c0,0,2,2,3.3,2"/>
		<path class="st7" d="M81.7,83.2c0,0-6.5,0.3-5-2.2c0.5-1,3.5-0.3,4.5-0.3s4.1,2.2,4.2,2.8"/>
		<path class="st7" d="M85.5,84.3c0,0,0.2,4.9,0,5.3"/>
		<path class="st7" d="M43.1,86.6c0,0-0.2-3,2.6-4.7"/>
		<path class="st7" d="M45.2,81.3c0,0,5.3-0.2,5.4-3.2c0,0-5.2-2-10,2.7"/>
		<path class="st7" d="M39.5,82.3c0,0-2.3,5.3-2.1,7.4"/>
		<path class="st7" d="M35,91.1c0,0,8.6-3.2,9.4-3.1"/>
		<path class="st7" d="M46.3,88c0,0,3.2,2.9,4.8,4.6c1.6,1.6,2.3,5.2,2.5,5.4c0.2,0.1-1.6,1.8-4.2-1.4c-1.6-2-2-1.9-2-1.9"/>
		<path class="st7" d="M37.4,92.1c0,0,8.9,0.1,9.3,1.1c0.3,1,1.7,5.5,2.4,7.2s-1.6,3.3-1.2,5.4c0,0-3.3,2.2-2.6-5"/>
		<path class="st7" d="M36.5,94.8c0,0,1.5-0.2,2.9,0.7c1.5,0.9,3.5-0.7,4.9,1.7c1,1.7,0.7,2.7,0.7,2.7"/>
		<path class="st7" d="M37.9,98.9c0,0,0.5,1.5,3.7,1.4c0.9,0,0.3,1.8,0,2.5s-1.4,1.9-0.5,2.7c0.9,0.8,2.2,0.3,3.5-1.7"/>
		<path class="st7" d="M39.9,100.5c0,0-0.3,2.8-1.9,3"/>
		<path class="st7" d="M33.9,91.5c0,0-0.7,1.5-0.7,4.7c-0.1,3.1,0.4,11.2-0.2,11.9"/>
		<path class="st7" d="M31.9,108.8c0,0-2.7,1-2.6,3.4s5.2,5.6,8.5,4.7l3-3.5"/>
		<path class="st7" d="M42.3,112c0,0,7.3-4.4,8.6-9.7"/>
		<path class="st7" d="M48.8,81c0,0,2.7-0.5,2.8,0s0,1.8,0,1.8"/>
		<path class="st7" d="M44.6,83.5h8c0,0-0.5-2.3,0.6-2.3s19.4-0.5,20-0.2c0.7,0.2,0.7,1.6,0.7,1.8c0,0.2,3.6,0,3.6,0"/>
		<line class="st7" x1="78.6" y1="83.5" x2="78.6" y2="85.3"/>
		<path class="st7" d="M80.2,83.7c0,0,0.9,1.1,1.3,1.2s-1.3,1.5-0.6,3.3"/>
		<path class="st7" d="M80.9,86.1c0,0-5.1-1.2-5.8-0.1c-0.7,1.1-0.3,5.5-0.3,5.5"/>
		<polyline class="st7" points="54.3,98.3 73.9,98.3 73.9,96.8 		"/>
		<line class="st7" x1="49.2" y1="101.9" x2="73.9" y2="101.9"/>
		<path class="st7" d="M42.8,88.2c0,0,0.1-1.9,4.4-1.5c2.4,0.2,2.8,4.8,2.8,4.8"/>
		<line class="st7" x1="48.6" y1="87" x2="59.2" y2="87"/>
		<line class="st7" x1="70.1" y1="87.3" x2="74.4" y2="87.3"/>
		<rect x="69" y="81.8" class="st8" width="4" height="2.3"/>
		<circle class="st9" cx="69.9" cy="86.1" r="1"/>
		<rect x="61.5" y="101.9" class="st7" width="5.9" height="1.1"/>
		<path class="st7" d="M40.8,61.4c0,0-3.4,3.8-8.4,8.7c-5.2,5.1-9.4,11.2-6.9,19s7.7,9.3,7.7,9.3"/>
		<path class="st7" d="M40,60.4c0,0-8.2,7.8-10.9,10.4c-5,4.9-9.6,13.6-3.6,22.4c4.4,6.6,7.6,7,7.6,7"/>
		<path class="st7" d="M82,80.9c0,0,2.7-2.7,2.5-10.4"/>
		<path class="st7" d="M86.1,70.9c0,0,0.5,7.7-2.3,11.1"/>
		<circle class="st10" cx="50.4" cy="34.1" r="1.4"/>
		<circle class="st10" cx="64.4" cy="33.4" r="1.4"/>
		<path class="st7" d="M79.9,112.6c0,0,1.4,1.4,4.3,0.6"/>
		<circle class="st9" cx="64.4" cy="90.7" r="6.3"/>
		<circle class="st11" cx="65.1" cy="89.5" r="5.2"/>
		<circle class="st12" cx="65.3" cy="89.4" r="1.7"/>
	</g>
	<path class="st7" d="M90.1,151.2c0,0,1,1.2,1.4,4.9"/>
</g>
</svg>
