<?xml version="1.0" encoding="utf-8"?>
<!-- Generator: Adobe Illustrator 24.3.0, SVG Export Plug-In . SVG Version: 6.00 Build 0)  -->
<svg version="1.1" id="圖層_1" xmlns="http://www.w3.org/2000/svg" xmlns:xlink="http://www.w3.org/1999/xlink" x="0px" y="0px"
	 viewBox="0 0 151.6 115.5" style="enable-background:new 0 0 151.6 115.5;" xml:space="preserve">
<style type="text/css">
	.st0{fill:#7D7F91;}
	.st1{fill:none;stroke:#575A6D;stroke-width:1.3;stroke-miterlimit:10;}
	.st2{fill:#F7F0EA;stroke:#575A6D;stroke-width:3;stroke-miterlimit:10;}
	.st3{opacity:0.4;fill:url(#SVGID_1_);}
	.st4{opacity:0.4;fill:url(#SVGID_2_);}
	.st5{fill:#FA5560;stroke:#FA5560;stroke-width:15;stroke-linecap:round;stroke-linejoin:round;stroke-miterlimit:10;}
	.st6{fill:#FEE48B;}
	.st7{fill:#FA5560;stroke:#FA5560;stroke-width:21.3573;stroke-linecap:round;stroke-linejoin:round;stroke-miterlimit:10;}
	.st8{clip-path:url(#SVGID_4_);}
	.st9{fill:#E2C179;}
	.st10{clip-path:url(#SVGID_6_);}
	.st11{clip-path:url(#SVGID_8_);}
	.st12{clip-path:url(#SVGID_10_);}
	.st13{clip-path:url(#SVGID_12_);}
	.st14{clip-path:url(#SVGID_14_);}
	.st15{clip-path:url(#SVGID_16_);}
	.st16{fill:#FA5560;stroke:#E4463B;stroke-width:23.0455;stroke-linecap:round;stroke-linejoin:round;stroke-miterlimit:10;}
	.st17{clip-path:url(#SVGID_18_);}
	.st18{clip-path:url(#SVGID_20_);}
	.st19{clip-path:url(#SVGID_22_);}
	.st20{clip-path:url(#SVGID_24_);}
	.st21{clip-path:url(#SVGID_26_);}
	.st22{clip-path:url(#SVGID_28_);}
	.st23{clip-path:url(#SVGID_30_);}
	.st24{fill:none;stroke:#575A6D;stroke-width:1.3;stroke-linecap:round;stroke-linejoin:round;stroke-miterlimit:10;}
	.st25{fill:none;stroke:#575A6D;stroke-width:1.6182;stroke-miterlimit:10;}
	.st26{fill:none;stroke:#575A6D;stroke-width:2;stroke-miterlimit:10;}
	.st27{fill:#575A6D;}
	.st28{fill:#575A6D;stroke:#575A6D;stroke-width:1.3;stroke-linecap:round;stroke-linejoin:round;stroke-miterlimit:10;}
	.st29{fill:none;}
	.st30{clip-path:url(#SVGID_32_);}
	.st31{fill:none;stroke:#575A6D;stroke-width:1.6344;stroke-miterlimit:10;}
	.st32{fill:#694C52;}
	.st33{clip-path:url(#SVGID_34_);}
	.st34{fill:none;stroke:#575A6D;stroke-width:0.7;stroke-linecap:round;stroke-linejoin:round;stroke-miterlimit:10;}
	.st35{fill:#FFFFFF;}
	.st36{fill:#E2E2E2;}
	.st37{fill:#F1C080;}
	.st38{fill:#F29B9A;}
	.st39{fill:none;stroke:#1D1115;stroke-width:1.3;stroke-linecap:round;stroke-linejoin:round;stroke-miterlimit:10;}
	.st40{fill:#F29B9A;stroke:#1D1115;stroke-width:1.3;stroke-linecap:round;stroke-linejoin:round;stroke-miterlimit:10;}
	.st41{fill:#82827E;stroke:#1D1115;stroke-width:1.3;stroke-linecap:round;stroke-linejoin:round;stroke-miterlimit:10;}
	.st42{fill:#232326;}
	.st43{fill:#C1B680;stroke:#575A6D;stroke-width:1.3;stroke-miterlimit:10;}
	.st44{fill:#FFE8D9;}
	.st45{fill:#DBD8D5;}
	.st46{fill:#F7F0EA;}
	.st47{fill:#313C36;}
	.st48{fill:#FBFBFD;}
	.st49{fill:#AF8C7E;}
	.st50{fill:#231815;stroke:#1D1115;stroke-width:2;stroke-linecap:round;stroke-linejoin:round;stroke-miterlimit:10;}
	.st51{fill:#ADA49E;}
	.st52{fill:#EDE3DD;}
	.st53{fill:#3B4941;}
	.st54{fill:#1D1115;}
	.st55{fill:#EAEAEA;stroke:#1D1115;stroke-width:0.521;stroke-linecap:round;stroke-linejoin:round;stroke-miterlimit:10;}
	.st56{fill:#4C4C4C;stroke:#1D1115;stroke-width:0.3721;stroke-miterlimit:10;}
	.st57{fill:#C1C1C1;stroke:#1D1115;stroke-width:0.521;stroke-miterlimit:10;}
	.st58{fill:none;stroke:#1D1115;stroke-width:1.3;stroke-linecap:round;stroke-miterlimit:10;}
	.st59{fill:#FFE8D9;stroke:#1D1115;stroke-width:1.3;stroke-linecap:round;stroke-linejoin:round;stroke-miterlimit:10;}
	.st60{fill:#912424;}
	.st61{fill:#8F3E38;stroke:#1D1115;stroke-width:1.312;stroke-miterlimit:10;}
	.st62{clip-path:url(#SVGID_36_);fill:none;stroke:#575A6D;stroke-width:1.3;stroke-miterlimit:10;}
	.st63{clip-path:url(#SVGID_36_);fill:#7D7F91;}
	.st64{opacity:0.4;clip-path:url(#SVGID_36_);fill:url(#SVGID_37_);}
	
		.st65{clip-path:url(#SVGID_36_);fill:none;stroke:#575A6D;stroke-width:1.3;stroke-linecap:round;stroke-linejoin:round;stroke-miterlimit:10;}
	.st66{clip-path:url(#SVGID_36_);}
	
		.st67{clip-path:url(#SVGID_36_);fill:none;stroke:#1D1115;stroke-width:1.3;stroke-linecap:round;stroke-linejoin:round;stroke-miterlimit:10;}
	.st68{clip-path:url(#SVGID_36_);fill:none;}
	.st69{clip-path:url(#SVGID_36_);fill:none;stroke:#575A6D;stroke-width:1.6344;stroke-miterlimit:10;}
	
		.st70{clip-path:url(#SVGID_36_);fill:#575A6D;stroke:#575A6D;stroke-width:1.3;stroke-linecap:round;stroke-linejoin:round;stroke-miterlimit:10;}
	.st71{fill:#FAC0BF;}
	.st72{fill:none;stroke:#1D1115;stroke-width:2;stroke-linecap:round;stroke-linejoin:round;stroke-miterlimit:10;}
	.st73{fill:#8E563B;}
	.st74{fill:#EC9898;stroke:#1D1115;stroke-width:2;stroke-linecap:round;stroke-linejoin:round;stroke-miterlimit:10;}
	.st75{fill:#F7F0EA;stroke:#1D1115;stroke-width:2;stroke-linecap:round;stroke-linejoin:round;stroke-miterlimit:10;}
	.st76{clip-path:url(#SVGID_36_);fill:#C1B680;stroke:#575A6D;stroke-width:1.3;stroke-miterlimit:10;}
	.st77{fill:#F7F7F7;stroke:#1D1115;stroke-width:2.1832;stroke-linecap:round;stroke-linejoin:round;stroke-miterlimit:10;}
	.st78{fill:#FFFFFF;stroke:#1D1115;stroke-width:2.1832;stroke-linecap:round;stroke-linejoin:round;stroke-miterlimit:10;}
	.st79{fill:none;stroke:#1D1115;stroke-width:2.7785;stroke-linecap:round;stroke-linejoin:round;stroke-miterlimit:10;}
	.st80{fill:#8F3E38;stroke:#1D1115;stroke-width:2.1832;stroke-miterlimit:10;}
	
		.st81{clip-path:url(#SVGID_36_);fill:none;stroke:#232326;stroke-width:1.3;stroke-linecap:round;stroke-linejoin:round;stroke-miterlimit:10;}
	.st82{fill:#606372;}
	.st83{fill:#575A6D;stroke:#575A6D;stroke-width:0.6901;stroke-miterlimit:10;}
	.st84{fill:none;stroke:#575A6D;stroke-width:5;stroke-miterlimit:10;}
	.st85{clip-path:url(#SVGID_39_);}
	.st86{fill:#B24242;}
	.st87{clip-path:url(#SVGID_41_);}
	.st88{clip-path:url(#SVGID_43_);}
	.st89{clip-path:url(#SVGID_45_);}
	.st90{clip-path:url(#SVGID_47_);}
	.st91{clip-path:url(#SVGID_49_);}
	.st92{clip-path:url(#SVGID_51_);}
	.st93{clip-path:url(#SVGID_53_);}
	.st94{clip-path:url(#SVGID_55_);}
	.st95{clip-path:url(#SVGID_57_);}
	.st96{clip-path:url(#SVGID_59_);}
	.st97{fill:none;stroke:#575A6D;stroke-linecap:round;stroke-linejoin:round;stroke-miterlimit:10;}
	.st98{fill:none;stroke:#575A6D;stroke-width:1.6344;stroke-linecap:round;stroke-linejoin:round;stroke-miterlimit:10;}
	.st99{fill:none;stroke:#575A6D;stroke-width:0.5705;stroke-miterlimit:10;}
	.st100{fill:none;stroke:#575A6D;stroke-width:0.3072;stroke-linecap:round;stroke-linejoin:round;stroke-miterlimit:10;}
	.st101{fill:none;stroke:#232326;stroke-width:1.3;stroke-linecap:round;stroke-linejoin:round;stroke-miterlimit:10;}
	.st102{fill:none;stroke:#575A6D;stroke-width:1.6995;stroke-linecap:round;stroke-linejoin:round;stroke-miterlimit:10;}
	.st103{fill:none;stroke:#575A6D;stroke-width:1.7979;stroke-miterlimit:10;}
	.st104{fill:none;stroke:#575A6D;stroke-width:1.7979;stroke-linecap:round;stroke-linejoin:round;stroke-miterlimit:10;}
	.st105{fill:none;stroke:#575A6D;stroke-width:1.4024;stroke-linecap:round;stroke-linejoin:round;stroke-miterlimit:10;}
	.st106{fill:none;stroke:#575A6D;stroke-width:1.4;stroke-linecap:round;stroke-linejoin:round;stroke-miterlimit:10;}
	.st107{fill:#948962;}
	.st108{fill:#99B4C9;}
	.st109{fill:#FFBC57;}
	.st110{fill:#FD8B8A;}
	.st111{fill:#F8EFEA;}
	.st112{fill:#E8AE56;}
	.st113{fill:#E7B383;}
	.st114{fill:#FFE6D0;}
	
		.st115{clip-path:url(#SVGID_101_);fill:none;stroke:#575A6D;stroke-width:1.2991;stroke-linecap:round;stroke-linejoin:round;stroke-miterlimit:10;}
	
		.st116{clip-path:url(#SVGID_101_);fill:none;stroke:#575A6D;stroke-width:0.9993;stroke-linecap:round;stroke-linejoin:round;stroke-miterlimit:10;}
	
		.st117{clip-path:url(#SVGID_103_);fill:none;stroke:#575A6D;stroke-width:1.2991;stroke-linecap:round;stroke-linejoin:round;stroke-miterlimit:10;}
	
		.st118{clip-path:url(#SVGID_103_);fill:none;stroke:#575A6D;stroke-width:0.9993;stroke-linecap:round;stroke-linejoin:round;stroke-miterlimit:10;}
	
		.st119{clip-path:url(#SVGID_105_);fill:none;stroke:#575A6D;stroke-width:1.2991;stroke-linecap:round;stroke-linejoin:round;stroke-miterlimit:10;}
	
		.st120{clip-path:url(#SVGID_105_);fill:none;stroke:#575A6D;stroke-width:0.9993;stroke-linecap:round;stroke-linejoin:round;stroke-miterlimit:10;}
	
		.st121{clip-path:url(#SVGID_107_);fill:none;stroke:#575A6D;stroke-width:1.2991;stroke-linecap:round;stroke-linejoin:round;stroke-miterlimit:10;}
	
		.st122{clip-path:url(#SVGID_107_);fill:none;stroke:#575A6D;stroke-width:0.9993;stroke-linecap:round;stroke-linejoin:round;stroke-miterlimit:10;}
	
		.st123{clip-path:url(#SVGID_109_);fill:none;stroke:#575A6D;stroke-width:1.2991;stroke-linecap:round;stroke-linejoin:round;stroke-miterlimit:10;}
	
		.st124{clip-path:url(#SVGID_109_);fill:none;stroke:#575A6D;stroke-width:0.9993;stroke-linecap:round;stroke-linejoin:round;stroke-miterlimit:10;}
	.st125{fill:none;stroke:#575A6D;stroke-width:0.9993;stroke-linecap:round;stroke-linejoin:round;stroke-miterlimit:10;}
	.st126{fill:#828397;}
	.st127{fill:none;stroke:#575A6D;stroke-width:0.5;stroke-linecap:round;stroke-linejoin:round;stroke-miterlimit:10;}
	.st128{fill:none;stroke:#575A6D;stroke-width:0.4035;stroke-miterlimit:10;}
	.st129{fill:none;stroke:#575A6D;stroke-width:0.4035;stroke-linecap:round;stroke-linejoin:round;stroke-miterlimit:10;}
	.st130{fill:#F7F0EA;stroke:#575A6D;stroke-width:2.031;stroke-miterlimit:10;}
	.st131{fill:#7D7F91;stroke:#575A6D;stroke-width:2.6;stroke-linecap:round;stroke-linejoin:round;stroke-miterlimit:10;}
	.st132{fill:none;stroke:#575A6D;stroke-width:1.9379;stroke-miterlimit:10;}
	.st133{clip-path:url(#SVGID_151_);}
	.st134{clip-path:url(#SVGID_153_);}
	.st135{clip-path:url(#SVGID_155_);}
	.st136{clip-path:url(#SVGID_157_);}
	.st137{fill:#E27960;}
	.st138{fill:#575A6D;stroke:#575A6D;stroke-width:1.264;stroke-miterlimit:10;}
	.st139{fill:none;stroke:#575A6D;stroke-width:1.264;stroke-miterlimit:10;}
	.st140{fill:#F7F0EA;stroke:#575A6D;stroke-width:2.6129;stroke-miterlimit:10;}
	.st141{fill:none;stroke:#575A6D;stroke-width:8;stroke-miterlimit:10;}
	.st142{clip-path:url(#SVGID_159_);}
	.st143{clip-path:url(#SVGID_161_);}
	.st144{clip-path:url(#SVGID_163_);}
	.st145{clip-path:url(#SVGID_165_);}
	.st146{fill:none;stroke:#575A6D;stroke-width:2.493;stroke-miterlimit:10;}
	.st147{fill:#FDD485;}
	.st148{fill:#FBD0C6;}
	.st149{fill:#866359;}
	.st150{fill:none;stroke:#212226;stroke-width:1.9841;stroke-linecap:round;stroke-linejoin:round;stroke-miterlimit:10;}
	.st151{fill:#EB9485;stroke:#212226;stroke-width:1.9841;stroke-linecap:round;stroke-linejoin:round;stroke-miterlimit:10;}
	.st152{fill:#212226;stroke:#212226;stroke-width:1.9841;stroke-linecap:round;stroke-linejoin:round;stroke-miterlimit:10;}
	.st153{clip-path:url(#SVGID_167_);}
	.st154{clip-path:url(#SVGID_169_);}
	.st155{clip-path:url(#SVGID_171_);}
	.st156{clip-path:url(#SVGID_173_);}
	.st157{fill:#53B777;}
	.st158{fill:#FBD3CC;}
	.st159{fill:#885E4D;}
	.st160{fill:none;stroke:#212226;stroke-width:1.1762;stroke-linecap:round;stroke-linejoin:round;stroke-miterlimit:10;}
	.st161{fill:none;stroke:#212226;stroke-width:1.7592;stroke-linecap:round;stroke-linejoin:round;stroke-miterlimit:10;}
	.st162{clip-path:url(#SVGID_175_);}
	.st163{clip-path:url(#SVGID_177_);}
	.st164{clip-path:url(#SVGID_179_);}
	.st165{clip-path:url(#SVGID_181_);}
	.st166{fill:#231815;stroke:#1D1115;stroke-width:2.0318;stroke-linecap:round;stroke-linejoin:round;stroke-miterlimit:10;}
	.st167{fill:#C79E93;}
	.st168{fill:#FFDBA5;}
	.st169{fill:#C89F96;}
	.st170{fill:none;stroke:#1D1115;stroke-width:2.1549;stroke-linecap:round;stroke-linejoin:round;stroke-miterlimit:10;}
	.st171{fill:#1D1115;stroke:#1D1115;stroke-width:2.1549;stroke-linecap:round;stroke-linejoin:round;stroke-miterlimit:10;}
	.st172{fill:#7D7F91;stroke:#575A6D;stroke-width:1.6112;stroke-linecap:round;stroke-linejoin:round;stroke-miterlimit:10;}
	.st173{clip-path:url(#SVGID_183_);}
	.st174{fill:#E27960;stroke:#575A6D;stroke-width:3;stroke-miterlimit:10;}
	.st175{fill:#575A6D;stroke:#575A6D;stroke-width:0.824;stroke-miterlimit:10;}
	.st176{fill:none;stroke:#575A6D;stroke-width:0.824;stroke-miterlimit:10;}
	.st177{fill:none;stroke:#212226;stroke-width:0.9867;stroke-linecap:round;stroke-linejoin:round;stroke-miterlimit:10;}
	.st178{fill:#EB9485;stroke:#212226;stroke-width:0.9867;stroke-linecap:round;stroke-linejoin:round;stroke-miterlimit:10;}
	.st179{fill:#212226;stroke:#212226;stroke-width:0.9867;stroke-linecap:round;stroke-linejoin:round;stroke-miterlimit:10;}
	.st180{clip-path:url(#SVGID_185_);}
	.st181{clip-path:url(#SVGID_187_);}
	.st182{fill:#231815;stroke:#1D1115;stroke-width:1.1799;stroke-linecap:round;stroke-linejoin:round;stroke-miterlimit:10;}
	.st183{fill:none;stroke:#212226;stroke-width:0.6742;stroke-linecap:round;stroke-linejoin:round;stroke-miterlimit:10;}
	.st184{fill:none;stroke:#212226;stroke-width:1.0083;stroke-linecap:round;stroke-linejoin:round;stroke-miterlimit:10;}
	.st185{fill:none;stroke:#1D1115;stroke-width:1.2208;stroke-linecap:round;stroke-linejoin:round;stroke-miterlimit:10;}
	.st186{fill:#1D1115;stroke:#1D1115;stroke-width:1.2208;stroke-linecap:round;stroke-linejoin:round;stroke-miterlimit:10;}
	.st187{fill:#63632C;}
	.st188{fill:#006358;}
	.st189{fill:#A3703C;}
	.st190{fill:#BCEE3B;}
	.st191{clip-path:url(#SVGID_189_);fill:#7A5233;}
	.st192{clip-path:url(#SVGID_189_);}
	.st193{fill:#54453C;}
	.st194{fill:#37312D;}
	.st195{fill:#0D474B;}
	.st196{fill:#00714B;}
	.st197{fill:#88E02C;}
	.st198{fill:#00A664;}
	.st199{fill:#55C117;}
	.st200{fill:none;stroke:#000000;stroke-width:1.3;stroke-miterlimit:10;}
</style>
<g>
	<path class="st157" d="M42.9,81.6l13.9-2.1c0,0,5.1,6.6,20.7,9.1c15.6,2.5,27.7-8.9,27.7-8.9l5.9,1.9l4.3,3.3l4.3,9l1.3,7.8H32.5
		l5-13.5C37.5,88.2,39.7,82,42.9,81.6z"/>
	<path class="st158" d="M63.5,29.6l9.3-12.1l7.5-4.7c0,0,5.7-2.4,10.6,1.6l1.2,4l1.1,7.3l1.3,8.9l3.4,4.3l4.6,2.1l-3.9,14.1L92.5,62
		l0.2,6.9l3.1,8l2.6,1.9l6.8,1c0,0-11.6,10.2-24.1,9.2s-22.5-6.3-24.3-9.4l3.8-1.3l3-2.7l2.3-4.3l1.5-7.7c0,0-7.2-6.9-5.5-18
		S63.5,29.6,63.5,29.6z"/>
	<path class="st159" d="M66.6,62.8c0,0-2.9,0.9-3.7,0c-0.8-0.9-3.2,1.1-4.9,0.3c-1.7-0.7-5.6-0.2-7.9-3.8c-2.3-3.7-3.6-9.2-3.1-10.7
		c0.5-1.5,0.2-12,6.6-19.3s3.2-4.2,3.2-4.2s4.8-13.6,6.7-14.9s4.2-7.4,13.2-7.5c9-0.1,12.1,2.2,12.1,2.2s7.7-0.9,12.6,0.8
		s10.7,7.2,10.9,8.2s5.6,9,5.5,12.5s-5.4,36.3-1.5,40.9c3.9,4.6-23.7,2.1-23.7,1c-0.1-1.1,0.2-6.5,0.2-6.5l5.9-6l3.9-14.8
		c0,0-3.7-1.4-4.6-2.1s-4.6-2.9-4.8-14.4c0,0-1.2-10-2.5-10.6c-1.4-0.6-5.9-2.7-10.8-0.8s-8.8,6.4-8.8,6.4l-7.4,10.1l-0.6,8.6
		l-1.1,12l2.3,9.9L66.6,62.8z"/>
	<g>
		<path class="st158" d="M3.7,101.1c0,0,1.7,0.7,2.5,2.1s1.6,3,2.2,3s2.4,0.2,2.4-1.7c0-1.9,0.1,3.8,0.1,3.8l0.9,3
			c0,0,1.7,1.2,2.3,0.8c0.6-0.4,1.1-0.7,1.1-0.7l1,1.3c0,0,2,0.5,2.6-0.3c0.6-0.9,0.3-2.7,0.3-2.7L19,107c0,0,1.7,1.6,3,0.2
			c1.3-1.4,1.1-4.2,1.1-4.2l0-1L22.9,98l0.4-0.5v4.1h5.4l-0.5-5.2l-0.8-0.8l-5.1-2.7l-0.8,0.5c0,0-2.3-0.9-4.5,0.7
			c0,0-3.6-1.4-5.9,1.5c0,0-2,0.1-3.1,2.4C8,98,4.8,96.4,3.7,101.1z"/>
		<path class="st183" d="M3.2,101.6c0,0,1.6-1.2,3.8,3.1c1.6,3.1,5,0.6,3.4-1.3c-1.6-2-1.8-5.3-3.8-5.5
			C4.5,97.6,3.2,101.6,3.2,101.6z"/>
		<path class="st183" d="M8,98.4c0,0,0.3-2.8,3.3-2.6c0,0,0.7-2.9,4.4-1.8"/>
		<path class="st183" d="M12.5,96.8c0,0,2.1,1.1,2.4,3.6c0.3,2.5,0,10,0.2,10.6c0.1,0.6-3.1,2.6-4-1.3c-0.2-0.9-0.3-3.4-0.3-4.8"/>
		<path class="st183" d="M16.8,95.3c0,0,1.4,3,1.7,4.7s0.7,11.1,0.3,12.1c-0.4,1-3.2,1.6-3.7-1.1"/>
		<path class="st183" d="M17.2,94.2c0,0,2-1.7,3.8-0.7"/>
		<path class="st183" d="M22.9,98c0,0,0.8,9.5-2,9.7c-1.6,0.1-2.1-1.1-2.1-1.1"/>
		<path class="st183" d="M24.8,98.8c0,0-5.8-4-2.8-5.8c0.8-0.4,4.2,2.8,5.8,2.9c0.7,0.1,0.7,5.5,0.7,5.5"/>
	</g>
	<g>
		<path class="st158" d="M148.5,101.2c0,0-0.6-3.9-4.7-3.5c0,0-0.5-2.2-3.8-2c0,0-0.3-3-4.8-1.6c0,0-0.7-1.5-4.3-0.7l-1-0.6
			c0,0-0.8,0.7-1.4,1.1s-4.4,1.7-4.4,1.7l-0.3,1.7l-0.1,4.3h5.2l0.1,3.7l0.9,1.7l1.3,0.8l1.6-0.6l0.1,3.4c0,0,0.1,2.1,1.9,2.4
			c1.7,0.2,2.1-2.4,2.1-2.4l0.7,1.2l1.9-0.6c0,0,1,0,1.2-3c0.2-2.9-0.1-3-0.1-3s1.2,0.8,1.9,0.7c0.7,0,4.2-4,4.2-4.3
			c0-0.3,0.6-0.4,0.6-0.4l0.8,0.2L148.5,101.2z"/>
		<path class="st183" d="M123.6,101.2c0,0-0.1-5.2,0.4-5.5c0.4-0.3,4.2-0.9,4.9-2.2c0.7-1.3,2.3-0.3,1.9,1.4
			c-0.4,1.6-3.7,3.3-3.7,3.9"/>
		<path class="st183" d="M130.8,93.2c0,0,2.3-0.9,3.8,0.7"/>
		<path class="st183" d="M128.8,97.6c0,0,0,7.9,0.2,8.2c0.2,0.3,1.8,3.5,3.7,1.1c0,0,0-9.3,2.1-11.5"/>
		<path class="st183" d="M136,93.9c0,0,3.2-1,3.9,1.9c0,0,3.2-0.7,3.5,2c0,0,4.5-1.3,4.9,3.7"/>
		<path class="st183" d="M139.1,97c0,0-2.3-1.5-2.4,13.8c0,0-1.7,3.9-3.9,0.7c0,0-0.5-3-0.2-4.7"/>
		<path class="st183" d="M143.5,97.8c0,0-2.8,5.3-3,7.4c-0.1,2.1,0.1,6.4-2.3,6.4c-1.5,0-1.5-0.8-1.5-0.8"/>
		<path class="st183" d="M147.9,101.5c0,0-0.5-0.4-1,0c-0.5,0.4-3.1,4.9-4.9,4.4c-1.8-0.4-1.3-1.4-1.3-1.4"/>
	</g>
	<path class="st184" d="M50,59.3c0,0-8.7-12.7,3-29.3c5.6-7.9,2.5-1.7,7.1-13.7C63.8,6.9,71.7-0.4,86.2,4"/>
	<path class="st184" d="M90.9,4.8c0,0,11.3-2.5,19.6,7.6s7.3,15.3,7.1,18.8c-0.1,3.4-5.6,31.3-1.5,35.9"/>
	<path class="st184" d="M109.4,31.1c0,0-1.9,18.6-3.4,22.6s2.4,14.1,3.4,14.5"/>
	<path class="st184" d="M104.3,27c0,0-0.9,13.9-4.8,24.9s2.4,16.9,2.4,16.9"/>
	<path class="st184" d="M81,12.7c0,0-6.8,1.2-12.2,9.5S60.2,33,60.2,33"/>
	<path class="st184" d="M85,13.9c0.6,0.8,2.2,0.9,1.2,15c-0.6,8.4,2.5,8.4,2.5,8.4"/>
	<path class="st184" d="M89.2,13.3c0.7,0.3,3.5,1,4.3,16.9c0.5,9.4,8.9,10.8,8.9,10.8"/>
	<path class="st184" d="M58,34c0,0-6.1,13.3-4.1,22.1c1.3,5.5,4.1,7,4.1,7"/>
	<path class="st184" d="M60.7,52.6c0,0-0.9,7.7,2.1,10.2"/>
	<path class="st184" d="M63.5,31.1c0,0-0.8,9-1.3,13.7S60.7,64.9,75.7,67c14.9,2.1,23.1-12.4,23.1-12.4"/>
	<path class="st184" d="M78.9,37.2c0,0,0.6,5.2-0.7,7s-3.7,4.4-0.8,7.2"/>
	<path class="st184" d="M85.7,42.5c0,0,5.1-2.1,8.4,2.8"/>
	<path class="st184" d="M66,37.8c0,0,5-2.1,8.2,1.7"/>
	<path class="st184" d="M67,30.3c0,0,7.2-1.5,9.6,2.7"/>
	<path class="st184" d="M86.2,35.4c0,0,6.5-1.5,10.2,2.2"/>
	<path class="st184" d="M70.1,52.6c0,0,2.2,4.8,16.1,3.1C86.2,55.7,74.1,68.5,70.1,52.6z"/>
	<path class="st184" d="M67.4,63.6c0,0-0.3,15.6-11.7,16"/>
	<path class="st184" d="M102.4,79.6c-12.4-0.2-9.7-17.8-9.7-17.8"/>
	<path class="st184" d="M52.8,79.6c0.2,2.8-11-2-14,5.9c-7,18-5.5,13.3-6.1,15.8"/>
	<path class="st184" d="M104.3,79.6c0,0,8.5,0.6,12.1,7s2.6,10.5,4.4,15.1"/>
	<path class="st184" d="M82.8,93.8c0,0,19.1-3,24.7-13"/>
	<path class="st184" d="M58,80.9c0,0,22.6,16.9,43.4,1.6"/>
</g>
</svg>
