<?xml version="1.0" encoding="utf-8"?>
<!-- Generator: Adobe Illustrator 24.3.0, SVG Export Plug-In . SVG Version: 6.00 Build 0)  -->
<svg version="1.1" id="圖層_1" xmlns="http://www.w3.org/2000/svg" xmlns:xlink="http://www.w3.org/1999/xlink" x="0px" y="0px"
	 viewBox="0 0 337.6 191.4" style="enable-background:new 0 0 337.6 191.4;" xml:space="preserve">
<style type="text/css">
	.st0{fill:#7D7F91;}
	.st1{fill:none;stroke:#575A6D;stroke-width:1.3;stroke-miterlimit:10;}
	.st2{fill:#F7F0EA;stroke:#575A6D;stroke-width:3;stroke-miterlimit:10;}
	.st3{opacity:0.4;fill:url(#SVGID_1_);}
	.st4{opacity:0.4;fill:url(#SVGID_2_);}
	.st5{fill:#FA5560;stroke:#FA5560;stroke-width:15;stroke-linecap:round;stroke-linejoin:round;stroke-miterlimit:10;}
	.st6{fill:#FEE48B;}
	.st7{fill:#FA5560;stroke:#FA5560;stroke-width:21.3573;stroke-linecap:round;stroke-linejoin:round;stroke-miterlimit:10;}
	.st8{clip-path:url(#SVGID_4_);}
	.st9{fill:#E2C179;}
	.st10{clip-path:url(#SVGID_6_);}
	.st11{clip-path:url(#SVGID_8_);}
	.st12{clip-path:url(#SVGID_10_);}
	.st13{clip-path:url(#SVGID_12_);}
	.st14{clip-path:url(#SVGID_14_);}
	.st15{clip-path:url(#SVGID_16_);}
	.st16{fill:#FA5560;stroke:#E4463B;stroke-width:23.0455;stroke-linecap:round;stroke-linejoin:round;stroke-miterlimit:10;}
	.st17{clip-path:url(#SVGID_18_);}
	.st18{clip-path:url(#SVGID_20_);}
	.st19{clip-path:url(#SVGID_22_);}
	.st20{clip-path:url(#SVGID_24_);}
	.st21{clip-path:url(#SVGID_26_);}
	.st22{clip-path:url(#SVGID_28_);}
	.st23{clip-path:url(#SVGID_30_);}
	.st24{fill:none;stroke:#575A6D;stroke-width:1.3;stroke-linecap:round;stroke-linejoin:round;stroke-miterlimit:10;}
	.st25{fill:none;stroke:#575A6D;stroke-width:1.6182;stroke-miterlimit:10;}
	.st26{fill:none;stroke:#575A6D;stroke-width:2;stroke-miterlimit:10;}
	.st27{fill:#575A6D;}
	.st28{fill:#575A6D;stroke:#575A6D;stroke-width:1.3;stroke-linecap:round;stroke-linejoin:round;stroke-miterlimit:10;}
	.st29{fill:none;}
	.st30{clip-path:url(#SVGID_32_);}
	.st31{fill:none;stroke:#575A6D;stroke-width:1.6344;stroke-miterlimit:10;}
	.st32{fill:#694C52;}
	.st33{clip-path:url(#SVGID_34_);}
	.st34{fill:none;stroke:#575A6D;stroke-width:0.7;stroke-linecap:round;stroke-linejoin:round;stroke-miterlimit:10;}
	.st35{fill:#FFFFFF;}
	.st36{fill:#E2E2E2;}
	.st37{fill:#F1C080;}
	.st38{fill:#F29B9A;}
	.st39{fill:none;stroke:#1D1115;stroke-width:1.3;stroke-linecap:round;stroke-linejoin:round;stroke-miterlimit:10;}
	.st40{fill:#F29B9A;stroke:#1D1115;stroke-width:1.3;stroke-linecap:round;stroke-linejoin:round;stroke-miterlimit:10;}
	.st41{fill:#82827E;stroke:#1D1115;stroke-width:1.3;stroke-linecap:round;stroke-linejoin:round;stroke-miterlimit:10;}
	.st42{fill:#232326;}
	.st43{fill:#C1B680;stroke:#575A6D;stroke-width:1.3;stroke-miterlimit:10;}
	.st44{fill:#FFE8D9;}
	.st45{fill:#DBD8D5;}
	.st46{fill:#F7F0EA;}
	.st47{fill:#313C36;}
	.st48{fill:#FBFBFD;}
	.st49{fill:#AF8C7E;}
	.st50{fill:#231815;stroke:#1D1115;stroke-width:2;stroke-linecap:round;stroke-linejoin:round;stroke-miterlimit:10;}
	.st51{fill:#ADA49E;}
	.st52{fill:#EDE3DD;}
	.st53{fill:#3B4941;}
	.st54{fill:#1D1115;}
	.st55{fill:#EAEAEA;stroke:#1D1115;stroke-width:0.521;stroke-linecap:round;stroke-linejoin:round;stroke-miterlimit:10;}
	.st56{fill:#4C4C4C;stroke:#1D1115;stroke-width:0.3721;stroke-miterlimit:10;}
	.st57{fill:#C1C1C1;stroke:#1D1115;stroke-width:0.521;stroke-miterlimit:10;}
	.st58{fill:none;stroke:#1D1115;stroke-width:1.3;stroke-linecap:round;stroke-miterlimit:10;}
	.st59{fill:#FFE8D9;stroke:#1D1115;stroke-width:1.3;stroke-linecap:round;stroke-linejoin:round;stroke-miterlimit:10;}
	.st60{fill:#912424;}
	.st61{fill:#8F3E38;stroke:#1D1115;stroke-width:1.312;stroke-miterlimit:10;}
	.st62{clip-path:url(#SVGID_36_);fill:none;stroke:#575A6D;stroke-width:1.3;stroke-miterlimit:10;}
	.st63{clip-path:url(#SVGID_36_);fill:#7D7F91;}
	.st64{opacity:0.4;clip-path:url(#SVGID_36_);fill:url(#SVGID_37_);}
	
		.st65{clip-path:url(#SVGID_36_);fill:none;stroke:#575A6D;stroke-width:1.3;stroke-linecap:round;stroke-linejoin:round;stroke-miterlimit:10;}
	.st66{clip-path:url(#SVGID_36_);}
	
		.st67{clip-path:url(#SVGID_36_);fill:none;stroke:#1D1115;stroke-width:1.3;stroke-linecap:round;stroke-linejoin:round;stroke-miterlimit:10;}
	.st68{clip-path:url(#SVGID_36_);fill:none;}
	.st69{clip-path:url(#SVGID_36_);fill:none;stroke:#575A6D;stroke-width:1.6344;stroke-miterlimit:10;}
	
		.st70{clip-path:url(#SVGID_36_);fill:#575A6D;stroke:#575A6D;stroke-width:1.3;stroke-linecap:round;stroke-linejoin:round;stroke-miterlimit:10;}
	.st71{fill:#FAC0BF;}
	.st72{fill:none;stroke:#1D1115;stroke-width:2;stroke-linecap:round;stroke-linejoin:round;stroke-miterlimit:10;}
	.st73{fill:#8E563B;}
	.st74{fill:#EC9898;stroke:#1D1115;stroke-width:2;stroke-linecap:round;stroke-linejoin:round;stroke-miterlimit:10;}
	.st75{fill:#F7F0EA;stroke:#1D1115;stroke-width:2;stroke-linecap:round;stroke-linejoin:round;stroke-miterlimit:10;}
	.st76{clip-path:url(#SVGID_36_);fill:#C1B680;stroke:#575A6D;stroke-width:1.3;stroke-miterlimit:10;}
	.st77{fill:#F7F7F7;stroke:#1D1115;stroke-width:2.1832;stroke-linecap:round;stroke-linejoin:round;stroke-miterlimit:10;}
	.st78{fill:#FFFFFF;stroke:#1D1115;stroke-width:2.1832;stroke-linecap:round;stroke-linejoin:round;stroke-miterlimit:10;}
	.st79{fill:none;stroke:#1D1115;stroke-width:2.7785;stroke-linecap:round;stroke-linejoin:round;stroke-miterlimit:10;}
	.st80{fill:#8F3E38;stroke:#1D1115;stroke-width:2.1832;stroke-miterlimit:10;}
	
		.st81{clip-path:url(#SVGID_36_);fill:none;stroke:#232326;stroke-width:1.3;stroke-linecap:round;stroke-linejoin:round;stroke-miterlimit:10;}
	.st82{fill:#606372;}
	.st83{fill:#575A6D;stroke:#575A6D;stroke-width:0.6901;stroke-miterlimit:10;}
	.st84{fill:none;stroke:#575A6D;stroke-width:5;stroke-miterlimit:10;}
	.st85{clip-path:url(#SVGID_39_);}
	.st86{fill:#B24242;}
	.st87{clip-path:url(#SVGID_41_);}
	.st88{clip-path:url(#SVGID_43_);}
	.st89{clip-path:url(#SVGID_45_);}
	.st90{clip-path:url(#SVGID_47_);}
	.st91{clip-path:url(#SVGID_49_);}
	.st92{clip-path:url(#SVGID_51_);}
	.st93{clip-path:url(#SVGID_53_);}
	.st94{clip-path:url(#SVGID_55_);}
	.st95{clip-path:url(#SVGID_57_);}
	.st96{clip-path:url(#SVGID_59_);}
	.st97{fill:none;stroke:#575A6D;stroke-linecap:round;stroke-linejoin:round;stroke-miterlimit:10;}
	.st98{fill:none;stroke:#575A6D;stroke-width:1.6344;stroke-linecap:round;stroke-linejoin:round;stroke-miterlimit:10;}
	.st99{fill:none;stroke:#575A6D;stroke-width:0.5705;stroke-miterlimit:10;}
	.st100{fill:none;stroke:#575A6D;stroke-width:0.3072;stroke-linecap:round;stroke-linejoin:round;stroke-miterlimit:10;}
	.st101{fill:none;stroke:#232326;stroke-width:1.3;stroke-linecap:round;stroke-linejoin:round;stroke-miterlimit:10;}
	.st102{fill:none;stroke:#575A6D;stroke-width:1.6995;stroke-linecap:round;stroke-linejoin:round;stroke-miterlimit:10;}
	.st103{fill:none;stroke:#575A6D;stroke-width:1.7979;stroke-miterlimit:10;}
	.st104{fill:none;stroke:#575A6D;stroke-width:1.7979;stroke-linecap:round;stroke-linejoin:round;stroke-miterlimit:10;}
	.st105{fill:none;stroke:#575A6D;stroke-width:1.4024;stroke-linecap:round;stroke-linejoin:round;stroke-miterlimit:10;}
	.st106{fill:none;stroke:#575A6D;stroke-width:1.4;stroke-linecap:round;stroke-linejoin:round;stroke-miterlimit:10;}
	.st107{fill:#948962;}
	.st108{fill:#99B4C9;}
	.st109{fill:#FFBC57;}
	.st110{fill:#FD8B8A;}
	.st111{fill:#F8EFEA;}
	.st112{fill:#E8AE56;}
	.st113{fill:#E7B383;}
	.st114{fill:#FFE6D0;}
	
		.st115{clip-path:url(#SVGID_101_);fill:none;stroke:#575A6D;stroke-width:1.2991;stroke-linecap:round;stroke-linejoin:round;stroke-miterlimit:10;}
	
		.st116{clip-path:url(#SVGID_101_);fill:none;stroke:#575A6D;stroke-width:0.9993;stroke-linecap:round;stroke-linejoin:round;stroke-miterlimit:10;}
	
		.st117{clip-path:url(#SVGID_103_);fill:none;stroke:#575A6D;stroke-width:1.2991;stroke-linecap:round;stroke-linejoin:round;stroke-miterlimit:10;}
	
		.st118{clip-path:url(#SVGID_103_);fill:none;stroke:#575A6D;stroke-width:0.9993;stroke-linecap:round;stroke-linejoin:round;stroke-miterlimit:10;}
	
		.st119{clip-path:url(#SVGID_105_);fill:none;stroke:#575A6D;stroke-width:1.2991;stroke-linecap:round;stroke-linejoin:round;stroke-miterlimit:10;}
	
		.st120{clip-path:url(#SVGID_105_);fill:none;stroke:#575A6D;stroke-width:0.9993;stroke-linecap:round;stroke-linejoin:round;stroke-miterlimit:10;}
	
		.st121{clip-path:url(#SVGID_107_);fill:none;stroke:#575A6D;stroke-width:1.2991;stroke-linecap:round;stroke-linejoin:round;stroke-miterlimit:10;}
	
		.st122{clip-path:url(#SVGID_107_);fill:none;stroke:#575A6D;stroke-width:0.9993;stroke-linecap:round;stroke-linejoin:round;stroke-miterlimit:10;}
	
		.st123{clip-path:url(#SVGID_109_);fill:none;stroke:#575A6D;stroke-width:1.2991;stroke-linecap:round;stroke-linejoin:round;stroke-miterlimit:10;}
	
		.st124{clip-path:url(#SVGID_109_);fill:none;stroke:#575A6D;stroke-width:0.9993;stroke-linecap:round;stroke-linejoin:round;stroke-miterlimit:10;}
	.st125{fill:none;stroke:#575A6D;stroke-width:0.9993;stroke-linecap:round;stroke-linejoin:round;stroke-miterlimit:10;}
	.st126{fill:#828397;}
	.st127{fill:none;stroke:#575A6D;stroke-width:0.5;stroke-linecap:round;stroke-linejoin:round;stroke-miterlimit:10;}
	.st128{fill:none;stroke:#575A6D;stroke-width:0.4035;stroke-miterlimit:10;}
	.st129{fill:none;stroke:#575A6D;stroke-width:0.4035;stroke-linecap:round;stroke-linejoin:round;stroke-miterlimit:10;}
	.st130{fill:#F7F0EA;stroke:#575A6D;stroke-width:2.031;stroke-miterlimit:10;}
	.st131{fill:#7D7F91;stroke:#575A6D;stroke-width:2.6;stroke-linecap:round;stroke-linejoin:round;stroke-miterlimit:10;}
	.st132{fill:none;stroke:#575A6D;stroke-width:1.9379;stroke-miterlimit:10;}
	.st133{clip-path:url(#SVGID_151_);}
	.st134{clip-path:url(#SVGID_153_);}
	.st135{clip-path:url(#SVGID_155_);}
	.st136{clip-path:url(#SVGID_157_);}
	.st137{fill:#E27960;}
	.st138{fill:#575A6D;stroke:#575A6D;stroke-width:1.264;stroke-miterlimit:10;}
	.st139{fill:none;stroke:#575A6D;stroke-width:1.264;stroke-miterlimit:10;}
	.st140{fill:#F7F0EA;stroke:#575A6D;stroke-width:2.6129;stroke-miterlimit:10;}
	.st141{fill:none;stroke:#575A6D;stroke-width:8;stroke-miterlimit:10;}
	.st142{clip-path:url(#SVGID_159_);}
	.st143{clip-path:url(#SVGID_161_);}
	.st144{clip-path:url(#SVGID_163_);}
	.st145{clip-path:url(#SVGID_165_);}
	.st146{fill:none;stroke:#575A6D;stroke-width:2.493;stroke-miterlimit:10;}
	.st147{fill:#FDD485;}
	.st148{fill:#FBD0C6;}
	.st149{fill:#866359;}
	.st150{fill:none;stroke:#212226;stroke-width:1.9841;stroke-linecap:round;stroke-linejoin:round;stroke-miterlimit:10;}
	.st151{fill:#EB9485;stroke:#212226;stroke-width:1.9841;stroke-linecap:round;stroke-linejoin:round;stroke-miterlimit:10;}
	.st152{fill:#212226;stroke:#212226;stroke-width:1.9841;stroke-linecap:round;stroke-linejoin:round;stroke-miterlimit:10;}
	.st153{clip-path:url(#SVGID_167_);}
	.st154{clip-path:url(#SVGID_169_);}
	.st155{clip-path:url(#SVGID_171_);}
	.st156{clip-path:url(#SVGID_173_);}
	.st157{fill:#53B777;}
	.st158{fill:#FBD3CC;}
	.st159{fill:#885E4D;}
	.st160{fill:none;stroke:#212226;stroke-width:1.1762;stroke-linecap:round;stroke-linejoin:round;stroke-miterlimit:10;}
	.st161{fill:none;stroke:#212226;stroke-width:1.7592;stroke-linecap:round;stroke-linejoin:round;stroke-miterlimit:10;}
	.st162{clip-path:url(#SVGID_175_);}
	.st163{clip-path:url(#SVGID_177_);}
	.st164{clip-path:url(#SVGID_179_);}
	.st165{clip-path:url(#SVGID_181_);}
	.st166{fill:#231815;stroke:#1D1115;stroke-width:2.0318;stroke-linecap:round;stroke-linejoin:round;stroke-miterlimit:10;}
	.st167{fill:#C79E93;}
	.st168{fill:#FFDBA5;}
	.st169{fill:#C89F96;}
	.st170{fill:none;stroke:#1D1115;stroke-width:2.1549;stroke-linecap:round;stroke-linejoin:round;stroke-miterlimit:10;}
	.st171{fill:#1D1115;stroke:#1D1115;stroke-width:2.1549;stroke-linecap:round;stroke-linejoin:round;stroke-miterlimit:10;}
	.st172{fill:#7D7F91;stroke:#575A6D;stroke-width:1.6112;stroke-linecap:round;stroke-linejoin:round;stroke-miterlimit:10;}
	.st173{clip-path:url(#SVGID_183_);}
	.st174{fill:#E27960;stroke:#575A6D;stroke-width:3;stroke-miterlimit:10;}
	.st175{fill:#575A6D;stroke:#575A6D;stroke-width:0.824;stroke-miterlimit:10;}
	.st176{fill:none;stroke:#575A6D;stroke-width:0.824;stroke-miterlimit:10;}
	.st177{fill:none;stroke:#212226;stroke-width:0.9867;stroke-linecap:round;stroke-linejoin:round;stroke-miterlimit:10;}
	.st178{fill:#EB9485;stroke:#212226;stroke-width:0.9867;stroke-linecap:round;stroke-linejoin:round;stroke-miterlimit:10;}
	.st179{fill:#212226;stroke:#212226;stroke-width:0.9867;stroke-linecap:round;stroke-linejoin:round;stroke-miterlimit:10;}
	.st180{clip-path:url(#SVGID_185_);}
	.st181{clip-path:url(#SVGID_187_);}
	.st182{fill:#231815;stroke:#1D1115;stroke-width:1.1799;stroke-linecap:round;stroke-linejoin:round;stroke-miterlimit:10;}
	.st183{fill:none;stroke:#212226;stroke-width:0.6742;stroke-linecap:round;stroke-linejoin:round;stroke-miterlimit:10;}
	.st184{fill:none;stroke:#212226;stroke-width:1.0083;stroke-linecap:round;stroke-linejoin:round;stroke-miterlimit:10;}
	.st185{fill:none;stroke:#1D1115;stroke-width:1.2208;stroke-linecap:round;stroke-linejoin:round;stroke-miterlimit:10;}
	.st186{fill:#1D1115;stroke:#1D1115;stroke-width:1.2208;stroke-linecap:round;stroke-linejoin:round;stroke-miterlimit:10;}
	.st187{fill:#63632C;}
	.st188{fill:#006358;}
	.st189{fill:#A3703C;}
	.st190{fill:#BCEE3B;}
	.st191{clip-path:url(#SVGID_189_);fill:#7A5233;}
	.st192{clip-path:url(#SVGID_189_);}
	.st193{fill:#54453C;}
	.st194{fill:#37312D;}
	.st195{fill:#0D474B;}
	.st196{fill:#00714B;}
	.st197{fill:#88E02C;}
	.st198{fill:#00A664;}
	.st199{fill:#55C117;}
	.st200{fill:none;stroke:#000000;stroke-width:1.3;stroke-miterlimit:10;}
	.st201{fill:#202345;}
	.st202{fill:#FABFBF;}
	.st203{fill:#FFFFFF;stroke:#1D1115;stroke-width:1.3;stroke-linecap:round;stroke-linejoin:round;stroke-miterlimit:10;}
	.st204{fill:#593E29;}
	.st205{fill:none;stroke:#212226;stroke-width:1.3;stroke-linecap:round;stroke-linejoin:round;stroke-miterlimit:10;}
	.st206{fill:#231815;stroke:#1D1115;stroke-width:1.3;stroke-linecap:round;stroke-linejoin:round;stroke-miterlimit:10;}
	.st207{fill:#DECEC5;stroke:#1D1115;stroke-width:2.253;stroke-miterlimit:10;}
	.st208{fill:#F5E4D5;stroke:#1D1115;stroke-width:2.253;stroke-miterlimit:10;}
	.st209{fill:#E0A377;stroke:#1D1115;stroke-width:2.253;stroke-miterlimit:10;}
	.st210{fill:#DECEC5;stroke:#1D1115;stroke-width:1.3;stroke-miterlimit:10;}
	.st211{fill:#F5E4D5;stroke:#1D1115;stroke-width:1.3;stroke-miterlimit:10;}
	.st212{fill:#E0A377;stroke:#1D1115;stroke-width:1.3;stroke-miterlimit:10;}
	.st213{fill:#FFFFFF;stroke:#1D1115;stroke-width:1.1;stroke-linecap:round;stroke-linejoin:round;stroke-miterlimit:10;}
	.st214{fill:none;stroke:#212226;stroke-width:1.1;stroke-linecap:round;stroke-linejoin:round;stroke-miterlimit:10;}
	.st215{fill:#231815;stroke:#1D1115;stroke-width:1.1;stroke-linecap:round;stroke-linejoin:round;stroke-miterlimit:10;}
	.st216{fill:none;stroke:#1D1115;stroke-width:1.1;stroke-linecap:round;stroke-linejoin:round;stroke-miterlimit:10;}
	.st217{fill:#DECEC5;stroke:#1D1115;stroke-width:1.1;stroke-miterlimit:10;}
	.st218{fill:#F5E4D5;stroke:#1D1115;stroke-width:1.1;stroke-miterlimit:10;}
	.st219{fill:#E0A377;stroke:#1D1115;stroke-width:1.1;stroke-miterlimit:10;}
</style>
<g>
	<path class="st213" d="M229,77.4c0,0,2.2-6-4.8-7.1c0,0,1.4-7.8-7.1-8.5c0,0-0.8-5.7-7-4.5c0,0-1.4-5.3-6.8-3.4
		c0,0-3.4-4.1-7.1,0.5s-1.8,8.4-0.3,8.8c0,0-6,0.6-4.4,7.2c0,0-5.9-2.6-8,4.4c0,0-9.8-1.1-5.7,10.2s15.8,5.7,15.8,5.7
		s-2.4,7.5,5.5,9.7c0,0-2.4,6.2,4.8,7.8c0,0,1.9,4.9,8.3,1.1c0,0,9.5,6.3,16.2-3c0,0,15.1,5.2,24.5-4.2c0,0,12.9,3.1,16-6.2
		c0,0,5.2-5.3,1.1-8.3c0,0-3.9-10.7-14.5-8.3c0,0-0.4-3.7-6.5-4.5c-6.2-0.7-8.9,1.2-8.9,1.8C239.8,77.2,236.9,72.2,229,77.4z"/>
	<path class="st213" d="M83.4,95.8c0,0,1.4,6.2,7.9,3.3c0,0,3.1,7.3,10.6,3.2c0,0,3.8,4.4,8.3-0.1c0,0,4.1,3.6,7.6-0.9
		c0,0,5.1,1.6,5.7-4.3c0.5-5.8-3.1-8-4.5-7.6c0,0,4.7-3.8-0.3-8.4c0,0,6.3-1,4.3-8.1c0,0,8.8-4.4-0.8-11.7s-16.4,3.9-16.4,3.9
		s-2.1-7.6-9.9-5.1c0,0-1.5-6.5-8.3-3.9c0,0-4.3-3.1-7.5,3.6c0,0-11.4-0.1-11.9,11.3c0,0-15.4,3.9-18.2,16.9c0,0-12.5,4.5-10,14
		c0,0-1.4,7.2,3.6,7.5c0,0,9.2,6.8,16.6-1c0,0,2.3,2.9,7.9,0.2s6.8-5.8,6.5-6.3C74.4,101.8,79.6,104.4,83.4,95.8z"/>
	<path class="st213" d="M146.2,103.7c0,0-2,6.1,5.1,7c0,0-1.1,7.8,7.4,8.2c0,0,1,5.7,7.2,4.2c0,0,1.6,5.2,7,3.1c0,0,3.6,4,7.1-0.7
		s1.5-8.4,0-8.8c0,0,6-0.9,4.1-7.3c0,0,6,2.4,7.8-4.7c0,0,9.8,0.7,5.3-10.4c-4.5-11.2-16-5.1-16-5.1s2.1-7.6-5.8-9.4
		c0,0,2.1-6.3-5.1-7.6c0,0-2.1-4.8-8.3-0.7c0,0-9.7-6-16,3.6c0,0-15.3-4.6-24.3,5.1c0,0-13-2.6-15.8,6.8c0,0-5,5.5-0.7,8.3
		c0,0,4.3,10.6,14.8,7.7c0,0,0.5,3.7,6.7,4.2c6.2,0.5,8.8-1.5,8.8-2.1S138.5,109.2,146.2,103.7z"/>
	<path class="st213" d="M270.8,84.2c0,0-2,6.1,5.1,7c0,0-1.1,7.8,7.4,8.2c0,0,1,5.7,7.2,4.2c0,0,1.6,5.2,7,3.1c0,0,3.6,4,7.1-0.7
		c3.5-4.7,1.5-8.4,0-8.8c0,0,6-0.9,4.1-7.3c0,0,6,2.4,7.8-4.7c0,0,9.8,0.7,5.3-10.4c-4.5-11.2-16-5.1-16-5.1s2.1-7.6-5.8-9.4
		c0,0,2.1-6.3-5.1-7.6c0,0-2.1-4.8-8.3-0.7c0,0-9.7-6-16,3.6c0,0-15.3-4.6-24.3,5.1c0,0-13-2.6-15.8,6.8c0,0-5,5.5-0.7,8.3
		c0,0,4.3,10.6,14.8,7.7c0,0,0.5,3.7,6.7,4.2c6.2,0.5,8.8-1.5,8.8-2.1S263.1,89.7,270.8,84.2z"/>
	<path class="st213" d="M64.3,90.5c0,0,5.4-3.4,0.5-8.6c0,0,5.9-5.3-0.5-11.1c0,0,2.9-5-2.8-7.9c0,0,2.1-5-3.3-6.8
		c0,0-0.2-5.4-5.9-4c-5.7,1.4-6.6,5.5-5.6,6.8c0,0-5.1-3.2-7.8,3c0,0-3.1-5.6-9-1.4c0,0-7.1-6.9-10.8,4.6s9,14.2,9,14.2
		s-6.5,4.5-1.6,11c0,0-5.7,3.5-0.9,9.1c0,0-1.5,5.1,5.9,5.9c0,0,3.6,10.8,14.6,7.5c0,0,8.8,13.3,21.9,11.7c0,0,8.3,10.4,16.5,4.9
		c0,0,7.3-1,5.9-5.9c0,0,3.4-10.9-6.4-15.4c0,0,2-3.2-2.4-7.5c-4.4-4.4-7.7-4.5-8.1-4S73.7,91.3,64.3,90.5z"/>
	<g>
		<path class="st202" d="M258.3,14c2,1.2,3.9,5.8,4,8.7c0.2,2.9,0.1,7.7-0.1,9.8c-0.2,2.1-1.5,9.4,3.7,10.8c5.2,1.3,3.5,0.9,3.5,0.9
			s-0.8,7.6,0.5,10.7c1.4,3.2,2.2,6.3,12.7,9.7c0,0,7.7,1.5,7,13.8c0,0,10.1,12.2,16.4,13.9c6.3,1.8-10.5,17.2-10.5,17.2l-97.2-0.9
			l0.7-18.1c0,0,11.6,1.1,13.9,1c2.4-0.1,10.1-2.4,15-8c4.9-5.7,16.9-13.8,17.7-14.2c0.8-0.4,6.7-4.1,17.6-2.9
			c0,0-0.7-10.9-8.1-12.1l-3.8-0.7l-4.4-1l-1.3-1.1c0,0,0.4-2.2,0.6-2.9c0-0.1,0-0.2,0-0.3c0.1-1.3,0.6-10.2,1.7-9.5l-2.1-1.9
			c0,0-1.4-3.2,1.5-4.1c3-0.8,3.1-2.6,3.1-2.6l0.3-5l0.3-3.1C251.2,22.1,256.3,12.8,258.3,14z"/>
		<path class="st204" d="M247.4,32.5c0,0-3.4-8,0.3-13.2s4.8-8.4,9.8-9.7s12.7-2.9,17.2-1.8s12.8,2.7,16.9,15.3
			c4.1,12.5,4.7,21.6,4.7,21.6s2.1,11.3,7.4,13.9s-0.4,15.6-1.1,17.1c-0.7,1.6-3.1,6.3-2.9,9c0.2,2.7,6.4,7.4,7,7.6
			c0.6,0.2-7-0.7-10.1-3.3s-6.7-7.1-6.9-10.6c-0.2-3.5-0.8-7.8-1.8-9.3c-1-1.6-3.5-4.6-8.6-5.9s-8.2-4.7-8.9-7.1
			c-0.7-2.4-1.2-12.1-1.2-12.1s-6.6,0.9-7.3-7.2l0.5-6.1l0.1-5.8c0,0-0.8-7.4-2.5-9.2c-1.7-1.7-2.5-2.9-5.1,0.6
			c-2.7,3.5-3.6,5.5-3.6,5.5s-0.6,4.3-0.6,5.8c0.1,1.5-1.7,4.8-2.7,4.9C247.1,32.7,247.4,32.5,247.4,32.5z"/>
		<path class="st214" d="M247.2,32.2c0,0-5.7-11.4,6.9-18.9"/>
		<path class="st214" d="M254.9,10.6c0,0,20-8.3,31,2.7s6.9,37.2,16.9,44.6s-6.9,24-2.2,29.2c4.7,5.2,6.2,5.2,6.2,5.2"/>
		<path class="st214" d="M266.8,19.4c0,0,3.6,2.5,2.5,22.9c-1.1,20.4,4.6,17.9,15.4,23.4c5.4,2.8,5,12.8,5,12.8"/>
		<path class="st214" d="M275.5,44c0,0-1,9,7.7,16.5"/>
		<path class="st214" d="M293.7,55.9c0,0,6.4,5.9,1,23.5c-2.6,8.4,2.7,10.1,2.7,10.1"/>
		<path class="st214" d="M256.5,13.3c0,0,8.1,0.6,5.6,20.7c-1.2,9.5,3.9,9.3,3.9,9.3"/>
		<path class="st214" d="M255.4,15.9c0,0-5.6,3.9-4.6,12.1c0.6,5-5,4.3-5.2,6.9c-0.2,2.6,2.5,3.9,2.5,3.9"/>
		<path class="st214" d="M246.5,45.8c0,0,0.2,2.6-0.5,3.8s-0.1,4,5.8,4c5.9,0,11.7,6.1,11.6,12.8"/>
		<path class="st214" d="M246.5,42c0,0,3,3.1,8.1,1.6"/>
		<path class="st214" d="M257.6,66.4c0,0-10-2.1-25.6,13.4s-19.9,11.3-19.9,11.3"/>
		<path class="st214" d="M252.1,24.5c0,0,4.1-0.6,5.6,2.8"/>
		<path class="st214" d="M253.6,28.7c0,0,3.5,0.8,3.8,3.8"/>
		<g>
			<ellipse class="st215" cx="254.4" cy="31.9" rx="0.9" ry="1.5"/>
		</g>
		<g>
			<path class="st202" d="M30.5,55.6c0,0-4.2-8.1-8.9-5.8c0,0-1.6,0.6-1.6,2.2c0,0-2.4,1.6-1,4.1c0,0-0.8,1.8-0.3,2.8
				c0.4,0.9-0.2,3.2,0.5,5.4c0.8,2.2,2.7,7.3,4,8.7c1.3,1.3,5.4,3.9,5.4,3.9l2.2,3.3c0,0,3.5,9.4,7.2,12.4c0,0,3.9,6.5,11.1,1.4
				c0,0,4.4-4,6.8-3.2c2.4,0.8,20.8,5.6,24.3,6.3s25.5,3.7,30.1,1.8c4.6-1.9,4.4-20.9,4.4-20.9s-19.2-1.4-31.3-4.6
				c-12.1-3.2-14-4.8-20.9-9.1c-6.9-4.3-15.6-9.8-18.2-12.6c-2.5-2.8-3.6-5.2-3.6-5.2S38,40.5,35,41.8l-0.6,1.2c0,0-1.7,0.1-1.5,4
				c0.2,3.9,1,5.8,1,5.8l1.9,6.5l2.9,5l3.9,2.7c0,0,3.7,5,3.8,6.5c0,1.5-3-2-3-2l-5.7-6.1l-6.5-8.8L30.5,55.6z"/>
			<g>
				<path class="st216" d="M53.3,77.7c0,0-6.5,0.4-20.6-18.5c-2.3-3.1-4-9-9.4-10.1c-3.2-0.6,0.3,1.9,2.8,5.4"/>
				<path class="st216" d="M24.9,57.1c0,0-3-4.9-4.4-5.3s0.2-2.5,1.7-1.9"/>
				<path class="st216" d="M23.8,59.9c0,0-0.8-4.1-2.5-4.3c-1.7-0.1-3.3,0.8-2.6,3.2"/>
				<path class="st216" d="M20,52c0,0-2.5,1.1-1.3,3.5"/>
				<path class="st216" d="M19.5,60.3c0,0,4.8-0.9,4,3.3"/>
				<path class="st216" d="M19,62.4c0,0,1.5,10.3,7.3,12.9s3.8,7.7,9.7,14.9c5.1,6.2,8.3,8.1,15.4,1.5"/>
				<path class="st216" d="M54.6,90.2c0,0,47,16.1,64.8,5.3c9.9-6,10.5-2,10.5-2"/>
				<path class="st216" d="M56.5,78.1c0,0,31.3,6.7,40.9,5s31.4,2.8,34.4,3.9"/>
				<path class="st216" d="M66,66.1c0,0-23.3-12.9-25-19c-1.8-6.1-6.2-5.5-6.3-4.9"/>
				<path class="st216" d="M33.4,43.9c0,0,2.2-3,3.3,1.2"/>
				<path class="st216" d="M33.2,48.4c0,0-1.7-4.4,2.3-3.2c2,0.7,1.6,3.1,1.6,3.1"/>
				<path class="st216" d="M39.2,54.3c0,0-1.1-0.5-1.2-4.6c0-2.3-5.5-2.3-4.9,0.3c0.9,3.6,1.8,7.5,2.3,8.8c2.3,5.4,3.2,6,7.1,8.4
					c1.8,1.1,3.8,6.5,3.8,6.5"/>
				<path class="st216" d="M71.3,82.2c0,0,15,0.5,28.6,6.2s23.7,2.5,23.7,2.5"/>
				<path class="st216" d="M68,67.4c0,0,18.5,9.2,48.3,10.3"/>
			</g>
		</g>
		<g>
			<path class="st217" d="M319.9,87.2H17.7c-2.7,0-4.8-2.2-4.8-4.8v0c0-2.7,2.2-4.8,4.8-4.8h302.2c2.7,0,4.8,2.2,4.8,4.8v0
				C324.7,85,322.5,87.2,319.9,87.2z"/>
			<path class="st218" d="M254.3,168.4h-168c-35.8,0-64.8-29-64.8-64.8V87.2h297.6v16.4C319.1,139.3,290.1,168.4,254.3,168.4z"/>
			<path class="st219" d="M260.6,166.2c-2.6-2.5-2.5-6.2-0.2-8.9c2.5-3,7.2-6.4,14.6-3.2c9.1,3.9-1.5,21.9,9.3,26.4
				c7.1,2.9-1.3,3.4-4.8,3.2s-8.4-12.2-12.4-13.8C264.8,169,262.4,168,260.6,166.2z"/>
			<path class="st219" d="M81.3,166.2c2.6-2.5,2.5-6.2,0.2-8.9c-2.5-3-7.2-6.4-14.6-3.2c-9.1,3.9,1.5,21.9-9.3,26.4
				c-7.1,2.9,1.3,3.4,4.8,3.2s8.4-12.2,12.4-13.8C77,169,79.5,168,81.3,166.2z"/>
		</g>
	</g>
</g>
</svg>
