<?xml version="1.0" encoding="utf-8"?>
<!-- Generator: Adobe Illustrator 24.3.0, SVG Export Plug-In . SVG Version: 6.00 Build 0)  -->
<svg version="1.1" id="圖層_1" xmlns="http://www.w3.org/2000/svg" xmlns:xlink="http://www.w3.org/1999/xlink" x="0px" y="0px"
	 viewBox="0 0 533.5 302.2" style="enable-background:new 0 0 533.5 302.2;" xml:space="preserve">
<style type="text/css">
	.st0{fill:#7D7F91;}
	.st1{fill:none;stroke:#575A6D;stroke-width:1.3;stroke-miterlimit:10;}
	.st2{fill:#F7F0EA;stroke:#575A6D;stroke-width:3;stroke-miterlimit:10;}
	.st3{opacity:0.4;fill:url(#SVGID_1_);}
	.st4{opacity:0.4;fill:url(#SVGID_2_);}
	.st5{fill:#FA5560;stroke:#FA5560;stroke-width:15;stroke-linecap:round;stroke-linejoin:round;stroke-miterlimit:10;}
	.st6{fill:#FEE48B;}
	.st7{fill:#FA5560;stroke:#FA5560;stroke-width:21.3573;stroke-linecap:round;stroke-linejoin:round;stroke-miterlimit:10;}
	.st8{clip-path:url(#SVGID_4_);}
	.st9{fill:#E2C179;}
	.st10{clip-path:url(#SVGID_6_);}
	.st11{clip-path:url(#SVGID_8_);}
	.st12{clip-path:url(#SVGID_10_);}
	.st13{clip-path:url(#SVGID_12_);}
	.st14{clip-path:url(#SVGID_14_);}
	.st15{clip-path:url(#SVGID_16_);}
	.st16{fill:#FA5560;stroke:#E4463B;stroke-width:23.0455;stroke-linecap:round;stroke-linejoin:round;stroke-miterlimit:10;}
	.st17{clip-path:url(#SVGID_18_);}
	.st18{clip-path:url(#SVGID_20_);}
	.st19{clip-path:url(#SVGID_22_);}
	.st20{clip-path:url(#SVGID_24_);}
	.st21{clip-path:url(#SVGID_26_);}
	.st22{clip-path:url(#SVGID_28_);}
	.st23{clip-path:url(#SVGID_30_);}
	.st24{fill:none;stroke:#575A6D;stroke-width:1.3;stroke-linecap:round;stroke-linejoin:round;stroke-miterlimit:10;}
	.st25{fill:none;stroke:#575A6D;stroke-width:1.6182;stroke-miterlimit:10;}
	.st26{fill:none;stroke:#575A6D;stroke-width:2;stroke-miterlimit:10;}
	.st27{fill:#575A6D;}
	.st28{fill:#575A6D;stroke:#575A6D;stroke-width:1.3;stroke-linecap:round;stroke-linejoin:round;stroke-miterlimit:10;}
	.st29{fill:none;}
	.st30{clip-path:url(#SVGID_32_);}
	.st31{fill:none;stroke:#575A6D;stroke-width:1.6344;stroke-miterlimit:10;}
	.st32{fill:#694C52;}
	.st33{clip-path:url(#SVGID_34_);}
	.st34{fill:none;stroke:#575A6D;stroke-width:0.7;stroke-linecap:round;stroke-linejoin:round;stroke-miterlimit:10;}
	.st35{fill:#FFFFFF;}
	.st36{fill:#E2E2E2;}
	.st37{fill:#F1C080;}
	.st38{fill:#F29B9A;}
	.st39{fill:none;stroke:#1D1115;stroke-width:1.3;stroke-linecap:round;stroke-linejoin:round;stroke-miterlimit:10;}
	.st40{fill:#F29B9A;stroke:#1D1115;stroke-width:1.3;stroke-linecap:round;stroke-linejoin:round;stroke-miterlimit:10;}
	.st41{fill:#82827E;stroke:#1D1115;stroke-width:1.3;stroke-linecap:round;stroke-linejoin:round;stroke-miterlimit:10;}
	.st42{fill:#232326;}
	.st43{fill:#C1B680;stroke:#575A6D;stroke-width:1.3;stroke-miterlimit:10;}
	.st44{fill:#FFE8D9;}
	.st45{fill:#DBD8D5;}
	.st46{fill:#F7F0EA;}
	.st47{fill:#313C36;}
	.st48{fill:#FBFBFD;}
	.st49{fill:#AF8C7E;}
	.st50{fill:#231815;stroke:#1D1115;stroke-width:2;stroke-linecap:round;stroke-linejoin:round;stroke-miterlimit:10;}
	.st51{fill:#ADA49E;}
	.st52{fill:#EDE3DD;}
	.st53{fill:#3B4941;}
	.st54{fill:#1D1115;}
	.st55{fill:#EAEAEA;stroke:#1D1115;stroke-width:0.521;stroke-linecap:round;stroke-linejoin:round;stroke-miterlimit:10;}
	.st56{fill:#4C4C4C;stroke:#1D1115;stroke-width:0.3721;stroke-miterlimit:10;}
	.st57{fill:#C1C1C1;stroke:#1D1115;stroke-width:0.521;stroke-miterlimit:10;}
	.st58{fill:none;stroke:#1D1115;stroke-width:1.3;stroke-linecap:round;stroke-miterlimit:10;}
	.st59{fill:#FFE8D9;stroke:#1D1115;stroke-width:1.3;stroke-linecap:round;stroke-linejoin:round;stroke-miterlimit:10;}
	.st60{fill:#912424;}
	.st61{fill:#8F3E38;stroke:#1D1115;stroke-width:1.312;stroke-miterlimit:10;}
	.st62{clip-path:url(#SVGID_36_);fill:none;stroke:#575A6D;stroke-width:1.3;stroke-miterlimit:10;}
	.st63{clip-path:url(#SVGID_36_);fill:#7D7F91;}
	.st64{opacity:0.4;clip-path:url(#SVGID_36_);fill:url(#SVGID_37_);}
	
		.st65{clip-path:url(#SVGID_36_);fill:none;stroke:#575A6D;stroke-width:1.3;stroke-linecap:round;stroke-linejoin:round;stroke-miterlimit:10;}
	.st66{clip-path:url(#SVGID_36_);}
	
		.st67{clip-path:url(#SVGID_36_);fill:none;stroke:#1D1115;stroke-width:1.3;stroke-linecap:round;stroke-linejoin:round;stroke-miterlimit:10;}
	.st68{clip-path:url(#SVGID_36_);fill:none;}
	.st69{clip-path:url(#SVGID_36_);fill:none;stroke:#575A6D;stroke-width:1.6344;stroke-miterlimit:10;}
	
		.st70{clip-path:url(#SVGID_36_);fill:#575A6D;stroke:#575A6D;stroke-width:1.3;stroke-linecap:round;stroke-linejoin:round;stroke-miterlimit:10;}
	.st71{fill:#FAC0BF;}
	.st72{fill:none;stroke:#1D1115;stroke-width:2;stroke-linecap:round;stroke-linejoin:round;stroke-miterlimit:10;}
	.st73{fill:#8E563B;}
	.st74{fill:#EC9898;stroke:#1D1115;stroke-width:2;stroke-linecap:round;stroke-linejoin:round;stroke-miterlimit:10;}
	.st75{fill:#F7F0EA;stroke:#1D1115;stroke-width:2;stroke-linecap:round;stroke-linejoin:round;stroke-miterlimit:10;}
	.st76{clip-path:url(#SVGID_36_);fill:#C1B680;stroke:#575A6D;stroke-width:1.3;stroke-miterlimit:10;}
	.st77{fill:#F7F7F7;stroke:#1D1115;stroke-width:2.1832;stroke-linecap:round;stroke-linejoin:round;stroke-miterlimit:10;}
	.st78{fill:#FFFFFF;stroke:#1D1115;stroke-width:2.1832;stroke-linecap:round;stroke-linejoin:round;stroke-miterlimit:10;}
	.st79{fill:none;stroke:#1D1115;stroke-width:2.7785;stroke-linecap:round;stroke-linejoin:round;stroke-miterlimit:10;}
	.st80{fill:#8F3E38;stroke:#1D1115;stroke-width:2.1832;stroke-miterlimit:10;}
	
		.st81{clip-path:url(#SVGID_36_);fill:none;stroke:#232326;stroke-width:1.3;stroke-linecap:round;stroke-linejoin:round;stroke-miterlimit:10;}
	.st82{fill:#606372;}
	.st83{fill:#575A6D;stroke:#575A6D;stroke-width:0.6901;stroke-miterlimit:10;}
	.st84{fill:none;stroke:#575A6D;stroke-width:5;stroke-miterlimit:10;}
	.st85{clip-path:url(#SVGID_39_);}
	.st86{fill:#B24242;}
	.st87{clip-path:url(#SVGID_41_);}
	.st88{clip-path:url(#SVGID_43_);}
	.st89{clip-path:url(#SVGID_45_);}
	.st90{clip-path:url(#SVGID_47_);}
	.st91{clip-path:url(#SVGID_49_);}
	.st92{clip-path:url(#SVGID_51_);}
	.st93{clip-path:url(#SVGID_53_);}
	.st94{clip-path:url(#SVGID_55_);}
	.st95{clip-path:url(#SVGID_57_);}
	.st96{clip-path:url(#SVGID_59_);}
	.st97{fill:none;stroke:#575A6D;stroke-linecap:round;stroke-linejoin:round;stroke-miterlimit:10;}
	.st98{fill:none;stroke:#575A6D;stroke-width:1.6344;stroke-linecap:round;stroke-linejoin:round;stroke-miterlimit:10;}
	.st99{fill:none;stroke:#575A6D;stroke-width:0.5705;stroke-miterlimit:10;}
	.st100{fill:none;stroke:#575A6D;stroke-width:0.3072;stroke-linecap:round;stroke-linejoin:round;stroke-miterlimit:10;}
	.st101{fill:none;stroke:#232326;stroke-width:1.3;stroke-linecap:round;stroke-linejoin:round;stroke-miterlimit:10;}
	.st102{fill:none;stroke:#575A6D;stroke-width:1.6995;stroke-linecap:round;stroke-linejoin:round;stroke-miterlimit:10;}
	.st103{fill:none;stroke:#575A6D;stroke-width:1.7979;stroke-miterlimit:10;}
	.st104{fill:none;stroke:#575A6D;stroke-width:1.7979;stroke-linecap:round;stroke-linejoin:round;stroke-miterlimit:10;}
	.st105{fill:none;stroke:#575A6D;stroke-width:1.4024;stroke-linecap:round;stroke-linejoin:round;stroke-miterlimit:10;}
	.st106{fill:none;stroke:#575A6D;stroke-width:1.4;stroke-linecap:round;stroke-linejoin:round;stroke-miterlimit:10;}
	.st107{fill:#948962;}
	.st108{fill:#99B4C9;}
	.st109{fill:#FFBC57;}
	.st110{fill:#FD8B8A;}
	.st111{fill:#F8EFEA;}
	.st112{fill:#E8AE56;}
	.st113{fill:#E7B383;}
	.st114{fill:#FFE6D0;}
	
		.st115{clip-path:url(#SVGID_101_);fill:none;stroke:#575A6D;stroke-width:1.2991;stroke-linecap:round;stroke-linejoin:round;stroke-miterlimit:10;}
	
		.st116{clip-path:url(#SVGID_101_);fill:none;stroke:#575A6D;stroke-width:0.9993;stroke-linecap:round;stroke-linejoin:round;stroke-miterlimit:10;}
	
		.st117{clip-path:url(#SVGID_103_);fill:none;stroke:#575A6D;stroke-width:1.2991;stroke-linecap:round;stroke-linejoin:round;stroke-miterlimit:10;}
	
		.st118{clip-path:url(#SVGID_103_);fill:none;stroke:#575A6D;stroke-width:0.9993;stroke-linecap:round;stroke-linejoin:round;stroke-miterlimit:10;}
	
		.st119{clip-path:url(#SVGID_105_);fill:none;stroke:#575A6D;stroke-width:1.2991;stroke-linecap:round;stroke-linejoin:round;stroke-miterlimit:10;}
	
		.st120{clip-path:url(#SVGID_105_);fill:none;stroke:#575A6D;stroke-width:0.9993;stroke-linecap:round;stroke-linejoin:round;stroke-miterlimit:10;}
	
		.st121{clip-path:url(#SVGID_107_);fill:none;stroke:#575A6D;stroke-width:1.2991;stroke-linecap:round;stroke-linejoin:round;stroke-miterlimit:10;}
	
		.st122{clip-path:url(#SVGID_107_);fill:none;stroke:#575A6D;stroke-width:0.9993;stroke-linecap:round;stroke-linejoin:round;stroke-miterlimit:10;}
	
		.st123{clip-path:url(#SVGID_109_);fill:none;stroke:#575A6D;stroke-width:1.2991;stroke-linecap:round;stroke-linejoin:round;stroke-miterlimit:10;}
	
		.st124{clip-path:url(#SVGID_109_);fill:none;stroke:#575A6D;stroke-width:0.9993;stroke-linecap:round;stroke-linejoin:round;stroke-miterlimit:10;}
	.st125{fill:none;stroke:#575A6D;stroke-width:0.9993;stroke-linecap:round;stroke-linejoin:round;stroke-miterlimit:10;}
	.st126{fill:#828397;}
	.st127{fill:none;stroke:#575A6D;stroke-width:0.5;stroke-linecap:round;stroke-linejoin:round;stroke-miterlimit:10;}
	.st128{fill:none;stroke:#575A6D;stroke-width:0.4035;stroke-miterlimit:10;}
	.st129{fill:none;stroke:#575A6D;stroke-width:0.4035;stroke-linecap:round;stroke-linejoin:round;stroke-miterlimit:10;}
	.st130{fill:#F7F0EA;stroke:#575A6D;stroke-width:2.031;stroke-miterlimit:10;}
	.st131{fill:#7D7F91;stroke:#575A6D;stroke-width:2.6;stroke-linecap:round;stroke-linejoin:round;stroke-miterlimit:10;}
	.st132{fill:none;stroke:#575A6D;stroke-width:1.9379;stroke-miterlimit:10;}
	.st133{clip-path:url(#SVGID_151_);}
	.st134{clip-path:url(#SVGID_153_);}
	.st135{clip-path:url(#SVGID_155_);}
	.st136{clip-path:url(#SVGID_157_);}
	.st137{fill:#E27960;}
	.st138{fill:#575A6D;stroke:#575A6D;stroke-width:1.264;stroke-miterlimit:10;}
	.st139{fill:none;stroke:#575A6D;stroke-width:1.264;stroke-miterlimit:10;}
	.st140{fill:#F7F0EA;stroke:#575A6D;stroke-width:2.6129;stroke-miterlimit:10;}
	.st141{fill:none;stroke:#575A6D;stroke-width:8;stroke-miterlimit:10;}
	.st142{clip-path:url(#SVGID_159_);}
	.st143{clip-path:url(#SVGID_161_);}
	.st144{clip-path:url(#SVGID_163_);}
	.st145{clip-path:url(#SVGID_165_);}
	.st146{fill:none;stroke:#575A6D;stroke-width:2.493;stroke-miterlimit:10;}
	.st147{fill:#FDD485;}
	.st148{fill:#FBD0C6;}
	.st149{fill:#866359;}
	.st150{fill:none;stroke:#212226;stroke-width:1.9841;stroke-linecap:round;stroke-linejoin:round;stroke-miterlimit:10;}
	.st151{fill:#EB9485;stroke:#212226;stroke-width:1.9841;stroke-linecap:round;stroke-linejoin:round;stroke-miterlimit:10;}
	.st152{fill:#212226;stroke:#212226;stroke-width:1.9841;stroke-linecap:round;stroke-linejoin:round;stroke-miterlimit:10;}
	.st153{clip-path:url(#SVGID_167_);}
	.st154{clip-path:url(#SVGID_169_);}
	.st155{clip-path:url(#SVGID_171_);}
	.st156{clip-path:url(#SVGID_173_);}
	.st157{fill:#53B777;}
	.st158{fill:#FBD3CC;}
	.st159{fill:#885E4D;}
	.st160{fill:none;stroke:#212226;stroke-width:1.1762;stroke-linecap:round;stroke-linejoin:round;stroke-miterlimit:10;}
	.st161{fill:none;stroke:#212226;stroke-width:1.7592;stroke-linecap:round;stroke-linejoin:round;stroke-miterlimit:10;}
	.st162{clip-path:url(#SVGID_175_);}
	.st163{clip-path:url(#SVGID_177_);}
	.st164{clip-path:url(#SVGID_179_);}
	.st165{clip-path:url(#SVGID_181_);}
	.st166{fill:#231815;stroke:#1D1115;stroke-width:2.0318;stroke-linecap:round;stroke-linejoin:round;stroke-miterlimit:10;}
	.st167{fill:#C79E93;}
	.st168{fill:#FFDBA5;}
	.st169{fill:#C89F96;}
	.st170{fill:none;stroke:#1D1115;stroke-width:2.1549;stroke-linecap:round;stroke-linejoin:round;stroke-miterlimit:10;}
	.st171{fill:#1D1115;stroke:#1D1115;stroke-width:2.1549;stroke-linecap:round;stroke-linejoin:round;stroke-miterlimit:10;}
	.st172{fill:#7D7F91;stroke:#575A6D;stroke-width:1.6112;stroke-linecap:round;stroke-linejoin:round;stroke-miterlimit:10;}
	.st173{clip-path:url(#SVGID_183_);}
	.st174{fill:#E27960;stroke:#575A6D;stroke-width:3;stroke-miterlimit:10;}
	.st175{fill:#575A6D;stroke:#575A6D;stroke-width:0.824;stroke-miterlimit:10;}
	.st176{fill:none;stroke:#575A6D;stroke-width:0.824;stroke-miterlimit:10;}
	.st177{fill:none;stroke:#212226;stroke-width:0.9867;stroke-linecap:round;stroke-linejoin:round;stroke-miterlimit:10;}
	.st178{fill:#EB9485;stroke:#212226;stroke-width:0.9867;stroke-linecap:round;stroke-linejoin:round;stroke-miterlimit:10;}
	.st179{fill:#212226;stroke:#212226;stroke-width:0.9867;stroke-linecap:round;stroke-linejoin:round;stroke-miterlimit:10;}
	.st180{clip-path:url(#SVGID_185_);}
	.st181{clip-path:url(#SVGID_187_);}
	.st182{fill:#231815;stroke:#1D1115;stroke-width:1.1799;stroke-linecap:round;stroke-linejoin:round;stroke-miterlimit:10;}
	.st183{fill:none;stroke:#212226;stroke-width:0.6742;stroke-linecap:round;stroke-linejoin:round;stroke-miterlimit:10;}
	.st184{fill:none;stroke:#212226;stroke-width:1.0083;stroke-linecap:round;stroke-linejoin:round;stroke-miterlimit:10;}
	.st185{fill:none;stroke:#1D1115;stroke-width:1.2208;stroke-linecap:round;stroke-linejoin:round;stroke-miterlimit:10;}
	.st186{fill:#1D1115;stroke:#1D1115;stroke-width:1.2208;stroke-linecap:round;stroke-linejoin:round;stroke-miterlimit:10;}
	.st187{fill:#63632C;}
	.st188{fill:#006358;}
	.st189{fill:#A3703C;}
	.st190{fill:#BCEE3B;}
	.st191{clip-path:url(#SVGID_189_);fill:#7A5233;}
	.st192{clip-path:url(#SVGID_189_);}
	.st193{fill:#54453C;}
	.st194{fill:#37312D;}
	.st195{fill:#0D474B;}
	.st196{fill:#00714B;}
	.st197{fill:#88E02C;}
	.st198{fill:#00A664;}
	.st199{fill:#55C117;}
	.st200{fill:none;stroke:#000000;stroke-width:1.3;stroke-miterlimit:10;}
	.st201{fill:#202345;}
	.st202{fill:#FABFBF;}
	.st203{fill:#FFFFFF;stroke:#1D1115;stroke-width:1.3;stroke-linecap:round;stroke-linejoin:round;stroke-miterlimit:10;}
	.st204{fill:#593E29;}
	.st205{fill:none;stroke:#212226;stroke-width:1.3;stroke-linecap:round;stroke-linejoin:round;stroke-miterlimit:10;}
	.st206{fill:#231815;stroke:#1D1115;stroke-width:1.3;stroke-linecap:round;stroke-linejoin:round;stroke-miterlimit:10;}
	.st207{fill:#DECEC5;stroke:#1D1115;stroke-width:2.253;stroke-miterlimit:10;}
	.st208{fill:#F5E4D5;stroke:#1D1115;stroke-width:2.253;stroke-miterlimit:10;}
	.st209{fill:#E0A377;stroke:#1D1115;stroke-width:2.253;stroke-miterlimit:10;}
	.st210{fill:#DECEC5;stroke:#1D1115;stroke-width:1.3;stroke-miterlimit:10;}
	.st211{fill:#F5E4D5;stroke:#1D1115;stroke-width:1.3;stroke-miterlimit:10;}
	.st212{fill:#E0A377;stroke:#1D1115;stroke-width:1.3;stroke-miterlimit:10;}
</style>
<g>
	<path class="st203" d="M361,122.5c0,0,3.5-9.4-7.5-11.2c0,0,2.2-12.2-11.2-13.3c0,0-1.2-9-11-7c0,0-2.2-8.3-10.7-5.3
		c0,0-5.4-6.4-11.1,0.7c-5.7,7.2-2.8,13.1-0.5,13.8c0,0-9.4,1-6.8,11.2c0,0-9.2-4-12.5,6.9c0,0-15.3-1.8-9,16s24.8,8.9,24.8,8.9
		s-3.8,11.7,8.6,15.1c0,0-3.7,9.8,7.5,12.2c0,0,3,7.7,13,1.7c0,0,14.8,9.9,25.3-4.7c0,0,23.6,8.1,38.4-6.5c0,0,20.2,4.9,25.1-9.7
		c0,0,8.1-8.2,1.7-13c0,0-6.2-16.8-22.7-12.9c0,0-0.6-5.9-10.2-7c-9.7-1.1-13.9,1.8-13.9,2.8C377.9,122.1,373.4,114.4,361,122.5z"/>
	<path class="st203" d="M133.1,151.2c0,0,2.2,9.8,12.4,5.2c0,0,4.8,11.4,16.6,5c0,0,5.9,6.9,13.1-0.1c0,0,6.4,5.7,11.8-1.4
		c0,0,8,2.4,8.9-6.7c0.9-9.1-4.8-12.5-7.1-11.8c0,0,7.3-6-0.4-13.1c0,0,9.9-1.6,6.7-12.6c0,0,13.8-6.9-1.2-18.3
		c-15-11.4-25.6,6.1-25.6,6.1s-3.3-11.9-15.4-8c0,0-2.3-10.2-12.9-6.1c0,0-6.7-4.8-11.8,5.7c0,0-17.8-0.2-18.6,17.8
		c0,0-24.2,6.1-28.5,26.4c0,0-19.6,7-15.7,21.9c0,0-2.3,11.3,5.7,11.8c0,0,14.3,10.7,26-1.6c0,0,3.7,4.6,12.4,0.3s10.6-9.1,10.1-9.9
		C119.1,160.7,127.1,164.7,133.1,151.2z"/>
	<path class="st203" d="M231.4,163.6c0,0-3.1,9.5,8,10.9c0,0-1.7,12.2,11.7,12.8c0,0,1.6,8.9,11.3,6.6c0,0,2.5,8.2,10.9,4.9
		c0,0,5.6,6.2,11.1-1.2c5.4-7.4,2.3-13.2,0-13.8c0,0,9.3-1.4,6.4-11.5c0,0,9.3,3.7,12.2-7.4c0,0,15.4,1.2,8.4-16.3
		c-7-17.5-25.1-8-25.1-8s3.3-11.9-9.1-14.8c0,0,3.3-9.9-8-11.9c0,0-3.3-7.6-13-1.2c0,0-15.2-9.3-25.1,5.6c0,0-23.9-7.2-38.1,8
		c0,0-20.4-4.1-24.7,10.7c0,0-7.8,8.6-1.2,13c0,0,6.8,16.5,23.1,12.1c0,0,0.8,5.8,10.5,6.6c9.7,0.8,13.8-2.3,13.8-3.3
		C214.5,164.6,219.4,172.1,231.4,163.6z"/>
	<path class="st203" d="M426.4,133.1c0,0-3.1,9.5,8,10.9c0,0-1.7,12.2,11.7,12.8c0,0,1.6,8.9,11.3,6.6c0,0,2.5,8.2,10.9,4.9
		c0,0,5.6,6.2,11.1-1.2c5.4-7.4,2.3-13.2,0-13.8c0,0,9.3-1.4,6.4-11.5c0,0,9.3,3.7,12.2-7.4c0,0,15.4,1.2,8.4-16.3s-25.1-8-25.1-8
		s3.3-11.9-9.1-14.8c0,0,3.3-9.9-8-11.9c0,0-3.3-7.6-13-1.2c0,0-15.2-9.3-25.1,5.6c0,0-23.9-7.2-38.1,8c0,0-20.4-4.1-24.7,10.7
		c0,0-7.8,8.6-1.2,13c0,0,6.8,16.5,23.1,12.1c0,0,0.8,5.8,10.5,6.6c9.7,0.8,13.8-2.3,13.8-3.3S414.3,141.7,426.4,133.1z"/>
	<path class="st203" d="M103.2,143c0,0,8.5-5.3,0.9-13.5c0,0,9.2-8.3-0.7-17.3c0,0,4.5-7.9-4.4-12.3c0,0,3.3-7.9-5.2-10.7
		c0,0-0.3-8.4-9.3-6.2c-8.9,2.2-10.3,8.7-8.8,10.6c0,0-8-4.9-12.3,4.7c0,0-4.8-8.8-14.1-2.2c0,0-11-10.7-16.9,7.2
		s14.1,22.2,14.1,22.2s-10.1,7-2.5,17.2c0,0-8.9,5.5-1.5,14.2c0,0-2.3,7.9,9.3,9.2c0,0,5.7,16.9,22.9,11.7c0,0,13.7,20.8,34.3,18.3
		c0,0,13.1,16.2,25.8,7.6c0,0,11.4-1.6,9.2-9.3c0,0,5.4-17-10-24.1c0,0,3.1-5-3.8-11.8c-7-6.8-12.1-7.1-12.7-6.3
		C116.8,153.1,118,144.1,103.2,143z"/>
	<g>
		<path class="st202" d="M406.9,23.2c3.2,1.9,6.1,9.1,6.3,13.7c0.3,4.6,0.2,12-0.1,15.4c-0.3,3.3-2.3,14.8,5.9,16.9
			c8.2,2.1,5.4,1.4,5.4,1.4s-1.3,11.9,0.8,16.8c2.2,4.9,3.5,9.9,19.8,15.2c0,0,12,2.3,11,21.6c0,0,15.8,19,25.6,21.8
			c9.9,2.8-16.4,26.9-16.4,26.9l-152.1-1.4l1.2-28.4c0,0,18.1,1.7,21.8,1.6c3.7-0.2,15.8-3.7,23.4-12.6s26.5-21.6,27.7-22.2
			c1.2-0.6,10.5-6.4,27.6-4.6c0,0-1.1-17-12.6-19l-6-1.1l-6.9-1.6l-2-1.7c0,0,0.7-3.4,0.9-4.5c0-0.2,0.1-0.3,0.1-0.5
			c0.1-2,1-16,2.6-14.9l-3.3-3c0,0-2.2-5,2.4-6.3c4.6-1.3,4.8-4.1,4.8-4.1l0.5-7.8l0.5-4.9C395.8,35.8,403.7,21.3,406.9,23.2z"/>
		<path class="st204" d="M389.9,52.2c0,0-5.3-12.6,0.4-20.6c5.8-8,7.5-13.2,15.3-15.2c7.7-2,19.9-4.6,27-2.8s20.1,4.3,26.4,23.9
			c6.3,19.6,7.3,33.8,7.3,33.8s3.2,17.8,11.6,21.8s-0.6,24.4-1.7,26.8c-1.1,2.4-4.8,9.9-4.5,14c0.3,4.2,10,11.6,11,11.9
			c1,0.3-11-1.1-15.8-5.1s-10.5-11.1-10.8-16.6c-0.3-5.6-1.2-12.1-2.8-14.6c-1.5-2.4-5.5-7.1-13.5-9.2c-8-2.1-12.9-7.4-13.9-11.1
			c-1.1-3.7-1.8-19-1.8-19s-10.3,1.4-11.4-11.3l0.8-9.6l0.1-9c0,0-1.2-11.6-4-14.4s-3.8-4.5-8,0.9s-5.6,8.7-5.6,8.7s-1,6.7-0.9,9
			c0.1,2.4-2.6,7.5-4.2,7.7C389.4,52.4,389.9,52.2,389.9,52.2z"/>
		<path class="st205" d="M389.4,51.7c0,0-8.9-17.8,10.8-29.6"/>
		<path class="st205" d="M401.5,17.8c0,0,31.2-13,48.6,4.2s10.8,58.3,26.4,69.8s-10.8,37.6-3.5,45.7c7.3,8.1,9.6,8.2,9.6,8.2"/>
		<path class="st205" d="M420.3,31.6c0,0,5.7,3.9,3.9,35.8c-1.8,31.9,7.3,28,24.2,36.7c8.4,4.3,7.8,20,7.8,20"/>
		<path class="st205" d="M433.8,70.1c0,0-1.6,14.2,12,25.8"/>
		<path class="st205" d="M462.4,88.8c0,0,10,9.2,1.5,36.7c-4,13.2,4.2,15.8,4.2,15.8"/>
		<path class="st205" d="M404.1,22c0,0,12.6,0.9,8.7,32.4C411,69.3,419,69.1,419,69.1"/>
		<path class="st205" d="M402.3,26.2c0,0-8.8,6.1-7.2,18.9c1,7.8-7.9,6.7-8.2,10.8c-0.4,4.1,4,6.1,4,6.1"/>
		<path class="st205" d="M388.5,73c0,0,0.3,4.1-0.8,6c-1.1,1.9-0.1,6.2,9.1,6.2c9.3,0,18.4,9.6,18.1,20.1"/>
		<path class="st205" d="M388.5,67c0,0,4.7,4.8,12.6,2.5"/>
		<path class="st205" d="M405.7,105.3c0,0-15.7-3.2-40.1,21s-31.2,17.6-31.2,17.6"/>
		<path class="st205" d="M397.2,39.7c0,0,6.4-0.9,8.8,4.4"/>
		<path class="st205" d="M399.6,46.3c0,0,5.4,1.2,6,6"/>
		<g>
			<ellipse class="st206" cx="400.9" cy="51.3" rx="1.4" ry="2.3"/>
		</g>
		<g>
			<path class="st202" d="M50.3,88.3c0,0-6.5-12.7-14-9.1c0,0-2.5,0.9-2.4,3.5c0,0-3.8,2.4-1.6,6.4c0,0-1.2,2.9-0.5,4.3
				c0.7,1.5-0.4,5,0.8,8.4c1.2,3.4,4.3,11.5,6.3,13.6c2.1,2.1,8.4,6.1,8.4,6.1l3.4,5.1c0,0,5.4,14.7,11.3,19.3
				c0,0,6.1,10.2,17.3,2.2c0,0,6.9-6.2,10.7-5c3.8,1.2,32.6,8.8,38.1,9.8s39.8,5.7,47.1,2.7c7.3-3,6.9-32.8,6.9-32.8
				s-30.1-2.2-48.9-7.1c-18.9-5-21.9-7.6-32.8-14.3S75.9,86.2,71.9,81.8c-4-4.4-5.7-8.2-5.7-8.2s-4.2-9-8.9-6.9l-0.9,1.9
				c0,0-2.7,0.1-2.4,6.3c0.3,6.1,1.6,9.1,1.6,9.1l3,10.2l4.6,7.8l6,4.3c0,0,5.8,7.9,5.9,10.2c0.1,2.4-4.6-3.2-4.6-3.2l-9-9.6
				L51.3,90L50.3,88.3z"/>
			<g>
				<path class="st39" d="M85.9,122.9c0,0-10.2,0.6-32.2-28.9c-3.6-4.8-6.3-14.2-14.7-15.8c-5-1,0.4,2.9,4.4,8.5"/>
				<path class="st39" d="M41.5,90.7c0,0-4.7-7.7-6.8-8.4c-2.1-0.7,0.4-3.9,2.7-3"/>
				<path class="st39" d="M39.7,95c0,0-1.3-6.5-3.9-6.7s-5.2,1.2-4.1,5"/>
				<path class="st39" d="M33.8,82.6c0,0-3.9,1.8-2,5.4"/>
				<path class="st39" d="M33.1,95.7c0,0,7.6-1.5,6.2,5.2"/>
				<path class="st39" d="M32.2,99c0,0,2.4,16.1,11.5,20.2c9.1,4.1,5.9,12,15.3,23.4c8,9.7,13,12.6,24.1,2.3"/>
				<path class="st39" d="M88.1,142.5c0,0,73.5,25.2,101.4,8.3c15.5-9.4,16.4-3.1,16.4-3.1"/>
				<path class="st39" d="M91,123.5c0,0,49,10.5,64,7.9c15-2.6,49.1,4.4,53.8,6"/>
				<path class="st39" d="M105.8,104.7c0,0-36.4-20.1-39.2-29.7c-2.7-9.6-9.8-8.6-9.8-7.7"/>
				<path class="st39" d="M54.8,70c0,0,3.5-4.7,5.2,1.8"/>
				<path class="st39" d="M54.6,77c0,0-2.6-7,3.5-4.9c3.1,1,2.5,4.9,2.5,4.9"/>
				<path class="st39" d="M63.9,86.3c0,0-1.8-0.7-1.8-7.2c0-3.6-8.6-3.6-7.6,0.4c1.4,5.7,2.8,11.8,3.6,13.7c3.5,8.5,5,9.4,11.1,13.1
					c2.8,1.7,5.9,10.2,5.9,10.2"/>
				<path class="st39" d="M114.1,129.9c0,0,23.5,0.7,44.8,9.8s37.1,3.8,37.1,3.8"/>
				<path class="st39" d="M108.9,106.8c0,0,28.9,14.4,75.6,16.1"/>
			</g>
		</g>
		<g>
			<path class="st210" d="M503.3,137.8h-473c-4.2,0-7.6-3.4-7.6-7.6v0c0-4.2,3.4-7.6,7.6-7.6h473c4.2,0,7.6,3.4,7.6,7.6v0
				C510.8,134.4,507.4,137.8,503.3,137.8z"/>
			<path class="st211" d="M400.7,264.8h-263c-56,0-101.4-45.4-101.4-101.4v-25.6h465.9v25.6C502.1,219.4,456.7,264.8,400.7,264.8z"
				/>
			<path class="st212" d="M410.5,261.5c-4.1-3.9-3.8-9.6-0.3-13.9c4-4.7,11.3-10,22.8-5c14.2,6.1-2.3,34.4,14.6,41.4
				c11.1,4.6-2.1,5.3-7.5,5c-5.4-0.3-13.1-19.1-19.3-21.7C417.1,265.8,413.3,264.2,410.5,261.5z"/>
			<path class="st212" d="M129.8,261.5c4.1-3.9,3.8-9.6,0.3-13.9c-4-4.7-11.3-10-22.8-5c-14.2,6.1,2.3,34.4-14.6,41.4
				c-11.1,4.6,2.1,5.3,7.5,5c5.4-0.3,13.1-19.1,19.3-21.7C123.1,265.8,127,264.2,129.8,261.5z"/>
		</g>
	</g>
</g>
</svg>
