<?xml version="1.0" encoding="utf-8"?>
<!-- Generator: Adobe Illustrator 24.3.0, SVG Export Plug-In . SVG Version: 6.00 Build 0)  -->
<svg version="1.1" id="圖層_1" xmlns="http://www.w3.org/2000/svg" xmlns:xlink="http://www.w3.org/1999/xlink" x="0px" y="0px"
	 viewBox="0 0 459.5 253.3" style="enable-background:new 0 0 459.5 253.3;" xml:space="preserve">
<style type="text/css">
	.st0{fill:#7D7F91;}
	.st1{fill:none;stroke:#575A6D;stroke-width:1.3;stroke-miterlimit:10;}
	.st2{fill:#F7F0EA;stroke:#575A6D;stroke-width:3;stroke-miterlimit:10;}
	.st3{opacity:0.4;fill:url(#SVGID_1_);}
	.st4{opacity:0.4;fill:url(#SVGID_2_);}
	.st5{fill:#FA5560;stroke:#FA5560;stroke-width:15;stroke-linecap:round;stroke-linejoin:round;stroke-miterlimit:10;}
	.st6{fill:#FEE48B;}
	.st7{fill:#FA5560;stroke:#FA5560;stroke-width:21.3573;stroke-linecap:round;stroke-linejoin:round;stroke-miterlimit:10;}
	.st8{clip-path:url(#SVGID_4_);}
	.st9{fill:#E2C179;}
	.st10{clip-path:url(#SVGID_6_);}
	.st11{clip-path:url(#SVGID_8_);}
	.st12{clip-path:url(#SVGID_10_);}
	.st13{clip-path:url(#SVGID_12_);}
	.st14{clip-path:url(#SVGID_14_);}
	.st15{clip-path:url(#SVGID_16_);}
	.st16{fill:#FA5560;stroke:#E4463B;stroke-width:23.0455;stroke-linecap:round;stroke-linejoin:round;stroke-miterlimit:10;}
	.st17{clip-path:url(#SVGID_18_);}
	.st18{clip-path:url(#SVGID_20_);}
	.st19{clip-path:url(#SVGID_22_);}
	.st20{clip-path:url(#SVGID_24_);}
	.st21{clip-path:url(#SVGID_26_);}
	.st22{clip-path:url(#SVGID_28_);}
	.st23{clip-path:url(#SVGID_30_);}
	.st24{fill:none;stroke:#575A6D;stroke-width:1.3;stroke-linecap:round;stroke-linejoin:round;stroke-miterlimit:10;}
	.st25{fill:none;stroke:#575A6D;stroke-width:1.6182;stroke-miterlimit:10;}
	.st26{fill:none;stroke:#575A6D;stroke-width:2;stroke-miterlimit:10;}
	.st27{fill:#575A6D;}
	.st28{fill:#575A6D;stroke:#575A6D;stroke-width:1.3;stroke-linecap:round;stroke-linejoin:round;stroke-miterlimit:10;}
	.st29{fill:none;}
	.st30{clip-path:url(#SVGID_32_);}
	.st31{fill:none;stroke:#575A6D;stroke-width:1.6344;stroke-miterlimit:10;}
	.st32{fill:#694C52;}
	.st33{clip-path:url(#SVGID_34_);}
	.st34{fill:none;stroke:#575A6D;stroke-width:0.7;stroke-linecap:round;stroke-linejoin:round;stroke-miterlimit:10;}
	.st35{fill:#FFFFFF;}
	.st36{fill:#E2E2E2;}
	.st37{fill:#F1C080;}
	.st38{fill:#F29B9A;}
	.st39{fill:none;stroke:#1D1115;stroke-width:1.3;stroke-linecap:round;stroke-linejoin:round;stroke-miterlimit:10;}
	.st40{fill:#F29B9A;stroke:#1D1115;stroke-width:1.3;stroke-linecap:round;stroke-linejoin:round;stroke-miterlimit:10;}
	.st41{fill:#82827E;stroke:#1D1115;stroke-width:1.3;stroke-linecap:round;stroke-linejoin:round;stroke-miterlimit:10;}
	.st42{fill:#232326;}
	.st43{fill:#C1B680;stroke:#575A6D;stroke-width:1.3;stroke-miterlimit:10;}
	.st44{fill:#FFE8D9;}
	.st45{fill:#DBD8D5;}
	.st46{fill:#F7F0EA;}
	.st47{fill:#313C36;}
	.st48{fill:#FBFBFD;}
	.st49{fill:#AF8C7E;}
	.st50{fill:#231815;stroke:#1D1115;stroke-width:2;stroke-linecap:round;stroke-linejoin:round;stroke-miterlimit:10;}
	.st51{fill:#ADA49E;}
	.st52{fill:#EDE3DD;}
	.st53{fill:#3B4941;}
	.st54{fill:#1D1115;}
	.st55{fill:#EAEAEA;stroke:#1D1115;stroke-width:0.521;stroke-linecap:round;stroke-linejoin:round;stroke-miterlimit:10;}
	.st56{fill:#4C4C4C;stroke:#1D1115;stroke-width:0.3721;stroke-miterlimit:10;}
	.st57{fill:#C1C1C1;stroke:#1D1115;stroke-width:0.521;stroke-miterlimit:10;}
	.st58{fill:none;stroke:#1D1115;stroke-width:1.3;stroke-linecap:round;stroke-miterlimit:10;}
	.st59{fill:#FFE8D9;stroke:#1D1115;stroke-width:1.3;stroke-linecap:round;stroke-linejoin:round;stroke-miterlimit:10;}
	.st60{fill:#912424;}
	.st61{fill:#8F3E38;stroke:#1D1115;stroke-width:1.312;stroke-miterlimit:10;}
	.st62{clip-path:url(#SVGID_36_);fill:none;stroke:#575A6D;stroke-width:1.3;stroke-miterlimit:10;}
	.st63{clip-path:url(#SVGID_36_);fill:#7D7F91;}
	.st64{opacity:0.4;clip-path:url(#SVGID_36_);fill:url(#SVGID_37_);}
	
		.st65{clip-path:url(#SVGID_36_);fill:none;stroke:#575A6D;stroke-width:1.3;stroke-linecap:round;stroke-linejoin:round;stroke-miterlimit:10;}
	.st66{clip-path:url(#SVGID_36_);}
	
		.st67{clip-path:url(#SVGID_36_);fill:none;stroke:#1D1115;stroke-width:1.3;stroke-linecap:round;stroke-linejoin:round;stroke-miterlimit:10;}
	.st68{clip-path:url(#SVGID_36_);fill:none;}
	.st69{clip-path:url(#SVGID_36_);fill:none;stroke:#575A6D;stroke-width:1.6344;stroke-miterlimit:10;}
	
		.st70{clip-path:url(#SVGID_36_);fill:#575A6D;stroke:#575A6D;stroke-width:1.3;stroke-linecap:round;stroke-linejoin:round;stroke-miterlimit:10;}
	.st71{fill:#FAC0BF;}
	.st72{fill:none;stroke:#1D1115;stroke-width:2;stroke-linecap:round;stroke-linejoin:round;stroke-miterlimit:10;}
	.st73{fill:#8E563B;}
	.st74{fill:#EC9898;stroke:#1D1115;stroke-width:2;stroke-linecap:round;stroke-linejoin:round;stroke-miterlimit:10;}
	.st75{fill:#F7F0EA;stroke:#1D1115;stroke-width:2;stroke-linecap:round;stroke-linejoin:round;stroke-miterlimit:10;}
	.st76{clip-path:url(#SVGID_36_);fill:#C1B680;stroke:#575A6D;stroke-width:1.3;stroke-miterlimit:10;}
	.st77{fill:#F7F7F7;stroke:#1D1115;stroke-width:2.1832;stroke-linecap:round;stroke-linejoin:round;stroke-miterlimit:10;}
	.st78{fill:#FFFFFF;stroke:#1D1115;stroke-width:2.1832;stroke-linecap:round;stroke-linejoin:round;stroke-miterlimit:10;}
	.st79{fill:none;stroke:#1D1115;stroke-width:2.7785;stroke-linecap:round;stroke-linejoin:round;stroke-miterlimit:10;}
	.st80{fill:#8F3E38;stroke:#1D1115;stroke-width:2.1832;stroke-miterlimit:10;}
	
		.st81{clip-path:url(#SVGID_36_);fill:none;stroke:#232326;stroke-width:1.3;stroke-linecap:round;stroke-linejoin:round;stroke-miterlimit:10;}
	.st82{fill:#606372;}
	.st83{fill:#575A6D;stroke:#575A6D;stroke-width:0.6901;stroke-miterlimit:10;}
	.st84{fill:none;stroke:#575A6D;stroke-width:5;stroke-miterlimit:10;}
	.st85{clip-path:url(#SVGID_39_);}
	.st86{fill:#B24242;}
	.st87{clip-path:url(#SVGID_41_);}
	.st88{clip-path:url(#SVGID_43_);}
	.st89{clip-path:url(#SVGID_45_);}
	.st90{clip-path:url(#SVGID_47_);}
	.st91{clip-path:url(#SVGID_49_);}
	.st92{clip-path:url(#SVGID_51_);}
	.st93{clip-path:url(#SVGID_53_);}
	.st94{clip-path:url(#SVGID_55_);}
	.st95{clip-path:url(#SVGID_57_);}
	.st96{clip-path:url(#SVGID_59_);}
	.st97{fill:none;stroke:#575A6D;stroke-linecap:round;stroke-linejoin:round;stroke-miterlimit:10;}
	.st98{fill:none;stroke:#575A6D;stroke-width:1.6344;stroke-linecap:round;stroke-linejoin:round;stroke-miterlimit:10;}
	.st99{fill:none;stroke:#575A6D;stroke-width:0.5705;stroke-miterlimit:10;}
	.st100{fill:none;stroke:#575A6D;stroke-width:0.3072;stroke-linecap:round;stroke-linejoin:round;stroke-miterlimit:10;}
	.st101{fill:none;stroke:#232326;stroke-width:1.3;stroke-linecap:round;stroke-linejoin:round;stroke-miterlimit:10;}
	.st102{fill:none;stroke:#575A6D;stroke-width:1.6995;stroke-linecap:round;stroke-linejoin:round;stroke-miterlimit:10;}
	.st103{fill:none;stroke:#575A6D;stroke-width:1.7979;stroke-miterlimit:10;}
	.st104{fill:none;stroke:#575A6D;stroke-width:1.7979;stroke-linecap:round;stroke-linejoin:round;stroke-miterlimit:10;}
	.st105{fill:none;stroke:#575A6D;stroke-width:1.4024;stroke-linecap:round;stroke-linejoin:round;stroke-miterlimit:10;}
	.st106{fill:none;stroke:#575A6D;stroke-width:1.4;stroke-linecap:round;stroke-linejoin:round;stroke-miterlimit:10;}
	.st107{fill:#948962;}
	.st108{fill:#99B4C9;}
	.st109{fill:#FFBC57;}
	.st110{fill:#FD8B8A;}
	.st111{fill:#F8EFEA;}
	.st112{fill:#E8AE56;}
	.st113{fill:#E7B383;}
	.st114{fill:#FFE6D0;}
	
		.st115{clip-path:url(#SVGID_101_);fill:none;stroke:#575A6D;stroke-width:1.2991;stroke-linecap:round;stroke-linejoin:round;stroke-miterlimit:10;}
	
		.st116{clip-path:url(#SVGID_101_);fill:none;stroke:#575A6D;stroke-width:0.9993;stroke-linecap:round;stroke-linejoin:round;stroke-miterlimit:10;}
	
		.st117{clip-path:url(#SVGID_103_);fill:none;stroke:#575A6D;stroke-width:1.2991;stroke-linecap:round;stroke-linejoin:round;stroke-miterlimit:10;}
	
		.st118{clip-path:url(#SVGID_103_);fill:none;stroke:#575A6D;stroke-width:0.9993;stroke-linecap:round;stroke-linejoin:round;stroke-miterlimit:10;}
	
		.st119{clip-path:url(#SVGID_105_);fill:none;stroke:#575A6D;stroke-width:1.2991;stroke-linecap:round;stroke-linejoin:round;stroke-miterlimit:10;}
	
		.st120{clip-path:url(#SVGID_105_);fill:none;stroke:#575A6D;stroke-width:0.9993;stroke-linecap:round;stroke-linejoin:round;stroke-miterlimit:10;}
	
		.st121{clip-path:url(#SVGID_107_);fill:none;stroke:#575A6D;stroke-width:1.2991;stroke-linecap:round;stroke-linejoin:round;stroke-miterlimit:10;}
	
		.st122{clip-path:url(#SVGID_107_);fill:none;stroke:#575A6D;stroke-width:0.9993;stroke-linecap:round;stroke-linejoin:round;stroke-miterlimit:10;}
	
		.st123{clip-path:url(#SVGID_109_);fill:none;stroke:#575A6D;stroke-width:1.2991;stroke-linecap:round;stroke-linejoin:round;stroke-miterlimit:10;}
	
		.st124{clip-path:url(#SVGID_109_);fill:none;stroke:#575A6D;stroke-width:0.9993;stroke-linecap:round;stroke-linejoin:round;stroke-miterlimit:10;}
	.st125{fill:none;stroke:#575A6D;stroke-width:0.9993;stroke-linecap:round;stroke-linejoin:round;stroke-miterlimit:10;}
	.st126{fill:#828397;}
	.st127{fill:none;stroke:#575A6D;stroke-width:0.5;stroke-linecap:round;stroke-linejoin:round;stroke-miterlimit:10;}
	.st128{fill:none;stroke:#575A6D;stroke-width:0.4035;stroke-miterlimit:10;}
	.st129{fill:none;stroke:#575A6D;stroke-width:0.4035;stroke-linecap:round;stroke-linejoin:round;stroke-miterlimit:10;}
	.st130{fill:#F7F0EA;stroke:#575A6D;stroke-width:2.031;stroke-miterlimit:10;}
	.st131{fill:#7D7F91;stroke:#575A6D;stroke-width:2.6;stroke-linecap:round;stroke-linejoin:round;stroke-miterlimit:10;}
	.st132{fill:none;stroke:#575A6D;stroke-width:1.9379;stroke-miterlimit:10;}
	.st133{clip-path:url(#SVGID_151_);}
	.st134{clip-path:url(#SVGID_153_);}
	.st135{clip-path:url(#SVGID_155_);}
	.st136{clip-path:url(#SVGID_157_);}
	.st137{fill:#E27960;}
	.st138{fill:#575A6D;stroke:#575A6D;stroke-width:1.264;stroke-miterlimit:10;}
	.st139{fill:none;stroke:#575A6D;stroke-width:1.264;stroke-miterlimit:10;}
	.st140{fill:#F7F0EA;stroke:#575A6D;stroke-width:2.6129;stroke-miterlimit:10;}
	.st141{fill:none;stroke:#575A6D;stroke-width:8;stroke-miterlimit:10;}
	.st142{clip-path:url(#SVGID_159_);}
	.st143{clip-path:url(#SVGID_161_);}
	.st144{clip-path:url(#SVGID_163_);}
	.st145{clip-path:url(#SVGID_165_);}
	.st146{fill:none;stroke:#575A6D;stroke-width:2.493;stroke-miterlimit:10;}
	.st147{fill:#FDD485;}
	.st148{fill:#FBD0C6;}
	.st149{fill:#866359;}
	.st150{fill:none;stroke:#212226;stroke-width:1.9841;stroke-linecap:round;stroke-linejoin:round;stroke-miterlimit:10;}
	.st151{fill:#EB9485;stroke:#212226;stroke-width:1.9841;stroke-linecap:round;stroke-linejoin:round;stroke-miterlimit:10;}
	.st152{fill:#212226;stroke:#212226;stroke-width:1.9841;stroke-linecap:round;stroke-linejoin:round;stroke-miterlimit:10;}
	.st153{clip-path:url(#SVGID_167_);}
	.st154{clip-path:url(#SVGID_169_);}
	.st155{clip-path:url(#SVGID_171_);}
	.st156{clip-path:url(#SVGID_173_);}
	.st157{fill:#53B777;}
	.st158{fill:#FBD3CC;}
	.st159{fill:#885E4D;}
	.st160{fill:none;stroke:#212226;stroke-width:1.1762;stroke-linecap:round;stroke-linejoin:round;stroke-miterlimit:10;}
	.st161{fill:none;stroke:#212226;stroke-width:1.7592;stroke-linecap:round;stroke-linejoin:round;stroke-miterlimit:10;}
	.st162{clip-path:url(#SVGID_175_);}
	.st163{clip-path:url(#SVGID_177_);}
	.st164{clip-path:url(#SVGID_179_);}
	.st165{clip-path:url(#SVGID_181_);}
	.st166{fill:#231815;stroke:#1D1115;stroke-width:2.0318;stroke-linecap:round;stroke-linejoin:round;stroke-miterlimit:10;}
	.st167{fill:#C79E93;}
	.st168{fill:#FFDBA5;}
	.st169{fill:#C89F96;}
	.st170{fill:none;stroke:#1D1115;stroke-width:2.1549;stroke-linecap:round;stroke-linejoin:round;stroke-miterlimit:10;}
	.st171{fill:#1D1115;stroke:#1D1115;stroke-width:2.1549;stroke-linecap:round;stroke-linejoin:round;stroke-miterlimit:10;}
	.st172{fill:#7D7F91;stroke:#575A6D;stroke-width:1.6112;stroke-linecap:round;stroke-linejoin:round;stroke-miterlimit:10;}
	.st173{clip-path:url(#SVGID_183_);}
	.st174{fill:#E27960;stroke:#575A6D;stroke-width:3;stroke-miterlimit:10;}
	.st175{fill:#575A6D;stroke:#575A6D;stroke-width:0.824;stroke-miterlimit:10;}
	.st176{fill:none;stroke:#575A6D;stroke-width:0.824;stroke-miterlimit:10;}
	.st177{fill:none;stroke:#212226;stroke-width:0.9867;stroke-linecap:round;stroke-linejoin:round;stroke-miterlimit:10;}
	.st178{fill:#EB9485;stroke:#212226;stroke-width:0.9867;stroke-linecap:round;stroke-linejoin:round;stroke-miterlimit:10;}
	.st179{fill:#212226;stroke:#212226;stroke-width:0.9867;stroke-linecap:round;stroke-linejoin:round;stroke-miterlimit:10;}
	.st180{clip-path:url(#SVGID_185_);}
	.st181{clip-path:url(#SVGID_187_);}
	.st182{fill:#231815;stroke:#1D1115;stroke-width:1.1799;stroke-linecap:round;stroke-linejoin:round;stroke-miterlimit:10;}
	.st183{fill:none;stroke:#212226;stroke-width:0.6742;stroke-linecap:round;stroke-linejoin:round;stroke-miterlimit:10;}
	.st184{fill:none;stroke:#212226;stroke-width:1.0083;stroke-linecap:round;stroke-linejoin:round;stroke-miterlimit:10;}
	.st185{fill:none;stroke:#1D1115;stroke-width:1.2208;stroke-linecap:round;stroke-linejoin:round;stroke-miterlimit:10;}
	.st186{fill:#1D1115;stroke:#1D1115;stroke-width:1.2208;stroke-linecap:round;stroke-linejoin:round;stroke-miterlimit:10;}
	.st187{fill:#63632C;}
	.st188{fill:#006358;}
	.st189{fill:#A3703C;}
	.st190{fill:#BCEE3B;}
	.st191{clip-path:url(#SVGID_189_);fill:#7A5233;}
	.st192{clip-path:url(#SVGID_189_);}
	.st193{fill:#54453C;}
	.st194{fill:#37312D;}
	.st195{fill:#0D474B;}
	.st196{fill:#00714B;}
	.st197{fill:#88E02C;}
	.st198{fill:#00A664;}
	.st199{fill:#55C117;}
	.st200{fill:none;stroke:#000000;stroke-width:1.3;stroke-miterlimit:10;}
</style>
<g>
	<path class="st147" d="M76.1,131.9l47.2,1c0,0,35.5,0.7,37.3-0.5c1.7-1.2,13.8-10.2,18.7-9.2c4.9,0.9,35.5,9.8,35.5,9.8
		s-2.1,14,1.1,18.1c3.2,4.1,5.6,12.2,16.1,13.1c10.5,0.9,24.9-3.1,26.5-4.1c1.5-1,9.2-4.2,9.4-8.4c0.1-4.1,2.2-19.4-1.2-23.7
		s8,6.5,8,6.5s9.2,5.7,18.7-1.6c0,0,10.6-5.2,20-1.6c9.4,3.5,11.9,7.4,11.9,7.4l29.7-0.4c0,0,10,0.9,12.1,4.7
		c0,0-46.3,4.3-52.3,13.4s-10,12.9-10,12.9l-141.3,0.2l-8.5-12c0,0-1.8-8.8-28.7-12.2S81.4,134,81.4,134L76.1,131.9z"/>
	<path class="st147" d="M399.2,129.5c0,0,6.1,4.1,7.8,5.3c1.7,1.2,9.1,7.2,11.1,9.3c2,2.2,5.3,6.4,6.2,9.1c0.8,2.6,2.9,9,0,11.2
		s-7,7.7-10.2,7.8s-4.1,1.2-1.6,3c2.6,1.8,13,0.4,13,0.4s21.8-4.8,23.3-12.6l4.6-9l-4.7-8.5l-6.6-8.4l-6.3-6.9l-9.4-1.4l-18.4-0.7
		l-7.1,0.5L399.2,129.5z"/>
	<path class="st147" d="M57.9,128c0,0-3.4-4.7-12.8-3.5s-18.6,1.8-20.7,3c-2.1,1.3-10.4,9.7-10.4,9.7s-6.2,10.5-6.9,13.1
		s-1.7,10.6,2,12.8s10.5,8.2,15.4,9.1c4.8,0.9,11.8,5.9,13.8,5.3c2-0.6,4.8-2.9,4.4-3.5s-8.5-3.3-8.5-3.3l-9.5-8.1l-4.9-10.4
		c0,0-3-8.1,4.1-11.9s19.3-8.8,19.3-8.8L57.9,128z"/>
	<path class="st148" d="M395.3,133.6c0,0,4.2-4.8,4.7-4.5c0.5,0.3,1.2,1,2.6,2.9c1.4,1.8,12.8,9,12.8,9s9.3,9.8,10,14.8
		c0.7,5-2.6,15.8-11.4,16.4s-33.1-0.7-33.1-0.7l-20.5-2.6l-14.3,0.5l-9.2,3.1l-0.2,8.8c0,0,1.1,22-12.8,21.8l1,2.8
		c0,0,1.2,5.1-8.1,3.8l-7.2-7.7l7.2,8.7c0,0,1.1,6.9-5.4,5.7c-6.4-1.3-6-2.7-6-2.7l-4.2-5l1.4,18.2l-2,18.3l-2.9,1.7l-3.2-2.5
		l-2.4-9.7l-1.1-28.7c0,0,1-3.1,0.6-6.8c-0.3-3.7,2.9-18.5,6.4-20.1c3.5-1.6,7.9-15,13.3-17.9c0,0,4.5-8.2,11.4-9.9
		c6.9-1.6,20.1-5.3,27.5-6.1s29.1-4.1,30.7-5.5C382.6,138.2,395.3,133.6,395.3,133.6z"/>
	<path class="st148" d="M22,158.6c0,0-8-14.9,2.3-18.3L41,132l11.5-2.8c0,0,20.9-0.2,29.7,5s32.3,9.7,32.3,9.7l28.1,4.8
		c0,0,9.5,2.5,13.7,9.8c4.2,7.3,11.6,15.9,11.6,15.9l10.7,14.3c0,0,2.7,8.6,1.7,15.5l1.5,16.5v19.1l-3.4,8.5l-3.2,0.9l-3.8-3.7
		l-1.8-35.8l-0.1-1.1c0,0-3.5,0.7-3.9,1c-0.4,0.3-6.8,3.5-6.8,3.5l-5.5-0.3l-6.2-5.7l-5-1c0,0-6.7-3.3-8.5-7.3
		c-1.8-4-4.6-17-4.1-20.1c0.5-3.2-0.9-3.4-5.7-3.6c-4.9-0.2-21.3,1.4-21.3,1.4s-44-0.1-45.6-0.3c-1.6-0.1-18.6-3.5-18.6-3.5
		L27,165.4L22,158.6z"/>
	<path class="st148" d="M235.1,30.3c0,0-7.5,9.4-19.2,10.7c0,0-12.2,9.8-13.5,15.1c-1.3,5.3,0.6,46.6,1.5,47
		c0.9,0.4,11.6,26.8,11.6,26.8s-1.9,8.4-1.9,9.3c0,0.9,1.1,18,10.1,21.8c9,3.8,22.9,4,27.9,1.2l11.9-4.4c0,0,6.9-7,5.6-14.9
		c-1.3-7.9-2.9-16.8-2.9-16.8l-4.4-4.4l7.3-13l-0.3-36.8l0.5-14.7c0,0-0.5-1-4.3-2.8c-3.7-1.8-9.2-3.6-10.6-4.2
		c-1.4-0.6-10.5-7.6-11.5-9C241.7,39.8,235.1,30.3,235.1,30.3z"/>
	<path class="st149" d="M194,138.7c0,0,17.7,0.8,19.3-3.3s2.2-6.9,2.2-6.9l-7.9-15.2L194,138.7z"/>
	<path class="st149" d="M232,4.3c0,0-19.1-2.9-32.1,24.4c-12.9,27.2-11.6,46.7-11.3,51.2c0.3,4.6,4.1,31.5-4,40.1
		c-8.1,8.6-7.9,11.8-0.8,11.3c7.1-0.5,1.4,8,5.6,7.9c4.2-0.1,15.6-1.7,16.3-9.7c0.7-8,1.4-17.6,1.4-17.6l-4.2-19.1l-1.4-22.7
		c0,0-2.3-13.1,4.9-20.5c7.2-7.3,11.4-10.5,17.4-11.2s11.2-8.2,11.2-8.2s8.9,15.2,16.1,18.2c7.2,3,18,6.9,18,8.7
		c0,1.8-1,28.7-0.9,34.9c0.1,6.2,0.9,17.7,0.9,17.7l-7.6,12.2c0,0,1.6,1.8,5,6.1c3.4,4.4,16.2,8.8,19.7,8.6c3.4-0.1,4.9-3.4,4.9-3.4
		l9.2-2.9c0,0,11.7-0.8,11-5.6c0,0-6,1.2-7.9-0.5s-4.9-8.4-5.3-10.9c-0.4-2.5-2.9-30.5-2.9-30.5l-5.4-32.8l-5.3-15.7l-7.5-13
		c0,0-5.8-8.4-10.3-10.1c-4.5-1.7-9.6-8.1-27.9-7S232,4.3,232,4.3z"/>
	<path class="st150" d="M20.9,142.7c0,0,21.9-17.2,43.8-13.2s29.4,12,54.4,14.8s30.6,7.3,30.6,7.3"/>
	<path class="st150" d="M19.1,148.3c0,0,0.6,21.8,27.2,26.6c26.6,4.8,78.8,0.3,79.9,0"/>
	<path class="st150" d="M129.7,177.1c0,0-2.3,29.5,17.4,29.8c0,0,4.7,7.3,9.9,6.6c5.3-0.7,9-4.1,9-4.1"/>
	<path class="st150" d="M169.7,208.7c0,0,1.6,12.6,1.6,18.1s-0.2,14.8,0,17.5c0.2,2.7,5.4,9,8.8,1.7s1.1-42,0-42.8"/>
	<path class="st150" d="M153,154.7c0,0,8.2,12.5,10,14.2s18.6,18.7,17.2,29.8"/>
	<path class="st150" d="M41.6,175.8c0,0,0.4,3.6-11.1-1.1C18.9,170,6.2,165.6,6.2,156c0-9.6,12.5-29,22.5-29.7s18.7-1.7,21.4-1.8
		c5.9-0.1,8.5,4.4,8.5,4.4"/>
	<path class="st150" d="M291.7,200.1c0,0-5.2-10.3,19.7-39.1"/>
	<path class="st150" d="M291.2,204.4c0,0-1.7,41.4,6.1,42.3c7.8,0.9,4.1-36,3.5-37.5"/>
	<path class="st150" d="M308.9,201.5l7.4,8.6c2.8,7.5-6.2,6.5-8,6.2c-1.8-0.4-11-13.8-11-13.8"/>
	<path class="st150" d="M316.8,209.6c0,0,8.8,0.4,8.4-2.6c-0.4-3-4-5.2-5.1-5"/>
	<path class="st150" d="M313.8,157.4c0,0,5.1-9.7,38.2-12.5c33.2-2.8,45.6-12.9,45.6-12.9"/>
	<path class="st150" d="M411.6,172.9c0,0-23.6,0.2-38.9-2.5c-15.3-2.7-36.8-1.9-36.4,3.4c2.6,31-12.1,29.1-12.1,29.1"/>
	<path class="st150" d="M402.6,132c0,0,24.2,13.8,22.8,28.2c-0.8,8.7-12.1,12.3-12.1,12.3"/>
	<path class="st150" d="M399.2,129.8c0,0,1.2-2.2,6.1-1.8s28.9,0.3,31.2,2.8c2.3,2.5,17.1,19.6,16.8,23.3
		c-0.3,3.7-10.1,25.3-40.6,21.4"/>
	<path class="st150" d="M85.3,132c0,0,64.6,2.1,74.4,0c9.8-2.1,8.6-9.2,20.5-8.8"/>
	<path class="st150" d="M172.8,136.5c0,0,12.4,8.4,11.7,24.5"/>
	<path class="st150" d="M233.7,4.5c0,0-25.3-5.9-39.9,39.3s8.7,57.5-16,84.2"/>
	<path class="st150" d="M197.8,102.3c0,0-2.4,28.5-16.7,29.5"/>
	<path class="st150" d="M205.7,113.3c0,0,6,27.5-16.3,25.2"/>
	<path class="st150" d="M254.7,29.7c0,0,14.5,4.8,14.5,29.2s-7.2,74.2,18.5,79.7"/>
	<path class="st150" d="M280.4,102.3c0,0,2,28.6,12.9,29.5"/>
	<path class="st150" d="M238.6,4.2c0,0,34.4-7,49,38.3c14.6,45.3,1.9,88.9,23.7,82"/>
	<path class="st150" d="M263.4,123.1c0,0,7,15.3,23.4,13.4"/>
	<path class="st150" d="M289.4,134.1c0,0,14.1-7.9,25.3-2.3s7.1,7,16.8,6.8s30-2,33.2,2.3"/>
	<path class="st150" d="M235.8,11.2c0,0-2.3,6-2.2,13.1"/>
	<path class="st150" d="M204.6,52.7c0,0,5.4-11.1,15.6-13.2c10.2-2.1,14.5-9.8,14.5-9.8s9.3,17.5,21.8,21.2c12.5,3.7,12.7,8,12.7,8"
		/>
	<path class="st150" d="M234.7,31.4c0,0,4.8,32.4,30.1,32.4"/>
	<path class="st150" d="M202.1,56.1c0,0-7.9,79.6,34.2,84.2c19.1,2.1,32.6-32.8,32.6-32.8"/>
	<path class="st150" d="M206.9,71.7c0,0,8-6.7,18.1,1.9"/>
	<path class="st150" d="M244,73.7c0,0,6.1-6.3,17.5-2.2"/>
	<path class="st150" d="M243.1,83.8c0,0,9-10.3,17.6-1.4"/>
	<path class="st150" d="M209.6,80.7c0,0,8.9-5.8,15.3,2.1"/>
	<path class="st150" d="M228.2,79.9c0,0,3.6,0.8,3.8,10.7"/>
	<path class="st150" d="M229.2,103.1c0,0,0.7,4.2,5.5,4.3"/>
	<path class="st151" d="M219.8,113.3c0,0,22.6,4.3,30.9,0C250.8,113.3,238,132.6,219.8,113.3z"/>
	<circle class="st152" cx="220.3" cy="83.4" r="3.5"/>
	<circle class="st152" cx="252.8" cy="83.4" r="3.5"/>
	<path class="st150" d="M215.5,128.4c0,0-10.9,39.1,26.1,35.3c37-3.8,26.6-21,24.5-37.8"/>
	<path class="st150" d="M313.8,141c0,0-7.6,9.5-8.9,21.8"/>
	<path class="st150" d="M216.8,131.3c0,0,4.6,11.8,6.2,12.7"/>
</g>
</svg>
