<?xml version="1.0" encoding="utf-8"?>
<!-- Generator: Adobe Illustrator 25.0.0, SVG Export Plug-In . SVG Version: 6.00 Build 0)  -->
<svg version="1.1" id="圖層_1" xmlns="http://www.w3.org/2000/svg" xmlns:xlink="http://www.w3.org/1999/xlink" x="0px" y="0px"
	 viewBox="0 0 70.8 70.8" style="enable-background:new 0 0 70.8 70.8;" xml:space="preserve">
<style type="text/css">
	.st0{fill:#FFFFFF;stroke:#353535;stroke-width:1.1515;stroke-linecap:round;stroke-linejoin:round;stroke-miterlimit:10;}
	.st1{fill:#FFFFFF;}
</style>
<g>
	<g>
		<path class="st0" d="M14.4,34.6c-0.4-0.2-0.7-0.3-1-0.4c-0.3-0.1-0.5-0.2-0.7-0.2s-0.4-0.1-0.5-0.1c-0.1,0-0.3,0-0.4,0
			c-0.3,0-0.5,0.1-0.8,0.2s-0.5,0.3-0.6,0.6c0.1,0.1,0.1,0.1,0.2,0.2c0.1,0.1,0.2,0.1,0.3,0.2c0.1,0.1,0.3,0.2,0.5,0.3
			s0.5,0.2,0.8,0.4c0.4,0.2,0.6,0.3,0.9,0.5c0.2,0.1,0.4,0.2,0.5,0.4c0.1,0.1,0.2,0.2,0.3,0.3c0.1,0.1,0.1,0.2,0.1,0.3
			c0,0.2-0.1,0.5-0.3,0.7c-0.2,0.3-0.5,0.5-0.8,0.7s-0.7,0.4-1.1,0.5c-0.4,0.1-0.8,0.2-1.2,0.2c-0.2,0-0.4,0-0.6-0.1
			s-0.5-0.1-0.7-0.1C8.9,39,8.6,39,8.4,38.9c-0.2-0.1-0.5-0.2-0.7-0.3l0.7-1c0.5,0.2,1,0.4,1.4,0.5s0.8,0.2,1.2,0.2
			c0.7,0,1.3-0.3,1.7-0.8c-0.4-0.3-0.8-0.5-1.2-0.7c-0.4-0.2-0.8-0.4-1.1-0.6c-0.2-0.1-0.4-0.2-0.6-0.3c-0.2-0.1-0.3-0.2-0.4-0.3
			c-0.1-0.1-0.2-0.2-0.2-0.3c0-0.1-0.1-0.2-0.1-0.4c0-0.2,0.1-0.4,0.3-0.6c0.2-0.2,0.4-0.4,0.7-0.6s0.6-0.4,1-0.5
			c0.4-0.1,0.7-0.2,1.1-0.2c0.5,0,1,0.1,1.4,0.2s0.9,0.3,1.5,0.5L14.4,34.6z"/>
		<path class="st0" d="M24.2,34.2c0,0.3-0.1,0.6-0.2,1c-0.2,0.4-0.3,0.7-0.6,1.1c-0.2,0.4-0.5,0.7-0.8,1.1s-0.6,0.7-0.9,1
			c-0.3,0.3-0.6,0.5-0.8,0.7c-0.2,0.1-0.4,0.2-0.5,0.2c-0.2,0-0.3-0.1-0.5-0.3c-0.2-0.2-0.3-0.6-0.4-1.1c-0.1,0.2-0.3,0.3-0.5,0.5
			s-0.4,0.3-0.6,0.5c-0.2,0.1-0.4,0.3-0.6,0.4c-0.2,0.1-0.3,0.1-0.5,0.1c-0.1,0-0.2,0-0.3-0.1c-0.1-0.1-0.2-0.2-0.3-0.3
			c-0.1-0.1-0.2-0.3-0.3-0.4c-0.1-0.2-0.1-0.3-0.1-0.5c0-0.2,0-0.5,0.1-0.7c0-0.3,0.1-0.5,0.2-0.7s0.2-0.5,0.3-0.7
			c0.1-0.2,0.2-0.4,0.3-0.6l1.5-0.3c-0.2,0.2-0.3,0.5-0.5,0.8s-0.2,0.5-0.3,0.8c-0.1,0.3-0.2,0.5-0.2,0.8s-0.1,0.5-0.1,0.7l0.3,0.3
			c0.3-0.2,0.6-0.4,0.8-0.5c0.2-0.1,0.4-0.3,0.6-0.4c0.1-0.1,0.2-0.1,0.2-0.2c0-0.1,0-0.2,0-0.3c0-0.4,0-0.7,0.1-1
			c0.1-0.2,0.2-0.4,0.4-0.6c0.2-0.2,0.4-0.3,0.6-0.4c0.2-0.1,0.4-0.1,0.7-0.1c0.1,0,0.2,0,0.3,0.1c0.1,0.1,0.1,0.1,0.1,0.3
			c0,0.1-0.1,0.3-0.2,0.5c-0.1,0.2-0.3,0.4-0.7,0.7c-0.1,0.1-0.1,0.1-0.2,0.2c0,0.1,0,0.2,0,0.3c0,0.2,0.1,0.3,0.1,0.6
			c0.1,0.2,0.1,0.4,0.2,0.7c0.3-0.1,0.5-0.4,0.8-0.6s0.6-0.6,1-1.1c0.1-0.2,0.2-0.3,0.2-0.4c0-0.1,0-0.2-0.1-0.3
			c-0.2-0.3-0.2-0.5-0.2-0.7c0-0.2,0.1-0.3,0.3-0.5c0.2-0.1,0.3-0.3,0.4-0.4c0.1-0.1,0.3-0.2,0.4-0.3c0.2-0.1,0.3-0.2,0.4-0.2
			C24.1,34,24.2,34.1,24.2,34.2z"/>
		<path class="st0" d="M27.5,35.2c-0.4,0.6-0.7,1.2-0.9,1.9c-0.2,0.6-0.3,1.3-0.3,2l-1.5,0.3c0.1-0.7,0.2-1.4,0.4-2
			c0.2-0.6,0.4-1.2,0.8-1.8L27.5,35.2z M28,34.5c-0.3,0.1-0.6,0.1-0.8,0.1c-0.3,0-0.5,0-0.7-0.1c-0.2-0.1-0.3-0.2-0.3-0.3
			c0-0.1,0-0.2,0.1-0.2c0.1-0.1,0.2-0.2,0.3-0.2c0.1-0.1,0.2-0.1,0.4-0.2c0.1,0,0.3-0.1,0.4-0.1c0.1,0,0.2,0,0.3,0
			c0.1,0,0.1,0.1,0.1,0.2v0.2c0,0.1,0,0.2,0.1,0.3C27.9,34.3,27.9,34.4,28,34.5z"/>
		<path class="st0" d="M35.1,36c0,0.4-0.1,0.8-0.4,1.2c-0.3,0.4-0.7,0.8-1.2,1.2c-0.1,0.1-0.3,0.2-0.4,0.3s-0.3,0.2-0.5,0.2
			s-0.3,0.1-0.4,0.2s-0.2,0.1-0.3,0.1c-0.1,0-0.3,0-0.4-0.1c-0.1-0.1-0.2-0.2-0.2-0.3c0-0.1,0-0.1,0.1-0.2c0-0.1,0.1-0.1,0.2-0.1
			s0.3-0.1,0.5-0.1c0.2,0,0.5,0,0.8,0c0.2-0.2,0.3-0.4,0.4-0.6c0.1-0.2,0.2-0.3,0.3-0.5s0.2-0.3,0.2-0.5c0.1-0.2,0.1-0.3,0.2-0.5
			l-0.4-0.4c-0.4,0.2-0.7,0.4-1,0.6c-0.3,0.2-0.5,0.5-0.8,0.8c-0.2,0.3-0.4,0.7-0.7,1.1c-0.2,0.4-0.4,0.9-0.7,1.6
			c-0.2,0.6-0.5,0.9-0.7,0.9c-0.1,0-0.2,0-0.3-0.1c-0.1-0.1-0.2-0.2-0.4-0.5c-0.2-0.2-0.2-0.4-0.2-0.5c0-0.1,0.1-0.3,0.2-0.4
			c0.2-0.3,0.4-0.5,0.6-0.7s0.3-0.4,0.5-0.7c0.1-0.1,0.1-0.2,0.2-0.3c0-0.1,0.1-0.3,0.1-0.5c0-0.2,0-0.4,0.1-0.7c0-0.3,0-0.6,0-1.1
			l1.5-0.2c0,0.3-0.1,0.5-0.1,0.7c0,0.2-0.1,0.5-0.1,0.8c0.6-0.6,1-1,1.4-1.2c0.4-0.3,0.8-0.4,1-0.4c0.1,0,0.2,0,0.3,0.1
			c0.1,0.1,0.2,0.1,0.3,0.2c0.1,0.1,0.2,0.2,0.3,0.3S35.1,35.8,35.1,36z"/>
		<path class="st0" d="M41,35.8c0,0.2,0,0.4-0.1,0.6c-0.1,0.2-0.3,0.3-0.5,0.4s-0.6,0.2-1.1,0.3c-0.5,0.1-1.1,0.2-1.8,0.3
			c0,0.2,0.1,0.4,0.2,0.5c0.1,0.2,0.3,0.4,0.5,0.5c0.2-0.1,0.5-0.1,0.7-0.2c0.2,0,0.4-0.1,0.6-0.2s0.4-0.1,0.6-0.2
			c0.2-0.1,0.4-0.2,0.6-0.3l0,0.3c0,0.1,0,0.1,0,0.2c0,0-0.1,0.1-0.2,0.1c-0.1,0.1-0.2,0.1-0.4,0.2s-0.4,0.2-0.7,0.3
			C39,38.9,38.7,39,38.3,39c-0.3,0.1-0.6,0.1-0.8,0.1c-0.2,0-0.4,0-0.5-0.1c-0.2-0.1-0.4-0.2-0.5-0.3c-0.2-0.1-0.3-0.2-0.4-0.4
			C36,38.2,36,38.1,36,38c0-0.1,0-0.2,0-0.3c0-0.1,0.1-0.2,0.1-0.4c0.1-0.1,0.2-0.3,0.3-0.5c0.1-0.2,0.3-0.4,0.4-0.7
			c0.2-0.3,0.6-0.6,1.1-0.8c0.5-0.2,1.1-0.3,1.9-0.3c0.4,0,0.7,0.1,0.9,0.2C40.9,35.3,41,35.5,41,35.8z M39.7,35.4l-1.3,0.2
			c-0.2,0.2-0.3,0.4-0.5,0.6c-0.1,0.2-0.3,0.4-0.4,0.7c0.5,0,0.9-0.1,1.2-0.1c0.3-0.1,0.5-0.1,0.7-0.2c0.2-0.1,0.3-0.2,0.3-0.3
			c0.1-0.1,0.1-0.2,0.1-0.4V35.4z"/>
		<path class="st0" d="M52.6,34.6c-0.1,0.2-0.3,0.4-0.4,0.6c-0.2,0.2-0.4,0.4-0.6,0.7c-0.1,0.1-0.2,0.3-0.3,0.6
			c-0.1,0.3-0.1,0.6-0.1,0.9c0,0.4,0,0.7,0.1,1c0,0.3,0.1,0.5,0.2,0.7l-1.6,0.3c-0.1-0.3-0.1-0.7-0.1-1.1c0-0.4,0.1-0.8,0.2-1.2
			c-0.2,0.2-0.4,0.5-0.6,0.7c-0.3,0.3-0.5,0.5-0.8,0.7s-0.6,0.4-0.9,0.6c-0.3,0.2-0.5,0.2-0.7,0.2c-0.2,0-0.4-0.1-0.6-0.2
			c-0.2-0.1-0.4-0.3-0.5-0.4c-0.2-0.2-0.3-0.3-0.4-0.5c-0.1-0.2-0.1-0.3-0.1-0.4c0-0.1,0-0.2,0.1-0.3c0-0.1,0.1-0.3,0.2-0.6
			c0.2-0.4,0.3-0.8,0.4-1.1c0.1-0.3,0.2-0.6,0.3-0.9c0.1-0.3,0.1-0.5,0.2-0.8c0-0.2,0.1-0.4,0.1-0.7l1.6-0.4c0,0.3,0,0.7-0.1,1
			c-0.1,0.3-0.1,0.7-0.3,1.1c-0.1,0.4-0.3,0.8-0.5,1.2c-0.2,0.4-0.4,0.8-0.7,1.3c0.1,0.2,0.2,0.3,0.4,0.5c0.1,0.1,0.3,0.2,0.5,0.4
			c0.3-0.1,0.6-0.3,0.9-0.5s0.6-0.5,0.8-0.8c0.3-0.3,0.5-0.6,0.8-1c0.2-0.4,0.4-0.7,0.6-1.1c0.1-0.4,0.3-0.7,0.4-0.9
			s0.2-0.5,0.3-0.6c0.1-0.3,0.2-0.4,0.3-0.5s0.2,0,0.3,0.1c0.1,0.1,0.2,0.1,0.4,0.2c0.1,0.1,0.2,0.2,0.3,0.3
			c0.1,0.2,0.2,0.3,0.2,0.5S52.7,34.4,52.6,34.6z"/>
		<path class="st0" d="M60,36c0,0.4-0.1,0.8-0.4,1.2c-0.3,0.4-0.7,0.8-1.2,1.2c-0.1,0.1-0.3,0.2-0.4,0.3c-0.2,0.1-0.3,0.2-0.5,0.2
			C57.3,39,57.2,39,57,39.1c-0.1,0-0.2,0.1-0.3,0.1c-0.1,0-0.3,0-0.4-0.1c-0.1-0.1-0.2-0.2-0.2-0.3c0-0.1,0-0.1,0.1-0.2
			s0.1-0.1,0.2-0.1s0.3-0.1,0.5-0.1c0.2,0,0.5,0,0.8,0c0.2-0.2,0.3-0.4,0.4-0.6c0.1-0.2,0.2-0.3,0.3-0.5s0.2-0.3,0.2-0.5
			c0.1-0.2,0.1-0.3,0.2-0.5l-0.4-0.4c-0.4,0.2-0.7,0.4-1,0.6s-0.5,0.5-0.8,0.8c-0.2,0.3-0.4,0.7-0.7,1.1c-0.2,0.4-0.4,0.9-0.7,1.6
			c-0.2,0.6-0.5,0.9-0.7,0.9c-0.1,0-0.2,0-0.3-0.1c-0.1-0.1-0.2-0.2-0.4-0.5c-0.2-0.2-0.2-0.4-0.2-0.5c0-0.1,0.1-0.3,0.2-0.4
			c0.2-0.3,0.4-0.5,0.6-0.7s0.3-0.4,0.5-0.7c0.1-0.1,0.1-0.2,0.2-0.3c0-0.1,0.1-0.3,0.1-0.5c0-0.2,0-0.4,0.1-0.7c0-0.3,0-0.6,0-1.1
			l1.5-0.2c0,0.3-0.1,0.5-0.1,0.7c0,0.2-0.1,0.5-0.1,0.8c0.6-0.6,1-1,1.4-1.2c0.4-0.3,0.8-0.4,1-0.4c0.1,0,0.2,0,0.3,0.1
			s0.2,0.1,0.3,0.2c0.1,0.1,0.2,0.2,0.3,0.3S60,35.8,60,36z"/>
	</g>
	<g>
		<path class="st1" d="M14.4,34.6c-0.4-0.2-0.7-0.3-1-0.4c-0.3-0.1-0.5-0.2-0.7-0.2s-0.4-0.1-0.5-0.1c-0.1,0-0.3,0-0.4,0
			c-0.3,0-0.5,0.1-0.8,0.2s-0.5,0.3-0.6,0.6c0.1,0.1,0.1,0.1,0.2,0.2c0.1,0.1,0.2,0.1,0.3,0.2c0.1,0.1,0.3,0.2,0.5,0.3
			s0.5,0.2,0.8,0.4c0.4,0.2,0.6,0.3,0.9,0.5c0.2,0.1,0.4,0.2,0.5,0.4c0.1,0.1,0.2,0.2,0.3,0.3c0.1,0.1,0.1,0.2,0.1,0.3
			c0,0.2-0.1,0.5-0.3,0.7c-0.2,0.3-0.5,0.5-0.8,0.7s-0.7,0.4-1.1,0.5c-0.4,0.1-0.8,0.2-1.2,0.2c-0.2,0-0.4,0-0.6-0.1
			s-0.5-0.1-0.7-0.1C8.9,39,8.6,39,8.4,38.9c-0.2-0.1-0.5-0.2-0.7-0.3l0.7-1c0.5,0.2,1,0.4,1.4,0.5s0.8,0.2,1.2,0.2
			c0.7,0,1.3-0.3,1.7-0.8c-0.4-0.3-0.8-0.5-1.2-0.7c-0.4-0.2-0.8-0.4-1.1-0.6c-0.2-0.1-0.4-0.2-0.6-0.3c-0.2-0.1-0.3-0.2-0.4-0.3
			c-0.1-0.1-0.2-0.2-0.2-0.3c0-0.1-0.1-0.2-0.1-0.4c0-0.2,0.1-0.4,0.3-0.6c0.2-0.2,0.4-0.4,0.7-0.6s0.6-0.4,1-0.5
			c0.4-0.1,0.7-0.2,1.1-0.2c0.5,0,1,0.1,1.4,0.2s0.9,0.3,1.5,0.5L14.4,34.6z"/>
		<path class="st1" d="M24.2,34.2c0,0.3-0.1,0.6-0.2,1c-0.2,0.4-0.3,0.7-0.6,1.1c-0.2,0.4-0.5,0.7-0.8,1.1s-0.6,0.7-0.9,1
			c-0.3,0.3-0.6,0.5-0.8,0.7c-0.2,0.1-0.4,0.2-0.5,0.2c-0.2,0-0.3-0.1-0.5-0.3c-0.2-0.2-0.3-0.6-0.4-1.1c-0.1,0.2-0.3,0.3-0.5,0.5
			s-0.4,0.3-0.6,0.5c-0.2,0.1-0.4,0.3-0.6,0.4c-0.2,0.1-0.3,0.1-0.5,0.1c-0.1,0-0.2,0-0.3-0.1c-0.1-0.1-0.2-0.2-0.3-0.3
			c-0.1-0.1-0.2-0.3-0.3-0.4c-0.1-0.2-0.1-0.3-0.1-0.5c0-0.2,0-0.5,0.1-0.7c0-0.3,0.1-0.5,0.2-0.7s0.2-0.5,0.3-0.7
			c0.1-0.2,0.2-0.4,0.3-0.6l1.5-0.3c-0.2,0.2-0.3,0.5-0.5,0.8s-0.2,0.5-0.3,0.8c-0.1,0.3-0.2,0.5-0.2,0.8s-0.1,0.5-0.1,0.7l0.3,0.3
			c0.3-0.2,0.6-0.4,0.8-0.5c0.2-0.1,0.4-0.3,0.6-0.4c0.1-0.1,0.2-0.1,0.2-0.2c0-0.1,0-0.2,0-0.3c0-0.4,0-0.7,0.1-1
			c0.1-0.2,0.2-0.4,0.4-0.6c0.2-0.2,0.4-0.3,0.6-0.4c0.2-0.1,0.4-0.1,0.7-0.1c0.1,0,0.2,0,0.3,0.1c0.1,0.1,0.1,0.1,0.1,0.3
			c0,0.1-0.1,0.3-0.2,0.5c-0.1,0.2-0.3,0.4-0.7,0.7c-0.1,0.1-0.1,0.1-0.2,0.2c0,0.1,0,0.2,0,0.3c0,0.2,0.1,0.3,0.1,0.6
			c0.1,0.2,0.1,0.4,0.2,0.7c0.3-0.1,0.5-0.4,0.8-0.6s0.6-0.6,1-1.1c0.1-0.2,0.2-0.3,0.2-0.4c0-0.1,0-0.2-0.1-0.3
			c-0.2-0.3-0.2-0.5-0.2-0.7c0-0.2,0.1-0.3,0.3-0.5c0.2-0.1,0.3-0.3,0.4-0.4c0.1-0.1,0.3-0.2,0.4-0.3c0.2-0.1,0.3-0.2,0.4-0.2
			C24.1,34,24.2,34.1,24.2,34.2z"/>
		<path class="st1" d="M27.5,35.2c-0.4,0.6-0.7,1.2-0.9,1.9c-0.2,0.6-0.3,1.3-0.3,2l-1.5,0.3c0.1-0.7,0.2-1.4,0.4-2
			c0.2-0.6,0.4-1.2,0.8-1.8L27.5,35.2z M28,34.5c-0.3,0.1-0.6,0.1-0.8,0.1c-0.3,0-0.5,0-0.7-0.1c-0.2-0.1-0.3-0.2-0.3-0.3
			c0-0.1,0-0.2,0.1-0.2c0.1-0.1,0.2-0.2,0.3-0.2c0.1-0.1,0.2-0.1,0.4-0.2c0.1,0,0.3-0.1,0.4-0.1c0.1,0,0.2,0,0.3,0
			c0.1,0,0.1,0.1,0.1,0.2v0.2c0,0.1,0,0.2,0.1,0.3C27.9,34.3,27.9,34.4,28,34.5z"/>
		<path class="st1" d="M35.1,36c0,0.4-0.1,0.8-0.4,1.2c-0.3,0.4-0.7,0.8-1.2,1.2c-0.1,0.1-0.3,0.2-0.4,0.3s-0.3,0.2-0.5,0.2
			s-0.3,0.1-0.4,0.2s-0.2,0.1-0.3,0.1c-0.1,0-0.3,0-0.4-0.1c-0.1-0.1-0.2-0.2-0.2-0.3c0-0.1,0-0.1,0.1-0.2c0-0.1,0.1-0.1,0.2-0.1
			s0.3-0.1,0.5-0.1c0.2,0,0.5,0,0.8,0c0.2-0.2,0.3-0.4,0.4-0.6c0.1-0.2,0.2-0.3,0.3-0.5s0.2-0.3,0.2-0.5c0.1-0.2,0.1-0.3,0.2-0.5
			l-0.4-0.4c-0.4,0.2-0.7,0.4-1,0.6c-0.3,0.2-0.5,0.5-0.8,0.8c-0.2,0.3-0.4,0.7-0.7,1.1c-0.2,0.4-0.4,0.9-0.7,1.6
			c-0.2,0.6-0.5,0.9-0.7,0.9c-0.1,0-0.2,0-0.3-0.1c-0.1-0.1-0.2-0.2-0.4-0.5c-0.2-0.2-0.2-0.4-0.2-0.5c0-0.1,0.1-0.3,0.2-0.4
			c0.2-0.3,0.4-0.5,0.6-0.7s0.3-0.4,0.5-0.7c0.1-0.1,0.1-0.2,0.2-0.3c0-0.1,0.1-0.3,0.1-0.5c0-0.2,0-0.4,0.1-0.7c0-0.3,0-0.6,0-1.1
			l1.5-0.2c0,0.3-0.1,0.5-0.1,0.7c0,0.2-0.1,0.5-0.1,0.8c0.6-0.6,1-1,1.4-1.2c0.4-0.3,0.8-0.4,1-0.4c0.1,0,0.2,0,0.3,0.1
			c0.1,0.1,0.2,0.1,0.3,0.2c0.1,0.1,0.2,0.2,0.3,0.3S35.1,35.8,35.1,36z"/>
		<path class="st1" d="M41,35.8c0,0.2,0,0.4-0.1,0.6c-0.1,0.2-0.3,0.3-0.5,0.4s-0.6,0.2-1.1,0.3c-0.5,0.1-1.1,0.2-1.8,0.3
			c0,0.2,0.1,0.4,0.2,0.5c0.1,0.2,0.3,0.4,0.5,0.5c0.2-0.1,0.5-0.1,0.7-0.2c0.2,0,0.4-0.1,0.6-0.2s0.4-0.1,0.6-0.2
			c0.2-0.1,0.4-0.2,0.6-0.3l0,0.3c0,0.1,0,0.1,0,0.2c0,0-0.1,0.1-0.2,0.1c-0.1,0.1-0.2,0.1-0.4,0.2s-0.4,0.2-0.7,0.3
			C39,38.9,38.7,39,38.3,39c-0.3,0.1-0.6,0.1-0.8,0.1c-0.2,0-0.4,0-0.5-0.1c-0.2-0.1-0.4-0.2-0.5-0.3c-0.2-0.1-0.3-0.2-0.4-0.4
			C36,38.2,36,38.1,36,38c0-0.1,0-0.2,0-0.3c0-0.1,0.1-0.2,0.1-0.4c0.1-0.1,0.2-0.3,0.3-0.5c0.1-0.2,0.3-0.4,0.4-0.7
			c0.2-0.3,0.6-0.6,1.1-0.8c0.5-0.2,1.1-0.3,1.9-0.3c0.4,0,0.7,0.1,0.9,0.2C40.9,35.3,41,35.5,41,35.8z M39.7,35.4l-1.3,0.2
			c-0.2,0.2-0.3,0.4-0.5,0.6c-0.1,0.2-0.3,0.4-0.4,0.7c0.5,0,0.9-0.1,1.2-0.1c0.3-0.1,0.5-0.1,0.7-0.2c0.2-0.1,0.3-0.2,0.3-0.3
			c0.1-0.1,0.1-0.2,0.1-0.4V35.4z"/>
		<path class="st1" d="M52.6,34.6c-0.1,0.2-0.3,0.4-0.4,0.6c-0.2,0.2-0.4,0.4-0.6,0.7c-0.1,0.1-0.2,0.3-0.3,0.6
			c-0.1,0.3-0.1,0.6-0.1,0.9c0,0.4,0,0.7,0.1,1c0,0.3,0.1,0.5,0.2,0.7l-1.6,0.3c-0.1-0.3-0.1-0.7-0.1-1.1c0-0.4,0.1-0.8,0.2-1.2
			c-0.2,0.2-0.4,0.5-0.6,0.7c-0.3,0.3-0.5,0.5-0.8,0.7s-0.6,0.4-0.9,0.6c-0.3,0.2-0.5,0.2-0.7,0.2c-0.2,0-0.4-0.1-0.6-0.2
			c-0.2-0.1-0.4-0.3-0.5-0.4c-0.2-0.2-0.3-0.3-0.4-0.5c-0.1-0.2-0.1-0.3-0.1-0.4c0-0.1,0-0.2,0.1-0.3c0-0.1,0.1-0.3,0.2-0.6
			c0.2-0.4,0.3-0.8,0.4-1.1c0.1-0.3,0.2-0.6,0.3-0.9c0.1-0.3,0.1-0.5,0.2-0.8c0-0.2,0.1-0.4,0.1-0.7l1.6-0.4c0,0.3,0,0.7-0.1,1
			c-0.1,0.3-0.1,0.7-0.3,1.1c-0.1,0.4-0.3,0.8-0.5,1.2c-0.2,0.4-0.4,0.8-0.7,1.3c0.1,0.2,0.2,0.3,0.4,0.5c0.1,0.1,0.3,0.2,0.5,0.4
			c0.3-0.1,0.6-0.3,0.9-0.5s0.6-0.5,0.8-0.8c0.3-0.3,0.5-0.6,0.8-1c0.2-0.4,0.4-0.7,0.6-1.1c0.1-0.4,0.3-0.7,0.4-0.9
			s0.2-0.5,0.3-0.6c0.1-0.3,0.2-0.4,0.3-0.5s0.2,0,0.3,0.1c0.1,0.1,0.2,0.1,0.4,0.2c0.1,0.1,0.2,0.2,0.3,0.3
			c0.1,0.2,0.2,0.3,0.2,0.5S52.7,34.4,52.6,34.6z"/>
		<path class="st1" d="M60,36c0,0.4-0.1,0.8-0.4,1.2c-0.3,0.4-0.7,0.8-1.2,1.2c-0.1,0.1-0.3,0.2-0.4,0.3c-0.2,0.1-0.3,0.2-0.5,0.2
			C57.3,39,57.2,39,57,39.1c-0.1,0-0.2,0.1-0.3,0.1c-0.1,0-0.3,0-0.4-0.1c-0.1-0.1-0.2-0.2-0.2-0.3c0-0.1,0-0.1,0.1-0.2
			s0.1-0.1,0.2-0.1s0.3-0.1,0.5-0.1c0.2,0,0.5,0,0.8,0c0.2-0.2,0.3-0.4,0.4-0.6c0.1-0.2,0.2-0.3,0.3-0.5s0.2-0.3,0.2-0.5
			c0.1-0.2,0.1-0.3,0.2-0.5l-0.4-0.4c-0.4,0.2-0.7,0.4-1,0.6s-0.5,0.5-0.8,0.8c-0.2,0.3-0.4,0.7-0.7,1.1c-0.2,0.4-0.4,0.9-0.7,1.6
			c-0.2,0.6-0.5,0.9-0.7,0.9c-0.1,0-0.2,0-0.3-0.1c-0.1-0.1-0.2-0.2-0.4-0.5c-0.2-0.2-0.2-0.4-0.2-0.5c0-0.1,0.1-0.3,0.2-0.4
			c0.2-0.3,0.4-0.5,0.6-0.7s0.3-0.4,0.5-0.7c0.1-0.1,0.1-0.2,0.2-0.3c0-0.1,0.1-0.3,0.1-0.5c0-0.2,0-0.4,0.1-0.7c0-0.3,0-0.6,0-1.1
			l1.5-0.2c0,0.3-0.1,0.5-0.1,0.7c0,0.2-0.1,0.5-0.1,0.8c0.6-0.6,1-1,1.4-1.2c0.4-0.3,0.8-0.4,1-0.4c0.1,0,0.2,0,0.3,0.1
			s0.2,0.1,0.3,0.2c0.1,0.1,0.2,0.2,0.3,0.3S60,35.8,60,36z"/>
	</g>
</g>
</svg>
