<svg xmlns="http://www.w3.org/2000/svg" width="56" height="56" viewBox="0 0 56 56">
    <g fill="none" fill-rule="evenodd">
        <g stroke="#333" transform="translate(6 6)">
            <path d="M0.5 38.73H43.5V43.5H0.5z"/>
            <path stroke-linecap="square" d="M5.677 38.951L5.677 43.279M38.323 38.951L38.323 43.279M33.355 38.951L33.355 43.279M10.645 38.951L10.645 43.279M16.323 38.951L16.323 43.279M22 38.951L22 43.279M27.677 38.951L27.677 43.279M27.323 26.689L27.323 38.59M16.677 26.689L16.677 38.23"/>
            <path d="M6.887 26.467H37.113V38.451H6.887zM11.74 8.434c-2.966 3.225-4.082 5.196-3.604 5.617 1.102.967 26.324.99 27.768-.033.652-.462-.43-2.376-3.632-5.584H11.74zM7.081 17.09c-2.183 1.703-3.594 3.068-4.22 4.067-.528.84-.46 1.211.163 1.46 2.52 1.008 34.967.867 37.998-.015.58-.17.638-.46.117-1.29-.629-1.004-2.042-2.42-4.228-4.222H7.081zM18.242 5.8H25.758000000000003V8.407H18.242z"/>
            <ellipse cx="22" cy="2.364" rx="1.629" ry="1.664"/>
        </g>
        <path d="M0 0H56V56H0z"/>
    </g>
</svg>
