<svg xmlns="http://www.w3.org/2000/svg" width="56" height="56" viewBox="0 0 56 56">
    <g fill="none" fill-rule="evenodd">
        <path stroke="#333" d="M19 14c-7.732 0-14 6.268-14 14M19 14c-4.418 0-8 6.268-8 14"/>
        <rect width="5" height="4" x="16" y="46.5" stroke="#333" rx="2"/>
        <path stroke="#333" d="M5 28c.069 3.75 1.888 6.851 5.458 9.304 3.57 2.453 5.598 4.685 6.084 6.696H19"/>
        <path stroke="#333" d="M11 28c.04 3.75 1.079 6.851 3.119 9.304 2.04 2.453 3.199 4.685 3.476 6.696H19"/>
        <path fill="#333" fill-rule="nonzero" d="M18.5 13.5v1c3.438 0 6.401 5.813 6.498 13.133L25 28h1c0-7.85-3.164-14.299-7.305-14.495L18.5 13.5z"/>
        <path fill="#333" fill-rule="nonzero" d="M20.323 40.385c.268.195.567.35.89.456-.478 1.012-.79 1.973-.94 2.88l-.047.339-.054.44H18.5v-1h.799l.04-.232c.178-.904.496-1.845.954-2.822l.03-.061zM25 27.995l1 .01-.01.477c-.025.883-.1 1.73-.223 2.543-.37.037-.726.126-1.058.257.153-.857.246-1.761.279-2.711l.012-.576zM18.5 13.5v1c7.352 0 13.332 5.877 13.497 13.19L32 28h1c0-7.903-6.322-14.329-14.185-14.497L18.5 13.5z"/>
        <path fill="#333" fill-rule="nonzero" d="M22.03 40.995l.092.004 1.234.001c-.962 1.027-1.578 1.993-1.85 2.894l-.062.223-.092.383H18.5v-1h2.082l.016-.051c.244-.727.663-1.472 1.258-2.235l.175-.22zM33 28.009l-.012.355c-.109 2.31-.868 4.382-2.269 6.208h-.535c-.024-.261-.074-.514-.147-.758 1.198-1.615 1.845-3.428 1.95-5.443l.013-.38 1 .018z"/>
        <path stroke="#333" d="M26.2 31.5c-1.816 0-3.325 1.36-3.488 3.118l-.042.453h-.456c-1.499 0-2.714 1.216-2.714 2.715 0 1.499 1.215 2.714 2.714 2.714h9.572c1.499 0 2.714-1.215 2.714-2.714 0-1.5-1.215-2.715-2.714-2.715h-2.059l-.041-.454c-.161-1.756-1.67-3.117-3.486-3.117zM41.357 41.5c.907 0 1.708.708 1.936 1.72l.08.355.361.034c.997.093 1.766.932 1.766 1.941 0 1.077-.873 1.95-1.95 1.95h-5.1c-1.077 0-1.95-.873-1.95-1.95s.873-1.95 1.95-1.95h.884l.09-.388c.23-1.01 1.03-1.712 1.933-1.712z"/>
        <g stroke="#333" transform="translate(16 6)">
            <path d="M25.5 0C20.253 0 16 4.03 16 9M25.5 0c-3.06 0-5.542 4.03-5.542 9"/>
            <rect width="3.75" height="2.75" x="23.625" y="20.75" rx="1.375"/>
            <path d="M16 8.25c.047 2.46 1.281 4.496 3.704 6.106 2.422 1.61 3.798 3.075 4.128 4.394H25.5"/>
            <path d="M19.958 8.25c.028 2.46.748 4.496 2.16 6.106 1.414 1.61 2.217 3.075 2.409 4.394h.973M24.708 0c3.06 0 5.542 4.03 5.542 9"/>
            <path d="M30.25 8.25c-.027 2.46-.747 4.496-2.16 6.106-1.414 1.61-2.216 3.075-2.409 4.394h-.973M25.5 0C30.747 0 35 4.03 35 9"/>
            <path d="M35 8.25c-.047 2.46-1.281 4.496-3.704 6.106-2.422 1.61-3.798 3.075-4.128 4.394H25.5"/>
            <path stroke-linecap="square" d="M24.313 19.5L24.313 20.25M26.688 19.5L26.688 20.25M1 39L1 40M4 39L4 40"/>
        </g>
        <path d="M0 0H56V56H0z"/>
    </g>
</svg>
