<?xml version="1.0" encoding="utf-8"?>
<!-- Generator: Adobe Illustrator 24.3.0, SVG Export Plug-In . SVG Version: 6.00 Build 0)  -->
<svg version="1.1" id="圖層_1" xmlns="http://www.w3.org/2000/svg" xmlns:xlink="http://www.w3.org/1999/xlink" x="0px" y="0px"
	 viewBox="0 0 58.3 58.3" style="enable-background:new 0 0 58.3 58.3;" xml:space="preserve">
<style type="text/css">
	.st0{fill:#E8A65D;}
</style>
<path class="st0" d="M29.2,2.1c-15,0-27.1,12.1-27.1,27.1s12.1,27.1,27.1,27.1s27.1-12.1,27.1-27.1S44.1,2.1,29.2,2.1z M32.3,17.8
	l-8.2,7.9H44c1.5,0,2.6,1.2,2.6,2.6V30c0,1.5-1.2,2.6-2.6,2.6H24.1l8.2,7.9c1.1,1,1.1,2.7,0,3.7l-1.2,1.2c-1,1-2.7,1-3.7,0L13,31
	c-1-1-1-2.7,0-3.7l14.5-14.5c1-1,2.7-1,3.7,0l1.2,1.2C33.4,15.1,33.4,16.7,32.3,17.8z"/>
</svg>
