<?xml version="1.0" encoding="utf-8"?>
<!-- Generator: Adobe Illustrator 24.3.0, SVG Export Plug-In . SVG Version: 6.00 Build 0)  -->
<svg version="1.1" id="圖層_1" xmlns="http://www.w3.org/2000/svg" xmlns:xlink="http://www.w3.org/1999/xlink" x="0px" y="0px"
	 viewBox="0 0 58.3 58.3" style="enable-background:new 0 0 58.3 58.3;" xml:space="preserve">
<style type="text/css">
	.st0{fill:#E8A65D;}
</style>
<path class="st0" d="M29.2,2.1c15,0,27.1,12.1,27.1,27.1s-12.2,27-27.1,27S2.1,44.1,2.1,29.2S14.2,2.1,29.2,2.1z M26,17.8l8.2,7.9
	H14.3c-1.5,0-2.6,1.2-2.6,2.6V30c0,1.5,1.2,2.6,2.6,2.6h19.9l-8.2,8c-1.1,1-1.1,2.7,0,3.7l1.2,1.2c1,1,2.7,1,3.7,0L45.3,31
	c1-1,1-2.7,0-3.7L30.9,12.8c-1-1-2.7-1-3.7,0L26,14C24.9,15.1,24.9,16.7,26,17.8z"/>
</svg>
