<?xml version="1.0" encoding="utf-8"?>
<!-- Generator: Adobe Illustrator 24.3.0, SVG Export Plug-In . SVG Version: 6.00 Build 0)  -->
<svg version="1.1" id="圖層_1" xmlns="http://www.w3.org/2000/svg" xmlns:xlink="http://www.w3.org/1999/xlink" x="0px" y="0px"
	 viewBox="0 0 675.8 16.7" style="enable-background:new 0 0 675.8 16.7;" xml:space="preserve">
<style type="text/css">
	.st0{fill:#EDD9BC;}
	.st1{fill:none;}
	.st2{fill:#FFFFFF;}
	.st3{fill:#8AAB92;stroke:#EC9B33;stroke-width:1.7467;stroke-miterlimit:10;}
	.st4{fill:#5E9594;stroke:#EC9B33;stroke-width:1.7467;stroke-miterlimit:10;}
	.st5{fill:none;stroke:#CBA470;stroke-width:0.8;stroke-miterlimit:10;}
	.st6{fill-rule:evenodd;clip-rule:evenodd;fill:none;stroke:#CBA470;stroke-width:0.8;stroke-miterlimit:10;}
	.st7{fill:none;stroke:#CBA470;stroke-width:0.7445;stroke-miterlimit:10;}
	.st8{fill-rule:evenodd;clip-rule:evenodd;fill:none;stroke:#CBA470;stroke-width:0.7445;stroke-miterlimit:10;}
	.st9{fill:none;stroke:#CBA470;stroke-miterlimit:10;}
	.st10{clip-path:url(#SVGID_2_);}
	.st11{fill:#CBA470;}
	.st12{fill:#CBA470;stroke:#CBA470;stroke-width:0.8559;stroke-miterlimit:10;}
	.st13{fill:none;stroke:#CBA470;stroke-width:0.8559;stroke-miterlimit:10;}
	.st14{fill:none;stroke:#CBA470;stroke-width:2;stroke-miterlimit:10;}
	.st15{fill:#F7FBE3;}
	.st16{fill:#DFCD9F;}
	.st17{fill:#FFC5C2;}
	.st18{fill:none;stroke:#EC9B33;stroke-width:1.5;stroke-linecap:round;stroke-linejoin:round;stroke-miterlimit:10;}
	.st19{fill:#EC9B33;}
	.st20{fill:#FD5C5C;stroke:#EC9B33;stroke-width:1.5;stroke-linecap:round;stroke-linejoin:round;stroke-miterlimit:10;}
	.st21{fill:#BC5C66;}
	.st22{fill:#F9625E;}
	.st23{fill:#C26C72;}
	.st24{fill:#F8FCE4;}
	.st25{fill:#FF808C;}
	.st26{fill:#8C627F;}
	.st27{fill:#836270;}
	.st28{fill:#A9746B;}
	.st29{fill:none;stroke:#EC9B33;stroke-width:4;stroke-miterlimit:10;}
	.st30{fill:#A0A534;stroke:#EC9B33;stroke-width:4;stroke-miterlimit:10;}
	.st31{fill:none;stroke:#EC9B33;stroke-width:3;stroke-miterlimit:10;}
	.st32{fill:#8AAB92;}
	.st33{fill:#5E9594;}
	.st34{fill:#7D8398;stroke:#EC9B33;stroke-width:1.5;stroke-miterlimit:10;}
	.st35{fill:#9EA4A7;}
	.st36{fill:#BEA8AF;}
	.st37{fill:#8C8490;}
	.st38{fill:#878296;}
	.st39{fill:#96BBC1;stroke:#EC9B33;stroke-width:3;stroke-miterlimit:10;}
	.st40{fill:#F4F4F4;}
	.st41{fill:#EDD9BC;stroke:#EC9B33;stroke-width:1.9767;stroke-miterlimit:10;}
	.st42{fill:#DEDFD9;stroke:#EC9B33;stroke-width:4.7549;stroke-miterlimit:10;}
	.st43{fill:url(#SVGID_3_);stroke:#EC9B33;stroke-width:3.2449;stroke-miterlimit:10;}
	.st44{fill:#EF7878;}
	.st45{fill:none;stroke:#EC9B33;stroke-width:1.6224;stroke-linecap:round;stroke-linejoin:round;stroke-miterlimit:10;}
	.st46{fill:#FD5C5C;stroke:#EC9B33;stroke-width:1.6224;stroke-linecap:round;stroke-linejoin:round;stroke-miterlimit:10;}
	.st47{fill:#B77539;}
	.st48{fill:#A5A558;}
	.st49{fill:none;stroke:#EC9B33;stroke-width:3.2449;stroke-miterlimit:10;}
	.st50{fill:none;stroke:#EC9B33;stroke-width:1.6224;stroke-miterlimit:10;}
	.st51{fill:#A0A534;stroke:#EC9B33;stroke-width:1.6224;stroke-miterlimit:10;}
	.st52{fill:none;stroke:#EC9B33;stroke-width:2.1004;stroke-linecap:round;stroke-linejoin:round;stroke-miterlimit:10;}
	.st53{fill:#7D8398;stroke:#EC9B33;stroke-width:1.6224;stroke-miterlimit:10;}
	.st54{fill:#9EA4A7;stroke:#EC9B33;stroke-width:1.6224;stroke-miterlimit:10;}
	.st55{fill:#BA9DA7;stroke:#EC9B33;stroke-width:1.6224;stroke-miterlimit:10;}
	.st56{fill:#8C8490;stroke:#EC9B33;stroke-width:1.6224;stroke-miterlimit:10;}
	.st57{fill:#C3C4C6;}
	.st58{fill:#F7FBE3;stroke:#EC9B33;stroke-width:1.6224;stroke-linecap:round;stroke-linejoin:round;stroke-miterlimit:10;}
	.st59{fill:#878296;stroke:#EC9B33;stroke-width:1.6224;stroke-miterlimit:10;}
	.st60{opacity:0.6;fill:#F4F4F4;}
	.st61{clip-path:url(#SVGID_5_);}
	.st62{clip-path:url(#SVGID_7_);}
	.st63{clip-path:url(#SVGID_9_);}
	.st64{clip-path:url(#SVGID_11_);}
	.st65{opacity:0.3;}
	.st66{fill:#6EA460;}
	.st67{fill:#666666;stroke:#666666;stroke-miterlimit:10;}
	.st68{fill:#56727C;}
	.st69{fill:none;stroke:#666666;stroke-width:9;stroke-miterlimit:10;}
	.st70{clip-path:url(#SVGID_13_);}
	.st71{clip-path:url(#SVGID_15_);}
	.st72{fill:#EC9B33;stroke:#EC9B33;stroke-width:0.8559;stroke-miterlimit:10;}
	.st73{fill:none;stroke:#EC9B33;stroke-width:0.8559;stroke-miterlimit:10;}
	.st74{fill:#E8A65D;}
	.st75{clip-path:url(#SVGID_17_);}
	.st76{clip-path:url(#SVGID_19_);}
	.st77{clip-path:url(#SVGID_21_);}
	.st78{clip-path:url(#SVGID_23_);}
	.st79{clip-path:url(#SVGID_25_);}
	.st80{clip-path:url(#SVGID_27_);}
	.st81{fill:#A9775D;}
	.st82{fill:#1C0307;}
	.st83{fill:#FF9900;}
	.st84{fill:#970F00;}
	.st85{fill:#FF6A00;stroke:#EC9B33;stroke-width:1.5;stroke-linecap:round;stroke-linejoin:round;stroke-miterlimit:10;}
	.st86{fill:#F97E2B;stroke:#EC9B33;stroke-width:1.5;stroke-linecap:round;stroke-linejoin:round;stroke-miterlimit:10;}
	.st87{fill:#C95400;stroke:#EC9B33;stroke-width:1.5;stroke-linecap:round;stroke-linejoin:round;stroke-miterlimit:10;}
	.st88{fill:#FFA500;stroke:#EC9B33;stroke-width:1.5;stroke-linecap:round;stroke-linejoin:round;stroke-miterlimit:10;}
	.st89{fill:#FFFFFF;stroke:#EC9B33;stroke-width:1.5;stroke-linecap:round;stroke-linejoin:round;stroke-miterlimit:10;}
	.st90{fill:#FF8F00;stroke:#EC9B33;stroke-width:1.5;stroke-linecap:round;stroke-linejoin:round;stroke-miterlimit:10;}
	.st91{fill:#FF6161;stroke:#EC9B33;stroke-width:1.5;stroke-linecap:round;stroke-linejoin:round;stroke-miterlimit:10;}
	.st92{fill:#FF7575;stroke:#EC9B33;stroke-width:1.5;stroke-linecap:round;stroke-linejoin:round;stroke-miterlimit:10;}
	.st93{fill:#FFA500;stroke:#EC9B33;stroke-width:0.6655;stroke-linecap:round;stroke-linejoin:round;stroke-miterlimit:10;}
	.st94{fill:#FF8F00;stroke:#EC9B33;stroke-width:0.6655;stroke-linecap:round;stroke-linejoin:round;stroke-miterlimit:10;}
	.st95{fill:#FF9500;stroke:#EC9B33;stroke-width:0.6655;stroke-linecap:round;stroke-linejoin:round;stroke-miterlimit:10;}
	.st96{fill:#DEDFD9;stroke:#EC9B33;stroke-width:6.6134;stroke-miterlimit:10;}
	.st97{fill:url(#SVGID_28_);stroke:#EC9B33;stroke-width:4.5131;stroke-miterlimit:10;}
	.st98{fill:none;stroke:#EC9B33;stroke-width:2.2565;stroke-linecap:round;stroke-linejoin:round;stroke-miterlimit:10;}
	.st99{fill:#FD5C5C;stroke:#EC9B33;stroke-width:2.2565;stroke-linecap:round;stroke-linejoin:round;stroke-miterlimit:10;}
	.st100{fill:none;stroke:#EC9B33;stroke-width:4.5131;stroke-miterlimit:10;}
	.st101{fill:none;stroke:#EC9B33;stroke-width:2.2565;stroke-miterlimit:10;}
	.st102{fill:#A0A534;stroke:#EC9B33;stroke-width:2.2565;stroke-miterlimit:10;}
	.st103{fill:none;stroke:#EC9B33;stroke-width:2.9213;stroke-linecap:round;stroke-linejoin:round;stroke-miterlimit:10;}
	.st104{fill:#7D8398;stroke:#EC9B33;stroke-width:2.2565;stroke-miterlimit:10;}
	.st105{fill:#9EA4A7;stroke:#EC9B33;stroke-width:2.2565;stroke-miterlimit:10;}
	.st106{fill:#BA9DA7;stroke:#EC9B33;stroke-width:2.2565;stroke-miterlimit:10;}
	.st107{fill:#8C8490;stroke:#EC9B33;stroke-width:2.2565;stroke-miterlimit:10;}
	.st108{fill:#F7FBE3;stroke:#EC9B33;stroke-width:2.2565;stroke-linecap:round;stroke-linejoin:round;stroke-miterlimit:10;}
	.st109{fill:#878296;stroke:#EC9B33;stroke-width:2.2565;stroke-miterlimit:10;}
	.st110{fill:#FFA500;stroke:#EC9B33;stroke-width:2.4636;stroke-linecap:round;stroke-linejoin:round;stroke-miterlimit:10;}
	.st111{fill:#F97E2B;stroke:#EC9B33;stroke-width:2.4636;stroke-linecap:round;stroke-linejoin:round;stroke-miterlimit:10;}
	.st112{fill:#FF8F00;stroke:#EC9B33;stroke-width:2.4636;stroke-linecap:round;stroke-linejoin:round;stroke-miterlimit:10;}
	.st113{fill:#FF6161;stroke:#EC9B33;stroke-width:2.4636;stroke-linecap:round;stroke-linejoin:round;stroke-miterlimit:10;}
	.st114{fill:#FF7575;stroke:#EC9B33;stroke-width:2.4636;stroke-linecap:round;stroke-linejoin:round;stroke-miterlimit:10;}
	.st115{fill:#FFA500;stroke:#EC9B33;stroke-width:1.093;stroke-linecap:round;stroke-linejoin:round;stroke-miterlimit:10;}
	.st116{fill:#FF8F00;stroke:#EC9B33;stroke-width:1.093;stroke-linecap:round;stroke-linejoin:round;stroke-miterlimit:10;}
	.st117{fill:#FF6A00;stroke:#EC9B33;stroke-width:2.8096;stroke-linecap:round;stroke-linejoin:round;stroke-miterlimit:10;}
	.st118{fill:#F97E2B;stroke:#EC9B33;stroke-width:2.8096;stroke-linecap:round;stroke-linejoin:round;stroke-miterlimit:10;}
	.st119{fill:#C95400;stroke:#EC9B33;stroke-width:2.8096;stroke-linecap:round;stroke-linejoin:round;stroke-miterlimit:10;}
	.st120{fill:#FFA500;stroke:#EC9B33;stroke-width:2.8096;stroke-linecap:round;stroke-linejoin:round;stroke-miterlimit:10;}
	.st121{fill:#FFFFFF;stroke:#EC9B33;stroke-width:2.8096;stroke-linecap:round;stroke-linejoin:round;stroke-miterlimit:10;}
	.st122{clip-path:url(#SVGID_30_);}
	.st123{clip-path:url(#SVGID_32_);}
	.st124{fill:#EC9B33;stroke:#EC9B33;stroke-width:1.264;stroke-miterlimit:10;}
	.st125{fill:none;stroke:#EC9B33;stroke-width:1.264;stroke-miterlimit:10;}
	.st126{clip-path:url(#SVGID_34_);}
	.st127{clip-path:url(#SVGID_36_);}
	.st128{clip-path:url(#SVGID_38_);}
	.st129{clip-path:url(#SVGID_40_);}
	.st130{clip-path:url(#SVGID_42_);}
	.st131{clip-path:url(#SVGID_44_);}
	.st132{clip-path:url(#SVGID_46_);}
	.st133{clip-path:url(#SVGID_48_);}
	.st134{clip-path:url(#SVGID_50_);}
	.st135{clip-path:url(#SVGID_52_);}
	.st136{clip-path:url(#SVGID_54_);}
	.st137{clip-path:url(#SVGID_56_);}
	.st138{clip-path:url(#SVGID_58_);}
	.st139{clip-path:url(#SVGID_60_);}
	.st140{clip-path:url(#SVGID_62_);}
	.st141{clip-path:url(#SVGID_64_);}
	.st142{clip-path:url(#SVGID_66_);}
	.st143{clip-path:url(#SVGID_68_);}
	.st144{clip-path:url(#SVGID_70_);}
	.st145{clip-path:url(#SVGID_72_);}
	.st146{clip-path:url(#SVGID_74_);}
	.st147{clip-path:url(#SVGID_76_);}
	.st148{clip-path:url(#SVGID_78_);}
	.st149{clip-path:url(#SVGID_80_);}
	.st150{clip-path:url(#SVGID_82_);}
	.st151{clip-path:url(#SVGID_84_);}
	.st152{clip-path:url(#SVGID_86_);}
	.st153{clip-path:url(#SVGID_88_);}
	.st154{clip-path:url(#SVGID_90_);}
	.st155{clip-path:url(#SVGID_92_);}
	.st156{clip-path:url(#SVGID_94_);}
	.st157{clip-path:url(#SVGID_96_);}
</style>
<g>
	<g>
		<polygon class="st19" points="0,7.9 0.2,7.9 0.2,7.9 0.2,7.9 0.2,7.9 		"/>
		<path class="st19" d="M13,7.3l0.2,0c0.2,0,0.4,0.1,0.4,0.3c0,0.2-0.1,0.4-0.3,0.4c0,0,0,0,0,0L13,8c-0.2,0-0.4-0.2-0.4-0.4
			C12.7,7.4,12.8,7.3,13,7.3z"/>
		<path class="st19" d="M26,6.6l0.2,0c0.4,0,0.7,0.3,0.7,0.7S26.6,8,26.2,8c0,0,0,0,0,0L26,8c-0.4,0-0.7-0.3-0.7-0.7
			C25.3,7,25.6,6.7,26,6.6z"/>
		<path class="st19" d="M39,6.1l0.2,0c0.5,0,1,0.4,1,0.9s-0.4,1-0.9,1c0,0,0,0,0,0l-0.2,0c-0.5,0-1-0.4-1-1C38,6.5,38.5,6.1,39,6.1z
			"/>
		<path class="st19" d="M52,5.6l0.2,0c0.7,0,1.3,0.5,1.3,1.2c0,0.7-0.5,1.3-1.2,1.3c0,0,0,0,0,0l-0.2,0c-0.7,0-1.3-0.6-1.3-1.3
			C50.8,6.2,51.3,5.6,52,5.6z"/>
		<path class="st19" d="M65,5.1l0.2,0c0.8,0,1.5,0.6,1.6,1.5c0,0.8-0.6,1.5-1.5,1.6c0,0,0,0-0.1,0l-0.2,0c-0.8,0-1.5-0.7-1.5-1.5
			C63.5,5.8,64.2,5.2,65,5.1z"/>
		<path class="st19" d="M78,4.7l0.2,0c1,0,1.8,0.7,1.8,1.7c0,1-0.7,1.8-1.7,1.8c0,0,0,0-0.1,0l-0.2,0c-1,0-1.8-0.8-1.7-1.8
			C76.3,5.5,77.1,4.7,78,4.7z"/>
		<path class="st19" d="M91,4.3l0.2,0c1.1,0,2,0.8,2,1.9c0,1.1-0.8,2-1.9,2c0,0,0,0-0.1,0l-0.2,0c-1.1,0-2-0.9-2-2
			C89.1,5.2,90,4.4,91,4.3z"/>
		<path class="st19" d="M104,4l0.2,0c1.2,0,2.2,0.9,2.2,2.1s-0.9,2.2-2.1,2.2c0,0,0,0-0.1,0l-0.2,0c-1.2,0-2.2-1-2.2-2.2
			C101.9,5,102.9,4,104,4z"/>
		<path class="st19" d="M117,3.7l0.2,0c1.3,0,2.4,1,2.4,2.3s-1,2.4-2.3,2.4c0,0-0.1,0-0.1,0l-0.2,0c-1.3,0-2.4-1.1-2.3-2.4
			C114.7,4.8,115.8,3.7,117,3.7z"/>
		<path class="st19" d="M130.1,3.4l0.2,0c1.4,0,2.6,1.1,2.6,2.5s-1.1,2.6-2.5,2.6c0,0-0.1,0-0.1,0l-0.2,0c-1.4,0-2.5-1.2-2.5-2.6
			C127.6,4.6,128.7,3.5,130.1,3.4z"/>
		<path class="st19" d="M143.1,3.2l0.2,0c1.5,0,2.7,1.2,2.8,2.7c0,1.5-1.2,2.7-2.7,2.8c0,0,0,0-0.1,0l-0.2,0c-1.5,0-2.7-1.2-2.7-2.7
			C140.4,4.4,141.6,3.2,143.1,3.2z"/>
		<path class="st19" d="M156.1,3l0.2,0c1.6,0,2.9,1.2,2.9,2.8s-1.2,2.9-2.8,2.9c0,0,0,0-0.1,0l-0.2,0c-1.6,0-2.8-1.3-2.8-2.9
			C153.3,4.3,154.5,3.1,156.1,3z"/>
		<path class="st19" d="M169.1,2.9l0.2,0c1.7,0,3,1.3,3,3c0,1.7-1.3,3-3,3c0,0,0,0-0.1,0l-0.2,0c-1.7,0-3-1.4-3-3
			C166.2,4.2,167.5,2.9,169.1,2.9z"/>
		<path class="st19" d="M182.1,2.8l0.2,0c1.7,0,3.1,1.4,3.2,3.1c0,1.7-1.4,3.1-3.1,3.2c0,0,0,0-0.1,0l-0.2,0c-1.7,0-3.1-1.4-3.1-3.2
			C179.1,4.2,180.4,2.8,182.1,2.8z"/>
		<path class="st19" d="M195.2,2.7l0.2,0c1.8,0,3.3,1.5,3.3,3.3c0,1.8-1.5,3.3-3.3,3.3c0,0,0,0,0,0l-0.2,0c-1.8,0-3.2-1.5-3.2-3.3
			C191.9,4.1,193.4,2.7,195.2,2.7z"/>
		<path class="st19" d="M208.2,2.7l0.2,0c1.8,0,3.3,1.5,3.3,3.3c0,1.8-1.5,3.3-3.3,3.3c0,0,0,0,0,0l-0.2,0c-1.8,0-3.3-1.5-3.3-3.4
			C204.8,4.2,206.3,2.7,208.2,2.7z"/>
		<path class="st19" d="M221.2,2.7l0.2,0c1.9,0,3.4,1.5,3.4,3.4c0,1.9-1.5,3.4-3.4,3.4c0,0,0,0,0,0l-0.2,0c-1.9,0-3.4-1.6-3.4-3.5
			C217.8,4.2,219.3,2.7,221.2,2.7z"/>
		<path class="st19" d="M234.2,2.8l0.2,0c1.9,0,3.5,1.6,3.5,3.5c0,1.9-1.6,3.5-3.5,3.5c0,0,0,0,0,0l-0.2,0c-1.9,0-3.5-1.6-3.4-3.6
			C230.7,4.3,232.3,2.8,234.2,2.8z"/>
		<path class="st19" d="M247.2,2.9l0.2,0c2,0,3.6,1.6,3.6,3.6c0,2-1.6,3.6-3.6,3.6c0,0,0,0,0,0l-0.2,0c-2,0-3.6-1.7-3.5-3.7
			C243.7,4.4,245.3,2.9,247.2,2.9z"/>
		<path class="st19" d="M260.3,3l0.2,0c2,0,3.7,1.7,3.6,3.7c0,2-1.7,3.7-3.7,3.6c0,0,0,0,0,0l-0.2,0c-2-0.1-3.6-1.7-3.6-3.8
			C256.6,4.6,258.3,3,260.3,3z"/>
		<path class="st19" d="M273.3,3.2l0.2,0c2,0,3.7,1.7,3.6,3.8c0,2-1.7,3.7-3.8,3.6l0,0l-0.2,0c-2,0-3.7-1.7-3.6-3.8
			C269.6,4.8,271.2,3.2,273.3,3.2z"/>
		<path class="st19" d="M286.3,3.5l0.2,0c2.1,0,3.7,1.8,3.7,3.8c0,2.1-1.8,3.7-3.8,3.7l0,0l-0.2,0c-2.1-0.1-3.7-1.8-3.6-3.8
			S284.2,3.5,286.3,3.5z"/>
		<path class="st19" d="M299.3,3.8l0.2,0c2.1,0.1,3.7,1.8,3.7,3.9s-1.8,3.7-3.9,3.7l0,0l-0.2,0c-2.1-0.1-3.7-1.8-3.6-3.9
			S297.3,3.8,299.3,3.8z"/>
		<path class="st19" d="M312.4,4.2l0.1,0c2.1,0.1,3.7,1.8,3.7,3.9c-0.1,2.1-1.8,3.7-3.9,3.7l0,0l-0.1,0c-2.1-0.1-3.7-1.8-3.7-3.9
			C308.5,5.8,310.3,4.2,312.4,4.2z"/>
		<path class="st19" d="M325.3,4.6l0.1,0c2.1,0.1,3.8,1.8,3.7,3.9c-0.1,2.1-1.8,3.8-3.9,3.7l0,0l-0.1,0c-2.1-0.1-3.8-1.8-3.7-3.9
			C321.4,6.2,323.2,4.5,325.3,4.6z"/>
		<path class="st19" d="M338.2,4.9l0.1,0c2.1,0,3.8,1.8,3.8,3.9c0,2.1-1.8,3.8-3.9,3.8l0,0l-0.1,0c-2.1-0.1-3.8-1.8-3.7-4
			C334.4,6.5,336.1,4.8,338.2,4.9z"/>
		<path class="st19" d="M351.2,5.2l0.1,0c2.1,0.1,3.8,1.8,3.7,3.9c-0.1,2.1-1.8,3.8-3.9,3.7l-0.1,0c-2.1,0-3.8-1.8-3.8-3.9
			C347.3,6.8,349,5.2,351.2,5.2L351.2,5.2z"/>
		<path class="st19" d="M364.1,5.5l0.1,0c2.1,0,3.8,1.8,3.7,3.9c0,2.1-1.8,3.7-3.9,3.7l-0.1,0c-2.1,0-3.8-1.8-3.7-3.9
			C360.2,7.1,362,5.5,364.1,5.5L364.1,5.5z"/>
		<path class="st19" d="M377,5.8l0.1,0c2.1,0,3.7,1.8,3.7,3.8c0,2.1-1.8,3.7-3.8,3.7l-0.1,0c-2.1,0-3.8-1.7-3.7-3.8
			C373.2,7.4,374.9,5.7,377,5.8L377,5.8z"/>
		<path class="st19" d="M390,6l0.1,0c2.1,0,3.7,1.7,3.7,3.8c0,2.1-1.7,3.7-3.8,3.7l-0.1,0c-2.1,0-3.7-1.7-3.7-3.8
			C386.2,7.6,387.9,6,390,6L390,6z"/>
		<path class="st19" d="M402.9,6.2l0.1,0c2.1,0,3.7,1.7,3.7,3.8c0,2-1.7,3.7-3.7,3.7l-0.1,0c-2.1,0-3.7-1.7-3.7-3.7
			C399.1,7.8,400.8,6.2,402.9,6.2L402.9,6.2z"/>
		<path class="st19" d="M415.9,6.3l0.1,0c2,0,3.7,1.7,3.6,3.7c0,2-1.7,3.7-3.7,3.6l-0.1,0c-2,0-3.7-1.7-3.7-3.7
			C412.1,8,413.8,6.3,415.9,6.3L415.9,6.3z"/>
		<path class="st19" d="M428.8,6.5l0.1,0c2,0,3.6,1.7,3.6,3.7c0,2-1.6,3.5-3.6,3.6l-0.1,0c-2,0-3.6-1.6-3.6-3.6
			C425.1,8.1,426.7,6.5,428.8,6.5C428.7,6.5,428.8,6.5,428.8,6.5z"/>
		<path class="st19" d="M441.7,6.7l0.1,0c1.9,0,3.5,1.6,3.5,3.6c0,1.9-1.6,3.5-3.5,3.5l-0.1,0c-1.9,0-3.5-1.6-3.5-3.5
			C438.2,8.3,439.7,6.7,441.7,6.7C441.7,6.7,441.7,6.7,441.7,6.7z"/>
		<path class="st19" d="M454.7,6.8l0.1,0c1.9,0,3.4,1.6,3.4,3.5c0,1.9-1.5,3.4-3.4,3.4l-0.1,0c-1.9,0-3.5-1.5-3.5-3.4
			C451.2,8.4,452.7,6.8,454.7,6.8C454.6,6.8,454.7,6.8,454.7,6.8z"/>
		<path class="st19" d="M467.6,6.9l0.1,0c1.9,0,3.3,1.5,3.3,3.4c0,1.8-1.5,3.3-3.3,3.3l-0.1,0c-1.9,0-3.4-1.5-3.4-3.3
			C464.2,8.4,465.7,6.9,467.6,6.9C467.6,6.9,467.6,6.9,467.6,6.9z"/>
		<path class="st19" d="M480.6,7l0.1,0c1.8,0,3.3,1.5,3.3,3.3c0,1.8-1.5,3.2-3.2,3.3l-0.1,0c-1.8,0-3.3-1.4-3.3-3.2S478.7,7,480.6,7
			C480.5,7,480.6,7,480.6,7z"/>
		<path class="st19" d="M493.5,7.1l0.1,0c1.7,0,3.1,1.5,3.1,3.2c0,1.7-1.4,3.1-3.1,3.1l-0.1,0c-1.7,0-3.2-1.4-3.2-3.1
			c0-1.7,1.4-3.2,3.1-3.2C493.5,7.1,493.5,7.1,493.5,7.1z"/>
		<path class="st19" d="M506.5,7.1l0.1,0c1.7,0,3,1.4,3,3c0,1.6-1.3,3-3,3l-0.1,0c-1.7,0-3-1.3-3.1-3C503.4,8.6,504.7,7.2,506.5,7.1
			C506.4,7.1,506.5,7.1,506.5,7.1z"/>
		<path class="st19" d="M519.4,7.2l0.2,0c1.6,0,2.9,1.3,2.9,2.9c0,1.6-1.3,2.8-2.8,2.9l-0.2,0c-1.6,0-2.9-1.2-2.9-2.8
			C516.5,8.5,517.8,7.2,519.4,7.2C519.4,7.2,519.4,7.2,519.4,7.2z"/>
		<path class="st19" d="M532.5,7.2l0.2,0c1.5,0,2.7,1.2,2.7,2.7c0,1.5-1.2,2.7-2.7,2.7l-0.2,0c-1.5,0-2.8-1.2-2.8-2.7
			C529.7,8.5,530.9,7.2,532.5,7.2C532.4,7.2,532.4,7.2,532.5,7.2z"/>
		<path class="st19" d="M545.5,7.2l0.2,0c1.4,0,2.6,1.2,2.6,2.6c0,1.4-1.1,2.5-2.5,2.6l-0.2,0c-1.4,0-2.6-1.1-2.7-2.5
			C542.8,8.4,544,7.3,545.5,7.2C545.4,7.2,545.4,7.2,545.5,7.2z"/>
		<path class="st19" d="M558.5,7.2h0.2c1.3,0,2.4,1.1,2.4,2.4c0,1.3-1,2.4-2.3,2.4l-0.2,0c-1.3,0-2.4-1-2.5-2.3S557.1,7.3,558.5,7.2
			C558.4,7.2,558.5,7.2,558.5,7.2z"/>
		<path class="st19" d="M571.5,7.2l0.2,0c1.2,0,2.2,1,2.2,2.2c0,1.2-0.9,2.2-2.1,2.2l-0.2,0c-1.2,0-2.2-0.9-2.3-2.1
			S570.2,7.3,571.5,7.2C571.4,7.2,571.5,7.2,571.5,7.2z"/>
		<path class="st19" d="M584.5,7.2l0.2,0c1.1,0,2,0.9,2,2c0,1.1-0.9,2-1.9,2l-0.2,0c-1.1,0-2-0.8-2.1-1.9
			C582.5,8.1,583.3,7.2,584.5,7.2C584.5,7.2,584.5,7.2,584.5,7.2z"/>
		<path class="st19" d="M597.5,7.1l0.2,0c1,0,1.8,0.8,1.8,1.8c0,1-0.8,1.8-1.7,1.8l-0.2,0c-1,0-1.8-0.7-1.9-1.7S596.5,7.1,597.5,7.1
			C597.5,7.1,597.5,7.1,597.5,7.1z"/>
		<path class="st19" d="M610.5,7l0.2,0c0.9,0,1.6,0.7,1.6,1.5c0,0.8-0.7,1.5-1.5,1.6l-0.2,0c-0.9,0-1.6-0.6-1.6-1.5
			C608.9,7.8,609.6,7.1,610.5,7C610.5,7,610.5,7,610.5,7z"/>
		<path class="st19" d="M623.5,6.9l0.2,0c0.7,0,1.3,0.6,1.3,1.3c0,0.7-0.5,1.3-1.2,1.3l-0.2,0c-0.7,0-1.3-0.5-1.4-1.2
			C622.2,7.6,622.8,7,623.5,6.9C623.5,6.9,623.5,6.9,623.5,6.9z"/>
		<path class="st19" d="M636.6,6.8l0.2,0c0.6,0,1,0.4,1,1c0,0.5-0.4,1-1,1l-0.2,0c-0.6,0-1.1-0.4-1.1-1
			C635.5,7.3,635.9,6.8,636.6,6.8C636.5,6.8,636.5,6.8,636.6,6.8z"/>
		<path class="st19" d="M649.6,6.6l0.2,0c0.4,0,0.7,0.3,0.7,0.7c0,0.4-0.3,0.7-0.7,0.7l-0.2,0c-0.4,0-0.8-0.3-0.8-0.7
			C648.8,7,649.1,6.6,649.6,6.6C649.5,6.6,649.6,6.6,649.6,6.6z"/>
		<path class="st19" d="M662.6,6.4l0.2,0c0.2,0,0.4,0.2,0.4,0.4c0,0.2-0.2,0.4-0.4,0.4l-0.2,0c-0.2,0-0.4-0.1-0.4-0.4
			C662.2,6.6,662.3,6.4,662.6,6.4C662.6,6.4,662.6,6.4,662.6,6.4z"/>
		<path class="st19" d="M675.6,6l0.2,0c0,0,0,0,0,0c0,0,0,0,0,0L675.6,6C675.6,6.1,675.6,6.1,675.6,6C675.6,6,675.6,6,675.6,6
			C675.6,6,675.6,6,675.6,6z"/>
	</g>
</g>
</svg>
