<?xml version="1.0" encoding="utf-8"?>
<!-- Generator: Adobe Illustrator 24.3.0, SVG Export Plug-In . SVG Version: 6.00 Build 0)  -->
<svg version="1.1" id="圖層_1" xmlns="http://www.w3.org/2000/svg" xmlns:xlink="http://www.w3.org/1999/xlink" x="0px" y="0px"
	 viewBox="0 0 380.2 395.4" style="enable-background:new 0 0 380.2 395.4;" xml:space="preserve">
<style type="text/css">
	.st0{opacity:0.8;fill:#B44722;}
	.st1{opacity:0.8;fill:#AD4623;}
</style>
<path class="st1" d="M347.8,36.3C330.9-12.7,205,9.6,202.6,49.4s19.4,55.7,8.5,71.7c-10.9,16.1-31.5,19.7-76.2,4.2
	c-44.8-15.5-111.3,5.5-115,72.6l17.7,0l-17.7,0c3.6,67.1,70.2,88.1,115,72.6c44.8-15.5,65.4-11.9,76.2,4.2
	c10.9,16.1-10.9,31.9-8.5,71.7s128.3,62.2,145.2,13.1s33.4-46,33.4-46V198.3v-0.9V82.3C381.2,82.3,364.8,85.4,347.8,36.3z"/>
</svg>
