<?xml version="1.0" encoding="utf-8"?>
<!-- Generator: Adobe Illustrator 24.3.0, SVG Export Plug-In . SVG Version: 6.00 Build 0)  -->
<svg version="1.1" id="圖層_1" xmlns="http://www.w3.org/2000/svg" xmlns:xlink="http://www.w3.org/1999/xlink" x="0px" y="0px"
	 viewBox="0 0 111.7 96.3" style="enable-background:new 0 0 111.7 96.3;" xml:space="preserve">
<style type="text/css">
	.st0{fill:#FFFFFF;}
	.st1{fill:#853F39;stroke:#FFFFFF;stroke-width:0.9194;stroke-miterlimit:10;}
</style>
<g>
	<g>
		<path class="st0" d="M74.7,43l4.5-0.3c0,0,0,0,0,0c3.2-0.3,6.1-1.9,7.9-4.6l3.6-5.2c3.1-4.5,4.3-10,3.4-15.4
			c-0.2-1.1-0.7-2-1.5-2.8c-0.8-0.7-1.8-1.1-2.9-1.2c-5.5-0.3-10.8,1.6-14.9,5.2l-4.7,4.1c-2.4,2.1-3.7,5.2-3.6,8.4c0,0,0,0,0,0
			l0.3,4.5c0.1,1.8-0.5,3.5-1.8,4.7L27.7,78.6c-1,1-1.5,2.5-1.4,4c0.1,1.7,0.8,3.4,2.1,4.5c1.1,1,2.7,1.6,4.2,1.6c0.2,0,0.3,0,0.5,0
			c1.5-0.1,2.9-0.8,3.8-1.9l33.4-41.4C71.3,43.9,73,43.1,74.7,43z M68.4,43.9L35.1,85.2c-0.5,0.6-1.3,1-2.2,1.1
			c-1.1,0.1-2.2-0.3-3-1c-0.8-0.7-1.3-1.8-1.3-2.8c0-0.9,0.2-1.7,0.8-2.3l37.1-38.1c1.7-1.7,2.5-4.1,2.4-6.5l-0.3-4.5
			c-0.1-2.5,0.9-4.9,2.8-6.6l4.7-4.1c3.7-3.2,8.4-4.9,13.3-4.6c0.6,0,1.1,0.2,1.5,0.6c0.4,0.4,0.7,0.9,0.8,1.4
			c0.8,4.8-0.2,9.7-3,13.7l-3.6,5.2c-1.4,2.1-3.7,3.4-6.2,3.6l-4.5,0.3C72.2,40.8,69.9,42,68.4,43.9z"/>
		<path class="st0" d="M92.2,78.3L67.3,55.7c-0.5-0.4-1.2-0.4-1.6,0.1c-0.4,0.5-0.4,1.2,0.1,1.6L90.7,80c0.6,0.5,0.9,1.4,0.9,2.3
			c0,1.1-0.4,2.2-1.1,2.9c-0.7,0.7-1.8,1.2-2.9,1.1c-0.9,0-1.7-0.4-2.3-0.9L63.1,61.1c-0.4-0.5-1.2-0.5-1.6-0.1
			c-0.5,0.4-0.5,1.2-0.1,1.6l22.2,24.3c1,1.1,2.4,1.7,3.9,1.7c0,0,0.1,0,0.1,0c1.7,0,3.3-0.7,4.5-1.8c1.2-1.2,1.8-2.9,1.8-4.6
			C93.9,80.7,93.3,79.3,92.2,78.3z"/>
		<path class="st0" d="M31.7,42.8c1.9,1.7,4.4,2.7,6.9,2.8c0,0,0,0,0,0l4.5,0c1.8,0,3.4,0.7,4.6,2l2,2.2c0.2,0.2,0.5,0.4,0.8,0.4
			c0.3,0,0.6-0.1,0.8-0.3c0.5-0.4,0.5-1.2,0.1-1.6l-2-2.2c-1.6-1.8-3.9-2.8-6.3-2.8l-4.5,0c-2-0.1-3.9-0.8-5.4-2.2l-13-15.5
			c-0.1-0.2-0.1-0.4,0-0.5c0.1-0.1,0.2-0.1,0.3-0.1s0.2,0,0.3,0.1L32.7,37c1.2,1.2,3.1,1.2,4.3,0l1.4-1.4v0l2.5-2.5c0,0,0,0,0,0l0,0
			l1.4-1.4c1.2-1.2,1.2-3.1,0-4.3L30.4,15.6c-0.2-0.2-0.2-0.4,0-0.6c0.1-0.1,0.4-0.2,0.5,0l15.5,13c1.3,1.5,2.1,3.4,2.2,5.4l0,4.5
			c0,2.4,1,4.7,2.8,6.3l2.1,1.9c0.5,0.4,1.2,0.4,1.6-0.1c0.4-0.5,0.4-1.2-0.1-1.6l-2.1-1.9c-1.3-1.2-2-2.9-2-4.6l0-4.5c0,0,0,0,0,0
			c-0.1-2.6-1.1-5-2.8-6.9c0,0-0.1-0.1-0.1-0.1L32.4,13.2c-1.1-0.9-2.6-0.8-3.6,0.2c-1,1-1,2.8,0,3.8l11.9,11.9c0.3,0.3,0.3,0.7,0,1
			L40,30.7L26.8,17.4c-0.4-0.4-1.2-0.4-1.6,0c-0.4,0.4-0.4,1.2,0,1.6l13.2,13.2l-0.9,0.9L24.3,19.9c-0.4-0.4-1.2-0.4-1.6,0
			c-0.4,0.4-0.4,1.2,0,1.6l13.2,13.2l-0.6,0.6c-0.3,0.3-0.7,0.3-1,0L22.5,23.5c-0.5-0.5-1.2-0.8-1.9-0.8s-1.4,0.3-1.9,0.8
			c-1,1-1.1,2.6-0.2,3.6l13.1,15.6C31.6,42.7,31.7,42.7,31.7,42.8z"/>
	</g>
</g>
</svg>
