<?xml version="1.0" encoding="utf-8"?>
<!-- Generator: Adobe Illustrator 24.3.0, SVG Export Plug-In . SVG Version: 6.00 Build 0)  -->
<svg version="1.1" id="圖層_1" xmlns="http://www.w3.org/2000/svg" xmlns:xlink="http://www.w3.org/1999/xlink" x="0px" y="0px"
	 viewBox="0 0 111.7 96.3" style="enable-background:new 0 0 111.7 96.3;" xml:space="preserve">
<style type="text/css">
	.st0{fill:#FFFFFF;}
	.st1{fill:#853F39;stroke:#FFFFFF;stroke-width:0.9194;stroke-miterlimit:10;}
</style>
<g>
	<g id="_x30_99---Hiking_3_">
		<path id="Shape_33_" class="st0" d="M29.5,35h-2.6c-0.7,0-1.3,0.6-1.3,1.3s0.6,1.3,1.3,1.3h2.6c0.7,0,1.3-0.6,1.3-1.3
			S30.2,35,29.5,35z"/>
		<path id="Shape_21_" class="st0" d="M71.9,26c0,4.3,3.5,7.7,7.7,7.7s7.7-3.5,7.7-7.7s-3.5-7.7-7.7-7.7
			C75.4,18.2,71.9,21.7,71.9,26z M79.6,20.8c2.8,0,5.1,2.3,5.1,5.1s-2.3,5.1-5.1,5.1c-2.8,0-5.1-2.3-5.1-5.1S76.8,20.8,79.6,20.8z"
			/>
		<path id="Shape_20_" class="st0" d="M80.9,14.3v-1.2c0-0.7-0.6-1.3-1.3-1.3c-0.7,0-1.3,0.6-1.3,1.3v1.2c0,0.7,0.6,1.3,1.3,1.3
			C80.3,15.6,80.9,15,80.9,14.3z"/>
		<path id="Shape_19_" class="st0" d="M78.3,37.6v1.2c0,0.7,0.6,1.3,1.3,1.3c0.7,0,1.3-0.6,1.3-1.3v-1.2c0-0.7-0.6-1.3-1.3-1.3
			C78.9,36.4,78.3,36.9,78.3,37.6z"/>
		<path id="Shape_18_" class="st0" d="M92.5,24.7h-1.2c-0.7,0-1.3,0.6-1.3,1.3s0.6,1.3,1.3,1.3h1.2c0.7,0,1.3-0.6,1.3-1.3
			S93.2,24.7,92.5,24.7z"/>
		<path id="Shape_17_" class="st0" d="M67.9,27.2c0.7,0,1.3-0.6,1.3-1.3s-0.6-1.3-1.3-1.3h-1.2c-0.7,0-1.3,0.6-1.3,1.3
			s0.6,1.3,1.3,1.3H67.9z"/>
		<path id="Shape_16_" class="st0" d="M89.6,16c-0.5-0.5-1.3-0.5-1.8,0L87,16.8c-0.4,0.4-0.5,0.9-0.3,1.4s0.7,0.8,1.2,0.8
			c0.6,0,0.9-0.3,1.7-1.2C90.1,17.3,90.1,16.5,89.6,16z"/>
		<path id="Shape_15_" class="st0" d="M69.6,36c0.5,0.5,1.3,0.5,1.8,0l0.8-0.8c0.5-0.5,0.5-1.3,0-1.8c-0.5-0.5-1.3-0.5-1.8,0
			l-0.8,0.8C69.1,34.6,69.1,35.5,69.6,36L69.6,36z"/>
		<path id="Shape_14_" class="st0" d="M88.8,33.3c-0.5-0.5-1.3-0.5-1.8,0c-0.5,0.5-0.5,1.3,0,1.8c0.7,0.7,1,1.2,1.7,1.2
			c0.5,0,1-0.3,1.2-0.8c0.2-0.5,0.1-1-0.3-1.4L88.8,33.3z"/>
		<path id="Shape_13_" class="st0" d="M71.4,16c-0.5-0.5-1.3-0.5-1.8,0c-0.5,0.5-0.5,1.3,0,1.8c0.7,0.7,1,1.2,1.7,1.2
			c0.5,0,1-0.3,1.2-0.8c0.2-0.5,0.1-1-0.3-1.4L71.4,16z"/>
		<path id="Shape_12_" class="st0" d="M92.5,82.5c-15.9,0-14.9,0.1-15.3-0.2l-7.7-5.5c-0.7-0.5-1.4-0.7-2.2-0.7H64
			c0.3-0.9,0.2-0.7,0.2-7l7-12.2h11.7l8.4,14.8c0.2,0.4,0.6,0.7,1.1,0.7s0.9-0.2,1.1-0.6c0.2-0.4,0.2-0.9,0-1.3L79.3,45.3
			C78.8,44.5,78,44,77.1,44s-1.8,0.5-2.2,1.3L64.2,63.9V42.5c1.3-1.3,1.6-3.2,0.9-4.9C64.4,36,62.8,34.9,61,35h-9.7l-7.1-7.1
			c-1.2-1.2-2.9-1.9-4.6-1.9c-0.1-0.2-0.1-0.3-0.2-0.5c2.6-3.1,2.6-7.7-0.1-10.8c-2.7-3.1-7.2-3.8-10.7-1.6s-4.9,6.5-3.3,10.3h-4.7
			c-2.1,0-3.9,1.7-3.9,3.9v3.9c0,0.9,0.5,1.8,1.3,2.2v15.8c0,2.1,1.7,3.9,3.9,3.9v32.1h-3.9c-0.7,0-1.3,0.6-1.3,1.3
			c0,0.7,0.6,1.3,1.3,1.3h16.8c1.1,0,2.2-0.5,2.9-1.4l6.2-7.2c0.2-0.3,0.6-0.4,1-0.5c24.3,0,22.7-0.1,23.2,0.2l7.7,5.5
			c0.7,0.5,1.4,0.7,2.2,0.7h14.6c0.7,0,1.3-0.6,1.3-1.3C93.8,83.1,93.2,82.5,92.5,82.5L92.5,82.5z M77.1,46.5l4.4,7.7h-8.8
			L77.1,46.5z M59.4,75.7c-0.2-0.2-0.4-0.6-0.4-0.9V44c0.9,0.1,1.7,0,2.6-0.1v30.9c0,0.5-0.3,1-0.8,1.2
			C60.3,76.2,59.8,76.1,59.4,75.7L59.4,75.7z M62.4,38.2c0.5,0.6,0.6,1.4,0.3,2.2c-0.4,0.7-1.1,1.1-1.9,1.1h-1.7v-3.9
			C61.1,37.5,61.7,37.4,62.4,38.2L62.4,38.2z M56.5,37.5v3.9h-6.3c-1.3,0-2.5-0.7-3.3-1.7l2.4-3l0.1,0.1c0.5,0.5,1.1,0.7,1.8,0.7
			H56.5z M47.5,34.8l-2.4,3L43.3,36c-0.4-0.4-0.9-0.5-1.4-0.3c-0.5,0.2-0.8,0.7-0.8,1.2v12.2h-2.6V33.3c0.8-0.5,1.3-1.3,1.3-2.2
			v-2.6c1,0,1.9,0.4,2.6,1.1L47.5,34.8z M23.1,40.1c-1.4,0-2.6-1.2-2.6-2.6v-3.9h15.4v3.9c0,1.4-1.2,2.6-2.6,2.6H23.1z M32.9,14.4
			c2.2,0,4.2,1.3,5.2,3.2s0.7,4.3-0.6,6.1c-1-0.4-0.8-0.3-9.3-0.3c-1.2-1.8-1.3-4.1-0.3-5.9S30.8,14.4,32.9,14.4z M19.2,27.2
			c0-0.7,0.6-1.3,1.3-1.3h15.4c0.7,0,1.3,0.6,1.3,1.3v3.9h-18V27.2z M20.5,49.1V42c0.8,0.5,1.7,0.7,2.6,0.7v2.6
			c0,0.7,0.6,1.3,1.3,1.3c0.7,0,1.3-0.6,1.3-1.3v-2.6h5.1v2.6c0,0.7,0.6,1.3,1.3,1.3s1.3-0.6,1.3-1.3v-2.6c0.9,0,1.8-0.3,2.6-0.7
			c0,7.7,0.1,7.4-0.2,7.8c-0.2,0.4-0.7,0.6-1.1,0.6H21.8C21.1,50.4,20.5,49.8,20.5,49.1z M36.4,52.5c0.4-0.2,0.8-0.5,1.1-0.8h3.6
			c3.5,0,6.4,2.9,6.4,6.4v11.6h-6.6l-1.1-9.1c0-1.4-1.2-2.5-2.6-2.5h-2.6c-1.4,0-2.5,1.1-2.6,2.5l-1.2,18.1h-6.5V53
			C35.6,53,35.3,53.1,36.4,52.5z M24.3,85.1v-3.9h7.7c1.4,0,2.6,1.2,2.6,2.6v1.3H24.3z M37.1,83c-0.3-2-1.8-3.6-3.7-4.1l1.2-18.2
			h2.6c0,0.1,0,0.1,0,0.2c1.5,12.2,1.3,8.9,1.3,15.3c0,1.3,1,2.4,2.4,2.6L37.1,83z M41.1,76.1v-3.9h7.7c1.4,0,2.6,1.2,2.6,2.6v1.3
			H41.1z M50.1,69.9V58.1c0-4-2.6-7.5-6.4-8.6V40l2,2c1.2,1.2,2.8,1.9,4.5,1.9h6.3c0,33.8-0.1,31.2,0.2,32.1h-2.8v-1.3
			C53.9,72.5,52.3,70.4,50.1,69.9L50.1,69.9z"/>
	</g>
</g>
</svg>
