<?xml version="1.0" encoding="utf-8"?>
<!-- Generator: Adobe Illustrator 24.3.0, SVG Export Plug-In . SVG Version: 6.00 Build 0)  -->
<svg version="1.1" id="圖層_1" xmlns="http://www.w3.org/2000/svg" xmlns:xlink="http://www.w3.org/1999/xlink" x="0px" y="0px"
	 viewBox="0 0 111.7 96.3" style="enable-background:new 0 0 111.7 96.3;" xml:space="preserve">
<style type="text/css">
	.st0{fill:#FFFFFF;}
	.st1{fill:#853F39;stroke:#FFFFFF;stroke-width:0.9194;stroke-miterlimit:10;}
</style>
<g>
	<g>
		<path class="st0" d="M101.3,85h-1.5c-0.8,0-1.5,0.7-1.5,1.5c0,0.8,0.7,1.5,1.5,1.5h1.5c0.8,0,1.5-0.7,1.5-1.5
			C102.8,85.7,102.1,85,101.3,85z"/>
		<path class="st0" d="M73.6,60.4c-0.8,0-1.5,0.7-1.5,1.5v20.2c0,0.8,0.7,1.5,1.5,1.5s1.5-0.7,1.5-1.5V62
			C75.2,61.1,74.5,60.4,73.6,60.4z"/>
		<path class="st0" d="M97.7,79.3c-0.6-0.6-1.6-0.6-2.2,0L91.9,83L75,52c-0.3-0.5-0.8-0.8-1.3-0.8H33.7c-0.6,0-1.1,0.3-1.3,0.8
			L15.5,83l-3.7-3.7c-0.6-0.6-1.6-0.6-2.2,0c-0.6,0.6-0.6,1.6,0,2.2l3.5,3.5h-4c-0.8,0-1.5,0.7-1.5,1.5c0,0.8,0.7,1.5,1.5,1.5h86
			c0.8,0,1.5-0.7,1.5-1.5c0-0.8-0.7-1.5-1.5-1.5h-0.9l3.5-3.5C98.3,80.9,98.3,79.9,97.7,79.3z M17.9,85l16.7-30.7H71L54.3,85H17.9z
			 M57.8,85l15.8-29l15.8,29H57.8z"/>
		<path class="st0" d="M21.6,37.4h20c4.2,0,7.7-3.4,7.7-7.7c0-3.9-2.9-7.2-6.8-7.6c-2.1-6-8.7-9.2-14.7-7.1c-2.2,0.8-4.1,2.1-5.4,4
			c-0.2,0-0.5,0-0.7,0c-5.1,0-9.2,4.1-9.2,9.2S16.5,37.4,21.6,37.4z M21.6,22.1c0.4,0,0.8,0,1.2,0.1c0.6,0.1,1.3-0.2,1.6-0.7
			c2.4-4,7.6-5.2,11.6-2.8c1.9,1.2,3.3,3.1,3.8,5.2c0.2,0.7,0.8,1.2,1.6,1.2c0.1,0,0.1,0,0.2,0c2.5,0,4.6,2.1,4.6,4.6
			s-2.1,4.6-4.6,4.6h-20c-3.4,0-6.1-2.7-6.1-6.1S18.2,22.1,21.6,22.1L21.6,22.1z"/>
		<path class="st0" d="M84.4,26.5c5.1,0,9.2-4.1,9.2-9.2s-4.1-9.2-9.2-9.2c-5.1,0-9.2,4.1-9.2,9.2C75.2,22.4,79.3,26.5,84.4,26.5z
			 M84.4,11.2c3.4,0,6.1,2.7,6.1,6.1s-2.7,6.1-6.1,6.1c-3.4,0-6.1-2.7-6.1-6.1C78.2,13.9,81,11.2,84.4,11.2z"/>
		<path class="st0" d="M84.4,6.6c0.8,0,1.5-0.7,1.5-1.5V3.5c0-0.8-0.7-1.5-1.5-1.5s-1.5,0.7-1.5,1.5V5C82.8,5.9,83.5,6.6,84.4,6.6z"
			/>
		<path class="st0" d="M82.8,29.6v1.5c0,0.8,0.7,1.5,1.5,1.5s1.5-0.7,1.5-1.5v-1.5c0-0.8-0.7-1.5-1.5-1.5S82.8,28.7,82.8,29.6z"/>
		<path class="st0" d="M95.1,17.3c0,0.8,0.7,1.5,1.5,1.5h1.5c0.8,0,1.5-0.7,1.5-1.5c0-0.8-0.7-1.5-1.5-1.5h-1.5
			C95.8,15.8,95.1,16.5,95.1,17.3z"/>
		<path class="st0" d="M70.6,18.8h1.5c0.8,0,1.5-0.7,1.5-1.5c0-0.8-0.7-1.5-1.5-1.5h-1.5c-0.8,0-1.5,0.7-1.5,1.5
			C69,18.2,69.7,18.8,70.6,18.8z"/>
		<path class="st0" d="M93.1,10.2c0.4,0,0.8-0.2,1.1-0.4l1.1-1.1c0.6-0.6,0.6-1.6,0-2.2c-0.6-0.6-1.6-0.6-2.2,0L92,7.5
			c-0.6,0.6-0.6,1.6,0,2.2C92.3,10,92.7,10.2,93.1,10.2L93.1,10.2z"/>
		<path class="st0" d="M74.6,24.9L73.5,26c-0.6,0.6-0.6,1.6,0,2.2c0.6,0.6,1.6,0.6,2.2,0l1.1-1.1c0.6-0.6,0.6-1.6,0-2.2
			C76.2,24.3,75.2,24.3,74.6,24.9z"/>
		<path class="st0" d="M94.1,24.9c-0.6-0.6-1.6-0.6-2.2,0c-0.6,0.6-0.6,1.6,0,2.2c0,0,0,0,0,0l1.1,1.1c0.6,0.6,1.6,0.6,2.2,0
			c0.6-0.6,0.6-1.6,0-2.2L94.1,24.9z"/>
		<path class="st0" d="M74.6,9.7c0.6,0.6,1.6,0.6,2.2,0c0.6-0.6,0.6-1.6,0-2.2c0,0,0,0,0,0l-1.1-1.1c-0.6-0.6-1.6-0.6-2.2,0
			c-0.6,0.6-0.6,1.6,0,2.2L74.6,9.7z"/>
	</g>
</g>
</svg>
