<?xml version="1.0" encoding="utf-8"?>
<!-- Generator: Adobe Illustrator 24.3.0, SVG Export Plug-In . SVG Version: 6.00 Build 0)  -->
<svg version="1.1" id="圖層_1" xmlns="http://www.w3.org/2000/svg" xmlns:xlink="http://www.w3.org/1999/xlink" x="0px" y="0px"
	 viewBox="0 0 295.5 193.3" style="enable-background:new 0 0 295.5 193.3;" xml:space="preserve">
<style type="text/css">
	.st0{fill:#E28897;}
	.st1{fill:#525460;}
	.st2{fill:#565EA9;}
	.st3{fill:#31324F;}
	.st4{fill:#DEE4ED;}
	.st5{opacity:0.1;fill:#040000;enable-background:new    ;}
	.st6{fill:#3E3E63;}
	.st7{fill:#5E3454;}
	.st8{fill:#535183;}
	.st9{fill:#B5811C;}
	.st10{fill:#5B401C;}
	.st11{fill:#D19534;}
	.st12{fill:#D69C22;}
	.st13{fill:#36260E;}
	.st14{fill:url(#SVGID_1_);}
	.st15{fill:#CEBF97;}
	.st16{fill:#352F44;}
	.st17{fill:#F9D2D4;}
	.st18{opacity:5.000000e-02;fill:#040000;enable-background:new    ;}
	.st19{fill:#2D230D;}
	.st20{fill:#231C09;}
	.st21{fill:#ECF2F9;}
	.st22{fill:#D6CEB2;}
	.st23{fill:#E6D9B1;}
	.st24{fill:#FFFFFF;}
	.st25{fill:#CFC09A;}
	.st26{fill:#454A5E;}
	.st27{fill:#9C9BA1;}
	.st28{fill:#939498;}
</style>
<g>
	<path class="st13" d="M133.4,140.5v14.2h3.2c0,0,1.6-13.9-0.4-16.1S133.4,140.5,133.4,140.5z"/>
	<path class="st10" d="M19.2,118c0,0,93-18.4,94.3-11.9c0,0,1.5,2.1,0.9,6.4c-0.6,4.3-1.5,17,9.2,18s13,3,13.1,10.3l-91.3,29.9
		l-10.7-13.1c0,0-9.7-4.8-9.9-4.8c-0.2,0-5.5-11.7-5.5-11.7l-0.9-10.4l1.4-9.1L19.2,118z"/>
	
		<rect x="20.1" y="114.4" transform="matrix(0.9874 -0.1581 0.1581 0.9874 -17.2724 12.0806)" class="st13" width="94.4" height="0.5"/>
	
		<rect x="19.3" y="119.2" transform="matrix(0.9858 -0.1679 0.1679 0.9858 -19.1022 12.9763)" class="st13" width="95.8" height="0.5"/>
	
		<rect x="18.8" y="125.2" transform="matrix(0.9819 -0.1894 0.1894 0.9819 -22.5344 14.9244)" class="st13" width="96.1" height="0.5"/>
	
		<rect x="18.9" y="129.8" transform="matrix(0.9781 -0.2079 0.2079 0.9781 -25.5649 16.772)" class="st13" width="96.2" height="0.5"/>
	
		<rect x="20.7" y="134.2" transform="matrix(0.9745 -0.2246 0.2246 0.9745 -28.4446 18.8102)" class="st13" width="95.6" height="0.5"/>
	
		<rect x="23.3" y="138.3" transform="matrix(0.9724 -0.2333 0.2333 0.9724 -30.3817 20.3614)" class="st13" width="95.2" height="0.5"/>
	<rect x="29" y="140.8" transform="matrix(0.9685 -0.249 0.249 0.9685 -32.7555 23.1691)" class="st13" width="92.4" height="0.5"/>
	
		<rect x="33.5" y="143.1" transform="matrix(0.9646 -0.2636 0.2636 0.9646 -34.9195 26.4032)" class="st13" width="94.8" height="0.5"/>
	
		<rect x="38.5" y="146" transform="matrix(0.9608 -0.2773 0.2773 0.9608 -37.1499 29.8343)" class="st13" width="96.8" height="0.5"/>
	
		<rect x="41.1" y="150.3" transform="matrix(0.9588 -0.2841 0.2841 0.9588 -39.0852 31.6775)" class="st13" width="97.1" height="0.5"/>
	<path class="st13" d="M20,116.9c0,0-4.7,1.2-4.8,17.6c-0.2,3,0.2,6,1.2,8.8c1.7,4.4,4.3,10.6,3,14.5c0,0-1.3,10.4-4.3,12.9l2.9,2.6
		c0,0,6.6-15,13.8-12.7s9.4,6.2,8.6,18.1l-0.8,10.1l3.6,2c0,0,5.3-15,0.8-29c0,0-4.5-6.6-10.5-8.8s-9-3.2-12-12
		c0,0-1.1-8.5-0.4-11.5C21.7,126.5,21.7,117.4,20,116.9z"/>
	
		<linearGradient id="SVGID_1_" gradientUnits="userSpaceOnUse" x1="162.397" y1="1679.7144" x2="162.397" y2="1796.8854" gradientTransform="matrix(1 0 0 -1 -68.2766 1869.8005)">
		<stop  offset="0" style="stop-color:#7F8080;stop-opacity:0.25"/>
		<stop  offset="0.5351" style="stop-color:#7F8080;stop-opacity:0.12"/>
		<stop  offset="1" style="stop-color:#7F8080;stop-opacity:0.1"/>
	</linearGradient>
	<path class="st14" d="M152.8,170.3c-3.7,2.9-6,0.2-6,0.2s-6.2-4.4-6.4-5.1c-0.1-0.4-0.2-0.7-0.4-1.1c0,0-1,0.2-1-0.3
		c0-0.5-1.1-0.7-1.7-1.1c-0.6-0.4-4.5-3.8-4.5-3.8s-0.1-0.7-1.9-1.3c-1.3-0.4-4-2.9-5.4-4.4c-0.1-0.6-0.4-2.4-0.7-2.9
		c-0.2-0.2-0.4-0.3-0.6-0.3c0-0.2-0.1-0.3-0.1-0.5c-0.4-1.7-0.8-3.3-1-5c-0.4-3.5-3.4-4.6-4.1-4.6c-0.8,0-6.8-2.6-6.8-2.6l-9.8-4
		c0,0-6-1.9-5.8-3.2c0-0.1,0-0.3,0-0.4c-0.2-0.7-0.6-1.4-1.2-1.9c-0.4-0.4-0.8-0.8-1.2-1.1l-3.2-2l-0.2-0.2c1-1.5,2.2-2.8,3.5-4
		c0,0-0.7-1.3-1.5-1.3c-0.5,0-3.5-0.9-5.4-1.6c0.2-2.1,0.6-8.6-1.9-10l-2.9-1.6c0,0,0.1,0.2,0.3,0.6l-0.4-0.2c0,0,0.1,0.1,0.1,0.3
		c-0.1,0-0.2,0-0.3,0c-0.2-0.6-0.3-1.3-0.3-1.9c0.2-0.6,0.2-4.8-1.5-6.9l1.4-4.1c0.1-0.4-0.1-0.9-0.5-1c0,0,0,0,0,0l-3.6-1.2
		c-0.5-0.1-1,0.1-1.2,0.5l-1,3c-0.4-0.1-0.9-0.2-1.3-0.2c-0.3-0.6-0.7-1.1-0.6-1.7c0.1-0.4,0.2-0.7,0.4-1c0.5-0.9,0.8-1.9,1-2.9
		c0.1-0.2,0.1-0.4,0-0.6c-0.2-0.5-0.8-0.7-1.1-1.1c-0.2-0.4-0.2-0.8,0-1.2c0.2-0.7,0.5-1.3,0.6-1.9c0.2-0.7,0.1-1.4-0.2-2
		c-0.3-0.5-0.7-0.8-1.2-1.1c-0.1-0.6-0.5-1.1-0.4-1.7c0.1-0.3,0.4-0.6,0.4-1c0.1-0.6-0.5-1.1-1.1-1.4l-4.9-2.9
		c-0.4-0.3-0.9-0.5-1.4-0.7c-0.8-0.5-1.8-0.7-2.8-0.7c-1.3,0.2-2.3,1.1-3.1,2c-0.8,1-1.4,2.1-2.2,3c-1.6,1.7-3.9,2.5-5.6,4
		c-0.5,0.4-0.9,0.9-1.1,1.5c-0.7,1.9,1.1,3.9,1,5.9c0,1.8-1.4,3.3-2.8,4.4c-0.6,0.5-1.3,1-1.4,1.7c0,0.6,0.1,1.2,0.3,1.7
		c0.3,1.2,0.3,2.4-0.2,3.5c-1.1,0.7-1.9,1.2-1.9,1.2s-4.6,3.9-7.2,4.8c-0.1,0-0.2,0.1-0.3,0.2c-0.7,0.4-2.7,1.7-3,2.3
		c-0.4,0.8-3.5,3.8-1.5,4.8c1.1,0.6,2.4,1,3.7,1.2c0,0,4.5,1.4,6.3,2.3c1.1,0.5,2.2,0.9,3.4,1.2c-0.1,1.2-0.6,2.4-1.4,3.4
		c0,0,0,0,0,0c-0.2,0.3-0.5,0.6-0.7,0.8c0.2,0,0.3,0.1,0.5,0.1c0,0,0,0,0,0c1.3,0.2,2.6,0.4,3.9,0.1s2.5-1.2,2.7-2.5
		c0.2-1.4-0.6-3,0.3-4c0.3-0.3,0.7-0.5,1.2-0.6c0.6,0.8,5.2,6.6,9.3,5.3c-0.9,2.5-2.6,6.9-2.9,7c-0.4,0.2,4.5,1.8,4.5,1.8
		s1-0.2,2.4-0.3c0,0.2,0,0.3,0,0.5c-0.1,1.7-0.2,4,0.1,4.7c0.1,0.2,0.1,0.3,0.2,0.5c0.4,1.7,1.4,3.2,2.7,4.3
		c0.1,0.1,0.3,0.2,0.4,0.4c0.6,0.5,1.1,1.1,1.4,1.8c0.9,1.7,2.4,3.1,4.2,3.7c1.4,0.4,2.9,0.5,4.4,0.3c0,0,10,1,15.5,1.4
		c5.5,0.4,11.5,3,11.5,3c1.8,1.3,3.4,2.8,4.7,4.5c0.1,0.2,0.3,0.4,0.4,0.6l-0.9,1.5c0,0,4.1,3,6.8,5.2c0,0.1,0,0.3,0,0.4
		c-0.1,2.9,3.8,7.1,3.8,7.1s1.2,1.7,1.8,2.5c0.6,0.8-1.1,1.4-1.1,1.4s2.8,0.8,1.7,3.7s-0.3,4.9-0.3,4.9l1.6,7.9h3.4l-0.7-5.5
		c1.2-0.1,4.4,4.8,4.4,4.8s8.4-1.3,9.9-1.7c1.5-0.4,1.2-3.3-1.6-2.6c-1.7,0.4-3.4-0.1-4.6-1.4c0,0-2-2.4-3.2-8.4
		c-0.4-1.8-0.9-3.5-1.5-5.3c1.6,2.4,2.5,6,2.8,6.1c0.5,0.3,6.6,7.2,6.6,7.2l2.4-2.4l-4.2-4.8c0,0,3.8,0,5.3,1.1
		c1.6,1.1,3.6,0.5,3.6,0.5s4.7-3.7,5.9-5.1S156.4,167.3,152.8,170.3z"/>
	<path class="st15" d="M83.5,107.5c0,0-2-0.6-1.9,0.4c0.1,1.1-1.1,2-1.1,2l1.8,4.8l4.1-1.5l-1.3-4.1L83.5,107.5z"/>
	<path class="st16" d="M73,81.6c0.7,0.3,1.2,0.8,1.6,1.4c0.3,0.6,0.3,1.3,0.2,2c-0.1,0.7-0.4,1.3-0.6,1.9c-0.2,0.4-0.1,0.8,0,1.2
		c0.3,0.4,0.9,0.6,1.1,1.1c0,0.2,0,0.4,0,0.6c-0.2,1-0.5,2-1,2.9c-0.2,0.3-0.3,0.7-0.4,1c-0.1,1,0.9,1.8,1,2.7
		c0,0.5-0.1,1.1-0.4,1.5c-0.2,0.6-0.5,1-1,1.4c-0.6,0.4-1.4,0.4-2.1,0.2c-0.7-0.2-1.3-0.5-2.1-0.7c-0.7-0.1-1.3-0.3-1.9-0.5
		c-1-0.5-1.4-1.7-1.7-2.8c-0.3-0.7-0.3-1.5-0.2-2.2c0.2-0.5,0.4-0.9,0.6-1.3c0.2-0.6,0.5-1.1,0.8-1.7c0.3-0.5,0.8-0.9,1-1.4
		c0.2-0.7-0.2-1.3-0.5-1.9c-0.3-0.5-0.5-1.1-0.7-1.6c-0.2-0.4-0.3-0.9-0.2-1.4c0.2-1,1.2-1.6,2.2-1.9c0.7-0.2,1.5-0.3,2.2-0.5
		c0.3-0.2,0.6-0.3,0.9-0.3C72.2,81.3,72.6,81.4,73,81.6z"/>
	<path class="st17" d="M124.2,151.5l-8.1,1.1l0,0c0,0-8.1-9.7-8.2-9.7s-9.2-3.2-9.2-3.2l-6.1-1.8l-0.8-4l8.2-0.3l2.7,0.4l9.6,3.9
		c0,0,5.9,2.5,6.7,2.5c0.7,0,3.7,1.1,4.1,4.6c0.2,1.7,0.5,3.4,0.9,5C124.1,150.9,124.2,151.5,124.2,151.5z"/>
	<path class="st18" d="M124.2,151.5l-8.1,1.1l0,0c0,0-8.1-9.7-8.2-9.7s-9.2-3.2-9.2-3.2l-6.1-1.8l-0.8-4l8.2-0.3l2.7,0.4l9.6,3.9
		c0,0,5.9,2.5,6.7,2.5c0.7,0,3.7,1.1,4.1,4.6c0.2,1.7,0.5,3.4,0.9,5C124.1,150.9,124.2,151.5,124.2,151.5z"/>
	<path class="st5" d="M99.7,133.7l0.4,0.7c0,0-2.8,1.5-2.6,2.1l-4.1-1.7L99.7,133.7z"/>
	<path class="st5" d="M124.2,151.5l-8.1,1.1c-0.5-1.9-0.9-3.2-0.9-3.2l5.6,1c1-0.2,2-0.3,3.1-0.3
		C124.1,150.9,124.2,151.5,124.2,151.5z"/>
	<path class="st19" d="M120.8,150.8c0,0,3.4-0.7,3.8,0s0.7,3.1,0.7,3.1s6.6,15.5,7.8,21.6c1.1,6.1,3.2,8.4,3.2,8.4
		c1.2,1.2,2.9,1.7,4.6,1.4c2.9-0.6,3.1,2.2,1.6,2.6c-1.5,0.4-9.7,1.7-9.7,1.7s-3.2-4.9-4.3-4.8l0.7,5.4h-3.4l-1.6-7.9
		c0,0-0.8-1.9,0.3-4.9c1.1-2.9-1.7-3.7-1.7-3.7s1.7-0.5,1.1-1.4c-0.6-0.8-1.8-2.5-1.8-2.5s-3.9-4.1-3.7-7.1c0.1-2.9-3-13-3-13
		L120.8,150.8z"/>
	<path class="st5" d="M124.4,168.5c0.1,0.1,3.8,4.9,5.2,4.9C131,173.5,124.4,168.5,124.4,168.5z"/>
	<path class="st17" d="M118.6,149.5c0,0-4,10.4-5.8,7.2c-0.3-0.5-0.6-1-1-1.5c-1.4-1.7-2.9-3.2-4.7-4.5c0,0-5.9-2.5-11.4-3
		c-5.4-0.4-15.3-1.4-15.3-1.4l-1.3-1.1c-0.1-7.1,14.2-10.4,14.2-10.4s11,4.5,15.1,5.8c4.1,1.3,4.8,3.3,4.8,3.3l4.1,4.4L118.6,149.5z
		"/>
	<path class="st5" d="M118.6,149.5c0,0-4,10.4-5.8,7.2c-0.3-0.5-0.6-1-1-1.5l0.7-1.2c0.9-1.7,2.1-3.2,3.5-4.6
		c0.4-0.4,0.9-0.8,1.4-1.2L118.6,149.5z"/>
	<path class="st20" d="M113.9,152.9c0,0,3.7-4.5,4.7-4c1,0.5,5.6,3.9,5.6,3.9s4.6,4.8,6.4,5.4c1.8,0.6,1.9,1.3,1.9,1.3
		s3.9,3.4,4.5,3.8c0.6,0.4,1.7,0.6,1.7,1.1c0,0.5,1,0.3,1,0.3c0.2,0.4,0.3,0.7,0.4,1.1c0.1,0.6,6.3,5,6.3,5s2.3,2.7,5.9-0.2
		c3.6-2.9,2.7,1,1.6,2.4S148,178,148,178s-2,0.5-3.6-0.5c-1.5-1.1-5.3-1.1-5.3-1.1l4.1,4.8l-2.4,2.4c0,0-6-6.9-6.5-7.2
		s-1.9-6.8-4.8-8.1c0,0-8.2-3.2-10.9-5.4c-2.7-2.2-7.2-5.6-7.2-5.6L113.9,152.9z"/>
	<path class="st5" d="M141.3,168.5c-0.3-0.1-6.1,0.9-4.9,1.6C137.7,170.7,141.3,168.5,141.3,168.5z"/>
	<path class="st5" d="M135,165.7c-0.3,0.2-3.4,0.9-2.6,1.8C133.2,168.3,135,165.7,135,165.7z"/>
	<path class="st21" d="M102.5,133.9c0,0-2.1,0-8.9,1.4c-6.8,1.4-13.1,11-13.1,11c-1.4,0.3-2.9,0.2-4.3-0.3c-1.8-0.6-3.3-1.9-4.2-3.6
		c-0.3-0.7-0.8-1.3-1.4-1.8c-0.1-0.1-0.3-0.2-0.4-0.4c-1.3-1.1-2.2-2.6-2.6-4.3c0-0.2-0.1-0.3-0.2-0.5c-0.3-0.6-0.2-3-0.1-4.7
		c0.1-1.1,0.1-2,0.1-2l22.6-4.3l1.3,0.8l3.2,2c0.4,0.4,0.8,0.7,1.2,1.1c0.5,0.5,0.9,1.2,1.2,1.9c0,0.1,0,0.3,0,0.4
		C96.6,132,102.5,133.9,102.5,133.9z"/>
	<path class="st17" d="M68.5,91c0,0-2.2,3.1,0.5,8.7s-11.5-3.2-11.5-3.2s5.4-8.1,4.6-9.6C61.4,85.4,68.5,91,68.5,91z"/>
	<circle class="st5" cx="66.5" cy="87.4" r="6.9"/>
	<circle class="st17" cx="66.5" cy="86.8" r="6.9"/>
	<path class="st5" d="M67.8,95.8c0,0,2.3,3.6-4.7,1.6s5.5,13.8,5.5,13.8l4.9-5.1l-1.9-8.9L67.8,95.8z"/>
	<path class="st21" d="M67.8,96.1c0,0,2.3,3.6-4.7,1.6s5.5,13.8,5.5,13.8l4.9-5.1l-1.9-8.9L67.8,96.1z"/>
	<path class="st5" d="M91.3,125.3c-0.2,0.3-0.4,0.6-0.6,1c-0.8,1.8-2.7,1.3-2.7,1.3c-3.2,1.9-11.5,1.4-11.5,1.4s1.8,3.1-1.7,2
		c-2.2-0.6-5.4-0.5-7.6-0.3c0.1-1.1,0.1-2,0.1-2l22.6-4.3L91.3,125.3z"/>
	<path class="st22" d="M94.5,121.1c0,0-3,2.9-3.8,4.6c-0.8,1.8-2.7,1.3-2.7,1.3c-3.2,1.9-11.5,1.4-11.5,1.4s1.8,3.1-1.7,2
		s-9.9,0-9.9,0s-4.9-1.6-4.5-1.8c0.4-0.2,3.5-8.7,3.5-8.7c0.2-0.5,0.3-1,0.2-1.5c0-0.7-0.3-1.3-0.7-1.9c-0.5-0.5-1-0.9-1.6-1.2
		c-3.4-1.5-9.5-5.3-9.5-5.3s-15.4-2.3-12.9-3.2s7.1-4.7,7.1-4.7s7.2-4.6,8.6-6.5s4.3-2.5,4.3-2.5l4,3l7.3,6.5v0l0.4-3.9
		c0,0,0.8-2.6,1.8-3.3c1-0.7,5,0.7,5.2,0.8l0,0c0,0,4,11.7,3.9,13.8c0,0.8,0.2,1.5,0.6,2.2c0.2,0.5,0.6,1.1,0.9,1.7
		c0.7,1.3,1.5,2.5,2.4,3.7c0,0,6.2,2.1,7,2.1C93.8,119.8,94.5,121.1,94.5,121.1z"/>
	<polygon class="st5" points="70.8,103.6 70,107.1 62.4,103 63.2,96.8 70.5,103.2 70.5,103.2 	"/>
	<polygon class="st23" points="71.2,103.3 70.4,106.8 62.8,102.6 63.5,96.4 70.8,102.9 70.8,102.9 	"/>
	<path class="st5" d="M83.6,114.4c-2.9,0.6-15.7,3.3-19.4,4.6c0-0.7-0.3-1.3-0.7-1.9c3.6-1.7,14.8-6.4,19.2-4.4
		C83,113.3,83.3,113.9,83.6,114.4z"/>
	<path class="st5" d="M83.6,113.7c-2.9,0.6-15.7,3.3-19.4,4.6c0-0.7-0.3-1.3-0.7-1.9c3.6-1.7,14.8-6.4,19.2-4.4
		C83,112.6,83.3,113.2,83.6,113.7z"/>
	<path class="st23" d="M83.6,114.1c-2.9,0.6-15.7,3.3-19.4,4.6c0-0.7-0.3-1.3-0.7-1.9c3.6-1.7,14.8-6.4,19.2-4.4
		C83,112.9,83.3,113.5,83.6,114.1z"/>
	<circle class="st24" cx="80.6" cy="115.7" r="0.9"/>
	<circle class="st24" cx="83.6" cy="122" r="0.9"/>
	<circle class="st24" cx="73.5" cy="117.5" r="0.9"/>
	<circle class="st24" cx="77.1" cy="124.1" r="0.9"/>
	<circle class="st24" cx="78.3" cy="108.8" r="0.9"/>
	<path class="st5" d="M67.8,118.4c0,0-3.7,9.1-2.8,10.3C65.9,129.9,67.8,118.4,67.8,118.4z"/>
	<path class="st5" d="M71,118.4c-0.5-0.1,2.2,2.4,2.5,4.8c0.3,2.3,2.2,4.3,2.2,4.3l-1.9-4.6C73.8,122.9,71.6,118.6,71,118.4z"/>
	<path class="st5" d="M82.7,117.5c0.3,0.4,3.9,1.1,4.3,5.2L82.7,117.5z"/>
	<path class="st5" d="M58.2,111c0.4,0.4,5.4,3.7,7.1,3.8S58.2,111,58.2,111z"/>
	<path class="st5" d="M66.1,112.9c0,0,0.7,1.1,1.5,1.1C68.3,113.9,66.1,112.9,66.1,112.9z"/>
	<path class="st17" d="M50.6,112.6c0,0,4,0.3,5.3,0.7c1.2,0.3,2.5,0.5,3.7,0.6c2,0.2,3.9,1.2,5.2,2.8c1.2,1.5,1.7,3.3-0.6,4.6
		c-4.6,2.7-10.1-5-10.1-5l-4.8-0.7L50.6,112.6z"/>
	<path class="st5" d="M96.8,130.3c-3.2,0.1-13.8,0.4-15.4,0c-0.1,0,9.4-0.5,11.6-0.9c0.9-0.2,1.8-0.5,2.6-0.9
		C96.2,129,96.6,129.6,96.8,130.3z"/>
	<path class="st5" d="M79.2,132.4c0,0-5.3,3.9-3,3.9S79.2,132.4,79.2,132.4z"/>
	<path class="st23" d="M52.6,112.3c-1.6-0.1-3.3,7.2-3.3,7.2c-1.6-0.3-3.2-0.8-4.6-1.5c-1.8-0.9-6.2-2.3-6.2-2.3
		c-1.3-0.2-2.5-0.6-3.6-1.2c-1.9-1.1,1.1-4,1.5-4.8c0.4-0.8,3.2-2.5,3.2-2.5l2.2-0.4l9.9,1.8l-6.4,1.5l0.8,0.2l2.1,0.7L52.6,112.3z"
		/>
	<path class="st25" d="M48.2,110.9l-1.9,5.1c-3.8,3-3.5-1.2-3.5-1.2l3.3-4.6L48.2,110.9z"/>
	<circle class="st24" cx="44" cy="115.7" r="0.9"/>
	<path class="st5" d="M72.5,83.4c0.6-0.1,1-0.6,1-1.2c0-0.7-0.6-1.3-0.4-2c0.1-0.3,0.3-0.6,0.4-1c0.1-0.6-0.5-1.1-1.1-1.4l-4.9-2.9
		c-1.2-0.7-2.4-1.4-3.8-1.2c-1.2,0.2-2.3,1-3,2c-0.8,1-1.4,2.1-2.2,3c-1.6,1.7-3.8,2.5-5.5,4c-0.5,0.4-0.9,0.9-1.1,1.5
		c-0.7,1.9,1,3.9,1,5.9c0,1.8-1.4,3.3-2.8,4.4c-0.6,0.5-1.3,1-1.4,1.7c0,0.6,0.1,1.2,0.3,1.7c0.8,2.9-1,5.9-3.3,7.8
		c-0.7,0.6-1.5,1.1-1.8,2c-0.4,1.3,0.6,2.5,1.4,3.5c1.4,1.8,2.6,3.9,2.9,6.1c0.3,2.3-0.3,4.8-2,6.3c1.3,0.2,2.6,0.4,3.8,0.1
		s2.5-1.2,2.7-2.5c0.2-1.4-0.6-3,0.3-4c0.7-0.8,1.9-0.6,3-0.8c2.2-0.4,3.9-2.2,4.1-4.5c0.1-1.5-0.6-3-1.2-4.5s-0.9-3.1-0.3-4.5
		c1-2.3,4.4-3.2,4.6-5.7c0.1-1.5-1.1-3-0.5-4.3c0.4-0.9,1.4-1.3,2.2-1.9c1.2-1,1.8-2.5,2.6-3.8c0.7-1.1,1.4-2,2.3-2.9
		c0.3-0.3,0.8-1.1,1.2-1.2C71.6,83,71.9,83.5,72.5,83.4z"/>
	<path class="st16" d="M72.1,83.2c0.6-0.1,1-0.6,1-1.2c0-0.7-0.6-1.3-0.4-2c0.1-0.3,0.3-0.6,0.4-1c0.1-0.6-0.5-1.1-1.1-1.4l-4.9-2.9
		c-1.2-0.7-2.4-1.4-3.8-1.2c-1.2,0.2-2.3,1-3,2c-0.8,1-1.4,2.1-2.2,3c-1.6,1.7-3.8,2.5-5.5,4c-0.5,0.4-0.9,0.9-1.1,1.5
		c-0.7,1.9,1,3.9,1,5.9c0,1.8-1.4,3.3-2.8,4.4c-0.6,0.5-1.3,1-1.4,1.7c0,0.6,0.1,1.2,0.3,1.7c0.8,2.9-1,5.9-3.3,7.8
		c-0.7,0.6-1.5,1.1-1.8,2c-0.4,1.3,0.6,2.5,1.4,3.5c1.4,1.8,2.6,3.9,2.9,6.1c0.3,2.3-0.3,4.8-2,6.3c1.3,0.2,2.6,0.4,3.8,0.1
		c1.3-0.3,2.5-1.2,2.7-2.5c0.2-1.4-0.6-3,0.3-4c0.7-0.8,1.9-0.6,3-0.8c2.2-0.4,3.9-2.2,4.1-4.5c0.1-1.5-0.6-3-1.2-4.5
		s-0.9-3.1-0.3-4.5c1-2.3,4.4-3.2,4.6-5.7c0.1-1.5-1.1-3-0.5-4.3c0.4-0.9,1.4-1.3,2.2-1.9c1.2-1,1.8-2.5,2.6-3.8
		c0.7-1.1,1.4-2,2.3-2.9c0.3-0.3,0.8-1.1,1.2-1.2C71.2,82.8,71.6,83.3,72.1,83.2z"/>
	<path class="st16" d="M67.7,95c0.2,0.5,0,0.6,0.2,1.1c0.1,0.5,0.2,0.9,0.1,1.4c-0.1,0.7,0.3,1.4,0,2c-0.1,0.1-0.1,0.2-0.1,0.3
		c-0.1,0.3,0.1,0.6,0.3,0.8c0.2,0.1,0.5,0.3,0.6,0.6c0.3,0.6-0.3,1.5,0,2.2c0.1,0.2,0.3,0.4,0.4,0.5c0.4,0.3,0.9,0.6,1.4,0.7
		c0.3-0.5,0-1.3,0.3-1.8c0.2-0.2,0.4-0.4,0.6-0.6c0.5-0.5,0.8-1.1,0.8-1.8c0.1-0.7,0.1-1.4,0.3-2c0.2-1.1,0.7-2.1,0.9-3.2
		c0-0.1,0-0.2,0-0.3c-0.1-0.1-0.2-0.1-0.3-0.1c-1-0.1-2.1,0.2-3.1,0C69.1,94.4,68.5,94.2,67.7,95z"/>
	<path class="st5" d="M78.4,96.8c-0.3,1.4-1.3,5.3-3.5,7.1c-2.7,2.1-4.7,7.7-4.7,7.7l0.6,1.4c-0.5-0.1-0.9-0.3-1.3-0.6
		c-0.6-0.4,1.4-9.1,1.4-9.1l0.4-3.9c0,0,0.8-2.6,1.8-3.3C74.2,95.3,78.2,96.7,78.4,96.8z"/>
	<path class="st23" d="M78.3,96.4c-0.3,1.4-1.3,5.3-3.5,7.1c-2.7,2.1-4.7,7.7-4.7,7.7l0.6,1.4c-0.5-0.1-0.9-0.3-1.3-0.6
		c-0.6-0.4,1.4-9.1,1.4-9.1l0.4-3.9c0,0,0.8-2.6,1.8-3.3C74,94.9,78,96.3,78.3,96.4z"/>
	<path class="st26" d="M77.8,104.2l-3.6-1.2c-0.4-0.1-0.7-0.6-0.5-1l3.1-9.2c0.1-0.4,0.6-0.7,1-0.5l3.6,1.2c0.4,0.1,0.7,0.6,0.5,1
		l-3.1,9.2C78.7,104.1,78.2,104.4,77.8,104.2z"/>
	<path class="st27" d="M78,104.2l-3.6-1.2c-0.4-0.1-0.7-0.6-0.5-1l3.1-9.2c0.1-0.4,0.6-0.7,1-0.5l3.6,1.2c0.4,0.1,0.7,0.6,0.5,1
		l-3.1,9.2C78.9,104.1,78.4,104.4,78,104.2z"/>
	<circle class="st28" cx="78.9" cy="96" r="0.8"/>
	<path class="st17" d="M84.5,113.1v0.3l-3.3-1.7l-0.3-1.7l-0.6-2.9c0,0-6.7-9.8-2.2-9.9c4.4-0.1,4.5,7.4,4.2,8.2
		c-0.2,0.6,1,4.3,1.8,6.3C84.3,112.5,84.5,113.1,84.5,113.1z"/>
	<path class="st5" d="M87.4,119.3c0,0,1.1-9-1.8-10.6l-2.9-1.6c0,0,2.4,5.3,1.4,5.5c-1,0.2-3.8-2.3-3.8-2.3v5.7L87.4,119.3z"/>
	<path class="st5" d="M84.5,113.1v0.3l-3.3-1.7l-0.3-1.7c0.9,0.7,2.4,1.8,3.1,1.7c0,0,0,0,0,0C84.3,112.5,84.5,113.1,84.5,113.1z"/>
	<path class="st23" d="M87.6,119c0,0,1.1-9-1.8-10.6l-2.9-1.6c0,0,2.4,5.3,1.4,5.5c-1,0.2-3.8-2.3-3.8-2.3v5.7L87.6,119z"/>
	<circle class="st24" cx="71.2" cy="110.8" r="0.9"/>
	<path class="st5" d="M72.6,80.1c0.1-0.3,0.3-0.6,0.4-1c0.1-0.6-0.5-1.1-1.1-1.4l-0.1-0.1c0.1,0.1,0.1,0.3,0.1,0.5
		c0,0.4-0.3,0.6-0.4,1c-0.2,0.7,0.4,1.3,0.4,2c0,0.6-0.4,1.1-1,1.2c-0.5,0.1-0.9-0.4-1.4-0.3c-0.4,0.1-0.9,0.9-1.2,1.2
		C67.4,84,66.7,85,66,86c-0.8,1.3-1.4,2.8-2.6,3.8c-0.8,0.6-1.8,1-2.2,1.9c-0.6,1.3,0.6,2.8,0.5,4.3c-0.1,2.5-3.5,3.4-4.6,5.7
		c-0.6,1.4-0.3,3.1,0.3,4.5c0.5,1.5,1.2,2.9,1.2,4.5c-0.2,2.3-1.9,4.1-4.1,4.5c-1,0.1-2.3,0-3,0.8c-0.9,1-0.1,2.7-0.3,4
		c-0.2,1.3-1.4,2.2-2.7,2.5c-0.6,0.1-1.3,0.2-2,0.1c-0.2,0.3-0.5,0.6-0.7,0.8c1.3,0.2,2.6,0.4,3.8,0.1s2.5-1.2,2.7-2.5
		c0.2-1.4-0.6-3,0.3-4c0.7-0.8,1.9-0.6,3-0.8c2.2-0.4,3.9-2.2,4.1-4.5c0.1-1.5-0.6-3-1.2-4.5c-0.5-1.5-0.9-3.1-0.3-4.5
		c1-2.3,4.4-3.2,4.6-5.7c0.1-1.5-1.1-3-0.5-4.3c0.4-0.9,1.4-1.3,2.2-1.9c1.2-1,1.8-2.5,2.6-3.8c0.7-1.1,1.4-2,2.3-2.9
		c0.3-0.3,0.8-1.1,1.2-1.2c0.5-0.1,0.9,0.4,1.4,0.3c0.6-0.1,1-0.6,1-1.2C73,81.4,72.4,80.8,72.6,80.1z"/>
</g>
</svg>
