<?xml version="1.0" encoding="utf-8"?>
<!-- Generator: Adobe Illustrator 24.3.0, SVG Export Plug-In . SVG Version: 6.00 Build 0)  -->
<svg version="1.1" id="圖層_1" xmlns="http://www.w3.org/2000/svg" xmlns:xlink="http://www.w3.org/1999/xlink" x="0px" y="0px"
	 viewBox="0 0 295.5 193.3" style="enable-background:new 0 0 295.5 193.3;" xml:space="preserve">
<style type="text/css">
	.st0{fill:#E28897;}
	.st1{fill:#525460;}
	.st2{fill:#565EA9;}
	.st3{fill:#31324F;}
	.st4{fill:#DEE4ED;}
	.st5{opacity:0.1;fill:#040000;enable-background:new    ;}
	.st6{fill:#3E3E63;}
	.st7{fill:#5E3454;}
	.st8{fill:#535183;}
	.st9{fill:#B5811C;}
	.st10{fill:#5B401C;}
	.st11{fill:#D19534;}
	.st12{fill:#D69C22;}
	.st13{fill:#36260E;}
	.st14{fill:url(#SVGID_1_);}
	.st15{fill:#CEBF97;}
	.st16{fill:#352F44;}
	.st17{fill:#F9D2D4;}
	.st18{opacity:5.000000e-02;fill:#040000;enable-background:new    ;}
	.st19{fill:#2D230D;}
	.st20{fill:#231C09;}
	.st21{fill:#ECF2F9;}
	.st22{fill:#D6CEB2;}
	.st23{fill:#E6D9B1;}
	.st24{fill:#FFFFFF;}
	.st25{fill:#CFC09A;}
	.st26{fill:#454A5E;}
	.st27{fill:#9C9BA1;}
	.st28{fill:#939498;}
</style>
<g>
	<circle class="st9" cx="271.7" cy="126.1" r="19.7"/>
	<path class="st10" d="M266.4,154.8l4.8,3v-20.3l-5.4-3.4c-0.4-0.3-0.8-0.7-0.9-1.2l0,0c0.5-0.1,1.1,0,1.5,0.3l4.8,3v-7.9
		c0-1.5,0.2-3,0.6-4.5c0.4,1.5,0.6,3,0.6,4.5v12.8l7.1-4.4c0.6-0.4,1.2-0.5,1.9-0.5c-0.3,0.6-0.7,1.1-1.3,1.5l-7.7,4.8v48h-1.1
		v-31.4l-5.4-3.4c-0.4-0.3-0.8-0.7-0.9-1.2l0,0C265.4,154.5,265.9,154.6,266.4,154.8z"/>
	<circle class="st11" cx="242.5" cy="127.7" r="19.7"/>
	<path class="st10" d="M247.8,156.5l-4.8,3v-20.3l5.4-3.4c0.4-0.3,0.8-0.7,0.9-1.2l0,0c-0.5-0.1-1.1,0-1.5,0.3l-4.8,3V130
		c0-1.5-0.2-3-0.6-4.5c-0.4,1.5-0.6,3-0.6,4.5v12.8l-7.1-4.4c-0.6-0.4-1.2-0.5-1.9-0.5c0.3,0.6,0.7,1.1,1.3,1.5l7.7,4.8v46.4h1.1
		v-29.8l5.4-3.4c0.4-0.3,0.8-0.7,0.9-1.2l0,0C248.8,156.1,248.3,156.2,247.8,156.5z"/>
	<circle class="st12" cx="256.8" cy="86.6" r="33.9"/>
	<path class="st10" d="M266,136.2l-8.3,5.2v-34.9l9.3-5.8c0.8-0.5,1.3-1.2,1.6-2.1l0,0h0c-0.9-0.2-1.8,0-2.6,0.5l-8.3,5.2V90.6
		c0-2.6-0.3-5.2-1-7.8c-0.6,2.5-1,5.2-1,7.8v22.1l-12.3-7.6c-1-0.6-2.1-0.9-3.3-0.9c0.5,1,1.3,1.9,2.3,2.5l13.3,8.3v75.7h1.9v-47.1
		l9.3-5.8c0.8-0.5,1.3-1.2,1.6-2.1l0,0h0C267.7,135.5,266.8,135.7,266,136.2z"/>
</g>
</svg>
