<?xml version="1.0" encoding="utf-8"?>
<!-- Generator: Adobe Illustrator 24.3.0, SVG Export Plug-In . SVG Version: 6.00 Build 0)  -->
<svg version="1.1" id="圖層_1" xmlns="http://www.w3.org/2000/svg" xmlns:xlink="http://www.w3.org/1999/xlink" x="0px" y="0px"
	 viewBox="0 0 111.7 96.3" style="enable-background:new 0 0 111.7 96.3;" xml:space="preserve">
<style type="text/css">
	.st0{fill:#FFFFFF;}
	.st1{fill:#853F39;stroke:#FFFFFF;stroke-width:0.9194;stroke-miterlimit:10;}
</style>
<g>
	<g>
		<path class="st0" d="M68,37.7L68,37.7c-2.3,0.3-4.1,2.3-4.1,4.7c0,2.6,2.1,4.7,4.7,4.7l9.3,0c0,0,0,0,0,0H89
			c2.6,0,4.7-2.1,4.7-4.7c0-2.6-2.1-4.7-4.7-4.7h-3.2c-0.6-2.1-2.6-3.6-4.8-3.6c-0.8,0-1.6,0.2-2.3,0.5c-1.2-1.2-2.8-1.9-4.5-1.9
			C71.2,32.7,68.6,34.8,68,37.7z M70.5,39c0-2,1.7-3.6,3.7-3.6c1.3,0,2.4,0.6,3.1,1.7c0.2,0.3,0.6,0.5,0.9,0.6
			c0.4,0,0.8-0.1,1.1-0.3c0.4-0.4,1-0.6,1.6-0.6c1.3,0,2.4,1,2.4,2.3c0,0.7,0.6,1.3,1.3,1.3H89c1.1,0,2.1,0.9,2.1,2.1
			c0,1.1-0.9,2.1-2.1,2.1h-9.5l-10.9,0c-1.1,0-2.1-0.9-2.1-2.1c0-1.1,0.9-2.1,2.1-2.1h0.6C69.9,40.3,70.5,39.7,70.5,39z"/>
		<path class="st0" d="M21.7,33.4h8.8c0,0,0,0,0,0h12.1c2.6,0,4.8-2.1,4.8-4.8c0-2.4-1.8-4.5-4.2-4.7c-0.6-2.9-3.2-5.1-6.3-5.1
			c-1.7,0-3.4,0.7-4.6,1.9c-0.7-0.4-1.5-0.6-2.3-0.6c-2.3,0-4.3,1.6-4.9,3.7h-3.3c-2.6,0-4.8,2.1-4.8,4.8S19.1,33.4,21.7,33.4z
			 M21.7,26.5h4.5c0.7,0,1.3-0.6,1.3-1.3c0-1.3,1.1-2.4,2.5-2.4c0.6,0,1.2,0.2,1.7,0.7c0.3,0.3,0.7,0.4,1.1,0.3
			c0.4,0,0.7-0.3,0.9-0.6c0.7-1.1,1.9-1.8,3.2-1.8c2.1,0,3.8,1.7,3.8,3.8c0,0.7,0.6,1.3,1.3,1.3h0.6c1.2,0,2.1,1,2.1,2.1
			c0,1.2-1,2.1-2.1,2.1H30.4c0,0,0,0,0,0h-8.6c-1.2,0-2.1-1-2.1-2.1C19.6,27.5,20.5,26.5,21.7,26.5z"/>
		<path class="st0" d="M99.7,84.7h-2.4L79.6,52.5c-0.4-0.7-1.1-1.1-1.9-1.1c-0.8,0-1.5,0.4-1.9,1.1l-5.9,10.8L55.2,36.7
			c-0.2-0.3-0.4-0.5-0.6-0.7v-9h13.5c0.7,0,1.3-0.4,1.6-1c0.3-0.6,0.2-1.3-0.2-1.9l-2.1-2.7l2.1-2.7c0.4-0.5,0.5-1.3,0.2-1.9
			c-0.3-0.6-0.9-1-1.6-1H54.5c-0.2-0.5-0.7-0.9-1.3-0.9c-0.7,0-1.3,0.6-1.3,1.3V36c-0.2,0.2-0.5,0.4-0.6,0.7L34.6,67.1l-3.3-6
			c-0.4-0.7-1.1-1.1-1.9-1.1c-0.8,0-1.5,0.4-1.9,1.1l-13,23.6H12c-0.7,0-1.3,0.6-1.3,1.3s0.6,1.3,1.3,1.3h75.7h2.5h9.5
			c0.7,0,1.3-0.6,1.3-1.3S100.5,84.7,99.7,84.7z M66.3,18.5l-1.3,1.6H54.6l0-1.6H66.3z M54.6,22.7h10.5l1.3,1.6H54.6V22.7z
			 M77.7,54.5l8.1,14.7h-2.6l0,0c-0.1,0-0.5-0.1-0.6-0.2L81,67.3c-0.9-0.9-2.3-0.9-3.1,0l-1.1,1.1c-0.1,0.1-0.4,0.2-0.6,0.2h-6.3
			L77.7,54.5z M53.2,38.7l10.9,19.8h-6.7c-0.1,0-0.4-0.1-0.5-0.2l-2-2c-0.4-0.4-1-0.6-1.5-0.6c-0.6,0-1.1,0.2-1.5,0.6l-3,3l-2.2-2.2
			c-0.6-0.6-1.6-1-2.4-1h-0.4L53.2,38.7z M29.4,63.1l6.3,11.5l-2.6,2.6l-2-2c-0.6-0.6-1.6-1-2.4-1h-5.4L29.4,63.1z M17.5,84.7
			l4.3-7.9h6.9c0.1,0,0.5,0.1,0.6,0.2l2.3,2.3c0.4,0.4,1,0.6,1.6,0.6c0.6,0,1.1-0.2,1.6-0.6L37,77l4.2,7.7H17.5z M44.3,84.7
			l-8.2-14.9l6.2-11.3h1.8c0.1,0,0.4,0.1,0.5,0.2l2.6,2.6c0.4,0.4,1,0.6,1.5,0.6c0.6,0,1.1-0.2,1.5-0.6l3-3l1.7,1.7
			c0.6,0.6,1.6,1,2.4,1h8.1l2.8,5L58.1,84.7H44.3z M90.2,84.7h-2.5H61.1l7.3-13.4h7.7c0.8,0,1.8-0.4,2.4-1l0.8-0.8l1.4,1.4
			c0.6,0.6,1.6,1,2.4,1h4l7,12.8H90.2z"/>
	</g>
</g>
</svg>
