<?xml version="1.0" encoding="utf-8"?>
<!-- Generator: Adobe Illustrator 24.3.0, SVG Export Plug-In . SVG Version: 6.00 Build 0)  -->
<svg version="1.1" id="圖層_1" xmlns="http://www.w3.org/2000/svg" xmlns:xlink="http://www.w3.org/1999/xlink" x="0px" y="0px"
	 viewBox="0 0 295.5 193.3" style="enable-background:new 0 0 295.5 193.3;" xml:space="preserve">
<style type="text/css">
	.st0{fill:#E28897;}
	.st1{fill:#525460;}
	.st2{fill:#565EA9;}
	.st3{fill:#31324F;}
	.st4{fill:#DEE4ED;}
	.st5{opacity:0.1;fill:#040000;enable-background:new    ;}
	.st6{fill:#3E3E63;}
	.st7{fill:#5E3454;}
	.st8{fill:#535183;}
	.st9{fill:#B5811C;}
	.st10{fill:#5B401C;}
	.st11{fill:#D19534;}
	.st12{fill:#D69C22;}
	.st13{fill:#36260E;}
	.st14{fill:url(#SVGID_1_);}
	.st15{fill:#CEBF97;}
	.st16{fill:#352F44;}
	.st17{fill:#F9D2D4;}
	.st18{opacity:5.000000e-02;fill:#040000;enable-background:new    ;}
	.st19{fill:#2D230D;}
	.st20{fill:#231C09;}
	.st21{fill:#ECF2F9;}
	.st22{fill:#D6CEB2;}
	.st23{fill:#E6D9B1;}
	.st24{fill:#FFFFFF;}
	.st25{fill:#CFC09A;}
	.st26{fill:#454A5E;}
	.st27{fill:#9C9BA1;}
	.st28{fill:#939498;}
</style>
<g>
	<path class="st0" d="M132.4,186.1c0,0.4,0.3,0.8,0.7,0.9c0,0,0,0,0.1,0c3.3,0,15.4-0.3,19.6-3.8c4.9-4.1-4.5-2.6-4.5-2.6
		c-6.1-1.5-6.9-3.6-7-4.4c0,0,0,0,0,0c0-0.1,0-0.2,0-0.3l-0.2-0.1l-0.9-0.5l-6.9,2.1l-0.1,1.6L132.4,186.1z"/>
	<path class="st1" d="M77.6,186.5c0.5,0,1.1,0,1.6-0.1c1.9-0.3,3.7-0.8,5.5-1.4c2.2-0.7,3-1.2,2.9-1.9c-0.1-0.6-0.3-1.7-17.3-1.2
		c-0.1-0.2-0.3-0.4-0.4-0.6c-1.5-2.6-2-6.6,1-10c6.1-7,12.6-5.2,12.7-5.2l0.2-0.7c-0.1,0-7-2-13.4,5.4c-2.7,3-3.1,7.4-1.1,10.8
		c0.1,0.1,0.1,0.2,0.2,0.3c-4,0.1-8.8,0.3-14.7,0.7c-15.8,0.9-31.8,2.1-32,2.1c-0.2,0-10.9,1-15.7-5.9c-4.1-5.9-2.3-28.8,4.4-42.3
		l-0.6-0.3c-6.9,13.8-8.6,36.9-4.4,43c5,7.3,15.9,6.2,16.3,6.2c0.1,0,15.7-1.2,31.4-2.1c6.4-0.3,11.6-0.6,15.7-0.7
		C71.8,185.1,74.6,186.5,77.6,186.5z M86.9,183.2c-0.1,0.1-0.5,0.5-2.4,1.1c-1.8,0.6-3.6,1.1-5.4,1.4c-3.1,0.6-6.3-0.6-8.2-3.1
		C83.9,182.2,86.5,182.9,86.9,183.2L86.9,183.2z"/>
	<path class="st0" d="M87.6,171.2l0.1,1.8l-0.1,8.4c0,0,8,6.9-0.5,4.9l-3.1-0.3c-0.7-0.1-1.3-0.5-1.5-1.1l-5.9-13.4
		c-0.2-0.5-0.2-1.1,0.2-1.6c1-1.3,3.1-3.7,5.1-3.3C84.7,167.2,87.6,171.2,87.6,171.2z"/>
	<path class="st2" d="M10.5,129.2c0.6,8.1-0.4,7.8,4,8.9l0.6,0.2c5.2,1.6,46.8,14,119.9,13.4c77.6-0.7,94.6-4.5,105.1-13.4
		c0.1-0.1,0.2-0.2,0.3-0.3c0,0,5-6.2,1-11.9c-0.2-0.5-0.5-1-1-1.4c-3.7-3.6-21.5-12.9-105-11.1c0,0-88.8-3-119.7,7.8h-0.1
		C14.9,121.4,9.9,121.8,10.5,129.2z"/>
	<path class="st3" d="M81,166.8l6.7,6.2l0.9-1.6l0.7-1.3l2.8-4.9c4.6-6.4,19-13.7,19-13.7c3.1-1.3,4.2-2.5,4.7-3.3
		c0.3-0.6,0.7-1.2,1.1-1.7c1.1-1.6,1.9-3.3,2.5-5.1c0.6-1.6,1.1-3.3,1.5-5c0.3-1.5,0.5-2.8,0.7-3.7c0.1-0.8,0.2-1.3,0.2-1.3l-1-3.8
		l-3.2-11.9l-12.1-0.6c0,0-0.1,6.9,0,13.1c0,1.2,0,2.3,0,3.4c0,1.4,0,2.6,0,3.7c0,1.3,0.1,2.3,0.1,2.7c0.1,0.5,0.1,1.1,0.1,1.6
		c-0.1,2.1-1,4.1-4.2,5.1c-4,1.3-11.3,8.3-11.9,11.5c-0.4,2.1-3.9,5.9-6.3,8.3c-0.6,0.6-1,1-1.4,1.4C81.3,166.5,81,166.8,81,166.8z"
		/>
	<path class="st4" d="M105.2,128.4c0,1.2,0,2.3,0,3.4c3.5,0.8,11.7,1,16.3,1c0.1-0.8,0.2-1.3,0.2-1.3l-1-3.8
		C116,128.5,108.5,128.5,105.2,128.4z"/>
	<path class="st4" d="M105.4,138.2c0.1,0.5,0.1,1.1,0.1,1.6c9.1-0.8,12.6,0.4,13.9,1.6c0.6-1.6,1.1-3.3,1.5-5
		c-3.6-1.1-12.1-1-15.6-0.9C105.3,136.8,105.4,137.8,105.4,138.2z"/>
	<path class="st5" d="M133,178.9h0.2l8-2.7c0,0,0,0,0,0c-0.1-0.2-0.2-0.3-0.2-0.5l-0.9-0.5l-6.9,2.1L133,178.9z"/>
	<path class="st6" d="M106.8,105.5l-1.2,1.6c0,0,0.2,2-0.6,3.2c-0.8,1.2-3.5,10.8,9.4,13.5c0,0,7.3,12.5,12.4,17.4l2,3.7
		c0,0,0.4,4.3,0,6.4c-0.4,2.1-1.3,8.6,1.8,12.9c0,0,2.7,10.3,2.3,14.3h0.3l8-2.7l0,0c-1-1.9-1.5-4-1.5-6.2l-0.1-5.6v-20.6
		c0-2.4-0.4-4.7-1.1-6.9l0,0c-0.4-1.2-0.6-2.4-0.6-3.6c0-2.6-0.3-7.6-2.1-11.4c-0.9-1.9-1.7-3.8-2.4-5.8c-1.2-3.3-3-7.6-4.1-8.5
		l-1.7-3.3l-9.2,0.9L106.8,105.5z"/>
	<path class="st0" d="M115.1,63.6c0,0,11.2,7,10.3,5c-0.4-0.8,0.2-2.7,0.9-4.7c0.5-1.3,1.1-2.6,1.6-3.6c0.5-1,0.9-1.8,0.9-1.8
		s-11.6-7-11.2-4.3c0.1,0.9,0,1.8-0.2,2.6c-0.2,0.7-0.4,1.5-0.6,2.2C116.1,61.4,115.1,63.6,115.1,63.6z"/>
	<path class="st1" d="M240.1,138.2c0.1-0.1,0.2-0.2,0.3-0.3c0,0,5-6.2,1-11.8c-0.2-0.5-0.5-1-1-1.4L240.1,138.2z"/>
	<path class="st5" d="M118.4,56c1.6,2.4,3.3,4.9,6.4,4.9c1.1,0,2.1-0.2,3.1-0.6c0.5-1,0.9-1.8,0.9-1.8s-11.6-7-11.2-4.3
		C117.8,54.9,118.7,55,118.4,56z"/>
	<path class="st0" d="M116.1,51.8c0,4.9,3.9,8.8,8.8,8.8c4.9,0,8.8-3.9,8.8-8.8l0,0c0-0.8-0.1-1.7-0.3-2.4c-1.4-4.7-6.2-7.3-10.9-6
		C118.7,44.4,116.1,47.9,116.1,51.8L116.1,51.8z"/>
	<path class="st5" d="M115.1,63.6c0,0,11.2,7,10.3,5c-0.4-0.8,0.2-2.7,0.9-4.7c-2.2-3.7-7.2-4.7-9.5-4.9
		C116.1,61.4,115.1,63.6,115.1,63.6z"/>
	<path class="st5" d="M115.6,60c0,0,7.3-0.4,10,5.1c-0.2,1.4,0.2,2.8,1,3.9c0,0,6.7,5,4.6,17.2c-1.2,7.2-1.9,14.4-2,21.7
		c0,0-1.7-1.6-5.5,0s-18.2,0-18.2,0s1.5-14.7,0.2-17.4c-1.3-2.7-0.5-16.7,1.1-19.6c1.1-2,4.2-4.6,6.4-6.6
		C114.7,63.2,115.4,61.7,115.6,60L115.6,60z"/>
	<path class="st4" d="M115.6,59.3c0,0,8.3,0.1,11,5.6c0,0-1.4,1.6,0,3.3c0,0,6.7,5,4.6,17.2c-1.2,7.2-1.9,14.4-2,21.7
		c0,0-1.7-1.6-5.5,0c-3.7,1.6-18.2,0-18.2,0s1.5-14.7,0.2-17.4c-1.3-2.7-0.5-16.7,1.1-19.6c1.1-2,4.2-4.6,6.4-6.6
		C114.7,62.4,115.4,60.9,115.6,59.3L115.6,59.3z"/>
	<path class="st5" d="M121.5,87.4l0,2.8l-0.5,5.3c-1,2.1-1.7,4.3-2.3,6.6c-1,4.2-1.2,12.3-1.2,12.3s-5.5-1.8-6.6-1.2
		c0,0-0.3-12.1,0.8-15.9c1.1-3.8,0.7-9,0.7-9L121.5,87.4z"/>
	<path class="st6" d="M121.1,86.7l0.6,3.7l-1,4.5c-1,2.1-1.7,4.3-2.3,6.6c-1,4.2-1.2,12.3-1.2,12.3s-5.1-1.4-6.2-0.8
		c0,0-0.7-12.5,0.4-16.3c1.1-3.8,0.7-9,0.7-9L121.1,86.7z"/>
	<path class="st5" d="M116.1,51.8c0,2.7,1.2,5.2,3.3,6.9l0.4-0.1c0.2-0.1,0.4-0.2,0.6-0.3c0.2-0.2,0.3-0.4,0.4-0.7
		c0.3-1,0.4-2,0.8-2.9c0.4-0.9,1.1-1.9,2.1-2c0.1,0,0.2,0,0.3,0c0.1,0.1,0.2,0.2,0.2,0.4c0.3,0.9,0.9,1.6,1.8,1.9
		c0.5,0.2,1.5,0.3,2,0c0.4-0.3,0.4-0.8,0.5-1.3c0.3-1.3,0.9-2.6,2.2-3.2c0.4-0.2,0.9-0.3,1.3-0.4c0.5-0.1,0.9-0.3,1.4-0.6
		c-1.4-4.7-6.2-7.3-10.9-6C118.7,44.5,116.1,47.9,116.1,51.8L116.1,51.8z"/>
	<path class="st7" d="M130.7,50c0.4-0.2,0.9-0.3,1.3-0.4c1-0.3,2-0.9,2.7-1.7c0.7-0.8,0.9-2,0.6-3c-0.3-0.9-1.2-1.7-1.4-2.6
		c0-0.4-0.1-0.8-0.2-1.2c-0.2-0.4-0.6-0.6-1-0.4c0,0.5,0.1,0.9,0.3,1.3c-0.6-0.3-1-0.7-1.4-1.3c-0.2-0.3-0.4-0.6-0.6-0.8
		c-0.3-0.3-0.6-0.3-0.9-0.1c0.1,0.4-0.1,0.7-0.4,0.9c-0.3,0.1-0.7,0.2-1.1,0.1c-1,0-2-0.1-2.9-0.3c-0.9-0.2-1.8-0.7-2.8-0.7
		c-1,0-2,0.7-2,1.6c-1-0.3-2.1,0-3,0.4c-1,0.4-2,0.8-2.7,1.5c-0.8,0.7-1.3,1.7-1.1,2.8c0.1,0.2,0.1,0.4,0,0.5
		c-0.1,0.1-0.2,0.3-0.3,0.4c-0.7,0.7-0.7,1.8-0.7,2.8c0,0.3,0,0.6,0.2,0.9c0.1,0.3,0.4,0.5,0.5,0.8c0.2,0.7-0.6,1.3-0.7,2
		c0,0.5,0.2,0.9,0.4,1.3l2.2,3.5c0.1,0.2,0.3,0.4,0.5,0.6c0.6,0.5,1.4,0.2,2.1,0l1.8-0.6c0.2-0.1,0.4-0.2,0.6-0.3
		c0.2-0.2,0.3-0.4,0.4-0.7c0.3-1,0.4-2,0.8-2.9c0.4-0.9,1.1-1.9,2.1-2c0.1,0,0.2,0,0.3,0c0.1,0.1,0.2,0.2,0.2,0.4
		c0.3,0.9,0.9,1.6,1.8,1.9c0.5,0.2,1.5,0.3,2,0c0.4-0.3,0.4-0.8,0.5-1.3C128.7,51.9,129.4,50.6,130.7,50z"/>
	<path class="st1" d="M10.2,129.4c0.5,7.9-0.3,7.7,3.6,8.7l0.5,0.2l0.5-16.6C14.1,121.8,9.7,122.1,10.2,129.4z"/>
	<polygon class="st1" points="14.1,136.5 12.1,141.2 9.7,140.5 13.4,135.5 	"/>
	<path class="st5" d="M122.4,69.7c0,0,5.9-0.9,2.6,13.2c0,0-2.8,7.1-2.9,8.1c0,0-5.3-3.9-9.5-0.9c0,0-0.8-8.6,1.3-12.7
		C113.9,77.4,115.3,67.6,122.4,69.7z"/>
	<path class="st4" d="M122,69c0,0,5.9-0.9,2.6,13.2c0,0-2.8,7.1-2.9,8.1c0,0-5.3-3.9-9.5-0.9c0,0-0.8-8.6,1.3-12.7
		C113.5,76.7,114.9,66.9,122,69z"/>
	<path class="st8" d="M122.3,82.9c0,0-2-1.3-2.3-2.1c-0.3-0.8-1.9,0.7-1.2,1.4C119.5,82.8,122.3,82.9,122.3,82.9z"/>
	<path class="st1" d="M81.7,166.1l6.9,5.3l0.7-1.3l-6.2-5.5C82.6,165.3,82.1,165.8,81.7,166.1z"/>
	<path class="st5" d="M111.5,75.7c0,0-2,8.1-1.2,11"/>
	<polygon class="st5" points="87.7,173 87.7,173.4 80.5,166.7 81,166.8 	"/>
	<path class="st5" d="M126,66.7c0,0-8.9-2.7-10.9-4.7"/>
	<g>
		<polygon class="st1" points="60.4,140 219,95.8 217.5,90.3 58.9,134.6 		"/>
		<path class="st1" d="M61.8,134.3c1.4,5.4,1.5,5.2,0.8,6.1l-0.1,0.2c-0.8,1.4-8.9,7.3-25,11.4c-17.1,4.3-20.3,7.7-24.2,2.4
			c0-0.1-0.1-0.1-0.1-0.2c0,0-2.3-3.8-2.4-7.9c-0.1-0.3-0.1-0.7,0-1c0.1-2.4,1.4-11.3,16.2-15.8c2.3-0.7,4.8-1,7.3-0.9
			C41.9,129,60.8,130.3,61.8,134.3z"/>
	</g>
	<path class="st0" d="M116.2,111.7l0.9,2l-0.8,3.8c-0.6,3.1-2,6-4.1,8.4c-2,2.4-4.5,4-5.8,0.2c-1.6-4.7-0.3-7,0.7-8.1
		c0.9-0.9,1.6-1.9,2.3-3c1-1.4,2.4-3.2,3.9-3.8C116.2,110.2,116.2,111.7,116.2,111.7z"/>
</g>
</svg>
