<?xml version="1.0" encoding="utf-8"?>
<!-- Generator: Adobe Illustrator 24.3.0, SVG Export Plug-In . SVG Version: 6.00 Build 0)  -->
<svg version="1.1" id="圖層_1" xmlns="http://www.w3.org/2000/svg" xmlns:xlink="http://www.w3.org/1999/xlink" x="0px" y="0px"
	 viewBox="0 0 295.5 193.3" style="enable-background:new 0 0 295.5 193.3;" xml:space="preserve">
<style type="text/css">
	.st0{fill:#403F72;}
	.st1{fill:#A8A7A7;}
	.st2{opacity:0.1;fill:none;stroke:#040000;stroke-width:0.2466;stroke-miterlimit:10;enable-background:new    ;}
	.st3{opacity:5.000000e-02;}
	.st4{fill:#040000;}
	.st5{fill:#5A2B47;}
	.st6{fill:#F4B3B4;}
	.st7{fill:#2E2D40;}
	.st8{fill:#F9F9FA;}
	.st9{fill:#8481A4;}
	.st10{opacity:0.15;fill:#040000;enable-background:new    ;}
	.st11{fill:#3E3C54;}
	.st12{fill:#C4C6CB;}
	.st13{fill:none;stroke:#3E3C54;stroke-width:0.2134;stroke-miterlimit:10;}
	.st14{fill:#F3B0B1;}
	.st15{fill:#819653;}
</style>
<g>
	<g>
		<path class="st0" d="M30.1,106c0,0-5.7,7.5-10.5,7.6s-7.5,3.2-5.3,5.1s26.8-1.1,26.8-1.1s0.2-9.3-1.9-10.6
			C37.1,105.6,30.1,106,30.1,106z"/>
		<path class="st0" d="M91.6,115c0,0,0.9,6-1.8,10c-2.7,4.1,4.9,5.6,4.9,5.6s5.5,1.5,5.9-3.9c0.4-5.5,0.3-9.6-0.2-10.1
			s-0.9-3.5-0.9-3.5L91.6,115z"/>
		<path class="st1" d="M5,126.3c0,0-0.2-19.3,18.9-27.1l4.4-8.4l2.1-5.2c1.6-3.8,4.9-6.6,8.9-7.5l3.4-0.8l1.1-4.5
			c1.2-4.9,5.1-8.6,10.1-9.5c2.1-0.4,4.2-0.6,6.3-0.6c1.9,0,3.7,1.1,4.6,2.7l0,0c0,0,18.1-0.2,18.9,9.6c0,0,1.8,9,4.4,10.6
			c0,0,4.4-1,8.8,5.4l4.8,16.5c0,0,12.7,11.9,8.8,22.7c0,0-5.2,7.4-31.7,2.4c0,0-28.3,8.6-43.4-3.2C35.5,129.5,10.4,134.3,5,126.3z"
			/>
		<path class="st2" d="M17.7,123.3c0,0,4-5.6,3.8-9.6c-0.2-4,0.9-13.8,0.9-13.8"/>
		<path class="st2" d="M32.3,108.2c0,0,4-7.4,3.6-11.5c0,0,4.2-7.6,7.4-7"/>
		<path class="st2" d="M54.4,87.1c0,0,11-4,11.7-7.2"/>
		<path class="st2" d="M58.4,96.4c0,0,11.7-5.2,11.7-6.6h5.8c0,0,8.4,11.1,7.4,15.9"/>
		<path class="st2" d="M72.1,104.4c0,0-11.3-0.8-15.3,2.4c-4,3.2-11.3,4.8-11.3,4.8s-4.2,9-5.8,10.6c-1.6,1.6-4.2,7.2-4.2,7.2"/>
		<path class="st2" d="M72.1,115c0,0,1.2,4.2,2.8,6.6s4,11,4,11"/>
		<path class="st2" d="M91,127.3c0,0,2.6,7.1,4.8,7.2"/>
		<path class="st2" d="M74.3,96.8c0,0,6.6,1.8,9.4,6.1c2.8,4.3,11.2,8.3,11.2,8.3"/>
		<path class="st2" d="M77.1,75.5c0,0,0,9.2,2.6,9.2c2.6,0,8.4,1,8.4,1"/>
		<path class="st2" d="M64.3,64.5c0,0-0.7,16-4.1,20.1"/>
		<g class="st3">
			<path class="st4" d="M101.4,107.4l-4.8-16.5c-4.4-6.4-8.8-5.4-8.8-5.4c-2.6-1.6-4.4-10.6-4.4-10.6c-0.8-9.8-18.9-9.6-18.9-9.6
				l0,0c-1-1.7-2.7-2.7-4.6-2.7c-0.9,0-1.7,0-2.6,0.1c0.5,0,1,0.1,1.4,0.2l1.4,2.4c0,0,18.1-0.2,18.9,9.6c0,0,1.8,9,4.4,10.6
				c0,0,4.4-1,8.8,5.4l4.8,16.5c0,0,12.7,11.9,8.8,22.7c0,0-2.6,3.7-13.3,4.1c14.5,0.5,17.7-4.1,17.7-4.1
				C114.1,119.3,101.4,107.4,101.4,107.4z"/>
			<path class="st4" d="M30.7,129.3c-4.3,0.8-8.6,1.2-12.9,1.4c5,0.2,10.3-0.4,13.6-0.8C31.2,129.7,31,129.5,30.7,129.3z"/>
			<path class="st4" d="M74.1,132.5c-6.2,1.7-12.6,2.7-19,3c9.3,0.3,18-1.6,21.6-2.5C75.9,132.9,75,132.7,74.1,132.5z"/>
		</g>
	</g>
	<g>
		<path class="st5" d="M61.4,10.6c0,0,8.3-2.4,10.8,9s0.6,17.2,0.6,17.2l-18.6-2.2C54.1,34.6,48.8,14.1,61.4,10.6z"/>
		<path class="st6" d="M73.8,60c0,0,12.2,1.2,10.1,6.2c-2.2,4.9-2.2,5.4-2.2,5.4L71,90.7l-3.5-3.6c0,0,3.9-8.6,3.9-11.3
			s4.1-7.6,4.1-7.6l-7.1-0.6L73.8,60z"/>
		<path class="st6" d="M40.3,65.8l-4.1,8.9c0,0-3.1,3.1-6.4,15.3s-4.1,11.8-4.1,11.8l5.1,1c0,0,5.7-13.2,7.6-14.2s4.2-10.3,4.2-10.3
			l6.7-8.4l-2-4.5L40.3,65.8z"/>
		<path class="st7" d="M45.2,55.7L39,67.3c0,0,7.8-3.6,9,4.4l7.1-5.5c0,0,9.9,3.2,15.8,2c0,0-1.7-5.5,4.5-8l-14.1-1.7l0.6-3.1
			l-1.5-2.9L45.2,55.7z"/>
		<path class="st8" d="M70.1,88.1c0,0,3.9-0.6,2.9,2.9l-2,7c0,0,2.6,7.1-1.5,5.5c-4.1-1.6-6.7-11.5-6.7-11.5s-1.7-7.6,0-7.6
			c1.7,0,7.3-1.2,6.7,0C68.9,85.6,70.1,88.1,70.1,88.1z"/>
		<path class="st8" d="M26.2,99.7c0,0,5.1-1.3,6.2,0.7c1.2,2,0.9,8.7,0.9,8.9s-1.7,1.6-2.3,1.6s-4.2,6.5-9.2,4.2
			C16.9,112.8,26.2,99.7,26.2,99.7z"/>
		<circle class="st6" cx="62.8" cy="22.7" r="5.7"/>
		<path class="st6" d="M58.2,23.8c0,0-1.2,6.1-2.2,7c-1,0.9,7.7,2.2,7.7,2.2s-1.3-4.2,0.3-6.4C65.6,24.4,58.2,23.8,58.2,23.8z"/>
		<path class="st9" d="M42.9,58.4c1,0,3.5-0.4,6.3-0.9c2.4-0.5,5.1-1,7.2-1.4c2.3-0.5,3.9-0.8,3.9-0.8s0.6,3.6,2.5,3.2
			c1.6-0.4,6.5-17.4,7.8-22.1c0.2-0.7-0.1-1.5-0.7-1.8l-6.7-4.1l-1.7,0.7c0,0-2.9-2.2-4.6-2.3s-4.6-0.5-4.6-0.5s-3.3,0.3-3.9,2.8
			c-0.6,2.5-0.9,17.9-3.1,20.6C43.2,54.5,40.2,58.4,42.9,58.4z"/>
		<path class="st6" d="M63.3,66.6c0,0,0,5.7-3.8,4.8s-0.3-6.1-0.3-6.1L63.3,66.6z"/>
		<path class="st6" d="M52.8,67.2c0,0,1.3,6.7,4.1,5.7s0-7,0-7L52.8,67.2z"/>
		<path class="st10" d="M46.7,51.3c0,0,1.4,3.4,2.6,6.2c2.4-0.5,5.1-1,7.2-1.4c-0.2-0.4-0.4-0.8-0.6-1.1c-1-1.2-0.4-1.5-0.4-1.5
			c0.9-1.7,0.1-4.1,0.1-4.1c1.7-4.7-0.9-10.5-0.9-10.5L46.7,51.3z"/>
		<path class="st9" d="M54.3,39c0,0,2.6,5.8,0.9,10.5c0,0,0.7,2.3-0.1,4.1c0,0-0.6,0.3,0.4,1.5c1,1.2,1.9,5.2,1.2,6.1s1,2.5,0.6,3.3
			c-0.4,0.9,0.7,2,0.7,2s-4.4,0.9-5.1,2.2c0,0-0.9-1-0.4-2.2c0.4-1.2,0.1-1.6-0.3-2.3c-0.4-0.7-1.7-2.3-1.9-3.1
			c-0.1-0.7-3.9-9.7-3.9-9.7L48,34.9L54.3,39z"/>
		<path class="st9" d="M69.4,34.9l0.3,0c0.8,0.1,1.3,0.8,1.3,1.6c0,1.5-0.1,4-0.5,7.6C70,50,67.9,58.7,67.5,59.6
			c-0.7,1.5-1.5,3-2.3,4.5c-1.3,2.2-1.6,1.5-1.3,2.5c0.2,0.6,0,1.2-0.4,1.6c0,0-2.6-2.9-5.2-1.3c-0.2-0.4-0.3-0.9-0.3-1.3
			c0-0.7-0.4-1.5,0.3-1.9c0.7-0.4-0.4-2.3,0.7-3.3s1.3-0.9,1.2-1.9c-0.1-0.7,0-1.4,0.3-2L69.4,34.9z"/>
		<path class="st5" d="M60.7,15.4c0,0,2.4,6.2,8.1,8.8l0.9-5.5L60.7,15.4z"/>
		<ellipse class="st6" cx="57.3" cy="20.5" rx="0.8" ry="1.5"/>
	</g>
</g>
<g>
	<path class="st11" d="M129.5,112.2l-4.3-1.2c0,0-1.7-0.3-0.7-3.6s3.1-2.4,3.1-2.4l3.8,1.1l1.5,0.5l-2.1,3l-0.2,2L129.5,112.2z"/>
	<polygon class="st11" points="137.9,103.4 139.2,108.8 132.3,115.6 131.7,115.7 130.1,115.3 128.7,109.9 130.1,108.4 128.7,108.1 
		131.7,105.1 133.2,105.5 134.5,104.2 133.7,103.9 133.6,103.6 134.6,102.8 	"/>
	<polygon class="st12" points="131.3,111.1 132.2,114.7 136.4,110.7 135.3,107.1 	"/>
	<polygon class="st13" points="137.9,103.4 138,104.2 131.1,110.9 130.5,111.1 129,110.6 128.9,110.6 128.7,109.9 130.1,108.4 
		128.7,108.1 131.7,105.1 133.2,105.5 134.5,104.2 133.7,103.9 133.6,103.6 134.6,102.8 	"/>
	
		<ellipse transform="matrix(0.9701 -0.2429 0.2429 0.9701 -21.0716 35.8025)" class="st12" cx="134.7" cy="103.4" rx="0.6" ry="0.4"/>
	<ellipse transform="matrix(0.9701 -0.2429 0.2429 0.9701 -22.6109 34.91)" class="st12" cx="130.3" cy="109.2" rx="0.6" ry="0.4"/>
	<path class="st14" d="M126.6,118.9l0.9-3.2c0,0-2.5-5.8,0.4-6.4c2.8-0.6,3,5.5,3,5.5l-1.1,3.6L126.6,118.9z"/>
	<circle class="st14" cx="144.1" cy="105.2" r="7.5"/>
	<path class="st14" d="M141.7,110.5c0,0-0.4,5.5-1.5,5.9c-1.1,0.4,9.8,3.5,9.8,3.5l-3.3-3.7c0,0,1.4-5.7,2.9-7L141.7,110.5z"/>
	<path class="st15" d="M131.2,117.2l-3-0.4c0,0-3.6,1.9-3.6,4.3c0,2.5-2.1,6.4-2.1,6.4s-1.5,5.3,1.9,5.7s6.4-5.7,6.4-5.7
		L131.2,117.2z"/>
	<path class="st7" d="M129.5,147.2l-6.1-4.2c-2-1.4-4.6-1.4-6.6-0.1c-0.8,0.6-1.5,1.3-1.5,2.2c0,2.8,6.2,9.4,6.2,9.4
		s4.7,10.4,9.2,10.7c3,0.3,5.9,0.7,8.9,1.3c0,0-2.1,7.5-0.9,9.6c1.1,2.1,5.5,4.5,5.8,4.3c0.4-0.2,5.7-5.1,7.9-12.1
		c2.3-7,3.8-12.3,1.7-12.6S129.5,147.2,129.5,147.2z"/>
	<path class="st7" d="M115.9,144.5c0,0-1.3-0.2-1.1,3s0.8,14.7,1.7,17c0.9,2.3,1.1,4.9,0.8,5.8c-0.4,0.9-1.1,2.5,0.2,2.6
		c1.3,0.2,6.8-0.6,7.4-0.8s-2.3-7.5-1.9-7.9c0.4-0.4,0.8-9.2,0.8-9.2L115.9,144.5z"/>
	<path class="st7" d="M117.8,172.4c0,0-3.2-0.9-3.6,1.1c0,0-0.6,3.2,1.9,4.3c1.6,0.7,3.1,1.6,4.5,2.6c0,0,4,1.5,4.1-0.4
		s-0.8-8.7-0.8-8.7L117.8,172.4z"/>
	<path class="st7" d="M139.1,174.7l6-4.9c0,0-1.1,6,0.4,7.2l0.7,2l-1.9,1.6C144.2,180.6,138.3,179.6,139.1,174.7z"/>
	<path class="st7" d="M147.6,166.4c0,0-4,1.1-3.4,5.1c0.6,4,1.3,8.3,1.3,8.3s0.2,10.6,3,11.3c2.8,0.8,3.6-0.8,3.6-0.8
		s3.2-8.3,2.3-10.7c-1.2-3-2.8-6.3-2.3-7.4C152.6,171.3,151.7,165.9,147.6,166.4z"/>
	<path class="st15" d="M149.8,114.4c0,0-1.5,0.2-4,0.6s-4.1-1.5-5.5-1.1s-12.3,3-12.3,3l0.9,7.3c0.3,2.4,1.1,4.7,2.1,6.8
		c1.6,3.5-0.8,14.6-3,16.6c-2,1.8-4.5,2.3-1.7,5.5c2.8,3.2,7.7,6,17.7,5.1c10-0.9,11.3-0.8,11.3-2.3s-3.6-21.3-2.4-22.4
		c1.1-1.1,1.7-2.3,1.7-2.8c0-0.4,1.2-4.6,2-7.4c0.6-2,0.4-4.1-0.6-5.9c-0.4-0.7-0.8-1.2-1.2-1.2c-1.3-0.2-0.4-1.1-1.3-1.1
		c-0.9,0-1.5,0.2-2.1,0L149.8,114.4z"/>
	<path class="st7" d="M135.4,100.1c0,0,0.2-9.3,9.3-4.9c0,0,7-0.2,8,8.6l0.9,9.2l-1-0.8l-0.7,1l-1.8,0.2l-0.5-1.6l-0.6,1.8L134,113
		c0,0,7.1-2.9,8.2-9.8l-1.4,1.1L135.4,100.1z"/>
	<circle class="st7" cx="152.4" cy="96.5" r="3.7"/>
	<path class="st7" d="M148.8,95.1c0.4-1.9,2.2-3.2,4.2-2.9c-0.1,0-0.1,0-0.2-0.1c-2-0.4-4,0.8-4.4,2.9c-0.4,2,0.8,4,2.9,4.4
		c0.1,0,0.2,0,0.2,0C149.5,98.9,148.4,97,148.8,95.1z"/>
</g>
</svg>
