<?xml version="1.0" encoding="utf-8"?>
<!-- Generator: Adobe Illustrator 24.3.0, SVG Export Plug-In . SVG Version: 6.00 Build 0)  -->
<svg version="1.1" id="圖層_1" xmlns="http://www.w3.org/2000/svg" xmlns:xlink="http://www.w3.org/1999/xlink" x="0px" y="0px"
	 viewBox="0 0 295.5 193.3" style="enable-background:new 0 0 295.5 193.3;" xml:space="preserve">
<style type="text/css">
	.st0{fill:#AE9380;}
	.st1{fill:#3E3C54;}
	.st2{opacity:0.1;fill:#040000;enable-background:new    ;}
	.st3{fill:#635F7A;}
	.st4{fill:#FFFFFF;}
	.st5{fill:#555EA8;}
	.st6{fill:#F3B9B8;}
	.st7{fill:#7B5B5B;}
	.st8{opacity:0.1;}
	.st9{fill:#040000;}
	.st10{fill:#B0ADBE;}
	.st11{fill:#222222;}
	.st12{fill:#E6CB5A;}
	.st13{fill:#678466;}
	.st14{fill:#CAAB94;}
	.st15{fill:none;stroke:#5A5B5B;stroke-width:0.5;stroke-miterlimit:10;}
	.st16{fill:#5A5B5B;}
</style>
<g>
	<g>
		<g>
			<path class="st0" d="M61.8,31.4c-0.7-1-3.7-0.8-8.2-0.4c-4.5,0.4-15,5.8-18.6,8.1c-3.6,2.3-4.1,5-3.7,5.4
				c0.9,0.8,3.9,1.4,4.9,1.4c0.8,0,4.5-0.8,7.6-1.2c3.1-0.4,13.5-6.4,14.5-7.1C59.4,37,62.4,32.3,61.8,31.4z"/>
		</g>
	</g>
	<g>
		<path class="st1" d="M76,182.2c-0.9,0-5.6,2-5.6,2s-1.5,0.8-5.4,1.4c-2.5,0.4-2.8-0.9-2.8-1.7c0-0.3,0.1-0.6,0.2-0.8v-5.3
			c0,0,7.8-4.8,8.4-5.1c0.1,0,0.2-0.1,0.2-0.1c1,0,3.7,0.9,5.2,2c1.7,1.2,3.8,0.5,3.8,0.5s4.1-3.3,5.2-0.9c0.1,0.1,0.1,0.3,0.1,0.4
			C86.2,177.7,76.9,182.3,76,182.2z"/>
		<path class="st2" d="M62.5,178.9v-1.3c0,0,7.8-4.8,8.4-5.1c0.1,0,0.2-0.1,0.2-0.1c0.4,0.4,0.7,0.7,0.9,0.9
			C72.6,174,67.4,180.5,62.5,178.9z"/>
		<path class="st3" d="M61.3,178l-0.7-3.2l0,0c0,0,0-2.8-1-3.3c-1-0.5-3.7-19.3-3.7-19.3s0.1-4.2-0.6-4.7c-0.7-0.5,0-1.1,0-1.1
			c0-0.6-0.1-1.2-0.3-1.8c-0.2-0.6-0.4-1.2-0.5-1.9c0,0,0.4-1.4,0-1.7c-0.3-0.3,0.1-0.7-0.5-1.7c-0.4-0.6-0.8-1.1-1.4-1.5
			c-2-1.7,0-21.3,0.5-26.4c0.1-0.8,0.1-1.2,0.1-1.2H58l0.6,2.2l1,4c0,0,0.6,0.4,0.6,1s3.8,12,3.8,12c0.3,0.5,0.5,0.9,0.7,1.4
			c0.1,0.4,0.9,1,0.9,1c-0.3,0.7-0.3,1.5,0,2.2c0.5,1.1,2.1,5.6,1.5,7.8S66,144,66,144s-0.5,1.6,0.4,2.2c0.9,0.6,0.3,1.7,0.3,1.7
			l1.2,10.1c0,0-0.1,4.5,1.3,6.1c1.4,1.6,1.5,5.5,1.5,5.5l-1,0.4l-0.2,0.1l-0.1,0c0,0,2.1,2.2,2.7,2.8
			C72.7,173.7,66.5,181.3,61.3,178z"/>
		<path class="st2" d="M72,173.1c-0.5,1.6-6,7.5-10.8,4.6l-0.7-3.2c1.3-1,5.3-4.1,8.8-4.6l-0.1,0l0.2,0.3l-0.2,0.1l-0.1,0
			C69.3,170.3,71.4,172.4,72,173.1z"/>
		<path class="st3" d="M61.3,178l-0.7-3.2c1.3-1,5.3-4.1,8.8-4.6l-0.1,0c0,0,2.1,2.2,2.7,2.8C72.6,173.7,66.5,181.3,61.3,178z"/>
		<circle class="st4" cx="74.9" cy="175.2" r="0.2"/>
		<circle class="st4" cx="73.4" cy="175" r="0.2"/>
		<circle class="st4" cx="76.1" cy="175.4" r="0.2"/>
		<circle class="st4" cx="71.8" cy="174.8" r="0.2"/>
		<path class="st2" d="M76,182.2c-0.9,0-5.6,2-5.6,2s-1.5,0.8-5.4,1.4c-2.5,0.4-2.8-0.9-2.8-1.7c0.6,0.3,1.4,0.3,2,0.1
			c1.7-0.4,7.7-1.4,7.7-1.4s3.9-1.4,4-2.2l9.3-6.3c0.1,0.1,0.1,0.3,0.1,0.4C86.2,177.7,76.9,182.3,76,182.2z"/>
		<rect x="69.5" y="111.3" class="st5" width="2.2" height="69.7"/>
		<rect x="68.8" y="178.5" class="st5" width="3.7" height="5.1"/>
		<path class="st6" d="M53.3,49.6c-0.8,1-1.4,2.1-1.8,3.2c-1.4,3.8-0.4,6.8-0.4,6.8S38,56.8,39.3,55.4c0.8-0.9,1.4-4.3,1.8-6.8
			c0.2-1.6,0.4-2.9,0.4-2.9S57.2,44.5,53.3,49.6z"/>
		<path class="st1" d="M57,185.3c-0.2,0.9-0.6,1.7-1.3,2.3c-1,0.8-10.5,1.1-12.4,0.4s-8.1-1-9.6-1.1c-1.5-0.1-2.1-1.5-2.5-2.2
			c-0.1-0.2,0-0.6,0.1-1.2c0.4-1.3,1.3-3.1,1.5-3.3c0.1-0.1,0.3-0.7,0.4-1.3c0.1-0.4,0.1-0.8,0.1-0.8c4.1,2.8,9.5-2,9.5-2
			c0.2-0.1,0.4-0.2,0.7-0.1c1,0.1,2.2,1.5,2.2,2.1c0,0.7,2.9,2.1,2.9,2.1c0.8,0.9,4.4,2.7,4.4,2.7s2.5,0.1,3.6,1
			C56.9,184.3,57.1,184.8,57,185.3z"/>
		<path class="st2" d="M57,185.3c-0.2,0.9-0.6,1.7-1.3,2.3c-1,0.8-10.5,1.1-12.4,0.4s-8.1-1-9.6-1.1c-1.5-0.1-2.1-1.5-2.5-2.2
			c-0.1-0.2,0-0.6,0.1-1.2c1.4,0.3,2.7,0.7,4,1.2c1.9,0.8,5.9,1.8,6.6,1.5C42,186.3,51.5,189,57,185.3z"/>
		<path class="st2" d="M53.9,139.2c-0.4-0.6-0.8-1.1-1.4-1.5c-2-1.7,0-21.3,0.5-26.4c2.4-0.1,4-0.1,4.2,0.3
			C57.7,112.8,54.5,134.8,53.9,139.2z"/>
		<path class="st2" d="M43.5,176.1v1c-6.6,6.8-9.3,4.5-10.3,1.9c0.1-0.4,0.1-0.8,0.1-0.8c4.1,2.8,9.5-2,9.5-2
			C43.1,176.1,43.3,176.1,43.5,176.1z"/>
		<path class="st3" d="M56.7,113.2c-0.4,6.1-3.4,26.8-3.4,26.8s-1.7,7.6-2.1,7.9c-0.4,0.3-2.6,1.8-2.6,1.8s-0.1,3.5-0.8,4.5
			c-0.7,1-1,3.5-1,3.5s-1.2,5.1-1.5,7.6c-0.4,2.5-1.6,6-1.6,6v5.5c-8.3,8.6-10.4,2.7-10.9,0c-0.1-0.4-0.1-0.7-0.1-1.1l4.7-28.5
			c0,0,1-1.4,0.8-2.1s0.4-1.6,0.4-1.6l0-1.6c0,0,1.1-1.4,0-2.3s0-7,0-7s-1.2-3.5-0.6-4.5c0.6-1,0-2.6,0.4-3.5c0.4-0.9,0,0-1.6-2.4
			c-0.9-1.3-1.6-3.6-2.1-5.5c-0.5-1.8-0.7-3.2-0.7-3.2s22.3-3.2,22.9-1.8C56.7,112.1,56.7,112.7,56.7,113.2z"/>
		<path class="st2" d="M53.3,49.6c-0.8,1-1.4,2.1-1.8,3.2c-0.9,0.3-1.7,0.4-2.6,0.4c-3.2,0-5-2.4-6.5-5c-0.1-0.1-1.2,0.4-1.2,0.3
			c0.2-1.6,0.4-2.9,0.4-2.9S57.2,44.5,53.3,49.6z"/>
		<path class="st6" d="M57.5,44.4c0,4.8-3.9,8.8-8.7,8.8c-4.8,0-8.8-3.9-8.8-8.7c0-4.8,3.9-8.8,8.7-8.8c2.4,0,4.7,1,6.4,2.8
			C56.7,40,57.5,42.1,57.5,44.4z"/>
		<path class="st2" d="M56.7,113.2c-2.9,0.5-8.3,1.5-8.7,2.1c-0.6,0.8-5.1,1.1-7.8,1.4c-1.6,0.2-3.8,0-5.6-0.2
			c-0.5-1.8-0.7-3.2-0.7-3.2s22.3-3.2,22.9-1.8C56.7,112.1,56.7,112.7,56.7,113.2z"/>
		<path class="st5" d="M58.6,112.3c0,0-10.1,1.6-10.7,2.5c-0.6,0.8-5.1,1.1-7.8,1.4c-2.7,0.4-7.6-0.4-7.9-0.7
			c-2.1-1.4-1.1-17.9-0.2-20s0.6-13.5-0.2-18.1c-0.8-4.6,0.4-10.3,0.4-10.3s1.3-4,1-4.9s1.2-2.6,1.2-2.6s2.2-3.7,3.4-4.2
			c0.4-0.2,0.7-0.6,0.9-1c0.2-0.7,0.2-1.5,0.2-2.2c0.1-1.2,1.3-1.2,1.3-1.2c3.4,0.5,11.5,5.6,11.5,5.6c-0.3,1.1,1.6,4.4,1.6,4.4
			c0,0.1,0.1,0.1,0.1,0.2c2.1,4,3.6,16.2,3.6,16.2s0.1,5.8,0.1,10.1c0,2.1-0.1,3.9-0.2,4.4c-0.2,0.8,0.2,4.6,0.5,8.3
			c0.2,2.5,0.5,4.9,0.6,6.2C58.2,109.4,58.6,112.3,58.6,112.3z"/>
		<path class="st2" d="M49.8,95.7c0,0-2.7,6.5-2,7.5S49.8,95.7,49.8,95.7z"/>
		<path class="st2" d="M53.1,98.9c0,0-3.1,4.8-1.9,5.8S53.1,98.9,53.1,98.9z"/>
		<path class="st2" d="M43.5,175v1.6c-8.3,8.6-10.4,2.7-10.9,0C34.2,177.9,37.7,179.5,43.5,175z"/>
		<path class="st3" d="M43.5,175.1v1.6c-8.3,8.6-10.4,2.7-10.9,0C34.2,178.1,37.7,179.7,43.5,175.1z"/>
		<circle class="st4" cx="42.6" cy="179.5" r="0.2"/>
		<circle class="st4" cx="46.3" cy="181.8" r="0.2"/>
		<circle class="st4" cx="44.8" cy="180.9" r="0.2"/>
		<circle class="st4" cx="47.4" cy="182.6" r="0.2"/>
		<circle class="st4" cx="43.8" cy="180.2" r="0.2"/>
		<path class="st2" d="M45.3,121.9c0,0-2.2,5.5-4.8,5.7C37.9,127.7,45.3,121.9,45.3,121.9z"/>
		<path class="st2" d="M45.6,130.2c0,0-3.4,5.8-4.5,5.9S45.6,130.2,45.6,130.2z"/>
		<path class="st2" d="M47.4,149.8c0,0-4.3,2.2-3.3,2.4C45.1,152.4,47.4,149.8,47.4,149.8z"/>
		<path class="st2" d="M38.9,149.8c0,0,4.3-1.7,5-1.7C44.7,148.1,38.9,149.8,38.9,149.8z"/>
		<path class="st2" d="M62.3,142.7c0,0,2.9-0.7,3.1,0C65.4,143.4,62.3,142.7,62.3,142.7z"/>
		<path class="st2" d="M65.1,146.3c0,0-2.6,0.1-2.2,0.9C63.2,148,65.1,146.3,65.1,146.3z"/>
		<path class="st2" d="M53.3,61.6c-2.2-0.9-6.1-2.6-7.9-4.3c-1.8-1.7-5-2.3-6.8-2.5c0.2-0.7,0.2-1.5,0.2-2.2
			c0.1-1.2,1.3-1.2,1.3-1.2c3.4,0.5,11.5,5.6,11.5,5.6c-0.3,1.1,1.6,4.4,1.6,4.4C53.2,61.4,53.3,61.5,53.3,61.6z"/>
		<path class="st5" d="M53.3,61.2c-2.2-0.9-6.1-2.6-7.9-4.3c-1.8-1.7-5-2.3-6.8-2.5c0.2-0.7,0.2-1.5,0.2-2.2
			c0.1-1.2,1.3-1.2,1.3-1.2c3.4,0.5,11.5,5.6,11.5,5.6c-0.3,1.1,1.6,4.4,1.6,4.4C53.2,61.1,53.3,61.1,53.3,61.2z"/>
		<path class="st2" d="M57.4,100.1c-3.6-2.3-8.6-6.3-8.6-6.5c0-0.3-2.1-2.5-2.1-2.5l-4-7.3l-1.3-3l3.6-3.8l7.9,5.1l2.1,3.9
			c0.7,0.5,1.4,1.1,2,1.7c0,2.1-0.1,3.9-0.2,4.4C56.7,92.6,57.1,96.4,57.4,100.1z"/>
		<path class="st6" d="M41.6,79.9l1.1,3.8l4.2,6.6c0,0,2,2.2,2,2.5c0,0.3,7.5,6.1,10.7,7.8c3.2,1.6,7.2,3,7.5,4.1
			c0.3,1.2,2.1,9.9,7.2,7.1c5.1-2.8-1.4-9.2-1.4-9.2l-4.2-3.7c0,0-9-7-9.8-9.4c-0.8-2.3-3.8-4.4-3.8-4.4l-2.1-3.9l-7.9-5.1
			L41.6,79.9z"/>
		<path class="st2" d="M40.1,60.1c0,0-7.3,3.4-5.1,8.7c2.3,5.4,7.3,15.3,7.3,15.3s-0.6-3.5,0.7-3.8c1.3-0.3,10.2,1.2,10.2,1.2
			s-2.4-4-2-6.3C51.7,72.9,48.1,58.1,40.1,60.1z"/>
		<path class="st2" d="M40.9,59.5c0,0-7.3,3.4-5.1,8.7s7.3,15.3,7.3,15.3s-0.6-3.5,0.7-3.8c1.3-0.3,9.7,1.3,9.7,1.3
			s-1.9-4.1-1.5-6.4C52.4,72.3,48.8,57.5,40.9,59.5z"/>
		<path class="st5" d="M40.5,59.7c0,0-7.3,3.4-5.1,8.7s7.3,15.3,7.3,15.3s-0.6-3.5,0.7-3.8c1.3-0.3,9.7,1.3,9.7,1.3
			s-1.9-4.1-1.5-6.4C52.1,72.5,48.5,57.7,40.5,59.7z"/>
		<path class="st2" d="M55.2,38.4c-1,0.3-2.1,0.5-3,0c-0.6-0.3-1.1-1-1.8-1.1c-0.6-0.1-1.3,0.2-1.7,0.8c-0.4,0.5-0.7,1.1-0.9,1.7
			c-0.5,1.1-1,2.1-1.7,3.1c-0.4,0.6-0.9,1.2-1.7,1.3c-1,0-1.7-1-2.6-1.3c-2.3-0.7-1,1.9-0.6,2.9c0.3,1,0.5,2,0.3,3
			c-0.1,0-0.2,0-0.2,0c-2.4-4.2-1-9.5,3.2-11.9C48,34.8,52.4,35.5,55.2,38.4z"/>
		<path class="st7" d="M41.6,42.6c1,0.3,1.6,1.4,2.6,1.3c0.7,0,1.3-0.7,1.7-1.3c0.7-1,1.2-2,1.7-3.1c0.2-0.6,0.5-1.2,0.9-1.7
			c0.4-0.5,1.1-0.9,1.7-0.8c0.7,0.1,1.2,0.8,1.8,1.1c1.1,0.6,2.6,0.2,3.8-0.3c0.6-0.2,1.3-0.6,1.4-1.2c0.1-0.4-0.2-0.9-0.1-1.3
			c0.1-0.4,0.4-0.7,0.6-1.1c0.2-0.4,0.3-0.9,0-1.2c-0.2-0.2-0.6-0.2-0.9-0.3c-0.7-0.3-0.9-1.2-1.5-1.7c-0.7-0.5-1.6-0.2-2.5-0.1
			c-1.2,0.1-2.3-0.5-3.5-0.9c-1.1-0.4-2.4-0.8-3.5-0.3c-0.7,0.3-1.2,0.8-1.7,1.3c-1.1,0.9-2.4,1.4-3.8,1.6c-0.7,0.1-1.4,0.1-2,0.5
			c-0.7,0.5-0.8,1.5-0.6,2.4c0.1,0.9,0.4,1.7,0.4,2.5c-0.1,1.4-1.1,2.5-1.5,3.8c-0.2,0.4-0.1,0.9,0.1,1.3c0.2,0.2,0.4,0.4,0.7,0.5
			c0.7,0.4,1.1,1.1,1.2,1.9c0,0.4,0,0.8,0.1,1.2c0.3,1.2,1.4,2,2.7,1.8c0.1-1,0-2-0.3-3C40.6,44.6,39.3,42,41.6,42.6z"/>
		<g class="st8">
			<path class="st9" d="M55.7,31.6C55.7,31.6,55.7,31.6,55.7,31.6L55.7,31.6z"/>
			<path class="st9" d="M57.6,34.3c0.2-0.4,0.3-0.9,0-1.2c-0.1,0-0.1-0.1-0.2-0.1c0,0.3-0.1,0.5-0.2,0.7c-0.2,0.4-0.6,0.7-0.6,1.1
				c-0.1,0.4,0.2,0.9,0.1,1.3c-0.1,0.6-0.8,1-1.4,1.2c-1.2,0.5-2.6,0.9-3.8,0.3c-0.6-0.3-1.1-1-1.8-1.1c-0.6-0.1-1.3,0.2-1.7,0.8
				c-0.4,0.5-0.7,1.1-0.9,1.7c-0.5,1.1-1,2.1-1.7,3.1c-0.4,0.6-0.9,1.2-1.7,1.3c-1,0-1.7-1-2.6-1.3c-2.3-0.7-1,1.9-0.6,2.9
				c0.3,1,0.5,2,0.3,3c-0.8,0.1-1.6-0.1-2.1-0.7c0.4,0.9,1.5,1.5,2.5,1.3c0.1-1,0-2-0.3-3c-0.3-1-1.7-3.6,0.6-2.9
				c1,0.3,1.6,1.4,2.6,1.3c0.7,0,1.3-0.7,1.7-1.3c0.7-1,1.2-2,1.7-3.1c0.2-0.6,0.5-1.2,0.9-1.7c0.4-0.5,1-0.8,1.7-0.8
				c0.7,0.1,1.2,0.8,1.8,1.1c1.1,0.6,2.6,0.2,3.8-0.3c0.6-0.2,1.3-0.6,1.4-1.2c0.1-0.4-0.2-0.9-0.1-1.3C57,35,57.4,34.6,57.6,34.3z"
				/>
			<path class="st9" d="M37,43.1c-0.2-0.1-0.3-0.2-0.5-0.3c0,0.1,0.1,0.3,0.2,0.4c0.2,0.2,0.4,0.4,0.7,0.5c0.2,0.1,0.4,0.3,0.6,0.5
				C37.8,43.7,37.4,43.3,37,43.1z"/>
		</g>
		<path class="st1" d="M76,182.2c-0.9,0-5.6,2-5.6,2s-1.5,0.8-5.4,1.4c-2.5,0.4-2.8-0.9-2.8-1.7c0-0.3,0.1-0.6,0.2-0.8v-5.3
			c0,0,7.8-4.8,8.4-5.1c0.1,0,0.2-0.1,0.2-0.1c1,0,3.7,0.9,5.2,2c1.7,1.2,3.8,0.5,3.8,0.5s4.1-3.3,5.2-0.9c0.1,0.1,0.1,0.3,0.1,0.4
			C86.2,177.7,76.9,182.3,76,182.2z"/>
		<path class="st2" d="M62.5,178.9v-1.3c0,0,7.8-4.8,8.4-5.1c0.1,0,0.2-0.1,0.2-0.1c0.4,0.4,0.7,0.7,0.9,0.9
			C72.6,174,67.4,180.5,62.5,178.9z"/>
		<path class="st10" d="M61.3,178l-0.7-3.2l0,0c0,0,0-2.8-1-3.3c-1-0.5-3.7-19.3-3.7-19.3s0.1-4.2-0.6-4.7c-0.7-0.5,0-1.1,0-1.1
			c0-0.6-0.1-1.2-0.3-1.8c-0.2-0.6-0.4-1.2-0.5-1.9c0,0,0.4-1.4,0-1.7c-0.3-0.3,0.1-0.7-0.5-1.7c-0.4-0.6-0.8-1.1-1.4-1.5
			c-2-1.7,0-21.3,0.5-26.4c0.1-0.8,0.1-1.2,0.1-1.2H58l0.6,2.2l1,4c0,0,0.6,0.4,0.6,1s3.8,12,3.8,12c0.3,0.5,0.5,0.9,0.7,1.4
			c0.1,0.4,0.9,1,0.9,1c-0.3,0.7-0.3,1.5,0,2.2c0.5,1.1,2.1,5.6,1.5,7.8S66,144,66,144s-0.5,1.6,0.4,2.2c0.9,0.6,0.3,1.7,0.3,1.7
			l1.2,10.1c0,0-0.1,4.5,1.3,6.1c1.4,1.6,1.5,5.5,1.5,5.5l-1,0.4l-0.2,0.1l-0.1,0c0,0,2.1,2.2,2.7,2.8
			C72.7,173.7,66.5,181.3,61.3,178z"/>
		<path class="st2" d="M72,173.1c-0.5,1.6-6,7.5-10.8,4.6l-0.7-3.2c1.3-1,5.3-4.1,8.8-4.6l-0.1,0l0.2,0.3l-0.2,0.1l-0.1,0
			C69.3,170.3,71.4,172.4,72,173.1z"/>
		<path class="st10" d="M61.3,178l-0.7-3.2c1.3-1,5.3-4.1,8.8-4.6l-0.1,0c0,0,2.1,2.2,2.7,2.8C72.6,173.7,66.5,181.3,61.3,178z"/>
		<path class="st2" d="M76,182.2c-0.9,0-5.6,2-5.6,2s-1.5,0.8-5.4,1.4c-2.5,0.4-2.8-0.9-2.8-1.7c0.6,0.3,1.4,0.3,2,0.1
			c1.7-0.4,7.7-1.4,7.7-1.4s3.9-1.4,4-2.2l9.3-6.3c0.1,0.1,0.1,0.3,0.1,0.4C86.2,177.7,76.9,182.3,76,182.2z"/>
		<rect x="69.5" y="111.3" class="st11" width="2.2" height="69.7"/>
		<rect x="68.8" y="178.5" class="st11" width="3.7" height="5.1"/>
		<path class="st6" d="M53.3,49.6c-0.8,1-1.4,2.1-1.8,3.2c-1.4,3.8-0.4,6.8-0.4,6.8S38,56.8,39.3,55.4c0.8-0.9,1.4-4.3,1.8-6.8
			c0.2-1.6,0.4-2.9,0.4-2.9S57.2,44.5,53.3,49.6z"/>
		<path class="st1" d="M57,185.3c-0.2,0.9-0.6,1.7-1.3,2.3c-1,0.8-10.5,1.1-12.4,0.4s-8.1-1-9.6-1.1c-1.5-0.1-2.1-1.5-2.5-2.2
			c-0.1-0.2,0-0.6,0.1-1.2c0.4-1.3,1.3-3.1,1.5-3.3c0.1-0.1,0.3-0.7,0.4-1.3c0.1-0.4,0.1-0.8,0.1-0.8c4.1,2.8,9.5-2,9.5-2
			c0.2-0.1,0.4-0.2,0.7-0.1c1,0.1,2.2,1.5,2.2,2.1c0,0.7,2.9,2.1,2.9,2.1c0.8,0.9,4.4,2.7,4.4,2.7s2.5,0.1,3.6,1
			C56.9,184.3,57.1,184.8,57,185.3z"/>
		<path class="st2" d="M57,185.3c-0.2,0.9-0.6,1.7-1.3,2.3c-1,0.8-10.5,1.1-12.4,0.4s-8.1-1-9.6-1.1c-1.5-0.1-2.1-1.5-2.5-2.2
			c-0.1-0.2,0-0.6,0.1-1.2c1.4,0.3,2.7,0.7,4,1.2c1.9,0.8,5.9,1.8,6.6,1.5C42,186.3,51.5,189,57,185.3z"/>
		<path class="st2" d="M53.9,139.2c-0.4-0.6-0.8-1.1-1.4-1.5c-2-1.7,0-21.3,0.5-26.4c2.4-0.1,4-0.1,4.2,0.3
			C57.7,112.8,54.5,134.8,53.9,139.2z"/>
		<path class="st2" d="M43.5,176.1v1c-6.6,6.8-9.3,4.5-10.3,1.9c0.1-0.4,0.1-0.8,0.1-0.8c4.1,2.8,9.5-2,9.5-2
			C43.1,176.1,43.3,176.1,43.5,176.1z"/>
		<path class="st10" d="M56.7,113.2c-0.4,6.1-3.4,26.8-3.4,26.8s-1.7,7.6-2.1,7.9c-0.4,0.3-2.6,1.8-2.6,1.8s-0.1,3.5-0.8,4.5
			c-0.7,1-1,3.5-1,3.5s-1.2,5.1-1.5,7.6c-0.4,2.5-1.6,6-1.6,6v5.5c-8.3,8.6-10.4,2.7-10.9,0c-0.1-0.4-0.1-0.7-0.1-1.1l4.7-28.5
			c0,0,1-1.4,0.8-2.1s0.4-1.6,0.4-1.6l0-1.6c0,0,1.1-1.4,0-2.3s0-7,0-7s-1.2-3.5-0.6-4.5c0.6-1,0-2.6,0.4-3.5c0.4-0.9,0,0-1.6-2.4
			c-0.9-1.3-1.6-3.6-2.1-5.5c-0.5-1.8-0.7-3.2-0.7-3.2s22.3-3.2,22.9-1.8C56.7,112.1,56.7,112.7,56.7,113.2z"/>
		<path class="st2" d="M53.3,49.6c-0.8,1-1.4,2.1-1.8,3.2c-0.9,0.3-1.7,0.4-2.6,0.4c-3.2,0-5-2.4-6.5-5c-0.1-0.1-1.2,0.4-1.2,0.3
			c0.2-1.6,0.4-2.9,0.4-2.9S57.2,44.5,53.3,49.6z"/>
		<path class="st6" d="M57.5,44.4c0,4.8-3.9,8.8-8.7,8.8c-4.8,0-8.8-3.9-8.8-8.7c0-4.8,3.9-8.8,8.7-8.8c2.4,0,4.7,1,6.4,2.8
			C56.7,40,57.5,42.1,57.5,44.4z"/>
		<path class="st2" d="M56.7,113.2c-2.9,0.5-8.3,1.5-8.7,2.1c-0.6,0.8-5.1,1.1-7.8,1.4c-1.6,0.2-3.8,0-5.6-0.2
			c-0.5-1.8-0.7-3.2-0.7-3.2s22.3-3.2,22.9-1.8C56.7,112.1,56.7,112.7,56.7,113.2z"/>
		<path class="st12" d="M58.6,112.3c0,0-10.1,1.6-10.7,2.5c-0.6,0.8-5.1,1.1-7.8,1.4c-2.7,0.4-7.6-0.4-7.9-0.7
			c-2.1-1.4-1.1-17.9-0.2-20s0.6-13.5-0.2-18.1c-0.8-4.6,0.4-10.3,0.4-10.3s1.3-4,1-4.9s1.2-2.6,1.2-2.6s2.2-3.7,3.4-4.2
			c0.4-0.2,0.7-0.6,0.9-1c0.2-0.7,0.2-1.5,0.2-2.2c0.1-1.2,1.3-1.2,1.3-1.2c3.4,0.5,11.5,5.6,11.5,5.6c-0.3,1.1,1.6,4.4,1.6,4.4
			c0,0.1,0.1,0.1,0.1,0.2c2.1,4,3.6,16.2,3.6,16.2s0.1,5.8,0.1,10.1c0,2.1-0.1,3.9-0.2,4.4c-0.2,0.8,0.2,4.6,0.5,8.3
			c0.2,2.5,0.5,4.9,0.6,6.2C58.2,109.4,58.6,112.3,58.6,112.3z"/>
		<path class="st2" d="M49.8,95.7c0,0-2.7,6.5-2,7.5S49.8,95.7,49.8,95.7z"/>
		<path class="st2" d="M53.1,98.9c0,0-3.1,4.8-1.9,5.8S53.1,98.9,53.1,98.9z"/>
		<path class="st2" d="M43.5,175v1.6c-8.3,8.6-10.4,2.7-10.9,0C34.2,177.9,37.7,179.5,43.5,175z"/>
		<path class="st10" d="M43.5,175.1v1.6c-8.3,8.6-10.4,2.7-10.9,0C34.2,178.1,37.7,179.7,43.5,175.1z"/>
		<path class="st2" d="M45.3,121.9c0,0-2.2,5.5-4.8,5.7C37.9,127.7,45.3,121.9,45.3,121.9z"/>
		<path class="st2" d="M45.6,130.2c0,0-3.4,5.8-4.5,5.9S45.6,130.2,45.6,130.2z"/>
		<path class="st2" d="M47.4,149.8c0,0-4.3,2.2-3.3,2.4C45.1,152.4,47.4,149.8,47.4,149.8z"/>
		<path class="st2" d="M38.9,149.8c0,0,4.3-1.7,5-1.7C44.7,148.1,38.9,149.8,38.9,149.8z"/>
		<path class="st2" d="M62.3,142.7c0,0,2.9-0.7,3.1,0C65.4,143.4,62.3,142.7,62.3,142.7z"/>
		<path class="st2" d="M65.1,146.3c0,0-2.6,0.1-2.2,0.9C63.2,148,65.1,146.3,65.1,146.3z"/>
		<path class="st12" d="M53.3,61.2c-2.2-0.9-6.1-2.6-7.9-4.3c-1.8-1.7-5-2.3-6.8-2.5c0.2-0.7,0.2-1.5,0.2-2.2
			c0.1-1.2,1.3-1.2,1.3-1.2c3.4,0.5,11.5,5.6,11.5,5.6c-0.3,1.1,1.6,4.4,1.6,4.4C53.2,61.1,53.3,61.1,53.3,61.2z"/>
		<path class="st2" d="M57.4,100.1c-3.6-2.3-8.6-6.3-8.6-6.5c0-0.3-2.1-2.5-2.1-2.5l-4-7.3l-1.3-3l3.6-3.8l7.9,5.1l2.1,3.9
			c0.7,0.5,1.4,1.1,2,1.7c0,2.1-0.1,3.9-0.2,4.4C56.7,92.6,57.1,96.4,57.4,100.1z"/>
		<path class="st2" d="M40.1,60.1c0,0-7.3,3.4-5.1,8.7c2.3,5.4,7.3,15.3,7.3,15.3s-0.6-3.5,0.7-3.8c1.3-0.3,10.2,1.2,10.2,1.2
			s-2.4-4-2-6.3C51.7,72.9,48.1,58.1,40.1,60.1z"/>
		<path class="st2" d="M40.9,59.5c0,0-7.3,3.4-5.1,8.7s7.3,15.3,7.3,15.3s-0.6-3.5,0.7-3.8c1.3-0.3,9.7,1.3,9.7,1.3
			s-1.9-4.1-1.5-6.4C52.4,72.3,48.8,57.5,40.9,59.5z"/>
		<path class="st12" d="M40.5,59.7c0,0-7.3,3.4-5.1,8.7s7.3,15.3,7.3,15.3s-0.6-3.5,0.7-3.8c1.3-0.3,9.7,1.3,9.7,1.3
			s-1.9-4.1-1.5-6.4C52.1,72.5,48.5,57.7,40.5,59.7z"/>
		<path class="st2" d="M55.2,38.4c-1,0.3-2.1,0.5-3,0c-0.6-0.3-1.1-1-1.8-1.1c-0.6-0.1-1.3,0.2-1.7,0.8c-0.4,0.5-0.7,1.1-0.9,1.7
			c-0.5,1.1-1,2.1-1.7,3.1c-0.4,0.6-0.9,1.2-1.7,1.3c-1,0-1.7-1-2.6-1.3c-2.3-0.7-1,1.9-0.6,2.9c0.3,1,0.5,2,0.3,3
			c-0.1,0-0.2,0-0.2,0c-2.4-4.2-1-9.5,3.2-11.9C48,34.8,52.4,35.5,55.2,38.4z"/>
		<path class="st7" d="M41.6,42.6c1,0.3,1.6,1.4,2.6,1.3c0.7,0,1.3-0.7,1.7-1.3c0.7-1,1.2-2,1.7-3.1c0.2-0.6,0.5-1.2,0.9-1.7
			c0.4-0.5,1.1-0.9,1.7-0.8c0.7,0.1,1.2,0.8,1.8,1.1c1.1,0.6,2.6,0.2,3.8-0.3c0.6-0.2,1.3-0.6,1.4-1.2c0.1-0.4-0.2-0.9-0.1-1.3
			c0.1-0.4,0.4-0.7,0.6-1.1c0.2-0.4,0.3-0.9,0-1.2c-0.2-0.2-0.6-0.2-0.9-0.3c-0.7-0.3-0.9-1.2-1.5-1.7c-0.7-0.5-1.6-0.2-2.5-0.1
			c-1.2,0.1-2.3-0.5-3.5-0.9c-1.1-0.4-2.4-0.8-3.5-0.3c-0.7,0.3-1.2,0.8-1.7,1.3c-1.1,0.9-2.4,1.4-3.8,1.6c-0.7,0.1-1.4,0.1-2,0.5
			c-0.7,0.5-0.8,1.5-0.6,2.4c0.1,0.9,0.4,1.7,0.4,2.5c-0.1,1.4-1.1,2.5-1.5,3.8c-0.2,0.4-0.1,0.9,0.1,1.3c0.2,0.2,0.4,0.4,0.7,0.5
			c0.7,0.4,1.1,1.1,1.2,1.9c0,0.4,0,0.8,0.1,1.2c0.3,1.2,1.4,2,2.7,1.8c0.1-1,0-2-0.3-3C40.6,44.6,39.3,42,41.6,42.6z"/>
		<g class="st8">
			<path class="st9" d="M55.7,31.6C55.7,31.6,55.7,31.6,55.7,31.6L55.7,31.6z"/>
			<path class="st9" d="M57.6,34.3c0.2-0.4,0.3-0.9,0-1.2c-0.1,0-0.1-0.1-0.2-0.1c0,0.3-0.1,0.5-0.2,0.7c-0.2,0.4-0.6,0.7-0.6,1.1
				c-0.1,0.4,0.2,0.9,0.1,1.3c-0.1,0.6-0.8,1-1.4,1.2c-1.2,0.5-2.6,0.9-3.8,0.3c-0.6-0.3-1.1-1-1.8-1.1c-0.6-0.1-1.3,0.2-1.7,0.8
				c-0.4,0.5-0.7,1.1-0.9,1.7c-0.5,1.1-1,2.1-1.7,3.1c-0.4,0.6-0.9,1.2-1.7,1.3c-1,0-1.7-1-2.6-1.3c-2.3-0.7-1,1.9-0.6,2.9
				c0.3,1,0.5,2,0.3,3c-0.8,0.1-1.6-0.1-2.1-0.7c0.4,0.9,1.5,1.5,2.5,1.3c0.1-1,0-2-0.3-3c-0.3-1-1.7-3.6,0.6-2.9
				c1,0.3,1.6,1.4,2.6,1.3c0.7,0,1.3-0.7,1.7-1.3c0.7-1,1.2-2,1.7-3.1c0.2-0.6,0.5-1.2,0.9-1.7c0.4-0.5,1-0.8,1.7-0.8
				c0.7,0.1,1.2,0.8,1.8,1.1c1.1,0.6,2.6,0.2,3.8-0.3c0.6-0.2,1.3-0.6,1.4-1.2c0.1-0.4-0.2-0.9-0.1-1.3C57,35,57.4,34.6,57.6,34.3z"
				/>
			<path class="st9" d="M37,43.1c-0.2-0.1-0.3-0.2-0.5-0.3c0,0.1,0.1,0.3,0.2,0.4c0.2,0.2,0.4,0.4,0.7,0.5c0.2,0.1,0.4,0.3,0.6,0.5
				C37.8,43.7,37.4,43.3,37,43.1z"/>
		</g>
		<rect x="67" y="108.8" class="st11" width="7.5" height="3"/>
		<path class="st13" d="M44.6,82.3c0,0,11.2-6.5,9-14.9s-7.1-11-7.1-11s-7.9-2.6-14.7,5.9l0.4,3.9c0,0,7.3-14.9,15.3-5.5
			S44.6,82.3,44.6,82.3z"/>
		<path class="st13" d="M32.6,62.7v33.4l-2.1,11.4l-1,5.3h-7.1l-10-3.7V84.5c0,0,8.4-16.5,11-19.6C26.1,61.9,32.6,62.7,32.6,62.7z"
			/>
		<polygon class="st13" points="30.2,99.5 47.7,78.1 32.2,100.3 30.6,100.7 		"/>
		<path class="st6" d="M41.6,79.9l1.1,3.8l4.2,6.6c0,0,2,2.2,2,2.5c0,0.3,7.5,6.1,10.7,7.8c3.2,1.6,7.2,3,7.5,4.1
			c0.3,1.2,2.1,9.9,7.2,7.1c5.1-2.8-1.4-9.2-1.4-9.2l-4.2-3.7c0,0-9-7-9.8-9.4c-0.8-2.3-3.8-4.4-3.8-4.4l-2.1-3.9l-7.9-5.1
			L41.6,79.9z"/>
	</g>
	<g>
		<g>
			<path class="st14" d="M55.1,32.1c0,0-4.1-6.2-4.4-6.6c-0.3-0.4-6,0-8.8,1c-3.2,1.1-6.6,5.6-6.7,6.8c-0.1,1.2,2,6.9,2,6.9
				S50.1,31.4,55.1,32.1z"/>
		</g>
	</g>
	<path class="st15" d="M43.2,37.7c0,0,7.8,24,9.3,24c1.5,0,2-10.2,2-10.2"/>
	
		<rect x="52.2" y="61.1" transform="matrix(-1 -1.224647e-16 1.224647e-16 -1 104.9194 123.3552)" class="st16" width="0.6" height="1.2"/>
	<g>
		<g>
			<path class="st0" d="M60.7,30.8l-2.7,2c0,0-13.7,2.4-23.1,9.9l-2.6-1.2c0,0,1.4-2,4.8-4.1C41.9,34.4,52.8,29.7,60.7,30.8z"/>
		</g>
	</g>
</g>
</svg>
