<?xml version="1.0" encoding="utf-8"?>
<!-- Generator: Adobe Illustrator 24.3.0, SVG Export Plug-In . SVG Version: 6.00 Build 0)  -->
<svg version="1.1" id="圖層_1" xmlns="http://www.w3.org/2000/svg" xmlns:xlink="http://www.w3.org/1999/xlink" x="0px" y="0px"
	 viewBox="0 0 295.5 193.3" style="enable-background:new 0 0 295.5 193.3;" xml:space="preserve">
<style type="text/css">
	.st0{fill:#323333;}
	.st1{fill:#F4B3B4;}
	.st2{fill:#F4B3B3;}
	.st3{fill:#3E3C54;}
	.st4{fill:#EFA32C;}
	.st5{opacity:0.5;fill:#E9637E;enable-background:new    ;}
	.st6{fill:#1F487E;}
	.st7{fill:#2E2D40;}
	.st8{opacity:0.2;fill:#040000;enable-background:new    ;}
	.st9{fill:#E5E5E4;}
</style>
<g>
	<path class="st0" d="M61.4,77.5c-11.3-6.9-23.1-10.4-35.8-8.3c3.8-7.5,6.7-14.5,6.5-19.7c-0.2-3.4,1.1-6.7,3.5-8.7
		c1.8-1.6,4.1-2.5,6.4-2.5l0,0c2.1-1.1,4.4-1.2,6.5-0.3c1.8,0.8,3.3,2.5,4,4.6c0.4,1.2,1.4,2.3,2.7,3.2c1.3,0.8,2.3,2.1,2.9,3.6
		c0.9,2.1,1,4.1-0.2,6.2C62.2,60.9,62.2,68.9,61.4,77.5z"/>
	<path class="st1" d="M37.5,54.5c0,0-1.8,9.5-3.4,10.9c-1.6,1.4,12,3.4,12,3.4s-2-6.6,0.5-10S37.5,54.5,37.5,54.5z"/>
	<circle class="st1" cx="44.8" cy="52.7" r="8.8"/>
	<ellipse class="st1" cx="35.9" cy="51.1" rx="1.2" ry="2.4"/>
	<path class="st0" d="M53.6,49.3c-5.5-2.1-11.7-2.5-16.9,0.6l0.3-6.3l11.7-2.7L53.6,49.3z"/>
	<path class="st2" d="M92.3,124.6L92.3,124.6c-1.5,1.4-4,1.4-5.4-0.2c-0.2-0.3-0.4-0.5-0.6-0.8l-3.5-6.8l1.4-3l7.6,4.9
		c1.8,1.1,2.3,3.5,1.2,5.3C92.7,124.1,92.5,124.4,92.3,124.6z"/>
	<path class="st3" d="M107.6,164.2c-0.2-1.6-1.6-2.9-3.2-2.8c-1.5,0-2.8,1-3.1,2.4l0,0L98.1,179c-0.1,0.4-0.2,0.9-0.2,1.4
		c0,3.4,2.9,5.8,6.4,5.8c3.6,0,6.4-2.4,6.4-5.8c0-0.5-0.1-1.1-0.2-1.6L107.6,164.2z"/>
	<path class="st3" d="M131.3,171c-0.3-0.3-0.7-0.5-1-0.7l-12-8.4c-1.2-0.7-2.4-0.7-3.3,0.2c-0.8,0.8-1,2-0.3,3l9,11.9
		c0.2,0.3,0.4,0.6,0.7,0.8c1.6,1.8,5,1.8,6.9,0C133.2,175.8,133.2,172.5,131.3,171z"/>
	<path class="st3" d="M140.3,158.6h-12.1c-0.8,0-1.5,0.6-1.5,1.4c0,0.7,0.5,1.4,1.2,1.6l11.4,3.5c1.7,0.4,3.9-1.1,3.9-2.9
		C143.2,159.8,141.8,158.6,140.3,158.6z"/>
	<path class="st3" d="M82.6,160c-0.1-0.8-0.8-1.5-1.6-1.4c0,0,0,0,0,0H68.9c-1.5,0-2.8,1.6-2.8,3.5s2.2,3.4,3.8,3l11.6-3.5
		C82.2,161.4,82.7,160.8,82.6,160z"/>
	<path class="st3" d="M90.9,161.9l-12,8.3c-0.4,0.2-0.7,0.5-1,0.7c-1.8,1.7-1.9,4.6-0.2,6.4l0,0c0.1,0.1,0.2,0.2,0.2,0.2
		c1.9,1.8,5,1.8,6.9,0c0.3-0.2,0.5-0.5,0.7-0.8l9-11.8c0.6-0.9,0.5-2.2-0.3-2.9C93.3,161.2,91.9,161.1,90.9,161.9z"/>
	<path class="st3" d="M109.5,145.6c0.1-0.2,0.2-0.4,0.2-0.7c0-1.5-2.9-2.5-6.4-2.5s-6.4,1-6.4,2.5c0,0.2,0.1,0.4,0.2,0.6l3.1,6.5
		l0,0c0.4,0.6,1.7,1,3.1,1c1.7,0,3.1-0.5,3.2-1.2L109.5,145.6z"/>
	<path class="st3" d="M130.3,146.1c-1.9-0.8-5.4-0.7-6.9,0c-0.2,0.1-0.5,0.2-0.7,0.3l-9,5c-0.6,0.4-0.5,0.9,0.3,1.3
		c1.1,0.4,2.2,0.4,3.3,0.1l12-3.6c0.3-0.1,0.7-0.2,1-0.3C132.1,148.3,132.1,146.9,130.3,146.1z"/>
	<path class="st3" d="M142.1,152.7c0-0.8-2.2-1.4-3.9-1.3l-11.4,1.5c-0.7,0.1-1.2,0.3-1.2,0.7c0,0.4,0.7,0.6,1.5,0.6h12.1
		C140.8,154.2,142.1,153.7,142.1,152.7z"/>
	<path class="st3" d="M80.4,152.9l-11.6-1.5c-1.7-0.2-3.8,0.5-3.8,1.3c0,0.8,1.3,1.5,2.8,1.5h12.1c0.8,0,1.6-0.2,1.6-0.6
		C81.5,153.2,81.2,153,80.4,152.9z"/>
	<path class="st3" d="M93.2,152.7c0.8-0.3,0.9-0.8,0.3-1.2l-9-5c-0.2-0.1-0.5-0.2-0.7-0.3c-2.2-0.8-4.7-0.8-6.9,0
		c-0.1,0-0.2,0.1-0.2,0.1c-1.7,0.8-1.6,2,0.2,2.7c0.3,0.1,0.7,0.2,1,0.3l12,3.5C91,153.1,92.1,153.1,93.2,152.7z"/>
	<path class="st4" d="M128,144.6c0,18.7-10.4,19-23.3,19s-34-3.7-23.3-19c11.3-16.2,30.6-47,23.3-48.7
		C104.7,95.9,128,125.9,128,144.6z"/>
	<path class="st5" d="M112.9,156.1c0,7.4-4.1,7.5-9.2,7.5s-13.4-1.5-9.2-7.5c4.5-6.4,12.1-18.6,9.2-19.3
		C103.7,136.8,112.9,148.7,112.9,156.1z"/>
	<path class="st3" d="M83.5,101.2v3.3c0,3.2-2.2,5.8-5,6l-57,3.9c-2.9,0.2-5.4-2.3-5.6-5.6c0-0.1,0-0.2,0-0.3l1.2-12.4l33.2-1.9
		L83.5,101.2z"/>
	<path class="st6" d="M53.5,71c0,1,0,2-0.1,3.1c-0.2,7.2-1.1,13.7-3.6,18.5c-0.5,1-1.1,1.9-1.8,2.8c0,0,0,0,0,0
		c0,0.1-0.1,0.1-0.2,0.2c-0.5,0.6-1.1,1.2-1.7,1.7l-4.7,4.9l-0.2,0.2l-1.4,0.9l-7.1,4.7l-17-9.1l0-1.6l0-1.6
		c3.8-5.4,6.1-12.3,7.6-20.2c0.4-2.2,0.8-4.4,1.1-6.7c0.2-1.6,0.4-3.2,0.5-4.9c0-0.5,0.2-1,0.5-1.4c0,0,0,0,0,0c0,0,0,0,0,0
		c0.7-0.9,2.2-0.9,3.9-1c2.4-0.1,4.8-1.4,7-0.2c0.1,0,0.1,0.1,0.2,0.1l6.3,7l2.9-3.1l0.1-0.1l6,2.6C53.2,68.3,53.9,69.7,53.5,71
		L53.5,71z"/>
	<path class="st7" d="M40.1,105.6c0,1.2-0.2,2.4-0.7,3.5l-1.7,4.4l-15.5,0.9c-0.2,0-0.3,0-0.5,0c-3.2-0.1-5.8-2.7-5.9-5.9L15.8,99
		l0-1.6l5.6,2.4l5.5-2.9c0.3-0.1,0.6-0.2,0.9-0.3c0.4-0.1,0.8-0.2,1.2-0.3h0c0.2,0,0.4-0.1,0.6-0.1c2.3-0.2,4.7,0.4,6.5,1.8
		c1.1,0.8,2,1.8,2.7,3c0.1,0.1,0.1,0.2,0.1,0.3c0.4,0.7,0.7,1.4,0.8,2.2C40.1,104.1,40.1,104.8,40.1,105.6z"/>
	<polygon class="st8" points="35.7,77.5 37.8,86.9 50.3,97.6 39.3,86.4 	"/>
	<polygon class="st8" points="24.2,81.9 28,97.2 39,101.2 28.7,96 	"/>
	<path class="st3" d="M55.7,93c0,0,17.5-3.1,22.4,0.3c4.9,3.4,5.5,6.2,5.3,9.5c-0.2,3.3-20.8-3-20.8-3L55.7,93z"/>
	<path class="st6" d="M81.7,117.7l-29-15.1c-0.3-0.1-0.5-0.4-0.5-0.7l-6.3-25.4c-0.8-3,0.9-6.2,3.9-7.2l1.5-0.5
		c1.4-0.5,2.9,0.2,3.3,1.6c0,0.1,0,0.1,0.1,0.2L60.9,93c0.1,0.2,0.2,0.4,0.3,0.5l23.6,19.6c0.4,0.3,0.5,1,0.2,1.4l-2,2.9
		C82.8,117.8,82.2,118,81.7,117.7z"/>
	<polygon class="st3" points="112.9,124.7 59.5,115.5 60.1,112.3 112.9,124.7 	"/>
	<path class="st2" d="M68.4,117.5L68.4,117.5c-1.5,1.4-4,1.4-5.4-0.2c-0.2-0.3-0.4-0.5-0.6-0.8l-3.5-6.8l1.4-3l7.6,4.9
		c1.8,1.1,2.3,3.5,1.2,5.3C68.8,117.1,68.6,117.3,68.4,117.5z"/>
	<path class="st6" d="M57.8,110.7l-29-15.1c-0.3-0.1-0.5-0.4-0.5-0.7l-6.3-25.4c-0.8-3,0.9-6.2,3.9-7.2l1.5-0.5
		c1.4-0.5,2.9,0.2,3.3,1.6c0,0.1,0,0.1,0.1,0.2l6.2,22.3c0.1,0.2,0.2,0.4,0.3,0.5l23.6,19.6c0.4,0.3,0.5,1,0.2,1.4l-2,2.9
		C58.8,110.8,58.3,110.9,57.8,110.7z"/>
	<path class="st9" d="M107.1,126.4c0.5,0.1,1.1-0.2,1.2-0.8l0.5-2.7c0.1-0.5-0.2-1.1-0.8-1.2l-7.7-1.5c-0.5-0.1-1.1,0.2-1.2,0.8
		l-0.5,2.7c-0.1,0.5,0.2,1.1,0.8,1.2l0,0L107.1,126.4z"/>
	<path class="st7" d="M15.8,95.8c0,0-8.9,3.8-9,10.2s10.8,8.8,15.5,8.5c4.7-0.3,7.4-18.3,7.4-18.3L15.8,95.8z"/>
</g>
</svg>
