<?xml version="1.0" encoding="utf-8"?>
<!-- Generator: Adobe Illustrator 24.3.0, SVG Export Plug-In . SVG Version: 6.00 Build 0)  -->
<svg version="1.1" id="圖層_1" xmlns="http://www.w3.org/2000/svg" xmlns:xlink="http://www.w3.org/1999/xlink" x="0px" y="0px"
	 viewBox="0 0 295.5 193.3" style="enable-background:new 0 0 295.5 193.3;" xml:space="preserve">
<style type="text/css">
	.st0{fill:url(#SVGID_1_);}
	.st1{fill:#F4B7C0;}
	.st2{opacity:0.1;fill:#040000;enable-background:new    ;}
	.st3{fill:#3E3E3F;}
	.st4{opacity:0.1;fill:#F5CFD1;enable-background:new    ;}
	.st5{fill:#643243;}
	.st6{fill:#F5CFD1;}
	.st7{fill:#585959;}
	.st8{fill:#F1F0F1;}
	.st9{fill:#7490A4;}
	.st10{opacity:0.1;}
	.st11{fill:#040000;}
	.st12{fill:#493544;}
	.st13{opacity:5.000000e-02;fill:#040000;enable-background:new    ;}
	.st14{fill:#3B3B72;}
	.st15{opacity:0.1;fill:#534852;enable-background:new    ;}
	.st16{fill:#F1A4BC;}
	.st17{fill:#534852;}
</style>
<g>
	
		<linearGradient id="SVGID_1_" gradientUnits="userSpaceOnUse" x1="288.1853" y1="-66.7847" x2="288.1853" y2="-66.7125" gradientTransform="matrix(1 0 0 -1 -125.1 76.76)">
		<stop  offset="0" style="stop-color:#7F7F80;stop-opacity:0.25"/>
		<stop  offset="0.54" style="stop-color:#7F7F80;stop-opacity:0.12"/>
		<stop  offset="1" style="stop-color:#7F7F80;stop-opacity:0.1"/>
	</linearGradient>
	<path class="st0" d="M162.9,143.5c0.1,0.1,0.2,0.1,0.3,0C163.1,143.5,163,143.5,162.9,143.5z"/>
	<path class="st1" d="M174.2,147.9l-0.3,1.6l-0.2,1.2l-0.4,2.2l-4,2.8c0,0-0.4-0.3-1-0.8c-1.6-1.4-5.1-4.1-7.6-5.6
		c-0.7-0.4-1.4-0.7-2.1-1L174.2,147.9z"/>
	<path class="st2" d="M174.2,147.9l-0.3,1.6c-0.9,0-1.8,0-2.6-0.1l-9.4,0.1c-0.4,0-0.9-0.1-1.2-0.1c-0.7-0.4-1.4-0.7-2.1-1
		L174.2,147.9z"/>
	<path class="st3" d="M171.3,149.1c0,0,4.7,0.8,4.9-1.2c0.3-2-2.4-3.1-4.7-3.2c-2.3-0.2-15.9,0.8-15.9,0.8s-2.4,3.2,6.3,3.7
		L171.3,149.1z"/>
	<path class="st4" d="M174.2,147.9l-0.3,1.6l-0.2,1.2l-0.4,2.2l-4,2.8c0,0-0.4-0.3-1-0.8c-1.6-1.4-5.1-4.1-7.6-5.6
		c-0.7-0.4-1.4-0.7-2.1-1L174.2,147.9z"/>
	<path class="st2" d="M174.2,147.9l-0.3,1.6c-0.9,0-1.8,0-2.6-0.1l-9.4,0.1c-0.4,0-0.9-0.1-1.2-0.1c-0.7-0.4-1.4-0.7-2.1-1
		L174.2,147.9z"/>
	<rect x="157" y="83.2" class="st5" width="24.4" height="29"/>
	<path class="st6" d="M128.4,132.8c-0.4,0.1-0.9,0.5-1.5,1.1c-2.5,2.4-6,8.2-6,8.2c-4.5-5.4,0.5-9.6,2.6-11.1
		c0.5-0.4,0.9-0.5,0.9-0.5L128.4,132.8z"/>
	<path class="st6" d="M173.9,92.4c0,0,1.2,8.4,5.3,10.4s-5.3,5.7-5.3,5.7l-13-4.8c0,0,7.3-2.4,5.9-9.5L173.9,92.4z"/>
	<path class="st6" d="M160.1,143l-0.3,1.6l-0.2,1.2l-0.4,2.2l-4,2.8c0,0-0.4-0.3-1-0.8c-1.6-1.4-5.1-4.1-7.6-5.6
		c-0.7-0.4-1.4-0.7-2.1-1L160.1,143z"/>
	<path class="st2" d="M160.1,143l-0.3,1.6c-0.9,0-1.8,0-2.6-0.1l-9.4,0.1c-0.4,0-0.9-0.1-1.2-0.1c-0.7-0.4-1.4-0.7-2.1-1L160.1,143z
		"/>
	<path class="st3" d="M157.1,144.2c0,0,4.7,0.8,4.9-1.2s-2.4-3.1-4.7-3.2c-2.3-0.1-15.9,0.8-15.9,0.8s-2.4,3.2,6.3,3.7L157.1,144.2z
		"/>
	<path class="st2" d="M159.5,145.8l-0.4,2.2l-4,2.8c0,0-0.4-0.3-1-0.8L159.5,145.8L159.5,145.8z"/>
	<path class="st7" d="M186,176.4c-0.2-0.1-0.4-0.2-0.6-0.3l-0.5-0.6l-6.5-8.2v0.1c0,1.4-0.5,12.2-4.1,13.2
		c-3.9,1.1-8.6,1.3-10.7-5.9c-2.1-7.2-6-23-10-23.9l5.9-4.9c0,0,3.9,4.6,5.5,9c-0.1-0.3-2.8-13-0.5-15.2h19.5c0,0,3,8.6,5.1,12.8
		c1.6,3.3,4,11.1,5.6,16.4C196.3,174.2,190.9,178.8,186,176.4z"/>
	<path class="st2" d="M185.4,142.2c-3,1.8-16.2,1.1-20.5,0.8l-1.2-0.1c-0.1,0,0-0.1,0-0.1l0.1-1.2l3.2-8.1l17.2-9.9
		c-0.3,1-0.5,2.6-0.4,4.5C183.9,133.9,185.4,142.2,185.4,142.2z"/>
	<path class="st8" d="M185.4,141.8c-3,1.8-16.2,1.1-20.5,0.8l-1.2-0.1h-0.2l0.2-0.1l1.1-0.3l2.3-9.1l17.2-10c-0.3,1-0.5,2.6-0.4,4.5
		C183.9,133.5,185.4,141.8,185.4,141.8z"/>
	<path class="st2" d="M183.8,127.6c-3.5,0.8-11.2,3.2-14.1,8.9c-2,3.8-3.6,5.4-4.8,6.1l-1.2-0.1l0-0.1l1.1-0.3l2.3-9.1l17.2-10
		C183.9,124.2,183.8,125.7,183.8,127.6z"/>
	<path class="st2" d="M124.4,130.4l4,2.4c-0.4,0.1-0.9,0.5-1.5,1.1c-0.3-1-2.4-2.3-3.4-2.9C124,130.6,124.4,130.4,124.4,130.4z"/>
	<path class="st2" d="M163,142.6c-0.1,0.1-0.2,0-0.3,0C162.8,142.6,162.9,142.6,163,142.6z"/>
	<path class="st9" d="M172.1,102.3c0,0-3.6,0.4-6.1-2.3c0,0-10.7,3.1-14.3,10c-3.6,6.9-28.2,20.6-28.2,20.6s4.3,2.4,3.9,3.6
		l16.2-9.4c0,0,5.7-4.1,7.3-5.1c1.6-0.9,10.4-6.7,12.3,9s0,13.8,0,13.8s2.7,0.9,6.6-6.6s15.9-9.2,15.9-9.2l0.7-7.9
		c0,0,2.4-5.2,0.6-7.4c-0.6-0.6-0.9-1.4-1.1-2.3c-0.3-2,0-5.3,4.3-8.1c6.6-4.3,9.1-7.7,9.1-7.7s0.1-2.5-3.9-3.7
		c-4-1.2-20.3-7.7-20.3-7.7l-0.5,2.3l12.8,9.1c0,0-6.4,5.2-11.5,5.1C175.7,98.2,176.6,102.1,172.1,102.3z"/>
	<path class="st2" d="M174.6,96c-0.3-1.1-0.6-2.2-0.7-3.3l-7.1,1.9c0.3,1.4,0.3,2.8-0.2,4.1C169.5,99.5,172.7,98.5,174.6,96
		L174.6,96z"/>
	<circle class="st6" cx="168.7" cy="91" r="7.6"/>
	<path class="st2" d="M172.7,73.7c2.1,0.2,4.1,1.1,6.2,1.6c0.5,0.2,1.1,0.2,1.6,0.1c0.8-0.2,1.5-1.1,2.3-1.1c0.5,0,1,0.4,1.4,0.7
		c0.7,0.5,1.3,1.1,1.9,1.7c1.4,1.6,2.3,3.7,3.6,5.3s3.4,3,5.2,2.2c-1.3,4.9-5.4,8.7-9.9,9c-1.8,0.1-3.6-0.2-5.3,0.3
		c-0.4,0.2-0.9,0.3-1.4,0.3c-1,0-1.8-0.9-2.4-1.8c-1.5-2.1-2.6-4.5-4.3-6.4c-0.5-0.6-1.2-1.2-1.9-1.3s-1.5,0.2-2.2,0.6
		c-1.1,0.6-2.3,1.2-3.1,2.2s-1.4,2.5-1.1,3.8c0.2,0.7,0.6,1.4,0.7,2.1c0,1.2-1.1,2.1-1.3,3.3c0,0.5-0.1,1-0.1,1.5
		c-0.1,1.6-1.2,3-2.3,4c-0.4,0.4-0.9,0.8-1,1.4c-0.1,0.4,0,0.9-0.1,1.3c-0.2,1.1-1.2,1.6-2.1,1.7c-1.1,0.2-2.2,0-3.2-0.4
		c1.3-0.6,2.1-2.4,1.8-3.9c-0.4-2.2-2.6-3.7-2.4-5.9c0.1-0.7,0.3-1.3,0.6-2c0.5-1.2,0.8-2.4,1-3.7c0.2-1,0.2-2-0.1-3
		c-0.3-0.8-0.8-1.5-1.3-2.2c-0.7-1-1.2-2-1.5-3.2c-0.1-0.3-0.2-0.7-0.1-1c0.1-0.4,0.3-0.8,0.7-1.1c1.2-1.2,2.5-2.6,4.1-2.9
		c0.8-0.1,1.5-0.2,2.3-0.1c1.3,0,2.7,0,4-0.2c1.1-0.1,3-0.1,3.9-0.8c0.9-0.7,1.4-1.5,2.4-1.9C170.4,73.6,171.6,73.5,172.7,73.7z"/>
	<path class="st2" d="M177,152.3c0,0,4.4,8.7,3.1,11.4"/>
	<path class="st2" d="M184.9,175.5l-6.5-8.2v0.1c0,0-0.4-2.6,0.9-1.8c2.7,1.9,7,5.1,7.1,5.7S185.6,174.1,184.9,175.5z"/>
	<g class="st10">
		<path class="st11" d="M175.8,98.2c0,0,0.5,2.3-1.2,3.4c2.7-0.5,2.8-2.6,2.7-3.5C176.8,98.2,176.3,98.3,175.8,98.2z"/>
		<path class="st11" d="M125.1,130c0,0,24.6-13.6,28.2-20.6c2.6-5,8.8-8,12.1-9.3c-2.4,0.8-10.6,3.9-13.6,9.8
			c-3.6,6.9-28.2,20.6-28.2,20.6L125.1,130z"/>
		<path class="st11" d="M180.6,97.2c4.2-1.3,8.2-4.5,8.2-4.5l-12.8-9.1l0.3-1.2l-1.2-0.5l-0.5,2.3l12.8,9.1
			C185.2,94.8,183,96.1,180.6,97.2z"/>
		<path class="st11" d="M180.7,128c1.6-0.6,3.3-1,5-1.3l0-0.3C184,126.8,182.3,127.3,180.7,128z"/>
		<path class="st11" d="M165.1,142H165c-0.1,0.1-0.2,0-0.3,0c0.1,0,0.2,0,0.3,0c0.4-0.3,1.1-2.2-0.3-13.8
			c-1.5-12.3-7.3-11.4-10.4-9.9c3.2-0.9,7.7-0.1,9,10.5c1.4,11.5,0.7,13.5,0.3,13.8C164.1,142.5,164.7,142.3,165.1,142z"/>
		<path class="st11" d="M163.5,142.5c-0.1,0-0.2,0-0.3,0C163.3,142.5,163.5,142.6,163.5,142.5z"/>
	</g>
	<path class="st5" d="M172.7,73.4c2.1,0.2,4.1,1.1,6.2,1.6c0.5,0.2,1.1,0.2,1.6,0.1c0.8-0.2,1.5-1.1,2.3-1.1c0.5,0,1,0.4,1.4,0.7
		c0.7,0.5,1.3,1.1,1.9,1.7c1.4,1.6,2.3,3.7,3.6,5.3s3.4,3,5.2,2.2c-1.3,4.9-5.4,8.7-9.9,9c-1.8,0.1-3.6-0.2-5.3,0.3
		c-0.4,0.2-0.9,0.3-1.4,0.3c-1,0-1.8-0.9-2.4-1.8c-1.5-2.1-2.6-4.5-4.3-6.4c-0.5-0.6-1.2-1.2-1.9-1.3s-1.5,0.2-2.2,0.6
		c-1.1,0.6-2.3,1.2-3.1,2.2c-0.9,1-1.4,2.5-1.1,3.8c0.2,0.7,0.6,1.4,0.7,2.1c0,1.2-1.1,2.1-1.3,3.3c0,0.5-0.1,1-0.1,1.5
		c-0.1,1.6-1.2,3-2.3,4c-0.4,0.4-0.9,0.8-1,1.4c-0.1,0.4,0,0.9-0.1,1.3c-0.2,1.1-1.2,1.6-2.1,1.7c-1.1,0.2-2.2,0-3.2-0.4
		c1.3-0.6,2.1-2.4,1.8-3.9c-0.4-2.2-2.6-3.7-2.4-5.9c0.1-0.7,0.3-1.3,0.6-2c0.5-1.2,0.8-2.4,1-3.7c0.2-1,0.2-2-0.1-3
		c-0.3-0.8-0.8-1.5-1.3-2.2c-0.7-1-1.2-2-1.5-3.2c-0.1-0.3-0.2-0.7-0.1-1c0.1-0.4,0.3-0.8,0.7-1.1c1.2-1.2,2.5-2.6,4.1-2.9
		c0.8-0.1,1.5-0.2,2.3-0.1c1.3,0,2.7,0,4-0.2c1.1-0.1,3-0.1,3.9-0.8c0.9-0.7,1.4-1.5,2.4-1.9C170.4,73.4,171.6,73.2,172.7,73.4z"/>
	<path class="st12" d="M237.3,164.1c0,0-1.9-3-4.7-0.3c-2.8,2.7-4.8,11.6-4.8,11.6s-1.1,7.2,2.5,5.3c0,0,4.3-6,5.5-6.3
		c1.2-0.3,2.5-3.6,2.5-3.6L237.3,164.1z"/>
	<path class="st12" d="M257.4,171.4c0,0-2.5-1.2-3.3-0.3c-0.8,0.9-3.5,10.3-3.5,10.3s-0.8,6.1,1.9,5.9c2.7-0.3,7.3-9.9,7.3-9.9
		L257.4,171.4z"/>
	<path class="st13" d="M257.4,171.4c0,0-2.5-1.2-3.3-0.3c-0.8,0.9-3.5,10.3-3.5,10.3s-0.8,6.1,1.9,5.9c2.7-0.3,7.3-9.9,7.3-9.9
		L257.4,171.4z"/>
	<path class="st14" d="M266.2,153.2l5.7,9c0,0-0.4,2-3.9,1.6l-11.9,7.5c0,0-1,9.1,2.3,8.3c0.5-0.1,4.3-4,6.9-3.7l15.8-6.1
		c0,0,3.7-2.1,1.7-9.2c-2-7.1-8.6-23.5-8.6-23.5l-10.5,5.9L266.2,153.2z"/>
	<path class="st13" d="M266.2,153.2l5.7,9c0,0-0.4,2-3.9,1.6l-11.9,7.5c0,0-1,9.1,2.3,8.3c0.5-0.1,4.3-4,6.9-3.7l15.8-6.1
		c0,0,3.7-2.1,1.7-9.2c-2-7.1-8.6-23.5-8.6-23.5l-10.5,5.9L266.2,153.2z"/>
	<path class="st14" d="M269.8,166.4c0.8,5.1-3.7,5.5-3.7,5.5s-20.4,0.4-22.8-0.1c-2.4-0.5-5.6,0.9-5.6,0.9c-4.1-2.5-0.8-8.8-0.8-8.8
		s8.6-0.3,10.6-0.7c2-0.4,12.2-0.9,12.2-0.9s-0.8-4.9-6.1-17.5c-3.6-8.5-1-13.5,1.1-15.9c0.5-0.6,1.2-1.2,1.8-1.6l16.4,0.8
		c0,0.8,0,1.7,0.1,2.5c0.3,2.8,1,5.6,2.2,8.2c-0.9,0-6.9,5.6-6.9,5.6S269,161.3,269.8,166.4z"/>
	<path class="st2" d="M238,164.4c0,0,8.6-0.3,10.6-0.7c2-0.4,12.2-0.9,12.2-0.9s-0.8-4.9-6.1-17.5c-3.6-8.5-1-13.5,1.1-15.9
		c0.5-0.6,1.2-1.2,1.8-1.6l15.2,0.7c0-0.2,0-0.3,0-0.5l-16.4-0.8c-0.7,0.4-1.3,1-1.8,1.6c-2.1,2.3-4.7,7.4-1.1,15.9
		c5.4,12.5,6.2,17.5,6.2,17.5s-10.2,0.5-12.2,0.9c-2,0.4-10.6,0.7-10.6,0.7s-3.3,6.3,0.8,8.8c0,0,0.1-0.1,0.3-0.1
		C235.2,169.7,238,164.4,238,164.4z"/>
	<rect x="254.2" y="78.3" class="st12" width="8.3" height="21"/>
	<rect x="254.2" y="78.3" class="st2" width="8.3" height="21"/>
	<path class="st12" d="M267.2,75.2c0.3,0.1,0.6,0.1,0.8,0.5c0.1,0.3,0.2,0.6,0.2,1l0.5,6.5c0,0.4,0.1,0.8,0.2,1.2
		c0.2,0.4,0.6,0.5,0.9,0.8c0.6,0.6,0.7,2,0.6,3.2s-0.6,2.2-0.9,3.2c-0.4,1.5-0.7,3.2-1.4,4.5c-0.6,1.3-1.8,2-2.5,0.9s-0.6-3.2-0.8-5
		c-0.2-3-1.4-5.5-1.5-8.5c-0.1-2.4,0.6-4.6,1-6.9c0.3-1.6,0.3-3.5,0.7-4.9C265.5,73.3,266.1,74.9,267.2,75.2z"/>
	<path class="st15" d="M267.2,75.2c0.3,0.1,0.6,0.1,0.8,0.5c0.1,0.3,0.2,0.6,0.2,1l0.5,6.5c0,0.4,0.1,0.8,0.2,1.2
		c0.2,0.4,0.6,0.5,0.9,0.8c0.6,0.6,0.7,2,0.6,3.2s-0.6,2.2-0.9,3.2c-0.4,1.5-0.7,3.2-1.4,4.5c-0.6,1.3-1.8,2-2.5,0.9s-0.6-3.2-0.8-5
		c-0.2-3-1.4-5.5-1.5-8.5c-0.1-2.4,0.6-4.6,1-6.9c0.3-1.6,0.3-3.5,0.7-4.9C265.5,73.3,266.1,74.9,267.2,75.2z"/>
	<path class="st6" d="M232.1,66l-3.2,2.7c0,0-0.4-0.4-0.9-1.2c-2.2-2.8-7.3-10-3.7-11.3s6.5,5.7,7.5,8.6C232,65.5,232.1,66,232.1,66
		z"/>
	<path class="st6" d="M290,65c-1.3,2-3.2,0-3.2,0s-0.2-0.4-0.6-0.9c-1.1-1.9-3.3-6-1.8-7.6c1.6-1.9,5.7,4.5,5.8,7.5
		C290.2,64.3,290.1,64.7,290,65z"/>
	<path class="st6" d="M257.1,86.7c0,0,2.7,8.6,1.9,11.1s5.7,5.5,5.7,5.5h7.5c0,0,2.7-5.5,2-7.1c-0.7-1.6-6.4-2.8-6.4-2.8
		s-3.3,0-3.2-9L257.1,86.7z"/>
	<path class="st2" d="M232.1,66l-3.2,2.7c0,0-0.4-0.4-0.9-1.2c1.2-0.2,3-1.9,3.8-2.7C232,65.5,232.1,66,232.1,66z"/>
	<path class="st2" d="M290,65c-1.3,2-3.2,0-3.2,0s-0.2-0.4-0.6-0.9l0-0.1c0.9,0.6,3.6,0.1,4,0C290.2,64.3,290.1,64.7,290,65z"/>
	<path class="st2" d="M272.8,130.6c-4.1,1.9-17.6-1.5-18.4-1.7c0.5-0.6,1.2-1.2,1.8-1.6l16.4,0.8
		C272.7,128.9,272.7,129.7,272.8,130.6z"/>
	<path class="st16" d="M258.8,94c0,0-3.2,1.1-7.7-3.1c0,0-10.2-10-10.8-12.4l-7.9-13.8c0,0-3.3,3.6-4.7,3.1l8.8,15.4
		c0,0,1.6,3,3.1,3.7c0,0,11,14,11.1,16.8c0.1,2.8,4.9,10.3,4.9,10.3s1.6,12.2-1.2,14.3c0,0,15.6,4,19,1.3c0,0-1.5-15.1,0-16.7
		c0,0,4.5-5.3,1.5-11.2c0,0-0.7-3.2,1.1-4.8s9.5-13.5,9.5-13.5s1.9-2.7,1.9-4.4c0,0,3.5-11.8,3-14.8c0,0-3.1,0.7-4,0
		c0,0-4.5,13.8-5.1,14.3c-0.5,0.5-4.3,11.4-9.2,12.6c-5,1.2-5.7,1.7-5.7,1.7s9.6,6,4.9,8.7C266.5,104.2,258.8,94,258.8,94z"/>
	<path class="st2" d="M264.9,88.7c-0.2-1.3-0.2-2.5-0.2-3.8l-7.5,2.3c0.2,0.5,0.4,1,0.5,1.5c0.9,0.4,2,1.3,3,1.3
		C262.2,90.1,263.7,89.6,264.9,88.7z"/>
	<circle class="st6" cx="260.6" cy="82.7" r="6.9"/>
	<path class="st2" d="M252.3,72c-1.5,0.1-3.2,1.2-3.1,2.7c0,0.8,0.6,1.6,0.9,2.4c0.6,2-0.7,3.9-1.9,5.6c-1.2,1.7-2.3,3.9-1.3,5.6
		c0.3,0.4,0.6,0.8,0.9,1.2c1.3,1.7,1.2,4,1.8,6c1.5,5.4,6.9,8.7,12.4,7.5c-1-1.3-1.5-2.9-1.4-4.5c0.1-1.2,0.5-2.4,0-3.5
		c-0.6-1.4-2.3-1.9-3.2-3.1s-0.8-2.9-0.4-4.3c0.4-1.4,1.2-2.8,1.5-4.3c0.1-0.4,0.2-0.9,0.3-1.3c0.6-1.8,2.5-2.8,4.3-3.2
		c1.8-0.4,3.7-0.5,5.5-1c1.8-0.6,3.5-1.9,3.7-3.8c-1.5,0.6-2.9-1-4.3-1.7c-2.4-1.2-5-0.1-7.5,0.2C257.7,72.9,255.1,71.8,252.3,72z"
		/>
	<path class="st17" d="M252.2,71.7c-1.5,0.1-3.2,1.2-3.1,2.7c0,0.8,0.6,1.6,0.9,2.4c0.6,2-0.7,3.9-1.9,5.6s-2.3,3.9-1.3,5.6
		c0.3,0.4,0.6,0.8,0.9,1.2c1.3,1.7,1.2,4,1.8,6c1.5,5.4,6.9,8.7,12.4,7.5c-1-1.3-1.5-2.9-1.4-4.5c0.1-1.2,0.5-2.4,0-3.5
		c-0.6-1.4-2.3-1.9-3.2-3.1s-0.8-2.9-0.4-4.3s1.2-2.8,1.5-4.3c0.1-0.4,0.2-0.9,0.3-1.3c0.6-1.8,2.5-2.8,4.3-3.2
		c1.8-0.4,3.7-0.5,5.5-1c1.8-0.6,3.5-1.9,3.7-3.8c-1.5,0.6-2.9-1-4.3-1.7c-2.4-1.2-5-0.1-7.5,0.2C257.6,72.6,255,71.5,252.2,71.7z"
		/>
	<path class="st2" d="M267.4,98.1c0,0,2.8,2.5,3.3,3.6"/>
	<path class="st2" d="M273.5,112.9c0,0-3.5,0-5.1,0.4c-1.6,0.4-5.5,0-5.5,0"/>
	<g class="st10">
		<path class="st11" d="M271.1,101.5c-0.3,0.2-0.6,0.3-1,0.4c0.9,0.2,1.8,0.1,2.6-0.4c4.7-2.7-4.9-8.7-4.9-8.7h-1.6
			C266.2,92.8,275.8,98.8,271.1,101.5z"/>
		<path class="st11" d="M290.3,64.5c0-0.1,0-0.2,0-0.2c-0.5,0.1-1.1,0.2-1.7,0.3C289.1,64.5,289.7,64.5,290.3,64.5z"/>
		<path class="st11" d="M256,128.4c2.8-2.1,1.2-14.3,1.2-14.3s-4.8-7.5-4.9-10.3c-0.1-2.8-11.1-16.8-11.1-16.8
			c-1.5-0.8-3.1-3.7-3.1-3.7s-9.1-14.8-10.4-15.4l8.8,15.4c0,0,1.6,3,3.1,3.7c0,0,11,14,11.1,16.8c0.1,2.8,4.9,10.3,4.9,10.3
			s1.6,12.2-1.2,14.3c0,0,9.6,2.5,15.4,2.2C264,130.4,256,128.4,256,128.4z"/>
		<path class="st11" d="M258.9,94.1l-0.1-0.1c-0.1,0-0.2,0-0.3,0.1C258.7,94.1,258.8,94.1,258.9,94.1z"/>
	</g>
	<g class="st10">
		<path class="st11" d="M290.2,64.2L290.2,64.2c-0.2,4.1-3.1,13.8-3.1,13.8c0,1.7-1.9,4.4-1.9,4.4s-7.7,11.9-9.5,13.5
			s-1.1,4.8-1.1,4.8l0,0c-0.1-1.1,0.1-2.8,1.2-3.8c1.7-1.6,9.5-13.5,9.5-13.5s1.9-2.7,1.9-4.4C287.3,79.1,290.8,67.3,290.2,64.2z"/>
		<path class="st11" d="M273.3,111.9c0.2,1.1,0.1-0.1,0.1,1.1c0,0,3.3-3.8,2.4-8.6C276,108.6,273.3,111.9,273.3,111.9z"/>
	</g>
</g>
</svg>
