<?xml version="1.0" encoding="utf-8"?>
<!-- Generator: Adobe Illustrator 24.3.0, SVG Export Plug-In . SVG Version: 6.00 Build 0)  -->
<svg version="1.1" id="圖層_1" xmlns="http://www.w3.org/2000/svg" xmlns:xlink="http://www.w3.org/1999/xlink" x="0px" y="0px"
	 viewBox="0 0 295.5 193.3" style="enable-background:new 0 0 295.5 193.3;" xml:space="preserve">
<style type="text/css">
	.st0{fill:#F8D1D3;}
	.st1{fill:#F6F6F6;}
	.st2{opacity:0.1;fill:#040000;enable-background:new    ;}
	.st3{fill:url(#SVGID_1_);}
	.st4{fill:#342232;}
	.st5{opacity:0.1;}
	.st6{fill:#040000;}
	.st7{fill:#4B3647;}
	.st8{fill:#E5E9ED;}
	.st9{fill:#FFFFFF;}
	.st10{fill:#6C6B80;}
	.st11{fill:#6E8DA6;}
	.st12{fill:#4E6C80;}
	.st13{opacity:5.000000e-02;fill:#040000;enable-background:new    ;}
	.st14{fill:none;}
</style>
<g>
	<path class="st0" d="M74.1,171.2c0,0,0.3,0.9,0.6,2c0.5,1.5,1,3,1.8,4.5c1.7,0.3,3.3,0.5,5,0.5c3.8,0.2,7.6-1,10.6-3.3
		c0,0-1.3-0.9-2.7-2c-1.2-0.8-2.2-1.8-3.1-2.9c-0.4-0.8-2.7-2.2-4.1-3c-0.6-0.4-1.1-0.6-1.1-0.6L74.1,171.2z"/>
	<path class="st1" d="M77.1,178.7c0,0,24.8-1.1,26.3-1.5c0.9-0.3,1.6-1.1,1.8-2.1c0.5-1.2-2.1-0.9-2.1-0.9l0,0
		c-0.3,0-3.2,0.5-5.9,0.9l0,0c-1.6,0.3-3.2,0.4-4.8,0.3l0,0c-1.1-0.3-2.2-0.4-3.3-0.3c1-3,3.6-5.1,6.7-5.4c0,0-0.1-0.1-0.1-0.1
		c-0.4-0.4-0.9-0.8-1.4-1.1c-5.1,0.2-7.7,7.2-7.7,7.2s0,0,0,0c-0.6,0.2-6.7,2.1-7.9,2.2l0,0C77.3,178.2,77.1,178.7,77.1,178.7z"/>
	<path class="st0" d="M90.1,180.9c0.1,0.3,0.5,0.5,1.2,0.6c0.4,0,0.8,0,1.2,0h0c2.4-0.2,4.7-0.7,6.9-1.6c0.4-0.1,0.7-0.3,1.1-0.4
		c0,0,0,0,0,0c0.8-0.2,1.7-0.4,2.6-0.5c1.1-0.2,2.3-0.1,3.3,0.4l0,0c0,0,2.2,0,4.8-0.1h0c2-0.1,4-0.3,6-0.6l0,0
		c0.3-0.1,0.5-0.1,0.8-0.2c0.5-0.1,0.9-0.3,1.3-0.5c2.7-1.6-6.5-2.8-6.5-2.8c-1.1-0.1-2-0.6-2.8-1.4c0,0-0.1-0.1-0.1-0.1
		c-0.1-0.1-0.2-0.2-0.2-0.2c0,0,0,0,0,0c-0.4-0.3-0.7-0.6-1.1-0.9c-0.1-0.1-0.2-0.2-0.3-0.2c-1.8-1.2-4.3-2.6-4.3-2.6
		c-1.7-0.5-3.3-1.4-4.6-2.6c-0.2-0.2-0.4-0.5-0.6-0.8l0,0l0,0l-5.1-1.3l-3.5,8.4c0,0,0,0.5,0,1.1C89.9,176.9,89.9,178.9,90.1,180.9z
		"/>
	<path class="st2" d="M91.3,181.5c0.4,0,0.8,0,1.2,0h0c2.4-0.2,4.7-0.7,6.9-1.6c0.4-0.1,0.7-0.3,1.1-0.4c0,0,0,0,0,0
		c0.8-0.2,1.7-0.4,2.6-0.5c1.1-0.2,2.3-0.1,3.3,0.4l0,0c0,0,2.2,0,4.8-0.1h0c2-0.1,4-0.3,6-0.6l0,0c0.3-0.1,0.5-0.1,0.8-0.2
		c-0.3,0-0.7-0.1-1,0l0,0c-0.3,0-3.2,0.4-6,0.6h0c-1.6,0.2-3.2,0.2-4.8,0.1l0,0c-1.1-0.3-2.2-0.5-3.3-0.4c1.1-2.9,3.8-4.9,6.9-5.1
		c0,0-0.1-0.1-0.1-0.1c0,0,0,0,0,0c-0.4-0.4-0.9-0.8-1.4-1.1c0,0-0.1,0-0.1,0c-5,0.1-7.9,6.8-7.9,6.8s0,0,0,0
		c-0.6,0.2-6.8,1.8-8,1.9h0C91.9,181.3,91.6,181.4,91.3,181.5z"/>
	<path class="st1" d="M91,182.1c0,0,24.9-0.1,26.4-0.3s1.9-2,1.9-2c0.5-1.1-2.1-1-2.1-1l0,0c-0.3,0-3.2,0.4-6,0.6h0
		c-1.6,0.2-3.2,0.2-4.8,0.1l0,0c-1.1-0.3-2.2-0.5-3.3-0.4c1.1-2.9,3.8-4.9,6.9-5.1c0,0-0.1-0.1-0.1-0.1c-0.4-0.4-0.9-0.8-1.4-1.1
		c-5.1,0-8,6.8-8,6.8s0,0,0,0c-0.6,0.2-6.8,1.8-8,1.9h0C91.2,181.6,91,182.1,91,182.1z"/>
	<path class="st2" d="M74.1,171.2c0,0,0.3,0.9,0.6,2c2.5-1.6,4.8-3.4,6.9-5.5c0.2-0.2,0.4-0.5,0.6-0.8c-0.6-0.4-1.1-0.6-1.1-0.6
		L74.1,171.2z"/>
	<path class="st2" d="M90,174.8c0.3,0.2,0.4,0.4,0.4,0.4s0.1,2.5,2-3.4c2-5.9,6.8-4.5,6.8-4.5c0,0,0.1-0.1,0-0.1
		c0-0.2-0.3-0.4-0.6-0.8l0,0l-5.1-1.3l-3.5,8.4C90.1,173.7,90,174.2,90,174.8z"/>
	<path class="st2" d="M86.9,160.4c0,0-5.3,2.6-5.1,3.1C82,164.1,86.9,160.4,86.9,160.4z"/>
	<path class="st2" d="M90.1,166.3c-0.4,0.9-1.3,1.6-2.3,1.6C85.8,168.1,90.1,166.3,90.1,166.3z"/>
	<path class="st2" d="M70.2,160.4c0,0-2.6,1.1-2.8,2.5S70.2,160.4,70.2,160.4z"/>
	<path class="st2" d="M76.5,165.9c-1.5,1.1-2.8,2.4-3.8,4C72.8,170.2,76.5,165.9,76.5,165.9z"/>
	<path class="st2" d="M71.9,163.6c-0.6-0.2-1.3-0.1-1.8,0.4C69.5,164.7,71.9,163.6,71.9,163.6z"/>
	<g>
		
			<linearGradient id="SVGID_1_" gradientUnits="userSpaceOnUse" x1="-5352.3589" y1="-38.3205" x2="-5352.3589" y2="73.8376" gradientTransform="matrix(-1 0 0 -1 -5288.3633 143.8005)">
			<stop  offset="0" style="stop-color:#7F7F80;stop-opacity:0.25"/>
			<stop  offset="0.5351" style="stop-color:#7F7F80;stop-opacity:0.12"/>
			<stop  offset="1" style="stop-color:#7F7F80;stop-opacity:0.1"/>
		</linearGradient>
		<path class="st3" d="M6,112.1c0.1-0.9,0.2-1.7,0.3-2.3c0.6-2.8,2.9-4.9,5.7-5.3c1.5-0.1,3-0.4,4.4-0.9l0.5-0.3
			c-0.1-0.1-0.1-0.1-0.1-0.1c0.7-0.1,1.3-0.3,1.9-0.8c-0.6,0.1-1.2,0.1-1.7,0c0,0,0,0,0,0c-0.1,0-0.2,0-0.2,0
			c0.5-0.2,0.9-0.5,1.3-0.9c0.1,0,0.1,0,0.2,0c0.5-0.7,1-1.4,1.3-2.3c1.6-4.6,2.9-9.3,3.8-14.1c0.5-2.6,1.3-5.5,3.8-6.8
			c1.3-0.5,2.5-0.9,3.8-1.1c1.4-0.4,2.6-1.3,3.5-2.4c0.6-0.9,1.2-1.7,1.9-2.5c0.9-0.8,2-1.4,3.2-1.8c1.7-0.6,3.5-0.8,5.2-0.6
			c0,0,0,0-0.1,0c0.3,0.1,0.5,0.1,0.8,0.2c0,0,0.1,0,0.1,0c0,0,0.1,0,0.1,0c0.4,0.1,0.7,0.3,1.1,0.5c2.3,1.4,3.2,4.2,4.7,6.5
			c0.9,1.3,2.1,2.5,2.9,3.9c0.6,0.9,0.8,2,0.7,3.1c0,0,0,0,0,0.1l0,0c0.1,0.2,0.1,0.4,0.1,0.6c0,0.7-0.5,1.4-0.5,2.2
			c-0.2,1.3,0,2.6,0.6,3.8c0.6,1.2,1.1,2.4,1.5,3.6c0,0.2,0.1,0.3,0.1,0.5l0,0c0,0.2,0,0.5,0,0.7c0,0,0,0.1,0,0.1l0,0
			c0,0.9-0.3,1.7-0.9,2.4c-0.4,0.4-0.8,0.7-0.9,1.2c0,0.4,0.1,0.8,0.3,1.2l0.9,1.8c0.3,0.5,0.5,1,0.7,1.6c0,0.1,0,0.2,0.1,0.3l0,0
			c0,0.2,0,0.3,0,0.5c0,0,0,0.1,0,0.1c0,0.1,0,0.1,0,0.2c-0.1,1.7-1,3.3-2.4,4.3c-0.5,0.3-0.9,0.6-1.4,0.8c0,0.1,0,0.2,0,0.3
			c0.2,2.2-1.4,4.2-1.8,6.3c-0.2,1.5,0,3,0.7,4.3c0.3,0.8,0.7,1.5,1.2,2.2c0.3,0.4,0.6,0.9,0.9,1.3l0,0c0.1,0.1,0.1,0.2,0.2,0.3
			c-2.2,0.7-4.5,0.1-6.1-1.5c0.4,2,0.1,4.1-0.8,6l13.6-7.1l1.4-1c3.3,0,11.1,6.9,11.1,6.9l0.7,0c3.2-4.1,10.8-2.1,10.8-2.1l2,3.2
			l0,0l0.1,0l-3.4,3l5.5,1.5l-14.1,7.4c0.3,0.3,0.5,0.5,0.5,0.5l2.1,2.9c0,0,3.5,3.6,4.5,4.5c1.1,0.9,7.9,7.1,9.8,10.3
			c0,0,1.8,0.9,1.8,1.7c0,0.9,3.4,3.4,3.4,3.4c1,0.7,2,1.4,3,2.3c0.4,0.3,0.6,0.6,0.7,0.7c1.3,1.3,3,2.2,4.7,2.6
			c0,0,2.6,1.3,4.5,2.6c0,0,0.1,0,0.1,0c0.5,0.3,1,0.7,1.4,1.1c0.1,0,0.1,0.1,0.1,0.1c0,0,0.1,0.1,0.1,0.1c0,0,0.1,0.1,0.1,0.1
			c0.8,0.8,1.8,1.2,2.9,1.4c0,0,9.6,1.1,6.7,2.8c-0.4,0.2-0.9,0.4-1.4,0.5c-0.3,0.1-0.5,0.1-0.8,0.2c0,0,2.7-0.1,2.1,1
			c-0.2,1-1,1.7-1.9,2c-1.5,0.3-27.3,0.3-27.3,0.3s0.2-0.5,1.5-0.6c-0.4,0-0.8,0-1.2,0c-0.7-0.1-1.2-0.3-1.3-0.6
			c-0.1-0.9-0.2-1.9-0.1-2.8c-6.7,0.3-13.3,0.6-13.3,0.6s0.2-0.5,1.5-0.7l0,0c0.1,0,0.2,0,0.3,0c-0.8,0-1.6-0.1-2.4-0.3
			c-0.7-1.4-1.3-2.9-1.8-4.5c-0.1-0.2-0.1-0.3-0.2-0.4c-0.2,0.1-0.3,0.2-0.3,0.2c-0.4-0.6-0.8-1.1-1.2-1.6c-0.6-0.2-1.1-0.5-1.4-1.1
			c-0.8-0.9-1.7-1.7-2.7-2.4l-8.7-4.6l0,0l0,0c-0.1,0.1-0.2,0.2-0.3,0.3l0,0l-0.2,0.4c0,0-0.1,0-0.1,0c-2.7,3-5.5,5.6-5.5,5.6
			c-2,1.5-4.1,2.9-6.4,4.1c-2,0.9-7.1-0.8-7.1-0.8l-5.1-0.4l-0.4,0l0,0c-2.3,2-5.3,3.1-8.3,3.1c-4.3,0-9.3-0.3-11.6-1.5
			c-4.6-2.5-2.1-11.2-2.1-11.2v-1.8c0-0.2,0-0.5,0.1-0.7c-0.6,0.3-1,0.5-1,0.5s0.2-3.6,0.8-4.3c0.6-0.7,0-2.7,0-2.7s-0.2-2,0.6-2.8
			c0.4-0.8,0.8-1.6,0.9-2.5c-1.6,0-3.2-0.2-4.7-0.6c-2.3-0.8-2.7-9.7-2.7-9.7s-1.6-10.9-1.3-11.6c0-1.7-0.1-3.4-0.4-5.2
			C5.7,118.5,5.7,115.3,6,112.1z M46.4,119.1c0-0.2-0.1-0.3-0.3-0.4c-0.1-0.1-0.3-0.1-0.5,0c0,0,0,0,0,0c0,0.2,0,0.3,0,0.3l0,0
			c0.3,0.3,0.7,0.6,1,1C46.5,119.7,46.5,119.4,46.4,119.1z M22,112c0,0,0-0.1,0-0.1c-0.3-0.9-0.7-1.7-1.2-2.5
			C21.3,110.2,21.7,111.1,22,112L22,112z M18.4,105.1c0.6,0.9,1.3,2,2,3.2C19.8,107.2,19.2,106.1,18.4,105.1L18.4,105.1z M74,130.2
			L74,130.2C74,130.1,73.9,130.1,74,130.2L74,130.2z M113.3,179.4c-2.7,0.1-5,0.1-5,0.1C110,179.7,111.6,179.7,113.3,179.4
			L113.3,179.4z M108.3,179.5c-1.1-0.5-2.3-0.6-3.4-0.4C106,179,107.2,179.2,108.3,179.5L108.3,179.5z M17.6,138.6l-1-17
			c0,0,0.4,8.7,0.2,12.4C16.8,135.6,17,137.2,17.6,138.6z"/>
		<path class="st4" d="M54.7,87c-0.2,1.3,0,2.6,0.5,3.8c0.6,1.2,1.1,2.4,1.4,3.6c0.4,1.3,0.1,2.6-0.7,3.7c-0.3,0.4-0.8,0.7-0.9,1.2
			c0,0.4,0.1,0.8,0.3,1.2l0.9,1.8c0.3,0.5,0.5,1,0.6,1.6c0.4,2.1-0.5,4.1-2.2,5.3c-1.7,1.1-3.7,1.8-5.7,1.9c-0.3,0.1-0.7,0-1-0.2
			c-0.2-0.2-0.3-0.4-0.3-0.7c-0.2-1.2-0.2-2.4,0.1-3.5c0.4-1.6,1.2-3.2,1-4.8c-0.2-0.8-0.4-1.7-0.8-2.4c-0.9-2.2-1.5-4.5-1.8-6.9
			c-0.2-2.1-0.2-4.4,1.2-6c1.3-1.5,3.8-2.3,5.7-2.9c0.7-0.2,1.4-0.4,1.9,0.3C55.7,85.1,54.7,86,54.7,87z"/>
		<g class="st5">
			<path class="st6" d="M54.6,87.3c-0.1-1,0.1-2.1,0.4-3c0.4,0.9-0.3,1.7-0.3,2.7C54.7,87.1,54.6,87.2,54.6,87.3z"/>
			<path class="st6" d="M55.2,98.9c-0.2-0.3-0.2-0.6-0.2-0.9c0.1-0.5,0.6-0.8,0.9-1.2c0.4-0.5,0.7-1.1,0.8-1.8
				c0.2,1.1-0.1,2.3-0.8,3.2C55.7,98.3,55.5,98.6,55.2,98.9z"/>
			<path class="st6" d="M47.6,108.8c0,0.3,0.1,0.5,0.3,0.7c0.3,0.2,0.7,0.3,1,0.2c2-0.1,4-0.8,5.7-1.9c1.2-0.9,2-2.2,2.3-3.7
				c0.2,2-0.7,3.9-2.3,5c-1.7,1.1-3.7,1.8-5.7,1.9c-0.3,0.1-0.7,0-1-0.2c-0.2-0.2-0.3-0.4-0.3-0.7c-0.1-0.8-0.2-1.5-0.1-2.3
				C47.5,108.2,47.5,108.5,47.6,108.8z"/>
			<path class="st6" d="M46,91.1c0.3,2.4,0.9,4.7,1.8,6.9c0.4,0.8,0.6,1.6,0.8,2.4c0,0.4,0,0.8,0,1.2c-0.2-0.8-0.4-1.6-0.8-2.3
				c-0.9-2.2-1.5-4.5-1.8-6.9c-0.1-0.8-0.1-1.6-0.1-2.4C45.9,90.4,46,90.8,46,91.1z"/>
		</g>
		<rect x="34.7" y="99.2" class="st7" width="8.1" height="8.6"/>
		<rect x="34.7" y="99.2" class="st2" width="8.1" height="8.6"/>
		<path class="st8" d="M86.1,129.2l-5.4,5l-7.7-1.7c0,0-0.3-7,6.9-5L86.1,129.2z"/>
		<path class="st2" d="M86.1,129.2l-5.4,5l-7.7-1.7c0,0-0.3-7,6.9-5L86.1,129.2z"/>
		<path class="st9" d="M84.9,129.5l1.1-0.3l-1.9-3.2c0,0-7.3-2-10.4,2.1l-0.7,0c0,0-7.6-7-10.7-6.9l-1.3,1l11.8,8.1l0.6-0.2
			c0,0,1.7,0.2,1.9,0.6L84.9,129.5z"/>
		<polygon class="st10" points="88.1,133.7 65,146.3 49.6,143.7 44.8,130.8 60.9,122.2 73.2,130.1 74.5,131.3 76.9,130.6 		"/>
		<path class="st11" d="M59.8,160.4l0.9,2.8l8.4,4.6c1,0.7,1.9,1.5,2.6,2.4c0.3,0.5,0.8,0.9,1.3,1.1c0.4,0.5,0.8,1.1,1.2,1.6
			c2.5-1.6,4.8-3.4,6.9-5.5c0.6-0.7,0.9-1.2,0.6-1.5c-1.1-1.3-7.7-6.1-7.7-6.1s-4-5.3-4.2-5.2c-1.2-0.9-2.3-1.9-3.4-3
			c-0.5-0.4-0.8-0.8-0.8-0.8L59.8,160.4z"/>
		<path class="st0" d="M19.5,103l8.2,14.5l3,5.7l16.1-2.3l-0.4-0.8l-1.4-2.9l-0.6-1.3l-0.1-0.2l-1.8-3.2l-0.1-0.1l-1.3-1.8l-2.6-3.7
			c-0.3,0-0.6-0.1-0.8-0.2c-0.5-0.2-0.8-0.6-1-1.1c-0.9-2.3,0.8-6.6,0.8-6.6s-6.1-14.9-8.2-6.7c-1.2,4.5-4.3,8.2-8.5,10.1
			C20.4,102.7,20,102.8,19.5,103z"/>
		<path class="st12" d="M47.2,153v1.4c0,0-5.3,5.1-4.6,9.2c0.3,3.1,0.1,6.3-0.8,9.3l-5.3-0.4l0.8-18.9L47.2,153z"/>
		<path class="st13" d="M66,152.4c1.7,1.6,3.3,3.3,4.7,5.1c1.9,2.5,5.1,6.1,5.1,6.1l3.8,2.3l1.6,1.5c0.6-0.7,0.9-1.2,0.6-1.5
			c-1.1-1.3-7.7-6.1-7.7-6.1s-4-5.3-4.2-5.2c-1.2-0.9-2.3-1.9-3.4-3L66,152.4z"/>
		<path class="st11" d="M72,141.5l3,0.1l2,2.9c0,0,3.4,3.6,4.4,4.5c1,0.9,7.6,7.1,9.5,10.3c0,0,1.7,0.9,1.7,1.7
			c0,0.9,3.3,3.4,3.3,3.4s3.4,2.3,3,2.7c0,0-4.8-1.4-6.8,4.5c-2,5.9-2,3.4-2,3.4c-0.3-0.4-0.7-0.7-1.2-0.9c-0.5-0.2-2.7-3.4-3.4-3.5
			c-0.5-0.1-1-0.3-1.4-0.6l-4-3.9l-3.8-2.3c0,0-3.2-3.6-5.1-6.1c-1.4-1.8-3-3.5-4.7-5.1L72,141.5z"/>
		<path class="st2" d="M82.7,159.8c0,0-0.4,2.3-2.5,2.2C78,161.9,82.7,159.8,82.7,159.8z"/>
		<path class="st0" d="M53,138.1c0,0,10-3.2,9.2,0s-9.2,5-9.2,5V138.1z"/>
		<path class="st2" d="M19.5,103l8.2,14.5l3,5.7l16.1-2.3l-0.4-0.8c-0.4-0.5-0.8-1-1.3-1.4c0-0.5,0-0.9-0.1-1.4
			c-0.1-0.6-0.3-1.1-0.7-1.5c0,0,0,0-0.1-0.1c-0.8-1-1.4-2.1-1.8-3.3c-0.1-0.4-0.2-0.6-0.2-0.6l-1.1-1.2l-3.4-3.9l-1-1.1l-0.9-1
			l3.3,4.7c0,0,1.6,2.8,1.6,3.2c0.8,1.3,1.7,2.6,2.7,3.8c0,0,4.4,3.8-3.4,3.9s-12.6-7.6-12.6-7.6l-6.6-10.2
			C20.4,102.7,20,102.8,19.5,103z"/>
		<polygon class="st2" points="37.2,154.8 40.2,154.6 47.2,154.1 47.2,153 37.2,153.6 		"/>
		<path class="st9" d="M20.9,101.6c-0.7,0.8-1.7,1.4-2.8,1.6c1.5,1.6,2.7,3.4,3.5,5.4c0,0,4.4,7.4,1.3,9.9c-1.5,1.3-3.1,2.3-5,3
			l1,17c0,0-2.3,11.7-3.2,12.6c-0.9,0.9-0.6,2.8-0.6,2.8s0.6,2,0,2.7c-0.6,0.7-0.8,4.3-0.8,4.3c1.3-0.7,2.8-1.3,4.2-1.8
			c0.7,0,2.7-3.7,2.7-3.7l19.1-1.3l8.4-0.7l-1.3-23.4c0,0,3.8-6.3-1.4-11.1c0.1-1.1-0.2-2.1-0.9-3c-1.1-0.9-2-3.9-2-3.9l-6.4-7.2
			l0,0l3.3,4.7c0,0,1.6,2.8,1.6,3.2c0.8,1.3,1.7,2.6,2.7,3.8c0,0,4.4,3.8-3.4,3.9s-12.6-7.6-12.6-7.6L20.9,101.6z"/>
		<path class="st2" d="M27.1,132.4c-1.7,1.2-3.6,1.9-5.6,2.1C18.6,134.6,27.1,132.4,27.1,132.4z"/>
		<path class="st2" d="M23.6,126.1c0,0-2.1-1.1-3.4-0.2S23.6,126.1,23.6,126.1z"/>
		<path class="st2" d="M24.6,129.7c0,0-0.1,1.3-3.3,1.4C18.1,131.2,24.6,129.7,24.6,129.7z"/>
		<path class="st0" d="M18.3,103.3l-0.7,0.4c-1.4,0.5-2.8,0.8-4.2,0.9c-2.8,0.5-4.9,2.5-5.5,5.3c-0.1,0.6-0.2,1.4-0.3,2.3
			c-0.3,3.2-0.2,6.4,0.1,9.5c0.3,1.7,0.4,3.4,0.4,5.2c-0.2,0.7,1.3,11.6,1.3,11.6s0.4,8.9,2.6,9.7s14.7,0.8,14.7,0.8l5.3-9.1
			l-12.3,0.6c-1.1-1.9-1.6-4.1-1.5-6.3c0.1-3.8-0.2-12.4-0.2-12.4s7.4-1.6,5.9-7.4C22.6,110.3,20.8,106.6,18.3,103.3z"/>
		<path class="st11" d="M41.8,172.9c0,0,5,1.6,6.9,0.8c2.2-1.2,4.2-2.6,6.2-4.1c0,0,2.7-2.7,5.3-5.6c0.1-0.1,0.2-0.3,0.3-0.4l0,0
			c2.2-2.6,4.3-5.3,4.2-6.7c0-0.6,0.1-1.1,0.2-1.7c0.2-0.8,0.6-1.5,1.1-2.2c0.3-0.4,0.6-0.7,0.9-1l8.1-10.5c0,0-2.3-2.5-2.3-3.2
			s-2.8-4.5-6.4-2.5c-3.1,2.2-6.1,4.7-8.8,7.4c-5.1,4.7-10.3,9.7-10.3,9.7s-0.4,0.4-0.9,1c-1.4,1.6-3.9,4.6-4.1,6.1
			C41.9,162.2,41.8,172.9,41.8,172.9z"/>
		<path class="st13" d="M46.2,154c3.9,3.8,9.6,9,13.9,9.9c0,0,0.1,0,0.1,0l0.2-0.4l0,0l4.4-8.3l1.1-2.1l-0.1-0.1l-8.5-9.8
			c-5.1,4.7-10.3,9.7-10.3,9.7S46.8,153.4,46.2,154z"/>
		<path class="st11" d="M15.1,161.2v1.8c0,0-2.5,8.7,2,11.2c2.3,1.2,7,1.5,11.2,1.5c5.8,0,10.7-4.1,11.8-9.8c0.2-0.8,0.2-1.7,0-2.5
			c0,0,2-14.2,2.5-14.4c0,0,11.2,12.8,18.1,14.3l5.8-10.8l-9.2-10.6c0,0-6.9-10.9-8.9-11.9c-1.6-1-2.9-2.3-4-3.8c0,0-8-6.7-13.4,4.6
			s-8.8,20.5-10.1,23.8c0,0-1.9,3.8-3,3.8l0,0C16.3,158.4,15.1,159.7,15.1,161.2z"/>
		<circle class="st2" cx="40.5" cy="91.6" r="12.5"/>
		<circle class="st0" cx="40.2" cy="91.1" r="12.5"/>
		<path class="st4" d="M53,86.4c0.3,0,0.7,0,1-0.2c0.2-0.1,0.4-0.3,0.5-0.5c0.7-1.4,0.7-3.2-0.2-4.5c-0.8-1.4-1.9-2.6-2.8-3.9
			C50,75,49.2,72.2,47,70.8c-2.1-1.3-4.7-0.9-7-0.1c-1.1,0.4-2.2,1-3.1,1.8c-0.7,0.8-1.3,1.7-1.9,2.5c-0.9,1.1-2,1.9-3.4,2.4
			c-1.3,0.3-2.5,0.7-3.7,1.1c-2.3,1.3-3.1,4.2-3.6,6.8c-0.8,4.8-2,9.5-3.6,14.1c-0.3,1.4-1.2,2.5-2.5,3.2c0.8,0.1,1.6,0.1,2.3-0.1
			c0.8-0.2,1.6,0.1,2.1,0.7c0.2,0.3,0.3,0.6,0.3,0.9c0.9,4.2,0.5,8.5-1.1,12.5c1.2,0.3,2.4-0.3,2.9-1.3c0.2,1.7,0.3,3.5,0.2,5.2
			c1.3-0.6,1.4-2.5,1.5-4c0-0.4,0.1-0.7,0.3-1c0.7-0.6,1.7-0.6,2.3,0c0,0,0,0,0,0c0.6,0.7,1.1,1.4,1.5,2.1c1.3,1.8,3.6,2.6,5.7,2.1
			c0.3-0.1,0.5-0.2,0.7-0.3c0.3-0.4,0.4-0.9,0.1-1.4c-0.3-0.4-0.6-0.8-1-1.1c-1.3-1.1-2.5-2.3-3.5-3.7c-0.5-0.6-0.9-1.3-1-2.1
			c-0.2-1.9,1.8-3.2,3.5-3.9c1.7-0.7,3.8-1.6,4.2-3.4c0.6-2.5-2.4-4.8-1.7-7.3c0.4-1.5,2-2.3,3.5-3c2.4-0.9,4.6-2.2,6.7-3.8
			c0.8-0.8,1.6-1.7,2.3-2.7C50.8,86.2,51.9,86.4,53,86.4z"/>
		<path class="st4" d="M51,97.7c0.4,0.3,0.6,0.7,0.8,1.2c0.1,0.6,0,1.1-0.2,1.7c-0.6,2-0.5,4.2,0.2,6.1c0.6,1.2,1.1,2.4,1.4,3.7
			c0.2,2.2-1.4,4.2-1.7,6.3c-0.2,1.5,0,3,0.7,4.3c0.6,1.3,1.4,2.6,2.2,3.8c-2.8,0.9-5.9-0.5-7.1-3.2c-0.3-0.8-0.5-1.6-0.7-2.4
			c0-0.2-0.1-0.3-0.2-0.4c-0.1-0.1-0.3-0.1-0.4,0c-0.8-0.1-1.4-0.5-1.9-1.2c-0.6-0.7-1.1-1.4-1.4-2.3c-0.2-0.6-0.2-1.1-0.3-1.7
			c-0.2-0.8-0.8-1.5-1.5-2c-0.5-0.2-1.1-0.5-1.6-0.9c-0.5-0.5-0.8-1.2-0.8-2c0-0.7,0.2-1.5,0.5-2.1c0.4-1,1-1.9,1.4-2.9
			C44.7,103.6,48.7,101.4,51,97.7z"/>
		<path class="st2" d="M42.9,148.4c-1.1-1.2-1.9-2.6-2.4-4.1c-0.9-2.6,0.3,2.6,2.2,4.7L42.9,148.4z"/>
		<path class="st2" d="M82.7,127.8c0,0-6.4,0.8-6.7,1.2"/>
		<line class="st14" x1="66" y1="123.7" x2="68.2" y2="125.9"/>
		<line class="st14" x1="69" y1="126" x2="71.1" y2="128.2"/>
		<g class="st5">
			<path class="st6" d="M24.3,115.5c0-0.3,0.1-0.7,0.3-1c0.7-0.6,1.7-0.6,2.3,0c0,0,0,0,0,0c0.1,0.1,0.2,0.2,0.3,0.3
				c-0.3,0.1-0.5,0.2-0.7,0.4c-0.2,0.3-0.3,0.7-0.3,1c-0.1,1.5-0.2,3.3-1.5,4c0.1-1.8,0-3.5-0.2-5.2
				C24.5,115.2,24.4,115.3,24.3,115.5z"/>
			<path class="st6" d="M19.3,101.6c0.5,0,0.9,0.3,1.2,0.7c0,0,0,0.1,0.1,0.1c-0.1,0-0.1,0-0.2,0c-0.8,0.2-1.5,0.2-2.3,0.1
				C18.5,102.3,18.9,102,19.3,101.6z"/>
			<path class="st6" d="M34.2,118.7c0.3-0.1,0.5-0.2,0.7-0.3c0.3-0.4,0.4-0.9,0.1-1.4c-0.3-0.4-0.6-0.8-1-1.1
				c-1.3-1.1-2.5-2.3-3.5-3.7c-0.5-0.6-0.9-1.3-1-2.1c-0.2-1.9,1.8-3.2,3.5-3.9c1.7-0.7,3.8-1.6,4.2-3.4c0.6-2.5-2.4-4.8-1.7-7.3
				c0.4-1.5,2-2.3,3.5-3c2.4-0.9,4.6-2.2,6.7-3.8c0.8-0.8,1.6-1.7,2.3-2.7c0.8-0.9,1.8-0.7,2.9-0.7c0.3,0,0.7,0,1-0.2
				c0.2-0.1,0.4-0.3,0.5-0.5c0.7-1.4,0.7-3.2-0.2-4.5c-0.8-1.4-1.9-2.6-2.8-3.9c-1.4-2.2-2.2-4.9-4.3-6.4c0.7,0.1,1.3,0.4,1.8,0.7
				c2.3,1.4,3,4.2,4.5,6.5c0.9,1.3,2,2.5,2.8,3.9c0.9,1.4,1,3.1,0.2,4.5c-0.1,0.2-0.3,0.4-0.5,0.5c-0.3,0.1-0.6,0.2-1,0.2
				c-1.1,0-2.2-0.2-2.9,0.7c-0.7,0.9-1.5,1.8-2.3,2.7c-2,1.6-4.3,2.8-6.7,3.8c-1.4,0.6-3,1.5-3.5,3c-0.7,2.5,2.3,4.8,1.7,7.3
				c-0.4,1.8-2.5,2.7-4.2,3.4c-1.7,0.7-3.7,2-3.5,3.9c0.1,0.8,0.5,1.5,1,2.1c1,1.4,2.2,2.6,3.5,3.7c0.4,0.3,0.7,0.6,1,1.1
				c0.3,0.4,0.2,1-0.1,1.4c-0.2,0.2-0.4,0.3-0.7,0.3c-1.5,0.4-3.1,0.1-4.3-0.8C32.6,119,33.4,118.9,34.2,118.7z"/>
			<path class="st6" d="M22.6,114.3c0.1,0.7,0.2,1.4,0.2,2.1c-0.4,0.1-0.8,0.1-1.1,0c0.2-0.5,0.4-1.1,0.6-1.6
				C22.4,114.6,22.5,114.4,22.6,114.3z"/>
		</g>
		<g class="st5">
			<path class="st6" d="M52,120.6c-0.3-0.4-0.5-0.9-0.7-1.4c-0.6-1.3-0.8-2.8-0.7-4.3c0.4-2.2,2-4.1,1.7-6.3
				c-0.3-1.3-0.8-2.6-1.4-3.7c-0.8-1.9-0.9-4.1-0.2-6.1c0.1-0.4,0.2-0.8,0.3-1.2c0.3,0.3,0.5,0.6,0.6,0.9c0.1,0.6,0,1.1-0.2,1.7
				c-0.6,2-0.5,4.2,0.2,6.1c0.6,1.2,1.1,2.4,1.4,3.7c0.2,2.2-1.4,4.2-1.7,6.3C51.1,117.8,51.4,119.3,52,120.6z"/>
			<path class="st6" d="M53.3,123.1c0.3,0.5,0.6,0.9,0.9,1.3c-2.8,0.9-5.9-0.5-7.1-3.2c-0.1-0.1-0.1-0.3-0.1-0.4
				C48.4,122.8,50.9,123.7,53.3,123.1z"/>
			<path class="st6" d="M38.4,109c0.5,0.3,1,0.6,1.6,0.9c0.7,0.4,1.3,1.2,1.5,2c0,0.1,0,0.1,0,0.2c-0.2-0.3-0.5-0.5-0.8-0.7
				c-0.5-0.2-1.1-0.5-1.6-0.9C38.6,110,38.4,109.4,38.4,109C38.3,108.9,38.3,108.9,38.4,109z"/>
			<path class="st6" d="M43.2,115.8c0.4,0.7,1.1,1.1,1.9,1.2c0.1,0,0.3,0,0.4,0c0.1,0.1,0.2,0.2,0.2,0.4c0.1,0.3,0.2,0.6,0.2,1
				c-0.1,0-0.2,0-0.2,0c-0.8-0.1-1.4-0.5-1.9-1.2c-0.6-0.7-1.1-1.4-1.4-2.3c0,0,0,0,0-0.1C42.7,115.1,42.9,115.5,43.2,115.8z"/>
		</g>
	</g>
</g>
</svg>
