<?xml version="1.0" encoding="utf-8"?>
<!-- Generator: Adobe Illustrator 24.3.0, SVG Export Plug-In . SVG Version: 6.00 Build 0)  -->
<svg version="1.1" id="圖層_1" xmlns="http://www.w3.org/2000/svg" xmlns:xlink="http://www.w3.org/1999/xlink" x="0px" y="0px"
	 viewBox="0 0 295.5 193.3" style="enable-background:new 0 0 295.5 193.3;" xml:space="preserve">
<style type="text/css">
	.st0{fill:#838486;}
	.st1{fill:#2B2D13;}
	.st2{fill:#F7F7F7;}
	.st3{fill:#CDCECD;}
	.st4{fill:#B9B9B9;}
	.st5{fill:#51504A;}
</style>
<g>
	<g>
		
			<rect x="101.6" y="165.8" transform="matrix(0.6923 -0.7216 0.7216 0.6923 -82.7455 138.0043)" class="st0" width="37.8" height="0.5"/>
	</g>
	<g>
		
			<rect x="270.2" y="147.1" transform="matrix(0.7213 -0.6926 0.6926 0.7213 -39.6022 233.5895)" class="st0" width="0.5" height="37.8"/>
	</g>
	<polygon class="st1" points="257.7,151.7 195.4,144.2 195.4,76.4 	"/>
	<polygon class="st1" points="133.1,151.7 195.4,144.2 195.4,76.4 	"/>
	<path class="st2" d="M195.4,76.4v104h-53.2c5-23,7.1-38.2,6.1-45.2L195.4,76.4z"/>
	<path class="st2" d="M195.4,76.4v104h53.2c-5-23-7.1-38.2-6.1-45.2L195.4,76.4z"/>
	<path class="st3" d="M195.4,76.4v8.3c-0.3,0.4-0.5,0.7-0.8,1.1c-19.4,25.6-40,49.5-66.2,71.8c-0.2,0.2-0.4,0.3-0.6,0.5l0.2-0.2
		l66.6-80.5L195.4,76.4z"/>
	<polygon class="st4" points="212.8,180.4 178.1,180.4 194.6,113.6 195.4,110.4 196.2,113.6 	"/>
	<path class="st3" d="M195.4,110.4l-16,64.6l-1.3,5.4l-6.9-5.3l-18.1-12.7C174.8,152.5,186.2,132.5,195.4,110.4z"/>
	<path class="st3" d="M195.4,110.4l16,64.6l1.3,5.4l6.9-5.3l18.1-12.7C216.1,152.5,204.7,132.5,195.4,110.4z"/>
	<polygon class="st2" points="212.8,180.4 178.1,180.4 179.4,175 211.4,175 	"/>
	<g>
		<path class="st5" d="M107.9,180.4h-1.2v-1.8c0-0.3-0.1-0.5-0.4-0.6c-0.2-0.1-0.5-0.1-0.7,0.1l-0.7-0.9c0.6-0.5,1.3-0.6,2-0.3
			s1.1,0.9,1.1,1.7v1.8H107.9z"/>
	</g>
	<path class="st3" d="M195.4,76.4v8.3c0.3,0.4,0.5,0.7,0.8,1.1c19.4,25.6,40,49.5,66.2,71.8c0.2,0.2,0.4,0.3,0.6,0.5l-0.2-0.2
		l-66.6-80.5L195.4,76.4z"/>
	<g>
		<path class="st5" d="M284.1,180.4h-1.2v-1.8c0-0.7,0.4-1.4,1.1-1.7s1.4-0.2,2,0.3l-0.7,0.9c-0.2-0.2-0.5-0.2-0.7-0.1
			c-0.2,0.1-0.4,0.3-0.4,0.6L284.1,180.4L284.1,180.4z"/>
	</g>
</g>
</svg>
