<?xml version="1.0" encoding="utf-8"?>
<!-- Generator: Adobe Illustrator 24.3.0, SVG Export Plug-In . SVG Version: 6.00 Build 0)  -->
<svg version="1.1" id="圖層_1" xmlns="http://www.w3.org/2000/svg" xmlns:xlink="http://www.w3.org/1999/xlink" x="0px" y="0px"
	 viewBox="0 0 295.5 193.3" style="enable-background:new 0 0 295.5 193.3;" xml:space="preserve">
<style type="text/css">
	.st0{fill:#838486;}
	.st1{fill:#2B2D13;}
	.st2{fill:#F7F7F7;}
	.st3{fill:#CDCECD;}
	.st4{fill:#B9B9B9;}
	.st5{fill:#51504A;}
</style>
<g>
	<g>
		
			<rect x="102.8" y="151.4" transform="matrix(0.6923 -0.7216 0.7216 0.6923 -71.9655 134.4643)" class="st0" width="37.8" height="0.5"/>
	</g>
	<g>
		
			<rect x="271.5" y="132.7" transform="matrix(0.7213 -0.6926 0.6926 0.7213 -29.2811 230.474)" class="st0" width="0.5" height="37.8"/>
	</g>
	<polygon class="st1" points="259,137.3 196.7,129.8 196.7,62 	"/>
	<polygon class="st1" points="134.4,137.3 196.7,129.8 196.7,62 	"/>
	<path class="st2" d="M196.7,62V166h-53.2c5-23,7.1-38.2,6.1-45.2L196.7,62z"/>
	<path class="st2" d="M196.7,62V166h53.2c-5-23-7.1-38.2-6.1-45.2L196.7,62z"/>
	<path class="st3" d="M196.7,62v8.3c-0.3,0.4-0.5,0.7-0.8,1.1c-19.4,25.6-40,49.5-66.2,71.8c-0.2,0.2-0.4,0.3-0.6,0.5l0.2-0.2
		l66.6-80.5L196.7,62z"/>
	<polygon class="st4" points="214.1,166 179.4,166 195.9,99.2 196.7,96 197.5,99.2 	"/>
	<path class="st3" d="M196.7,96l-16,64.6l-1.3,5.4l-6.9-5.3L154.4,148C176.1,138.1,187.5,118.1,196.7,96z"/>
	<path class="st3" d="M196.7,96l16,64.6l1.3,5.4l6.9-5.3l18.1-12.7C217.4,138.1,206,118.1,196.7,96z"/>
	<polygon class="st2" points="214.1,166 179.4,166 180.7,160.6 212.7,160.6 	"/>
	<g>
		<path class="st5" d="M109.2,166H108v-1.8c0-0.3-0.1-0.5-0.4-0.6c-0.2-0.1-0.5-0.1-0.7,0.1l-0.7-0.9c0.6-0.5,1.3-0.6,2-0.3
			c0.7,0.3,1.1,0.9,1.1,1.7V166z"/>
	</g>
	<path class="st3" d="M196.7,62v8.3c0.3,0.4,0.5,0.7,0.8,1.1c19.4,25.6,40,49.5,66.2,71.8c0.2,0.2,0.4,0.3,0.6,0.5l-0.2-0.2
		l-66.6-80.5L196.7,62z"/>
	<g>
		<path class="st5" d="M285.4,166h-1.2v-1.8c0-0.7,0.4-1.4,1.1-1.7c0.7-0.3,1.4-0.2,2,0.3l-0.7,0.9c-0.2-0.2-0.5-0.2-0.7-0.1
			c-0.2,0.1-0.4,0.3-0.4,0.6V166z"/>
	</g>
</g>
</svg>
