<?xml version="1.0" encoding="utf-8"?>
<!-- Generator: Adobe Illustrator 24.3.0, SVG Export Plug-In . SVG Version: 6.00 Build 0)  -->
<svg version="1.1" id="圖層_1" xmlns="http://www.w3.org/2000/svg" xmlns:xlink="http://www.w3.org/1999/xlink" x="0px" y="0px"
	 viewBox="0 0 295.5 193.3" style="enable-background:new 0 0 295.5 193.3;" xml:space="preserve">
<style type="text/css">
	.st0{fill:#FFFFFF;}
	.st1{opacity:0.3;}
	.st2{fill:#B4B3B1;}
	.st3{fill:#97C3E2;}
	.st4{fill:#BAB9B9;}
	.st5{opacity:0.4;}
	.st6{fill:#8D8D8D;}
	.st7{fill:#949090;}
	.st8{fill:#4F463F;}
	.st9{fill:#969493;}
	.st10{fill:#BE491E;}
</style>
<g>
	<g>
		<g>
			<path class="st0" d="M100.9,110.9c0.6-1.4,1-2.9,3.3-5.2c14.7-14.7,58.7-8.8,78.4-7.5c8.5,0.5,11.3,1,14.4,6.1
				c0.9,1.4,1.3,4.5,1.3,5.7h76.1c7.3,0,13.2,5.9,13.2,13.2v53H99.9V151c0-2.4,1.1-6,2.5-8l11.6-16.7H99
				C99,126.3,99.3,114.6,100.9,110.9z"/>
		</g>
		<g class="st1">
			<rect x="195.5" y="160.4" class="st2" width="60.3" height="2.9"/>
		</g>
		<g class="st1">
			<rect x="276.5" y="160.4" class="st2" width="11.2" height="2.9"/>
		</g>
		<g class="st1">
			<rect x="99.9" y="160.4" class="st2" width="70.6" height="2.9"/>
		</g>
		<g>
			<g class="st1">
				<path class="st2" d="M132.3,148.2c4.4,0,7.9-3.6,7.9-7.9v-5.5c0-4.4-3.6-7.9-7.9-7.9h-9c-4.1,0-8.9,2.8-11,6.4l-4.8,7.2l0,0
					c-1.1,2-1.2,3.9-0.3,5.4c0.9,1.5,2.6,2.3,4.9,2.3H132.3z"/>
			</g>
			<g>
				<path class="st3" d="M112.1,146.9h20.2c3.7,0,6.6-3,6.6-6.6v-5.5c0-3.7-3-6.6-6.6-6.6h-9c-3.7,0-8.1,2.6-9.8,5.8l-4.8,7.2
					C107,144.3,108.5,146.9,112.1,146.9z"/>
			</g>
		</g>
		<g class="st1">
			<rect x="99.1" y="125.3" class="st2" width="47.8" height="0.9"/>
		</g>
		<g class="st1">
			<rect x="146" y="126.2" class="st2" width="0.9" height="34.2"/>
		</g>
		<g class="st1">
			<rect x="146" y="163.3" class="st2" width="0.9" height="12.9"/>
		</g>
		<g>
			<g>
				<path class="st4" d="M135.6,157.1c0,0.7,0.6,1.3,1.3,1.3h0.7c0.7,0,1.3-0.6,1.3-1.3v-5.1c0-0.7-0.6-1.3-1.3-1.3h-0.7
					c-0.7,0-1.3,0.6-1.3,1.3V157.1z"/>
			</g>
			<g class="st5">
				<path class="st4" d="M136.9,150.6h0.4v7.8h-0.4c-0.7,0-1.3-0.6-1.3-1.3v-5.1C135.6,151.2,136.2,150.6,136.9,150.6z"/>
			</g>
		</g>
		<g>
			<g>
				<path class="st4" d="M149.7,126.6c0,0.4,0.3,0.7,0.7,0.7h5.1c0.4,0,0.7-0.3,0.7-0.7V126c0-0.4-0.3-0.7-0.7-0.7h-5.1
					c-0.4,0-0.7,0.3-0.7,0.7V126.6z"/>
			</g>
			<g class="st5">
				<path class="st4" d="M156.1,126.3v0.3c0,0.4-0.3,0.7-0.7,0.7h-5.1c-0.4,0-0.7-0.3-0.7-0.7v-0.3H156.1z"/>
			</g>
		</g>
		<g>
			<g>
				<path class="st4" d="M149.7,129.7c0,0.4,0.3,0.7,0.7,0.7h5.1c0.4,0,0.7-0.3,0.7-0.7v-0.6c0-0.4-0.3-0.7-0.7-0.7h-5.1
					c-0.4,0-0.7,0.3-0.7,0.7V129.7z"/>
			</g>
			<g class="st5">
				<path class="st4" d="M156.1,129.4v0.3c0,0.4-0.3,0.7-0.7,0.7h-5.1c-0.4,0-0.7-0.3-0.7-0.7v-0.3H156.1z"/>
			</g>
		</g>
		<g>
			<g>
				<path class="st4" d="M149.7,132.7c0,0.4,0.3,0.7,0.7,0.7h5.1c0.4,0,0.7-0.3,0.7-0.7v-0.6c0-0.4-0.3-0.7-0.7-0.7h-5.1
					c-0.4,0-0.7,0.3-0.7,0.7V132.7z"/>
			</g>
			<g class="st5">
				<path class="st4" d="M156.1,132.4v0.3c0,0.4-0.3,0.7-0.7,0.7h-5.1c-0.4,0-0.7-0.3-0.7-0.7v-0.3H156.1z"/>
			</g>
		</g>
		<g>
			<g>
				<path class="st4" d="M149.7,135.8c0,0.4,0.3,0.7,0.7,0.7h5.1c0.4,0,0.7-0.3,0.7-0.7v-0.6c0-0.4-0.3-0.7-0.7-0.7h-5.1
					c-0.4,0-0.7,0.3-0.7,0.7V135.8z"/>
			</g>
			<g class="st5">
				<path class="st4" d="M156.1,135.5v0.3c0,0.4-0.3,0.7-0.7,0.7h-5.1c-0.4,0-0.7-0.3-0.7-0.7v-0.3H156.1z"/>
			</g>
		</g>
		<g>
			<g>
				<path class="st6" d="M144.8,111.3c0,2.4,2,4.4,4.4,4.4h19c2.4,0,4.4-2,4.4-4.4v-6.5c0-2.4-2-4.4-4.4-4.4h-19
					c-2.4,0-4.4,2-4.4,4.4V111.3z"/>
			</g>
			<g>
				<path class="st4" d="M168.1,114.4c1.7,0,3.1-1.4,3.1-3.1v-6.5c0-1.7-1.4-3.1-3.1-3.1h-19c-1.7,0-3.1,1.4-3.1,3.1v6.5
					c0,1.7,1.4,3.1,3.1,3.1H168.1z"/>
			</g>
		</g>
		<g class="st1">
			<path class="st2" d="M170.6,165.3c0,2.4,2,4.4,4.4,4.4h16.1c2.4,0,4.4-2,4.4-4.4v-40c0-2.4-2-4.4-4.4-4.4H175
				c-2.4,0-4.4,2-4.4,4.4V165.3z"/>
		</g>
		<g>
			<path class="st0" d="M191.1,168c1.5,0,2.6-1.2,2.6-2.6v-40c0-1.5-1.2-2.6-2.6-2.6H175c-1.5,0-2.6,1.2-2.6,2.6v40
				c0,1.5,1.2,2.6,2.6,2.6H191.1z"/>
		</g>
		<g>
			<g>
				<path class="st4" d="M188.5,147.4c0,0.7,0.6,1.3,1.3,1.3h0.7c0.7,0,1.3-0.6,1.3-1.3v-5.1c0-0.7-0.6-1.3-1.3-1.3h-0.7
					c-0.7,0-1.3,0.6-1.3,1.3V147.4z"/>
			</g>
			<g class="st5">
				<path class="st4" d="M189.9,140.9h0.4v7.8h-0.4c-0.7,0-1.3-0.6-1.3-1.3v-5.1C188.5,141.5,189.1,140.9,189.9,140.9z"/>
			</g>
		</g>
		<g class="st1">
			<path class="st2" d="M255.8,165.3c0,2.4,2,4.4,4.4,4.4h11.9c2.4,0,4.4-2,4.4-4.4v-24.9c0-2.4-2-4.4-4.4-4.4h-11.9
				c-2.4,0-4.4,2-4.4,4.4V165.3z"/>
		</g>
		<g>
			<path class="st0" d="M272.1,168c1.5,0,2.6-1.2,2.6-2.6v-24.9c0-1.5-1.2-2.6-2.6-2.6h-11.9c-1.5,0-2.6,1.2-2.6,2.6v24.9
				c0,1.5,1.2,2.6,2.6,2.6H272.1z"/>
		</g>
		<g>
			<g>
				<path class="st4" d="M274,145c0,0.4,0.2,0.7,0.4,0.7h2.9c0.2,0,0.4-0.3,0.4-0.7v-0.6c0-0.4-0.2-0.7-0.4-0.7h-2.9
					c-0.2,0-0.4,0.3-0.4,0.7V145z"/>
			</g>
			<g class="st5">
				<path class="st4" d="M277.6,144.7v0.3c0,0.4-0.2,0.7-0.4,0.7h-2.9c-0.2,0-0.4-0.3-0.4-0.7v-0.3H277.6z"/>
			</g>
		</g>
		<g>
			<g>
				<path class="st4" d="M274,158.5c0,0.4,0.2,0.7,0.4,0.7h2.9c0.2,0,0.4-0.3,0.4-0.7v-0.6c0-0.4-0.2-0.7-0.4-0.7h-2.9
					c-0.2,0-0.4,0.3-0.4,0.7V158.5z"/>
			</g>
			<g class="st5">
				<path class="st4" d="M277.6,158.2v0.3c0,0.4-0.2,0.7-0.4,0.7h-2.9c-0.2,0-0.4-0.3-0.4-0.7v-0.3H277.6z"/>
			</g>
		</g>
		<g>
			<g>
				<path class="st6" d="M150.7,156.3c0,1.2,0.9,2.1,2.1,2.1h11.8c1.2,0,2.1-0.9,2.1-2.1v-5.5c0-1.2-0.9-2.1-2.1-2.1h-11.8
					c-1.2,0-2.1,0.9-2.1,2.1V156.3z"/>
			</g>
			<g>
				<g>
					<rect x="151.7" y="149.9" class="st4" width="13.9" height="1"/>
				</g>
				<g class="st5">
					<rect x="151.7" y="150.4" class="st4" width="13.9" height="0.5"/>
				</g>
			</g>
			<g>
				<g>
					<rect x="151.7" y="151.5" class="st4" width="13.9" height="1"/>
				</g>
				<g class="st5">
					<rect x="151.7" y="152" class="st4" width="13.9" height="0.5"/>
				</g>
			</g>
			<g>
				<g>
					<rect x="151.7" y="153.1" class="st4" width="13.9" height="1"/>
				</g>
				<g class="st5">
					<rect x="151.7" y="153.6" class="st4" width="13.9" height="0.5"/>
				</g>
			</g>
			<g>
				<g>
					<rect x="151.7" y="154.7" class="st4" width="13.9" height="1"/>
				</g>
				<g class="st5">
					<rect x="151.7" y="155.2" class="st4" width="13.9" height="0.5"/>
				</g>
			</g>
			<g>
				<g>
					<rect x="151.7" y="156.3" class="st4" width="13.9" height="1"/>
				</g>
				<g class="st5">
					<rect x="151.7" y="156.8" class="st4" width="13.9" height="0.5"/>
				</g>
			</g>
		</g>
		<g>
			<g>
				<path class="st6" d="M258.1,126.8c0,1.2,0.9,2.1,2.1,2.1H272c1.2,0,2.1-0.9,2.1-2.1v-5.5c0-1.2-0.9-2.1-2.1-2.1h-11.8
					c-1.2,0-2.1,0.9-2.1,2.1V126.8z"/>
			</g>
			<g>
				<g>
					<rect x="259.2" y="120.5" class="st4" width="13.9" height="1"/>
				</g>
				<g class="st5">
					<rect x="259.2" y="121" class="st4" width="13.9" height="0.5"/>
				</g>
			</g>
			<g>
				<g>
					<rect x="259.2" y="122" class="st4" width="13.9" height="1"/>
				</g>
				<g class="st5">
					<rect x="259.2" y="122.5" class="st4" width="13.9" height="0.5"/>
				</g>
			</g>
			<g>
				<g>
					<rect x="259.2" y="123.6" class="st4" width="13.9" height="1"/>
				</g>
				<g class="st5">
					<rect x="259.2" y="124.1" class="st4" width="13.9" height="0.5"/>
				</g>
			</g>
			<g>
				<g>
					<rect x="259.2" y="125.2" class="st4" width="13.9" height="1"/>
				</g>
				<g class="st5">
					<rect x="259.2" y="125.7" class="st4" width="13.9" height="0.5"/>
				</g>
			</g>
			<g>
				<g>
					<rect x="259.2" y="126.8" class="st4" width="13.9" height="1"/>
				</g>
				<g class="st5">
					<rect x="259.2" y="127.3" class="st4" width="13.9" height="0.5"/>
				</g>
			</g>
		</g>
		<g class="st1">
			<path class="st2" d="M199.6,131.6c0,2.4,2,4.4,4.4,4.4h42.2c2.4,0,4.4-2,4.4-4.4v-7.9c0-2.4-2-4.4-4.4-4.4h-42.2
				c-2.4,0-4.4,2-4.4,4.4V131.6z"/>
		</g>
		<g>
			<path class="st3" d="M246.3,134.3c1.5,0,2.6-1.2,2.6-2.6v-7.9c0-1.5-1.2-2.6-2.6-2.6h-42.2c-1.5,0-2.6,1.2-2.6,2.6v7.9
				c0,1.5,1.2,2.6,2.6,2.6H246.3z"/>
		</g>
		<g>
			<g>
				<rect x="262.4" y="106.3" class="st7" width="2.6" height="3.7"/>
			</g>
			<g class="st5">
				<rect x="262.4" y="106.3" class="st7" width="1.3" height="3.7"/>
			</g>
		</g>
		<g>
			<g>
				<rect x="237.6" y="106.3" class="st7" width="2.6" height="3.7"/>
			</g>
			<g class="st5">
				<rect x="237.6" y="106.3" class="st7" width="1.3" height="3.7"/>
			</g>
		</g>
		<g>
			<g>
				<rect x="212.7" y="106.3" class="st7" width="2.6" height="3.7"/>
			</g>
			<g class="st5">
				<rect x="212.7" y="106.3" class="st7" width="1.3" height="3.7"/>
			</g>
		</g>
		<g>
			<rect x="200.9" y="104.6" class="st7" width="76" height="1.7"/>
		</g>
		<g>
			<g class="st1">
				<path class="st2" d="M221,176.1c0.8-6.3,6.1-11.2,12.7-11.2c6.5,0,11.9,4.9,12.7,11.2H221z"/>
			</g>
			<g>
				<g>
					<path class="st8" d="M223.9,177.7c0,5.4,4.4,9.8,9.8,9.8c5.4,0,9.8-4.4,9.8-9.8c0-5.4-4.4-9.8-9.8-9.8
						C228.2,167.9,223.9,172.3,223.9,177.7z"/>
				</g>
				<g class="st1">
					<path class="st2" d="M227.4,177.7c0,3.4,2.8,6.2,6.2,6.2c3.4,0,6.2-2.8,6.2-6.2c0-3.4-2.8-6.2-6.2-6.2
						C230.2,171.4,227.4,174.2,227.4,177.7z"/>
				</g>
				<g>
					<path class="st9" d="M230.5,177.7c0,1.7,1.4,3.1,3.1,3.1c1.7,0,3.1-1.4,3.1-3.1c0-1.7-1.4-3.1-3.1-3.1
						C231.9,174.5,230.5,175.9,230.5,177.7z"/>
				</g>
			</g>
		</g>
		<g>
			<g class="st1">
				<path class="st2" d="M110.8,176.1c0.8-6.3,6.1-11.2,12.7-11.2c6.5,0,11.9,4.9,12.7,11.2H110.8z"/>
			</g>
			<g>
				<g>
					<path class="st8" d="M113.7,177.7c0,5.4,4.4,9.8,9.8,9.8c5.4,0,9.8-4.4,9.8-9.8c0-5.4-4.4-9.8-9.8-9.8
						C118.1,167.9,113.7,172.3,113.7,177.7z"/>
				</g>
				<g class="st1">
					<path class="st2" d="M117.2,177.7c0,3.4,2.8,6.2,6.2,6.2c3.4,0,6.2-2.8,6.2-6.2c0-3.4-2.8-6.2-6.2-6.2
						C120,171.4,117.2,174.2,117.2,177.7z"/>
				</g>
				<g>
					<path class="st9" d="M120.3,177.7c0,1.7,1.4,3.1,3.1,3.1c1.7,0,3.1-1.4,3.1-3.1c0-1.7-1.4-3.1-3.1-3.1
						C121.7,174.5,120.3,175.9,120.3,177.7z"/>
				</g>
			</g>
		</g>
		<g class="st1">
			<path class="st2" d="M99.9,153c0.2,0,0.9,0,1.8,0c2.6,0,3.4,0.3,3.8,0.5c1.5,0.7,2,3.5,2.1,4l0.2,1h-8V153z"/>
		</g>
		<g>
			<path class="st3" d="M99.9,153.9v3.7h6.9c0,0-0.5-2.8-1.6-3.4C104.1,153.7,99.9,153.9,99.9,153.9z"/>
		</g>
		<g class="st1">
			<path class="st2" d="M99.9,167L99.9,167c1,0,1.6,0.1,2,0.2c1.6,0.4,2.2,2.3,2.2,2.5l0.3,1.1h-4.6V167z"/>
		</g>
		<g>
			<path class="st10" d="M99.9,167.9c0.7,0,1.4,0.1,1.8,0.2c1.2,0.3,1.6,1.9,1.6,1.9h-3.4V167.9z"/>
		</g>
	</g>
</g>
</svg>
