<?xml version="1.0" encoding="utf-8"?>
<!-- Generator: Adobe Illustrator 24.3.0, SVG Export Plug-In . SVG Version: 6.00 Build 0)  -->
<svg version="1.1" id="圖層_1" xmlns="http://www.w3.org/2000/svg" xmlns:xlink="http://www.w3.org/1999/xlink" x="0px" y="0px"
	 viewBox="0 0 295.5 193.3" style="enable-background:new 0 0 295.5 193.3;" xml:space="preserve">
<style type="text/css">
	.st0{fill:#806026;}
	.st1{fill:#2E2D40;}
	.st2{fill:#F4B3B4;}
	.st3{fill:#3E3C54;}
	.st4{fill:#ECECEB;}
	.st5{fill:#9A5F68;}
	.st6{fill:#545882;}
	.st7{opacity:0.1;fill:#040000;enable-background:new    ;}
	.st8{fill:#6D2E21;}
	.st9{fill:#AEAEAD;}
	.st10{fill:#666666;}
	.st11{fill:#CECBDE;}
	.st12{fill:#FFFFFF;}
	.st13{fill:#F7D17D;stroke:#F4A551;stroke-width:0.3218;stroke-miterlimit:10;}
	.st14{fill:#9B6678;stroke:#9B6678;stroke-width:0.3218;stroke-miterlimit:10;}
	.st15{fill:#9F677A;stroke:#9F677A;stroke-width:0.3218;stroke-miterlimit:10;}
	.st16{fill:#79A86C;stroke:#79A86C;stroke-width:0.3218;stroke-miterlimit:10;}
	.st17{fill:#444444;}
	.st18{fill:none;stroke:#AEAEAD;stroke-width:0.4879;stroke-linecap:round;stroke-linejoin:round;stroke-miterlimit:10;}
	.st19{fill:#296533;}
	.st20{fill:#2A5C33;}
	.st21{fill:#555EA8;}
	.st22{fill:#498450;}
</style>
<g>
	<path class="st0" d="M127.6,121.1V166h7.1v-41H163v41h7.1V76.1H163c-2.3,0-5.9,12.2-5.9,24.5c0,9.2,1.1,17.2,2.6,20.5H127.6z
		 M163,121.1L163,121.1c0-0.1,0-0.1,0-0.2V121.1z"/>
	<path class="st1" d="M153.8,53.9L153.8,53.9c-5.8,0-10.5,5.2-10.5,11.7v8.2h2.5l1.5-3l-0.4,3h16.2l1.3-2.8l-0.3,2.8h1.8v-6.4
		C165.9,59.9,160.5,53.9,153.8,53.9z"/>
	<path class="st1" d="M141.8,107.3l-6.4,2.7l-22.4,18.2c-0.8,1-1.3,2.2-1.5,3.5c-0.2,2.1-6.9,13.1-4.5,14.5s11.1,5.8,11.6,2.9
		s3.1-15.3,3.1-15.3l21.6-19.3L141.8,107.3z"/>
	<path class="st1" d="M116.5,146.8l-2.7,8.1c0,0,2.9,3.1,1.5,5.6v8.9h-2.3l-0.6-4.7c0,0-2.6,4.6-3.9,4.7c-2.7,0.1-8.1,1.1-8.3-0.4
		s4.1-2.9,4.1-2.9l4.5-12.4l1.9-7.6L116.5,146.8z"/>
	<path class="st1" d="M158.6,105.2c0,0,1.5,14.2-2.7,16.8s-22.7,10.8-22.7,10.8s7.9,7.4,6.3,9.2s-8.9,6.6-9.8,5.6
		s-11.8-12.6-10.5-16.3c1.3-3.7,19.2-15.8,19.2-15.8l2.1-7.6l0.6-6.1l6.8-4.4L158.6,105.2z"/>
	<circle class="st2" cx="151.2" cy="65.5" r="6.7"/>
	<path class="st2" d="M156.4,68.2c0,0-0.3,6.1,4.7,8.1s-12.4,14.5-12.4,14.5v-14c0,0,2.3-2.4,0-6.1L156.4,68.2z"/>
	<path class="st2" d="M167.1,97l-1.3,6.3l-3.9,21.6c0,0,3.2,9.2-1.1,9s-2.3-10-2.3-10l2.3-17.9v-6.9L167.1,97z"/>
	<path class="st2" d="M139.4,93.9l-1.5,5.6l-6.6,16c0,0-4.5,7.6-0.8,7.4c3.7-0.2,3.7-7.4,3.7-7.4l7.6-12.9v-7.3L139.4,93.9z"/>
	<path class="st1" d="M138.2,141l5.3,5c0,0,3.7-0.8,5.2,3.5s2.4,7.1,2.4,7.1l-1.9,1.1l-2.4-3.4c0,0-1.5,6.1-2.9,6.6s-8.7,3.7-8.1,0
		l3.5-5.2c0,0,0.5-5.8-1-6.3s-5.3-5.3-5.3-5.3L138.2,141z"/>
	<path class="st3" d="M158.8,110.2c0,0-15.2-5.5-16.1-5c-0.7,0.3-1.5,0.5-2.3,0.6l0-2.2c0,0,5-1.8,7.7-0.6
		c2.7,1.1,11.1,6.1,11.1,6.1L158.8,110.2z"/>
	<path class="st4" d="M149.6,87.6c0,0,4.4-5,5.6-8.1c0.8-1.9,2.3-3.3,4.2-4.1c0,0,9.7,2.2,9.5,6s-6.1,9.8-6.1,9.8s0.8,21.4-3.5,21.1
		c-0.9-1.1-1.6-2.4-1.9-3.9c-0.5-2.3-15.5-4.7-15.5-4.7s-1.3,2.3-1.5,1.3s1.3-24.7,1.3-24.7l7.7-5.1L149.6,87.6z"/>
	<path class="st4" d="M167.7,79.9l0.1,0.1c0.7,0.4,1.1,1.1,1.1,1.9l0,12c0,0.7,0.3,1.3,0.8,1.7c0.6,0.5,1.2,1.3,0,1.7
		c-1.9,0.6-9.5,3.9-9.7,2.7s-0.5-2.4,0-2.4c0.4,0,2.6-11.6,4.4-16.5c0.4-1.2,1.7-1.7,2.9-1.3C167.5,79.8,167.6,79.8,167.7,79.9z"/>
	<path class="st4" d="M143.9,79.9l-2.3,0.6L139,91.7c0,0-3.1,0.6-2.1,1.8s5,4,5,4L143.9,79.9z"/>
	<path class="st1" d="M156.8,57.1c-1-1.4-2.6-2.2-4.3-2.2h-0.2c-4,0-7.2,3.6-7.2,8v0h1.3l0.2-1.6l0.3,1.6h7.9l0.7-1.4l-0.2,1.4h1.6
		c0.7,3.6-0.3,7.2-3.1,10.8h2.6l1.3-2.8l-0.3,2.8h5l1-6.4C163.4,62.6,160.7,58.5,156.8,57.1z"/>
	<path class="st0" d="M21.8,131.4c1.7-3.7,2.9-12.4,2.9-22.7c0-13.6-4-27-6.6-27h-7.8v99.4h7.8v-45.3h31.3v45.3h7.8v-49.7H21.8z
		 M18.1,131.3c0,0.1,0.1,0.1,0.1,0.2h-0.1V131.3z"/>
	<path class="st5" d="M54.3,113.3c0,0,9.4,3.9,6.4,6.2s-9.2-2.8-9-3.4s-0.9-2.3-0.9-2.3L54.3,113.3z"/>
	<path class="st6" d="M46.1,82.6l3,2.8l0.7,8l2.3,8.5c0,0,3.9,8,3.2,9.6c-0.7,1.6,0.7,2.1,0.7,2.1l-5.3,2.1c0,0-5.7-6.4-5.7-7.8
		C44.9,106.4,46.1,82.6,46.1,82.6z"/>
	<path class="st7" d="M46.1,82.6l3,2.8l0.7,8l2.3,8.5c0,0,3.9,8,3.2,9.6c-0.7,1.6,0.7,2.1,0.7,2.1l-5.3,2.1c0,0-5.7-6.4-5.7-7.8
		C44.9,106.4,46.1,82.6,46.1,82.6z"/>
	<path class="st6" d="M74.3,165.2c0,0-1.1,5.3-1.4,5.7s4.4,2.1,4.4,2.1l5.5-3.9c0,0-2.3-5-2.3-6L74.3,165.2z"/>
	<path class="st1" d="M44.2,113.8l1.6,1.8c0,0,33.3,4.1,34,10.6s5.5,36.7,2.8,37.6c-2.8,0.9-9.9,4.4-9.9,2.5s-4.6-27.1-3.7-31.7
		c0,0-39.7-5-40.6-10.8c-0.9-5.7,0.9-8.3,0.9-8.3L44.2,113.8z"/>
	<path class="st7" d="M44.2,113.8l1.6,1.8c0,0,33.3,4.1,34,10.6s5.5,36.7,2.8,37.6c-2.8,0.9-9.9,4.4-9.9,2.5s-4.6-27.1-3.7-31.7
		c0,0-39.7-5-40.6-10.8c-0.9-5.7,0.9-8.3,0.9-8.3L44.2,113.8z"/>
	<path class="st1" d="M73.9,170.5c0,0-0.9-2.1-1.4-1.4s-2.1,8.7-0.5,8.7c1.6,0,16.3,3.7,18.4,3.2s6,0.2,5.5-2.1
		c-0.5-2.3-2.8-2.5-2.8-2.5s-8.5-5-9-7.6c-0.5-2.5-3-1.1-3-1.1v1.6C81.2,169.3,76.4,173,73.9,170.5z"/>
	<path class="st5" d="M30.2,65.1c0,0,1.6,7.8-1.8,8.5c-3.4,0.7,4.4,5.3,4.4,5.3l5,2.8l3.7-3.7c0,0-3.3-6.8-0.8-11.8
		C43.2,61.1,30.2,65.1,30.2,65.1z"/>
	<path class="st5" d="M41.5,78l-3.7,3.7l-5-2.8c0,0-7.8-4.6-4.4-5.3c2.2-0.4,2.3-3.8,2.1-6.2c-0.1-0.8-0.2-1.5-0.3-2.3
		c0,0,13-4,10.4,1c-0.4,0.8-0.6,1.6-0.8,2.5C39.1,73.2,41.5,78,41.5,78z"/>
	<polygon class="st6" points="54.3,171.8 54.3,177.1 63.1,177.1 63.8,175.1 62.8,169.6 	"/>
	<path class="st1" d="M18.3,118.4c0,0,0,13.5,5.5,14s25.2,3,25.2,3s1.1,22.5,3.2,29.8s0.2,7.8,2.1,8.3s9.6-1.1,9.4-2.8
		c-0.2-1.6-1.1-42.2-1.1-42.2s2.1-8.7-25.5-12.9L18.3,118.4z"/>
	<path class="st1" d="M55,175.5c0,0-1.4-3-1.6-2.1c-0.2,0.9-3,9-0.2,9.6c2.8,0.7,11.5,4.4,17.2,4.1c5.7-0.2,6.4-0.5,6.4-0.5
		s1.6-2.3-0.5-3.7c-2.1-1.4-10.6-9.4-11-10.3s-3.9-1.6-3.9,0S56.6,177.6,55,175.5z"/>
	<path class="st7" d="M40.7,66.1c-0.4,0.8-0.6,1.6-0.8,2.5c-1.1,0.7-1.9,0.5-3.3,0.5c-2.1,0-3-2.7-4.4-4.1c-0.1-1.3-2,0.1-2,0.1
		S43.2,61.1,40.7,66.1z"/>
	<circle class="st5" cx="36" cy="61.4" r="7.6"/>
	<path class="st6" d="M49.1,85.3c0,0-1.1,8.3-1.8,11.2s-1.6,16.8-2.1,18.6c-0.5,1.8-3.2,2.3-8.7,1.6c-0.3,0-0.7-0.1-1-0.1
		c-3.4-0.1-7.3,1.2-10.9,2.2c-2.1,0.6-4,1.1-5.8,1.1c-2.6,0.1-3.4-2.8-3.3-5.9c0.1-2.9,0.9-6.1,1.7-7.2c1.4-2,0-19.9,0.5-25.8v0
		c0.1-0.9,0.2-1.5,0.4-1.8c1.4-1.8,10.3-6.4,11.3-6.2c1,0.2,9.6,5.6,9.6,5.6c2.1,0,2-2.2,2-2.2s1.4,2.7,4.2,3.4
		C47.9,80.5,49.1,85.3,49.1,85.3z"/>
	<path class="st5" d="M33.7,115.1c0,0,14.8,0.5,12.2,2.2c-2.6,1.8-14.1,3.4-14.3,1.1C31.4,116.1,33.7,115.1,33.7,115.1z"/>
	<path class="st7" d="M35.4,116.7c0,0.9-2.3,2.9-3.1,4.2c-0.4,0.7-3.7-0.2-7.8-2.1c-3.1-1.4-6.1-3-9.1-4.8c0.1-2.9,0.9-6.1,1.7-7.2
		c1.4-2,0-19.9,0.5-25.8v0c0.1-0.1,0.3-0.1,0.4-0.2h2.8c9.4,4.4-1.4,23.2-1.4,23.2s14.2,11.7,15.6,12.2
		C35.2,116.3,35.4,116.5,35.4,116.7z"/>
	<path class="st6" d="M20.8,79.6h-2.8c0,0-2.5,0.7-4.6,5.3s-9.6,18.8-3,24.3c6.7,5.5,20.9,11.9,21.8,10.3c0.9-1.6,4.1-4.1,2.8-4.6
		s-15.6-12.2-15.6-12.2S30.2,83.9,20.8,79.6z"/>
	<path class="st1" d="M34.8,57.9c0,0,0.3-4.6,4.4-2.7c4.1,1.9,3.8-3.3,2.6-4.2c-1.2-0.9-1.2-1.1-5.7-0.5
		c-4.5,0.6-13.3,1.6-10.5,10.8S31,68,31,68s-2.3-8.2,0-6.6l2.3,1.6l1.2-0.3L34.8,57.9z"/>
	<path class="st0" d="M204,124.2c0-4.1-30.8-7.5-68.8-7.5s-68.8,3.4-68.8,7.5c0,1.6,4.6,3.1,12.5,4.3v51.3h3.8V129
		c12.6,1.6,31.5,2.7,52.5,2.7c21.2,0,40.2-1,52.8-2.7v50.8h3.8v-51.4C199.5,127.2,204,125.8,204,124.2z"/>
	<path class="st8" d="M181.4,98.7c-0.4-0.4-0.8-0.7-1.3-0.9v-8.9c0-0.2-0.2-0.4-0.4-0.4l0,0h-2.2c-0.2,0-0.4,0.2-0.4,0.4l0,0v8.7
		c-1.6,0.5-2.7,2.1-2.7,3.8v19.1c0,1,0.8,1.8,1.8,1.8h4.7c1,0,1.7-0.8,1.7-1.7v-18.9C182.7,100.5,182.2,99.5,181.4,98.7z"/>
	<rect x="174.4" y="104.2" class="st9" width="8.2" height="10.9"/>
	<path class="st10" d="M180.4,89.1h-0.2v-0.2c0-0.2-0.2-0.4-0.4-0.4l0,0h-2.2c-0.2,0-0.4,0.2-0.4,0.4l0,0v0.2H177V90h0.2v4.7h3V90
		h0.2V89.1z"/>
	<path class="st11" d="M103.9,104.5c-0.2-0.5-0.4-0.8-0.4-0.9c-3.7,0.9-6.2,0.1-6.5,0c-0.2,0.4-1.4,2.7-1.9,4.9
		c-0.4,2-0.2,3.3,0.7,4l0,0l0,0c1,0.7,2,1.3,2.9,1.8c0.1,0.1,0.2,0.1,0.3,0.2l0,0l0,0c0.1,0.2,0.2,0.3,0.3,0.5
		c0.2,0.3,0.3,0.6,0.4,0.9v9.9l-0.1,0c-2.4,0-3.8,0.4-3.8,0.8c0,0.4,1.7,0.8,4.3,0.8c2.5,0,4.3-0.4,4.3-0.8c0-0.3-1.4-0.7-3.7-0.8
		l-0.1,0l0.1-9.1c0-0.6,0.1-1.2,0.4-1.8c0-0.1,0.1-0.2,0.1-0.3c0-0.1,0.1-0.1,0.1-0.2l0,0l0,0c0.1-0.1,0.2-0.1,0.4-0.2l0,0
		c0.9-0.5,1.8-1,2.7-1.7c0.9-0.6,1.2-1.7,0.9-3.4C105.2,107.4,104.4,105.7,103.9,104.5z"/>
	<path class="st8" d="M104.1,112.2c-1,0.7-1.8,1.2-2.5,1.5h0c-0.9-0.1-1.9,0-2.8,0.1c-0.7-0.4-1.5-0.9-2.6-1.6c0,0,0,0,0,0v0
		c-1-0.7-1-2.1-0.7-3.6c0.8-0.1,2.1-0.1,3.9,0.6c2.1,0.7,4.3,0.3,5.5-0.1C105.1,110.4,105,111.6,104.1,112.2z"/>
	<circle class="st8" cx="98.1" cy="107.8" r="0.3"/>
	<circle class="st12" cx="97.3" cy="110.4" r="0.3"/>
	<circle class="st8" cx="98.8" cy="108.5" r="0.2"/>
	<circle class="st12" cx="111.1" cy="113.6" r="0.2"/>
	<circle class="st12" cx="109.9" cy="113.8" r="0.2"/>
	<circle class="st8" cx="101.8" cy="106.2" r="0.2"/>
	<path class="st11" d="M152.4,97.7c-0.2-0.5-0.4-0.8-0.4-0.9c-3.7,0.9-6.2,0.1-6.5,0c-0.2,0.4-1.4,2.7-1.9,4.9c-0.4,2-0.2,3.3,0.7,4
		l0,0l0,0c1,0.7,2,1.3,2.9,1.8c0.1,0.1,0.2,0.1,0.3,0.2l0,0l0,0c0.1,0.2,0.2,0.3,0.3,0.5c0.2,0.3,0.3,0.6,0.4,0.9v9.9l-0.1,0
		c-2.4,0-3.8,0.4-3.8,0.8c0,0.4,1.7,0.8,4.3,0.8c2.5,0,4.3-0.4,4.3-0.8c0-0.3-1.4-0.7-3.7-0.8l-0.1,0l0.1-9.1c0-0.6,0.1-1.2,0.4-1.8
		c0-0.1,0.1-0.2,0.1-0.3c0-0.1,0.1-0.1,0.1-0.2l0,0l0,0c0.1-0.1,0.2-0.1,0.4-0.2l0,0c0.9-0.5,1.8-1,2.7-1.7c0.9-0.6,1.2-1.7,0.9-3.4
		C153.6,100.6,152.9,98.9,152.4,97.7z"/>
	<path class="st8" d="M152.6,105.4c-1,0.7-1.8,1.2-2.5,1.5h0c-0.9-0.1-1.9,0-2.8,0.1c-0.7-0.4-1.5-0.9-2.6-1.6c0,0,0,0,0,0v0
		c-1-0.7-1-2.1-0.7-3.6c0.8-0.1,2.1-0.1,3.9,0.6c2.1,0.7,4.3,0.3,5.5-0.1C153.6,103.6,153.5,104.8,152.6,105.4z"/>
	<circle class="st12" cx="145.8" cy="103.6" r="0.3"/>
	<circle class="st8" cx="147.3" cy="101.6" r="0.2"/>
	<circle class="st12" cx="148" cy="104.9" r="0.2"/>
	<circle class="st8" cx="150.2" cy="99.4" r="0.2"/>
	<circle class="st13" cx="122.2" cy="115.6" r="8.7"/>
	<circle class="st14" cx="122.2" cy="115.6" r="6.9"/>
	<circle class="st15" cx="122.2" cy="115.6" r="5.3"/>
	<circle class="st14" cx="122.2" cy="115.6" r="3"/>
	<circle class="st16" cx="128.5" cy="117.3" r="8.7"/>
	<circle class="st13" cx="132.4" cy="115.6" r="6.9"/>
	<circle class="st13" cx="132.4" cy="115.6" r="5.3"/>
	<circle class="st13" cx="132.4" cy="115.6" r="3"/>
	<path class="st17" d="M110.2,115.3H108c-0.6,0-1.1-0.5-1.1-1.1l0,0c0-0.6,0.5-1.1,1.1-1.1h2.2c0.6,0,1.1,0.5,1.1,1.1l0,0
		C111.3,114.8,110.8,115.3,110.2,115.3z"/>
	<path class="st17" d="M146.6,115.3h-2.2c-0.6,0-1.1-0.5-1.1-1.1l0,0c0-0.6,0.5-1.1,1.1-1.1h2.2c0.6,0,1.1,0.5,1.1,1.1l0,0
		C147.7,114.8,147.2,115.3,146.6,115.3z"/>
	<g>
		<g>
			<path class="st18" d="M123.5,95.3c0,0.7-0.9,0.7-0.9,1.3c0,0.7,0.9,0.7,0.9,1.3c0,0.7-0.9,0.7-0.9,1.3c0,0.7,0.9,0.7,0.9,1.3"/>
		</g>
		<g>
			<path class="st18" d="M128.1,95.4c0,0.7-0.9,0.7-0.9,1.3c0,0.7,0.9,0.7,0.9,1.3c0,0.7-0.9,0.7-0.9,1.3c0,0.7,0.9,0.7,0.9,1.3"/>
		</g>
		<g>
			<path class="st18" d="M132.8,95.4c0,0.7-0.9,0.7-0.9,1.3c0,0.7,0.9,0.7,0.9,1.3c0,0.7-0.9,0.7-0.9,1.3c0,0.7,0.9,0.7,0.9,1.3"/>
		</g>
	</g>
	<ellipse transform="matrix(0.2083 -0.9781 0.9781 0.2083 -6.8612 218.2247)" class="st19" cx="131.4" cy="113.4" rx="4.1" ry="2"/>
	<path class="st20" d="M129.8,119.8c1.8-4.5,2-9.3,2-9.4l-0.2,0c0,0-0.2,4.9-2,9.3L129.8,119.8z"/>
	
		<rect x="130.5" y="111.8" transform="matrix(0.645 -0.7642 0.7642 0.645 -39.8874 139.8412)" class="st20" width="0.2" height="2"/>
	
		<rect x="131.3" y="113.6" transform="matrix(0.9606 -0.2779 0.2779 0.9606 -26.3923 41.2555)" class="st21" width="2" height="0.2"/>
	
		<ellipse transform="matrix(0.2083 -0.9781 0.9781 0.2083 1.0402 221.5303)" class="st22" cx="137.4" cy="110.1" rx="7.9" ry="3.9"/>
	<path class="st20" d="M134.2,122.7c3.5-8.8,3.9-18.3,3.9-18.3l-0.2,0c0,0.1-0.4,9.5-3.9,18.3L134.2,122.7z"/>
	
		<rect x="135.7" y="107.1" transform="matrix(0.645 -0.7642 0.7642 0.645 -35.1998 142.5178)" class="st20" width="0.2" height="4"/>
	<rect x="137.2" y="110.8" transform="matrix(0.9606 -0.2779 0.2779 0.9606 -25.32 43.0599)" class="st20" width="4" height="0.2"/>
	<path class="st17" d="M109.1,113h36.5l0,0v1.7c0,7.1-5.8,12.9-12.9,12.9h-10.7c-7.1,0-12.9-5.8-12.9-12.9V113L109.1,113z"/>
</g>
</svg>
