<?xml version="1.0" encoding="utf-8"?>
<!-- Generator: Adobe Illustrator 24.3.0, SVG Export Plug-In . SVG Version: 6.00 Build 0)  -->
<svg version="1.1" id="圖層_1" xmlns="http://www.w3.org/2000/svg" xmlns:xlink="http://www.w3.org/1999/xlink" x="0px" y="0px"
	 viewBox="0 0 295.5 193.3" style="enable-background:new 0 0 295.5 193.3;" xml:space="preserve">
<style type="text/css">
	.st0{fill:#806026;}
	.st1{fill:#2E2D40;}
	.st2{fill:#F4B3B4;}
	.st3{fill:#3E3C54;}
	.st4{fill:#ECECEB;}
	.st5{fill:#9A5F68;}
	.st6{fill:#545882;}
	.st7{opacity:0.1;fill:#040000;enable-background:new    ;}
	.st8{fill:#6D2E21;}
	.st9{fill:#AEAEAD;}
	.st10{fill:#666666;}
	.st11{fill:#CECBDE;}
	.st12{fill:#FFFFFF;}
	.st13{fill:#F7D17D;stroke:#F4A551;stroke-width:0.3218;stroke-miterlimit:10;}
	.st14{fill:#9B6678;stroke:#9B6678;stroke-width:0.3218;stroke-miterlimit:10;}
	.st15{fill:#9F677A;stroke:#9F677A;stroke-width:0.3218;stroke-miterlimit:10;}
	.st16{fill:#79A86C;stroke:#79A86C;stroke-width:0.3218;stroke-miterlimit:10;}
	.st17{fill:#444444;}
	.st18{fill:none;stroke:#AEAEAD;stroke-width:0.4879;stroke-linecap:round;stroke-linejoin:round;stroke-miterlimit:10;}
	.st19{fill:#296533;}
	.st20{fill:#2A5C33;}
	.st21{fill:#555EA8;}
	.st22{fill:#498450;}
</style>
<g>
	<path class="st0" d="M211.8,122.2v44.9h7.1v-41h28.3v41h7.1V77.2h-7.1c-2.3,0-5.9,12.2-5.9,24.5c0,9.2,1.1,17.2,2.6,20.5H211.8z
		 M247.2,122.2L247.2,122.2c0-0.1,0-0.1,0-0.2V122.2z"/>
	<path class="st1" d="M238,55L238,55c-5.8,0-10.5,5.2-10.5,11.7v8.2h2.5l1.5-3l-0.4,3h16.2l1.3-2.8l-0.3,2.8h1.8v-6.4
		C250.1,61,244.7,55,238,55z"/>
	<path class="st1" d="M226,108.4l-6.4,2.7l-22.4,18.2c-0.8,1-1.3,2.2-1.5,3.5c-0.2,2.1-6.9,13.1-4.5,14.5c2.4,1.4,11.1,5.8,11.6,2.9
		s3.1-15.3,3.1-15.3l21.6-19.3L226,108.4z"/>
	<path class="st1" d="M200.7,147.9L198,156c0,0,2.9,3.1,1.5,5.6v8.9h-2.3l-0.6-4.7c0,0-2.6,4.6-3.9,4.7c-2.7,0.1-8.1,1.1-8.3-0.4
		c-0.2-1.5,4.1-2.9,4.1-2.9l4.5-12.4l1.9-7.6L200.7,147.9z"/>
	<path class="st1" d="M242.8,106.3c0,0,1.5,14.2-2.7,16.8s-22.7,10.8-22.7,10.8s7.9,7.4,6.3,9.2s-8.9,6.6-9.8,5.6
		s-11.8-12.6-10.5-16.3s19.2-15.8,19.2-15.8l2.1-7.6l0.6-6.1l6.8-4.4L242.8,106.3z"/>
	<circle class="st2" cx="235.4" cy="66.6" r="6.7"/>
	<path class="st2" d="M240.6,69.3c0,0-0.3,6.1,4.7,8.1s-12.4,14.5-12.4,14.5v-14c0,0,2.3-2.4,0-6.1L240.6,69.3z"/>
	<path class="st2" d="M251.3,98.1l-1.3,6.3l-3.9,21.6c0,0,3.2,9.2-1.1,9s-2.3-10-2.3-10l2.3-17.9v-6.9L251.3,98.1z"/>
	<path class="st2" d="M223.6,95l-1.5,5.6l-6.6,16c0,0-4.5,7.6-0.8,7.4s3.7-7.4,3.7-7.4l7.6-12.9v-7.3L223.6,95z"/>
	<path class="st1" d="M222.4,142.1l5.3,5c0,0,3.7-0.8,5.2,3.5s2.4,7.1,2.4,7.1l-1.9,1.1l-2.4-3.4c0,0-1.5,6.1-2.9,6.6
		s-8.7,3.7-8.1,0l3.5-5.2c0,0,0.5-5.8-1-6.3s-5.3-5.3-5.3-5.3L222.4,142.1z"/>
	<path class="st3" d="M243,111.3c0,0-15.2-5.5-16.1-5c-0.7,0.3-1.5,0.5-2.3,0.6v-2.2c0,0,5-1.8,7.7-0.6c2.7,1.1,11.1,6.1,11.1,6.1
		L243,111.3z"/>
	<path class="st4" d="M233.8,88.7c0,0,4.4-5,5.6-8.1c0.8-1.9,2.3-3.3,4.2-4.1c0,0,9.7,2.2,9.5,6s-6.1,9.8-6.1,9.8s0.8,21.4-3.5,21.1
		c-0.9-1.1-1.6-2.4-1.9-3.9c-0.5-2.3-15.5-4.7-15.5-4.7s-1.3,2.3-1.5,1.3s1.3-24.7,1.3-24.7l7.7-5.1L233.8,88.7z"/>
	<path class="st4" d="M251.9,81l0.1,0.1c0.7,0.4,1.1,1.1,1.1,1.9v12c0,0.7,0.3,1.3,0.8,1.7c0.6,0.5,1.2,1.3,0,1.7
		c-1.9,0.6-9.5,3.9-9.7,2.7s-0.5-2.4,0-2.4c0.4,0,2.6-11.6,4.4-16.5c0.4-1.2,1.7-1.7,2.9-1.3C251.7,80.9,251.8,80.9,251.9,81z"/>
	<path class="st4" d="M228.1,81l-2.3,0.6l-2.6,11.2c0,0-3.1,0.6-2.1,1.8s5,4,5,4L228.1,81z"/>
	<path class="st1" d="M241,58.2c-1-1.4-2.6-2.2-4.3-2.2h-0.2c-4,0-7.2,3.6-7.2,8l0,0h1.3l0.2-1.6l0.3,1.6h7.9l0.7-1.4l-0.2,1.4h1.6
		c0.7,3.6-0.3,7.2-3.1,10.8h2.6l1.3-2.8l-0.3,2.8h5l1-6.4C247.6,63.7,244.9,59.6,241,58.2z"/>
	<path class="st0" d="M106,132.5c1.7-3.7,2.9-12.4,2.9-22.7c0-13.6-4-27-6.6-27h-7.8v99.4h7.8v-45.3h31.3v45.3h7.8v-49.7L106,132.5
		L106,132.5z M102.3,132.4c0,0.1,0.1,0.1,0.1,0.2h-0.1V132.4z"/>
	<path class="st5" d="M138.5,114.4c0,0,9.4,3.9,6.4,6.2c-3,2.3-9.2-2.8-9-3.4c0.2-0.6-0.9-2.3-0.9-2.3L138.5,114.4z"/>
	<path class="st6" d="M130.3,83.7l3,2.8l0.7,8l2.3,8.5c0,0,3.9,8,3.2,9.6s0.7,2.1,0.7,2.1l-5.3,2.1c0,0-5.7-6.4-5.7-7.8
		C129.1,107.5,130.3,83.7,130.3,83.7z"/>
	<path class="st7" d="M130.3,83.7l3,2.8l0.7,8l2.3,8.5c0,0,3.9,8,3.2,9.6s0.7,2.1,0.7,2.1l-5.3,2.1c0,0-5.7-6.4-5.7-7.8
		C129.1,107.5,130.3,83.7,130.3,83.7z"/>
	<path class="st6" d="M158.5,166.3c0,0-1.1,5.3-1.4,5.7s4.4,2.1,4.4,2.1l5.5-3.9c0,0-2.3-5-2.3-6L158.5,166.3z"/>
	<path class="st1" d="M128.4,114.9l1.6,1.8c0,0,33.3,4.1,34,10.6c0.7,6.5,5.5,36.7,2.8,37.6c-2.8,0.9-9.9,4.4-9.9,2.5
		s-4.6-27.1-3.7-31.7c0,0-39.7-5-40.6-10.8c-0.9-5.7,0.9-8.3,0.9-8.3L128.4,114.9z"/>
	<path class="st7" d="M128.4,114.9l1.6,1.8c0,0,33.3,4.1,34,10.6c0.7,6.5,5.5,36.7,2.8,37.6c-2.8,0.9-9.9,4.4-9.9,2.5
		s-4.6-27.1-3.7-31.7c0,0-39.7-5-40.6-10.8c-0.9-5.7,0.9-8.3,0.9-8.3L128.4,114.9z"/>
	<path class="st1" d="M158.1,171.6c0,0-0.9-2.1-1.4-1.4s-2.1,8.7-0.5,8.7c1.6,0,16.3,3.7,18.4,3.2c2.1-0.5,6,0.2,5.5-2.1
		s-2.8-2.5-2.8-2.5s-8.5-5-9-7.6c-0.5-2.5-3-1.1-3-1.1v1.6C165.4,170.4,160.6,174.1,158.1,171.6z"/>
	<path class="st5" d="M114.4,66.2c0,0,1.6,7.8-1.8,8.5S117,80,117,80l5,2.8l3.7-3.7c0,0-3.3-6.8-0.8-11.8
		C127.4,62.2,114.4,66.2,114.4,66.2z"/>
	<path class="st5" d="M125.7,79.1l-3.7,3.7l-5-2.8c0,0-7.8-4.6-4.4-5.3c2.2-0.4,2.3-3.8,2.1-6.2c-0.1-0.8-0.2-1.5-0.3-2.3
		c0,0,13-4,10.4,1c-0.4,0.8-0.6,1.6-0.8,2.5C123.3,74.3,125.7,79.1,125.7,79.1z"/>
	<polygon class="st6" points="138.5,172.9 138.5,178.2 147.3,178.2 148,176.2 147,170.7 	"/>
	<path class="st1" d="M102.5,119.5c0,0,0,13.5,5.5,14s25.2,3,25.2,3s1.1,22.5,3.2,29.8c2.1,7.3,0.2,7.8,2.1,8.3s9.6-1.1,9.4-2.8
		c-0.2-1.6-1.1-42.2-1.1-42.2s2.1-8.7-25.5-12.9L102.5,119.5z"/>
	<path class="st1" d="M139.2,176.6c0,0-1.4-3-1.6-2.1s-3,9-0.2,9.6c2.8,0.7,11.5,4.4,17.2,4.1c5.7-0.2,6.4-0.5,6.4-0.5
		s1.6-2.3-0.5-3.7c-2.1-1.4-10.6-9.4-11-10.3c-0.4-0.9-3.9-1.6-3.9,0S140.8,178.7,139.2,176.6z"/>
	<path class="st7" d="M124.9,67.2c-0.4,0.8-0.6,1.6-0.8,2.5c-1.1,0.7-1.9,0.5-3.3,0.5c-2.1,0-3-2.7-4.4-4.1c-0.1-1.3-2,0.1-2,0.1
		S127.4,62.2,124.9,67.2z"/>
	<circle class="st5" cx="120.2" cy="62.5" r="7.6"/>
	<path class="st6" d="M133.3,86.4c0,0-1.1,8.3-1.8,11.2s-1.6,16.8-2.1,18.6c-0.5,1.8-3.2,2.3-8.7,1.6c-0.3,0-0.7-0.1-1-0.1
		c-3.4-0.1-7.3,1.2-10.9,2.2c-2.1,0.6-4,1.1-5.8,1.1c-2.6,0.1-3.4-2.8-3.3-5.9c0.1-2.9,0.9-6.1,1.7-7.2c1.4-2,0-19.9,0.5-25.8l0,0
		c0.1-0.9,0.2-1.5,0.4-1.8c1.4-1.8,10.3-6.4,11.3-6.2c1,0.2,9.6,5.6,9.6,5.6c2.1,0,2-2.2,2-2.2s1.4,2.7,4.2,3.4
		C132.1,81.6,133.3,86.4,133.3,86.4z"/>
	<path class="st5" d="M117.9,116.2c0,0,14.8,0.5,12.2,2.2c-2.6,1.8-14.1,3.4-14.3,1.1C115.6,117.2,117.9,116.2,117.9,116.2z"/>
	<path class="st7" d="M119.6,117.8c0,0.9-2.3,2.9-3.1,4.2c-0.4,0.7-3.7-0.2-7.8-2.1c-3.1-1.4-6.1-3-9.1-4.8c0.1-2.9,0.9-6.1,1.7-7.2
		c1.4-2,0-19.9,0.5-25.8l0,0c0.1-0.1,0.3-0.1,0.4-0.2h2.8c9.4,4.4-1.4,23.2-1.4,23.2s14.2,11.7,15.6,12.2
		C119.4,117.4,119.6,117.6,119.6,117.8z"/>
	<path class="st6" d="M105,80.7h-2.8c0,0-2.5,0.7-4.6,5.3c-2.1,4.6-9.6,18.8-3,24.3c6.7,5.5,20.9,11.9,21.8,10.3s4.1-4.1,2.8-4.6
		c-1.3-0.5-15.6-12.2-15.6-12.2S114.4,85,105,80.7z"/>
	<path class="st1" d="M119,59c0,0,0.3-4.6,4.4-2.7c4.1,1.9,3.8-3.3,2.6-4.2c-1.2-0.9-1.2-1.1-5.7-0.5s-13.3,1.6-10.5,10.8
		c2.8,9.2,5.4,6.7,5.4,6.7s-2.3-8.2,0-6.6l2.3,1.6l1.2-0.3L119,59z"/>
	<path class="st0" d="M288.2,125.3c0-4.1-30.8-7.5-68.8-7.5s-68.8,3.4-68.8,7.5c0,1.6,4.6,3.1,12.5,4.3v51.3h3.8v-50.8
		c12.6,1.6,31.5,2.7,52.5,2.7c21.2,0,40.2-1,52.8-2.7v50.8h3.8v-51.4C283.7,128.3,288.2,126.9,288.2,125.3z"/>
	<path class="st8" d="M265.6,99.8c-0.4-0.4-0.8-0.7-1.3-0.9V90c0-0.2-0.2-0.4-0.4-0.4l0,0h-2.2c-0.2,0-0.4,0.2-0.4,0.4l0,0v8.7
		c-1.6,0.5-2.7,2.1-2.7,3.8v19.1c0,1,0.8,1.8,1.8,1.8h4.7c1,0,1.7-0.8,1.7-1.7v-18.9C266.9,101.6,266.4,100.6,265.6,99.8z"/>
	<rect x="258.6" y="105.3" class="st9" width="8.2" height="10.9"/>
	<path class="st10" d="M264.6,90.2h-0.2V90c0-0.2-0.2-0.4-0.4-0.4l0,0h-2.2c-0.2,0-0.4,0.2-0.4,0.4l0,0v0.2h-0.2v0.9h0.2v4.7h3v-4.7
		h0.2V90.2z"/>
	<path class="st11" d="M188.1,105.6c-0.2-0.5-0.4-0.8-0.4-0.9c-3.7,0.9-6.2,0.1-6.5,0c-0.2,0.4-1.4,2.7-1.9,4.9
		c-0.4,2-0.2,3.3,0.7,4l0,0l0,0c1,0.7,2,1.3,2.9,1.8c0.1,0.1,0.2,0.1,0.3,0.2l0,0l0,0c0.1,0.2,0.2,0.3,0.3,0.5
		c0.2,0.3,0.3,0.6,0.4,0.9v9.9h-0.1c-2.4,0-3.8,0.4-3.8,0.8c0,0.4,1.7,0.8,4.3,0.8c2.5,0,4.3-0.4,4.3-0.8c0-0.3-1.4-0.7-3.7-0.8
		h-0.1l0.1-9.1c0-0.6,0.1-1.2,0.4-1.8c0-0.1,0.1-0.2,0.1-0.3c0-0.1,0.1-0.1,0.1-0.2l0,0l0,0c0.1-0.1,0.2-0.1,0.4-0.2l0,0
		c0.9-0.5,1.8-1,2.7-1.7c0.9-0.6,1.2-1.7,0.9-3.4C189.4,108.5,188.6,106.8,188.1,105.6z"/>
	<path class="st8" d="M188.3,113.3c-1,0.7-1.8,1.2-2.5,1.5l0,0c-0.9-0.1-1.9,0-2.8,0.1c-0.7-0.4-1.5-0.9-2.6-1.6l0,0l0,0
		c-1-0.7-1-2.1-0.7-3.6c0.8-0.1,2.1-0.1,3.9,0.6c2.1,0.7,4.3,0.3,5.5-0.1C189.3,111.5,189.2,112.7,188.3,113.3z"/>
	<circle class="st8" cx="182.3" cy="108.9" r="0.3"/>
	<circle class="st12" cx="181.5" cy="111.5" r="0.3"/>
	<circle class="st8" cx="183" cy="109.6" r="0.2"/>
	<circle class="st12" cx="195.3" cy="114.7" r="0.2"/>
	<circle class="st12" cx="194.1" cy="114.9" r="0.2"/>
	<circle class="st8" cx="186" cy="107.3" r="0.2"/>
	<path class="st11" d="M236.6,98.8c-0.2-0.5-0.4-0.8-0.4-0.9c-3.7,0.9-6.2,0.1-6.5,0c-0.2,0.4-1.4,2.7-1.9,4.9c-0.4,2-0.2,3.3,0.7,4
		l0,0l0,0c1,0.7,2,1.3,2.9,1.8c0.1,0.1,0.2,0.1,0.3,0.2l0,0l0,0c0.1,0.2,0.2,0.3,0.3,0.5c0.2,0.3,0.3,0.6,0.4,0.9v9.9h-0.1
		c-2.4,0-3.8,0.4-3.8,0.8s1.7,0.8,4.3,0.8c2.5,0,4.3-0.4,4.3-0.8c0-0.3-1.4-0.7-3.7-0.8h-0.1l0.1-9.1c0-0.6,0.1-1.2,0.4-1.8
		c0-0.1,0.1-0.2,0.1-0.3c0-0.1,0.1-0.1,0.1-0.2l0,0l0,0c0.1-0.1,0.2-0.1,0.4-0.2l0,0c0.9-0.5,1.8-1,2.7-1.7c0.9-0.6,1.2-1.7,0.9-3.4
		C237.8,101.7,237.1,100,236.6,98.8z"/>
	<path class="st8" d="M236.8,106.5c-1,0.7-1.8,1.2-2.5,1.5l0,0c-0.9-0.1-1.9,0-2.8,0.1c-0.7-0.4-1.5-0.9-2.6-1.6l0,0l0,0
		c-1-0.7-1-2.1-0.7-3.6c0.8-0.1,2.1-0.1,3.9,0.6c2.1,0.7,4.3,0.3,5.5-0.1C237.8,104.7,237.7,105.9,236.8,106.5z"/>
	<circle class="st12" cx="230" cy="104.7" r="0.3"/>
	<circle class="st8" cx="231.5" cy="102.7" r="0.2"/>
	<circle class="st12" cx="232.2" cy="106" r="0.2"/>
	<circle class="st8" cx="234.4" cy="100.5" r="0.2"/>
	<circle class="st13" cx="206.4" cy="116.7" r="8.7"/>
	<circle class="st14" cx="206.4" cy="116.7" r="6.9"/>
	<circle class="st15" cx="206.4" cy="116.7" r="5.3"/>
	<circle class="st14" cx="206.4" cy="116.7" r="3"/>
	<circle class="st16" cx="212.7" cy="118.4" r="8.7"/>
	<circle class="st13" cx="216.6" cy="116.7" r="6.9"/>
	<circle class="st13" cx="216.6" cy="116.7" r="5.3"/>
	<circle class="st13" cx="216.6" cy="116.7" r="3"/>
	<path class="st17" d="M194.4,116.4h-2.2c-0.6,0-1.1-0.5-1.1-1.1l0,0c0-0.6,0.5-1.1,1.1-1.1h2.2c0.6,0,1.1,0.5,1.1,1.1l0,0
		C195.5,115.9,195,116.4,194.4,116.4z"/>
	<path class="st17" d="M230.8,116.4h-2.2c-0.6,0-1.1-0.5-1.1-1.1l0,0c0-0.6,0.5-1.1,1.1-1.1h2.2c0.6,0,1.1,0.5,1.1,1.1l0,0
		C231.9,115.9,231.4,116.4,230.8,116.4z"/>
	<g>
		<g>
			<path class="st18" d="M207.7,96.4c0,0.7-0.9,0.7-0.9,1.3c0,0.7,0.9,0.7,0.9,1.3c0,0.7-0.9,0.7-0.9,1.3c0,0.7,0.9,0.7,0.9,1.3"/>
		</g>
		<g>
			<path class="st18" d="M212.3,96.5c0,0.7-0.9,0.7-0.9,1.3c0,0.7,0.9,0.7,0.9,1.3c0,0.7-0.9,0.7-0.9,1.3c0,0.7,0.9,0.7,0.9,1.3"/>
		</g>
		<g>
			<path class="st18" d="M217,96.5c0,0.7-0.9,0.7-0.9,1.3c0,0.7,0.9,0.7,0.9,1.3c0,0.7-0.9,0.7-0.9,1.3c0,0.7,0.9,0.7,0.9,1.3"/>
		</g>
	</g>
	<ellipse transform="matrix(0.2083 -0.9781 0.9781 0.2083 58.7519 301.473)" class="st19" cx="215.6" cy="114.4" rx="4.1" ry="2"/>
	<path class="st20" d="M214,120.9c1.8-4.5,2-9.3,2-9.4h-0.2c0,0-0.2,4.9-2,9.3L214,120.9z"/>
	
		<rect x="214.6" y="112.9" transform="matrix(0.645 -0.7642 0.7642 0.645 -10.8252 204.5274)" class="st20" width="0.2" height="2"/>
	
		<rect x="215.5" y="114.7" transform="matrix(0.9606 -0.2779 0.2779 0.9606 -23.3855 64.6783)" class="st21" width="2" height="0.2"/>
	
		<ellipse transform="matrix(0.2083 -0.9781 0.9781 0.2083 66.6207 304.6933)" class="st22" cx="221.5" cy="111.2" rx="7.9" ry="3.9"/>
	<path class="st20" d="M218.4,123.8c3.5-8.8,3.9-18.3,3.9-18.3h-0.2c0,0.1-0.4,9.5-3.9,18.3H218.4z"/>
	<rect x="219.8" y="108.2" transform="matrix(0.645 -0.7642 0.7642 0.645 -6.1591 207.2041)" class="st20" width="0.2" height="4"/>
	
		<rect x="221.4" y="111.9" transform="matrix(0.9606 -0.2779 0.2779 0.9606 -22.3339 66.4916)" class="st20" width="4" height="0.2"/>
	<path class="st17" d="M193.3,114.1h36.5l0,0v1.7c0,7.1-5.8,12.9-12.9,12.9h-10.7c-7.1,0-12.9-5.8-12.9-12.9L193.3,114.1
		L193.3,114.1z"/>
</g>
</svg>
