<?xml version="1.0" encoding="utf-8"?>
<!-- Generator: Adobe Illustrator 24.3.0, SVG Export Plug-In . SVG Version: 6.00 Build 0)  -->
<svg version="1.1" id="圖層_1" xmlns="http://www.w3.org/2000/svg" xmlns:xlink="http://www.w3.org/1999/xlink" x="0px" y="0px"
	 viewBox="0 0 295.5 193.3" style="enable-background:new 0 0 295.5 193.3;" xml:space="preserve">
<style type="text/css">
	.st0{fill:#3E3C54;}
	.st1{fill:#4B4B68;}
	.st2{fill:#E6936C;}
	.st3{fill:#E9637E;}
	.st4{opacity:0.2;fill:#040000;enable-background:new    ;}
	.st5{fill:#E5E5E4;}
	.st6{fill:#F4B3B4;}
	.st7{fill:#2E2D40;}
</style>
<g>
	<rect x="227.4" y="146.5" class="st0" width="2" height="1.2"/>
	<rect x="223.4" y="146.5" class="st0" width="2" height="1.2"/>
	<rect x="219.4" y="146.5" class="st0" width="2" height="1.2"/>
	<rect x="215.4" y="146.5" class="st0" width="2" height="1.2"/>
	<rect x="211.4" y="146.5" class="st0" width="2" height="1.2"/>
	<rect x="207.4" y="146.5" class="st0" width="2" height="1.2"/>
	<rect x="203.4" y="146.5" class="st0" width="2" height="1.2"/>
	<rect x="199.5" y="146.5" class="st0" width="2" height="1.2"/>
	<rect x="195.5" y="146.5" class="st0" width="2" height="1.2"/>
	<rect x="191.5" y="146.5" class="st0" width="2" height="1.2"/>
	<rect x="187.5" y="146.5" class="st0" width="2" height="1.2"/>
	<path class="st1" d="M183,147.2c0,13.2,10.7,23.9,23.9,23.9s23.9-10.7,23.9-23.9H183z"/>
	<path class="st1" d="M184.1,147.4l15.2-45.3c-12.5-4.2-26,2.5-30.3,15c0,0,0,0,0,0c-0.2,0.5-0.3,1-0.4,1.4
		C165.4,130.7,172.1,143.3,184.1,147.4z"/>
	<circle class="st1" cx="183.5" cy="147.9" r="3"/>
	<path class="st2" d="M213.9,153.4c0.5,0,0.8,0.4,0.8,0.8s-0.4,0.8-0.8,0.8h-14.3c-0.5,0-0.8-0.4-0.8-0.8s0.4-0.8,0.8-0.8H213.9z"/>
	<polygon class="st1" points="187,190.4 190,190.5 200.7,167.5 198,166.3 	"/>
	<polygon class="st1" points="226.7,190.4 223.7,190.5 213,167.5 215.7,166.3 	"/>
	<rect x="194.5" y="177.2" class="st1" width="24.6" height="1.7"/>
	<path class="st2" d="M198.7,101.2c0.4,0,0.7,0.3,0.7,0.7c0,0.1,0,0.1,0,0.2l-0.6,2.1c-0.1,0.4-0.5,0.6-0.9,0.5
		c-0.4-0.1-0.6-0.5-0.5-0.9l0.6-2.1C198.1,101.4,198.4,101.2,198.7,101.2z"/>
	<path class="st2" d="M231.8,147.6c0.4,0,0.7,0.3,0.7,0.7s-0.3,0.7-0.7,0.7h-2.2c-0.4,0-0.7-0.3-0.7-0.7s0.3-0.7,0.7-0.7H231.8z"/>
	<path class="st3" d="M213.9,142.1h9c0.1,0,0.1,0,0.2,0c1.3,0.1,2.2,1.2,2.2,2.5c-0.1,1.2-1,2.1-2.1,2.2c-0.1,0-0.1,0-0.2,0h-9
		c-1.3,0-2.3-1-2.3-2.3S212.6,142.1,213.9,142.1L213.9,142.1z"/>
	<path class="st4" d="M223.8,146.6c-1.5-0.2-2.7-2.1-2.7-4.5h0.3c0,2.3,1.2,4.1,2.7,4.1v0.2L223.8,146.6z"/>
	<path class="st4" d="M220.5,146.6v-0.3c-1.5,0-2.7-1.9-2.7-4.1h-0.3C217.6,144.6,218.9,146.6,220.5,146.6z"/>
	<path class="st4" d="M217.1,146.6v-0.3c-1.5,0-2.7-1.9-2.7-4.1h-0.3C214.1,144.6,215.4,146.6,217.1,146.6z"/>
	<path class="st3" d="M197.6,142.1h9c0.1,0,0.1,0,0.2,0c1.3,0.1,2.2,1.2,2.2,2.5c-0.1,1.2-1,2.1-2.1,2.2c-0.1,0-0.1,0-0.2,0h-9
		c-1.3,0-2.3-1-2.3-2.3S196.4,142.1,197.6,142.1L197.6,142.1L197.6,142.1z"/>
	<path class="st4" d="M207.5,146.6c-1.5-0.2-2.7-2.1-2.7-4.5h0.3c0,2.3,1.2,4.1,2.7,4.1v0.2L207.5,146.6z"/>
	<path class="st4" d="M204.3,146.6v-0.3c-1.5,0-2.7-1.9-2.7-4.1h-0.3C201.3,144.6,202.6,146.6,204.3,146.6z"/>
	<path class="st4" d="M200.8,146.6v-0.3c-1.5,0-2.7-1.9-2.7-4.1h-0.3C197.8,144.6,199.1,146.6,200.8,146.6z"/>
	<path class="st5" d="M214.6,119.8c1.2-0.6,2.6,0.1,3.2,1.2c0.7,1.4,0.1,3-0.7,4.2c-0.9,1.2-2,2.2-2.6,3.6c-1.1,2.7-0.1,5.9,2.4,7.4
		c0.5,0.3,0,1.2-0.5,0.9c-2.4-1.5-3.7-4.4-3.2-7.2c0.1-0.7,0.4-1.4,0.7-2.1c0.4-0.7,0.8-1.3,1.3-1.8c0.9-1,2-2.1,2-3.6
		c0-0.2,0-0.4,0-0.6c0-0.1-0.1-0.3-0.1-0.4c-0.1-0.3-0.3-0.5-0.5-0.7c-0.2-0.2-0.5-0.3-0.7-0.3c-0.2,0-0.4,0-0.6,0.1
		C214.5,121,214,120.1,214.6,119.8L214.6,119.8z"/>
	<path class="st5" d="M199.6,125.8c1-0.3,2.1-0.1,2.9,0.7c0.4,0.4,0.6,1,0.5,1.5c-0.1,0.6-0.5,1.1-0.9,1.6c-0.8,0.8-1.9,1.4-2.6,2.4
		c-0.3,0.4-0.5,0.9-0.5,1.4c0,0.5,0,0.9,0.2,1.3c0.5,1,1.5,1.7,2.6,2.2c0.2,0.1,0.3,0.5,0.2,0.7c-0.1,0.2-0.4,0.3-0.7,0.2
		c-1.9-0.8-3.8-2.7-3.2-5c0.3-1.2,1.1-2,2.1-2.8c0.5-0.3,0.9-0.7,1.3-1.1c0.3-0.3,0.7-0.8,0.6-1.3c0-0.2-0.1-0.3-0.2-0.4
		c-0.1-0.1-0.3-0.2-0.5-0.3c-0.4-0.2-1-0.2-1.4-0.1c-0.3,0.1-0.5-0.1-0.6-0.3C199.2,126.2,199.3,125.9,199.6,125.8L199.6,125.8z"/>
	<path class="st5" d="M207.2,111.7c0.3-0.3,0.7-0.4,1.1-0.4c0.4,0,0.7,0.1,1,0.3c0.7,0.5,1.2,1.2,1.4,2.1c0.5,1.9-0.2,4-1.1,5.7
		c-0.5,0.9-1,1.7-1.5,2.5c-0.4,0.8-0.8,1.7-1,2.6c-0.5,1.9-0.5,3.8-0.1,5.7c0.4,1.9,1.2,3.7,2.7,5c0.2,0.2,0.2,0.5,0,0.7
		c-0.2,0.2-0.5,0.2-0.7,0c-1.3-1.1-2.1-2.7-2.6-4.3c-0.6-1.8-0.7-3.7-0.5-5.6c0.1-0.9,0.3-1.9,0.6-2.8c0.3-0.9,0.8-1.8,1.3-2.6
		c0.9-1.6,1.9-3.2,2.1-5.1c0.1-0.9,0-1.9-0.6-2.6c0,0,0,0,0,0c0,0-0.1-0.1-0.1-0.1c-0.1-0.1-0.1-0.1-0.2-0.2c0,0,0.1,0,0,0
		c0,0-0.1-0.1-0.1-0.1c0,0-0.1,0-0.1-0.1c0,0,0,0-0.1,0c0,0,0,0,0,0c0,0-0.2-0.1-0.1,0c0,0-0.1,0-0.1,0c0,0-0.1,0-0.1,0
		c0.1,0-0.1,0-0.1,0c0,0-0.1,0-0.1,0c0.1,0-0.2,0.1-0.1,0.1c-0.2,0.2-0.5,0.2-0.7,0C207,112.2,206.9,111.8,207.2,111.7L207.2,111.7z
		"/>
	<polygon class="st6" points="246.2,185.1 251.7,186.6 261.8,139.7 250.5,138.7 	"/>
	<polygon class="st6" points="271.4,185.8 277.1,186.7 282.1,139 270.6,139.2 	"/>
	<path class="st6" d="M274.4,117.9l-0.5,9.7c-0.1,1.4,1,2.6,2.4,2.6c0.1,0,0.2,0,0.4,0l0,0c1.2-0.1,2.2-1.1,2.3-2.3l0.9-10.8
		l7.4-25.2L287,75.8l-8.8,0.5L274.4,117.9z"/>
	<path class="st7" d="M269.6,141.8c4.4-1.5,9.5-1.8,15.3-0.9c-0.8-9.8-1.3-18.8-0.9-26.1h-30L269.6,141.8z"/>
	<path class="st7" d="M248.7,141.6c4.5,2.4,11.1,3.5,18.7,4.1l9.5-30.2l-23.2-0.5L248.7,141.6z"/>
	<path class="st7" d="M237,190l16.3,0.6c2.1,0.1,2.2-1.7,1.8-3.8l-1.9-5.5c-4.4,4.3-4.8,4.5-6.6-1.6l-5.7,4.5l-4.2,0.7
		c-1.2,0.2-2.1,1.3-2.1,2.5l0,0C234.5,188.8,235.6,190,237,190z"/>
	<path class="st7" d="M261.7,190l16.3,0.6c2.1,0.1,2.2-1.7,1.8-3.8l-1.9-5.5c-4.4,4.3-4.8,4.5-6.6-1.6l-5.7,4.5l-4.2,0.7
		c-1.2,0.2-2.1,1.3-2.1,2.5l0,0C259.3,188.8,260.3,190,261.7,190z"/>
	<circle class="st6" cx="257.9" cy="43.1" r="8.8"/>
	<polygon class="st6" points="262.4,58.7 272.8,55.5 265.8,45.1 257.9,48.5 	"/>
	<path class="st2" d="M252.7,117.5c10.7,2.4,22.5,1.4,32.7-1.4c-2.4-13.6-1.3-28.2,1.1-40.1c1.9-9.3-3.1-17.1-11.3-21
		c-1.8-0.6-3.6-1-5.5-1.2c-5.8-0.5-10.8,3.8-11.4,9.6L252.7,117.5z"/>
	<polygon class="st2" points="280.4,80.5 287.9,79.6 285.6,67.9 280.4,67.9 	"/>
	<path class="st7" d="M258,44.5l1.3-0.6c1.2-0.5,2.5,0,3,1.2c0.1,0.1,0.1,0.2,0.1,0.4l0,0l1.9,3.4l4.7-0.7l-0.2-7.2
		c-0.9-5.5-6-9.2-11.5-8.4c-0.2,0-0.4,0.1-0.6,0.1l-0.1,0c-2.3,0.5-5.2,2.2-6.8,4l-2.9,3.3c-0.4,0.5-0.4,1.2,0.1,1.6
		c0.2,0.2,0.4,0.2,0.6,0.3l3.9,0.4L258,44.5z"/>
	<path class="st2" d="M256.5,78.7c2.7-2.6,6.2-2.7,10.1-1.6V65c0-3-2.4-5.5-5.5-5.5l0,0c-2.8,0-5,2.2-5,5c0,0,0,0.1,0,0.1
		L256.5,78.7z"/>
	<path class="st5" d="M261,132.1L261,132.1c-0.3,0.5-1,0.7-1.5,0.3l-40.2-25.4l1.2-1.8l40.2,25.4C261.2,131,261.4,131.6,261,132.1z"
		/>
	<path class="st5" d="M260.9,132.2L260.9,132.2c-0.4,0.4-1.1,0.5-1.5,0.1l-35.3-31.8l1.5-1.6l35.3,31.8
		C261.3,131.1,261.3,131.8,260.9,132.2z"/>
	<path class="st6" d="M253.4,117.9l-0.5,9.7c-0.1,1.4,1,2.6,2.4,2.6c0.1,0,0.2,0,0.4,0l0,0c1.2-0.1,2.2-1.1,2.3-2.3l0.9-10.8
		l7.4-25.2L266,75.8l-8.8,0.5L253.4,117.9z"/>
</g>
</svg>
