<?xml version="1.0" encoding="utf-8"?>
<!-- Generator: Adobe Illustrator 24.3.0, SVG Export Plug-In . SVG Version: 6.00 Build 0)  -->
<svg version="1.1" id="圖層_1" xmlns="http://www.w3.org/2000/svg" xmlns:xlink="http://www.w3.org/1999/xlink" x="0px" y="0px"
	 viewBox="0 0 295.5 193.3" style="enable-background:new 0 0 295.5 193.3;" xml:space="preserve">
<style type="text/css">
	.st0{fill:#8B6731;}
	.st1{fill:#3E3C54;}
	.st2{opacity:0.2;fill:#040000;enable-background:new    ;}
</style>
<g>
	<g>
		<path class="st0" d="M42.2,82.2l-9.8-1.5c-0.7-0.1-1.4,0.6-1.6,1.5L30,87.8c-0.1,0.9,0.3,1.8,1,1.9l1.6,0.2l-1.3,8.4l6.6,1
			l1.3-8.4l1.6,0.2c0.7,0.1,1.4-0.6,1.6-1.5l0.8-5.6C43.4,83.1,43,82.3,42.2,82.2z"/>
		<path class="st1" d="M44.4,134.7c-4.3-12.3-5.3-26.3-2.9-40.1c0.1-0.7-0.2-1.3-0.6-1.5l0.4-2.4l-10.4-1.6l-0.4,2.4l-0.1,0
			c-0.6-0.1-1.2,0.5-1.3,1.2c0,0,0,0.1,0,0.1c-1.4,14.9-6.1,27.7-14.2,38.4c-0.5,0.6-0.8,1.4-0.9,2.2l-5.7,45.6
			c-0.3,2.1,0.8,4,2.4,4.2l23.4,3.5c1.6,0.2,3.2-1.3,3.6-3.4l7.1-44C45,137.8,44.9,136.2,44.4,134.7z"/>
		<path class="st2" d="M39.9,83.7c-0.3,2-1.8,3.4-3.4,3.2s-2.6-2.1-2.3-4.1"/>
		<path class="st0" d="M38.4,149.3l-2.8-0.4c0.2-5.4-3.1-9.5-7.3-9.3c-3.3,0.2-6.3,3-7.4,7.1l-2.8-0.4c-1.2-0.2-2.3,0.9-2.5,2.4
			c0,0.1,0,0.3,0,0.4l-0.8,26.4l17.7,2.7l7.6-25.3c0.4-1.4-0.1-3-1.2-3.4C38.7,149.3,38.5,149.3,38.4,149.3z"/>
	</g>
	<path class="st0" d="M66.6,81.2l-10.4,2c-0.8,0.1-1.2,1-1.1,1.9l1,5.5c0.2,0.9,0.9,1.6,1.7,1.4l1.7-0.3l1.6,8.3l6.9-1.3l-1.6-8.3
		l1.7-0.3c0.8-0.1,1.2-1,1.1-1.9l-1-5.5C68.1,81.7,67.4,81.1,66.6,81.2z"/>
	<path class="st1" d="M86.6,130c-8.5-10.1-14.3-23-16.6-36.8c-0.1-0.7-0.6-1.2-1.1-1.2l-0.5-2.4l-11,2.1l0.4,2.4l-0.2,0
		c-0.6,0.1-1,0.8-0.9,1.6c0,0,0,0.1,0,0.1c3.6,14.5,3.2,28.2-1.3,41.1c-0.3,0.7-0.3,1.6-0.1,2.4l9.7,44.9c0.5,2.1,2.2,3.5,3.9,3.2
		l24.8-4.7c1.7-0.3,2.8-2.3,2.5-4.4l-7.8-43.9C88.3,132.7,87.6,131.2,86.6,130z"/>
	<path class="st2" d="M64.8,83.5c0.4,2-0.6,3.9-2.3,4.2s-3.3-1.1-3.7-3.1"/>
	<path class="st0" d="M85.5,145.8l-3,0.6c-1.7-5.1-6.4-7.9-10.5-6.3c-3.3,1.3-5.3,5-5.1,9.3l-3,0.6c-1.2,0.2-2,1.6-1.7,3.1
		c0,0.1,0.1,0.3,0.1,0.4l8.1,25.2l18.7-3.5l-0.9-26.5c-0.1-1.5-1.1-2.8-2.4-2.8C85.8,145.7,85.6,145.7,85.5,145.8z"/>
</g>
</svg>
