<?xml version="1.0" encoding="utf-8"?>
<!-- Generator: Adobe Illustrator 24.3.0, SVG Export Plug-In . SVG Version: 6.00 Build 0)  -->
<svg version="1.1" id="圖層_1" xmlns="http://www.w3.org/2000/svg" xmlns:xlink="http://www.w3.org/1999/xlink" x="0px" y="0px"
	 viewBox="0 0 295.5 193.3" style="enable-background:new 0 0 295.5 193.3;" xml:space="preserve">
<style type="text/css">
	.st0{fill:#3E3C54;}
	.st1{fill:#4B4B68;}
	.st2{fill:#E6936C;}
	.st3{fill:#E9637E;}
	.st4{opacity:0.2;fill:#040000;enable-background:new    ;}
	.st5{fill:#E5E5E4;}
	.st6{fill:#F4B3B4;}
	.st7{fill:#2E2D40;}
</style>
<g>
	<rect x="69.1" y="146.4" class="st0" width="2" height="1.2"/>
	<rect x="73.1" y="146.4" class="st0" width="2" height="1.2"/>
	<rect x="77.1" y="146.4" class="st0" width="2" height="1.2"/>
	<rect x="81.1" y="146.4" class="st0" width="2" height="1.2"/>
	<rect x="85.1" y="146.4" class="st0" width="2" height="1.2"/>
	<rect x="89.1" y="146.4" class="st0" width="2" height="1.2"/>
	<rect x="93.1" y="146.4" class="st0" width="2" height="1.2"/>
	<rect x="97" y="146.4" class="st0" width="2" height="1.2"/>
	<rect x="101" y="146.4" class="st0" width="2" height="1.2"/>
	<rect x="105" y="146.4" class="st0" width="2" height="1.2"/>
	<rect x="109" y="146.4" class="st0" width="2" height="1.2"/>
	<path class="st1" d="M115.5,147.1c0,13.2-10.7,23.9-23.9,23.9s-23.9-10.7-23.9-23.9H115.5z"/>
	<path class="st1" d="M114.4,147.3L99.2,102c12.5-4.2,26,2.5,30.3,15l0,0c0.2,0.5,0.3,1,0.4,1.4
		C133.1,130.6,126.4,143.2,114.4,147.3z"/>
	<circle class="st1" cx="115" cy="147.8" r="3"/>
	<path class="st2" d="M84.6,153.3c-0.5,0-0.8,0.4-0.8,0.8s0.4,0.8,0.8,0.8h14.3c0.5,0,0.8-0.4,0.8-0.8s-0.4-0.8-0.8-0.8H84.6z"/>
	<polygon class="st1" points="111.5,190.3 108.5,190.4 97.8,167.4 100.5,166.2 	"/>
	<polygon class="st1" points="71.8,190.3 74.8,190.4 85.5,167.4 82.8,166.2 	"/>
	<rect x="79.4" y="177.1" class="st1" width="24.6" height="1.7"/>
	<path class="st2" d="M99.8,101.1c-0.4,0-0.7,0.3-0.7,0.7c0,0.1,0,0.1,0,0.2l0.6,2.1c0.1,0.4,0.5,0.6,0.9,0.5s0.6-0.5,0.5-0.9
		l-0.6-2.1C100.4,101.3,100.1,101.1,99.8,101.1z"/>
	<path class="st2" d="M66.7,147.5c-0.4,0-0.7,0.3-0.7,0.7s0.3,0.7,0.7,0.7h2.2c0.4,0,0.7-0.3,0.7-0.7s-0.3-0.7-0.7-0.7H66.7z"/>
	<path class="st3" d="M84.6,142h-9c-0.1,0-0.1,0-0.2,0c-1.3,0.1-2.2,1.2-2.2,2.5c0.1,1.2,1,2.1,2.1,2.2c0.1,0,0.1,0,0.2,0h9
		c1.3,0,2.3-1,2.3-2.3S85.9,142,84.6,142L84.6,142z"/>
	<path class="st4" d="M74.7,146.5c1.5-0.2,2.7-2.1,2.7-4.5h-0.3c0,2.3-1.2,4.1-2.7,4.1v0.2L74.7,146.5z"/>
	<path class="st4" d="M78,146.5v-0.3c1.5,0,2.7-1.9,2.7-4.1H81C80.9,144.5,79.6,146.5,78,146.5z"/>
	<path class="st4" d="M81.4,146.5v-0.3c1.5,0,2.7-1.9,2.7-4.1h0.3C84.4,144.5,83.1,146.5,81.4,146.5z"/>
	<path class="st3" d="M100.9,142h-9c-0.1,0-0.1,0-0.2,0c-1.3,0.1-2.2,1.2-2.2,2.5c0.1,1.2,1,2.1,2.1,2.2c0.1,0,0.1,0,0.2,0h9
		c1.3,0,2.3-1,2.3-2.3S102.1,142,100.9,142L100.9,142L100.9,142z"/>
	<path class="st4" d="M91,146.5c1.5-0.2,2.7-2.1,2.7-4.5h-0.3c0,2.3-1.2,4.1-2.7,4.1v0.2L91,146.5z"/>
	<path class="st4" d="M94.2,146.5v-0.3c1.5,0,2.7-1.9,2.7-4.1h0.3C97.2,144.5,95.9,146.5,94.2,146.5z"/>
	<path class="st4" d="M97.7,146.5v-0.3c1.5,0,2.7-1.9,2.7-4.1h0.3C100.7,144.5,99.4,146.5,97.7,146.5z"/>
	<path class="st5" d="M83.9,119.7c-1.2-0.6-2.6,0.1-3.2,1.2c-0.7,1.4-0.1,3,0.7,4.2c0.9,1.2,2,2.2,2.6,3.6c1.1,2.7,0.1,5.9-2.4,7.4
		c-0.5,0.3,0,1.2,0.5,0.9c2.4-1.5,3.7-4.4,3.2-7.2c-0.1-0.7-0.4-1.4-0.7-2.1c-0.4-0.7-0.8-1.3-1.3-1.8c-0.9-1-2-2.1-2-3.6
		c0-0.2,0-0.4,0-0.6c0-0.1,0.1-0.3,0.1-0.4c0.1-0.3,0.3-0.5,0.5-0.7s0.5-0.3,0.7-0.3s0.4,0,0.6,0.1C84,120.9,84.5,120,83.9,119.7
		L83.9,119.7z"/>
	<path class="st5" d="M98.9,125.7c-1-0.3-2.1-0.1-2.9,0.7c-0.4,0.4-0.6,1-0.5,1.5c0.1,0.6,0.5,1.1,0.9,1.6c0.8,0.8,1.9,1.4,2.6,2.4
		c0.3,0.4,0.5,0.9,0.5,1.4s0,0.9-0.2,1.3c-0.5,1-1.5,1.7-2.6,2.2c-0.2,0.1-0.3,0.5-0.2,0.7s0.4,0.3,0.7,0.2c1.9-0.8,3.8-2.7,3.2-5
		c-0.3-1.2-1.1-2-2.1-2.8c-0.5-0.3-0.9-0.7-1.3-1.1c-0.3-0.3-0.7-0.8-0.6-1.3c0-0.2,0.1-0.3,0.2-0.4c0.1-0.1,0.3-0.2,0.5-0.3
		c0.4-0.2,1-0.2,1.4-0.1c0.3,0.1,0.5-0.1,0.6-0.3C99.3,126.1,99.2,125.8,98.9,125.7L98.9,125.7z"/>
	<path class="st5" d="M91.3,111.6c-0.3-0.3-0.7-0.4-1.1-0.4c-0.4,0-0.7,0.1-1,0.3c-0.7,0.5-1.2,1.2-1.4,2.1c-0.5,1.9,0.2,4,1.1,5.7
		c0.5,0.9,1,1.7,1.5,2.5c0.4,0.8,0.8,1.7,1,2.6c0.5,1.9,0.5,3.8,0.1,5.7c-0.4,1.9-1.2,3.7-2.7,5c-0.2,0.2-0.2,0.5,0,0.7
		s0.5,0.2,0.7,0c1.3-1.1,2.1-2.7,2.6-4.3c0.6-1.8,0.7-3.7,0.5-5.6c-0.1-0.9-0.3-1.9-0.6-2.8s-0.8-1.8-1.3-2.6
		c-0.9-1.6-1.9-3.2-2.1-5.1c-0.1-0.9,0-1.9,0.6-2.6l0,0l0.1-0.1c0.1-0.1,0.1-0.1,0.2-0.2c0,0-0.1,0,0,0l0.1-0.1c0,0,0.1,0,0.1-0.1
		c0,0,0,0,0.1,0l0,0c0,0,0.2-0.1,0.1,0H90h0.1c-0.1,0,0.1,0,0.1,0h0.1c-0.1,0,0.2,0.1,0.1,0.1c0.2,0.2,0.5,0.2,0.7,0
		C91.5,112.1,91.6,111.7,91.3,111.6L91.3,111.6z"/>
	<polygon class="st6" points="52.3,185 46.8,186.5 36.7,139.6 48,138.6 	"/>
	<polygon class="st6" points="27.1,185.7 21.4,186.6 16.4,138.9 27.9,139.1 	"/>
	<path class="st6" d="M24.1,117.8l0.5,9.7c0.1,1.4-1,2.6-2.4,2.6c-0.1,0-0.2,0-0.4,0l0,0c-1.2-0.1-2.2-1.1-2.3-2.3L18.6,117
		l-7.4-25.2l0.3-16.1l8.8,0.5L24.1,117.8z"/>
	<path class="st7" d="M28.9,141.7c-4.4-1.5-9.5-1.8-15.3-0.9c0.8-9.8,1.3-18.8,0.9-26.1h30L28.9,141.7z"/>
	<path class="st7" d="M49.8,141.5c-4.5,2.4-11.1,3.5-18.7,4.1l-9.5-30.2l23.2-0.5L49.8,141.5z"/>
	<path class="st7" d="M61.5,189.9l-16.3,0.6c-2.1,0.1-2.2-1.7-1.8-3.8l1.9-5.5c4.4,4.3,4.8,4.5,6.6-1.6l5.7,4.5l4.2,0.7
		c1.2,0.2,2.1,1.3,2.1,2.5l0,0C64,188.7,62.9,189.9,61.5,189.9z"/>
	<path class="st7" d="M36.8,189.9l-16.3,0.6c-2.1,0.1-2.2-1.7-1.8-3.8l1.9-5.5c4.4,4.3,4.8,4.5,6.6-1.6l5.7,4.5l4.2,0.7
		c1.2,0.2,2.1,1.3,2.1,2.5l0,0C39.2,188.7,38.2,189.9,36.8,189.9z"/>
	<ellipse transform="matrix(0.9732 -0.2298 0.2298 0.9732 -8.7865 10.4765)" class="st6" cx="40.6" cy="43" rx="8.8" ry="8.8"/>
	<polygon class="st6" points="36.1,58.6 25.7,55.4 32.7,45 40.6,48.4 	"/>
	<path class="st2" d="M45.8,117.4c-10.7,2.4-22.5,1.4-32.7-1.4c2.4-13.6,1.3-28.2-1.1-40.1c-1.9-9.3,3.1-17.1,11.3-21
		c1.8-0.6,3.6-1,5.5-1.2c5.8-0.5,10.8,3.8,11.4,9.6L45.8,117.4z"/>
	<polygon class="st2" points="18.1,80.4 10.6,79.5 12.9,67.8 18.1,67.8 	"/>
	<path class="st7" d="M40.5,44.4l-1.3-0.6c-1.2-0.5-2.5,0-3,1.2c-0.1,0.1-0.1,0.2-0.1,0.4l0,0l-1.9,3.4l-4.7-0.7l0.2-7.2
		c0.9-5.5,6-9.2,11.5-8.4c0.2,0,0.4,0.1,0.6,0.1h0.1c2.3,0.5,5.2,2.2,6.8,4l2.9,3.3c0.4,0.5,0.4,1.2-0.1,1.6
		c-0.2,0.2-0.4,0.2-0.6,0.3L47,42.2L40.5,44.4z"/>
	<path class="st2" d="M42,78.6c-2.7-2.6-6.2-2.7-10.1-1.6V64.9c0-3,2.4-5.5,5.5-5.5l0,0c2.8,0,5,2.2,5,5v0.1L42,78.6z"/>
	<path class="st5" d="M37.5,132L37.5,132c0.3,0.5,1,0.7,1.5,0.3l40.2-25.4l-1.2-1.8l-40.2,25.4C37.3,130.9,37.1,131.5,37.5,132z"/>
	<path class="st5" d="M37.6,132.1L37.6,132.1c0.4,0.4,1.1,0.5,1.5,0.1l35.3-31.8l-1.5-1.6l-35.3,31.8
		C37.2,131,37.2,131.7,37.6,132.1z"/>
	<path class="st6" d="M45.1,117.8l0.5,9.7c0.1,1.4-1,2.6-2.4,2.6c-0.1,0-0.2,0-0.4,0l0,0c-1.2-0.1-2.2-1.1-2.3-2.3L39.6,117
		l-7.4-25.2l0.3-16.1l8.8,0.5L45.1,117.8z"/>
</g>
</svg>
