<?xml version="1.0" encoding="utf-8"?>
<!-- Generator: Adobe Illustrator 24.3.0, SVG Export Plug-In . SVG Version: 6.00 Build 0)  -->
<svg version="1.1" id="圖層_1" xmlns="http://www.w3.org/2000/svg" xmlns:xlink="http://www.w3.org/1999/xlink" x="0px" y="0px"
	 viewBox="0 0 465.4 587.2" style="enable-background:new 0 0 465.4 587.2;" xml:space="preserve">
<style type="text/css">
	.st0{fill:#9EAC3A;}
	.st1{fill:#652323;}
	.st2{fill:#5A652D;}
	.st3{fill:#565EA9;}
	.st4{fill:#86584B;}
	.st5{fill:#C89C89;}
	.st6{opacity:0.1;fill:none;stroke:#040000;stroke-width:0.3361;stroke-miterlimit:10;enable-background:new    ;}
	.st7{fill:url(#SVGID_1_);}
	.st8{fill:#346251;}
	.st9{fill:#274B3D;}
	.st10{fill:#2F5A4A;}
	.st11{fill:#528171;}
	.st12{fill:#2B5E4C;}
	.st13{fill:#315F4D;}
	.st14{opacity:0.1;fill:#040000;enable-background:new    ;}
	.st15{fill:#335F4F;}
	.st16{fill:#265946;}
	.st17{fill:#315F4E;}
	.st18{opacity:0.1;}
	.st19{fill:#040000;}
	.st20{fill:url(#SVGID_2_);}
	.st21{fill:#FFFFFF;}
	.st22{fill:#949394;}
	.st23{fill:#CC8481;}
	.st24{fill:#F7F7F7;}
	.st25{fill:#333333;}
	.st26{fill:#E4ECF5;}
	.st27{fill:#4051A1;}
	.st28{fill:url(#SVGID_3_);}
	.st29{fill:#15152C;}
	.st30{fill:#F9D0C5;}
	.st31{fill:#EBC1B9;}
	.st32{fill:none;}
	.st33{fill:#4A6373;}
	.st34{fill:#040205;}
	.st35{fill:#141534;}
	.st36{fill:#F5B5B5;}
	.st37{fill:#504F7F;}
	.st38{fill:#4F4E5F;}
	.st39{fill:#554B2E;}
	.st40{fill:#FBE4EA;}
	.st41{fill:#B5811C;}
	.st42{fill:#5B401C;}
	.st43{fill:#D19534;}
	.st44{fill:#D69C22;}
	.st45{fill:#636463;}
	.st46{fill:#3A52A3;}
	.st47{fill:#0F1534;}
	.st48{fill:#CCDAEF;}
	.st49{fill:#F2F9F4;}
	.st50{opacity:5.000000e-02;fill:#040000;enable-background:new    ;}
	.st51{fill:#1F234E;}
	.st52{fill:#1C1636;}
	.st53{fill:#F2F2F2;}
	.st54{fill:#5A2C48;}
	.st55{opacity:0.2;fill:#040000;enable-background:new    ;}
	.st56{fill:#848587;}
	.st57{fill:#2C2E13;}
	.st58{fill:#A2A64A;}
	.st59{fill:#8B8B3D;}
	.st60{fill:#565C2A;}
	.st61{fill:#474D24;}
	.st62{fill:#52504A;}
	.st63{fill:#303030;}
	.st64{fill:#255277;}
	.st65{fill:#5F352B;}
	.st66{fill:#565657;}
	.st67{fill:#856F57;}
	.st68{fill:#E3617E;}
	.st69{fill:#3A2428;}
	.st70{fill:#ECA56C;}
	.st71{fill:#BBCFE4;}
	.st72{fill:#B27574;}
	.st73{fill:#F9D3D8;}
	.st74{fill:#555785;}
	.st75{fill:#C99680;}
	.st76{fill:#9C6E5E;}
	.st77{fill:#E8EAF2;}
	.st78{fill:#EDCCC6;}
	.st79{fill:#F5E1DE;}
	.st80{fill:#FDF9F9;}
	.st81{opacity:0.3;fill:#42312E;enable-background:new    ;}
	.st82{fill:#EAEAEA;}
	.st83{fill:#DEA7B1;}
	.st84{fill:#F6BDC3;}
	.st85{fill:#153159;}
	.st86{fill:#555783;}
	.st87{fill:#CC8386;}
	.st88{fill:#F0EFEF;}
	.st89{fill:#42312E;}
	.st90{opacity:0.2;fill:#FFFFFF;enable-background:new    ;}
	.st91{fill:#F0DBDB;}
</style>
<g>
	<g>
		
			<rect x="51.3" y="193.4" transform="matrix(0.6923 -0.7216 0.7216 0.6923 -112.6325 123.4776)" class="st56" width="74.4" height="0.9"/>
	</g>
	<g>
		
			<rect x="383.7" y="156.6" transform="matrix(0.7213 -0.6926 0.6926 0.7213 -27.1779 320.094)" class="st56" width="0.9" height="74.4"/>
	</g>
	<polygon class="st57" points="359.1,165.5 236.3,150.7 236.3,17.2 	"/>
	<polygon class="st57" points="113.6,165.5 236.3,150.7 236.3,17.2 	"/>
	<path class="st58" d="M236.3,17.2v205H131.5c9.8-45.2,14-75.2,12-89L236.3,17.2z"/>
	<path class="st59" d="M236.3,17.2v205h104.8c-9.8-45.2-14-75.2-12-89L236.3,17.2z"/>
	<path class="st60" d="M236.3,17.2v16.3c-0.5,0.7-1.1,1.4-1.6,2.1c-38.2,50.4-78.8,97.5-130.4,141.5c-0.4,0.3-0.7,0.6-1.1,0.9
		l0.3-0.5L234.8,19.1L236.3,17.2z"/>
	<polygon class="st57" points="270.5,222.2 202.2,222.2 234.8,90.5 236.3,84.1 237.9,90.5 	"/>
	<path class="st60" d="M236.3,84.1l-31.5,127.3l-2.7,10.7l-13.6-10.4L153,186.7C195.7,167.3,218.1,127.8,236.3,84.1z"/>
	<path class="st61" d="M236.3,84.1l31.5,127.3l2.7,10.7l13.6-10.4l35.6-25.1C277,167.3,254.6,127.8,236.3,84.1z"/>
	<polygon class="st61" points="270.5,222.2 202.2,222.2 204.8,211.5 267.9,211.5 	"/>
	<g>
		<path class="st62" d="M63.8,222.2h-2.3v-3.6c0-0.5-0.3-1-0.8-1.2c-0.5-0.2-1-0.2-1.4,0.2l-1.5-1.7c1.1-0.9,2.6-1.1,3.9-0.5
			c1.3,0.6,2.1,1.9,2.1,3.3V222.2z"/>
	</g>
	<path class="st61" d="M236.3,17.2v16.3c0.5,0.7,1.1,1.4,1.6,2.1c38.2,50.4,78.8,97.5,130.4,141.5c0.4,0.3,0.7,0.6,1.1,0.9l-0.3-0.5
		L237.9,19.1L236.3,17.2z"/>
	<g>
		<path class="st62" d="M411.1,222.2h-2.3v-3.6c0-1.4,0.8-2.7,2.1-3.3c1.3-0.6,2.8-0.4,3.9,0.5l-1.5,1.7c-0.4-0.3-0.9-0.4-1.4-0.2
			c-0.5,0.2-0.8,0.7-0.8,1.2V222.2z"/>
	</g>
</g>
<g>
	<path class="st14" d="M383,288.4c0,0,4.5-2.7,10.6-1.3c6.1,1.3,15.5,0.6,16.4,0.5L383,288.4z"/>
	<path class="st14" d="M408.1,244.4c0,0-1.9,22.1-3.2,26.4C403.6,275.1,408.1,244.4,408.1,244.4z"/>
	<path class="st63" d="M258.2,330.5c0,0,0.6,2.9-0.1,4.7s-0.6,5.8-0.1,7.2c0.5,1.4,2.3,3.3-2.5,4.2s-7.9,0.1-8.1-0.6
		c-0.2-0.7-1.2-3.5-0.4-5s1.1-5.6-0.4-8c-1.5-2.3-0.5-6,0.9-6.4c1.4-0.4,7.7-4.1,7.7-4.1s-2.3,4,0.2,4.9
		C256.7,327.8,257.8,329,258.2,330.5z"/>
	<path class="st64" d="M310.2,308.3c0,0-9.5,6.6-13.7,8.4c-4.1,1.8-17.9,8.3-17.9,8.3s-13.9,1.8-16.1,4.7c-2.2,2.9-5.4,6.3-5.4,6.3
		l-2.5-13.7c0,0,27.3-14.1,27.5-15.1c0.2-1,8.1-4-14.8-3.9c-20,0.1-27.4,1.4-29.1-1.4c-0.2-0.4-0.4-0.9-0.4-1.4
		c-0.2-4.6,26.9-24.9,26.9-24.9s1.3,0.7,2.9,1.6c1.7,1,3.8,2.3,4.7,3.3c1.8,1.9,6.2,2.5,6.2,2.5l26.6,8.3c0,0,7.8,2.5,8.1,9.4
		S310.2,308.3,310.2,308.3z"/>
	<path class="st65" d="M275.6,307.6c0,0,7.7,29.5,8.3,32.1c0.6,2.5,0.6,7.1,0.6,7.1s2.9-0.2,3.3-0.6c0.4-0.4-1.5-9-1.5-9l0.6-24
		l-8.2-6.9L275.6,307.6z"/>
	<rect x="255.5" y="323.5" class="st23" width="6" height="5.2"/>
	<path class="st66" d="M259.8,330.5c0,0,0.6,2.9-0.1,4.7s-0.6,5.8-0.1,7.2c0.5,1.4,2.3,3.3-2.5,4.2c-4.7,0.9-7.9,0.1-8.1-0.6
		c-0.2-0.7-1.2-3.5-0.4-5s1.1-5.6-0.4-8c-1.5-2.3-0.5-6,0.9-6.4c1.4-0.4,7.7-4.1,7.7-4.1s-2.3,4,0.2,4.9
		C258.4,327.8,259.5,329,259.8,330.5z"/>
	<path class="st67" d="M265.6,273c0,0,14.6,4.4,16.3,5.2c1.7,0.8,7.7,3.5,6.7,7.2s-9.2,4.1-9.2,4.1l-12.5-4.6l-4.9-10L265.6,273z"/>
	<path class="st30" d="M270.4,221.7c0,0-0.7,1.1-1.7,2.8c-0.1,0.1-0.2,0.3-0.2,0.4c-2.7,4.8-6.9,13.3-4.2,16
		c3.8,3.9-8.6-2.2-8.6-2.2l-0.3-0.5l-5.1-9.2c0,0,4-4,6.4-7.6c0-0.1,0.1-0.1,0.1-0.2c1.1-1.6,1.8-3.1,1.6-4s1-0.9,2.7-0.3
		C264.6,218.3,270.4,221.7,270.4,221.7z"/>
	<path class="st14" d="M270.4,221.7c0,0-0.7,1.1-1.7,2.8c-0.1,0.1-0.2,0.3-0.2,0.4c-1.8,0.7-3.7,0.9-5.5,0.6
		c-2.5-0.5-4.7-1.8-6.2-3.9c0-0.1-0.1-0.1-0.1-0.2c0-0.1,0.1-0.1,0.1-0.2c1.1-1.6,1.8-3.1,1.6-4s1-0.9,2.7-0.3
		C264.6,218.3,270.4,221.7,270.4,221.7z"/>
	<path class="st30" d="M274.5,215.6c0,5.4-4.4,9.8-9.8,9.8l0,0c-0.6,0-1.2-0.1-1.8-0.2c-5.3-1-8.9-6.1-7.9-11.4
		c1-5.3,6.1-8.9,11.4-7.9C271.1,206.8,274.5,210.9,274.5,215.6L274.5,215.6z"/>
	<path class="st14" d="M272,209.1c-0.6,0.2-1,0.6-1.5,0.9c-0.9,0.5-2.2,0.5-3.1,1c-0.7,0.4-0.7,1.3-1.1,2.1c-0.8,1.9-3.9,2.4-5.2,4
		c-0.1,0.1-0.2,0.3-0.3,0.4c-0.7,1.3-0.3,2.8,0.3,4.1c0.5,1.3,1.1,2.5,1.8,3.7c0.1,0.2,0.2,0.4,0.4,0.6c0.7,1.2,1.6,2.6,1.1,3.9
		c-0.7,2.1-4.4,2.6-5.4,4.7c-0.3,0.6-0.4,1.3-0.7,1.9c-0.6,1-1.7,1.5-3,2l-5.1-9.2c0,0,4.1-4.2,6.5-7.7c-3.2-4.4-2.2-10.5,2.1-13.7
		C263,204.7,268.7,205.3,272,209.1L272,209.1z"/>
	<path class="st54" d="M275.3,207c-0.5-0.6-1.4-1-1.8-1.7c-0.2-0.4-0.3-0.9-0.4-1.3c-0.4-1.4-1.5-2.4-2.8-2.9
		c-1.4-0.5-3-0.5-4.5,0.1c-0.7,0.3-1.2,0.7-1.9,0.9c-1.4,0.5-3.1,0.2-4.5-0.2c-1.5-0.4-2.9-0.9-4.5-0.9c-1.5,0-3.2,0.8-3.5,2.1
		c-0.1,0.3-0.1,0.7-0.1,1c-0.2,1.5-1.6,2.8-3.1,3.7c-1.5,0.9-3.3,1.4-4.7,2.4c-1.4,1-2.5,2.5-2.2,4.1c0.2,0.9,1,1.7,1.6,2.5
		c1.5,2.1,2.2,4.5,2.7,6.9c0.2,0.8,0.4,1.7,0.2,2.5c-0.4,1.5-1.9,2.6-2.9,3.8c-1.3,1.6-1.7,3.6-1.6,5.5c0.1,1.9,0.7,3.8,1.3,5.6
		c0.2,0.7,0.5,1.4,0.9,2c0.7,1.1,2,1.8,3.2,2.4c0.5,0.3,1.2,0.5,1.8,0.6c1.4,0,2.1-1.3,2.4-2.4c0.2-0.9,0.3-1.9,0.3-2.8
		c-0.1-0.3,0-0.7,0.1-1c0.2-0.3,0.5-0.6,0.8-0.7c1.9-1.2,4.9-1.4,5.9-3.2c0.3-0.6,0.4-1.3,0.7-1.9c1.1-2,4.7-2.5,5.4-4.7
		c0.5-1.3-0.4-2.7-1.1-3.9c-0.8-1.4-1.6-2.8-2.2-4.3c-0.6-1.3-1-2.8-0.3-4.1c1.2-1.9,4.6-2.3,5.5-4.4c0.3-0.7,0.3-1.6,1.1-2.1
		c0.9-0.5,2.2-0.5,3.1-1c0.6-0.4,1-0.8,1.8-1c1-0.2,2.3,0.6,3.2,0.2C275.9,208.5,275.7,207.5,275.3,207z"/>
	<path class="st14" d="M275.2,207c-0.5-0.6-1.4-1-1.8-1.7c-0.2-0.4-0.3-0.9-0.4-1.3c-0.4-1.3-1.3-2.3-2.6-2.8c0.6,0.5,1.1,1.2,1.3,2
		c0.1,0.4,0.2,0.9,0.4,1.3c0.4,0.7,1.2,1.1,1.8,1.7c0.4,0.5,0.6,1.5-0.1,1.8c-0.8,0.4-2.2-0.4-3.2-0.2c-0.8,0.2-1.2,0.6-1.8,1
		c-0.9,0.5-2.2,0.5-3.1,1c-0.7,0.4-0.7,1.3-1.1,2.1c-0.9,2-4.4,2.4-5.6,4.4c-0.7,1.3-0.3,2.8,0.3,4.1c0.6,1.5,1.4,2.9,2.2,4.3
		c0.7,1.2,1.6,2.6,1.2,3.9c-0.7,2.1-4.4,2.6-5.5,4.7c-0.3,0.6-0.4,1.3-0.7,1.9c-1,1.8-3.9,2-5.9,3.2c-0.3,0.2-0.6,0.4-0.8,0.7
		c-0.1,0.3-0.1,0.7-0.1,1c0.1,1,0,1.9-0.3,2.8c-0.3,1.1-1.1,2.4-2.4,2.4c-0.6,0-1.3-0.2-1.8-0.6c-0.3-0.1-0.5-0.3-0.8-0.4
		c0.7,0.5,1.3,0.9,2,1.2c0.5,0.3,1.2,0.5,1.8,0.6c1.3,0,2.1-1.3,2.4-2.4c0.2-0.9,0.3-1.9,0.3-2.8c-0.1-0.3,0-0.7,0.1-1
		c0.2-0.3,0.5-0.6,0.8-0.7c1.9-1.2,4.9-1.4,5.9-3.2c0.3-0.6,0.4-1.3,0.7-1.9c1.1-2,4.7-2.5,5.4-4.7c0.5-1.3-0.4-2.7-1.1-3.9
		c-0.8-1.4-1.6-2.8-2.2-4.3c-0.6-1.3-1-2.8-0.3-4.1c1.2-1.9,4.6-2.3,5.5-4.4c0.3-0.7,0.3-1.6,1.1-2.1c0.9-0.5,2.2-0.5,3.1-1
		c0.6-0.4,1-0.8,1.8-1c1-0.2,2.3,0.6,3.2,0.2C275.8,208.5,275.6,207.5,275.2,207z"/>
	<path class="st68" d="M382.9,252.2c0,0,1.5,6.4,4.9,9.8l1.3-2.9l-1.7-5.3L382.9,252.2z"/>
	<path class="st14" d="M387.4,253.7l-4.5-1.5c0,0,1.5,6.4,4.9,9.8"/>
	<path class="st30" d="M442.3,267.5L442.3,267.5c-1.4,1.1-3.3,0.9-4.4-0.4L425,252.7l-0.3-0.4l6.7-7.7l1.2,0.8l0.3,0.5
		c1,1.8,4.8,8.3,6,9.4C440.4,256.5,443.9,266.1,442.3,267.5z"/>
	<path class="st69" d="M316.6,308.7c0,0-3.4,3.5-5.8,3.9c-2.4,0.3-4.3,7.9-1,8.5c3.3,0.6,9.6-1.8,10.5-2.8c0.9-1,4.3-7,4.3-7
		L316.6,308.7z"/>
	<path class="st30" d="M388.7,259.2l-1.7,0.9c-2.6,1.4-7.3,4-7.9,3.9c-0.8-0.1-1-8-1-8l4.5-3.3l0.5-0.3l1.3-0.5L388.7,259.2z"/>
	<path class="st14" d="M388.7,259.2l-1.7,0.9c-0.3-3-2-5.7-4.4-7.4l0.5-0.3l1.3-0.5L388.7,259.2z"/>
	<path class="st70" d="M398.2,250l-5.2,9.3l-3.6,1.9l-1.6,0.8c0.4-7-4.9-9.8-4.9-9.8c1.5-0.3,10.4-8.4,11.8-9.5l0.2-0.1l1.2-0.2
		L398.2,250z"/>
	<path class="st4" d="M414.6,300.1l-4.4-3.4l14.4-47.9l5.1,1.9l-3.9,7.6l-4.3,23.7C421.6,282.1,419,299,414.6,300.1z"/>
	<path class="st30" d="M431.7,243.6l-15.2-0.1c0,0-13.3,3.7-12.2-1.7c0.7-3.4-1-7.5-2.3-10.2c-0.2-0.3-0.3-0.6-0.5-0.9
		c-0.6-1.1-1-1.7-1-1.7s1.6-0.3,3.6-0.5c0.9-0.1,1.9-0.3,2.9-0.4l0,0c0.5-0.1,1-0.1,1.5-0.2c2-0.2,3.5-0.2,3.5,0.1s0.3,1.1,0.8,2.1
		c0.1,0.2,0.2,0.3,0.3,0.5c0.7,1.3,1.5,2.5,2.4,3.7c0.5,0.6,1.1,1.2,1.7,1.6c0.2,0.2,0.5,0.3,0.7,0.4c0.4,0.2,0.8,0.3,1.2,0.4
		c1.7,0.3,3.3-0.5,5.5,0.2C427.6,237.8,431.7,243.6,431.7,243.6z"/>
	<path class="st4" d="M351.3,281.1c0,0-12.8,7.1-13.6,9.8c-0.8,2.8,1.9,5,1.9,5s0.4,2.4,0.6,4.2c0.2,1.8,2.2,19.2,3.2,20.7
		c1,1.5,0.2,6.9,0.2,6.9h3.1l-0.2-8.4c0,0-3.5-24.7-0.6-27.2c2.9-2.5,5.3-5.4,6.2-5.2C352.9,287.3,351.3,281.1,351.3,281.1z"/>
	<path class="st71" d="M335.5,271.1c0,0-8.4,16-8.6,18.2c-0.2,2.2-7.3,11.4-7.3,11.4l8.9,11.2c0,0,1.2-2.9,3.2-3.9
		c2-1,1.6-3.3,1.6-3.3s2.1,0,3.6-2.5c1.5-2.5,3.4-5,3.4-6.1c0-1.1,11.1-12.5,11.1-12.5l-0.8-12.2l-2.3-3.9L335.5,271.1z"/>
	<path class="st14" d="M313.7,272L313.7,272c-1.1,1-12.5,11.1-12.5,11.3s-4.1,7.1,1,12.9c5.1,5.9,16.9,15.5,16.9,15.5
		s5.1,3.7,5.8,4.5s10.8,0,4.8-6.9s-11.8-14.6-11.8-14.6s10.1-2.4,10.7-4.1c0.7-1.7-13.3-22.7-13.3-22.7L313.7,272z"/>
	<path class="st71" d="M313.4,272L313.4,272c-1.1,1-12.5,11.1-12.5,11.3s-4.1,7,1,12.9c5.1,5.9,16.9,15.5,16.9,15.5s5.1,3.7,5.8,4.5
		s10.8,0,4.8-6.9s-11.8-14.6-11.8-14.6s10.1-2.4,10.7-4.1c0.7-1.7,13.9-22.2,13.9-22.2l-27.2-0.4L313.4,272z"/>
	<path class="st72" d="M342.4,226.9l-1,9.2c0,0-10.3,4.1-10.6,4c-0.3-0.1-6.9-6-5.8-10c0.5-2,0.8-4.7,0.9-7c0.1-2.2,0.1-4,0.1-4
		s15-5.4,13.7-1.7c-0.5,1.3-0.3,3,0.2,4.5C340.5,223.7,341.4,225.3,342.4,226.9z"/>
	<path class="st23" d="M250.6,207.8L250.6,207.8c-1.2,2.6-2.1,5.2-2.9,7.9l-0.1,0.4c-0.5,1.8-0.7,3.6-0.6,5.5c0.2,4,2.2,4.9,2.2,4.9
		s-30.7-5-25.7-5.9c0.8-0.1,1.7-0.6,2.6-1.4c1.7-1.4,3.6-3.7,5.2-6c0.6-0.9,1.2-1.7,1.7-2.6c0-0.1,0.1-0.1,0.1-0.2
		c2-3.1,3.4-5.8,3.4-5.8S257.8,191.8,250.6,207.8z"/>
	<path class="st65" d="M402.8,306c0,0,7.7,29.5,8.3,32.1c0.6,2.5,0.6,7.1,0.6,7.1s2.9-0.2,3.3-0.6s-1.5-9-1.5-9l0.6-24l-8.2-6.9
		L402.8,306z"/>
	<path class="st4" d="M407.3,296.6c0.2,0,7.7,0.2,7.7,0.2l0.6,5.3c0,0-0.2,10.1,0.3,11.6c0.6,1.5,5.5,28.9,5.5,28.9s1.6,9.6,1.5,12
		l-3.6,0.8c0,0,0.7-2.1-0.3-5.9c-1.1-3.9-3.1-11.1-3.1-11.1l-2.6-11.9c0,0-0.4-21.1-16.6-20.1c-16.2,0.9-17.1,12.5-17.1,12.5
		s-5.5,22.7-6.4,25.5c-0.9,2.8-1.5,9.7-1.5,9.7l-3.7-0.3l1.2-18.3l3.4-37.7l10.5-0.7L407.3,296.6z"/>
	<path class="st65" d="M244.3,310.8c0,0-7.7,29.6-8.3,32.1c-0.6,2.5-0.6,7.1-0.6,7.1s-2.9-0.2-3.3-0.6c-0.4-0.4,1.5-9,1.5-9l-0.6-24
		l8.2-6.9L244.3,310.8z"/>
	<path class="st4" d="M239.8,301.4c-0.2,0-7.7,0.2-7.7,0.2l-0.6,5.3c0,0,0.2,10.1-0.3,11.6s-5.5,28.9-5.5,28.9s-1.6,9.6-1.5,12
		l3.6,0.8c0,0-0.7-2.1,0.3-5.9c1.1-3.9,3.1-11.1,3.1-11.1l2.6-11.9c0,0,0.4-21.1,16.6-20.1c16.2,0.9,17.1,12.5,17.1,12.5
		s5.5,22.7,6.4,25.5c0.9,2.8,1.5,9.7,1.5,9.7l3.7-0.3l-1.2-18.3l-3.4-37.7l-10.5-0.7L239.8,301.4z"/>
	<path class="st14" d="M339.9,221.9c-0.1,0.1-0.2,0.2-0.3,0.3c-3.6,3.8-9.6,4.2-13.7,0.9c0.1-2.2,0.1-4,0.1-4s15-5.4,13.7-1.7
		C339.2,218.8,339.5,220.4,339.9,221.9z"/>
	<path class="st72" d="M342.4,215c0,5.6-4.5,10.1-10.1,10.1c-5.6,0-10.1-4.5-10.1-10.1s4.5-10.1,10.1-10.1l0,0c5.5,0,10,4.4,10.1,10
		C342.4,214.9,342.4,214.9,342.4,215z"/>
	<path class="st64" d="M311.9,308.3c0,0-9.5,6.6-13.7,8.4c-4.1,1.8-17.9,8.3-17.9,8.3s-13.9,1.8-16.1,4.7c-2.2,2.9-5.4,6.3-5.4,6.3
		l-2.5-13.7c0,0,27.3-14.1,27.5-15.1c0.2-1,8.1-4-14.8-3.9c-20,0.1-27.4,1.4-29.1-1.4c-0.2-0.4-0.4-0.9-0.4-1.4
		c-0.2-4.6,26.9-24.9,26.9-24.9s1.3,0.7,2.9,1.6c1.7,1,3.8,2.3,4.7,3.3c1.8,1.9,6.2,2.5,6.2,2.5l26.6,8.3c0,0,7.8,2.4,8.1,9.4
		C315.2,307.7,311.9,308.3,311.9,308.3z"/>
	<path class="st14" d="M330,236.4c0,0-3.9-8.7-5.3-8.7s-3.4,45.2-3.4,45.2l20.6,0.3l0.8-23.7l-4.2-21.1
		C338.5,228.4,334.7,236.7,330,236.4z"/>
	<path class="st14" d="M330,237c0,0-3.9-8.7-5.3-8.7s-3.4,45.2-3.4,45.2l23.3,0.4l-1.9-23.8l-4.2-21.1
		C338.5,229,334.7,237.3,330,237z"/>
	<path class="st73" d="M330,236.7c0,0-3.9-8.7-5.3-8.7s-3.4,45.2-3.4,45.2l23.3,0.3l-1.9-23.8l-4.2-21.1
		C338.5,228.7,334.7,237,330,236.7z"/>
	<path class="st14" d="M326.2,225.2c0,0-0.7-1-1.7-0.7c-1,0.3-1.8-0.6-2.8,0.3c-1,0.9-5,2.2-5.8,1.8c-0.8-0.4-3.4,1.4-4,2.5
		s-2.5,4-2.5,4s-1.7,2-1.4,3.1c0.3,1.1-0.6,2.3-1.6,2.9s-3,5.5-3,5.5s-2.2,4.6-4.4,5.8c-2.3,1.2-0.6,6.3-0.6,6.3l13.4-0.4l3-6.9
		c0,0-1.2,20.1-2.6,22c-1.4,1.9-1.6,3-1.6,3s5.5,1.2,6.7,2.2c1.2,1,4.3-0.3,4.3-0.3l3-26.8c0,0,1.1-5,1.1-7.6
		C325.6,239.4,326.2,225.2,326.2,225.2z"/>
	<path class="st74" d="M325.8,225.2c0,0-0.7-1-1.7-0.7c-1,0.3-1.8-0.6-2.8,0.3c-1,0.9-5,2.2-5.8,1.8c-0.8-0.4-3.4,1.4-4,2.5
		s-2.5,4-2.5,4s-1.7,2-1.4,3.1c0.3,1.1-0.6,2.3-1.6,2.9s-3,5.5-3,5.5s-2.2,4.6-4.4,5.8c-2.3,1.2-0.6,6.3-0.6,6.3l13.4-0.4l3.1-6.9
		c0,0-1.2,20.1-2.6,22c-1.4,1.9-1.6,3-1.6,3s5.5,1.2,6.7,2.2s4.3-0.3,4.3-0.3l3-26.8c0,0,1.1-5,1.1-7.6S325.8,225.2,325.8,225.2z"/>
	<path class="st14" d="M307.3,239.8c0,0,1,2.8,3.8,2.5S307.3,239.8,307.3,239.8z"/>
	<path class="st14" d="M310,235.6c0,0,1.8,0.3,2.5,1.9C313.2,239.1,310,235.6,310,235.6z"/>
	<path class="st14" d="M315.2,232.7c0,0.3,1.2,6.2,0,8.6c-1.2,2.4-1,5.3-1,5.3L315.2,232.7z"/>
	<path class="st14" d="M340,223.2c0,0,0.7-0.8,1.3-0.7c0.7,0.1,1.1,0.5,1.9,0.8c0.8,0.3,2.9,0.4,2.9,0.7s1.8,1.3,2.9,1.5
		c1.2,0.3,4.9,2.8,5.8,7.6c0.9,4.9,2.5,6.3,2.5,6.3l-8.9,4.4c0,0,6.9,29.2,7.7,31.3s0.9,14.5,0.9,14.5s-5.5,2.4-6.9,3.2
		s-0.8-7.2-3.8-11.8c-2.9-4.6-6.3-11.3-6.3-11.3l-5.1-14.4c0,0-3.3-19.1-0.5-22.7C337.3,229.1,340.3,224.4,340,223.2z"/>
	<path class="st74" d="M340.3,223.2c0,0,0.7-0.8,1.3-0.7c0.7,0.1,1.1,0.5,1.9,0.8c0.8,0.3,2.9,0.4,2.9,0.7s1.8,1.3,2.9,1.5
		c1.2,0.3,4.9,2.8,5.8,7.6c0.9,4.9,2.5,6.3,2.5,6.3l-8.9,4.4c0,0,6.9,29.2,7.7,31.3s0.9,14.5,0.9,14.5s-5.5,2.4-6.9,3.2
		s-0.8-7.2-3.8-11.8c-2.9-4.6-6.3-11.3-6.3-11.3l-5.1-14.4c0,0-3.3-19.1-0.5-22.7C337.6,229.1,340.6,224.4,340.3,223.2z"/>
	<path class="st14" d="M358.5,259.9c-0.2,0-0.6,0.1-0.9,0.1c-2.7,0.2-8,0.3-8,0.3s-3.9-7.8-7.3-7.6c0,0,3.1-3.5,4.4-3.1
		c0.2,0.1,0.3-0.1,0.4-0.4c0.3-1.5-0.8-6.7-0.8-6.7l-1.6-7l9.2,2.3c0.8,0.2,3.4,1.5,3.4,1.5s0.1,3.6,0.8,4.5
		c0.7,0.8,1.4,4.9,1.3,5.9c-0.1,1,0.9,5.7-0.1,7C358.4,258,360.6,259.6,358.5,259.9z"/>
	<path class="st74" d="M358.9,259.9c-0.2,0-0.6,0.1-0.9,0.1c-2.7,0.2-8,0.3-8,0.3s-3.9-7.8-7.3-7.6c0,0,3.1-3.5,4.4-3.1
		c0.2,0.1,0.3-0.1,0.4-0.4c0.3-1.5-0.8-6.7-0.8-6.7l-1.6-7l9.2,2.3c0.8,0.2,3.4,1.5,3.4,1.5s0.1,3.6,0.8,4.5
		c0.7,0.8,1.4,4.9,1.3,5.9c-0.1,1,0.9,5.7-0.1,7C358.7,258,361,259.6,358.9,259.9z"/>
	<path class="st14" d="M349.4,241.6c0,0,7.7,0.8,8.1,2.8C357.8,246.3,349.4,241.6,349.4,241.6z"/>
	<path class="st69" d="M324,314.9c0,0-0.5,2.8,0.1,4.5c0.6,1.8,0.5,5.6,0.1,7c-0.4,1.3-1.8,3.2,2,4c3.8,0.8,6.5,0.1,6.6-0.6
		c0.2-0.7,1-3.4,0.3-4.9c-0.7-1.5-0.9-5.5,0.3-7.7c1.3-2.3,0.4-5.8-0.8-6.2c-1.2-0.4-3.2-1.3-3.2-1.3s2.2,3.9,0.2,4.8
		C327.7,315.3,324,314.9,324,314.9z"/>
	<path class="st14" d="M342.4,215c0,2.6-1,5-2.7,6.9c0,0,0,0,0,0c-0.3-0.6-0.6-1.3-0.6-2c0-0.8,0.5-1.6,0.7-2.4
		c0.2-1.1-0.1-2.1-0.5-3.1c-0.3-0.7-0.7-1.6-1.5-1.6c-0.2,0-0.3,0.1-0.5,0.1c-0.4-0.1-0.5-0.6-0.5-1c-0.3-2-1.8-3.6-3.8-4
		c-0.2-0.1-0.5,0-0.7,0c-0.3,0.1-0.5,0.4-0.7,0.6c-0.9,0.6-1.9-0.5-3-0.5c-0.9,0.1-1.4,1-1.8,1.8c-0.4,0.8-0.8,1.7-1.7,1.9
		c-0.1,0-0.3,0-0.4,0c-0.3-0.2-0.1-0.6,0.1-0.9c0.4-0.8,0.1-1.4-0.3-2c3.5-4.3,9.8-5.1,14.1-1.6C341,209,342.4,211.9,342.4,215
		L342.4,215z"/>
	<path class="st25" d="M324.8,210.3c-0.1,0.3-0.3,0.7,0,0.9c0.1,0.1,0.3,0.1,0.4,0c0.9-0.2,1.3-1.1,1.7-1.9c0.4-0.8,0.9-1.7,1.8-1.8
		c1-0.1,2.1,1,3,0.5c0.3-0.2,0.4-0.5,0.7-0.6c0.2-0.1,0.4-0.1,0.7,0c2,0.4,3.5,2,3.8,4c0,0.4,0.1,1,0.5,1c0.2,0,0.3,0,0.5-0.1
		c0.8-0.1,1.3,0.8,1.5,1.6c0.3,1,0.7,2.1,0.5,3.1c-0.2,0.8-0.6,1.6-0.7,2.4c0,0.7,0.3,1.4,0.6,2s0.8,1.4,1.5,1.3
		c0.6-0.1,0.9-0.7,1.2-1.2c0.3-0.5,0.8-1,1.3-0.9c0.2,0.1,0.5,0.3,0.7,0.2c0.1-0.1,0.2-0.2,0.2-0.4c0.3-1.2-0.1-2.5,0.5-3.6
		c0.4-0.8,1.3-1.3,2.1-1.8c2.5-2,3-5.7,0.9-8.3c0-0.1-0.1-0.1-0.1-0.2c-0.8-0.9-1.9-1.7-1.9-2.9c0-0.9,0.6-1.7,0.6-2.7
		c0-0.9-0.6-1.7-1.2-2.3c-1.9-1.7-4.5-2.4-7-1.8c-0.6,0.2-1.3,0.4-2,0.3c-0.8-0.1-1.4-0.6-2.1-1c-2.4-1.1-5.2-0.3-6.7,1.8
		c-0.8,1.2-1.1,2.9-2.3,3.7c-0.8,0.6-1.9,0.8-2.3,1.6c-0.3,0.5-0.2,1.1-0.1,1.7c0.1,0.9,0.6,1.8,1.3,2.4
		C324.7,208.5,325.3,209.2,324.8,210.3z"/>
	<polygon class="st75" points="315.1,337.8 315,354.1 311.9,353.9 300.9,264.5 304.2,264.4 306.5,264.3 	"/>
	<polygon class="st76" points="315,354.1 311.9,353.9 300.9,264.5 304.2,264.4 304.1,264.9 	"/>
	<polygon class="st75" points="329.7,264.6 318.7,353.3 316.6,353.8 315,354.1 315.1,337.8 324.8,265 325,265 	"/>
	<polygon class="st76" points="316.6,353.7 316.6,353.8 315,354.1 315.1,337.8 324.8,265 325,265 327,265.4 	"/>
	<polygon class="st76" points="355.1,319.2 354.8,325 354.2,340.5 343.8,264.5 346.1,264.3 346.9,264.2 	"/>
	<polygon class="st75" points="355.1,319.2 354.8,325 346.3,265 346.1,264.3 346.9,264.2 	"/>
	<polygon class="st76" points="358,291.9 358.2,328.9 356.8,328.9 353.8,328.8 355,264 357.3,264.2 358.4,264.4 	"/>
	<polygon class="st75" points="358,291.9 358.2,328.9 356.8,328.9 357.3,264.2 358.4,264.4 	"/>
	<polygon class="st76" points="261.8,263.7 262,261.2 276.4,261.3 319.8,260.6 353.3,262.4 374.7,262.9 374.9,265.2 320.1,266.2 	
		"/>
	<polygon class="st75" points="262,261.2 304.8,263 374.7,262.9 322.4,259.7 	"/>
	<path class="st14" d="M250.6,207.8L250.6,207.8c-1.2,2.6-2.1,5.2-2.9,7.9l-0.1,0.4c-1.2,0.3-2.4,0.5-3.6,0.5c-3.2,0-4.7-3.4-7-5.4
		c-0.9-0.8-3.2,0.5-3.8-0.4c0-0.1-0.1-0.1-0.1-0.2c0-0.1,0.1-0.1,0.1-0.2c2-3.1,3.4-5.8,3.4-5.8S257.8,191.8,250.6,207.8z"/>
	<path class="st23" d="M257,203.3c0,7.1-5.8,12.9-12.9,12.9c-7.1,0-12.9-5.8-12.9-12.9c0-7.1,5.8-12.9,12.9-12.9
		c4.9,0,9.4,2.8,11.6,7.2C256.5,199.3,257,201.3,257,203.3z"/>
	<path class="st14" d="M249.2,226.4c0,0-30.7-5-25.7-5.9c0.8-0.1,1.7-0.6,2.6-1.4c0.2,0.2,0.3,0.5,0.4,0.7l5.7-0.7
		c0,0,7.3-1.6,10.2,0.2c1.4,0.9,3,1.5,4.5,2.1C247.2,225.5,249.2,226.4,249.2,226.4z"/>
	<path class="st14" d="M269.4,277.2c-0.2,0.1-0.4,0.2-0.6,0.3c-1.5,0.4-3.2,7.2-3.2,7.2S247,302.6,240,301.9
		c-0.2-0.4-0.4-0.9-0.4-1.4c-0.2-4.6,26.9-24.9,26.9-24.9S267.9,276.3,269.4,277.2z"/>
	<path class="st77" d="M318.5,258.4c0,1.7-3,3.4-6.6,3.4s-6.6-1.7-6.6-3.4c0-1.7,3-2.7,6.6-2.7C315.5,255.7,318.5,256.7,318.5,258.4
		z"/>
	<path class="st14" d="M318.5,258.4c0,1.7-3,3.4-6.6,3.4s-6.6-1.7-6.6-3.4c0-1.7,3-2.7,6.6-2.7C315.5,255.7,318.5,256.7,318.5,258.4
		z"/>
	<ellipse class="st77" cx="311.9" cy="258.4" rx="6.6" ry="3.1"/>
	<ellipse class="st50" cx="311.9" cy="258.5" rx="4" ry="1.6"/>
	<path class="st78" d="M321.1,254.8c-0.1-0.8-1.2-1.4-2.6-1.4c-0.4,0-0.7,0-1.1,0.1c-1.9,0.3-3.3,1.4-3.2,2.4
		c0.1,0.8,1.2,1.4,2.6,1.4c0.4,0,0.8,0,1.2-0.1C319.8,257,321.2,255.9,321.1,254.8z M317.8,256.7c-0.2,0-0.4,0.1-0.6,0.1
		c-1.1,0-2-0.4-2.1-1c-0.1-0.8,0.9-1.5,2.3-1.8c0.3-0.1,0.7-0.1,1,0c0.9,0.1,1.6,0.4,1.7,1C320.2,255.7,319.2,256.5,317.8,256.7z"/>
	<path class="st78" d="M315.1,258.2c0,0.2-0.1,0.3-0.2,0.4c-0.4,0.5-1.6,0.9-3,0.9c-1.3,0-2.4-0.3-2.9-0.8c-0.2-0.1-0.2-0.3-0.3-0.5
		c0-0.8,1.4-1.4,3.1-1.4C313.7,256.9,315.1,257.5,315.1,258.2z"/>
	<path class="st14" d="M315.1,258.2c0,0.2-0.1,0.3-0.2,0.4c-0.8,0.4-1.7,0.6-2.7,0.6h-0.7c-0.8,0-1.7-0.2-2.4-0.5
		c-0.2-0.1-0.2-0.3-0.3-0.5c0-0.8,1.4-1.4,3.1-1.4C313.7,256.9,315.1,257.5,315.1,258.2z"/>
	<path class="st14" d="M318.4,253.4c0,0.2,0,0.4,0,0.6c-0.3,0-0.7,0-1,0c-1.4,0.2-2.4,1-2.3,1.8c0.1,0.6,1,1,2.1,1
		c-0.1,0.2-0.3,0.4-0.5,0.6c-1.4,0-2.5-0.6-2.6-1.4c-0.2-1,1.2-2.1,3.2-2.4C317.7,253.4,318,253.4,318.4,253.4z"/>
	<path class="st78" d="M305.5,252.3v0.9c0,3.3,2.7,6,6,6l0,0h0.8c3.3,0,6-2.7,6-6v-0.9H305.5z"/>
	<ellipse class="st79" cx="311.8" cy="252.1" rx="6.4" ry="1.8"/>
	<ellipse class="st14" cx="311.9" cy="252" rx="6.1" ry="1.7"/>
	<ellipse class="st80" cx="311.9" cy="251.9" rx="6" ry="1.7"/>
	<path class="st81" d="M307.5,252.4c-0.1,0-0.2-0.1-0.2-0.2c0-0.1,0.1-0.2,0.2-0.2s0.2,0.1,0.2,0.2c0,0,0,0,0,0
		C307.7,252.3,307.6,252.4,307.5,252.4z M307.5,252.1c-0.1,0-0.1,0-0.1,0.1c0,0.1,0,0.1,0.1,0.1c0.1,0,0.1,0,0.1-0.1
		C307.6,252.2,307.6,252.1,307.5,252.1L307.5,252.1z"/>
	<path class="st81" d="M307.7,252c-0.1,0-0.2-0.1-0.2-0.2c0-0.1,0.1-0.2,0.2-0.2c0.1,0,0.2,0.1,0.2,0.2c0,0,0,0,0,0
		C307.9,252,307.8,252,307.7,252z M307.7,251.8c-0.1,0-0.1,0-0.1,0.1c0,0.1,0,0.1,0.1,0.1s0.1,0,0.1-0.1c0,0,0,0,0,0
		C307.8,251.8,307.8,251.8,307.7,251.8z"/>
	<path class="st81" d="M307.5,251.5c-0.1,0-0.2-0.1-0.2-0.2c0-0.1,0.1-0.2,0.2-0.2s0.2,0.1,0.2,0.2v0
		C307.7,251.4,307.6,251.5,307.5,251.5z M307.5,251.2c-0.1,0-0.1,0-0.1,0.1s0,0.1,0.1,0.1c0.1,0,0.1,0,0.1-0.1c0,0,0,0,0,0
		C307.6,251.3,307.6,251.2,307.5,251.2z"/>
	<path class="st81" d="M308.8,252.7c-0.1,0-0.2-0.1-0.2-0.2c0-0.1,0.1-0.2,0.2-0.2c0.1,0,0.2,0.1,0.2,0.2c0,0,0,0,0,0
		C308.9,252.7,308.9,252.7,308.8,252.7z M308.8,252.5c-0.1,0-0.1,0-0.1,0.1c0,0,0,0,0,0c0,0.1,0,0.1,0.1,0.1s0.1,0,0.1-0.1
		c0,0,0,0,0,0C308.9,252.5,308.8,252.5,308.8,252.5C308.8,252.5,308.8,252.5,308.8,252.5z"/>
	<path class="st81" d="M313.7,252.4c-0.1,0-0.2-0.1-0.2-0.2s0.1-0.2,0.2-0.2s0.2,0.1,0.2,0.2S313.8,252.4,313.7,252.4z M313.7,252.1
		c-0.1,0-0.1,0-0.1,0.1s0,0.1,0.1,0.1l0,0c0.1,0,0.1,0,0.1-0.1S313.8,252.1,313.7,252.1z"/>
	<path class="st81" d="M314.8,252.8c-0.1,0-0.2-0.1-0.2-0.2c0-0.1,0.1-0.2,0.2-0.2s0.2,0.1,0.2,0.2l0,0
		C315,252.8,314.9,252.8,314.8,252.8z M314.8,252.6c-0.1,0-0.1,0-0.1,0.1c0,0.1,0,0.1,0.1,0.1c0.1,0,0.1,0,0.1-0.1
		C314.9,252.6,314.9,252.6,314.8,252.6C314.8,252.6,314.8,252.6,314.8,252.6L314.8,252.6z"/>
	<path class="st81" d="M314.8,252.1c-0.1,0-0.2-0.1-0.2-0.2c0-0.1,0.1-0.2,0.2-0.2c0.1,0,0.2,0.1,0.2,0.2v0
		C315,252.1,314.9,252.1,314.8,252.1z M314.8,251.9c-0.1,0-0.1,0-0.1,0.1c0,0.1,0,0.1,0.1,0.1c0.1,0,0.1,0,0.1-0.1c0,0,0,0,0,0
		C314.9,251.9,314.9,251.9,314.8,251.9z"/>
	<path class="st81" d="M315.4,251c-0.1,0-0.2-0.1-0.2-0.2c0-0.1,0.1-0.2,0.2-0.2c0.1,0,0.2,0.1,0.2,0.2l0,0
		C315.5,250.9,315.5,251,315.4,251C315.4,251,315.4,251,315.4,251z M315.4,250.7c-0.1,0-0.1,0-0.1,0.1c0,0.1,0,0.1,0.1,0.1
		c0.1,0,0.1,0,0.1-0.1c0,0,0,0,0,0C315.5,250.8,315.4,250.7,315.4,250.7C315.4,250.7,315.4,250.7,315.4,250.7L315.4,250.7z"/>
	<path class="st81" d="M315.1,252.6c-0.1,0-0.2-0.1-0.2-0.2c0-0.1,0.1-0.2,0.2-0.2c0.1,0,0.2,0.1,0.2,0.2c0,0,0,0,0,0
		C315.3,252.5,315.2,252.6,315.1,252.6z M315.1,252.3c-0.1,0-0.1,0-0.1,0.1s0,0.1,0.1,0.1c0.1,0,0.1,0,0.1-0.1c0,0,0,0,0,0
		C315.2,252.3,315.2,252.3,315.1,252.3C315.1,252.3,315.1,252.3,315.1,252.3L315.1,252.3z"/>
	<path class="st81" d="M315.7,252.2c-0.1,0-0.2-0.1-0.2-0.2c0-0.1,0.1-0.2,0.2-0.2c0.1,0,0.2,0.1,0.2,0.2c0,0,0,0,0,0
		C315.9,252.1,315.8,252.2,315.7,252.2z M315.7,251.9c-0.1,0-0.1,0-0.1,0.1s0,0.1,0.1,0.1s0.1,0,0.1-0.1c0,0,0,0,0,0
		C315.8,252,315.8,252,315.7,251.9L315.7,251.9z"/>
	<path class="st81" d="M315.7,252.6c-0.1,0-0.2-0.1-0.2-0.2c0-0.1,0.1-0.2,0.2-0.2c0.1,0,0.2,0.1,0.2,0.2c0,0,0,0,0,0
		C315.8,252.5,315.7,252.6,315.7,252.6C315.7,252.6,315.7,252.6,315.7,252.6z M315.7,252.3c-0.1,0-0.1,0-0.1,0.1
		c0,0.1,0,0.1,0.1,0.1c0,0,0,0,0,0c0.1,0,0.1,0,0.1-0.1C315.8,252.4,315.7,252.4,315.7,252.3C315.7,252.3,315.7,252.3,315.7,252.3z"
		/>
	<path class="st81" d="M315.5,251.6c-0.1,0-0.2-0.1-0.2-0.2c0-0.1,0.1-0.2,0.2-0.2s0.2,0.1,0.2,0.2v0
		C315.6,251.5,315.6,251.6,315.5,251.6z M315.5,251.3c-0.1,0-0.1,0-0.1,0.1s0,0.1,0.1,0.1c0.1,0,0.1,0,0.1-0.1c0,0,0,0,0,0
		C315.6,251.4,315.5,251.3,315.5,251.3L315.5,251.3z"/>
	<path class="st81" d="M316.4,251.4c-0.1,0-0.2-0.1-0.2-0.2c0-0.1,0.1-0.2,0.2-0.2c0.1,0,0.2,0.1,0.2,0.2v0
		C316.5,251.3,316.5,251.4,316.4,251.4z M316.4,251.1c-0.1,0-0.1,0-0.1,0.1s0,0.1,0.1,0.1c0.1,0,0.1,0,0.1-0.1c0,0,0,0,0,0
		C316.5,251.2,316.4,251.1,316.4,251.1L316.4,251.1L316.4,251.1z"/>
	<path class="st81" d="M313.7,251c-0.1,0-0.2-0.1-0.2-0.2s0.1-0.2,0.2-0.2s0.2,0.1,0.2,0.2S313.8,251,313.7,251z M313.7,250.7
		c-0.1,0-0.1,0-0.1,0.1s0,0.1,0.1,0.1l0,0c0.1,0,0.1,0,0.1-0.1S313.8,250.7,313.7,250.7z"/>
	<path class="st81" d="M313.1,250.7c-0.1,0-0.2-0.1-0.2-0.2c0-0.1,0.1-0.2,0.2-0.2c0.1,0,0.2,0.1,0.2,0.2v0
		C313.2,250.7,313.2,250.7,313.1,250.7z M313.1,250.5c-0.1,0-0.1,0-0.1,0.1c0,0.1,0,0.1,0.1,0.1c0.1,0,0.1,0,0.1-0.1c0,0,0,0,0,0
		C313.2,250.5,313.1,250.5,313.1,250.5C313.1,250.4,313.1,250.4,313.1,250.5L313.1,250.5z"/>
	<path class="st81" d="M311.7,250.8c-0.1,0-0.2-0.1-0.2-0.2c0-0.1,0.1-0.2,0.2-0.2c0.1,0,0.2,0.1,0.2,0.2c0,0,0,0,0,0
		C311.8,250.7,311.8,250.8,311.7,250.8z M311.7,250.5c-0.1,0-0.1,0-0.1,0.1s0,0.1,0.1,0.1s0.1,0,0.1-0.1c0,0,0,0,0,0
		C311.8,250.6,311.7,250.5,311.7,250.5z"/>
	<path class="st81" d="M312.9,252.5c-0.1,0-0.2-0.1-0.2-0.2c0-0.1,0.1-0.2,0.2-0.2c0.1,0,0.2,0.1,0.2,0.2c0,0,0,0,0,0
		C313,252.4,313,252.5,312.9,252.5z M312.9,252.2c-0.1,0-0.1,0-0.1,0.1s0,0.1,0.1,0.1c0.1,0,0.1,0,0.1-0.1S312.9,252.2,312.9,252.2z
		"/>
	<path class="st81" d="M308.3,252.6c-0.1,0-0.2-0.1-0.2-0.2c0-0.1,0.1-0.2,0.2-0.2c0.1,0,0.2,0.1,0.2,0.2l0,0
		C308.5,252.6,308.4,252.6,308.3,252.6z M308.3,252.4c-0.1,0-0.1,0-0.1,0.1s0,0.1,0.1,0.1c0.1,0,0.1,0,0.1-0.1c0,0,0,0,0,0
		C308.4,252.4,308.4,252.4,308.3,252.4z"/>
	<path class="st81" d="M309,252.3c-0.1,0-0.2-0.1-0.2-0.2c0-0.1,0.1-0.2,0.2-0.2c0.1,0,0.2,0.1,0.2,0.2v0
		C309.2,252.2,309.1,252.3,309,252.3z M309,252c-0.1,0-0.1,0-0.1,0.1s0,0.1,0.1,0.1c0.1,0,0.1,0,0.1-0.1c0,0,0,0,0,0
		C309.1,252,309.1,252,309,252C309,252,309,252,309,252L309,252z"/>
	<path class="st81" d="M309.6,252.4c-0.1,0-0.2-0.1-0.2-0.2c0-0.1,0.1-0.2,0.2-0.2s0.2,0.1,0.2,0.2c0,0,0,0,0,0
		C309.8,252.4,309.7,252.4,309.6,252.4z M309.6,252.2c-0.1,0-0.1,0-0.1,0.1c0,0.1,0,0.1,0.1,0.1s0.1,0,0.1-0.1
		C309.7,252.2,309.7,252.2,309.6,252.2L309.6,252.2L309.6,252.2z"/>
	<path class="st81" d="M309.7,252c-0.1,0-0.2-0.1-0.2-0.2s0.1-0.2,0.2-0.2c0.1,0,0.2,0.1,0.2,0.2c0,0,0,0,0,0
		C309.9,252,309.8,252,309.7,252z M309.7,251.8c-0.1,0-0.1,0-0.1,0.1s0,0.1,0.1,0.1c0.1,0,0.1,0,0.1-0.1S309.8,251.8,309.7,251.8
		L309.7,251.8z"/>
	<path class="st81" d="M309.7,251.6c-0.1,0-0.2-0.1-0.2-0.2c0-0.1,0.1-0.2,0.2-0.2c0.1,0,0.2,0.1,0.2,0.2c0,0,0,0,0,0
		C309.9,251.6,309.8,251.6,309.7,251.6z M309.7,251.4c-0.1,0-0.1,0-0.1,0.1s0,0.1,0.1,0.1c0.1,0,0.1,0,0.1-0.1l0,0
		C309.8,251.4,309.8,251.4,309.7,251.4L309.7,251.4z"/>
	<path class="st81" d="M309.9,253c-0.1,0-0.2-0.1-0.2-0.2c0-0.1,0.1-0.2,0.2-0.2c0.1,0,0.2,0.1,0.2,0.2v0
		C310.1,252.9,310,253,309.9,253z M309.9,252.7c-0.1,0-0.1,0-0.1,0.1s0,0.1,0.1,0.1c0.1,0,0.1,0,0.1-0.1c0,0,0,0,0,0
		C310,252.8,310,252.7,309.9,252.7z"/>
	<path class="st81" d="M311.6,253c-0.1,0-0.2-0.1-0.2-0.2c0-0.1,0.1-0.2,0.2-0.2c0.1,0,0.2,0.1,0.2,0.2c0,0,0,0,0,0
		C311.7,252.9,311.7,253,311.6,253z M311.6,252.7c-0.1,0-0.1,0-0.1,0.1c0,0.1,0,0.1,0.1,0.1s0.1,0,0.1-0.1c0,0,0,0,0,0
		C311.7,252.8,311.6,252.7,311.6,252.7L311.6,252.7z"/>
	<path class="st81" d="M311.4,252.6c-0.1,0-0.2-0.1-0.2-0.2c0-0.1,0.1-0.2,0.2-0.2s0.2,0.1,0.2,0.2v0
		C311.5,252.5,311.5,252.6,311.4,252.6z M311.4,252.3c-0.1,0-0.1,0-0.1,0.1c0,0.1,0,0.1,0.1,0.1c0.1,0,0.1,0,0.1-0.1c0,0,0,0,0,0
		C311.5,252.4,311.4,252.3,311.4,252.3z"/>
	<path class="st81" d="M310.5,252.4c-0.1,0-0.2-0.1-0.2-0.2c0-0.1,0.1-0.2,0.2-0.2c0.1,0,0.2,0.1,0.2,0.2c0,0,0,0,0,0
		C310.7,252.3,310.6,252.4,310.5,252.4z M310.5,252.1c-0.1,0-0.1,0-0.1,0.1s0,0.1,0.1,0.1c0.1,0,0.1,0,0.1-0.1
		S310.6,252.1,310.5,252.1z"/>
	<path class="st81" d="M312.3,251.8c-0.1,0-0.2-0.1-0.2-0.2c0-0.1,0.1-0.2,0.2-0.2c0.1,0,0.2,0.1,0.2,0.2l0,0
		C312.5,251.7,312.4,251.8,312.3,251.8z M312.3,251.5c-0.1,0-0.1,0-0.1,0.1c0,0.1,0,0.1,0.1,0.1c0.1,0,0.1,0,0.1-0.1c0,0,0,0,0,0
		C312.4,251.5,312.4,251.5,312.3,251.5z"/>
	<path class="st81" d="M311.6,252.2c-0.1,0-0.2-0.1-0.2-0.2c0-0.1,0.1-0.2,0.2-0.2s0.2,0.1,0.2,0.2l0,0
		C311.7,252.1,311.7,252.2,311.6,252.2z M311.6,251.9c-0.1,0-0.1,0-0.1,0.1c0,0.1,0,0.1,0.1,0.1c0.1,0,0.1,0,0.1-0.1c0,0,0,0,0,0
		C311.7,252,311.6,252,311.6,251.9L311.6,251.9z"/>
	<path class="st81" d="M312.4,251.3c-0.1,0-0.2-0.1-0.2-0.2c0-0.1,0.1-0.2,0.2-0.2s0.2,0.1,0.2,0.2l0,0
		C312.6,251.2,312.5,251.3,312.4,251.3z M312.4,251c-0.1,0-0.1,0-0.1,0.1c0,0.1,0,0.1,0.1,0.1c0.1,0,0.1,0,0.1-0.1c0,0,0,0,0,0
		C312.6,251,312.5,251,312.4,251z"/>
	<path class="st81" d="M312.4,250.8c-0.1,0-0.2-0.1-0.2-0.2c0-0.1,0.1-0.2,0.2-0.2s0.2,0.1,0.2,0.2v0
		C312.6,250.7,312.5,250.8,312.4,250.8z M312.4,250.5c-0.1,0-0.1,0-0.1,0.1s0,0.1,0.1,0.1c0.1,0,0.1,0,0.1-0.1c0,0,0,0,0,0
		C312.5,250.6,312.4,250.5,312.4,250.5z"/>
	<path class="st81" d="M312,251.3c-0.1,0-0.2-0.1-0.2-0.2c0-0.1,0.1-0.2,0.2-0.2s0.2,0.1,0.2,0.2l0,0
		C312.2,251.2,312.1,251.3,312,251.3z M312,251c-0.1,0-0.1,0-0.1,0.1c0,0.1,0,0.1,0.1,0.1c0.1,0,0.1,0,0.1-0.1c0,0,0,0,0,0
		C312.1,251.1,312.1,251,312,251z"/>
	<path class="st81" d="M311.2,252.1c-0.1,0-0.2-0.1-0.2-0.2c0-0.1,0.1-0.2,0.2-0.2c0.1,0,0.2,0.1,0.2,0.2c0,0,0,0,0,0
		C311.3,252,311.3,252.1,311.2,252.1C311.2,252.1,311.2,252.1,311.2,252.1z M311.2,251.8c-0.1,0-0.1,0-0.1,0.1c0,0.1,0,0.1,0.1,0.1
		c0,0,0,0,0,0c0.1,0,0.1,0,0.1-0.1C311.3,251.9,311.3,251.8,311.2,251.8C311.2,251.8,311.2,251.8,311.2,251.8z"/>
	<path class="st81" d="M310.5,252c-0.1,0-0.2-0.1-0.2-0.2c0-0.1,0.1-0.2,0.2-0.2c0.1,0,0.2,0.1,0.2,0.2c0,0,0,0,0,0
		C310.7,251.9,310.6,251.9,310.5,252C310.5,252,310.5,252,310.5,252z M310.5,251.7c-0.1,0-0.1,0-0.1,0.1c0,0.1,0,0.1,0.1,0.1
		c0,0,0,0,0,0c0.1,0,0.1,0,0.1-0.1S310.6,251.7,310.5,251.7C310.6,251.7,310.5,251.7,310.5,251.7z"/>
	<path class="st81" d="M311.4,251.2c-0.1,0-0.2-0.1-0.2-0.2c0-0.1,0.1-0.2,0.2-0.2s0.2,0.1,0.2,0.2v0
		C311.5,251.1,311.5,251.2,311.4,251.2z M311.4,250.9c-0.1,0-0.1,0-0.1,0.1s0,0.1,0.1,0.1c0.1,0,0.1,0,0.1-0.1c0,0,0,0,0,0
		C311.5,250.9,311.4,250.9,311.4,250.9z"/>
	<path class="st81" d="M310.1,251.3c-0.1,0-0.1,0-0.1-0.1s0-0.1,0.1-0.1c0.1,0,0.1,0,0.1,0.1c0,0,0,0,0,0
		C310.2,251.3,310.2,251.3,310.1,251.3z M310.1,251.2C310.1,251.2,310.1,251.2,310.1,251.2c-0.1,0.1,0,0.1,0,0.1
		S310.2,251.3,310.1,251.2C310.2,251.2,310.2,251.2,310.1,251.2z"/>
	<path class="st81" d="M310.5,251.5c-0.1,0-0.1,0-0.1-0.1s0-0.1,0.1-0.1c0.1,0,0.1,0,0.1,0.1v0C310.6,251.5,310.5,251.5,310.5,251.5
		z M310.5,251.4C310.4,251.4,310.4,251.4,310.5,251.4c-0.1,0.1,0,0.1,0,0.1S310.5,251.5,310.5,251.4
		C310.5,251.4,310.5,251.4,310.5,251.4L310.5,251.4z"/>
	<path class="st81" d="M312,250.7c-0.1,0-0.1,0-0.1-0.1s0-0.1,0.1-0.1c0.1,0,0.1,0,0.1,0.1c0,0,0,0,0,0
		C312.2,250.6,312.1,250.7,312,250.7z M312,250.5C312,250.5,312,250.5,312,250.5c-0.1,0.1,0,0.1,0,0.1S312.1,250.6,312,250.5
		L312,250.5C312.1,250.5,312.1,250.5,312,250.5z"/>
	<path class="st81" d="M312.3,252.5c-0.1,0-0.1,0-0.1-0.1s0-0.1,0.1-0.1c0.1,0,0.1,0,0.1,0.1c0,0,0,0,0,0
		C312.4,252.4,312.3,252.5,312.3,252.5z M312.3,252.3C312.2,252.3,312.2,252.3,312.3,252.3c-0.1,0.1,0,0.1,0,0.1
		C312.3,252.4,312.3,252.4,312.3,252.3C312.3,252.3,312.3,252.3,312.3,252.3z"/>
	<path class="st81" d="M312.6,252.6c-0.1,0-0.1,0-0.1-0.1s0-0.1,0.1-0.1c0.1,0,0.1,0,0.1,0.1c0,0,0,0,0,0
		C312.7,252.6,312.6,252.6,312.6,252.6z M312.6,252.4C312.5,252.4,312.5,252.5,312.6,252.4c-0.1,0.1,0,0.1,0,0.1
		C312.6,252.6,312.6,252.5,312.6,252.4L312.6,252.4C312.6,252.5,312.6,252.4,312.6,252.4L312.6,252.4z"/>
	<path class="st81" d="M312.2,252.2c-0.1,0-0.1,0-0.1-0.1c0-0.1,0-0.1,0.1-0.1s0.1,0,0.1,0.1l0,0
		C312.3,252.1,312.3,252.2,312.2,252.2L312.2,252.2z M312.2,252C312.2,252,312.2,252,312.2,252c-0.1,0.1,0,0.1,0,0.1
		S312.3,252.1,312.2,252C312.3,252,312.3,252,312.2,252L312.2,252z"/>
	<path class="st81" d="M314.3,251.2c-0.1,0-0.1,0-0.1-0.1c0-0.1,0-0.1,0.1-0.1c0.1,0,0.1,0,0.1,0.1c0,0,0,0,0,0
		C314.4,251.1,314.4,251.2,314.3,251.2z M314.3,251C314.3,251,314.2,251,314.3,251C314.2,251.1,314.2,251.1,314.3,251
		c-0.1,0.1,0,0.1,0,0.1C314.3,251.2,314.4,251.1,314.3,251L314.3,251C314.4,251,314.3,251,314.3,251C314.3,251,314.3,251,314.3,251z
		"/>
	<path class="st81" d="M314.4,251.5c-0.1,0-0.1,0-0.1-0.1s0-0.1,0.1-0.1s0.1,0,0.1,0.1c0,0,0,0,0,0
		C314.5,251.4,314.5,251.5,314.4,251.5z M314.4,251.3C314.4,251.3,314.4,251.3,314.4,251.3c-0.1,0.1,0,0.1,0,0.1
		C314.5,251.4,314.5,251.4,314.4,251.3C314.5,251.3,314.5,251.3,314.4,251.3L314.4,251.3z"/>
	<path class="st81" d="M314.3,251.7c-0.1,0-0.1,0-0.1-0.1c0-0.1,0-0.1,0.1-0.1c0,0,0,0,0,0c0.1,0,0.1,0,0.1,0.1
		S314.4,251.7,314.3,251.7z M314.3,251.5C314.3,251.5,314.3,251.6,314.3,251.5C314.3,251.6,314.3,251.6,314.3,251.5
		c-0.1,0.1,0,0.1,0,0.1C314.4,251.7,314.4,251.6,314.3,251.5C314.4,251.6,314.4,251.5,314.3,251.5z"/>
	<path class="st81" d="M314.1,252.5c-0.1,0-0.1,0-0.1-0.1c0-0.1,0-0.1,0.1-0.1c0.1,0,0.1,0,0.1,0.1c0,0,0,0,0,0
		C314.2,252.4,314.1,252.5,314.1,252.5z M314.1,252.3C314,252.3,314,252.3,314.1,252.3C314,252.4,314,252.4,314.1,252.3
		c-0.1,0.1,0,0.1,0,0.1C314.1,252.5,314.1,252.4,314.1,252.3L314.1,252.3C314.1,252.4,314.1,252.3,314.1,252.3
		C314.1,252.3,314.1,252.3,314.1,252.3L314.1,252.3z"/>
	<path class="st81" d="M315.7,251.8c-0.1,0-0.1,0-0.1-0.1s0-0.1,0.1-0.1c0.1,0,0.1,0,0.1,0.1S315.8,251.8,315.7,251.8L315.7,251.8z
		 M315.7,251.6C315.7,251.6,315.7,251.6,315.7,251.6c-0.1,0.1,0,0.1,0,0.1C315.8,251.7,315.8,251.7,315.7,251.6L315.7,251.6
		C315.8,251.6,315.8,251.6,315.7,251.6L315.7,251.6z"/>
	<path class="st81" d="M313.2,252.4c-0.1,0-0.1,0-0.1-0.1s0-0.1,0.1-0.1c0.1,0,0.1,0,0.1,0.1l0,0
		C313.3,252.4,313.3,252.4,313.2,252.4z M313.2,252.2C313.2,252.2,313.2,252.3,313.2,252.2c-0.1,0.1,0,0.1,0,0.1
		S313.3,252.3,313.2,252.2L313.2,252.2C313.3,252.3,313.3,252.2,313.2,252.2z"/>
	<path class="st81" d="M314.1,252c-0.1,0-0.1,0-0.1-0.1s0-0.1,0.1-0.1c0.1,0,0.1,0,0.1,0.1c0,0,0,0,0,0
		C314.2,251.9,314.2,252,314.1,252z M314.1,251.8C314.1,251.8,314.1,251.8,314.1,251.8c-0.1,0.1,0,0.1,0,0.1
		S314.2,251.9,314.1,251.8C314.2,251.8,314.2,251.8,314.1,251.8z"/>
	<path class="st81" d="M313.8,252.7c-0.1,0-0.1,0-0.1-0.1s0-0.1,0.1-0.1c0.1,0,0.1,0,0.1,0.1l0,0
		C313.9,252.7,313.8,252.7,313.8,252.7L313.8,252.7z M313.8,252.5C313.7,252.5,313.7,252.6,313.8,252.5c-0.1,0.1,0,0.1,0,0.1
		C313.8,252.7,313.8,252.6,313.8,252.5C313.8,252.6,313.8,252.5,313.8,252.5L313.8,252.5z"/>
	<path class="st81" d="M316.1,252c-0.1,0-0.1,0-0.1-0.1c0-0.1,0-0.1,0.1-0.1s0.1,0,0.1,0.1c0,0,0,0,0,0
		C316.2,251.9,316.1,252,316.1,252z M316.1,251.8C316.1,251.8,316,251.8,316.1,251.8c-0.1,0.1-0.1,0.1,0,0.1c0,0,0,0,0,0
		C316.1,251.9,316.2,251.9,316.1,251.8C316.2,251.8,316.1,251.8,316.1,251.8C316.1,251.8,316.1,251.8,316.1,251.8z"/>
	<path class="st81" d="M314.7,250.8c-0.1,0-0.1,0-0.1-0.1c0-0.1,0-0.1,0.1-0.1c0.1,0,0.1,0,0.1,0.1c0,0,0,0,0,0
		C314.8,250.8,314.8,250.8,314.7,250.8z M314.7,250.6C314.7,250.6,314.7,250.7,314.7,250.6c-0.1,0.1,0,0.1,0,0.1
		S314.8,250.8,314.7,250.6C314.8,250.7,314.8,250.6,314.7,250.6z"/>
	<path class="st81" d="M311.1,250.7c-0.1,0-0.1,0-0.1-0.1s0-0.1,0.1-0.1c0.1,0,0.1,0,0.1,0.1c0,0,0,0,0,0
		C311.2,250.6,311.2,250.7,311.1,250.7z M311.1,250.5C311.1,250.5,311.1,250.5,311.1,250.5c-0.1,0.1,0,0.1,0,0.1
		S311.2,250.6,311.1,250.5L311.1,250.5C311.2,250.5,311.2,250.5,311.1,250.5z"/>
	<path class="st81" d="M308.1,251.6c-0.1,0-0.1,0-0.1-0.1c0-0.1,0-0.1,0.1-0.1c0.1,0,0.1,0,0.1,0.1l0,0
		C308.2,251.5,308.2,251.6,308.1,251.6L308.1,251.6z M308.1,251.4C308.1,251.4,308,251.4,308.1,251.4c-0.1,0.1,0,0.1,0,0.1
		C308.1,251.5,308.2,251.5,308.1,251.4L308.1,251.4C308.2,251.4,308.1,251.4,308.1,251.4L308.1,251.4z"/>
	<path class="st81" d="M310.7,250.8c-0.1,0-0.1,0-0.1-0.1s0-0.1,0.1-0.1c0.1,0,0.1,0,0.1,0.1c0,0,0,0,0,0
		C310.9,250.8,310.8,250.8,310.7,250.8z M310.7,250.6C310.7,250.6,310.7,250.7,310.7,250.6c-0.1,0.1,0,0.1,0,0.1
		S310.8,250.8,310.7,250.6C310.8,250.7,310.8,250.6,310.7,250.6z"/>
	<path class="st81" d="M308.4,252.1c-0.1,0-0.1,0-0.1-0.1s0-0.1,0.1-0.1c0.1,0,0.1,0,0.1,0.1c0,0,0,0,0,0
		C308.5,252,308.4,252.1,308.4,252.1z M308.4,251.9C308.3,251.9,308.3,251.9,308.4,251.9c-0.1,0.1,0,0.1,0,0.1l0,0
		C308.4,252,308.4,252,308.4,251.9C308.4,251.9,308.4,251.9,308.4,251.9z"/>
	<path class="st81" d="M308.8,251.4c-0.1,0-0.1,0-0.1-0.1c0-0.1,0-0.1,0.1-0.1s0.1,0,0.1,0.1c0,0,0,0,0,0
		C308.9,251.4,308.8,251.4,308.8,251.4z M308.8,251.3C308.7,251.3,308.7,251.3,308.8,251.3c-0.1,0.1,0,0.1,0,0.1
		S308.8,251.4,308.8,251.3C308.8,251.3,308.8,251.3,308.8,251.3z"/>
	<path class="st81" d="M306.8,251.9c-0.1,0-0.1,0-0.1-0.1c0-0.1,0-0.1,0.1-0.1c0.1,0,0.1,0,0.1,0.1v0
		C306.9,251.8,306.9,251.9,306.8,251.9z M306.8,251.7C306.8,251.7,306.8,251.7,306.8,251.7c-0.1,0.1,0,0.1,0,0.1
		C306.9,251.8,306.9,251.8,306.8,251.7L306.8,251.7C306.9,251.7,306.9,251.7,306.8,251.7C306.8,251.7,306.8,251.7,306.8,251.7z"/>
	<path class="st81" d="M309.5,252.8c-0.1,0-0.1,0-0.1-0.1s0-0.1,0.1-0.1c0.1,0,0.1,0,0.1,0.1S309.6,252.8,309.5,252.8z M309.5,252.6
		C309.5,252.6,309.5,252.7,309.5,252.6c-0.1,0.1,0,0.1,0,0.1S309.6,252.7,309.5,252.6C309.6,252.7,309.6,252.6,309.5,252.6z"/>
	<path class="st81" d="M310.3,252.9c-0.1,0-0.1,0-0.1-0.1s0-0.1,0.1-0.1c0.1,0,0.1,0,0.1,0.1S310.4,252.9,310.3,252.9z M310.3,252.7
		C310.3,252.7,310.2,252.7,310.3,252.7c-0.1,0.1,0,0.1,0,0.1S310.4,252.8,310.3,252.7C310.4,252.7,310.3,252.7,310.3,252.7z"/>
	<circle class="st81" cx="307.2" cy="252.2" r="0.1"/>
	<circle class="st81" cx="307.8" cy="251" r="0.1"/>
	<circle class="st81" cx="308.6" cy="251.5" r="0.1"/>
	<circle class="st81" cx="308.1" cy="250.8" r="0.1"/>
	<circle class="st81" cx="311.2" cy="251.4" r="0.1"/>
	<circle class="st81" cx="308.5" cy="251.2" r="0.1"/>
	<circle class="st81" cx="308.2" cy="251.2" r="0.1"/>
	<circle class="st81" cx="308.8" cy="251.8" r="0.1"/>
	<circle class="st81" cx="313.4" cy="251.3" r="0.1"/>
	<circle class="st81" cx="314.7" cy="251.6" r="0.1"/>
	<circle class="st81" cx="314.3" cy="252.6" r="0.1"/>
	<circle class="st81" cx="314.8" cy="252.3" r="0.1"/>
	<circle class="st81" cx="313.4" cy="252.7" r="0.1"/>
	<circle class="st81" cx="313.1" cy="251.3" r="0.1"/>
	<circle class="st81" cx="312.1" cy="252.5" r="0.1"/>
	<circle class="st81" cx="313.9" cy="251.6" r="0.1"/>
	<circle class="st81" cx="313" cy="252.8" r="0.1"/>
	<circle class="st81" cx="309.3" cy="252.6" r="0.1"/>
	<circle class="st81" cx="314.4" cy="251.9" r="0.1"/>
	<circle class="st81" cx="316.4" cy="251.7" r="0.1"/>
	<circle class="st81" cx="315.8" cy="251.2" r="0.1"/>
	<circle class="st81" cx="313.9" cy="251.1" r="0.1"/>
	<circle class="st81" cx="310.1" cy="251.9" r="0.1"/>
	<circle class="st81" cx="315.3" cy="251.7" r="0.1"/>
	<circle class="st81" cx="313.5" cy="251" r="0.1"/>
	<circle class="st81" cx="315" cy="251.3" r="0.1"/>
	<circle class="st81" cx="314.1" cy="250.7" r="0.1"/>
	<circle class="st81" cx="313.4" cy="250.6" r="0.1"/>
	<circle class="st81" cx="310.4" cy="250.9" r="0.1"/>
	<circle class="st81" cx="311" cy="251" r="0.1"/>
	<circle class="st81" cx="309.3" cy="251.6" r="0.1"/>
	<circle class="st81" cx="312.8" cy="251.6" r="0.1"/>
	<circle class="st81" cx="313.1" cy="251.7" r="0.1"/>
	<circle class="st81" cx="310.9" cy="251.8" r="0.1"/>
	<circle class="st81" cx="311.9" cy="251.9" r="0.1"/>
	<circle class="st81" cx="310.8" cy="251.2" r="0.1"/>
	<circle class="st81" cx="313.1" cy="251.9" r="0.1"/>
	<circle class="st81" cx="312.7" cy="252" r="0.1"/>
	<circle class="st81" cx="307.5" cy="251" r="0.1"/>
	<circle class="st81" cx="309.6" cy="251.2" r="0.1"/>
	<circle class="st81" cx="308.9" cy="250.8" r="0.1"/>
	<circle class="st81" cx="308.6" cy="251.9" r="0.1"/>
	<circle class="st81" cx="308.9" cy="251.2" r="0.1"/>
	<circle class="st81" cx="307" cy="251.4" r="0.1"/>
	<circle class="st81" cx="315.4" cy="251.2" r="0.1"/>
	<circle class="st81" cx="316.1" cy="251.1" r="0.1"/>
	<circle class="st81" cx="316.7" cy="251.9" r="0.1"/>
	<circle class="st81" cx="316.3" cy="251.5" r="0.1"/>
	<circle class="st81" cx="316.5" cy="252.1" r="0.1"/>
	<circle class="st81" cx="316.7" cy="251.6" r="0.1"/>
	<circle class="st81" cx="316.1" cy="251.5" r="0.1"/>
	<circle class="st81" cx="317" cy="251.5" r="0.1"/>
	<circle class="st81" cx="309.1" cy="251.4" r="0.1"/>
	<circle class="st81" cx="310.3" cy="250.6" r="0.1"/>
	<circle class="st81" cx="311.8" cy="252.3" r="0.1"/>
	<circle class="st81" cx="309.9" cy="250.5" r="0.1"/>
	<circle class="st81" cx="309.4" cy="250.6" r="0.1"/>
	<circle class="st81" cx="311.7" cy="251.1" r="0.1"/>
	<circle class="st81" cx="307.2" cy="251.7" r="0.1"/>
	<circle class="st81" cx="307.9" cy="252.4" r="0.1"/>
	<circle class="st81" cx="310.7" cy="252.8" r="0.1"/>
	<circle class="st81" cx="310.1" cy="252.4" r="0.1"/>
	<circle class="st81" cx="312" cy="252.9" r="0.1"/>
	<path class="st14" d="M309.8,250.8c0,0-3.3,0.2-1.8,1.2c1.6,1.1,6.1,0.5,6.1,0.5s2.5-0.6,0.9-1.4c-1.6-0.7-4-0.3-4-0.3
		s-2.8,0.5-0.6,1c0,0,2.6,0.2,2.7-0.3c0.1-0.5-1.4-0.2-1.4-0.2s0.8,0.2,0.3,0.3c-0.6,0.1-1.2-0.1-1.2-0.2c0-0.2,0.8-0.3,1.1-0.3
		s1.5-0.2,2,0.4c0.1,0.1,0.1,0.2,0,0.3c0,0,0,0-0.1,0c-0.5,0.2-1.6,0.6-3.5,0.3C307.7,251.7,309.8,250.8,309.8,250.8z"/>
	<path class="st82" d="M232.3,219.5c0,0,7.3-1.6,10.2,0.2c2,1.2,4.1,2,6.3,2.6c0,0,5.4,1.3,7.2,3.2s3.5,0.7,4.3,3.1
		c0.8,2.5,3.1,4.8,3.1,4.8l-1.1,16.7l0.9,9.6c0,0,0.4,4-0.7,4.9c-1.1,0.9,0.2,2.3,1.2,3.1c1,0.8,3.6,3.8,3.2,4.9
		c-0.3,1.1,2.7,2.4,2.7,2.4s0.1,1.9-1.3,2.3c-1.5,0.4-3.2,7.2-3.2,7.2s-19.6,18.8-26.1,17.1c-6.5-1.7-11.3-7.7-11.3-7.7
		s-4.4-19.6-5.6-22.7c-1.2-3.1-4.5-13.4-4.5-13.4s-1.8-11.9-2.7-14.2c-0.9-2.3-0.9-14.7,1.8-17.2c2.7-2.6,5-4,5-4.9
		c0-0.9,2.6-2.7,3.6-2.6c1,0.1,1.3,1.2,1.3,1.2L232.3,219.5z"/>
	<path class="st23" d="M312.8,257.2c-3.1,5.5-15,4.4-15,4.4s-4.1-0.9-6.7,0.6s-14.7,3-14.7,3s-4.6-1-5.7-2.5
		c-1-1.3-10.3-6.8-12.6-8.2l-0.5-0.3l0,0c0,0-0.1,0-0.1,0l0,0l9.9-12.5l1.6,1.7l8,8.5c0,0,7.8,0.3,10.1,1.7c2.2,1.3,9.3-0.4,9.3-0.4
		s3.5,0,3.7-0.8S315.9,251.7,312.8,257.2z"/>
	<path class="st14" d="M255.6,197.5c-0.6,0.2-1.1,0.5-1.5,1c-0.6,0.8-0.5,1.9-0.7,2.9c-0.4,1.6-1.6,3-1.4,4.6c0.1,0.6,0.3,1.2,0,1.7
		c-0.3,0.4-0.9,0.4-1.4,0.2c0,0,0,0,0,0c-1.2-0.5-1.9-1.8-2.8-2.8s-2.5-1.8-3.5-0.9c-0.9,0.7-0.7,2.1-0.6,3.2s-0.2,2.6-1.3,2.7
		c-0.4,0.1-0.9-0.1-1.3,0c-1.4,0.3-1.3,2.7-2.6,3.2c-0.5,0.1-1,0-1.5-0.1c-0.4-0.1-0.8-0.1-1.3-0.1c-1.4,0-2.9,0.5-4.2,0.1
		c0.7-0.9,1.3-1.9,1.8-2.7c-3.9-6-2.2-14,3.7-17.9c6-3.9,14-2.2,17.9,3.7C255.1,196.6,255.4,197.1,255.6,197.5L255.6,197.5z"/>
	<path class="st25" d="M236.8,212.8c0.5,0.1,1,0.3,1.5,0.1c1.4-0.4,1.2-2.8,2.6-3.2c0.4-0.1,0.9,0.1,1.3,0c1.1-0.2,1.4-1.6,1.3-2.7
		c-0.1-1.1-0.2-2.4,0.6-3.2c1-0.9,2.6-0.1,3.5,0.9c0.9,1,1.6,2.3,2.8,2.8c0.5,0.2,1.1,0.2,1.5-0.2c0.3-0.4,0.1-1.1,0-1.7
		c-0.2-1.6,1-3,1.4-4.6c0.2-1,0.1-2.1,0.7-2.9c1.2-1.7,4.4-0.8,5.5-2.6c0.5,0.1,0.9,0,1.4-0.2c0.4-0.2,0.7-0.7,0.6-1.2
		c-0.1-0.3-0.5-0.5-0.8-0.7c-1-0.7-1.6-1.9-1.6-3.1c0-0.6,0.2-1.2,0.2-1.7c-0.1-1.3-1.2-2.3-2.6-2.3c-0.4,0-0.8,0.1-1.1,0.1
		c-1.8,0.1-3.3-2-5.1-1.6c-0.4,0.1-0.7,0.3-1.1,0.3c-0.9,0-1.4-1-2.3-1.3c-0.7-0.2-1.4,0.1-2.1,0s-1.3-0.5-1.9-0.8
		c-1.3-0.7-3-1-4.1-0.1c-0.2,0.2-0.5,0.5-0.8,0.6c-0.4,0.1-0.8,0.1-1.2,0.1c-1.2-0.1-2.3,0-3.5,0.2c-0.3,0-0.6,0.2-0.8,0.4
		c-0.1,0.2-0.2,0.5-0.3,0.8c-0.3,1.3-2,1.8-3.3,1.9c-0.4,0-0.7,0.1-1,0.3c-0.5,0.4-0.5,1.1-0.3,1.7c0.2,0.6,0.6,1.1,0.7,1.7
		c0.2,1.5-1.5,2.7-1.7,4.2c-0.4,2.1,2,4.2,1.2,6.2c-0.4,0.9-1.3,1.6-1.2,2.5c0,0.9,1,1.5,1.5,2.2c0.6,0.7,0.8,1.6,1,2.4
		c0.3,1.4,0.4,4,2,4.5C233,213.3,235,212.4,236.8,212.8z"/>
	<path class="st14" d="M237.3,257.8c1.9,2.5,8.6,8.3,13.1,9.7C254.9,269,237.3,257.8,237.3,257.8z"/>
	<path class="st14" d="M238.3,270.1c0.8,0.6,4.4,7.3,8.2,7.8S238.3,270.1,238.3,270.1z"/>
	<path class="st14" d="M239.2,264.3c0.2,0.3,9.1,8.1,12.3,8.7c3.2,0.7,0.4-2.7-3.6-4.3C243.9,267.2,239.2,264.3,239.2,264.3z"/>
	<path class="st14" d="M239.2,280.8c0,0,5.9,2.1,10,1.6C253.2,281.8,239.2,280.8,239.2,280.8z"/>
	<path class="st14" d="M246.2,293.7c0,0,5.8-4.3,8.7-4.5C257.8,289,246.2,293.7,246.2,293.7z"/>
	<path class="st14" d="M220,225c0,0,14.1,1.6,10.2,2.2C226.2,227.9,220,225,220,225z"/>
	<path class="st14" d="M219.9,232.3c0,0,6.7,0,9.2-1.1C231.5,230.1,219.9,232.3,219.9,232.3z"/>
	<path class="st14" d="M217.7,246.4c1.2-0.3,6.4-11.1,8.4-8.2S217.7,246.4,217.7,246.4z"/>
	<path class="st14" d="M238.1,243.6c0,0,1.8,1.7,7.4,3.2C251.1,248.4,238.1,243.6,238.1,243.6z"/>
	<path class="st14" d="M271.2,281.8c0,0,3.1,1.7,0.8,5.3C269.7,290.6,271.2,281.8,271.2,281.8z"/>
	<path class="st83" d="M238.4,296.1l0-0.5C238.5,294.1,238.4,296.1,238.4,296.1z"/>
	<path class="st4" d="M240.6,305.4l-9-0.9l-1.7-3.4l-9.3-51.1l-0.2-1.2l14.2,0.1l0.1,1.6l3.6,45c0,0.2,0,0.5-0.1,0.9
		C238.1,299.7,240.6,305.4,240.6,305.4z"/>
	<path class="st14" d="M413.1,230.6l-0.3,0.2c-1,0.6-2.2-1.7-3.4-1.3c-1,0.3-1.8,3.2-2.8,3.2c-1.6,0-3.2-0.4-4.7-1
		c-0.2-0.3-0.3-0.6-0.5-0.9c-0.6-1.1-1-1.7-1-1.7s1.6-0.3,3.6-0.5c0.9-0.1,1.9-0.3,2.9-0.4l0,0c0.5-0.1,1-0.1,1.5-0.2
		c2-0.2,3.5-0.2,3.5,0.1s0.3,1.1,0.8,2.1C412.9,230.2,413,230.4,413.1,230.6z"/>
	<path class="st30" d="M417.6,221c0,6.1-4.9,11-11,11c-6.1,0-11-4.9-11-11c0-6.1,4.9-11,11-11c0,0,0,0,0,0
		C412.7,210,417.6,214.9,417.6,221C417.6,221,417.6,221,417.6,221z"/>
	<path class="st21" d="M415.6,242l-3.3,0.3c0,0,0.3-2.9,1.8-3.9c0.9-0.6,2.7-1.6,3.8-2.1c0.4,0.2,0.8,0.3,1.2,0.4
		C414.1,239.9,415.6,242,415.6,242z"/>
	<path class="st30" d="M378.9,256.2l-0.8-0.1c0,0-3.4,0.2-6.8,0.6c-3.4,0.4-8.1,1.4-4.6,5.4s6.7-0.7,6.7-0.7s3.2,4,5.8,2.7
		C381.7,262.7,378.9,256.2,378.9,256.2z"/>
	<path class="st84" d="M365.1,320.3c0,0,2.1,5.1,2,6.6s7.1-1.4,7.1-1.4s-1.7-3.9-0.8-4.8C374.3,320,365.1,320.3,365.1,320.3z"/>
	<rect x="355" y="334.2" class="st84" width="5.8" height="7.4"/>
	<path class="st85" d="M366.4,318.3c-0.6,0.9-1,2.5-1.3,4.1c-0.3,1.9-0.5,3.8-0.6,5.7c0,1.1,0.6,0.9,0,2.7c-0.5,1.4-0.9,2.8-1.1,4.3
		c0,0.1,0,0.1,0,0.2c-0.3,2-0.7,2.7-0.7,2.7s-8.5-0.6-10.3-1.8c-1.8-1.2,0.7-2.5,0.7-2.5s0-0.1,0-0.3c0.2-3.4,1.9-36.4,2.7-39.9
		c0.2-0.8,0.6-1.5,1.1-2c1-1.2,2.6-2,3.8-2.6c0.8-0.3,1.5-0.6,2.3-0.9c0,0,0.4,2.6,1,6.2C365.4,302.7,367.4,316.6,366.4,318.3z"/>
	<path class="st30" d="M364,294.3c-0.7,1.2-1.3,1.9-1.8,1.4c-0.8-1-3.5-2.9-5.4-4.2c2.1-2.3,6.2-3.5,6.2-3.5S363.5,290.6,364,294.3z
		"/>
	<path class="st85" d="M414.1,285.3c-0.1,1.2-0.2,2.7-0.5,4.6c-0.6,4.6-3.5,8.6-7.6,10.6c0,0-20.6,0-24.2-1
		c-1.8-0.5-3.4,0.1-4.5,0.8c-0.1,0.1-0.2,0.2-0.4,0.3c-0.5,0.4-1,0.8-1.4,1.3c0,0-2.2-9.1-2.2-9.5c0-0.4,1.2-4.5,3.5-7.3
		c2.2-2.8,15.4-3.2,16.2-3.4c0.5-0.1,5.3-2.2,8.5-3.6c1.6-0.7,2.8-1.2,2.8-1.2l5.2,1.6l0.2,0.1l4.1,1.3
		C413.8,279.9,414.4,281.1,414.1,285.3z"/>
	<path class="st14" d="M409.7,278.6c-1,0.4-2.6,1-4.4,1.7c-3.9,1.4-9.1,3-12.1,2.7c-5.4-0.4-11.5,0.8-11.5,0.8c-2,0.9-3.8,2-5.4,3.5
		c-2.8,2.5-0.3,3.2,0.9,6.2c0.5,1.2,0.4,4,0.1,6.9c-0.1,0.1-0.2,0.2-0.4,0.3c-0.5,0.4-1,0.8-1.4,1.3c0,0-2.2-9.1-2.2-9.5
		s1.2-4.5,3.5-7.3c2.2-2.8,15.4-3.2,16.2-3.4c0.5-0.1,5.3-2.2,8.5-3.6c1.6-0.7,2.8-1.2,2.8-1.2l5.2,1.6L409.7,278.6z"/>
	<path class="st14" d="M366.4,318.3c-0.6,0.9-1,2.5-1.3,4.1c-0.2-0.1-0.4-0.2-0.6-0.4c-1-0.9-0.9-2.5-0.8-3.6
		c0.1-0.4,0.1-0.8,0.1-0.9c0-0.5,0.4-4.5-0.5-5.9s-1.1-7.2-1.1-7.2s-1.4-8.2-1.6-15.5c0.8-0.3,1.5-0.6,2.3-0.9c0,0,0.4,2.6,1,6.2
		C365.4,302.7,367.4,316.6,366.4,318.3z"/>
	<path class="st85" d="M410.5,278.1c0,0-0.4,0.2-1,0.4c-1,0.4-2.6,1.1-4.5,1.8c-3.9,1.4-9.1,3-12.1,2.7c-5.4-0.4-11.5,0.8-11.5,0.8
		c-2,0.9-3.8,2-5.4,3.5c-2.8,2.5-0.3,3.2,0.9,6.2c0.5,1.2,0.4,4.1,0,7.1c-0.5,4.1-1.3,8.2-1.3,8.2s-0.3,1.1-0.1,1.8
		c0.2,0.7,0.2,5.8,0.2,5.8c-0.3,0.4-0.4,0.9-0.5,1.5c0,0.4,0.1,0.9,0.4,1.2c0.9,1.2,0.2,4.5,0.2,4.5s-1.9,0.3-5.2-0.5
		c-3.2-0.8-4.5,0.1-5.9-1.1c-1-0.9-0.9-2.5-0.8-3.6c0.1-0.4,0.1-0.8,0.1-0.9c0-0.5,0.4-4.5-0.5-5.9c-0.9-1.5-1.1-7.2-1.1-7.2
		s-3.6-20.5,0-25.5c0.1-0.1,0.1-0.2,0.2-0.3c2-2.3,6.2-2.7,10-2.5c2.8,0.2,5.6,0.6,8.3,1.4c2.2,0.7,2.9,0.3,4-0.1
		c0.8-0.3,0.9-1.9,0.8-2.7c0-0.1,0-0.2,0-0.2c0-0.2,0-0.4,0-0.4l1-0.5l4.2-2.3L410.5,278.1z"/>
	<path class="st86" d="M363.4,335.1c0,0.1,0,0.1,0,0.2c-0.3,2-0.7,2.7-0.7,2.7s-8.5-0.6-10.3-1.8c-1.8-1.2,0.7-2.5,0.7-2.5
		s0-0.1,0-0.3C356,334.2,361.1,335.3,363.4,335.1z"/>
	<path class="st14" d="M363.4,335.1c0,0.1,0,0.1,0,0.2c-0.3,2-0.7,2.7-0.7,2.7s-8.5-0.6-10.3-1.8c-1.8-1.2,0.7-2.5,0.7-2.5
		s0-0.1,0-0.3C356,334.2,361.1,335.3,363.4,335.1z"/>
	<path class="st87" d="M362.1,337.1c0,0-9.9,0.7-10.2,0.5c-0.4-0.2-0.4,5.2-0.4,5.2s-2.2,4.4-2.5,5.4c-0.3,1.1-2.5,3.7-2.5,3.7
		s-3.1,2.3,1.4,3.2c4.6,0.9,9.6-0.3,9.6-0.3s3.4-5.8,3.6-5.5s0,3.1,0,3.1l2-0.5c0,0-0.3-3.6,0.4-5.6S362.1,337.1,362.1,337.1z"/>
	<path class="st14" d="M375.9,323.2c0,0-1.9,0.3-5.2-0.5c-3.2-0.8-4.5,0.1-5.9-1.1c-1-0.9-0.9-2.5-0.8-3.6c1.4-0.3,3.6-0.8,5.3-1
		c1.7-0.2,4.2,0.1,6,0.5c0,0.4,0.1,0.9,0.4,1.2C376.6,320,375.9,323.2,375.9,323.2z"/>
	<path class="st86" d="M375.9,323.5c0,0-1.9,0.3-5.2-0.5c-3.2-0.8-4.5,0.1-5.9-1.1c-1-0.9-0.9-2.5-0.8-3.6c1.4-0.3,3.6-0.8,5.3-1
		c1.7-0.2,4.2,0.1,6,0.5c0,0.4,0.1,0.9,0.4,1.2C376.6,320.3,375.9,323.5,375.9,323.5z"/>
	<path class="st14" d="M375.9,323.5c0,0-1.9,0.3-5.2-0.5c-3.2-0.8-4.5,0.1-5.9-1.1c-1-0.9-0.9-2.5-0.8-3.6c1.4-0.3,3.6-0.8,5.3-1
		c1.7-0.2,4.2,0.1,6,0.5c0,0.4,0.1,0.9,0.4,1.2C376.6,320.3,375.9,323.5,375.9,323.5z"/>
	<path class="st87" d="M380.7,339.4l-3.3,0.8l-1-3.9c0,0-0.8,1.6-2.3,3.8c-0.2,0.3-0.4,0.6-0.6,0.9c-1.7,2.4-7.3,1.8-9.3,0.4
		c-0.2-0.1-0.3-0.3-0.4-0.4c-1.3-1.7,0.7-3.3,1.6-4.2c0.9-0.9,0.4-6.8,0.4-6.8s-0.4-2.6-0.1-3.9c0.3-1.2,8.8-1.7,8.8-1.7
		s1.7,4.5,2.7,5.9c1,1.4,2.1,3.1,1.9,4.4C378.9,336,380.7,339.4,380.7,339.4z"/>
	<path class="st30" d="M376.3,281.3c-1.4,1.8-10.8,0.4-13.7-2.4c0.1-0.1,0.1-0.2,0.2-0.3c2-2.3,6.2-2.7,10-2.5
		C374.6,277.5,377.5,279.8,376.3,281.3z"/>
	<path class="st14" d="M367.3,282.6c0,0-1.6-2.3-3.1-1.2s-1.9-2-1.9-2s0.8-0.6,2.5,0.3c1.7,0.8,3.6,2.3,3.4,2.6
		S367.3,282.6,367.3,282.6z"/>
	<path class="st14" d="M397.6,282.6c0,0,8.3,3.8,6.4,5.3C402.2,289.5,397.6,282.6,397.6,282.6z"/>
	<path class="st14" d="M364.2,308.8c0,0,5.3,0.6,6.4,1.4c0.9,0.6,1.9,1,3,1.1C374.3,311.3,366.5,306.9,364.2,308.8z"/>
	<path class="st14" d="M370.5,305.7c0,0-2,1.4,0.3,2C373.1,308.3,370.5,305.7,370.5,305.7z"/>
	<path class="st14" d="M359.3,324.4c0,0,3,3.7,4,2.7S359.3,324.4,359.3,324.4z"/>
	<path class="st14" d="M357.4,331.7c0.2,0,1-0.1,2.4,0.9c1.5,1,1.6-0.8,1-1.5C360.2,330.3,357.4,331.7,357.4,331.7z"/>
	<path class="st14" d="M354,249.2c0.5,0.2,3.4,0.9,4,2.7C358.6,253.6,354,249.2,354,249.2z"/>
	<path class="st14" d="M234.8,250.6l-0.2-0.1c0,0-8.6-1.9-13.9-0.5l-0.2-1.2l14.2,0.1L234.8,250.6z"/>
	<path class="st4" d="M227.1,246.9c0,0,21.5,0.1,29,14.9c7.5,14.8,9.2,43,9.2,43s1.2,4-0.6,4.1c-1.8,0.1-2.6-3.7-2.6-3.7
		s0.7-2.8,0.1-4s-7.4-35.5-7.4-35.5s-0.8-10.7-20.4-15.4c0,0-22.9-5.1-17,7.7c0,0,0.3,1.8-0.9,1.5c-1.2-0.3-2.7-3.7-1.7-7.9
		C215.9,247.2,227.1,246.9,227.1,246.9z"/>
	<path class="st14" d="M269,243.3L269,243.3c-1.6,1.3-7.2,10.9-11,11.1c-0.1,0-0.1,0-0.2,0c0,0-0.1-0.1-0.3-0.3l0,0c0,0,0,0-0.1-0.1
		l9.9-12.5L269,243.3z"/>
	<path class="st14" d="M257.9,231.4l5,2.1c0,0,2.5,2.5,2.4,4.7s1.2,0.6,1.2,0.6s0.9,0.3,0.9,1.2c0,0.9,2.5,1.8,0.9,3
		s-7.4,11.2-11.2,11.1c-2.3-2.6-4.7-5-7.3-7.3C245.9,243.5,242.3,226.3,257.9,231.4z"/>
	<path class="st88" d="M258.3,231.4l5,2.1c0,0,2.5,2.5,2.4,4.7c-0.1,2.2,1.2,0.6,1.2,0.6s0.9,0.3,0.9,1.2c0,0.9,2.5,1.8,0.9,3
		c-1.6,1.2-7.4,11.2-11.2,11.1c-2.3-2.6-4.7-5-7.3-7.3C246.3,243.5,242.7,226.3,258.3,231.4z"/>
	<path class="st14" d="M398.2,250l-5.2,9.3l-3.6,1.9c-0.1-1-0.1-1.6-0.1-1.6s-2.4-5.5,3.7-9.6c5.3-3.6,2.5-6.6,1.7-7.2l0.2-0.1
		l1.2-0.2L398.2,250z"/>
	<path class="st14" d="M432.9,245.9c-0.8,1.8-7.9,6.8-7.9,6.8c0,0,0,0,0,0l-0.3-0.4l6.7-7.7l1.2,0.8L432.9,245.9z"/>
	<path class="st14" d="M414.1,285.3c-1,0.1-2,0.1-3,0.1c-1.9-1.9-4-3.6-6.2-5.1c-1.1-0.7-2.2-1.5-3.5-2.2c-4.4-2.4-9.9-4.4-15.5-3.4
		c-0.1,0-0.3,0-0.4,0.1c0,0,0.1-0.1,0.4-0.3c0.2-0.2,0.6-0.5,1-0.9l4.2-2.3l19.4,6.8c0,0-0.4,0.2-1,0.4l4.3,1.4
		C413.8,279.9,414.4,281.1,414.1,285.3z"/>
	<path class="st70" d="M407.9,240.5c0,0,15,1.5,21.8,0.7c0,0,3.4,2.6,2.9,4.3c-0.4,1.7-7.9,6.9-7.9,6.9s-0.6,13.1-3.6,16.2
		c-3,3.1-5.7,11.2-4.4,13.9s-5.3,2.2-5.3,2.2s-12.5-13.1-25.5-10.6c0,0,4.7-3.8,4.4-6.6c-0.3-2.8-0.8-7.9-0.8-7.9s-2.3-5.5,3.7-9.6
		s1.6-7.4,1.6-7.4s-0.2-1,2.3-1.3c1.2-0.1,2.5-0.4,3.7-0.7c0,0,2.5-2.2,3.6-1.8C405.6,239.1,407.9,240.5,407.9,240.5z"/>
	<path class="st14" d="M425,250.7c0,0,1.8,3.5-0.2,5.4c-0.8,0.8-1.5,1.7-2.1,2.5c-3.6,4.9-6.6,10.1-9,15.7
		c-4.1,9.6-11.3,26-12.3,26.9c-1.5,1.2-1.6,3.7-0.1,3.8c1.5,0.1,2.4-2,2.4-2s1.5-4.3,2.5-6c1-1.7,10.9-24.5,10.9-24.5
		s3.7-9.7,7.8-12c0,0,3.6-5.9,3-8.6C427.2,249.3,425,250.7,425,250.7z"/>
	<path class="st4" d="M425,250.4c0,0,1.8,3.5-0.2,5.4c-0.8,0.8-1.5,1.7-2.1,2.5c-3.6,4.9-6.6,10.1-9,15.7
		c-4.1,9.6-11.3,26-12.3,26.9c-1.5,1.2-1.6,3.7-0.1,3.8s2.4-2,2.4-2s1.5-4.3,2.5-6c1-1.7,10.9-24.5,10.9-24.5s3.7-9.7,7.8-12
		c0,0,3.6-5.9,3-8.6C427.2,249,425,250.4,425,250.4z"/>
	<path class="st30" d="M440.3,262.2c0.4,2,0.3,4.1-0.5,6c0,0-4.8,0.2-9.5-6.4l-2.9-7c0,0-3.2-5.4-5.1-5.1c-1.9,0.3-3.4,9.8-7.9,8.9
		c-4.5-0.9-2.1-12.3,3.9-13.5l2.3-0.6c1.7-0.4,3.5-0.1,4.9,1c1.1,0.9,2.6,2,4.4,3.4c1.5,1.1,2.9,2.2,4.1,3.1
		C437.2,254.4,439.5,258.1,440.3,262.2z"/>
	<path class="st14" d="M390.7,261.7c0,0,2.3,2.8,6,3.4c3.7,0.6,5.8-0.6,8.9,0.7C408.7,267,390.7,261.7,390.7,261.7z"/>
	<path class="st14" d="M421.6,256.5c0,0-7,6-6.7,7.6C415.1,265.6,421.6,256.5,421.6,256.5z"/>
	<path class="st14" d="M377.8,333.5c-1.3,0.8-2.5,1.8-3.6,2.7c-1.5,1.3-5.1,2.5-5.1,2.5L377.8,333.5z"/>
	<path class="st14" d="M359.9,347.7c0,0-6.9,6.2-8,6C350.8,353.6,359.9,347.7,359.9,347.7z"/>
	<path class="st14" d="M374.2,340.1c-0.2,0.3-0.4,0.6-0.6,0.9c-1.7,2.4-7.3,1.8-9.3,0.4C366,340.8,371.3,339.2,374.2,340.1z"/>
	<g class="st18">
		<path class="st19" d="M346.2,202.2c0.1-0.2,0.1-0.5,0.2-0.7C346.3,201.7,346.3,201.9,346.2,202.2z"/>
		<path class="st19" d="M325,209.6c0-0.2,0.1-0.3,0.2-0.4c0.5-1.1-0.1-1.9-0.9-2.6c-0.7-0.6-1.2-1.5-1.3-2.4c0-0.3-0.1-0.5-0.1-0.8
			c-0.1,0.1-0.1,0.2-0.2,0.2c-0.3,0.5-0.2,1.1-0.1,1.7c0.1,0.9,0.6,1.8,1.3,2.4C324.5,208.3,325,208.9,325,209.6z"/>
		<path class="st19" d="M343.9,219.5c-0.6-0.2-1,0.4-1.3,0.9s-0.6,1.1-1.2,1.2c-0.7,0.1-1.2-0.7-1.5-1.3c-0.3-0.6-0.6-1.3-0.6-2
			c0-0.1,0-0.2,0-0.3c-0.2,0.5-0.3,0.9-0.4,1.4c0,0.7,0.3,1.4,0.6,2s0.8,1.4,1.5,1.3c0.6-0.1,0.9-0.7,1.2-1.2s0.8-1,1.3-0.9
			c0.2,0.1,0.5,0.3,0.7,0.2c0.1-0.1,0.2-0.2,0.2-0.4c0.1-0.3,0.1-0.5,0.1-0.8C344.4,219.8,344.1,219.6,343.9,219.5z"/>
		<path class="st19" d="M347.3,213.9c-0.7,0.6-1.6,1-2.1,1.8c-0.2,0.4-0.3,0.7-0.3,1.1c0.4-0.8,1.3-1.2,2-1.8
			c1.1-0.9,1.9-2.2,2.1-3.6C348.8,212.5,348.1,213.3,347.3,213.9z"/>
		<path class="st19" d="M339.8,216.9c0.1-0.3,0.2-0.7,0.3-1c0.2-1.1-0.1-2.1-0.5-3.1c-0.3-0.7-0.7-1.6-1.5-1.6
			c-0.2,0-0.3,0.1-0.5,0.1c-0.4-0.1-0.5-0.6-0.5-1c-0.3-2-1.8-3.6-3.8-4c-0.2,0-0.5,0-0.7,0c-0.3,0.1-0.5,0.4-0.7,0.6
			c-0.9,0.6-1.9-0.5-3-0.5c-0.9,0.1-1.4,1-1.8,1.8c-0.4,0.8-0.8,1.7-1.7,1.9c-0.1,0-0.3,0-0.4,0c-0.1-0.1-0.1-0.1-0.1-0.3
			c0,0.2-0.1,0.4-0.2,0.5c-0.1,0.3-0.3,0.7,0,0.9c0.1,0.1,0.3,0.1,0.4,0c0.9-0.2,1.3-1.1,1.7-1.9c0.4-0.8,0.9-1.7,1.8-1.8
			c1-0.1,2.1,1,3,0.5c0.3-0.2,0.4-0.5,0.7-0.6c0.2-0.1,0.4-0.1,0.7,0c2,0.3,3.6,1.9,3.8,4c0,0.4,0.1,1,0.5,1c0.2,0,0.3,0,0.5-0.1
			c0.8-0.1,1.3,0.8,1.5,1.6C339.6,214.9,339.9,215.9,339.8,216.9z"/>
	</g>
	<path class="st72" d="M345.3,252.1c0,0-4.3,1.3-6.2,1.3c-1.9,0-9.5,0-9.5,0s-19.7-6.6-13.8,2.4c5.9,9,15.3,4,15.3,4l1.7,0.4
		c0.9,0.2,18.8,0,19.4-0.7C352.7,258.8,345.3,252.1,345.3,252.1z"/>
	<path class="st14" d="M357.6,260c-2.7,0.2-8,0.3-8,0.3s-3.9-7.8-7.3-7.6c0,0,3.1-3.5,4.4-3.1c0.2,0.1,0.3-0.1,0.4-0.4
		c3.3,1,9.6,3.5,10.2,7.8C357.4,258.2,357.5,259.2,357.6,260z"/>
	<path class="st74" d="M357.9,260c-2.7,0.2-8,0.3-8,0.3s-3.9-7.8-7.3-7.6c0,0,3.1-3.5,4.4-3.1c0.2,0.1,0.3-0.1,0.4-0.4
		c3.3,1,9.6,3.5,10.2,7.8C357.8,258.2,357.9,259.2,357.9,260z"/>
	<path class="st14" d="M357.9,260c-2.7,0.2-8,0.3-8,0.3s-3.9-7.8-7.3-7.6c0,0,3.1-3.5,4.4-3.1c0.2,0.1,0.3-0.1,0.4-0.4
		c3.3,1,9.6,3.5,10.2,7.8C357.8,258.2,357.9,259.2,357.9,260z"/>
	<path class="st14" d="M334.4,282.5c0,0,7.6-1.8,8.7-0.8C344.3,282.7,334.4,282.5,334.4,282.5z"/>
	<path class="st14" d="M312.7,289.7c0,0,3.2,1.8,3.5,3.4C316.6,294.6,312.7,289.7,312.7,289.7z"/>
	<g class="st18">
		<path class="st19" d="M259,189.5c0,0.4,0,0.8,0.2,1.2c0-0.1,0-0.3,0-0.4c0-0.6,0.2-1.2,0.2-1.7c0-0.2-0.1-0.5-0.2-0.7
			C259.2,188.5,259.1,189,259,189.5z"/>
		<path class="st19" d="M228,189c0.1,0.4,0.4,0.8,0.5,1.2c0-0.1,0-0.2,0-0.3c-0.1-0.6-0.4-1.1-0.6-1.6
			C227.9,188.5,227.9,188.8,228,189z"/>
		<path class="st19" d="M261.5,194.2c0-0.1-0.1-0.2-0.2-0.3c-0.1,0.3-0.3,0.5-0.5,0.6c-0.4,0.2-0.9,0.2-1.4,0.2
			c-1,1.8-4.2,1-5.5,2.6c-0.6,0.8-0.5,1.9-0.7,2.9c-0.4,1.6-1.6,3-1.4,4.6c0.1,0.6,0.3,1.2,0,1.7c-0.3,0.5-1,0.4-1.4,0.2
			c-1.2-0.5-1.9-1.8-2.8-2.8s-2.5-1.8-3.5-0.9c-0.9,0.7-0.7,2.1-0.6,3.2c0.1,1.1-0.2,2.6-1.3,2.7c-0.4,0.1-0.9-0.1-1.3,0
			c-1.4,0.3-1.3,2.7-2.6,3.2c-0.5,0.2-1,0-1.5-0.1c-1.8-0.4-3.8,0.5-5.5,0c-0.9-0.3-1.3-1.3-1.6-2.3c0.2,1.3,0.6,2.8,1.7,3.2
			c1.6,0.5,3.7-0.4,5.5,0c0.5,0.1,1,0.3,1.5,0.1c1.4-0.4,1.2-2.8,2.6-3.2c0.4-0.1,0.9,0.1,1.3,0c1.1-0.2,1.4-1.6,1.3-2.7
			c-0.1-1.1-0.2-2.4,0.6-3.2c1-0.9,2.6-0.1,3.5,0.9c0.9,1,1.6,2.3,2.8,2.8c0.5,0.2,1.1,0.2,1.4-0.2c0.3-0.4,0.1-1.1,0-1.7
			c-0.2-1.6,1-3,1.4-4.6c0.2-1,0.1-2.1,0.7-2.9c1.2-1.7,4.4-0.8,5.5-2.6c0.5,0.1,0.9,0,1.4-0.2C261.4,195.1,261.7,194.6,261.5,194.2
			z"/>
		<path class="st19" d="M229.2,207.4c-0.2-0.9-0.4-1.7-1-2.4c-0.4-0.5-1-1-1.3-1.6c0,0.1,0,0.1,0,0.2c0,0.9,1,1.5,1.5,2.2
			c0.6,0.7,0.8,1.6,1,2.4C229.3,208,229.3,207.7,229.2,207.4z"/>
		<path class="st19" d="M228.1,199.2c-0.1-1.1-0.8-2.3-1.2-3.5C227,196.9,227.8,198,228.1,199.2z"/>
	</g>
	<path class="st14" d="M286.8,303.8c0,0,9.4-0.3,7.1,0.7c-2.2,1-8.6,0.9-8.6,0.9L286.8,303.8z"/>
	<path class="st14" d="M325.5,323.8c0,0,4.4-0.7,5.5,0.1S325.5,323.8,325.5,323.8z"/>
	<path class="st77" d="M353.7,261.2c0,0.9-2.7,1.9-6,1.9c-3.3,0-6-1-6-1.9s2.7-1.2,6-1.2C351,260,353.7,260.4,353.7,261.2z"/>
	<path class="st14" d="M353.7,261.2c0,0.9-2.7,1.9-6,1.9c-3.3,0-6-1-6-1.9s2.7-1.2,6-1.2C351,260,353.7,260.4,353.7,261.2z"/>
	<ellipse class="st77" cx="347.7" cy="261.2" rx="6" ry="1.6"/>
	<ellipse class="st14" cx="347.7" cy="261.2" rx="3.4" ry="0.9"/>
	<path class="st78" d="M352.6,259.4c-0.4,0.8-1.3,1.3-2.2,1.4c-0.4,0-0.7,0-1-0.1l0.4-0.6c0.3,0.1,0.5,0.1,0.8,0
		c0.5-0.1,0.8-0.4,1.1-0.8c0.4-0.8-0.1-0.9-0.5-0.9c-0.1,0-0.2,0-0.2,0l0.3-0.5c0,0,0.1,0,0.3,0
		C352.2,257.8,353.4,257.9,352.6,259.4z"/>
	<path class="st78" d="M350,261.5c-1.5,0.5-3.1,0.5-4.6,0l0-0.2l0-0.2l4.5-0.1l0,0.3L350,261.5z"/>
	<path class="st14" d="M350.6,260c0,0.2-0.1,0.5-0.2,0.7c-0.4,0-0.7,0-1-0.1l0.4-0.6C350.1,260.1,350.3,260.1,350.6,260z"/>
	<path class="st14" d="M351.6,257.9c0,0.1-0.1,0.1-0.1,0.2l0,0c-0.1,0.1-0.2,0.2-0.3,0.3c-0.1,0-0.2,0-0.2,0l0.3-0.5
		C351.3,257.9,351.4,257.9,351.6,257.9z"/>
	<path class="st14" d="M349.9,261.3c-0.8,0.3-3.8,0.4-4.6,0l0-0.2l4.5-0.1L349.9,261.3z"/>
	<path class="st78" d="M351.4,258.1L351.4,258.1c-0.5,0.4-0.7,1-0.8,1.5c-0.1,1.3-0.4,1.5-0.5,1.5c-0.2,0.4-4.3,0.6-4.9,0
		c-0.5-0.5-1-1.5-0.8-2c0.1-0.3-0.1-0.6-0.4-0.9c-0.3-0.3-0.2-0.8,0.3-1c1.1-0.5,3.2-0.5,3.2-0.5c1.7-0.1,2.8,0.1,3.5,0.4l0.1,0
		c0.2,0.1,0.3,0.2,0.4,0.4C351.6,257.7,351.5,257.9,351.4,258.1z"/>
	<ellipse class="st14" cx="347.6" cy="257.9" rx="3.1" ry="0.5"/>
	<ellipse class="st89" cx="347.6" cy="258" rx="3.1" ry="0.5"/>
	<path class="st90" d="M348.3,257.7c0,0-2.2,0-2.1,0.6C346.8,257.9,347.5,257.8,348.3,257.7z"/>
	<path class="st90" d="M348.9,257.8c0,0-1.3,0-1.1,0.4c0,0,0.3,0,0.3-0.1C348,258,348.9,257.9,348.9,257.8L348.9,257.8z"/>
	<path class="st79" d="M344.2,257.7c0,0-0.1,0.9,3.4,0.9c3.4,0,3.4-0.7,3.5-0.9h-0.2c0,0,0,0.8-3.2,0.7c-3.2,0-3.3-0.7-3.3-0.7
		H344.2z"/>
	<path class="st14" d="M351.5,257.5l-2.1,0.8c-0.1,0-0.2,0-0.2,0l0,0c-0.1-0.1-0.1-0.2,0.1-0.3l1.9-0.8
		C351.3,257.2,351.5,257.3,351.5,257.5z"/>
	<path class="st77" d="M349.2,257.9l5.4-2.3c0.1-0.1,0.3-0.1,0.4-0.1c0.3,0,0.7,0,0.5,0.3c-0.1,0.2-0.2,0.3-0.4,0.3l-5.7,2.1
		c-0.1,0-0.2,0-0.2,0l0,0C349.1,258.1,349.1,258,349.2,257.9z"/>
	<path class="st14" d="M349.2,257.9l5.4-2.3c0.1-0.1,0.3-0.1,0.4-0.1c0.3,0,0.7,0,0.5,0.3c-0.1,0.2-0.2,0.3-0.4,0.3l-5.7,2.1
		c-0.1,0-0.2,0-0.2,0l0,0C349.1,258.1,349.1,258,349.2,257.9z"/>
	<path class="st77" d="M349.2,257.9l5.4-2.3c0.1-0.1,0.3-0.1,0.4-0.1c0.3,0,0.7,0,0.5,0.3c-0.1,0.2-0.2,0.3-0.4,0.3l-5.7,2.1
		c-0.1,0-0.2,0-0.2,0l0,0C349.1,258.1,349.1,257.9,349.2,257.9z"/>
	<path class="st14" d="M348.9,257.9c0,0,0.6-0.1,0.5,0c-0.1,0.1,0.2,0.2,0.2,0.2c-0.2,0-0.5,0.1-0.7,0
		C348.9,258.2,348.9,257.9,348.9,257.9z"/>
	<path class="st89" d="M348.9,258c0,0,0.6-0.1,0.5,0c-0.1,0.1,0.2,0.2,0.2,0.2c-0.2,0-0.5,0.1-0.7,0
		C348.9,258.2,348.9,258,348.9,258z"/>
	<path class="st91" d="M348,253.9c-0.2,0.2-0.4,0.4-0.5,0.7c0,0.2,0,0.5,0,0.7c0,0.2,0.1,0.3,0.1,0.5c0,0.1,0.1,0.2,0.2,0.1
		c0-0.2-0.1-0.4-0.1-0.6c0-0.2,0.1-0.5,0.3-0.6c0.2-0.2,0.3-0.4,0.4-0.5c0-0.1,0.2-0.9,0-0.8c0,0-0.1,0.3-0.1,0.4
		C348.2,253.7,348.1,253.8,348,253.9z"/>
	<path class="st91" d="M348.1,255.2c0,0.1,0.1,0.1,0.2,0.2c0,0,0,0.1,0,0.1c0.1,0.2,0,0.5-0.2,0.7c0.2,0,0.3-0.2,0.4-0.4
		c0-0.1,0-0.2,0.1-0.2c0-0.1,0-0.2,0-0.2c0-0.1,0.1-0.4-0.2-0.5C348.3,254.9,348.1,255,348.1,255.2
		C348.1,255.2,348.1,255.2,348.1,255.2z"/>
	<path class="st14" d="M344.5,258.9c0,0,0.3,0.3,1,0.3c-0.3,0-0.7,0-1-0.1L344.5,258.9z"/>
	<polygon class="st4" points="274.5,303.4 285.8,303.4 282.1,309.3 274.8,312.9 	"/>
	<path class="st54" d="M396.6,209.5c0.5-0.6,1.4-1,1.8-1.7c0.2-0.4,0.3-0.9,0.4-1.3c0.4-1.4,1.5-2.4,2.8-2.9c1.4-0.5,3-0.5,4.5,0.1
		c0.7,0.3,1.2,0.7,1.9,0.9c1.4,0.5,3.1,0.2,4.5-0.2s2.9-0.9,4.5-0.9s3.2,0.8,3.5,2.1c0.1,0.3,0.1,0.7,0.1,1c0.2,1.5,1.6,2.8,3.1,3.7
		c1.5,0.9,3.3,1.4,4.7,2.4c1.4,1,2.5,2.5,2.2,4.1c-0.2,0.9-1,1.7-1.6,2.5c-1.5,2.1-2.2,4.5-2.7,6.9c-0.2,0.8-0.4,1.7-0.2,2.5
		c0.4,1.5,1.9,2.6,2.9,3.8c1.3,1.6,1.7,3.6,1.6,5.5s-0.7,3.8-1.3,5.6c-0.2,0.7-0.5,1.4-0.9,2c-0.7,1.1-2,1.8-3.2,2.4
		c-0.5,0.3-1.2,0.5-1.8,0.6c-1.4,0-2.1-1.3-2.4-2.4c-0.2-0.9-0.3-1.9-0.3-2.8c0.1-0.3,0-0.7-0.1-1c-0.2-0.3-0.5-0.6-0.8-0.7
		c-1.9-1.2-4.9-1.4-5.9-3.2c-0.3-0.6-0.4-1.3-0.7-1.9c-1.1-2-4.7-2.5-5.4-4.7c-0.5-1.3,0.4-2.7,1.1-3.9c0.8-1.4,1.6-2.8,2.2-4.3
		c0.6-1.3,1-2.8,0.3-4.1c-1.2-1.9-4.6-2.3-5.5-4.4c-0.3-0.7-0.3-1.6-1.1-2.1c-0.9-0.5-2.2-0.5-3.1-1c-0.6-0.4-1-0.8-1.8-1
		c-1-0.2-2.3,0.6-3.2,0.2C396,210.9,396.2,210,396.6,209.5z"/>
</g>
</svg>
