<?xml version="1.0" encoding="utf-8"?>
<!-- Generator: Adobe Illustrator 24.3.0, SVG Export Plug-In . SVG Version: 6.00 Build 0)  -->
<svg version="1.1" id="圖層_1" xmlns="http://www.w3.org/2000/svg" xmlns:xlink="http://www.w3.org/1999/xlink" x="0px" y="0px"
	 viewBox="0 0 465.4 587.2" style="enable-background:new 0 0 465.4 587.2;" xml:space="preserve">
<style type="text/css">
	.st0{fill:#D8BF91;}
	.st1{opacity:0.1;fill:#970F00;}
	.st2{fill:#D68787;}
	.st3{opacity:0.7;fill:#C5B48E;}
	.st4{fill:none;stroke:#8C5C0F;stroke-width:2;stroke-miterlimit:10;}
	.st5{fill:#FFFFFF;}
	.st6{opacity:0.7;}
	.st7{fill:#E56004;}
	.st8{fill:#B60B14;}
	.st9{fill:#F6AB00;}
	.st10{fill:#E86A00;}
	.st11{fill:#BBBE3A;}
	.st12{fill:#8B5405;}
	.st13{fill:#FFFFFF;stroke:#8C5C0F;stroke-width:10.2183;stroke-linecap:round;stroke-linejoin:round;stroke-miterlimit:10;}
	.st14{fill:#FFFFFF;stroke:#8C5C0F;stroke-width:3.5164;stroke-linecap:round;stroke-linejoin:round;stroke-miterlimit:10;}
	.st15{fill:#629988;}
	.st16{fill:#9FBB68;}
	.st17{fill:#EDB754;}
	.st18{fill:#086659;}
	.st19{fill:#D6BB62;}
	.st20{fill:#6CA890;}
	.st21{fill:#589C7D;}
	.st22{fill:#ACCB96;}
	.st23{fill:#EFCB6B;}
	.st24{fill:#7BA44F;}
	.st25{fill:#60904C;}
	.st26{fill:#F5B970;}
	.st27{fill:#D3C8B2;}
	.st28{fill:none;}
	.st29{fill:#EBBB00;}
	.st30{fill:#EC8000;}
	.st31{fill:#8C5C0F;}
	.st32{fill:#D1A002;}
	.st33{fill:none;stroke:#838D50;stroke-width:5;stroke-linecap:round;stroke-linejoin:round;stroke-miterlimit:10;}
	.st34{fill:#4A511B;}
	.st35{fill:#FFFFFF;stroke:#8C5C0F;stroke-width:4;stroke-linecap:round;stroke-linejoin:round;stroke-miterlimit:10;}
	.st36{fill:#31876A;}
	.st37{fill:#34A592;}
	.st38{fill:#49A57E;}
	.st39{fill:#40966D;}
	.st40{fill:#F99A03;}
	.st41{fill:#FFB600;}
	.st42{fill:#E5E2DF;}
	.st43{opacity:0.15;clip-path:url(#SVGID_4_);fill:#231815;}
	.st44{opacity:0.2;}
	.st45{fill-rule:evenodd;clip-rule:evenodd;fill:#F0E9DD;}
	.st46{fill:#8C5C0F;stroke:#8C5C0F;stroke-width:2;stroke-miterlimit:10;}
	.st47{fill:#D39713;}
	.st48{fill:#B39900;}
	.st49{fill:#0F3500;}
	.st50{fill:#970F00;}
	.st51{fill:#2B0000;}
	.st52{fill:#A9775D;}
	.st53{fill:#1C0307;}
	.st54{fill:#300F00;}
	.st55{fill:#654837;}
	.st56{fill:#C5B48E;}
	.st57{fill:none;stroke:#5B5B5A;stroke-width:3.1224;stroke-linecap:round;stroke-linejoin:round;stroke-miterlimit:10;}
	.st58{fill:none;stroke:#858E51;stroke-width:3.1224;stroke-linecap:round;stroke-linejoin:round;stroke-miterlimit:10;}
	.st59{opacity:0.7;fill:#654837;}
	.st60{fill:none;stroke:#5E6814;stroke-width:5;stroke-linecap:round;stroke-linejoin:round;stroke-miterlimit:10;}
	.st61{fill:#DDA018;}
	.st62{fill:#5D3F00;}
	.st63{opacity:0.7;fill:#828C51;}
	.st64{fill:#BA8313;}
	.st65{opacity:0.1;}
	.st66{fill-rule:evenodd;clip-rule:evenodd;fill:#595757;}
	.st67{fill:#373831;}
	.st68{fill:#A3B236;}
	.st69{fill:#662424;}
	.st70{fill:#5B660E;}
	.st71{fill:#E0B868;}
	.st72{fill:#828C51;}
	.st73{fill:#3F3D56;}
	.st74{opacity:0.1;enable-background:new    ;}
	.st75{fill:#6C63FF;}
	.st76{fill:#89594C;}
	.st77{fill:#CC9F8B;}
	.st78{opacity:0.1;fill:none;stroke:#000000;stroke-width:0.193;stroke-miterlimit:10;enable-background:new    ;}
	.st79{fill:url(#SVGID_7_);}
	.st80{fill:#346352;}
	.st81{fill:#264C3E;}
	.st82{fill:#2F5B4B;}
	.st83{fill:#528473;}
	.st84{fill:#2B604D;}
	.st85{fill:#32604E;}
	.st86{fill:#336050;}
	.st87{fill:#245B47;}
	.st88{fill:#32604F;}
	.st89{fill:url(#SVGID_8_);}
	.st90{fill:#939393;}
	.st91{fill:#D38884;}
	.st92{fill:#F7F7F7;}
	.st93{fill:#333333;}
	.st94{fill:#E5EDF6;}
	.st95{fill:#4949EA;}
	.st96{fill:url(#SVGID_9_);}
	.st97{fill:#16162D;}
	.st98{fill:#FFD2C6;}
	.st99{fill:#EFC3BB;}
	.st100{fill:#4C6475;}
	.st101{fill:#000005;}
	.st102{fill:#151535;}
	.st103{fill:#FFB9B9;}
	.st104{fill:#535184;}
	.st105{fill:#504F60;}
	.st106{fill:#564B2E;}
	.st107{fill:#FFE6EC;}
	.st108{fill:none;stroke:#373831;stroke-width:3;stroke-linecap:round;stroke-linejoin:round;stroke-miterlimit:10;}
	.st109{fill:none;stroke:#858E51;stroke-width:4;stroke-linecap:round;stroke-linejoin:round;stroke-miterlimit:10;}
	.st110{fill:none;stroke:#858E51;stroke-width:5;stroke-linecap:round;stroke-linejoin:round;stroke-miterlimit:10;}
	.st111{fill:#46490C;}
	.st112{fill:none;stroke:#858E51;stroke-width:7;stroke-linecap:round;stroke-linejoin:round;stroke-miterlimit:10;}
	.st113{fill:#858E51;}
	.st114{fill:#A57C67;}
	.st115{fill:#AD7E14;}
	.st116{fill:#2F2E41;}
	.st117{opacity:0.2;enable-background:new    ;}
	.st118{fill:#224C2F;}
	.st119{fill:#FFB8B8;}
	.st120{fill:#848587;}
	.st121{fill:#2C2E11;}
	.st122{fill:#A5AA49;}
	.st123{fill:#8E8E3C;}
	.st124{fill:#575D1E;}
	.st125{fill:#474D15;}
	.st126{fill:#52504A;}
	.st127{fill:#303030;}
	.st128{fill:#26547A;}
	.st129{fill:#60352B;}
	.st130{fill:#565656;}
	.st131{fill:#877058;}
	.st132{fill:#5B2C49;}
	.st133{fill:#F26383;}
	.st134{fill:#3A2428;}
	.st135{fill:#F4A96C;}
	.st136{fill:#BDD2E8;}
	.st137{fill:#B77776;}
	.st138{fill:#FFD6DB;}
	.st139{fill:#575A89;}
	.st140{fill:#CE9982;}
	.st141{fill:#9E6F5F;}
	.st142{fill:#E8EAF2;}
	.st143{opacity:5.000000e-02;enable-background:new    ;}
	.st144{fill:#F1CEC8;}
	.st145{fill:#F6E2DF;}
	.st146{fill:#FDF9F9;}
	.st147{opacity:0.3;fill:#42312E;enable-background:new    ;}
	.st148{fill:#EAEAEA;}
	.st149{fill:#E4AAB4;}
	.st150{fill:#FFC1C7;}
	.st151{fill:#15325B;}
	.st152{fill:#575988;}
	.st153{fill:#D3878A;}
	.st154{fill:#EFEFEF;}
	.st155{fill:#42312E;}
	.st156{opacity:0.2;fill:#FFFFFF;enable-background:new    ;}
	.st157{fill:#F2DCDC;}
	.st158{fill:#A4C64F;}
	.st159{fill:#E0951E;}
	.st160{fill:#147A66;}
	.st161{fill:#176D46;}
	.st162{fill:#168950;}
	.st163{fill:#99D36C;}
	.st164{fill:#9CD156;}
	.st165{fill:#D89830;}
	.st166{fill:#636363;}
	.st167{fill:#3A56AF;}
	.st168{fill:#111135;}
	.st169{fill:#CEDDF9;}
	.st170{fill:#F3FFF8;}
	.st171{fill:#212151;}
	.st172{fill:#1E1637;}
	.st173{fill:#F2F2F2;}
	.st174{fill:#893F3A;}
	.st175{fill:url(#SVGID_14_);}
	.st176{fill:url(#SVGID_15_);}
	.st177{fill:url(#SVGID_16_);}
	.st178{opacity:0.35;fill:#666B40;}
	.st179{fill:#666B40;stroke:#FFFFFF;stroke-width:2;stroke-miterlimit:10;}
	.st180{opacity:0.35;fill:#893F3A;}
	.st181{fill:#893F3A;stroke:#FFFFFF;stroke-width:2;stroke-miterlimit:10;}
	.st182{opacity:0.35;fill:#AD7E14;}
	.st183{fill:#AD7E14;stroke:#FFFFFF;stroke-width:2;stroke-miterlimit:10;}
	.st184{opacity:0.35;fill:#846253;}
	.st185{fill:#846253;stroke:#FFFFFF;stroke-width:2;stroke-miterlimit:10;}
	.st186{fill:#666B40;}
	.st187{fill:#846253;}
	.st188{fill:#FFD5D7;}
	.st189{fill:url(#SVGID_23_);}
	.st190{fill:#352333;}
	.st191{fill:#4B3648;}
	.st192{fill:#E6EBEF;}
	.st193{fill:#6E6D84;}
	.st194{fill:#7192AD;}
	.st195{fill:#4F6F84;}
	.st196{fill:#382502;}
	.st197{fill:url(#SVGID_24_);}
	.st198{fill:#D1C199;}
	.st199{fill:#353045;}
	.st200{fill:#2D2203;}
	.st201{fill:#231B02;}
	.st202{fill:#EDF3F9;}
	.st203{fill:#D8D0B4;}
	.st204{fill:#EADCB2;}
	.st205{fill:#FEFFFF;}
	.st206{fill:#D3C39C;}
	.st207{fill:#464A5F;}
	.st208{fill:#9C9CA1;}
	.st209{fill:#939498;}
	.st210{opacity:0.4;fill:#893F3A;}
	.st211{fill:none;stroke:#893F3A;stroke-width:4;stroke-linecap:round;stroke-linejoin:round;stroke-miterlimit:10;}
	.st212{opacity:0.2;fill:#AD7E14;}
	.st213{fill:none;stroke:#AD7E14;stroke-width:4;stroke-linecap:round;stroke-linejoin:round;stroke-miterlimit:10;}
	.st214{fill:#A8AD6C;}
	.st215{opacity:0.4;fill:#666B40;}
	.st216{fill:none;stroke:#666B40;stroke-width:4;stroke-linecap:round;stroke-linejoin:round;stroke-miterlimit:10;}
	.st217{fill:#BF917F;}
	.st218{opacity:0.4;fill:#846253;}
	.st219{fill:none;stroke:#846253;stroke-width:4;stroke-linecap:round;stroke-linejoin:round;stroke-miterlimit:10;}
	.st220{fill:url(#SVGID_33_);}
	.st221{fill:url(#SVGID_34_);}
	.st222{fill:#4D4C6B;}
	.st223{fill:#EF996F;}
	.st224{fill:#FF6584;}
	.st225{fill:#E6E6E6;}
	.st226{fill:#B09582;}
	.st227{fill:#65617D;}
	.st228{fill:#FABDBD;}
	.st229{fill:#7C5C5C;}
	.st230{fill:#B2B0C1;}
	.st231{fill:#232323;}
	.st232{fill:#EFD259;}
	.st233{fill:#698768;}
	.st234{fill:#CFAF97;}
	.st235{fill:none;stroke:#5B5B5B;stroke-width:0.5;stroke-miterlimit:10;}
	.st236{fill:#5B5B5B;}
	.st237{fill:#BC481F;}
	.st238{opacity:0.1;fill:none;stroke:#000000;stroke-width:0.3361;stroke-miterlimit:10;enable-background:new    ;}
	.st239{fill:url(#SVGID_35_);}
	.st240{fill:url(#SVGID_36_);}
	.st241{fill:url(#SVGID_37_);}
	.st242{fill:none;stroke:#858E51;stroke-width:7.2616;stroke-linecap:round;stroke-linejoin:round;stroke-miterlimit:10;}
	.st243{opacity:0.4;fill:#BC481F;}
	.st244{fill:#BC481F;stroke:#FFFFFF;stroke-width:2;stroke-miterlimit:10;}
	.st245{fill:url(#SVGID_46_);}
	.st246{fill:url(#SVGID_47_);}
	.st247{fill:none;stroke:#5B5B5B;stroke-width:0.9499;stroke-miterlimit:10;}
	.st248{fill:url(#SVGID_48_);}
	.st249{fill:url(#SVGID_49_);}
	.st250{fill:url(#SVGID_50_);}
</style>
<g>
	
		<ellipse transform="matrix(0.9841 -0.1774 0.1774 0.9841 -28.1605 55.6113)" class="st68" cx="296.8" cy="185.3" rx="86.3" ry="176.1"/>
	<path class="st69" d="M282.7,152.3c7.6,20.6,14.3,41.6,20.3,62.8c5.9,21.2,11,42.6,15.2,64.2c4.2,21.6,7.5,43.4,10,65.2
		c2.4,21.9,4,43.8,4.7,65.8c0.7,22,0.5,44-0.6,66c-0.1,2.7-0.3,5.4-0.4,8.1c-0.2,2.8,4.1,2.7,4.3,0c1.3-22.1,1.7-44.1,1.2-66.3
		c-0.5-22-1.9-43.9-4.1-65.8c-2.3-22-5.4-43.8-9.4-65.6c-4-21.7-8.8-43.3-14.6-64.7c-5.7-21.3-12.3-42.4-19.7-63.3
		c-0.9-2.5-1.8-5.1-2.8-7.6C285.9,148.6,281.8,149.7,282.7,152.3L282.7,152.3z"/>
	<path class="st69" d="M312.3,233.5l19-42.2l5.4-11.9c0.6-1,0.2-2.3-0.8-2.9c-1-0.6-2.3-0.2-2.9,0.8l-19,42.2l-5.4,11.9
		c-0.6,1-0.2,2.3,0.8,2.9C310.4,234.9,311.7,234.5,312.3,233.5L312.3,233.5z"/>
	<path class="st69" d="M316.5,262.3l-43.3-16.2l-12.2-4.6c-1.1-0.3-2.3,0.4-2.6,1.5c-0.3,1.1,0.4,2.3,1.5,2.6l43.3,16.2l12.2,4.6
		c1.1,0.3,2.3-0.4,2.6-1.5C318.3,263.8,317.6,262.7,316.5,262.3L316.5,262.3z"/>
	
		<ellipse transform="matrix(0.9983 -5.775697e-02 5.775697e-02 0.9983 -14.7261 23.1691)" class="st70" cx="393.5" cy="266.3" rx="64.9" ry="132.4"/>
	<path class="st69" d="M385.9,240.5c3.8,16.1,7,32.3,9.5,48.7c2.5,16.4,4.3,32.8,5.5,49.3c1.2,16.5,1.7,33.1,1.6,49.6
		c-0.2,16.5-1,33.1-2.4,49.5c-1.5,16.5-3.6,32.9-6.4,49.2c-0.3,2-0.7,4-1.1,6c-0.4,2,2.8,2.4,3.2,0.4c3-16.4,5.3-32.8,6.9-49.4
		c1.6-16.5,2.6-33,2.9-49.5c0.3-16.6,0-33.2-1.1-49.8c-1-16.6-2.7-33.1-5-49.6c-2.3-16.5-5.3-32.8-9-49c-0.4-2-0.9-4-1.4-5.9
		C388.6,238,385.4,238.4,385.9,240.5L385.9,240.5z"/>
	<path class="st69" d="M400.6,303.8l18-29.8l5.1-8.4c0.5-0.7,0.4-1.7-0.3-2.3c-0.7-0.5-1.7-0.4-2.3,0.3l-18,29.8l-5.1,8.4
		c-0.5,0.7-0.4,1.7,0.3,2.3C399.1,304.6,400.1,304.5,400.6,303.8L400.6,303.8z"/>
	<path class="st69" d="M401.1,325.7l-30.9-16.1l-8.7-4.5c-0.8-0.3-1.8,0.1-2.1,0.9c-0.3,0.8,0.1,1.8,0.9,2.1l30.9,16.1l8.7,4.5
		c0.8,0.3,1.8-0.1,2.1-0.9C402.3,326.9,401.9,326,401.1,325.7L401.1,325.7z"/>
</g>
<g>
	<path class="st75" d="M182.9,519.6c0,0,6.5-1,10.4,3.5c0,0-2.8,2.2-9-0.9L182.9,519.6z"/>
	<path class="st75" d="M201.1,504.8c0,0,3.1-0.5,4.9,1.7c0,0-1.3,1.1-4.2-0.4L201.1,504.8z"/>
	<path class="st75" d="M200.8,504.8c0,0-1.9,2.4-1,5.1c0,0,1.6-0.6,1.8-3.9L200.8,504.8z"/>
	<path class="st75" d="M199,500.9c0,0,1.2-2.2,6.1,0.9c0,0-0.7,1.5-2.8,1.4C200.2,503,199.6,502,199,500.9z"/>
	<path class="st75" d="M198.7,500.7c0,0-2.5-0.3-2.8,5.5c0,0,1.6,0.3,2.7-1.5C199.8,502.9,199.3,501.8,198.7,500.7z"/>
	<path class="st75" d="M197.2,496.1c0,0,1.4-3.9,6.6-1.1c0,0-1.2,3.6-6.1,2.5L197.2,496.1z"/>
	<path class="st75" d="M195.6,490.2c0,0,2.7-4,7.4-0.3c0,0-1.7,3.7-7.1,1.7L195.6,490.2z"/>
	<path class="st75" d="M197.1,496c0,0-3.6-2.2-5.9,3.2c0,0,3.2,2.1,6.3-1.8L197.1,496z"/>
	<path class="st75" d="M195.5,489.9c0,0-4.4-2-6.5,3.7c0,0,3.4,2.3,6.9-2.2L195.5,489.9z"/>
	<path class="st76" d="M421.6,517.9c-0.4,2.6-3,11.1-3,11.1s-3.8,12.8-4.9,13c-1.1,0.2-51.2-1.1-53.3,0c-2.1,1.1-14.3,0-14.3,0
		s-7.5,0.6-11.1,1.7s-23.2,2.8-24.2,2.8s-9.6-3.4-11.1-3s-10.7-1.1-12.8-0.4s-10.9-3.4-12.2-2.8c-1.3,0.6-7.3,1.1-9,1.9
		s-45-1.3-45.8-1.1c-0.1,0-0.7,0.1-1.4,0.3c-4,0.7-15,2.5-15,2.5l-6.8-2.4c0,0-6-0.4-7.9-0.2c-1.9,0.2-10.7-8.1-10.7-8.1
		s-0.9-4.1,0-5.1c0.9-1.1,0-6.4,0-6.4c0-3.5,0.8-7,2.4-10.2c2.6-5.1,4.1-12.6,4.1-12.6s1.9-9.4,4.3-11.5c2.4-2.1,10.9-2.1,14.9-1.5
		l0.4,0.1c5.4,0.8,38.1,4.2,41.2,4c3.2-0.2,14.9,0.4,16.6-0.2s40.7,1.3,40.7,1.3s6.6-2.4,8.2-2.8c1.6-0.4,6.9-11.7,8.6-13
		c0.5-0.4,1-0.8,1.5-1.2c1.3-1.2,2.7-2.2,4.3-3c3.2-1.7,11.5,5.3,10.2,8.3c-1.1,2.7-2,2.8-2.7,3.1c-0.1,0-0.2,0.1-0.3,0.1
		c-0.9,0.4-4,6.2-4,6.2s42-1.1,46.7-1.5s18.8,0,20.3-1.1c1.5-1.1,16.2,1.9,16.2,1.9l7.7,16.2C419.2,504.3,422,515.3,421.6,517.9z"/>
	<path class="st77" d="M218.4,541.4c-4,0.7-15,2.5-15,2.5l-6.8-2.4c0,0-6-0.4-7.9-0.2c-1.9,0.2-10.7-8.1-10.7-8.1s-0.9-4.1,0-5.1
		c0.9-1.1,0-6.4,0-6.4c0-3.5,0.8-7,2.4-10.2c2.6-5.1,4.1-12.6,4.1-12.6s1.9-9.4,4.3-11.5c2.4-2.1,10.9-2.1,14.9-1.5l0.4,0.1
		c8.6,13.2,22.7,36,23.1,43.9C227.4,534.9,223.2,538.7,218.4,541.4z"/>
	<path class="st238" d="M256.1,520.8c0,0-2.8,0.8-6.8,0.1s-9.2,1.1-9.2,1.1"/>
	<path class="st238" d="M266.6,522c0,0,3.2,0.9,11.7,1.1c8.5,0.2,9.6-0.6,13.4,0c3.8,0.6,7.9,1.1,7.9,1.1"/>
	<path class="st238" d="M241.4,525.8c0,0,11.7-2.1,16.8,0c5.1,2.1,15.1-0.6,16.6,0c1.5,0.6,9.2,0.8,11.5,0.8c2.3,0,3.8,0.6,6.8,0
		c3-0.6,14.9,0.3,14.9,0.3"/>
	<path class="st238" d="M293,508.6c0,0,6.2-1.6,10.9,0c4.7,1.6,14.1,0.3,19,1.2c4.9,0.9,19.2,3.6,20.7,1.9"/>
	<path class="st238" d="M321.6,516c0,0,4.3-1.1,8.3,0c4.1,1.1,11.5,2.1,13.6,1.5c2.7-0.8,5.5-1.5,8.3-2c3.4-0.6,12.6-4,16-3.2
		c3.4,0.7,7.5-1.5,11.1-2.2c3.6-0.7,5.3-0.8,9.8,0c4.5,0.8,6.8,2.9,7.5,2.2"/>
	<path class="st238" d="M375.5,502.6c0.6-0.4,3.6,1.9,9.8,2.1c6.2,0.2,11.9-2.2,11.9-2.2s-0.6-0.7,3.2,0c3.8,0.7,18.8,1.8,18.8,1.8"
		/>
	<path class="st238" d="M401.5,496.4c0,0-7.7-2.1-10.9,0c-3.2,2.1-6.6,0.2-7.7,0c-1.1-0.2-10.5-0.2-13.2-0.9c-2.8-0.8-10.9,1-10.9,1
		s-10.2-0.6-13.8-0.1c-3.6,0.5-11.9,2.3-12.6,1.1c-0.6-1.2-7.5-3.3-9.8-2.1"/>
	<path class="st238" d="M318.3,498.9c0,0,5.9-1.1,7.8,0s8.7,0,8.7,0s5.5,1.1,6.4,1.5"/>
	<path class="st238" d="M378.7,493.4c0,0,2.6-0.9,8.1,0c3.5,0.5,7.1,0.4,10.6-0.4c0,0,5.7-0.5,8.4,0.7c2.8,1.2,8.2-0.4,8.2-0.4"/>
	<path class="st238" d="M218.4,506.2c0,0,1.7-1.3,7.9,0c6.2,1.3,9.2-0.6,9.2-0.6s-2.6-0.1,3,0c5.5,0.1,8.5-2.2,8.5-2.2"/>
	<path class="st238" d="M212.6,502.2c0,0-0.2-2.3,5.8,0s9.4,1.3,9.4,1.3c2.5-0.9,5.1-1.2,7.7-1c4.3,0.3,10,0,10,0"/>
	<path class="st238" d="M208.6,496.3c0,0,1.3-1.5,7,0s7.7,0,7.7,0s5.8,0.1,9.4,1.4"/>
	<path class="st238" d="M216,494.1c0,0,1.7-0.1,5.8,0c4.1,0.1,8.3,0,8.3,0"/>
	<path class="st238" d="M199.8,520.8c0,0-3.2-2.6-1.1-4.1s5.1,0.2,5.1,1v5.4c0,0-9.4,3.4-9.4,1.1s2.8-13.3,3.8-14
		c1.1-0.7,3.6-7.5,4.5-5c0.9,2.4,5.8,16.9,5.8,16.9c-0.7,2.2-2.2,3.9-4.3,4.9c-3.4,1.7-15.8,1.8-15.6-1s3.6-17.3,3.6-17.3
		s5.8-15.6,9-11.9c3.2,3.7,4.7,10.2,7.3,12.8c2.5,2.6,8.1,12.7,5.8,17.4s-19.2,9.1-19.2,9.1s-13.4-3.2-10.7-14.1
		c2.8-10.9,4.5-29.2,8.5-30.3c4.1-1.1,8.1-2.4,11.5,0c3.4,2.4,10.2,16.7,11.5,17.8c1.3,1.1,8.3,11.8,7,15.3
		c-1.3,3.5-8.5,13.7-12.4,15.2c-3.8,1.5-12.8-1.5-12.8-1.5"/>
	<path class="st238" d="M356.1,522c0,0,8.1-0.2,10,0c1.9,0.2,5.8-4.9,7.9-4.3s3,4.4,6.8,3.7c3.8-0.7,13.6-1.6,13.6-1.6s5.3,0.4,9,0
		c3.6-0.4,6.4,0,8.3,0c1.9,0,7.5,0,7.5,0l1.7,1"/>
	<path class="st238" d="M362.1,515.4c2.7-0.2,5.4-0.2,8.1,0c3.6,0.3,15.4-2.1,20.5-1.8c5.1,0.3,7.7-1.6,10-1.3
		c2.3,0.3,4.1,1.6,7.7,1.6c3.6,0,12.6-1.6,12.6-1.6"/>
	<path class="st238" d="M253.8,533.3c0,0,14.9,1.9,19.8,0s7.5-2.6,10.9-1.9s2.4-1.8,8.5-0.2c6.2,1.5,17.1,2.3,19.8,1.3
		c2.8-1,22.2,3.3,22.2,3.3"/>
	<path class="st238" d="M277.9,537.3c0,0,6.2,0.6,10.2,1.1c4.1,0.4,22.6,1.9,26.4,0s27.7-0.1,27.7-0.1s5.3,0.4,8.5,0
		c3.2-0.4,11.3-1,11.3-1"/>
	<path class="st77" d="M335.4,479.3c-1.1,2.7-2,2.8-2.7,3.1c-3.9-1.7-8.8-5.8-11.8-8.4c1.3-1.2,2.7-2.2,4.3-3
		C328.4,469.3,336.7,476.3,335.4,479.3z"/>
	<path class="st238" d="M325.1,475.3c0,0,2.5,4.2,5,4c2.5-0.2,3.8-2.1,3-3.3c-0.8-1.2-6.1-3.5-6.1-3.5"/>
	<path class="st238" d="M326.9,474.8c0,0,1.3,3,2.3,1.8S326.9,474.8,326.9,474.8z"/>
	
		<linearGradient id="SVGID_2_" gradientUnits="userSpaceOnUse" x1="339.0576" y1="11775.0439" x2="339.0576" y2="11824.3799" gradientTransform="matrix(1 0 0 -1 -44.68 12331.2246)">
		<stop  offset="0" style="stop-color:#808080;stop-opacity:0.25"/>
		<stop  offset="0.54" style="stop-color:#808080;stop-opacity:0.12"/>
		<stop  offset="1" style="stop-color:#808080;stop-opacity:0.1"/>
	</linearGradient>
	<path style="fill:url(#SVGID_2_);" d="M314.1,533.8c0,0-0.7-2.7-1.3-5.4c-0.1-1.7-0.4-3.8-0.5-4.7c0,0,0-0.1,0-0.1
		c0-0.4-0.1-0.7-0.4-1c0.3-1,1.6-4.7,1.3-5.7c-0.3-1.2-1.2-4.2-2.3-5.2c-0.4-0.5-0.9-0.9-1.5-1.2c-1.1-0.4-2.3-0.3-3.3,0.3l-5.7,3.2
		c-2.3-0.3-4.1-0.6-4.1-0.6s-1.4-0.2-3.2-0.3c-0.6-1.3-2.4-5.3-4.2-5.9c-2-0.7-4.4,0.2-4.9,0.5l0,0h0l-0.1,0l0,0
		c-3.7,1.7-3.3,9-3.1,10.6c-0.7,0.9-1.4,1.7-2.2,2.5c-1.3,1.1-1.7,4.1-0.5,4.7c0.6,0.3,1.4,0.6,2.1,0.9c-3.2,6.8-8.7,20.3-3.8,24.1
		c6.6,5.2,19.1,6.9,23.3,5.2c0.1,0,0.2,0,0.3,0c0,0,6.9-1.6,8.5-3.5c1.2-1.5,2-3.3,2.4-5.2c1.7-1.5,2.8-3.5,3.2-5.7
		C314.9,536.9,314.1,533.8,314.1,533.8z M309.8,519l0.2-0.8c0.1,0.1,0.2,0.1,0.3,0.2c0,0.2-0.1,0.5-0.1,0.7l-0.3,1.6L309.8,519z
		 M308.5,512.2c0.3,0.2,2.2,1.6,1.9,5.3c0-0.1-0.1-0.3-0.1-0.4c-0.1-0.5-0.5-1.2-1.8-1.7c-1.1-0.3-2.3-0.6-3.4-0.8
		C306,513.6,307.2,512.8,308.5,512.2z M289.1,512.6c-1.5-0.1-2.7-0.2-2.8-0.1h0c-0.2,0-0.4,0-0.6,0.1c-0.6,0.1-1.1,0.4-1.6,0.7
		c0.7-3.8,2.6-4.1,3.1-4.1C288,510.2,288.6,511.4,289.1,512.6L289.1,512.6z M310.6,542.6c-0.2-3.1-0.4-7.9-0.5-10.7l0.2,0
		c0.2,0,0.4-0.1,0.6-0.1c0.2,1.8,0.5,4,1.1,5.4C312.7,538.9,311.5,541.2,310.6,542.6L310.6,542.6z"/>
	<polygon class="st80" points="309.3,517.3 305.4,516.1 301.3,517.6 301,520.2 303,521.6 306.3,521.5 309.2,520.1 309.6,517.6 	"/>
	<path class="st81" d="M281.1,518.6c0,0-1-9,3.1-10.9c0,0,2.2,0.1,3.2,1.7c0,0-3-0.2-3.3,6.2L281.1,518.6z"/>
	<path class="st82" d="M283.3,515.4c0,0-3.2,4.3-4.5,5.4s-1.6,4-0.5,4.6c1.2,0.6,3.4,1.5,3.4,1.5L283.3,515.4z"/>
	<path class="st83" d="M293.3,513.6c0,0-2.1-5.5-4.3-6.3s-4.9,0.5-4.9,0.5s3.2-0.3,5.2,5.4L293.3,513.6z"/>
	<path class="st81" d="M311.3,522.9c0,0,1.6-4.7,1.4-5.9c-0.3-1.2-1.2-4.2-2.3-5.2c-1.1-1-2.4,0.6-2.4,0.6s2.8,1.7,1.6,6.8l-0.4,2.3
		L311.3,522.9z"/>
	<path class="st83" d="M299.4,514.6l6.4-3.7c1-0.6,2.1-0.7,3.2-0.3c0.6,0.2,1.1,0.6,1.4,1.2c0,0-3.1-0.2-6.5,3.9L299.4,514.6z"/>
	<path class="st84" d="M310.1,528.5c0,0,0.2,5.8,1.3,8.6c1.1,2.8-2.3,6.7-2.3,6.7l0.6,3.4c0,0,2.9-1.9,3.8-6.1s0-7.3,0-7.3
		s-2.4-9.5-2-10.5C311.9,522.3,310.1,528.5,310.1,528.5z"/>
	<path class="st83" d="M309.3,518.3c0,0,0.5,3-5.5,1.7l-4,35.4c0,0,6.7-1.6,8.3-3.5c1.6-1.8,2.7-5.3,2.4-6.6
		c-0.4-1.3-0.8-15.6-0.8-15.6L309.3,518.3z"/>
	<path class="st85" d="M282.4,522.3c0,0-12.1,22.8-5.7,27.9s18.5,6.9,22.7,5.1c0,0,1.9,0.5,1.6-5.5c-0.3-6,2.2-22.7,2.2-22.7
		L282.4,522.3z"/>
	<path class="st83" d="M282.8,523.3c0,0-11.4,21.4-5.3,26.3c6.1,4.8,17.4,6.5,21.3,4.8c0,0,1.8,0.5,1.5-5.1
		c-0.3-5.6,2.1-21.3,2.1-21.3L282.8,523.3z"/>
	<path class="st74" d="M309.1,532.1c-0.5,0.3-3.1-0.5-3.1-0.5c-2.9-0.2-1.9-5.2-1.3-7.1c0.1-0.5,0.2-0.8,0.2-0.8
		c1.3,1.7,3.8,1,3.8,1s0.1,0.6,0.2,1.3C309,528.1,309.4,531.9,309.1,532.1z"/>
	<path class="st86" d="M309.2,531.9c-0.5,0.3-3.1-0.5-3.1-0.5c-2.9-0.2-1.9-5.2-1.3-7.1c0.1-0.5,0.2-0.8,0.2-0.8
		c1.3,1.7,3.8,1,3.8,1s0.1,0.6,0.2,1.3C309.1,528,309.5,531.7,309.2,531.9z"/>
	<path class="st74" d="M308.9,525.9c-1.3-0.2-3.3-1.1-4.2-1.5c0.1-0.5,0.2-0.8,0.2-0.8c1.3,1.7,3.8,1,3.8,1S308.8,525.1,308.9,525.9
		z"/>
	<path class="st83" d="M307.6,524.3c0,0-3.3,8.5,2.2,7.5c0,0,2.6-0.3,2.6-2.2c0-2-0.6-6.3-0.6-6.3L307.6,524.3z"/>
	<path class="st74" d="M305.1,522.2c0,0-1.7,6.9,3.7,4.3s1.9-4.3,1.9-4.3l-2.5-1.7L305.1,522.2z"/>
	<path class="st87" d="M305.1,522.1c0,0-1.7,6.9,3.7,4.3c5.3-2.6,1.9-4.3,1.9-4.3l-2.5-1.7L305.1,522.1z"/>
	<path class="st74" d="M306.2,521.2c0,0-1.5,0.4-0.7,1.9c0.4,0.7,0.5,1.4,0.5,2.2c0,0.5,0.3,1,0.8,1.1c0.5,0.1,1.3,0,2.3-0.9
		c0,0,2-0.7,1.8-1.7s-3.4-3.1-3.4-3.1L306.2,521.2z"/>
	<path class="st83" d="M306.2,521.1c0,0-1.5,0.4-0.7,1.9c0.4,0.7,0.5,1.4,0.5,2.2c0,0.5,0.3,1,0.8,1.1c0.5,0.1,1.3,0,2.3-0.9
		c0,0,2-0.7,1.8-1.7s-3.4-3.1-3.4-3.1L306.2,521.1z"/>
	<circle class="st74" cx="308.2" cy="523.5" r="1"/>
	<circle class="st87" cx="308.2" cy="523.4" r="1"/>
	<path class="st74" d="M295.9,513.8c0,0-9.6-1.2-10-0.8c0,0-5.1,0.9-5.1,10.3c0,0-0.1,5.4,10.3,8.1c0,0,8.4,0.7,11.1-2.6
		c2.7-3.3,1.4-8.9,1.4-8.9s1.1-4.3,6.2-1.3c0,0,0.5-1.7-1.8-2.5S295.9,513.8,295.9,513.8z"/>
	<path class="st85" d="M295.9,513.6c0,0-9.6-1.2-10-0.8c0,0-5.1,0.9-5.1,10.3c0,0-0.1,5.4,10.3,8.1c0,0,8.4,0.7,11.1-2.6
		s1.4-8.9,1.4-8.9s1.1-4.3,6.2-1.3c0,0,0.5-1.7-1.8-2.5C305.8,515,295.9,513.6,295.9,513.6z"/>
	<path class="st74" d="M296.2,513.7c0,0-9.3-1.1-9.7-0.8c0,0-4.9,0.8-4.9,9.7c0,0-0.1,5.1,10.1,7.6c0,0,8.2,0.7,10.8-2.4
		s1.3-8.4,1.3-8.4s1.1-4,6-1.2c0,0,0.5-1.6-1.7-2.4S296.2,513.7,296.2,513.7z"/>
	<path class="st83" d="M296.2,513.6c0,0-9.3-1.1-9.7-0.8c0,0-4.9,0.8-4.9,9.7c0,0-0.1,5.1,10.1,7.6c0,0,8.2,0.7,10.8-2.4
		s1.3-8.4,1.3-8.4s1.1-4,6-1.2c0,0,0.5-1.6-1.7-2.4S296.2,513.6,296.2,513.6z"/>
	<path class="st88" d="M291.6,528.2c0,0-2.5-1.2-2.7,1c0,0-0.9,2.2-0.9,2.4c0,0.3,0.1,2.5,2.1,2.4c1.1,0,2.1-0.6,2.7-1.6
		c0,0,0.4-2.4,1-2.9c0.6-0.5-0.4-1-0.8-1C292.5,528.5,292,528.4,291.6,528.2z"/>
	<path class="st74" d="M291.2,527.9c0,0-2.5-1.2-2.7,1c0,0-0.9,2.2-0.9,2.4c0,0.3,0.1,2.5,2.1,2.4c1.1,0,2.1-0.6,2.7-1.6
		c0,0,0.4-2.4,1-2.9c0.6-0.5-0.4-1-0.8-1C292.1,528.1,291.7,528,291.2,527.9z"/>
	<path class="st83" d="M291.3,527.8c0,0-2.5-1.2-2.7,1c0,0-0.9,2.2-0.9,2.4c0,0.3,0.1,2.5,2.1,2.4c1.1,0,2.1-0.6,2.7-1.6
		c0,0,0.4-2.4,1-2.9c0.6-0.5-0.4-1-0.8-1C292.2,528,291.8,527.9,291.3,527.8z"/>
	<circle class="st74" cx="290" cy="532" r="0.9"/>
	<circle class="st88" cx="290" cy="532" r="0.9"/>
	<path class="st85" d="M298.6,537c0,0-9.9-1.2-16.9-4.7c0,0-5.5,13.8-1.1,15.7c4.4,1.9,13.4,5,16,4c0,0,1.5,0.2,1-4.8
		C297.1,542.1,298.6,537,298.6,537z"/>
	<path class="st74" d="M298,537.9c0,0-9.9-1.1-16.9-4.5c0,0-5.5,13-1.1,14.8c4.4,1.8,13.4,4.7,16,3.7c0,0,1.5,0.2,1-4.5
		C296.5,542.8,298,537.9,298,537.9z"/>
	<path class="st83" d="M298.2,537.9c0,0-9.9-1.1-16.9-4.5c0,0-5.5,13-1.1,14.8c4.4,1.8,13.4,4.7,16,3.7c0,0,1.5,0.2,1-4.5
		C296.7,542.7,298.2,537.9,298.2,537.9z"/>
	<g class="st65">
		<path d="M308,515.6c-2.2-0.8-11.8-2.1-11.8-2.1s-9.3-1.1-9.7-0.8c0,0-2.4,0.4-3.8,3.7c1.5-2.9,3.7-3.3,3.7-3.3
			c0.5-0.3,9.7,0.8,9.7,0.8s9.6,1.3,11.8,2.1c1.5,0.5,1.8,1.4,1.8,1.9l0.1,0.1C309.7,518,310.3,516.4,308,515.6z"/>
		<path d="M303.8,519c-0.1,0.2-0.2,0.4-0.3,0.6c0,0,0.9,3.8-0.4,6.8c1.6-3.1,0.5-7.2,0.5-7.2C303.8,519.1,303.8,519,303.8,519z"/>
	</g>
	
		<linearGradient id="SVGID_4_" gradientUnits="userSpaceOnUse" x1="427.3148" y1="11782.4385" x2="427.3148" y2="11951.8691" gradientTransform="matrix(1 0 0 -1 -44.68 12331.2246)">
		<stop  offset="0" style="stop-color:#808080;stop-opacity:0.25"/>
		<stop  offset="0.54" style="stop-color:#808080;stop-opacity:0.12"/>
		<stop  offset="1" style="stop-color:#808080;stop-opacity:0.1"/>
	</linearGradient>
	<path style="fill:url(#SVGID_4_);" d="M423.7,541.6c-1.9-0.1-2-0.8-4.5-2.1c-1.4-0.7-3.5-2.8-5.1-4.5l-0.4-0.4h0.7
		c0,0-0.6-5.4-0.1-6.7s0.1-8.9,0.1-8.9s0.3-5.8-0.3-7.2c-0.6-1.4,0.2-10,0.2-10s0.6-5.2,0.7-15.7c0.1-10.5-6.1-10.8-6.1-10.8
		s-0.8-0.1-2.1-0.2l-0.4,0c0.8-1.7,1.3-3,1.3-3s-1-9.8-1.3-11.5c-0.3-1.7-1.9-8.7-1.9-8.7s-1.2-3-1.9-5.1s-2.7-4.5-2.7-4.5
		s-3.7-7.3-4.7-8.4c-0.5-0.5-1.1-1.1-1.7-1.7l-0.3-0.3c0.2-0.8,0.2-1.5,0.2-2.3c0,0-3.9-3.8-4.1-4.8c-0.3-1-3.9-4.5-3.9-4.5
		s-2.1-3.8-4.4-3.9c-1.1-0.1-2.2,0-3.3,0.1c0.5-1.8,1-3.6,1.6-5.2c0.1-0.2,0.1-0.3,0.2-0.5c1.9-1.3,3.3-3,4.2-5.1
		c0-0.1,0.1-0.2,0.1-0.3h0.1c0.1,0,0.2,0,0.3,0c0.8-0.1,1.4-1,1.1-1.7c0,0.1,0.1,0.1,0.2,0.1c0.3,0,0.6-0.4,0.6-0.7
		c0-0.1,0-0.1,0-0.2l0-0.2c0-0.1,0-0.1,0-0.2s0-0.1,0-0.2c0-0.1,0-0.1,0-0.2c0-0.1,0-0.1,0-0.2c0-0.1,0-0.1,0-0.2c0-0.1,0-0.2,0-0.3
		c0,0,0-0.1,0-0.1l0,0c0-0.4-0.1-0.7-0.2-1.1c-0.4-1.3-1.2-2.5-0.9-3.8c0,0,0,0,0,0l0,0c0.3-1,1.1-1.7,1.6-2.6
		c0.1-0.1,0.1-0.2,0.1-0.3l0,0c0-0.1,0.1-0.1,0.1-0.2c0-0.1,0-0.1,0.1-0.1c0,0,0-0.1,0.1-0.2c0-0.1,0-0.1,0.1-0.2s0-0.1,0-0.2
		c0-0.1,0-0.1,0-0.2c0-0.1,0-0.1,0-0.1s0-0.1,0-0.2c0-0.1,0-0.1,0-0.1c0,0,0-0.2,0-0.2v-0.1c0-0.1,0-0.2,0-0.3c0,0,0-0.1,0-0.1
		c0-0.1,0-0.2,0-0.3c0,0,0,0,0,0l0,0c-0.1-0.9-0.5-1.7-1-2.4c-1.2-1.4-3-2.2-4.9-2.1c-0.5,0.1-1,0.1-1.6,0c-0.9-0.1-1.6-0.7-2.3-1.2
		l-5.8-4.4c-0.6-0.6-1.4-1-2.2-1.3c-0.8-0.2-1.8-0.2-2.4,0.4c-1.1,1.1-0.4,2.9-0.8,4.3c-0.4,1.2-1.6,2.1-2.8,2.5
		c-1.2,0.4-2.6,0.5-3.9,0.8c-0.4,0.1-0.7,0.2-1,0.5c-0.3,0.4-0.5,0.9-0.5,1.4c0,1.3,0.3,2.5,0.9,3.7c0.2,0.5,0.5,0.9,0.8,1.4
		c0,0,0,0.1,0.1,0.1c0,0,0.1,0.1,0.1,0.2c0,0.1,0.1,0.2,0.1,0.3l0.1,0.1l0.1,0.2l0,0.1c0,0.1,0,0.1,0.1,0.2c0.1,0.4,0.1,0.9,0,1.3
		c-0.2,0.7-0.8,1.3-1.3,1.9c-0.4,0.4-0.7,1-0.8,1.6l0,0c0,0.1,0,0.3,0,0.4c0,0,0,0,0,0.1c0,0,0,0.1,0,0.1c0,0,0,0,0,0.1
		c0,0,0,0,0,0.1c0,0,0.1,0.1,0.1,0.1l0.1,0c0,0,0.1,0,0.1,0.1c0,0,0,0,0.1,0c0,0,0.1,0,0.1,0h0c0.1,0,0.1,0,0.2,0h0.1
		c0.1,0,0.1,0,0.2,0h0.1c0.1,0,0.2,0,0.3-0.1c0.4-0.1,0.8-0.3,1.1-0.4c0,0,0,0.1,0,0.1c0,0,0,0.1,0,0.2c0,1.3,0.3,2.6,0.7,3.9
		c0.7,1.9,2,3.6,3.6,4.9c0,0.1,0,0.2-0.1,0.3c-0.3,1.6-1,3.3-1.5,3.1c-0.4-0.1-0.8-0.1-1.3-0.1h-0.4l0,0c-0.4,0-0.8,0-1.2,0
		c-0.2,0-0.3,0-0.5-0.1c-1.1-0.3-2.3-0.4-3.4-0.2c-2.4,0.5-6,1.4-7,2.4c-1.5,1.6-3.7,3.2-6.2,10c0,0-1.2,4.1-2.2,4.7
		c0.2-0.1,0.4-0.2,0.7-0.3c-0.1,0.2-0.3,0.4-0.5,0.6c0.3-0.2,0.7-0.3,1.1-0.5c-0.7,4.4,0.4,17,0.4,17s-0.9,2.2,0.3,3.5
		c0.7,0.8,1.1,2,1.3,2.8l-0.2,0.3l0,0c-0.6,1-1.4,2.2-2,2.9c-1,1.2-0.7,5.1-0.7,5.1s-0.2,1.8-0.9,2.5s-0.6,3.2-0.6,3.2l-1.8,6.6
		c0,0-1.7,1.5-1.7,2.2c0,0.7-1.3,2.6-1.3,2.6s-2,3.3,0,2.8c0.7-0.2,1.4-0.6,2-1v0.1c0,0.1,0,0.2,0,0.4c-0.1,3.5,0.3,8.5,2.9,8.5
		c4.1,0,14.5,4.8,14.5,4.8c2.1,1.6,5,1.1,5,1.1s-5.1,5.1-4.9,7.2c0.1,2.1-2.9,5.6-2.9,5.6l-9.3,18.2c0.1,1.3,0.3,2.5,0.7,3.7
		l-0.1,0.1c-3.6,3.3-3.9,9.8-3.9,9.8l-0.8,3.3l12.5,5.5c0,0,16.2,0.3,19-0.4c2.8-0.7,2.2-3.9-1.5-4.5c-3.7-0.6-4.6-2.2-5.8-3
		c-0.8-0.5-3.8-3.8-5.6-5.8l-0.1-0.1l0.4-2.4c0.8-0.4,2.1-4.5,2.1-4.5s0-1.6,0.8-2.1c0.8-0.5,2.5-5.4,2.5-5.4s3.7-6.2,3.5-7
		c-0.2-0.8,2.7-4.9,2.7-4.9s4.9-4.7,4.7-5.6c-0.2-0.8,3.9-5.2,3.9-5.2c1.5-1.1,2.7-2.6,3.6-4.2l1.2-0.2c5.4-0.9,14.4-2.5,15.4-2.9
		c1.4-0.6,1.1,2.1,0.6,4.4s-1,13.4-0.3,14.8c0.6,1.4,0.3,3.7,0.3,3.7l-0.8,12.4l0.5,2.6c0,0-1.9,1.5-1.1,2.4
		c0.8,0.9,0.1,4.7,0.1,4.7c0.1,0,0.1,0,0.2-0.1c-0.1,0.1-0.1,0.3-0.2,0.5c-1.1,3-0.5,8-0.5,8v3.9c0,0,19,0.3,23.2,0.3
		c4.2,0,10-2,10.3-3.7C430.8,543,425.6,541.6,423.7,541.6z M369.6,471l-1.2,0.1C368.7,471.1,369.2,471,369.6,471z M377.2,419
		c0.2-0.8,0.4-1.6,0.6-2.5L377.2,419z M379.5,472.9c-1.2,0.5-2.5,0.5-3.7,0l0,0c0,0,0.1-4.7,0.6-6.7c0.6-2,1.3-5.6,1.3-5.6
		s0.6-4.9,1.2-7.2c0.6-2.2,3-14.7,4.3-15.5c1.2-0.8,1.9,0.6,1.9,0.6s0.2,0,0.5,0c0.1,0.1,0.1,0.3,0.2,0.4c1.5,3,5.8,9,5.8,9
		c1.3,0.8,2.4,1.9,3.2,3.1c1.2,2,1.5,6.6,1.5,6.6s2.6,10.2,3.8,11.7c0.6,0.7,0.3,1.1-0.1,1.4c-0.9,0.5-1.6,1.2-2.2,2
		c-0.2,0.3-0.4,0.6-0.6,0.9c-0.5-0.1-0.9-0.2-1.2-0.3C392.7,472.1,381.4,472.1,379.5,472.9L379.5,472.9z"/>
	<path class="st5" d="M396.4,544.1v3.9c0,0,18.6,0.3,22.7,0.3s9.7-2,10.1-3.6c0.3-1.6-4.7-3-6.6-3c-1.9-0.1-1.9-0.8-4.4-2.1
		c-1.4-0.7-3.4-2.8-5-4.5c-1.2-1.3-2.1-2.4-2.1-2.4s-10-0.2-12.9,1.4c-0.7,0.4-1.1,1.1-1.4,2C395.8,539.1,396.4,544.1,396.4,544.1z"
		/>
	<path class="st74" d="M396.9,536.1c2.1-0.7,14.4-1,16.4-1.1c-1.2-1.3-2.1-2.4-2.1-2.4s-10-0.2-12.9,1.4
		C397.7,534.5,397.2,535.2,396.9,536.1z"/>
	<path class="st90" d="M342.9,474l1.1,0.7l0.4,0.2l1.6,1c8.5,5.1,31.5,18.9,32.8,18.8c0.3,0,1.3-0.2,2.7-0.4l1.2-0.2
		c5.3-0.9,14-2.5,15-2.9c1.3-0.6,1.1,2.1,0.5,4.4c-0.5,2.3-0.9,13.2-0.3,14.7s0.3,3.7,0.3,3.7l-0.8,12.3l0.5,2.6
		c0,0-1.8,1.5-1.1,2.4s0.1,4.6,0.1,4.6c2.2-0.8,16.7-1.1,16.7-1.1s-0.6-5.4-0.1-6.7c0.5-1.3,0.1-8.9,0.1-8.9s0.3-5.8-0.3-7.1
		s0.2-9.9,0.2-9.9s0.5-5.1,0.7-15.5s-5.9-10.8-5.9-10.8s-0.8-0.1-2-0.2c-2.4-0.2-6.4-0.7-9.1-1.2c-0.5-0.1-1.1-0.3-1.6-0.4
		c-3.3-1.1-14.4-1.2-16.2-0.4c-1.2,0.5-2.5,0.5-3.6,0l0,0l-1.4-2.3l-13.5,1.1l-1.4,0.1l-13.3,1.1l-0.9,0.1L342.9,474z"/>
	<path class="st74" d="M396.9,484.3c3.9,1.9,7.7-4.9,9.4-8.7c-2.4-0.2-6.4-0.7-9.1-1.2C395.5,477.3,393.2,482.4,396.9,484.3z"/>
	<path class="st91" d="M385.1,438.5c0.1,0.5,0.2,0.9,0.5,1.3c1.4,2.9,5.6,9,5.6,9c1.3,0.8,2.3,1.8,3.1,3.1c1.1,1.9,1.5,6.5,1.5,6.5
		s2.6,10.2,3.8,11.6c0.6,0.7,0.3,1.1-0.1,1.4c-0.9,0.5-1.6,1.2-2.1,2c-1.8,2.8-4.6,8.5-0.6,10.4c5.4,2.6,10.4-11.1,10.4-11.1
		s-1-9.7-1.3-11.4s-1.9-8.6-1.9-8.6s-1.1-3-1.8-5s-2.7-4.5-2.7-4.5s-3.6-7.3-4.6-8.3c-0.5-0.5-1.1-1.1-1.7-1.7
		c-0.7-0.6-1.2-1.1-1.2-1.1S385.1,436.9,385.1,438.5z"/>
	<path class="st5" d="M339.6,543.3l12.2,5.4c0,0,15.9,0.3,18.6-0.4s2.2-3.8-1.5-4.4c-3.6-0.6-4.5-2.2-5.7-3
		c-0.8-0.5-3.7-3.7-5.5-5.8c-0.9-1-1.5-1.7-1.5-1.7s-2.4-6.3-8.9-4.8c-1.2,0.3-2.3,0.8-3.2,1.7c-3.5,3.3-3.8,9.7-3.8,9.7
		L339.6,543.3z"/>
	<path class="st74" d="M344.4,474.9l1.6,1c8.5,5.1,31.5,18.9,32.8,18.8c0.3,0,1.3-0.2,2.7-0.4l1.2-0.2c0,0,0-0.1,0-0.1
		c0.7-1.2,1.2-2.4,1.5-3.8c1.4-5.4-5.6-9.5-5.6-9.5l-1.5-1.1c-1.7-2.8-13.8-5.5-13.8-5.5l-1.6-1l-0.8-0.6l-0.2-0.1l-1.9-1.3
		l-9.5,0.7l-2.8,1.8l-0.3,0.2l-1,0.7L344.4,474.9z"/>
	<path class="st74" d="M344.2,530.3c2.6,8.9,13.3,6,13.3,6l0.2-1.1c-0.9-1-1.5-1.7-1.5-1.7s-2.4-6.3-8.9-4.8
		C346.2,528.9,345.1,529.4,344.2,530.3z"/>
	<path class="st90" d="M341.4,489.9c4,0,14.2,4.8,14.2,4.8c2.1,1.6,4.9,1.1,4.9,1.1s-5,5-4.8,7.1s-2.8,5.5-2.8,5.5l-9.1,18.1
		c0.7,12.8,13.8,9.3,13.8,9.3l0.5-3c0.8-0.4,2-4.4,2-4.4s0-1.6,0.8-2.1s2.5-5.3,2.5-5.3s3.6-6.1,3.4-6.9c-0.2-0.8,2.6-4.9,2.6-4.9
		s4.8-4.7,4.6-5.5s3.8-5.1,3.8-5.1c1.5-1.1,2.7-2.5,3.6-4.2c0.7-1.2,1.2-2.4,1.5-3.8c1.1-4.3-3.2-7.8-4.9-9
		c-0.4-0.3-0.7-0.4-0.7-0.4l-1.5-1.1c-0.8-1.3-3.7-2.5-6.6-3.5c-2.1-0.7-4.3-1.3-5.7-1.6c-0.9-0.2-1.5-0.3-1.5-0.3l-1.6-1l-0.5-0.4
		l-0.5-0.3l-1.9-1.3l-4.2,0.3l-5.3,0.4l-2.8,1.8l-1.3,0.9l-5.3,3.4c0,0-0.1,1.3-0.2,3v0.4C338.5,484.9,338.8,489.9,341.4,489.9z"/>
	<path class="st91" d="M361.6,414.6l1.4,5c0,0,2.5,8.7,2.8,9.3s6.8,6.7,7.1,6.9c0.3,0.1,3.8,2.2,3.8,2.2s0.3-11.1,0-14.3
		c0-0.7,0-1.4,0.2-2.1c0.4-2.5,1.5-6.2,2.4-9.1c0.8-2.4,1.4-4.2,1.4-4.2s-15.7-0.7-15.2,0.9c0.2,0.6,0.1,1.6-0.1,2.5
		c-0.3,1.6-1,3.2-1.4,3.1c-0.4-0.1-0.8-0.1-1.2-0.1C362.1,414.6,361.6,414.6,361.6,414.6z"/>
	<path class="st74" d="M365.4,411.6c3.9,3.3,9.6,3.6,13.9,0.8c0.8-2.4,1.4-4.2,1.4-4.2s-15.7-0.7-15.2,0.9
		C365.7,409.7,365.6,410.7,365.4,411.6z"/>
	<path class="st91" d="M384.5,402.3c0,1.2-0.2,2.5-0.6,3.6c-0.1,0.3-0.2,0.6-0.3,0.9c-2.5,5.9-9.3,8.7-15.2,6.2
		c-2.9-1.2-5.2-3.6-6.4-6.6c-0.5-1.2-0.7-2.5-0.7-3.8c0-0.1,0-0.1,0-0.2c-0.1-6.4,5-11.7,11.4-11.8s11.7,5,11.8,11.4
		C384.5,402,384.5,402.2,384.5,402.3L384.5,402.3z"/>
	<path class="st74" d="M361.6,414.6l1.4,5c0,0,2.5,8.7,2.8,9.3s6.8,6.7,7.1,6.9c0.3,0.1,3.8,2.2,3.8,2.2s0.3-11.1,0-14.3
		c0-0.7,0-1.4,0.2-2.1l-0.9,3.7l0.1,7.5l0.5,0.4l-1.2,1.8v-1.3c0,0-4.3-4.2-5-5.9s-3.1-4.9-3.1-4.9s-2.8-4.6-2.8-5.4
		c-0.1-0.6-1.2-2.1-1.7-2.7C362.1,414.6,361.6,414.6,361.6,414.6z"/>
	<path class="st74" d="M385.1,438.5c0.1,0.5,0.2,0.9,0.5,1.3c1.5-0.2,6.5-1.1,7.6-6.8c-0.7-0.6-1.2-1.1-1.2-1.1
		S385.1,436.9,385.1,438.5z"/>
	<path class="st74" d="M338.5,481.4c1.3-1,2.6-2.3,3.4-2.6c1.1-0.5,2.9-2.3,2.9-2.3s0.4-0.3,1.1-0.7c1.2-0.7,3.3-1.8,4.9-1.9
		c1.4-0.1,6.1-0.4,9.7-0.6l4.8-0.3c0,0,4.4-1.5,6.3-0.5c1.3,0.7,2.8,1.2,4.2,1.5c0,0,0-0.1,0-0.4l0,0l-1.4-2.3l-14.9,1.3l-1.9-1.3
		l-9.5,0.7l-2.8,1.8l-2.4,0.2l1.1,0.7l-5.3,3.4C338.7,478,338.5,479.5,338.5,481.4z"/>
	<path class="st92" d="M336.5,482c0.7-0.2,1.4-0.6,2-1l0,0c1.3-1,2.6-2.3,3.4-2.6c1.1-0.5,2.9-2.3,2.9-2.3s3.6-2.4,6-2.6
		c0.7-0.1,2-0.1,3.7-0.3c1.7-0.1,3.7-0.2,5.5-0.3l2.9-0.2l2.5-0.2c0,0,4.4-1.5,6.3-0.5c1.3,0.7,2.8,1.2,4.2,1.5c0,0,0.1-4.7,0.6-6.7
		c0.5-1.9,1.3-5.5,1.3-5.5s0.6-4.9,1.2-7.1c0.6-2.2,3-14.6,4.2-15.4s1.9,0.6,1.9,0.6s8.1-0.1,8.2-9c0,0-3.8-3.8-4-4.7
		s-3.8-4.4-3.8-4.4s-2-3.8-4.3-3.8c-1.1-0.1-2.2,0-3.2,0.1l-1.9,7.9l0.1,7.5l0.5,0.4l-1.2,1.8v-1.3c0,0-4.3-4.2-5-5.9
		s-3.1-4.9-3.1-4.9s-2.8-4.6-2.8-5.4c-0.1-0.8-1.9-3-1.9-3c-0.4,0-0.8,0-1.1,0c-0.2,0-0.3,0-0.5-0.1c-1.1-0.3-2.2-0.4-3.4-0.2
		c-2.3,0.5-5.9,1.4-6.8,2.4c-1.5,1.6-3.6,3.2-6.1,9.9l13,4.7l-1.1,2.1L346,453.2c0,0-0.3,0.6-0.8,1.3l0,0c-0.6,1-1.4,2.2-1.9,2.9
		c-0.9,1.2-0.7,5-0.7,5s-0.2,1.8-0.9,2.5s-0.5,3.2-0.5,3.2l-1.7,6.5c0,0-1.6,1.5-1.6,2.2s-1.3,2.6-1.3,2.6S334.6,482.5,336.5,482z"
		/>
	<path class="st74" d="M405.4,486.9c0,0-4.2,1.4-5.4,3.4S405.4,486.9,405.4,486.9z"/>
	<path class="st74" d="M403.2,482.4c-0.1,0.2-5.8,5.9-5.4,7.3S403.2,482.4,403.2,482.4z"/>
	<path class="st74" d="M372.1,486.5c0,0-6.3,3-6.9,4.3C364.7,492,372.1,486.5,372.1,486.5z"/>
	<path class="st74" d="M371.7,490.3c0,0-5.7,2.4-6.5,3S371.7,490.3,371.7,490.3z"/>
	<path class="st74" d="M369.1,495.5c0,0-2.5,1.9-3.9,0.4C363.8,494.4,369.1,495.5,369.1,495.5z"/>
	<path class="st74" d="M378.6,446.4c-0.1,0.2-8.5,15.3-10.8,16.5C365.6,464,378.6,446.4,378.6,446.4z"/>
	<path class="st74" d="M378.2,452.1c0,0.3-8.2,17.9-9.5,18.1S378.2,452.1,378.2,452.1z"/>
	<path class="st74" d="M347,463.4c0,0-3.9,8.5-5.5,8.9C339.9,472.8,347,463.4,347,463.4z"/>
	<path class="st74" d="M346.3,459.6c0,0-1.4,3-2.2,3S346.3,459.6,346.3,459.6z"/>
	<path class="st74" d="M384.5,402.3c0,1.2-0.2,2.5-0.6,3.6c-0.1,0.3-0.2,0.6-0.3,0.9c-0.6-0.1-1.2-0.3-1.6-0.7
		c-0.5-0.3-0.9-0.8-1.2-1.3c-0.2-0.5-0.4-1.1-0.6-1.7c-0.5-1.3-1.8-2.2-3.2-2.4c0.4,0.7-0.2,1.6-1,1.7c-0.8,0.1-1.5-0.3-2-0.9
		c-0.5-0.6-0.9-1.2-1.4-1.8s-1.3-1-2-0.9c-0.7,0.1-1.2,0.6-1.7,1s-1.3,0.6-1.9,0.2c-0.3-0.2-0.5-0.6-0.7-0.9c-0.7-0.6-1.9,0-2.4,0.8
		c-0.8,1.2-1.3,2-2.5,2.6c0-0.1,0-0.1,0-0.2c-0.1-6.4,5-11.7,11.4-11.8s11.7,5,11.8,11.4C384.5,402.1,384.5,402.2,384.5,402.3
		L384.5,402.3z"/>
	<path class="st93" d="M363.7,399.6c0.5-0.8,1.7-1.4,2.4-0.8c0.3,0.2,0.4,0.6,0.7,0.9c0.5,0.4,1.3,0.2,1.9-0.2
		c0.6-0.4,1.1-0.9,1.7-1c0.8-0.1,1.5,0.3,2,0.9c0.5,0.6,0.9,1.2,1.4,1.8s1.3,1,2,0.9c0.8-0.1,1.4-1,1-1.7c1.4,0.2,2.6,1.1,3.2,2.4
		c0.2,0.6,0.4,1.1,0.6,1.7c0.3,0.5,0.7,1,1.2,1.3c0.6,0.5,1.4,0.8,2.1,0.7c0.8-0.1,1.4-1,1-1.7c0.2,0.4,0.8-0.1,0.8-0.6
		c0.2-0.9,0.1-1.9-0.2-2.8c-0.4-1.2-1.1-2.5-0.9-3.8c0.2-1,1.1-1.7,1.6-2.6c0.9-1.6,0.7-3.7-0.4-5.1c-1.2-1.4-3-2.2-4.8-2.1
		c-0.5,0.1-1,0.1-1.5,0c-0.8-0.1-1.6-0.7-2.2-1.2l-5.6-4.4c-0.6-0.6-1.3-1-2.1-1.3c-0.8-0.2-1.7-0.2-2.4,0.4
		c-1.1,1.1-0.4,2.9-0.8,4.3c-0.4,1.2-1.5,2.1-2.8,2.5c-1.2,0.4-2.5,0.5-3.8,0.8c-0.4,0.1-0.7,0.2-1,0.5c-0.3,0.4-0.5,0.9-0.4,1.4
		c0,1.3,0.3,2.5,0.9,3.6c0.7,1.3,1.7,2.5,1.3,3.9c-0.2,0.7-0.8,1.3-1.2,1.8c-1.1,1.2-1.4,3,0.6,2.4C362,402,362.6,401.2,363.7,399.6
		z"/>
	<g class="st65">
		<path d="M385.9,402.9c-0.1,0.4-0.6,0.9-0.8,0.6c0.3,0.7-0.3,1.5-1,1.7s-1.5-0.2-2.1-0.7c-0.5-0.3-0.9-0.8-1.2-1.3
			c-0.2-0.5-0.4-1.1-0.6-1.7c-0.5-1.3-1.8-2.3-3.2-2.4c0.4,0.7-0.2,1.6-1,1.7c-0.8,0.1-1.5-0.3-2-0.9c-0.5-0.6-0.9-1.2-1.4-1.8
			s-1.3-1-2-0.9c-0.7,0.1-1.2,0.6-1.7,1s-1.3,0.6-1.9,0.2c-0.3-0.2-0.4-0.6-0.7-0.9c-0.7-0.6-1.9,0-2.5,0.8c-1.1,1.6-1.6,2.4-3.6,3
			c-0.6,0.2-1,0.2-1.2,0c-0.4,1-0.2,1.8,1.2,1.4c1.9-0.6,2.5-1.4,3.6-3c0.5-0.8,1.7-1.4,2.5-0.8c0.3,0.2,0.4,0.6,0.7,0.9
			c0.5,0.4,1.3,0.2,1.9-0.2s1.1-0.9,1.7-1c0.8-0.1,1.5,0.3,2,0.9c0.5,0.6,0.9,1.2,1.4,1.8c0.5,0.6,1.3,1,2,0.9c0.8-0.1,1.4-1,1-1.7
			c1.4,0.2,2.6,1.1,3.2,2.4c0.2,0.6,0.4,1.1,0.6,1.7c0.3,0.5,0.7,1,1.2,1.3c0.6,0.5,1.4,0.8,2.1,0.7c0.8-0.1,1.4-1,1-1.7
			c0.2,0.4,0.8-0.1,0.8-0.6c0.1-0.6,0.1-1.2,0.1-1.8C386,402.6,385.9,402.8,385.9,402.9z"/>
		<path d="M360.8,397.1C360.8,397.1,360.8,397.1,360.8,397.1c0.4-1.4-0.7-2.7-1.3-4c-0.5-0.9-0.7-1.8-0.8-2.8c0,0.2,0,0.4,0,0.5
			c0,1.3,0.3,2.5,0.9,3.6C359.9,395.3,360.5,396.2,360.8,397.1z"/>
		<path d="M386.5,393.7c-0.5,0.9-1.4,1.6-1.6,2.6c-0.1,0.4-0.1,0.9,0,1.3c0.2-1,1.1-1.7,1.6-2.6c0.5-0.9,0.7-1.9,0.5-2.8
			C387,392.7,386.8,393.2,386.5,393.7z"/>
	</g>
	<polygon class="st5" points="376.1,502.1 374,496.6 363.8,469.5 368.3,468.9 370,466.9 371.4,465 375.1,464.3 378.3,463.7 
		378.3,463.7 381.6,459 385.8,457.3 385.8,457.3 387.6,453.1 396.7,459.9 403.3,464.8 403.8,465.2 416.5,474.7 413.5,484 413.5,484 
		405.4,484.6 405.3,484.7 400.9,494.6 390.7,494.6 390.7,494.6 388,499.7 387.9,499.9 386,503.6 386,503.6 	"/>
	<polygon class="st94" points="376.2,501.1 374.3,495.8 364.7,470.1 369.1,469.5 370.7,467.5 372.1,465.8 375.7,465 378.8,464.4 
		378.8,464.4 382,459.8 386.1,458.2 386.1,458.2 387.9,454.2 396.5,460.5 402.9,465.2 403.4,465.5 415.5,474.4 412.5,483.3 
		412.4,483.3 404.7,484 404.6,484.1 400.2,493.6 390.4,493.8 390.3,493.8 387.7,498.6 387.6,498.9 385.7,502.4 385.7,502.4 	"/>
	<path class="st95" d="M384.7,494.3c-0.2-1.3-0.3-2.5-0.2-3.8c0-0.4,0-0.9,0.3-1.2c0.3-0.3,0.7-0.3,1,0c0,0,0,0,0,0
		c0-0.3,0.4-0.7,0.8-0.7c0.1,0,0.3,0,0.4,0c0.3,0.1,0.7,0,1-0.2c-0.4-0.5-0.7-1.1-0.9-1.7c-0.2-0.6,0-1.3,0.5-1.8
		c0.8-0.7,2.1-0.2,3,0.4l3.8,2.2c0.5,0.3,1,0.6,1.5,1c0.1-0.2,0.2-0.4,0.3-0.6c0.6-1.6,0.8-3.3,0.5-4.9c-0.3-1.6-1.1-3.3-0.2-4.7
		c0.1-0.2,0.3-0.4,0.5-0.4c0.2,0,0.4,0.1,0.4,0.3c0,0,0,0,0,0.1c0.1-0.5,0.2-1,0.4-1.5c0.2-0.5,0.5-1,0.9-1.4c0.8-0.8,2-1.2,3-0.7
		c0.2,0.1,0.4,0.2,0.7,0.3c0.4,0.1,0.7-0.1,1-0.3c0.2-0.2,0.3-0.4,0.4-0.7c0.1-0.6,0-1.2-0.3-1.8c-0.4-1.1-0.9-2.1-1.5-3.1
		c-0.3-0.5-0.6-1-0.5-1.5c0.1-0.4,0.4-0.8,0.8-1c0.5-0.3,0.9-0.6,1.5-0.8l12.1,8.9l-3,8.9h0l-7.8,0.7l-0.1,0.1l-4.4,9.5l-9.9,0.2h0
		l-2.6,4.8l-0.1,0.3c-0.1,0-0.2-0.1-0.3-0.1c-0.4-0.3-0.8-0.7-1.1-1.1C385.5,496.7,385,495.5,384.7,494.3z"/>
	<path class="st95" d="M375.7,465l3-0.6l0,0l3.3-4.6l4-1.6l0,0l1.8-4l8.6,6.3l-0.1,0.1c-0.4,0.6-0.7,1.3-1,2
		c-0.2,0.3-0.2,0.6-0.2,0.9c0.1,0.5,0.3,0.9,0.6,1.2c1.1,1.2,2.3,2.4,3.5,3.4c-0.5,0.2-1,0.1-1.4-0.2c0.1,0.4-0.1,0.9-0.5,1.1
		c-0.1,0.1-0.3,0.2-0.4,0.2c-0.6,0.1-1.2,0.1-1.8,0c-0.8-0.1-1.6-0.3-2.3-0.7c-1.7-0.9-2.6-2.7-3.4-4.4c-0.3,0.9-0.9,1.6-1.4,2.3
		c-0.3,0.4-0.5,0.9-0.5,1.3c-0.1,0.3,0,0.6,0.2,0.9c0.3,0.3,0.6,0.5,0.9,0.7c0.9,0.6,1.2,1.8,1.4,2.9c0.1,0.3,0.1,0.7,0,1
		c-0.1,0.3-0.4,0.6-0.8,0.5c-0.4-0.1-0.5-0.7-0.8-1.1c-0.4-0.5-1.2-0.6-1.8-0.8c-0.8-0.2-1.5-0.7-2-1.3c-0.1,0.6-0.1,1.1-0.1,1.7
		l0,0c0,0.1,0,0.1,0,0.2c-2-1-3.9-2.3-5.5-3.8c0.5-0.3,0.6-0.9,0.4-1.4c-0.1-0.1-0.2-0.3-0.3-0.3c-0.3-0.1-0.6-0.2-0.9-0.2
		C377.3,466.7,376.4,465.9,375.7,465z"/>
	<path class="st95" d="M374.3,495.8l-9.6-25.7l4.4-0.6l1.6-2c0.3,0.5,0.6,1,1,1.4c1,1.4,2.4,2.5,3.8,3.6c0.2,0.1,0.3,0.2,0.5,0.3
		c0.2,0,0.5,0,0.7,0l0,0c0.7-0.2,1.7-0.4,2,0.3c0.1,0.2,0.1,0.5,0.2,0.7c0.2,0.5,0.8,0.6,1.3,0.5s1-0.4,1.5-0.5
		c0.7-0.2,1.5,0.1,2.1,0.6c0.6,0.6,1.1,1.7,2,1.7c0.5-0.1,0.9-0.3,1.1-0.7l0.1-0.2l1.5,1.5l2.1-0.9c0.6,0.8,0.7,1.9,0.2,2.7
		c-0.2,0.3-0.5,0.5-0.7,0.8c-0.1,0.1-0.1,0.1-0.2,0.2c-0.4,0.6-0.6,1.3-1.1,2c-0.8,1-2,1.5-3.3,1.5c-0.8,0-1.6-0.1-2.4-0.3
		c-0.4-0.1-0.9-0.2-1.3-0.3c0.7,0.6,1.2,1.2,1.7,2c0.4,0.8,0.5,1.7,0.1,2.5c-0.5,0.9-1.6,1.3-2.6,0.9l0.9,0.9c-1,0.6-1.2,2-0.9,3.2
		c0.4,1.1,1.1,2.1,1.3,3.3c0,0.2,0.1,0.5,0,0.7c0,0.2-0.1,0.3-0.1,0.5c-0.4,0.8-1.6,0.9-2.5,0.6c-1.6-0.5-2.9-1.6-3.6-3.1
		c-0.5,0.7-0.8,1.6-0.7,2.4C375.4,496.2,374.9,496,374.3,495.8z"/>
	<polygon class="st74" points="382,459.8 386.1,458.2 386.1,458.2 397.5,469.1 403.1,474.4 412.4,483.3 404.7,484 404.6,484.1 
		397.6,476.6 388.2,466.5 	"/>
	<polygon class="st74" points="390.4,493.8 387,488.6 383.1,482.7 376.7,472.8 372.1,465.8 375.7,465 378.8,464.4 378.8,464.4 
		384.7,472.4 384.7,472.4 386.8,475.4 389.9,479.5 396,487.9 400.2,493.6 	"/>
	<polygon class="st74" points="376.2,501.1 374.3,495.8 364.7,470.1 369.1,469.5 382.4,495.8 385.7,502.4 385.7,502.4 	"/>
	<path class="st74" d="M345.2,454.5L345.2,454.5c0.1,0.4,0.2,0.7,0.2,1.1c0,0,5.3,12.4,6,13.2c0.2,0.2,1,1.3,2,2.8l1.1,1.7
		c2,3,4.3,6.4,4.3,6.4l5,4.4c0,0,10.8,0.9,14.3-2.6c-0.4-0.3-0.7-0.4-0.7-0.4l-1.5-1.1c-0.8-1.3-3.7-2.5-6.6-3.5c-2.7,0-5,0.2-5,0.2
		l-0.7-1.9l-0.7-1.9l-3.8-9.9c0,0-2.4-12.5-3.2-13.1c-0.8-0.6-0.6-2.5-0.6-2.5s1.5-5.3,0.9-6.1c-0.5-0.7,0.9-6.2,0.9-6.2
		c-0.1-0.5-0.4-1-0.6-1.5L346,453.2C346,453.2,345.7,453.7,345.2,454.5z"/>
	<path class="st91" d="M357.2,434.6c0,0-1.4,5.4-0.9,6.2c0.5,0.7-0.9,6.1-0.9,6.1s-0.2,1.9,0.6,2.5c0.8,0.6,3.2,13.1,3.2,13.1
		l5.2,13.7c0,0,16.3-1.6,14.6,3.5s-15.1,4-15.1,4l-5-4.4c0,0-6.7-10.1-7.4-10.9s-6-13.2-6-13.2s-0.3-2.5-1.4-3.8
		c-1.1-1.3-0.3-3.4-0.3-3.4s-1.4-16.3,0.1-18.2C345.4,427.8,355.6,428.7,357.2,434.6z"/>
	<path class="st74" d="M348.9,424.3l-4.2,2.6c0,0-1.2,4.1-2.2,4.6c0,0,8.5-4.7,14.9,6.1c0,0-0.2-1.4,0.7-2.1s0.7-3.6,0.7-3.6
		c0.2-0.5,0.4-0.9,0.6-1.4C359.9,429.1,356.7,420.7,348.9,424.3z"/>
	<path class="st92" d="M348.7,424.1l-4.2,2.6c0,0-1.2,4.1-2.2,4.6c0,0,8.5-4.7,14.9,6.1c0,0-0.2-1.4,0.7-2.1
		c0.9-0.7,0.7-3.6,0.7-3.6c0.2-0.5,0.4-0.9,0.6-1.4C359.7,428.9,356.6,420.4,348.7,424.1z"/>
	
		<linearGradient id="SVGID_6_" gradientUnits="userSpaceOnUse" x1="298.2778" y1="11827.6084" x2="298.2778" y2="11927.6172" gradientTransform="matrix(1 0 0 -1 -44.68 12331.2246)">
		<stop  offset="0" style="stop-color:#808080;stop-opacity:0.25"/>
		<stop  offset="0.54" style="stop-color:#808080;stop-opacity:0.12"/>
		<stop  offset="1" style="stop-color:#808080;stop-opacity:0.1"/>
	</linearGradient>
	<path style="fill:url(#SVGID_6_);" d="M248.9,459.5c-0.6,0.3-1.1,0.7-1.6,1.1c-0.1,0.1-0.2,0.2-0.3,0.2c0,0.1,0.1,0.2,0.1,0.3
		c0-0.1,0.1-0.2,0.1-0.2l0.1-0.1c0,0,0-0.1,0.1-0.1c0.1-0.1,0.1-0.2,0.2-0.3l1.6-1.1C249,459.4,248.9,459.4,248.9,459.5z
		 M248.9,459.5c-0.6,0.3-1.1,0.7-1.6,1.1c-0.1,0.1-0.2,0.2-0.3,0.2c0,0.1,0.1,0.2,0.1,0.3c0-0.1,0.1-0.2,0.1-0.2l0.1-0.1
		c0,0,0-0.1,0.1-0.1c0.1-0.1,0.1-0.2,0.2-0.3l1.6-1.1C249,459.4,248.9,459.4,248.9,459.5z M299.5,498.5c0.5-1.4-5.2-3.3-7.1-3.9
		v-0.1l-0.1,0l-0.5-0.2c0,0-0.9-0.6-1.9-1.4l-0.1-0.2l-0.2,0.1c-0.5-0.4-1.1-0.7-1.6-1.1c0,0,0.1,0,0.1,0l0-0.3
		c-0.1,0-0.2,0.1-0.3,0.1v-0.1c-0.1,0-0.1,0-0.2,0.1c-0.5-0.3-1-0.6-1.3-0.8c-0.3-0.2-0.9-0.6-1.5-1.1l0,0c-0.6-0.5-1.4-1.1-2.2-1.7
		c0-0.1,0.1-0.2,0.1-0.2l0.1-0.3l-0.3,0.2h0l0.1-0.2l-0.3,0.2l-0.1,0l-0.8-0.6l0,0l0,0c0,0,0,0,0.1,0l0.3-0.2l0.4-0.2l0.4-0.2l0.1,0
		l1.2-0.7c2.7-1.5,4.9-3.6,6.6-6.2c2.2-3.5-0.2-6.7-1.8-8.6l0-0.1c0.1,0,0.2-0.1,0.3-0.1l0,0c0.7-0.3,1.2-0.9,1.2-1.7
		c0-0.2,0-0.5-0.1-0.7c-0.3-0.8-0.9-3.1-0.1-4c0.2-0.2,0.5-0.3,0.8-0.3c1.5-0.1,3.7-0.3,5-0.7c0.3-0.1,0.5-0.2,0.7-0.4
		c0.2-0.1,0.3-0.3,0.3-0.6c0-0.8-0.3-2-1.1-2.6c0,0-0.1-0.1-0.2-0.1c0,0,0,0,0,0c-0.4-0.3-1-0.4-2-0.4c-1.8,0-3.6-0.2-5.3-0.6
		l-0.1,0.1l-0.2-0.2l-0.2-0.2l-3.7-3.6l-0.8,0.8l-0.4-0.4l-0.8-0.8l-0.1,0l-1.5-1.4c-0.3-2.9-0.9-5.7-1.9-7.5
		c-0.4-0.8-0.9-1.4-1.6-1.9l-1.8-1.7l-0.1-0.1l0.1-0.1l0,0c0,0,0.1-0.1,0.1-0.1c0.1-0.1,0.2-0.3,0.3-0.4c0.3-0.7,0.2-1.6-0.4-2.1
		l-0.1-0.1c-0.7-0.7-1.8-0.7-2.6-0.1c0,0-0.1,0.1-0.1,0.1l0,0c0,0,0,0.1-0.1,0.1l-0.5-0.5c-0.8-0.8-2-0.8-2.8,0l-2.6,2.6
		c-0.2-0.7-0.5-1.4-0.8-2c-0.7-1.5-3.2-2.8-5.7-3.7l0,0c-1.2-0.4-2.4-0.8-3.3-1.1l0,0c-0.6-0.2-1.1-0.3-1.4-0.4l0,0l-0.1,0l0,0
		c-0.3-0.1-0.4-0.1-0.5-0.1l0.1-0.2c0,0,0.1-0.1,0.1-0.1l0.2-0.2c0,0,0.1-0.1,0.1-0.1c0.2,0.1,0.3,0.2,0.5,0.3l0,0
		c5.2,3,11.9,1.6,15.4-3.3c0.1-0.1,0.1-0.2,0.2-0.3c0-0.1,0.1-0.1,0.1-0.2c0,0,0-0.1,0.1-0.1c0-0.1,0.1-0.1,0.1-0.2l0.2,0
		c0.8-0.1,1.7-0.3,2.1-1c0.1-0.1,0.1-0.2,0.1-0.2l0,0c0-0.1,0.1-0.1,0.1-0.2l0,0c0-0.1,0.1-0.2,0.1-0.2l0,0c0.1-0.3,0.1-0.7,0.2-1
		c0-0.1,0-0.2,0-0.3l0,0c0-0.1,0-0.2,0-0.2l0,0c0.2,0.2,0.5,0.4,0.7,0.7c0,0,0,0,0.1,0.1c0,0,0-0.1,0-0.1l0,0v-0.1
		c0-1,2-1.2,2.6-1.8c0.2-0.1,0.2-0.4,0.2-0.6c0.1,0,0-0.6-0.1-1c0-0.2-0.1-0.4,0-0.4l0.1,0c0.3-0.2,0.2-0.5,0.1-0.8
		c0-0.1,0-0.2,0.1-0.3c0-0.1,0.1-0.2,0.2-0.2c0.4-0.4-0.6-0.6-0.1-0.8c-0.2-0.7-0.4-1.3-0.7-2c-0.1-0.4-0.3-0.7-0.4-1.1
		c-0.1-0.2-0.2-0.4-0.4-0.5c-0.4-1.5-1.3-2.8-2.6-3.7c-0.8-0.6-1.6-1-2.4-1.5c-1.9-1.4-2.9-3.7-4.4-5.5c-0.7-0.9-1.7-1.6-2.7-2.1
		c-1-0.5-2.2-0.6-3.2-0.2c-0.1,0-0.1,0.1-0.2,0.1c-1.5,0.7-2.3,2.5-3.7,3.5c-1.9,1.4-4.6,1-7,0.7c-2.5-0.3-5-0.2-7.4,0.1
		c-0.4,0-0.7,0.1-1.1,0.4c-0.3,0.3-0.4,0.7-0.4,1.1c0,0.1,0,0.3,0,0.4c0,0,0,0.1,0,0.1c0,1.7,0.7,3.3,0.8,5c0,0.2,0,0.3,0,0.5
		c-0.2,2.1-1.7,3.8-3.5,4.9c-1.6,0.9-3.6,1.9-3.5,3.7v0.1c0,0.1,0,0.1,0,0.2c0,0.3,0.1,0.6,0.2,0.8c-1.8,0-3.1-0.1-3.1-0.1
		c-1.8-0.2-3.6,0-5.3,0.7c-1.6,0.7-3,1.9-4,3.4c-0.5,0.7-0.9,1.5-1.3,2.4c0,0-1.9,9-3.8,11.3c-1.9,2.4-2.1,5.7-2.1,5.7
		c-0.3,1-0.6,2-0.9,2.9c-0.3,0.9-0.7,1.7-1.1,2c-1,0.9-0.5,2.3-0.5,2.3s-1.2,1.2-1.1,1.9c0.1,0.7-0.6,2.4-0.6,2.4s-0.7,1.7-0.4,2.6
		c0.2,0.5-0.3,1.8-0.8,2.7l-0.4,0c-0.5,1-0.9,2.1-1.2,3.2c-0.2,0.6-0.3,1.1-0.3,1.7c0.1,1.6-1.1,4.5-1.1,4.5
		c-0.5,1.6-0.8,3.2-0.8,4.9v0.1c-0.1,3.2,0.8,7.1,4.4,9.9c1.4,1,2.9,1.8,4.6,2.2c0.5,0.2,1.1,0.3,1.6,0.4l1.3,0.3
		c1.9,1,3.8,1.7,5.8,2.3c1,0.3,2,0.5,3,0.6l0,0c1.7,0.1,3.4,0,5.1-0.5c0.2,0,0.4,0.1,0.6,0.1l0.2,0l0,0h0c3.3,0.4,5.6,0.6,6.7,0.7
		c0,0,0,0,0,0.1l0,0c-0.2,1.1-0.4,1.9-0.4,1.9l0.2,0.2c0,0.1,0,0.1,0,0.1l3,3.7c0.2,0,0.3-0.1,0.4-0.1c0.6-0.3,1.1-0.7,1.5-1.2
		c0.2,0,0.3,0.1,0.5,0.1h0.1c0.3,0,0.5-0.1,0.8-0.1c0,0,0.5-0.4,1.2-0.9l0.1,0.1l0,0l0.5-0.3l0,0l0.4-0.3l1-0.7l0,0l0.1-0.1l0.3-0.1
		c0.1-0.1,0.3-0.1,0.4-0.2c0.2-0.1,0.5-0.2,0.7-0.2c0.5,0,1.3-0.4,2.1-0.9l0.1,0.1c0.1-0.1,0.2-0.2,0.3-0.3l0.2-0.1l0,0
		c0.1-0.1,0.3-0.2,0.4-0.2c0.7-0.4,1.2-0.8,1.2-0.8s8.4-0.9,11.6-1.6c0,0,0,0.1,0,0.1c0,0,0,0.1,0,0.2c-0.3,0-0.6,0-0.8,0l0,0
		c-0.2,0-0.5,0-0.7,0c-0.2,0-0.4,0.1-0.6,0.2c-0.7,0.5,0.4,1.9,0.4,1.9h0c1,0.3,20.3,6.5,22.2,6.7c0.8,0.1,3,0,5.4-0.3l0,0
		c3-0.4,6.3-1,7.7-1.8c0.2-0.1,0.4-0.2,0.5-0.4c0,0,0,0,0-0.1l0,0C301.3,500,300.3,499.1,299.5,498.5z M271.8,458.1l-0.5,0.5
		l-0.6-1.3l0,0l-0.3-0.6l1.2,1.1L271.8,458.1z M244.3,478.1c-0.2,0-0.4,0-0.6,0c0.2-0.9,0.3-1.5,0.3-1.5s0.9-4.1,1.4-7.6
		c0.3-1.9,0.5-3.7,0.4-4.5c-0.1-0.8,0-1.5,0.2-2.3c0.1-0.3,0.2-0.5,0.3-0.8c0.1-0.1,0.1-0.2,0.2-0.4l0.4-0.3c0,0,0,0.1,0.1,0.1
		c0,0.1,0.1,0.2,0.1,0.3l0,0.1l0,0c0.9,2,2.9,4.8,4.7,7.2c2.2,2.9,4.3,5.3,4.3,5.3l1,1.1c-2.3,0.8-4.5,1.6-4.5,1.6l-6.9,1.8
		C245.3,478.2,244.8,478.1,244.3,478.1z M272.7,462l-0.1-0.2l0,0l-0.5-1.1l-0.3-0.7l0.3,0.3l0.2,0.2c0,0.1,0,0.1,0.1,0.2
		c0.1,0.2,0.2,0.3,0.2,0.5C272.7,461.5,272.8,461.7,272.7,462L272.7,462z M248.9,459.5c-0.6,0.3-1.1,0.7-1.6,1.1
		c-0.1,0.1-0.2,0.2-0.3,0.2c0,0.1,0.1,0.2,0.1,0.3c0-0.1,0.1-0.2,0.1-0.2l0.1-0.1c0,0,0-0.1,0.1-0.1c0.1-0.1,0.1-0.2,0.2-0.3
		l1.6-1.1C249,459.4,248.9,459.4,248.9,459.5L248.9,459.5z M248.9,459.5c-0.6,0.3-1.1,0.7-1.6,1.1c-0.1,0.1-0.2,0.2-0.3,0.2
		c0,0.1,0.1,0.2,0.1,0.3c0-0.1,0.1-0.2,0.1-0.2l0.1-0.1c0,0,0-0.1,0.1-0.1c0.1-0.1,0.1-0.2,0.2-0.3l1.6-1.1
		C249,459.4,248.9,459.4,248.9,459.5L248.9,459.5z"/>
	<path class="st97" d="M297.8,498c0,0,3.4,1.5,2,3.2c-1.4,1.6-11.4,2.7-13.4,2.5c-1.9-0.3-21.7-6.7-21.7-6.7s-1.5-1.9,0.2-2.1
		c1.6-0.2,8.6,0.7,8.6,0.7l9.4,0.5L297.8,498z"/>
	<polygon class="st98" points="264.9,463.8 269.3,473.6 275.2,467.8 270.9,460.8 	"/>
	<path class="st98" d="M259.3,429.7c-1.6,1.2-3,2.6-4.4,4.1l-0.2,0.3l0,0c-0.8,0.9-1.4,1.8-2,2.8c-0.5,0.7-0.8,1.5-1.2,2.3
		c-0.9,2.4-0.5,3.7-0.5,3.7c-2.6-2.2-5.1-4.5-7.4-7c-3.8-4-6.9-8.4-3.2-9.1c4.5-0.8,8.3-3.6,10.4-5.5c0.6-0.6,1.2-1.1,1.8-1.8
		C252.5,419.5,269.1,421.8,259.3,429.7z"/>
	<path class="st99" d="M243.1,479.4l9.9-2.6c0,0,9-3.4,9.5-3.5c0.5-0.1,18.8-4.8,18.8-4.8l-8.7,19.2l-20.5,7l-12.2-1.2L243.1,479.4z
		"/>
	<path class="st5" d="M244.8,430.9c-0.3-1.5-0.8-4.8-0.2-5.8c0,0-0.8-0.1-3.8,0.5c-3,0.5-7.8,0.3-7.8,0.3s-7.2-1.4-10.3,6.5
		c0,0-1.8,8.9-3.7,11.3c-1.9,2.4-2.1,5.7-2.1,5.7s-1,4-2,4.9s-0.5,2.3-0.5,2.3s-1.2,1.2-1.1,1.9s-0.6,2.4-0.6,2.4s-0.7,1.7-0.4,2.5
		s-1.4,3.7-1.4,3.7l30.8,6.5l8.2-25.7l0.2-10.7c0,0-4.5-0.4-5.1-4.8C244.9,431.8,244.8,431.4,244.8,430.9z"/>
	<path class="st28" d="M219.3,457l-1.1,2c0,0,6.5,1.9,8.9,1.3s10-5.8,10-5.8L219.3,457z"/>
	<path class="st74" d="M219.3,457l-1.1,2c0,0,6.5,1.9,8.9,1.3s10-5.8,10-5.8L219.3,457z"/>
	<path class="st100" d="M224.3,467.7c0,0-6.3-1.3-7.3-1.3s-5.9-0.5-5.9-0.5s-1.5,3.3-1.5,4.9s-1.1,4.5-1.1,4.5s-4.8,14.3,9.6,17.4
		s23,3.5,23,3.5s4.7-13.4,5.6-15.2s0.6-3.1-3.6-2.7C238.9,478.7,224.3,467.7,224.3,467.7z"/>
	<path class="st5" d="M274,465.3l-0.3,0c-0.4,0-1,0.1-1.8,0.1c-1.2,0.1-2.8,0.3-4.1,0.5c-0.7,0.1-1.3,0.2-1.8,0.3
		c-0.6,0.1-1,0.3-1,0.5c0,0.4-3.6-6.9-7.1-14.2l-0.3-0.7c-0.1-0.2-0.2-0.5-0.3-0.7l-0.6-1.2c-0.9-1.8-1.7-3.6-2.5-5.1
		c-0.1-0.3-0.3-0.6-0.4-0.9l-2.3-4.7c-0.3-0.6-0.5-1-0.5-1s0.6-0.7,1.3-1.5c0.7-0.9,1.7-1.9,2.3-2.6h0l0,0c0.6,0.1,9.4,2.2,10.8,5.3
		c0.4,1,0.8,2,1.1,3.1c0.1,0.4,0.2,0.7,0.3,1.1c0.5,1.6,0.9,3.4,1.4,5.2c0.1,0.3,0.2,0.7,0.3,1c1,3.9,1.7,7.2,1.7,7.2l2.4,5.3
		L274,465.3z"/>
	<path class="st98" d="M280.4,464.9c0,0-2,6.9-2.9,9.6c-0.1,0.4-0.2,0.7-0.4,1c-1.1,0.9-2.3,1.4-3.7,1.7c-0.3,0-0.5,0.1-0.8,0
		c-0.4,0-0.8-0.1-1.2-0.3c-2.2-1.1-3.7-3.9-3.7-3.9l0.7-1.3l1.1-2l2.3-4.2l0.2-0.4c0.2-0.5,0.3-1,0.4-1.6c0.1-0.4,0.1-0.8,0.1-1.2
		c0-0.5-0.1-0.9-0.3-1.3c-0.8-1.1-0.9-20.1,4-17.4C281.3,446.3,280.4,464.9,280.4,464.9z"/>
	<path class="st98" d="M281.2,468.8l0.3-0.2c0,0,4.9-0.1,5.9,1.4c1,1.5,5.2,5.3,2.6,9.6c-1.6,2.6-3.8,4.7-6.4,6.2
		c0,0-14,7.9-16.6,8.7s-11.9,1.7-11.9,1.7s-2.9,2.1-4.1,2.2c-1.2,0.1-4.6,2.6-4.6,2.6s-3.7,1.2-1-3.8c2.8-5,3.1-6.1,3.1-6.1
		s2.7,1.5,4.2,0s10.6-7.2,10.6-7.2s5.9-4.7,7-5.3c1.2-0.6,8.5-4.8,8.5-4.8l0,0C278.9,471.8,279.7,470,281.2,468.8z"/>
	<path class="st97" d="M240.2,498.6l2.9,3.7c0,0,2.7-0.2,4.8-7.2c2.1-7-0.6-7.7-0.6-7.7s-3.9,2.2-5,4
		C241.1,493.1,240.2,498.6,240.2,498.6z"/>
	<path class="st101" d="M240.1,498.2l2.9,3.5c0,0,2.5-0.2,4.4-6.8s-0.6-7.3-0.6-7.3s-3.7,2.1-4.8,3.8
		C240.9,493,240.1,498.2,240.1,498.2z"/>
	<path class="st102" d="M247.7,500.1l-0.1-0.2l0,0c0.5-0.3,1.7-5.3,2.3-8.4l0.3,0.1c-0.2,1.1-1.3,6.2-2.1,8l1.3-0.9
		c0.2-0.4,2.4-4.7,1.2-6.9l-0.1-0.2l1.5-0.2l0,0.1c0.1,0.2,2.7,4.5,1.1,6l-0.2-0.2c1.3-1.3-0.7-5-1.1-5.6l-0.9,0.1
		c1.1,2.4-1.2,6.8-1.3,7l0,0L247.7,500.1L247.7,500.1z"/>
	<path class="st74" d="M237.5,434.3c0.3,0.4,0.5,3.9,1.6,4C240.1,438.4,237.5,434.3,237.5,434.3z"/>
	<path class="st74" d="M231.5,427.5c0,0,2.9,0.3,3.1,3C234.9,433.1,231.5,427.5,231.5,427.5z"/>
	<path class="st28" d="M215.9,460c0,0,1.2,3.5,3.7,4.2L215.9,460z"/>
	<path class="st28" d="M220,460.8c0,0-0.3,2.7,1.6,3.4S220,460.8,220,460.8z"/>
	<path class="st74" d="M218.6,476.6c0,0-5.7,2.8-5.6,3.7S218.6,476.6,218.6,476.6z"/>
	<path class="st74" d="M211.7,476.3c0,0,2.9-3.1,4.9-2.8L211.7,476.3z"/>
	<path class="st74" d="M267,453.3c0,0-0.8,5.7,0.4,6.1C268.6,459.8,267,453.3,267,453.3z"/>
	<path class="st103" d="M218.8,481.9c0,0-2.3,9.8-0.2,10.7c2,1.2,4.2,2.1,6.5,2.8c6.9,2,14.2-1.2,17.2-7.7c0.3-0.6,0.5-1.3,0.7-2
		c0.5-3.5,1.5-8.8,1.5-8.8s2-9.6,1.8-12.1c-0.1-1.5,0.3-3,1.2-4.3l12.8-9.3l-3.5-9.7c0,0-9.2-13-17.4-1s-15,26-15,26
		S219,474.6,218.8,481.9z"/>
	<path class="st74" d="M260.3,450.9l-2.5,1.8c-0.4-0.9-0.9-1.8-1.3-2.6c-2.2-4.6-4.3-8.9-5.1-10.7c-0.9,2.4-0.5,3.7-0.5,3.7
		c-2.6-2.2-5.1-4.5-7.4-7c3.2-1.9,6.4-0.9,8.8,0.7l0.3,0.2c1.6,1.2,3,2.5,4.2,4.1L260.3,450.9z"/>
	<path class="st98" d="M218.8,481.9c0,0-2.3,9.8-0.2,10.7c2,1.2,4.2,2.1,6.5,2.8c6.9,2,14.2-1.2,17.2-7.7c0.3-0.6,0.5-1.3,0.7-2
		c0.5-3.5,1.5-8.8,1.5-8.8s2-9.6,1.8-12.1c-0.1-1.5,0.3-3,1.2-4.3l12.8-9.3l-3.5-9.7c0,0-9.2-13-17.4-1s-15,26-15,26
		S219,474.6,218.8,481.9z"/>
	<path class="st74" d="M267,494.4c0.1-1.6,0.1-5.3,0.1-5.3s-0.1-2.6-2.3-5.7c-0.1-0.2-0.2-0.3-0.4-0.5c1.7-1.4,5.1-4,5.9-4.5
		c0.3-0.2,1.2-0.6,2.2-1.2c-0.4,0-0.8-0.1-1.2-0.3c-2.2-1.1-3.7-4-3.7-4l0.7-1.3l-2.5-5.5c-0.6,0.1-1,0.3-1,0.5
		c0,0.5-4.5-8.8-8.4-16.9c0.9-0.7,1.5-1.2,1.5-1.2l2.8,2.5l5.5,11.8l1,2.2c0,0,0.1,0.3,0.3,0.7c0.4,0.8,1,2.1,1.8,3.8
		c0.4,0.8,0.8,1.6,1.2,2.5c0.8,1.5,1.6,3.1,2.5,4.7c0.1,0.1,0.1,0.2,0.2,0.3c1.9,3.4,3.9,6.4,5.2,7.2c0,0,1.3,1.1,2.9,2.5
		C277.6,489,269,493.7,267,494.4z"/>
	<path class="st103" d="M257.5,448.7l2.8,2.5l6.5,14c0,0,7.6,17.2,11.2,19.2c0,0,6.5,5.5,7.9,6.5c1.5,0.9,5.3,3.7,5.3,3.7
		s11.4,3.3,6.3,4.9c-5.1,1.6-12,0.4-12,0.4s-7.6-1.6-9.8-2.9c0,0-1.3,0.1-2.2,0.1c-0.9,0-7.4-1.1-7.2-2c0.2-0.9,0.2-5.9,0.2-5.9
		s-0.1-2.6-2.3-5.7s-7.8-9.4-7.8-9.4s-9.6-11.4-9.4-14.5C247.4,456.4,257.5,448.7,257.5,448.7z"/>
	<path class="st98" d="M257.5,448.7l2.8,2.5l6.5,14c0,0,7.6,17.2,11.2,19.2c0,0,6.5,5.5,7.9,6.5c1.5,0.9,5.3,3.7,5.3,3.7
		s11.4,3.3,6.3,4.9c-5.1,1.6-12,0.4-12,0.4s-7.6-1.6-9.8-2.9c0,0-1.3,0.1-2.2,0.1c-0.9,0-7.4-1.1-7.2-2c0.2-0.9,0.2-5.9,0.2-5.9
		s-0.1-2.6-2.3-5.7s-7.8-9.4-7.8-9.4s-9.6-11.4-9.4-14.5C247.4,456.4,257.5,448.7,257.5,448.7z"/>
	<path class="st74" d="M284.8,500.3l-0.2-0.1c1.5-2.8,4.2-4.8,7.3-5.5l0.1,0.3C288.9,495.7,286.3,497.6,284.8,500.3z"/>
	<path class="st74" d="M279.9,498.7l-0.2-0.1c1.6-3.3,9.3-5.5,9.6-5.6l0.1,0.3C289.3,493.3,281.5,495.5,279.9,498.7z"/>
	<path class="st74" d="M283.9,499.4l-0.3-0.1c0.3-0.8,2.7-7.5,4-7.7l0,0.3C286.8,492,285,496.5,283.9,499.4z"/>
	<path class="st102" d="M284.6,500.3l-0.2-0.1c1.5-2.8,4.2-4.8,7.3-5.5l0.1,0.3C288.6,495.7,286,497.6,284.6,500.3z"/>
	<path class="st102" d="M279.6,498.7l-0.2-0.1c1.6-3.3,9.3-5.5,9.6-5.6l0.1,0.3C289,493.3,281.2,495.5,279.6,498.7z"/>
	<path class="st102" d="M283.6,499.4l-0.3-0.1c0.3-0.8,2.7-7.5,4-7.7l0,0.3C286.6,492,284.7,496.5,283.6,499.4z"/>
	<path class="st74" d="M278.9,498.2c-0.2-1.1,2.5-8.5,3.2-10.2c-4.2,2-15.3,4.2-15.5,4.2l-0.1-0.3c0.1,0,11.8-2.4,15.7-4.3l0.3-0.2
		l-0.1,0.3c-1,2.6-3.4,9.4-3.3,10.4L278.9,498.2z"/>
	<path class="st102" d="M278.7,498.2c-0.2-1.1,2.5-8.5,3.2-10.2c-4.2,2-15.3,4.2-15.5,4.2l-0.1-0.3c0.1,0,11.8-2.4,15.7-4.3l0.3-0.2
		l-0.1,0.3c-1,2.6-3.4,9.4-3.3,10.4L278.7,498.2z"/>
	<path class="st74" d="M268.6,449.8c-4.4,0.9-10.3,1.1-10.3,1.1l-0.7,0.9l-0.6,0.7c0,0-5.6,6.9-7.6,7.4c-2,0.5-7.8,7.2-7.8,7.2
		s-4.8,3.2-9,5.7c-4.2,2.5-7.2-3.5-7.2-3.5l-1.5-13.8l9.3-1.8l0.5,4c0,0,6.1-2.5,7-2.7c0.9-0.2,11.3-9.2,12.1-9.4
		c0.5-0.2,1-0.4,1.4-0.7c1-0.6,2.2-1.4,2.2-1.4s5.7-0.6,10.6,0.2c0.5,1.6,0.9,3.4,1.4,5.2C268.4,449.1,268.5,449.5,268.6,449.8z"/>
	<path class="st74" d="M268.3,448.8c-4.4,0.9-10.1,1-10.1,1l-1.1,1.3l-0.3,0.3c0,0-5.6,6.9-7.6,7.4c-2,0.5-7.8,7.2-7.8,7.2
		s-4.8,3.2-9,5.7c-4.2,2.5-7.2-3.5-7.2-3.5l-1.5-13.8l9.3-1.8l0.5,4c0,0,6.1-2.5,7-2.7c0.9-0.2,11.3-9.2,12.1-9.4
		c0.4-0.1,0.7-0.3,1-0.5l0.2-0.1c1.8-1,3.8-1.6,5.9-1.7c2.3-0.1,4.5,0.1,6.8,0.4C267.1,444.3,267.7,446.6,268.3,448.8z"/>
	<polygon class="st74" points="278.7,496.6 281.1,497.9 280,499.5 278,498.6 	"/>
	<polygon class="st104" points="278.7,496.3 281.1,497.6 280,499.2 278,498.3 	"/>
	<polygon class="st74" points="283.5,498.4 286.1,499.1 285.1,500.9 282.7,499.9 	"/>
	<polygon class="st104" points="283.5,498.1 286.1,498.8 285.1,500.6 282.7,499.6 	"/>
	<path class="st74" d="M232.7,458.6c0,0-4.6,2.8-4.3,4.8L232.7,458.6z"/>
	
		<rect x="268.6" y="450.7" transform="matrix(0.7018 -0.7124 0.7124 0.7018 -241.8005 329.6671)" class="st74" width="8.5" height="5.9"/>
	
		<rect x="269" y="451.1" transform="matrix(0.7018 -0.7124 0.7124 0.7018 -241.9585 330.0566)" class="st105" width="8.5" height="5.9"/>
	
		<rect x="270.6" y="454.9" transform="matrix(0.7018 -0.7124 0.7124 0.7018 -242.5956 331.6479)" class="st74" width="8.5" height="1.4"/>
	
		<rect x="271.6" y="454.5" transform="matrix(0.7018 -0.7124 0.7124 0.7018 -243.5554 333.8994)" class="st105" width="10.9" height="6.7"/>
	
		<rect x="273.5" y="459.1" transform="matrix(0.7018 -0.7124 0.7124 0.7018 -244.3288 335.8274)" class="st74" width="10.9" height="1.3"/>
	
		<rect x="274.4" y="458.8" transform="matrix(0.7018 -0.7124 0.7124 0.7018 -245.3375 338.0596)" class="st105" width="13.5" height="6.5"/>
	<path class="st74" d="M280.8,476.9c-0.4,0.2-1.1-0.1-1.3-0.3l0,0c-1.4-1.9-1.5-8-1.5-8l0.1-0.1l-0.4-0.4l9.5-9.6l0.4,0.4l0.1-0.1
		c1.8,0.6,3.7,0.9,5.6,1c1,0,1.4-0.2,1.8,0.1c0.4,0.7,0.6,1.4,0.6,2.2c0,1.3-3.7,1.5-5.9,1.7c-1.8,0.1-0.9,3.3-0.6,4.3
		c0.1,0.2,0.1,0.5,0.1,0.7c-0.2,2-2.5,2.2-4.4,1.7c-2.1-0.5-3,2.2-3,2.2S283.3,475.2,280.8,476.9z"/>
	<path class="st105" d="M281.2,477.3c-0.5,0.4-1.3-0.1-1.7-0.6l0,0c-1.4-1.9-1.5-8-1.5-8l9.7-9.8c1.8,0.6,3.7,0.9,5.6,1
		c1,0,1.4-0.2,1.8,0.1c0.8,0.5,1,1.7,1,2.5c0,1.3-3.7,1.5-5.9,1.7c-1.8,0.1-0.9,3.3-0.6,4.3c0.1,0.2,0.1,0.5,0.1,0.7
		c-0.2,2-2.5,2.2-4.4,1.7c-2.1-0.5-3,2.2-3,2.2S283.7,475.5,281.2,477.3z"/>
	<path class="st74" d="M281.2,477.3c-0.5,0.4-1.3-0.1-1.7-0.6l0,0c-1.4-1.9-1.5-8-1.5-8l9.7-9.8c1.8,0.6,3.7,0.9,5.6,1
		c1,0,1.4-0.2,1.8,0.1c0.8,0.5,1,1.7,1,2.5c0,1.3-3.7,1.5-5.9,1.7c-1.8,0.1-0.9,3.3-0.6,4.3c0.1,0.2,0.1,0.5,0.1,0.7
		c-0.2,2-2.5,2.2-4.4,1.7c-2.1-0.5-3,2.2-3,2.2S283.7,475.5,281.2,477.3z"/>
	<path class="st105" d="M280.6,476.7c-0.5,0.4-0.9,0.2-1.3-0.2l0,0c-1.2-1.7-1.3-7.8-1.3-7.8l9.7-9.8c1.7,0.5,3.5,0.7,5.2,0.6
		c1,0,1.6,0.1,2,0.4c0.7,0.5,0.6,1.3,0.6,2c-0.1,1.2-3.6,1.7-5.7,1.9c-1.7,0.2-1.1,3.1-0.8,4.1c0.1,0.2,0.1,0.5,0.1,0.7
		c-0.3,1.9-2.5,2.2-4.3,1.8c-1.9-0.4-3,2.2-3,2.2S283,474.9,280.6,476.7z"/>
	<path class="st105" d="M274.8,441.9L274.8,441.9c-0.7,0.7-1.9,0.7-2.6,0l-0.1-0.1c-0.7-0.7-0.8-1.9,0-2.7c0,0,0,0,0,0l0,0
		c0,0,0.1-0.1,0.1-0.1c0.7-0.6,1.8-0.6,2.5,0.1l0.1,0.1c0.7,0.7,0.7,1.8,0.1,2.5C274.9,441.8,274.9,441.8,274.8,441.9z"/>
	<path class="st74" d="M274.8,441.9L274.8,441.9c-0.7,0.7-1.9,0.7-2.6,0l-0.1-0.1c-0.7-0.7-0.8-1.9,0-2.7c0,0,0,0,0,0l0,0
		c0,0,0.1-0.1,0.1-0.1l2.7,2.7C274.9,441.8,274.9,441.8,274.8,441.9z"/>
	
		<rect x="267.3" y="451.8" transform="matrix(0.7018 -0.7124 0.7124 0.7018 -241.273 328.3481)" class="st74" width="8.5" height="1.1"/>
	<path class="st105" d="M272.3,439.6l4,3.9c1.2,1.2,1.2,3.2,0,4.4l0,0l-8.9,9l0,0l-8.4-8.3l0,0l8.9-9
		C269.1,438.4,271.1,438.3,272.3,439.6L272.3,439.6z"/>
	<path class="st74" d="M259.3,429.7c-1.6,1.2-3,2.6-4.4,4.1c-3-2.1-4.7-5.5-4.7-9.2c0-1.1,0.2-2.3,0.5-3.3c0.6-0.6,1.2-1.1,1.8-1.8
		C252.4,419.5,269.1,421.8,259.3,429.7z"/>
	<path class="st98" d="M272.7,424c0,0.1,0,0.2,0,0.3c0,0.7-0.1,1.3-0.2,2c0,0.2-0.1,0.4-0.1,0.6c0,0,0,0,0,0
		c-1.6,6-7.7,9.6-13.7,8.1c-6-1.6-9.6-7.7-8.1-13.7c0.2-0.7,0.4-1.4,0.7-2c0.1-0.3,0.3-0.6,0.5-0.9c0.6-0.9,1.2-1.8,2-2.5l0,0
		c4.5-4.3,11.7-4,15.9,0.5C271.6,418.4,272.7,421.2,272.7,424z"/>
	<path class="st98" d="M258.3,450.4l-1.1,1.3l-0.3,0.3c0,0-0.6,0.7-1.4,1.7c-1.8,2.1-4.8,5.4-6.2,5.7c-2,0.5-7.8,7.2-7.8,7.2
		s-4.8,3.2-9,5.7c-4.2,2.5-7.2-3.5-7.2-3.5l-1.5-13.8l9.3-1.8l0.5,4c0,0,6.1-2.5,7-2.7c0.7-0.2,8.2-6.6,11.1-8.7
		c0.3-0.3,0.7-0.5,1-0.7c0.4-0.2,0.9-0.4,1.3-0.6l0,0c1.8-1,3.8-1.6,5.8-1.7c4.2-0.1,11,0.3,13.3,3
		C276.5,449.8,258.3,450.4,258.3,450.4z"/>
	<path class="st74" d="M229.1,432.2c-0.6,0.1-1.2,0.1-1.9,0.1c-1.6,0-5,1.1-5.9,9.8c-1.3,11.6-3.1,17.4-3.1,17.4s6.8-2.4,10.7-1.7
		c3.9,0.6,9.9-2,9.9-2s-0.3-9.5-0.9-11.4C237.3,442.7,235.3,431.2,229.1,432.2z"/>
	<path class="st5" d="M229.1,431.6c-0.6,0.1-1.2,0.1-1.9,0.1c-1.6,0-5,1.1-5.9,9.8c-1.3,11.6-3.1,17.4-3.1,17.4s6.8-2.4,10.7-1.7
		c3.9,0.6,9.9-2,9.9-2s-0.3-9.5-0.9-11.4C237.3,442.1,235.3,430.7,229.1,431.6z"/>
	<path class="st74" d="M234.5,446c0,0-3.2,2.1-1.8,2.5C234.1,448.9,235.1,448.3,234.5,446z"/>
	<path class="st74" d="M234.2,449.7c0,0-8.7,2.7-5.7,3.9C231.6,454.8,234.2,449.7,234.2,449.7z"/>
	<path class="st74" d="M267.1,430.1l3.9-0.4c1-0.1,2-0.2,2.6-1c0.6-0.8,0.4-1.9,0.7-2.7c0.2-0.6,0.7-1.1,1.1-1.6
		c2.3-3.1,1.6-8-1.5-10.3c-0.8-0.6-1.6-1-2.4-1.5c-1.8-1.4-2.8-3.6-4.3-5.5s-4-3.3-6.1-2.2c-1.5,0.7-2.2,2.5-3.6,3.5
		c-1.9,1.4-4.5,1-6.8,0.7c-2.4-0.2-4.9-0.2-7.3,0.1c-0.4,0-0.7,0.1-1,0.3c-0.3,0.3-0.4,0.7-0.4,1.1c-0.1,2,0.9,4,0.7,6
		c-0.2,2.1-1.7,3.8-3.5,4.9c-1.5,0.9-3.5,1.9-3.5,3.7c0.1,0.6,0.3,1.2,0.6,1.8c2.5,5.1,2.5,11.1,0.1,16.3c-0.3,0.7-0.8,1.5-1.6,1.6
		c2.1,0.6,4.4-0.4,5.4-2.4c0.8-1.7,0.7-4,2.2-5.2c1-0.8,2.5-0.7,3.7-1.3c1.7-0.8,2.6-2.5,3.3-4.2l2.1-4.5c0.6-1.4,1.5-3,2.9-3.7
		c1.5-0.7,3.4,0,5,0.1c2.7,0.2,5.4,0.4,4.6,3.9C266,426.6,266.8,428.8,267.1,430.1z"/>
	<path class="st106" d="M275.3,424c-0.4,0.5-0.9,1-1.1,1.6c-0.1,0.3-0.2,0.7-0.2,1c-0.1,0.6-0.1,1.2-0.5,1.7c-0.6,0.8-1.6,0.9-2.6,1
		c-1.3,0.1-2.6,0.2-3.9,0.4c-0.2-1.3-1-3.5-2.8-2.6c0.8-3.5-2-3.7-4.6-3.9c-1.6-0.1-3.5-0.8-5-0.1c-1.4,0.7-2.3,2.4-2.9,3.7
		l-2.1,4.5c-0.8,1.6-1.7,3.4-3.3,4.2c-1.2,0.6-2.7,0.5-3.7,1.3c-1.5,1.2-1.3,3.5-2.2,5.2c-1,2-3.3,2.9-5.4,2.4
		c0.8-0.1,1.3-0.9,1.6-1.6c2.4-5.1,2.4-11.1-0.1-16.3c-0.3-0.5-0.5-1.1-0.6-1.8c-0.1-1.8,1.9-2.8,3.5-3.7c1.8-1.1,3.3-2.8,3.5-4.9
		c0.2-2-0.8-4-0.7-6c0-0.4,0.1-0.8,0.4-1.1c0.3-0.2,0.7-0.3,1-0.3c2.4-0.3,4.9-0.3,7.3-0.1c2.4,0.2,4.9,0.7,6.8-0.7
		c1.3-1,2.1-2.7,3.6-3.5c2.1-1,4.6,0.4,6.1,2.2c1.5,1.8,2.4,4,4.3,5.5c0.7,0.6,1.6,1,2.4,1.5c1.3,1,2.3,2.5,2.6,4.1l0,0
		C277,420,276.6,422.2,275.3,424z"/>
	<g class="st65">
		<path d="M243,414.4c0.2-1.7-0.5-3.4-0.7-5.1c-0.2,0.3-0.3,0.7-0.3,1c-0.1,1.7,0.7,3.5,0.7,5.2C242.8,415.2,242.9,414.8,243,414.4z
			"/>
		<path d="M238.2,436.6c0.8-4,0.3-8.2-1.5-11.8c-0.2-0.4-0.4-0.8-0.5-1.2c-0.3,0.4-0.4,0.9-0.4,1.3c0.1,0.6,0.3,1.2,0.6,1.8
			C237.9,429.8,238.5,433.2,238.2,436.6z"/>
		<path d="M275.6,422.2c-0.4,0.5-0.9,1-1.1,1.6c-0.3,0.9-0.1,2-0.7,2.7s-1.6,0.9-2.6,1l-3.9,0.4c-0.2-1.3-1-3.5-2.8-2.6
			c0.8-3.5-2-3.7-4.6-3.9c-1.6-0.1-3.5-0.8-5-0.1c-1.4,0.7-2.3,2.4-2.9,3.7l-2.1,4.5c-0.8,1.6-1.7,3.4-3.3,4.2
			c-1.2,0.6-2.7,0.5-3.7,1.3c-1.5,1.2-1.3,3.5-2.2,5.2c-0.8,1.5-2.3,2.5-4,2.5c0,0,0,0.1-0.1,0.1c-0.3,0.7-0.8,1.5-1.6,1.6
			c2.1,0.6,4.4-0.4,5.4-2.4c0.8-1.7,0.7-4,2.2-5.2c1-0.8,2.5-0.7,3.7-1.3c1.7-0.8,2.6-2.5,3.3-4.2l2.1-4.5c0.6-1.4,1.5-3,2.9-3.7
			c1.5-0.7,3.4,0,5,0.1c2.7,0.2,5.4,0.4,4.6,3.9c1.7-0.9,2.5,1.3,2.8,2.6l3.9-0.4c1-0.1,2-0.2,2.6-1c0.6-0.8,0.4-1.9,0.7-2.7
			c0.2-0.6,0.7-1.1,1.1-1.6c0.9-1.2,1.4-2.7,1.4-4.2C276.5,420.8,276.1,421.6,275.6,422.2z"/>
	</g>
	<path class="st74" d="M275.3,424c-0.4,0.5-0.9,1-1.1,1.6c-0.1,0.3-0.2,0.7-0.2,1c-0.3-0.2-0.6-0.5-0.9-0.7c-1.3-0.9-2.8-1.5-4.2-2
		l-6.5-2.5c-1.5-0.6-3.1-1.2-4.6-1.8c-0.6-0.2-1.2-0.4-1.8-0.6l-0.2,0l0,0c-1-0.2-2.1-0.2-3.1,0.1c-0.3,0.1-0.5,0.1-0.8,0.2
		c0-0.1,0-0.2,0-0.3c0-0.2,0-0.3,0-0.5c0.8,0.2,1.5,0.1,2.3-0.2c0.6-0.3,1.1-0.7,1.5-1.1c1.2-1,2.5-1.8,4-2.4c2.2-0.8,4.6-0.9,7-0.8
		c1.2,0,2.4,0.1,3.5,0.4c1.4,0.4,2.8,1,4,1.8c0.8,0.4,1.7,0.9,2.3,1.7l0,0C277,420,276.6,422.2,275.3,424z"/>
	<path class="st107" d="M277.8,421c-0.5,0.2,0.5,0.4,0.1,0.8c-0.6,0.5,0.2,1.1-0.5,1.4c-0.2,0.1,0.3,1.4,0.1,1.5
		c0.4,1.1-2.7,1.1-2.7,2.4v0.3c-0.5-0.6-1.1-1.1-1.7-1.5c-1.3-0.9-2.8-1.5-4.2-2l-6.5-2.5l-4.6-1.8c-0.6-0.2-1.2-0.4-1.8-0.6l-0.2,0
		l0,0c-1-0.2-2.1-0.2-3.1,0.1c-0.3,0.1-0.5,0.1-0.8,0.2c0-0.1,0-0.2,0-0.3c0-0.2,0-0.3,0-0.5c0.8,0.2,1.5,0.1,2.3-0.2
		c0.6-0.3,1.1-0.7,1.5-1.1c1.2-1,2.5-1.8,4-2.4c2.2-0.8,4.6-0.9,7-0.8c1.2,0,2.4,0.1,3.5,0.4c1.4,0.4,2.7,1.1,4,1.8
		c1,0.5,2,1.1,2.5,2c0.2,0.3,0.3,0.7,0.4,1.1C277.3,419.6,277.5,420.3,277.8,421z"/>
	<path class="st74" d="M276.3,424.5c-2-5-11.9-4.9-12-4.9v-0.3c0.4,0,10.2-0.1,12.3,5.1L276.3,424.5z"/>
	<path class="st74" d="M277,422.1c-1.3-3.5-8.8-3.8-8.9-3.8v-0.3c0.3,0,7.7,0.3,9.1,4L277,422.1z"/>
</g>
</svg>
