<?xml version="1.0" encoding="utf-8"?>
<!-- Generator: Adobe Illustrator 24.3.0, SVG Export Plug-In . SVG Version: 6.00 Build 0)  -->
<svg version="1.1" id="圖層_1" xmlns="http://www.w3.org/2000/svg" xmlns:xlink="http://www.w3.org/1999/xlink" x="0px" y="0px"
	 viewBox="0 0 465.4 587.2" style="enable-background:new 0 0 465.4 587.2;" xml:space="preserve">
<style type="text/css">
	.st0{fill:#9EAC3A;}
	.st1{fill:#652323;}
	.st2{fill:#5A652D;}
	.st3{fill:#565EA9;}
	.st4{fill:#86584B;}
	.st5{fill:#C89C89;}
	.st6{opacity:0.1;fill:none;stroke:#040000;stroke-width:0.3361;stroke-miterlimit:10;enable-background:new    ;}
	.st7{fill:url(#SVGID_1_);}
	.st8{fill:#346251;}
	.st9{fill:#274B3D;}
	.st10{fill:#2F5A4A;}
	.st11{fill:#528171;}
	.st12{fill:#2B5E4C;}
	.st13{fill:#315F4D;}
	.st14{opacity:0.1;fill:#040000;enable-background:new    ;}
	.st15{fill:#335F4F;}
	.st16{fill:#265946;}
	.st17{fill:#315F4E;}
	.st18{opacity:0.1;}
	.st19{fill:#040000;}
	.st20{fill:url(#SVGID_2_);}
	.st21{fill:#FFFFFF;}
	.st22{fill:#949394;}
	.st23{fill:#CC8481;}
	.st24{fill:#F7F7F7;}
	.st25{fill:#333333;}
	.st26{fill:#E4ECF5;}
	.st27{fill:#4051A1;}
	.st28{fill:url(#SVGID_3_);}
	.st29{fill:#15152C;}
	.st30{fill:#F9D0C5;}
	.st31{fill:#EBC1B9;}
	.st32{fill:none;}
	.st33{fill:#4A6373;}
	.st34{fill:#040205;}
	.st35{fill:#141534;}
	.st36{fill:#F5B5B5;}
	.st37{fill:#504F7F;}
	.st38{fill:#4F4E5F;}
	.st39{fill:#554B2E;}
	.st40{fill:#FBE4EA;}
</style>
<g>
	
		<ellipse transform="matrix(0.9841 -0.1774 0.1774 0.9841 -29.5271 40.1267)" class="st0" cx="209.6" cy="185.2" rx="86.3" ry="176.1"/>
	<path class="st1" d="M195.5,152.2c7.6,20.6,14.3,41.6,20.3,62.8c5.9,21.2,11,42.6,15.2,64.2c4.2,21.6,7.5,43.4,10,65.2
		c2.4,21.9,4,43.8,4.7,65.8s0.5,44-0.6,66c-0.1,2.7-0.3,5.4-0.4,8.1c-0.2,2.8,4.1,2.7,4.3,0c1.3-22.1,1.7-44.1,1.2-66.3
		c-0.5-22-1.9-43.9-4.1-65.8c-2.3-22-5.4-43.8-9.4-65.6c-4-21.7-8.8-43.3-14.6-64.7c-5.7-21.3-12.3-42.4-19.7-63.3
		c-0.9-2.5-1.8-5.1-2.8-7.6C198.7,148.5,194.6,149.6,195.5,152.2L195.5,152.2z"/>
	<path class="st1" d="M225.1,233.4l19-42.2l5.4-11.9c0.6-1,0.2-2.3-0.8-2.9c-1-0.6-2.3-0.2-2.9,0.8l-19,42.2l-5.4,11.9
		c-0.6,1-0.2,2.3,0.8,2.9S224.5,234.4,225.1,233.4L225.1,233.4z"/>
	<path class="st1" d="M229.3,262.2L186,246l-12.2-4.6c-1.1-0.3-2.3,0.4-2.6,1.5s0.4,2.3,1.5,2.6l43.3,16.2l12.2,4.6
		c1.1,0.3,2.3-0.4,2.6-1.5C231.1,263.7,230.4,262.6,229.3,262.2L229.3,262.2z"/>
	
		<ellipse transform="matrix(0.9983 -5.775874e-02 5.775874e-02 0.9983 -14.8616 18.137)" class="st2" cx="306.3" cy="266.2" rx="64.9" ry="132.4"/>
	<path class="st1" d="M298.7,240.4c3.8,16.1,7,32.3,9.5,48.7c2.5,16.4,4.3,32.8,5.5,49.3s1.7,33.1,1.6,49.6
		c-0.2,16.5-1,33.1-2.4,49.5c-1.5,16.5-3.6,32.9-6.4,49.2c-0.3,2-0.7,4-1.1,6s2.8,2.4,3.2,0.4c3-16.4,5.3-32.8,6.9-49.4
		c1.6-16.5,2.6-33,2.9-49.5c0.3-16.6,0-33.2-1.1-49.8c-1-16.6-2.7-33.1-5-49.6s-5.3-32.8-9-49c-0.4-2-0.9-4-1.4-5.9
		C301.4,237.9,298.2,238.3,298.7,240.4L298.7,240.4z"/>
	<path class="st1" d="M313.4,303.7l18-29.8l5.1-8.4c0.5-0.7,0.4-1.7-0.3-2.3c-0.7-0.5-1.7-0.4-2.3,0.3l-18,29.8l-5.1,8.4
		c-0.5,0.7-0.4,1.7,0.3,2.3C311.9,304.5,312.9,304.4,313.4,303.7L313.4,303.7z"/>
	<path class="st1" d="M313.9,325.6L283,309.5l-8.7-4.5c-0.8-0.3-1.8,0.1-2.1,0.9c-0.3,0.8,0.1,1.8,0.9,2.1l30.9,16.1l8.7,4.5
		c0.8,0.3,1.8-0.1,2.1-0.9C315.1,326.8,314.7,325.9,313.9,325.6L313.9,325.6z"/>
</g>
<g>
	<path class="st3" d="M95.7,519.5c0,0,6.5-1,10.4,3.5c0,0-2.8,2.2-9-0.9L95.7,519.5z"/>
	<path class="st3" d="M113.9,504.7c0,0,3.1-0.5,4.9,1.7c0,0-1.3,1.1-4.2-0.4L113.9,504.7z"/>
	<path class="st3" d="M113.6,504.7c0,0-1.9,2.4-1,5.1c0,0,1.6-0.6,1.8-3.9L113.6,504.7z"/>
	<path class="st3" d="M111.8,500.8c0,0,1.2-2.2,6.1,0.9c0,0-0.7,1.5-2.8,1.4C113,502.9,112.4,501.9,111.8,500.8z"/>
	<path class="st3" d="M111.5,500.6c0,0-2.5-0.3-2.8,5.5c0,0,1.6,0.3,2.7-1.5C112.6,502.8,112.1,501.7,111.5,500.6z"/>
	<path class="st3" d="M110,496c0,0,1.4-3.9,6.6-1.1c0,0-1.2,3.6-6.1,2.5L110,496z"/>
	<path class="st3" d="M108.4,490.1c0,0,2.7-4,7.4-0.3c0,0-1.7,3.7-7.1,1.7L108.4,490.1z"/>
	<path class="st3" d="M109.9,495.9c0,0-3.6-2.2-5.9,3.2c0,0,3.2,2.1,6.3-1.8L109.9,495.9z"/>
	<path class="st3" d="M108.3,489.8c0,0-4.4-2-6.5,3.7c0,0,3.4,2.3,6.9-2.2L108.3,489.8z"/>
	<path class="st4" d="M334.4,517.8c-0.4,2.6-3,11.1-3,11.1s-3.8,12.8-4.9,13s-51.2-1.1-53.3,0c-2.1,1.1-14.3,0-14.3,0
		s-7.5,0.6-11.1,1.7s-23.2,2.8-24.2,2.8s-9.6-3.4-11.1-3s-10.7-1.1-12.8-0.4s-10.9-3.4-12.2-2.8c-1.3,0.6-7.3,1.1-9,1.9
		c-1.7,0.9-45-1.3-45.8-1.1c-0.1,0-0.7,0.1-1.4,0.3c-4,0.7-15,2.5-15,2.5l-6.8-2.4c0,0-6-0.4-7.9-0.2s-10.7-8.1-10.7-8.1
		s-0.9-4.1,0-5.1c0.9-1.1,0-6.4,0-6.4c0-3.5,0.8-7,2.4-10.2c2.6-5.1,4.1-12.6,4.1-12.6s1.9-9.4,4.3-11.5c2.4-2.1,10.9-2.1,14.9-1.5
		l0.4,0.1c5.4,0.8,38.1,4.2,41.2,4c3.2-0.2,14.9,0.4,16.6-0.2s40.7,1.3,40.7,1.3s6.6-2.4,8.2-2.8s6.9-11.7,8.6-13
		c0.5-0.4,1-0.8,1.5-1.2c1.3-1.2,2.7-2.2,4.3-3c3.2-1.7,11.5,5.3,10.2,8.3c-1.1,2.7-2,2.8-2.7,3.1c-0.1,0-0.2,0.1-0.3,0.1
		c-0.9,0.4-4,6.2-4,6.2s42-1.1,46.7-1.5s18.8,0,20.3-1.1s16.2,1.9,16.2,1.9l7.7,16.2C332,504.2,334.8,515.2,334.4,517.8z"/>
	<path class="st5" d="M131.2,541.3c-4,0.7-15,2.5-15,2.5l-6.8-2.4c0,0-6-0.4-7.9-0.2s-10.7-8.1-10.7-8.1s-0.9-4.1,0-5.1
		c0.9-1.1,0-6.4,0-6.4c0-3.5,0.8-7,2.4-10.2c2.6-5.1,4.1-12.6,4.1-12.6s1.9-9.4,4.3-11.5c2.4-2.1,10.9-2.1,14.9-1.5l0.4,0.1
		c8.6,13.2,22.7,36,23.1,43.9C140.2,534.8,136,538.6,131.2,541.3z"/>
	<path class="st6" d="M168.9,520.7c0,0-2.8,0.8-6.8,0.1s-9.2,1.1-9.2,1.1"/>
	<path class="st6" d="M179.4,521.9c0,0,3.2,0.9,11.7,1.1c8.5,0.2,9.6-0.6,13.4,0c3.8,0.6,7.9,1.1,7.9,1.1"/>
	<path class="st6" d="M154.2,525.7c0,0,11.7-2.1,16.8,0s15.1-0.6,16.6,0s9.2,0.8,11.5,0.8s3.8,0.6,6.8,0s14.9,0.3,14.9,0.3"/>
	<path class="st6" d="M205.8,508.5c0,0,6.2-1.6,10.9,0c4.7,1.6,14.1,0.3,19,1.2c4.9,0.9,19.2,3.6,20.7,1.9"/>
	<path class="st6" d="M234.4,515.9c0,0,4.3-1.1,8.3,0c4.1,1.1,11.5,2.1,13.6,1.5c2.7-0.8,5.5-1.5,8.3-2c3.4-0.6,12.6-4,16-3.2
		c3.4,0.7,7.5-1.5,11.1-2.2s5.3-0.8,9.8,0s6.8,2.9,7.5,2.2"/>
	<path class="st6" d="M288.3,502.5c0.6-0.4,3.6,1.9,9.8,2.1c6.2,0.2,11.9-2.2,11.9-2.2s-0.6-0.7,3.2,0c3.8,0.7,18.8,1.8,18.8,1.8"/>
	<path class="st6" d="M314.3,496.3c0,0-7.7-2.1-10.9,0c-3.2,2.1-6.6,0.2-7.7,0s-10.5-0.2-13.2-0.9c-2.8-0.8-10.9,1-10.9,1
		s-10.2-0.6-13.8-0.1c-3.6,0.5-11.9,2.3-12.6,1.1c-0.6-1.2-7.5-3.3-9.8-2.1"/>
	<path class="st6" d="M231.1,498.8c0,0,5.9-1.1,7.8,0s8.7,0,8.7,0s5.5,1.1,6.4,1.5"/>
	<path class="st6" d="M291.5,493.3c0,0,2.6-0.9,8.1,0c3.5,0.5,7.1,0.4,10.6-0.4c0,0,5.7-0.5,8.4,0.7c2.8,1.2,8.2-0.4,8.2-0.4"/>
	<path class="st6" d="M131.2,506.1c0,0,1.7-1.3,7.9,0s9.2-0.6,9.2-0.6s-2.6-0.1,3,0c5.5,0.1,8.5-2.2,8.5-2.2"/>
	<path class="st6" d="M125.4,502.1c0,0-0.2-2.3,5.8,0c6,2.3,9.4,1.3,9.4,1.3c2.5-0.9,5.1-1.2,7.7-1c4.3,0.3,10,0,10,0"/>
	<path class="st6" d="M121.4,496.2c0,0,1.3-1.5,7,0c5.7,1.5,7.7,0,7.7,0s5.8,0.1,9.4,1.4"/>
	<path class="st6" d="M128.8,494c0,0,1.7-0.1,5.8,0s8.3,0,8.3,0"/>
	<path class="st6" d="M112.6,520.7c0,0-3.2-2.6-1.1-4.1s5.1,0.2,5.1,1v5.4c0,0-9.4,3.4-9.4,1.1s2.8-13.3,3.8-14
		c1.1-0.7,3.6-7.5,4.5-5c0.9,2.4,5.8,16.9,5.8,16.9c-0.7,2.2-2.2,3.9-4.3,4.9c-3.4,1.7-15.8,1.8-15.6-1s3.6-17.3,3.6-17.3
		s5.8-15.6,9-11.9s4.7,10.2,7.3,12.8c2.5,2.6,8.1,12.7,5.8,17.4c-2.3,4.7-19.2,9.1-19.2,9.1s-13.4-3.2-10.7-14.1
		c2.8-10.9,4.5-29.2,8.5-30.3c4.1-1.1,8.1-2.4,11.5,0s10.2,16.7,11.5,17.8c1.3,1.1,8.3,11.8,7,15.3s-8.5,13.7-12.4,15.2
		c-3.8,1.5-12.8-1.5-12.8-1.5"/>
	<path class="st6" d="M268.9,521.9c0,0,8.1-0.2,10,0s5.8-4.9,7.9-4.3s3,4.4,6.8,3.7s13.6-1.6,13.6-1.6s5.3,0.4,9,0
		c3.6-0.4,6.4,0,8.3,0s7.5,0,7.5,0l1.7,1"/>
	<path class="st6" d="M274.9,515.3c2.7-0.2,5.4-0.2,8.1,0c3.6,0.3,15.4-2.1,20.5-1.8s7.7-1.6,10-1.3s4.1,1.6,7.7,1.6
		s12.6-1.6,12.6-1.6"/>
	<path class="st6" d="M166.6,533.2c0,0,14.9,1.9,19.8,0s7.5-2.6,10.9-1.9s2.4-1.8,8.5-0.2c6.2,1.5,17.1,2.3,19.8,1.3
		c2.8-1,22.2,3.3,22.2,3.3"/>
	<path class="st6" d="M190.7,537.2c0,0,6.2,0.6,10.2,1.1c4.1,0.4,22.6,1.9,26.4,0s27.7-0.1,27.7-0.1s5.3,0.4,8.5,0s11.3-1,11.3-1"/>
	<path class="st5" d="M248.2,479.2c-1.1,2.7-2,2.8-2.7,3.1c-3.9-1.7-8.8-5.8-11.8-8.4c1.3-1.2,2.7-2.2,4.3-3
		C241.2,469.2,249.5,476.2,248.2,479.2z"/>
	<path class="st6" d="M237.9,475.2c0,0,2.5,4.2,5,4s3.8-2.1,3-3.3c-0.8-1.2-6.1-3.5-6.1-3.5"/>
	<path class="st6" d="M239.7,474.7c0,0,1.3,3,2.3,1.8S239.7,474.7,239.7,474.7z"/>
	
		<linearGradient id="SVGID_1_" gradientUnits="userSpaceOnUse" x1="251.9671" y1="618.2194" x2="251.9671" y2="568.8837" gradientTransform="matrix(1 0 0 1 -44.68 -62.17)">
		<stop  offset="0" style="stop-color:#7F8080;stop-opacity:0.25"/>
		<stop  offset="0.54" style="stop-color:#7F8080;stop-opacity:0.12"/>
		<stop  offset="1" style="stop-color:#7F8080;stop-opacity:0.1"/>
	</linearGradient>
	<path class="st7" d="M226.9,533.7c0,0-0.7-2.7-1.3-5.4c-0.1-1.7-0.4-3.8-0.5-4.7v-0.1c0-0.4-0.1-0.7-0.4-1c0.3-1,1.6-4.7,1.3-5.7
		c-0.3-1.2-1.2-4.2-2.3-5.2c-0.4-0.5-0.9-0.9-1.5-1.2c-1.1-0.4-2.3-0.3-3.3,0.3l-5.7,3.2c-2.3-0.3-4.1-0.6-4.1-0.6s-1.4-0.2-3.2-0.3
		c-0.6-1.3-2.4-5.3-4.2-5.9c-2-0.7-4.4,0.2-4.9,0.5l0,0l0,0h-0.1l0,0c-3.7,1.7-3.3,9-3.1,10.6c-0.7,0.9-1.4,1.7-2.2,2.5
		c-1.3,1.1-1.7,4.1-0.5,4.7c0.6,0.3,1.4,0.6,2.1,0.9c-3.2,6.8-8.7,20.3-3.8,24.1c6.6,5.2,19.1,6.9,23.3,5.2c0.1,0,0.2,0,0.3,0
		c0,0,6.9-1.6,8.5-3.5c1.2-1.5,2-3.3,2.4-5.2c1.7-1.5,2.8-3.5,3.2-5.7C227.7,536.8,226.9,533.7,226.9,533.7z M222.6,518.9l0.2-0.8
		c0.1,0.1,0.2,0.1,0.3,0.2c0,0.2-0.1,0.5-0.1,0.7l-0.3,1.6L222.6,518.9z M221.3,512.1c0.3,0.2,2.2,1.6,1.9,5.3
		c0-0.1-0.1-0.3-0.1-0.4c-0.1-0.5-0.5-1.2-1.8-1.7c-1.1-0.3-2.3-0.6-3.4-0.8C218.8,513.5,220,512.7,221.3,512.1z M201.9,512.5
		c-1.5-0.1-2.7-0.2-2.8-0.1l0,0c-0.2,0-0.4,0-0.6,0.1c-0.6,0.1-1.1,0.4-1.6,0.7c0.7-3.8,2.6-4.1,3.1-4.1
		C200.8,510.1,201.4,511.3,201.9,512.5L201.9,512.5z M223.4,542.5c-0.2-3.1-0.4-7.9-0.5-10.7h0.2c0.2,0,0.4-0.1,0.6-0.1
		c0.2,1.8,0.5,4,1.1,5.4C225.5,538.8,224.3,541.1,223.4,542.5L223.4,542.5z"/>
	<polygon class="st8" points="222.1,517.2 218.2,516 214.1,517.5 213.8,520.1 215.8,521.5 219.1,521.4 222,520 222.4,517.5 	"/>
	<path class="st9" d="M193.9,518.5c0,0-1-9,3.1-10.9c0,0,2.2,0.1,3.2,1.7c0,0-3-0.2-3.3,6.2L193.9,518.5z"/>
	<path class="st10" d="M196.1,515.3c0,0-3.2,4.3-4.5,5.4s-1.6,4-0.5,4.6c1.2,0.6,3.4,1.5,3.4,1.5L196.1,515.3z"/>
	<path class="st11" d="M206.1,513.5c0,0-2.1-5.5-4.3-6.3s-4.9,0.5-4.9,0.5s3.2-0.3,5.2,5.4L206.1,513.5z"/>
	<path class="st9" d="M224.1,522.8c0,0,1.6-4.7,1.4-5.9c-0.3-1.2-1.2-4.2-2.3-5.2c-1.1-1-2.4,0.6-2.4,0.6s2.8,1.7,1.6,6.8l-0.4,2.3
		L224.1,522.8z"/>
	<path class="st11" d="M212.2,514.5l6.4-3.7c1-0.6,2.1-0.7,3.2-0.3c0.6,0.2,1.1,0.6,1.4,1.2c0,0-3.1-0.2-6.5,3.9L212.2,514.5z"/>
	<path class="st12" d="M222.9,528.4c0,0,0.2,5.8,1.3,8.6c1.1,2.8-2.3,6.7-2.3,6.7l0.6,3.4c0,0,2.9-1.9,3.8-6.1s0-7.3,0-7.3
		s-2.4-9.5-2-10.5C224.7,522.2,222.9,528.4,222.9,528.4z"/>
	<path class="st11" d="M222.1,518.2c0,0,0.5,3-5.5,1.7l-4,35.4c0,0,6.7-1.6,8.3-3.5c1.6-1.8,2.7-5.3,2.4-6.6
		c-0.4-1.3-0.8-15.6-0.8-15.6L222.1,518.2z"/>
	<path class="st13" d="M195.2,522.2c0,0-12.1,22.8-5.7,27.9c6.5,5.1,18.5,6.9,22.7,5.1c0,0,1.9,0.5,1.6-5.5S216,527,216,527
		L195.2,522.2z"/>
	<path class="st11" d="M195.6,523.2c0,0-11.4,21.4-5.3,26.3c6.1,4.8,17.4,6.5,21.3,4.8c0,0,1.8,0.5,1.5-5.1s2.1-21.3,2.1-21.3
		L195.6,523.2z"/>
	<path class="st14" d="M221.9,532c-0.5,0.3-3.1-0.5-3.1-0.5c-2.9-0.2-1.9-5.2-1.3-7.1c0.1-0.5,0.2-0.8,0.2-0.8c1.3,1.7,3.8,1,3.8,1
		s0.1,0.6,0.2,1.3C221.8,528,222.2,531.8,221.9,532z"/>
	<path class="st15" d="M222,531.8c-0.5,0.3-3.1-0.5-3.1-0.5c-2.9-0.2-1.9-5.2-1.3-7.1c0.1-0.5,0.2-0.8,0.2-0.8c1.3,1.7,3.8,1,3.8,1
		s0.1,0.6,0.2,1.3C221.9,527.9,222.3,531.6,222,531.8z"/>
	<path class="st14" d="M221.7,525.8c-1.3-0.2-3.3-1.1-4.2-1.5c0.1-0.5,0.2-0.8,0.2-0.8c1.3,1.7,3.8,1,3.8,1S221.6,525,221.7,525.8z"
		/>
	<path class="st11" d="M220.4,524.2c0,0-3.3,8.5,2.2,7.5c0,0,2.6-0.3,2.6-2.2c0-2-0.6-6.3-0.6-6.3L220.4,524.2z"/>
	<path class="st14" d="M217.9,522.1c0,0-1.7,6.9,3.7,4.3s1.9-4.3,1.9-4.3l-2.5-1.7L217.9,522.1z"/>
	<path class="st16" d="M217.9,522c0,0-1.7,6.9,3.7,4.3c5.3-2.6,1.9-4.3,1.9-4.3l-2.5-1.7L217.9,522z"/>
	<path class="st14" d="M219,521.1c0,0-1.5,0.4-0.7,1.9c0.4,0.7,0.5,1.4,0.5,2.2c0,0.5,0.3,1,0.8,1.1s1.3,0,2.3-0.9
		c0,0,2-0.7,1.8-1.7s-3.4-3.1-3.4-3.1L219,521.1z"/>
	<path class="st11" d="M219,521c0,0-1.5,0.4-0.7,1.9c0.4,0.7,0.5,1.4,0.5,2.2c0,0.5,0.3,1,0.8,1.1s1.3,0,2.3-0.9c0,0,2-0.7,1.8-1.7
		s-3.4-3.1-3.4-3.1L219,521z"/>
	<circle class="st14" cx="221" cy="523.4" r="1"/>
	<circle class="st16" cx="221" cy="523.3" r="1"/>
	<path class="st14" d="M208.7,513.7c0,0-9.6-1.2-10-0.8c0,0-5.1,0.9-5.1,10.3c0,0-0.1,5.4,10.3,8.1c0,0,8.4,0.7,11.1-2.6
		s1.4-8.9,1.4-8.9s1.1-4.3,6.2-1.3c0,0,0.5-1.7-1.8-2.5S208.7,513.7,208.7,513.7z"/>
	<path class="st13" d="M208.7,513.5c0,0-9.6-1.2-10-0.8c0,0-5.1,0.9-5.1,10.3c0,0-0.1,5.4,10.3,8.1c0,0,8.4,0.7,11.1-2.6
		s1.4-8.9,1.4-8.9s1.1-4.3,6.2-1.3c0,0,0.5-1.7-1.8-2.5C218.6,514.9,208.7,513.5,208.7,513.5z"/>
	<path class="st14" d="M209,513.6c0,0-9.3-1.1-9.7-0.8c0,0-4.9,0.8-4.9,9.7c0,0-0.1,5.1,10.1,7.6c0,0,8.2,0.7,10.8-2.4
		s1.3-8.4,1.3-8.4s1.1-4,6-1.2c0,0,0.5-1.6-1.7-2.4S209,513.6,209,513.6z"/>
	<path class="st11" d="M209,513.5c0,0-9.3-1.1-9.7-0.8c0,0-4.9,0.8-4.9,9.7c0,0-0.1,5.1,10.1,7.6c0,0,8.2,0.7,10.8-2.4
		s1.3-8.4,1.3-8.4s1.1-4,6-1.2c0,0,0.5-1.6-1.7-2.4S209,513.5,209,513.5z"/>
	<path class="st17" d="M204.4,528.1c0,0-2.5-1.2-2.7,1c0,0-0.9,2.2-0.9,2.4c0,0.3,0.1,2.5,2.1,2.4c1.1,0,2.1-0.6,2.7-1.6
		c0,0,0.4-2.4,1-2.9s-0.4-1-0.8-1C205.3,528.4,204.8,528.3,204.4,528.1z"/>
	<path class="st14" d="M204,527.8c0,0-2.5-1.2-2.7,1c0,0-0.9,2.2-0.9,2.4c0,0.3,0.1,2.5,2.1,2.4c1.1,0,2.1-0.6,2.7-1.6
		c0,0,0.4-2.4,1-2.9s-0.4-1-0.8-1C204.9,528,204.5,527.9,204,527.8z"/>
	<path class="st11" d="M204.1,527.7c0,0-2.5-1.2-2.7,1c0,0-0.9,2.2-0.9,2.4c0,0.3,0.1,2.5,2.1,2.4c1.1,0,2.1-0.6,2.7-1.6
		c0,0,0.4-2.4,1-2.9s-0.4-1-0.8-1C205,527.9,204.6,527.8,204.1,527.7z"/>
	<circle class="st14" cx="202.8" cy="531.9" r="0.9"/>
	<circle class="st17" cx="202.8" cy="531.9" r="0.9"/>
	<path class="st13" d="M211.4,536.9c0,0-9.9-1.2-16.9-4.7c0,0-5.5,13.8-1.1,15.7s13.4,5,16,4c0,0,1.5,0.2,1-4.8
		C209.9,542,211.4,536.9,211.4,536.9z"/>
	<path class="st14" d="M210.8,537.8c0,0-9.9-1.1-16.9-4.5c0,0-5.5,13-1.1,14.8s13.4,4.7,16,3.7c0,0,1.5,0.2,1-4.5
		C209.3,542.7,210.8,537.8,210.8,537.8z"/>
	<path class="st11" d="M211,537.8c0,0-9.9-1.1-16.9-4.5c0,0-5.5,13-1.1,14.8s13.4,4.7,16,3.7c0,0,1.5,0.2,1-4.5S211,537.8,211,537.8
		z"/>
	<g class="st18">
		<path class="st19" d="M220.8,515.5c-2.2-0.8-11.8-2.1-11.8-2.1s-9.3-1.1-9.7-0.8c0,0-2.4,0.4-3.8,3.7c1.5-2.9,3.7-3.3,3.7-3.3
			c0.5-0.3,9.7,0.8,9.7,0.8s9.6,1.3,11.8,2.1c1.5,0.5,1.8,1.4,1.8,1.9l0.1,0.1C222.5,517.9,223.1,516.3,220.8,515.5z"/>
		<path class="st19" d="M216.6,518.9c-0.1,0.2-0.2,0.4-0.3,0.6c0,0,0.9,3.8-0.4,6.8c1.6-3.1,0.5-7.2,0.5-7.2
			C216.6,519,216.6,518.9,216.6,518.9z"/>
	</g>
	
		<linearGradient id="SVGID_2_" gradientUnits="userSpaceOnUse" x1="339.7113" y1="610.8243" x2="339.7113" y2="441.3407" gradientTransform="matrix(1 0 0 1 -44.68 -62.17)">
		<stop  offset="0" style="stop-color:#7F8080;stop-opacity:0.25"/>
		<stop  offset="0.54" style="stop-color:#7F8080;stop-opacity:0.12"/>
		<stop  offset="1" style="stop-color:#7F8080;stop-opacity:0.1"/>
	</linearGradient>
	<path class="st20" d="M336.5,541.5c-1.9-0.1-2-0.8-4.5-2.1c-1.4-0.7-3.5-2.8-5.1-4.5l-0.4-0.4h0.7c0,0-0.6-5.4-0.1-6.7
		s0.1-8.9,0.1-8.9s0.3-5.8-0.3-7.2c-0.6-1.4,0.2-10,0.2-10s0.6-5.2,0.7-15.7s-6.1-10.8-6.1-10.8s-0.8-0.1-2.1-0.2h-0.4
		c0.8-1.7,1.3-3,1.3-3s-1-9.8-1.3-11.5s-1.9-8.7-1.9-8.7s-1.2-3-1.9-5.1s-2.7-4.5-2.7-4.5s-3.7-7.3-4.7-8.4
		c-0.5-0.5-1.1-1.1-1.7-1.7l-0.3-0.3c0.2-0.8,0.2-1.5,0.2-2.3c0,0-3.9-3.8-4.1-4.8c-0.3-1-3.9-4.5-3.9-4.5s-2.1-3.8-4.4-3.9
		c-1.1-0.1-2.2,0-3.3,0.1c0.5-1.8,1-3.6,1.6-5.2c0.1-0.2,0.1-0.3,0.2-0.5c1.9-1.3,3.3-3,4.2-5.1c0-0.1,0.1-0.2,0.1-0.3h0.1
		c0.1,0,0.2,0,0.3,0c0.8-0.1,1.4-1,1.1-1.7c0,0.1,0.1,0.1,0.2,0.1c0.3,0,0.6-0.4,0.6-0.7c0-0.1,0-0.1,0-0.2v-0.2c0-0.1,0-0.1,0-0.2
		s0-0.1,0-0.2s0-0.1,0-0.2s0-0.1,0-0.2s0-0.1,0-0.2s0-0.2,0-0.3v-0.1l0,0c0-0.4-0.1-0.7-0.2-1.1c-0.4-1.3-1.2-2.5-0.9-3.8l0,0l0,0
		c0.3-1,1.1-1.7,1.6-2.6c0.1-0.1,0.1-0.2,0.1-0.3l0,0c0-0.1,0.1-0.1,0.1-0.2s0-0.1,0.1-0.1c0,0,0-0.1,0.1-0.2c0-0.1,0-0.1,0.1-0.2
		s0-0.1,0-0.2s0-0.1,0-0.2s0-0.1,0-0.1s0-0.1,0-0.2s0-0.1,0-0.1v-0.2v-0.1c0-0.1,0-0.2,0-0.3v-0.1c0-0.1,0-0.2,0-0.3l0,0l0,0
		c-0.1-0.9-0.5-1.7-1-2.4c-1.2-1.4-3-2.2-4.9-2.1c-0.5,0.1-1,0.1-1.6,0c-0.9-0.1-1.6-0.7-2.3-1.2l-5.8-4.4c-0.6-0.6-1.4-1-2.2-1.3
		c-0.8-0.2-1.8-0.2-2.4,0.4c-1.1,1.1-0.4,2.9-0.8,4.3c-0.4,1.2-1.6,2.1-2.8,2.5c-1.2,0.4-2.6,0.5-3.9,0.8c-0.4,0.1-0.7,0.2-1,0.5
		c-0.3,0.4-0.5,0.9-0.5,1.4c0,1.3,0.3,2.5,0.9,3.7c0.2,0.5,0.5,0.9,0.8,1.4c0,0,0,0.1,0.1,0.1c0,0,0.1,0.1,0.1,0.2s0.1,0.2,0.1,0.3
		l0.1,0.1l0.1,0.2v0.1c0,0.1,0,0.1,0.1,0.2c0.1,0.4,0.1,0.9,0,1.3c-0.2,0.7-0.8,1.3-1.3,1.9c-0.4,0.4-0.7,1-0.8,1.6l0,0
		c0,0.1,0,0.3,0,0.4c0,0,0,0,0,0.1v0.1c0,0,0,0,0,0.1c0,0,0,0,0,0.1l0.1,0.1h0.1c0,0,0.1,0,0.1,0.1c0,0,0,0,0.1,0h0.1l0,0
		c0.1,0,0.1,0,0.2,0h0.1c0.1,0,0.1,0,0.2,0h0.1c0.1,0,0.2,0,0.3-0.1c0.4-0.1,0.8-0.3,1.1-0.4v0.1c0,0,0,0.1,0,0.2
		c0,1.3,0.3,2.6,0.7,3.9c0.7,1.9,2,3.6,3.6,4.9c0,0.1,0,0.2-0.1,0.3c-0.3,1.6-1,3.3-1.5,3.1c-0.4-0.1-0.8-0.1-1.3-0.1h-0.4l0,0
		c-0.4,0-0.8,0-1.2,0c-0.2,0-0.3,0-0.5-0.1c-1.1-0.3-2.3-0.4-3.4-0.2c-2.4,0.5-6,1.4-7,2.4c-1.5,1.6-3.7,3.2-6.2,10
		c0,0-1.2,4.1-2.2,4.7c0.2-0.1,0.4-0.2,0.7-0.3c-0.1,0.2-0.3,0.4-0.5,0.6c0.3-0.2,0.7-0.3,1.1-0.5c-0.7,4.4,0.4,17,0.4,17
		s-0.9,2.2,0.3,3.5c0.7,0.8,1.1,2,1.3,2.8l-0.2,0.3l0,0c-0.6,1-1.4,2.2-2,2.9c-1,1.2-0.7,5.1-0.7,5.1s-0.2,1.8-0.9,2.5
		s-0.6,3.2-0.6,3.2l-1.8,6.6c0,0-1.7,1.5-1.7,2.2s-1.3,2.6-1.3,2.6s-2,3.3,0,2.8c0.7-0.2,1.4-0.6,2-1v0.1c0,0.1,0,0.2,0,0.4
		c-0.1,3.5,0.3,8.5,2.9,8.5c4.1,0,14.5,4.8,14.5,4.8c2.1,1.6,5,1.1,5,1.1s-5.1,5.1-4.9,7.2c0.1,2.1-2.9,5.6-2.9,5.6l-9.3,18.2
		c0.1,1.3,0.3,2.5,0.7,3.7l-0.1,0.1c-3.6,3.3-3.9,9.8-3.9,9.8l-0.8,3.3l12.5,5.5c0,0,16.2,0.3,19-0.4s2.2-3.9-1.5-4.5
		s-4.6-2.2-5.8-3c-0.8-0.5-3.8-3.8-5.6-5.8l-0.1-0.1l0.4-2.4c0.8-0.4,2.1-4.5,2.1-4.5s0-1.6,0.8-2.1s2.5-5.4,2.5-5.4s3.7-6.2,3.5-7
		s2.7-4.9,2.7-4.9s4.9-4.7,4.7-5.6c-0.2-0.8,3.9-5.2,3.9-5.2c1.5-1.1,2.7-2.6,3.6-4.2l1.2-0.2c5.4-0.9,14.4-2.5,15.4-2.9
		c1.4-0.6,1.1,2.1,0.6,4.4s-1,13.4-0.3,14.8c0.6,1.4,0.3,3.7,0.3,3.7l-0.8,12.4l0.5,2.6c0,0-1.9,1.5-1.1,2.4s0.1,4.7,0.1,4.7
		c0.1,0,0.1,0,0.2-0.1c-0.1,0.1-0.1,0.3-0.2,0.5c-1.1,3-0.5,8-0.5,8v3.9c0,0,19,0.3,23.2,0.3s10-2,10.3-3.7
		C343.6,542.9,338.4,541.5,336.5,541.5z M282.4,470.9l-1.2,0.1C281.5,471,282,470.9,282.4,470.9z M290,418.9
		c0.2-0.8,0.4-1.6,0.6-2.5L290,418.9z M292.3,472.8c-1.2,0.5-2.5,0.5-3.7,0l0,0c0,0,0.1-4.7,0.6-6.7c0.6-2,1.3-5.6,1.3-5.6
		s0.6-4.9,1.2-7.2c0.6-2.2,3-14.7,4.3-15.5c1.2-0.8,1.9,0.6,1.9,0.6s0.2,0,0.5,0c0.1,0.1,0.1,0.3,0.2,0.4c1.5,3,5.8,9,5.8,9
		c1.3,0.8,2.4,1.9,3.2,3.1c1.2,2,1.5,6.6,1.5,6.6s2.6,10.2,3.8,11.7c0.6,0.7,0.3,1.1-0.1,1.4c-0.9,0.5-1.6,1.2-2.2,2
		c-0.2,0.3-0.4,0.6-0.6,0.9c-0.5-0.1-0.9-0.2-1.2-0.3C305.5,472,294.2,472,292.3,472.8L292.3,472.8z"/>
	<path class="st21" d="M309.2,544v3.9c0,0,18.6,0.3,22.7,0.3s9.7-2,10.1-3.6c0.3-1.6-4.7-3-6.6-3c-1.9-0.1-1.9-0.8-4.4-2.1
		c-1.4-0.7-3.4-2.8-5-4.5c-1.2-1.3-2.1-2.4-2.1-2.4s-10-0.2-12.9,1.4c-0.7,0.4-1.1,1.1-1.4,2C308.6,539,309.2,544,309.2,544z"/>
	<path class="st14" d="M309.7,536c2.1-0.7,14.4-1,16.4-1.1c-1.2-1.3-2.1-2.4-2.1-2.4s-10-0.2-12.9,1.4
		C310.5,534.4,310,535.1,309.7,536z"/>
	<path class="st22" d="M255.7,473.9l1.1,0.7l0.4,0.2l1.6,1c8.5,5.1,31.5,18.9,32.8,18.8c0.3,0,1.3-0.2,2.7-0.4l1.2-0.2
		c5.3-0.9,14-2.5,15-2.9c1.3-0.6,1.1,2.1,0.5,4.4c-0.5,2.3-0.9,13.2-0.3,14.7s0.3,3.7,0.3,3.7l-0.8,12.3l0.5,2.6
		c0,0-1.8,1.5-1.1,2.4s0.1,4.6,0.1,4.6c2.2-0.8,16.7-1.1,16.7-1.1s-0.6-5.4-0.1-6.7s0.1-8.9,0.1-8.9s0.3-5.8-0.3-7.1
		s0.2-9.9,0.2-9.9s0.5-5.1,0.7-15.5s-5.9-10.8-5.9-10.8s-0.8-0.1-2-0.2c-2.4-0.2-6.4-0.7-9.1-1.2c-0.5-0.1-1.1-0.3-1.6-0.4
		c-3.3-1.1-14.4-1.2-16.2-0.4c-1.2,0.5-2.5,0.5-3.6,0l0,0l-1.4-2.3l-13.5,1.1l-1.4,0.1l-13.3,1.1l-0.9,0.1L255.7,473.9z"/>
	<path class="st14" d="M309.7,484.2c3.9,1.9,7.7-4.9,9.4-8.7c-2.4-0.2-6.4-0.7-9.1-1.2C308.3,477.2,306,482.3,309.7,484.2z"/>
	<path class="st23" d="M297.9,438.4c0.1,0.5,0.2,0.9,0.5,1.3c1.4,2.9,5.6,9,5.6,9c1.3,0.8,2.3,1.8,3.1,3.1c1.1,1.9,1.5,6.5,1.5,6.5
		s2.6,10.2,3.8,11.6c0.6,0.7,0.3,1.1-0.1,1.4c-0.9,0.5-1.6,1.2-2.1,2c-1.8,2.8-4.6,8.5-0.6,10.4c5.4,2.6,10.4-11.1,10.4-11.1
		s-1-9.7-1.3-11.4s-1.9-8.6-1.9-8.6s-1.1-3-1.8-5s-2.7-4.5-2.7-4.5s-3.6-7.3-4.6-8.3c-0.5-0.5-1.1-1.1-1.7-1.7
		c-0.7-0.6-1.2-1.1-1.2-1.1S297.9,436.8,297.9,438.4z"/>
	<path class="st21" d="M252.4,543.2l12.2,5.4c0,0,15.9,0.3,18.6-0.4s2.2-3.8-1.5-4.4c-3.6-0.6-4.5-2.2-5.7-3
		c-0.8-0.5-3.7-3.7-5.5-5.8c-0.9-1-1.5-1.7-1.5-1.7s-2.4-6.3-8.9-4.8c-1.2,0.3-2.3,0.8-3.2,1.7c-3.5,3.3-3.8,9.7-3.8,9.7
		L252.4,543.2z"/>
	<path class="st14" d="M257.2,474.8l1.6,1c8.5,5.1,31.5,18.9,32.8,18.8c0.3,0,1.3-0.2,2.7-0.4l1.2-0.2v-0.1c0.7-1.2,1.2-2.4,1.5-3.8
		c1.4-5.4-5.6-9.5-5.6-9.5l-1.5-1.1c-1.7-2.8-13.8-5.5-13.8-5.5l-1.6-1l-0.8-0.6l-0.2-0.1l-1.9-1.3l-9.5,0.7l-2.8,1.8l-0.3,0.2
		l-1,0.7L257.2,474.8z"/>
	<path class="st14" d="M257,530.2c2.6,8.9,13.3,6,13.3,6l0.2-1.1c-0.9-1-1.5-1.7-1.5-1.7s-2.4-6.3-8.9-4.8
		C259,528.8,257.9,529.3,257,530.2z"/>
	<path class="st22" d="M254.2,489.8c4,0,14.2,4.8,14.2,4.8c2.1,1.6,4.9,1.1,4.9,1.1s-5,5-4.8,7.1s-2.8,5.5-2.8,5.5l-9.1,18.1
		c0.7,12.8,13.8,9.3,13.8,9.3l0.5-3c0.8-0.4,2-4.4,2-4.4s0-1.6,0.8-2.1s2.5-5.3,2.5-5.3s3.6-6.1,3.4-6.9c-0.2-0.8,2.6-4.9,2.6-4.9
		s4.8-4.7,4.6-5.5s3.8-5.1,3.8-5.1c1.5-1.1,2.7-2.5,3.6-4.2c0.7-1.2,1.2-2.4,1.5-3.8c1.1-4.3-3.2-7.8-4.9-9
		c-0.4-0.3-0.7-0.4-0.7-0.4l-1.5-1.1c-0.8-1.3-3.7-2.5-6.6-3.5c-2.1-0.7-4.3-1.3-5.7-1.6c-0.9-0.2-1.5-0.3-1.5-0.3l-1.6-1l-0.5-0.4
		l-0.5-0.3l-1.9-1.3l-4.2,0.3l-5.3,0.4l-2.8,1.8l-1.3,0.9l-5.3,3.4c0,0-0.1,1.3-0.2,3v0.4C251.3,484.8,251.6,489.8,254.2,489.8z"/>
	<path class="st23" d="M274.4,414.5l1.4,5c0,0,2.5,8.7,2.8,9.3s6.8,6.7,7.1,6.9c0.3,0.1,3.8,2.2,3.8,2.2s0.3-11.1,0-14.3
		c0-0.7,0-1.4,0.2-2.1c0.4-2.5,1.5-6.2,2.4-9.1c0.8-2.4,1.4-4.2,1.4-4.2s-15.7-0.7-15.2,0.9c0.2,0.6,0.1,1.6-0.1,2.5
		c-0.3,1.6-1,3.2-1.4,3.1s-0.8-0.1-1.2-0.1C274.9,414.5,274.4,414.5,274.4,414.5z"/>
	<path class="st14" d="M278.2,411.5c3.9,3.3,9.6,3.6,13.9,0.8c0.8-2.4,1.4-4.2,1.4-4.2s-15.7-0.7-15.2,0.9
		C278.5,409.6,278.4,410.6,278.2,411.5z"/>
	<path class="st23" d="M297.3,402.2c0,1.2-0.2,2.5-0.6,3.6c-0.1,0.3-0.2,0.6-0.3,0.9c-2.5,5.9-9.3,8.7-15.2,6.2
		c-2.9-1.2-5.2-3.6-6.4-6.6c-0.5-1.2-0.7-2.5-0.7-3.8c0-0.1,0-0.1,0-0.2c-0.1-6.4,5-11.7,11.4-11.8s11.7,5,11.8,11.4
		C297.3,401.9,297.3,402.1,297.3,402.2L297.3,402.2z"/>
	<path class="st14" d="M274.4,414.5l1.4,5c0,0,2.5,8.7,2.8,9.3s6.8,6.7,7.1,6.9c0.3,0.1,3.8,2.2,3.8,2.2s0.3-11.1,0-14.3
		c0-0.7,0-1.4,0.2-2.1l-0.9,3.7l0.1,7.5l0.5,0.4l-1.2,1.8v-1.3c0,0-4.3-4.2-5-5.9s-3.1-4.9-3.1-4.9s-2.8-4.6-2.8-5.4
		c-0.1-0.6-1.2-2.1-1.7-2.7C274.9,414.5,274.4,414.5,274.4,414.5z"/>
	<path class="st14" d="M297.9,438.4c0.1,0.5,0.2,0.9,0.5,1.3c1.5-0.2,6.5-1.1,7.6-6.8c-0.7-0.6-1.2-1.1-1.2-1.1
		S297.9,436.8,297.9,438.4z"/>
	<path class="st14" d="M251.3,481.3c1.3-1,2.6-2.3,3.4-2.6c1.1-0.5,2.9-2.3,2.9-2.3s0.4-0.3,1.1-0.7c1.2-0.7,3.3-1.8,4.9-1.9
		c1.4-0.1,6.1-0.4,9.7-0.6l4.8-0.3c0,0,4.4-1.5,6.3-0.5c1.3,0.7,2.8,1.2,4.2,1.5c0,0,0-0.1,0-0.4l0,0l-1.4-2.3l-14.9,1.3l-1.9-1.3
		l-9.5,0.7l-2.8,1.8l-2.4,0.2l1.1,0.7l-5.3,3.4C251.5,477.9,251.3,479.4,251.3,481.3z"/>
	<path class="st24" d="M249.3,481.9c0.7-0.2,1.4-0.6,2-1l0,0c1.3-1,2.6-2.3,3.4-2.6c1.1-0.5,2.9-2.3,2.9-2.3s3.6-2.4,6-2.6
		c0.7-0.1,2-0.1,3.7-0.3c1.7-0.1,3.7-0.2,5.5-0.3l2.9-0.2l2.5-0.2c0,0,4.4-1.5,6.3-0.5c1.3,0.7,2.8,1.2,4.2,1.5c0,0,0.1-4.7,0.6-6.7
		c0.5-1.9,1.3-5.5,1.3-5.5s0.6-4.9,1.2-7.1s3-14.6,4.2-15.4s1.9,0.6,1.9,0.6s8.1-0.1,8.2-9c0,0-3.8-3.8-4-4.7s-3.8-4.4-3.8-4.4
		s-2-3.8-4.3-3.8c-1.1-0.1-2.2,0-3.2,0.1l-1.9,7.9l0.1,7.5l0.5,0.4l-1.2,1.8v-1.3c0,0-4.3-4.2-5-5.9s-3.1-4.9-3.1-4.9
		s-2.8-4.6-2.8-5.4c-0.1-0.8-1.9-3-1.9-3c-0.4,0-0.8,0-1.1,0c-0.2,0-0.3,0-0.5-0.1c-1.1-0.3-2.2-0.4-3.4-0.2
		c-2.3,0.5-5.9,1.4-6.8,2.4c-1.5,1.6-3.6,3.2-6.1,9.9l13,4.7l-1.1,2.1l-10.7,19.7c0,0-0.3,0.6-0.8,1.3l0,0c-0.6,1-1.4,2.2-1.9,2.9
		c-0.9,1.2-0.7,5-0.7,5s-0.2,1.8-0.9,2.5S254,468,254,468l-1.7,6.5c0,0-1.6,1.5-1.6,2.2s-1.3,2.6-1.3,2.6S247.4,482.4,249.3,481.9z"
		/>
	<path class="st14" d="M318.2,486.8c0,0-4.2,1.4-5.4,3.4S318.2,486.8,318.2,486.8z"/>
	<path class="st14" d="M316,482.3c-0.1,0.2-5.8,5.9-5.4,7.3S316,482.3,316,482.3z"/>
	<path class="st14" d="M284.9,486.4c0,0-6.3,3-6.9,4.3C277.5,491.9,284.9,486.4,284.9,486.4z"/>
	<path class="st14" d="M284.5,490.2c0,0-5.7,2.4-6.5,3S284.5,490.2,284.5,490.2z"/>
	<path class="st14" d="M281.9,495.4c0,0-2.5,1.9-3.9,0.4C276.6,494.3,281.9,495.4,281.9,495.4z"/>
	<path class="st14" d="M291.4,446.3c-0.1,0.2-8.5,15.3-10.8,16.5C278.4,463.9,291.4,446.3,291.4,446.3z"/>
	<path class="st14" d="M291,452c0,0.3-8.2,17.9-9.5,18.1S291,452,291,452z"/>
	<path class="st14" d="M259.8,463.3c0,0-3.9,8.5-5.5,8.9C252.7,472.7,259.8,463.3,259.8,463.3z"/>
	<path class="st14" d="M259.1,459.5c0,0-1.4,3-2.2,3S259.1,459.5,259.1,459.5z"/>
	<path class="st14" d="M297.3,402.2c0,1.2-0.2,2.5-0.6,3.6c-0.1,0.3-0.2,0.6-0.3,0.9c-0.6-0.1-1.2-0.3-1.6-0.7
		c-0.5-0.3-0.9-0.8-1.2-1.3c-0.2-0.5-0.4-1.1-0.6-1.7c-0.5-1.3-1.8-2.2-3.2-2.4c0.4,0.7-0.2,1.6-1,1.7s-1.5-0.3-2-0.9
		s-0.9-1.2-1.4-1.8s-1.3-1-2-0.9s-1.2,0.6-1.7,1s-1.3,0.6-1.9,0.2c-0.3-0.2-0.5-0.6-0.7-0.9c-0.7-0.6-1.9,0-2.4,0.8
		c-0.8,1.2-1.3,2-2.5,2.6c0-0.1,0-0.1,0-0.2c-0.1-6.4,5-11.7,11.4-11.8s11.7,5,11.8,11.4C297.3,402,297.3,402.1,297.3,402.2
		L297.3,402.2z"/>
	<path class="st25" d="M276.5,399.5c0.5-0.8,1.7-1.4,2.4-0.8c0.3,0.2,0.4,0.6,0.7,0.9c0.5,0.4,1.3,0.2,1.9-0.2
		c0.6-0.4,1.1-0.9,1.7-1c0.8-0.1,1.5,0.3,2,0.9s0.9,1.2,1.4,1.8s1.3,1,2,0.9c0.8-0.1,1.4-1,1-1.7c1.4,0.2,2.6,1.1,3.2,2.4
		c0.2,0.6,0.4,1.1,0.6,1.7c0.3,0.5,0.7,1,1.2,1.3c0.6,0.5,1.4,0.8,2.1,0.7c0.8-0.1,1.4-1,1-1.7c0.2,0.4,0.8-0.1,0.8-0.6
		c0.2-0.9,0.1-1.9-0.2-2.8c-0.4-1.2-1.1-2.5-0.9-3.8c0.2-1,1.1-1.7,1.6-2.6c0.9-1.6,0.7-3.7-0.4-5.1c-1.2-1.4-3-2.2-4.8-2.1
		c-0.5,0.1-1,0.1-1.5,0c-0.8-0.1-1.6-0.7-2.2-1.2l-5.6-4.4c-0.6-0.6-1.3-1-2.1-1.3c-0.8-0.2-1.7-0.2-2.4,0.4
		c-1.1,1.1-0.4,2.9-0.8,4.3c-0.4,1.2-1.5,2.1-2.8,2.5c-1.2,0.4-2.5,0.5-3.8,0.8c-0.4,0.1-0.7,0.2-1,0.5c-0.3,0.4-0.5,0.9-0.4,1.4
		c0,1.3,0.3,2.5,0.9,3.6c0.7,1.3,1.7,2.5,1.3,3.9c-0.2,0.7-0.8,1.3-1.2,1.8c-1.1,1.2-1.4,3,0.6,2.4
		C274.8,401.9,275.4,401.1,276.5,399.5z"/>
	<g class="st18">
		<path class="st19" d="M298.7,402.8c-0.1,0.4-0.6,0.9-0.8,0.6c0.3,0.7-0.3,1.5-1,1.7s-1.5-0.2-2.1-0.7c-0.5-0.3-0.9-0.8-1.2-1.3
			c-0.2-0.5-0.4-1.1-0.6-1.7c-0.5-1.3-1.8-2.3-3.2-2.4c0.4,0.7-0.2,1.6-1,1.7s-1.5-0.3-2-0.9s-0.9-1.2-1.4-1.8s-1.3-1-2-0.9
			s-1.2,0.6-1.7,1s-1.3,0.6-1.9,0.2c-0.3-0.2-0.4-0.6-0.7-0.9c-0.7-0.6-1.9,0-2.5,0.8c-1.1,1.6-1.6,2.4-3.6,3c-0.6,0.2-1,0.2-1.2,0
			c-0.4,1-0.2,1.8,1.2,1.4c1.9-0.6,2.5-1.4,3.6-3c0.5-0.8,1.7-1.4,2.5-0.8c0.3,0.2,0.4,0.6,0.7,0.9c0.5,0.4,1.3,0.2,1.9-0.2
			s1.1-0.9,1.7-1c0.8-0.1,1.5,0.3,2,0.9s0.9,1.2,1.4,1.8c0.5,0.6,1.3,1,2,0.9c0.8-0.1,1.4-1,1-1.7c1.4,0.2,2.6,1.1,3.2,2.4
			c0.2,0.6,0.4,1.1,0.6,1.7c0.3,0.5,0.7,1,1.2,1.3c0.6,0.5,1.4,0.8,2.1,0.7c0.8-0.1,1.4-1,1-1.7c0.2,0.4,0.8-0.1,0.8-0.6
			c0.1-0.6,0.1-1.2,0.1-1.8C298.8,402.5,298.7,402.7,298.7,402.8z"/>
		<path class="st19" d="M273.6,397L273.6,397c0.4-1.4-0.7-2.7-1.3-4c-0.5-0.9-0.7-1.8-0.8-2.8c0,0.2,0,0.4,0,0.5
			c0,1.3,0.3,2.5,0.9,3.6C272.7,395.2,273.3,396.1,273.6,397z"/>
		<path class="st19" d="M299.3,393.6c-0.5,0.9-1.4,1.6-1.6,2.6c-0.1,0.4-0.1,0.9,0,1.3c0.2-1,1.1-1.7,1.6-2.6s0.7-1.9,0.5-2.8
			C299.8,392.6,299.6,393.1,299.3,393.6z"/>
	</g>
	<polygon class="st21" points="288.9,502 286.8,496.5 276.6,469.4 281.1,468.8 282.8,466.8 284.2,464.9 287.9,464.2 291.1,463.6 
		291.1,463.6 294.4,458.9 298.6,457.2 298.6,457.2 300.4,453 309.5,459.8 316.1,464.7 316.6,465.1 329.3,474.6 326.3,483.9 
		326.3,483.9 318.2,484.5 318.1,484.6 313.7,494.5 303.5,494.5 303.5,494.5 300.8,499.6 300.7,499.8 298.8,503.5 298.8,503.5 	"/>
	<polygon class="st26" points="289,501 287.1,495.7 277.5,470 281.9,469.4 283.5,467.4 284.9,465.7 288.5,464.9 291.6,464.3 
		291.6,464.3 294.8,459.7 298.9,458.1 298.9,458.1 300.7,454.1 309.3,460.4 315.7,465.1 316.2,465.4 328.3,474.3 325.3,483.2 
		325.2,483.2 317.5,483.9 317.4,484 313,493.5 303.2,493.7 303.1,493.7 300.5,498.5 300.4,498.8 298.5,502.3 298.5,502.3 	"/>
	<path class="st27" d="M297.5,494.2c-0.2-1.3-0.3-2.5-0.2-3.8c0-0.4,0-0.9,0.3-1.2c0.3-0.3,0.7-0.3,1,0l0,0c0-0.3,0.4-0.7,0.8-0.7
		c0.1,0,0.3,0,0.4,0c0.3,0.1,0.7,0,1-0.2c-0.4-0.5-0.7-1.1-0.9-1.7c-0.2-0.6,0-1.3,0.5-1.8c0.8-0.7,2.1-0.2,3,0.4l3.8,2.2
		c0.5,0.3,1,0.6,1.5,1c0.1-0.2,0.2-0.4,0.3-0.6c0.6-1.6,0.8-3.3,0.5-4.9s-1.1-3.3-0.2-4.7c0.1-0.2,0.3-0.4,0.5-0.4s0.4,0.1,0.4,0.3
		c0,0,0,0,0,0.1c0.1-0.5,0.2-1,0.4-1.5c0.2-0.5,0.5-1,0.9-1.4c0.8-0.8,2-1.2,3-0.7c0.2,0.1,0.4,0.2,0.7,0.3c0.4,0.1,0.7-0.1,1-0.3
		c0.2-0.2,0.3-0.4,0.4-0.7c0.1-0.6,0-1.2-0.3-1.8c-0.4-1.1-0.9-2.1-1.5-3.1c-0.3-0.5-0.6-1-0.5-1.5c0.1-0.4,0.4-0.8,0.8-1
		c0.5-0.3,0.9-0.6,1.5-0.8l12.1,8.9l-3,8.9l0,0l-7.8,0.7l-0.1,0.1l-4.4,9.5l-9.9,0.2l0,0l-2.6,4.8l-0.1,0.3c-0.1,0-0.2-0.1-0.3-0.1
		c-0.4-0.3-0.8-0.7-1.1-1.1C298.3,496.6,297.8,495.4,297.5,494.2z"/>
	<path class="st27" d="M288.5,464.9l3-0.6l0,0l3.3-4.6l4-1.6l0,0l1.8-4l8.6,6.3l-0.1,0.1c-0.4,0.6-0.7,1.3-1,2
		c-0.2,0.3-0.2,0.6-0.2,0.9c0.1,0.5,0.3,0.9,0.6,1.2c1.1,1.2,2.3,2.4,3.5,3.4c-0.5,0.2-1,0.1-1.4-0.2c0.1,0.4-0.1,0.9-0.5,1.1
		c-0.1,0.1-0.3,0.2-0.4,0.2c-0.6,0.1-1.2,0.1-1.8,0c-0.8-0.1-1.6-0.3-2.3-0.7c-1.7-0.9-2.6-2.7-3.4-4.4c-0.3,0.9-0.9,1.6-1.4,2.3
		c-0.3,0.4-0.5,0.9-0.5,1.3c-0.1,0.3,0,0.6,0.2,0.9c0.3,0.3,0.6,0.5,0.9,0.7c0.9,0.6,1.2,1.8,1.4,2.9c0.1,0.3,0.1,0.7,0,1
		s-0.4,0.6-0.8,0.5s-0.5-0.7-0.8-1.1c-0.4-0.5-1.2-0.6-1.8-0.8c-0.8-0.2-1.5-0.7-2-1.3c-0.1,0.6-0.1,1.1-0.1,1.7l0,0
		c0,0.1,0,0.1,0,0.2c-2-1-3.9-2.3-5.5-3.8c0.5-0.3,0.6-0.9,0.4-1.4c-0.1-0.1-0.2-0.3-0.3-0.3c-0.3-0.1-0.6-0.2-0.9-0.2
		C290.1,466.6,289.2,465.8,288.5,464.9z"/>
	<path class="st27" d="M287.1,495.7l-9.6-25.7l4.4-0.6l1.6-2c0.3,0.5,0.6,1,1,1.4c1,1.4,2.4,2.5,3.8,3.6c0.2,0.1,0.3,0.2,0.5,0.3
		c0.2,0,0.5,0,0.7,0l0,0c0.7-0.2,1.7-0.4,2,0.3c0.1,0.2,0.1,0.5,0.2,0.7c0.2,0.5,0.8,0.6,1.3,0.5s1-0.4,1.5-0.5
		c0.7-0.2,1.5,0.1,2.1,0.6c0.6,0.6,1.1,1.7,2,1.7c0.5-0.1,0.9-0.3,1.1-0.7l0.1-0.2l1.5,1.5l2.1-0.9c0.6,0.8,0.7,1.9,0.2,2.7
		c-0.2,0.3-0.5,0.5-0.7,0.8c-0.1,0.1-0.1,0.1-0.2,0.2c-0.4,0.6-0.6,1.3-1.1,2c-0.8,1-2,1.5-3.3,1.5c-0.8,0-1.6-0.1-2.4-0.3
		c-0.4-0.1-0.9-0.2-1.3-0.3c0.7,0.6,1.2,1.2,1.7,2c0.4,0.8,0.5,1.7,0.1,2.5c-0.5,0.9-1.6,1.3-2.6,0.9l0.9,0.9c-1,0.6-1.2,2-0.9,3.2
		c0.4,1.1,1.1,2.1,1.3,3.3c0,0.2,0.1,0.5,0,0.7c0,0.2-0.1,0.3-0.1,0.5c-0.4,0.8-1.6,0.9-2.5,0.6c-1.6-0.5-2.9-1.6-3.6-3.1
		c-0.5,0.7-0.8,1.6-0.7,2.4C288.2,496.1,287.7,495.9,287.1,495.7z"/>
	<polygon class="st14" points="294.8,459.7 298.9,458.1 298.9,458.1 310.3,469 315.9,474.3 325.2,483.2 317.5,483.9 317.4,484 
		310.4,476.5 301,466.4 	"/>
	<polygon class="st14" points="303.2,493.7 299.8,488.5 295.9,482.6 289.5,472.7 284.9,465.7 288.5,464.9 291.6,464.3 291.6,464.3 
		297.5,472.3 297.5,472.3 299.6,475.3 302.7,479.4 308.8,487.8 313,493.5 	"/>
	<polygon class="st14" points="289,501 287.1,495.7 277.5,470 281.9,469.4 295.2,495.7 298.5,502.3 298.5,502.3 	"/>
	<path class="st14" d="M258,454.4L258,454.4c0.1,0.4,0.2,0.7,0.2,1.1c0,0,5.3,12.4,6,13.2c0.2,0.2,1,1.3,2,2.8l1.1,1.7
		c2,3,4.3,6.4,4.3,6.4l5,4.4c0,0,10.8,0.9,14.3-2.6c-0.4-0.3-0.7-0.4-0.7-0.4l-1.5-1.1c-0.8-1.3-3.7-2.5-6.6-3.5c-2.7,0-5,0.2-5,0.2
		l-0.7-1.9l-0.7-1.9l-3.8-9.9c0,0-2.4-12.5-3.2-13.1c-0.8-0.6-0.6-2.5-0.6-2.5s1.5-5.3,0.9-6.1c-0.5-0.7,0.9-6.2,0.9-6.2
		c-0.1-0.5-0.4-1-0.6-1.5l-10.5,19.6C258.8,453.1,258.5,453.6,258,454.4z"/>
	<path class="st23" d="M270,434.5c0,0-1.4,5.4-0.9,6.2c0.5,0.7-0.9,6.1-0.9,6.1s-0.2,1.9,0.6,2.5c0.8,0.6,3.2,13.1,3.2,13.1
		l5.2,13.7c0,0,16.3-1.6,14.6,3.5s-15.1,4-15.1,4l-5-4.4c0,0-6.7-10.1-7.4-10.9s-6-13.2-6-13.2s-0.3-2.5-1.4-3.8s-0.3-3.4-0.3-3.4
		s-1.4-16.3,0.1-18.2C258.2,427.7,268.4,428.6,270,434.5z"/>
	<path class="st14" d="M261.7,424.2l-4.2,2.6c0,0-1.2,4.1-2.2,4.6c0,0,8.5-4.7,14.9,6.1c0,0-0.2-1.4,0.7-2.1s0.7-3.6,0.7-3.6
		c0.2-0.5,0.4-0.9,0.6-1.4C272.7,429,269.5,420.6,261.7,424.2z"/>
	<path class="st24" d="M261.5,424l-4.2,2.6c0,0-1.2,4.1-2.2,4.6c0,0,8.5-4.7,14.9,6.1c0,0-0.2-1.4,0.7-2.1c0.9-0.7,0.7-3.6,0.7-3.6
		c0.2-0.5,0.4-0.9,0.6-1.4C272.5,428.8,269.4,420.3,261.5,424z"/>
	
		<linearGradient id="SVGID_3_" gradientUnits="userSpaceOnUse" x1="211.3274" y1="565.6542" x2="211.3274" y2="465.6456" gradientTransform="matrix(1 0 0 1 -44.68 -62.17)">
		<stop  offset="0" style="stop-color:#7F8080;stop-opacity:0.25"/>
		<stop  offset="0.54" style="stop-color:#7F8080;stop-opacity:0.12"/>
		<stop  offset="1" style="stop-color:#7F8080;stop-opacity:0.1"/>
	</linearGradient>
	<path class="st28" d="M161.7,459.4c-0.6,0.3-1.1,0.7-1.6,1.1c-0.1,0.1-0.2,0.2-0.3,0.2c0,0.1,0.1,0.2,0.1,0.3
		c0-0.1,0.1-0.2,0.1-0.2l0.1-0.1c0,0,0-0.1,0.1-0.1c0.1-0.1,0.1-0.2,0.2-0.3l1.6-1.1C161.8,459.3,161.7,459.3,161.7,459.4z
		 M161.7,459.4c-0.6,0.3-1.1,0.7-1.6,1.1c-0.1,0.1-0.2,0.2-0.3,0.2c0,0.1,0.1,0.2,0.1,0.3c0-0.1,0.1-0.2,0.1-0.2l0.1-0.1
		c0,0,0-0.1,0.1-0.1c0.1-0.1,0.1-0.2,0.2-0.3l1.6-1.1C161.8,459.3,161.7,459.3,161.7,459.4z M212.3,498.4c0.5-1.4-5.2-3.3-7.1-3.9
		v-0.1h-0.1l-0.5-0.2c0,0-0.9-0.6-1.9-1.4l-0.1-0.2l-0.2,0.1c-0.5-0.4-1.1-0.7-1.6-1.1h0.1v-0.3c-0.1,0-0.2,0.1-0.3,0.1v-0.1
		c-0.1,0-0.1,0-0.2,0.1c-0.5-0.3-1-0.6-1.3-0.8c-0.3-0.2-0.9-0.6-1.5-1.1l0,0c-0.6-0.5-1.4-1.1-2.2-1.7c0-0.1,0.1-0.2,0.1-0.2
		l0.1-0.3l-0.3,0.2l0,0l0.1-0.2l-0.3,0.2H195l-0.8-0.6l0,0l0,0c0,0,0,0,0.1,0l0.3-0.2l0.4-0.2l0.4-0.2h0.1l1.2-0.7
		c2.7-1.5,4.9-3.6,6.6-6.2c2.2-3.5-0.2-6.7-1.8-8.6v-0.1c0.1,0,0.2-0.1,0.3-0.1l0,0c0.7-0.3,1.2-0.9,1.2-1.7c0-0.2,0-0.5-0.1-0.7
		c-0.3-0.8-0.9-3.1-0.1-4c0.2-0.2,0.5-0.3,0.8-0.3c1.5-0.1,3.7-0.3,5-0.7c0.3-0.1,0.5-0.2,0.7-0.4c0.2-0.1,0.3-0.3,0.3-0.6
		c0-0.8-0.3-2-1.1-2.6c0,0-0.1-0.1-0.2-0.1l0,0c-0.4-0.3-1-0.4-2-0.4c-1.8,0-3.6-0.2-5.3-0.6l-0.1,0.1l-0.2-0.2l-0.2-0.2l-3.7-3.6
		l-0.8,0.8l-0.4-0.4l-0.8-0.8h-0.1l-1.5-1.4c-0.3-2.9-0.9-5.7-1.9-7.5c-0.4-0.8-0.9-1.4-1.6-1.9l-1.8-1.7l-0.1-0.1l0.1-0.1l0,0
		l0.1-0.1c0.1-0.1,0.2-0.3,0.3-0.4c0.3-0.7,0.2-1.6-0.4-2.1l-0.1-0.1c-0.7-0.7-1.8-0.7-2.6-0.1l-0.1,0.1l0,0c0,0,0,0.1-0.1,0.1
		l-0.5-0.5c-0.8-0.8-2-0.8-2.8,0l-2.6,2.6c-0.2-0.7-0.5-1.4-0.8-2c-0.7-1.5-3.2-2.8-5.7-3.7l0,0c-1.2-0.4-2.4-0.8-3.3-1.1l0,0
		c-0.6-0.2-1.1-0.3-1.4-0.4l0,0h-0.1l0,0c-0.3-0.1-0.4-0.1-0.5-0.1l0.1-0.2l0.1-0.1l0.2-0.2l0.1-0.1c0.2,0.1,0.3,0.2,0.5,0.3l0,0
		c5.2,3,11.9,1.6,15.4-3.3c0.1-0.1,0.1-0.2,0.2-0.3c0-0.1,0.1-0.1,0.1-0.2c0,0,0-0.1,0.1-0.1c0-0.1,0.1-0.1,0.1-0.2h0.2
		c0.8-0.1,1.7-0.3,2.1-1c0.1-0.1,0.1-0.2,0.1-0.2l0,0c0-0.1,0.1-0.1,0.1-0.2l0,0c0-0.1,0.1-0.2,0.1-0.2l0,0c0.1-0.3,0.1-0.7,0.2-1
		c0-0.1,0-0.2,0-0.3l0,0c0-0.1,0-0.2,0-0.2l0,0c0.2,0.2,0.5,0.4,0.7,0.7c0,0,0,0,0.1,0.1v-0.1l0,0v-0.1c0-1,2-1.2,2.6-1.8
		c0.2-0.1,0.2-0.4,0.2-0.6c0.1,0,0-0.6-0.1-1c0-0.2-0.1-0.4,0-0.4h0.1c0.3-0.2,0.2-0.5,0.1-0.8c0-0.1,0-0.2,0.1-0.3
		c0-0.1,0.1-0.2,0.2-0.2c0.4-0.4-0.6-0.6-0.1-0.8c-0.2-0.7-0.4-1.3-0.7-2c-0.1-0.4-0.3-0.7-0.4-1.1c-0.1-0.2-0.2-0.4-0.4-0.5
		c-0.4-1.5-1.3-2.8-2.6-3.7c-0.8-0.6-1.6-1-2.4-1.5c-1.9-1.4-2.9-3.7-4.4-5.5c-0.7-0.9-1.7-1.6-2.7-2.1s-2.2-0.6-3.2-0.2
		c-0.1,0-0.1,0.1-0.2,0.1c-1.5,0.7-2.3,2.5-3.7,3.5c-1.9,1.4-4.6,1-7,0.7c-2.5-0.3-5-0.2-7.4,0.1c-0.4,0-0.7,0.1-1.1,0.4
		c-0.3,0.3-0.4,0.7-0.4,1.1c0,0.1,0,0.3,0,0.4v0.1c0,1.7,0.7,3.3,0.8,5c0,0.2,0,0.3,0,0.5c-0.2,2.1-1.7,3.8-3.5,4.9
		c-1.6,0.9-3.6,1.9-3.5,3.7v0.1c0,0.1,0,0.1,0,0.2c0,0.3,0.1,0.6,0.2,0.8c-1.8,0-3.1-0.1-3.1-0.1c-1.8-0.2-3.6,0-5.3,0.7
		c-1.6,0.7-3,1.9-4,3.4c-0.5,0.7-0.9,1.5-1.3,2.4c0,0-1.9,9-3.8,11.3c-1.9,2.4-2.1,5.7-2.1,5.7c-0.3,1-0.6,2-0.9,2.9
		c-0.3,0.9-0.7,1.7-1.1,2c-1,0.9-0.5,2.3-0.5,2.3s-1.2,1.2-1.1,1.9c0.1,0.7-0.6,2.4-0.6,2.4s-0.7,1.7-0.4,2.6
		c0.2,0.5-0.3,1.8-0.8,2.7h-0.4c-0.5,1-0.9,2.1-1.2,3.2c-0.2,0.6-0.3,1.1-0.3,1.7c0.1,1.6-1.1,4.5-1.1,4.5c-0.5,1.6-0.8,3.2-0.8,4.9
		v0.1c-0.1,3.2,0.8,7.1,4.4,9.9c1.4,1,2.9,1.8,4.6,2.2c0.5,0.2,1.1,0.3,1.6,0.4l1.3,0.3c1.9,1,3.8,1.7,5.8,2.3c1,0.3,2,0.5,3,0.6
		l0,0c1.7,0.1,3.4,0,5.1-0.5c0.2,0,0.4,0.1,0.6,0.1h0.2l0,0l0,0c3.3,0.4,5.6,0.6,6.7,0.7c0,0,0,0,0,0.1l0,0
		c-0.2,1.1-0.4,1.9-0.4,1.9l0.2,0.2c0,0.1,0,0.1,0,0.1l3,3.7c0.2,0,0.3-0.1,0.4-0.1c0.6-0.3,1.1-0.7,1.5-1.2c0.2,0,0.3,0.1,0.5,0.1
		h0.1c0.3,0,0.5-0.1,0.8-0.1c0,0,0.5-0.4,1.2-0.9l0.1,0.1l0,0l0.5-0.3l0,0l0.4-0.3l1-0.7l0,0l0.1-0.1l0.3-0.1
		c0.1-0.1,0.3-0.1,0.4-0.2c0.2-0.1,0.5-0.2,0.7-0.2c0.5,0,1.3-0.4,2.1-0.9l0.1,0.1c0.1-0.1,0.2-0.2,0.3-0.3l0.2-0.1l0,0
		c0.1-0.1,0.3-0.2,0.4-0.2c0.7-0.4,1.2-0.8,1.2-0.8s8.4-0.9,11.6-1.6v0.1c0,0,0,0.1,0,0.2c-0.3,0-0.6,0-0.8,0l0,0
		c-0.2,0-0.5,0-0.7,0s-0.4,0.1-0.6,0.2c-0.7,0.5,0.4,1.9,0.4,1.9l0,0c1,0.3,20.3,6.5,22.2,6.7c0.8,0.1,3,0,5.4-0.3l0,0
		c3-0.4,6.3-1,7.7-1.8c0.2-0.1,0.4-0.2,0.5-0.4c0,0,0,0,0-0.1l0,0C214.1,499.9,213.1,499,212.3,498.4z M184.6,458l-0.5,0.5l-0.6-1.3
		l0,0l-0.3-0.6l1.2,1.1L184.6,458z M157.1,478c-0.2,0-0.4,0-0.6,0c0.2-0.9,0.3-1.5,0.3-1.5s0.9-4.1,1.4-7.6c0.3-1.9,0.5-3.7,0.4-4.5
		s0-1.5,0.2-2.3c0.1-0.3,0.2-0.5,0.3-0.8c0.1-0.1,0.1-0.2,0.2-0.4l0.4-0.3c0,0,0,0.1,0.1,0.1c0,0.1,0.1,0.2,0.1,0.3v0.1l0,0
		c0.9,2,2.9,4.8,4.7,7.2c2.2,2.9,4.3,5.3,4.3,5.3l1,1.1c-2.3,0.8-4.5,1.6-4.5,1.6l-6.9,1.8C158.1,478.1,157.6,478,157.1,478z
		 M185.5,461.9l-0.1-0.2l0,0l-0.5-1.1l-0.3-0.7l0.3,0.3l0.2,0.2c0,0.1,0,0.1,0.1,0.2c0.1,0.2,0.2,0.3,0.2,0.5
		C185.5,461.4,185.6,461.6,185.5,461.9L185.5,461.9z M161.7,459.4c-0.6,0.3-1.1,0.7-1.6,1.1c-0.1,0.1-0.2,0.2-0.3,0.2
		c0,0.1,0.1,0.2,0.1,0.3c0-0.1,0.1-0.2,0.1-0.2l0.1-0.1c0,0,0-0.1,0.1-0.1c0.1-0.1,0.1-0.2,0.2-0.3l1.6-1.1
		C161.8,459.3,161.7,459.3,161.7,459.4L161.7,459.4z M161.7,459.4c-0.6,0.3-1.1,0.7-1.6,1.1c-0.1,0.1-0.2,0.2-0.3,0.2
		c0,0.1,0.1,0.2,0.1,0.3c0-0.1,0.1-0.2,0.1-0.2l0.1-0.1c0,0,0-0.1,0.1-0.1c0.1-0.1,0.1-0.2,0.2-0.3l1.6-1.1
		C161.8,459.3,161.7,459.3,161.7,459.4L161.7,459.4z"/>
	<path class="st29" d="M210.6,497.9c0,0,3.4,1.5,2,3.2c-1.4,1.6-11.4,2.7-13.4,2.5c-1.9-0.3-21.7-6.7-21.7-6.7s-1.5-1.9,0.2-2.1
		c1.6-0.2,8.6,0.7,8.6,0.7l9.4,0.5L210.6,497.9z"/>
	<polygon class="st30" points="177.7,463.7 182.1,473.5 188,467.7 183.7,460.7 	"/>
	<path class="st30" d="M172.1,429.6c-1.6,1.2-3,2.6-4.4,4.1l-0.2,0.3l0,0c-0.8,0.9-1.4,1.8-2,2.8c-0.5,0.7-0.8,1.5-1.2,2.3
		c-0.9,2.4-0.5,3.7-0.5,3.7c-2.6-2.2-5.1-4.5-7.4-7c-3.8-4-6.9-8.4-3.2-9.1c4.5-0.8,8.3-3.6,10.4-5.5c0.6-0.6,1.2-1.1,1.8-1.8
		C165.3,419.4,181.9,421.7,172.1,429.6z"/>
	<path class="st31" d="M155.9,479.3l9.9-2.6c0,0,9-3.4,9.5-3.5s18.8-4.8,18.8-4.8l-8.7,19.2l-20.5,7l-12.2-1.2L155.9,479.3z"/>
	<path class="st21" d="M157.6,430.8c-0.3-1.5-0.8-4.8-0.2-5.8c0,0-0.8-0.1-3.8,0.5c-3,0.5-7.8,0.3-7.8,0.3s-7.2-1.4-10.3,6.5
		c0,0-1.8,8.9-3.7,11.3s-2.1,5.7-2.1,5.7s-1,4-2,4.9c-1,0.9-0.5,2.3-0.5,2.3s-1.2,1.2-1.1,1.9s-0.6,2.4-0.6,2.4s-0.7,1.7-0.4,2.5
		s-1.4,3.7-1.4,3.7l30.8,6.5l8.2-25.7l0.2-10.7c0,0-4.5-0.4-5.1-4.8C157.7,431.7,157.6,431.3,157.6,430.8z"/>
	<path class="st32" d="M132.1,456.9l-1.1,2c0,0,6.5,1.9,8.9,1.3s10-5.8,10-5.8L132.1,456.9z"/>
	<path class="st14" d="M132.1,456.9l-1.1,2c0,0,6.5,1.9,8.9,1.3s10-5.8,10-5.8L132.1,456.9z"/>
	<path class="st33" d="M137.1,467.6c0,0-6.3-1.3-7.3-1.3s-5.9-0.5-5.9-0.5s-1.5,3.3-1.5,4.9s-1.1,4.5-1.1,4.5s-4.8,14.3,9.6,17.4
		s23,3.5,23,3.5s4.7-13.4,5.6-15.2s0.6-3.1-3.6-2.7C151.7,478.6,137.1,467.6,137.1,467.6z"/>
	<path class="st21" d="M186.8,465.2h-0.3c-0.4,0-1,0.1-1.8,0.1c-1.2,0.1-2.8,0.3-4.1,0.5c-0.7,0.1-1.3,0.2-1.8,0.3
		c-0.6,0.1-1,0.3-1,0.5c0,0.4-3.6-6.9-7.1-14.2l-0.3-0.7c-0.1-0.2-0.2-0.5-0.3-0.7l-0.6-1.2c-0.9-1.8-1.7-3.6-2.5-5.1
		c-0.1-0.3-0.3-0.6-0.4-0.9l-2.3-4.7c-0.3-0.6-0.5-1-0.5-1s0.6-0.7,1.3-1.5c0.7-0.9,1.7-1.9,2.3-2.6l0,0l0,0
		c0.6,0.1,9.4,2.2,10.8,5.3c0.4,1,0.8,2,1.1,3.1c0.1,0.4,0.2,0.7,0.3,1.1c0.5,1.6,0.9,3.4,1.4,5.2c0.1,0.3,0.2,0.7,0.3,1
		c1,3.9,1.7,7.2,1.7,7.2l2.4,5.3L186.8,465.2z"/>
	<path class="st30" d="M193.2,464.8c0,0-2,6.9-2.9,9.6c-0.1,0.4-0.2,0.7-0.4,1c-1.1,0.9-2.3,1.4-3.7,1.7c-0.3,0-0.5,0.1-0.8,0
		c-0.4,0-0.8-0.1-1.2-0.3c-2.2-1.1-3.7-3.9-3.7-3.9l0.7-1.3l1.1-2l2.3-4.2l0.2-0.4c0.2-0.5,0.3-1,0.4-1.6c0.1-0.4,0.1-0.8,0.1-1.2
		c0-0.5-0.1-0.9-0.3-1.3c-0.8-1.1-0.9-20.1,4-17.4C194.1,446.2,193.2,464.8,193.2,464.8z"/>
	<path class="st30" d="M194,468.7l0.3-0.2c0,0,4.9-0.1,5.9,1.4s5.2,5.3,2.6,9.6c-1.6,2.6-3.8,4.7-6.4,6.2c0,0-14,7.9-16.6,8.7
		s-11.9,1.7-11.9,1.7s-2.9,2.1-4.1,2.2c-1.2,0.1-4.6,2.6-4.6,2.6s-3.7,1.2-1-3.8c2.8-5,3.1-6.1,3.1-6.1s2.7,1.5,4.2,0
		s10.6-7.2,10.6-7.2s5.9-4.7,7-5.3c1.2-0.6,8.5-4.8,8.5-4.8l0,0C191.7,471.7,192.5,469.9,194,468.7z"/>
	<path class="st29" d="M153,498.5l2.9,3.7c0,0,2.7-0.2,4.8-7.2s-0.6-7.7-0.6-7.7s-3.9,2.2-5,4C153.9,493,153,498.5,153,498.5z"/>
	<path class="st34" d="M152.9,498.1l2.9,3.5c0,0,2.5-0.2,4.4-6.8s-0.6-7.3-0.6-7.3s-3.7,2.1-4.8,3.8
		C153.7,492.9,152.9,498.1,152.9,498.1z"/>
	<path class="st35" d="M160.5,500l-0.1-0.2l0,0c0.5-0.3,1.7-5.3,2.3-8.4l0.3,0.1c-0.2,1.1-1.3,6.2-2.1,8l1.3-0.9
		c0.2-0.4,2.4-4.7,1.2-6.9l-0.1-0.2l1.5-0.2v0.1c0.1,0.2,2.7,4.5,1.1,6l-0.2-0.2c1.3-1.3-0.7-5-1.1-5.6l-0.9,0.1
		c1.1,2.4-1.2,6.8-1.3,7l0,0L160.5,500L160.5,500z"/>
	<path class="st14" d="M150.3,434.2c0.3,0.4,0.5,3.9,1.6,4C152.9,438.3,150.3,434.2,150.3,434.2z"/>
	<path class="st14" d="M144.3,427.4c0,0,2.9,0.3,3.1,3C147.7,433,144.3,427.4,144.3,427.4z"/>
	<path class="st32" d="M128.7,459.9c0,0,1.2,3.5,3.7,4.2L128.7,459.9z"/>
	<path class="st32" d="M132.8,460.7c0,0-0.3,2.7,1.6,3.4S132.8,460.7,132.8,460.7z"/>
	<path class="st14" d="M131.4,476.5c0,0-5.7,2.8-5.6,3.7S131.4,476.5,131.4,476.5z"/>
	<path class="st14" d="M124.5,476.2c0,0,2.9-3.1,4.9-2.8L124.5,476.2z"/>
	<path class="st14" d="M179.8,453.2c0,0-0.8,5.7,0.4,6.1C181.4,459.7,179.8,453.2,179.8,453.2z"/>
	<path class="st36" d="M131.6,481.8c0,0-2.3,9.8-0.2,10.7c2,1.2,4.2,2.1,6.5,2.8c6.9,2,14.2-1.2,17.2-7.7c0.3-0.6,0.5-1.3,0.7-2
		c0.5-3.5,1.5-8.8,1.5-8.8s2-9.6,1.8-12.1c-0.1-1.5,0.3-3,1.2-4.3l12.8-9.3l-3.5-9.7c0,0-9.2-13-17.4-1s-15,26-15,26
		S131.8,474.5,131.6,481.8z"/>
	<path class="st14" d="M173.1,450.8l-2.5,1.8c-0.4-0.9-0.9-1.8-1.3-2.6c-2.2-4.6-4.3-8.9-5.1-10.7c-0.9,2.4-0.5,3.7-0.5,3.7
		c-2.6-2.2-5.1-4.5-7.4-7c3.2-1.9,6.4-0.9,8.8,0.7l0.3,0.2c1.6,1.2,3,2.5,4.2,4.1L173.1,450.8z"/>
	<path class="st30" d="M131.6,481.8c0,0-2.3,9.8-0.2,10.7c2,1.2,4.2,2.1,6.5,2.8c6.9,2,14.2-1.2,17.2-7.7c0.3-0.6,0.5-1.3,0.7-2
		c0.5-3.5,1.5-8.8,1.5-8.8s2-9.6,1.8-12.1c-0.1-1.5,0.3-3,1.2-4.3l12.8-9.3l-3.5-9.7c0,0-9.2-13-17.4-1s-15,26-15,26
		S131.8,474.5,131.6,481.8z"/>
	<path class="st14" d="M179.8,494.3c0.1-1.6,0.1-5.3,0.1-5.3s-0.1-2.6-2.3-5.7c-0.1-0.2-0.2-0.3-0.4-0.5c1.7-1.4,5.1-4,5.9-4.5
		c0.3-0.2,1.2-0.6,2.2-1.2c-0.4,0-0.8-0.1-1.2-0.3c-2.2-1.1-3.7-4-3.7-4l0.7-1.3l-2.5-5.5c-0.6,0.1-1,0.3-1,0.5
		c0,0.5-4.5-8.8-8.4-16.9c0.9-0.7,1.5-1.2,1.5-1.2l2.8,2.5l5.5,11.8l1,2.2c0,0,0.1,0.3,0.3,0.7c0.4,0.8,1,2.1,1.8,3.8
		c0.4,0.8,0.8,1.6,1.2,2.5c0.8,1.5,1.6,3.1,2.5,4.7c0.1,0.1,0.1,0.2,0.2,0.3c1.9,3.4,3.9,6.4,5.2,7.2c0,0,1.3,1.1,2.9,2.5
		C190.4,488.9,181.8,493.6,179.8,494.3z"/>
	<path class="st36" d="M170.3,448.6l2.8,2.5l6.5,14c0,0,7.6,17.2,11.2,19.2c0,0,6.5,5.5,7.9,6.5c1.5,0.9,5.3,3.7,5.3,3.7
		s11.4,3.3,6.3,4.9s-12,0.4-12,0.4s-7.6-1.6-9.8-2.9c0,0-1.3,0.1-2.2,0.1s-7.4-1.1-7.2-2s0.2-5.9,0.2-5.9s-0.1-2.6-2.3-5.7
		s-7.8-9.4-7.8-9.4s-9.6-11.4-9.4-14.5C160.2,456.3,170.3,448.6,170.3,448.6z"/>
	<path class="st30" d="M170.3,448.6l2.8,2.5l6.5,14c0,0,7.6,17.2,11.2,19.2c0,0,6.5,5.5,7.9,6.5c1.5,0.9,5.3,3.7,5.3,3.7
		s11.4,3.3,6.3,4.9s-12,0.4-12,0.4s-7.6-1.6-9.8-2.9c0,0-1.3,0.1-2.2,0.1s-7.4-1.1-7.2-2s0.2-5.9,0.2-5.9s-0.1-2.6-2.3-5.7
		s-7.8-9.4-7.8-9.4s-9.6-11.4-9.4-14.5C160.2,456.3,170.3,448.6,170.3,448.6z"/>
	<path class="st14" d="M197.6,500.2l-0.2-0.1c1.5-2.8,4.2-4.8,7.3-5.5l0.1,0.3C201.7,495.6,199.1,497.5,197.6,500.2z"/>
	<path class="st14" d="M192.7,498.6l-0.2-0.1c1.6-3.3,9.3-5.5,9.6-5.6l0.1,0.3C202.1,493.2,194.3,495.4,192.7,498.6z"/>
	<path class="st14" d="M196.7,499.3l-0.3-0.1c0.3-0.8,2.7-7.5,4-7.7v0.3C199.6,491.9,197.8,496.4,196.7,499.3z"/>
	<path class="st35" d="M197.4,500.2l-0.2-0.1c1.5-2.8,4.2-4.8,7.3-5.5l0.1,0.3C201.4,495.6,198.8,497.5,197.4,500.2z"/>
	<path class="st35" d="M192.4,498.6l-0.2-0.1c1.6-3.3,9.3-5.5,9.6-5.6l0.1,0.3C201.8,493.2,194,495.4,192.4,498.6z"/>
	<path class="st35" d="M196.4,499.3l-0.3-0.1c0.3-0.8,2.7-7.5,4-7.7v0.3C199.4,491.9,197.5,496.4,196.4,499.3z"/>
	<path class="st14" d="M191.7,498.1c-0.2-1.1,2.5-8.5,3.2-10.2c-4.2,2-15.3,4.2-15.5,4.2l-0.1-0.3c0.1,0,11.8-2.4,15.7-4.3l0.3-0.2
		l-0.1,0.3c-1,2.6-3.4,9.4-3.3,10.4L191.7,498.1z"/>
	<path class="st35" d="M191.5,498.1c-0.2-1.1,2.5-8.5,3.2-10.2c-4.2,2-15.3,4.2-15.5,4.2l-0.1-0.3c0.1,0,11.8-2.4,15.7-4.3l0.3-0.2
		l-0.1,0.3c-1,2.6-3.4,9.4-3.3,10.4L191.5,498.1z"/>
	<path class="st14" d="M181.4,449.7c-4.4,0.9-10.3,1.1-10.3,1.1l-0.7,0.9l-0.6,0.7c0,0-5.6,6.9-7.6,7.4s-7.8,7.2-7.8,7.2
		s-4.8,3.2-9,5.7s-7.2-3.5-7.2-3.5l-1.5-13.8l9.3-1.8l0.5,4c0,0,6.1-2.5,7-2.7s11.3-9.2,12.1-9.4c0.5-0.2,1-0.4,1.4-0.7
		c1-0.6,2.2-1.4,2.2-1.4s5.7-0.6,10.6,0.2c0.5,1.6,0.9,3.4,1.4,5.2C181.2,449,181.3,449.4,181.4,449.7z"/>
	<path class="st14" d="M181.1,448.7c-4.4,0.9-10.1,1-10.1,1l-1.1,1.3l-0.3,0.3c0,0-5.6,6.9-7.6,7.4s-7.8,7.2-7.8,7.2s-4.8,3.2-9,5.7
		s-7.2-3.5-7.2-3.5l-1.5-13.8l9.3-1.8l0.5,4c0,0,6.1-2.5,7-2.7s11.3-9.2,12.1-9.4c0.4-0.1,0.7-0.3,1-0.5l0.2-0.1
		c1.8-1,3.8-1.6,5.9-1.7c2.3-0.1,4.5,0.1,6.8,0.4C179.9,444.2,180.5,446.5,181.1,448.7z"/>
	<polygon class="st14" points="191.5,496.5 193.9,497.8 192.8,499.4 190.8,498.5 	"/>
	<polygon class="st37" points="191.5,496.2 193.9,497.5 192.8,499.1 190.8,498.2 	"/>
	<polygon class="st14" points="196.3,498.3 198.9,499 197.9,500.8 195.5,499.8 	"/>
	<polygon class="st37" points="196.3,498 198.9,498.7 197.9,500.5 195.5,499.5 	"/>
	<path class="st14" d="M145.5,458.5c0,0-4.6,2.8-4.3,4.8L145.5,458.5z"/>
	
		<rect x="181.4" y="450.6" transform="matrix(0.7018 -0.7124 0.7124 0.7018 -267.7105 267.5381)" class="st14" width="8.5" height="5.9"/>
	
		<rect x="181.9" y="451" transform="matrix(0.7018 -0.7124 0.7124 0.7018 -267.8633 267.9435)" class="st38" width="8.5" height="5.9"/>
	
		<rect x="183.4" y="454.8" transform="matrix(0.7018 -0.7124 0.7124 0.7018 -268.4857 269.5352)" class="st14" width="8.5" height="1.4"/>
	
		<rect x="184.4" y="454.4" transform="matrix(0.7018 -0.7124 0.7124 0.7018 -269.4459 271.7681)" class="st38" width="10.9" height="6.7"/>
	
		<rect x="186.3" y="459" transform="matrix(0.7018 -0.7124 0.7124 0.7018 -270.2343 273.7003)" class="st14" width="10.9" height="1.3"/>
	
		<rect x="187.2" y="458.7" transform="matrix(0.7018 -0.7124 0.7124 0.7018 -271.2096 275.9284)" class="st38" width="13.5" height="6.5"/>
	<path class="st14" d="M193.6,476.8c-0.4,0.2-1.1-0.1-1.3-0.3l0,0c-1.4-1.9-1.5-8-1.5-8l0.1-0.1l-0.4-0.4l9.5-9.6l0.4,0.4l0.1-0.1
		c1.8,0.6,3.7,0.9,5.6,1c1,0,1.4-0.2,1.8,0.1c0.4,0.7,0.6,1.4,0.6,2.2c0,1.3-3.7,1.5-5.9,1.7c-1.8,0.1-0.9,3.3-0.6,4.3
		c0.1,0.2,0.1,0.5,0.1,0.7c-0.2,2-2.5,2.2-4.4,1.7c-2.1-0.5-3,2.2-3,2.2S196.1,475.1,193.6,476.8z"/>
	<path class="st38" d="M194,477.2c-0.5,0.4-1.3-0.1-1.7-0.6l0,0c-1.4-1.9-1.5-8-1.5-8l9.7-9.8c1.8,0.6,3.7,0.9,5.6,1
		c1,0,1.4-0.2,1.8,0.1c0.8,0.5,1,1.7,1,2.5c0,1.3-3.7,1.5-5.9,1.7c-1.8,0.1-0.9,3.3-0.6,4.3c0.1,0.2,0.1,0.5,0.1,0.7
		c-0.2,2-2.5,2.2-4.4,1.7c-2.1-0.5-3,2.2-3,2.2S196.5,475.4,194,477.2z"/>
	<path class="st14" d="M194,477.2c-0.5,0.4-1.3-0.1-1.7-0.6l0,0c-1.4-1.9-1.5-8-1.5-8l9.7-9.8c1.8,0.6,3.7,0.9,5.6,1
		c1,0,1.4-0.2,1.8,0.1c0.8,0.5,1,1.7,1,2.5c0,1.3-3.7,1.5-5.9,1.7c-1.8,0.1-0.9,3.3-0.6,4.3c0.1,0.2,0.1,0.5,0.1,0.7
		c-0.2,2-2.5,2.2-4.4,1.7c-2.1-0.5-3,2.2-3,2.2S196.5,475.4,194,477.2z"/>
	<path class="st38" d="M193.4,476.6c-0.5,0.4-0.9,0.2-1.3-0.2l0,0c-1.2-1.7-1.3-7.8-1.3-7.8l9.7-9.8c1.7,0.5,3.5,0.7,5.2,0.6
		c1,0,1.6,0.1,2,0.4c0.7,0.5,0.6,1.3,0.6,2c-0.1,1.2-3.6,1.7-5.7,1.9c-1.7,0.2-1.1,3.1-0.8,4.1c0.1,0.2,0.1,0.5,0.1,0.7
		c-0.3,1.9-2.5,2.2-4.3,1.8c-1.9-0.4-3,2.2-3,2.2S195.8,474.8,193.4,476.6z"/>
	<path class="st38" d="M187.6,441.8L187.6,441.8c-0.7,0.7-1.9,0.7-2.6,0l-0.1-0.1c-0.7-0.7-0.8-1.9,0-2.7l0,0l0,0l0.1-0.1
		c0.7-0.6,1.8-0.6,2.5,0.1l0.1,0.1c0.7,0.7,0.7,1.8,0.1,2.5C187.7,441.7,187.7,441.7,187.6,441.8z"/>
	<path class="st14" d="M187.6,441.8L187.6,441.8c-0.7,0.7-1.9,0.7-2.6,0l-0.1-0.1c-0.7-0.7-0.8-1.9,0-2.7l0,0l0,0l0.1-0.1l2.7,2.7
		C187.7,441.7,187.7,441.7,187.6,441.8z"/>
	
		<rect x="180.1" y="451.7" transform="matrix(0.7018 -0.7124 0.7124 0.7018 -267.1716 266.2149)" class="st14" width="8.5" height="1.1"/>
	<path class="st38" d="M185.1,439.5l4,3.9c1.2,1.2,1.2,3.2,0,4.4l0,0l-8.9,9l0,0l-8.4-8.3l0,0l8.9-9
		C181.9,438.3,183.9,438.2,185.1,439.5L185.1,439.5z"/>
	<path class="st14" d="M172.1,429.6c-1.6,1.2-3,2.6-4.4,4.1c-3-2.1-4.7-5.5-4.7-9.2c0-1.1,0.2-2.3,0.5-3.3c0.6-0.6,1.2-1.1,1.8-1.8
		C165.2,419.4,181.9,421.7,172.1,429.6z"/>
	<path class="st30" d="M185.5,423.9c0,0.1,0,0.2,0,0.3c0,0.7-0.1,1.3-0.2,2c0,0.2-0.1,0.4-0.1,0.6l0,0c-1.6,6-7.7,9.6-13.7,8.1
		c-6-1.6-9.6-7.7-8.1-13.7c0.2-0.7,0.4-1.4,0.7-2c0.1-0.3,0.3-0.6,0.5-0.9c0.6-0.9,1.2-1.8,2-2.5l0,0c4.5-4.3,11.7-4,15.9,0.5
		C184.4,418.3,185.5,421.1,185.5,423.9z"/>
	<path class="st30" d="M171.1,450.3l-1.1,1.3l-0.3,0.3c0,0-0.6,0.7-1.4,1.7c-1.8,2.1-4.8,5.4-6.2,5.7c-2,0.5-7.8,7.2-7.8,7.2
		s-4.8,3.2-9,5.7s-7.2-3.5-7.2-3.5l-1.5-13.8l9.3-1.8l0.5,4c0,0,6.1-2.5,7-2.7c0.7-0.2,8.2-6.6,11.1-8.7c0.3-0.3,0.7-0.5,1-0.7
		c0.4-0.2,0.9-0.4,1.3-0.6l0,0c1.8-1,3.8-1.6,5.8-1.7c4.2-0.1,11,0.3,13.3,3C189.3,449.7,171.1,450.3,171.1,450.3z"/>
	<path class="st14" d="M141.9,432.1c-0.6,0.1-1.2,0.1-1.9,0.1c-1.6,0-5,1.1-5.9,9.8c-1.3,11.6-3.1,17.4-3.1,17.4s6.8-2.4,10.7-1.7
		c3.9,0.6,9.9-2,9.9-2s-0.3-9.5-0.9-11.4C150.1,442.6,148.1,431.1,141.9,432.1z"/>
	<path class="st21" d="M141.9,431.5c-0.6,0.1-1.2,0.1-1.9,0.1c-1.6,0-5,1.1-5.9,9.8c-1.3,11.6-3.1,17.4-3.1,17.4s6.8-2.4,10.7-1.7
		c3.9,0.6,9.9-2,9.9-2s-0.3-9.5-0.9-11.4C150.1,442,148.1,430.6,141.9,431.5z"/>
	<path class="st14" d="M147.3,445.9c0,0-3.2,2.1-1.8,2.5C146.9,448.8,147.9,448.2,147.3,445.9z"/>
	<path class="st14" d="M147,449.6c0,0-8.7,2.7-5.7,3.9C144.4,454.7,147,449.6,147,449.6z"/>
	<path class="st14" d="M179.9,430l3.9-0.4c1-0.1,2-0.2,2.6-1s0.4-1.9,0.7-2.7c0.2-0.6,0.7-1.1,1.1-1.6c2.3-3.1,1.6-8-1.5-10.3
		c-0.8-0.6-1.6-1-2.4-1.5c-1.8-1.4-2.8-3.6-4.3-5.5s-4-3.3-6.1-2.2c-1.5,0.7-2.2,2.5-3.6,3.5c-1.9,1.4-4.5,1-6.8,0.7
		c-2.4-0.2-4.9-0.2-7.3,0.1c-0.4,0-0.7,0.1-1,0.3c-0.3,0.3-0.4,0.7-0.4,1.1c-0.1,2,0.9,4,0.7,6c-0.2,2.1-1.7,3.8-3.5,4.9
		c-1.5,0.9-3.5,1.9-3.5,3.7c0.1,0.6,0.3,1.2,0.6,1.8c2.5,5.1,2.5,11.1,0.1,16.3c-0.3,0.7-0.8,1.5-1.6,1.6c2.1,0.6,4.4-0.4,5.4-2.4
		c0.8-1.7,0.7-4,2.2-5.2c1-0.8,2.5-0.7,3.7-1.3c1.7-0.8,2.6-2.5,3.3-4.2l2.1-4.5c0.6-1.4,1.5-3,2.9-3.7c1.5-0.7,3.4,0,5,0.1
		c2.7,0.2,5.4,0.4,4.6,3.9C178.8,426.5,179.6,428.7,179.9,430z"/>
	<path class="st39" d="M188.1,423.9c-0.4,0.5-0.9,1-1.1,1.6c-0.1,0.3-0.2,0.7-0.2,1c-0.1,0.6-0.1,1.2-0.5,1.7
		c-0.6,0.8-1.6,0.9-2.6,1c-1.3,0.1-2.6,0.2-3.9,0.4c-0.2-1.3-1-3.5-2.8-2.6c0.8-3.5-2-3.7-4.6-3.9c-1.6-0.1-3.5-0.8-5-0.1
		c-1.4,0.7-2.3,2.4-2.9,3.7l-2.1,4.5c-0.8,1.6-1.7,3.4-3.3,4.2c-1.2,0.6-2.7,0.5-3.7,1.3c-1.5,1.2-1.3,3.5-2.2,5.2
		c-1,2-3.3,2.9-5.4,2.4c0.8-0.1,1.3-0.9,1.6-1.6c2.4-5.1,2.4-11.1-0.1-16.3c-0.3-0.5-0.5-1.1-0.6-1.8c-0.1-1.8,1.9-2.8,3.5-3.7
		c1.8-1.1,3.3-2.8,3.5-4.9c0.2-2-0.8-4-0.7-6c0-0.4,0.1-0.8,0.4-1.1c0.3-0.2,0.7-0.3,1-0.3c2.4-0.3,4.9-0.3,7.3-0.1
		c2.4,0.2,4.9,0.7,6.8-0.7c1.3-1,2.1-2.7,3.6-3.5c2.1-1,4.6,0.4,6.1,2.2s2.4,4,4.3,5.5c0.7,0.6,1.6,1,2.4,1.5c1.3,1,2.3,2.5,2.6,4.1
		l0,0C189.8,419.9,189.4,422.1,188.1,423.9z"/>
	<g class="st18">
		<path class="st19" d="M155.8,414.3c0.2-1.7-0.5-3.4-0.7-5.1c-0.2,0.3-0.3,0.7-0.3,1c-0.1,1.7,0.7,3.5,0.7,5.2
			C155.6,415.1,155.7,414.7,155.8,414.3z"/>
		<path class="st19" d="M151,436.5c0.8-4,0.3-8.2-1.5-11.8c-0.2-0.4-0.4-0.8-0.5-1.2c-0.3,0.4-0.4,0.9-0.4,1.3
			c0.1,0.6,0.3,1.2,0.6,1.8C150.7,429.7,151.3,433.1,151,436.5z"/>
		<path class="st19" d="M188.4,422.1c-0.4,0.5-0.9,1-1.1,1.6c-0.3,0.9-0.1,2-0.7,2.7c-0.6,0.8-1.6,0.9-2.6,1l-3.9,0.4
			c-0.2-1.3-1-3.5-2.8-2.6c0.8-3.5-2-3.7-4.6-3.9c-1.6-0.1-3.5-0.8-5-0.1c-1.4,0.7-2.3,2.4-2.9,3.7l-2.1,4.5
			c-0.8,1.6-1.7,3.4-3.3,4.2c-1.2,0.6-2.7,0.5-3.7,1.3c-1.5,1.2-1.3,3.5-2.2,5.2c-0.8,1.5-2.3,2.5-4,2.5c0,0,0,0.1-0.1,0.1
			c-0.3,0.7-0.8,1.5-1.6,1.6c2.1,0.6,4.4-0.4,5.4-2.4c0.8-1.7,0.7-4,2.2-5.2c1-0.8,2.5-0.7,3.7-1.3c1.7-0.8,2.6-2.5,3.3-4.2l2.1-4.5
			c0.6-1.4,1.5-3,2.9-3.7c1.5-0.7,3.4,0,5,0.1c2.7,0.2,5.4,0.4,4.6,3.9c1.7-0.9,2.5,1.3,2.8,2.6l3.9-0.4c1-0.1,2-0.2,2.6-1
			s0.4-1.9,0.7-2.7c0.2-0.6,0.7-1.1,1.1-1.6c0.9-1.2,1.4-2.7,1.4-4.2C189.3,420.7,188.9,421.5,188.4,422.1z"/>
	</g>
	<path class="st14" d="M188.1,423.9c-0.4,0.5-0.9,1-1.1,1.6c-0.1,0.3-0.2,0.7-0.2,1c-0.3-0.2-0.6-0.5-0.9-0.7
		c-1.3-0.9-2.8-1.5-4.2-2l-6.5-2.5c-1.5-0.6-3.1-1.2-4.6-1.8c-0.6-0.2-1.2-0.4-1.8-0.6h-0.2l0,0c-1-0.2-2.1-0.2-3.1,0.1
		c-0.3,0.1-0.5,0.1-0.8,0.2c0-0.1,0-0.2,0-0.3c0-0.2,0-0.3,0-0.5c0.8,0.2,1.5,0.1,2.3-0.2c0.6-0.3,1.1-0.7,1.5-1.1
		c1.2-1,2.5-1.8,4-2.4c2.2-0.8,4.6-0.9,7-0.8c1.2,0,2.4,0.1,3.5,0.4c1.4,0.4,2.8,1,4,1.8c0.8,0.4,1.7,0.9,2.3,1.7l0,0
		C189.8,419.9,189.4,422.1,188.1,423.9z"/>
	<path class="st40" d="M190.6,420.9c-0.5,0.2,0.5,0.4,0.1,0.8c-0.6,0.5,0.2,1.1-0.5,1.4c-0.2,0.1,0.3,1.4,0.1,1.5
		c0.4,1.1-2.7,1.1-2.7,2.4v0.3c-0.5-0.6-1.1-1.1-1.7-1.5c-1.3-0.9-2.8-1.5-4.2-2l-6.5-2.5l-4.6-1.8c-0.6-0.2-1.2-0.4-1.8-0.6h-0.2
		l0,0c-1-0.2-2.1-0.2-3.1,0.1c-0.3,0.1-0.5,0.1-0.8,0.2c0-0.1,0-0.2,0-0.3c0-0.2,0-0.3,0-0.5c0.8,0.2,1.5,0.1,2.3-0.2
		c0.6-0.3,1.1-0.7,1.5-1.1c1.2-1,2.5-1.8,4-2.4c2.2-0.8,4.6-0.9,7-0.8c1.2,0,2.4,0.1,3.5,0.4c1.4,0.4,2.7,1.1,4,1.8
		c1,0.5,2,1.1,2.5,2c0.2,0.3,0.3,0.7,0.4,1.1C190.1,419.5,190.3,420.2,190.6,420.9z"/>
	<path class="st14" d="M189.1,424.4c-2-5-11.9-4.9-12-4.9v-0.3c0.4,0,10.2-0.1,12.3,5.1L189.1,424.4z"/>
	<path class="st14" d="M189.8,422c-1.3-3.5-8.8-3.8-8.9-3.8v-0.3c0.3,0,7.7,0.3,9.1,4L189.8,422z"/>
</g>
</svg>
