<?xml version="1.0" encoding="utf-8"?>
<!-- Generator: Adobe Illustrator 24.3.0, SVG Export Plug-In . SVG Version: 6.00 Build 0)  -->
<svg version="1.1" id="圖層_1" xmlns="http://www.w3.org/2000/svg" xmlns:xlink="http://www.w3.org/1999/xlink" x="0px" y="0px"
	 viewBox="0 0 465.4 587.2" style="enable-background:new 0 0 465.4 587.2;" xml:space="preserve">
<style type="text/css">
	.st0{fill:#9EAC3A;}
	.st1{fill:#652323;}
	.st2{fill:#5A652D;}
	.st3{fill:#565EA9;}
	.st4{fill:#86584B;}
	.st5{fill:#C89C89;}
	.st6{opacity:0.1;fill:none;stroke:#040000;stroke-width:0.3361;stroke-miterlimit:10;enable-background:new    ;}
	.st7{fill:url(#SVGID_1_);}
	.st8{fill:#346251;}
	.st9{fill:#274B3D;}
	.st10{fill:#2F5A4A;}
	.st11{fill:#528171;}
	.st12{fill:#2B5E4C;}
	.st13{fill:#315F4D;}
	.st14{opacity:0.1;fill:#040000;enable-background:new    ;}
	.st15{fill:#335F4F;}
	.st16{fill:#265946;}
	.st17{fill:#315F4E;}
	.st18{opacity:0.1;}
	.st19{fill:#040000;}
	.st20{fill:url(#SVGID_2_);}
	.st21{fill:#FFFFFF;}
	.st22{fill:#949394;}
	.st23{fill:#CC8481;}
	.st24{fill:#F7F7F7;}
	.st25{fill:#333333;}
	.st26{fill:#E4ECF5;}
	.st27{fill:#4051A1;}
	.st28{fill:url(#SVGID_3_);}
	.st29{fill:#15152C;}
	.st30{fill:#F9D0C5;}
	.st31{fill:#EBC1B9;}
	.st32{fill:none;}
	.st33{fill:#4A6373;}
	.st34{fill:#040205;}
	.st35{fill:#141534;}
	.st36{fill:#F5B5B5;}
	.st37{fill:#504F7F;}
	.st38{fill:#4F4E5F;}
	.st39{fill:#554B2E;}
	.st40{fill:#FBE4EA;}
	.st41{fill:#B5811C;}
	.st42{fill:#5B401C;}
	.st43{fill:#D19534;}
	.st44{fill:#D69C22;}
	.st45{fill:#636463;}
	.st46{fill:#3A52A3;}
	.st47{fill:#0F1534;}
	.st48{fill:#CCDAEF;}
	.st49{fill:#F2F9F4;}
	.st50{opacity:5.000000e-02;fill:#040000;enable-background:new    ;}
	.st51{fill:#1F234E;}
	.st52{fill:#1C1636;}
	.st53{fill:#F2F2F2;}
	.st54{fill:#5A2C48;}
	.st55{opacity:0.2;fill:#040000;enable-background:new    ;}
	.st56{fill:#848587;}
	.st57{fill:#2C2E13;}
	.st58{fill:#A2A64A;}
	.st59{fill:#8B8B3D;}
	.st60{fill:#565C2A;}
	.st61{fill:#474D24;}
	.st62{fill:#52504A;}
	.st63{fill:#303030;}
	.st64{fill:#255277;}
	.st65{fill:#5F352B;}
	.st66{fill:#565657;}
	.st67{fill:#856F57;}
	.st68{fill:#E3617E;}
	.st69{fill:#3A2428;}
	.st70{fill:#ECA56C;}
	.st71{fill:#BBCFE4;}
	.st72{fill:#B27574;}
	.st73{fill:#F9D3D8;}
	.st74{fill:#555785;}
	.st75{fill:#C99680;}
	.st76{fill:#9C6E5E;}
	.st77{fill:#E8EAF2;}
	.st78{fill:#EDCCC6;}
	.st79{fill:#F5E1DE;}
	.st80{fill:#FDF9F9;}
	.st81{opacity:0.3;fill:#42312E;enable-background:new    ;}
	.st82{fill:#EAEAEA;}
	.st83{fill:#DEA7B1;}
	.st84{fill:#F6BDC3;}
	.st85{fill:#153159;}
	.st86{fill:#555783;}
	.st87{fill:#CC8386;}
	.st88{fill:#F0EFEF;}
	.st89{fill:#42312E;}
	.st90{opacity:0.2;fill:#FFFFFF;enable-background:new    ;}
	.st91{fill:#F0DBDB;}
</style>
<g>
	<circle class="st41" cx="205.8" cy="316.7" r="82.4"/>
	<path class="st42" d="M183.5,437.1l20.3,12.6v-84.9l-22.7-14.1c-1.9-1.2-3.3-3-3.8-5.1l0,0c2.2-0.4,4.4,0,6.3,1.2l20.3,12.6v-32.9
		c0-6.4,0.8-12.7,2.3-18.9c1.5,6.2,2.3,12.5,2.3,18.9v53.8l29.9-18.5c2.4-1.5,5.2-2.2,8-2.2c-1.2,2.5-3.1,4.7-5.5,6.2l-32.4,20.1
		v200.9h-4.7V455.1L181.1,441c-1.9-1.2-3.3-3-3.8-5.1l0,0C179.4,435.5,181.7,435.9,183.5,437.1z"/>
	<circle class="st43" cx="83.7" cy="323.7" r="82.4"/>
	<path class="st42" d="M106,444.1l-20.3,12.6v-84.9l22.7-14.1c1.9-1.2,3.3-3,3.8-5.1l0,0c-2.2-0.4-4.4,0-6.3,1.2l-20.3,12.6v-32.9
		c0-6.4-0.8-12.7-2.3-18.9c-1.5,6.2-2.3,12.5-2.3,18.9v53.8l-29.9-18.5c-2.4-1.5-5.2-2.2-8-2.2c1.2,2.5,3.1,4.7,5.5,6.2l32.4,20.1
		v194.3h4.7V462.1l22.7-14.1c1.9-1.2,3.3-3,3.8-5.1l0,0C110.1,442.5,107.9,442.9,106,444.1z"/>
	<circle class="st44" cx="143.6" cy="151.6" r="141.9"/>
	<path class="st42" d="M182,358.9L147,380.5V234.3l39.1-24.3c3.2-2,5.6-5.2,6.6-8.8l0,0h0c-3.7-0.7-7.6,0-10.8,2L147,224.8v-56.7
		c0-11-1.3-21.9-4-32.5c-2.7,10.6-4,21.6-4,32.5v92.6l-51.5-31.9c-4.1-2.5-8.9-3.9-13.7-3.8c2.1,4.4,5.4,8,9.5,10.6l55.7,34.5v317h8
		V390l39.1-24.3c3.2-2,5.6-5.2,6.6-8.8l0,0h0C189.1,356.2,185.2,356.9,182,358.9z"/>
</g>
<g>
	<path class="st30" d="M282.4,321.6l9.4,20c0.5,1.6,1.3,3.1,2.3,4.5c1.9,4.1,3.5,8.3,4.9,12.6l10.1,15.6v0l0.7,1.1l4-1.1l2.8-10.4
		l-0.2-3l0-0.4c-2.3-2.6-4.9-4.9-7.6-7c0,0-1.1,0.1-3.2-4.9c-2.1-5.1-4-6.2-4-6.2l-1.1-3.7L288.8,320c0,0-9.8-14.1-12.5-7.8
		C273.6,318.4,282.4,321.6,282.4,321.6z"/>
	<path class="st23" d="M396.4,342.7c0.5,1.1,0.9,2.2,1.1,3.3c0.1,0.3,0.1,0.6,0.2,0.9c0.7,3.3,1.1,7.5,1.3,10c0.1,1.2,0.2,2,0.2,2
		s23.7-1.6,19.6-5.6c-1.1-1.1-1.8-2.5-2.2-3.9c-0.1-0.4-0.2-0.8-0.3-1.3c-0.2-1-0.3-2-0.4-3c0-0.3,0-0.5,0-0.8c0-1.6,0-3.3,0.2-4.9
		c0,0-7.7,0-13.5,0.6C398.7,340.6,395.7,341.3,396.4,342.7z"/>
	<path class="st30" d="M321.6,463.9c0,0.3,0.1,0.7,0.3,1c1.1,1.6,7.2,34,7.2,34c-0.1,2.9,0.5,5.9,1.8,8.5c1.2,4,2.1,8.1,2.9,12.3
		c0.1,8.6,0.7,17.2,1.8,25.7c0.6,3.6,0.5,7.3-0.4,10.9c-0.2,3.2-1.3,6.3-3.1,8.9c-0.1,0.1-0.2,0.2-0.2,0.3c-0.4,0.6-0.7,0.9-0.7,0.9
		c-0.3,0.7-0.8,1.2-1.4,1.7c-0.1,0.1-0.2,0.1-0.3,0.2c-1.7,1.1-3.6,1.9-5.6,2.3c-0.1,0-0.1,0-0.2,0c-0.8,0.2-1.3,0.2-1.3,0.2
		l-0.5,2.7l5.3,1.1l10,0.7c0,0,11.8,0.9,9.1-4.4c-0.2-0.4-0.3-0.7-0.5-1.1h0c-0.1-0.3-0.2-0.5-0.3-0.8c-0.9-3.7-1.1-7.5-0.5-11.2
		l2.3-17.9c1.9-11.8,0.9-23.9-3-35.2c0.3-1.8,0.1-3.6-0.7-5.3c-0.7-4-0.7-8,0-12c0,0,0.7-10.6,1.6-15.9c0.4-2.2,0.5-4.4,0.4-6.7
		c0-1.3-0.2-2.6-0.4-3.9l-22.6-3C321.9,460,321.6,461.9,321.6,463.9z"/>
	<path class="st14" d="M321.9,573.6l5.3,1.1l10,0.7c0,0,11.8,0.9,9.1-4.4c-0.2-0.4-0.3-0.7-0.5-1.1h0c-0.1-0.3-0.2-0.5-0.3-0.8
		c-2,0.1-4.1,0.5-6,1.2c-2.2,0.6-4.6-0.2-5.9-2.1l-1.6-3.1l-0.2-0.5c-0.4,0.6-0.7,0.9-0.7,0.9c-0.4,0.8-1,1.4-1.7,1.9l0.3,0.6
		l1.6,3.3c0,0-2,0.2-4.8,0.7c-1.1,0.3-2.3-0.3-2.6-1.4c-0.1,0-0.1,0-0.2,0c-0.8,0.2-1.3,0.2-1.3,0.2L321.9,573.6z"/>
	<path class="st45" d="M317,576.1c0.4,1.8,11.5,2.3,11.5,2.3s6.1-0.6,7.9,0.8c1.7,1.4,6.8,1.1,7,1.1c0.2,0,2.9-0.1,3.9-4.9
		c1-4.7-1.4-5.5-1.5-5.5h0c-2.1,0-4.3,0.4-6.2,1.2c-2.2,0.6-4.6-0.2-5.9-2.1l-1.9-3.6c-0.4,0.6-0.7,0.9-0.7,0.9
		c-0.4,0.8-1,1.4-1.7,1.9l1.9,3.9c0,0-2,0.2-4.8,0.7c-1.2,0.3-2.5-0.5-2.8-1.7c0-0.1-0.1-0.3-0.1-0.4c0-0.1,0-0.2,0-0.3
		c0,0-1.7,0.5-3.9,1.1C317.8,572.1,316.6,574.1,317,576.1z"/>
	<path class="st30" d="M296.2,487.5c0.3,1.6,0.5,5.7,0.5,5.7c-0.2,3.9,0.3,7.8,1.5,11.6l1.2,4.7c0.3,6.9,1.4,13.8,3.3,20.5
		c0,0,2.5,13.5,3.9,19.3c0.8,3.2,0.5,6.6-0.7,9.7c-0.1,0.2-0.1,0.2-0.1,0.2c0,0.1,0,0.2-0.1,0.3c0,0.2-0.1,0.3-0.1,0.5
		c-0.3,0.8-0.7,1.6-1.3,2.2c-0.2,0.3-0.5,0.5-0.7,0.7l0,0c-1.2,1.1-2.7,2-4.2,2.6h0l0,0c-0.2,0.1-0.5,0.2-0.7,0.3
		c-0.7,0.3-1.4,0.5-2.1,0.7h0c-0.2,0-0.2,0.1-0.2,0.1l0.5,3.1l7-1.8l9.4-3l4.6-2.6c0,0,0-0.3-0.1-0.7l0-0.1c0-0.2-0.1-0.5-0.1-0.7
		c-1.5-7.9-2-15.9-1.6-24c0.2-9.6-1.2-19.2-4.3-28.3c-0.6-2-0.9-4-0.8-6.1c1.3-4.1,2.1-8.3,2.1-12.6c0,0,3.2-6.5,5.8-13.4
		c0.9-2.2,1.5-4.6,1.9-6.9c0.3-1.7,0.4-3.4,0.4-5.1c0,0-21.3-19.4-23.6-0.6c-0.1,0.6-0.2,1.2-0.2,1.8C295,482.8,296,486,296.2,487.5
		z"/>
	<path class="st14" d="M296.2,566.6l0.5,3.1l7-1.8l9.4-3l4.6-2.6c0,0,0-0.3-0.1-0.7l0-0.1c0-0.2-0.1-0.5-0.1-0.7l-0.7-0.1l-0.1,0
		c-1.3-0.1-2.7,0.1-3.9,0.5c-1.5,0.6-3.5,1.2-3.9,1c-0.7-0.3-1.5-0.4-2.2-0.4l-1-2.1l-0.1-0.3c-0.3,0.8-0.7,1.6-1.3,2.2
		c-0.2,0.3-0.5,0.5-0.8,0.8l0,0.8l0.1,1.1c-1,0.7-2.2,1.2-3.4,1.6c-0.3,0.1-0.6,0.1-0.9,0h0l0,0c-0.2,0.1-0.5,0.2-0.7,0.3
		c-0.7,0.3-1.4,0.5-2.1,0.7h0C296.3,566.6,296.2,566.6,296.2,566.6z"/>
	<path class="st45" d="M299.7,573.2c2-0.6,6.7-1.5,7.4-0.8c2.4,0.4,4.9,0.4,7.3,0c1.4,0,2.7-0.8,3.4-2c0.8-2.9,0.8-6,0.3-9l-0.5,0
		l-0.8-0.1l-0.1,0c-1.3-0.1-2.7,0.1-3.9,0.5c-1.5,0.6-3.5,1.2-3.9,1c-0.7-0.3-1.5-0.4-2.2-0.4l-1.1-2.5c-0.3,0.8-0.7,1.6-1.3,2.2
		c-0.2,0.3-0.5,0.5-0.8,0.8l0.1,1.8c-1,0.7-2.2,1.2-3.4,1.6c-0.6,0.2-1.3,0-1.6-0.5c-0.1-0.1-0.1-0.2-0.1-0.3l0,0
		c-0.9,0.4-1.8,0.7-2.8,0.9h0c-2.5-0.2-4.8,1.4-5.4,3.9C289.3,573.5,297.8,573.8,299.7,573.2z"/>
	<path class="st14" d="M321.6,463.9c0.4,0.1,0.8,0.2,1.2,0.4c1,0.3,1.9,0.5,2.9,0.6c6.6,0.6,13.2,0.6,19.8,0.1
		c0-1.3-0.2-2.6-0.4-3.9l-22.6-3C321.9,460,321.6,461.9,321.6,463.9z"/>
	<path class="st46" d="M301.9,458.4c0,0,8.3,1.3,15,2.8c2.3,0.5,4.3,1,5.9,1.5c1,0.3,1.9,0.5,2.9,0.6c6.9,0.6,13.9,0.6,20.9,0.1
		c3.7-11.9-4.5-26.9-4.5-26.9c-0.3-1.7-0.9-3.3-1.7-4.9l0-0.1l-1.2-4.2h-30.8l-0.4,1.8l-0.8,3.7l-4.8,23L301.9,458.4z"/>
	<path class="st14" d="M297.1,465.6l0.2,0.1l3.6,1.6c6.4,1.6,13.1,2.3,19.7,2.2c0.3-1.7,0.4-3.4,0.4-5.1c0,0-21.3-19.4-23.6-0.6
		C297.2,464.4,297.2,465,297.1,465.6z"/>
	<path class="st46" d="M296.5,463.8l0.8,0.3l3.6,1.6c6.5,1.6,13.2,2.3,19.9,2.2c0.5,0,0.8,0,1,0c1.5-0.1,2.8-0.9,3.6-2.2
		c0-0.2,0.2-1.4,0.3-2.4c0.1-0.8,0.3-1.5,0.3-1.5c4.1-1.8,8.1-3.9,12-6.2c3-2.1,2.3-16.7,1.7-24.1c-0.2-2.5-0.4-4.2-0.4-4.2
		l-31.2,1.8l-4.4,0.3l-2.5,0.6l-0.7,0.1c-0.6,4.8-1.5,9.5-2.7,14.2c-0.9,1.1-0.3,4.8-0.2,6.8c0,0.9,0.1,1.8,0.3,2.7
		c-0.7,1.8-1,3.8-1,5.7C297.1,460.9,296.9,462.4,296.5,463.8z"/>
	<path class="st23" d="M437.4,455.3c8.1-0.3,2.1-17.1,1.2-19.3c-0.9-2.3,1.4-7.8,1.4-7.8s2.7-16,2.7-17.1c0.1-2.2,0.4-4.3,0.9-6.5
		c0.3-2.2-0.1-4.4-1.1-6.3c-0.7-2.4-0.9-4.8-0.8-7.3v-7.5l-1.8-2.4l-4.6,4.3l-1.3,1.2l-2.2,8.4l0.8,12.1l0.4,11.8l-2.8,16.3
		C430.3,435.2,429.3,455.6,437.4,455.3z"/>
	<polygon class="st14" points="434.9,387.5 441.8,384.6 441.8,383.5 440,381.1 435.4,385.5 	"/>
	<path class="st47" d="M438.1,370.3c0.9,2.2,1.5,4.4,1.9,6.7c0.4,2.2,1,4.4,1.8,6.5l-7.7,3.2L438.1,370.3z"/>
	<path class="st23" d="M377.2,537.2l0.6,1.3c0,0,0.7,4.5,0.7,4.6c0,0.1,2,3.1,2,3.1l5,1.1l2.1-0.3c0.1-1.2,0.3-2.5,0.6-3.7
		c0.1-0.3,0.2-0.7,0.3-1c0.7-2.8,1.9-5.5,3.5-7.9c1.4-3.6,3-7,5-10.3c3-4.9,5-10.4,5.8-16.1c-0.2-3.8-0.1-7.6,0.2-11.4
		c0.2-3.6,0.5-6.7,0.5-6.7l-12.6-7.4l-1.5,2.3l0,0l-0.9,1.4c0,0,0,0.3,0,0.7c0,0,0,0.1,0,0.2c0.1,1.9,0.5,3.7,1.1,5.5
		c0,0,0.9,6.7,0,7.9c-2.2,8-3.8,16.2-4.6,24.4c0,0.2,0,0.5-0.1,0.7c-0.5,3.3-2,6.3-4.5,8.6l0,0c-0.1,0.1-0.3,0.3-0.4,0.4
		C379.2,535.6,378.3,536.4,377.2,537.2z"/>
	<path class="st14" d="M387.6,547.1l-2.1,0.3l-5-1.1c0,0-2-3-2-3.1c0-0.1-0.7-4.6-0.7-4.6l-0.6-1.3l-0.1-0.2
		c1.2-0.8,2.4-1.8,3.4-2.8l0,0c0.1-0.1,0.2-0.2,0.3-0.3c-0.4,2.5,0.8,5.1,3.1,6.3c1.8,0.9,3.4,1.7,4.4,2.2L387.6,547.1z"/>
	<path class="st48" d="M376.3,537.8l0.7,1.5c0,0,0.7,4.5,0.7,4.6c0,0.1,2,3.1,2,3.1l5,1.1l2.9-0.3c0-0.6,0.1-1.4,0.2-2.4
		c0.1-0.6,0.2-1.3,0.4-2c-1.1-0.5-2.8-1.3-5-2.4c-2.2-1.3-3.5-3.8-3.1-6.3c-0.8,0.8-1.7,1.6-2.6,2.3
		C377,537.4,376.6,537.7,376.3,537.8z"/>
	<path class="st14" d="M376.3,537.8l0.7,1.5c0,0,0.7,4.5,0.7,4.6c0,0.1,2,3.1,2,3.1l5,1.1l2.9-0.3c0-0.6,0.1-1.4,0.2-2.4
		c-0.6,0-1.2,0.1-1.8,0.2c0,0-6.8,1.5-7.1-3.9c-0.2-3.1-0.8-4.3-1.3-4.7C377,537.4,376.6,537.7,376.3,537.8z"/>
	<path class="st49" d="M376.9,537.5c0,0,1.7-0.4,2,5s7.1,3.9,7.1,3.9s3.3-0.8,3.4,0.6c-0.1,1.3-0.4,2.5-0.9,3.7c0,1.4-0.3,2.7-0.8,4
		c-0.6,0.8-0.2,3.6-0.2,3.6s-0.3,2.1-5.5,0c-3.6-1.1-6.7-3.6-8.6-6.8c-0.1-0.2,0.5-0.8-2.9-2c-3.4-1.2-13.2-9.1-12.4-12.9
		c0.1-1.3,1.1-2.4,2.3-2.7c1-0.3,2.1-0.1,3,0.4c0.9,0.5,1.9,0.9,2.8,1.3c1.3,0.5,2.7,0.9,4.1,1c1.1,0.1,2.1,0.3,3.2,0.6
		C374.5,537.6,375.7,537.7,376.9,537.5z"/>
	<path class="st23" d="M415.4,500.5c0.7,0.6,1.4,1.4,1.9,2.2c1.9,2.9,3.1,7,4.4,8.8c1.2,2.1,1.9,4.4,2.1,6.7
		c2.2,7.3,5,14.4,8.3,21.3c1.6,3.3,3,6.8,4,10.3c1.1,1.7,1.5,3.7,1.2,5.7c0,0.2-0.1,0.4-0.1,0.5c0,0.1,0,0.2,0,0.2l0,0.1l2.3,3.9
		l7.3-1l3.8-2.6c-0.3-0.5-0.6-1-0.8-1.6c-1.5-4.1-2.7-8.3-3.4-12.5c-0.9-3.7-1.5-7.5-1.9-11.3c0-2.9-0.2-5.8-0.6-8.7
		c0,0-5.7-17.5-7.5-20.4c-0.8-1.1-1.2-2.4-1.4-3.8c0-0.3,0-0.5,0-0.8l-2.5-2.5C432.6,495.1,412.2,497.9,415.4,500.5z"/>
	<path class="st14" d="M437.3,555.5c0,0,0,0.2,0,0.6v0.3l2.3,3.9l7.3-1l3.8-2.6c-0.3-0.5-0.6-1-0.8-1.6c-2.1-0.1-4.1,0.2-6,1
		c0,0-4.5,0.9-6.4-0.5C437.3,555.5,437.3,555.5,437.3,555.5z"/>
	<path class="st48" d="M439,565.9l7.4,1.8l6.8-5l-0.3-2.8c-0.5-0.3-0.9-0.7-1.2-1.1c-0.5-0.6-0.8-1.3-1-2c-0.4-2.1-6.8,0.2-6.8,0.2
		s-4.7,0.9-6.5-0.6c0.1,1.4,0,2.7-0.3,4.1c-0.2,0.6-0.6,1.2-1.1,1.6C433.9,563.3,439,565.9,439,565.9z"/>
	<path class="st14" d="M439,565.9l7.4,1.8l6.8-5l-0.3-2.8c-0.5-0.3-0.9-0.7-1.2-1.1c-0.5,0-1,0-1.5,0c-1.1,0.1-3.8,5-3.8,5
		c-6.7,0.4-8.7-1.7-9.4-3.4c-0.2,0.6-0.6,1.2-1.1,1.6C433.9,563.3,439,565.9,439,565.9z"/>
	<path class="st49" d="M446.3,564.5c0,0,2.7-4.9,3.8-5c1-0.1,1.9-0.1,2.9,0c1.1,2.7,2.4,5.3,4.1,7.7c1.1,1.2,2,2.5,2.7,4
		c0,0-7.9,7.6-15.5,6.1c-2.4,0-4.8,0.6-7,1.7c-3.5,1.8-18.2,0.4-20-2.8c-1.3-2.4-1.9-4.2-0.7-5.5c0.7-0.7,1.7-1.1,2.8-0.9
		c3.7,0.4,7.4-1.2,9.6-4.3c2.3-2.2,4.7-4.2,7.2-6.1C436.9,559.5,435.9,565.2,446.3,564.5z"/>
	<path class="st14" d="M388.5,487L388.5,487c1.4,1.7,3,3.1,4.7,4.4c1.6,0.6,3.2,1.3,4.8,2.1c0,0,2,2.6,3.6,2.8
		c0.5,0.1,0.9,0.2,1.4,0.4c0.2-3.6,0.5-6.7,0.5-6.7l-12.6-7.4l-1.5,2.3l0,0C389.1,485.8,388.7,486.6,388.5,487L388.5,487z"/>
	<path class="st48" d="M434.2,436c2.9,4.5,2.9,10.3,0,14.8c-2.6,4.8-6,9-10,12.7L407.5,498c-1.9-1.1-3.9-1.9-5.9-2.5
		c-1.6-0.1-3.6-2.8-3.6-2.8c-1.5-0.8-3.1-1.5-4.8-2.1c-1.7-1.3-3.3-2.7-4.7-4.4c0,0,1.8-4,1.4-5s1.2-3.7,1.2-3.7
		c0.5-1.3,0.8-2.7,1.1-4.1c0.4-1.3,0.9-2.5,1.7-3.6c0.8-1.2,1.4-2.6,1.7-4.1c0.6-2.5,1.4-4.8,2.5-7.1l0.7-25.1L434.2,436z"/>
	<path class="st50" d="M388.5,486.2c1.4,1.6,3,3.1,4.7,4.4c1.6,0.6,3.2,1.3,4.8,2.1c0,0,2,2.6,3.6,2.8c1.1,0.2,2.2,0.6,3.3,1.2
		c1.4,0.7,2.7,1.3,2.7,1.3l16.7-34.5c1.5-1.3,2.8-2.7,4-4.1c2.3-2.7,4.3-5.5,6-8.5c1.9-3.1,2.6-6.7,1.9-10.3c-0.3-1.6-1-3.2-1.9-4.5
		l-11.8-0.8l-23.6-1.7l-0.2,7.4l-0.5,17.7c0,0-0.4,0.9-0.9,2.1c-0.7,1.6-1.3,3.3-1.6,5.1c-0.3,1.5-0.9,2.9-1.7,4.1
		c-0.8,1.1-1.4,2.3-1.7,3.6c-0.2,1.4-0.6,2.8-1.1,4.1c0,0-1.6,2.6-1.2,3.7C390.3,482.3,388.5,486.2,388.5,486.2z"/>
	<path class="st14" d="M415.4,500.5c0.7,0.6,1.4,1.4,1.9,2.2c6.2-0.1,12.2-1.5,17.7-4.3c0-0.3,0-0.5,0-0.8l-2.5-2.5
		C432.6,495.1,412.2,497.9,415.4,500.5z"/>
	<path class="st48" d="M394.2,443.8c0,0,1.1,3.7,1.5,5.3s1.2,9.4,1.2,9.4l0.5,2.2l7.6,36l1.6,7.8c2.9,1.6,10.2-2.6,10.2-2.6
		c6.6,0.1,13.1-1.5,18.9-4.5c-0.9-2.7-1.3-5.5-1.3-8.3c0-2-0.9-3.8-2.4-5c-0.1-4.5-0.7-9.1-1.7-13.5c0,0-0.5-4.1-2.5-5.2
		c-2-1.1,0.3-2.6,0.8-3.6c0.2-0.8,0.1-1.7-0.2-2.4c-0.2-0.6-0.4-1.2-0.6-1.8c4-4.8,6.1-11,5.8-17.3c0-1.1,0-2.1-0.1-3.2l-10.9-1.9
		l-23.8-4.2l-2.4,7.5v0l-0.6,1.9L394.2,443.8z"/>
	<path class="st14" d="M396.4,342.7c0.5,1.1,0.9,2.2,1.1,3.3c0.1,0.3,0.1,0.6,0.2,0.9c2,1.3,4.3,1.8,6.7,1.5c1,0,1.6-1.9,2.5-2.1
		c0,0,1.4-5.2,1.9-0.8c2.8-0.6,5.2,1.6,7.1-0.3l0,0c0-0.3,0-0.5,0-0.8c0-1.6,0-3.3,0.2-4.9c0,0-7.7,0-13.5,0.6
		C398.7,340.6,395.7,341.3,396.4,342.7z"/>
	<path class="st23" d="M391,333.8c0,8.1,6.6,14.7,14.7,14.7c1,0,2-0.1,3-0.3h0c8-1.6,13.1-9.4,11.4-17.4c-1.6-8-9.4-13.1-17.4-11.4
		C395.9,320.8,391,326.8,391,333.8z"/>
	<path class="st14" d="M399,356.9c0.1,1.2,0.2,2,0.2,2s23.7-1.6,19.6-5.6c-1.1-1.1-1.8-2.5-2.2-3.9l-10.3,1.7c0,0-2.9,2.3-5.2,4.4
		C400.5,356.1,399.8,356.5,399,356.9z"/>
	<path class="st14" d="M395.5,441.1c1,0.1,2.1,0.1,3.1-0.2c0.4-0.1,0.9-0.3,1.3-0.6c2-1.2,8.6,0.3,8.6,0.3s18,1.2,18.8,0
		c0.5-0.7,3.6-0.6,6.2-0.4c1.1,0.1,2,0.2,2.7,0.3c-0.3-1.6-1-3.2-1.9-4.5l-11.8-0.8l-23.8-4.2l-2.4,7.5v0
		C395.8,440,395.5,441.1,395.5,441.1z"/>
	<path class="st51" d="M406.3,351.9l12.9-2.1c0.5,1,1.3,1.8,2.4,2.1c5,1.9,9.4,5,12.8,9.1l3.4,4.8c0,0,2.8,3.4,1.9,6.2
		c-0.9,4-1.6,8.1-2,12.2l-1.3,10.4c-1.2,3.5-1.8,7.2-1.7,10.8c0.3,5.7,0.2,11.5-0.4,17.2l2.6,17.2c0,0-9-1.2-9.8,0
		c-0.8,1.2-18.8,0-18.8,0s-6.6-1.5-8.6-0.3c-1.3,0.7-2.9,1-4.4,0.8c0.8-2.7,1.1-5.6,0.7-8.5c-0.6-2.8-0.8-5.7-0.7-8.6
		c-0.6-3.1-0.8-6.3-0.7-9.5c0.7-1.5-1.5-6.7-1.5-6.7l-7-36.9c0,0,0.8-6.6,4.6-8.9c3.5-1.4,6.9-3.1,10.2-5
		C403.4,354.2,406.3,351.9,406.3,351.9z"/>
	<path class="st23" d="M400.4,388.3v4.4l-4.1,11l-1.5,10.2c-1.2,3.2-2.1,6.4-2.6,9.8c-1.7,5.1-3.9,10-6.5,14.7c0,0-1.8,4.1-0.9,4.9
		c0.9,0.8,8.5,18.2-1.1,17.7c-9.6-0.5-6.6-18.8-6.6-18.8l1.3-7.9c0,0,1.9-19.8,1.9-21.3c0,0,2.4-8.5,2.6-10.3c0.3-1.9,2-11.2,2-11.2
		l1.5-6.1L400.4,388.3z"/>
	<polygon class="st14" points="405,402 419.4,410.2 423.8,417 417.9,410.9 	"/>
	<path class="st14" d="M409.3,417.8c2.9,2,6.2,3.4,9.6,4.3c3.1,0,10.2,7.3,10.2,7.3c-3.5-2.4-7.1-4.5-10.9-6.3
		C415.2,421.5,412.2,419.8,409.3,417.8z"/>
	<path class="st14" d="M426.1,420.1c0,0,6.1,5.6,4.6,6.1c-1.6,0.6-9.8-6.1-9.8-6.1H426.1z"/>
	<path class="st14" d="M398.9,400.2c0,0,4.8,6.4,3.5,6.3c-1.3-0.1-5-3.8-5-3.8L398.9,400.2z"/>
	<path class="st14" d="M398.2,406.6c0,0,5.2,5.8,5,7.3C403,415.4,398.2,406.6,398.2,406.6z"/>
	<path class="st14" d="M397,409.5c0,0,3.5,6.2,2,7.5C397.5,418.3,397,409.5,397,409.5z"/>
	<path class="st14" d="M401.4,393.6c0,0,2.6,4.4,0.7,4.7c-1.9,0.3-2.1,0-2.1,0L401.4,393.6z"/>
	<path class="st14" d="M400.7,377.6c0.6,2.7,1.5,5.3,2.6,7.8c0.4-1.3,0.8-2.6,1-3.9C403.3,380.1,402.1,378.8,400.7,377.6z"/>
	<path class="st14" d="M392.9,326.6c0.3,0.6,0.6,1.1,1,1.5c0.7,0.6,1.3,1.3,1.8,2.1c0.4,1.1,0.6,2.3,0.6,3.5
		c0.2,1.2,0.9,2.5,2.1,2.5c0.6-0.1,1.2-0.2,1.7-0.5c0.5-0.3,1.2-0.3,1.7,0.1c0.3,0.3,0.5,0.8,0.6,1.3c0.1,1,0.2,2.1,0.2,3.1
		c0,0.4,0,0.8-0.1,1.2c-0.3,1.3-0.2,2.7,0.2,3.9c0.6,0.9,1.4,1.6,2.4,2c1.1,0.5,2.2,0.8,3.4,1h0c2.2,0.3,4.5,0.4,6.8,0.2
		c0.2,0,0.4,0,0.6-0.1c0.1,0,0.2-0.1,0.3-0.2c-0.2-1.2-0.4-2.5-0.4-3.8c5.9-5.6,6.1-14.9,0.4-20.8c-5.6-5.9-14.9-6.1-20.8-0.4
		C394.5,324.1,393.6,325.3,392.9,326.6L392.9,326.6z"/>
	<path class="st52" d="M399,314.1c1.4,0.1,2.7,0.4,4,0.9c2.8,0.1,5.6-0.1,8.4-0.6c2.4,0.1,4.8,0.8,6.9,2c1.7,0.8,3.3,1.9,4.6,3.2
		c1.3,1.3,2.1,3.1,2.2,5c-0.2,1.1-0.1,2.2,0.1,3.2c0.3,0.5,0.6,1,1,1.5c0.7,1.1,0.9,2.5,0.5,3.8c-0.6,1.2-1.3,2.4-2.3,3.4
		c-1.8,2.3-2.9,5.1-4.6,7.6c-0.7,1.1-1.5,2.1-2.4,3c-0.1,0.2-0.3,0.3-0.5,0.4c-0.2,0.1-0.4,0.1-0.6,0.1c-3.4,0.3-6.9-0.1-10.2-1.2
		c-1-0.4-1.9-1-2.4-2c-0.5-1.3-0.5-2.6-0.2-3.9c0.1-1.4,0.1-2.9-0.1-4.3c0-0.5-0.2-1-0.6-1.3c-0.5-0.3-1.2-0.3-1.7-0.1
		c-0.5,0.3-1.1,0.5-1.7,0.5c-1.2,0-1.9-1.3-2.1-2.5c0-1.2-0.2-2.4-0.6-3.5c-0.5-0.8-1.1-1.4-1.8-2.1c-1.7-2.1-2.2-4.9-1.5-7.5
		C393.9,317,396.2,314.8,399,314.1z"/>
	<circle class="st30" cx="329.9" cy="342.3" r="12.8"/>
	<path class="st30" d="M336.2,347.7c0,0-0.9,12.1,1.6,14.9c2.8,2.8,5.8,5.5,8.9,8l-2,8.2l-11.2,1.3l-13.1-14l3-3.7
		c1.2-3.8,1.3-7.8,0.4-11.6C321.9,347,336.2,347.7,336.2,347.7z"/>
	<path class="st14" d="M309.1,374.3L309.1,374.3l0.7,1.1l4-1.1l2.8-10.4l-0.2-3l-0.8-1.2c0,0-4.4,0.1-4.2,4.1
		C311.2,367.4,310.4,370.9,309.1,374.3z"/>
	<path class="st14" d="M300.5,431.7c0,0,3.2,0.7,6.8,1.2c3.1,0.7,6.4,0.6,9.5-0.3c2.9-1.7,18.4-1.2,22.9-1c0.3,0,0.6,0,0.8,0
		l-1.2-4.2h-30.8l-0.4,1.8l-4.4,0.3l-2.5,0.6C300.8,431,300.5,431.7,300.5,431.7z"/>
	<path class="st53" d="M316.4,360.5c0,0-4.4,0.1-4.2,4.1c-0.2,3.7-1,7.3-2.4,10.8l1,2.3c0,0,1.4,5.6,0.3,6.9s-5.1,1.4-2.8,12.8
		c0.3,3.8,0.1,7.6-0.7,11.3c-1.2,2.8-1.2,9.4-3,12.2c-1.6,3-3,6-4.2,9.2c0,0,12.9,2.9,16.3,0.9c3.4-2,24.1-1,24.1-1s-0.1-3.5,0-3.9
		c0.2-0.9,0-1.8-0.5-2.5c-0.7-0.9-1.8-2.5-1.2-3.9c0.6-1.4-1.5-3.4-0.4-5.6c1.1-2.2,2.4-2.6,2.2-3.8c-0.1-1.4,0.3-2.7,1.2-3.8
		c0.8-1,6.1-11.5,6.1-11.5l0.9-4.9c0,0,6.9-5.1,6.8-7.4c-0.4-2.1-1.3-4-2.6-5.7l-6.6-6.5c0,0-3.7,4-7.2,2.6c-4-2.3-7.8-5-11.2-8
		c0,0-2.7-1.5-2.9-2.6c-0.2-1.1-1.9-0.1-1.9-0.1s-2.5-1.4-3-0.9c-0.8,0.4-1.7,0.7-2.7,0.9L316.4,360.5z"/>
	<path class="st30" d="M353.8,381.1l2.1,1.7c1.6,3.4,2.5,7.1,2.6,10.8c0.6,5.6,1.5,11.2,2.7,16.7l4.2,7.4c2.9,5.9,5.5,12,7.7,18.2
		c1.2,3.6,2.9,7.1,5,10.3c0,0,13.8,12.4,4.2,14.6c-9.6,2.2-9.9-9.9-9.9-9.9c-1.1-1.2-2-2.6-2.6-4.2c-0.4-1.7-12.6-23.2-12.6-23.2
		s-4.3-5.8-3.4-8.9c-2.4-5.3-4.2-10.7-5.6-16.3c0.1-2.7,0.4-5.5,0.9-8.2l-0.9-6.8L353.8,381.1z"/>
	<path class="st14" d="M325.3,408.5c3.7,2,7.6,3.8,11.6,5.4c1.9,0.3-8.2-1.1-8.2-1.1L325.3,408.5z"/>
	<path class="st14" d="M317.3,412.4c0,0,12.9,4.4,18.5,3.6C335.9,416,321.8,418.7,317.3,412.4z"/>
	<path class="st14" d="M316.6,413.9c0,0,11.6,7.3,18.4,6.1c0,0-16,3.2-18.4,1.5l7.1-2C323.7,419.5,315.8,415.3,316.6,413.9z"/>
	<path class="st14" d="M329.9,319.8c3.4-0.8,6.9-0.1,9.8,1.8c2,1.6,3.3,4,5.5,5.1c1.2,0.5,2.4,0.9,3.6,1.3c4.5,1.8,7.1,6.5,6.4,11.3
		c-0.4,2-1.3,3.8-1.7,5.7c-0.6,3.5-0.3,7.1,0.8,10.5c2.4,9.6,6.1,18.8,11,27.3c0.4,0.5,0.6,1.2,0.5,1.8c-0.1,0.4-0.3,0.8-0.7,1.2
		c-5.1,5-12,7.6-19,7.4c-2.6,0.3-5.2-0.2-7.5-1.3c-1.5-0.8-2.7-2-3.7-3.4c-2.4-3.3-3.6-7.4-3.4-11.5c0.7-3.3,0.8-6.6,0.5-9.9
		c-0.1-0.4-0.3-0.9-0.6-1.2c-0.8-0.8-2-0.6-3.1-0.7c-2.9-0.7-5-3.3-5.1-6.3c0-2.9,0.1-5.9,0.4-8.8c0-3.9-1.2-7.6-3.5-10.8
		c-1.1-1.2-2-2.7-2.5-4.3c-0.1-1.9,0.5-3.8,1.8-5.3c1.2-2.8,2.8-5.3,4.9-7.5C326,321.1,327.9,320.2,329.9,319.8z"/>
	<path class="st54" d="M330.7,319c3.4-0.8,6.9-0.1,9.8,1.8c2,1.6,3.3,4,5.5,5.1c1.2,0.5,2.4,0.9,3.6,1.3c4.5,1.8,7.1,6.5,6.4,11.3
		c-0.4,2-1.3,3.8-1.7,5.7c-0.6,3.5-0.3,7.1,0.8,10.5c2.4,9.6,6.1,18.8,11,27.3c0.4,0.5,0.6,1.2,0.5,1.8c-0.1,0.4-0.3,0.8-0.7,1.2
		c-5.1,5-12,7.6-19,7.4c-2.6,0.3-5.2-0.2-7.5-1.3c-1.5-0.8-2.7-2-3.7-3.4c-2.4-3.3-3.6-7.4-3.4-11.5c0.7-3.3,0.8-6.6,0.5-9.9
		c-0.1-0.4-0.3-0.9-0.6-1.2c-0.8-0.8-2-0.6-3.1-0.7c-2.9-0.7-5-3.3-5.1-6.3c0-2.9,0.1-5.9,0.4-8.8c0-3.9-1.2-7.6-3.5-10.8
		c-1.1-1.2-2-2.7-2.5-4.3c-0.1-1.9,0.5-3.8,1.8-5.3c1.2-2.8,2.8-5.3,4.9-7.5C326.8,320.3,328.7,319.4,330.7,319z"/>
	<path class="st14" d="M384.9,376.8c0.3,1.8,0.3,3.6,0,5.4c0.1,1.5,0,9.5,0,9.5c5.2-0.4,10.4,0,15.5,1.3l1.3-4
		c0.7-1,1.3-2.1,1.6-3.3c0.4-1.3,0.8-2.6,1-3.9c0.6-2.7,1-5.5,1.3-8.3c0.5-4.2-5.7-8.7-10.4-11.2c-4.7-2.5-8.9,8.2-8.9,8.2
		C385.3,372.5,384.8,374.6,384.9,376.8z"/>
	<path class="st51" d="M384.9,376c0.3,1.8,0.3,3.6,0,5.4c0.1,1.5,0,9.5,0,9.5c5.2-0.4,10.4,0,15.5,1.3l1.3-4c0.7-1,1.3-2.1,1.6-3.3
		c0.4-1.3,0.8-2.6,1-3.9c0.6-2.7,1-5.5,1.3-8.3c0.5-4.2-5.7-8.7-10.4-11.2c-4.7-2.5-8.9,8.2-8.9,8.2
		C385.3,371.7,384.8,373.8,384.9,376z"/>
	<path class="st14" d="M335,443c0,0-2.5,11.9-6.8,15.1L335,443z"/>
	<path class="st55" d="M393.2,319.9c0.2-0.7,0.6-1.5,1-2.1c-0.1,0.2-0.1,0.4-0.2,0.5c-0.7,2.6-0.2,5.3,1.5,7.5
		c0.7,0.6,1.3,1.3,1.8,2.1c0.4,1.1,0.6,2.3,0.6,3.5c0.2,1.2,0.9,2.5,2.1,2.5c0.6-0.1,1.2-0.2,1.7-0.5c0.6-0.3,1.2-0.3,1.7,0.1
		c0.3,0.4,0.5,0.8,0.6,1.3c0.2,1.4,0.2,2.9,0.1,4.3c-0.3,1.3-0.2,2.7,0.2,3.9c0.6,0.9,1.4,1.6,2.4,2c3.3,1.1,6.7,1.5,10.2,1.2
		c0.2,0,0.4,0,0.6-0.1c0.2-0.1,0.4-0.2,0.5-0.4c0.9-0.9,1.7-1.9,2.4-3c1.6-2.5,2.8-5.2,4.6-7.6c0.5-0.6,1-1.3,1.5-1.9l0,0.1
		c-0.6,1.2-1.3,2.4-2.3,3.4c-1.8,2.3-2.9,5.1-4.6,7.6c-0.7,1.1-1.5,2.1-2.4,3c-0.1,0.2-0.3,0.3-0.5,0.4c-0.2,0.1-0.4,0.1-0.6,0.1
		c-3.4,0.3-6.9-0.1-10.2-1.2c-1-0.4-1.9-1-2.4-2c-0.5-1.3-0.5-2.6-0.2-3.9c0.1-1.4,0.1-2.9-0.1-4.3c0-0.5-0.2-1-0.6-1.3
		c-0.5-0.3-1.2-0.3-1.7-0.1c-0.5,0.3-1.1,0.5-1.7,0.5c-1.2,0-1.9-1.3-2.1-2.5c0-1.2-0.2-2.4-0.6-3.5c-0.5-0.8-1.1-1.4-1.8-2.1
		C393.1,325.2,392.5,322.4,393.2,319.9z"/>
	<g class="st18">
		<path class="st19" d="M355.3,341.2c0.1-0.5,0.3-0.9,0.4-1.4C355.6,340.3,355.4,340.7,355.3,341.2z"/>
		<path class="st19" d="M319.1,330.8c0,0.4,0,0.8,0.1,1.1c0.5,1.6,1.4,3.1,2.5,4.3c2.3,3.1,3.5,6.9,3.5,10.8
			c-0.3,2.9-0.4,5.8-0.4,8.8c0.1,3,2.2,5.6,5.1,6.3c1.1,0.1,2.3-0.1,3.1,0.7c0.3,0.3,0.5,0.8,0.6,1.2c0.4,3.3,0.2,6.6-0.5,9.9
			c-0.2,4.1,1,8.2,3.4,11.5c1,1.4,2.2,2.5,3.7,3.4c2.4,1.1,5,1.5,7.5,1.3c7,0.2,13.7-2.3,18.8-7.1c0.1,0.3,0.2,0.6,0.1,1
			c-0.1,0.4-0.3,0.8-0.7,1.2c-5.1,5-12,7.6-19,7.4c-2.6,0.3-5.2-0.2-7.5-1.3c-1.5-0.8-2.7-2-3.7-3.4c-2.4-3.3-3.6-7.4-3.4-11.5
			c0.7-3.3,0.8-6.6,0.5-9.9c-0.1-0.4-0.3-0.9-0.6-1.2c-0.8-0.8-2-0.6-3.1-0.7c-2.9-0.7-5-3.3-5.1-6.3c0-2.9,0.1-5.9,0.4-8.8
			c0-3.9-1.2-7.6-3.5-10.8c-1.1-1.2-2-2.7-2.5-4.3C318.2,333.1,318.4,331.9,319.1,330.8z"/>
	</g>
</g>
</svg>
