<?xml version="1.0" encoding="utf-8"?>
<!-- Generator: Adobe Illustrator 24.3.0, SVG Export Plug-In . SVG Version: 6.00 Build 0)  -->
<svg version="1.1" id="圖層_1" xmlns="http://www.w3.org/2000/svg" xmlns:xlink="http://www.w3.org/1999/xlink" x="0px" y="0px"
	 viewBox="0 0 465.4 587.2" style="enable-background:new 0 0 465.4 587.2;" xml:space="preserve">
<style type="text/css">
	.st0{fill:#9EAC3A;}
	.st1{fill:#652323;}
	.st2{fill:#5A652D;}
	.st3{fill:#565EA9;}
	.st4{fill:#86584B;}
	.st5{fill:#C89C89;}
	.st6{opacity:0.1;fill:none;stroke:#040000;stroke-width:0.3361;stroke-miterlimit:10;enable-background:new    ;}
	.st7{fill:url(#SVGID_1_);}
	.st8{fill:#346251;}
	.st9{fill:#274B3D;}
	.st10{fill:#2F5A4A;}
	.st11{fill:#528171;}
	.st12{fill:#2B5E4C;}
	.st13{fill:#315F4D;}
	.st14{opacity:0.1;fill:#040000;enable-background:new    ;}
	.st15{fill:#335F4F;}
	.st16{fill:#265946;}
	.st17{fill:#315F4E;}
	.st18{opacity:0.1;}
	.st19{fill:#040000;}
	.st20{fill:url(#SVGID_2_);}
	.st21{fill:#FFFFFF;}
	.st22{fill:#949394;}
	.st23{fill:#CC8481;}
	.st24{fill:#F7F7F7;}
	.st25{fill:#333333;}
	.st26{fill:#E4ECF5;}
	.st27{fill:#4051A1;}
	.st28{fill:url(#SVGID_3_);}
	.st29{fill:#15152C;}
	.st30{fill:#F9D0C5;}
	.st31{fill:#EBC1B9;}
	.st32{fill:none;}
	.st33{fill:#4A6373;}
	.st34{fill:#040205;}
	.st35{fill:#141534;}
	.st36{fill:#F5B5B5;}
	.st37{fill:#504F7F;}
	.st38{fill:#4F4E5F;}
	.st39{fill:#554B2E;}
	.st40{fill:#FBE4EA;}
	.st41{fill:#B5811C;}
	.st42{fill:#5B401C;}
	.st43{fill:#D19534;}
	.st44{fill:#D69C22;}
	.st45{fill:#636463;}
	.st46{fill:#3A52A3;}
	.st47{fill:#0F1534;}
	.st48{fill:#CCDAEF;}
	.st49{fill:#F2F9F4;}
	.st50{opacity:5.000000e-02;fill:#040000;enable-background:new    ;}
	.st51{fill:#1F234E;}
	.st52{fill:#1C1636;}
	.st53{fill:#F2F2F2;}
	.st54{fill:#5A2C48;}
	.st55{opacity:0.2;fill:#040000;enable-background:new    ;}
	.st56{fill:#848587;}
	.st57{fill:#2C2E13;}
	.st58{fill:#A2A64A;}
	.st59{fill:#8B8B3D;}
	.st60{fill:#565C2A;}
	.st61{fill:#474D24;}
	.st62{fill:#52504A;}
	.st63{fill:#303030;}
	.st64{fill:#255277;}
	.st65{fill:#5F352B;}
	.st66{fill:#565657;}
	.st67{fill:#856F57;}
	.st68{fill:#E3617E;}
	.st69{fill:#3A2428;}
	.st70{fill:#ECA56C;}
	.st71{fill:#BBCFE4;}
	.st72{fill:#B27574;}
	.st73{fill:#F9D3D8;}
	.st74{fill:#555785;}
	.st75{fill:#C99680;}
	.st76{fill:#9C6E5E;}
	.st77{fill:#E8EAF2;}
	.st78{fill:#EDCCC6;}
	.st79{fill:#F5E1DE;}
	.st80{fill:#FDF9F9;}
	.st81{opacity:0.3;fill:#42312E;enable-background:new    ;}
	.st82{fill:#EAEAEA;}
	.st83{fill:#DEA7B1;}
	.st84{fill:#F6BDC3;}
	.st85{fill:#153159;}
	.st86{fill:#555783;}
	.st87{fill:#CC8386;}
	.st88{fill:#F0EFEF;}
	.st89{fill:#42312E;}
	.st90{opacity:0.2;fill:#FFFFFF;enable-background:new    ;}
	.st91{fill:#F0DBDB;}
</style>
<g>
	
		<ellipse transform="matrix(0.9841 -0.1774 0.1774 0.9841 -28.6048 50.6431)" class="st0" cx="268.8" cy="185.3" rx="86.3" ry="176.1"/>
	<path class="st1" d="M254.7,152.3c7.6,20.6,14.3,41.6,20.3,62.8c5.9,21.2,11,42.6,15.2,64.2c4.2,21.6,7.5,43.4,10,65.2
		c2.4,21.9,4,43.8,4.7,65.8c0.7,22,0.5,44-0.6,66c-0.1,2.7-0.3,5.4-0.4,8.1c-0.2,2.8,4.1,2.7,4.3,0c1.3-22.1,1.7-44.1,1.2-66.3
		c-0.5-22-1.9-43.9-4.1-65.8c-2.3-22-5.4-43.8-9.4-65.6c-4-21.7-8.8-43.3-14.6-64.7c-5.7-21.3-12.3-42.4-19.7-63.3
		c-0.9-2.5-1.8-5.1-2.8-7.6C257.9,148.6,253.8,149.7,254.7,152.3L254.7,152.3z"/>
	<path class="st1" d="M284.3,233.5l19-42.2l5.4-11.9c0.6-1,0.2-2.3-0.8-2.9c-1-0.6-2.3-0.2-2.9,0.8l-19,42.2l-5.4,11.9
		c-0.6,1-0.2,2.3,0.8,2.9C282.4,234.9,283.7,234.5,284.3,233.5L284.3,233.5z"/>
	<path class="st1" d="M288.5,262.3l-43.3-16.2l-12.2-4.6c-1.1-0.3-2.3,0.4-2.6,1.5c-0.3,1.1,0.4,2.3,1.5,2.6l43.3,16.2l12.2,4.6
		c1.1,0.3,2.3-0.4,2.6-1.5C290.3,263.8,289.6,262.7,288.5,262.3L288.5,262.3z"/>
	
		<ellipse transform="matrix(0.9983 -5.775697e-02 5.775697e-02 0.9983 -14.7729 21.552)" class="st2" cx="365.5" cy="266.3" rx="64.9" ry="132.4"/>
	<path class="st1" d="M357.9,240.5c3.8,16.1,7,32.3,9.5,48.7c2.5,16.4,4.3,32.8,5.5,49.3c1.2,16.5,1.7,33.1,1.6,49.6
		c-0.2,16.5-1,33.1-2.4,49.5c-1.5,16.5-3.6,32.9-6.4,49.2c-0.3,2-0.7,4-1.1,6c-0.4,2,2.8,2.4,3.2,0.4c3-16.4,5.3-32.8,6.9-49.4
		c1.6-16.5,2.6-33,2.9-49.5c0.3-16.6,0-33.2-1.1-49.8c-1-16.6-2.7-33.1-5-49.6c-2.3-16.5-5.3-32.8-9-49c-0.4-2-0.9-4-1.4-5.9
		C360.6,238,357.4,238.4,357.9,240.5L357.9,240.5z"/>
	<path class="st1" d="M372.6,303.8l18-29.8l5.1-8.4c0.5-0.7,0.4-1.7-0.3-2.3c-0.7-0.5-1.7-0.4-2.3,0.3l-18,29.8l-5.1,8.4
		c-0.5,0.7-0.4,1.7,0.3,2.3C371.1,304.6,372.1,304.5,372.6,303.8L372.6,303.8z"/>
	<path class="st1" d="M373.1,325.7l-30.9-16.1l-8.7-4.5c-0.8-0.3-1.8,0.1-2.1,0.9c-0.3,0.8,0.1,1.8,0.9,2.1l30.9,16.1l8.7,4.5
		c0.8,0.3,1.8-0.1,2.1-0.9C374.3,326.9,373.9,326,373.1,325.7L373.1,325.7z"/>
</g>
<g>
	<path class="st3" d="M154.9,519.6c0,0,6.5-1,10.4,3.5c0,0-2.8,2.2-9-0.9L154.9,519.6z"/>
	<path class="st3" d="M173.1,504.8c0,0,3.1-0.5,4.9,1.7c0,0-1.3,1.1-4.2-0.4L173.1,504.8z"/>
	<path class="st3" d="M172.8,504.8c0,0-1.9,2.4-1,5.1c0,0,1.6-0.6,1.8-3.9L172.8,504.8z"/>
	<path class="st3" d="M171,500.9c0,0,1.2-2.2,6.1,0.9c0,0-0.7,1.5-2.8,1.4C172.2,503,171.6,502,171,500.9z"/>
	<path class="st3" d="M170.7,500.7c0,0-2.5-0.3-2.8,5.5c0,0,1.6,0.3,2.7-1.5C171.8,502.9,171.3,501.8,170.7,500.7z"/>
	<path class="st3" d="M169.2,496.1c0,0,1.4-3.9,6.6-1.1c0,0-1.2,3.6-6.1,2.5L169.2,496.1z"/>
	<path class="st3" d="M167.6,490.2c0,0,2.7-4,7.4-0.3c0,0-1.7,3.7-7.1,1.7L167.6,490.2z"/>
	<path class="st3" d="M169.1,496c0,0-3.6-2.2-5.9,3.2c0,0,3.2,2.1,6.3-1.8L169.1,496z"/>
	<path class="st3" d="M167.5,489.9c0,0-4.4-2-6.5,3.7c0,0,3.4,2.3,6.9-2.2L167.5,489.9z"/>
	<path class="st4" d="M393.6,517.9c-0.4,2.6-3,11.1-3,11.1s-3.8,12.8-4.9,13c-1.1,0.2-51.2-1.1-53.3,0c-2.1,1.1-14.3,0-14.3,0
		s-7.5,0.6-11.1,1.7s-23.2,2.8-24.2,2.8s-9.6-3.4-11.1-3s-10.7-1.1-12.8-0.4s-10.9-3.4-12.2-2.8c-1.3,0.6-7.3,1.1-9,1.9
		c-1.7,0.9-45-1.3-45.8-1.1c-0.1,0-0.7,0.1-1.4,0.3c-4,0.7-15,2.5-15,2.5l-6.8-2.4c0,0-6-0.4-7.9-0.2c-1.9,0.2-10.7-8.1-10.7-8.1
		s-0.9-4.1,0-5.1c0.9-1.1,0-6.4,0-6.4c0-3.5,0.8-7,2.4-10.2c2.6-5.1,4.1-12.6,4.1-12.6s1.9-9.4,4.3-11.5c2.4-2.1,10.9-2.1,14.9-1.5
		l0.4,0.1c5.4,0.8,38.1,4.2,41.2,4c3.2-0.2,14.9,0.4,16.6-0.2s40.7,1.3,40.7,1.3s6.6-2.4,8.2-2.8c1.6-0.4,6.9-11.7,8.6-13
		c0.5-0.4,1-0.8,1.5-1.2c1.3-1.2,2.7-2.2,4.3-3c3.2-1.7,11.5,5.3,10.2,8.3c-1.1,2.7-2,2.8-2.7,3.1c-0.1,0-0.2,0.1-0.3,0.1
		c-0.9,0.4-4,6.2-4,6.2s42-1.1,46.7-1.5s18.8,0,20.3-1.1c1.5-1.1,16.2,1.9,16.2,1.9l7.7,16.2C391.2,504.3,394,515.3,393.6,517.9z"/>
	<path class="st5" d="M190.4,541.4c-4,0.7-15,2.5-15,2.5l-6.8-2.4c0,0-6-0.4-7.9-0.2c-1.9,0.2-10.7-8.1-10.7-8.1s-0.9-4.1,0-5.1
		c0.9-1.1,0-6.4,0-6.4c0-3.5,0.8-7,2.4-10.2c2.6-5.1,4.1-12.6,4.1-12.6s1.9-9.4,4.3-11.5c2.4-2.1,10.9-2.1,14.9-1.5l0.4,0.1
		c8.6,13.2,22.7,36,23.1,43.9C199.4,534.9,195.2,538.7,190.4,541.4z"/>
	<path class="st6" d="M228.1,520.8c0,0-2.8,0.8-6.8,0.1s-9.2,1.1-9.2,1.1"/>
	<path class="st6" d="M238.6,522c0,0,3.2,0.9,11.7,1.1c8.5,0.2,9.6-0.6,13.4,0c3.8,0.6,7.9,1.1,7.9,1.1"/>
	<path class="st6" d="M213.4,525.8c0,0,11.7-2.1,16.8,0c5.1,2.1,15.1-0.6,16.6,0c1.5,0.6,9.2,0.8,11.5,0.8c2.3,0,3.8,0.6,6.8,0
		c3-0.6,14.9,0.3,14.9,0.3"/>
	<path class="st6" d="M265,508.6c0,0,6.2-1.6,10.9,0c4.7,1.6,14.1,0.3,19,1.2c4.9,0.9,19.2,3.6,20.7,1.9"/>
	<path class="st6" d="M293.6,516c0,0,4.3-1.1,8.3,0c4.1,1.1,11.5,2.1,13.6,1.5c2.7-0.8,5.5-1.5,8.3-2c3.4-0.6,12.6-4,16-3.2
		c3.4,0.7,7.5-1.5,11.1-2.2c3.6-0.7,5.3-0.8,9.8,0c4.5,0.8,6.8,2.9,7.5,2.2"/>
	<path class="st6" d="M347.5,502.6c0.6-0.4,3.6,1.9,9.8,2.1c6.2,0.2,11.9-2.2,11.9-2.2s-0.6-0.7,3.2,0c3.8,0.7,18.8,1.8,18.8,1.8"/>
	<path class="st6" d="M373.5,496.4c0,0-7.7-2.1-10.9,0c-3.2,2.1-6.6,0.2-7.7,0c-1.1-0.2-10.5-0.2-13.2-0.9c-2.8-0.8-10.9,1-10.9,1
		s-10.2-0.6-13.8-0.1c-3.6,0.5-11.9,2.3-12.6,1.1c-0.6-1.2-7.5-3.3-9.8-2.1"/>
	<path class="st6" d="M290.3,498.9c0,0,5.9-1.1,7.8,0s8.7,0,8.7,0s5.5,1.1,6.4,1.5"/>
	<path class="st6" d="M350.7,493.4c0,0,2.6-0.9,8.1,0c3.5,0.5,7.1,0.4,10.6-0.4c0,0,5.7-0.5,8.4,0.7c2.8,1.2,8.2-0.4,8.2-0.4"/>
	<path class="st6" d="M190.4,506.2c0,0,1.7-1.3,7.9,0c6.2,1.3,9.2-0.6,9.2-0.6s-2.6-0.1,3,0c5.5,0.1,8.5-2.2,8.5-2.2"/>
	<path class="st6" d="M184.6,502.2c0,0-0.2-2.3,5.8,0s9.4,1.3,9.4,1.3c2.5-0.9,5.1-1.2,7.7-1c4.3,0.3,10,0,10,0"/>
	<path class="st6" d="M180.6,496.3c0,0,1.3-1.5,7,0s7.7,0,7.7,0s5.8,0.1,9.4,1.4"/>
	<path class="st6" d="M188,494.1c0,0,1.7-0.1,5.8,0c4.1,0.1,8.3,0,8.3,0"/>
	<path class="st6" d="M171.8,520.8c0,0-3.2-2.6-1.1-4.1s5.1,0.2,5.1,1v5.4c0,0-9.4,3.4-9.4,1.1s2.8-13.3,3.8-14
		c1.1-0.7,3.6-7.5,4.5-5c0.9,2.4,5.8,16.9,5.8,16.9c-0.7,2.2-2.2,3.9-4.3,4.9c-3.4,1.7-15.8,1.8-15.6-1s3.6-17.3,3.6-17.3
		s5.8-15.6,9-11.9c3.2,3.7,4.7,10.2,7.3,12.8c2.5,2.6,8.1,12.7,5.8,17.4s-19.2,9.1-19.2,9.1s-13.4-3.2-10.7-14.1
		c2.8-10.9,4.5-29.2,8.5-30.3c4.1-1.1,8.1-2.4,11.5,0c3.4,2.4,10.2,16.7,11.5,17.8c1.3,1.1,8.3,11.8,7,15.3
		c-1.3,3.5-8.5,13.7-12.4,15.2c-3.8,1.5-12.8-1.5-12.8-1.5"/>
	<path class="st6" d="M328.1,522c0,0,8.1-0.2,10,0c1.9,0.2,5.8-4.9,7.9-4.3s3,4.4,6.8,3.7c3.8-0.7,13.6-1.6,13.6-1.6s5.3,0.4,9,0
		c3.6-0.4,6.4,0,8.3,0c1.9,0,7.5,0,7.5,0l1.7,1"/>
	<path class="st6" d="M334.1,515.4c2.7-0.2,5.4-0.2,8.1,0c3.6,0.3,15.4-2.1,20.5-1.8c5.1,0.3,7.7-1.6,10-1.3
		c2.3,0.3,4.1,1.6,7.7,1.6c3.6,0,12.6-1.6,12.6-1.6"/>
	<path class="st6" d="M225.8,533.3c0,0,14.9,1.9,19.8,0s7.5-2.6,10.9-1.9s2.4-1.8,8.5-0.2c6.2,1.5,17.1,2.3,19.8,1.3
		c2.8-1,22.2,3.3,22.2,3.3"/>
	<path class="st6" d="M249.9,537.3c0,0,6.2,0.6,10.2,1.1c4.1,0.4,22.6,1.9,26.4,0s27.7-0.1,27.7-0.1s5.3,0.4,8.5,0
		c3.2-0.4,11.3-1,11.3-1"/>
	<path class="st5" d="M307.4,479.3c-1.1,2.7-2,2.8-2.7,3.1c-3.9-1.7-8.8-5.8-11.8-8.4c1.3-1.2,2.7-2.2,4.3-3
		C300.4,469.3,308.7,476.3,307.4,479.3z"/>
	<path class="st6" d="M297.1,475.3c0,0,2.5,4.2,5,4c2.5-0.2,3.8-2.1,3-3.3c-0.8-1.2-6.1-3.5-6.1-3.5"/>
	<path class="st6" d="M298.9,474.8c0,0,1.3,3,2.3,1.8S298.9,474.8,298.9,474.8z"/>
	
		<linearGradient id="SVGID_1_" gradientUnits="userSpaceOnUse" x1="311.0576" y1="461.6496" x2="311.0576" y2="510.9853" gradientTransform="matrix(1 0 0 -1 -44.68 1017.83)">
		<stop  offset="0" style="stop-color:#7F8080;stop-opacity:0.25"/>
		<stop  offset="0.54" style="stop-color:#7F8080;stop-opacity:0.12"/>
		<stop  offset="1" style="stop-color:#7F8080;stop-opacity:0.1"/>
	</linearGradient>
	<path class="st7" d="M286.1,533.8c0,0-0.7-2.7-1.3-5.4c-0.1-1.7-0.4-3.8-0.5-4.7c0,0,0-0.1,0-0.1c0-0.4-0.1-0.7-0.4-1
		c0.3-1,1.6-4.7,1.3-5.7c-0.3-1.2-1.2-4.2-2.3-5.2c-0.4-0.5-0.9-0.9-1.5-1.2c-1.1-0.4-2.3-0.3-3.3,0.3l-5.7,3.2
		c-2.3-0.3-4.1-0.6-4.1-0.6s-1.4-0.2-3.2-0.3c-0.6-1.3-2.4-5.3-4.2-5.9c-2-0.7-4.4,0.2-4.9,0.5l0,0h0l-0.1,0l0,0
		c-3.7,1.7-3.3,9-3.1,10.6c-0.7,0.9-1.4,1.7-2.2,2.5c-1.3,1.1-1.7,4.1-0.5,4.7c0.6,0.3,1.4,0.6,2.1,0.9c-3.2,6.8-8.7,20.3-3.8,24.1
		c6.6,5.2,19.1,6.9,23.3,5.2c0.1,0,0.2,0,0.3,0c0,0,6.9-1.6,8.5-3.5c1.2-1.5,2-3.3,2.4-5.2c1.7-1.5,2.8-3.5,3.2-5.7
		C286.9,536.9,286.1,533.8,286.1,533.8z M281.8,519l0.2-0.8c0.1,0.1,0.2,0.1,0.3,0.2c0,0.2-0.1,0.5-0.1,0.7l-0.3,1.6L281.8,519z
		 M280.5,512.2c0.3,0.2,2.2,1.6,1.9,5.3c0-0.1-0.1-0.3-0.1-0.4c-0.1-0.5-0.5-1.2-1.8-1.7c-1.1-0.3-2.3-0.6-3.4-0.8
		C278,513.6,279.2,512.8,280.5,512.2z M261.1,512.6c-1.5-0.1-2.7-0.2-2.8-0.1h0c-0.2,0-0.4,0-0.6,0.1c-0.6,0.1-1.1,0.4-1.6,0.7
		c0.7-3.8,2.6-4.1,3.1-4.1C260,510.2,260.6,511.4,261.1,512.6L261.1,512.6z M282.6,542.6c-0.2-3.1-0.4-7.9-0.5-10.7l0.2,0
		c0.2,0,0.4-0.1,0.6-0.1c0.2,1.8,0.5,4,1.1,5.4C284.7,538.9,283.5,541.2,282.6,542.6L282.6,542.6z"/>
	<polygon class="st8" points="281.3,517.3 277.4,516.1 273.3,517.6 273,520.2 275,521.6 278.3,521.5 281.2,520.1 281.6,517.6 	"/>
	<path class="st9" d="M253.1,518.6c0,0-1-9,3.1-10.9c0,0,2.2,0.1,3.2,1.7c0,0-3-0.2-3.3,6.2L253.1,518.6z"/>
	<path class="st10" d="M255.3,515.4c0,0-3.2,4.3-4.5,5.4s-1.6,4-0.5,4.6c1.2,0.6,3.4,1.5,3.4,1.5L255.3,515.4z"/>
	<path class="st11" d="M265.3,513.6c0,0-2.1-5.5-4.3-6.3s-4.9,0.5-4.9,0.5s3.2-0.3,5.2,5.4L265.3,513.6z"/>
	<path class="st9" d="M283.3,522.9c0,0,1.6-4.7,1.4-5.9c-0.3-1.2-1.2-4.2-2.3-5.2c-1.1-1-2.4,0.6-2.4,0.6s2.8,1.7,1.6,6.8l-0.4,2.3
		L283.3,522.9z"/>
	<path class="st11" d="M271.4,514.6l6.4-3.7c1-0.6,2.1-0.7,3.2-0.3c0.6,0.2,1.1,0.6,1.4,1.2c0,0-3.1-0.2-6.5,3.9L271.4,514.6z"/>
	<path class="st12" d="M282.1,528.5c0,0,0.2,5.8,1.3,8.6c1.1,2.8-2.3,6.7-2.3,6.7l0.6,3.4c0,0,2.9-1.9,3.8-6.1s0-7.3,0-7.3
		s-2.4-9.5-2-10.5C283.9,522.3,282.1,528.5,282.1,528.5z"/>
	<path class="st11" d="M281.3,518.3c0,0,0.5,3-5.5,1.7l-4,35.4c0,0,6.7-1.6,8.3-3.5c1.6-1.8,2.7-5.3,2.4-6.6
		c-0.4-1.3-0.8-15.6-0.8-15.6L281.3,518.3z"/>
	<path class="st13" d="M254.4,522.3c0,0-12.1,22.8-5.7,27.9c6.5,5.1,18.5,6.9,22.7,5.1c0,0,1.9,0.5,1.6-5.5
		c-0.3-6,2.2-22.7,2.2-22.7L254.4,522.3z"/>
	<path class="st11" d="M254.8,523.3c0,0-11.4,21.4-5.3,26.3c6.1,4.8,17.4,6.5,21.3,4.8c0,0,1.8,0.5,1.5-5.1
		c-0.3-5.6,2.1-21.3,2.1-21.3L254.8,523.3z"/>
	<path class="st14" d="M281.1,532.1c-0.5,0.3-3.1-0.5-3.1-0.5c-2.9-0.2-1.9-5.2-1.3-7.1c0.1-0.5,0.2-0.8,0.2-0.8
		c1.3,1.7,3.8,1,3.8,1s0.1,0.6,0.2,1.3C281,528.1,281.4,531.9,281.1,532.1z"/>
	<path class="st15" d="M281.2,531.9c-0.5,0.3-3.1-0.5-3.1-0.5c-2.9-0.2-1.9-5.2-1.3-7.1c0.1-0.5,0.2-0.8,0.2-0.8
		c1.3,1.7,3.8,1,3.8,1s0.1,0.6,0.2,1.3C281.1,528,281.5,531.7,281.2,531.9z"/>
	<path class="st14" d="M280.9,525.9c-1.3-0.2-3.3-1.1-4.2-1.5c0.1-0.5,0.2-0.8,0.2-0.8c1.3,1.7,3.8,1,3.8,1S280.8,525.1,280.9,525.9
		z"/>
	<path class="st11" d="M279.6,524.3c0,0-3.3,8.5,2.2,7.5c0,0,2.6-0.3,2.6-2.2c0-2-0.6-6.3-0.6-6.3L279.6,524.3z"/>
	<path class="st14" d="M277.1,522.2c0,0-1.7,6.9,3.7,4.3s1.9-4.3,1.9-4.3l-2.5-1.7L277.1,522.2z"/>
	<path class="st16" d="M277.1,522.1c0,0-1.7,6.9,3.7,4.3c5.3-2.6,1.9-4.3,1.9-4.3l-2.5-1.7L277.1,522.1z"/>
	<path class="st14" d="M278.2,521.2c0,0-1.5,0.4-0.7,1.9c0.4,0.7,0.5,1.4,0.5,2.2c0,0.5,0.3,1,0.8,1.1c0.5,0.1,1.3,0,2.3-0.9
		c0,0,2-0.7,1.8-1.7s-3.4-3.1-3.4-3.1L278.2,521.2z"/>
	<path class="st11" d="M278.2,521.1c0,0-1.5,0.4-0.7,1.9c0.4,0.7,0.5,1.4,0.5,2.2c0,0.5,0.3,1,0.8,1.1c0.5,0.1,1.3,0,2.3-0.9
		c0,0,2-0.7,1.8-1.7s-3.4-3.1-3.4-3.1L278.2,521.1z"/>
	<circle class="st14" cx="280.2" cy="523.5" r="1"/>
	<circle class="st16" cx="280.2" cy="523.4" r="1"/>
	<path class="st14" d="M267.9,513.8c0,0-9.6-1.2-10-0.8c0,0-5.1,0.9-5.1,10.3c0,0-0.1,5.4,10.3,8.1c0,0,8.4,0.7,11.1-2.6
		c2.7-3.3,1.4-8.9,1.4-8.9s1.1-4.3,6.2-1.3c0,0,0.5-1.7-1.8-2.5S267.9,513.8,267.9,513.8z"/>
	<path class="st13" d="M267.9,513.6c0,0-9.6-1.2-10-0.8c0,0-5.1,0.9-5.1,10.3c0,0-0.1,5.4,10.3,8.1c0,0,8.4,0.7,11.1-2.6
		s1.4-8.9,1.4-8.9s1.1-4.3,6.2-1.3c0,0,0.5-1.7-1.8-2.5C277.8,515,267.9,513.6,267.9,513.6z"/>
	<path class="st14" d="M268.2,513.7c0,0-9.3-1.1-9.7-0.8c0,0-4.9,0.8-4.9,9.7c0,0-0.1,5.1,10.1,7.6c0,0,8.2,0.7,10.8-2.4
		s1.3-8.4,1.3-8.4s1.1-4,6-1.2c0,0,0.5-1.6-1.7-2.4S268.2,513.7,268.2,513.7z"/>
	<path class="st11" d="M268.2,513.6c0,0-9.3-1.1-9.7-0.8c0,0-4.9,0.8-4.9,9.7c0,0-0.1,5.1,10.1,7.6c0,0,8.2,0.7,10.8-2.4
		s1.3-8.4,1.3-8.4s1.1-4,6-1.2c0,0,0.5-1.6-1.7-2.4S268.2,513.6,268.2,513.6z"/>
	<path class="st17" d="M263.6,528.2c0,0-2.5-1.2-2.7,1c0,0-0.9,2.2-0.9,2.4c0,0.3,0.1,2.5,2.1,2.4c1.1,0,2.1-0.6,2.7-1.6
		c0,0,0.4-2.4,1-2.9c0.6-0.5-0.4-1-0.8-1C264.5,528.5,264,528.4,263.6,528.2z"/>
	<path class="st14" d="M263.2,527.9c0,0-2.5-1.2-2.7,1c0,0-0.9,2.2-0.9,2.4c0,0.3,0.1,2.5,2.1,2.4c1.1,0,2.1-0.6,2.7-1.6
		c0,0,0.4-2.4,1-2.9c0.6-0.5-0.4-1-0.8-1C264.1,528.1,263.7,528,263.2,527.9z"/>
	<path class="st11" d="M263.3,527.8c0,0-2.5-1.2-2.7,1c0,0-0.9,2.2-0.9,2.4c0,0.3,0.1,2.5,2.1,2.4c1.1,0,2.1-0.6,2.7-1.6
		c0,0,0.4-2.4,1-2.9c0.6-0.5-0.4-1-0.8-1C264.2,528,263.8,527.9,263.3,527.8z"/>
	<circle class="st14" cx="262" cy="532" r="0.9"/>
	<circle class="st17" cx="262" cy="532" r="0.9"/>
	<path class="st13" d="M270.6,537c0,0-9.9-1.2-16.9-4.7c0,0-5.5,13.8-1.1,15.7c4.4,1.9,13.4,5,16,4c0,0,1.5,0.2,1-4.8
		C269.1,542.1,270.6,537,270.6,537z"/>
	<path class="st14" d="M270,537.9c0,0-9.9-1.1-16.9-4.5c0,0-5.5,13-1.1,14.8c4.4,1.8,13.4,4.7,16,3.7c0,0,1.5,0.2,1-4.5
		C268.5,542.8,270,537.9,270,537.9z"/>
	<path class="st11" d="M270.2,537.9c0,0-9.9-1.1-16.9-4.5c0,0-5.5,13-1.1,14.8s13.4,4.7,16,3.7c0,0,1.5,0.2,1-4.5
		C268.7,542.7,270.2,537.9,270.2,537.9z"/>
	<g class="st18">
		<path class="st19" d="M280,515.6c-2.2-0.8-11.8-2.1-11.8-2.1s-9.3-1.1-9.7-0.8c0,0-2.4,0.4-3.8,3.7c1.5-2.9,3.7-3.3,3.7-3.3
			c0.5-0.3,9.7,0.8,9.7,0.8s9.6,1.3,11.8,2.1c1.5,0.5,1.8,1.4,1.8,1.9l0.1,0.1C281.7,518,282.3,516.4,280,515.6z"/>
		<path class="st19" d="M275.8,519c-0.1,0.2-0.2,0.4-0.3,0.6c0,0,0.9,3.8-0.4,6.8c1.6-3.1,0.5-7.2,0.5-7.2
			C275.8,519.1,275.8,519,275.8,519z"/>
	</g>
	
		<linearGradient id="SVGID_2_" gradientUnits="userSpaceOnUse" x1="399.3148" y1="469.0447" x2="399.3148" y2="638.4745" gradientTransform="matrix(1 0 0 -1 -44.68 1017.83)">
		<stop  offset="0" style="stop-color:#7F8080;stop-opacity:0.25"/>
		<stop  offset="0.54" style="stop-color:#7F8080;stop-opacity:0.12"/>
		<stop  offset="1" style="stop-color:#7F8080;stop-opacity:0.1"/>
	</linearGradient>
	<path class="st20" d="M395.7,541.6c-1.9-0.1-2-0.8-4.5-2.1c-1.4-0.7-3.5-2.8-5.1-4.5l-0.4-0.4h0.7c0,0-0.6-5.4-0.1-6.7
		s0.1-8.9,0.1-8.9s0.3-5.8-0.3-7.2c-0.6-1.4,0.2-10,0.2-10s0.6-5.2,0.7-15.7c0.1-10.5-6.1-10.8-6.1-10.8s-0.8-0.1-2.1-0.2l-0.4,0
		c0.8-1.7,1.3-3,1.3-3s-1-9.8-1.3-11.5c-0.3-1.7-1.9-8.7-1.9-8.7s-1.2-3-1.9-5.1s-2.7-4.5-2.7-4.5s-3.7-7.3-4.7-8.4
		c-0.5-0.5-1.1-1.1-1.7-1.7l-0.3-0.3c0.2-0.8,0.2-1.5,0.2-2.3c0,0-3.9-3.8-4.1-4.8c-0.3-1-3.9-4.5-3.9-4.5s-2.1-3.8-4.4-3.9
		c-1.1-0.1-2.2,0-3.3,0.1c0.5-1.8,1-3.6,1.6-5.2c0.1-0.2,0.1-0.3,0.2-0.5c1.9-1.3,3.3-3,4.2-5.1c0-0.1,0.1-0.2,0.1-0.3h0.1
		c0.1,0,0.2,0,0.3,0c0.8-0.1,1.4-1,1.1-1.7c0,0.1,0.1,0.1,0.2,0.1c0.3,0,0.6-0.4,0.6-0.7c0-0.1,0-0.1,0-0.2l0-0.2c0-0.1,0-0.1,0-0.2
		s0-0.1,0-0.2c0-0.1,0-0.1,0-0.2c0-0.1,0-0.1,0-0.2c0-0.1,0-0.1,0-0.2c0-0.1,0-0.2,0-0.3c0,0,0-0.1,0-0.1l0,0c0-0.4-0.1-0.7-0.2-1.1
		c-0.4-1.3-1.2-2.5-0.9-3.8c0,0,0,0,0,0l0,0c0.3-1,1.1-1.7,1.6-2.6c0.1-0.1,0.1-0.2,0.1-0.3l0,0c0-0.1,0.1-0.1,0.1-0.2
		c0-0.1,0-0.1,0.1-0.1c0,0,0-0.1,0.1-0.2c0-0.1,0-0.1,0.1-0.2s0-0.1,0-0.2c0-0.1,0-0.1,0-0.2c0-0.1,0-0.1,0-0.1s0-0.1,0-0.2
		c0-0.1,0-0.1,0-0.1c0,0,0-0.2,0-0.2v-0.1c0-0.1,0-0.2,0-0.3c0,0,0-0.1,0-0.1c0-0.1,0-0.2,0-0.3c0,0,0,0,0,0l0,0
		c-0.1-0.9-0.5-1.7-1-2.4c-1.2-1.4-3-2.2-4.9-2.1c-0.5,0.1-1,0.1-1.6,0c-0.9-0.1-1.6-0.7-2.3-1.2l-5.8-4.4c-0.6-0.6-1.4-1-2.2-1.3
		c-0.8-0.2-1.8-0.2-2.4,0.4c-1.1,1.1-0.4,2.9-0.8,4.3c-0.4,1.2-1.6,2.1-2.8,2.5c-1.2,0.4-2.6,0.5-3.9,0.8c-0.4,0.1-0.7,0.2-1,0.5
		c-0.3,0.4-0.5,0.9-0.5,1.4c0,1.3,0.3,2.5,0.9,3.7c0.2,0.5,0.5,0.9,0.8,1.4c0,0,0,0.1,0.1,0.1c0,0,0.1,0.1,0.1,0.2
		c0,0.1,0.1,0.2,0.1,0.3l0.1,0.1l0.1,0.2l0,0.1c0,0.1,0,0.1,0.1,0.2c0.1,0.4,0.1,0.9,0,1.3c-0.2,0.7-0.8,1.3-1.3,1.9
		c-0.4,0.4-0.7,1-0.8,1.6l0,0c0,0.1,0,0.3,0,0.4c0,0,0,0,0,0.1c0,0,0,0.1,0,0.1c0,0,0,0,0,0.1c0,0,0,0,0,0.1c0,0,0.1,0.1,0.1,0.1
		l0.1,0c0,0,0.1,0,0.1,0.1c0,0,0,0,0.1,0c0,0,0.1,0,0.1,0h0c0.1,0,0.1,0,0.2,0h0.1c0.1,0,0.1,0,0.2,0h0.1c0.1,0,0.2,0,0.3-0.1
		c0.4-0.1,0.8-0.3,1.1-0.4c0,0,0,0.1,0,0.1c0,0,0,0.1,0,0.2c0,1.3,0.3,2.6,0.7,3.9c0.7,1.9,2,3.6,3.6,4.9c0,0.1,0,0.2-0.1,0.3
		c-0.3,1.6-1,3.3-1.5,3.1c-0.4-0.1-0.8-0.1-1.3-0.1h-0.4l0,0c-0.4,0-0.8,0-1.2,0c-0.2,0-0.3,0-0.5-0.1c-1.1-0.3-2.3-0.4-3.4-0.2
		c-2.4,0.5-6,1.4-7,2.4c-1.5,1.6-3.7,3.2-6.2,10c0,0-1.2,4.1-2.2,4.7c0.2-0.1,0.4-0.2,0.7-0.3c-0.1,0.2-0.3,0.4-0.5,0.6
		c0.3-0.2,0.7-0.3,1.1-0.5c-0.7,4.4,0.4,17,0.4,17s-0.9,2.2,0.3,3.5c0.7,0.8,1.1,2,1.3,2.8l-0.2,0.3l0,0c-0.6,1-1.4,2.2-2,2.9
		c-1,1.2-0.7,5.1-0.7,5.1s-0.2,1.8-0.9,2.5s-0.6,3.2-0.6,3.2l-1.8,6.6c0,0-1.7,1.5-1.7,2.2c0,0.7-1.3,2.6-1.3,2.6s-2,3.3,0,2.8
		c0.7-0.2,1.4-0.6,2-1v0.1c0,0.1,0,0.2,0,0.4c-0.1,3.5,0.3,8.5,2.9,8.5c4.1,0,14.5,4.8,14.5,4.8c2.1,1.6,5,1.1,5,1.1
		s-5.1,5.1-4.9,7.2c0.1,2.1-2.9,5.6-2.9,5.6l-9.3,18.2c0.1,1.3,0.3,2.5,0.7,3.7l-0.1,0.1c-3.6,3.3-3.9,9.8-3.9,9.8l-0.8,3.3
		l12.5,5.5c0,0,16.2,0.3,19-0.4c2.8-0.7,2.2-3.9-1.5-4.5c-3.7-0.6-4.6-2.2-5.8-3c-0.8-0.5-3.8-3.8-5.6-5.8l-0.1-0.1l0.4-2.4
		c0.8-0.4,2.1-4.5,2.1-4.5s0-1.6,0.8-2.1c0.8-0.5,2.5-5.4,2.5-5.4s3.7-6.2,3.5-7c-0.2-0.8,2.7-4.9,2.7-4.9s4.9-4.7,4.7-5.6
		c-0.2-0.8,3.9-5.2,3.9-5.2c1.5-1.1,2.7-2.6,3.6-4.2l1.2-0.2c5.4-0.9,14.4-2.5,15.4-2.9c1.4-0.6,1.1,2.1,0.6,4.4s-1,13.4-0.3,14.8
		c0.6,1.4,0.3,3.7,0.3,3.7l-0.8,12.4l0.5,2.6c0,0-1.9,1.5-1.1,2.4c0.8,0.9,0.1,4.7,0.1,4.7c0.1,0,0.1,0,0.2-0.1
		c-0.1,0.1-0.1,0.3-0.2,0.5c-1.1,3-0.5,8-0.5,8v3.9c0,0,19,0.3,23.2,0.3c4.2,0,10-2,10.3-3.7C402.8,543,397.6,541.6,395.7,541.6z
		 M341.6,471l-1.2,0.1C340.7,471.1,341.2,471,341.6,471z M349.2,419c0.2-0.8,0.4-1.6,0.6-2.5L349.2,419z M351.5,472.9
		c-1.2,0.5-2.5,0.5-3.7,0l0,0c0,0,0.1-4.7,0.6-6.7c0.6-2,1.3-5.6,1.3-5.6s0.6-4.9,1.2-7.2c0.6-2.2,3-14.7,4.3-15.5
		c1.2-0.8,1.9,0.6,1.9,0.6s0.2,0,0.5,0c0.1,0.1,0.1,0.3,0.2,0.4c1.5,3,5.8,9,5.8,9c1.3,0.8,2.4,1.9,3.2,3.1c1.2,2,1.5,6.6,1.5,6.6
		s2.6,10.2,3.8,11.7c0.6,0.7,0.3,1.1-0.1,1.4c-0.9,0.5-1.6,1.2-2.2,2c-0.2,0.3-0.4,0.6-0.6,0.9c-0.5-0.1-0.9-0.2-1.2-0.3
		C364.7,472.1,353.4,472.1,351.5,472.9L351.5,472.9z"/>
	<path class="st21" d="M368.4,544.1v3.9c0,0,18.6,0.3,22.7,0.3s9.7-2,10.1-3.6c0.3-1.6-4.7-3-6.6-3c-1.9-0.1-1.9-0.8-4.4-2.1
		c-1.4-0.7-3.4-2.8-5-4.5c-1.2-1.3-2.1-2.4-2.1-2.4s-10-0.2-12.9,1.4c-0.7,0.4-1.1,1.1-1.4,2C367.8,539.1,368.4,544.1,368.4,544.1z"
		/>
	<path class="st14" d="M368.9,536.1c2.1-0.7,14.4-1,16.4-1.1c-1.2-1.3-2.1-2.4-2.1-2.4s-10-0.2-12.9,1.4
		C369.7,534.5,369.2,535.2,368.9,536.1z"/>
	<path class="st22" d="M314.9,474l1.1,0.7l0.4,0.2l1.6,1c8.5,5.1,31.5,18.9,32.8,18.8c0.3,0,1.3-0.2,2.7-0.4l1.2-0.2
		c5.3-0.9,14-2.5,15-2.9c1.3-0.6,1.1,2.1,0.5,4.4c-0.5,2.3-0.9,13.2-0.3,14.7s0.3,3.7,0.3,3.7l-0.8,12.3l0.5,2.6
		c0,0-1.8,1.5-1.1,2.4s0.1,4.6,0.1,4.6c2.2-0.8,16.7-1.1,16.7-1.1s-0.6-5.4-0.1-6.7c0.5-1.3,0.1-8.9,0.1-8.9s0.3-5.8-0.3-7.1
		s0.2-9.9,0.2-9.9s0.5-5.1,0.7-15.5s-5.9-10.8-5.9-10.8s-0.8-0.1-2-0.2c-2.4-0.2-6.4-0.7-9.1-1.2c-0.5-0.1-1.1-0.3-1.6-0.4
		c-3.3-1.1-14.4-1.2-16.2-0.4c-1.2,0.5-2.5,0.5-3.6,0l0,0l-1.4-2.3l-13.5,1.1l-1.4,0.1l-13.3,1.1l-0.9,0.1L314.9,474z"/>
	<path class="st14" d="M368.9,484.3c3.9,1.9,7.7-4.9,9.4-8.7c-2.4-0.2-6.4-0.7-9.1-1.2C367.5,477.3,365.2,482.4,368.9,484.3z"/>
	<path class="st23" d="M357.1,438.5c0.1,0.5,0.2,0.9,0.5,1.3c1.4,2.9,5.6,9,5.6,9c1.3,0.8,2.3,1.8,3.1,3.1c1.1,1.9,1.5,6.5,1.5,6.5
		s2.6,10.2,3.8,11.6c0.6,0.7,0.3,1.1-0.1,1.4c-0.9,0.5-1.6,1.2-2.1,2c-1.8,2.8-4.6,8.5-0.6,10.4c5.4,2.6,10.4-11.1,10.4-11.1
		s-1-9.7-1.3-11.4s-1.9-8.6-1.9-8.6s-1.1-3-1.8-5s-2.7-4.5-2.7-4.5s-3.6-7.3-4.6-8.3c-0.5-0.5-1.1-1.1-1.7-1.7
		c-0.7-0.6-1.2-1.1-1.2-1.1S357.1,436.9,357.1,438.5z"/>
	<path class="st21" d="M311.6,543.3l12.2,5.4c0,0,15.9,0.3,18.6-0.4s2.2-3.8-1.5-4.4c-3.6-0.6-4.5-2.2-5.7-3
		c-0.8-0.5-3.7-3.7-5.5-5.8c-0.9-1-1.5-1.7-1.5-1.7s-2.4-6.3-8.9-4.8c-1.2,0.3-2.3,0.8-3.2,1.7c-3.5,3.3-3.8,9.7-3.8,9.7
		L311.6,543.3z"/>
	<path class="st14" d="M316.4,474.9l1.6,1c8.5,5.1,31.5,18.9,32.8,18.8c0.3,0,1.3-0.2,2.7-0.4l1.2-0.2c0,0,0-0.1,0-0.1
		c0.7-1.2,1.2-2.4,1.5-3.8c1.4-5.4-5.6-9.5-5.6-9.5l-1.5-1.1c-1.7-2.8-13.8-5.5-13.8-5.5l-1.6-1l-0.8-0.6l-0.2-0.1l-1.9-1.3
		l-9.5,0.7l-2.8,1.8l-0.3,0.2l-1,0.7L316.4,474.9z"/>
	<path class="st14" d="M316.2,530.3c2.6,8.9,13.3,6,13.3,6l0.2-1.1c-0.9-1-1.5-1.7-1.5-1.7s-2.4-6.3-8.9-4.8
		C318.2,528.9,317.1,529.4,316.2,530.3z"/>
	<path class="st22" d="M313.4,489.9c4,0,14.2,4.8,14.2,4.8c2.1,1.6,4.9,1.1,4.9,1.1s-5,5-4.8,7.1s-2.8,5.5-2.8,5.5l-9.1,18.1
		c0.7,12.8,13.8,9.3,13.8,9.3l0.5-3c0.8-0.4,2-4.4,2-4.4s0-1.6,0.8-2.1s2.5-5.3,2.5-5.3s3.6-6.1,3.4-6.9c-0.2-0.8,2.6-4.9,2.6-4.9
		s4.8-4.7,4.6-5.5s3.8-5.1,3.8-5.1c1.5-1.1,2.7-2.5,3.6-4.2c0.7-1.2,1.2-2.4,1.5-3.8c1.1-4.3-3.2-7.8-4.9-9
		c-0.4-0.3-0.7-0.4-0.7-0.4l-1.5-1.1c-0.8-1.3-3.7-2.5-6.6-3.5c-2.1-0.7-4.3-1.3-5.7-1.6c-0.9-0.2-1.5-0.3-1.5-0.3l-1.6-1l-0.5-0.4
		l-0.5-0.3l-1.9-1.3l-4.2,0.3l-5.3,0.4l-2.8,1.8l-1.3,0.9l-5.3,3.4c0,0-0.1,1.3-0.2,3v0.4C310.5,484.9,310.8,489.9,313.4,489.9z"/>
	<path class="st23" d="M333.6,414.6l1.4,5c0,0,2.5,8.7,2.8,9.3s6.8,6.7,7.1,6.9c0.3,0.1,3.8,2.2,3.8,2.2s0.3-11.1,0-14.3
		c0-0.7,0-1.4,0.2-2.1c0.4-2.5,1.5-6.2,2.4-9.1c0.8-2.4,1.4-4.2,1.4-4.2s-15.7-0.7-15.2,0.9c0.2,0.6,0.1,1.6-0.1,2.5
		c-0.3,1.6-1,3.2-1.4,3.1c-0.4-0.1-0.8-0.1-1.2-0.1C334.1,414.6,333.6,414.6,333.6,414.6z"/>
	<path class="st14" d="M337.4,411.6c3.9,3.3,9.6,3.6,13.9,0.8c0.8-2.4,1.4-4.2,1.4-4.2s-15.7-0.7-15.2,0.9
		C337.7,409.7,337.6,410.7,337.4,411.6z"/>
	<path class="st23" d="M356.5,402.3c0,1.2-0.2,2.5-0.6,3.6c-0.1,0.3-0.2,0.6-0.3,0.9c-2.5,5.9-9.3,8.7-15.2,6.2
		c-2.9-1.2-5.2-3.6-6.4-6.6c-0.5-1.2-0.7-2.5-0.7-3.8c0-0.1,0-0.1,0-0.2c-0.1-6.4,5-11.7,11.4-11.8s11.7,5,11.8,11.4
		C356.5,402,356.5,402.2,356.5,402.3L356.5,402.3z"/>
	<path class="st14" d="M333.6,414.6l1.4,5c0,0,2.5,8.7,2.8,9.3s6.8,6.7,7.1,6.9c0.3,0.1,3.8,2.2,3.8,2.2s0.3-11.1,0-14.3
		c0-0.7,0-1.4,0.2-2.1l-0.9,3.7l0.1,7.5l0.5,0.4l-1.2,1.8v-1.3c0,0-4.3-4.2-5-5.9s-3.1-4.9-3.1-4.9s-2.8-4.6-2.8-5.4
		c-0.1-0.6-1.2-2.1-1.7-2.7C334.1,414.6,333.6,414.6,333.6,414.6z"/>
	<path class="st14" d="M357.1,438.5c0.1,0.5,0.2,0.9,0.5,1.3c1.5-0.2,6.5-1.1,7.6-6.8c-0.7-0.6-1.2-1.1-1.2-1.1
		S357.1,436.9,357.1,438.5z"/>
	<path class="st14" d="M310.5,481.4c1.3-1,2.6-2.3,3.4-2.6c1.1-0.5,2.9-2.3,2.9-2.3s0.4-0.3,1.1-0.7c1.2-0.7,3.3-1.8,4.9-1.9
		c1.4-0.1,6.1-0.4,9.7-0.6l4.8-0.3c0,0,4.4-1.5,6.3-0.5c1.3,0.7,2.8,1.2,4.2,1.5c0,0,0-0.1,0-0.4l0,0l-1.4-2.3l-14.9,1.3l-1.9-1.3
		l-9.5,0.7l-2.8,1.8l-2.4,0.2l1.1,0.7l-5.3,3.4C310.7,478,310.5,479.5,310.5,481.4z"/>
	<path class="st24" d="M308.5,482c0.7-0.2,1.4-0.6,2-1l0,0c1.3-1,2.6-2.3,3.4-2.6c1.1-0.5,2.9-2.3,2.9-2.3s3.6-2.4,6-2.6
		c0.7-0.1,2-0.1,3.7-0.3c1.7-0.1,3.7-0.2,5.5-0.3l2.9-0.2l2.5-0.2c0,0,4.4-1.5,6.3-0.5c1.3,0.7,2.8,1.2,4.2,1.5c0,0,0.1-4.7,0.6-6.7
		c0.5-1.9,1.3-5.5,1.3-5.5s0.6-4.9,1.2-7.1c0.6-2.2,3-14.6,4.2-15.4s1.9,0.6,1.9,0.6s8.1-0.1,8.2-9c0,0-3.8-3.8-4-4.7
		s-3.8-4.4-3.8-4.4s-2-3.8-4.3-3.8c-1.1-0.1-2.2,0-3.2,0.1l-1.9,7.9l0.1,7.5l0.5,0.4l-1.2,1.8v-1.3c0,0-4.3-4.2-5-5.9
		s-3.1-4.9-3.1-4.9s-2.8-4.6-2.8-5.4c-0.1-0.8-1.9-3-1.9-3c-0.4,0-0.8,0-1.1,0c-0.2,0-0.3,0-0.5-0.1c-1.1-0.3-2.2-0.4-3.4-0.2
		c-2.3,0.5-5.9,1.4-6.8,2.4c-1.5,1.6-3.6,3.2-6.1,9.9l13,4.7l-1.1,2.1L318,453.2c0,0-0.3,0.6-0.8,1.3l0,0c-0.6,1-1.4,2.2-1.9,2.9
		c-0.9,1.2-0.7,5-0.7,5s-0.2,1.8-0.9,2.5s-0.5,3.2-0.5,3.2l-1.7,6.5c0,0-1.6,1.5-1.6,2.2s-1.3,2.6-1.3,2.6S306.6,482.5,308.5,482z"
		/>
	<path class="st14" d="M377.4,486.9c0,0-4.2,1.4-5.4,3.4S377.4,486.9,377.4,486.9z"/>
	<path class="st14" d="M375.2,482.4c-0.1,0.2-5.8,5.9-5.4,7.3S375.2,482.4,375.2,482.4z"/>
	<path class="st14" d="M344.1,486.5c0,0-6.3,3-6.9,4.3C336.7,492,344.1,486.5,344.1,486.5z"/>
	<path class="st14" d="M343.7,490.3c0,0-5.7,2.4-6.5,3S343.7,490.3,343.7,490.3z"/>
	<path class="st14" d="M341.1,495.5c0,0-2.5,1.9-3.9,0.4C335.8,494.4,341.1,495.5,341.1,495.5z"/>
	<path class="st14" d="M350.6,446.4c-0.1,0.2-8.5,15.3-10.8,16.5C337.6,464,350.6,446.4,350.6,446.4z"/>
	<path class="st14" d="M350.2,452.1c0,0.3-8.2,17.9-9.5,18.1S350.2,452.1,350.2,452.1z"/>
	<path class="st14" d="M319,463.4c0,0-3.9,8.5-5.5,8.9C311.9,472.8,319,463.4,319,463.4z"/>
	<path class="st14" d="M318.3,459.6c0,0-1.4,3-2.2,3S318.3,459.6,318.3,459.6z"/>
	<path class="st14" d="M356.5,402.3c0,1.2-0.2,2.5-0.6,3.6c-0.1,0.3-0.2,0.6-0.3,0.9c-0.6-0.1-1.2-0.3-1.6-0.7
		c-0.5-0.3-0.9-0.8-1.2-1.3c-0.2-0.5-0.4-1.1-0.6-1.7c-0.5-1.3-1.8-2.2-3.2-2.4c0.4,0.7-0.2,1.6-1,1.7c-0.8,0.1-1.5-0.3-2-0.9
		c-0.5-0.6-0.9-1.2-1.4-1.8s-1.3-1-2-0.9c-0.7,0.1-1.2,0.6-1.7,1s-1.3,0.6-1.9,0.2c-0.3-0.2-0.5-0.6-0.7-0.9c-0.7-0.6-1.9,0-2.4,0.8
		c-0.8,1.2-1.3,2-2.5,2.6c0-0.1,0-0.1,0-0.2c-0.1-6.4,5-11.7,11.4-11.8s11.7,5,11.8,11.4C356.5,402.1,356.5,402.2,356.5,402.3
		L356.5,402.3z"/>
	<path class="st25" d="M335.7,399.6c0.5-0.8,1.7-1.4,2.4-0.8c0.3,0.2,0.4,0.6,0.7,0.9c0.5,0.4,1.3,0.2,1.9-0.2
		c0.6-0.4,1.1-0.9,1.7-1c0.8-0.1,1.5,0.3,2,0.9c0.5,0.6,0.9,1.2,1.4,1.8s1.3,1,2,0.9c0.8-0.1,1.4-1,1-1.7c1.4,0.2,2.6,1.1,3.2,2.4
		c0.2,0.6,0.4,1.1,0.6,1.7c0.3,0.5,0.7,1,1.2,1.3c0.6,0.5,1.4,0.8,2.1,0.7c0.8-0.1,1.4-1,1-1.7c0.2,0.4,0.8-0.1,0.8-0.6
		c0.2-0.9,0.1-1.9-0.2-2.8c-0.4-1.2-1.1-2.5-0.9-3.8c0.2-1,1.1-1.7,1.6-2.6c0.9-1.6,0.7-3.7-0.4-5.1c-1.2-1.4-3-2.2-4.8-2.1
		c-0.5,0.1-1,0.1-1.5,0c-0.8-0.1-1.6-0.7-2.2-1.2l-5.6-4.4c-0.6-0.6-1.3-1-2.1-1.3c-0.8-0.2-1.7-0.2-2.4,0.4
		c-1.1,1.1-0.4,2.9-0.8,4.3c-0.4,1.2-1.5,2.1-2.8,2.5c-1.2,0.4-2.5,0.5-3.8,0.8c-0.4,0.1-0.7,0.2-1,0.5c-0.3,0.4-0.5,0.9-0.4,1.4
		c0,1.3,0.3,2.5,0.9,3.6c0.7,1.3,1.7,2.5,1.3,3.9c-0.2,0.7-0.8,1.3-1.2,1.8c-1.1,1.2-1.4,3,0.6,2.4C334,402,334.6,401.2,335.7,399.6
		z"/>
	<g class="st18">
		<path class="st19" d="M357.9,402.9c-0.1,0.4-0.6,0.9-0.8,0.6c0.3,0.7-0.3,1.5-1,1.7s-1.5-0.2-2.1-0.7c-0.5-0.3-0.9-0.8-1.2-1.3
			c-0.2-0.5-0.4-1.1-0.6-1.7c-0.5-1.3-1.8-2.3-3.2-2.4c0.4,0.7-0.2,1.6-1,1.7c-0.8,0.1-1.5-0.3-2-0.9c-0.5-0.6-0.9-1.2-1.4-1.8
			s-1.3-1-2-0.9c-0.7,0.1-1.2,0.6-1.7,1s-1.3,0.6-1.9,0.2c-0.3-0.2-0.4-0.6-0.7-0.9c-0.7-0.6-1.9,0-2.5,0.8c-1.1,1.6-1.6,2.4-3.6,3
			c-0.6,0.2-1,0.2-1.2,0c-0.4,1-0.2,1.8,1.2,1.4c1.9-0.6,2.5-1.4,3.6-3c0.5-0.8,1.7-1.4,2.5-0.8c0.3,0.2,0.4,0.6,0.7,0.9
			c0.5,0.4,1.3,0.2,1.9-0.2s1.1-0.9,1.7-1c0.8-0.1,1.5,0.3,2,0.9c0.5,0.6,0.9,1.2,1.4,1.8c0.5,0.6,1.3,1,2,0.9c0.8-0.1,1.4-1,1-1.7
			c1.4,0.2,2.6,1.1,3.2,2.4c0.2,0.6,0.4,1.1,0.6,1.7c0.3,0.5,0.7,1,1.2,1.3c0.6,0.5,1.4,0.8,2.1,0.7c0.8-0.1,1.4-1,1-1.7
			c0.2,0.4,0.8-0.1,0.8-0.6c0.1-0.6,0.1-1.2,0.1-1.8C358,402.6,357.9,402.8,357.9,402.9z"/>
		<path class="st19" d="M332.8,397.1C332.8,397.1,332.8,397.1,332.8,397.1c0.4-1.4-0.7-2.7-1.3-4c-0.5-0.9-0.7-1.8-0.8-2.8
			c0,0.2,0,0.4,0,0.5c0,1.3,0.3,2.5,0.9,3.6C331.9,395.3,332.5,396.2,332.8,397.1z"/>
		<path class="st19" d="M358.5,393.7c-0.5,0.9-1.4,1.6-1.6,2.6c-0.1,0.4-0.1,0.9,0,1.3c0.2-1,1.1-1.7,1.6-2.6
			c0.5-0.9,0.7-1.9,0.5-2.8C359,392.7,358.8,393.2,358.5,393.7z"/>
	</g>
	<polygon class="st21" points="348.1,502.1 346,496.6 335.8,469.5 340.3,468.9 342,466.9 343.4,465 347.1,464.3 350.3,463.7 
		350.3,463.7 353.6,459 357.8,457.3 357.8,457.3 359.6,453.1 368.7,459.9 375.3,464.8 375.8,465.2 388.5,474.7 385.5,484 385.5,484 
		377.4,484.6 377.3,484.7 372.9,494.6 362.7,494.6 362.7,494.6 360,499.7 359.9,499.9 358,503.6 358,503.6 	"/>
	<polygon class="st26" points="348.2,501.1 346.3,495.8 336.7,470.1 341.1,469.5 342.7,467.5 344.1,465.8 347.7,465 350.8,464.4 
		350.8,464.4 354,459.8 358.1,458.2 358.1,458.2 359.9,454.2 368.5,460.5 374.9,465.2 375.4,465.5 387.5,474.4 384.5,483.3 
		384.4,483.3 376.7,484 376.6,484.1 372.2,493.6 362.4,493.8 362.3,493.8 359.7,498.6 359.6,498.9 357.7,502.4 357.7,502.4 	"/>
	<path class="st27" d="M356.7,494.3c-0.2-1.3-0.3-2.5-0.2-3.8c0-0.4,0-0.9,0.3-1.2c0.3-0.3,0.7-0.3,1,0c0,0,0,0,0,0
		c0-0.3,0.4-0.7,0.8-0.7c0.1,0,0.3,0,0.4,0c0.3,0.1,0.7,0,1-0.2c-0.4-0.5-0.7-1.1-0.9-1.7c-0.2-0.6,0-1.3,0.5-1.8
		c0.8-0.7,2.1-0.2,3,0.4l3.8,2.2c0.5,0.3,1,0.6,1.5,1c0.1-0.2,0.2-0.4,0.3-0.6c0.6-1.6,0.8-3.3,0.5-4.9c-0.3-1.6-1.1-3.3-0.2-4.7
		c0.1-0.2,0.3-0.4,0.5-0.4c0.2,0,0.4,0.1,0.4,0.3c0,0,0,0,0,0.1c0.1-0.5,0.2-1,0.4-1.5c0.2-0.5,0.5-1,0.9-1.4c0.8-0.8,2-1.2,3-0.7
		c0.2,0.1,0.4,0.2,0.7,0.3c0.4,0.1,0.7-0.1,1-0.3c0.2-0.2,0.3-0.4,0.4-0.7c0.1-0.6,0-1.2-0.3-1.8c-0.4-1.1-0.9-2.1-1.5-3.1
		c-0.3-0.5-0.6-1-0.5-1.5c0.1-0.4,0.4-0.8,0.8-1c0.5-0.3,0.9-0.6,1.5-0.8l12.1,8.9l-3,8.9h0l-7.8,0.7l-0.1,0.1l-4.4,9.5l-9.9,0.2h0
		l-2.6,4.8l-0.1,0.3c-0.1,0-0.2-0.1-0.3-0.1c-0.4-0.3-0.8-0.7-1.1-1.1C357.5,496.7,357,495.5,356.7,494.3z"/>
	<path class="st27" d="M347.7,465l3-0.6l0,0l3.3-4.6l4-1.6l0,0l1.8-4l8.6,6.3l-0.1,0.1c-0.4,0.6-0.7,1.3-1,2
		c-0.2,0.3-0.2,0.6-0.2,0.9c0.1,0.5,0.3,0.9,0.6,1.2c1.1,1.2,2.3,2.4,3.5,3.4c-0.5,0.2-1,0.1-1.4-0.2c0.1,0.4-0.1,0.9-0.5,1.1
		c-0.1,0.1-0.3,0.2-0.4,0.2c-0.6,0.1-1.2,0.1-1.8,0c-0.8-0.1-1.6-0.3-2.3-0.7c-1.7-0.9-2.6-2.7-3.4-4.4c-0.3,0.9-0.9,1.6-1.4,2.3
		c-0.3,0.4-0.5,0.9-0.5,1.3c-0.1,0.3,0,0.6,0.2,0.9c0.3,0.3,0.6,0.5,0.9,0.7c0.9,0.6,1.2,1.8,1.4,2.9c0.1,0.3,0.1,0.7,0,1
		c-0.1,0.3-0.4,0.6-0.8,0.5c-0.4-0.1-0.5-0.7-0.8-1.1c-0.4-0.5-1.2-0.6-1.8-0.8c-0.8-0.2-1.5-0.7-2-1.3c-0.1,0.6-0.1,1.1-0.1,1.7
		l0,0c0,0.1,0,0.1,0,0.2c-2-1-3.9-2.3-5.5-3.8c0.5-0.3,0.6-0.9,0.4-1.4c-0.1-0.1-0.2-0.3-0.3-0.3c-0.3-0.1-0.6-0.2-0.9-0.2
		C349.3,466.7,348.4,465.9,347.7,465z"/>
	<path class="st27" d="M346.3,495.8l-9.6-25.7l4.4-0.6l1.6-2c0.3,0.5,0.6,1,1,1.4c1,1.4,2.4,2.5,3.8,3.6c0.2,0.1,0.3,0.2,0.5,0.3
		c0.2,0,0.5,0,0.7,0l0,0c0.7-0.2,1.7-0.4,2,0.3c0.1,0.2,0.1,0.5,0.2,0.7c0.2,0.5,0.8,0.6,1.3,0.5s1-0.4,1.5-0.5
		c0.7-0.2,1.5,0.1,2.1,0.6c0.6,0.6,1.1,1.7,2,1.7c0.5-0.1,0.9-0.3,1.1-0.7l0.1-0.2l1.5,1.5l2.1-0.9c0.6,0.8,0.7,1.9,0.2,2.7
		c-0.2,0.3-0.5,0.5-0.7,0.8c-0.1,0.1-0.1,0.1-0.2,0.2c-0.4,0.6-0.6,1.3-1.1,2c-0.8,1-2,1.5-3.3,1.5c-0.8,0-1.6-0.1-2.4-0.3
		c-0.4-0.1-0.9-0.2-1.3-0.3c0.7,0.6,1.2,1.2,1.7,2c0.4,0.8,0.5,1.7,0.1,2.5c-0.5,0.9-1.6,1.3-2.6,0.9l0.9,0.9c-1,0.6-1.2,2-0.9,3.2
		c0.4,1.1,1.1,2.1,1.3,3.3c0,0.2,0.1,0.5,0,0.7c0,0.2-0.1,0.3-0.1,0.5c-0.4,0.8-1.6,0.9-2.5,0.6c-1.6-0.5-2.9-1.6-3.6-3.1
		c-0.5,0.7-0.8,1.6-0.7,2.4C347.4,496.2,346.9,496,346.3,495.8z"/>
	<polygon class="st14" points="354,459.8 358.1,458.2 358.1,458.2 369.5,469.1 375.1,474.4 384.4,483.3 376.7,484 376.6,484.1 
		369.6,476.6 360.2,466.5 	"/>
	<polygon class="st14" points="362.4,493.8 359,488.6 355.1,482.7 348.7,472.8 344.1,465.8 347.7,465 350.8,464.4 350.8,464.4 
		356.7,472.4 356.7,472.4 358.8,475.4 361.9,479.5 368,487.9 372.2,493.6 	"/>
	<polygon class="st14" points="348.2,501.1 346.3,495.8 336.7,470.1 341.1,469.5 354.4,495.8 357.7,502.4 357.7,502.4 	"/>
	<path class="st14" d="M317.2,454.5L317.2,454.5c0.1,0.4,0.2,0.7,0.2,1.1c0,0,5.3,12.4,6,13.2c0.2,0.2,1,1.3,2,2.8l1.1,1.7
		c2,3,4.3,6.4,4.3,6.4l5,4.4c0,0,10.8,0.9,14.3-2.6c-0.4-0.3-0.7-0.4-0.7-0.4l-1.5-1.1c-0.8-1.3-3.7-2.5-6.6-3.5c-2.7,0-5,0.2-5,0.2
		l-0.7-1.9l-0.7-1.9l-3.8-9.9c0,0-2.4-12.5-3.2-13.1c-0.8-0.6-0.6-2.5-0.6-2.5s1.5-5.3,0.9-6.1c-0.5-0.7,0.9-6.2,0.9-6.2
		c-0.1-0.5-0.4-1-0.6-1.5L318,453.2C318,453.2,317.7,453.7,317.2,454.5z"/>
	<path class="st23" d="M329.2,434.6c0,0-1.4,5.4-0.9,6.2c0.5,0.7-0.9,6.1-0.9,6.1s-0.2,1.9,0.6,2.5c0.8,0.6,3.2,13.1,3.2,13.1
		l5.2,13.7c0,0,16.3-1.6,14.6,3.5s-15.1,4-15.1,4l-5-4.4c0,0-6.7-10.1-7.4-10.9s-6-13.2-6-13.2s-0.3-2.5-1.4-3.8
		c-1.1-1.3-0.3-3.4-0.3-3.4s-1.4-16.3,0.1-18.2C317.4,427.8,327.6,428.7,329.2,434.6z"/>
	<path class="st14" d="M320.9,424.3l-4.2,2.6c0,0-1.2,4.1-2.2,4.6c0,0,8.5-4.7,14.9,6.1c0,0-0.2-1.4,0.7-2.1s0.7-3.6,0.7-3.6
		c0.2-0.5,0.4-0.9,0.6-1.4C331.9,429.1,328.7,420.7,320.9,424.3z"/>
	<path class="st24" d="M320.7,424.1l-4.2,2.6c0,0-1.2,4.1-2.2,4.6c0,0,8.5-4.7,14.9,6.1c0,0-0.2-1.4,0.7-2.1
		c0.9-0.7,0.7-3.6,0.7-3.6c0.2-0.5,0.4-0.9,0.6-1.4C331.7,428.9,328.6,420.4,320.7,424.1z"/>
	
		<linearGradient id="SVGID_3_" gradientUnits="userSpaceOnUse" x1="270.2778" y1="514.2147" x2="270.2778" y2="614.2234" gradientTransform="matrix(1 0 0 -1 -44.68 1017.83)">
		<stop  offset="0" style="stop-color:#7F8080;stop-opacity:0.25"/>
		<stop  offset="0.54" style="stop-color:#7F8080;stop-opacity:0.12"/>
		<stop  offset="1" style="stop-color:#7F8080;stop-opacity:0.1"/>
	</linearGradient>
	<path class="st28" d="M220.9,459.5c-0.6,0.3-1.1,0.7-1.6,1.1c-0.1,0.1-0.2,0.2-0.3,0.2c0,0.1,0.1,0.2,0.1,0.3
		c0-0.1,0.1-0.2,0.1-0.2l0.1-0.1c0,0,0-0.1,0.1-0.1c0.1-0.1,0.1-0.2,0.2-0.3l1.6-1.1C221,459.4,220.9,459.4,220.9,459.5z
		 M220.9,459.5c-0.6,0.3-1.1,0.7-1.6,1.1c-0.1,0.1-0.2,0.2-0.3,0.2c0,0.1,0.1,0.2,0.1,0.3c0-0.1,0.1-0.2,0.1-0.2l0.1-0.1
		c0,0,0-0.1,0.1-0.1c0.1-0.1,0.1-0.2,0.2-0.3l1.6-1.1C221,459.4,220.9,459.4,220.9,459.5z M271.5,498.5c0.5-1.4-5.2-3.3-7.1-3.9
		v-0.1l-0.1,0l-0.5-0.2c0,0-0.9-0.6-1.9-1.4l-0.1-0.2l-0.2,0.1c-0.5-0.4-1.1-0.7-1.6-1.1c0,0,0.1,0,0.1,0l0-0.3
		c-0.1,0-0.2,0.1-0.3,0.1v-0.1c-0.1,0-0.1,0-0.2,0.1c-0.5-0.3-1-0.6-1.3-0.8c-0.3-0.2-0.9-0.6-1.5-1.1l0,0c-0.6-0.5-1.4-1.1-2.2-1.7
		c0-0.1,0.1-0.2,0.1-0.2l0.1-0.3l-0.3,0.2h0l0.1-0.2l-0.3,0.2l-0.1,0l-0.8-0.6l0,0l0,0c0,0,0,0,0.1,0l0.3-0.2l0.4-0.2l0.4-0.2l0.1,0
		l1.2-0.7c2.7-1.5,4.9-3.6,6.6-6.2c2.2-3.5-0.2-6.7-1.8-8.6l0-0.1c0.1,0,0.2-0.1,0.3-0.1l0,0c0.7-0.3,1.2-0.9,1.2-1.7
		c0-0.2,0-0.5-0.1-0.7c-0.3-0.8-0.9-3.1-0.1-4c0.2-0.2,0.5-0.3,0.8-0.3c1.5-0.1,3.7-0.3,5-0.7c0.3-0.1,0.5-0.2,0.7-0.4
		c0.2-0.1,0.3-0.3,0.3-0.6c0-0.8-0.3-2-1.1-2.6c0,0-0.1-0.1-0.2-0.1c0,0,0,0,0,0c-0.4-0.3-1-0.4-2-0.4c-1.8,0-3.6-0.2-5.3-0.6
		l-0.1,0.1l-0.2-0.2l-0.2-0.2l-3.7-3.6l-0.8,0.8l-0.4-0.4l-0.8-0.8l-0.1,0l-1.5-1.4c-0.3-2.9-0.9-5.7-1.9-7.5
		c-0.4-0.8-0.9-1.4-1.6-1.9l-1.8-1.7l-0.1-0.1l0.1-0.1l0,0c0,0,0.1-0.1,0.1-0.1c0.1-0.1,0.2-0.3,0.3-0.4c0.3-0.7,0.2-1.6-0.4-2.1
		l-0.1-0.1c-0.7-0.7-1.8-0.7-2.6-0.1c0,0-0.1,0.1-0.1,0.1l0,0c0,0,0,0.1-0.1,0.1l-0.5-0.5c-0.8-0.8-2-0.8-2.8,0l-2.6,2.6
		c-0.2-0.7-0.5-1.4-0.8-2c-0.7-1.5-3.2-2.8-5.7-3.7l0,0c-1.2-0.4-2.4-0.8-3.3-1.1l0,0c-0.6-0.2-1.1-0.3-1.4-0.4l0,0l-0.1,0l0,0
		c-0.3-0.1-0.4-0.1-0.5-0.1l0.1-0.2c0,0,0.1-0.1,0.1-0.1l0.2-0.2c0,0,0.1-0.1,0.1-0.1c0.2,0.1,0.3,0.2,0.5,0.3l0,0
		c5.2,3,11.9,1.6,15.4-3.3c0.1-0.1,0.1-0.2,0.2-0.3c0-0.1,0.1-0.1,0.1-0.2c0,0,0-0.1,0.1-0.1c0-0.1,0.1-0.1,0.1-0.2l0.2,0
		c0.8-0.1,1.7-0.3,2.1-1c0.1-0.1,0.1-0.2,0.1-0.2l0,0c0-0.1,0.1-0.1,0.1-0.2l0,0c0-0.1,0.1-0.2,0.1-0.2l0,0c0.1-0.3,0.1-0.7,0.2-1
		c0-0.1,0-0.2,0-0.3l0,0c0-0.1,0-0.2,0-0.2l0,0c0.2,0.2,0.5,0.4,0.7,0.7c0,0,0,0,0.1,0.1c0,0,0-0.1,0-0.1l0,0v-0.1
		c0-1,2-1.2,2.6-1.8c0.2-0.1,0.2-0.4,0.2-0.6c0.1,0,0-0.6-0.1-1c0-0.2-0.1-0.4,0-0.4l0.1,0c0.3-0.2,0.2-0.5,0.1-0.8
		c0-0.1,0-0.2,0.1-0.3c0-0.1,0.1-0.2,0.2-0.2c0.4-0.4-0.6-0.6-0.1-0.8c-0.2-0.7-0.4-1.3-0.7-2c-0.1-0.4-0.3-0.7-0.4-1.1
		c-0.1-0.2-0.2-0.4-0.4-0.5c-0.4-1.5-1.3-2.8-2.6-3.7c-0.8-0.6-1.6-1-2.4-1.5c-1.9-1.4-2.9-3.7-4.4-5.5c-0.7-0.9-1.7-1.6-2.7-2.1
		c-1-0.5-2.2-0.6-3.2-0.2c-0.1,0-0.1,0.1-0.2,0.1c-1.5,0.7-2.3,2.5-3.7,3.5c-1.9,1.4-4.6,1-7,0.7c-2.5-0.3-5-0.2-7.4,0.1
		c-0.4,0-0.7,0.1-1.1,0.4c-0.3,0.3-0.4,0.7-0.4,1.1c0,0.1,0,0.3,0,0.4c0,0,0,0.1,0,0.1c0,1.7,0.7,3.3,0.8,5c0,0.2,0,0.3,0,0.5
		c-0.2,2.1-1.7,3.8-3.5,4.9c-1.6,0.9-3.6,1.9-3.5,3.7v0.1c0,0.1,0,0.1,0,0.2c0,0.3,0.1,0.6,0.2,0.8c-1.8,0-3.1-0.1-3.1-0.1
		c-1.8-0.2-3.6,0-5.3,0.7c-1.6,0.7-3,1.9-4,3.4c-0.5,0.7-0.9,1.5-1.3,2.4c0,0-1.9,9-3.8,11.3c-1.9,2.4-2.1,5.7-2.1,5.7
		c-0.3,1-0.6,2-0.9,2.9c-0.3,0.9-0.7,1.7-1.1,2c-1,0.9-0.5,2.3-0.5,2.3s-1.2,1.2-1.1,1.9c0.1,0.7-0.6,2.4-0.6,2.4s-0.7,1.7-0.4,2.6
		c0.2,0.5-0.3,1.8-0.8,2.7l-0.4,0c-0.5,1-0.9,2.1-1.2,3.2c-0.2,0.6-0.3,1.1-0.3,1.7c0.1,1.6-1.1,4.5-1.1,4.5
		c-0.5,1.6-0.8,3.2-0.8,4.9v0.1c-0.1,3.2,0.8,7.1,4.4,9.9c1.4,1,2.9,1.8,4.6,2.2c0.5,0.2,1.1,0.3,1.6,0.4l1.3,0.3
		c1.9,1,3.8,1.7,5.8,2.3c1,0.3,2,0.5,3,0.6l0,0c1.7,0.1,3.4,0,5.1-0.5c0.2,0,0.4,0.1,0.6,0.1l0.2,0l0,0h0c3.3,0.4,5.6,0.6,6.7,0.7
		c0,0,0,0,0,0.1l0,0c-0.2,1.1-0.4,1.9-0.4,1.9l0.2,0.2c0,0.1,0,0.1,0,0.1l3,3.7c0.2,0,0.3-0.1,0.4-0.1c0.6-0.3,1.1-0.7,1.5-1.2
		c0.2,0,0.3,0.1,0.5,0.1h0.1c0.3,0,0.5-0.1,0.8-0.1c0,0,0.5-0.4,1.2-0.9l0.1,0.1l0,0l0.5-0.3l0,0l0.4-0.3l1-0.7l0,0l0.1-0.1l0.3-0.1
		c0.1-0.1,0.3-0.1,0.4-0.2c0.2-0.1,0.5-0.2,0.7-0.2c0.5,0,1.3-0.4,2.1-0.9l0.1,0.1c0.1-0.1,0.2-0.2,0.3-0.3l0.2-0.1l0,0
		c0.1-0.1,0.3-0.2,0.4-0.2c0.7-0.4,1.2-0.8,1.2-0.8s8.4-0.9,11.6-1.6c0,0,0,0.1,0,0.1c0,0,0,0.1,0,0.2c-0.3,0-0.6,0-0.8,0l0,0
		c-0.2,0-0.5,0-0.7,0c-0.2,0-0.4,0.1-0.6,0.2c-0.7,0.5,0.4,1.9,0.4,1.9h0c1,0.3,20.3,6.5,22.2,6.7c0.8,0.1,3,0,5.4-0.3l0,0
		c3-0.4,6.3-1,7.7-1.8c0.2-0.1,0.4-0.2,0.5-0.4c0,0,0,0,0-0.1l0,0C273.3,500,272.3,499.1,271.5,498.5z M243.8,458.1l-0.5,0.5
		l-0.6-1.3l0,0l-0.3-0.6l1.2,1.1L243.8,458.1z M216.3,478.1c-0.2,0-0.4,0-0.6,0c0.2-0.9,0.3-1.5,0.3-1.5s0.9-4.1,1.4-7.6
		c0.3-1.9,0.5-3.7,0.4-4.5c-0.1-0.8,0-1.5,0.2-2.3c0.1-0.3,0.2-0.5,0.3-0.8c0.1-0.1,0.1-0.2,0.2-0.4l0.4-0.3c0,0,0,0.1,0.1,0.1
		c0,0.1,0.1,0.2,0.1,0.3l0,0.1l0,0c0.9,2,2.9,4.8,4.7,7.2c2.2,2.9,4.3,5.3,4.3,5.3l1,1.1c-2.3,0.8-4.5,1.6-4.5,1.6l-6.9,1.8
		C217.3,478.2,216.8,478.1,216.3,478.1z M244.7,462l-0.1-0.2l0,0l-0.5-1.1l-0.3-0.7l0.3,0.3l0.2,0.2c0,0.1,0,0.1,0.1,0.2
		c0.1,0.2,0.2,0.3,0.2,0.5C244.7,461.5,244.8,461.7,244.7,462L244.7,462z M220.9,459.5c-0.6,0.3-1.1,0.7-1.6,1.1
		c-0.1,0.1-0.2,0.2-0.3,0.2c0,0.1,0.1,0.2,0.1,0.3c0-0.1,0.1-0.2,0.1-0.2l0.1-0.1c0,0,0-0.1,0.1-0.1c0.1-0.1,0.1-0.2,0.2-0.3
		l1.6-1.1C221,459.4,220.9,459.4,220.9,459.5L220.9,459.5z M220.9,459.5c-0.6,0.3-1.1,0.7-1.6,1.1c-0.1,0.1-0.2,0.2-0.3,0.2
		c0,0.1,0.1,0.2,0.1,0.3c0-0.1,0.1-0.2,0.1-0.2l0.1-0.1c0,0,0-0.1,0.1-0.1c0.1-0.1,0.1-0.2,0.2-0.3l1.6-1.1
		C221,459.4,220.9,459.4,220.9,459.5L220.9,459.5z"/>
	<path class="st29" d="M269.8,498c0,0,3.4,1.5,2,3.2c-1.4,1.6-11.4,2.7-13.4,2.5c-1.9-0.3-21.7-6.7-21.7-6.7s-1.5-1.9,0.2-2.1
		c1.6-0.2,8.6,0.7,8.6,0.7l9.4,0.5L269.8,498z"/>
	<polygon class="st30" points="236.9,463.8 241.3,473.6 247.2,467.8 242.9,460.8 	"/>
	<path class="st30" d="M231.3,429.7c-1.6,1.2-3,2.6-4.4,4.1l-0.2,0.3l0,0c-0.8,0.9-1.4,1.8-2,2.8c-0.5,0.7-0.8,1.5-1.2,2.3
		c-0.9,2.4-0.5,3.7-0.5,3.7c-2.6-2.2-5.1-4.5-7.4-7c-3.8-4-6.9-8.4-3.2-9.1c4.5-0.8,8.3-3.6,10.4-5.5c0.6-0.6,1.2-1.1,1.8-1.8
		C224.5,419.5,241.1,421.8,231.3,429.7z"/>
	<path class="st31" d="M215.1,479.4l9.9-2.6c0,0,9-3.4,9.5-3.5s18.8-4.8,18.8-4.8l-8.7,19.2l-20.5,7l-12.2-1.2L215.1,479.4z"/>
	<path class="st21" d="M216.8,430.9c-0.3-1.5-0.8-4.8-0.2-5.8c0,0-0.8-0.1-3.8,0.5c-3,0.5-7.8,0.3-7.8,0.3s-7.2-1.4-10.3,6.5
		c0,0-1.8,8.9-3.7,11.3c-1.9,2.4-2.1,5.7-2.1,5.7s-1,4-2,4.9s-0.5,2.3-0.5,2.3s-1.2,1.2-1.1,1.9s-0.6,2.4-0.6,2.4s-0.7,1.7-0.4,2.5
		s-1.4,3.7-1.4,3.7l30.8,6.5l8.2-25.7l0.2-10.7c0,0-4.5-0.4-5.1-4.8C216.9,431.8,216.8,431.4,216.8,430.9z"/>
	<path class="st32" d="M191.3,457l-1.1,2c0,0,6.5,1.9,8.9,1.3s10-5.8,10-5.8L191.3,457z"/>
	<path class="st14" d="M191.3,457l-1.1,2c0,0,6.5,1.9,8.9,1.3s10-5.8,10-5.8L191.3,457z"/>
	<path class="st33" d="M196.3,467.7c0,0-6.3-1.3-7.3-1.3s-5.9-0.5-5.9-0.5s-1.5,3.3-1.5,4.9s-1.1,4.5-1.1,4.5s-4.8,14.3,9.6,17.4
		s23,3.5,23,3.5s4.7-13.4,5.6-15.2s0.6-3.1-3.6-2.7C210.9,478.7,196.3,467.7,196.3,467.7z"/>
	<path class="st21" d="M246,465.3l-0.3,0c-0.4,0-1,0.1-1.8,0.1c-1.2,0.1-2.8,0.3-4.1,0.5c-0.7,0.1-1.3,0.2-1.8,0.3
		c-0.6,0.1-1,0.3-1,0.5c0,0.4-3.6-6.9-7.1-14.2l-0.3-0.7c-0.1-0.2-0.2-0.5-0.3-0.7l-0.6-1.2c-0.9-1.8-1.7-3.6-2.5-5.1
		c-0.1-0.3-0.3-0.6-0.4-0.9l-2.3-4.7c-0.3-0.6-0.5-1-0.5-1s0.6-0.7,1.3-1.5c0.7-0.9,1.7-1.9,2.3-2.6h0l0,0c0.6,0.1,9.4,2.2,10.8,5.3
		c0.4,1,0.8,2,1.1,3.1c0.1,0.4,0.2,0.7,0.3,1.1c0.5,1.6,0.9,3.4,1.4,5.2c0.1,0.3,0.2,0.7,0.3,1c1,3.9,1.7,7.2,1.7,7.2l2.4,5.3
		L246,465.3z"/>
	<path class="st30" d="M252.4,464.9c0,0-2,6.9-2.9,9.6c-0.1,0.4-0.2,0.7-0.4,1c-1.1,0.9-2.3,1.4-3.7,1.7c-0.3,0-0.5,0.1-0.8,0
		c-0.4,0-0.8-0.1-1.2-0.3c-2.2-1.1-3.7-3.9-3.7-3.9l0.7-1.3l1.1-2l2.3-4.2l0.2-0.4c0.2-0.5,0.3-1,0.4-1.6c0.1-0.4,0.1-0.8,0.1-1.2
		c0-0.5-0.1-0.9-0.3-1.3c-0.8-1.1-0.9-20.1,4-17.4C253.3,446.3,252.4,464.9,252.4,464.9z"/>
	<path class="st30" d="M253.2,468.8l0.3-0.2c0,0,4.9-0.1,5.9,1.4c1,1.5,5.2,5.3,2.6,9.6c-1.6,2.6-3.8,4.7-6.4,6.2
		c0,0-14,7.9-16.6,8.7s-11.9,1.7-11.9,1.7s-2.9,2.1-4.1,2.2c-1.2,0.1-4.6,2.6-4.6,2.6s-3.7,1.2-1-3.8c2.8-5,3.1-6.1,3.1-6.1
		s2.7,1.5,4.2,0s10.6-7.2,10.6-7.2s5.9-4.7,7-5.3c1.2-0.6,8.5-4.8,8.5-4.8l0,0C250.9,471.8,251.7,470,253.2,468.8z"/>
	<path class="st29" d="M212.2,498.6l2.9,3.7c0,0,2.7-0.2,4.8-7.2c2.1-7-0.6-7.7-0.6-7.7s-3.9,2.2-5,4
		C213.1,493.1,212.2,498.6,212.2,498.6z"/>
	<path class="st34" d="M212.1,498.2l2.9,3.5c0,0,2.5-0.2,4.4-6.8s-0.6-7.3-0.6-7.3s-3.7,2.1-4.8,3.8
		C212.9,493,212.1,498.2,212.1,498.2z"/>
	<path class="st35" d="M219.7,500.1l-0.1-0.2l0,0c0.5-0.3,1.7-5.3,2.3-8.4l0.3,0.1c-0.2,1.1-1.3,6.2-2.1,8l1.3-0.9
		c0.2-0.4,2.4-4.7,1.2-6.9l-0.1-0.2l1.5-0.2l0,0.1c0.1,0.2,2.7,4.5,1.1,6l-0.2-0.2c1.3-1.3-0.7-5-1.1-5.6l-0.9,0.1
		c1.1,2.4-1.2,6.8-1.3,7l0,0L219.7,500.1L219.7,500.1z"/>
	<path class="st14" d="M209.5,434.3c0.3,0.4,0.5,3.9,1.6,4C212.1,438.4,209.5,434.3,209.5,434.3z"/>
	<path class="st14" d="M203.5,427.5c0,0,2.9,0.3,3.1,3C206.9,433.1,203.5,427.5,203.5,427.5z"/>
	<path class="st32" d="M187.9,460c0,0,1.2,3.5,3.7,4.2L187.9,460z"/>
	<path class="st32" d="M192,460.8c0,0-0.3,2.7,1.6,3.4S192,460.8,192,460.8z"/>
	<path class="st14" d="M190.6,476.6c0,0-5.7,2.8-5.6,3.7S190.6,476.6,190.6,476.6z"/>
	<path class="st14" d="M183.7,476.3c0,0,2.9-3.1,4.9-2.8L183.7,476.3z"/>
	<path class="st14" d="M239,453.3c0,0-0.8,5.7,0.4,6.1C240.6,459.8,239,453.3,239,453.3z"/>
	<path class="st36" d="M190.8,481.9c0,0-2.3,9.8-0.2,10.7c2,1.2,4.2,2.1,6.5,2.8c6.9,2,14.2-1.2,17.2-7.7c0.3-0.6,0.5-1.3,0.7-2
		c0.5-3.5,1.5-8.8,1.5-8.8s2-9.6,1.8-12.1c-0.1-1.5,0.3-3,1.2-4.3l12.8-9.3l-3.5-9.7c0,0-9.2-13-17.4-1s-15,26-15,26
		S191,474.6,190.8,481.9z"/>
	<path class="st14" d="M232.3,450.9l-2.5,1.8c-0.4-0.9-0.9-1.8-1.3-2.6c-2.2-4.6-4.3-8.9-5.1-10.7c-0.9,2.4-0.5,3.7-0.5,3.7
		c-2.6-2.2-5.1-4.5-7.4-7c3.2-1.9,6.4-0.9,8.8,0.7l0.3,0.2c1.6,1.2,3,2.5,4.2,4.1L232.3,450.9z"/>
	<path class="st30" d="M190.8,481.9c0,0-2.3,9.8-0.2,10.7c2,1.2,4.2,2.1,6.5,2.8c6.9,2,14.2-1.2,17.2-7.7c0.3-0.6,0.5-1.3,0.7-2
		c0.5-3.5,1.5-8.8,1.5-8.8s2-9.6,1.8-12.1c-0.1-1.5,0.3-3,1.2-4.3l12.8-9.3l-3.5-9.7c0,0-9.2-13-17.4-1s-15,26-15,26
		S191,474.6,190.8,481.9z"/>
	<path class="st14" d="M239,494.4c0.1-1.6,0.1-5.3,0.1-5.3s-0.1-2.6-2.3-5.7c-0.1-0.2-0.2-0.3-0.4-0.5c1.7-1.4,5.1-4,5.9-4.5
		c0.3-0.2,1.2-0.6,2.2-1.2c-0.4,0-0.8-0.1-1.2-0.3c-2.2-1.1-3.7-4-3.7-4l0.7-1.3l-2.5-5.5c-0.6,0.1-1,0.3-1,0.5
		c0,0.5-4.5-8.8-8.4-16.9c0.9-0.7,1.5-1.2,1.5-1.2l2.8,2.5l5.5,11.8l1,2.2c0,0,0.1,0.3,0.3,0.7c0.4,0.8,1,2.1,1.8,3.8
		c0.4,0.8,0.8,1.6,1.2,2.5c0.8,1.5,1.6,3.1,2.5,4.7c0.1,0.1,0.1,0.2,0.2,0.3c1.9,3.4,3.9,6.4,5.2,7.2c0,0,1.3,1.1,2.9,2.5
		C249.6,489,241,493.7,239,494.4z"/>
	<path class="st36" d="M229.5,448.7l2.8,2.5l6.5,14c0,0,7.6,17.2,11.2,19.2c0,0,6.5,5.5,7.9,6.5c1.5,0.9,5.3,3.7,5.3,3.7
		s11.4,3.3,6.3,4.9c-5.1,1.6-12,0.4-12,0.4s-7.6-1.6-9.8-2.9c0,0-1.3,0.1-2.2,0.1c-0.9,0-7.4-1.1-7.2-2c0.2-0.9,0.2-5.9,0.2-5.9
		s-0.1-2.6-2.3-5.7c-2.2-3.1-7.8-9.4-7.8-9.4s-9.6-11.4-9.4-14.5C219.4,456.4,229.5,448.7,229.5,448.7z"/>
	<path class="st30" d="M229.5,448.7l2.8,2.5l6.5,14c0,0,7.6,17.2,11.2,19.2c0,0,6.5,5.5,7.9,6.5c1.5,0.9,5.3,3.7,5.3,3.7
		s11.4,3.3,6.3,4.9c-5.1,1.6-12,0.4-12,0.4s-7.6-1.6-9.8-2.9c0,0-1.3,0.1-2.2,0.1c-0.9,0-7.4-1.1-7.2-2c0.2-0.9,0.2-5.9,0.2-5.9
		s-0.1-2.6-2.3-5.7c-2.2-3.1-7.8-9.4-7.8-9.4s-9.6-11.4-9.4-14.5C219.4,456.4,229.5,448.7,229.5,448.7z"/>
	<path class="st14" d="M256.8,500.3l-0.2-0.1c1.5-2.8,4.2-4.8,7.3-5.5l0.1,0.3C260.9,495.7,258.3,497.6,256.8,500.3z"/>
	<path class="st14" d="M251.9,498.7l-0.2-0.1c1.6-3.3,9.3-5.5,9.6-5.6l0.1,0.3C261.3,493.3,253.5,495.5,251.9,498.7z"/>
	<path class="st14" d="M255.9,499.4l-0.3-0.1c0.3-0.8,2.7-7.5,4-7.7l0,0.3C258.8,492,257,496.5,255.9,499.4z"/>
	<path class="st35" d="M256.6,500.3l-0.2-0.1c1.5-2.8,4.2-4.8,7.3-5.5l0.1,0.3C260.6,495.7,258,497.6,256.6,500.3z"/>
	<path class="st35" d="M251.6,498.7l-0.2-0.1c1.6-3.3,9.3-5.5,9.6-5.6l0.1,0.3C261,493.3,253.2,495.5,251.6,498.7z"/>
	<path class="st35" d="M255.6,499.4l-0.3-0.1c0.3-0.8,2.7-7.5,4-7.7l0,0.3C258.6,492,256.7,496.5,255.6,499.4z"/>
	<path class="st14" d="M250.9,498.2c-0.2-1.1,2.5-8.5,3.2-10.2c-4.2,2-15.3,4.2-15.5,4.2l-0.1-0.3c0.1,0,11.8-2.4,15.7-4.3l0.3-0.2
		l-0.1,0.3c-1,2.6-3.4,9.4-3.3,10.4L250.9,498.2z"/>
	<path class="st35" d="M250.7,498.2c-0.2-1.1,2.5-8.5,3.2-10.2c-4.2,2-15.3,4.2-15.5,4.2l-0.1-0.3c0.1,0,11.8-2.4,15.7-4.3l0.3-0.2
		l-0.1,0.3c-1,2.6-3.4,9.4-3.3,10.4L250.7,498.2z"/>
	<path class="st14" d="M240.6,449.8c-4.4,0.9-10.3,1.1-10.3,1.1l-0.7,0.9l-0.6,0.7c0,0-5.6,6.9-7.6,7.4c-2,0.5-7.8,7.2-7.8,7.2
		s-4.8,3.2-9,5.7c-4.2,2.5-7.2-3.5-7.2-3.5l-1.5-13.8l9.3-1.8l0.5,4c0,0,6.1-2.5,7-2.7c0.9-0.2,11.3-9.2,12.1-9.4
		c0.5-0.2,1-0.4,1.4-0.7c1-0.6,2.2-1.4,2.2-1.4s5.7-0.6,10.6,0.2c0.5,1.6,0.9,3.4,1.4,5.2C240.4,449.1,240.5,449.5,240.6,449.8z"/>
	<path class="st14" d="M240.3,448.8c-4.4,0.9-10.1,1-10.1,1l-1.1,1.3l-0.3,0.3c0,0-5.6,6.9-7.6,7.4c-2,0.5-7.8,7.2-7.8,7.2
		s-4.8,3.2-9,5.7c-4.2,2.5-7.2-3.5-7.2-3.5l-1.5-13.8l9.3-1.8l0.5,4c0,0,6.1-2.5,7-2.7c0.9-0.2,11.3-9.2,12.1-9.4
		c0.4-0.1,0.7-0.3,1-0.5l0.2-0.1c1.8-1,3.8-1.6,5.9-1.7c2.3-0.1,4.5,0.1,6.8,0.4C239.1,444.3,239.7,446.6,240.3,448.8z"/>
	<polygon class="st14" points="250.7,496.6 253.1,497.9 252,499.5 250,498.6 	"/>
	<polygon class="st37" points="250.7,496.3 253.1,497.6 252,499.2 250,498.3 	"/>
	<polygon class="st14" points="255.5,498.4 258.1,499.1 257.1,500.9 254.7,499.9 	"/>
	<polygon class="st37" points="255.5,498.1 258.1,498.8 257.1,500.6 254.7,499.6 	"/>
	<path class="st14" d="M204.7,458.6c0,0-4.6,2.8-4.3,4.8L204.7,458.6z"/>
	
		<rect x="240.6" y="450.7" transform="matrix(0.7018 -0.7124 0.7124 0.7018 -250.1507 309.7201)" class="st14" width="8.5" height="5.9"/>
	
		<rect x="241" y="451.1" transform="matrix(0.7018 -0.7124 0.7124 0.7018 -250.3086 310.1096)" class="st38" width="8.5" height="5.9"/>
	
		<rect x="242.6" y="454.9" transform="matrix(0.7018 -0.7124 0.7124 0.7018 -250.9457 311.7008)" class="st14" width="8.5" height="1.4"/>
	
		<rect x="243.6" y="454.5" transform="matrix(0.7018 -0.7124 0.7124 0.7018 -251.9056 313.9524)" class="st38" width="10.9" height="6.7"/>
	
		<rect x="245.5" y="459.1" transform="matrix(0.7018 -0.7124 0.7124 0.7018 -252.6789 315.8804)" class="st14" width="10.9" height="1.3"/>
	
		<rect x="246.4" y="458.8" transform="matrix(0.7018 -0.7124 0.7124 0.7018 -253.6877 318.1125)" class="st38" width="13.5" height="6.5"/>
	<path class="st14" d="M252.8,476.9c-0.4,0.2-1.1-0.1-1.3-0.3l0,0c-1.4-1.9-1.5-8-1.5-8l0.1-0.1l-0.4-0.4l9.5-9.6l0.4,0.4l0.1-0.1
		c1.8,0.6,3.7,0.9,5.6,1c1,0,1.4-0.2,1.8,0.1c0.4,0.7,0.6,1.4,0.6,2.2c0,1.3-3.7,1.5-5.9,1.7c-1.8,0.1-0.9,3.3-0.6,4.3
		c0.1,0.2,0.1,0.5,0.1,0.7c-0.2,2-2.5,2.2-4.4,1.7c-2.1-0.5-3,2.2-3,2.2S255.3,475.2,252.8,476.9z"/>
	<path class="st38" d="M253.2,477.3c-0.5,0.4-1.3-0.1-1.7-0.6l0,0c-1.4-1.9-1.5-8-1.5-8l9.7-9.8c1.8,0.6,3.7,0.9,5.6,1
		c1,0,1.4-0.2,1.8,0.1c0.8,0.5,1,1.7,1,2.5c0,1.3-3.7,1.5-5.9,1.7c-1.8,0.1-0.9,3.3-0.6,4.3c0.1,0.2,0.1,0.5,0.1,0.7
		c-0.2,2-2.5,2.2-4.4,1.7c-2.1-0.5-3,2.2-3,2.2S255.7,475.5,253.2,477.3z"/>
	<path class="st14" d="M253.2,477.3c-0.5,0.4-1.3-0.1-1.7-0.6l0,0c-1.4-1.9-1.5-8-1.5-8l9.7-9.8c1.8,0.6,3.7,0.9,5.6,1
		c1,0,1.4-0.2,1.8,0.1c0.8,0.5,1,1.7,1,2.5c0,1.3-3.7,1.5-5.9,1.7c-1.8,0.1-0.9,3.3-0.6,4.3c0.1,0.2,0.1,0.5,0.1,0.7
		c-0.2,2-2.5,2.2-4.4,1.7c-2.1-0.5-3,2.2-3,2.2S255.7,475.5,253.2,477.3z"/>
	<path class="st38" d="M252.6,476.7c-0.5,0.4-0.9,0.2-1.3-0.2l0,0c-1.2-1.7-1.3-7.8-1.3-7.8l9.7-9.8c1.7,0.5,3.5,0.7,5.2,0.6
		c1,0,1.6,0.1,2,0.4c0.7,0.5,0.6,1.3,0.6,2c-0.1,1.2-3.6,1.7-5.7,1.9c-1.7,0.2-1.1,3.1-0.8,4.1c0.1,0.2,0.1,0.5,0.1,0.7
		c-0.3,1.9-2.5,2.2-4.3,1.8c-1.9-0.4-3,2.2-3,2.2S255,474.9,252.6,476.7z"/>
	<path class="st38" d="M246.8,441.9L246.8,441.9c-0.7,0.7-1.9,0.7-2.6,0l-0.1-0.1c-0.7-0.7-0.8-1.9,0-2.7c0,0,0,0,0,0l0,0
		c0,0,0.1-0.1,0.1-0.1c0.7-0.6,1.8-0.6,2.5,0.1l0.1,0.1c0.7,0.7,0.7,1.8,0.1,2.5C246.9,441.8,246.9,441.8,246.8,441.9z"/>
	<path class="st14" d="M246.8,441.9L246.8,441.9c-0.7,0.7-1.9,0.7-2.6,0l-0.1-0.1c-0.7-0.7-0.8-1.9,0-2.7c0,0,0,0,0,0l0,0
		c0,0,0.1-0.1,0.1-0.1l2.7,2.7C246.9,441.8,246.9,441.8,246.8,441.9z"/>
	
		<rect x="239.3" y="451.8" transform="matrix(0.7018 -0.7124 0.7124 0.7018 -249.6232 308.4011)" class="st14" width="8.5" height="1.1"/>
	<path class="st38" d="M244.3,439.6l4,3.9c1.2,1.2,1.2,3.2,0,4.4l0,0l-8.9,9l0,0l-8.4-8.3l0,0l8.9-9
		C241.1,438.4,243.1,438.3,244.3,439.6L244.3,439.6z"/>
	<path class="st14" d="M231.3,429.7c-1.6,1.2-3,2.6-4.4,4.1c-3-2.1-4.7-5.5-4.7-9.2c0-1.1,0.2-2.3,0.5-3.3c0.6-0.6,1.2-1.1,1.8-1.8
		C224.4,419.5,241.1,421.8,231.3,429.7z"/>
	<path class="st30" d="M244.7,424c0,0.1,0,0.2,0,0.3c0,0.7-0.1,1.3-0.2,2c0,0.2-0.1,0.4-0.1,0.6c0,0,0,0,0,0
		c-1.6,6-7.7,9.6-13.7,8.1c-6-1.6-9.6-7.7-8.1-13.7c0.2-0.7,0.4-1.4,0.7-2c0.1-0.3,0.3-0.6,0.5-0.9c0.6-0.9,1.2-1.8,2-2.5l0,0
		c4.5-4.3,11.7-4,15.9,0.5C243.6,418.4,244.7,421.2,244.7,424z"/>
	<path class="st30" d="M230.3,450.4l-1.1,1.3l-0.3,0.3c0,0-0.6,0.7-1.4,1.7c-1.8,2.1-4.8,5.4-6.2,5.7c-2,0.5-7.8,7.2-7.8,7.2
		s-4.8,3.2-9,5.7c-4.2,2.5-7.2-3.5-7.2-3.5l-1.5-13.8l9.3-1.8l0.5,4c0,0,6.1-2.5,7-2.7c0.7-0.2,8.2-6.6,11.1-8.7
		c0.3-0.3,0.7-0.5,1-0.7c0.4-0.2,0.9-0.4,1.3-0.6l0,0c1.8-1,3.8-1.6,5.8-1.7c4.2-0.1,11,0.3,13.3,3
		C248.5,449.8,230.3,450.4,230.3,450.4z"/>
	<path class="st14" d="M201.1,432.2c-0.6,0.1-1.2,0.1-1.9,0.1c-1.6,0-5,1.1-5.9,9.8c-1.3,11.6-3.1,17.4-3.1,17.4s6.8-2.4,10.7-1.7
		c3.9,0.6,9.9-2,9.9-2s-0.3-9.5-0.9-11.4C209.3,442.7,207.3,431.2,201.1,432.2z"/>
	<path class="st21" d="M201.1,431.6c-0.6,0.1-1.2,0.1-1.9,0.1c-1.6,0-5,1.1-5.9,9.8c-1.3,11.6-3.1,17.4-3.1,17.4s6.8-2.4,10.7-1.7
		c3.9,0.6,9.9-2,9.9-2s-0.3-9.5-0.9-11.4C209.3,442.1,207.3,430.7,201.1,431.6z"/>
	<path class="st14" d="M206.5,446c0,0-3.2,2.1-1.8,2.5C206.1,448.9,207.1,448.3,206.5,446z"/>
	<path class="st14" d="M206.2,449.7c0,0-8.7,2.7-5.7,3.9C203.6,454.8,206.2,449.7,206.2,449.7z"/>
	<path class="st14" d="M239.1,430.1l3.9-0.4c1-0.1,2-0.2,2.6-1c0.6-0.8,0.4-1.9,0.7-2.7c0.2-0.6,0.7-1.1,1.1-1.6
		c2.3-3.1,1.6-8-1.5-10.3c-0.8-0.6-1.6-1-2.4-1.5c-1.8-1.4-2.8-3.6-4.3-5.5s-4-3.3-6.1-2.2c-1.5,0.7-2.2,2.5-3.6,3.5
		c-1.9,1.4-4.5,1-6.8,0.7c-2.4-0.2-4.9-0.2-7.3,0.1c-0.4,0-0.7,0.1-1,0.3c-0.3,0.3-0.4,0.7-0.4,1.1c-0.1,2,0.9,4,0.7,6
		c-0.2,2.1-1.7,3.8-3.5,4.9c-1.5,0.9-3.5,1.9-3.5,3.7c0.1,0.6,0.3,1.2,0.6,1.8c2.5,5.1,2.5,11.1,0.1,16.3c-0.3,0.7-0.8,1.5-1.6,1.6
		c2.1,0.6,4.4-0.4,5.4-2.4c0.8-1.7,0.7-4,2.2-5.2c1-0.8,2.5-0.7,3.7-1.3c1.7-0.8,2.6-2.5,3.3-4.2l2.1-4.5c0.6-1.4,1.5-3,2.9-3.7
		c1.5-0.7,3.4,0,5,0.1c2.7,0.2,5.4,0.4,4.6,3.9C238,426.6,238.8,428.8,239.1,430.1z"/>
	<path class="st39" d="M247.3,424c-0.4,0.5-0.9,1-1.1,1.6c-0.1,0.3-0.2,0.7-0.2,1c-0.1,0.6-0.1,1.2-0.5,1.7c-0.6,0.8-1.6,0.9-2.6,1
		c-1.3,0.1-2.6,0.2-3.9,0.4c-0.2-1.3-1-3.5-2.8-2.6c0.8-3.5-2-3.7-4.6-3.9c-1.6-0.1-3.5-0.8-5-0.1c-1.4,0.7-2.3,2.4-2.9,3.7
		l-2.1,4.5c-0.8,1.6-1.7,3.4-3.3,4.2c-1.2,0.6-2.7,0.5-3.7,1.3c-1.5,1.2-1.3,3.5-2.2,5.2c-1,2-3.3,2.9-5.4,2.4
		c0.8-0.1,1.3-0.9,1.6-1.6c2.4-5.1,2.4-11.1-0.1-16.3c-0.3-0.5-0.5-1.1-0.6-1.8c-0.1-1.8,1.9-2.8,3.5-3.7c1.8-1.1,3.3-2.8,3.5-4.9
		c0.2-2-0.8-4-0.7-6c0-0.4,0.1-0.8,0.4-1.1c0.3-0.2,0.7-0.3,1-0.3c2.4-0.3,4.9-0.3,7.3-0.1c2.4,0.2,4.9,0.7,6.8-0.7
		c1.3-1,2.1-2.7,3.6-3.5c2.1-1,4.6,0.4,6.1,2.2s2.4,4,4.3,5.5c0.7,0.6,1.6,1,2.4,1.5c1.3,1,2.3,2.5,2.6,4.1l0,0
		C249,420,248.6,422.2,247.3,424z"/>
	<g class="st18">
		<path class="st19" d="M215,414.4c0.2-1.7-0.5-3.4-0.7-5.1c-0.2,0.3-0.3,0.7-0.3,1c-0.1,1.7,0.7,3.5,0.7,5.2
			C214.8,415.2,214.9,414.8,215,414.4z"/>
		<path class="st19" d="M210.2,436.6c0.8-4,0.3-8.2-1.5-11.8c-0.2-0.4-0.4-0.8-0.5-1.2c-0.3,0.4-0.4,0.9-0.4,1.3
			c0.1,0.6,0.3,1.2,0.6,1.8C209.9,429.8,210.5,433.2,210.2,436.6z"/>
		<path class="st19" d="M247.6,422.2c-0.4,0.5-0.9,1-1.1,1.6c-0.3,0.9-0.1,2-0.7,2.7c-0.6,0.8-1.6,0.9-2.6,1l-3.9,0.4
			c-0.2-1.3-1-3.5-2.8-2.6c0.8-3.5-2-3.7-4.6-3.9c-1.6-0.1-3.5-0.8-5-0.1c-1.4,0.7-2.3,2.4-2.9,3.7l-2.1,4.5
			c-0.8,1.6-1.7,3.4-3.3,4.2c-1.2,0.6-2.7,0.5-3.7,1.3c-1.5,1.2-1.3,3.5-2.2,5.2c-0.8,1.5-2.3,2.5-4,2.5c0,0,0,0.1-0.1,0.1
			c-0.3,0.7-0.8,1.5-1.6,1.6c2.1,0.6,4.4-0.4,5.4-2.4c0.8-1.7,0.7-4,2.2-5.2c1-0.8,2.5-0.7,3.7-1.3c1.7-0.8,2.6-2.5,3.3-4.2l2.1-4.5
			c0.6-1.4,1.5-3,2.9-3.7c1.5-0.7,3.4,0,5,0.1c2.7,0.2,5.4,0.4,4.6,3.9c1.7-0.9,2.5,1.3,2.8,2.6l3.9-0.4c1-0.1,2-0.2,2.6-1
			c0.6-0.8,0.4-1.9,0.7-2.7c0.2-0.6,0.7-1.1,1.1-1.6c0.9-1.2,1.4-2.7,1.4-4.2C248.5,420.8,248.1,421.6,247.6,422.2z"/>
	</g>
	<path class="st14" d="M247.3,424c-0.4,0.5-0.9,1-1.1,1.6c-0.1,0.3-0.2,0.7-0.2,1c-0.3-0.2-0.6-0.5-0.9-0.7c-1.3-0.9-2.8-1.5-4.2-2
		l-6.5-2.5c-1.5-0.6-3.1-1.2-4.6-1.8c-0.6-0.2-1.2-0.4-1.8-0.6l-0.2,0l0,0c-1-0.2-2.1-0.2-3.1,0.1c-0.3,0.1-0.5,0.1-0.8,0.2
		c0-0.1,0-0.2,0-0.3c0-0.2,0-0.3,0-0.5c0.8,0.2,1.5,0.1,2.3-0.2c0.6-0.3,1.1-0.7,1.5-1.1c1.2-1,2.5-1.8,4-2.4c2.2-0.8,4.6-0.9,7-0.8
		c1.2,0,2.4,0.1,3.5,0.4c1.4,0.4,2.8,1,4,1.8c0.8,0.4,1.7,0.9,2.3,1.7l0,0C249,420,248.6,422.2,247.3,424z"/>
	<path class="st40" d="M249.8,421c-0.5,0.2,0.5,0.4,0.1,0.8c-0.6,0.5,0.2,1.1-0.5,1.4c-0.2,0.1,0.3,1.4,0.1,1.5
		c0.4,1.1-2.7,1.1-2.7,2.4v0.3c-0.5-0.6-1.1-1.1-1.7-1.5c-1.3-0.9-2.8-1.5-4.2-2l-6.5-2.5l-4.6-1.8c-0.6-0.2-1.2-0.4-1.8-0.6l-0.2,0
		l0,0c-1-0.2-2.1-0.2-3.1,0.1c-0.3,0.1-0.5,0.1-0.8,0.2c0-0.1,0-0.2,0-0.3c0-0.2,0-0.3,0-0.5c0.8,0.2,1.5,0.1,2.3-0.2
		c0.6-0.3,1.1-0.7,1.5-1.1c1.2-1,2.5-1.8,4-2.4c2.2-0.8,4.6-0.9,7-0.8c1.2,0,2.4,0.1,3.5,0.4c1.4,0.4,2.7,1.1,4,1.8
		c1,0.5,2,1.1,2.5,2c0.2,0.3,0.3,0.7,0.4,1.1C249.3,419.6,249.5,420.3,249.8,421z"/>
	<path class="st14" d="M248.3,424.5c-2-5-11.9-4.9-12-4.9v-0.3c0.4,0,10.2-0.1,12.3,5.1L248.3,424.5z"/>
	<path class="st14" d="M249,422.1c-1.3-3.5-8.8-3.8-8.9-3.8v-0.3c0.3,0,7.7,0.3,9.1,4L249,422.1z"/>
</g>
</svg>
