<?xml version="1.0" encoding="utf-8"?>
<!-- Generator: Adobe Illustrator 24.3.0, SVG Export Plug-In . SVG Version: 6.00 Build 0)  -->
<svg version="1.1" id="圖層_1" xmlns="http://www.w3.org/2000/svg" xmlns:xlink="http://www.w3.org/1999/xlink" x="0px" y="0px"
	 viewBox="0 0 254.3 158.5" style="enable-background:new 0 0 254.3 158.5;" xml:space="preserve">
<style type="text/css">
	.st0{fill:#FFFFFF;}
	.st1{fill:#9EAC3A;}
	.st2{fill:#652323;}
	.st3{fill:#5A652D;}
	.st4{fill:#565EA9;}
	.st5{fill:#86584B;}
	.st6{fill:#C89C89;}
	.st7{opacity:0.1;fill:none;stroke:#040000;stroke-width:0.3361;stroke-miterlimit:10;enable-background:new    ;}
	.st8{fill:url(#SVGID_1_);}
	.st9{fill:#346251;}
	.st10{fill:#274B3D;}
	.st11{fill:#2F5A4A;}
	.st12{fill:#528171;}
	.st13{fill:#2B5E4C;}
	.st14{fill:#315F4D;}
	.st15{opacity:0.1;fill:#040000;enable-background:new    ;}
	.st16{fill:#335F4F;}
	.st17{fill:#265946;}
	.st18{fill:#315F4E;}
	.st19{opacity:0.1;}
	.st20{fill:#040000;}
	.st21{fill:url(#SVGID_2_);}
	.st22{fill:#949394;}
	.st23{fill:#CC8481;}
	.st24{fill:#F7F7F7;}
	.st25{fill:#333333;}
	.st26{fill:#E4ECF5;}
	.st27{fill:#4051A1;}
	.st28{fill:url(#SVGID_3_);}
	.st29{fill:#15152C;}
	.st30{fill:#F9D0C5;}
	.st31{fill:#EBC1B9;}
	.st32{fill:none;}
	.st33{fill:#4A6373;}
	.st34{fill:#040205;}
	.st35{fill:#141534;}
	.st36{fill:#F5B5B5;}
	.st37{fill:#504F7F;}
	.st38{fill:#4F4E5F;}
	.st39{fill:#554B2E;}
	.st40{fill:#FBE4EA;}
	.st41{fill:#B5811C;}
	.st42{fill:#5B401C;}
	.st43{fill:#D19534;}
	.st44{fill:#D69C22;}
	.st45{fill:#636463;}
	.st46{fill:#3A52A3;}
	.st47{fill:#0F1534;}
	.st48{fill:#CCDAEF;}
	.st49{fill:#F2F9F4;}
	.st50{opacity:5.000000e-02;fill:#040000;enable-background:new    ;}
	.st51{fill:#1F234E;}
	.st52{fill:#1C1636;}
	.st53{fill:#F2F2F2;}
	.st54{fill:#5A2C48;}
	.st55{opacity:0.2;fill:#040000;enable-background:new    ;}
	.st56{fill:#848587;}
	.st57{fill:#2C2E13;}
	.st58{fill:#A2A64A;}
	.st59{fill:#8B8B3D;}
	.st60{fill:#565C2A;}
	.st61{fill:#474D24;}
	.st62{fill:#52504A;}
	.st63{fill:#303030;}
	.st64{fill:#255277;}
	.st65{fill:#5F352B;}
	.st66{fill:#565657;}
	.st67{fill:#856F57;}
	.st68{fill:#E3617E;}
	.st69{fill:#3A2428;}
	.st70{fill:#ECA56C;}
	.st71{fill:#BBCFE4;}
	.st72{fill:#B27574;}
	.st73{fill:#F9D3D8;}
	.st74{fill:#555785;}
	.st75{fill:#C99680;}
	.st76{fill:#9C6E5E;}
	.st77{fill:#E8EAF2;}
	.st78{fill:#EDCCC6;}
	.st79{fill:#F5E1DE;}
	.st80{fill:#FDF9F9;}
	.st81{opacity:0.3;fill:#42312E;enable-background:new    ;}
	.st82{fill:#EAEAEA;}
	.st83{fill:#DEA7B1;}
	.st84{fill:#F6BDC3;}
	.st85{fill:#153159;}
	.st86{fill:#555783;}
	.st87{fill:#CC8386;}
	.st88{fill:#F0EFEF;}
	.st89{fill:#42312E;}
	.st90{opacity:0.2;fill:#FFFFFF;enable-background:new    ;}
	.st91{fill:#F0DBDB;}
</style>
<g>
	<path class="st0" d="M49.4,119.3c1.8,0,2.3,0,3.6-0.1c-0.2,1.1-0.2,1.9-0.2,3.6v11.6c0,1.8,0,2.4,0.2,3.6c-1-0.1-1.8-0.1-2.8-0.1
		h-0.8H22.9c-1.8,0-2.2,0-3.6,0.1c0.2-1.3,0.2-1.7,0.2-3.6v-11.6c0-1.8,0-2.3-0.2-3.6c0.9,0.1,1.9,0.1,3.6,0.1h9.5v-10.8H17.9
		c-1.2,0-1.5,0-2.9,0.2v-2.3c1.1,0.1,2,0.2,2.9,0.2h14.5v-7c0-1,0-1.1-0.2-2.9h7.7c-0.2,1.4-0.2,2-0.2,2.9v7h14.9
		c1.1,0,1.7,0,2.9-0.2v2.3c-1.2-0.1-1.8-0.2-2.9-0.2H39.6v10.8H49.4z M26.7,121.2v14.7h19.1v-14.7H26.7z"/>
	<path class="st0" d="M114.2,138.8c-1,0.1-3,0.1-4.1,0.1c-4.6,0.1-5.2,0.1-7.1,0.1c-11.1,0-14.3-0.4-17.2-2c-1.8-1-3.3-2.6-4.3-4.6
		c-1.5,2.3-3.2,4.2-5.1,6.1l-1.3,1.7l-4.2-5.7l2-0.7c1.4-0.5,3.2-1.3,4.6-2.1v-16h-2.8c-1.2,0-1.5,0-2.9,0.2v-2.3
		c1.1,0.1,2,0.2,2.9,0.2h5.6c1.8,0,2.3,0,3.6-0.1c-0.2,1.3-0.2,2-0.2,3.8v13.9c2.4,2.3,4.5,2.7,13,2.7c7.4,0,15.1-0.4,19.3-1.1
		L114.2,138.8z M76.1,97.7c2.2,1.2,4.5,2.6,6.8,4.4l1.8,1.1l-5.7,5.2l-0.9-1.9c-0.9-2.2-2-4.1-4-7.1l-1.1-1.2l1.5-1.3L76.1,97.7z
		 M108.2,110.6c1.8,0,2.3,0,3.6-0.1c-0.2,1.1-0.2,1.9-0.2,3.6v13c0,1.8,0,2.4,0.2,3.6c-1-0.1-1.8-0.1-2.8-0.1h-0.8H91.6
		c-1.8,0-2.2,0-3.6,0.1c0.2-1.3,0.2-1.7,0.2-3.6v-13c0-1.8,0-2.3-0.2-3.6c0.9,0.1,1.9,0.1,3.6,0.1h4.8c0.2-1.1,0.3-3,0.4-4.5h-8.5
		c-1.2,0-1.5,0-2.9,0.2v-2.3c1.1,0.1,2,0.2,2.9,0.2h4.3l-0.1-0.7c-0.5-1.6-1.3-3.8-2-5.3l-0.6-0.9l1.5-1.1l0.8,0.7l1,0.6
		c2.7,1.7,2.9,1.8,4.1,2.5l1.8,1l-4.7,3.1h8.4c0.8-1.7,1.7-4.4,2.2-6.2l0.4-1.7L112,99l-1.8,1.4c-2.1,1.6-3,2.2-5.2,3.7h6.7
		c1.1,0,1.7,0,2.9-0.2v2.3c-1.2-0.1-1.8-0.2-2.9-0.2h-8.2c-1.5,1.7-2.9,3-4.7,4.5H108.2z M94.5,112.5v4h10.8v-4H94.5z M94.5,118.4v4
		h10.8v-4H94.5z M94.5,124.3v4.3h10.8v-4.3H94.5z"/>
	<path class="st0" d="M170.4,133.7c0,1.8,0,2.4,0.2,3.6c-1-0.1-1.8-0.1-2.8-0.1H167h-31.9c-1.8,0-2.2,0-3.6,0.1
		c0.2-1.3,0.2-1.7,0.2-3.6v-24.2c0-1,0-1.1-0.2-2.9h7.2c-0.2,1.4-0.2,2-0.2,2.9v25.8h9.1v-34.3c0-1,0-1.1-0.2-2.9h7.4
		c-0.2,1.4-0.2,2-0.2,2.9v34.3h9.1v-25.8c0-1,0-1.1-0.2-2.9h7.2c-0.2,1.4-0.2,2-0.2,2.9V133.7z"/>
	<path class="st0" d="M195,120.1c-1.9,4.5-4.2,8.5-6.8,12.1l-0.7,1.2l-1.6-1.1l0.8-1c3.1-6.1,5.5-13.9,6.8-22h-3.6
		c-1.2,0-1.5,0-2.9,0.2v-2.3c1.1,0.1,2,0.2,2.9,0.2h5.1v-7.9c0-1,0-1.1-0.2-2.9h6.5c-0.2,1.4-0.2,2-0.2,2.9v7.9h3
		c1.1,0,1.7,0,2.9-0.2v2.3c-1.2-0.1-1.8-0.2-2.9-0.2h-3v4.2c2.4,1.6,4.7,3.4,7.7,5.9l1.1,0.8l-4.4,5.2l-0.7-1.6
		c-1.1-2.8-2.3-5.3-3.7-7.8v20.9c0,0.9,0,1.4,0.2,2.9h-6.5l0-0.5c0.1-1.1,0.2-1.5,0.2-2.4V120.1z M220.7,136.9c0,0.9,0,1.4,0.2,2.9
		h-6.4l0-0.5c0.1-1.1,0.2-1.5,0.2-2.4v-17.3c-1.9,4.9-4.4,9.3-7.3,12.6l-0.9,1.4l-1.6-1.1l1.1-1.3c3.2-5.9,5.9-14.4,7.2-21.9h-2.5
		c-1.2,0-1.5,0-2.9,0.2v-2.3c1.1,0.1,2,0.2,2.9,0.2h3.9v-7.9c0-1,0-1.1-0.2-2.9h6.5c-0.2,1.4-0.2,2-0.2,2.9v7.9h6.4
		c1.1,0,1.7,0,2.9-0.2v2.3c-1.2-0.1-1.8-0.2-2.9-0.2H221c1.5,6.1,4.4,11.3,9.2,16.4l1.3,1.2l-4.2,6.4l-0.9-1.8
		c-2.6-4.6-4.5-10.4-5.7-17.6V136.9z"/>
</g>
<g>
	<path id="Shape_10_" class="st0" d="M143.3,20.8c0,4.2,3.4,7.7,7.7,7.7c4.2,0,7.7-3.4,7.7-7.7s-3.4-7.7-7.7-7.7
		C146.8,13.1,143.3,16.5,143.3,20.8z M151,15.6c2.8,0,5.1,2.3,5.1,5.1s-2.3,5.1-5.1,5.1c-2.8,0-5.1-2.3-5.1-5.1S148.2,15.6,151,15.6
		z"/>
	<path id="Shape_9_" class="st0" d="M152.3,9.1V8c0-0.7-0.6-1.3-1.3-1.3c-0.7,0-1.3,0.6-1.3,1.3v1.2c0,0.7,0.6,1.3,1.3,1.3
		C151.7,10.4,152.3,9.8,152.3,9.1z"/>
	<path id="Shape_8_" class="st0" d="M149.7,32.4v1.2c0,0.7,0.6,1.3,1.3,1.3c0.7,0,1.3-0.6,1.3-1.3v-1.2c0-0.7-0.6-1.3-1.3-1.3
		C150.3,31.1,149.7,31.7,149.7,32.4z"/>
	<path id="Shape_7_" class="st0" d="M163.8,19.5h-1.2c-0.7,0-1.3,0.6-1.3,1.3c0,0.7,0.6,1.3,1.3,1.3h1.2c0.7,0,1.3-0.6,1.3-1.3
		C165.1,20.1,164.5,19.5,163.8,19.5z"/>
	<path id="Shape_6_" class="st0" d="M139.4,22c0.7,0,1.3-0.6,1.3-1.3c0-0.7-0.6-1.3-1.3-1.3h-1.2c-0.7,0-1.3,0.6-1.3,1.3
		c0,0.7,0.6,1.3,1.3,1.3H139.4z"/>
	<path id="Shape_5_" class="st0" d="M161,10.8c-0.5-0.5-1.3-0.5-1.8,0l-0.8,0.8c-0.4,0.4-0.5,0.9-0.3,1.4s0.7,0.8,1.2,0.8
		c0.6,0,0.9-0.3,1.7-1.2C161.5,12.1,161.5,11.3,161,10.8z"/>
	<path id="Shape_4_" class="st0" d="M141,30.7c0.5,0.5,1.3,0.5,1.8,0l0.8-0.8c0.5-0.5,0.5-1.3,0-1.8c-0.5-0.5-1.3-0.5-1.8,0
		l-0.8,0.8C140.5,29.4,140.5,30.2,141,30.7L141,30.7z"/>
	<path id="Shape_3_" class="st0" d="M160.1,28.1c-0.5-0.5-1.3-0.5-1.8,0s-0.5,1.3,0,1.8c0.7,0.7,1,1.2,1.7,1.2c0.5,0,1-0.3,1.2-0.8
		s0.1-1-0.3-1.4L160.1,28.1z"/>
	<path id="Shape_2_" class="st0" d="M142.8,10.8c-0.5-0.5-1.3-0.5-1.8,0s-0.5,1.3,0,1.8c0.7,0.7,1,1.2,1.7,1.2c0.5,0,1-0.3,1.2-0.8
		c0.2-0.5,0.1-1-0.3-1.4L142.8,10.8z"/>
	<path id="Shape_1_" class="st0" d="M164.3,77.1c-15.8,0-14.8,0.1-15.3-0.2l-7.6-5.5c-0.7-0.5-1.4-0.7-2.2-0.7h-3.3
		c0.3-0.9,0.2-0.7,0.2-7l7-12.2h11.7l8.4,14.7c0.2,0.4,0.6,0.7,1.1,0.7c0.5,0,0.9-0.2,1.1-0.6s0.2-0.9,0-1.3l-14.3-25
		c-0.5-0.8-1.3-1.3-2.2-1.3s-1.8,0.5-2.2,1.3l-10.6,18.5V37.3c1.3-1.3,1.6-3.2,0.9-4.8c-0.7-1.6-2.3-2.7-4.1-2.7h-9.7l-7.1-7.1
		c-1.2-1.2-2.9-1.9-4.6-1.9c-0.1-0.2-0.1-0.3-0.2-0.5c2.6-3.1,2.6-7.7-0.1-10.8s-7.2-3.8-10.7-1.6c-3.5,2.2-4.8,6.5-3.3,10.3h-4.7
		c-2.1,0-3.8,1.7-3.8,3.8v3.8c0,0.9,0.5,1.8,1.3,2.2v15.7c0,2.1,1.7,3.8,3.8,3.8v32H90c-0.7,0-1.3,0.6-1.3,1.3
		c0,0.7,0.6,1.3,1.3,1.3h16.7c1.1,0,2.2-0.5,2.9-1.3l6.1-7.2c0.2-0.3,0.6-0.4,1-0.4c24.2,0,22.6-0.1,23.1,0.2l7.6,5.5
		c0.7,0.5,1.4,0.7,2.2,0.7h14.5c0.7,0,1.3-0.6,1.3-1.3C165.6,77.7,165,77.1,164.3,77.1L164.3,77.1z M148.9,41.3l4.4,7.7h-8.8
		L148.9,41.3z M131.4,70.3c-0.2-0.2-0.4-0.6-0.4-0.9V38.7c0.9,0.1,1.7,0,2.6-0.1v30.8c0,0.5-0.3,1-0.8,1.2
		C132.3,70.8,131.7,70.7,131.4,70.3L131.4,70.3z M134.3,32.9c0.5,0.6,0.6,1.4,0.3,2.1s-1.1,1.1-1.9,1.1H131v-3.8
		C133.1,32.3,133.6,32.1,134.3,32.9L134.3,32.9z M128.4,32.3v3.8h-6.2c-1.3,0-2.5-0.7-3.3-1.7l2.4-3l0.1,0.1
		c0.5,0.5,1.1,0.7,1.8,0.7H128.4z M119.5,29.6l-2.4,3l-1.8-1.8c-0.4-0.4-0.9-0.5-1.4-0.3c-0.5,0.2-0.8,0.7-0.8,1.2v12.1h-2.6V28.1
		c0.8-0.5,1.3-1.3,1.3-2.2v-2.5c1,0,1.9,0.4,2.6,1.1L119.5,29.6z M95.1,34.8c-1.4,0-2.6-1.1-2.6-2.6v-3.8h15.4v3.8
		c0,1.4-1.1,2.6-2.6,2.6H95.1z M105,9.2c2.2,0,4.2,1.3,5.2,3.2c1,2,0.7,4.3-0.6,6.1c-1-0.4-0.8-0.3-9.3-0.3c-1.2-1.8-1.3-4-0.3-5.9
		S102.8,9.2,105,9.2z M91.3,22c0-0.7,0.6-1.3,1.3-1.3h15.4c0.7,0,1.3,0.6,1.3,1.3v3.8H91.3V22z M92.6,43.8v-7.1
		c0.8,0.5,1.7,0.7,2.6,0.7V40c0,0.7,0.6,1.3,1.3,1.3c0.7,0,1.3-0.6,1.3-1.3v-2.6h5.1V40c0,0.7,0.6,1.3,1.3,1.3
		c0.7,0,1.3-0.6,1.3-1.3v-2.6c0.9,0,1.8-0.3,2.6-0.7c0,7.7,0.1,7.3-0.2,7.7c-0.2,0.4-0.7,0.6-1.1,0.6H93.9
		C93.2,45.1,92.6,44.5,92.6,43.8z M108.4,47.2c0.4-0.2,0.8-0.5,1.1-0.8h3.5c3.5,0,6.4,2.9,6.4,6.4v11.5h-6.6l-1.1-9.1
		c0-1.4-1.2-2.5-2.6-2.5h-2.6c-1.4,0-2.5,1.1-2.6,2.5l-1.2,18h-6.5V47.6C107.7,47.6,107.3,47.8,108.4,47.2z M96.4,79.6v-3.8h7.7
		c1.4,0,2.6,1.1,2.6,2.6v1.3H96.4z M109.1,77.6c-0.3-2-1.8-3.6-3.7-4.1l1.2-18.1h2.6c0,0.1,0,0.1,0,0.2c1.5,12.2,1.3,8.9,1.3,15.2
		c0,1.3,1,2.4,2.4,2.5L109.1,77.6z M113.1,70.7v-3.8h7.7c1.4,0,2.6,1.1,2.6,2.6v1.3H113.1z M122,64.5V52.8c0-4-2.6-7.4-6.4-8.6v-9.4
		l2,2c1.2,1.2,2.8,1.9,4.5,1.9h6.2c0,33.6-0.1,31.1,0.2,32h-2.8v-1.3C125.9,67.1,124.3,65,122,64.5L122,64.5z"/>
</g>
</svg>
