<?xml version="1.0" encoding="utf-8"?>
<!-- Generator: Adobe Illustrator 24.3.0, SVG Export Plug-In . SVG Version: 6.00 Build 0)  -->
<svg version="1.1" id="圖層_1" xmlns="http://www.w3.org/2000/svg" xmlns:xlink="http://www.w3.org/1999/xlink" x="0px" y="0px"
	 viewBox="0 0 254.3 158.5" style="enable-background:new 0 0 254.3 158.5;" xml:space="preserve">
<style type="text/css">
	.st0{fill:#FFFFFF;}
	.st1{fill:#9EAC3A;}
	.st2{fill:#652323;}
	.st3{fill:#5A652D;}
	.st4{fill:#565EA9;}
	.st5{fill:#86584B;}
	.st6{fill:#C89C89;}
	.st7{opacity:0.1;fill:none;stroke:#040000;stroke-width:0.3361;stroke-miterlimit:10;enable-background:new    ;}
	.st8{fill:url(#SVGID_1_);}
	.st9{fill:#346251;}
	.st10{fill:#274B3D;}
	.st11{fill:#2F5A4A;}
	.st12{fill:#528171;}
	.st13{fill:#2B5E4C;}
	.st14{fill:#315F4D;}
	.st15{opacity:0.1;fill:#040000;enable-background:new    ;}
	.st16{fill:#335F4F;}
	.st17{fill:#265946;}
	.st18{fill:#315F4E;}
	.st19{opacity:0.1;}
	.st20{fill:#040000;}
	.st21{fill:url(#SVGID_2_);}
	.st22{fill:#949394;}
	.st23{fill:#CC8481;}
	.st24{fill:#F7F7F7;}
	.st25{fill:#333333;}
	.st26{fill:#E4ECF5;}
	.st27{fill:#4051A1;}
	.st28{fill:url(#SVGID_3_);}
	.st29{fill:#15152C;}
	.st30{fill:#F9D0C5;}
	.st31{fill:#EBC1B9;}
	.st32{fill:none;}
	.st33{fill:#4A6373;}
	.st34{fill:#040205;}
	.st35{fill:#141534;}
	.st36{fill:#F5B5B5;}
	.st37{fill:#504F7F;}
	.st38{fill:#4F4E5F;}
	.st39{fill:#554B2E;}
	.st40{fill:#FBE4EA;}
	.st41{fill:#B5811C;}
	.st42{fill:#5B401C;}
	.st43{fill:#D19534;}
	.st44{fill:#D69C22;}
	.st45{fill:#636463;}
	.st46{fill:#3A52A3;}
	.st47{fill:#0F1534;}
	.st48{fill:#CCDAEF;}
	.st49{fill:#F2F9F4;}
	.st50{opacity:5.000000e-02;fill:#040000;enable-background:new    ;}
	.st51{fill:#1F234E;}
	.st52{fill:#1C1636;}
	.st53{fill:#F2F2F2;}
	.st54{fill:#5A2C48;}
	.st55{opacity:0.2;fill:#040000;enable-background:new    ;}
	.st56{fill:#848587;}
	.st57{fill:#2C2E13;}
	.st58{fill:#A2A64A;}
	.st59{fill:#8B8B3D;}
	.st60{fill:#565C2A;}
	.st61{fill:#474D24;}
	.st62{fill:#52504A;}
	.st63{fill:#303030;}
	.st64{fill:#255277;}
	.st65{fill:#5F352B;}
	.st66{fill:#565657;}
	.st67{fill:#856F57;}
	.st68{fill:#E3617E;}
	.st69{fill:#3A2428;}
	.st70{fill:#ECA56C;}
	.st71{fill:#BBCFE4;}
	.st72{fill:#B27574;}
	.st73{fill:#F9D3D8;}
	.st74{fill:#555785;}
	.st75{fill:#C99680;}
	.st76{fill:#9C6E5E;}
	.st77{fill:#E8EAF2;}
	.st78{fill:#EDCCC6;}
	.st79{fill:#F5E1DE;}
	.st80{fill:#FDF9F9;}
	.st81{opacity:0.3;fill:#42312E;enable-background:new    ;}
	.st82{fill:#EAEAEA;}
	.st83{fill:#DEA7B1;}
	.st84{fill:#F6BDC3;}
	.st85{fill:#153159;}
	.st86{fill:#555783;}
	.st87{fill:#CC8386;}
	.st88{fill:#F0EFEF;}
	.st89{fill:#42312E;}
	.st90{opacity:0.2;fill:#FFFFFF;enable-background:new    ;}
	.st91{fill:#F0DBDB;}
</style>
<g>
	<path class="st0" d="M27.1,129.3h5.1c1.1,0,1.7,0,2.9-0.2v2.3c-1.2-0.1-1.8-0.2-2.9-0.2h-5.1v5.7c0,0.9,0,1.4,0.2,2.9h-6.2l0-0.5
		c0.1-1.1,0.2-1.5,0.2-2.4v-5.7h-4.8c-1.2,0-1.5,0-2.9,0.2v-2.3c1.1,0.1,2,0.2,2.9,0.2h4.8v-4.7h-2.7c-1.8,0-2.2,0-3.6,0.1
		c0.2-1.3,0.2-1.7,0.2-3.6V112c0-1.8,0-2.3-0.2-3.6c0.9,0.1,1.9,0.1,3.6,0.1h2.7v-4.3H17c-1.2,0-1.5,0-2.9,0.2v-2.3
		c1.1,0.1,2,0.2,2.9,0.2h4.4v-2.8c0-1,0-1.1-0.2-2.9h6.2c-0.2,1.4-0.2,2-0.2,2.9v2.8h4.4c1.1,0,1.7,0,2.9-0.2v2.3
		c-1.2-0.1-1.8-0.2-2.9-0.2h-4.4v4.3h2.8c1.8,0,2.3,0,3.6-0.1c-0.2,1.1-0.2,1.9-0.2,3.6v9.1c0,1.8,0,2.4,0.2,3.6
		c-1-0.1-1.8-0.1-2.8-0.1h-0.8h-2.8V129.3z M21.5,110.5h-1.7v5h1.7V110.5z M19.8,117.4v5.3h1.7v-5.3H19.8z M28.8,115.5v-5h-1.9v5
		H28.8z M26.9,122.6h1.9v-5.3h-1.9V122.6z M49.1,136.4h6.1c1.1,0,1.6,0,2.8-0.2v2.3c-1.2-0.1-1.7-0.2-2.8-0.2H36.2
		c-1.1,0-1.6,0-2.8,0.2v-2.3c1.1,0.1,1.9,0.2,2.8,0.2H43v-10.7h-5.1c-1.1,0-1.6,0-2.8,0.2v-2.3c1.1,0.1,1.9,0.2,2.8,0.2h16.3
		c1.1,0,1.6,0,2.8-0.2v2.3c-1.1-0.1-1.8-0.2-2.8-0.2h-5V136.4z M57.7,101.8c-1.2-0.1-1.7-0.2-2.8-0.2H37.3c-1.2,0-1.6,0-2.8,0.2
		v-2.3c1.1,0.1,1.9,0.2,2.8,0.2h17.6c1.1,0,1.7,0,2.8-0.2V101.8z M42.9,105.4l-0.8,0.9c-1.5,2.2-3.3,4.3-5.2,5.9l0.8,0.8
		c2.1,2.2,3.4,3.7,4.5,5.3l1,1.2l-5.3,2.9l-0.2-1.5c-0.7-3.2-1.7-6.1-3-8.7c1.3-2.4,2.2-5.3,2.6-8.1l0.2-1.2L42.9,105.4z M50,105.4
		l-0.9,0.9c-1.4,2-3.3,4.1-5.5,6c2.2,2,3.8,3.5,5.4,5.5l1.2,1.3l-5,3.1l-0.2-1.7c-1.2-3.5-2.3-6.1-3.6-8.2c1.3-2.3,2.5-5.2,3.1-8.1
		l0.2-1.3L50,105.4z M57.4,105.4l-1,1c-1.6,1.9-3.7,3.9-6.1,5.8c2.3,1.8,4.3,3.6,6,5.6l1.2,1.2l-5.1,3.1l-0.3-1.6
		c-0.8-2.6-2.3-5.7-4-8.3c1.4-2.2,2.8-5.6,3.3-7.9l0.2-1.4L57.4,105.4z"/>
	<path class="st0" d="M102.5,123.9c-1-1.4-1.8-2.4-2.5-3l-1-0.8l1.4-1.3l1,0.4c0.2,0,0.6,0.1,0.8,0.2c0.3,0.1,0.6,0.1,0.8,0.2
		c1.3,0.4,2.3,0.7,3.1,1l1.8,0.4l-3.3,2.8h2.2c1.8,0,2.3,0,3.6-0.1c-0.2,1.1-0.2,1.9-0.2,3.6v7.5c0,1.8,0,2.4,0.2,3.6
		c-1-0.1-1.8-0.1-2.8-0.1H107H84.4c-1.8,0-2.2,0-3.6,0.1c0.2-1.3,0.2-1.7,0.2-3.6V126c-2.4,0.7-4.5,1.3-7.1,2l-1.7,0.6l-0.8-2.1
		l1.7-0.2c7-2.2,13.4-4.8,18.3-7.7H75.2c-1.2,0-1.5,0-2.9,0.2v-2.3c1.1,0.1,2,0.2,2.9,0.2h12.6v-4.4h-4.7c-1.2,0-1.5,0-2.9,0.2V111
		c-2.1,1.1-4.3,2.1-7,3.1l-1,0.5l-0.9-1.6l1-0.3c4.1-2.3,7.8-5.4,10.9-9.1h-8c-1.2,0-1.5,0-2.9,0.2v-2.3c1.1,0.1,2,0.2,2.9,0.2h9.5
		c1-1.3,1.6-2.3,2.4-3.8l0.5-1.5l8,1.1l-1.5,1.6c-1.1,1.4-1.5,1.8-2.2,2.5h19.7c1.1,0,1.7,0,2.9-0.2v2.3c-1.2-0.1-1.8-0.2-2.9-0.2
		H101c3.1,2.2,7.5,4,12.1,4.8l2.3,0.2l-3.3,5.9l-1.4-0.8c-5.6-2.7-9.6-6-12.3-10.2h-8.1c-1.2,1.2-1.8,1.7-2.7,2.4h6.9
		c-0.2,1.4-0.2,2-0.2,2.9v1.6h3c1.1,0,1.7,0,2.9-0.2v2.3c-1.2-0.1-1.8-0.2-2.9-0.2h-3v4.4h0.4c2.8-1.8,4.7-3.3,6.7-5.3l1.1-1.4
		l5.4,3.7l-1.6,0.9c-1.3,0.9-2.2,1.5-3.4,2.2h8.9c1.1,0,1.7,0,2.9-0.2v2.3c-1.2-0.1-1.8-0.2-2.9-0.2H99.6l-0.7,0.4
		c-4.5,2.3-6.6,3.3-11.2,4.9H102.5z M87.6,106c-2,1.7-3.7,2.8-6.3,4.4c0.9,0.1,1,0.1,1.9,0.1h4.7v-1.6c0-0.9,0-1.1-0.2-2.5v-0.1
		L87.6,106z M103.6,125.8h-16v3.9h16V125.8z M87.7,131.7v4.7h16v-4.7H87.7z"/>
	<path class="st0" d="M143.7,128h2.3c1.1,0,1.7,0,2.9-0.2v2.3c-1.2-0.1-1.8-0.2-2.9-0.2h-2.3v3.9c1.1,0,1.7-0.1,4.2-0.4l1.4-0.3
		l0.3,1.8l-1.2,0.3c-4.5,1.7-10,3.4-15.7,4.9l-1.5,0.5l-1.7-6.5l1.9,0.1h0.8v-4.7c0-1,0-1.1-0.2-2.9h5.4c-0.2,1.4-0.2,2-0.2,2.9v4.6
		l0.6,0h0.7l0.3,0v-9.5H135c-1.8,0-2.2,0-3.6,0.1c0.2-1.3,0.2-1.7,0.2-3.1v-2.5c0-1.2,0-1.9-0.2-3.1c0.9,0.1,1.9,0.1,3.6,0.1h10.4
		c1.8,0,2.3,0,3.6-0.1c-0.2,1.1-0.2,1.8-0.2,3.1v2.5c0,1.2,0,1.9,0.2,3.1c-1-0.1-1.8-0.1-2.8-0.1h-0.8h-1.7V128z M168.6,102.8
		c1.8,0,2.3,0,3.6-0.1c-0.2,1.1-0.2,2-0.2,3.7v3.3c0,0.9,0,1.4,0.2,2.9h-7l0-0.5c0.1-1.1,0.2-1.5,0.2-2.4v-4.9h-11.3v6.9
		c0,0.9,0,1.4,0.2,2.9h-6.8l0-0.5c0.1-1.1,0.2-1.5,0.2-2.4v-6.9h-11v4.9c0,0.9,0,1.4,0.2,2.9h-7l0-0.5c0.1-1.1,0.2-1.5,0.2-2.4v-3.3
		c0-1.8,0-2.4-0.2-3.7c0.9,0.1,1.9,0.1,3.6,0.1h14.2v-2.6H136c-1.2,0-1.5,0-2.9,0.2v-2.3c1.1,0.1,2,0.2,2.9,0.2h30.2
		c1.1,0,1.7,0,2.9-0.2v2.3c-1.2-0.1-1.8-0.2-2.9-0.2h-12.1v2.6H168.6z M143.6,118.2h-6.8v4.5h6.8V118.2z M146.2,109.4
		c-1.2-0.1-1.8-0.2-2.9-0.2h-2.2c-1.2,0-1.5,0-2.9,0.2v-2.3c1.1,0.1,2,0.2,2.9,0.2h2.2c1.1,0,1.7,0,2.9-0.2V109.4z M146.2,113.6
		c-1.2-0.1-1.8-0.2-2.9-0.2h-2.2c-1.2,0-1.5,0-2.9,0.2v-2.3c1.1,0.1,2,0.2,2.9,0.2h2.2c1.1,0,1.7,0,2.9-0.2V113.6z M170.3,130.9
		c-0.3-0.1-0.3-0.1-0.5-0.1c-0.1,1.1-0.1,1.4-0.1,3v2.4c0,1.8,0,2.4,0.2,3.6c-1-0.1-1.8-0.1-2.8-0.1h-0.8h-10.6
		c-1.8,0-2.2,0-3.6,0.1c0.2-1.3,0.2-1.7,0.2-3.6v-2.4c0-1.6,0-2.1-0.2-3.2l-0.4,0.1l-0.4,0.1l-1.5,0.6l-0.9-1.8l1.8-0.4
		c2.5-1.1,5.1-2.5,7.6-4.5c-0.9-1-1.8-2.2-2.6-3.5c-1.4,1.1-2.4,1.8-4.1,2.7l-1.1,0.9l-1.4-1.2l1.2-0.9c2.2-2.4,3.9-5,4.8-7.3
		l0.3-1.2l6.3,1.3l-1.2,1.1c-0.3,0.4-0.3,0.4-0.6,0.7h5.5c3.5,0,4.1,0,5.2-0.1v1.5c-1.6,2.3-3.5,4.3-5.7,5.9c2,0.7,4.6,1.2,7.2,1.5
		l1.4,0l-2.4,5.2L170.3,130.9z M168.3,130.3c-2.4-0.8-5-2-6.9-3.3c-2.2,1.2-5.1,2.4-7.9,3.2c0.8,0,1,0,2.2,0h10.6H168.3z
		 M163.9,109.4c-1.2-0.1-1.8-0.2-2.9-0.2h-2.5c-1.2,0-1.5,0-2.9,0.2v-2.3c1.1,0.1,2,0.2,2.9,0.2h2.5c1.1,0,1.7,0,2.9-0.2V109.4z
		 M163.9,113.6c-1.2-0.1-1.8-0.2-2.9-0.2h-2.5c-1.2,0-1.5,0-2.9,0.2v-2.3c1.1,0.1,2,0.2,2.9,0.2h2.5c1.1,0,1.7,0,2.9-0.2V113.6z
		 M158,119.3c-0.4,0.3-0.5,0.4-0.8,0.7c1,1,2.3,2.1,3.5,2.7c1.2-1.2,2.1-2.3,2.7-3.5h-5.3L158,119.3z M157.5,132.2v5.5h6.9v-5.5
		H157.5z"/>
	<path class="st0" d="M224.5,111.9c-2.6-2.2-4.1-4.5-5-7.5c-1.2,3.6-4.5,6-9.7,7.4l-1,0.4l-1-1.6l1-0.2c4.6-2.3,6.2-5.1,6.2-10.6
		v-0.6c0-0.6,0-1.1-0.1-1.6l-0.1-0.4l0-0.5h6c-0.2,1.3-0.2,1.7-0.2,2.5v1.3c0,3,2.3,5.3,7.3,7.7l1.4,0.3l-3.6,4h0.3
		c1.8,0,2.3,0,3.6-0.1c-0.2,1.1-0.2,1.9-0.2,3.6v1.3c0,0.9,0,1.4,0.2,2.8h-6.9l0-0.5l0-0.4c0.1-0.7,0.1-1.1,0.1-1.4v-3.4h-28.7v3.4
		c0,0.4,0,0.9,0.2,2.3h-7l0-0.4c0.1-1.2,0.2-1.5,0.2-2.3V116c0-1.8,0-2.3-0.2-3.6c0.9,0.1,1.9,0.1,3.6,0.1h34.1L224.5,111.9z
		 M201.8,99.7c0,1.9-0.2,3.4-0.9,4.9c2.5,0.9,4.1,1.6,6.4,2.7l1.5,0.4l-3.6,4.5l-0.8-1.1c-1.3-1.7-2.9-3.4-4.5-4.8
		c-1.6,2.3-4.3,3.8-8.8,5.2l-1.3,0.6l-0.9-1.5l1-0.4c4.5-2.3,6.5-5.5,6.5-10.5v-0.6c0-0.6,0-1.1-0.1-1.6l-0.1-0.4l0-0.5h5.8
		c-0.2,1.3-0.2,1.7-0.2,2.5V99.7z M192.4,98.7l0.9,1c0.8,0.8,1.4,1.5,2,2.1l0.8,0.7l-4.6,2.6l0-0.8l0-0.3l-0.1-0.6
		c-0.3-1.6-0.5-2.6-0.8-3.5l-0.4-0.8l1.9-0.9L192.4,98.7z M224.1,129.6c1.2,0,1.6,0,2.5-0.1c-0.1,0.8-0.1,1.3-0.1,2.5v4.4
		c0,1.2,0,1.6,0.1,2.5c-0.7-0.1-1-0.1-1.3-0.1h-1.2h-30.9c-1.3,0-1.6,0-2.5,0.1c0.1-0.6,0.1-1,0.1-1.3v-1.2V132c0-1.3,0-1.6-0.1-2.5
		c0.8,0.1,1.3,0.1,2.5,0.1h8.5c0.7-1.4,1-2.2,1.4-3.5h-5.3c-1.3,0-1.6,0-2.5,0.1c0.1-0.6,0.1-1,0.1-1.3v-1.2V120
		c0-1.3,0-1.6-0.1-2.5c0.8,0.1,1.3,0.1,2.5,0.1h21.5c1.2,0,1.6,0,2.5-0.1c-0.1,0.8-0.1,1.3-0.1,2.5v3.7c0,1.2,0,1.6,0.1,2.5
		c-0.7-0.1-1-0.1-1.3-0.1h-1.2h-8.8c-1.5,1.2-3,2.2-5.3,3.5H224.1z M197.5,131.5v5.4h22.2v-5.4H197.5z M208.7,100.6l-1.1,0.7
		c-0.8,0.9-2.2,2.1-3.5,2.9l-0.5,0.5l-1.7-1.1l0.5-0.6c0.6-1.1,0.9-2.1,1.2-3.6l0.1-0.9L208.7,100.6z M202.1,119.5v4.6H215v-4.6
		H202.1z M210.8,98.7c1.5,1.4,2,1.8,3.1,3l1,0.8l-4.5,2.4l-0.1-1c-0.4-1.9-0.7-3.1-1.2-4.2l-0.4-0.7l1.7-1.1L210.8,98.7z
		 M229.3,100.2l-0.9,0.5c-1.3,1.1-2.5,1.9-4.5,3.1l-0.6,0.5l-1.6-1.1l0.3-0.5c0.4-0.9,1.1-2.4,1.6-3.8l0.3-1.2L229.3,100.2z"/>
</g>
<g>
	<path class="st0" d="M165.9,79.6h-1.3c-0.7,0-1.3,0.6-1.3,1.3c0,0.7,0.6,1.3,1.3,1.3h1.3c0.7,0,1.3-0.6,1.3-1.3
		C167.2,80.2,166.6,79.6,165.9,79.6z"/>
	<path class="st0" d="M142.4,58.8c-0.7,0-1.3,0.6-1.3,1.3v17.1c0,0.7,0.6,1.3,1.3,1.3c0.7,0,1.3-0.6,1.3-1.3V60.1
		C143.7,59.3,143.1,58.8,142.4,58.8z"/>
	<path class="st0" d="M162.9,74.8c-0.5-0.5-1.3-0.5-1.8,0l-3.1,3.1l-14.4-26.3c-0.2-0.4-0.7-0.7-1.1-0.7h-33.9
		c-0.5,0-0.9,0.3-1.1,0.7L92.9,78l-3.1-3.1c-0.5-0.5-1.3-0.5-1.8,0c-0.5,0.5-0.5,1.3,0,1.8l3,3h-3.4c-0.7,0-1.3,0.6-1.3,1.3
		c0,0.7,0.6,1.3,1.3,1.3h73.1c0.7,0,1.3-0.6,1.3-1.3c0-0.7-0.6-1.3-1.3-1.3h-0.8l3-3C163.4,76.1,163.4,75.3,162.9,74.8z M95,79.6
		l14.2-26.1h31l-14.2,26.1H95z M128.9,79.6L142.4,55l13.5,24.7H128.9z"/>
	<path class="st0" d="M98.1,39.2h17c3.6,0,6.5-2.9,6.5-6.5c0-3.3-2.5-6.1-5.8-6.5c-1.8-5.1-7.4-7.8-12.5-6c-1.8,0.6-3.5,1.8-4.6,3.4
		c-0.2,0-0.4,0-0.6,0c-4.3,0-7.8,3.5-7.8,7.8S93.8,39.2,98.1,39.2z M98.1,26.1c0.3,0,0.7,0,1,0.1c0.5,0.1,1.1-0.1,1.4-0.6
		c2.1-3.4,6.5-4.4,9.9-2.4c1.6,1,2.8,2.6,3.2,4.5c0.1,0.6,0.7,1,1.3,1c0.1,0,0.1,0,0.2,0c2.2,0,3.9,1.8,3.9,3.9s-1.8,3.9-3.9,3.9
		h-17c-2.9,0-5.2-2.3-5.2-5.2S95.3,26.1,98.1,26.1L98.1,26.1z"/>
	<path class="st0" d="M151.5,24.8c4.3,0,7.8-3.5,7.8-7.8s-3.5-7.8-7.8-7.8s-7.8,3.5-7.8,7.8C143.7,21.3,147.2,24.8,151.5,24.8z
		 M151.5,11.8c2.9,0,5.2,2.3,5.2,5.2s-2.3,5.2-5.2,5.2s-5.2-2.3-5.2-5.2C146.3,14.1,148.6,11.8,151.5,11.8z"/>
	<path class="st0" d="M151.5,7.8c0.7,0,1.3-0.6,1.3-1.3V5.2c0-0.7-0.6-1.3-1.3-1.3c-0.7,0-1.3,0.6-1.3,1.3v1.3
		C150.2,7.3,150.8,7.8,151.5,7.8z"/>
	<path class="st0" d="M150.2,27.4v1.3c0,0.7,0.6,1.3,1.3,1.3c0.7,0,1.3-0.6,1.3-1.3v-1.3c0-0.7-0.6-1.3-1.3-1.3
		C150.8,26.1,150.2,26.7,150.2,27.4z"/>
	<path class="st0" d="M160.6,17c0,0.7,0.6,1.3,1.3,1.3h1.3c0.7,0,1.3-0.6,1.3-1.3s-0.6-1.3-1.3-1.3H162
		C161.2,15.7,160.6,16.3,160.6,17z"/>
	<path class="st0" d="M139.8,18.3h1.3c0.7,0,1.3-0.6,1.3-1.3s-0.6-1.3-1.3-1.3h-1.3c-0.7,0-1.3,0.6-1.3,1.3S139,18.3,139.8,18.3z"/>
	<path class="st0" d="M158.9,10.9c0.3,0,0.7-0.1,0.9-0.4l0.9-0.9c0.5-0.5,0.5-1.3,0-1.8c-0.5-0.5-1.3-0.5-1.8,0L158,8.7
		c-0.5,0.5-0.5,1.3,0,1.8C158.2,10.8,158.5,10.9,158.9,10.9L158.9,10.9z"/>
	<path class="st0" d="M143.2,23.4l-0.9,0.9c-0.5,0.5-0.5,1.3,0,1.8s1.3,0.5,1.8,0l0.9-0.9c0.5-0.5,0.5-1.3,0-1.8
		C144.5,22.9,143.7,22.9,143.2,23.4z"/>
	<path class="st0" d="M159.8,23.4c-0.5-0.5-1.3-0.5-1.8,0c-0.5,0.5-0.5,1.3,0,1.8c0,0,0,0,0,0l0.9,0.9c0.5,0.5,1.3,0.5,1.8,0
		c0.5-0.5,0.5-1.3,0-1.8L159.8,23.4z"/>
	<path class="st0" d="M143.2,10.5c0.5,0.5,1.3,0.5,1.8,0c0.5-0.5,0.5-1.3,0-1.8c0,0,0,0,0,0l-0.9-0.9c-0.5-0.5-1.3-0.5-1.8,0
		c-0.5,0.5-0.5,1.3,0,1.8L143.2,10.5z"/>
</g>
</svg>
