<?xml version="1.0" encoding="utf-8"?>
<!-- Generator: Adobe Illustrator 24.3.0, SVG Export Plug-In . SVG Version: 6.00 Build 0)  -->
<svg version="1.1" id="圖層_1" xmlns="http://www.w3.org/2000/svg" xmlns:xlink="http://www.w3.org/1999/xlink" x="0px" y="0px"
	 viewBox="0 0 254.3 158.5" style="enable-background:new 0 0 254.3 158.5;" xml:space="preserve">
<style type="text/css">
	.st0{fill:#FFFFFF;}
	.st1{fill:#9EAC3A;}
	.st2{fill:#652323;}
	.st3{fill:#5A652D;}
	.st4{fill:#565EA9;}
	.st5{fill:#86584B;}
	.st6{fill:#C89C89;}
	.st7{opacity:0.1;fill:none;stroke:#040000;stroke-width:0.3361;stroke-miterlimit:10;enable-background:new    ;}
	.st8{fill:url(#SVGID_1_);}
	.st9{fill:#346251;}
	.st10{fill:#274B3D;}
	.st11{fill:#2F5A4A;}
	.st12{fill:#528171;}
	.st13{fill:#2B5E4C;}
	.st14{fill:#315F4D;}
	.st15{opacity:0.1;fill:#040000;enable-background:new    ;}
	.st16{fill:#335F4F;}
	.st17{fill:#265946;}
	.st18{fill:#315F4E;}
	.st19{opacity:0.1;}
	.st20{fill:#040000;}
	.st21{fill:url(#SVGID_2_);}
	.st22{fill:#949394;}
	.st23{fill:#CC8481;}
	.st24{fill:#F7F7F7;}
	.st25{fill:#333333;}
	.st26{fill:#E4ECF5;}
	.st27{fill:#4051A1;}
	.st28{fill:url(#SVGID_3_);}
	.st29{fill:#15152C;}
	.st30{fill:#F9D0C5;}
	.st31{fill:#EBC1B9;}
	.st32{fill:none;}
	.st33{fill:#4A6373;}
	.st34{fill:#040205;}
	.st35{fill:#141534;}
	.st36{fill:#F5B5B5;}
	.st37{fill:#504F7F;}
	.st38{fill:#4F4E5F;}
	.st39{fill:#554B2E;}
	.st40{fill:#FBE4EA;}
	.st41{fill:#B5811C;}
	.st42{fill:#5B401C;}
	.st43{fill:#D19534;}
	.st44{fill:#D69C22;}
	.st45{fill:#636463;}
	.st46{fill:#3A52A3;}
	.st47{fill:#0F1534;}
	.st48{fill:#CCDAEF;}
	.st49{fill:#F2F9F4;}
	.st50{opacity:5.000000e-02;fill:#040000;enable-background:new    ;}
	.st51{fill:#1F234E;}
	.st52{fill:#1C1636;}
	.st53{fill:#F2F2F2;}
	.st54{fill:#5A2C48;}
	.st55{opacity:0.2;fill:#040000;enable-background:new    ;}
	.st56{fill:#848587;}
	.st57{fill:#2C2E13;}
	.st58{fill:#A2A64A;}
	.st59{fill:#8B8B3D;}
	.st60{fill:#565C2A;}
	.st61{fill:#474D24;}
	.st62{fill:#52504A;}
	.st63{fill:#303030;}
	.st64{fill:#255277;}
	.st65{fill:#5F352B;}
	.st66{fill:#565657;}
	.st67{fill:#856F57;}
	.st68{fill:#E3617E;}
	.st69{fill:#3A2428;}
	.st70{fill:#ECA56C;}
	.st71{fill:#BBCFE4;}
	.st72{fill:#B27574;}
	.st73{fill:#F9D3D8;}
	.st74{fill:#555785;}
	.st75{fill:#C99680;}
	.st76{fill:#9C6E5E;}
	.st77{fill:#E8EAF2;}
	.st78{fill:#EDCCC6;}
	.st79{fill:#F5E1DE;}
	.st80{fill:#FDF9F9;}
	.st81{opacity:0.3;fill:#42312E;enable-background:new    ;}
	.st82{fill:#EAEAEA;}
	.st83{fill:#DEA7B1;}
	.st84{fill:#F6BDC3;}
	.st85{fill:#153159;}
	.st86{fill:#555783;}
	.st87{fill:#CC8386;}
	.st88{fill:#F0EFEF;}
	.st89{fill:#42312E;}
	.st90{opacity:0.2;fill:#FFFFFF;enable-background:new    ;}
	.st91{fill:#F0DBDB;}
</style>
<g>
	<path class="st0" d="M28.7,129.4c0,1.8,0,2.4,0.2,3.6c-1-0.1-1.8-0.1-2.8-0.1h-0.8h-6.6c-1.8,0-2.2,0-3.6,0.1
		c0.2-1.3,0.2-1.7,0.2-3.6v-25.6c0-1.8,0-2.3-0.2-3.6c0.9,0.1,1.9,0.1,3.6,0.1h6.6c1.8,0,2.3,0,3.6-0.1c-0.2,1.1-0.2,1.9-0.2,3.6
		V129.4z M23.5,115.5v-13.1h-3v13.1H23.5z M20.6,117.4V131h3v-13.6H20.6z M55.4,123.9c-1.4,3.2-3.6,6.1-6.8,8.7
		c2.4,0.8,4.7,1.3,7.6,1.5h2.3l-2.8,5.8l-2.1-0.6c-3.2-0.7-6.4-2.1-9-4c-3.4,2-7.9,3.5-11.4,4.1l-1.4,0.5l-0.9-1.8l1.6-0.3
		c3.1-1.1,6.2-2.8,9.3-5.3c-1.4-1.7-2.4-3.4-3.2-5.5c-2.1,3.5-4.8,6.4-8.6,9.2l-1.1,1l-1.3-1.3l1.1-0.9c3.8-4.3,6.4-9.7,7.6-16.4
		h-3.7c-1.1,0-1.6,0-2.8,0.2v-2.3c1.1,0.1,1.9,0.2,2.8,0.2h4c0.2-1.3,0.3-2.6,0.4-4.1h-3.8c-1.1,0-1.6,0-2.8,0.2v-2.3
		c1.1,0.1,1.9,0.2,2.8,0.2h0.9l-0.2-0.7c-0.5-1.8-1.2-3.6-2-5.1l-0.7-0.9l1.3-1.1l0.8,0.8l0.6,0.4c1.4,1,2.5,1.8,3.7,2.9l1.3,1
		l-3.9,2.7h6.6l-0.2-1c-0.2-1.3-0.9-3.2-1.6-4.9l-0.7-1l1.3-1l0.9,0.9c1.3,0.9,2.3,1.8,3.9,3.3l1.4,1.1l-4.3,2.5h5.5
		c1-2,1.8-4.4,2.2-6.4l0.4-1.7l5.8,2.9L55,107c-1.1,1.1-2.8,2.5-4.6,3.9h3.1c1.1,0,1.6,0,2.8-0.2v2.3c-1.1-0.1-1.8-0.2-2.8-0.2H43.1
		c-0.1,1.2-0.3,2.8-0.6,4.1h12.6c1.1,0,1.7,0,2.8-0.2v2.3c-1.2-0.1-1.7-0.2-2.8-0.2H42c-0.5,1.9-0.6,2.2-1.2,3.8h8.3
		c1.7,0,4.2,0,6.2-0.1V123.9z M56.7,101.8l-2.9,0.2c-6.1,0.6-13.9,1-22.2,0.9l-1.5,0.1l-0.4-2h1.7c7.5-0.7,14.4-2.1,19.5-3.9l2.1-1
		L56.7,101.8z M40,124.6c-0.2,0.4-0.2,0.4-0.4,0.8c1.1,2.1,2.6,3.7,4.6,5.1c1.6-1.6,3.4-4.1,4.1-5.8H40z"/>
	<path class="st0" d="M81.4,113.3l-0.1,1.6c0,1.4,0,2.7,0,3.2c0,6.1-0.3,10.1-1.1,13.5l-0.5,2.5l-8.1-3.2L73,129
		c2-3.2,4.3-9.2,5.6-14.7l0.2-1.7L81.4,113.3z M86.6,98.4c5.6,1.1,10.6,2.4,14.4,3.9l2.8,0.8l-4.7,7.5l-1.9-1.9
		c-3-2.7-8.1-6.2-11.7-7.9l-1.6-0.7l1.1-2.1L86.6,98.4z M104.7,126c0.1,2.3,0.2,4.7,0.2,6.8c0,4.8-1.8,5.8-10.8,5.8
		c-8.5,0-9.9-0.9-9.9-6.8v-20.6c0-1,0-1.1-0.2-2.9h7.6c-0.2,1.4-0.2,2-0.2,2.9v18.9c0,2,0.4,2.2,4.3,2.2c3.6,0,5.3-0.4,5.9-1.4
		c0.4-0.6,0.7-3,0.8-5.1l0-2.5l2.5,0.8L104.7,126z M106.6,113c3,3.9,6.1,8.9,8.4,13.6l1.2,1.8l-8.4,4.1l-0.2-2
		c-0.5-5.2-2-11.9-3.5-16.3l-0.7-1.5l2.3-1.1L106.6,113z"/>
	<path class="st0" d="M154.4,124.6h14.7c1.1,0,1.7,0,2.9-0.2v2.3c-1.2-0.1-1.8-0.2-2.9-0.2h-13.9c3.2,3.9,8.2,6.1,15.3,6.9l2.6,0.2
		l-4.3,6.3l-2.1-0.8c-6.4-2-10.8-5.8-13.1-11.4c-2.6,6.7-10.1,10.9-21.4,12.1l-1.4,0.3l-0.8-2l1.8-0.2c7.6-1.7,13.6-6.1,15.4-11.5
		h-14c-1.2,0-1.5,0-2.9,0.2v-2.3c1.1,0.1,2,0.2,2.9,0.2h14.4v-5.2h-14c-1.2,0-1.5,0-2.9,0.2v-2.3c1.1,0.1,2,0.2,2.9,0.2h14v-5.4H137
		c-1.2,0-1.5,0-2.9,0.2V110c1.1,0.1,2,0.2,2.9,0.2h10.5v-5h-12.8c-1.2,0-1.5,0-2.9,0.2v-2.3c1.1,0.1,2,0.2,2.9,0.2h7.2l-0.1-0.5
		c-0.7-1.9-1.4-3.4-2.3-4.7l-0.7-0.8l1.5-1.1l1,0.6l1.6,0.8c1.5,0.7,1.8,0.9,4,1.9l1.6,0.8l-4.6,3.1h10.3c0.7-1.4,1.6-3.8,1.9-5.2
		l0.3-1.9l8.2,2.6l-2.3,1.4c-1.6,1.1-3.8,2.3-5.4,3.1h10.5c1.1,0,1.7,0,2.9-0.2v2.3c-1.2-0.1-1.8-0.2-2.9-0.2h-13.2v5h10.9
		c1.1,0,1.7,0,2.9-0.2v2.3c-1.2-0.1-1.8-0.2-2.9-0.2h-10.9v5.4h14.4c1.1,0,1.7,0,2.9-0.2v2.3c-1.2-0.1-1.8-0.2-2.9-0.2h-14.4V124.6z
		"/>
	<path class="st0" d="M222.2,112.2v0.9v9.7v0.5v0.5c0,0.3,0,0.6,0,1.1c0.1-0.1,0.1-0.2,0.3-0.4l1.1-1.7l4.9,5.1l-2.1,0.9
		c-2.5,1.1-5.6,2.3-8.7,3.3c2.6,1.1,5.7,1.7,9.5,2.2l2.7,0.2l-3.9,6.3l-2.1-0.8c-8.6-2.3-14.2-6.8-17.5-14.1h-5.2v7.9
		c2.3-0.1,4.6-0.3,7-0.6l1.6-0.2l0.4,1.7l-1.7,0.5c-4.8,1.7-10.8,3.4-16,4.6l-2.4,0.8l-2.2-6.5l2.8,0c1.9,0,2.2,0,4.2,0V113
		c0-1,0-1.2,0-1.7c-2.4,1.1-3.8,1.7-6.6,2.7l-1.2,0.5l-0.9-1.7l1.3-0.4c6.4-3.1,12.6-8.5,16.7-14.8l1-1.9l7.5,2.1l-1.7,1.8
		c4.3,3.8,9.8,6.2,17.1,7.5l2.4,0.3l-3.7,6.3l-2.2-1.1c-1.3-0.5-1.8-0.7-2.4-1.1V112.2z M219.3,110c-3.7-2.3-6.9-5.2-9.5-9
		c-2.7,3-7.6,6.6-12.3,9h8v-1.9c0-1,0-1.1-0.2-2.9h6.9c-0.2,1.4-0.2,2-0.2,2.9v1.9H219.3z M201.3,111.9v4.7h14.7v-4.7H201.3z
		 M201.3,118.6v5.2h14.7v-5.2H201.3z M208.9,125.7c1.9,2.2,4.1,4,6.8,5.3c2-1.7,4.3-3.8,5.7-5.3H208.9z"/>
</g>
<g>
	<path class="st0" d="M141.6,44l4.1-0.3c0,0,0,0,0,0c2.9-0.2,5.5-1.8,7.1-4.2l3.2-4.7c2.8-4.1,3.9-9.1,3.1-14
		c-0.2-1-0.7-1.8-1.4-2.5c-0.7-0.6-1.7-1-2.6-1.1c-5-0.2-9.8,1.4-13.5,4.7l-4.3,3.8c-2.2,1.9-3.4,4.7-3.3,7.6c0,0,0,0,0,0l0.2,4.1
		c0.1,1.6-0.5,3.2-1.6,4.3L99,76.3c-0.9,0.9-1.4,2.2-1.3,3.6c0.1,1.5,0.8,3.1,1.9,4c1,0.9,2.4,1.4,3.8,1.4c0.1,0,0.3,0,0.4,0
		c1.4-0.1,2.6-0.7,3.4-1.7l30.2-37.5C138.5,44.9,140,44.1,141.6,44z M135.9,44.8l-30.2,37.5c-0.5,0.6-1.2,0.9-2,1
		c-1,0.1-2-0.2-2.7-0.9c-0.7-0.6-1.2-1.6-1.2-2.6c0-0.8,0.2-1.6,0.7-2.1l33.6-34.5c1.5-1.6,2.3-3.7,2.2-5.9l-0.2-4.1
		c-0.1-2.3,0.9-4.4,2.6-5.9l4.3-3.8c3.3-2.9,7.6-4.4,12-4.2c0.5,0,1,0.2,1.4,0.6c0.4,0.3,0.6,0.8,0.7,1.3c0.7,4.4-0.2,8.8-2.7,12.5
		l-3.2,4.7c-1.3,1.9-3.3,3.1-5.6,3.3l-4.1,0.3C139.3,42.1,137.3,43.1,135.9,44.8z"/>
	<path class="st0" d="M157.4,76l-22.5-20.5c-0.4-0.4-1.1-0.4-1.5,0.1c-0.4,0.4-0.4,1.1,0.1,1.5L156,77.5c0.5,0.5,0.8,1.2,0.9,2.1
		c0,1-0.4,2-1,2.6c-0.7,0.7-1.7,1.1-2.6,1c-0.8,0-1.6-0.3-2-0.8l-20.1-22c-0.4-0.4-1-0.5-1.5-0.1c-0.4,0.4-0.5,1-0.1,1.5l20.1,22
		c0.9,1,2.1,1.5,3.5,1.5c0,0,0.1,0,0.1,0c1.5,0,3-0.6,4-1.6c1.1-1.1,1.7-2.6,1.6-4.2C158.9,78.1,158.4,76.9,157.4,76z"/>
	<path class="st0" d="M102.7,43.8c1.7,1.6,3.9,2.5,6.3,2.5c0,0,0,0,0,0l4.1,0c1.6,0,3.1,0.7,4.2,1.8l1.8,2c0.2,0.2,0.5,0.3,0.8,0.3
		c0.2,0,0.5-0.1,0.7-0.3c0.4-0.4,0.5-1,0.1-1.5l-1.8-2c-1.5-1.6-3.5-2.5-5.7-2.5l-4.1,0c-1.8,0-3.5-0.7-4.9-1.9l-11.8-14
		c-0.1-0.1-0.1-0.4,0-0.5c0.1-0.1,0.2-0.1,0.3-0.1c0.1,0,0.2,0,0.3,0.1l10.7,10.8c1.1,1.1,2.8,1.1,3.9,0l1.3-1.3v0l2.2-2.2
		c0,0,0,0,0,0l0,0l1.3-1.3c1.1-1.1,1.1-2.8,0-3.9l-10.7-10.7c-0.1-0.1-0.1-0.4,0-0.5c0.1-0.1,0.3-0.1,0.5,0l14,11.8
		c1.2,1.3,1.9,3.1,1.9,4.9l0,4.1c0,2.2,0.9,4.2,2.5,5.7l1.9,1.8c0.4,0.4,1.1,0.4,1.5-0.1c0.4-0.4,0.4-1.1-0.1-1.5l-1.9-1.7
		c-1.2-1.1-1.8-2.6-1.9-4.2l0-4.1c0,0,0,0,0,0c-0.1-2.3-1-4.6-2.5-6.3c0,0-0.1-0.1-0.1-0.1l-14.1-11.9c-1-0.8-2.4-0.8-3.3,0.1
		c-0.9,0.9-0.9,2.5,0,3.4l10.7,10.8c0.3,0.3,0.3,0.7,0,0.9l-0.5,0.5l-12-12c-0.4-0.4-1.1-0.4-1.5,0c-0.4,0.4-0.4,1.1,0,1.5l12,12
		l-0.8,0.8l-12-12c-0.4-0.4-1.1-0.4-1.5,0c-0.4,0.4-0.4,1.1,0,1.5l12,12l-0.5,0.5c-0.3,0.3-0.7,0.3-0.9,0L94.3,26.4
		c-0.5-0.5-1.1-0.7-1.7-0.7c-0.7,0-1.3,0.3-1.7,0.7c-0.9,0.9-1,2.3-0.1,3.3L102.7,43.8C102.6,43.8,102.6,43.8,102.7,43.8z"/>
</g>
</svg>
