<?xml version="1.0" encoding="utf-8"?>
<!-- Generator: Adobe Illustrator 24.3.0, SVG Export Plug-In . SVG Version: 6.00 Build 0)  -->
<svg version="1.1" id="圖層_1" xmlns="http://www.w3.org/2000/svg" xmlns:xlink="http://www.w3.org/1999/xlink" x="0px" y="0px"
	 viewBox="0 0 254.3 158.5" style="enable-background:new 0 0 254.3 158.5;" xml:space="preserve">
<style type="text/css">
	.st0{fill:#9EAC3A;}
	.st1{fill:#652323;}
	.st2{fill:#5A652D;}
	.st3{fill:#565EA9;}
	.st4{fill:#86584B;}
	.st5{fill:#C89C89;}
	.st6{opacity:0.1;fill:none;stroke:#040000;stroke-width:0.3361;stroke-miterlimit:10;enable-background:new    ;}
	.st7{fill:url(#SVGID_1_);}
	.st8{fill:#346251;}
	.st9{fill:#274B3D;}
	.st10{fill:#2F5A4A;}
	.st11{fill:#528171;}
	.st12{fill:#2B5E4C;}
	.st13{fill:#315F4D;}
	.st14{opacity:0.1;fill:#040000;enable-background:new    ;}
	.st15{fill:#335F4F;}
	.st16{fill:#265946;}
	.st17{fill:#315F4E;}
	.st18{opacity:0.1;}
	.st19{fill:#040000;}
	.st20{fill:url(#SVGID_2_);}
	.st21{fill:#FFFFFF;}
	.st22{fill:#949394;}
	.st23{fill:#CC8481;}
	.st24{fill:#F7F7F7;}
	.st25{fill:#333333;}
	.st26{fill:#E4ECF5;}
	.st27{fill:#4051A1;}
	.st28{fill:url(#SVGID_3_);}
	.st29{fill:#15152C;}
	.st30{fill:#F9D0C5;}
	.st31{fill:#EBC1B9;}
	.st32{fill:none;}
	.st33{fill:#4A6373;}
	.st34{fill:#040205;}
	.st35{fill:#141534;}
	.st36{fill:#F5B5B5;}
	.st37{fill:#504F7F;}
	.st38{fill:#4F4E5F;}
	.st39{fill:#554B2E;}
	.st40{fill:#FBE4EA;}
	.st41{fill:#B5811C;}
	.st42{fill:#5B401C;}
	.st43{fill:#D19534;}
	.st44{fill:#D69C22;}
	.st45{fill:#636463;}
	.st46{fill:#3A52A3;}
	.st47{fill:#0F1534;}
	.st48{fill:#CCDAEF;}
	.st49{fill:#F2F9F4;}
	.st50{opacity:5.000000e-02;fill:#040000;enable-background:new    ;}
	.st51{fill:#1F234E;}
	.st52{fill:#1C1636;}
	.st53{fill:#F2F2F2;}
	.st54{fill:#5A2C48;}
	.st55{opacity:0.2;fill:#040000;enable-background:new    ;}
	.st56{fill:#848587;}
	.st57{fill:#2C2E13;}
	.st58{fill:#A2A64A;}
	.st59{fill:#8B8B3D;}
	.st60{fill:#565C2A;}
	.st61{fill:#474D24;}
	.st62{fill:#52504A;}
	.st63{fill:#303030;}
	.st64{fill:#255277;}
	.st65{fill:#5F352B;}
	.st66{fill:#565657;}
	.st67{fill:#856F57;}
	.st68{fill:#E3617E;}
	.st69{fill:#3A2428;}
	.st70{fill:#ECA56C;}
	.st71{fill:#BBCFE4;}
	.st72{fill:#B27574;}
	.st73{fill:#F9D3D8;}
	.st74{fill:#555785;}
	.st75{fill:#C99680;}
	.st76{fill:#9C6E5E;}
	.st77{fill:#E8EAF2;}
	.st78{fill:#EDCCC6;}
	.st79{fill:#F5E1DE;}
	.st80{fill:#FDF9F9;}
	.st81{opacity:0.3;fill:#42312E;enable-background:new    ;}
	.st82{fill:#EAEAEA;}
	.st83{fill:#DEA7B1;}
	.st84{fill:#F6BDC3;}
	.st85{fill:#153159;}
	.st86{fill:#555783;}
	.st87{fill:#CC8386;}
	.st88{fill:#F0EFEF;}
	.st89{fill:#42312E;}
	.st90{opacity:0.2;fill:#FFFFFF;enable-background:new    ;}
	.st91{fill:#F0DBDB;}
</style>
<g>
	<path class="st21" d="M48.4,105.7c1.8,0,2.3,0,3.6-0.1c-0.2,1.1-0.2,1.9-0.2,3.6v10.7c0,1.8,0,2.4,0.2,3.6c-1-0.1-1.8-0.1-2.8-0.1
		h-0.8H35.9c-1.2,1.1-2.6,2.2-4.1,3.3h11.6c5.6,0,6.5,0,7.8-0.1v1.4c-2.1,2.1-5.2,4.3-8.9,6.3c4,0.6,7.4,0.8,12.8,0.8l2.6-0.1
		l-3.2,6l-2.4-0.4c-6-0.6-11.4-1.9-15.4-3.7c-5.9,2.3-12.3,3.8-19.7,4.5l-1.6,0.3l-0.8-2l2-0.1c4.7-0.9,10-2.7,14.9-5l0.6-0.3
		c-1.7-1.2-3.5-2.8-5-4.6c-3.1,1.7-6.6,3.2-10,4.3l-1.1,0.5l-0.9-1.8l1.4-0.4c3.8-1.8,8.3-5.2,11.4-8.7H24c-1.8,0-2.2,0-3.6,0.1
		c0.2-1.3,0.2-1.7,0.2-3.6v-10.7c0-1.8,0-2.3-0.2-3.6c0.9,0.1,1.9,0.1,3.6,0.1h7.7c0.1-1,0.3-2.7,0.3-3.6H18.5c-1.2,0-1.5,0-2.9,0.2
		v-2.3c1.1,0.1,2,0.2,2.9,0.2h35.4c1.1,0,1.7,0,2.9-0.2v2.3c-1.2-0.1-1.8-0.2-2.9-0.2H40.2c-1.5,1.1-3.5,2.5-5.3,3.6H48.4z
		 M27,107.6v3.2h18.4v-3.2H27z M27,112.7v3.2h18.4v-3.2H27z M27,117.8v3.5h18.4v-3.5H27z M35.5,132.3c2.4-1.3,4.5-2.6,6-3.9H28.8
		C30.7,130,33.3,131.4,35.5,132.3z"/>
	<path class="st21" d="M107.4,101.5c1.8,0,2.3,0,3.6-0.1c-0.2,1.3-0.2,2-0.2,3.8v29.5c0,1.8,0,2.5,0.2,3.8c-1-0.1-1.8-0.1-2.8-0.1
		h-0.8H79.9c-1.8,0-2.2,0-3.6,0.1c0.2-1.5,0.2-1.7,0.2-3.8v-29.5c0-2.1,0-2.3-0.2-3.8c0.9,0.1,1.9,0.1,3.6,0.1H107.4z M83.8,103.4
		v15.2h19.7v-15.2H83.8z M83.8,120.5v15.9h19.7v-15.9H83.8z"/>
	<path class="st21" d="M161.7,140c-3.6,0-10.3-0.3-12.6-0.6c-2.2-0.2-4.4-1.1-6.3-2.3c-1.5-0.9-2.8-2.3-3.8-4.1
		c-1.8,2.6-3.5,4.8-5,6.5l-1.3,1.7l-4.2-6.1l2-0.7c1.3-0.5,3.4-1.4,4.6-2.1v-15.6h-2.8c-1.2,0-1.5,0-2.9,0.2v-2.3
		c1.1,0.1,2,0.2,2.9,0.2h5.6c1.8,0,2.3,0,3.6-0.1c-0.2,1.3-0.2,2-0.2,3.8v13.6c2.5,2.2,5.3,2.6,16,2.6c3.1,0,3.1,0,10.6-0.3
		c2.2-0.1,4.1-0.3,5.7-0.6l-2,6.2c-0.6,0-0.8,0-1.3,0h-2.8H161.7z M133.5,99c2.3,1.3,4.3,2.5,6.8,4.2l1.8,1l-5.7,5.5l-0.9-2.1
		c-1-2-1.9-3.5-4-6.9l-1.1-1.2l1.5-1.5L133.5,99z M159.9,116.5h8.5c1.1,0,1.7,0,2.9-0.2v2.3c-1.2-0.1-1.8-0.2-2.9-0.2h-8
		c1.8,3.8,5.2,6.7,10.1,8.3l2,0.4l-4.1,6l-1.6-1.1c-3.9-2.7-6.6-6.6-7.6-11.3c-1.6,5.7-6.1,9.6-13.3,11.7l-1.2,0.6l-1-1.7l1.3-0.5
		c4.5-2.3,7.8-7.2,8.4-12.4h-7.1c-1.2,0-1.5,0-2.9,0.2v-2.3c1.1,0.1,2,0.2,2.9,0.2h7.4v-7.4h-6.5c-1.2,0-1.5,0-2.9,0.2V107
		c1.1,0.1,2,0.2,2.9,0.2h2.8l-0.2-1.1c-0.6-2.2-1.2-4.1-2.2-6.5l-0.6-0.9l1.5-1l0.7,0.8c1.6,1.2,3.3,2.5,5,4.2l1.6,1.2l-5.1,3.2h8
		c0.8-2,1.8-5.2,2.3-7.9l0.3-1.9l7.2,3.1L167,102c-1.4,1.5-3.7,3.6-5.6,5.2h5.8c1.1,0,1.7,0,2.9-0.2v2.3c-1.2-0.1-1.8-0.2-2.9-0.2
		h-7.3V116.5z"/>
	<path class="st21" d="M212.7,113.9h9.9c1.1,0,1.7,0,2.9-0.2v2.3c-1.2-0.1-1.8-0.2-2.9-0.2h-9.9v2.4h9.9c1.1,0,1.7,0,2.9-0.2v2.3
		c-1.2-0.1-1.8-0.2-2.9-0.2h-9.9v2.9h13.2c1.1,0,1.7,0,2.9-0.2v2.3c-1.2-0.1-1.8-0.2-2.9-0.2h-21.1l3.7,4.1l-2.5,0.2
		c-2.1,0.4-6.7,0.8-9.5,0.7v2.8h7.8c1.1,0,1.7,0,2.9-0.2v2.3c-1.2-0.1-1.8-0.2-2.9-0.2h-7.8v3.3h24.3v-3.3h-6.9
		c-1.2,0-1.5,0-2.9,0.2v-2.3c1.1,0.1,2,0.2,2.9,0.2h6.9v-3.2h-7.3c-1.2,0-1.5,0-2.9,0.2v-2.3c1.1,0.1,2,0.2,2.9,0.2h10.6
		c1.8,0,2.3,0,3.6-0.1c-0.2,1.3-0.2,2-0.2,3.8v4.8c0,1.8,0,2.5,0.2,3.8c-1-0.1-1.8-0.1-2.8-0.1h-0.8h-30.8c-1.8,0-2.2,0-3.6,0.1
		c0.2-1.5,0.2-1.7,0.2-3.8v-5.7c0-1,0-1.3-0.1-2.2l0-0.3c0.7,0.1,1,0.1,1.7,0.1c3.6,0,7.4-1,11.4-3l0.2-0.1h-7.9
		c-1.8,0-2.2,0-3.6,0.1c0.2-1.3,0.2-1.7,0.2-3.6V116c-1.2,1-2.1,1.5-3.3,2.3l-1.2,1.1l-1.1-1.3l1.3-0.9c2.6-2.8,5.3-6.9,7-11
		l0.4-1.4l3.1,0.8v-0.2l0-0.2l0-1.3v-0.2h-8.4c-1.2,0-1.5,0-2.9,0.2v-2.3c1.1,0.1,2,0.2,2.9,0.2h8.4v-1c0-1,0-1.2-0.2-2.9h7.1
		c-0.2,1.4-0.2,2.1-0.2,2.9v1h8.2v-1c0-1,0-1.2-0.2-2.9h7.1c-0.2,1.4-0.2,2.1-0.2,2.9v1h7.5c1.1,0,1.7,0,2.9-0.2v2.3
		c-1.2-0.1-1.8-0.2-2.9-0.2h-7.5v0.4c0,0.9,0,1.4,0.2,2.9h-4.7l-1.1,0.5c-0.9,0.6-2,1.4-3.3,2.1h13.3c1.1,0,1.7,0,2.9-0.2v2.3
		c-1.2-0.1-1.8-0.2-2.9-0.2h-11.4V113.9z M206.4,113.9v-2.5h-8.3v2.5H206.4z M206.4,115.8h-8.3v2.4h8.3V115.8z M198.2,120.1v2.9h8.3
		v-2.9H198.2z M204.9,103.8c0,1.4,0,1.9,0.2,2.7h-3.4l-1.4,1.3c-0.3,0.3-0.6,0.7-0.8,0.9l-0.3,0.4l-0.3,0.4h8.5c0.4-1.2,0.7-2,1-3.5
		l0.1-1.1l4.5,1.2c0.1-0.7,0.1-1.3,0.1-2v-0.4h-8.2V103.8z"/>
</g>
<path class="st21" d="M166.5,69.3h-2.2l-15.9-28.9c-0.3-0.6-1-1-1.7-1c-0.7,0-1.4,0.4-1.7,1l-5.3,9.7l-13.1-23.9
	c-0.1-0.3-0.3-0.5-0.5-0.6v-8.1h12.1c0.6,0,1.2-0.3,1.4-0.9c0.3-0.5,0.2-1.2-0.2-1.7l-1.9-2.4l1.9-2.4c0.4-0.5,0.4-1.1,0.2-1.7
	c-0.3-0.5-0.8-0.9-1.4-0.9h-12.2c-0.1-0.5-0.6-0.8-1.1-0.8c-0.7,0-1.2,0.5-1.2,1.2v17.7c-0.2,0.2-0.4,0.4-0.5,0.6l-15,27.3l-3-5.4
	c-0.3-0.6-1-1-1.7-1c-0.7,0-1.4,0.4-1.7,1L90,69.3h-2.2c-0.7,0-1.2,0.5-1.2,1.2c0,0.7,0.5,1.2,1.2,1.2h67.9h2.2h8.6
	c0.7,0,1.2-0.5,1.2-1.2C167.7,69.8,167.1,69.3,166.5,69.3z M136.5,9.9l-1.1,1.4H126l0-1.4H136.5z M126,13.7h9.4l1.1,1.4H126V13.7z
	 M146.7,42.2l7.3,13.2h-2.3l0,0c-0.1,0-0.4-0.1-0.5-0.2l-1.5-1.5c-0.8-0.8-2-0.8-2.8,0l-1,1c-0.1,0.1-0.4,0.2-0.5,0.2h-5.6
	L146.7,42.2z M124.8,28l9.7,17.7h-6c-0.1,0-0.4-0.1-0.5-0.2l-1.8-1.8c-0.4-0.4-0.9-0.6-1.4-0.6s-1,0.2-1.4,0.6l-2.7,2.7l-2-2
	c-0.5-0.5-1.4-0.9-2.2-0.9h-0.3L124.8,28z M103.4,49.9l5.7,10.3l-2.3,2.3l-1.8-1.8c-0.5-0.5-1.4-0.9-2.2-0.9h-4.9L103.4,49.9z
	 M92.8,69.3l3.9-7.1h6.2c0.1,0,0.4,0.1,0.5,0.2l2,2c0.4,0.4,0.9,0.6,1.4,0.6c0.5,0,1-0.2,1.4-0.6l2.1-2.1l3.8,6.9H92.8z M116.8,69.3
	l-7.3-13.3l5.5-10.1h1.6c0.1,0,0.4,0.1,0.5,0.2l2.3,2.3c0.4,0.4,0.9,0.6,1.4,0.6c0.5,0,1-0.2,1.4-0.6l2.7-2.7l1.5,1.5
	c0.5,0.5,1.4,0.9,2.2,0.9h7.3l2.5,4.5l-9.2,16.7H116.8z M157.9,69.3h-2.2h-23.9l6.6-12h6.9c0.8,0,1.7-0.4,2.2-0.9l0.7-0.7l1.2,1.2
	c0.5,0.5,1.4,0.9,2.2,0.9h3.6l6.3,11.5H157.9z"/>
</svg>
