<?xml version="1.0" encoding="utf-8"?>
<!-- Generator: Adobe Illustrator 24.3.0, SVG Export Plug-In . SVG Version: 6.00 Build 0)  -->
<svg version="1.1" id="圖層_1" xmlns="http://www.w3.org/2000/svg" xmlns:xlink="http://www.w3.org/1999/xlink" x="0px" y="0px"
	 viewBox="0 0 254.3 158.5" style="enable-background:new 0 0 254.3 158.5;" xml:space="preserve">
<style type="text/css">
	.st0{fill:#9EAC3A;}
	.st1{fill:#652323;}
	.st2{fill:#5A652D;}
	.st3{fill:#565EA9;}
	.st4{fill:#86584B;}
	.st5{fill:#C89C89;}
	.st6{opacity:0.1;fill:none;stroke:#040000;stroke-width:0.3361;stroke-miterlimit:10;enable-background:new    ;}
	.st7{fill:url(#SVGID_1_);}
	.st8{fill:#346251;}
	.st9{fill:#274B3D;}
	.st10{fill:#2F5A4A;}
	.st11{fill:#528171;}
	.st12{fill:#2B5E4C;}
	.st13{fill:#315F4D;}
	.st14{opacity:0.1;fill:#040000;enable-background:new    ;}
	.st15{fill:#335F4F;}
	.st16{fill:#265946;}
	.st17{fill:#315F4E;}
	.st18{opacity:0.1;}
	.st19{fill:#040000;}
	.st20{fill:url(#SVGID_2_);}
	.st21{fill:#FFFFFF;}
	.st22{fill:#949394;}
	.st23{fill:#CC8481;}
	.st24{fill:#F7F7F7;}
	.st25{fill:#333333;}
	.st26{fill:#E4ECF5;}
	.st27{fill:#4051A1;}
	.st28{fill:url(#SVGID_3_);}
	.st29{fill:#15152C;}
	.st30{fill:#F9D0C5;}
	.st31{fill:#EBC1B9;}
	.st32{fill:none;}
	.st33{fill:#4A6373;}
	.st34{fill:#040205;}
	.st35{fill:#141534;}
	.st36{fill:#F5B5B5;}
	.st37{fill:#504F7F;}
	.st38{fill:#4F4E5F;}
	.st39{fill:#554B2E;}
	.st40{fill:#FBE4EA;}
	.st41{fill:#B5811C;}
	.st42{fill:#5B401C;}
	.st43{fill:#D19534;}
	.st44{fill:#D69C22;}
	.st45{fill:#636463;}
	.st46{fill:#3A52A3;}
	.st47{fill:#0F1534;}
	.st48{fill:#CCDAEF;}
	.st49{fill:#F2F9F4;}
	.st50{opacity:5.000000e-02;fill:#040000;enable-background:new    ;}
	.st51{fill:#1F234E;}
	.st52{fill:#1C1636;}
	.st53{fill:#F2F2F2;}
	.st54{fill:#5A2C48;}
	.st55{opacity:0.2;fill:#040000;enable-background:new    ;}
	.st56{fill:#848587;}
	.st57{fill:#2C2E13;}
	.st58{fill:#A2A64A;}
	.st59{fill:#8B8B3D;}
	.st60{fill:#565C2A;}
	.st61{fill:#474D24;}
	.st62{fill:#52504A;}
	.st63{fill:#303030;}
	.st64{fill:#255277;}
	.st65{fill:#5F352B;}
	.st66{fill:#565657;}
	.st67{fill:#856F57;}
	.st68{fill:#E3617E;}
	.st69{fill:#3A2428;}
	.st70{fill:#ECA56C;}
	.st71{fill:#BBCFE4;}
	.st72{fill:#B27574;}
	.st73{fill:#F9D3D8;}
	.st74{fill:#555785;}
	.st75{fill:#C99680;}
	.st76{fill:#9C6E5E;}
	.st77{fill:#E8EAF2;}
	.st78{fill:#EDCCC6;}
	.st79{fill:#F5E1DE;}
	.st80{fill:#FDF9F9;}
	.st81{opacity:0.3;fill:#42312E;enable-background:new    ;}
	.st82{fill:#EAEAEA;}
	.st83{fill:#DEA7B1;}
	.st84{fill:#F6BDC3;}
	.st85{fill:#153159;}
	.st86{fill:#555783;}
	.st87{fill:#CC8386;}
	.st88{fill:#F0EFEF;}
	.st89{fill:#42312E;}
	.st90{opacity:0.2;fill:#FFFFFF;enable-background:new    ;}
	.st91{fill:#F0DBDB;}
	.st92{font-family:'Kan415TyposStd-Regular-83pv-RKSJ-H';}
	.st93{font-size:47.8795px;}
	.st94{letter-spacing:9;}
</style>
<text transform="matrix(1 0 0 1 18.6528 137.5293)" class="st21 st92 st93 st94">夏日送舊</text>
<path class="st21" d="M168.1,69.3h-2.2l-15.9-28.9c-0.3-0.6-1-1-1.7-1c-0.7,0-1.4,0.4-1.7,1l-5.3,9.7l-13.1-23.9
	c-0.1-0.3-0.3-0.5-0.5-0.6v-8.1h12.1c0.6,0,1.2-0.3,1.4-0.9c0.3-0.5,0.2-1.2-0.2-1.7l-1.9-2.4l1.9-2.4c0.4-0.5,0.4-1.1,0.2-1.7
	c-0.3-0.5-0.8-0.9-1.4-0.9h-12.2c-0.1-0.5-0.6-0.8-1.1-0.8c-0.7,0-1.2,0.5-1.2,1.2v17.7c-0.2,0.2-0.4,0.4-0.5,0.6l-15,27.3l-3-5.4
	c-0.3-0.6-1-1-1.7-1c-0.7,0-1.4,0.4-1.7,1L91.7,69.3h-2.2c-0.7,0-1.2,0.5-1.2,1.2c0,0.7,0.5,1.2,1.2,1.2h67.9h2.2h8.6
	c0.7,0,1.2-0.5,1.2-1.2C169.3,69.8,168.8,69.3,168.1,69.3z M138.2,9.9l-1.1,1.4h-9.4l0-1.4H138.2z M127.6,13.7h9.4l1.1,1.4h-10.5
	V13.7z M148.4,42.2l7.3,13.2h-2.3l0,0c-0.1,0-0.4-0.1-0.5-0.2l-1.5-1.5c-0.8-0.8-2-0.8-2.8,0l-1,1c-0.1,0.1-0.4,0.2-0.5,0.2h-5.6
	L148.4,42.2z M126.4,28l9.7,17.7h-6c-0.1,0-0.4-0.1-0.5-0.2l-1.8-1.8c-0.4-0.4-0.9-0.6-1.4-0.6s-1,0.2-1.4,0.6l-2.7,2.7l-2-2
	c-0.5-0.5-1.4-0.9-2.2-0.9h-0.3L126.4,28z M105,49.9l5.7,10.3l-2.3,2.3l-1.8-1.8c-0.5-0.5-1.4-0.9-2.2-0.9h-4.9L105,49.9z
	 M94.4,69.3l3.9-7.1h6.2c0.1,0,0.4,0.1,0.5,0.2l2,2c0.4,0.4,0.9,0.6,1.4,0.6c0.5,0,1-0.2,1.4-0.6l2.1-2.1l3.8,6.9H94.4z M118.4,69.3
	l-7.3-13.3l5.5-10.1h1.6c0.1,0,0.4,0.1,0.5,0.2l2.3,2.3c0.4,0.4,0.9,0.6,1.4,0.6c0.5,0,1-0.2,1.4-0.6l2.7-2.7l1.5,1.5
	c0.5,0.5,1.4,0.9,2.2,0.9h7.3l2.5,4.5l-9.2,16.7H118.4z M159.5,69.3h-2.2h-23.9l6.6-12h6.9c0.8,0,1.7-0.4,2.2-0.9l0.7-0.7l1.2,1.2
	c0.5,0.5,1.4,0.9,2.2,0.9h3.6l6.3,11.5H159.5z"/>
</svg>
