<svg xmlns="http://www.w3.org/2000/svg" width="56" height="56" viewBox="0 0 56 56">
    <g fill="none" fill-rule="evenodd">
        <path d="M1 0H133V92H1z" transform="translate(-27 -7)"/>
        <g>
            <path stroke="#333" d="M5.359 18.403c-.673-.47-1.548-.626-2.375-.346l-.137.046-1.924-5.485L37.147.375l1.73 4.928" transform="translate(-27 -7) translate(31 17)"/>
            <path stroke="#333" d="M9.526 22.357c-.366-1.34-1.737-2.152-3.104-1.865l-.132.031-.325.086-1.596-5.845L43.927 4.359l1.596 5.845-.325.086c-1.367.36-2.195 1.708-1.9 3.05l.032.126.228.836c.366 1.34 1.737 2.152 3.103 1.865l.133-.032.324-.085 1.596 5.845-30.025 7.897" transform="translate(-27 -7) translate(31 17)"/>
            <g transform="translate(-27 -7) translate(31 17) rotate(-15 60.295 -58.17)">
                <path stroke="#333" d="M3.33 1.465c-.694 0-1.382.694-1.487 1.563L.828 11.031c-.105.79.534 1.434 1.488 1.434h9.001c.954 0 1.593-.644 1.488-1.437L11.79 3.025c-.105-.866-.792-1.56-1.487-1.56H3.33z"/>
                <rect width="2" height="2" x="8.817" y="11.965" fill="#333" rx="1"/>
                <rect width="2" height="2" x="2.817" y="11.965" fill="#333" rx="1"/>
                <circle cx="3.817" cy="10.465" r="1" fill="#333"/>
                <circle cx="9.817" cy="10.465" r="1" fill="#333"/>
                <path stroke="#333" stroke-linecap="square" d="M1.867 8.465L11.767 8.465M2.317 4.465L11.317 4.465"/>
            </g>
            <path stroke="#333" stroke-dasharray="2 3" stroke-linecap="square" d="M37.401 6.648L37.48 23.527" transform="translate(-27 -7) translate(31 17) rotate(-15 37.44 15.088)"/>
            <path stroke="#333" d="M13.97 22.5H7c-.828 0-1.5.672-1.5 1.5v14c0 .828.672 1.5 1.5 1.5h10c.828 0 1.5-.672 1.5-1.5V27.492L13.97 22.5z" transform="translate(-27 -7) translate(31 17)"/>
            <text fill="#333" font-family="Avenir-Roman, Avenir" font-size="6" transform="translate(-27 -7) translate(31 17)">
                <tspan x="7" y="34">SIM</tspan>
            </text>
        </g>
        <path d="M27 7H83V63H27z" transform="translate(-27 -7)"/>
    </g>
</svg>
