<?xml version="1.0" encoding="utf-8"?>
<!-- Generator: Adobe Illustrator 25.0.1, SVG Export Plug-In . SVG Version: 6.00 Build 0)  -->
<svg version="1.1" id="圖層_1" xmlns="http://www.w3.org/2000/svg" xmlns:xlink="http://www.w3.org/1999/xlink" x="0px" y="0px"
	 viewBox="0 0 304.6 139.4" style="enable-background:new 0 0 304.6 139.4;" xml:space="preserve">
<style type="text/css">
	.st0{fill:#C6182D;}
	.st1{fill:#F7F6EC;}
	.st2{fill:#313535;stroke:#040000;stroke-linecap:round;stroke-linejoin:round;stroke-miterlimit:10;}
	.st3{fill:#FFFFFF;stroke:#FFFFFF;stroke-width:0.8391;stroke-miterlimit:10;}
	.st4{fill:#FFA486;}
	.st5{fill:#FFA486;stroke:#000000;stroke-miterlimit:10;}
	.st6{fill:#F7EBEB;stroke:#000000;stroke-miterlimit:10;}
	.st7{fill:#36303A;}
	.st8{fill:#6A433E;stroke:#000000;stroke-miterlimit:10;}
	.st9{fill:#FFA99B;stroke:#000000;stroke-miterlimit:10;}
	.st10{fill:#FFFFFF;}
	.st11{fill:#6A433E;}
	.st12{fill:#FFFFFF;stroke:#000000;stroke-linecap:round;stroke-linejoin:round;stroke-miterlimit:10;}
	.st13{fill:#F4EB73;stroke:#000000;stroke-miterlimit:10;}
	.st14{fill:#FFA99B;stroke:#000000;stroke-linecap:round;stroke-linejoin:round;stroke-miterlimit:10;}
	.st15{fill:#D96252;}
	.st16{fill:#D96252;stroke:#000000;stroke-miterlimit:10;}
	.st17{fill:#FFA486;stroke:#000000;stroke-width:1.0766;stroke-linecap:round;stroke-linejoin:round;stroke-miterlimit:10;}
	.st18{fill:#EFD2AA;}
	.st19{fill:#36303A;stroke:#000000;stroke-miterlimit:10;}
	.st20{fill:#86524D;stroke:#000000;stroke-miterlimit:10;}
	.st21{fill:#86524D;}
	.st22{fill:#6F5E68;stroke:#000000;stroke-miterlimit:10;}
	.st23{fill:#E9E9E9;stroke:#000000;stroke-width:1.0553;stroke-miterlimit:10;}
	.st24{fill:#537A95;stroke:#000000;stroke-width:1.0553;stroke-miterlimit:10;}
	.st25{fill:none;stroke:#000000;stroke-linecap:round;stroke-linejoin:round;stroke-miterlimit:10;}
	.st26{fill:#6F5E61;stroke:#000000;stroke-width:1.1524;stroke-miterlimit:10;}
	.st27{fill:#DFCEC6;stroke:#000000;stroke-width:1.1524;stroke-miterlimit:10;}
	.st28{fill:#36303A;stroke:#000000;stroke-width:1.1524;stroke-miterlimit:10;}
	.st29{fill:#36303A;stroke:#000000;stroke-width:1.3348;stroke-miterlimit:10;}
	.st30{fill:#F7EFEB;stroke:#000000;stroke-width:1.3348;stroke-miterlimit:10;}
	.st31{fill:#6F5E61;stroke:#000000;stroke-width:1.1524;stroke-linecap:round;stroke-linejoin:round;stroke-miterlimit:10;}
	.st32{fill:#36303A;stroke:#000000;stroke-width:1.1524;stroke-linecap:round;stroke-linejoin:round;stroke-miterlimit:10;}
	.st33{fill:#D0D0D0;stroke:#000000;stroke-width:1.1524;stroke-linecap:round;stroke-linejoin:round;stroke-miterlimit:10;}
	.st34{fill:#905851;stroke:#000000;stroke-width:1.1524;stroke-miterlimit:10;}
	.st35{fill:#F4D1B4;stroke:#000000;stroke-width:1.1524;stroke-miterlimit:10;}
	.st36{fill:#F7EFEB;}
	.st37{fill:#733832;stroke:#000000;stroke-width:1.1524;stroke-miterlimit:10;}
	.st38{fill:#DBA777;stroke:#000000;stroke-width:1.1524;stroke-miterlimit:10;}
	.st39{fill:#DBA777;}
	.st40{fill:#905851;}
	.st41{fill:#E7E7E7;stroke:#000000;stroke-linecap:round;stroke-linejoin:round;stroke-miterlimit:10;}
	.st42{fill:#954039;}
	.st43{fill:none;stroke:#000000;stroke-width:1.2726;stroke-linecap:round;stroke-linejoin:round;stroke-miterlimit:10;}
	.st44{fill:#954039;stroke:#000000;stroke-miterlimit:10;}
	.st45{fill:#905851;stroke:#000000;stroke-width:1.1524;stroke-linecap:round;stroke-linejoin:round;stroke-miterlimit:10;}
	.st46{fill:#ACABA9;stroke:#000000;stroke-miterlimit:10;}
	.st47{fill:#020202;stroke:#000000;stroke-miterlimit:10;}
	.st48{fill:#938862;stroke:#040000;stroke-width:0.8707;stroke-miterlimit:10;}
	.st49{fill:#736638;stroke:#040000;stroke-width:0.8707;stroke-miterlimit:10;}
	.st50{fill:#97B4A4;stroke:#000000;stroke-linecap:round;stroke-linejoin:round;stroke-miterlimit:10;}
	.st51{fill:#789D87;stroke:#000000;stroke-linecap:round;stroke-linejoin:round;stroke-miterlimit:10;}
	.st52{fill:#905851;stroke:#000000;stroke-linecap:round;stroke-linejoin:round;stroke-miterlimit:10;}
	.st53{fill:#DFCEC6;stroke:#000000;stroke-linecap:round;stroke-linejoin:round;stroke-miterlimit:10;}
	.st54{fill:#61372B;}
	.st55{fill:#E5B891;stroke:#040000;stroke-miterlimit:10;}
	.st56{fill:#DFB69E;stroke:#040000;stroke-width:0.7279;stroke-miterlimit:10;}
	.st57{fill:#A56656;stroke:#040000;stroke-width:0.9617;stroke-miterlimit:10;}
	.st58{fill:#FFA486;stroke:#000000;stroke-width:0.9093;stroke-miterlimit:10;}
	.st59{fill:#382732;stroke:#000000;stroke-width:0.7891;stroke-miterlimit:10;}
	.st60{fill:#382732;}
	.st61{fill:#FF9975;}
	.st62{fill:#6F5E61;stroke:#000000;stroke-width:0.7891;stroke-miterlimit:10;}
	.st63{fill:none;stroke:#040000;stroke-miterlimit:10;}
	.st64{fill:#313535;stroke:#040000;stroke-width:1.0065;stroke-linecap:round;stroke-linejoin:round;stroke-miterlimit:10;}
	.st65{fill:#FFFFFF;stroke:#FFFFFF;stroke-width:0.8446;stroke-miterlimit:10;}
	.st66{fill:#FFFFFF;stroke:#000000;stroke-width:0.7891;stroke-miterlimit:10;}
	.st67{fill:#86524D;stroke:#000000;stroke-width:0.9093;stroke-miterlimit:10;}
	.st68{fill:#FFFFFF;stroke:#000000;stroke-width:0.9093;stroke-linecap:round;stroke-linejoin:round;stroke-miterlimit:10;}
	.st69{fill:#36303A;stroke:#000000;stroke-width:0.7891;stroke-miterlimit:10;}
	.st70{fill:#6A433E;stroke:#000000;stroke-width:0.8804;stroke-miterlimit:10;}
	.st71{fill:#FFA99B;stroke:#000000;stroke-width:0.8804;stroke-miterlimit:10;}
	.st72{fill:#FFFFFF;stroke:#000000;stroke-width:0.8804;stroke-linecap:round;stroke-linejoin:round;stroke-miterlimit:10;}
	.st73{fill:#FFA99B;stroke:#000000;stroke-width:0.8804;stroke-linecap:round;stroke-linejoin:round;stroke-miterlimit:10;}
	.st74{fill:#E9E9E9;stroke:#000000;stroke-width:0.8328;stroke-miterlimit:10;}
	.st75{fill:#537A95;stroke:#000000;stroke-width:0.8328;stroke-miterlimit:10;}
	.st76{fill:#FF9975;stroke:#000000;stroke-width:0.7891;stroke-miterlimit:10;}
	.st77{fill:#EFDBBF;stroke:#000000;stroke-width:0.7891;stroke-miterlimit:10;}
	.st78{fill:#AF959A;stroke:#000000;stroke-linecap:round;stroke-linejoin:round;stroke-miterlimit:10;}
	.st79{fill:#AF959A;}
	.st80{fill:#FFA486;stroke:#000000;stroke-width:0.7947;stroke-miterlimit:10;}
	.st81{fill:#382732;stroke:#000000;stroke-width:0.6897;stroke-miterlimit:10;}
	.st82{fill:#6F5E61;stroke:#000000;stroke-width:0.6897;stroke-miterlimit:10;}
	.st83{fill:none;stroke:#040000;stroke-width:0.874;stroke-miterlimit:10;}
	.st84{fill:#313535;stroke:#040000;stroke-width:1.0909;stroke-linecap:round;stroke-linejoin:round;stroke-miterlimit:10;}
	.st85{fill:#FFFFFF;stroke:#FFFFFF;stroke-width:0.9154;stroke-miterlimit:10;}
	.st86{fill:#FFFFFF;stroke:#000000;stroke-width:0.6897;stroke-miterlimit:10;}
	.st87{fill:#86524D;stroke:#000000;stroke-width:0.7947;stroke-miterlimit:10;}
	.st88{fill:#FFFFFF;stroke:#000000;stroke-width:0.7947;stroke-linecap:round;stroke-linejoin:round;stroke-miterlimit:10;}
	.st89{fill:#36303A;stroke:#000000;stroke-width:0.6897;stroke-miterlimit:10;}
	.st90{fill:#E9E9E9;stroke:#000000;stroke-width:1.0991;stroke-miterlimit:10;}
	.st91{fill:#537A95;stroke:#000000;stroke-width:1.0991;stroke-miterlimit:10;}
	.st92{opacity:0.5;}
	.st93{fill:#FF5748;}
	.st94{fill:#A0A916;}
	.st95{fill:#FFD84A;}
	.st96{fill:#00A8E1;}
	.st97{fill:#FFE5CF;stroke:#040000;stroke-width:0.7253;stroke-miterlimit:10;}
	.st98{fill:#938862;stroke:#040000;stroke-width:0.7253;stroke-miterlimit:10;}
	.st99{fill:#98B3C8;stroke:#040000;stroke-width:0.7253;stroke-miterlimit:10;}
	.st100{fill:#FFFFFF;stroke:#040000;stroke-width:0.7253;stroke-miterlimit:10;}
	.st101{fill:#F7EEE9;stroke:#040000;stroke-width:0.7253;stroke-miterlimit:10;}
	.st102{fill:#FC8A89;stroke:#040000;stroke-width:0.7253;stroke-miterlimit:10;}
	.st103{fill:#FFBB57;stroke:#040000;stroke-width:0.7253;stroke-miterlimit:10;}
	.st104{fill:#E7AD56;stroke:#040000;stroke-width:0.7253;stroke-miterlimit:10;}
	.st105{fill:#E6B282;stroke:#040000;stroke-width:0.7253;stroke-miterlimit:10;}
	.st106{fill:#666666;}
	.st107{fill:#C6182D;stroke:#C6182D;stroke-width:3;stroke-linecap:round;stroke-linejoin:round;stroke-miterlimit:10;}
	.st108{fill:#F7F6EC;stroke:#F7F6EC;stroke-width:3;stroke-linecap:round;stroke-linejoin:round;stroke-miterlimit:10;}
	.st109{opacity:0.2;}
	.st110{fill:#DDD9D4;}
	.st111{opacity:5.000000e-02;clip-path:url(#SVGID_2_);}
	.st112{fill:none;stroke:#000000;stroke-width:2;stroke-miterlimit:10;}
	.st113{fill:none;stroke:#000000;stroke-width:0.9035;stroke-miterlimit:10;}
	.st114{clip-path:url(#SVGID_4_);}
	.st115{fill:#68491B;}
	.st116{fill:#754F1C;}
	.st117{fill:url(#SVGID_5_);}
	.st118{fill:url(#SVGID_6_);}
	.st119{fill:none;stroke:#602E13;stroke-width:1.2551;}
	.st120{fill:#AB9666;stroke:#000000;stroke-width:0.9035;stroke-miterlimit:10;}
	.st121{opacity:5.000000e-02;clip-path:url(#SVGID_8_);}
	.st122{fill:none;stroke:#000000;stroke-width:1.8071;stroke-miterlimit:10;}
	.st123{fill:none;stroke:#C6182D;stroke-width:0.5609;stroke-miterlimit:10;}
	.st124{fill:#C1A67E;}
	.st125{clip-path:url(#SVGID_10_);}
	.st126{clip-path:url(#SVGID_12_);}
	.st127{fill:#AB9666;}
	.st128{clip-path:url(#SVGID_14_);}
	.st129{clip-path:url(#SVGID_16_);}
	.st130{clip-path:url(#SVGID_18_);}
	.st131{clip-path:url(#SVGID_20_);}
	.st132{clip-path:url(#SVGID_22_);}
	.st133{clip-path:url(#SVGID_24_);}
	.st134{clip-path:url(#SVGID_26_);}
	.st135{fill:#AC854F;}
	.st136{clip-path:url(#SVGID_28_);}
	.st137{clip-path:url(#SVGID_30_);}
	.st138{clip-path:url(#SVGID_32_);}
	.st139{clip-path:url(#SVGID_34_);}
	.st140{fill:#C6182D;stroke:#000000;stroke-miterlimit:10;}
	.st141{fill:#F7F6EC;stroke:#000000;stroke-miterlimit:10;}
	.st142{fill:none;stroke:#000000;stroke-width:3;stroke-linecap:round;stroke-linejoin:round;stroke-miterlimit:10;}
	.st143{fill:none;stroke:#C6182D;stroke-miterlimit:10;}
	.st144{fill:none;stroke:#C6182D;stroke-width:0.6406;stroke-miterlimit:10;}
	.st145{fill:#B79F70;}
	.st146{opacity:0.5;fill:#FFFFFF;}
	.st147{clip-path:url(#SVGID_38_);}
	.st148{fill:#F7F0F0;stroke:#000000;stroke-width:2.1005;stroke-miterlimit:10;}
	.st149{fill:#B79F70;stroke:#000000;stroke-width:0.8559;stroke-miterlimit:10;}
	.st150{fill:none;stroke:#000000;stroke-width:0.8559;stroke-miterlimit:10;}
	.st151{fill:#C6182D;stroke:#000000;stroke-width:1.0251;stroke-miterlimit:10;}
	.st152{fill:#FFFFFF;stroke:#000000;stroke-width:2.4107;stroke-linecap:round;stroke-linejoin:round;stroke-miterlimit:10;}
	.st153{fill:#FFE5CF;stroke:#040000;stroke-miterlimit:10;}
	.st154{fill:#938862;stroke:#040000;stroke-miterlimit:10;}
	.st155{fill:#F7EEE9;stroke:#040000;stroke-miterlimit:10;}
	.st156{fill:#FFFFFF;stroke:#040000;stroke-miterlimit:10;}
	.st157{fill:#FC8A89;stroke:#040000;stroke-miterlimit:10;}
	.st158{fill:#98B3C8;stroke:#040000;stroke-miterlimit:10;}
	.st159{fill:#FFBB57;stroke:#040000;stroke-miterlimit:10;}
	.st160{fill:#E6B282;stroke:#040000;stroke-miterlimit:10;}
	.st161{fill:#3F3B39;}
	.st162{fill:#FF282F;}
	.st163{fill:#373733;}
	.st164{fill:#FFD769;}
	.st165{fill:#F4C474;}
	.st166{fill:#E8EAE3;}
	.st167{filter:url(#Adobe_OpacityMaskFilter);}
	.st168{mask:url(#SVGID_39_);}
	.st169{fill:#F0B75C;}
	.st170{fill:none;stroke:#000000;stroke-width:0.8197;stroke-linecap:round;stroke-linejoin:round;stroke-miterlimit:10;}
	.st171{fill:none;stroke:#000000;stroke-width:0.8197;stroke-miterlimit:10;}
	.st172{fill:#F9F4EF;stroke:#040000;stroke-miterlimit:10;}
	.st173{fill:#FFA99B;stroke:#040000;stroke-miterlimit:10;}
	.st174{fill:#36303A;stroke:#040000;stroke-miterlimit:10;}
	.st175{fill:#554E59;}
	.st176{opacity:0.54;fill:#F7EBEB;}
	.st177{fill:#6A433E;stroke:#040000;stroke-miterlimit:10;}
	.st178{fill:#FFA99B;stroke:#040000;stroke-linecap:round;stroke-linejoin:round;stroke-miterlimit:10;}
	.st179{fill:#020202;}
	.st180{fill:#6B3C2B;stroke:#040000;stroke-miterlimit:10;}
	.st181{fill:#FF4F2C;stroke:#040000;stroke-miterlimit:10;}
	.st182{fill:#FFA99B;}
	.st183{fill:#5D75DB;stroke:#040000;stroke-miterlimit:10;}
	.st184{fill:#EFD2AA;stroke:#040000;stroke-miterlimit:10;}
	.st185{fill:#E2C295;stroke:#040000;stroke-miterlimit:10;}
	.st186{fill:#F7EBEB;stroke:#040000;stroke-miterlimit:10;}
	.st187{fill:#FF4F2C;stroke:#040000;stroke-linecap:round;stroke-linejoin:round;stroke-miterlimit:10;}
	.st188{fill:#6F5E68;stroke:#040000;stroke-linecap:round;stroke-linejoin:round;stroke-miterlimit:10;}
	.st189{fill:#DB9A7D;}
	.st190{fill:#DD6A5B;stroke:#040000;stroke-miterlimit:10;}
	.st191{fill:#F4DDBE;stroke:#040000;stroke-miterlimit:10;}
	.st192{fill:#DB9A7D;stroke:#040000;stroke-miterlimit:10;}
	.st193{fill:#7B94B9;stroke:#040000;stroke-miterlimit:10;}
	.st194{fill:#FF282F;stroke:#000000;stroke-width:0.8566;stroke-miterlimit:10;}
	.st195{fill:#FF3E43;}
	.st196{opacity:0.3;}
	.st197{fill:#C7B299;}
	.st198{fill:none;stroke:#AC854F;stroke-width:0.753;stroke-linecap:round;stroke-linejoin:round;stroke-miterlimit:10;}
	.st199{clip-path:url(#SVGID_41_);}
	.st200{clip-path:url(#SVGID_43_);}
	.st201{fill:#B29341;}
	.st202{fill:#97A9DB;}
	.st203{fill:#97A9DB;stroke:#040000;stroke-miterlimit:10;}
	.st204{fill:#BED5F7;stroke:#040000;stroke-miterlimit:10;}
	.st205{fill:#9EBAE6;stroke:#040000;stroke-miterlimit:10;}
	.st206{fill:#723C39;stroke:#040000;stroke-miterlimit:10;}
	.st207{fill:#2D2044;}
	.st208{fill:#F4E58C;stroke:#020202;stroke-miterlimit:10;}
	.st209{stroke:#020202;stroke-miterlimit:10;}
	.st210{fill:#E28675;stroke:#020202;stroke-miterlimit:10;}
	.st211{fill:#535699;}
	.st212{fill:#55996A;stroke:#020202;stroke-miterlimit:10;}
	.st213{fill:#020202;stroke:#020202;stroke-miterlimit:10;}
	.st214{fill:none;stroke:#040000;stroke-linecap:round;stroke-linejoin:round;stroke-miterlimit:10;}
	.st215{fill:#FFFFFF;stroke:#040000;stroke-width:0.5;stroke-miterlimit:10;}
	.st216{clip-path:url(#SVGID_45_);}
	.st217{fill:url(#SVGID_46_);}
	.st218{fill:url(#SVGID_47_);}
	.st219{fill:url(#SVGID_48_);}
	.st220{fill:#C6182D;stroke:#000000;stroke-width:2;stroke-miterlimit:10;}
	.st221{fill:none;stroke:#FFFFFF;stroke-width:5.4451;stroke-linecap:round;stroke-linejoin:round;stroke-miterlimit:10;}
	.st222{fill:#E5E5E5;}
	.st223{fill:#FFFFFF;stroke:#000000;stroke-width:3;stroke-linecap:round;stroke-linejoin:round;stroke-miterlimit:10;}
	.st224{clip-path:url(#SVGID_52_);}
	.st225{fill:#B79F70;stroke:#000000;stroke-width:1.0251;stroke-miterlimit:10;}
	.st226{clip-path:url(#SVGID_56_);}
	.st227{clip-path:url(#SVGID_60_);}
	.st228{clip-path:url(#SVGID_64_);}
	.st229{clip-path:url(#SVGID_68_);}
	.st230{fill:#F9F8EF;}
	.st231{clip-path:url(#SVGID_72_);}
	.st232{fill:#C6182D;stroke:#000000;stroke-width:0.8559;stroke-miterlimit:10;}
	.st233{clip-path:url(#SVGID_76_);}
	.st234{clip-path:url(#SVGID_80_);}
	.st235{fill:#FF282F;stroke:#000000;stroke-width:2.3666;stroke-miterlimit:10;}
	.st236{fill:#FF282F;stroke:#000000;stroke-miterlimit:10;}
	.st237{fill:#FBFFF6;}
	.st238{fill:none;stroke:#FBFFF6;stroke-miterlimit:10;}
	.st239{fill:#3F3B39;stroke:#FCFCF6;stroke-miterlimit:10;}
	.st240{clip-path:url(#SVGID_82_);}
	.st241{fill:#FF282F;stroke:#FCFCF6;stroke-miterlimit:10;}
	.st242{fill:none;stroke:#000000;stroke-miterlimit:10;}
	.st243{fill:none;stroke:#373733;stroke-miterlimit:10;}
	.st244{clip-path:url(#SVGID_84_);}
	.st245{fill:none;stroke:#FFFFFF;stroke-miterlimit:10;}
	.st246{fill:#373733;stroke:#000000;stroke-miterlimit:10;}
	.st247{fill:#FFFFFF;stroke:#000000;stroke-width:0.827;stroke-miterlimit:10;}
	.st248{fill:#FFFFFF;stroke:#FFD84A;stroke-width:1.7405;stroke-miterlimit:10;}
	.st249{fill:#EFF0D6;}
	.st250{clip-path:url(#SVGID_86_);}
	.st251{fill:none;stroke:#000000;stroke-width:1.7405;stroke-miterlimit:10;}
	.st252{fill:#FFD22C;stroke:#000000;stroke-miterlimit:10;}
	.st253{clip-path:url(#SVGID_88_);}
	.st254{clip-path:url(#SVGID_90_);}
	.st255{fill:#614D3F;}
	.st256{filter:url(#Adobe_OpacityMaskFilter_1_);}
	.st257{mask:url(#SVGID_91_);}
	.st258{fill:none;stroke:#000000;stroke-width:1.5032;stroke-linecap:round;stroke-linejoin:round;stroke-miterlimit:10;}
	.st259{fill:none;stroke:#000000;stroke-width:1.5032;stroke-miterlimit:10;}
	.st260{fill:#EFBC6C;}
	.st261{clip-path:url(#SVGID_93_);}
	.st262{clip-path:url(#SVGID_95_);}
	.st263{clip-path:url(#SVGID_97_);}
	.st264{clip-path:url(#SVGID_99_);}
	.st265{fill:#F4C374;stroke:#000000;stroke-width:1.2527;stroke-miterlimit:10;}
	.st266{fill:none;stroke:#000000;stroke-width:1.2527;stroke-linecap:round;stroke-linejoin:round;stroke-miterlimit:10;}
	.st267{fill:#FFFFFF;stroke:#000000;stroke-width:1.2527;stroke-miterlimit:10;}
	.st268{fill:#EFBC6C;stroke:#000000;stroke-width:1.1723;stroke-miterlimit:10;}
	.st269{fill:none;}
	.st270{fill:none;stroke:#000000;stroke-width:1.1723;stroke-miterlimit:10;}
	.st271{fill:#AFAF17;stroke:#000000;stroke-width:1.1723;stroke-miterlimit:10;}
	.st272{fill:#436EC4;stroke:#000000;stroke-width:1.1723;stroke-miterlimit:10;}
	.st273{fill:#C947C6;stroke:#000000;stroke-width:1.1723;stroke-miterlimit:10;}
	.st274{fill:#E82E68;stroke:#000000;stroke-width:1.1723;stroke-miterlimit:10;}
	.st275{fill:#836270;}
	.st276{fill:#A9746B;}
	.st277{fill:#F8FCE4;}
	.st278{fill:#F8BC71;stroke:#000000;stroke-width:0.8735;stroke-miterlimit:10;}
	.st279{fill:#E28675;stroke:#000000;stroke-width:0.8735;stroke-miterlimit:10;}
	.st280{fill:#E28675;}
	.st281{fill:#BA6152;stroke:#000000;stroke-width:0.8735;stroke-linecap:round;stroke-linejoin:round;stroke-miterlimit:10;}
	.st282{fill:#FFFFFF;stroke:#000000;stroke-width:0.8735;stroke-linecap:round;stroke-linejoin:round;stroke-miterlimit:10;}
	.st283{fill:#E05C5C;stroke:#000000;stroke-width:0.8735;stroke-miterlimit:10;}
	.st284{fill:#D49676;stroke:#000000;stroke-width:0.8735;stroke-miterlimit:10;}
	.st285{stroke:#000000;stroke-width:0.4367;stroke-miterlimit:10;}
	.st286{fill:#FFFFFF;stroke:#000000;stroke-width:0.8735;stroke-miterlimit:10;}
	.st287{fill:#2D2044;stroke:#000000;stroke-width:0.8735;stroke-miterlimit:10;}
	.st288{fill:#535699;stroke:#000000;stroke-width:0.8735;stroke-miterlimit:10;}
	.st289{fill:none;stroke:#000000;stroke-width:0.8735;stroke-linecap:round;stroke-linejoin:round;stroke-miterlimit:10;}
	
		.st290{fill-rule:evenodd;clip-rule:evenodd;fill:#EB984E;stroke:#000000;stroke-linecap:round;stroke-linejoin:round;stroke-miterlimit:10;}
	
		.st291{fill-rule:evenodd;clip-rule:evenodd;fill:#BD7231;stroke:#000000;stroke-linecap:round;stroke-linejoin:round;stroke-miterlimit:10;}
	
		.st292{fill-rule:evenodd;clip-rule:evenodd;fill:#B05E15;stroke:#000000;stroke-linecap:round;stroke-linejoin:round;stroke-miterlimit:10;}
	
		.st293{fill-rule:evenodd;clip-rule:evenodd;fill:#D68910;stroke:#000000;stroke-linecap:round;stroke-linejoin:round;stroke-miterlimit:10;}
	.st294{fill:#691F16;stroke:#000000;stroke-linecap:round;stroke-linejoin:round;stroke-miterlimit:10;}
	
		.st295{fill-rule:evenodd;clip-rule:evenodd;fill:#FFFFFF;stroke:#000000;stroke-linecap:round;stroke-linejoin:round;stroke-miterlimit:10;}
	.st296{fill-rule:evenodd;clip-rule:evenodd;stroke:#000000;stroke-linecap:round;stroke-linejoin:round;stroke-miterlimit:10;}
	.st297{fill:#B05E15;stroke:#000000;stroke-linecap:round;stroke-linejoin:round;stroke-miterlimit:10;}
	
		.st298{fill-rule:evenodd;clip-rule:evenodd;fill:#F0F3F4;stroke:#000000;stroke-linecap:round;stroke-linejoin:round;stroke-miterlimit:10;}
	
		.st299{fill-rule:evenodd;clip-rule:evenodd;fill:#F3F3F3;stroke:#000000;stroke-linecap:round;stroke-linejoin:round;stroke-miterlimit:10;}
	
		.st300{fill-rule:evenodd;clip-rule:evenodd;fill:#DB741B;stroke:#000000;stroke-linecap:round;stroke-linejoin:round;stroke-miterlimit:10;}
	
		.st301{fill-rule:evenodd;clip-rule:evenodd;fill:#B3382B;stroke:#000000;stroke-linecap:round;stroke-linejoin:round;stroke-miterlimit:10;}
	
		.st302{fill-rule:evenodd;clip-rule:evenodd;fill:#965013;stroke:#000000;stroke-linecap:round;stroke-linejoin:round;stroke-miterlimit:10;}
	.st303{fill:#EE615A;stroke:#000000;stroke-linecap:round;stroke-linejoin:round;stroke-miterlimit:10;}
	.st304{fill:#78514C;stroke:#000000;stroke-linecap:round;stroke-linejoin:round;stroke-miterlimit:10;}
	.st305{fill:#F3EEDB;stroke:#000000;stroke-linecap:round;stroke-linejoin:round;stroke-miterlimit:10;}
	.st306{fill:#E45A40;stroke:#000000;stroke-linecap:round;stroke-linejoin:round;stroke-miterlimit:10;}
	.st307{fill:#219785;stroke:#000000;stroke-linecap:round;stroke-linejoin:round;stroke-miterlimit:10;}
	.st308{fill:#AE9794;stroke:#000000;stroke-linecap:round;stroke-linejoin:round;stroke-miterlimit:10;}
	.st309{fill:#F79E4C;stroke:#000000;stroke-linecap:round;stroke-linejoin:round;stroke-miterlimit:10;}
	.st310{fill:#F7AD4C;stroke:#000000;stroke-linecap:round;stroke-linejoin:round;stroke-miterlimit:10;}
	.st311{fill:#FAC594;stroke:#000000;stroke-linecap:round;stroke-linejoin:round;stroke-miterlimit:10;}
	.st312{fill:#FFD27A;stroke:#000000;stroke-linecap:round;stroke-linejoin:round;stroke-miterlimit:10;}
	.st313{opacity:0.82;fill:#EE615A;stroke:#000000;stroke-linecap:round;stroke-linejoin:round;stroke-miterlimit:10;}
	.st314{opacity:0.57;fill:#AA7023;stroke:#000000;stroke-linecap:round;stroke-linejoin:round;stroke-miterlimit:10;}
	.st315{fill:#100F0C;stroke:#000000;stroke-width:0.7512;stroke-miterlimit:10;}
	.st316{fill:#676666;stroke:#000000;stroke-width:0.7512;stroke-miterlimit:10;}
	.st317{fill:#0E0A09;stroke:#000000;stroke-width:0.7512;stroke-miterlimit:10;}
	.st318{fill:#FFFCF1;stroke:#000000;stroke-width:0.7512;stroke-miterlimit:10;}
	.st319{fill:#1B3218;stroke:#000000;stroke-width:0.7512;stroke-miterlimit:10;}
	.st320{fill:#E7E4AA;stroke:#000000;stroke-width:0.7512;stroke-miterlimit:10;}
	.st321{fill:#EB6611;stroke:#000000;stroke-width:0.7512;stroke-miterlimit:10;}
	.st322{fill:#E73B0C;stroke:#000000;stroke-width:0.7512;stroke-miterlimit:10;}
	.st323{fill:#DC4911;stroke:#000000;stroke-width:0.7512;stroke-miterlimit:10;}
	.st324{fill:#DD2115;stroke:#000000;stroke-width:0.7512;stroke-miterlimit:10;}
	.st325{fill:#EA590D;stroke:#000000;stroke-width:0.7512;stroke-miterlimit:10;}
	.st326{fill:#FFFFFF;stroke:#000000;stroke-width:0.7512;stroke-miterlimit:10;}
	.st327{fill:#DC3913;stroke:#000000;stroke-width:0.7512;stroke-miterlimit:10;}
	.st328{fill:#F39A00;stroke:#000000;stroke-width:0.7512;stroke-miterlimit:10;}
	.st329{fill:#596E26;stroke:#000000;stroke-width:0.7512;stroke-miterlimit:10;}
	.st330{fill:#A0C115;stroke:#000000;stroke-width:0.7512;stroke-miterlimit:10;}
	.st331{fill:#FBCE40;stroke:#000000;stroke-width:0.7512;stroke-miterlimit:10;}
	.st332{fill:#F8BA22;stroke:#000000;stroke-width:0.7512;stroke-miterlimit:10;}
	.st333{fill:#FCEA66;stroke:#000000;stroke-width:0.7512;stroke-miterlimit:10;}
	.st334{fill:#FF6666;stroke:#000000;stroke-width:0.894;stroke-miterlimit:10;}
	.st335{fill:#FFFFFF;stroke:#000000;stroke-width:0.894;stroke-miterlimit:10;}
	.st336{fill:#999999;stroke:#000000;stroke-width:0.894;stroke-miterlimit:10;}
	.st337{fill:#B3B3B3;stroke:#000000;stroke-width:0.894;stroke-miterlimit:10;}
	.st338{fill:#3F3B39;stroke:#000000;stroke-miterlimit:10;}
	.st339{fill:#AA783F;}
	.st340{fill:#FFFFFF;stroke:#000000;stroke-miterlimit:10;}
	.st341{fill:#F4C474;stroke:#000000;stroke-miterlimit:10;}
	.st342{fill:#E9A459;}
	.st343{fill:#FFFFFF;stroke:#F4C474;stroke-miterlimit:10;}
	.st344{fill:#FF282F;stroke:#F4C474;stroke-miterlimit:10;}
	.st345{fill:#FFFFFF;stroke:#040000;stroke-width:0.6639;stroke-miterlimit:10;}
	.st346{fill:#F7F6EC;stroke:#000000;stroke-linecap:round;stroke-linejoin:round;stroke-miterlimit:10;}
	.st347{fill:#C6182D;stroke:#000000;stroke-linecap:round;stroke-linejoin:round;stroke-miterlimit:10;}
	.st348{fill:none;stroke:#000000;stroke-width:1.315;stroke-miterlimit:10;}
	.st349{clip-path:url(#SVGID_101_);}
	.st350{fill:url(#SVGID_102_);}
	.st351{fill:url(#SVGID_103_);}
	.st352{fill:none;stroke:#602E13;stroke-width:1.8267;}
	.st353{opacity:5.000000e-02;clip-path:url(#SVGID_105_);}
	.st354{fill:none;stroke:#000000;stroke-width:2.63;stroke-miterlimit:10;}
	.st355{fill:none;stroke:#C6182D;stroke-width:0.8163;stroke-miterlimit:10;}
	.st356{clip-path:url(#SVGID_107_);}
	.st357{clip-path:url(#SVGID_109_);}
	.st358{clip-path:url(#SVGID_111_);}
	.st359{clip-path:url(#SVGID_113_);}
	.st360{clip-path:url(#SVGID_115_);}
	.st361{clip-path:url(#SVGID_117_);}
	.st362{clip-path:url(#SVGID_119_);}
	.st363{clip-path:url(#SVGID_121_);}
	.st364{clip-path:url(#SVGID_123_);}
	.st365{clip-path:url(#SVGID_125_);}
	.st366{clip-path:url(#SVGID_127_);}
	.st367{clip-path:url(#SVGID_129_);}
	.st368{clip-path:url(#SVGID_131_);}
	.st369{fill:#E8904D;stroke:#040000;stroke-width:1.46;stroke-miterlimit:10;}
	.st370{fill:#E6B282;stroke:#040000;stroke-width:1.46;stroke-miterlimit:10;}
	.st371{fill:#97A9DB;stroke:#040000;stroke-width:1.3468;stroke-miterlimit:10;}
	.st372{fill:#BED5F7;stroke:#040000;stroke-width:1.3468;stroke-miterlimit:10;}
	.st373{fill:#9EBAE6;stroke:#040000;stroke-width:1.3468;stroke-miterlimit:10;}
	.st374{fill:#723C39;stroke:#040000;stroke-width:1.3468;stroke-miterlimit:10;}
	.st375{fill:#F4E58C;stroke:#020202;stroke-width:1.3468;stroke-miterlimit:10;}
	.st376{stroke:#020202;stroke-width:1.3468;stroke-miterlimit:10;}
	.st377{fill:#E28675;stroke:#020202;stroke-width:1.3468;stroke-miterlimit:10;}
	.st378{fill:#55996A;stroke:#020202;stroke-width:1.3468;stroke-miterlimit:10;}
	.st379{fill:#020202;stroke:#020202;stroke-width:1.3468;stroke-miterlimit:10;}
	.st380{fill:none;stroke:#040000;stroke-width:1.3468;stroke-linecap:round;stroke-linejoin:round;stroke-miterlimit:10;}
	.st381{fill:#FFE5CF;stroke:#040000;stroke-width:1.3698;stroke-miterlimit:10;}
	.st382{fill:#938862;stroke:#040000;stroke-width:1.3698;stroke-miterlimit:10;}
	.st383{fill:#F7EEE9;stroke:#040000;stroke-width:1.3698;stroke-miterlimit:10;}
	.st384{fill:#FFFFFF;stroke:#040000;stroke-width:1.3698;stroke-miterlimit:10;}
	.st385{fill:#FC8A89;stroke:#040000;stroke-width:1.3698;stroke-miterlimit:10;}
	.st386{fill:#98B3C8;stroke:#040000;stroke-width:1.3698;stroke-miterlimit:10;}
	.st387{fill:#FFBB57;stroke:#040000;stroke-width:1.3698;stroke-miterlimit:10;}
	.st388{fill:#E6B282;stroke:#040000;stroke-width:1.3698;stroke-miterlimit:10;}
	.st389{filter:url(#Adobe_OpacityMaskFilter_2_);}
	.st390{mask:url(#SVGID_132_);}
	.st391{fill:none;stroke:#000000;stroke-width:1.1228;stroke-linecap:round;stroke-linejoin:round;stroke-miterlimit:10;}
	.st392{fill:none;stroke:#000000;stroke-width:1.1228;stroke-miterlimit:10;}
	.st393{fill:#F9F4EF;stroke:#040000;stroke-width:1.3698;stroke-miterlimit:10;}
	.st394{fill:#FFA99B;stroke:#040000;stroke-width:1.3698;stroke-miterlimit:10;}
	.st395{fill:#36303A;stroke:#040000;stroke-width:1.3698;stroke-miterlimit:10;}
	.st396{fill:#6A433E;stroke:#040000;stroke-width:1.3698;stroke-miterlimit:10;}
	.st397{fill:#FFA99B;stroke:#040000;stroke-width:1.3698;stroke-linecap:round;stroke-linejoin:round;stroke-miterlimit:10;}
	.st398{fill:#6B3C2B;stroke:#040000;stroke-width:1.3698;stroke-miterlimit:10;}
	.st399{fill:#FF4F2C;stroke:#040000;stroke-width:1.3698;stroke-miterlimit:10;}
	.st400{fill:#5D75DB;stroke:#040000;stroke-width:1.3698;stroke-miterlimit:10;}
	.st401{fill:#EFD2AA;stroke:#040000;stroke-width:1.3698;stroke-miterlimit:10;}
	.st402{fill:#E2C295;stroke:#040000;stroke-width:1.3698;stroke-miterlimit:10;}
	.st403{fill:#F7EBEB;stroke:#040000;stroke-width:1.3698;stroke-miterlimit:10;}
	.st404{fill:#FF4F2C;stroke:#040000;stroke-width:1.3698;stroke-linecap:round;stroke-linejoin:round;stroke-miterlimit:10;}
	.st405{fill:#6F5E68;stroke:#040000;stroke-width:1.3698;stroke-linecap:round;stroke-linejoin:round;stroke-miterlimit:10;}
	.st406{fill:#DD6A5B;stroke:#040000;stroke-width:1.3698;stroke-miterlimit:10;}
	.st407{fill:#F4DDBE;stroke:#040000;stroke-width:1.3698;stroke-miterlimit:10;}
	.st408{fill:#DB9A7D;stroke:#040000;stroke-width:1.3698;stroke-miterlimit:10;}
	.st409{fill:#7B94B9;stroke:#040000;stroke-width:1.3698;stroke-miterlimit:10;}
	.st410{fill:#FF282F;stroke:#000000;stroke-width:1.1734;stroke-miterlimit:10;}
	.st411{fill:#C6182D;stroke:#000000;stroke-width:1.6373;stroke-miterlimit:10;}
	.st412{fill:none;stroke:#000000;stroke-width:5;stroke-linecap:round;stroke-linejoin:round;stroke-miterlimit:10;}
	.st413{fill:none;stroke:#AC854F;stroke-width:0.7139;stroke-linecap:round;stroke-linejoin:round;stroke-miterlimit:10;}
	.st414{clip-path:url(#SVGID_134_);}
	.st415{fill:none;stroke:#AC854F;stroke-width:5;stroke-linecap:round;stroke-linejoin:round;stroke-miterlimit:10;}
	.st416{clip-path:url(#SVGID_136_);}
	.st417{fill:none;stroke:#AC854F;stroke-width:1.3384;stroke-linecap:round;stroke-linejoin:round;stroke-miterlimit:10;}
	.st418{fill:#2AB3BE;}
	.st419{fill:#F7A411;}
	.st420{clip-path:url(#SVGID_140_);}
	.st421{fill:#F7F0F0;stroke:#000000;stroke-width:1.591;stroke-miterlimit:10;}
	.st422{fill:#C6182D;stroke:#000000;stroke-width:0.7765;stroke-miterlimit:10;}
	.st423{fill:url(#SVGID_141_);}
	.st424{fill:#C6182D;stroke:#000000;stroke-width:1.5149;stroke-miterlimit:10;}
	.st425{clip-path:url(#SVGID_145_);}
	.st426{fill:url(#SVGID_146_);}
	.st427{clip-path:url(#SVGID_150_);}
	.st428{fill:url(#SVGID_151_);}
	.st429{fill:#3F3B39;stroke:#000000;stroke-width:1.2912;stroke-miterlimit:10;}
	.st430{fill:#FF282F;stroke:#000000;stroke-width:1.2912;stroke-miterlimit:10;}
	.st431{fill:#FFFFFF;stroke:#000000;stroke-width:1.2912;stroke-miterlimit:10;}
	.st432{fill:#F4C474;stroke:#000000;stroke-width:1.2912;stroke-miterlimit:10;}
	.st433{fill:#FFFFFF;stroke:#F4C474;stroke-width:1.2912;stroke-miterlimit:10;}
	.st434{fill:#FF282F;stroke:#F4C474;stroke-width:1.2912;stroke-miterlimit:10;}
	.st435{clip-path:url(#SVGID_155_);}
	.st436{fill:url(#SVGID_156_);}
	.st437{clip-path:url(#SVGID_160_);}
	.st438{fill:url(#SVGID_161_);}
	.st439{clip-path:url(#SVGID_165_);}
	.st440{fill:url(#SVGID_166_);}
	.st441{clip-path:url(#SVGID_170_);}
	.st442{fill:#F7F0F0;stroke:#000000;stroke-width:1.1829;stroke-miterlimit:10;}
	.st443{fill:#B79F70;stroke:#000000;stroke-width:0.5773;stroke-miterlimit:10;}
	.st444{clip-path:url(#SVGID_174_);}
	.st445{clip-path:url(#SVGID_178_);}
	.st446{clip-path:url(#SVGID_182_);}
	.st447{fill:#F4C374;stroke:#000000;stroke-miterlimit:10;}
	.st448{clip-path:url(#SVGID_186_);}
	.st449{clip-path:url(#SVGID_190_);}
	.st450{clip-path:url(#SVGID_194_);}
	.st451{clip-path:url(#SVGID_198_);}
	.st452{clip-path:url(#SVGID_202_);}
	.st453{clip-path:url(#SVGID_206_);}
	.st454{clip-path:url(#SVGID_210_);}
	.st455{clip-path:url(#SVGID_214_);}
	.st456{clip-path:url(#SVGID_218_);}
	.st457{clip-path:url(#SVGID_222_);}
	.st458{clip-path:url(#SVGID_226_);}
	.st459{clip-path:url(#SVGID_230_);}
	.st460{clip-path:url(#SVGID_234_);}
	.st461{clip-path:url(#SVGID_238_);}
	.st462{clip-path:url(#SVGID_242_);}
	.st463{clip-path:url(#SVGID_246_);}
	.st464{fill:#EFBC6C;stroke:#000000;stroke-miterlimit:10;}
	.st465{fill:#AFAF17;stroke:#000000;stroke-miterlimit:10;}
	.st466{fill:#436EC4;stroke:#000000;stroke-miterlimit:10;}
	.st467{fill:#C947C6;stroke:#000000;stroke-miterlimit:10;}
	.st468{fill:#E82E68;stroke:#000000;stroke-miterlimit:10;}
	.st469{fill:#F8BC71;stroke:#000000;stroke-miterlimit:10;}
	.st470{fill:#E28675;stroke:#000000;stroke-miterlimit:10;}
	.st471{fill:#BA6152;stroke:#000000;stroke-linecap:round;stroke-linejoin:round;stroke-miterlimit:10;}
	.st472{fill:#E05C5C;stroke:#000000;stroke-miterlimit:10;}
	.st473{fill:#D49676;stroke:#000000;stroke-miterlimit:10;}
	.st474{stroke:#000000;stroke-miterlimit:10;}
	.st475{fill:#2D2044;stroke:#000000;stroke-miterlimit:10;}
	.st476{fill:#535699;stroke:#000000;stroke-miterlimit:10;}
	.st477{clip-path:url(#SVGID_250_);}
	.st478{fill:#C6182D;stroke:#000000;stroke-width:0.5773;stroke-miterlimit:10;}
	.st479{clip-path:url(#SVGID_254_);}
	.st480{clip-path:url(#SVGID_258_);}
	.st481{clip-path:url(#SVGID_262_);}
	.st482{clip-path:url(#SVGID_266_);}
	.st483{clip-path:url(#SVGID_270_);}
	.st484{clip-path:url(#SVGID_274_);}
	.st485{clip-path:url(#SVGID_278_);}
	.st486{clip-path:url(#SVGID_282_);}
	.st487{clip-path:url(#SVGID_286_);}
	.st488{clip-path:url(#SVGID_290_);}
	.st489{clip-path:url(#SVGID_294_);}
	.st490{fill:#FFFFFF;stroke:#000000;stroke-width:0.6086;stroke-miterlimit:10;}
</style>
<g>
	<path class="st290" d="M276.4,54.6c0,0.9-15.8,12.3-16.3,22.6c-0.5,10.3,16.3,24,16.3,30.3c0,6.3-9.7,6.1-9.7,6.1v12.5
		c0,0,22.6,0.6,26.8-22.2c4.3-22.8-6.4-22.6-12.8-31.3C274.4,63.9,276.4,54.6,276.4,54.6L276.4,54.6z"/>
	<path class="st291" d="M264.2,88.3c0.9,1.4,1.9,2.8,2.9,4.2c0.2-1.1,0.5-2.2,1-3.2c0.7-1.5,1.6-2.8,2.8-3.9
		c2.3-2.1,5.6-3.1,9.5-1.8c1.8,0.6,3.2,2.1,4,4c0.9,2.1,1.2,4.6,0.6,6.6c-0.1,0.4-0.3,0.8-0.5,1.1c-0.6,1.1-1.4,1.8-2.5,2.2
		c-1.1,0.4-2.3,0.4-3.6,0c-0.5-0.2-1-0.4-1.5-0.6c-1.1-0.6-2-1.7-2.6-2.9c-0.5-1.2-0.7-2.4-0.3-3.5c0.1-0.2,0.2-0.5,0.3-0.6
		c0.3-0.6,0.8-1,1.3-1.2c0.6-0.2,1.3-0.2,2,0c0.3,0.1,0.6,0.2,0.9,0.4c0.4,0.2,0.7,0.6,0.9,1c0.2,0.4,0.2,0.8,0.1,1.1
		c0,0.1,0,0.1,0,0.1c0,0.1-0.1,0.1-0.1,0.1c-0.1,0-0.2,0-0.4,0c-0.1,0-0.2-0.1-0.3-0.1l-1.9,3.4c0.3,0.2,0.7,0.3,1,0.4
		c1,0.3,2,0.3,2.9-0.1c0.9-0.3,1.7-1,2.2-1.9c0.2-0.3,0.3-0.6,0.4-0.9c0.4-1.2,0.2-2.6-0.3-3.8c-0.5-1.2-1.4-2.2-2.6-2.8
		c-0.6-0.3-1.1-0.5-1.6-0.7c-1.6-0.5-3.1-0.4-4.5,0.1c-1.4,0.5-2.6,1.5-3.4,3c-0.2,0.4-0.4,0.9-0.6,1.4c-0.6,2-0.4,4.3,0.5,6.2
		c0.9,1.9,2.4,3.7,4.3,4.7c0.8,0.4,1.5,0.7,2.3,1c0.9,0.3,1.8,0.4,2.6,0.4c1,3.3,2.9,14.1-14.2,16.3l0.2,1.9
		c18.6-2.4,17.1-14.1,15.9-18.4c0.5-0.1,1-0.2,1.5-0.4c1.3-0.5,2.4-1.3,3.4-2.3c1,5.4,0.8,18.7-21.1,24.2l0.5,1.9
		c26.7-6.8,23.3-24.5,22.2-28.4c0.2-0.4,0.3-0.8,0.5-1.2c0.9-2.9,0.6-6.4-0.8-9.3c-1.2-2.8-3.4-5.1-6.3-6.1
		c-0.6-0.2-1.2-0.4-1.8-0.5c-5.1-4.3-6.2-12.4-5.3-18.6c-9.1,5-13.8,14.7-8.6,24.5c-0.5,0.8-1,1.6-1.4,2.5
		C264.3,87.8,264.2,88.1,264.2,88.3L264.2,88.3z M276.6,78.9c-1.2,0-2.4,0.2-3.5,0.6c-3.6-4.1-2.3-9.6-0.9-13.1
		C272.5,70,273.5,75.1,276.6,78.9L276.6,78.9z M271.2,80.3c-1.1,0.6-2.1,1.3-3.1,2.1c-0.3,0.3-0.7,0.7-1,1c-3.6-7.7-0.1-13.7,3-17.1
		C268.7,70.1,267.7,75.8,271.2,80.3L271.2,80.3z"/>
	<path class="st290" d="M181.1,69.6c0-1.1-6.5,8.7,0.8,21c7.3,12.3,13.6,20.1,13.6,26.6c0,6.5-1.5,6.1-1.5,6.1s-6.5-2.2-10.2,2
		c-3.7,4.3-1.8,8,0.7,8.9c2.5,0.8,35.7,0,35.7,0s0.7,0,0.8-3c0.1-3-1.1-13.9,0-16.9c1.1-3,8.7-11.2,8.7-11.2s-4.3,5.8-1.8,12.4
		c2.5,6.6,6.7,8.4,6.7,8.4s-6.7-1.1-8.3,3.1c-1.7,4.1-0.4,7.6-0.4,7.6h40.3c0,0,8.9-19.1,1.3-39.4c-7.6-20.3-24.5-13-29.3-29.2
		C233.3,49.8,183.7,46.9,181.1,69.6L181.1,69.6z"/>
	<path class="st292" d="M249.4,61.3c-0.1-1.8-1.5-7.6-1.7-9.4c-0.4-3.2-5.8-9-12.8-10.2c-0.7-0.1-1.2-0.1-1.7-0.1
		c-1.1,3.2-4,10.2-8.8,13.4c0.2,0.6,0.5,1.3,1,2c4.1,5.7,11.8,8.1,14.8,7C241.9,63.3,248,61.8,249.4,61.3L249.4,61.3z"/>
	<path class="st293" d="M232.9,42.5c-0.2,0.4-0.4,0.9-0.6,1.4c2.5,0.9,7.5,3,10.2,7.1l1.3-0.9C240.9,45.8,235.5,43.5,232.9,42.5
		L232.9,42.5z M231.1,46.6c-0.2,0.5-0.5,0.9-0.7,1.4c0.8,0.3,9.6,3.2,14.1,9.2l1.4-0.8C241.4,50.4,233.2,47.3,231.1,46.6L231.1,46.6
		z"/>
	<path class="st293" d="M229.4,49.6c-0.3,0.4-0.6,0.9-0.9,1.3c1.7,1.6,8,7.5,15.2,8.9l0.1-1.6C236.5,56.8,230.1,50.4,229.4,49.6
		L229.4,49.6z M226.6,53.1c-0.4,0.4-0.7,0.7-1.1,1c2,2,6.5,5.8,11.8,6.5l0.2-1.5C232.7,58.5,228.5,54.9,226.6,53.1L226.6,53.1z"/>
	<path class="st292" d="M240.5,20.9c-6.4,0-11.6,5.2-11.6,11.6c0,6.4,5.2,11.6,11.6,11.6c6.4,0,11.6-5.2,11.6-11.6
		C252.1,26.1,246.9,20.9,240.5,20.9L240.5,20.9z"/>
	<path class="st293" d="M231.1,39.5c1.3,1.8,3.1,3.1,5.2,3.9c0.1,0,0.3,0,0.4,0c3.1,0,6-1.3,8-3.3c2.1-2,3.3-4.8,3.3-7.9
		c0-2.4-1-4.6-2.6-6.1c-1.6-1.6-3.8-2.5-6.2-2.5c-2.4,0-4.6,1-6.2,2.5c-1.6,1.6-2.6,3.7-2.6,6.1c0,1.7,0.7,3.2,1.8,4.3
		c1.1,1.1,2.7,1.8,4.4,1.8c1.7,0,3.3-0.7,4.4-1.8c1.1-1.1,1.8-2.6,1.8-4.3c0-1-0.4-1.9-1.1-2.5c-0.7-0.6-1.6-1-2.6-1
		c-1,0-1.9,0.4-2.6,1c-0.7,0.7-1.1,1.6-1.1,2.5h2.1c0-0.4,0.2-0.8,0.4-1.1c0.3-0.3,0.7-0.4,1.1-0.4c0.4,0,0.8,0.2,1.1,0.4
		c0.3,0.3,0.4,0.6,0.4,1.1c0,1.1-0.5,2.1-1.2,2.9c-0.7,0.7-1.8,1.2-2.9,1.2c-1.1,0-2.2-0.5-2.9-1.2c-0.7-0.7-1.2-1.7-1.2-2.9
		c0-1.8,0.7-3.5,2-4.7c1.2-1.2,2.9-1.9,4.8-1.9c1.9,0,3.5,0.7,4.8,1.9c1.2,1.2,2,2.8,2,4.7c0,2.5-1,4.8-2.7,6.5
		c-1.7,1.7-4,2.7-6.6,2.7C234.6,41.3,232.7,40.6,231.1,39.5L231.1,39.5z"/>
	<path class="st292" d="M158.3,62.1c0.1-1.8,1.5-7.6,1.7-9.4c0.4-3.2,5.8-9,12.8-10.2c0.7-0.1,1.2-0.1,1.7-0.1
		c1.1,3.2,4,10.2,8.8,13.4c-0.2,0.6-0.5,1.3-1,2c-4.1,5.7-11.8,8.1-14.8,7C165.7,64.1,159.7,62.6,158.3,62.1L158.3,62.1z"/>
	<path class="st293" d="M174.8,43.3c0.2,0.4,0.4,0.9,0.6,1.4c-2.5,0.9-7.5,3-10.2,7.1l-1.3-0.9C166.8,46.6,172.1,44.3,174.8,43.3
		L174.8,43.3z M176.6,47.4c0.2,0.5,0.5,0.9,0.7,1.4c-0.8,0.3-9.6,3.2-14.1,9.2l-1.4-0.8C166.3,51.2,174.5,48.1,176.6,47.4
		L176.6,47.4z"/>
	<path class="st293" d="M178.3,50.4c0.3,0.4,0.6,0.9,0.9,1.3c-1.7,1.6-8,7.5-15.2,8.9l-0.1-1.6C171.1,57.6,177.5,51.2,178.3,50.4
		L178.3,50.4z M181,53.9c0.4,0.4,0.7,0.7,1.1,1c-2,2-6.5,5.8-11.8,6.5l-0.2-1.5C175,59.3,179.1,55.7,181,53.9L181,53.9z"/>
	<path class="st292" d="M166.2,20.9c6.4,0,11.6,5.2,11.6,11.6c0,6.4-5.2,11.6-11.6,11.6c-6.4,0-11.6-5.2-11.6-11.6
		C154.6,26.1,159.8,20.9,166.2,20.9L166.2,20.9z"/>
	<path class="st293" d="M175.5,39.5c-1.3,1.8-3.1,3.1-5.2,3.9c-0.1,0-0.3,0-0.4,0c-3.1,0-6-1.3-8-3.3c-2.1-2-3.3-4.8-3.3-7.9
		c0-2.4,1-4.6,2.6-6.1c1.6-1.6,3.8-2.5,6.2-2.5c2.4,0,4.6,1,6.2,2.5c1.6,1.6,2.6,3.7,2.6,6.1c0,1.7-0.7,3.2-1.8,4.3
		c-1.1,1.1-2.7,1.8-4.4,1.8c-1.7,0-3.3-0.7-4.4-1.8c-1.1-1.1-1.8-2.6-1.8-4.3c0-1,0.4-1.9,1.1-2.5c0.7-0.6,1.6-1,2.6-1
		c1,0,1.9,0.4,2.6,1c0.7,0.7,1.1,1.6,1.1,2.5h-2.1c0-0.4-0.2-0.8-0.4-1.1c-0.3-0.3-0.7-0.4-1.1-0.4c-0.4,0-0.8,0.2-1.1,0.4
		c-0.3,0.3-0.4,0.6-0.4,1.1c0,1.1,0.5,2.1,1.2,2.9c0.7,0.7,1.8,1.2,2.9,1.2c1.1,0,2.2-0.5,2.9-1.2c0.7-0.7,1.2-1.7,1.2-2.9
		c0-1.8-0.7-3.5-2-4.7c-1.2-1.2-2.9-1.9-4.8-1.9c-1.9,0-3.5,0.7-4.7,1.9c-1.2,1.2-2,2.8-2,4.7c0,2.5,1,4.8,2.7,6.5
		c1.7,1.7,4,2.7,6.6,2.7C172,41.3,173.9,40.6,175.5,39.5L175.5,39.5z"/>
	<path class="st290" d="M191.7,16.6c-5.5-6.4-14.6-1.9-24.2-11.7c0,0-2.8,3.4,0,10.6c2.8,7.2,8.2,11.3,8.2,11.3
		c-12,16.7,2.5,36.9,29.8,35.9h0c27.3,0.9,41.8-19.2,29.8-35.9c0,0,5.3-4.1,8.2-11.3c2.8-7.2,0-10.6,0-10.6
		c-9.6,9.8-18.8,5.3-24.2,11.7C211.7,12.9,199.1,12.9,191.7,16.6L191.7,16.6z"/>
	<path class="st294" d="M192.9,61.3c-4.4-1-7.8-2.7-10.1-4.8c-1.5-1.3-2.5-2.8-3-4.3c-0.5-1.7-0.5-3.3,0.3-4.8
		c0.6-1.1,1.5-2.1,2.9-2.9c5.3-3.1,39.4-3.1,44.7,0c1.3,0.8,2.3,1.8,2.9,2.9c0.8,1.5,0.9,3.2,0.3,4.8c-0.5,1.5-1.5,3-3,4.3
		c-2.3,2-5.7,3.8-10.1,4.8C205.2,64.2,205.6,64.2,192.9,61.3L192.9,61.3z"/>
	<path class="st293" d="M243.3,4.9c-9.6,9.7-18.7,5.3-24.2,11.7c0,0-0.1,0-0.1-0.1l0.1,0.1C229.6,25.6,242.5,12.1,243.3,4.9
		L243.3,4.9z"/>
	<path class="st293" d="M191.7,16.6c-5.5-6.4-14.6-1.9-24.2-11.7l0,0C168.2,12.1,181.1,25.6,191.7,16.6L191.7,16.6z"/>
	<path class="st295" d="M191.2,27.6c3.4,0,6.1,2.8,6.1,6.1c0,3.4-2.8,6.1-6.1,6.1c-3.4,0-6.1-2.8-6.1-6.1
		C185.1,30.4,187.8,27.6,191.2,27.6L191.2,27.6z"/>
	<path class="st296" d="M191.2,31c1.5,0,2.8,1.2,2.8,2.8c0,1.5-1.2,2.8-2.8,2.8c-1.5,0-2.8-1.2-2.8-2.8
		C188.5,32.2,189.7,31,191.2,31L191.2,31z"/>
	<path class="st295" d="M189.5,31c0.6,0,1.1,0.5,1.1,1.1c0,0.6-0.5,1.1-1.1,1.1c-0.6,0-1.1-0.5-1.1-1.1
		C188.5,31.5,188.9,31,189.5,31L189.5,31z"/>
	<path class="st295" d="M219.5,27.6c-3.4,0-6.1,2.8-6.1,6.1c0,3.4,2.8,6.1,6.1,6.1c3.4,0,6.1-2.8,6.1-6.1
		C225.7,30.4,222.9,27.6,219.5,27.6L219.5,27.6z"/>
	<path class="st296" d="M219.5,31c-1.5,0-2.8,1.2-2.8,2.8c0,1.5,1.2,2.8,2.8,2.8c1.5,0,2.8-1.2,2.8-2.8
		C222.3,32.2,221.1,31,219.5,31L219.5,31z"/>
	<path class="st295" d="M221.3,31c-0.6,0-1.1,0.5-1.1,1.1c0,0.6,0.5,1.1,1.1,1.1c0.6,0,1.1-0.5,1.1-1.1
		C222.3,31.5,221.8,31,221.3,31L221.3,31z"/>
	<path class="st297" d="M205.4,28.5c-0.4,0.8-1.2,1.6-2.8,1.4c-1.1-0.1-1.7-0.8-2.5-1.5c-1.1-1.1-2.5-2.5-6.1-1.7l-0.3-1.2
		c4.3-1,5.9,0.6,7.2,2c0.6,0.6,1.1,1.1,1.8,1.2c1.8,0.2,1.8-1.9,1.8-1.9l0.8,0l0.8,0c0,0,0,2.1,1.8,1.9c0.7-0.1,1.2-0.6,1.8-1.2
		c1.3-1.4,3-3,7.2-2l-0.3,1.2c-3.6-0.8-5,0.5-6.1,1.7c-0.7,0.7-1.4,1.4-2.5,1.5C206.5,30.2,205.8,29.4,205.4,28.5L205.4,28.5z"/>
	<path class="st292" d="M205.4,85.5c-1.9-1.1-7.2-5.5-9-6.7c-3.2-2.1-5.8-10.2-2.4-17c0.3-0.6,0.7-1.2,1.1-1.6
		c4.1,0.8,13.7,2.2,20.3-0.4c0.6,0.5,1.1,1.1,1.5,2c3.4,6.8,0.8,14.9-2.4,17C212.6,80,206.9,84.5,205.4,85.5L205.4,85.5z"/>
	<path class="st293" d="M204.2,62.3c0,0-3.2,10,0.4,17.7l-1.8,0.8c-3.9-8.4-0.5-19.1-0.5-19.1L204.2,62.3L204.2,62.3z M199.1,60.3
		c0,0-3.2,8.2,0.4,14.5l-1.8,0.7c-3.9-6.9-0.5-15.7-0.5-15.7L199.1,60.3L199.1,60.3z"/>
	<path class="st293" d="M206.6,62.3c0,0,3.2,10-0.4,17.7l1.8,0.8c3.9-8.4,0.5-19.1,0.5-19.1L206.6,62.3L206.6,62.3z M211.7,60.3
		c0,0,3.2,8.2-0.4,14.5l1.8,0.7c3.9-6.9,0.5-15.7,0.5-15.7L211.7,60.3L211.7,60.3z"/>
	<path class="st292" d="M234.1,68.2c1.2-4.8-1.7-9.6-6.5-10.8c-4.8-1.2-9.6,1.7-10.8,6.5c-1.2,4.8,1.7,9.6,6.5,10.8
		C228,75.8,232.9,72.9,234.1,68.2L234.1,68.2z"/>
	<path class="st293" d="M222,57.8c-1.6,0.6-2.9,1.7-3.9,3.1c0,0.1-0.1,0.2-0.1,0.3c-0.6,2.3-0.2,4.7,0.9,6.6c1.1,1.9,3,3.4,5.3,4
		c1.8,0.4,3.6,0.1,5-0.8c1.5-0.9,2.6-2.3,3-4.1c0.5-1.8,0.1-3.6-0.7-5.1c-0.9-1.5-2.3-2.6-4.1-3.1c-1.3-0.3-2.5-0.1-3.6,0.5
		c-1,0.6-1.8,1.6-2.2,2.9c-0.3,1.3-0.1,2.5,0.5,3.6c0.6,1,1.6,1.9,2.9,2.2c0.7,0.2,1.5,0,2.1-0.3c0.6-0.4,1.1-1,1.3-1.7
		c0.2-0.7,0.1-1.5-0.3-2.1c-0.4-0.6-1-1.1-1.7-1.3l-0.4,1.5c0.3,0.1,0.6,0.3,0.7,0.5c0.2,0.3,0.2,0.6,0.1,0.9
		c-0.1,0.3-0.3,0.6-0.5,0.7c-0.3,0.2-0.6,0.2-0.9,0.1c-0.8-0.2-1.5-0.7-1.9-1.4c-0.4-0.7-0.5-1.5-0.3-2.4c0.2-0.8,0.7-1.5,1.4-1.9
		c0.7-0.4,1.5-0.6,2.3-0.4c1.4,0.3,2.4,1.2,3.1,2.3c0.7,1.1,0.9,2.5,0.5,3.9c-0.3,1.4-1.2,2.5-2.3,3.2c-1.1,0.7-2.5,0.9-3.8,0.6
		c-1.9-0.5-3.4-1.7-4.3-3.2c-0.9-1.6-1.2-3.5-0.8-5.4C220,60,220.9,58.7,222,57.8L222,57.8z"/>
	<path class="st292" d="M176.7,68.2c-1.2-4.8,1.7-9.6,6.5-10.8c4.8-1.2,9.6,1.7,10.8,6.5c1.2,4.8-1.7,9.6-6.5,10.8
		C182.7,75.8,177.9,72.9,176.7,68.2L176.7,68.2z"/>
	<path class="st293" d="M188.7,57.8c1.6,0.6,2.9,1.7,3.9,3.1c0,0.1,0.1,0.2,0.1,0.3c0.6,2.3,0.2,4.7-0.9,6.6c-1.1,1.9-3,3.4-5.3,4
		c-1.8,0.4-3.6,0.1-5-0.8c-1.5-0.9-2.6-2.3-3-4.1c-0.5-1.8-0.1-3.6,0.7-5.1c0.9-1.5,2.3-2.6,4.1-3.1c1.3-0.3,2.5-0.1,3.6,0.5
		c1,0.6,1.8,1.6,2.2,2.9c0.3,1.3,0.1,2.5-0.5,3.6c-0.6,1-1.6,1.9-2.9,2.2c-0.7,0.2-1.5,0-2.1-0.3c-0.6-0.4-1.1-1-1.3-1.7
		c-0.2-0.7-0.1-1.5,0.3-2.1c0.4-0.6,1-1.1,1.7-1.3l0.4,1.5c-0.3,0.1-0.6,0.3-0.7,0.5c-0.2,0.3-0.2,0.6-0.1,0.9
		c0.1,0.3,0.3,0.6,0.5,0.7c0.3,0.2,0.6,0.2,0.9,0.1c0.8-0.2,1.5-0.7,1.9-1.4c0.4-0.7,0.6-1.5,0.3-2.4c-0.2-0.8-0.7-1.5-1.4-1.9
		c-0.7-0.4-1.5-0.6-2.3-0.4c-1.4,0.3-2.4,1.2-3.1,2.3c-0.7,1.1-0.9,2.5-0.5,3.9c0.3,1.4,1.2,2.5,2.3,3.2c1.1,0.7,2.5,0.9,3.8,0.6
		c1.9-0.5,3.4-1.7,4.3-3.2c0.9-1.6,1.2-3.5,0.8-5.4C190.8,60,189.9,58.7,188.7,57.8L188.7,57.8z"/>
	<path class="st292" d="M228.6,99.3c0,0-5.9-0.8-12,8.7c-6.1,9.5-8.7,13.4-12.7,15.1c-4,1.7-9.2,0-9.2,0s-0.6,3.7,5.9,5.9
		c6.5,2.2,9.5,0,9.5,0l-4.4-1.9c0,0,5.4,0.6,7.3-0.6c2-1.2,2.5-2,2.5-2l-3.8-0.9c0,0,5.9-0.8,7.2-3.3c1.3-2.5,1.1-3.2,1.4-3.2
		c0.3,0-3.3,0.8-3.3,0.8s4.1-2.3,5-4.4c0.9-2.2,1.2-2,1.2-2l-3.1,0.9c0,0,4.4-1.4,5-3.7c0.5-2.3,0.6-2.7,0.6-2.7l-2.5,0.5
		C223,106.4,228.6,104.9,228.6,99.3L228.6,99.3z"/>
	<path class="st292" d="M235,123.7c0,0,6.9,1.2,12.3-2.9c5.3-4.1,8.3-7.9,12.9-8.3c4.6-0.5,5.6,0,5.6,0s-2.5,0.5-4.1,3.1
		c-1.5,2.5-5.1,1.3-5.1,1.3s2.2,2.3,0,4c-2.2,1.7-4.6,0-4.6,0s2.5,0.7,2,3.1c-0.6,2.3-7.7,0-7.7,0s2.5,1.1,1.4,3.1
		c-1.1,2.1-7.6-0.8-7.6-0.8s1,1.5-0.6,1.5C237.8,127.7,235,123.7,235,123.7L235,123.7z"/>
	<path class="st298" d="M188.7,48c0,0,4.8,1.2,11.6,1.6v-4.4h0.8v4.4c2.7,0.1,5.6,0.2,8.7-0.1v-4.4h0.8v4.3c2.9-0.3,5.9-0.7,8.9-1.6
		c14.6-4-5.1-2.9-5.1-2.9L186,45.4C186,45.4,186,47.3,188.7,48L188.7,48z"/>
	<path class="st299" d="M193.3,45.6c0,0-3.3,3.1-3.4,5.6c-0.1,2.5-1.3,2.4-2.3,0.7c-1.1-1.7-1.2-5.8-1.2-5.8S188.9,45,193.3,45.6
		L193.3,45.6z"/>
	<path class="st299" d="M217.5,45.6c0,0,3.3,3.1,3.4,5.6c0.1,2.5,1.3,2.4,2.3,0.7c1.1-1.7,1.2-5.8,1.2-5.8S221.9,45,217.5,45.6
		L217.5,45.6z"/>
	<path class="st299" d="M190.4,58.2c0.2,0,1.4-3.7,3.6-4.5c2.2-0.8,0.6,2.9,2.4,4.9C198.1,60.6,190.4,58.2,190.4,58.2L190.4,58.2z"
		/>
	<path class="st299" d="M220.4,58.2c-0.2,0-1.4-3.7-3.6-4.5c-2.2-0.8-0.6,2.9-2.4,4.9C212.7,60.6,220.4,58.2,220.4,58.2L220.4,58.2z
		"/>
	<path class="st292" d="M194.4,8.6c4.2,0,7.6,3.4,7.6,7.6c0,4.2-3.4,7.6-7.6,7.6c-4.2,0-7.6-3.4-7.6-7.6
		C186.8,12,190.2,8.6,194.4,8.6L194.4,8.6z"/>
	<path class="st293" d="M200.5,20.7c-0.9,1.2-2,2.1-3.4,2.6c-0.1,0-0.2,0-0.3,0c-2,0-3.9-0.8-5.3-2.1c-1.3-1.3-2.2-3.2-2.2-5.2
		c0-1.6,0.6-3,1.7-4c1-1,2.5-1.7,4.1-1.7c1.6,0,3,0.6,4.1,1.7c1,1,1.7,2.4,1.7,4c0,1.1-0.5,2.1-1.2,2.8c-0.7,0.7-1.7,1.2-2.9,1.2
		c-1.1,0-2.1-0.5-2.9-1.2c-0.7-0.7-1.2-1.7-1.2-2.8c0-0.6,0.3-1.2,0.7-1.7c0.4-0.4,1-0.7,1.7-0.7c0.7,0,1.2,0.3,1.7,0.7
		c0.4,0.4,0.7,1,0.7,1.7h-1.4c0-0.3-0.1-0.5-0.3-0.7c-0.2-0.2-0.4-0.3-0.7-0.3s-0.5,0.1-0.7,0.3c-0.2,0.2-0.3,0.4-0.3,0.7
		c0,0.7,0.3,1.4,0.8,1.9c0.5,0.5,1.2,0.8,1.9,0.8c0.7,0,1.4-0.3,1.9-0.8c0.5-0.5,0.8-1.1,0.8-1.9c0-1.2-0.5-2.3-1.3-3
		c-0.8-0.8-1.9-1.3-3.1-1.3c-1.2,0-2.3,0.5-3.1,1.3c-0.8,0.8-1.3,1.9-1.3,3c0,1.6,0.7,3.1,1.8,4.2c1.1,1.1,2.6,1.8,4.3,1.8
		C198.2,21.9,199.4,21.5,200.5,20.7L200.5,20.7z"/>
	<path class="st292" d="M216.4,8.6c-4.2,0-7.6,3.4-7.6,7.6c0,4.2,3.4,7.6,7.6,7.6c4.2,0,7.6-3.4,7.6-7.6C224,12,220.6,8.6,216.4,8.6
		L216.4,8.6z"/>
	<path class="st293" d="M210.3,20.7c0.9,1.2,2,2.1,3.4,2.6c0.1,0,0.2,0,0.3,0c2.1,0,3.9-0.8,5.3-2.1c1.3-1.3,2.2-3.2,2.2-5.2
		c0-1.6-0.6-3-1.7-4c-1-1-2.5-1.7-4.1-1.7c-1.6,0-3,0.6-4.1,1.7c-1,1-1.7,2.4-1.7,4c0,1.1,0.5,2.1,1.2,2.8c0.7,0.7,1.7,1.2,2.9,1.2
		c1.1,0,2.1-0.5,2.9-1.2c0.7-0.7,1.2-1.7,1.2-2.8c0-0.6-0.3-1.2-0.7-1.7c-0.4-0.4-1-0.7-1.7-0.7c-0.7,0-1.2,0.3-1.7,0.7
		c-0.4,0.4-0.7,1-0.7,1.7h1.4c0-0.3,0.1-0.5,0.3-0.7c0.2-0.2,0.4-0.3,0.7-0.3c0.3,0,0.5,0.1,0.7,0.3c0.2,0.2,0.3,0.4,0.3,0.7
		c0,0.7-0.3,1.4-0.8,1.9c-0.5,0.5-1.2,0.8-1.9,0.8c-0.7,0-1.4-0.3-1.9-0.8c-0.5-0.5-0.8-1.1-0.8-1.9c0-1.2,0.5-2.3,1.3-3
		c0.8-0.8,1.9-1.3,3.1-1.3c1.2,0,2.3,0.5,3.1,1.3c0.8,0.8,1.3,1.9,1.3,3c0,1.6-0.7,3.1-1.8,4.2c-1.1,1.1-2.6,1.8-4.3,1.8
		C212.6,21.9,211.3,21.5,210.3,20.7L210.3,20.7z"/>
	<path class="st300" d="M184.1,47.6c-0.7,0.4-1.2,0.9-1.5,1.5c-0.3,0.6-0.3,1.3-0.1,2c0.3,0.9,1,1.8,2,2.8c1.9,1.7,4.8,3.2,8.7,4.1
		c11.4,2.6,12.9,2.6,24.4,0c3.9-0.9,6.8-2.4,8.7-4.1c1-0.9,1.7-1.9,2-2.8c0.2-0.7,0.2-1.4-0.1-2c-0.3-0.5-0.8-1-1.5-1.5
		C222.8,45.3,188,45.3,184.1,47.6L184.1,47.6z M192.4,61.7c-4.6-1-8.1-2.9-10.5-5c-1.5-1.4-2.6-2.9-3.1-4.5c-0.6-1.7-0.5-3.5,0.3-5
		c0.6-1.2,1.6-2.2,3-3c5.5-3.3,41.1-3.3,46.6,0c1.4,0.8,2.4,1.9,3,3c0.8,1.6,0.9,3.3,0.3,5c-0.5,1.6-1.6,3.1-3.1,4.5
		c-2.3,2.1-5.9,3.9-10.5,5C205.2,64.7,205.6,64.7,192.4,61.7L192.4,61.7z"/>
	<path class="st301" d="M200.7,56.7c2.5,0.3,3.9,0.7,4.6,0.9c0.7-0.3,2.1-0.7,4.6-0.9c8.2-0.8,4.6,15.3-4.6,15
		C196.2,72,192.5,55.9,200.7,56.7L200.7,56.7z"/>
	<path class="st291" d="M194.6,44.4c0,0-1-3.6,1.1-5c2-1.4,4.3-0.4,4.3-0.4c1.3-4.4,9.5-4.4,10.8,0c0,0,2.2-1,4.3,0.4
		c2,1.4,1.1,5,1.1,5C209,44.4,201.8,44.4,194.6,44.4L194.6,44.4z"/>
	<path class="st302" d="M195.7,44.4c0,0-0.9-2.3,1-3.2c1.8-0.9,3.8-0.3,3.8-0.3c1.2-2.8,8.5-2.8,9.7,0c0,0,2-0.6,3.8,0.3
		c1.8,0.9,1,3.2,1,3.2C208.6,44.4,202.2,44.4,195.7,44.4L195.7,44.4z"/>
	<path class="st297" d="M227,37.3c0,0,8.1-1.1,8.8,8.6l-2,0.1c-0.5-7.5-6.6-6.8-6.6-6.8L227,37.3L227,37.3z"/>
	<path class="st297" d="M183.8,37.3c0,0-8.1-1.1-8.8,8.6l2,0.1c0.5-7.5,6.6-6.8,6.6-6.8L183.8,37.3L183.8,37.3z"/>
	<path class="st292" d="M182.9,34.7c2.2,0,4,1.8,4,4c0,2.2-1.8,4-4,4c-2.2,0-4-1.8-4-4C178.9,36.5,180.7,34.7,182.9,34.7L182.9,34.7
		z"/>
	<path class="st293" d="M186.1,41.1c-0.5,0.6-1.1,1.1-1.8,1.4c0,0-0.1,0-0.1,0c-1.1,0-2.1-0.4-2.8-1.1c-0.7-0.7-1.2-1.7-1.2-2.7
		c0-0.8,0.3-1.6,0.9-2.1c0.6-0.5,1.3-0.9,2.1-0.9c0.8,0,1.6,0.3,2.1,0.9c0.6,0.5,0.9,1.3,0.9,2.1c0,0.6-0.2,1.1-0.6,1.5
		c-0.4,0.4-0.9,0.6-1.5,0.6c-0.6,0-1.1-0.2-1.5-0.6c-0.4-0.4-0.6-0.9-0.6-1.5c0-0.3,0.1-0.7,0.4-0.9c0.2-0.2,0.5-0.4,0.9-0.4
		c0.3,0,0.7,0.1,0.9,0.4c0.2,0.2,0.4,0.5,0.4,0.9h-0.7c0-0.1-0.1-0.3-0.2-0.4c-0.1-0.1-0.2-0.2-0.4-0.2c-0.1,0-0.3,0.1-0.4,0.2
		c-0.1,0.1-0.2,0.2-0.2,0.4c0,0.4,0.2,0.7,0.4,1c0.3,0.3,0.6,0.4,1,0.4c0.4,0,0.8-0.2,1-0.4c0.3-0.3,0.4-0.6,0.4-1
		c0-0.6-0.3-1.2-0.7-1.6c-0.4-0.4-1-0.7-1.6-0.7c-0.6,0-1.2,0.3-1.6,0.7c-0.4,0.4-0.7,1-0.7,1.6c0,0.9,0.4,1.7,0.9,2.2
		c0.6,0.6,1.4,0.9,2.3,0.9C184.9,41.8,185.6,41.5,186.1,41.1L186.1,41.1z"/>
	<path class="st292" d="M227.7,34.7c-2.2,0-4,1.8-4,4c0,2.2,1.8,4,4,4c2.2,0,4-1.8,4-4C231.7,36.5,229.9,34.7,227.7,34.7L227.7,34.7
		z"/>
	<path class="st293" d="M224.5,41.1c0.5,0.6,1.1,1.1,1.8,1.4c0,0,0.1,0,0.1,0c1.1,0,2.1-0.4,2.8-1.1c0.7-0.7,1.2-1.7,1.2-2.7
		c0-0.8-0.3-1.6-0.9-2.1c-0.6-0.5-1.3-0.9-2.1-0.9c-0.8,0-1.6,0.3-2.1,0.9c-0.6,0.5-0.9,1.3-0.9,2.1c0,0.6,0.2,1.1,0.6,1.5
		c0.4,0.4,0.9,0.6,1.5,0.6c0.6,0,1.1-0.2,1.5-0.6c0.4-0.4,0.6-0.9,0.6-1.5c0-0.3-0.1-0.7-0.4-0.9c-0.2-0.2-0.5-0.4-0.9-0.4
		c-0.3,0-0.7,0.1-0.9,0.4c-0.2,0.2-0.4,0.5-0.4,0.9h0.7c0-0.1,0.1-0.3,0.2-0.4c0.1-0.1,0.2-0.2,0.4-0.2c0.1,0,0.3,0.1,0.4,0.2
		c0.1,0.1,0.2,0.2,0.2,0.4c0,0.4-0.2,0.7-0.4,1c-0.3,0.3-0.6,0.4-1,0.4c-0.4,0-0.8-0.2-1-0.4c-0.3-0.3-0.4-0.6-0.4-1
		c0-0.6,0.3-1.2,0.7-1.6c0.4-0.4,1-0.7,1.6-0.7c0.6,0,1.2,0.3,1.6,0.7c0.4,0.4,0.7,1,0.7,1.6c0,0.9-0.4,1.7-0.9,2.2
		c-0.6,0.6-1.4,0.9-2.3,0.9C225.7,41.8,225,41.5,224.5,41.1L224.5,41.1z"/>
	<path class="st290" d="M28.1,54.6c0,0.9,15.8,12.3,16.3,22.6c0.5,10.3-16.3,24-16.3,30.3c0,6.3,9.7,6.1,9.7,6.1v12.5
		c0,0-22.6,0.6-26.8-22.2c-4.3-22.8,6.4-22.6,12.8-31.3C30.2,63.9,28.1,54.6,28.1,54.6L28.1,54.6z"/>
	<path class="st291" d="M40.4,88.3c-0.9,1.4-1.9,2.8-2.9,4.2c-0.2-1.1-0.5-2.2-1-3.2c-0.7-1.5-1.6-2.8-2.8-3.9
		c-2.3-2.1-5.6-3.1-9.5-1.8c-1.8,0.6-3.2,2.1-4,4c-0.9,2.1-1.2,4.6-0.6,6.6c0.1,0.4,0.3,0.8,0.5,1.1c0.6,1.1,1.4,1.8,2.5,2.2
		c1.1,0.4,2.3,0.4,3.6,0c0.5-0.2,1-0.4,1.5-0.6c1.1-0.6,2-1.7,2.6-2.9c0.5-1.2,0.7-2.4,0.3-3.5c-0.1-0.2-0.2-0.5-0.3-0.6
		c-0.3-0.6-0.8-1-1.3-1.2c-0.6-0.2-1.3-0.2-2,0c-0.3,0.1-0.6,0.2-0.9,0.4c-0.4,0.2-0.7,0.6-0.9,1c-0.2,0.4-0.2,0.8-0.1,1.1
		c0,0.1,0,0.1,0,0.1c0,0.1,0.1,0.1,0.1,0.1c0.1,0,0.2,0,0.4,0c0.1,0,0.2-0.1,0.3-0.1l1.9,3.4c-0.3,0.2-0.7,0.3-1,0.4
		c-1,0.3-2,0.3-2.9-0.1c-0.9-0.3-1.7-1-2.2-1.9c-0.2-0.3-0.3-0.6-0.4-0.9c-0.4-1.2-0.2-2.6,0.3-3.8c0.5-1.2,1.4-2.2,2.6-2.8
		c0.5-0.3,1.1-0.5,1.6-0.7c1.6-0.5,3.1-0.4,4.5,0.1c1.4,0.5,2.6,1.5,3.4,3c0.2,0.4,0.4,0.9,0.6,1.4c0.6,2,0.4,4.3-0.5,6.2
		c-0.9,1.9-2.4,3.7-4.3,4.7c-0.8,0.4-1.5,0.7-2.3,1c-0.9,0.3-1.8,0.4-2.6,0.4c-1,3.3-2.9,14.1,14.2,16.3l-0.2,1.9
		c-18.6-2.4-17.1-14.1-15.9-18.4c-0.5-0.1-1-0.2-1.5-0.4c-1.3-0.5-2.5-1.3-3.4-2.3c-1,5.4-0.8,18.7,21.1,24.2l-0.5,1.9
		c-26.7-6.8-23.3-24.5-22.2-28.4c-0.2-0.4-0.3-0.8-0.5-1.2c-0.9-2.9-0.6-6.4,0.8-9.3c1.2-2.8,3.4-5.1,6.3-6.1
		c0.6-0.2,1.2-0.4,1.8-0.5c5.1-4.3,6.2-12.4,5.3-18.6c9.1,5,13.8,14.7,8.6,24.5c0.5,0.8,1,1.6,1.4,2.5
		C40.2,87.8,40.3,88.1,40.4,88.3L40.4,88.3z M27.9,78.9c1.2,0,2.4,0.2,3.5,0.6c3.6-4.1,2.3-9.6,0.9-13.1
		C32.1,70,31.1,75.1,27.9,78.9L27.9,78.9z M33.4,80.3c1.1,0.6,2.1,1.3,3.1,2.1c0.3,0.3,0.7,0.7,1,1c3.6-7.7,0.1-13.7-3-17.1
		C35.8,70.1,36.9,75.8,33.4,80.3L33.4,80.3z"/>
	<path class="st290" d="M123.5,69.6c0-1.1,6.5,8.7-0.8,21c-7.3,12.3-13.6,20.1-13.6,26.6c0,6.5,1.5,6.1,1.5,6.1s6.5-2.2,10.2,2
		c3.7,4.3,1.8,8-0.7,8.9c-2.5,0.8-35.7,0-35.7,0s-0.7,0-0.8-3c-0.1-3,1.1-13.9,0-16.9c-1.1-3-8.7-11.2-8.7-11.2s4.3,5.8,1.8,12.4
		c-2.5,6.6-6.7,8.4-6.7,8.4s6.7-1.1,8.3,3.1c1.7,4.1,0.4,7.6,0.4,7.6H38.4c0,0-8.9-19.1-1.3-39.4c7.6-20.3,24.5-13,29.3-29.2
		C71.3,49.8,120.9,46.9,123.5,69.6L123.5,69.6z"/>
	<path class="st292" d="M99.2,85.5c1.9-1.1,7.2-5.5,9-6.7c3.2-2.1,5.8-10.2,2.4-17c-0.3-0.6-0.7-1.2-1.1-1.6
		c-4.1,0.8-13.7,2.2-20.3-0.4c-0.6,0.5-1.1,1.1-1.5,2c-3.4,6.8-0.8,14.9,2.4,17C92,80,97.7,84.5,99.2,85.5L99.2,85.5z"/>
	<path class="st293" d="M108,60.5c-0.6,0.1-1.2,0.2-1.9,0.3c0.7,3,1.5,8.8-1,13.6l1.8,0.7C109.6,69.9,108.8,63.8,108,60.5L108,60.5z
		 M102.5,61.1c-0.7,0-1.3,0.1-2,0.1c0.6,2.2,2.6,11.3-0.5,18.6l1.8,0.9C105,73.3,103.2,64.2,102.5,61.1L102.5,61.1z"/>
	<path class="st293" d="M97.9,61.3c-0.7,0-1.3,0-2-0.1c-0.7,3-2.5,12.1,0.7,19.6l1.8-0.9C95.3,72.6,97.3,63.5,97.9,61.3L97.9,61.3z
		 M92.3,60.7c-0.6-0.1-1.3-0.3-1.9-0.5c-0.8,3.2-1.7,9.6,1.1,14.9l1.8-0.7C90.7,69.5,91.6,63.7,92.3,60.7L92.3,60.7z"/>
	<path class="st292" d="M70.5,68.2c-1.2-4.8,1.7-9.6,6.5-10.8c4.8-1.2,9.6,1.7,10.8,6.5c1.2,4.8-1.7,9.6-6.5,10.8
		C76.5,75.8,71.7,72.9,70.5,68.2L70.5,68.2z"/>
	<path class="st293" d="M82.5,57.8c1.6,0.6,2.9,1.7,3.9,3.1c0,0.1,0.1,0.2,0.1,0.3c0.6,2.3,0.2,4.7-0.9,6.6c-1.1,1.9-3,3.4-5.3,4
		c-1.8,0.4-3.6,0.1-5-0.8c-1.5-0.9-2.6-2.3-3-4.1c-0.5-1.8-0.1-3.6,0.7-5.1c0.9-1.5,2.3-2.6,4.1-3.1c1.3-0.3,2.5-0.1,3.6,0.5
		c1,0.6,1.8,1.6,2.2,2.9c0.3,1.3,0.1,2.5-0.5,3.6c-0.6,1-1.6,1.9-2.9,2.2c-0.7,0.2-1.5,0-2.1-0.3c-0.6-0.4-1.1-1-1.3-1.7
		c-0.2-0.7-0.1-1.5,0.3-2.1c0.4-0.6,1-1.1,1.7-1.3l0.4,1.5c-0.3,0.1-0.6,0.3-0.7,0.5c-0.2,0.3-0.2,0.6-0.1,0.9
		c0.1,0.3,0.3,0.6,0.5,0.7c0.3,0.2,0.6,0.2,0.9,0.1c0.8-0.2,1.5-0.7,1.9-1.4c0.4-0.7,0.6-1.5,0.3-2.4c-0.2-0.8-0.7-1.5-1.4-1.9
		c-0.7-0.4-1.5-0.6-2.3-0.4c-1.4,0.3-2.4,1.2-3.1,2.3c-0.7,1.1-0.9,2.5-0.5,3.9c0.3,1.4,1.2,2.5,2.3,3.2c1.1,0.7,2.5,0.9,3.8,0.6
		c1.9-0.5,3.4-1.7,4.3-3.2c0.9-1.6,1.2-3.5,0.8-5.4C84.6,60,83.7,58.7,82.5,57.8L82.5,57.8z"/>
	<path class="st292" d="M127.9,68.2c1.2-4.8-1.7-9.6-6.5-10.8c-4.8-1.2-9.6,1.7-10.8,6.5c-1.2,4.8,1.7,9.6,6.5,10.8
		C121.8,75.8,126.7,72.9,127.9,68.2L127.9,68.2z"/>
	<path class="st293" d="M115.8,57.8c-1.6,0.6-2.9,1.7-3.9,3.1c0,0.1-0.1,0.2-0.1,0.3c-0.6,2.3-0.2,4.7,0.9,6.6c1.1,1.9,3,3.4,5.3,4
		c1.8,0.4,3.6,0.1,5-0.8c1.5-0.9,2.6-2.3,3-4.1c0.5-1.8,0.1-3.6-0.7-5.1c-0.9-1.5-2.3-2.6-4.1-3.1c-1.3-0.3-2.5-0.1-3.6,0.5
		c-1,0.6-1.8,1.6-2.2,2.9c-0.3,1.3-0.1,2.5,0.5,3.6c0.6,1,1.6,1.9,2.9,2.2c0.7,0.2,1.5,0,2.1-0.3c0.6-0.4,1.1-1,1.3-1.7
		c0.2-0.7,0.1-1.5-0.3-2.1c-0.4-0.6-1-1.1-1.7-1.3l-0.4,1.5c0.3,0.1,0.6,0.3,0.7,0.5c0.2,0.3,0.2,0.6,0.1,0.9
		c-0.1,0.3-0.3,0.6-0.5,0.7c-0.3,0.2-0.6,0.2-0.9,0.1c-0.8-0.2-1.5-0.7-1.9-1.4c-0.4-0.7-0.5-1.5-0.3-2.4c0.2-0.8,0.7-1.5,1.4-1.9
		c0.7-0.4,1.5-0.6,2.3-0.4c1.4,0.3,2.4,1.2,3.1,2.3c0.7,1.1,0.9,2.5,0.5,3.9c-0.3,1.4-1.2,2.5-2.3,3.2c-1.1,0.7-2.5,0.9-3.8,0.6
		c-1.9-0.5-3.4-1.7-4.3-3.2c-0.9-1.6-1.2-3.5-0.8-5.4C113.8,60,114.7,58.7,115.8,57.8L115.8,57.8z"/>
	<path class="st292" d="M55.2,61.3c0.1-1.8,1.5-7.6,1.7-9.4c0.4-3.2,5.8-9,12.8-10.2c0.7-0.1,1.2-0.1,1.7-0.1
		c1.1,3.2,4,10.2,8.8,13.4c-0.2,0.6-0.5,1.3-1,2c-4.1,5.7-11.8,8.1-14.8,7C62.6,63.3,56.6,61.8,55.2,61.3L55.2,61.3z"/>
	<path class="st293" d="M71.7,42.5c0.2,0.4,0.4,0.9,0.6,1.4c-2.5,0.9-7.5,3-10.2,7.1l-1.3-0.9C63.7,45.8,69,43.5,71.7,42.5
		L71.7,42.5z M73.5,46.6c0.2,0.5,0.5,0.9,0.7,1.4c-0.8,0.3-9.6,3.2-14.1,9.2l-1.4-0.8C63.2,50.4,71.4,47.3,73.5,46.6L73.5,46.6z"/>
	<path class="st293" d="M75.2,49.6c0.3,0.4,0.6,0.9,0.9,1.3c-1.7,1.6-8,7.5-15.2,8.9l-0.1-1.6C68,56.8,74.4,50.4,75.2,49.6
		L75.2,49.6z M77.9,53.1c0.4,0.4,0.7,0.7,1.1,1c-2,2-6.5,5.8-11.8,6.5l-0.2-1.5C71.9,58.5,76.1,54.9,77.9,53.1L77.9,53.1z"/>
	<path class="st292" d="M64.1,20.9c6.4,0,11.6,5.2,11.6,11.6c0,6.4-5.2,11.6-11.6,11.6c-6.4,0-11.6-5.2-11.6-11.6
		C52.5,26.1,57.7,20.9,64.1,20.9L64.1,20.9z"/>
	<path class="st293" d="M73.4,39.5c-1.3,1.8-3.1,3.1-5.2,3.9c-0.1,0-0.3,0-0.4,0c-3.1,0-6-1.3-8-3.3c-2.1-2-3.3-4.8-3.3-7.9
		c0-2.4,1-4.6,2.6-6.1c1.6-1.6,3.8-2.5,6.2-2.5c2.4,0,4.6,1,6.2,2.5c1.6,1.6,2.6,3.7,2.6,6.1c0,1.7-0.7,3.2-1.8,4.3
		c-1.1,1.1-2.7,1.8-4.4,1.8c-1.7,0-3.3-0.7-4.4-1.8c-1.1-1.1-1.8-2.6-1.8-4.3c0-1,0.4-1.9,1.1-2.5c0.7-0.6,1.6-1,2.6-1
		c1,0,1.9,0.4,2.6,1c0.7,0.7,1.1,1.6,1.1,2.5h-2.1c0-0.4-0.2-0.8-0.4-1.1c-0.3-0.3-0.7-0.4-1.1-0.4c-0.4,0-0.8,0.2-1.1,0.4
		c-0.3,0.3-0.4,0.6-0.4,1.1c0,1.1,0.5,2.1,1.2,2.9c0.7,0.7,1.8,1.2,2.9,1.2c1.1,0,2.2-0.5,2.9-1.2c0.7-0.7,1.2-1.7,1.2-2.9
		c0-1.8-0.7-3.5-2-4.7c-1.2-1.2-2.9-1.9-4.8-1.9c-1.9,0-3.5,0.7-4.8,1.9c-1.2,1.2-2,2.8-2,4.7c0,2.5,1,4.8,2.7,6.5
		c1.7,1.7,4,2.7,6.6,2.7C69.9,41.3,71.9,40.6,73.4,39.5L73.4,39.5z"/>
	<path class="st292" d="M146.3,62.1c-0.1-1.8-1.5-7.6-1.7-9.4c-0.4-3.2-5.8-9-12.8-10.2c-0.7-0.1-1.2-0.1-1.7-0.1
		c-1.1,3.2-4,10.2-8.8,13.4c0.2,0.6,0.5,1.3,1,2c4.1,5.7,11.8,8.1,14.8,7C138.8,64.1,144.9,62.6,146.3,62.1L146.3,62.1z"/>
	<path class="st293" d="M129.8,43.3c-0.2,0.4-0.4,0.9-0.6,1.4c2.5,0.9,7.5,3,10.2,7.1l1.3-0.9C137.8,46.6,132.4,44.3,129.8,43.3
		L129.8,43.3z M128,47.4c-0.2,0.5-0.5,0.9-0.7,1.4c0.9,0.3,9.6,3.2,14.1,9.2l1.4-0.8C138.3,51.2,130.1,48.1,128,47.4L128,47.4z"/>
	<path class="st293" d="M126.3,50.4c-0.3,0.4-0.6,0.9-0.9,1.3c1.7,1.6,8,7.5,15.2,8.9l0.1-1.6C133.4,57.6,127.1,51.2,126.3,50.4
		L126.3,50.4z M123.6,53.9c-0.4,0.4-0.7,0.7-1.1,1c2,2,6.5,5.8,11.8,6.5l0.2-1.5C129.6,59.3,125.4,55.7,123.6,53.9L123.6,53.9z"/>
	<path class="st292" d="M138.4,20.9c-6.4,0-11.6,5.2-11.6,11.6c0,6.4,5.2,11.6,11.6,11.6c6.4,0,11.6-5.2,11.6-11.6
		C150,26.1,144.8,20.9,138.4,20.9L138.4,20.9z"/>
	<path class="st293" d="M129.1,39.5c1.3,1.8,3.1,3.1,5.2,3.9c0.1,0,0.3,0,0.4,0c3.1,0,6-1.3,8-3.3c2.1-2,3.3-4.8,3.3-7.9
		c0-2.4-1-4.6-2.6-6.1c-1.6-1.6-3.8-2.5-6.2-2.5c-2.4,0-4.6,1-6.2,2.5c-1.6,1.6-2.6,3.7-2.6,6.1c0,1.7,0.7,3.2,1.8,4.3
		c1.1,1.1,2.7,1.8,4.4,1.8c1.7,0,3.3-0.7,4.4-1.8c1.1-1.1,1.8-2.6,1.8-4.3c0-1-0.4-1.9-1.1-2.5c-0.7-0.6-1.6-1-2.6-1s-1.9,0.4-2.6,1
		c-0.7,0.7-1.1,1.6-1.1,2.5h2.1c0-0.4,0.2-0.8,0.4-1.1c0.3-0.3,0.7-0.4,1.1-0.4c0.4,0,0.8,0.2,1.1,0.4c0.3,0.3,0.4,0.6,0.4,1.1
		c0,1.1-0.5,2.1-1.2,2.9c-0.7,0.7-1.8,1.2-2.9,1.2c-1.1,0-2.2-0.5-2.9-1.2c-0.7-0.7-1.2-1.7-1.2-2.9c0-1.8,0.7-3.5,2-4.7
		c1.2-1.2,2.9-1.9,4.8-1.9c1.9,0,3.5,0.7,4.8,1.9c1.2,1.2,2,2.8,2,4.7c0,2.5-1,4.8-2.7,6.5c-1.7,1.7-4,2.7-6.6,2.7
		C132.6,41.3,130.6,40.6,129.1,39.5L129.1,39.5z"/>
	<path class="st290" d="M112.9,16.6c5.5-6.4,14.6-1.9,24.2-11.7c0,0,2.8,3.4,0,10.6c-2.8,7.2-8.2,11.3-8.2,11.3
		c12,16.7-2.5,36.9-29.8,35.9h0c-27.3,0.9-41.8-19.2-29.8-35.9c0,0-5.3-4.1-8.2-11.3c-2.8-7.2,0-10.6,0-10.6
		c9.6,9.8,18.8,5.3,24.2,11.7C92.9,12.9,105.5,12.9,112.9,16.6L112.9,16.6z"/>
	<path class="st293" d="M61.3,4.9c9.6,9.7,18.7,5.3,24.2,11.7c0,0,0.1,0,0.1-0.1l-0.1,0.1C75,25.6,62.1,12.1,61.3,4.9L61.3,4.9z"/>
	<path class="st293" d="M112.9,16.6c5.5-6.4,14.6-1.9,24.2-11.7l0,0C136.4,12.1,123.5,25.6,112.9,16.6L112.9,16.6z"/>
	<path class="st295" d="M113.3,27.6c-3.4,0-6.1,2.8-6.1,6.1c0,3.4,2.8,6.1,6.1,6.1c3.4,0,6.1-2.8,6.1-6.1
		C119.5,30.4,116.7,27.6,113.3,27.6L113.3,27.6z"/>
	<path class="st296" d="M113.3,31c-1.5,0-2.8,1.2-2.8,2.8c0,1.5,1.2,2.8,2.8,2.8c1.5,0,2.8-1.2,2.8-2.8
		C116.1,32.2,114.9,31,113.3,31L113.3,31z"/>
	<path class="st295" d="M115.1,31c-0.6,0-1.1,0.5-1.1,1.1c0,0.6,0.5,1.1,1.1,1.1s1.1-0.5,1.1-1.1C116.1,31.5,115.6,31,115.1,31
		L115.1,31z"/>
	<path class="st295" d="M85,27.6c3.4,0,6.1,2.8,6.1,6.1c0,3.4-2.8,6.1-6.1,6.1c-3.4,0-6.1-2.8-6.1-6.1C78.9,30.4,81.6,27.6,85,27.6
		L85,27.6z"/>
	<path class="st296" d="M85,31c1.5,0,2.8,1.2,2.8,2.8c0,1.5-1.2,2.8-2.8,2.8c-1.5,0-2.8-1.2-2.8-2.8C82.2,32.2,83.5,31,85,31L85,31z
		"/>
	<path class="st295" d="M83.3,31c0.6,0,1.1,0.5,1.1,1.1c0,0.6-0.5,1.1-1.1,1.1s-1.1-0.5-1.1-1.1C82.2,31.5,82.7,31,83.3,31L83.3,31z
		"/>
	<path class="st297" d="M99.2,28.5c0.4,0.8,1.2,1.6,2.8,1.4c1.1-0.1,1.7-0.8,2.5-1.5c1.1-1.1,2.5-2.5,6.1-1.7l0.3-1.2
		c-4.3-1-5.9,0.6-7.2,2c-0.6,0.6-1.1,1.1-1.8,1.2c-1.8,0.2-1.8-1.9-1.8-1.9l-0.8,0l-0.8,0c0,0,0,2.1-1.8,1.9
		c-0.7-0.1-1.2-0.6-1.8-1.2c-1.3-1.4-3-3-7.2-2l0.3,1.2c3.6-0.8,5,0.5,6.1,1.7c0.7,0.7,1.4,1.4,2.5,1.5C98,30.2,98.8,29.4,99.2,28.5
		L99.2,28.5z"/>
	<path class="st292" d="M76,99.3c0,0,5.9-0.8,12,8.7c6.1,9.5,8.7,13.4,12.7,15.1c4,1.7,9.2,0,9.2,0s0.6,3.7-5.9,5.9
		c-6.5,2.2-9.5,0-9.5,0l4.4-1.9c0,0-5.4,0.6-7.3-0.6c-2-1.2-2.5-2-2.5-2l3.8-0.9c0,0-5.9-0.8-7.2-3.3c-1.3-2.5-1.1-3.2-1.4-3.2
		c-0.3,0,3.3,0.8,3.3,0.8s-4.1-2.3-5-4.4c-0.9-2.2-1.2-2-1.2-2l3.1,0.9c0,0-4.4-1.4-5-3.7c-0.5-2.3-0.6-2.7-0.6-2.7l2.5,0.5
		C81.6,106.4,76,104.9,76,99.3L76,99.3z"/>
	<path class="st292" d="M69.6,123.7c0,0-6.9,1.2-12.3-2.9c-5.3-4.1-8.3-7.9-12.9-8.3c-4.6-0.5-5.6,0-5.6,0s2.5,0.5,4.1,3.1
		c1.5,2.5,5.1,1.3,5.1,1.3s-2.2,2.3,0,4c2.2,1.7,4.6,0,4.6,0s-2.5,0.7-2,3.1c0.6,2.3,7.7,0,7.7,0s-2.5,1.1-1.4,3.1
		c1.1,2.1,7.6-0.8,7.6-0.8s-1,1.5,0.6,1.5C66.7,127.7,69.6,123.7,69.6,123.7L69.6,123.7z"/>
	<path class="st292" d="M110.2,8.6c-4.2,0-7.6,3.4-7.6,7.6c0,4.2,3.4,7.6,7.6,7.6c4.2,0,7.6-3.4,7.6-7.6
		C117.8,12,114.4,8.6,110.2,8.6L110.2,8.6z"/>
	<path class="st293" d="M104.1,20.7c0.9,1.2,2,2.1,3.4,2.6c0.1,0,0.2,0,0.3,0c2.1,0,3.9-0.8,5.3-2.1c1.3-1.3,2.2-3.2,2.2-5.2
		c0-1.6-0.6-3-1.7-4c-1-1-2.5-1.7-4.1-1.7s-3,0.6-4.1,1.7c-1,1-1.7,2.4-1.7,4c0,1.1,0.5,2.1,1.2,2.8c0.7,0.7,1.7,1.2,2.9,1.2
		c1.1,0,2.1-0.5,2.9-1.2c0.7-0.7,1.2-1.7,1.2-2.8c0-0.6-0.3-1.2-0.7-1.7c-0.4-0.4-1-0.7-1.7-0.7c-0.7,0-1.2,0.3-1.7,0.7
		c-0.4,0.4-0.7,1-0.7,1.7h1.4c0-0.3,0.1-0.5,0.3-0.7c0.2-0.2,0.4-0.3,0.7-0.3c0.3,0,0.5,0.1,0.7,0.3c0.2,0.2,0.3,0.4,0.3,0.7
		c0,0.7-0.3,1.4-0.8,1.9c-0.5,0.5-1.2,0.8-1.9,0.8c-0.7,0-1.4-0.3-1.9-0.8c-0.5-0.5-0.8-1.1-0.8-1.9c0-1.2,0.5-2.3,1.3-3
		c0.8-0.8,1.9-1.3,3.1-1.3c1.2,0,2.3,0.5,3.1,1.3c0.8,0.8,1.3,1.9,1.3,3c0,1.6-0.7,3.1-1.8,4.2c-1.1,1.1-2.6,1.8-4.3,1.8
		C106.4,21.9,105.1,21.5,104.1,20.7L104.1,20.7z"/>
	<path class="st292" d="M88.2,8.6c4.2,0,7.6,3.4,7.6,7.6c0,4.2-3.4,7.6-7.6,7.6c-4.2,0-7.6-3.4-7.6-7.6C80.6,12,84,8.6,88.2,8.6
		L88.2,8.6z"/>
	<path class="st293" d="M94.3,20.7c-0.9,1.2-2,2.1-3.4,2.6c-0.1,0-0.2,0-0.3,0c-2,0-3.9-0.8-5.3-2.1c-1.3-1.3-2.2-3.2-2.2-5.2
		c0-1.6,0.6-3,1.7-4c1-1,2.5-1.7,4.1-1.7c1.6,0,3,0.6,4.1,1.7c1,1,1.7,2.4,1.7,4c0,1.1-0.5,2.1-1.2,2.8c-0.7,0.7-1.7,1.2-2.9,1.2
		c-1.1,0-2.1-0.5-2.9-1.2C87,18,86.5,17,86.5,15.9c0-0.6,0.3-1.2,0.7-1.7c0.4-0.4,1-0.7,1.7-0.7c0.7,0,1.2,0.3,1.7,0.7
		c0.4,0.4,0.7,1,0.7,1.7h-1.4c0-0.3-0.1-0.5-0.3-0.7c-0.2-0.2-0.4-0.3-0.7-0.3c-0.3,0-0.5,0.1-0.7,0.3c-0.2,0.2-0.3,0.4-0.3,0.7
		c0,0.7,0.3,1.4,0.8,1.9c0.5,0.5,1.2,0.8,1.9,0.8c0.7,0,1.4-0.3,1.9-0.8c0.5-0.5,0.8-1.1,0.8-1.9c0-1.2-0.5-2.3-1.3-3
		c-0.8-0.8-1.9-1.3-3.1-1.3c-1.2,0-2.3,0.5-3.1,1.3c-0.8,0.8-1.3,1.9-1.3,3c0,1.6,0.7,3.1,1.8,4.2c1.1,1.1,2.6,1.8,4.3,1.8
		C92,21.9,93.2,21.5,94.3,20.7L94.3,20.7z"/>
	<path class="st291" d="M109.9,44.4c0,0,1-3.6-1.1-5c-2-1.4-4.3-0.4-4.3-0.4c-1.3-4.4-9.5-4.4-10.8,0c0,0-2.2-1-4.3,0.4
		c-2,1.4-1.1,5-1.1,5C95.6,44.4,102.8,44.4,109.9,44.4L109.9,44.4z"/>
	<path class="st302" d="M108.8,44.4c0,0,0.9-2.3-1-3.2c-1.8-0.9-3.8-0.3-3.8-0.3c-1.2-2.8-8.5-2.8-9.7,0c0,0-2-0.6-3.8,0.3
		c-1.8,0.9-1,3.2-1,3.2C96,44.4,102.4,44.4,108.8,44.4L108.8,44.4z"/>
	<path class="st299" d="M87.1,48.4c0,0-3.3,3.1-3.4,5.6c-0.1,2.5-1.3,2.4-2.3,0.7c-1.1-1.7-1.2-5.8-1.2-5.8S82.6,47.9,87.1,48.4
		L87.1,48.4z"/>
	<path class="st299" d="M111.3,48.4c0,0,3.3,3.1,3.4,5.6c0.1,2.5,1.3,2.4,2.3,0.7c1.1-1.7,1.2-5.8,1.2-5.8S115.7,47.9,111.3,48.4
		L111.3,48.4z"/>
	<path class="st300" d="M78.6,48.4c-1-0.4-1.4-1.6-1-2.6c0.4-1,1.6-1.4,2.6-1l0.2,0.1c2.4,1.1,20,8.9,37.7,0c1-0.5,2.2-0.1,2.6,0.9
		c0.5,1,0.1,2.2-0.9,2.6c-19.3,9.8-38.5,1.3-41.1,0.1C78.7,48.4,78.7,48.4,78.6,48.4L78.6,48.4z"/>
	<path class="st297" d="M120.8,37.3c0,0,8.2-1.1,8.8,8.6l-2,0.1c-0.5-7.5-6.6-6.8-6.6-6.8L120.8,37.3L120.8,37.3z"/>
	<path class="st297" d="M77.6,37.3c0,0-8.2-1.1-8.8,8.6l2,0.1c0.5-7.5,6.6-6.8,6.6-6.8L77.6,37.3L77.6,37.3z"/>
	<path class="st292" d="M76.8,34.7c2.2,0,4,1.8,4,4c0,2.2-1.8,4-4,4c-2.2,0-4-1.8-4-4C72.8,36.5,74.6,34.7,76.8,34.7L76.8,34.7z"/>
	<path class="st293" d="M80,41.1c-0.5,0.6-1.1,1.1-1.8,1.4c0,0-0.1,0-0.1,0c-1.1,0-2.1-0.4-2.8-1.1c-0.7-0.7-1.2-1.7-1.2-2.7
		c0-0.8,0.3-1.6,0.9-2.1c0.6-0.5,1.3-0.9,2.1-0.9c0.8,0,1.6,0.3,2.1,0.9c0.6,0.5,0.9,1.3,0.9,2.1c0,0.6-0.2,1.1-0.6,1.5
		c-0.4,0.4-0.9,0.6-1.5,0.6c-0.6,0-1.1-0.2-1.5-0.6c-0.4-0.4-0.6-0.9-0.6-1.5c0-0.3,0.1-0.7,0.4-0.9c0.2-0.2,0.5-0.4,0.9-0.4
		c0.3,0,0.7,0.1,0.9,0.4c0.2,0.2,0.4,0.5,0.4,0.9h-0.7c0-0.1-0.1-0.3-0.2-0.4c-0.1-0.1-0.2-0.2-0.4-0.2c-0.1,0-0.3,0.1-0.4,0.2
		c-0.1,0.1-0.2,0.2-0.2,0.4c0,0.4,0.2,0.7,0.4,1c0.3,0.3,0.6,0.4,1,0.4c0.4,0,0.8-0.2,1-0.4c0.3-0.3,0.4-0.6,0.4-1
		c0-0.6-0.3-1.2-0.7-1.6c-0.4-0.4-1-0.7-1.6-0.7c-0.6,0-1.2,0.3-1.6,0.7c-0.4,0.4-0.7,1-0.7,1.6c0,0.9,0.4,1.7,0.9,2.2
		c0.6,0.6,1.4,0.9,2.3,0.9C78.8,41.8,79.5,41.5,80,41.1L80,41.1z"/>
	<path class="st292" d="M121.6,34.7c-2.2,0-4,1.8-4,4c0,2.2,1.8,4,4,4c2.2,0,4-1.8,4-4C125.6,36.5,123.8,34.7,121.6,34.7L121.6,34.7
		z"/>
	<path class="st293" d="M118.4,41.1c0.5,0.6,1.1,1.1,1.8,1.4c0,0,0.1,0,0.1,0c1.1,0,2.1-0.4,2.8-1.1c0.7-0.7,1.2-1.7,1.2-2.7
		c0-0.8-0.3-1.6-0.9-2.1c-0.6-0.5-1.3-0.9-2.1-0.9c-0.8,0-1.6,0.3-2.1,0.9c-0.6,0.5-0.9,1.3-0.9,2.1c0,0.6,0.2,1.1,0.6,1.5
		c0.4,0.4,0.9,0.6,1.5,0.6c0.6,0,1.1-0.2,1.5-0.6c0.4-0.4,0.6-0.9,0.6-1.5c0-0.3-0.1-0.7-0.4-0.9c-0.2-0.2-0.5-0.4-0.9-0.4
		c-0.3,0-0.7,0.1-0.9,0.4c-0.2,0.2-0.4,0.5-0.4,0.9h0.7c0-0.1,0.1-0.3,0.2-0.4c0.1-0.1,0.2-0.2,0.4-0.2c0.1,0,0.3,0.1,0.4,0.2
		c0.1,0.1,0.2,0.2,0.2,0.4c0,0.4-0.2,0.7-0.4,1c-0.3,0.3-0.6,0.4-1,0.4c-0.4,0-0.8-0.2-1-0.4c-0.3-0.3-0.4-0.6-0.4-1
		c0-0.6,0.3-1.2,0.7-1.6c0.4-0.4,1-0.7,1.6-0.7c0.6,0,1.2,0.3,1.6,0.7c0.4,0.4,0.7,1,0.7,1.6c0,0.9-0.4,1.7-0.9,2.2
		c-0.6,0.6-1.4,0.9-2.3,0.9C119.6,41.8,118.9,41.5,118.4,41.1L118.4,41.1z"/>
</g>
</svg>
