<?xml version="1.0" encoding="utf-8"?>
<!-- Generator: Adobe Illustrator 25.0.1, SVG Export Plug-In . SVG Version: 6.00 Build 0)  -->
<svg version="1.1" id="圖層_1" xmlns="http://www.w3.org/2000/svg" xmlns:xlink="http://www.w3.org/1999/xlink" x="0px" y="0px"
	 viewBox="0 0 198.4 118.9" style="enable-background:new 0 0 198.4 118.9;" xml:space="preserve">
<style type="text/css">
	.st0{fill:#C6182D;}
	.st1{fill:#F7F6EC;}
	.st2{fill:#313535;stroke:#040000;stroke-linecap:round;stroke-linejoin:round;stroke-miterlimit:10;}
	.st3{fill:#FFFFFF;stroke:#FFFFFF;stroke-width:0.8391;stroke-miterlimit:10;}
	.st4{fill:#FFA486;}
	.st5{fill:#FFA486;stroke:#000000;stroke-miterlimit:10;}
	.st6{fill:#F7EBEB;stroke:#000000;stroke-miterlimit:10;}
	.st7{fill:#36303A;}
	.st8{fill:#6A433E;stroke:#000000;stroke-miterlimit:10;}
	.st9{fill:#FFA99B;stroke:#000000;stroke-miterlimit:10;}
	.st10{fill:#FFFFFF;}
	.st11{fill:#6A433E;}
	.st12{fill:#FFFFFF;stroke:#000000;stroke-linecap:round;stroke-linejoin:round;stroke-miterlimit:10;}
	.st13{fill:#F4EB73;stroke:#000000;stroke-miterlimit:10;}
	.st14{fill:#FFA99B;stroke:#000000;stroke-linecap:round;stroke-linejoin:round;stroke-miterlimit:10;}
	.st15{fill:#D96252;}
	.st16{fill:#D96252;stroke:#000000;stroke-miterlimit:10;}
	.st17{fill:#FFA486;stroke:#000000;stroke-width:1.0766;stroke-linecap:round;stroke-linejoin:round;stroke-miterlimit:10;}
	.st18{fill:#EFD2AA;}
	.st19{fill:#36303A;stroke:#000000;stroke-miterlimit:10;}
	.st20{fill:#86524D;stroke:#000000;stroke-miterlimit:10;}
	.st21{fill:#86524D;}
	.st22{fill:#6F5E68;stroke:#000000;stroke-miterlimit:10;}
	.st23{fill:#E9E9E9;stroke:#000000;stroke-width:1.0553;stroke-miterlimit:10;}
	.st24{fill:#537A95;stroke:#000000;stroke-width:1.0553;stroke-miterlimit:10;}
	.st25{fill:none;stroke:#000000;stroke-linecap:round;stroke-linejoin:round;stroke-miterlimit:10;}
	.st26{fill:#6F5E61;stroke:#000000;stroke-width:1.1524;stroke-miterlimit:10;}
	.st27{fill:#DFCEC6;stroke:#000000;stroke-width:1.1524;stroke-miterlimit:10;}
	.st28{fill:#36303A;stroke:#000000;stroke-width:1.1524;stroke-miterlimit:10;}
	.st29{fill:#36303A;stroke:#000000;stroke-width:1.3348;stroke-miterlimit:10;}
	.st30{fill:#F7EFEB;stroke:#000000;stroke-width:1.3348;stroke-miterlimit:10;}
	.st31{fill:#6F5E61;stroke:#000000;stroke-width:1.1524;stroke-linecap:round;stroke-linejoin:round;stroke-miterlimit:10;}
	.st32{fill:#36303A;stroke:#000000;stroke-width:1.1524;stroke-linecap:round;stroke-linejoin:round;stroke-miterlimit:10;}
	.st33{fill:#D0D0D0;stroke:#000000;stroke-width:1.1524;stroke-linecap:round;stroke-linejoin:round;stroke-miterlimit:10;}
	.st34{fill:#905851;stroke:#000000;stroke-width:1.1524;stroke-miterlimit:10;}
	.st35{fill:#F4D1B4;stroke:#000000;stroke-width:1.1524;stroke-miterlimit:10;}
	.st36{fill:#F7EFEB;}
	.st37{fill:#733832;stroke:#000000;stroke-width:1.1524;stroke-miterlimit:10;}
	.st38{fill:#DBA777;stroke:#000000;stroke-width:1.1524;stroke-miterlimit:10;}
	.st39{fill:#DBA777;}
	.st40{fill:#905851;}
	.st41{fill:#E7E7E7;stroke:#000000;stroke-linecap:round;stroke-linejoin:round;stroke-miterlimit:10;}
	.st42{fill:#954039;}
	.st43{fill:none;stroke:#000000;stroke-width:1.2726;stroke-linecap:round;stroke-linejoin:round;stroke-miterlimit:10;}
	.st44{fill:#954039;stroke:#000000;stroke-miterlimit:10;}
	.st45{fill:#905851;stroke:#000000;stroke-width:1.1524;stroke-linecap:round;stroke-linejoin:round;stroke-miterlimit:10;}
	.st46{fill:#ACABA9;stroke:#000000;stroke-miterlimit:10;}
	.st47{fill:#020202;stroke:#000000;stroke-miterlimit:10;}
	.st48{fill:#938862;stroke:#040000;stroke-width:0.8707;stroke-miterlimit:10;}
	.st49{fill:#736638;stroke:#040000;stroke-width:0.8707;stroke-miterlimit:10;}
	.st50{fill:#97B4A4;stroke:#000000;stroke-linecap:round;stroke-linejoin:round;stroke-miterlimit:10;}
	.st51{fill:#789D87;stroke:#000000;stroke-linecap:round;stroke-linejoin:round;stroke-miterlimit:10;}
	.st52{fill:#905851;stroke:#000000;stroke-linecap:round;stroke-linejoin:round;stroke-miterlimit:10;}
	.st53{fill:#DFCEC6;stroke:#000000;stroke-linecap:round;stroke-linejoin:round;stroke-miterlimit:10;}
	.st54{fill:#61372B;}
	.st55{fill:#E5B891;stroke:#040000;stroke-miterlimit:10;}
	.st56{fill:#DFB69E;stroke:#040000;stroke-width:0.7279;stroke-miterlimit:10;}
	.st57{fill:#A56656;stroke:#040000;stroke-width:0.9617;stroke-miterlimit:10;}
	.st58{fill:#FFA486;stroke:#000000;stroke-width:0.9093;stroke-miterlimit:10;}
	.st59{fill:#382732;stroke:#000000;stroke-width:0.7891;stroke-miterlimit:10;}
	.st60{fill:#382732;}
	.st61{fill:#FF9975;}
	.st62{fill:#6F5E61;stroke:#000000;stroke-width:0.7891;stroke-miterlimit:10;}
	.st63{fill:none;stroke:#040000;stroke-miterlimit:10;}
	.st64{fill:#313535;stroke:#040000;stroke-width:1.0065;stroke-linecap:round;stroke-linejoin:round;stroke-miterlimit:10;}
	.st65{fill:#FFFFFF;stroke:#FFFFFF;stroke-width:0.8446;stroke-miterlimit:10;}
	.st66{fill:#FFFFFF;stroke:#000000;stroke-width:0.7891;stroke-miterlimit:10;}
	.st67{fill:#86524D;stroke:#000000;stroke-width:0.9093;stroke-miterlimit:10;}
	.st68{fill:#FFFFFF;stroke:#000000;stroke-width:0.9093;stroke-linecap:round;stroke-linejoin:round;stroke-miterlimit:10;}
	.st69{fill:#36303A;stroke:#000000;stroke-width:0.7891;stroke-miterlimit:10;}
	.st70{fill:#6A433E;stroke:#000000;stroke-width:0.8804;stroke-miterlimit:10;}
	.st71{fill:#FFA99B;stroke:#000000;stroke-width:0.8804;stroke-miterlimit:10;}
	.st72{fill:#FFFFFF;stroke:#000000;stroke-width:0.8804;stroke-linecap:round;stroke-linejoin:round;stroke-miterlimit:10;}
	.st73{fill:#FFA99B;stroke:#000000;stroke-width:0.8804;stroke-linecap:round;stroke-linejoin:round;stroke-miterlimit:10;}
	.st74{fill:#E9E9E9;stroke:#000000;stroke-width:0.8328;stroke-miterlimit:10;}
	.st75{fill:#537A95;stroke:#000000;stroke-width:0.8328;stroke-miterlimit:10;}
	.st76{fill:#FF9975;stroke:#000000;stroke-width:0.7891;stroke-miterlimit:10;}
	.st77{fill:#EFDBBF;stroke:#000000;stroke-width:0.7891;stroke-miterlimit:10;}
	.st78{fill:#AF959A;stroke:#000000;stroke-linecap:round;stroke-linejoin:round;stroke-miterlimit:10;}
	.st79{fill:#AF959A;}
	.st80{fill:#FFA486;stroke:#000000;stroke-width:0.7947;stroke-miterlimit:10;}
	.st81{fill:#382732;stroke:#000000;stroke-width:0.6897;stroke-miterlimit:10;}
	.st82{fill:#6F5E61;stroke:#000000;stroke-width:0.6897;stroke-miterlimit:10;}
	.st83{fill:none;stroke:#040000;stroke-width:0.874;stroke-miterlimit:10;}
	.st84{fill:#313535;stroke:#040000;stroke-width:1.0909;stroke-linecap:round;stroke-linejoin:round;stroke-miterlimit:10;}
	.st85{fill:#FFFFFF;stroke:#FFFFFF;stroke-width:0.9154;stroke-miterlimit:10;}
	.st86{fill:#FFFFFF;stroke:#000000;stroke-width:0.6897;stroke-miterlimit:10;}
	.st87{fill:#86524D;stroke:#000000;stroke-width:0.7947;stroke-miterlimit:10;}
	.st88{fill:#FFFFFF;stroke:#000000;stroke-width:0.7947;stroke-linecap:round;stroke-linejoin:round;stroke-miterlimit:10;}
	.st89{fill:#36303A;stroke:#000000;stroke-width:0.6897;stroke-miterlimit:10;}
	.st90{fill:#E9E9E9;stroke:#000000;stroke-width:1.0991;stroke-miterlimit:10;}
	.st91{fill:#537A95;stroke:#000000;stroke-width:1.0991;stroke-miterlimit:10;}
	.st92{opacity:0.5;}
	.st93{fill:#FF5748;}
	.st94{fill:#A0A916;}
	.st95{fill:#FFD84A;}
	.st96{fill:#00A8E1;}
	.st97{fill:#FFE5CF;stroke:#040000;stroke-width:0.7253;stroke-miterlimit:10;}
	.st98{fill:#938862;stroke:#040000;stroke-width:0.7253;stroke-miterlimit:10;}
	.st99{fill:#98B3C8;stroke:#040000;stroke-width:0.7253;stroke-miterlimit:10;}
	.st100{fill:#FFFFFF;stroke:#040000;stroke-width:0.7253;stroke-miterlimit:10;}
	.st101{fill:#F7EEE9;stroke:#040000;stroke-width:0.7253;stroke-miterlimit:10;}
	.st102{fill:#FC8A89;stroke:#040000;stroke-width:0.7253;stroke-miterlimit:10;}
	.st103{fill:#FFBB57;stroke:#040000;stroke-width:0.7253;stroke-miterlimit:10;}
	.st104{fill:#E7AD56;stroke:#040000;stroke-width:0.7253;stroke-miterlimit:10;}
	.st105{fill:#E6B282;stroke:#040000;stroke-width:0.7253;stroke-miterlimit:10;}
	.st106{fill:#666666;}
	.st107{fill:#C6182D;stroke:#C6182D;stroke-width:3;stroke-linecap:round;stroke-linejoin:round;stroke-miterlimit:10;}
	.st108{fill:#F7F6EC;stroke:#F7F6EC;stroke-width:3;stroke-linecap:round;stroke-linejoin:round;stroke-miterlimit:10;}
	.st109{opacity:0.2;}
	.st110{fill:#DDD9D4;}
	.st111{opacity:5.000000e-02;clip-path:url(#SVGID_2_);}
	.st112{fill:none;stroke:#000000;stroke-width:2;stroke-miterlimit:10;}
	.st113{fill:none;stroke:#000000;stroke-width:0.9035;stroke-miterlimit:10;}
	.st114{clip-path:url(#SVGID_4_);}
	.st115{fill:#68491B;}
	.st116{fill:#754F1C;}
	.st117{fill:url(#SVGID_5_);}
	.st118{fill:url(#SVGID_6_);}
	.st119{fill:none;stroke:#602E13;stroke-width:1.2551;}
	.st120{fill:#AB9666;stroke:#000000;stroke-width:0.9035;stroke-miterlimit:10;}
	.st121{opacity:5.000000e-02;clip-path:url(#SVGID_8_);}
	.st122{fill:none;stroke:#000000;stroke-width:1.8071;stroke-miterlimit:10;}
	.st123{fill:none;stroke:#C6182D;stroke-width:0.5609;stroke-miterlimit:10;}
	.st124{fill:#C1A67E;}
	.st125{clip-path:url(#SVGID_10_);}
	.st126{clip-path:url(#SVGID_12_);}
	.st127{fill:#AB9666;}
	.st128{clip-path:url(#SVGID_14_);}
	.st129{clip-path:url(#SVGID_16_);}
	.st130{clip-path:url(#SVGID_18_);}
	.st131{clip-path:url(#SVGID_20_);}
	.st132{clip-path:url(#SVGID_22_);}
	.st133{clip-path:url(#SVGID_24_);}
	.st134{clip-path:url(#SVGID_26_);}
	.st135{fill:#AC854F;}
	.st136{clip-path:url(#SVGID_28_);}
	.st137{clip-path:url(#SVGID_30_);}
	.st138{clip-path:url(#SVGID_32_);}
	.st139{clip-path:url(#SVGID_34_);}
	.st140{fill:#C6182D;stroke:#000000;stroke-miterlimit:10;}
	.st141{fill:#F7F6EC;stroke:#000000;stroke-miterlimit:10;}
	.st142{fill:none;stroke:#000000;stroke-width:3;stroke-linecap:round;stroke-linejoin:round;stroke-miterlimit:10;}
	.st143{fill:none;stroke:#C6182D;stroke-miterlimit:10;}
	.st144{fill:none;stroke:#C6182D;stroke-width:0.6406;stroke-miterlimit:10;}
	.st145{fill:#B79F70;}
	.st146{opacity:0.5;fill:#FFFFFF;}
	.st147{clip-path:url(#SVGID_38_);}
	.st148{fill:#F7F0F0;stroke:#000000;stroke-width:2.1005;stroke-miterlimit:10;}
	.st149{fill:#B79F70;stroke:#000000;stroke-width:0.8559;stroke-miterlimit:10;}
	.st150{fill:none;stroke:#000000;stroke-width:0.8559;stroke-miterlimit:10;}
	.st151{fill:#C6182D;stroke:#000000;stroke-width:1.0251;stroke-miterlimit:10;}
	.st152{fill:#FFFFFF;stroke:#000000;stroke-width:2.4107;stroke-linecap:round;stroke-linejoin:round;stroke-miterlimit:10;}
	.st153{fill:#FFE5CF;stroke:#040000;stroke-miterlimit:10;}
	.st154{fill:#938862;stroke:#040000;stroke-miterlimit:10;}
	.st155{fill:#F7EEE9;stroke:#040000;stroke-miterlimit:10;}
	.st156{fill:#FFFFFF;stroke:#040000;stroke-miterlimit:10;}
	.st157{fill:#FC8A89;stroke:#040000;stroke-miterlimit:10;}
	.st158{fill:#98B3C8;stroke:#040000;stroke-miterlimit:10;}
	.st159{fill:#FFBB57;stroke:#040000;stroke-miterlimit:10;}
	.st160{fill:#E6B282;stroke:#040000;stroke-miterlimit:10;}
	.st161{fill:#3F3B39;}
	.st162{fill:#FF282F;}
	.st163{fill:#373733;}
	.st164{fill:#FFD769;}
	.st165{fill:#F4C474;}
	.st166{fill:#E8EAE3;}
	.st167{filter:url(#Adobe_OpacityMaskFilter);}
	.st168{mask:url(#SVGID_39_);}
	.st169{fill:#F0B75C;}
	.st170{fill:none;stroke:#000000;stroke-width:0.8197;stroke-linecap:round;stroke-linejoin:round;stroke-miterlimit:10;}
	.st171{fill:none;stroke:#000000;stroke-width:0.8197;stroke-miterlimit:10;}
	.st172{fill:#F9F4EF;stroke:#040000;stroke-miterlimit:10;}
	.st173{fill:#FFA99B;stroke:#040000;stroke-miterlimit:10;}
	.st174{fill:#36303A;stroke:#040000;stroke-miterlimit:10;}
	.st175{fill:#554E59;}
	.st176{opacity:0.54;fill:#F7EBEB;}
	.st177{fill:#6A433E;stroke:#040000;stroke-miterlimit:10;}
	.st178{fill:#FFA99B;stroke:#040000;stroke-linecap:round;stroke-linejoin:round;stroke-miterlimit:10;}
	.st179{fill:#020202;}
	.st180{fill:#6B3C2B;stroke:#040000;stroke-miterlimit:10;}
	.st181{fill:#FF4F2C;stroke:#040000;stroke-miterlimit:10;}
	.st182{fill:#FFA99B;}
	.st183{fill:#5D75DB;stroke:#040000;stroke-miterlimit:10;}
	.st184{fill:#EFD2AA;stroke:#040000;stroke-miterlimit:10;}
	.st185{fill:#E2C295;stroke:#040000;stroke-miterlimit:10;}
	.st186{fill:#F7EBEB;stroke:#040000;stroke-miterlimit:10;}
	.st187{fill:#FF4F2C;stroke:#040000;stroke-linecap:round;stroke-linejoin:round;stroke-miterlimit:10;}
	.st188{fill:#6F5E68;stroke:#040000;stroke-linecap:round;stroke-linejoin:round;stroke-miterlimit:10;}
	.st189{fill:#DB9A7D;}
	.st190{fill:#DD6A5B;stroke:#040000;stroke-miterlimit:10;}
	.st191{fill:#F4DDBE;stroke:#040000;stroke-miterlimit:10;}
	.st192{fill:#DB9A7D;stroke:#040000;stroke-miterlimit:10;}
	.st193{fill:#7B94B9;stroke:#040000;stroke-miterlimit:10;}
	.st194{fill:#FF282F;stroke:#000000;stroke-width:0.8566;stroke-miterlimit:10;}
	.st195{fill:#FF3E43;}
	.st196{opacity:0.3;}
	.st197{fill:#C7B299;}
	.st198{fill:none;stroke:#AC854F;stroke-width:0.753;stroke-linecap:round;stroke-linejoin:round;stroke-miterlimit:10;}
	.st199{clip-path:url(#SVGID_41_);}
	.st200{clip-path:url(#SVGID_43_);}
	.st201{fill:#B29341;}
	.st202{fill:#97A9DB;}
	.st203{fill:#97A9DB;stroke:#040000;stroke-miterlimit:10;}
	.st204{fill:#BED5F7;stroke:#040000;stroke-miterlimit:10;}
	.st205{fill:#9EBAE6;stroke:#040000;stroke-miterlimit:10;}
	.st206{fill:#723C39;stroke:#040000;stroke-miterlimit:10;}
	.st207{fill:#2D2044;}
	.st208{fill:#F4E58C;stroke:#020202;stroke-miterlimit:10;}
	.st209{stroke:#020202;stroke-miterlimit:10;}
	.st210{fill:#E28675;stroke:#020202;stroke-miterlimit:10;}
	.st211{fill:#535699;}
	.st212{fill:#55996A;stroke:#020202;stroke-miterlimit:10;}
	.st213{fill:#020202;stroke:#020202;stroke-miterlimit:10;}
	.st214{fill:none;stroke:#040000;stroke-linecap:round;stroke-linejoin:round;stroke-miterlimit:10;}
	.st215{fill:#FFFFFF;stroke:#040000;stroke-width:0.5;stroke-miterlimit:10;}
	.st216{clip-path:url(#SVGID_45_);}
	.st217{fill:url(#SVGID_46_);}
	.st218{fill:url(#SVGID_47_);}
	.st219{fill:url(#SVGID_48_);}
	.st220{fill:#C6182D;stroke:#000000;stroke-width:2;stroke-miterlimit:10;}
	.st221{fill:none;stroke:#FFFFFF;stroke-width:5.4451;stroke-linecap:round;stroke-linejoin:round;stroke-miterlimit:10;}
	.st222{fill:#E5E5E5;}
	.st223{fill:#FFFFFF;stroke:#000000;stroke-width:3;stroke-linecap:round;stroke-linejoin:round;stroke-miterlimit:10;}
	.st224{clip-path:url(#SVGID_52_);}
	.st225{fill:#B79F70;stroke:#000000;stroke-width:1.0251;stroke-miterlimit:10;}
	.st226{clip-path:url(#SVGID_56_);}
	.st227{clip-path:url(#SVGID_60_);}
	.st228{clip-path:url(#SVGID_64_);}
	.st229{clip-path:url(#SVGID_68_);}
	.st230{fill:#F9F8EF;}
	.st231{clip-path:url(#SVGID_72_);}
	.st232{fill:#C6182D;stroke:#000000;stroke-width:0.8559;stroke-miterlimit:10;}
	.st233{clip-path:url(#SVGID_76_);}
	.st234{clip-path:url(#SVGID_80_);}
	.st235{fill:#FF282F;stroke:#000000;stroke-width:2.3666;stroke-miterlimit:10;}
	.st236{fill:#FF282F;stroke:#000000;stroke-miterlimit:10;}
	.st237{fill:#FBFFF6;}
	.st238{fill:none;stroke:#FBFFF6;stroke-miterlimit:10;}
	.st239{fill:#3F3B39;stroke:#FCFCF6;stroke-miterlimit:10;}
	.st240{clip-path:url(#SVGID_82_);}
	.st241{fill:#FF282F;stroke:#FCFCF6;stroke-miterlimit:10;}
	.st242{fill:none;stroke:#000000;stroke-miterlimit:10;}
	.st243{fill:none;stroke:#373733;stroke-miterlimit:10;}
	.st244{clip-path:url(#SVGID_84_);}
	.st245{fill:none;stroke:#FFFFFF;stroke-miterlimit:10;}
	.st246{fill:#373733;stroke:#000000;stroke-miterlimit:10;}
	.st247{fill:#FFFFFF;stroke:#000000;stroke-width:0.827;stroke-miterlimit:10;}
	.st248{fill:#FFFFFF;stroke:#FFD84A;stroke-width:1.7405;stroke-miterlimit:10;}
	.st249{fill:#EFF0D6;}
	.st250{clip-path:url(#SVGID_86_);}
	.st251{fill:none;stroke:#000000;stroke-width:1.7405;stroke-miterlimit:10;}
	.st252{fill:#FFD22C;stroke:#000000;stroke-miterlimit:10;}
	.st253{clip-path:url(#SVGID_88_);}
	.st254{clip-path:url(#SVGID_90_);}
	.st255{fill:#614D3F;}
	.st256{filter:url(#Adobe_OpacityMaskFilter_1_);}
	.st257{mask:url(#SVGID_91_);}
	.st258{fill:none;stroke:#000000;stroke-width:1.5032;stroke-linecap:round;stroke-linejoin:round;stroke-miterlimit:10;}
	.st259{fill:none;stroke:#000000;stroke-width:1.5032;stroke-miterlimit:10;}
	.st260{fill:#EFBC6C;}
	.st261{clip-path:url(#SVGID_93_);}
	.st262{clip-path:url(#SVGID_95_);}
	.st263{clip-path:url(#SVGID_97_);}
	.st264{clip-path:url(#SVGID_99_);}
	.st265{fill:#F4C374;stroke:#000000;stroke-width:1.2527;stroke-miterlimit:10;}
	.st266{fill:none;stroke:#000000;stroke-width:1.2527;stroke-linecap:round;stroke-linejoin:round;stroke-miterlimit:10;}
	.st267{fill:#FFFFFF;stroke:#000000;stroke-width:1.2527;stroke-miterlimit:10;}
	.st268{fill:#EFBC6C;stroke:#000000;stroke-width:1.1723;stroke-miterlimit:10;}
	.st269{fill:none;}
	.st270{fill:none;stroke:#000000;stroke-width:1.1723;stroke-miterlimit:10;}
	.st271{fill:#AFAF17;stroke:#000000;stroke-width:1.1723;stroke-miterlimit:10;}
	.st272{fill:#436EC4;stroke:#000000;stroke-width:1.1723;stroke-miterlimit:10;}
	.st273{fill:#C947C6;stroke:#000000;stroke-width:1.1723;stroke-miterlimit:10;}
	.st274{fill:#E82E68;stroke:#000000;stroke-width:1.1723;stroke-miterlimit:10;}
	.st275{fill:#836270;}
	.st276{fill:#A9746B;}
	.st277{fill:#F8FCE4;}
	.st278{fill:#F8BC71;stroke:#000000;stroke-width:0.8735;stroke-miterlimit:10;}
	.st279{fill:#E28675;stroke:#000000;stroke-width:0.8735;stroke-miterlimit:10;}
	.st280{fill:#E28675;}
	.st281{fill:#BA6152;stroke:#000000;stroke-width:0.8735;stroke-linecap:round;stroke-linejoin:round;stroke-miterlimit:10;}
	.st282{fill:#FFFFFF;stroke:#000000;stroke-width:0.8735;stroke-linecap:round;stroke-linejoin:round;stroke-miterlimit:10;}
	.st283{fill:#E05C5C;stroke:#000000;stroke-width:0.8735;stroke-miterlimit:10;}
	.st284{fill:#D49676;stroke:#000000;stroke-width:0.8735;stroke-miterlimit:10;}
	.st285{stroke:#000000;stroke-width:0.4367;stroke-miterlimit:10;}
	.st286{fill:#FFFFFF;stroke:#000000;stroke-width:0.8735;stroke-miterlimit:10;}
	.st287{fill:#2D2044;stroke:#000000;stroke-width:0.8735;stroke-miterlimit:10;}
	.st288{fill:#535699;stroke:#000000;stroke-width:0.8735;stroke-miterlimit:10;}
	.st289{fill:none;stroke:#000000;stroke-width:0.8735;stroke-linecap:round;stroke-linejoin:round;stroke-miterlimit:10;}
	
		.st290{fill-rule:evenodd;clip-rule:evenodd;fill:#EB984E;stroke:#000000;stroke-linecap:round;stroke-linejoin:round;stroke-miterlimit:10;}
	
		.st291{fill-rule:evenodd;clip-rule:evenodd;fill:#BD7231;stroke:#000000;stroke-linecap:round;stroke-linejoin:round;stroke-miterlimit:10;}
	
		.st292{fill-rule:evenodd;clip-rule:evenodd;fill:#B05E15;stroke:#000000;stroke-linecap:round;stroke-linejoin:round;stroke-miterlimit:10;}
	
		.st293{fill-rule:evenodd;clip-rule:evenodd;fill:#D68910;stroke:#000000;stroke-linecap:round;stroke-linejoin:round;stroke-miterlimit:10;}
	.st294{fill:#691F16;stroke:#000000;stroke-linecap:round;stroke-linejoin:round;stroke-miterlimit:10;}
	
		.st295{fill-rule:evenodd;clip-rule:evenodd;fill:#FFFFFF;stroke:#000000;stroke-linecap:round;stroke-linejoin:round;stroke-miterlimit:10;}
	.st296{fill-rule:evenodd;clip-rule:evenodd;stroke:#000000;stroke-linecap:round;stroke-linejoin:round;stroke-miterlimit:10;}
	.st297{fill:#B05E15;stroke:#000000;stroke-linecap:round;stroke-linejoin:round;stroke-miterlimit:10;}
	
		.st298{fill-rule:evenodd;clip-rule:evenodd;fill:#F0F3F4;stroke:#000000;stroke-linecap:round;stroke-linejoin:round;stroke-miterlimit:10;}
	
		.st299{fill-rule:evenodd;clip-rule:evenodd;fill:#F3F3F3;stroke:#000000;stroke-linecap:round;stroke-linejoin:round;stroke-miterlimit:10;}
	
		.st300{fill-rule:evenodd;clip-rule:evenodd;fill:#DB741B;stroke:#000000;stroke-linecap:round;stroke-linejoin:round;stroke-miterlimit:10;}
	
		.st301{fill-rule:evenodd;clip-rule:evenodd;fill:#B3382B;stroke:#000000;stroke-linecap:round;stroke-linejoin:round;stroke-miterlimit:10;}
	
		.st302{fill-rule:evenodd;clip-rule:evenodd;fill:#965013;stroke:#000000;stroke-linecap:round;stroke-linejoin:round;stroke-miterlimit:10;}
	.st303{fill:#EE615A;stroke:#000000;stroke-linecap:round;stroke-linejoin:round;stroke-miterlimit:10;}
	.st304{fill:#78514C;stroke:#000000;stroke-linecap:round;stroke-linejoin:round;stroke-miterlimit:10;}
	.st305{fill:#F3EEDB;stroke:#000000;stroke-linecap:round;stroke-linejoin:round;stroke-miterlimit:10;}
	.st306{fill:#E45A40;stroke:#000000;stroke-linecap:round;stroke-linejoin:round;stroke-miterlimit:10;}
	.st307{fill:#219785;stroke:#000000;stroke-linecap:round;stroke-linejoin:round;stroke-miterlimit:10;}
	.st308{fill:#AE9794;stroke:#000000;stroke-linecap:round;stroke-linejoin:round;stroke-miterlimit:10;}
	.st309{fill:#F79E4C;stroke:#000000;stroke-linecap:round;stroke-linejoin:round;stroke-miterlimit:10;}
	.st310{fill:#F7AD4C;stroke:#000000;stroke-linecap:round;stroke-linejoin:round;stroke-miterlimit:10;}
	.st311{fill:#FAC594;stroke:#000000;stroke-linecap:round;stroke-linejoin:round;stroke-miterlimit:10;}
	.st312{fill:#FFD27A;stroke:#000000;stroke-linecap:round;stroke-linejoin:round;stroke-miterlimit:10;}
	.st313{opacity:0.82;fill:#EE615A;stroke:#000000;stroke-linecap:round;stroke-linejoin:round;stroke-miterlimit:10;}
	.st314{opacity:0.57;fill:#AA7023;stroke:#000000;stroke-linecap:round;stroke-linejoin:round;stroke-miterlimit:10;}
	.st315{fill:#100F0C;stroke:#000000;stroke-width:0.7512;stroke-miterlimit:10;}
	.st316{fill:#676666;stroke:#000000;stroke-width:0.7512;stroke-miterlimit:10;}
	.st317{fill:#0E0A09;stroke:#000000;stroke-width:0.7512;stroke-miterlimit:10;}
	.st318{fill:#FFFCF1;stroke:#000000;stroke-width:0.7512;stroke-miterlimit:10;}
	.st319{fill:#1B3218;stroke:#000000;stroke-width:0.7512;stroke-miterlimit:10;}
	.st320{fill:#E7E4AA;stroke:#000000;stroke-width:0.7512;stroke-miterlimit:10;}
	.st321{fill:#EB6611;stroke:#000000;stroke-width:0.7512;stroke-miterlimit:10;}
	.st322{fill:#E73B0C;stroke:#000000;stroke-width:0.7512;stroke-miterlimit:10;}
	.st323{fill:#DC4911;stroke:#000000;stroke-width:0.7512;stroke-miterlimit:10;}
	.st324{fill:#DD2115;stroke:#000000;stroke-width:0.7512;stroke-miterlimit:10;}
	.st325{fill:#EA590D;stroke:#000000;stroke-width:0.7512;stroke-miterlimit:10;}
	.st326{fill:#FFFFFF;stroke:#000000;stroke-width:0.7512;stroke-miterlimit:10;}
	.st327{fill:#DC3913;stroke:#000000;stroke-width:0.7512;stroke-miterlimit:10;}
	.st328{fill:#F39A00;stroke:#000000;stroke-width:0.7512;stroke-miterlimit:10;}
	.st329{fill:#596E26;stroke:#000000;stroke-width:0.7512;stroke-miterlimit:10;}
	.st330{fill:#A0C115;stroke:#000000;stroke-width:0.7512;stroke-miterlimit:10;}
	.st331{fill:#FBCE40;stroke:#000000;stroke-width:0.7512;stroke-miterlimit:10;}
	.st332{fill:#F8BA22;stroke:#000000;stroke-width:0.7512;stroke-miterlimit:10;}
	.st333{fill:#FCEA66;stroke:#000000;stroke-width:0.7512;stroke-miterlimit:10;}
	.st334{fill:#FF6666;stroke:#000000;stroke-width:0.894;stroke-miterlimit:10;}
	.st335{fill:#FFFFFF;stroke:#000000;stroke-width:0.894;stroke-miterlimit:10;}
	.st336{fill:#999999;stroke:#000000;stroke-width:0.894;stroke-miterlimit:10;}
	.st337{fill:#B3B3B3;stroke:#000000;stroke-width:0.894;stroke-miterlimit:10;}
	.st338{fill:#3F3B39;stroke:#000000;stroke-miterlimit:10;}
	.st339{fill:#AA783F;}
	.st340{fill:#FFFFFF;stroke:#000000;stroke-miterlimit:10;}
	.st341{fill:#F4C474;stroke:#000000;stroke-miterlimit:10;}
	.st342{fill:#E9A459;}
	.st343{fill:#FFFFFF;stroke:#F4C474;stroke-miterlimit:10;}
	.st344{fill:#FF282F;stroke:#F4C474;stroke-miterlimit:10;}
	.st345{fill:#FFFFFF;stroke:#040000;stroke-width:0.6639;stroke-miterlimit:10;}
	.st346{fill:#F7F6EC;stroke:#000000;stroke-linecap:round;stroke-linejoin:round;stroke-miterlimit:10;}
	.st347{fill:#C6182D;stroke:#000000;stroke-linecap:round;stroke-linejoin:round;stroke-miterlimit:10;}
	.st348{fill:none;stroke:#000000;stroke-width:1.315;stroke-miterlimit:10;}
	.st349{clip-path:url(#SVGID_101_);}
	.st350{fill:url(#SVGID_102_);}
	.st351{fill:url(#SVGID_103_);}
	.st352{fill:none;stroke:#602E13;stroke-width:1.8267;}
	.st353{opacity:5.000000e-02;clip-path:url(#SVGID_105_);}
	.st354{fill:none;stroke:#000000;stroke-width:2.63;stroke-miterlimit:10;}
	.st355{fill:none;stroke:#C6182D;stroke-width:0.8163;stroke-miterlimit:10;}
	.st356{clip-path:url(#SVGID_107_);}
	.st357{clip-path:url(#SVGID_109_);}
	.st358{clip-path:url(#SVGID_111_);}
	.st359{clip-path:url(#SVGID_113_);}
	.st360{clip-path:url(#SVGID_115_);}
	.st361{clip-path:url(#SVGID_117_);}
	.st362{clip-path:url(#SVGID_119_);}
	.st363{clip-path:url(#SVGID_121_);}
	.st364{clip-path:url(#SVGID_123_);}
	.st365{clip-path:url(#SVGID_125_);}
	.st366{clip-path:url(#SVGID_127_);}
	.st367{clip-path:url(#SVGID_129_);}
	.st368{clip-path:url(#SVGID_131_);}
	.st369{fill:#E8904D;stroke:#040000;stroke-width:1.46;stroke-miterlimit:10;}
	.st370{fill:#E6B282;stroke:#040000;stroke-width:1.46;stroke-miterlimit:10;}
	.st371{fill:#97A9DB;stroke:#040000;stroke-width:1.3468;stroke-miterlimit:10;}
	.st372{fill:#BED5F7;stroke:#040000;stroke-width:1.3468;stroke-miterlimit:10;}
	.st373{fill:#9EBAE6;stroke:#040000;stroke-width:1.3468;stroke-miterlimit:10;}
	.st374{fill:#723C39;stroke:#040000;stroke-width:1.3468;stroke-miterlimit:10;}
	.st375{fill:#F4E58C;stroke:#020202;stroke-width:1.3468;stroke-miterlimit:10;}
	.st376{stroke:#020202;stroke-width:1.3468;stroke-miterlimit:10;}
	.st377{fill:#E28675;stroke:#020202;stroke-width:1.3468;stroke-miterlimit:10;}
	.st378{fill:#55996A;stroke:#020202;stroke-width:1.3468;stroke-miterlimit:10;}
	.st379{fill:#020202;stroke:#020202;stroke-width:1.3468;stroke-miterlimit:10;}
	.st380{fill:none;stroke:#040000;stroke-width:1.3468;stroke-linecap:round;stroke-linejoin:round;stroke-miterlimit:10;}
	.st381{fill:#FFE5CF;stroke:#040000;stroke-width:1.3698;stroke-miterlimit:10;}
	.st382{fill:#938862;stroke:#040000;stroke-width:1.3698;stroke-miterlimit:10;}
	.st383{fill:#F7EEE9;stroke:#040000;stroke-width:1.3698;stroke-miterlimit:10;}
	.st384{fill:#FFFFFF;stroke:#040000;stroke-width:1.3698;stroke-miterlimit:10;}
	.st385{fill:#FC8A89;stroke:#040000;stroke-width:1.3698;stroke-miterlimit:10;}
	.st386{fill:#98B3C8;stroke:#040000;stroke-width:1.3698;stroke-miterlimit:10;}
	.st387{fill:#FFBB57;stroke:#040000;stroke-width:1.3698;stroke-miterlimit:10;}
	.st388{fill:#E6B282;stroke:#040000;stroke-width:1.3698;stroke-miterlimit:10;}
	.st389{filter:url(#Adobe_OpacityMaskFilter_2_);}
	.st390{mask:url(#SVGID_132_);}
	.st391{fill:none;stroke:#000000;stroke-width:1.1228;stroke-linecap:round;stroke-linejoin:round;stroke-miterlimit:10;}
	.st392{fill:none;stroke:#000000;stroke-width:1.1228;stroke-miterlimit:10;}
	.st393{fill:#F9F4EF;stroke:#040000;stroke-width:1.3698;stroke-miterlimit:10;}
	.st394{fill:#FFA99B;stroke:#040000;stroke-width:1.3698;stroke-miterlimit:10;}
	.st395{fill:#36303A;stroke:#040000;stroke-width:1.3698;stroke-miterlimit:10;}
	.st396{fill:#6A433E;stroke:#040000;stroke-width:1.3698;stroke-miterlimit:10;}
	.st397{fill:#FFA99B;stroke:#040000;stroke-width:1.3698;stroke-linecap:round;stroke-linejoin:round;stroke-miterlimit:10;}
	.st398{fill:#6B3C2B;stroke:#040000;stroke-width:1.3698;stroke-miterlimit:10;}
	.st399{fill:#FF4F2C;stroke:#040000;stroke-width:1.3698;stroke-miterlimit:10;}
	.st400{fill:#5D75DB;stroke:#040000;stroke-width:1.3698;stroke-miterlimit:10;}
	.st401{fill:#EFD2AA;stroke:#040000;stroke-width:1.3698;stroke-miterlimit:10;}
	.st402{fill:#E2C295;stroke:#040000;stroke-width:1.3698;stroke-miterlimit:10;}
	.st403{fill:#F7EBEB;stroke:#040000;stroke-width:1.3698;stroke-miterlimit:10;}
	.st404{fill:#FF4F2C;stroke:#040000;stroke-width:1.3698;stroke-linecap:round;stroke-linejoin:round;stroke-miterlimit:10;}
	.st405{fill:#6F5E68;stroke:#040000;stroke-width:1.3698;stroke-linecap:round;stroke-linejoin:round;stroke-miterlimit:10;}
	.st406{fill:#DD6A5B;stroke:#040000;stroke-width:1.3698;stroke-miterlimit:10;}
	.st407{fill:#F4DDBE;stroke:#040000;stroke-width:1.3698;stroke-miterlimit:10;}
	.st408{fill:#DB9A7D;stroke:#040000;stroke-width:1.3698;stroke-miterlimit:10;}
	.st409{fill:#7B94B9;stroke:#040000;stroke-width:1.3698;stroke-miterlimit:10;}
	.st410{fill:#FF282F;stroke:#000000;stroke-width:1.1734;stroke-miterlimit:10;}
	.st411{fill:#C6182D;stroke:#000000;stroke-width:1.6373;stroke-miterlimit:10;}
	.st412{fill:none;stroke:#000000;stroke-width:5;stroke-linecap:round;stroke-linejoin:round;stroke-miterlimit:10;}
	.st413{fill:none;stroke:#AC854F;stroke-width:0.7139;stroke-linecap:round;stroke-linejoin:round;stroke-miterlimit:10;}
	.st414{clip-path:url(#SVGID_134_);}
	.st415{fill:none;stroke:#AC854F;stroke-width:5;stroke-linecap:round;stroke-linejoin:round;stroke-miterlimit:10;}
	.st416{clip-path:url(#SVGID_136_);}
	.st417{fill:none;stroke:#AC854F;stroke-width:1.3384;stroke-linecap:round;stroke-linejoin:round;stroke-miterlimit:10;}
	.st418{fill:#2AB3BE;}
	.st419{fill:#F7A411;}
	.st420{clip-path:url(#SVGID_140_);}
	.st421{fill:#F7F0F0;stroke:#000000;stroke-width:1.591;stroke-miterlimit:10;}
	.st422{fill:#C6182D;stroke:#000000;stroke-width:0.7765;stroke-miterlimit:10;}
	.st423{fill:url(#SVGID_141_);}
	.st424{fill:#C6182D;stroke:#000000;stroke-width:1.5149;stroke-miterlimit:10;}
	.st425{clip-path:url(#SVGID_145_);}
	.st426{fill:url(#SVGID_146_);}
	.st427{clip-path:url(#SVGID_150_);}
	.st428{fill:url(#SVGID_151_);}
	.st429{fill:#3F3B39;stroke:#000000;stroke-width:1.2912;stroke-miterlimit:10;}
	.st430{fill:#FF282F;stroke:#000000;stroke-width:1.2912;stroke-miterlimit:10;}
	.st431{fill:#FFFFFF;stroke:#000000;stroke-width:1.2912;stroke-miterlimit:10;}
	.st432{fill:#F4C474;stroke:#000000;stroke-width:1.2912;stroke-miterlimit:10;}
	.st433{fill:#FFFFFF;stroke:#F4C474;stroke-width:1.2912;stroke-miterlimit:10;}
	.st434{fill:#FF282F;stroke:#F4C474;stroke-width:1.2912;stroke-miterlimit:10;}
	.st435{clip-path:url(#SVGID_155_);}
	.st436{fill:url(#SVGID_156_);}
	.st437{clip-path:url(#SVGID_160_);}
	.st438{fill:url(#SVGID_161_);}
	.st439{clip-path:url(#SVGID_165_);}
	.st440{fill:url(#SVGID_166_);}
	.st441{clip-path:url(#SVGID_170_);}
	.st442{fill:#F7F0F0;stroke:#000000;stroke-width:1.1829;stroke-miterlimit:10;}
	.st443{fill:#B79F70;stroke:#000000;stroke-width:0.5773;stroke-miterlimit:10;}
	.st444{clip-path:url(#SVGID_174_);}
	.st445{clip-path:url(#SVGID_178_);}
	.st446{clip-path:url(#SVGID_182_);}
	.st447{fill:#F4C374;stroke:#000000;stroke-miterlimit:10;}
	.st448{clip-path:url(#SVGID_186_);}
	.st449{clip-path:url(#SVGID_190_);}
	.st450{clip-path:url(#SVGID_194_);}
	.st451{clip-path:url(#SVGID_198_);}
	.st452{clip-path:url(#SVGID_202_);}
	.st453{clip-path:url(#SVGID_206_);}
	.st454{clip-path:url(#SVGID_210_);}
	.st455{clip-path:url(#SVGID_214_);}
	.st456{clip-path:url(#SVGID_218_);}
	.st457{clip-path:url(#SVGID_222_);}
	.st458{clip-path:url(#SVGID_226_);}
	.st459{clip-path:url(#SVGID_230_);}
	.st460{clip-path:url(#SVGID_234_);}
	.st461{clip-path:url(#SVGID_238_);}
	.st462{clip-path:url(#SVGID_242_);}
	.st463{clip-path:url(#SVGID_246_);}
	.st464{fill:#EFBC6C;stroke:#000000;stroke-miterlimit:10;}
	.st465{fill:#AFAF17;stroke:#000000;stroke-miterlimit:10;}
	.st466{fill:#436EC4;stroke:#000000;stroke-miterlimit:10;}
	.st467{fill:#C947C6;stroke:#000000;stroke-miterlimit:10;}
	.st468{fill:#E82E68;stroke:#000000;stroke-miterlimit:10;}
	.st469{fill:#F8BC71;stroke:#000000;stroke-miterlimit:10;}
	.st470{fill:#E28675;stroke:#000000;stroke-miterlimit:10;}
	.st471{fill:#BA6152;stroke:#000000;stroke-linecap:round;stroke-linejoin:round;stroke-miterlimit:10;}
	.st472{fill:#E05C5C;stroke:#000000;stroke-miterlimit:10;}
	.st473{fill:#D49676;stroke:#000000;stroke-miterlimit:10;}
	.st474{stroke:#000000;stroke-miterlimit:10;}
	.st475{fill:#2D2044;stroke:#000000;stroke-miterlimit:10;}
	.st476{fill:#535699;stroke:#000000;stroke-miterlimit:10;}
	.st477{clip-path:url(#SVGID_250_);}
	.st478{fill:#C6182D;stroke:#000000;stroke-width:0.5773;stroke-miterlimit:10;}
	.st479{clip-path:url(#SVGID_254_);}
	.st480{clip-path:url(#SVGID_258_);}
	.st481{clip-path:url(#SVGID_262_);}
	.st482{clip-path:url(#SVGID_266_);}
	.st483{clip-path:url(#SVGID_270_);}
	.st484{clip-path:url(#SVGID_274_);}
	.st485{clip-path:url(#SVGID_278_);}
	.st486{clip-path:url(#SVGID_282_);}
	.st487{clip-path:url(#SVGID_286_);}
	.st488{clip-path:url(#SVGID_290_);}
	.st489{clip-path:url(#SVGID_294_);}
	.st490{fill:#FFFFFF;stroke:#000000;stroke-width:0.6086;stroke-miterlimit:10;}
</style>
<g>
	<g>
		<path class="st315" d="M191.5,28.8v52.7c-1.9,7.5-18.8,13.3-39.3,13.3c-21.1,0-38.3-6.1-39.4-13.9V28.2
			c1.1,7.7,18.3,13.9,39.4,13.9C172.7,42,189.5,36.2,191.5,28.8z"/>
		<path class="st316" d="M191.5,25.9c-1.6-6.1-13.2-11.1-28.6-12.7c-3.4-0.4-7-0.5-10.7-0.5c-3.7,0-7.3,0.2-10.7,0.5
			c-15.9,1.7-27.8,7-28.7,13.3c0,0.3-0.1,0.5-0.1,0.8c0,0.3,0,0.5,0.1,0.8c1.1,7.7,18.3,13.9,39.4,13.9c20.5,0,37.4-5.8,39.3-13.3
			c0.1-0.5,0.2-0.9,0.2-1.4C191.6,26.9,191.6,26.4,191.5,25.9z M189.7,28.3c-1.5,5.7-16.2,11.9-37.5,11.9
			c-21.4,0-36.7-6.4-37.6-12.3c0-0.2,0-0.4,0-0.6c0-0.2,0-0.4,0-0.6c0.7-4.5,10.2-10,27.1-11.8c3.4-0.4,6.9-0.5,10.5-0.5
			c3.6,0,7.1,0.2,10.5,0.5c14.6,1.5,25.7,6.2,27,11.4c0.1,0.3,0.1,0.6,0.1,1C189.8,27.7,189.8,28,189.7,28.3z"/>
		<path class="st317" d="M189.7,26.4c-1.3-5.2-12.4-9.9-27-11.4c-3.4-0.4-6.9-0.5-10.5-0.5c-3.6,0-7.1,0.2-10.5,0.5
			c-16.9,1.8-26.4,7.3-27.1,11.8c0,0.2,0,0.4,0,0.6c0,0.2,0,0.4,0,0.6c0.9,5.9,16.2,12.3,37.6,12.3c21.3,0,36-6.2,37.5-11.9
			c0.1-0.3,0.1-0.6,0.1-1C189.8,27,189.8,26.7,189.7,26.4z M187.9,27.8c-1.1,4.3-14.5,10.6-35.7,10.6c-9.7,0-18.9-1.4-25.9-3.8
			c-6.9-2.4-9.7-5.3-9.9-6.9c0-0.1,0-0.2,0-0.3c0-0.1,0-0.2,0-0.3c0.5-3.2,8.7-8.5,25.5-10.2c3.3-0.3,6.8-0.5,10.3-0.5
			c3.5,0,7,0.2,10.3,0.5c15.3,1.6,24.5,6.4,25.4,10c0,0.2,0.1,0.3,0.1,0.5C188,27.5,188,27.7,187.9,27.8z"/>
		<path class="st318" d="M188,27.4c0,0.2,0,0.3-0.1,0.5c-1.1,4.3-14.5,10.6-35.7,10.6c-9.7,0-18.9-1.4-25.9-3.8
			c-6.9-2.4-9.7-5.3-9.9-6.9c0-0.1,0-0.2,0-0.3c0-0.1,0-0.2,0-0.3c0.5-3.2,8.7-8.5,25.5-10.2c3.3-0.3,6.8-0.5,10.3-0.5
			c3.5,0,7,0.2,10.3,0.5c15.3,1.6,24.5,6.4,25.4,10C188,27,188,27.2,188,27.4z"/>
		<path class="st319" d="M159.6,49.1c-2.5,0.2-4.9,0.3-7.4,0.3c-11.5,0-23.2-1.7-32.1-5.4v35.8c0.7,0.8,3.2,2.8,9,4.6
			c6.4,2,14.6,3.1,23.1,3.1c2.5,0,5-0.1,7.4-0.3V49.1z"/>
		<path class="st319" d="M174.5,46.9v37.7c0.3-0.1,0.5-0.2,0.8-0.2c5.5-1.7,8-3.6,8.8-4.5V43.9C181.2,45.1,178,46.1,174.5,46.9z"/>
		<g>
			<path class="st320" d="M183.7,24.3c0,0,0,0.1,0,0.1c-0.2,0.7-1.7,1.2-3.6,1.2c-1.9,0-3.5-0.6-3.6-1.3c0,0,0-0.1,0-0.1
				c0,0,0-0.1,0-0.1c0.1-0.6,1.2-1.1,2.6-1.2c0.3,0,0.6-0.1,1-0.1c0.3,0,0.7,0,1,0.1c1.4,0.1,2.5,0.6,2.6,1.2
				C183.7,24.2,183.7,24.3,183.7,24.3z"/>
			<g>
				<path class="st320" d="M126,27.2c0,0,0,0.1,0,0.1c-0.1,0.6-1.4,1-3,1c-1.6,0-3-0.5-3-1.1c0,0,0,0,0-0.1c0,0,0,0,0-0.1
					c0.1-0.5,1-0.9,2.2-1c0.3,0,0.5,0,0.8,0c0.3,0,0.6,0,0.8,0c1.2,0.1,2.1,0.5,2.2,1C126,27.2,126,27.2,126,27.2z"/>
			</g>
			<g>
				<path class="st320" d="M161,35.7c0,0,0,0.1,0,0.1c-0.1,0.6-1.4,1-3,1c-1.6,0-2.9-0.5-3-1c0,0,0,0,0-0.1c0,0,0,0,0-0.1
					c0.1-0.5,1-0.9,2.2-1c0.3,0,0.5,0,0.8,0c0.3,0,0.6,0,0.8,0c1.2,0.1,2,0.5,2.2,1C161,35.7,161,35.7,161,35.7z"/>
			</g>
			<g>
				<path class="st320" d="M133.6,32c0,0,0,0.1,0,0.1c-0.2,0.7-1.8,1.2-3.7,1.2c-2,0-3.6-0.6-3.7-1.3c0,0,0-0.1,0-0.1
					c0,0,0-0.1,0-0.1c0.1-0.6,1.2-1.1,2.7-1.2c0.3,0,0.7-0.1,1-0.1c0.3,0,0.7,0,1,0.1c1.4,0.2,2.5,0.6,2.7,1.2
					C133.6,31.9,133.6,32,133.6,32z"/>
			</g>
			<g>
				<path class="st320" d="M149,35.7c0,0,0,0.1,0,0.1c-0.2,0.7-1.7,1.2-3.6,1.2c-1.9,0-3.5-0.6-3.6-1.3c0,0,0-0.1,0-0.1
					c0,0,0-0.1,0-0.1c0.1-0.6,1.2-1.1,2.6-1.2c0.3,0,0.6-0.1,1-0.1c0.3,0,0.7,0,1,0.1c1.4,0.1,2.5,0.6,2.6,1.2
					C149,35.6,149,35.6,149,35.7z"/>
			</g>
			<g>
				<path class="st320" d="M180.4,31.7c0,0,0,0.1,0,0.1c-0.2,0.6-1.5,1.1-3.2,1.1c-1.7,0-3.2-0.5-3.2-1.1c0,0,0,0,0-0.1
					c0,0,0,0,0-0.1c0.1-0.5,1.1-1,2.4-1.1c0.3,0,0.6,0,0.9,0c0.3,0,0.6,0,0.9,0c1.3,0.1,2.2,0.5,2.4,1
					C180.4,31.6,180.4,31.7,180.4,31.7z"/>
			</g>
			<g>
				<path class="st320" d="M163.2,18.3C163.2,18.3,163.2,18.4,163.2,18.3c-0.1,0.4-0.9,0.7-1.9,0.7c-1,0-1.8-0.3-1.9-0.7
					c0,0,0,0,0,0c0,0,0,0,0,0c0-0.3,0.6-0.6,1.4-0.6c0.2,0,0.3,0,0.5,0c0.2,0,0.3,0,0.5,0C162.5,17.7,163.1,17.9,163.2,18.3
					C163.2,18.3,163.2,18.3,163.2,18.3z"/>
			</g>
			<g>
				<path class="st320" d="M157.8,19.2c0,0,0,0.1,0,0.1c-0.2,0.7-1.7,1.2-3.6,1.2c-1.9,0-3.5-0.6-3.6-1.3c0,0,0-0.1,0-0.1
					c0,0,0-0.1,0-0.1c0.1-0.6,1.2-1.1,2.6-1.2c0.3,0,0.6-0.1,1-0.1c0.3,0,0.7,0,1,0.1c1.4,0.1,2.5,0.6,2.6,1.2
					C157.8,19.1,157.8,19.1,157.8,19.2z"/>
			</g>
			<g>
				<path class="st320" d="M131.8,22.1c0,0,0,0.1,0,0.1c-0.1,0.5-1.4,1-2.9,1c-1.5,0-2.8-0.5-2.9-1c0,0,0,0,0-0.1c0,0,0,0,0-0.1
					c0.1-0.5,0.9-0.9,2.1-1c0.2,0,0.5,0,0.8,0c0.3,0,0.5,0,0.8,0c1.1,0.1,2,0.5,2.1,0.9C131.8,22,131.8,22,131.8,22.1z"/>
			</g>
			<g>
				<path class="st320" d="M169.7,35.1C169.7,35.1,169.7,35.1,169.7,35.1c-0.1,0.5-1,0.8-2.1,0.8c-1.1,0-2-0.3-2.1-0.7c0,0,0,0,0,0
					c0,0,0,0,0,0c0-0.3,0.7-0.6,1.5-0.7c0.2,0,0.4,0,0.6,0c0.2,0,0.4,0,0.6,0C169,34.4,169.6,34.7,169.7,35.1
					C169.7,35,169.7,35,169.7,35.1z"/>
			</g>
			<g>
				<path class="st320" d="M144.9,19.9c0,0,0,0.1,0,0.1c-0.2,0.6-1.6,1.1-3.3,1.1c-1.8,0-3.3-0.5-3.4-1.2c0,0,0,0,0-0.1
					c0,0,0,0,0-0.1c0.1-0.5,1.1-1,2.4-1.1c0.3,0,0.6,0,0.9,0c0.3,0,0.6,0,0.9,0c1.3,0.1,2.3,0.6,2.4,1.1
					C144.9,19.9,144.9,19.9,144.9,19.9z"/>
			</g>
			<g>
				<path class="st320" d="M184.4,28.7C184.4,28.7,184.4,28.7,184.4,28.7c-0.1,0.4-0.8,0.6-1.7,0.6c-0.9,0-1.6-0.3-1.7-0.6
					c0,0,0,0,0,0c0,0,0,0,0,0c0-0.3,0.6-0.5,1.2-0.6c0.1,0,0.3,0,0.5,0c0.2,0,0.3,0,0.5,0C183.8,28.1,184.3,28.4,184.4,28.7
					C184.4,28.6,184.4,28.7,184.4,28.7z"/>
			</g>
			<g>
				<path class="st320" d="M174.9,21.1c0,0,0,0.1,0,0.1c-0.2,0.6-1.6,1.1-3.3,1.1c-1.8,0-3.2-0.5-3.3-1.2c0,0,0,0,0-0.1s0,0,0-0.1
					c0.1-0.5,1.1-1,2.4-1.1c0.3,0,0.6,0,0.9,0c0.3,0,0.6,0,0.9,0c1.3,0.1,2.3,0.6,2.4,1.1C174.9,21,174.9,21.1,174.9,21.1z"/>
			</g>
		</g>
		<path class="st321" d="M145.7,20.9l-15.3,6.9c0,0-0.1,0.1-0.1,0.1l-3.5-0.1c-0.3,0-0.4-0.1-0.5-0.2c0,0,0-0.1,0-0.2
			c0-0.1,0.2-0.3,0.4-0.4l12.4-5.6c0.6-0.4,1.6-0.7,2.3-0.7L145.7,20.9z"/>
		<path class="st321" d="M156.5,21.3L142,27.8c-0.3,0.2-0.5,0.3-0.5,0.5l-5.8-0.2c0.1-0.1,0.2-0.2,0.4-0.3l14.9-6.7L156.5,21.3z"/>
		<path class="st322" d="M150.9,21.1l-14.9,6.7c-0.2,0.1-0.3,0.2-0.4,0.3l-5.4-0.2c0,0,0.1-0.1,0.1-0.1l15.3-6.9L150.9,21.1z"/>
		<path class="st321" d="M151.9,28.3c0,0.1,0,0.1,0,0.2c0,0.1,0.1,0.1,0.2,0.2l-5.1-0.2c0-0.1,0-0.1,0-0.2c0.1-0.1,0.2-0.3,0.5-0.5
			l14.1-6.4h0l4.5,0.1l-13.8,6.2C152.2,28,152,28.2,151.9,28.3z"/>
		<path class="st322" d="M161.7,21.5l-14.1,6.4c-0.3,0.2-0.5,0.4-0.5,0.5c0,0.1,0,0.1,0,0.2l-5.6-0.2c0.1-0.1,0.2-0.3,0.5-0.5
			l14.5-6.6L161.7,21.5z"/>
		<path class="st321" d="M174.1,22.3c-0.1,0.1-0.2,0.2-0.4,0.3l-9.7,5.8c-0.3,0.2-0.8,0.4-1.3,0.5h0l-4.5-0.2
			c-0.3,0-0.5-0.1-0.6-0.2c0-0.1,0-0.1,0-0.2c0.1-0.1,0.2-0.3,0.5-0.5l13.4-6.1h0l2.2,0.1c0.2,0,0.3,0,0.4,0.1
			C174.2,22,174.2,22.1,174.1,22.3z"/>
		<path class="st322" d="M158.2,28.8l4.5,0.2c-0.3,0.1-0.7,0.1-1,0.1l-9.6-0.3c0,0,0,0,0,0c-0.1,0-0.2-0.1-0.2-0.2
			c0-0.1,0-0.1,0-0.2c0.1-0.1,0.2-0.3,0.5-0.5l13.8-6.2l5.3,0.2l-13.4,6.1c-0.3,0.2-0.5,0.4-0.5,0.5c0,0.1,0,0.1,0,0.2
			C157.6,28.7,157.8,28.7,158.2,28.8z"/>
		<path class="st323" d="M163.1,28.8v3.2c-0.5,0.2-1,0.3-1.4,0.3L126.8,31c-0.3,0-0.4-0.1-0.5-0.2v-3.2c0.1,0.1,0.2,0.2,0.5,0.2
			l34.9,1.2C162.1,29,162.6,29,163.1,28.8z"/>
		<path class="st324" d="M174.1,22.3v3.2c-0.1,0.1-0.2,0.2-0.4,0.3l-9.7,5.8c-0.2,0.2-0.6,0.3-0.9,0.4v-3.2c0.3-0.1,0.6-0.3,0.9-0.4
			l9.7-5.8C173.9,22.5,174,22.4,174.1,22.3z"/>
	</g>
	<g>
		<path class="st316" d="M82.1,24.5c0,0.2,0,0.3-0.1,0.5c-1.1,4.3-14.5,10.6-35.7,10.6c-9.7,0-18.9-1.4-25.9-3.8
			c-6.9-2.4-9.7-5.3-9.9-6.9c0-0.1,0-0.2,0-0.3c0-0.1,0-0.2,0-0.3c0.5-3.2,8.7-8.5,25.5-10.2c3.3-0.3,6.8-0.5,10.3-0.5
			c3.5,0,7,0.2,10.3,0.5c15.3,1.6,24.5,6.4,25.4,10C82.1,24.2,82.1,24.3,82.1,24.5z"/>
		<path class="st315" d="M85.5,25.9v52.7c-1.9,7.5-18.8,13.3-39.3,13.3C25.2,91.9,8,85.8,6.9,78V25.3C8,33.1,25.2,39.2,46.3,39.2
			C66.8,39.2,83.6,33.4,85.5,25.9z"/>
		<path class="st316" d="M85.5,23.1C84,17,72.4,12,57,10.4c-3.4-0.4-7-0.5-10.7-0.5c-3.7,0-7.3,0.2-10.7,0.5
			C19.7,12,7.8,17.3,6.9,23.7c0,0.3-0.1,0.5-0.1,0.8c0,0.3,0,0.5,0.1,0.8C8,33.1,25.2,39.2,46.3,39.2c20.5,0,37.4-5.8,39.3-13.3
			c0.1-0.5,0.2-0.9,0.2-1.4C85.7,24,85.7,23.6,85.5,23.1z M83.8,25.5c-1.5,5.7-16.2,11.9-37.5,11.9C24.9,37.4,9.5,31,8.7,25.1
			c0-0.2,0-0.4,0-0.6c0-0.2,0-0.4,0-0.6c0.7-4.5,10.2-10,27.1-11.8c3.4-0.4,6.9-0.5,10.5-0.5c3.6,0,7.1,0.2,10.5,0.5
			c14.6,1.5,25.7,6.2,27,11.4c0.1,0.3,0.1,0.6,0.1,1C83.9,24.8,83.9,25.1,83.8,25.5z"/>
		<path class="st317" d="M83.8,23.6c-1.3-5.2-12.4-9.9-27-11.4c-3.4-0.4-6.9-0.5-10.5-0.5c-3.6,0-7.1,0.2-10.5,0.5
			C18.9,13.9,9.3,19.4,8.7,24c0,0.2,0,0.4,0,0.6c0,0.2,0,0.4,0,0.6C9.5,31,24.9,37.4,46.3,37.4c21.3,0,36-6.2,37.5-11.9
			c0.1-0.3,0.1-0.6,0.1-1C83.9,24.2,83.9,23.9,83.8,23.6z M82,25c-1.1,4.3-14.5,10.6-35.7,10.6c-9.7,0-18.9-1.4-25.9-3.8
			c-6.9-2.4-9.7-5.3-9.9-6.9c0-0.1,0-0.2,0-0.3c0-0.1,0-0.2,0-0.3c0.5-3.2,8.7-8.5,25.5-10.2c3.3-0.3,6.8-0.5,10.3-0.5
			c3.5,0,7,0.2,10.3,0.5c15.3,1.6,24.5,6.4,25.4,10c0,0.2,0.1,0.3,0.1,0.5C82.1,24.7,82.1,24.8,82,25z"/>
		<path class="st319" d="M53.7,46.2c-2.5,0.2-4.9,0.3-7.4,0.3c-11.5,0-23.2-1.7-32.1-5.4v35.8c0.7,0.8,3.2,2.8,9,4.6
			c6.4,2,14.6,3.1,23.1,3.1c2.5,0,5-0.1,7.4-0.3V46.2z"/>
		<path class="st319" d="M68.6,44.1v37.7c0.3-0.1,0.5-0.2,0.8-0.2c5.5-1.7,8-3.6,8.8-4.5V41.1C75.3,42.3,72.1,43.3,68.6,44.1z"/>
		<g>
			<path class="st325" d="M32.6,16.7C32.6,16.7,32.6,16.7,32.6,16.7c-0.6,0.4-1.2,0.7-2,0.7c0.4,0.2,0.9,0.5,1.2,0.8
				c0.3-0.1,0.6-0.3,0.9-0.4C32.7,17.4,32.6,17,32.6,16.7z"/>
			<path class="st325" d="M27.4,17c0.4-0.1,0.7-0.1,1.1-0.1c0,0,0,0,0,0c-0.1-0.1-0.3-0.2-0.4-0.3c-0.1-0.1-0.2-0.3-0.3-0.5
				c-0.2-0.1-0.3-0.2-0.5-0.3c-0.9-0.7-1.5-1.8-1.5-3c0-2.1,1.7-3.7,3.7-3.7c1.2,0,2.3,0.6,3,1.5c0.1,0.2,0.2,0.3,0.3,0.5
				c0.2,0.1,0.3,0.2,0.5,0.3c0.4,0.5,0.6,1.1,0.7,1.7c0.2-0.2,0.4-0.4,0.7-0.6c-0.3-0.6-0.5-1.3-0.6-2c-0.9-1.3-2.4-2.1-4.1-2.1
				c-2.8,0-5,2.3-5,5c0,0.5,0.1,1,0.2,1.5C26.2,15.4,27,16.2,27.4,17z"/>
			<path class="st326" d="M30.4,9.9c0.8,0,1.6,0.3,2.2,0.7c-0.7-0.9-1.8-1.5-3-1.5c-2.1,0-3.7,1.7-3.7,3.7c0,1.2,0.6,2.3,1.5,3
				c-0.5-0.6-0.7-1.4-0.7-2.2C26.6,11.6,28.3,9.9,30.4,9.9z"/>
			<path class="st327" d="M33.4,12.8c0-0.6-0.2-1.2-0.4-1.8c-0.1-0.2-0.2-0.3-0.3-0.5c-0.6-0.5-1.4-0.7-2.2-0.7
				c-2.1,0-3.7,1.7-3.7,3.7c0,0.8,0.3,1.6,0.7,2.2c0.2,0.1,0.3,0.2,0.5,0.3c0.5,0.3,1.1,0.4,1.7,0.4C31.7,16.6,33.4,14.9,33.4,12.8z
				"/>
			<path class="st328" d="M32.6,16.7c0-1.4,0.6-2.7,1.5-3.6c-0.1-0.6-0.3-1.2-0.7-1.7c-0.2-0.1-0.3-0.2-0.5-0.3
				c0.3,0.5,0.4,1.1,0.4,1.8c0,2.1-1.7,3.7-3.7,3.7c-0.6,0-1.2-0.2-1.7-0.4c0.1,0.2,0.2,0.3,0.3,0.5c0.1,0.1,0.3,0.2,0.4,0.3
				c0.7,0,1.4,0.2,2.1,0.5C31.4,17.3,32.1,17.1,32.6,16.7z"/>
			<path class="st325" d="M18.8,18.9c0-2.1,1.7-3.7,3.7-3.7c1.2,0,2.3,0.6,3,1.5c0.1,0.2,0.2,0.3,0.3,0.5c0.2,0.1,0.3,0.2,0.5,0.3
				c0,0,0,0,0,0c0.4-0.2,0.7-0.3,1.1-0.4c-0.5-0.9-1.2-1.6-2.1-2.1c-0.7-0.4-1.5-0.6-2.3-0.6c-2.4,0-4.4,1.7-4.9,4
				C18.3,18.6,18.6,18.7,18.8,18.9C18.8,18.9,18.8,18.9,18.8,18.9z"/>
			<path class="st326" d="M23.3,15.9c0.8,0,1.6,0.3,2.2,0.7c-0.7-0.9-1.8-1.5-3-1.5c-2.1,0-3.7,1.7-3.7,3.7c0,0,0,0,0,0
				c0.3,0.3,0.6,0.5,0.8,0.9c0,0,0-0.1,0-0.1C19.5,17.6,21.2,15.9,23.3,15.9z"/>
			<path class="st327" d="M26,17.6c-0.1-0.2-0.1-0.3-0.2-0.5c-0.1-0.2-0.2-0.3-0.3-0.5c-0.6-0.5-1.4-0.7-2.2-0.7
				c-2.1,0-3.7,1.7-3.7,3.7c0,0,0,0.1,0,0.1c0.3,0.4,0.5,0.9,0.7,1.4c0.3,0,0.6-0.1,0.8-0.1c0.9,0,1.7,0.2,2.4,0.6
				C23.6,20,24.6,18.4,26,17.6z"/>
			<path class="st328" d="M26.3,17.4C26.3,17.4,26.3,17.4,26.3,17.4c-0.2-0.1-0.3-0.2-0.5-0.3c0.1,0.2,0.1,0.3,0.2,0.5
				C26.1,17.5,26.2,17.5,26.3,17.4z"/>
			<path class="st325" d="M35.8,12c-0.5-0.6-0.9-1.5-0.9-2.4c0-2.1,1.7-3.7,3.7-3.7c1.2,0,2.3,0.6,3,1.5c0.1,0.2,0.2,0.3,0.3,0.5
				c0.2,0.1,0.3,0.2,0.5,0.3c0.5,0.6,0.7,1.4,0.7,2.2c0,1.3-0.7,2.5-1.7,3.1c0.2,0.3,0.4,0.5,0.5,0.8c0.2-0.2,0.5-0.3,0.7-0.5
				c0-0.1,0-0.2,0-0.3c0-1.4,0.6-2.7,1.5-3.6c-0.2-2.6-2.3-4.7-5-4.7c-2.8,0-5,2.3-5,5c0,0.1,0,0.2,0,0.3c0,0.7,0.2,1.4,0.6,2
				C35.1,12.3,35.5,12.1,35.8,12z"/>
			<path class="st326" d="M35.7,10.3c0-2.1,1.7-3.7,3.7-3.7c0.8,0,1.6,0.3,2.2,0.7c-0.7-0.9-1.8-1.5-3-1.5c-2.1,0-3.7,1.7-3.7,3.7
				c0,0.9,0.3,1.8,0.9,2.4c0.1,0,0.2-0.1,0.2-0.1C35.9,11.4,35.7,10.9,35.7,10.3z"/>
			<path class="st327" d="M35.7,10.3c0,0.6,0.1,1.1,0.3,1.5c0.5-0.2,1-0.3,1.6-0.3c1.2,0,2.2,0.4,3.1,1.1c1-0.7,1.7-1.8,1.7-3.1
				c0-0.6-0.2-1.2-0.4-1.8c-0.1-0.2-0.2-0.3-0.3-0.5c-0.6-0.5-1.4-0.7-2.2-0.7C37.4,6.6,35.7,8.3,35.7,10.3z"/>
			<path class="st328" d="M40.8,12.7c0.3,0.2,0.6,0.5,0.8,0.8c1-0.7,1.7-1.8,1.7-3.1c0-0.8-0.3-1.6-0.7-2.2C42.4,8,42.2,7.9,42,7.8
				c0.3,0.5,0.4,1.1,0.4,1.8C42.5,10.9,41.8,12,40.8,12.7z"/>
			<path class="st325" d="M49.1,17.2c-0.3,0.1-0.7,0.1-1,0.1c-0.1,0-0.2,0-0.3,0c0.3,0.3,0.5,0.7,0.6,1.1c0.4-0.1,0.8-0.2,1.1-0.3
				C49.4,17.9,49.2,17.6,49.1,17.2z"/>
			<path class="st325" d="M42.7,13.5c0,0.1,0,0.2,0,0.3c0,0.6,0.2,1.2,0.4,1.7c0.2,0,0.4,0,0.7,0c0.3,0,0.6,0,0.8,0.1
				c-0.7-0.7-1.1-1.6-1.1-2.7c0-2.1,1.7-3.7,3.7-3.7c1.2,0,2.2,0.6,2.9,1.4C50.1,10.1,50,9.7,50,9.3c0-0.1,0-0.2,0-0.3
				c-0.7-0.3-1.4-0.5-2.3-0.5c-1.4,0-2.6,0.6-3.5,1.5C43.3,10.8,42.7,12,42.7,13.5z"/>
			<path class="st326" d="M44.3,13.6c0-2.1,1.7-3.7,3.7-3.7c0.8,0,1.6,0.3,2.2,0.7c0,0,0,0,0-0.1c-0.7-0.9-1.7-1.4-2.9-1.4
				c-2.1,0-3.7,1.7-3.7,3.7c0,1.1,0.4,2,1.1,2.7c0.1,0,0.1,0,0.2,0C44.5,15,44.3,14.3,44.3,13.6z"/>
			<path class="st327" d="M44.3,13.6c0,0.7,0.2,1.4,0.5,1.9c0.8,0.2,1.5,0.5,2.2,1c0.1,0,0.2,0,0.3,0c0.5,0,1-0.1,1.5-0.3
				c-0.1-0.3-0.1-0.7-0.1-1.1c0-1.6,0.7-3,1.8-3.9c-0.1-0.2-0.2-0.5-0.3-0.8c-0.6-0.4-1.4-0.7-2.2-0.7C46,9.9,44.3,11.6,44.3,13.6z"
				/>
			<path class="st328" d="M49.1,17.2c-0.1-0.3-0.2-0.6-0.3-1c-0.5,0.2-1,0.3-1.5,0.3c-0.1,0-0.2,0-0.3,0c0.3,0.2,0.6,0.5,0.8,0.8
				c0.1,0,0.2,0,0.3,0C48.4,17.4,48.7,17.3,49.1,17.2z"/>
			<path class="st325" d="M50.2,10.5C50.2,10.5,50.2,10.5,50.2,10.5c0.1,0.3,0.2,0.6,0.3,0.8c0.3-0.2,0.6-0.4,0.9-0.6
				c-0.4-0.6-0.6-1.3-0.6-2c0-2.1,1.7-3.7,3.7-3.7c1.2,0,2.3,0.6,3,1.5c0.1,0.2,0.2,0.3,0.3,0.5C58,7,58.2,7.1,58.4,7.2
				c0.5,0.6,0.7,1.4,0.7,2.2c0,1.1-0.5,2.2-1.3,2.8c0,0.1,0.1,0.1,0.1,0.2c0.5-0.8,1.2-1.4,2-1.9c0.1-0.4,0.2-0.9,0.2-1.3
				c0-2.8-2.3-5-5-5c-2.7,0-4.9,2.1-5,4.7c0,0.1,0,0.2,0,0.3C50,9.7,50.1,10.1,50.2,10.5z"/>
			<path class="st326" d="M51.6,9.4c0-2.1,1.7-3.7,3.7-3.7c0.8,0,1.6,0.3,2.2,0.7c-0.7-0.9-1.8-1.5-3-1.5c-2.1,0-3.7,1.7-3.7,3.7
				c0,0.8,0.2,1.5,0.6,2c0.1-0.1,0.2-0.1,0.3-0.2C51.6,10.2,51.6,9.8,51.6,9.4z"/>
			<path class="st327" d="M51.6,9.4c0,0.4,0.1,0.8,0.2,1.1c0.6-0.2,1.2-0.4,1.9-0.4c1.3,0,2.5,0.5,3.4,1.3c0.8-0.7,1.3-1.7,1.3-2.8
				c0-0.6-0.2-1.2-0.4-1.8c-0.1-0.2-0.2-0.3-0.3-0.5c-0.6-0.5-1.4-0.7-2.2-0.7C53.3,5.7,51.6,7.4,51.6,9.4z"/>
			<path class="st328" d="M57,11.5c0.3,0.2,0.5,0.5,0.7,0.8c0.8-0.7,1.3-1.7,1.3-2.8c0-0.8-0.3-1.6-0.7-2.2C58.2,7.1,58,7,57.9,6.9
				c0.3,0.5,0.4,1.1,0.4,1.8C58.3,9.8,57.8,10.8,57,11.5z"/>
			<path class="st325" d="M59.1,18.5c0.1-0.3,0.3-0.6,0.4-0.9c0,0-0.1,0-0.1-0.1c-0.3-0.3-0.7-0.6-0.9-0.9c-0.1,0.4-0.3,0.8-0.4,1.1
				C58.5,17.9,58.8,18.1,59.1,18.5z"/>
			<path class="st325" d="M57.9,12.5c0.1,0.2,0.2,0.4,0.3,0.6c0.6-1.3,1.9-2.3,3.5-2.3c1.2,0,2.2,0.5,2.9,1.4c0.3-0.3,0.6-0.6,1-0.8
				c-0.9-0.8-2.1-1.3-3.4-1.3c-0.8,0-1.6,0.2-2.2,0.5C59.1,11,58.4,11.7,57.9,12.5z"/>
			<path class="st326" d="M58.7,15c0.1-1.9,1.8-3.5,3.7-3.5c0.8,0,1.5,0.2,2.1,0.7c0,0,0,0,0,0c-0.7-0.8-1.7-1.4-2.9-1.4
				c-1.5,0-2.9,0.9-3.5,2.3C58.5,13.6,58.7,14.3,58.7,15z"/>
			<path class="st326" d="M59.4,17.5c-0.4-0.6-0.7-1.2-0.7-2c0,0.3-0.1,0.7-0.2,1C58.8,16.9,59.1,17.2,59.4,17.5z"/>
			<path class="st327" d="M58.7,15c0,0.1,0,0.2,0,0.2c0,0.1,0,0.2,0,0.3c0.1,0.7,0.3,1.4,0.7,2c0,0,0.1,0.1,0.1,0.1
				c0.8-1.3,2.1-2.2,3.7-2.4c0.1-1.1,0.6-2.2,1.3-3c-0.6-0.4-1.3-0.7-2.1-0.7C60.5,11.5,58.9,13,58.7,15z"/>
			<path class="st325" d="M64.6,12.1C64.6,12.1,64.6,12.2,64.6,12.1c-0.8,0.8-1.2,1.9-1.3,3c0.2,0,0.4,0,0.6,0c0,0,0.1,0,0.1,0
				c0,0,0-0.1,0-0.1c0-2.1,1.7-3.7,3.7-3.7c1.2,0,2.3,0.6,3,1.5c0.1,0.2,0.2,0.3,0.3,0.5c0.2,0.1,0.3,0.2,0.5,0.3
				c0.5,0.6,0.7,1.4,0.7,2.2c0,0.3,0,0.5-0.1,0.7c0.3-0.1,0.7-0.1,1-0.1c0-0.3,0.1-0.5,0.1-0.8c0-2.8-2.3-5-5-5
				c-1,0-1.9,0.3-2.7,0.8C65.2,11.6,64.9,11.8,64.6,12.1z"/>
			<path class="st326" d="M68.5,12c0.8,0,1.6,0.3,2.2,0.7c-0.7-0.9-1.8-1.5-3-1.5c-2.1,0-3.7,1.7-3.7,3.7c0,0,0,0.1,0,0.1
				c0.3,0,0.5,0,0.8,0.1C65.1,13.4,66.6,12,68.5,12z"/>
			<path class="st327" d="M64.8,15.2c1.8,0.3,3.3,1.7,3.9,3.4c0.2-0.1,0.5-0.1,0.7-0.2c0.4-0.5,0.9-1,1.5-1.3c0.4-0.6,0.6-1.3,0.6-2
				c0-0.6-0.2-1.2-0.4-1.8c-0.1-0.2-0.2-0.3-0.3-0.5c-0.6-0.5-1.4-0.7-2.2-0.7C66.6,12,65.1,13.4,64.8,15.2z"/>
			<path class="st328" d="M70.9,17c0.4-0.2,0.9-0.4,1.3-0.5c0-0.2,0.1-0.5,0.1-0.7c0-0.8-0.3-1.6-0.7-2.2c-0.2-0.1-0.3-0.2-0.5-0.3
				c0.3,0.5,0.4,1.1,0.4,1.8C71.5,15.7,71.3,16.4,70.9,17z"/>
			<path class="st328" d="M68.8,19.2c0.1-0.3,0.3-0.6,0.5-0.8c-0.2,0.1-0.4,0.2-0.7,0.2C68.7,18.8,68.8,19,68.8,19.2z"/>
			<path class="st325" d="M70.9,17c-0.6,0.3-1.1,0.8-1.5,1.3c-0.2,0.3-0.4,0.5-0.5,0.8c0.1,0.3,0.1,0.6,0.1,0.9c0,0.5-0.1,1-0.2,1.4
				c0.2,0,0.3,0.1,0.5,0.1c-0.1-0.3-0.1-0.6-0.1-0.9c0-2.1,1.7-3.7,3.7-3.7c0.7,0,1.3,0.2,1.9,0.5c0.2-0.3,0.4-0.5,0.7-0.8
				c-0.6-0.3-1.3-0.4-2-0.4c0,0-0.1,0-0.1,0c-0.3,0-0.7,0.1-1,0.1C71.7,16.6,71.3,16.8,70.9,17z"/>
			<path class="st326" d="M69.9,21.6c0-2.1,1.7-3.7,3.7-3.7c0.3,0,0.6,0,0.9,0.1c0.1-0.1,0.2-0.2,0.2-0.4c-0.6-0.3-1.2-0.5-1.9-0.5
				c-2.1,0-3.7,1.7-3.7,3.7c0,0.3,0,0.6,0.1,0.9c0.2,0.1,0.5,0.2,0.7,0.3C69.9,21.8,69.9,21.7,69.9,21.6z"/>
			<path class="st327" d="M74.5,17.9c-0.3-0.1-0.6-0.1-0.9-0.1c-2.1,0-3.7,1.7-3.7,3.7c0,0.1,0,0.3,0,0.4c0.9,0.4,1.6,1.1,2.1,1.9
				c0.7-0.4,1.5-0.6,2.4-0.6c0.1,0,0.1,0,0.2,0c-0.5-0.8-0.9-1.8-0.9-2.8C73.8,19.6,74,18.7,74.5,17.9z"/>
			<path class="st325" d="M74.7,17.6c-0.1,0.1-0.2,0.2-0.2,0.4c-0.4,0.8-0.7,1.6-0.7,2.6c0,1,0.3,2,0.9,2.8c1.7,0.1,3.1,0.9,4,2.2
				c0.1,0,0.1,0,0.2,0c2.8,0,5-2.3,5-5c0-2.8-2.3-5-5-5c-1.3,0-2.5,0.5-3.4,1.3C75.1,17,74.9,17.3,74.7,17.6z M78.3,16.1
				c1.2,0,2.3,0.6,3,1.5c0.1,0.2,0.2,0.3,0.3,0.5c0.2,0.1,0.3,0.2,0.5,0.3c0.5,0.6,0.7,1.4,0.7,2.2c0,2.1-1.7,3.7-3.7,3.7
				c-0.8,0-1.6-0.3-2.2-0.7c-0.1-0.1-0.2-0.3-0.3-0.5c-0.2-0.1-0.3-0.2-0.5-0.3c-0.9-0.7-1.5-1.8-1.5-3
				C74.5,17.8,76.2,16.1,78.3,16.1z"/>
			<path class="st326" d="M74.5,19.9c0,1.2,0.6,2.3,1.5,3c-0.5-0.6-0.7-1.4-0.7-2.2c0-2.1,1.7-3.7,3.7-3.7c0.8,0,1.6,0.3,2.2,0.7
				c-0.7-0.9-1.8-1.5-3-1.5C76.2,16.1,74.5,17.8,74.5,19.9z"/>
			<path class="st327" d="M75.3,20.7c0,0.8,0.3,1.6,0.7,2.2c0.2,0.1,0.3,0.2,0.5,0.3c0.5,0.3,1.1,0.4,1.7,0.4c2.1,0,3.7-1.7,3.7-3.7
				c0-0.6-0.2-1.2-0.4-1.8c-0.1-0.2-0.2-0.3-0.3-0.5c-0.6-0.5-1.4-0.7-2.2-0.7C77,16.9,75.3,18.6,75.3,20.7z"/>
			<path class="st328" d="M78.3,23.6c-0.6,0-1.2-0.2-1.7-0.4c0.1,0.2,0.2,0.3,0.3,0.5c0.6,0.5,1.4,0.7,2.2,0.7
				c2.1,0,3.7-1.7,3.7-3.7c0-0.8-0.3-1.6-0.7-2.2c-0.2-0.1-0.3-0.2-0.5-0.3c0.3,0.5,0.4,1.1,0.4,1.8C82,22,80.4,23.6,78.3,23.6z"/>
			<path class="st325" d="M56.1,25.9c0.1,0.1,0.2,0.2,0.3,0.2c0-0.1,0-0.2,0.1-0.3C56.3,25.8,56.2,25.9,56.1,25.9z"/>
			<path class="st325" d="M58,19.1c0.1,0.2,0.2,0.3,0.3,0.5c0.2,0.1,0.3,0.2,0.5,0.3c0,0,0,0.1,0.1,0.1c0-0.5,0.1-1.1,0.3-1.5
				c-0.3-0.3-0.7-0.6-1-0.8c-0.2,0.3-0.4,0.6-0.6,0.9C57.7,18.7,57.8,18.9,58,19.1z"/>
			<path class="st326" d="M57.5,18.5c-0.1,0.1-0.1,0.1-0.2,0.2c0.2,0.1,0.5,0.2,0.7,0.4C57.8,18.9,57.7,18.7,57.5,18.5z"/>
			<path class="st326" d="M52.5,20.4c0-0.1,0.1-0.2,0.1-0.2c-0.2,0-0.3-0.1-0.5-0.1C52.2,20.1,52.3,20.2,52.5,20.4z"/>
			<path class="st327" d="M57,24.5c0.3-0.6,0.8-1.1,1.4-1.5c0.2-0.5,0.4-1.1,0.4-1.6c0-0.6-0.2-1.2-0.4-1.8
				c-0.1-0.2-0.2-0.3-0.3-0.5c-0.2-0.2-0.4-0.3-0.7-0.4c-0.9,1-2.2,1.5-3.6,1.5c-0.4,0-0.7,0-1.1-0.1c0,0.1-0.1,0.1-0.1,0.2
				c0.8,0.9,1.3,2.1,1.3,3.4c0,0.4,0,0.7-0.1,1c0.4,0.1,0.7,0.1,1,0.3c0.1,0,0.2,0,0.2,0C55.7,25.1,56.4,24.9,57,24.5z"/>
			<path class="st328" d="M57,24.5c-0.6,0.4-1.3,0.6-2,0.6c-0.1,0-0.2,0-0.2,0c0.5,0.2,1,0.5,1.4,0.8c0.1,0,0.2,0,0.3,0
				C56.6,25.4,56.7,24.9,57,24.5z"/>
			<path class="st328" d="M58.3,19.6c0.3,0.5,0.4,1.1,0.4,1.8c0,0.6-0.1,1.1-0.4,1.6c0.3-0.2,0.7-0.4,1-0.6
				c-0.3-0.7-0.5-1.5-0.5-2.3c0,0,0-0.1,0-0.1c0,0,0-0.1-0.1-0.1C58.6,19.8,58.5,19.7,58.3,19.6z"/>
			<path class="st325" d="M48.6,15.2c0,0.4,0,0.7,0.1,1.1c0.1,0.3,0.2,0.7,0.3,1c0.1,0.3,0.3,0.6,0.5,0.9c0.2,0.3,0.5,0.6,0.8,0.8
				c0.6,0.2,1.2,0.6,1.7,1c0.2,0.1,0.3,0.1,0.5,0.1c0.4,0.1,0.7,0.1,1.1,0.1c1.4,0,2.7-0.6,3.6-1.5c0.1-0.1,0.1-0.1,0.2-0.2
				c0.2-0.3,0.5-0.6,0.6-0.9c0.2-0.3,0.3-0.7,0.4-1.1c0.1-0.3,0.1-0.7,0.2-1c0-0.1,0-0.2,0-0.3c0-0.1,0-0.2,0-0.2
				c0-0.7-0.2-1.3-0.5-1.9c-0.1-0.2-0.2-0.4-0.3-0.6c0-0.1-0.1-0.1-0.1-0.2c-0.2-0.3-0.5-0.6-0.7-0.8c-0.9-0.8-2.1-1.3-3.4-1.3
				c-0.7,0-1.3,0.1-1.9,0.4c-0.1,0-0.2,0.1-0.3,0.2c-0.3,0.2-0.7,0.4-0.9,0.6C49.4,12.2,48.6,13.6,48.6,15.2z M53.2,10.9
				c1.2,0,2.3,0.6,3,1.5c0.1,0.2,0.2,0.3,0.3,0.5c0.2,0.1,0.3,0.2,0.5,0.3c0.5,0.6,0.7,1.4,0.7,2.2c0,2.1-1.7,3.7-3.7,3.7
				c-0.8,0-1.6-0.3-2.2-0.7c-0.1-0.1-0.2-0.3-0.3-0.5c-0.2-0.1-0.3-0.2-0.5-0.3c-0.9-0.7-1.5-1.8-1.5-3
				C49.4,12.5,51.1,10.9,53.2,10.9z"/>
			<path class="st326" d="M49.4,14.6c0,1.2,0.6,2.3,1.5,3c-0.5-0.6-0.7-1.4-0.7-2.2c0-2.1,1.7-3.7,3.7-3.7c0.8,0,1.6,0.3,2.2,0.7
				c-0.7-0.9-1.8-1.5-3-1.5C51.1,10.9,49.4,12.5,49.4,14.6z"/>
			<path class="st327" d="M53.9,11.6c-2.1,0-3.7,1.7-3.7,3.7c0,0.8,0.3,1.6,0.7,2.2c0.2,0.1,0.3,0.2,0.5,0.3
				c0.5,0.3,1.1,0.4,1.7,0.4c2.1,0,3.7-1.7,3.7-3.7c0-0.6-0.2-1.2-0.4-1.8c-0.1-0.2-0.2-0.3-0.3-0.5C55.5,11.9,54.8,11.6,53.9,11.6z
				"/>
			<path class="st328" d="M56.9,14.6c0,2.1-1.7,3.7-3.7,3.7c-0.6,0-1.2-0.2-1.7-0.4c0.1,0.2,0.2,0.3,0.3,0.5
				c0.6,0.5,1.4,0.7,2.2,0.7c2.1,0,3.7-1.7,3.7-3.7c0-0.8-0.3-1.6-0.7-2.2c-0.2-0.1-0.3-0.2-0.5-0.3C56.8,13.4,56.9,14,56.9,14.6z"
				/>
			<path class="st325" d="M42.7,16.2c0.2,0,0.4-0.1,0.7-0.1c1.2,0,2.3,0.6,3,1.5c0.1,0.2,0.2,0.3,0.3,0.5c0.2,0.1,0.3,0.2,0.5,0.3
				c0.1,0.1,0.2,0.3,0.3,0.5c0.4-0.1,0.7-0.2,1.1-0.2c0-0.1-0.1-0.2-0.1-0.3c-0.2-0.4-0.4-0.7-0.6-1.1c-0.2-0.3-0.5-0.6-0.8-0.8
				c-0.6-0.5-1.4-0.9-2.2-1c-0.1,0-0.1,0-0.2,0c-0.3,0-0.5-0.1-0.8-0.1c-0.2,0-0.4,0-0.7,0c-0.2,0-0.4,0.1-0.6,0.1
				C42.6,15.8,42.6,16,42.7,16.2z"/>
			<path class="st326" d="M46.3,17.7c-0.7-0.9-1.8-1.5-3-1.5c-0.2,0-0.4,0-0.7,0.1c0,0.2,0,0.3,0,0.5c0,0.2,0,0.4,0,0.5
				c0.4-0.2,0.9-0.3,1.4-0.3C44.9,16.9,45.7,17.2,46.3,17.7z"/>
			<path class="st327" d="M47,19.1c-0.1-0.3-0.2-0.6-0.3-0.9c-0.1-0.2-0.2-0.3-0.3-0.5c-0.6-0.5-1.4-0.7-2.2-0.7
				c-0.5,0-1,0.1-1.4,0.3c-0.1,1.3-0.7,2.4-1.6,3.2c1.2,0.1,2.3,0.6,3.1,1.4C44.6,20.6,45.7,19.6,47,19.1z"/>
			<path class="st328" d="M47,19.1c0.1-0.1,0.3-0.1,0.4-0.1c-0.1-0.2-0.2-0.3-0.3-0.5c-0.2-0.1-0.3-0.2-0.5-0.3
				C46.8,18.4,46.9,18.7,47,19.1z"/>
			<path class="st325" d="M32.6,16.7C32.6,16.7,32.6,16.7,32.6,16.7c0,0.4,0,0.7,0.1,1.1c0.1,0.7,0.4,1.3,0.8,1.8
				c0.3-0.1,0.7-0.1,1-0.1c0.3,0,0.6,0,0.9,0.1c0-0.1-0.1-0.1-0.1-0.2c-0.2-0.1-0.3-0.2-0.5-0.3c-0.9-0.7-1.5-1.8-1.5-3
				c0-2.1,1.7-3.7,3.7-3.7c1.2,0,2.3,0.6,3,1.5c0.1,0.2,0.2,0.3,0.3,0.5c0.2,0.1,0.3,0.2,0.5,0.3c0.5,0.6,0.7,1.4,0.7,2.2
				c0,2.1-1.7,3.7-3.7,3.7c-0.1,0-0.1,0-0.2,0c0.1,0.1,0.3,0.3,0.4,0.4c0.7-0.4,1.5-0.6,2.4-0.6c0.2,0,0.3,0,0.5,0
				c0.9-0.8,1.5-1.9,1.6-3.2c0-0.2,0-0.4,0-0.5c0-0.2,0-0.3,0-0.5c0-0.2,0-0.4-0.1-0.6c-0.1-0.5-0.3-0.9-0.5-1.3
				c-0.2-0.3-0.3-0.6-0.5-0.8c-0.2-0.3-0.5-0.6-0.8-0.8c-0.9-0.7-1.9-1.1-3.1-1.1c-0.6,0-1.1,0.1-1.6,0.3c-0.1,0-0.2,0.1-0.2,0.1
				c-0.4,0.1-0.7,0.3-1.1,0.6c-0.2,0.2-0.5,0.4-0.7,0.6C33.2,14,32.6,15.3,32.6,16.7z"/>
			<path class="st326" d="M37.9,13.1c0.8,0,1.6,0.3,2.2,0.7c-0.7-0.9-1.8-1.5-3-1.5c-2.1,0-3.7,1.7-3.7,3.7c0,1.2,0.6,2.3,1.5,3
				c-0.5-0.6-0.7-1.4-0.7-2.2C34.2,14.8,35.8,13.1,37.9,13.1z"/>
			<path class="st327" d="M40.9,16.1c0-0.6-0.2-1.2-0.4-1.8c-0.1-0.2-0.2-0.3-0.3-0.5c-0.6-0.5-1.4-0.7-2.2-0.7
				c-2.1,0-3.7,1.7-3.7,3.7c0,0.8,0.3,1.6,0.7,2.2c0.2,0.1,0.3,0.2,0.5,0.3c0.5,0.3,1.1,0.4,1.7,0.4C39.2,19.8,40.9,18.1,40.9,16.1z
				"/>
			<path class="st328" d="M41.7,16.9c0-0.8-0.3-1.6-0.7-2.2c-0.2-0.1-0.3-0.2-0.5-0.3c0.3,0.5,0.4,1.1,0.4,1.8
				c0,2.1-1.7,3.7-3.7,3.7c-0.6,0-1.2-0.2-1.7-0.4c0,0.1,0.1,0.1,0.1,0.2c0.8,0.2,1.6,0.5,2.2,1c0.1,0,0.1,0,0.2,0
				C40,20.6,41.7,18.9,41.7,16.9z"/>
			<path class="st325" d="M15.7,26.6c-0.8,0-1.6-0.3-2.2-0.7c-0.1-0.1-0.2-0.3-0.3-0.5c-0.2-0.1-0.3-0.2-0.5-0.3
				c-0.9-0.7-1.5-1.8-1.5-3c0-2.1,1.7-3.7,3.7-3.7c1.2,0,2.3,0.6,3,1.5c0.1,0.2,0.2,0.3,0.3,0.5c0.2,0.1,0.3,0.2,0.5,0.3
				c0.2,0.3,0.3,0.5,0.5,0.8c0.3-0.1,0.7-0.2,1.1-0.3c-0.2-0.5-0.4-1-0.7-1.4c-0.2-0.3-0.5-0.6-0.8-0.9c-0.2-0.2-0.4-0.3-0.7-0.5
				c-0.8-0.5-1.7-0.8-2.7-0.8c-2.8,0-5,2.3-5,5c0,2.8,2.3,5,5,5c0.3,0,0.6,0,0.8-0.1c-0.1-0.3-0.2-0.7-0.2-1
				C15.9,26.6,15.8,26.6,15.7,26.6z"/>
			<path class="st326" d="M15.7,19.1c0.8,0,1.6,0.3,2.2,0.7c-0.7-0.9-1.8-1.5-3-1.5c-2.1,0-3.7,1.7-3.7,3.7c0,1.2,0.6,2.3,1.5,3
				c-0.5-0.6-0.7-1.4-0.7-2.2C11.9,20.8,13.6,19.1,15.7,19.1z"/>
			<path class="st327" d="M17.9,19.8c-0.6-0.5-1.4-0.7-2.2-0.7c-2.1,0-3.7,1.7-3.7,3.7c0,0.8,0.3,1.6,0.7,2.2
				c0.2,0.1,0.3,0.2,0.5,0.3c0.5,0.3,1.1,0.4,1.7,0.4c0.4,0,0.8-0.1,1.1-0.2c0.2-1.7,1.2-3.1,2.6-3.9c0-0.5-0.2-1-0.4-1.4
				C18.1,20.2,18,20,17.9,19.8z"/>
			<path class="st328" d="M13.2,25.4c0.1,0.2,0.2,0.3,0.3,0.5c0.6,0.5,1.4,0.7,2.2,0.7c0.1,0,0.2,0,0.4,0c0-0.2,0-0.3,0-0.5
				c0-0.2,0-0.3,0-0.5c-0.4,0.1-0.7,0.2-1.1,0.2C14.3,25.8,13.7,25.7,13.2,25.4z"/>
			<path class="st328" d="M18.2,20.3c0.2,0.4,0.4,0.9,0.4,1.4c0.2-0.1,0.4-0.2,0.5-0.3c-0.1-0.3-0.3-0.6-0.5-0.8
				C18.6,20.5,18.4,20.4,18.2,20.3z"/>
			<path class="st325" d="M21.4,30.1c-0.8,0-1.6-0.3-2.2-0.7c-0.1-0.1-0.2-0.3-0.3-0.5c-0.2-0.1-0.3-0.2-0.5-0.3
				c-0.9-0.7-1.5-1.8-1.5-3c0-2.1,1.7-3.7,3.7-3.7c1.2,0,2.3,0.6,3,1.5c0.1,0.1,0.2,0.3,0.3,0.4c-0.2-0.5-0.3-1.1-0.3-1.8
				c0-0.1,0-0.1,0-0.2c-0.7-0.4-1.6-0.6-2.4-0.6c-0.3,0-0.6,0-0.8,0.1c-0.4,0.1-0.7,0.2-1.1,0.3c-0.2,0.1-0.4,0.2-0.5,0.3
				c-1.4,0.8-2.4,2.2-2.6,3.9c0,0.2,0,0.3,0,0.5c0,0.2,0,0.3,0,0.5c0,0.4,0.1,0.7,0.2,1c0.6,2,2.6,3.5,4.8,3.5c0.2,0,0.4,0,0.6,0
				c-0.1-0.3-0.1-0.7-0.1-1.1C21.5,30.1,21.4,30.1,21.4,30.1z"/>
			<path class="st326" d="M17.6,26.3c0-2.1,1.7-3.7,3.7-3.7c0.8,0,1.6,0.3,2.2,0.7c-0.7-0.9-1.8-1.5-3-1.5c-2.1,0-3.7,1.7-3.7,3.7
				c0,1.2,0.6,2.3,1.5,3C17.9,27.9,17.6,27.1,17.6,26.3z"/>
			<path class="st327" d="M24.1,24.3c-0.1-0.2-0.2-0.4-0.3-0.6c-0.1-0.1-0.2-0.3-0.3-0.4c-0.6-0.5-1.4-0.7-2.2-0.7
				c-2.1,0-3.7,1.7-3.7,3.7c0,0.8,0.3,1.6,0.7,2.2c0.2,0.1,0.3,0.2,0.5,0.3c0.5,0.3,1.1,0.4,1.7,0.4c0.4,0,0.7-0.1,1-0.1
				c0.3-1.6,1.3-3,2.7-3.7C24.3,25.1,24.2,24.7,24.1,24.3z"/>
			<path class="st328" d="M18.8,28.9c0.1,0.2,0.2,0.3,0.3,0.5c0.6,0.5,1.4,0.7,2.2,0.7c0.1,0,0.1,0,0.2,0c0,0,0-0.1,0-0.1
				c0-0.3,0-0.6,0.1-0.8c-0.3,0.1-0.7,0.1-1,0.1C19.9,29.3,19.3,29.1,18.8,28.9z"/>
			<path class="st328" d="M24.1,24.3c0.1,0.3,0.2,0.7,0.2,1.1c0.1-0.1,0.3-0.1,0.4-0.2C24.5,25,24.3,24.7,24.1,24.3z"/>
			<path class="st325" d="M29.4,25.8c0.1,0.1,0.2,0.2,0.4,0.3c0-0.1-0.1-0.2-0.1-0.3C29.6,25.8,29.5,25.8,29.4,25.8z"/>
			<path class="st325" d="M25.8,24.3c-0.9-0.7-1.5-1.8-1.5-3c0-2.1,1.7-3.7,3.7-3.7c1.2,0,2.3,0.6,3,1.5c0.1,0.2,0.2,0.3,0.3,0.5
				c0.2,0.1,0.3,0.2,0.5,0.3c0.1,0.1,0.1,0.2,0.2,0.3c0.3-0.2,0.7-0.4,1-0.5c-0.3-0.6-0.7-1.1-1.2-1.5c-0.4-0.3-0.8-0.6-1.2-0.8
				c-0.6-0.3-1.3-0.5-2.1-0.5c0,0,0,0,0,0c-0.4,0-0.7,0-1.1,0.1c-0.4,0.1-0.8,0.2-1.1,0.4c-0.1,0-0.2,0.1-0.3,0.2
				c-1.4,0.8-2.4,2.4-2.5,4.1c0,0.1,0,0.1,0,0.2c0,0.6,0.1,1.2,0.3,1.8c0.1,0.2,0.2,0.4,0.3,0.6c0.2,0.3,0.4,0.6,0.6,0.9
				c0.5-0.2,1.1-0.3,1.7-0.3c-0.1-0.1-0.1-0.2-0.2-0.3C26.1,24.6,25.9,24.5,25.8,24.3z"/>
			<path class="st326" d="M28,17.6c-2.1,0-3.7,1.7-3.7,3.7c0,1.2,0.6,2.3,1.5,3c-0.5-0.6-0.7-1.4-0.7-2.2c0-2.1,1.7-3.7,3.7-3.7
				c0.8,0,1.6,0.3,2.2,0.7C30.4,18.2,29.3,17.6,28,17.6z"/>
			<path class="st327" d="M29.5,24.8c0-0.1,0-0.2,0-0.3c0-1.7,0.8-3.2,2.1-4.1c-0.1-0.3-0.2-0.5-0.3-0.8c-0.1-0.2-0.2-0.3-0.3-0.5
				c-0.6-0.5-1.4-0.7-2.2-0.7c-2.1,0-3.7,1.7-3.7,3.7c0,0.8,0.3,1.6,0.7,2.2c0.2,0.1,0.3,0.2,0.5,0.3c0.2,0.1,0.5,0.2,0.7,0.3
				c0.2,0,0.5,0.1,0.7,0.1c0.1,0,0.2,0,0.3,0C28.6,25.1,29.1,25,29.5,24.8z"/>
			<path class="st328" d="M31.3,19.6c0.1,0.2,0.2,0.5,0.3,0.8c0.1-0.1,0.2-0.2,0.4-0.2c-0.1-0.1-0.1-0.2-0.2-0.3
				C31.7,19.8,31.5,19.7,31.3,19.6z"/>
			<path class="st328" d="M26.5,24.9C26.5,24.9,26.5,24.9,26.5,24.9c0.3,0,0.4,0,0.6,0c-0.3-0.1-0.5-0.2-0.7-0.3
				C26.3,24.8,26.4,24.8,26.5,24.9z"/>
			<path class="st328" d="M29.5,24.8c-0.5,0.2-1,0.3-1.5,0.3c-0.1,0-0.2,0-0.3,0c0.6,0.1,1.2,0.4,1.7,0.8c0.1,0,0.2,0,0.3-0.1
				C29.6,25.5,29.5,25.1,29.5,24.8z"/>
			<path class="st325" d="M30.7,25.5c-0.2-0.5-0.4-1-0.4-1.6c0-2.1,1.7-3.7,3.7-3.7c1.2,0,2.3,0.6,3,1.5c0,0,0,0.1,0.1,0.1
				c0.3-0.3,0.7-0.6,1.1-0.8c-0.1-0.1-0.3-0.3-0.4-0.4c-0.6-0.5-1.4-0.9-2.2-1c-0.3-0.1-0.6-0.1-0.9-0.1c-0.4,0-0.7,0-1,0.1
				c-0.2,0-0.3,0.1-0.5,0.1c-0.4,0.1-0.7,0.3-1,0.5c-0.1,0.1-0.2,0.1-0.4,0.2c-1.3,0.9-2.1,2.4-2.1,4.1c0,0.1,0,0.2,0,0.3
				c0,0.3,0.1,0.7,0.2,1c0,0.1,0.1,0.2,0.1,0.3c0,0,0.1,0.1,0.1,0.1C30.1,26,30.4,25.7,30.7,25.5z"/>
			<path class="st326" d="M31.1,24.7c0-2.1,1.7-3.7,3.7-3.7c0.8,0,1.6,0.3,2.2,0.7c-0.7-0.9-1.8-1.5-3-1.5c-2.1,0-3.7,1.7-3.7,3.7
				c0,0.6,0.1,1.1,0.4,1.6c0.1-0.1,0.3-0.2,0.4-0.3C31.1,25,31.1,24.8,31.1,24.7z"/>
			<path class="st327" d="M37.1,21.8C37.1,21.7,37.1,21.7,37.1,21.8c-0.7-0.6-1.5-0.8-2.3-0.8c-2.1,0-3.7,1.7-3.7,3.7
				c0,0.2,0,0.3,0,0.5c0.8-0.5,1.7-0.8,2.7-0.8c0.6,0,1.2,0.1,1.8,0.3C35.7,23.5,36.3,22.5,37.1,21.8z"/>
			<path class="st325" d="M38.8,28.9c0,0,0-0.1,0-0.1c0,0,0,0,0,0C38.8,28.8,38.8,28.8,38.8,28.9z"/>
			<path class="st325" d="M40,21.1c1.2,0,2.3,0.6,3,1.5c0.1,0.2,0.2,0.3,0.3,0.5c0.1,0.1,0.3,0.2,0.4,0.2c0-0.5,0.2-1,0.4-1.5
				c-0.8-0.8-1.9-1.3-3.1-1.4c-0.2,0-0.3,0-0.5,0c-0.9,0-1.7,0.2-2.4,0.6c-0.4,0.2-0.7,0.5-1.1,0.8c-0.8,0.8-1.4,1.8-1.5,2.9
				c0.3,0.1,0.5,0.2,0.7,0.3c0-0.1,0-0.2,0-0.2C36.3,22.7,38,21.1,40,21.1z"/>
			<path class="st326" d="M40.8,21.8c0.8,0,1.6,0.3,2.2,0.7c-0.7-0.9-1.8-1.5-3-1.5c-2.1,0-3.7,1.7-3.7,3.7c0,0.1,0,0.2,0,0.2
				c0.3,0.2,0.5,0.3,0.8,0.5C37.1,23.5,38.8,21.8,40.8,21.8z"/>
			<path class="st327" d="M43.4,23.1c-0.1-0.2-0.2-0.3-0.3-0.5c-0.6-0.5-1.4-0.7-2.2-0.7c-2.1,0-3.7,1.7-3.7,3.7
				c0.8,0.7,1.4,1.7,1.7,2.7c0.1,0,0.1,0,0.2,0.1c0.5-2.3,2.5-3.9,4.8-4c0-0.1,0-0.1,0-0.2C43.7,23.8,43.6,23.4,43.4,23.1z"/>
			<path class="st328" d="M38.8,28.7C38.8,28.8,38.8,28.8,38.8,28.7c0.1-0.1,0.1-0.2,0.1-0.4c-0.1,0-0.1,0-0.2-0.1
				C38.8,28.5,38.8,28.6,38.8,28.7z"/>
			<path class="st328" d="M43.7,24.2c0-0.1,0-0.3,0-0.4c0-0.2,0-0.3,0-0.5c-0.1-0.1-0.2-0.2-0.4-0.2C43.6,23.4,43.7,23.8,43.7,24.2z
				"/>
			<path class="st325" d="M52.5,20.4c-0.1-0.1-0.2-0.2-0.4-0.4c-0.5-0.4-1.1-0.8-1.7-1c-0.5-0.2-1-0.3-1.6-0.3c-0.1,0-0.1,0-0.2,0
				c-0.4,0-0.8,0.1-1.1,0.2c-0.2,0-0.3,0.1-0.4,0.1c-1.3,0.5-2.3,1.5-2.9,2.8c-0.2,0.5-0.3,0.9-0.4,1.5c0,0.2,0,0.3,0,0.5
				c0,0.1,0,0.3,0,0.4c0,0.1,0,0.1,0,0.2c0,0,0.1,0,0.1,0c0.3,0,0.6,0,0.9,0.1c-0.1-0.4-0.2-0.8-0.2-1.3c0-2.1,1.7-3.7,3.7-3.7
				c1.2,0,2.3,0.6,3,1.5c0.1,0.2,0.2,0.3,0.3,0.5c0.2,0.1,0.3,0.2,0.5,0.3c0.5,0.6,0.7,1.4,0.7,2.2c0,0.3,0,0.5-0.1,0.8
				c0.1,0,0.2,0,0.3,0c0.3,0,0.5,0,0.7,0.1c0.1-0.3,0.1-0.7,0.1-1C53.8,22.5,53.3,21.3,52.5,20.4z"/>
			<path class="st326" d="M45.3,23.9c0-2.1,1.7-3.7,3.7-3.7c0.8,0,1.6,0.3,2.2,0.7c-0.7-0.9-1.8-1.5-3-1.5c-2.1,0-3.7,1.7-3.7,3.7
				c0,0.5,0.1,0.9,0.2,1.3c0.2,0,0.4,0.1,0.6,0.1C45.3,24.4,45.3,24.2,45.3,23.9z"/>
			<path class="st327" d="M52,23.2c0-0.6-0.2-1.2-0.4-1.8c-0.1-0.2-0.2-0.3-0.3-0.5c-0.6-0.5-1.4-0.7-2.2-0.7
				c-2.1,0-3.7,1.7-3.7,3.7c0,0.2,0,0.4,0.1,0.7c1.2,0.4,2.2,1.2,2.9,2.3c0,0,0,0,0,0c0.2,0,0.4,0,0.6-0.1c0.7-0.9,1.6-1.6,2.7-1.9
				C51.8,24.4,52,23.8,52,23.2z"/>
			<path class="st328" d="M48.2,26.9c0.1,0.2,0.2,0.4,0.3,0.5c0.1-0.2,0.2-0.4,0.4-0.6C48.7,26.9,48.5,26.9,48.2,26.9
				C48.2,26.9,48.2,26.9,48.2,26.9z"/>
			<path class="st328" d="M52.8,24c0-0.8-0.3-1.6-0.7-2.2c-0.2-0.1-0.3-0.2-0.5-0.3c0.3,0.5,0.4,1.1,0.4,1.8c0,0.6-0.2,1.2-0.4,1.8
				c0.4-0.1,0.8-0.2,1.2-0.2C52.8,24.5,52.8,24.2,52.8,24z"/>
			<path class="st325" d="M59.4,22.4c-0.4,0.2-0.7,0.4-1,0.6c-0.6,0.4-1,0.9-1.4,1.5c-0.2,0.4-0.4,0.8-0.5,1.3c0,0.1,0,0.2-0.1,0.3
				c0.3,0.2,0.5,0.5,0.7,0.8c0-0.2,0-0.3,0-0.5c0-1.7,1.1-3.1,2.6-3.6C59.6,22.7,59.5,22.6,59.4,22.4z"/>
			<path class="st326" d="M60.3,23.7c-0.2-0.2-0.5-0.5-0.7-0.8c-1.5,0.5-2.6,1.9-2.6,3.6c0,0.2,0,0.3,0,0.5c0.1,0.2,0.3,0.4,0.4,0.6
				c0.1,0,0.3,0,0.4-0.1c0-0.1,0-0.2,0-0.3C57.8,25.6,58.9,24.2,60.3,23.7z"/>
			<path class="st327" d="M62.9,25.1c-1-0.2-1.9-0.7-2.6-1.4c-1.4,0.5-2.5,1.9-2.5,3.5c0,0.1,0,0.2,0,0.3c0.2,0,0.4,0,0.6,0
				c1.6,0,3,0.7,3.9,1.9c0.2-0.3,0.5-0.5,0.8-0.8c-0.3-0.6-0.4-1.3-0.4-2.1C62.7,26,62.7,25.5,62.9,25.1z"/>
			<path class="st325" d="M59.5,17.6c-0.2,0.3-0.3,0.6-0.4,0.9c-0.2,0.5-0.3,1-0.3,1.5c0,0,0,0.1,0,0.1c0,0.8,0.2,1.6,0.5,2.3
				c0.1,0.2,0.2,0.3,0.3,0.5c0.2,0.3,0.4,0.6,0.7,0.8c0.7,0.7,1.6,1.2,2.6,1.4c0.1-0.4,0.3-0.8,0.5-1.1c-0.5-0.1-1-0.3-1.4-0.7
				c-0.1-0.1-0.2-0.3-0.3-0.5c-0.2-0.1-0.3-0.2-0.5-0.3c-0.9-0.7-1.5-1.8-1.5-3c0-2.1,1.7-3.7,3.7-3.7c1.2,0,2.3,0.6,3,1.5
				c0.1,0.2,0.2,0.3,0.3,0.5c0.2,0.1,0.3,0.2,0.5,0.3c0.5,0.6,0.7,1.4,0.7,2.2c0,0.4-0.1,0.8-0.2,1.1c0.3,0,0.7,0,1,0.1
				c0.1-0.5,0.2-0.9,0.2-1.4c0-0.3,0-0.6-0.1-0.9c0-0.2-0.1-0.4-0.1-0.6c-0.6-1.7-2-3.1-3.9-3.4c-0.3,0-0.5-0.1-0.8-0.1
				c0,0-0.1,0-0.1,0c-0.2,0-0.4,0-0.6,0C61.7,15.3,60.3,16.3,59.5,17.6z"/>
			<path class="st326" d="M60.4,20.3c0-2.1,1.7-3.7,3.7-3.7c0.8,0,1.6,0.3,2.2,0.7c-0.7-0.9-1.8-1.5-3-1.5c-2.1,0-3.7,1.7-3.7,3.7
				c0,1.2,0.6,2.3,1.5,3C60.7,21.9,60.4,21.1,60.4,20.3z"/>
			<path class="st327" d="M67.1,19.5c0-0.6-0.2-1.2-0.4-1.8c-0.1-0.2-0.2-0.3-0.3-0.5c-0.6-0.5-1.4-0.7-2.2-0.7
				c-2.1,0-3.7,1.7-3.7,3.7c0,0.8,0.3,1.6,0.7,2.2c0.2,0.1,0.3,0.2,0.5,0.3c0.5,0.3,1.1,0.4,1.7,0.4c0.2,0,0.3,0,0.5,0
				c0.7-0.8,1.6-1.3,2.6-1.6C66.9,21,67.1,20.3,67.1,19.5z"/>
			<path class="st328" d="M67.9,20.3c0-0.8-0.3-1.6-0.7-2.2c-0.2-0.1-0.3-0.2-0.5-0.3c0.3,0.5,0.4,1.1,0.4,1.8
				c0,0.8-0.2,1.5-0.6,2.1c0.4-0.1,0.8-0.2,1.2-0.2c0,0,0,0,0,0C67.8,21.1,67.9,20.7,67.9,20.3z"/>
			<path class="st328" d="M61.6,22.8c0.1,0.2,0.2,0.3,0.3,0.5c0.4,0.3,0.9,0.5,1.4,0.7c0.2-0.3,0.3-0.5,0.5-0.7c-0.2,0-0.3,0-0.5,0
				C62.7,23.3,62.1,23.1,61.6,22.8z"/>
			<path class="st325" d="M69.9,22c-0.2-0.1-0.5-0.2-0.7-0.3c-0.2,0-0.3-0.1-0.5-0.1c-0.3-0.1-0.6-0.1-1-0.1c0,0,0,0,0,0
				c-0.4,0-0.8,0.1-1.2,0.2c-1,0.3-1.9,0.8-2.6,1.6c-0.2,0.2-0.4,0.5-0.5,0.7c-0.2,0.3-0.4,0.7-0.5,1.1c-0.1,0.5-0.2,0.9-0.2,1.4
				c0,0.7,0.2,1.4,0.4,2.1c0.3-0.2,0.6-0.4,1-0.6c-0.4-0.6-0.6-1.3-0.6-2.1c0-2.1,1.7-3.7,3.7-3.7c1.2,0,2.3,0.6,3,1.5
				c0.1,0.2,0.2,0.3,0.3,0.5c0.2,0.1,0.3,0.2,0.5,0.3c0,0,0.1,0.1,0.1,0.1c0.3-0.3,0.6-0.5,0.9-0.7C71.5,23.1,70.8,22.4,69.9,22z"/>
			<path class="st326" d="M64.2,26.7c0-2.1,1.7-3.7,3.7-3.7c0.8,0,1.6,0.3,2.2,0.7c-0.7-0.9-1.8-1.5-3-1.5c-2.1,0-3.7,1.7-3.7,3.7
				c0,0.8,0.2,1.5,0.6,2.1c0.1-0.1,0.2-0.1,0.3-0.1C64.3,27.5,64.2,27.1,64.2,26.7z"/>
			<path class="st327" d="M70.2,23.7c-0.6-0.5-1.4-0.7-2.2-0.7c-2.1,0-3.7,1.7-3.7,3.7c0,0.4,0.1,0.8,0.2,1.2
				c0.6-0.2,1.2-0.4,1.8-0.4c1.2,0,2.3,0.4,3.2,1.1c0-0.1,0-0.2,0-0.3c0-1.3,0.5-2.6,1.4-3.5c-0.1-0.2-0.2-0.5-0.3-0.7
				C70.4,24,70.3,23.8,70.2,23.7z"/>
			<path class="st328" d="M70.5,24.1c0.1,0.2,0.2,0.5,0.3,0.7c0.1-0.1,0.2-0.2,0.3-0.3c0,0-0.1-0.1-0.1-0.1
				C70.8,24.3,70.7,24.2,70.5,24.1z"/>
			<path class="st325" d="M74.6,23.3c-0.1,0-0.1,0-0.2,0c-0.9,0-1.7,0.2-2.4,0.6c-0.3,0.2-0.7,0.4-0.9,0.7c-0.1,0.1-0.2,0.2-0.3,0.3
				c-0.9,0.9-1.4,2.1-1.4,3.5c0,0.1,0,0.2,0,0.3c1,0.8,1.7,2.1,1.8,3.4c0.5-0.2,0.9-0.3,1.3-0.5c0,0-0.1,0-0.1-0.1
				c-0.1-0.1-0.2-0.3-0.3-0.5c-0.2-0.1-0.3-0.2-0.5-0.3c-0.9-0.7-1.5-1.8-1.5-3c0-2.1,1.7-3.7,3.7-3.7c1.2,0,2.3,0.6,3,1.5
				c0.1,0.2,0.2,0.3,0.3,0.5c0.2,0.1,0.3,0.2,0.5,0.3c0.5,0.6,0.7,1.4,0.7,2.2c0,0.1,0,0.2,0,0.3c0.4-0.2,0.7-0.5,1-0.7
				c0-1-0.3-1.8-0.8-2.6C77.8,24.2,76.3,23.4,74.6,23.3z"/>
			<path class="st326" d="M70.9,28.5c0-2.1,1.7-3.7,3.7-3.7c0.8,0,1.6,0.3,2.2,0.7c-0.7-0.9-1.8-1.5-3-1.5c-2.1,0-3.7,1.7-3.7,3.7
				c0,1.2,0.6,2.3,1.5,3C71.2,30.1,70.9,29.3,70.9,28.5z"/>
			<path class="st327" d="M77.2,26c-0.1-0.2-0.2-0.3-0.3-0.5c-0.6-0.5-1.4-0.7-2.2-0.7c-2.1,0-3.7,1.7-3.7,3.7
				c0,0.8,0.3,1.6,0.7,2.2c0.2,0.1,0.3,0.2,0.5,0.3c0.3,0.2,0.6,0.3,1,0.3c1.5-0.6,2.9-1.2,4.1-1.8c0.3-0.5,0.5-1.2,0.5-1.8
				C77.7,27.1,77.5,26.5,77.2,26z"/>
			<path class="st328" d="M77.7,26.3c-0.2-0.1-0.3-0.2-0.5-0.3c0.3,0.5,0.4,1.1,0.4,1.8c0,0.7-0.2,1.3-0.5,1.8
				c0.4-0.2,0.9-0.5,1.2-0.7c0-0.1,0-0.2,0-0.3C78.5,27.7,78.2,26.9,77.7,26.3z"/>
			<path class="st328" d="M72.5,31.5c0,0,0.1,0,0.1,0.1c0.2-0.1,0.4-0.1,0.6-0.2c-0.3-0.1-0.7-0.2-1-0.3
				C72.3,31.2,72.4,31.4,72.5,31.5z"/>
			<path class="st325" d="M69.4,28.6c-0.9-0.7-2-1.1-3.2-1.1c-0.7,0-1.3,0.1-1.8,0.4c-0.1,0-0.2,0.1-0.3,0.1c-0.3,0.2-0.7,0.4-1,0.6
				c-0.3,0.2-0.6,0.5-0.8,0.8c0.1,0.1,0.2,0.3,0.3,0.4c0.7-1,1.8-1.6,3.1-1.6c1.2,0,2.3,0.6,3,1.5c0.1,0.2,0.2,0.3,0.3,0.5
				c0.2,0.1,0.3,0.2,0.5,0.3c0.4,0.5,0.7,1.2,0.7,1.9c0.3-0.1,0.7-0.2,1-0.3C71.1,30.7,70.4,29.4,69.4,28.6z"/>
			<path class="st326" d="M63.2,30.9c0.6-1.2,1.9-2,3.3-2c0.8,0,1.6,0.3,2.2,0.7c-0.7-0.9-1.8-1.5-3-1.5c-1.3,0-2.4,0.6-3.1,1.6
				C62.9,30.1,63.1,30.5,63.2,30.9z"/>
			<path class="st327" d="M69,30.2c-0.1-0.2-0.2-0.3-0.3-0.5c-0.6-0.5-1.4-0.7-2.2-0.7c-1.4,0-2.7,0.8-3.3,2c0.2,0.5,0.3,1,0.3,1.6
				c0,0.5-0.1,1.1-0.3,1.6c2.3-0.4,4.3-0.9,6.2-1.5c0-0.2,0.1-0.5,0.1-0.7C69.5,31.3,69.3,30.7,69,30.2z"/>
			<path class="st328" d="M69.5,30.5c-0.2-0.1-0.3-0.2-0.5-0.3c0.3,0.5,0.4,1.1,0.4,1.8c0,0.2,0,0.5-0.1,0.7
				c0.3-0.1,0.6-0.2,0.8-0.3C70.2,31.7,69.9,31,69.5,30.5z"/>
			<path class="st325" d="M56.4,26.1c-0.1-0.1-0.2-0.2-0.3-0.2c-0.4-0.3-0.9-0.6-1.4-0.8c-0.3-0.1-0.7-0.2-1-0.3
				c-0.2,0-0.5-0.1-0.7-0.1c-0.1,0-0.2,0-0.3,0c-0.4,0-0.8,0.1-1.2,0.2c-1.1,0.3-2,1-2.7,1.9c-0.1,0.2-0.3,0.4-0.4,0.6
				c0.1,0.3,0.2,0.6,0.3,0.9c0.4-1.7,1.9-3,3.7-3c1.2,0,2.3,0.6,3,1.5c0.1,0.2,0.2,0.3,0.3,0.5c0.2,0.1,0.3,0.2,0.5,0.3
				c0,0.1,0.1,0.1,0.1,0.2c0.4-0.2,0.7-0.3,1.1-0.3c-0.1-0.2-0.2-0.4-0.4-0.6C56.9,26.6,56.6,26.3,56.4,26.1z"/>
			<path class="st326" d="M53.2,26.2c0.8,0,1.6,0.3,2.2,0.7c-0.7-0.9-1.8-1.5-3-1.5c-1.8,0-3.3,1.3-3.7,3c0.1,0.3,0.1,0.7,0.1,1
				c0,0.2,0,0.4,0,0.6c0,0,0.1,0,0.1,0c0.2,0,0.4,0,0.5,0c0,0,0-0.1,0-0.1C49.5,27.9,51.1,26.2,53.2,26.2z"/>
			<path class="st327" d="M55.4,26.9c-0.6-0.5-1.4-0.7-2.2-0.7c-2.1,0-3.7,1.7-3.7,3.7c0,0,0,0.1,0,0.1c1.7,0.2,3.1,1.2,3.9,2.6
				c0-0.1,0-0.1,0-0.2c0-1.9,1.1-3.6,2.6-4.4c-0.1-0.2-0.2-0.4-0.3-0.7C55.7,27.3,55.6,27.1,55.4,26.9z"/>
			<path class="st328" d="M55.7,27.4c0.1,0.2,0.2,0.4,0.3,0.7c0.1-0.1,0.2-0.1,0.3-0.2c0-0.1-0.1-0.1-0.1-0.2
				C56.1,27.6,55.9,27.5,55.7,27.4z"/>
			<path class="st325" d="M63.2,30.9c-0.1-0.4-0.3-0.8-0.5-1.1c-0.1-0.2-0.2-0.3-0.3-0.4c-0.9-1.1-2.3-1.9-3.9-1.9
				c-0.2,0-0.4,0-0.6,0c-0.1,0-0.3,0-0.4,0.1c-0.4,0.1-0.8,0.2-1.1,0.3C56.2,28,56.1,28,56,28.1c-1.6,0.9-2.6,2.5-2.6,4.4
				c0,0.1,0,0.1,0,0.2c0.4,0.7,0.6,1.4,0.6,2.2c0.1,0.1,0.1,0.2,0.2,0.4c0.6,0,1.2-0.1,1.8-0.2c-0.1-0.1-0.2-0.1-0.3-0.2
				c-0.9-0.7-1.5-1.8-1.5-3c0-2.1,1.7-3.7,3.7-3.7c1.2,0,2.3,0.6,3,1.5c0.1,0.2,0.2,0.3,0.3,0.5c0.2,0.1,0.3,0.2,0.5,0.3
				c0.5,0.6,0.7,1.4,0.7,2.2c0,0.6-0.1,1.1-0.4,1.6c0.4-0.1,0.7-0.1,1.1-0.2c0.2-0.5,0.3-1,0.3-1.6C63.4,32,63.4,31.4,63.2,30.9z"/>
			<path class="st326" d="M54.9,32.7c0-2.1,1.7-3.7,3.7-3.7c0.8,0,1.6,0.3,2.2,0.7c-0.7-0.9-1.8-1.5-3-1.5c-2.1,0-3.7,1.7-3.7,3.7
				c0,1.2,0.6,2.3,1.5,3C55.2,34.3,54.9,33.5,54.9,32.7z"/>
			<path class="st327" d="M61.6,31.9c0-0.6-0.2-1.2-0.4-1.8c-0.1-0.2-0.2-0.3-0.3-0.5c-0.6-0.5-1.4-0.7-2.2-0.7
				c-2.1,0-3.7,1.7-3.7,3.7c0,0.8,0.3,1.6,0.7,2.2c0.1,0.1,0.2,0.1,0.3,0.2c1.6-0.2,3.1-0.3,4.6-0.6C61.2,33.9,61.6,32.9,61.6,31.9z
				"/>
			<path class="st328" d="M62.4,32.7c0-0.8-0.3-1.6-0.7-2.2c-0.2-0.1-0.3-0.2-0.5-0.3c0.3,0.5,0.4,1.1,0.4,1.8c0,1-0.4,1.9-1.1,2.6
				c0.5-0.1,1-0.2,1.5-0.2C62.3,33.8,62.4,33.3,62.4,32.7z"/>
			<path class="st325" d="M44.1,33.3c0,0.1,0,0.2,0,0.3c0-0.1,0.1-0.2,0.1-0.3C44.2,33.3,44.2,33.4,44.1,33.3
				C44.1,33.4,44.1,33.3,44.1,33.3z"/>
			<path class="st325" d="M48.8,28.4c-0.1-0.3-0.2-0.6-0.3-0.9c-0.1-0.2-0.2-0.4-0.3-0.5c-0.6-1.1-1.6-1.9-2.9-2.3
				c-0.2-0.1-0.4-0.1-0.6-0.1c-0.3-0.1-0.6-0.1-0.9-0.1c0,0-0.1,0-0.1,0c-2.4,0-4.4,1.7-4.8,4c0,0.1,0,0.3-0.1,0.4c0,0,0,0.1,0,0.1
				c0,0.1,0,0.2,0,0.3c0.1,0,0.2,0,0.3,0c0.2,0,0.3,0,0.5,0c0-0.1,0-0.2,0-0.3c0-2.1,1.7-3.7,3.7-3.7c1.2,0,2.3,0.6,3,1.5
				c0.1,0.2,0.2,0.3,0.3,0.5c0.2,0.1,0.3,0.2,0.5,0.3c0.5,0.6,0.7,1.4,0.7,2.2c0,0.2,0,0.4,0,0.5c0.3-0.1,0.7-0.1,1-0.1
				c0-0.2,0-0.4,0-0.6C48.9,29.1,48.8,28.7,48.8,28.4z"/>
			<path class="st326" d="M44.1,25.8c0.8,0,1.6,0.3,2.2,0.7c-0.7-0.9-1.8-1.5-3-1.5c-2.1,0-3.7,1.7-3.7,3.7c0,0.1,0,0.2,0,0.3
				c0.3,0,0.5,0.1,0.8,0.1C40.5,27.4,42.1,25.8,44.1,25.8z"/>
			<path class="st327" d="M46.6,27.1c-0.1-0.2-0.2-0.3-0.3-0.5c-0.6-0.5-1.4-0.7-2.2-0.7c-2,0-3.6,1.5-3.7,3.4
				c1.6,0.4,3,1.6,3.5,3.2c0.3,0,0.6-0.1,0.9-0.2c0.5-0.7,1.1-1.3,1.9-1.7c0.3-0.5,0.4-1.1,0.4-1.8C47.1,28.2,46.9,27.6,46.6,27.1z"
				/>
			<path class="st328" d="M44.1,33.3C44.1,33.3,44.1,33.4,44.1,33.3c0.1,0,0.1,0,0.1,0c0.1-0.4,0.3-0.7,0.5-1.1
				c-0.3,0.1-0.6,0.2-0.9,0.2C44,32.8,44,33.1,44.1,33.3z"/>
			<path class="st328" d="M47.1,27.4c-0.2-0.1-0.3-0.2-0.5-0.3c0.3,0.5,0.4,1.1,0.4,1.8c0,0.6-0.2,1.2-0.4,1.8
				c0.4-0.2,0.8-0.3,1.2-0.4c0-0.2,0-0.4,0-0.5C47.9,28.8,47.6,28,47.1,27.4z"/>
			<path class="st325" d="M54,34.9c0-0.8-0.2-1.6-0.6-2.2c-0.8-1.4-2.2-2.5-3.9-2.6c-0.2,0-0.3,0-0.5,0c0,0-0.1,0-0.1,0
				c-0.3,0-0.7,0-1,0.1c-0.4,0.1-0.8,0.2-1.2,0.4c-0.8,0.4-1.4,1-1.9,1.7c-0.2,0.3-0.4,0.7-0.5,1.1c0,0.1-0.1,0.2-0.1,0.3
				c0,0.2,0,0.4,0,0.5c0,0.5-0.1,0.9-0.2,1.4c0.3,0,0.6,0,0.9,0c-0.1-0.3-0.2-0.7-0.2-1.1c0-2.1,1.7-3.7,3.7-3.7
				c1.2,0,2.3,0.6,3,1.5c0.1,0.2,0.2,0.3,0.3,0.5c0.2,0.1,0.3,0.2,0.5,0.3c0.5,0.6,0.7,1.4,0.7,2.2c0,0,0,0.1,0,0.1
				c0.3,0,0.7,0,1-0.1c0-0.1,0-0.1,0-0.2C54,35,54,35,54,34.9z"/>
			<path class="st326" d="M49.2,31.5c0.8,0,1.6,0.3,2.2,0.7c-0.7-0.9-1.8-1.5-3-1.5c-2.1,0-3.7,1.7-3.7,3.7c0,0.4,0.1,0.7,0.2,1.1
				c0.2,0,0.4,0,0.6,0c0-0.1,0-0.2,0-0.3C45.5,33.2,47.1,31.5,49.2,31.5z"/>
			<path class="st327" d="M52.2,34.5c0-0.6-0.2-1.2-0.4-1.8c-0.1-0.2-0.2-0.3-0.3-0.5c-0.6-0.5-1.4-0.7-2.2-0.7
				c-2.1,0-3.7,1.7-3.7,3.7c0,0.1,0,0.2,0,0.3c0.3,0,0.5,0,0.8,0c2,0,3.9-0.1,5.8-0.2C52.1,35.1,52.2,34.8,52.2,34.5z"/>
			<path class="st328" d="M52.2,33c-0.2-0.1-0.3-0.2-0.5-0.3c0.3,0.5,0.4,1.1,0.4,1.8c0,0.3,0,0.6-0.1,0.9c0.3,0,0.6,0,0.9-0.1
				c0,0,0-0.1,0-0.1C53,34.4,52.7,33.6,52.2,33z"/>
			<path class="st325" d="M31.9,32.6c-0.1-0.1-0.2-0.3-0.3-0.5c-0.1-0.1-0.3-0.2-0.4-0.2c-0.2,0.5-0.4,0.9-0.7,1.3
				c0.9,0.8,2.1,1.3,3.4,1.3c0.1,0,0.2,0,0.3,0c0-0.1,0-0.2,0-0.3c0-0.3,0-0.5,0.1-0.8c0,0,0,0,0,0C33.3,33.4,32.5,33.1,31.9,32.6z"
				/>
			<path class="st325" d="M38.8,28.7c0-0.1,0-0.3-0.1-0.4c-0.2-1.1-0.8-2-1.7-2.7c-0.2-0.2-0.5-0.4-0.8-0.5
				c-0.2-0.1-0.5-0.2-0.7-0.3c-0.5-0.2-1.1-0.3-1.8-0.3c-1,0-1.9,0.3-2.7,0.8c-0.2,0.1-0.3,0.2-0.4,0.3c-0.3,0.2-0.5,0.5-0.7,0.7
				c0.1,0.1,0.3,0.2,0.4,0.4c0.7-0.9,1.8-1.5,3-1.5c1.2,0,2.3,0.6,3,1.5c0.1,0.2,0.2,0.3,0.3,0.5c0.2,0.1,0.3,0.2,0.5,0.3
				c0.4,0.5,0.7,1.2,0.7,1.9c0.3-0.1,0.7-0.1,1-0.2c0-0.1,0-0.2,0-0.3C38.8,28.8,38.8,28.8,38.8,28.7z"/>
			<path class="st326" d="M34.1,25.8c0.8,0,1.6,0.3,2.2,0.7c-0.7-0.9-1.8-1.5-3-1.5c-1.2,0-2.3,0.6-3,1.5c0.3,0.3,0.5,0.6,0.7,0.9
				C31.6,26.5,32.8,25.8,34.1,25.8z"/>
			<path class="st327" d="M37.1,28.8c0-0.6-0.2-1.2-0.4-1.8c-0.1-0.2-0.2-0.3-0.3-0.5c-0.6-0.5-1.4-0.7-2.2-0.7
				c-1.3,0-2.5,0.7-3.1,1.7c0.4,0.7,0.6,1.6,0.6,2.4c0,0.7-0.1,1.3-0.4,1.9c0.1,0.1,0.2,0.2,0.4,0.2c0.5,0.3,1.1,0.4,1.7,0.4
				c0.4,0,0.7-0.1,1.1-0.2c0.5-1.2,1.4-2.2,2.6-2.8C37,29.3,37.1,29.1,37.1,28.8z"/>
			<path class="st328" d="M31.6,32.1c0.1,0.2,0.2,0.3,0.3,0.5c0.6,0.5,1.4,0.7,2.2,0.7c0,0,0,0,0,0c0.1-0.3,0.1-0.6,0.3-1
				c-0.3,0.1-0.7,0.2-1.1,0.2C32.7,32.6,32.1,32.4,31.6,32.1z"/>
			<path class="st328" d="M37.1,27.4c-0.2-0.1-0.3-0.2-0.5-0.3c0.3,0.5,0.4,1.1,0.4,1.8c0,0.3,0,0.5-0.1,0.8
				c0.3-0.1,0.6-0.2,0.9-0.3C37.8,28.6,37.5,27.9,37.1,27.4z"/>
			<path class="st325" d="M44.1,34.2c0-0.2,0-0.4,0-0.5c0-0.1,0-0.2,0-0.3c0-0.3-0.1-0.6-0.2-0.8c-0.5-1.6-1.9-2.8-3.5-3.2
				c-0.3-0.1-0.5-0.1-0.8-0.1c-0.2,0-0.3,0-0.5,0c-0.1,0-0.2,0-0.3,0c-0.3,0-0.7,0.1-1,0.2c-0.3,0.1-0.6,0.2-0.9,0.3
				c-1.2,0.6-2.1,1.6-2.6,2.8c-0.1,0.3-0.2,0.6-0.3,1c0,0.3-0.1,0.5-0.1,0.8c0,0.1,0,0.2,0,0.3c0,0.1,0,0.2,0,0.4
				c0.3,0,0.7,0.1,1,0.1c-0.2-0.4-0.3-0.9-0.3-1.4c0-2.1,1.7-3.7,3.7-3.7c1.2,0,2.3,0.6,3,1.5c0.1,0.2,0.2,0.3,0.3,0.5
				c0.2,0.1,0.3,0.2,0.5,0.3c0.5,0.6,0.7,1.4,0.7,2.2c0,0.4-0.1,0.8-0.2,1.2c0.3,0,0.7,0,1,0C44.1,35.1,44.1,34.6,44.1,34.2z"/>
			<path class="st326" d="M39.4,30.6c0.8,0,1.6,0.3,2.2,0.7c-0.7-0.9-1.8-1.5-3-1.5c-2.1,0-3.7,1.7-3.7,3.7c0,0.5,0.1,1,0.3,1.4
				c0.2,0,0.4,0,0.6,0.1c0-0.2-0.1-0.4-0.1-0.7C35.6,32.3,37.3,30.6,39.4,30.6z"/>
			<path class="st327" d="M42.3,33.6c0-0.6-0.2-1.2-0.4-1.8c-0.1-0.2-0.2-0.3-0.3-0.5c-0.6-0.5-1.4-0.7-2.2-0.7
				c-2.1,0-3.7,1.7-3.7,3.7c0,0.2,0,0.5,0.1,0.7c2,0.2,4,0.4,6.1,0.5C42.1,34.9,42.3,34.2,42.3,33.6z"/>
			<path class="st328" d="M43.1,34.3c0-0.8-0.3-1.6-0.7-2.2c-0.2-0.1-0.3-0.2-0.5-0.3c0.3,0.5,0.4,1.1,0.4,1.8
				c0,0.7-0.2,1.3-0.5,1.9c0.4,0,0.8,0,1.1,0C43.1,35.1,43.1,34.7,43.1,34.3z"/>
			<path class="st325" d="M30.4,33.1c0.3-0.4,0.6-0.8,0.7-1.3c0.2-0.6,0.4-1.2,0.4-1.9c0-0.9-0.2-1.7-0.6-2.4
				c-0.2-0.3-0.4-0.6-0.7-0.9c-0.1-0.1-0.2-0.3-0.4-0.4c0,0-0.1-0.1-0.1-0.1c-0.1-0.1-0.2-0.2-0.4-0.3c-0.5-0.4-1.1-0.6-1.7-0.8
				C27.5,25,27.3,25,27,25c-0.2,0-0.3,0-0.5,0c0,0-0.1,0-0.1,0c-0.6,0-1.2,0.1-1.7,0.3c-0.2,0.1-0.3,0.1-0.4,0.2
				c-1.4,0.7-2.5,2.1-2.7,3.7c0,0.3-0.1,0.5-0.1,0.8c0,0,0,0.1,0,0.1c0,0.4,0.1,0.7,0.1,1.1c0.1,0.4,0.2,0.8,0.4,1.1
				c0.8,0.2,1.6,0.5,2.4,0.7c-0.1-0.1-0.1-0.2-0.2-0.3c-0.2-0.1-0.3-0.2-0.5-0.3c-0.9-0.7-1.5-1.8-1.5-3c0-2.1,1.7-3.7,3.7-3.7
				c1.2,0,2.3,0.6,3,1.5c0.1,0.2,0.2,0.3,0.3,0.5c0.2,0.1,0.3,0.2,0.5,0.3c0.5,0.6,0.7,1.4,0.7,2.2c0,1.7-1.2,3.2-2.8,3.6
				c0.5,0.1,1.1,0.2,1.6,0.3C29.8,33.8,30.2,33.5,30.4,33.1z"/>
			<path class="st326" d="M23.1,30.1c0-2.1,1.7-3.7,3.7-3.7c0.8,0,1.6,0.3,2.2,0.7c-0.7-0.9-1.8-1.5-3-1.5c-2.1,0-3.7,1.7-3.7,3.7
				c0,1.2,0.6,2.3,1.5,3C23.3,31.7,23.1,31,23.1,30.1z"/>
			<path class="st327" d="M29.8,29.4c0-0.6-0.2-1.2-0.4-1.8c-0.1-0.2-0.2-0.3-0.3-0.5c-0.6-0.5-1.4-0.7-2.2-0.7
				c-2.1,0-3.7,1.7-3.7,3.7c0,0.8,0.3,1.6,0.7,2.2c0.2,0.1,0.3,0.2,0.5,0.3c0.5,0.3,1.1,0.4,1.7,0.4C28.1,33.1,29.8,31.4,29.8,29.4z
				"/>
			<path class="st328" d="M30.6,30.2c0-0.8-0.3-1.6-0.7-2.2c-0.2-0.1-0.3-0.2-0.5-0.3c0.3,0.5,0.4,1.1,0.4,1.8
				c0,2.1-1.7,3.7-3.7,3.7c-0.6,0-1.2-0.2-1.7-0.4c0.1,0.1,0.1,0.2,0.2,0.3c1.1,0.3,2.2,0.5,3.3,0.8C29.4,33.3,30.6,31.9,30.6,30.2z
				"/>
		</g>
	</g>
	<g>
		<path class="st315" d="M138.5,48.7v52.7c-1.9,7.5-18.8,13.3-39.3,13.3c-21.1,0-38.3-6.1-39.4-13.9V48.1
			c1.1,7.7,18.3,13.9,39.4,13.9C119.7,61.9,136.6,56.1,138.5,48.7z"/>
		<path class="st316" d="M138.5,45.9c-1.6-6.1-13.2-11.1-28.6-12.7c-3.4-0.4-7-0.5-10.7-0.5c-3.7,0-7.3,0.2-10.7,0.5
			c-15.9,1.7-27.8,7-28.7,13.3c0,0.3-0.1,0.5-0.1,0.8c0,0.3,0,0.5,0.1,0.8c1.1,7.7,18.3,13.9,39.4,13.9c20.5,0,37.4-5.8,39.3-13.3
			c0.1-0.5,0.2-0.9,0.2-1.4C138.7,46.8,138.6,46.3,138.5,45.9z M136.7,48.2c-1.5,5.7-16.2,11.9-37.5,11.9
			c-21.4,0-36.7-6.4-37.6-12.3c0-0.2,0-0.4,0-0.6c0-0.2,0-0.4,0-0.6c0.7-4.5,10.2-10,27.1-11.8c3.4-0.4,6.9-0.5,10.5-0.5
			c3.6,0,7.1,0.2,10.5,0.5c14.6,1.5,25.7,6.2,27,11.4c0.1,0.3,0.1,0.6,0.1,1C136.9,47.6,136.8,47.9,136.7,48.2z"/>
		<path class="st317" d="M136.7,46.3c-1.3-5.2-12.4-9.9-27-11.4c-3.4-0.4-6.9-0.5-10.5-0.5c-3.6,0-7.1,0.2-10.5,0.5
			c-16.9,1.8-26.4,7.3-27.1,11.8c0,0.2,0,0.4,0,0.6c0,0.2,0,0.4,0,0.6c0.9,5.9,16.2,12.3,37.6,12.3c21.3,0,36-6.2,37.5-11.9
			c0.1-0.3,0.1-0.6,0.1-1C136.9,46.9,136.8,46.6,136.7,46.3z M135,47.8c-1.1,4.3-14.5,10.6-35.7,10.6c-9.7,0-18.9-1.4-25.9-3.8
			c-6.9-2.4-9.7-5.3-9.9-6.9c0-0.1,0-0.2,0-0.3s0-0.2,0-0.3c0.5-3.2,8.7-8.5,25.5-10.2c3.3-0.3,6.8-0.5,10.3-0.5
			c3.5,0,7,0.2,10.3,0.5c15.3,1.6,24.5,6.4,25.4,10c0,0.2,0.1,0.3,0.1,0.5C135,47.4,135,47.6,135,47.8z"/>
		<path class="st318" d="M135,47.3c0,0.2,0,0.3-0.1,0.5c-1.1,4.3-14.5,10.6-35.7,10.6c-9.7,0-18.9-1.4-25.9-3.8
			c-6.9-2.4-9.7-5.3-9.9-6.9c0-0.1,0-0.2,0-0.3s0-0.2,0-0.3c0.5-3.2,8.7-8.5,25.5-10.2c3.3-0.3,6.8-0.5,10.3-0.5
			c3.5,0,7,0.2,10.3,0.5c15.3,1.6,24.5,6.4,25.4,10C135,46.9,135,47.1,135,47.3z"/>
		<path class="st319" d="M106.6,69c-2.5,0.2-4.9,0.3-7.4,0.3c-11.5,0-23.2-1.7-32.1-5.4v35.8c0.7,0.8,3.2,2.8,9,4.6
			c6.4,2,14.6,3.1,23.1,3.1c2.5,0,5-0.1,7.4-0.3V69z"/>
		<path class="st319" d="M121.6,66.8v37.7c0.3-0.1,0.5-0.2,0.8-0.2c5.5-1.7,8-3.6,8.8-4.5V63.8C128.3,65,125,66,121.6,66.8z"/>
		<g>
			<path class="st320" d="M130.8,44.2c0,0,0,0.1,0,0.1c-0.2,0.7-1.7,1.2-3.6,1.2c-1.9,0-3.5-0.6-3.6-1.3c0,0,0-0.1,0-0.1
				c0,0,0-0.1,0-0.1c0.1-0.6,1.2-1.1,2.6-1.2c0.3,0,0.6-0.1,1-0.1c0.3,0,0.7,0,1,0.1c1.4,0.1,2.5,0.6,2.6,1.2
				C130.8,44.1,130.8,44.2,130.8,44.2z"/>
			<g>
				<path class="st320" d="M73.1,47.1c0,0,0,0.1,0,0.1c-0.1,0.6-1.4,1-3,1c-1.6,0-3-0.5-3-1.1c0,0,0,0,0-0.1c0,0,0,0,0-0.1
					c0.1-0.5,1-0.9,2.2-1c0.3,0,0.5,0,0.8,0c0.3,0,0.6,0,0.8,0c1.2,0.1,2.1,0.5,2.2,1C73.1,47.1,73.1,47.1,73.1,47.1z"/>
			</g>
			<g>
				<path class="st320" d="M108,55.6c0,0,0,0.1,0,0.1c-0.1,0.6-1.4,1-3,1c-1.6,0-2.9-0.5-3-1c0,0,0,0,0-0.1c0,0,0,0,0-0.1
					c0.1-0.5,1-0.9,2.2-1c0.3,0,0.5,0,0.8,0c0.3,0,0.6,0,0.8,0c1.2,0.1,2,0.5,2.2,1C108,55.6,108,55.6,108,55.6z"/>
			</g>
			<g>
				<path class="st320" d="M80.7,51.9c0,0,0,0.1,0,0.1c-0.2,0.7-1.8,1.2-3.7,1.2c-2,0-3.6-0.6-3.7-1.3c0,0,0-0.1,0-0.1
					c0,0,0-0.1,0-0.1c0.1-0.6,1.2-1.1,2.7-1.2c0.3,0,0.7-0.1,1-0.1c0.3,0,0.7,0,1,0.1c1.4,0.2,2.5,0.6,2.7,1.2
					C80.7,51.8,80.7,51.9,80.7,51.9z"/>
			</g>
			<g>
				<path class="st320" d="M96.1,55.6c0,0,0,0.1,0,0.1c-0.2,0.7-1.7,1.2-3.6,1.2c-1.9,0-3.5-0.6-3.6-1.3c0,0,0,0,0-0.1
					c0,0,0-0.1,0-0.1c0.1-0.6,1.2-1.1,2.6-1.2c0.3,0,0.6-0.1,1-0.1c0.3,0,0.7,0,1,0.1c1.4,0.1,2.5,0.6,2.6,1.2
					C96.1,55.5,96.1,55.5,96.1,55.6z"/>
			</g>
			<g>
				<path class="st320" d="M127.4,51.6c0,0,0,0.1,0,0.1c-0.2,0.6-1.5,1.1-3.2,1.1c-1.7,0-3.1-0.5-3.2-1.1c0,0,0,0,0-0.1
					c0,0,0,0,0-0.1c0.1-0.5,1.1-1,2.4-1.1c0.3,0,0.6,0,0.9,0c0.3,0,0.6,0,0.9,0c1.3,0.1,2.2,0.5,2.4,1
					C127.4,51.6,127.4,51.6,127.4,51.6z"/>
			</g>
			<g>
				<path class="st320" d="M110.2,38.2C110.2,38.2,110.2,38.3,110.2,38.2c-0.1,0.4-0.9,0.7-1.9,0.7c-1,0-1.8-0.3-1.9-0.7
					c0,0,0,0,0,0c0,0,0,0,0,0c0-0.3,0.6-0.6,1.4-0.6c0.2,0,0.3,0,0.5,0c0.2,0,0.3,0,0.5,0C109.6,37.6,110.1,37.9,110.2,38.2
					C110.2,38.2,110.2,38.2,110.2,38.2z"/>
			</g>
			<g>
				<path class="st320" d="M104.8,39.1c0,0,0,0.1,0,0.1c-0.2,0.7-1.7,1.2-3.6,1.2c-1.9,0-3.5-0.6-3.6-1.3c0,0,0-0.1,0-0.1
					c0,0,0-0.1,0-0.1c0.1-0.6,1.2-1.1,2.6-1.2c0.3,0,0.6-0.1,1-0.1c0.3,0,0.7,0,1,0.1c1.4,0.1,2.5,0.6,2.6,1.2
					C104.8,39,104.8,39,104.8,39.1z"/>
			</g>
			<g>
				<path class="st320" d="M78.8,42c0,0,0,0.1,0,0.1c-0.1,0.5-1.4,1-2.9,1c-1.5,0-2.8-0.5-2.9-1c0,0,0,0,0-0.1c0,0,0,0,0-0.1
					c0.1-0.5,0.9-0.9,2.1-1c0.3,0,0.5,0,0.8,0c0.3,0,0.5,0,0.8,0c1.1,0.1,2,0.5,2.1,0.9C78.8,41.9,78.8,41.9,78.8,42z"/>
			</g>
			<g>
				<path class="st320" d="M116.7,55C116.7,55,116.7,55,116.7,55c-0.1,0.5-1,0.8-2.1,0.8c-1.1,0-2-0.3-2.1-0.7c0,0,0,0,0,0
					c0,0,0,0,0,0c0-0.3,0.7-0.6,1.5-0.7c0.2,0,0.4,0,0.6,0c0.2,0,0.4,0,0.6,0C116,54.3,116.6,54.6,116.7,55
					C116.7,54.9,116.7,54.9,116.7,55z"/>
			</g>
			<g>
				<path class="st320" d="M92,39.9c0,0,0,0.1,0,0.1c-0.2,0.6-1.6,1.1-3.3,1.1c-1.8,0-3.3-0.5-3.4-1.2c0,0,0,0,0-0.1c0,0,0,0,0-0.1
					c0.1-0.5,1.1-1,2.4-1.1c0.3,0,0.6,0,0.9,0c0.3,0,0.6,0,0.9,0c1.3,0.1,2.3,0.6,2.4,1.1C92,39.8,92,39.8,92,39.9z"/>
			</g>
			<g>
				<path class="st320" d="M131.5,48.6C131.5,48.6,131.5,48.6,131.5,48.6c-0.1,0.4-0.8,0.6-1.7,0.6c-0.9,0-1.6-0.3-1.7-0.6
					c0,0,0,0,0,0c0,0,0,0,0,0c0-0.3,0.5-0.5,1.2-0.6c0.1,0,0.3,0,0.5,0c0.2,0,0.3,0,0.5,0C130.9,48.1,131.4,48.3,131.5,48.6
					C131.5,48.6,131.5,48.6,131.5,48.6z"/>
			</g>
			<g>
				<path class="st320" d="M121.9,41c0,0,0,0.1,0,0.1c-0.2,0.6-1.6,1.1-3.3,1.1c-1.8,0-3.2-0.5-3.3-1.2c0,0,0,0,0-0.1c0,0,0,0,0-0.1
					c0.1-0.5,1.1-1,2.4-1.1c0.3,0,0.6,0,0.9,0c0.3,0,0.6,0,0.9,0c1.3,0.1,2.3,0.6,2.4,1.1C121.9,40.9,121.9,41,121.9,41z"/>
			</g>
		</g>
		<path class="st329" d="M126.1,46.9c-0.2-0.7-0.7-1.4-1.6-2.1c0,0.1,0,0.2,0,0.3c0,0.1,0,0.2-0.1,0.4c-0.6,2.3-6,5.4-15,7v2.4
			c9.9-1.4,15.9-4.8,16.6-7.2c0-0.1,0.1-0.3,0.1-0.4C126.2,47.1,126.2,47,126.1,46.9z"/>
		<path class="st330" d="M124.6,45.1c0,0.1,0,0.2-0.1,0.4c-0.6,2.3-6,5.4-15,7l10.1-10.3c2.2,0.8,3.8,1.7,4.9,2.7
			C124.6,44.9,124.6,45,124.6,45.1z"/>
		<rect x="73.5" y="44" class="st323" width="39.8" height="2.9"/>
		<polygon class="st324" points="115.8,41.5 115.8,44.4 113.3,46.9 113.3,46.9 113.3,44 113.3,44 		"/>
		<path class="st321" d="M108.3,39.7l-3.8,4.3h-8.9l4.9-5c1.6,0.1,3.3,0.2,4.8,0.3C106.3,39.4,107.3,39.6,108.3,39.7z"/>
		<path class="st321" d="M96.2,39l-4.4,5h-8.4l4.3-4.4c0.7-0.1,1.4-0.2,2.2-0.3C91.9,39.1,94,39,96.2,39z"/>
		<path class="st321" d="M82.5,40.5L79.5,44h-6.1C75.4,42.7,78.4,41.5,82.5,40.5z"/>
		<path class="st322" d="M87.6,39.6L83.3,44h-3.8l3.1-3.4h0C84.1,40.2,85.7,39.9,87.6,39.6z"/>
		<path class="st322" d="M100.5,39l-4.9,5h-3.8l4.4-5c0.5,0,0.9,0,1.4,0C98.5,38.9,99.5,39,100.5,39z"/>
		<path class="st321" d="M115.8,41.4l-2.5,2.6h-4.9l3.5-3.6C113.4,40.7,114.6,41,115.8,41.4z"/>
		<path class="st322" d="M111.9,40.4l-3.5,3.6h-3.9l3.8-4.3C109.6,39.9,110.8,40.1,111.9,40.4z"/>
		<path class="st331" d="M104.9,51.3V54c-2.3,0.2-4.8,0.4-7.5,0.4c-7.3,0-14.2-1-19.5-2.9c-2.8-1-4.7-2-5.8-3v-2.7
			c1,0.9,2.6,1.8,4.9,2.7c0.3,0.1,0.6,0.2,0.9,0.3c5.3,1.9,12.2,2.9,19.5,2.9C100.1,51.7,102.6,51.6,104.9,51.3z"/>
		<path class="st332" d="M110.4,45.8v2.7L105,54c0,0-0.1,0-0.1,0v-2.7c0,0,0.1,0,0.1,0l2.8-2.8L110.4,45.8z"/>
		<path class="st333" d="M110.4,45.8l-5.4,5.5c-2.4,0.2-4.9,0.4-7.6,0.4c-7.3,0-14.2-1-19.5-2.9c-2.8-1-4.7-2-5.8-3H110.4z"/>
	</g>
</g>
</svg>
