<?xml version="1.0" encoding="utf-8"?>
<!-- Generator: Adobe Illustrator 25.0.1, SVG Export Plug-In . SVG Version: 6.00 Build 0)  -->
<svg version="1.1" id="圖層_1" xmlns="http://www.w3.org/2000/svg" xmlns:xlink="http://www.w3.org/1999/xlink" x="0px" y="0px"
	 viewBox="0 0 271.6 191.3" style="enable-background:new 0 0 271.6 191.3;" xml:space="preserve">
<style type="text/css">
	.st0{fill:#C6182D;}
	.st1{fill:#F7F6EC;}
	.st2{fill:#313535;stroke:#040000;stroke-linecap:round;stroke-linejoin:round;stroke-miterlimit:10;}
	.st3{fill:#FFFFFF;stroke:#FFFFFF;stroke-width:0.8391;stroke-miterlimit:10;}
	.st4{fill:#FFA486;}
	.st5{fill:#FFA486;stroke:#000000;stroke-miterlimit:10;}
	.st6{fill:#F7EBEB;stroke:#000000;stroke-miterlimit:10;}
	.st7{fill:#36303A;}
	.st8{fill:#6A433E;stroke:#000000;stroke-miterlimit:10;}
	.st9{fill:#FFA99B;stroke:#000000;stroke-miterlimit:10;}
	.st10{fill:#FFFFFF;}
	.st11{fill:#6A433E;}
	.st12{fill:#FFFFFF;stroke:#000000;stroke-linecap:round;stroke-linejoin:round;stroke-miterlimit:10;}
	.st13{fill:#F4EB73;stroke:#000000;stroke-miterlimit:10;}
	.st14{fill:#FFA99B;stroke:#000000;stroke-linecap:round;stroke-linejoin:round;stroke-miterlimit:10;}
	.st15{fill:#D96252;}
	.st16{fill:#D96252;stroke:#000000;stroke-miterlimit:10;}
	.st17{fill:#FFA486;stroke:#000000;stroke-width:1.0766;stroke-linecap:round;stroke-linejoin:round;stroke-miterlimit:10;}
	.st18{fill:#EFD2AA;}
	.st19{fill:#36303A;stroke:#000000;stroke-miterlimit:10;}
	.st20{fill:#86524D;stroke:#000000;stroke-miterlimit:10;}
	.st21{fill:#86524D;}
	.st22{fill:#6F5E68;stroke:#000000;stroke-miterlimit:10;}
	.st23{fill:#E9E9E9;stroke:#000000;stroke-width:1.0553;stroke-miterlimit:10;}
	.st24{fill:#537A95;stroke:#000000;stroke-width:1.0553;stroke-miterlimit:10;}
	.st25{fill:none;stroke:#000000;stroke-linecap:round;stroke-linejoin:round;stroke-miterlimit:10;}
	.st26{fill:#6F5E61;stroke:#000000;stroke-width:1.1524;stroke-miterlimit:10;}
	.st27{fill:#DFCEC6;stroke:#000000;stroke-width:1.1524;stroke-miterlimit:10;}
	.st28{fill:#36303A;stroke:#000000;stroke-width:1.1524;stroke-miterlimit:10;}
	.st29{fill:#36303A;stroke:#000000;stroke-width:1.3348;stroke-miterlimit:10;}
	.st30{fill:#F7EFEB;stroke:#000000;stroke-width:1.3348;stroke-miterlimit:10;}
	.st31{fill:#6F5E61;stroke:#000000;stroke-width:1.1524;stroke-linecap:round;stroke-linejoin:round;stroke-miterlimit:10;}
	.st32{fill:#36303A;stroke:#000000;stroke-width:1.1524;stroke-linecap:round;stroke-linejoin:round;stroke-miterlimit:10;}
	.st33{fill:#D0D0D0;stroke:#000000;stroke-width:1.1524;stroke-linecap:round;stroke-linejoin:round;stroke-miterlimit:10;}
	.st34{fill:#905851;stroke:#000000;stroke-width:1.1524;stroke-miterlimit:10;}
	.st35{fill:#F4D1B4;stroke:#000000;stroke-width:1.1524;stroke-miterlimit:10;}
	.st36{fill:#F7EFEB;}
	.st37{fill:#733832;stroke:#000000;stroke-width:1.1524;stroke-miterlimit:10;}
	.st38{fill:#DBA777;stroke:#000000;stroke-width:1.1524;stroke-miterlimit:10;}
	.st39{fill:#DBA777;}
	.st40{fill:#905851;}
	.st41{fill:#E7E7E7;stroke:#000000;stroke-linecap:round;stroke-linejoin:round;stroke-miterlimit:10;}
	.st42{fill:#954039;}
	.st43{fill:none;stroke:#000000;stroke-width:1.2726;stroke-linecap:round;stroke-linejoin:round;stroke-miterlimit:10;}
	.st44{fill:#954039;stroke:#000000;stroke-miterlimit:10;}
	.st45{fill:#905851;stroke:#000000;stroke-width:1.1524;stroke-linecap:round;stroke-linejoin:round;stroke-miterlimit:10;}
	.st46{fill:#ACABA9;stroke:#000000;stroke-miterlimit:10;}
	.st47{fill:#020202;stroke:#000000;stroke-miterlimit:10;}
	.st48{fill:#938862;stroke:#040000;stroke-width:0.8707;stroke-miterlimit:10;}
	.st49{fill:#736638;stroke:#040000;stroke-width:0.8707;stroke-miterlimit:10;}
	.st50{fill:#97B4A4;stroke:#000000;stroke-linecap:round;stroke-linejoin:round;stroke-miterlimit:10;}
	.st51{fill:#789D87;stroke:#000000;stroke-linecap:round;stroke-linejoin:round;stroke-miterlimit:10;}
	.st52{fill:#905851;stroke:#000000;stroke-linecap:round;stroke-linejoin:round;stroke-miterlimit:10;}
	.st53{fill:#DFCEC6;stroke:#000000;stroke-linecap:round;stroke-linejoin:round;stroke-miterlimit:10;}
	.st54{fill:#61372B;}
	.st55{fill:#E5B891;stroke:#040000;stroke-miterlimit:10;}
	.st56{fill:#DFB69E;stroke:#040000;stroke-width:0.7279;stroke-miterlimit:10;}
	.st57{fill:#A56656;stroke:#040000;stroke-width:0.9617;stroke-miterlimit:10;}
	.st58{fill:#FFA486;stroke:#000000;stroke-width:0.9093;stroke-miterlimit:10;}
	.st59{fill:#382732;stroke:#000000;stroke-width:0.7891;stroke-miterlimit:10;}
	.st60{fill:#382732;}
	.st61{fill:#FF9975;}
	.st62{fill:#6F5E61;stroke:#000000;stroke-width:0.7891;stroke-miterlimit:10;}
	.st63{fill:none;stroke:#040000;stroke-miterlimit:10;}
	.st64{fill:#313535;stroke:#040000;stroke-width:1.0065;stroke-linecap:round;stroke-linejoin:round;stroke-miterlimit:10;}
	.st65{fill:#FFFFFF;stroke:#FFFFFF;stroke-width:0.8446;stroke-miterlimit:10;}
	.st66{fill:#FFFFFF;stroke:#000000;stroke-width:0.7891;stroke-miterlimit:10;}
	.st67{fill:#86524D;stroke:#000000;stroke-width:0.9093;stroke-miterlimit:10;}
	.st68{fill:#FFFFFF;stroke:#000000;stroke-width:0.9093;stroke-linecap:round;stroke-linejoin:round;stroke-miterlimit:10;}
	.st69{fill:#36303A;stroke:#000000;stroke-width:0.7891;stroke-miterlimit:10;}
	.st70{fill:#6A433E;stroke:#000000;stroke-width:0.8804;stroke-miterlimit:10;}
	.st71{fill:#FFA99B;stroke:#000000;stroke-width:0.8804;stroke-miterlimit:10;}
	.st72{fill:#FFFFFF;stroke:#000000;stroke-width:0.8804;stroke-linecap:round;stroke-linejoin:round;stroke-miterlimit:10;}
	.st73{fill:#FFA99B;stroke:#000000;stroke-width:0.8804;stroke-linecap:round;stroke-linejoin:round;stroke-miterlimit:10;}
	.st74{fill:#E9E9E9;stroke:#000000;stroke-width:0.8328;stroke-miterlimit:10;}
	.st75{fill:#537A95;stroke:#000000;stroke-width:0.8328;stroke-miterlimit:10;}
	.st76{fill:#FF9975;stroke:#000000;stroke-width:0.7891;stroke-miterlimit:10;}
	.st77{fill:#EFDBBF;stroke:#000000;stroke-width:0.7891;stroke-miterlimit:10;}
	.st78{fill:#AF959A;stroke:#000000;stroke-linecap:round;stroke-linejoin:round;stroke-miterlimit:10;}
	.st79{fill:#AF959A;}
	.st80{fill:#FFA486;stroke:#000000;stroke-width:0.7947;stroke-miterlimit:10;}
	.st81{fill:#382732;stroke:#000000;stroke-width:0.6897;stroke-miterlimit:10;}
	.st82{fill:#6F5E61;stroke:#000000;stroke-width:0.6897;stroke-miterlimit:10;}
	.st83{fill:none;stroke:#040000;stroke-width:0.874;stroke-miterlimit:10;}
	.st84{fill:#313535;stroke:#040000;stroke-width:1.0909;stroke-linecap:round;stroke-linejoin:round;stroke-miterlimit:10;}
	.st85{fill:#FFFFFF;stroke:#FFFFFF;stroke-width:0.9154;stroke-miterlimit:10;}
	.st86{fill:#FFFFFF;stroke:#000000;stroke-width:0.6897;stroke-miterlimit:10;}
	.st87{fill:#86524D;stroke:#000000;stroke-width:0.7947;stroke-miterlimit:10;}
	.st88{fill:#FFFFFF;stroke:#000000;stroke-width:0.7947;stroke-linecap:round;stroke-linejoin:round;stroke-miterlimit:10;}
	.st89{fill:#36303A;stroke:#000000;stroke-width:0.6897;stroke-miterlimit:10;}
	.st90{fill:#E9E9E9;stroke:#000000;stroke-width:1.0991;stroke-miterlimit:10;}
	.st91{fill:#537A95;stroke:#000000;stroke-width:1.0991;stroke-miterlimit:10;}
	.st92{opacity:0.5;}
	.st93{fill:#FF5748;}
	.st94{fill:#A0A916;}
	.st95{fill:#FFD84A;}
	.st96{fill:#00A8E1;}
	.st97{fill:#FFE5CF;stroke:#040000;stroke-width:0.7253;stroke-miterlimit:10;}
	.st98{fill:#938862;stroke:#040000;stroke-width:0.7253;stroke-miterlimit:10;}
	.st99{fill:#98B3C8;stroke:#040000;stroke-width:0.7253;stroke-miterlimit:10;}
	.st100{fill:#FFFFFF;stroke:#040000;stroke-width:0.7253;stroke-miterlimit:10;}
	.st101{fill:#F7EEE9;stroke:#040000;stroke-width:0.7253;stroke-miterlimit:10;}
	.st102{fill:#FC8A89;stroke:#040000;stroke-width:0.7253;stroke-miterlimit:10;}
	.st103{fill:#FFBB57;stroke:#040000;stroke-width:0.7253;stroke-miterlimit:10;}
	.st104{fill:#E7AD56;stroke:#040000;stroke-width:0.7253;stroke-miterlimit:10;}
	.st105{fill:#E6B282;stroke:#040000;stroke-width:0.7253;stroke-miterlimit:10;}
	.st106{fill:#666666;}
	.st107{fill:#C6182D;stroke:#C6182D;stroke-width:3;stroke-linecap:round;stroke-linejoin:round;stroke-miterlimit:10;}
	.st108{fill:#F7F6EC;stroke:#F7F6EC;stroke-width:3;stroke-linecap:round;stroke-linejoin:round;stroke-miterlimit:10;}
	.st109{opacity:0.2;}
	.st110{fill:#DDD9D4;}
	.st111{opacity:5.000000e-02;clip-path:url(#SVGID_2_);}
	.st112{fill:none;stroke:#000000;stroke-width:2;stroke-miterlimit:10;}
	.st113{fill:none;stroke:#000000;stroke-width:0.9035;stroke-miterlimit:10;}
	.st114{clip-path:url(#SVGID_4_);}
	.st115{fill:#68491B;}
	.st116{fill:#754F1C;}
	.st117{fill:url(#SVGID_5_);}
	.st118{fill:url(#SVGID_6_);}
	.st119{fill:none;stroke:#602E13;stroke-width:1.2551;}
	.st120{fill:#AB9666;stroke:#000000;stroke-width:0.9035;stroke-miterlimit:10;}
	.st121{opacity:5.000000e-02;clip-path:url(#SVGID_8_);}
	.st122{fill:none;stroke:#000000;stroke-width:1.8071;stroke-miterlimit:10;}
	.st123{fill:none;stroke:#C6182D;stroke-width:0.5609;stroke-miterlimit:10;}
	.st124{fill:#C1A67E;}
	.st125{clip-path:url(#SVGID_10_);}
	.st126{clip-path:url(#SVGID_12_);}
	.st127{fill:#AB9666;}
	.st128{clip-path:url(#SVGID_14_);}
	.st129{clip-path:url(#SVGID_16_);}
	.st130{clip-path:url(#SVGID_18_);}
	.st131{clip-path:url(#SVGID_20_);}
	.st132{clip-path:url(#SVGID_22_);}
	.st133{clip-path:url(#SVGID_24_);}
	.st134{clip-path:url(#SVGID_26_);}
	.st135{fill:#AC854F;}
	.st136{clip-path:url(#SVGID_28_);}
	.st137{clip-path:url(#SVGID_30_);}
	.st138{clip-path:url(#SVGID_32_);}
	.st139{clip-path:url(#SVGID_34_);}
	.st140{fill:#C6182D;stroke:#000000;stroke-miterlimit:10;}
	.st141{fill:#F7F6EC;stroke:#000000;stroke-miterlimit:10;}
	.st142{fill:none;stroke:#000000;stroke-width:3;stroke-linecap:round;stroke-linejoin:round;stroke-miterlimit:10;}
	.st143{fill:none;stroke:#C6182D;stroke-miterlimit:10;}
	.st144{fill:none;stroke:#C6182D;stroke-width:0.6406;stroke-miterlimit:10;}
	.st145{fill:#B79F70;}
	.st146{opacity:0.5;fill:#FFFFFF;}
	.st147{clip-path:url(#SVGID_38_);}
	.st148{fill:#F7F0F0;stroke:#000000;stroke-width:2.1005;stroke-miterlimit:10;}
	.st149{fill:#B79F70;stroke:#000000;stroke-width:0.8559;stroke-miterlimit:10;}
	.st150{fill:none;stroke:#000000;stroke-width:0.8559;stroke-miterlimit:10;}
	.st151{fill:#C6182D;stroke:#000000;stroke-width:1.0251;stroke-miterlimit:10;}
	.st152{fill:#FFFFFF;stroke:#000000;stroke-width:2.4107;stroke-linecap:round;stroke-linejoin:round;stroke-miterlimit:10;}
	.st153{fill:#FFE5CF;stroke:#040000;stroke-miterlimit:10;}
	.st154{fill:#938862;stroke:#040000;stroke-miterlimit:10;}
	.st155{fill:#F7EEE9;stroke:#040000;stroke-miterlimit:10;}
	.st156{fill:#FFFFFF;stroke:#040000;stroke-miterlimit:10;}
	.st157{fill:#FC8A89;stroke:#040000;stroke-miterlimit:10;}
	.st158{fill:#98B3C8;stroke:#040000;stroke-miterlimit:10;}
	.st159{fill:#FFBB57;stroke:#040000;stroke-miterlimit:10;}
	.st160{fill:#E6B282;stroke:#040000;stroke-miterlimit:10;}
	.st161{fill:#3F3B39;}
	.st162{fill:#FF282F;}
	.st163{fill:#373733;}
	.st164{fill:#FFD769;}
	.st165{fill:#F4C474;}
	.st166{fill:#E8EAE3;}
	.st167{filter:url(#Adobe_OpacityMaskFilter);}
	.st168{mask:url(#SVGID_39_);}
	.st169{fill:#F0B75C;}
	.st170{fill:none;stroke:#000000;stroke-width:0.8197;stroke-linecap:round;stroke-linejoin:round;stroke-miterlimit:10;}
	.st171{fill:none;stroke:#000000;stroke-width:0.8197;stroke-miterlimit:10;}
	.st172{fill:#F9F4EF;stroke:#040000;stroke-miterlimit:10;}
	.st173{fill:#FFA99B;stroke:#040000;stroke-miterlimit:10;}
	.st174{fill:#36303A;stroke:#040000;stroke-miterlimit:10;}
	.st175{fill:#554E59;}
	.st176{opacity:0.54;fill:#F7EBEB;}
	.st177{fill:#6A433E;stroke:#040000;stroke-miterlimit:10;}
	.st178{fill:#FFA99B;stroke:#040000;stroke-linecap:round;stroke-linejoin:round;stroke-miterlimit:10;}
	.st179{fill:#020202;}
	.st180{fill:#6B3C2B;stroke:#040000;stroke-miterlimit:10;}
	.st181{fill:#FF4F2C;stroke:#040000;stroke-miterlimit:10;}
	.st182{fill:#FFA99B;}
	.st183{fill:#5D75DB;stroke:#040000;stroke-miterlimit:10;}
	.st184{fill:#EFD2AA;stroke:#040000;stroke-miterlimit:10;}
	.st185{fill:#E2C295;stroke:#040000;stroke-miterlimit:10;}
	.st186{fill:#F7EBEB;stroke:#040000;stroke-miterlimit:10;}
	.st187{fill:#FF4F2C;stroke:#040000;stroke-linecap:round;stroke-linejoin:round;stroke-miterlimit:10;}
	.st188{fill:#6F5E68;stroke:#040000;stroke-linecap:round;stroke-linejoin:round;stroke-miterlimit:10;}
	.st189{fill:#DB9A7D;}
	.st190{fill:#DD6A5B;stroke:#040000;stroke-miterlimit:10;}
	.st191{fill:#F4DDBE;stroke:#040000;stroke-miterlimit:10;}
	.st192{fill:#DB9A7D;stroke:#040000;stroke-miterlimit:10;}
	.st193{fill:#7B94B9;stroke:#040000;stroke-miterlimit:10;}
	.st194{fill:#FF282F;stroke:#000000;stroke-width:0.8566;stroke-miterlimit:10;}
	.st195{fill:#FF3E43;}
	.st196{opacity:0.3;}
	.st197{fill:#C7B299;}
	.st198{fill:none;stroke:#AC854F;stroke-width:0.753;stroke-linecap:round;stroke-linejoin:round;stroke-miterlimit:10;}
	.st199{clip-path:url(#SVGID_41_);}
	.st200{clip-path:url(#SVGID_43_);}
	.st201{fill:#B29341;}
	.st202{fill:#97A9DB;}
	.st203{fill:#97A9DB;stroke:#040000;stroke-miterlimit:10;}
	.st204{fill:#BED5F7;stroke:#040000;stroke-miterlimit:10;}
	.st205{fill:#9EBAE6;stroke:#040000;stroke-miterlimit:10;}
	.st206{fill:#723C39;stroke:#040000;stroke-miterlimit:10;}
	.st207{fill:#2D2044;}
	.st208{fill:#F4E58C;stroke:#020202;stroke-miterlimit:10;}
	.st209{stroke:#020202;stroke-miterlimit:10;}
	.st210{fill:#E28675;stroke:#020202;stroke-miterlimit:10;}
	.st211{fill:#535699;}
	.st212{fill:#55996A;stroke:#020202;stroke-miterlimit:10;}
	.st213{fill:#020202;stroke:#020202;stroke-miterlimit:10;}
	.st214{fill:none;stroke:#040000;stroke-linecap:round;stroke-linejoin:round;stroke-miterlimit:10;}
	.st215{fill:#FFFFFF;stroke:#040000;stroke-width:0.5;stroke-miterlimit:10;}
	.st216{clip-path:url(#SVGID_45_);}
	.st217{fill:url(#SVGID_46_);}
	.st218{fill:url(#SVGID_47_);}
	.st219{fill:url(#SVGID_48_);}
	.st220{fill:#C6182D;stroke:#000000;stroke-width:2;stroke-miterlimit:10;}
	.st221{fill:none;stroke:#FFFFFF;stroke-width:5.4451;stroke-linecap:round;stroke-linejoin:round;stroke-miterlimit:10;}
	.st222{fill:#E5E5E5;}
	.st223{fill:#FFFFFF;stroke:#000000;stroke-width:3;stroke-linecap:round;stroke-linejoin:round;stroke-miterlimit:10;}
	.st224{clip-path:url(#SVGID_52_);}
	.st225{fill:#B79F70;stroke:#000000;stroke-width:1.0251;stroke-miterlimit:10;}
	.st226{clip-path:url(#SVGID_56_);}
	.st227{clip-path:url(#SVGID_60_);}
	.st228{clip-path:url(#SVGID_64_);}
	.st229{clip-path:url(#SVGID_68_);}
	.st230{fill:#F9F8EF;}
	.st231{clip-path:url(#SVGID_72_);}
	.st232{fill:#C6182D;stroke:#000000;stroke-width:0.8559;stroke-miterlimit:10;}
	.st233{clip-path:url(#SVGID_76_);}
	.st234{clip-path:url(#SVGID_80_);}
	.st235{fill:#FF282F;stroke:#000000;stroke-width:2.3666;stroke-miterlimit:10;}
	.st236{fill:#FF282F;stroke:#000000;stroke-miterlimit:10;}
	.st237{fill:#FBFFF6;}
	.st238{fill:none;stroke:#FBFFF6;stroke-miterlimit:10;}
	.st239{fill:#3F3B39;stroke:#FCFCF6;stroke-miterlimit:10;}
	.st240{clip-path:url(#SVGID_82_);}
	.st241{fill:#FF282F;stroke:#FCFCF6;stroke-miterlimit:10;}
	.st242{fill:none;stroke:#000000;stroke-miterlimit:10;}
	.st243{fill:none;stroke:#373733;stroke-miterlimit:10;}
	.st244{clip-path:url(#SVGID_84_);}
	.st245{fill:none;stroke:#FFFFFF;stroke-miterlimit:10;}
	.st246{fill:#373733;stroke:#000000;stroke-miterlimit:10;}
	.st247{fill:#FFFFFF;stroke:#000000;stroke-width:0.827;stroke-miterlimit:10;}
	.st248{fill:#FFFFFF;stroke:#FFD84A;stroke-width:1.7405;stroke-miterlimit:10;}
	.st249{fill:#EFF0D6;}
	.st250{clip-path:url(#SVGID_86_);}
	.st251{fill:none;stroke:#000000;stroke-width:1.7405;stroke-miterlimit:10;}
	.st252{fill:#FFD22C;stroke:#000000;stroke-miterlimit:10;}
	.st253{clip-path:url(#SVGID_88_);}
	.st254{clip-path:url(#SVGID_90_);}
	.st255{fill:#614D3F;}
	.st256{filter:url(#Adobe_OpacityMaskFilter_1_);}
	.st257{mask:url(#SVGID_91_);}
	.st258{fill:none;stroke:#000000;stroke-width:1.5032;stroke-linecap:round;stroke-linejoin:round;stroke-miterlimit:10;}
	.st259{fill:none;stroke:#000000;stroke-width:1.5032;stroke-miterlimit:10;}
	.st260{fill:#EFBC6C;}
	.st261{clip-path:url(#SVGID_93_);}
	.st262{clip-path:url(#SVGID_95_);}
	.st263{clip-path:url(#SVGID_97_);}
	.st264{clip-path:url(#SVGID_99_);}
	.st265{fill:#F4C374;stroke:#000000;stroke-width:1.2527;stroke-miterlimit:10;}
	.st266{fill:none;stroke:#000000;stroke-width:1.2527;stroke-linecap:round;stroke-linejoin:round;stroke-miterlimit:10;}
	.st267{fill:#FFFFFF;stroke:#000000;stroke-width:1.2527;stroke-miterlimit:10;}
	.st268{fill:#EFBC6C;stroke:#000000;stroke-width:1.1723;stroke-miterlimit:10;}
	.st269{fill:none;}
	.st270{fill:none;stroke:#000000;stroke-width:1.1723;stroke-miterlimit:10;}
	.st271{fill:#AFAF17;stroke:#000000;stroke-width:1.1723;stroke-miterlimit:10;}
	.st272{fill:#436EC4;stroke:#000000;stroke-width:1.1723;stroke-miterlimit:10;}
	.st273{fill:#C947C6;stroke:#000000;stroke-width:1.1723;stroke-miterlimit:10;}
	.st274{fill:#E82E68;stroke:#000000;stroke-width:1.1723;stroke-miterlimit:10;}
	.st275{fill:#836270;}
	.st276{fill:#A9746B;}
	.st277{fill:#F8FCE4;}
	.st278{fill:#F8BC71;stroke:#000000;stroke-width:0.8735;stroke-miterlimit:10;}
	.st279{fill:#E28675;stroke:#000000;stroke-width:0.8735;stroke-miterlimit:10;}
	.st280{fill:#E28675;}
	.st281{fill:#BA6152;stroke:#000000;stroke-width:0.8735;stroke-linecap:round;stroke-linejoin:round;stroke-miterlimit:10;}
	.st282{fill:#FFFFFF;stroke:#000000;stroke-width:0.8735;stroke-linecap:round;stroke-linejoin:round;stroke-miterlimit:10;}
	.st283{fill:#E05C5C;stroke:#000000;stroke-width:0.8735;stroke-miterlimit:10;}
	.st284{fill:#D49676;stroke:#000000;stroke-width:0.8735;stroke-miterlimit:10;}
	.st285{stroke:#000000;stroke-width:0.4367;stroke-miterlimit:10;}
	.st286{fill:#FFFFFF;stroke:#000000;stroke-width:0.8735;stroke-miterlimit:10;}
	.st287{fill:#2D2044;stroke:#000000;stroke-width:0.8735;stroke-miterlimit:10;}
	.st288{fill:#535699;stroke:#000000;stroke-width:0.8735;stroke-miterlimit:10;}
	.st289{fill:none;stroke:#000000;stroke-width:0.8735;stroke-linecap:round;stroke-linejoin:round;stroke-miterlimit:10;}
	
		.st290{fill-rule:evenodd;clip-rule:evenodd;fill:#EB984E;stroke:#000000;stroke-linecap:round;stroke-linejoin:round;stroke-miterlimit:10;}
	
		.st291{fill-rule:evenodd;clip-rule:evenodd;fill:#BD7231;stroke:#000000;stroke-linecap:round;stroke-linejoin:round;stroke-miterlimit:10;}
	
		.st292{fill-rule:evenodd;clip-rule:evenodd;fill:#B05E15;stroke:#000000;stroke-linecap:round;stroke-linejoin:round;stroke-miterlimit:10;}
	
		.st293{fill-rule:evenodd;clip-rule:evenodd;fill:#D68910;stroke:#000000;stroke-linecap:round;stroke-linejoin:round;stroke-miterlimit:10;}
	.st294{fill:#691F16;stroke:#000000;stroke-linecap:round;stroke-linejoin:round;stroke-miterlimit:10;}
	
		.st295{fill-rule:evenodd;clip-rule:evenodd;fill:#FFFFFF;stroke:#000000;stroke-linecap:round;stroke-linejoin:round;stroke-miterlimit:10;}
	.st296{fill-rule:evenodd;clip-rule:evenodd;stroke:#000000;stroke-linecap:round;stroke-linejoin:round;stroke-miterlimit:10;}
	.st297{fill:#B05E15;stroke:#000000;stroke-linecap:round;stroke-linejoin:round;stroke-miterlimit:10;}
	
		.st298{fill-rule:evenodd;clip-rule:evenodd;fill:#F0F3F4;stroke:#000000;stroke-linecap:round;stroke-linejoin:round;stroke-miterlimit:10;}
	
		.st299{fill-rule:evenodd;clip-rule:evenodd;fill:#F3F3F3;stroke:#000000;stroke-linecap:round;stroke-linejoin:round;stroke-miterlimit:10;}
	
		.st300{fill-rule:evenodd;clip-rule:evenodd;fill:#DB741B;stroke:#000000;stroke-linecap:round;stroke-linejoin:round;stroke-miterlimit:10;}
	
		.st301{fill-rule:evenodd;clip-rule:evenodd;fill:#B3382B;stroke:#000000;stroke-linecap:round;stroke-linejoin:round;stroke-miterlimit:10;}
	
		.st302{fill-rule:evenodd;clip-rule:evenodd;fill:#965013;stroke:#000000;stroke-linecap:round;stroke-linejoin:round;stroke-miterlimit:10;}
	.st303{fill:#EE615A;stroke:#000000;stroke-linecap:round;stroke-linejoin:round;stroke-miterlimit:10;}
	.st304{fill:#78514C;stroke:#000000;stroke-linecap:round;stroke-linejoin:round;stroke-miterlimit:10;}
	.st305{fill:#F3EEDB;stroke:#000000;stroke-linecap:round;stroke-linejoin:round;stroke-miterlimit:10;}
	.st306{fill:#E45A40;stroke:#000000;stroke-linecap:round;stroke-linejoin:round;stroke-miterlimit:10;}
	.st307{fill:#219785;stroke:#000000;stroke-linecap:round;stroke-linejoin:round;stroke-miterlimit:10;}
	.st308{fill:#AE9794;stroke:#000000;stroke-linecap:round;stroke-linejoin:round;stroke-miterlimit:10;}
	.st309{fill:#F79E4C;stroke:#000000;stroke-linecap:round;stroke-linejoin:round;stroke-miterlimit:10;}
	.st310{fill:#F7AD4C;stroke:#000000;stroke-linecap:round;stroke-linejoin:round;stroke-miterlimit:10;}
	.st311{fill:#FAC594;stroke:#000000;stroke-linecap:round;stroke-linejoin:round;stroke-miterlimit:10;}
	.st312{fill:#FFD27A;stroke:#000000;stroke-linecap:round;stroke-linejoin:round;stroke-miterlimit:10;}
	.st313{opacity:0.82;fill:#EE615A;stroke:#000000;stroke-linecap:round;stroke-linejoin:round;stroke-miterlimit:10;}
	.st314{opacity:0.57;fill:#AA7023;stroke:#000000;stroke-linecap:round;stroke-linejoin:round;stroke-miterlimit:10;}
	.st315{fill:#100F0C;stroke:#000000;stroke-width:0.7512;stroke-miterlimit:10;}
	.st316{fill:#676666;stroke:#000000;stroke-width:0.7512;stroke-miterlimit:10;}
	.st317{fill:#0E0A09;stroke:#000000;stroke-width:0.7512;stroke-miterlimit:10;}
	.st318{fill:#FFFCF1;stroke:#000000;stroke-width:0.7512;stroke-miterlimit:10;}
	.st319{fill:#1B3218;stroke:#000000;stroke-width:0.7512;stroke-miterlimit:10;}
	.st320{fill:#E7E4AA;stroke:#000000;stroke-width:0.7512;stroke-miterlimit:10;}
	.st321{fill:#EB6611;stroke:#000000;stroke-width:0.7512;stroke-miterlimit:10;}
	.st322{fill:#E73B0C;stroke:#000000;stroke-width:0.7512;stroke-miterlimit:10;}
	.st323{fill:#DC4911;stroke:#000000;stroke-width:0.7512;stroke-miterlimit:10;}
	.st324{fill:#DD2115;stroke:#000000;stroke-width:0.7512;stroke-miterlimit:10;}
	.st325{fill:#EA590D;stroke:#000000;stroke-width:0.7512;stroke-miterlimit:10;}
	.st326{fill:#FFFFFF;stroke:#000000;stroke-width:0.7512;stroke-miterlimit:10;}
	.st327{fill:#DC3913;stroke:#000000;stroke-width:0.7512;stroke-miterlimit:10;}
	.st328{fill:#F39A00;stroke:#000000;stroke-width:0.7512;stroke-miterlimit:10;}
	.st329{fill:#596E26;stroke:#000000;stroke-width:0.7512;stroke-miterlimit:10;}
	.st330{fill:#A0C115;stroke:#000000;stroke-width:0.7512;stroke-miterlimit:10;}
	.st331{fill:#FBCE40;stroke:#000000;stroke-width:0.7512;stroke-miterlimit:10;}
	.st332{fill:#F8BA22;stroke:#000000;stroke-width:0.7512;stroke-miterlimit:10;}
	.st333{fill:#FCEA66;stroke:#000000;stroke-width:0.7512;stroke-miterlimit:10;}
	.st334{fill:#FF6666;stroke:#000000;stroke-width:0.894;stroke-miterlimit:10;}
	.st335{fill:#FFFFFF;stroke:#000000;stroke-width:0.894;stroke-miterlimit:10;}
	.st336{fill:#999999;stroke:#000000;stroke-width:0.894;stroke-miterlimit:10;}
	.st337{fill:#B3B3B3;stroke:#000000;stroke-width:0.894;stroke-miterlimit:10;}
	.st338{fill:#3F3B39;stroke:#000000;stroke-miterlimit:10;}
	.st339{fill:#AA783F;}
	.st340{fill:#FFFFFF;stroke:#000000;stroke-miterlimit:10;}
	.st341{fill:#F4C474;stroke:#000000;stroke-miterlimit:10;}
	.st342{fill:#E9A459;}
	.st343{fill:#FFFFFF;stroke:#F4C474;stroke-miterlimit:10;}
	.st344{fill:#FF282F;stroke:#F4C474;stroke-miterlimit:10;}
	.st345{fill:#FFFFFF;stroke:#040000;stroke-width:0.6639;stroke-miterlimit:10;}
	.st346{fill:#F7F6EC;stroke:#000000;stroke-linecap:round;stroke-linejoin:round;stroke-miterlimit:10;}
	.st347{fill:#C6182D;stroke:#000000;stroke-linecap:round;stroke-linejoin:round;stroke-miterlimit:10;}
	.st348{fill:none;stroke:#000000;stroke-width:1.315;stroke-miterlimit:10;}
	.st349{clip-path:url(#SVGID_101_);}
	.st350{fill:url(#SVGID_102_);}
	.st351{fill:url(#SVGID_103_);}
	.st352{fill:none;stroke:#602E13;stroke-width:1.8267;}
	.st353{opacity:5.000000e-02;clip-path:url(#SVGID_105_);}
	.st354{fill:none;stroke:#000000;stroke-width:2.63;stroke-miterlimit:10;}
	.st355{fill:none;stroke:#C6182D;stroke-width:0.8163;stroke-miterlimit:10;}
	.st356{clip-path:url(#SVGID_107_);}
	.st357{clip-path:url(#SVGID_109_);}
	.st358{clip-path:url(#SVGID_111_);}
	.st359{clip-path:url(#SVGID_113_);}
	.st360{clip-path:url(#SVGID_115_);}
	.st361{clip-path:url(#SVGID_117_);}
	.st362{clip-path:url(#SVGID_119_);}
	.st363{clip-path:url(#SVGID_121_);}
	.st364{clip-path:url(#SVGID_123_);}
	.st365{clip-path:url(#SVGID_125_);}
	.st366{clip-path:url(#SVGID_127_);}
	.st367{clip-path:url(#SVGID_129_);}
	.st368{clip-path:url(#SVGID_131_);}
	.st369{fill:#E8904D;stroke:#040000;stroke-width:1.46;stroke-miterlimit:10;}
	.st370{fill:#E6B282;stroke:#040000;stroke-width:1.46;stroke-miterlimit:10;}
	.st371{fill:#97A9DB;stroke:#040000;stroke-width:1.3468;stroke-miterlimit:10;}
	.st372{fill:#BED5F7;stroke:#040000;stroke-width:1.3468;stroke-miterlimit:10;}
	.st373{fill:#9EBAE6;stroke:#040000;stroke-width:1.3468;stroke-miterlimit:10;}
	.st374{fill:#723C39;stroke:#040000;stroke-width:1.3468;stroke-miterlimit:10;}
	.st375{fill:#F4E58C;stroke:#020202;stroke-width:1.3468;stroke-miterlimit:10;}
	.st376{stroke:#020202;stroke-width:1.3468;stroke-miterlimit:10;}
	.st377{fill:#E28675;stroke:#020202;stroke-width:1.3468;stroke-miterlimit:10;}
	.st378{fill:#55996A;stroke:#020202;stroke-width:1.3468;stroke-miterlimit:10;}
	.st379{fill:#020202;stroke:#020202;stroke-width:1.3468;stroke-miterlimit:10;}
	.st380{fill:none;stroke:#040000;stroke-width:1.3468;stroke-linecap:round;stroke-linejoin:round;stroke-miterlimit:10;}
	.st381{fill:#FFE5CF;stroke:#040000;stroke-width:1.3698;stroke-miterlimit:10;}
	.st382{fill:#938862;stroke:#040000;stroke-width:1.3698;stroke-miterlimit:10;}
	.st383{fill:#F7EEE9;stroke:#040000;stroke-width:1.3698;stroke-miterlimit:10;}
	.st384{fill:#FFFFFF;stroke:#040000;stroke-width:1.3698;stroke-miterlimit:10;}
	.st385{fill:#FC8A89;stroke:#040000;stroke-width:1.3698;stroke-miterlimit:10;}
	.st386{fill:#98B3C8;stroke:#040000;stroke-width:1.3698;stroke-miterlimit:10;}
	.st387{fill:#FFBB57;stroke:#040000;stroke-width:1.3698;stroke-miterlimit:10;}
	.st388{fill:#E6B282;stroke:#040000;stroke-width:1.3698;stroke-miterlimit:10;}
	.st389{filter:url(#Adobe_OpacityMaskFilter_2_);}
	.st390{mask:url(#SVGID_132_);}
	.st391{fill:none;stroke:#000000;stroke-width:1.1228;stroke-linecap:round;stroke-linejoin:round;stroke-miterlimit:10;}
	.st392{fill:none;stroke:#000000;stroke-width:1.1228;stroke-miterlimit:10;}
	.st393{fill:#F9F4EF;stroke:#040000;stroke-width:1.3698;stroke-miterlimit:10;}
	.st394{fill:#FFA99B;stroke:#040000;stroke-width:1.3698;stroke-miterlimit:10;}
	.st395{fill:#36303A;stroke:#040000;stroke-width:1.3698;stroke-miterlimit:10;}
	.st396{fill:#6A433E;stroke:#040000;stroke-width:1.3698;stroke-miterlimit:10;}
	.st397{fill:#FFA99B;stroke:#040000;stroke-width:1.3698;stroke-linecap:round;stroke-linejoin:round;stroke-miterlimit:10;}
	.st398{fill:#6B3C2B;stroke:#040000;stroke-width:1.3698;stroke-miterlimit:10;}
	.st399{fill:#FF4F2C;stroke:#040000;stroke-width:1.3698;stroke-miterlimit:10;}
	.st400{fill:#5D75DB;stroke:#040000;stroke-width:1.3698;stroke-miterlimit:10;}
	.st401{fill:#EFD2AA;stroke:#040000;stroke-width:1.3698;stroke-miterlimit:10;}
	.st402{fill:#E2C295;stroke:#040000;stroke-width:1.3698;stroke-miterlimit:10;}
	.st403{fill:#F7EBEB;stroke:#040000;stroke-width:1.3698;stroke-miterlimit:10;}
	.st404{fill:#FF4F2C;stroke:#040000;stroke-width:1.3698;stroke-linecap:round;stroke-linejoin:round;stroke-miterlimit:10;}
	.st405{fill:#6F5E68;stroke:#040000;stroke-width:1.3698;stroke-linecap:round;stroke-linejoin:round;stroke-miterlimit:10;}
	.st406{fill:#DD6A5B;stroke:#040000;stroke-width:1.3698;stroke-miterlimit:10;}
	.st407{fill:#F4DDBE;stroke:#040000;stroke-width:1.3698;stroke-miterlimit:10;}
	.st408{fill:#DB9A7D;stroke:#040000;stroke-width:1.3698;stroke-miterlimit:10;}
	.st409{fill:#7B94B9;stroke:#040000;stroke-width:1.3698;stroke-miterlimit:10;}
	.st410{fill:#FF282F;stroke:#000000;stroke-width:1.1734;stroke-miterlimit:10;}
	.st411{fill:#C6182D;stroke:#000000;stroke-width:1.6373;stroke-miterlimit:10;}
	.st412{fill:none;stroke:#000000;stroke-width:5;stroke-linecap:round;stroke-linejoin:round;stroke-miterlimit:10;}
	.st413{fill:none;stroke:#AC854F;stroke-width:0.7139;stroke-linecap:round;stroke-linejoin:round;stroke-miterlimit:10;}
	.st414{clip-path:url(#SVGID_134_);}
	.st415{fill:none;stroke:#AC854F;stroke-width:5;stroke-linecap:round;stroke-linejoin:round;stroke-miterlimit:10;}
	.st416{clip-path:url(#SVGID_136_);}
	.st417{fill:none;stroke:#AC854F;stroke-width:1.3384;stroke-linecap:round;stroke-linejoin:round;stroke-miterlimit:10;}
	.st418{fill:#2AB3BE;}
	.st419{fill:#F7A411;}
	.st420{clip-path:url(#SVGID_140_);}
	.st421{fill:#F7F0F0;stroke:#000000;stroke-width:1.591;stroke-miterlimit:10;}
	.st422{fill:#C6182D;stroke:#000000;stroke-width:0.7765;stroke-miterlimit:10;}
	.st423{fill:url(#SVGID_141_);}
	.st424{fill:#C6182D;stroke:#000000;stroke-width:1.5149;stroke-miterlimit:10;}
	.st425{clip-path:url(#SVGID_145_);}
	.st426{fill:url(#SVGID_146_);}
	.st427{clip-path:url(#SVGID_150_);}
	.st428{fill:url(#SVGID_151_);}
	.st429{fill:#3F3B39;stroke:#000000;stroke-width:1.2912;stroke-miterlimit:10;}
	.st430{fill:#FF282F;stroke:#000000;stroke-width:1.2912;stroke-miterlimit:10;}
	.st431{fill:#FFFFFF;stroke:#000000;stroke-width:1.2912;stroke-miterlimit:10;}
	.st432{fill:#F4C474;stroke:#000000;stroke-width:1.2912;stroke-miterlimit:10;}
	.st433{fill:#FFFFFF;stroke:#F4C474;stroke-width:1.2912;stroke-miterlimit:10;}
	.st434{fill:#FF282F;stroke:#F4C474;stroke-width:1.2912;stroke-miterlimit:10;}
	.st435{clip-path:url(#SVGID_155_);}
	.st436{fill:url(#SVGID_156_);}
	.st437{clip-path:url(#SVGID_160_);}
	.st438{fill:url(#SVGID_161_);}
	.st439{clip-path:url(#SVGID_165_);}
	.st440{fill:url(#SVGID_166_);}
	.st441{clip-path:url(#SVGID_170_);}
	.st442{fill:#F7F0F0;stroke:#000000;stroke-width:1.1829;stroke-miterlimit:10;}
	.st443{fill:#B79F70;stroke:#000000;stroke-width:0.5773;stroke-miterlimit:10;}
	.st444{clip-path:url(#SVGID_174_);}
	.st445{clip-path:url(#SVGID_178_);}
	.st446{clip-path:url(#SVGID_182_);}
	.st447{fill:#F4C374;stroke:#000000;stroke-miterlimit:10;}
	.st448{clip-path:url(#SVGID_186_);}
	.st449{clip-path:url(#SVGID_190_);}
	.st450{clip-path:url(#SVGID_194_);}
	.st451{clip-path:url(#SVGID_198_);}
	.st452{clip-path:url(#SVGID_202_);}
	.st453{clip-path:url(#SVGID_206_);}
	.st454{clip-path:url(#SVGID_210_);}
	.st455{clip-path:url(#SVGID_214_);}
	.st456{clip-path:url(#SVGID_218_);}
	.st457{clip-path:url(#SVGID_222_);}
	.st458{clip-path:url(#SVGID_226_);}
	.st459{clip-path:url(#SVGID_230_);}
	.st460{clip-path:url(#SVGID_234_);}
	.st461{clip-path:url(#SVGID_238_);}
	.st462{clip-path:url(#SVGID_242_);}
	.st463{clip-path:url(#SVGID_246_);}
	.st464{fill:#EFBC6C;stroke:#000000;stroke-miterlimit:10;}
	.st465{fill:#AFAF17;stroke:#000000;stroke-miterlimit:10;}
	.st466{fill:#436EC4;stroke:#000000;stroke-miterlimit:10;}
	.st467{fill:#C947C6;stroke:#000000;stroke-miterlimit:10;}
	.st468{fill:#E82E68;stroke:#000000;stroke-miterlimit:10;}
	.st469{fill:#F8BC71;stroke:#000000;stroke-miterlimit:10;}
	.st470{fill:#E28675;stroke:#000000;stroke-miterlimit:10;}
	.st471{fill:#BA6152;stroke:#000000;stroke-linecap:round;stroke-linejoin:round;stroke-miterlimit:10;}
	.st472{fill:#E05C5C;stroke:#000000;stroke-miterlimit:10;}
	.st473{fill:#D49676;stroke:#000000;stroke-miterlimit:10;}
	.st474{stroke:#000000;stroke-miterlimit:10;}
	.st475{fill:#2D2044;stroke:#000000;stroke-miterlimit:10;}
	.st476{fill:#535699;stroke:#000000;stroke-miterlimit:10;}
	.st477{clip-path:url(#SVGID_250_);}
	.st478{fill:#C6182D;stroke:#000000;stroke-width:0.5773;stroke-miterlimit:10;}
	.st479{clip-path:url(#SVGID_254_);}
	.st480{clip-path:url(#SVGID_258_);}
	.st481{clip-path:url(#SVGID_262_);}
	.st482{clip-path:url(#SVGID_266_);}
	.st483{clip-path:url(#SVGID_270_);}
	.st484{clip-path:url(#SVGID_274_);}
	.st485{clip-path:url(#SVGID_278_);}
	.st486{clip-path:url(#SVGID_282_);}
	.st487{clip-path:url(#SVGID_286_);}
	.st488{clip-path:url(#SVGID_290_);}
	.st489{clip-path:url(#SVGID_294_);}
	.st490{fill:#FFFFFF;stroke:#000000;stroke-width:0.6086;stroke-miterlimit:10;}
</style>
<g>
	<g>
		<path class="st469" d="M29.3,16.4c0-1,0.8-1.7,1.6-2c-0.8-0.5-1.3-1.3-1.2-2.4c0.2-1.8,2.1-2.4,3.6-2.5C37,9.3,41,10.1,44,12.2
			c0.2-0.2,0.6,0,0.5,0.3c0,0,0,0,0,0.1c0.7,0.6,1.4,1.3,1.9,2.1c0.2,0.3-0.3,0.6-0.5,0.3c-0.5-0.7-1-1.3-1.6-1.8
			c-1.1,3.4-4.2,7-7.7,7.8c-1.4,0.3-3.4,0.2-4.5-0.9c-0.5-0.5-0.5-1.2-0.3-1.6C30.6,18.3,29.3,17.9,29.3,16.4z"/>
		<path class="st469" d="M80.2,20.5c-0.1-0.1-0.1-0.2-0.2-0.2c-0.2-0.3,0.3-0.6,0.5-0.3c3.4,5.4,7,11.2,12.6,14.6
			c4.4,2.7,11.7,4.7,12.2,11c0,0.3,0,0.6,0,1c3.4,0.5,7.2,0.3,8.7-3.5c1.3-3.5,0.4-7.7-0.9-11.1c-2.8-7.3-8.7-12.7-14.9-17.2
			c-2,1.7-6.2,1.9-8.2,0.5c-2.1-1.4-1.5-4.5,0.9-4.8c-0.7-1-1.3-2.6-0.4-3.6c0.8-0.8,2.6-0.1,3.5,0.3c1.2,0.5,6.7,5.1,4.9,6.7
			c0,0,0,0.1,0,0.1c-0.1,0.1-0.1,0.2-0.2,0.3c7,5,13.5,11.3,15.8,19.9c0.9,3.4,1.5,8-1,10.9c-2,2.4-5.3,2.5-8.2,2
			c-0.2,1.6-1.1,3-2.4,3.8c-2.4,1.4-5.8,0.9-8.3,0.1c-6.1-1.9-10.4-6.9-14-11.9c-1.9-2.8-3.7-5.9-3.9-9.3
			C76.3,26.2,78.1,23.3,80.2,20.5z"/>
		<path class="st470" d="M56.5,35.9c0.4-3.6,1.7-7,3.7-10c1-1.5,2.2-2.9,3.6-4.1c1.5-1.3,3.3-2.2,5.2-2.8c0.8-0.3,1.7-0.6,2.6-0.8
			c1,0.2,2,0.4,3,0.6c0.4,0.1,0.9,0.3,1.3,0.4c1.7,0.9,3.3,1.8,4.9,2.8c0.2,0.1,0.4,0.3,0.6,0.4c0.1,0.1,0.2,0.2,0.4,0.4
			c0.3,0.4,1.2,1.6,1.1,1.4c0,0.1,0.1,0.1,0.1,0.2c0.3,1.4,0.6,2.8,0.9,4c0.3,1,3.2,10.5,4,16.8c0.3,2,0.2,7.9-2.5,11.2
			c-2.6,3.1-7.1,3-10.9,3.1c-2,0.1-4-0.1-6-0.4c-1.8-0.3-3.7-0.5-5.3-1.5c-1.6-1-2.3-2.9-3-4.6c-0.9-2-1.8-4.1-2.5-6.2
			C56.6,43.3,56,39.6,56.5,35.9z"/>
		<path class="st280" d="M75.1,44.7c-2.6,1.7-5.2,3.4-7.8,5.1c-0.5,0.3-1,0.6-1.5,1c-0.2,0.1-0.4,0.2-0.6,0.4c0,0,0,0-0.1,0
			c-0.6,0.4-1.1,0.8-1.7,1.2c-0.7,0.5-1.4,1-2.1,1.6c3.1,6.2,4.9,13,8.3,19.1c0,0.1,0.1,0.1,0.2,0.1c5.4-1.7,10.6-3.9,15.5-6.6
			c0.1,0,0.1-0.1,0-0.2C80.8,59.9,77.9,52.3,75.1,44.7z"/>
		<path d="M75.3,36.4c-0.9,0.7-2.2,0.6-3.2,1c-1.1,0.3-2.4,1.6-3.6,1.4c-0.9-0.2-1.1-0.9-1-1.5c0.4-0.8,1-1.5,1.1-1.5
			c0.8-0.6,1.6-1.1,2.5-1.4c0.9-0.3,1.8-0.4,2.7-0.4c0.4,0,0.9,0.2,1.3,0.4C75.8,34.8,76.2,35.6,75.3,36.4z"/>
		<path d="M85.3,33.4c-0.8,0.2-1.6,0.1-2.4,0.3c-1.1,0.3-2.5,1.4-3.7,1c-0.9-0.3-1-1-0.9-1.6c0.4-0.8,1.2-1.4,1.2-1.4
			c0.8-0.5,1.7-0.9,2.6-1.1c0.7-0.2,1.5-0.3,2.3-0.2C84.8,31.4,85.1,32.4,85.3,33.4z"/>
		<path d="M81.8,41.9c-0.7-0.8-1.5-1.4-2.2-2.1c-0.3-0.2,0.1-0.7,0.4-0.4c1.2,1,3.1,2.4,3.4,4.1c0.4,1.6-1,2.5-2.2,3.1
			c-0.3,0.2-0.6-0.4-0.3-0.5c1-0.4,2.2-1,2-2.4C82.7,43,82.2,42.3,81.8,41.9z"/>
		<path class="st471" d="M78.4,49.2c0.2,0,0.4,0,0.5,0c3.6,0.2,5.8-1.8,6.1-2.2c0,0,0,0,0,0c0.2-0.1,0.4,0,0.4,0.3
			c0.1,1.6-0.3,4.5-2.2,5.1c-2.1,0.7-4-1.3-5.2-2.7C78,49.6,78.1,49.2,78.4,49.2z"/>
		<path class="st12" d="M85.1,47.1c-0.2,1.6-0.6,2.5-2.3,3.1c-1.5,0.6-2.7,0-3.9-1C82.5,49.4,84.7,47.5,85.1,47.1z"/>
		<path class="st472" d="M113.4,157.6c7.3-3.9,15.7-4.8,23.4-7.3c4.6-1.5,8.9-3.7,12.7-6.7c1.9-1.5,3.8-3.2,5.6-4.9
			c1.9-1.7,3.8-3.4,4.9-5.8c1.2-2.4,2-5,2.9-7.6c0.9-2.5,1.8-5.1,2.8-7.6c1.3-3.6,2.3-8.6,5.8-10.9c3.4-2.2,8.1-1.4,11.6,0
			c3.8,1.6,7.1,4.3,10,7.3c2.9,2.9,6.7,6,7.5,10.1c2.2,12.5-6.3,26.9-11.8,34.7c-2.7,3.8-5.6,7.4-9.5,10.1c-3.7,2.5-7.8,4.5-12,5.9
			c-8.6,3-17.8,3.8-26.9,3.3c-4.6-0.2-9.2-0.8-13.7-1.7c-4.2-0.8-8.5-1.8-12.4-3.8c-2.9-1.4-7.5-4.1-8-7.7
			C105.8,161.7,110.7,159,113.4,157.6z"/>
		<path class="st473" d="M57.4,71.6c1.4-1.9,3-3.6,4.9-5c-0.1-1.5-0.1-3,0.1-4.4c0.2-1.2,0.6-2.5,1.6-3.3c1.4-1.1,3.6-1,5.3-1.1
			c2.3-0.2,4.5-0.3,6.8-0.3c2-0.1,4.1-0.2,6.2,0c2.4,0.3,3.7,1.7,4.6,3.6c9.5,0,19.4,1.5,26.3,8.4c2.3,2.3,4,5,6.3,7.3
			c2.6,2.6,5.8,4,9.2,5.4c5.4,2.3,10.2,5.3,13.9,9.9c2.8,3.5,4.9,7.5,6.1,11.8c1.6,1.1,2.3,3.2,2,5.1c-0.4,3.4-3.4,5.8-5.6,8.1
			c-5.5,5.8-9.2,13-12.2,20.3c-2.9,7.1-5.4,14.3-8.6,21.2c-1.2,2.6-2.6,7-5.9,7.5c-1.8,0.2-3.8,0-5.6-0.2c-1.7-0.1-3.4-0.4-5.1-0.7
			c-3.2-0.7-6.4-2.1-8.7-4.6c-2.6-2.8-3.7-6.8-6.6-9.4c-3.1-2.8-7.6-3.5-11-5.9c-2.9-2-5.2-4.8-6.9-7.8c-4.3-7.3-5.7-15.8-9.1-23.4
			c-3.4-7.5-10-13.4-11.9-21.7C51.7,85.3,53.2,77.5,57.4,71.6z"/>
		<g>
			<path class="st474" d="M78.9,67.6c-0.4-0.1-0.2-0.7,0.2-0.6c3,0.7,6,0.1,8.6-1.6c0.3-0.2,0.6,0.3,0.3,0.5
				C85.3,67.8,82.1,68.4,78.9,67.6z"/>
			<path class="st474" d="M70.2,74.4c7.9,2.1,13.2,8.9,20.4,12.4c4.5,2.3,9.5,2.3,14.3,3.6c4.9,1.3,9,4.3,13.8,5.9
				c5.8,1.9,12,2.7,18,3c0.4,0,0.4,0.6,0,0.6c-5.2-0.3-10.3-1-15.3-2.2c-2.4-0.6-4.6-1.4-6.9-2.4c-2.4-1.1-4.6-2.4-7-3.4
				c-4.8-1.9-10.1-1.7-15-3.5c-3.8-1.4-7-3.8-10.1-6.3c-3.8-2.9-7.6-5.9-12.3-7.1C69.6,74.8,69.8,74.3,70.2,74.4z"/>
			<path class="st474" d="M74.5,111.8c9,2.7,18.4,5.2,27.9,4.5c4.5-0.3,8.9-1.7,13.4-2.2c4.7-0.5,9.4-0.2,14,0.4
				c0.4,0,0.4,0.6,0,0.6c-4.6-0.6-9.3-1-14-0.4c-4.7,0.5-9.2,2-13.9,2.2c-9.4,0.5-18.6-2-27.5-4.6C74,112.2,74.1,111.6,74.5,111.8z"
				/>
			<path class="st474" d="M133.9,97c-3.1-3.2-7.6-4.4-10.6-7.6c-1.7-1.8-3.1-3.8-4.8-5.6c-1.9-2-4-3.7-6.3-5.3
				c-0.3-0.2,0-0.7,0.3-0.5c2,1.4,3.9,2.9,5.7,4.6c1.9,1.8,3.4,4,5.2,5.9c3.1,3.4,7.8,4.7,11,8C134.6,96.9,134.2,97.3,133.9,97z"/>
		</g>
		<path class="st340" d="M224.3,154.7c2.6,0,5.2,0,7.9,0c-0.4-0.9-0.8-1.8-1.1-2.7c-0.1-0.3,0.4-0.6,0.5-0.3c0.4,1,0.8,2,1.3,3
			c1.4,0,2.8,0,4.2,0c0.4,0,0.4,0.6,0,0.6c-1.3,0-2.7,0-4,0c2.4,5.6,4.8,11.2,7.2,16.8c0.1,0.2,0,0.4-0.3,0.4
			c-1.3,0.1-2.6,0.2-3.9,0.3c-0.9,0.1-1.9,0.3-2.8,0.2c-1.6-0.3-2.1-2.7-2.7-3.9c-2.2-4.6-4.3-9.2-6.5-13.8
			C223.9,154.9,224,154.7,224.3,154.7z"/>
		<path class="st340" d="M182.9,155.8c2.6-0.2,5.2-0.5,7.8-0.7c-0.5-0.9-0.9-1.7-1.4-2.6c-0.2-0.3,0.3-0.7,0.5-0.3
			c0.5,1,1,1.9,1.5,2.9c1.4-0.1,2.8-0.3,4.2-0.4c0.4,0,0.4,0.6,0.1,0.6c-1.3,0.1-2.6,0.3-4,0.4c2.9,5.4,5.8,10.7,8.6,16.1
			c0.1,0.2,0,0.4-0.2,0.5c-1.3,0.2-2.6,0.4-3.9,0.6c-0.9,0.1-1.9,0.5-2.8,0.4c-1.7-0.1-2.4-2.5-3.1-3.7c-2.6-4.4-5.1-8.8-7.7-13.2
			C182.6,156.1,182.6,155.9,182.9,155.8z"/>
		<path class="st475" d="M114.4,161.3c0.3-1.7,13.4-46.9,16.9-56.9c3.6-10.3,8.1-21,17.2-27.5c3.8-2.7,9.1-5.4,13.7-3.5
			c4.7,1.9,8.3,6.9,10.5,11.3c2.3,4.7,3.6,9.8,5,14.9c6.9-1.4,13.9-2.5,20.9-3.2c4.3-0.4,8.6-0.4,12.5,1.8c3.4,2,6.2,5.2,8.4,8.4
			c4.8,6.9,7.4,15,10,22.9c3.7,11,7.4,22,11.1,32.9c0,0.1-0.1,0.3-0.2,0.4c-3.3,0.5-6.6,0.9-9.9,1.1c-1.6,0.1-3.3,0.2-4.9,0.3
			c-1.6,0.1-3.5,0.3-5.1,0c-2.1-0.4-3.6-3.1-4.6-4.7c-1.5-2.3-2.6-4.9-3.4-7.5c-0.9-2.9-1.7-5.6-4-7.7c-1.7-1.6-3.7-2.8-5.3-4.5
			c-0.7-0.8-1.4-1.6-1.8-2.6c-0.2-0.4-0.3-0.8-0.5-1.2c-0.5-1.4-1.4-2.1-2.9-2.1c-2.9-0.1-5.8,0.7-8.6,1.7c0.8,1.6,1.1,3.5,1.4,5.3
			c0.6,3.1,2.1,5.4,3.9,7.9c1.5,2.1,3.1,4.3,3.4,7c0.2,1.8-0.1,3.4,0.9,5.1c0.6,1.1,1.3,2.1,1.3,3.5c0,0.2-0.1,0.3-0.3,0.3
			c-1.9,0.1-3.7,0.1-5.6,0.1c-4.5,0.3-9.1,0.7-13.6,1c-1.4,0.1-3.5,0.7-4.7-0.3c-1-0.8-1.2-2.4-1.4-3.6c-0.9-3.9-4.7-4.9-7.5-7.1
			c-2.9-2.3-3.9-5.9-5.2-9.1c-0.7-1.7-1.6-3.2-2.8-4.6c-2.2,5.4-4.9,10.6-8.2,15.4c-3.1,4.5-6.8,8.9-11.9,11.2
			c-5.6,2.7-11.9,1.9-17.8,0.6c-2.1-0.5-6.8-0.9-7.2-3.5C114,163.5,114.2,162.3,114.4,161.3z"/>
		<path class="st472" d="M181.1,114.8c0.6-0.7,1.7-1.2,2.5-1.7c1-0.6,2.1-1.1,3.2-1.4c2-0.6,4.1-0.7,6,0c3.3,1.3,5.3,4.6,6.5,7.8
			c1.8,5.1,2,10.6,0.8,15.9c-0.1,0.4-0.7,0.2-0.6-0.2c0,0,0-0.1,0-0.1c-0.9,0.7-2.2,1.1-3.2,1.7c-1.8,1.1-3.3,2.5-4.7,4.1
			c-0.1,0.2-0.4,0.1-0.5-0.1c-1.4-5.1-3.3-10.1-5.5-14.9c-1.1-2.4-2.3-4.7-3.6-7C181.4,117.8,180.1,116.1,181.1,114.8z"/>
		<path class="st476" d="M229.8,169.6c0.4-0.3,1-0.2,1.4-0.3c0.9-0.1,1.8-0.1,2.8-0.1c1.8-0.1,5.9-0.6,6.1-0.4
			c1.4,2.7,3.6,4.8,6.4,6c2.8,1.1,5.8,1.2,8.8,1.7c2.4,0.4,4.9,1.1,6.4,3.1c0.7,0.9,1.8,3.5,0.2,4.1c-0.9,0.4-2.5,0.1-3.5,0.1
			c-1.8,0-3.5,0-5.3,0c-3.4,0-6.8,0-10.3,0c-1.7,0-3.3,0-5,0c-1.2,0-2.7,0.2-3.8-0.4c-0.6-0.4-1-1.1-1.3-1.8c-0.6-1.4-1.1-3-1.6-4.5
			c-0.5-1.7-1-3.4-1.5-5.1C229.6,171.2,229.1,170.2,229.8,169.6z"/>
		<path class="st476" d="M190.8,172c0.3-0.4,0.9-0.4,1.3-0.5c0.9-0.2,1.8-0.4,2.7-0.6c1.8-0.4,5.7-1.6,5.9-1.4
			c1.8,2.4,4.4,4.1,7.4,4.8c2.9,0.6,5.9,0.2,8.9,0.2c2.4,0,5,0.2,6.8,1.9c0.8,0.8,2.4,3.1,0.9,4c-0.8,0.5-2.4,0.5-3.4,0.7
			c-1.7,0.3-3.5,0.6-5.2,0.9c-3.4,0.6-6.7,1.2-10.1,1.7c-1.6,0.3-3.3,0.6-4.9,0.8c-1.2,0.2-2.6,0.7-3.8,0.2
			c-0.7-0.3-1.2-0.9-1.6-1.5c-0.9-1.3-1.6-2.7-2.3-4.1c-0.8-1.6-1.6-3.2-2.3-4.8C190.8,173.6,190.2,172.7,190.8,172z"/>
		<path class="st469" d="M9,70.9c-0.3-1.3,0.5-2.4,1.7-2.9c1.8-0.8,4.2-0.3,5.9,0.3c1.1,0.4,2.2,1,3.2,1.7c0.5,0.4,1,0.6,1.5,0.8
			c0.1,0,0.2,0,0.3,0.1c0,0,0,0,0,0c0.6,0.2,1.3,0.3,2.1,0.3c2.9,0.1,5.8,0.2,8.6-0.2c2.8-0.5,5.3-1.6,7.7-3.1
			c4.6-3,8.7-6.7,12.4-10.7c0.3-0.3,0.7,0.1,0.4,0.4c-2.9,3.1-6,5.9-9.3,8.5c-3.5,2.7-7.2,4.9-11.6,5.5c-2.1,0.3-4.2,0.3-6.3,0.3
			c-1.1,0-2.4,0-3.6-0.2c0.6,1.5,0.2,3.2-0.8,4.5c-1.6,1.8-4.2,2.4-6.5,2.4c-1.9,0-4.1-0.6-5-2.4c-0.6-1.2-0.4-2.8,0.5-3.7
			C9.7,72.4,9.2,71.7,9,70.9z"/>
		<path d="M57.5,37.4c0.7-3,2.8-5,5.3-6.7c-0.2-0.5-0.2-1.1-0.2-1.7c0.3-2.9,3.8-4.9,6.2-5.8c3.5-1.2,7.2-0.8,10.7,0.2
			c0.1,0,0.1,0,0.2,0c0.2,0.1,0.3,0.1,0.5,0.2c0,0,0,0,0,0c0,0,0,0,0.1,0c0.9,0.4,1.7,1,2.4,1.9c0.6,0.8,1.4,2.2,1.2,3.2
			c-0.3,1.7-2.9,1.4-4.7,0.9c0.3,0.5,0.4,1.2-0.4,1.6c-1.4,0.9-3.6,0.7-5.2,0.1c0.6,2.3-4.3,2.9-5.7,2.8c-0.7-0.1-1.5-0.2-2.2-0.5
			c0.3,1,0.4,2,0.5,3c0.1,2-0.7,3.3-2.4,4c1.9,1.8,2.7,4.3,3.2,6.8c0.3,1.8,0,4.3-2.2,4.5c0.3,1.5,0.6,4.9-1.6,4.3
			c-0.4,2-2.4,3.7-4.3,2c-2.3-2.1-2.4-6.5-2.4-9.4C56.4,45.2,56.6,41.1,57.5,37.4z"/>
		<path class="st469" d="M39.7,15c1.8-6.9,22.8-3.6,27.4-2.4c3.9,1.1,7.7,2.2,10.9,4.7c2.7,2.2,5.3,5.3,6.1,8.8
			c0.3,1.4-0.5,2.1-1.8,2.2c-2.6,0.2-5.1,0-7.6,0.6c-4.7,1-9.2,4-10.4,8.8c0.4,8.2-0.3,17.6-6.7,23.6c-2.3,2.1-5.9,3.7-8.7,1.7
			c-3-2.2-3.1-7.3-2.1-10.5c0.7-2.1,2.2-3.8,3.1-5.8c0.5-0.9,0.8-1.9,1-2.9c-0.6-3.8-1.4-7.6-3.3-11c-2.1-3.8-2.4-4.4-5-7.9
			C40.5,22.2,38.8,18.6,39.7,15z"/>
		<path class="st472" d="M106.9,163.6c0.4-1.9,2-3.2,3.5-4.2c3.7-2.6,8.3-4.1,12.5-5.5c4.5-1.6,9.1-2.9,13.6-4.6
			c5.2-2,10.1-4.4,14.5-7.8c1-0.8,2-1.6,3-2.3c0.7-0.5,1.7-1.2,2.7-1.1c0.9,0.1,1.4,0.8,1.8,1.5c0.9,1.2,2.6,2.9,3.7,6.2
			c0.1,0-0.1,2.2-0.3,4.5c-0.3,2.3-1.3,4.2-2.7,6.1c-2.5,3.5-5.1,7.1-8.6,9.6c-3.7,2.7-8.3,3.8-12.8,4.3c-5.1,0.6-10.2,0.7-15.3,0.3
			c-2.4-0.2-4.9-0.5-7.3-1.1c-2.2-0.5-4.7-1-6.7-2.1C107.2,166.3,106.6,165,106.9,163.6z"/>
		<ellipse cx="84.2" cy="37.4" rx="0.7" ry="0.6"/>
		<ellipse cx="73.4" cy="40.7" rx="0.7" ry="0.6"/>
	</g>
	<path class="st25" d="M79.5,166.1c-19.4-1.4-40-18-44.9-25.1"/>
	<path class="st25" d="M102,184.8c-11-1.4-26.2-2.7-40.2-10"/>
</g>
</svg>
