<?xml version="1.0" encoding="utf-8"?>
<!-- Generator: Adobe Illustrator 25.0.1, SVG Export Plug-In . SVG Version: 6.00 Build 0)  -->
<svg version="1.1" id="圖層_1" xmlns="http://www.w3.org/2000/svg" xmlns:xlink="http://www.w3.org/1999/xlink" x="0px" y="0px"
	 viewBox="0 0 179.6 183.6" style="enable-background:new 0 0 179.6 183.6;" xml:space="preserve">
<style type="text/css">
	.st0{fill:#C6182D;}
	.st1{fill:#F7F6EC;}
	.st2{fill:#313535;stroke:#040000;stroke-linecap:round;stroke-linejoin:round;stroke-miterlimit:10;}
	.st3{fill:#FFFFFF;stroke:#FFFFFF;stroke-width:0.8391;stroke-miterlimit:10;}
	.st4{fill:#FFA486;}
	.st5{fill:#FFA486;stroke:#000000;stroke-miterlimit:10;}
	.st6{fill:#F7EBEB;stroke:#000000;stroke-miterlimit:10;}
	.st7{fill:#36303A;}
	.st8{fill:#6A433E;stroke:#000000;stroke-miterlimit:10;}
	.st9{fill:#FFA99B;stroke:#000000;stroke-miterlimit:10;}
	.st10{fill:#FFFFFF;}
	.st11{fill:#6A433E;}
	.st12{fill:#FFFFFF;stroke:#000000;stroke-linecap:round;stroke-linejoin:round;stroke-miterlimit:10;}
	.st13{fill:#F4EB73;stroke:#000000;stroke-miterlimit:10;}
	.st14{fill:#FFA99B;stroke:#000000;stroke-linecap:round;stroke-linejoin:round;stroke-miterlimit:10;}
	.st15{fill:#D96252;}
	.st16{fill:#D96252;stroke:#000000;stroke-miterlimit:10;}
	.st17{fill:#FFA486;stroke:#000000;stroke-width:1.0766;stroke-linecap:round;stroke-linejoin:round;stroke-miterlimit:10;}
	.st18{fill:#EFD2AA;}
	.st19{fill:#36303A;stroke:#000000;stroke-miterlimit:10;}
	.st20{fill:#86524D;stroke:#000000;stroke-miterlimit:10;}
	.st21{fill:#86524D;}
	.st22{fill:#6F5E68;stroke:#000000;stroke-miterlimit:10;}
	.st23{fill:#E9E9E9;stroke:#000000;stroke-width:1.0553;stroke-miterlimit:10;}
	.st24{fill:#537A95;stroke:#000000;stroke-width:1.0553;stroke-miterlimit:10;}
	.st25{fill:none;stroke:#000000;stroke-linecap:round;stroke-linejoin:round;stroke-miterlimit:10;}
	.st26{fill:#6F5E61;stroke:#000000;stroke-width:1.1524;stroke-miterlimit:10;}
	.st27{fill:#DFCEC6;stroke:#000000;stroke-width:1.1524;stroke-miterlimit:10;}
	.st28{fill:#36303A;stroke:#000000;stroke-width:1.1524;stroke-miterlimit:10;}
	.st29{fill:#36303A;stroke:#000000;stroke-width:1.3348;stroke-miterlimit:10;}
	.st30{fill:#F7EFEB;stroke:#000000;stroke-width:1.3348;stroke-miterlimit:10;}
	.st31{fill:#6F5E61;stroke:#000000;stroke-width:1.1524;stroke-linecap:round;stroke-linejoin:round;stroke-miterlimit:10;}
	.st32{fill:#36303A;stroke:#000000;stroke-width:1.1524;stroke-linecap:round;stroke-linejoin:round;stroke-miterlimit:10;}
	.st33{fill:#D0D0D0;stroke:#000000;stroke-width:1.1524;stroke-linecap:round;stroke-linejoin:round;stroke-miterlimit:10;}
	.st34{fill:#905851;stroke:#000000;stroke-width:1.1524;stroke-miterlimit:10;}
	.st35{fill:#F4D1B4;stroke:#000000;stroke-width:1.1524;stroke-miterlimit:10;}
	.st36{fill:#F7EFEB;}
	.st37{fill:#733832;stroke:#000000;stroke-width:1.1524;stroke-miterlimit:10;}
	.st38{fill:#DBA777;stroke:#000000;stroke-width:1.1524;stroke-miterlimit:10;}
	.st39{fill:#DBA777;}
	.st40{fill:#905851;}
	.st41{fill:#E7E7E7;stroke:#000000;stroke-linecap:round;stroke-linejoin:round;stroke-miterlimit:10;}
	.st42{fill:#954039;}
	.st43{fill:none;stroke:#000000;stroke-width:1.2726;stroke-linecap:round;stroke-linejoin:round;stroke-miterlimit:10;}
	.st44{fill:#954039;stroke:#000000;stroke-miterlimit:10;}
	.st45{fill:#905851;stroke:#000000;stroke-width:1.1524;stroke-linecap:round;stroke-linejoin:round;stroke-miterlimit:10;}
	.st46{fill:#ACABA9;stroke:#000000;stroke-miterlimit:10;}
	.st47{fill:#020202;stroke:#000000;stroke-miterlimit:10;}
	.st48{fill:#938862;stroke:#040000;stroke-width:0.8707;stroke-miterlimit:10;}
	.st49{fill:#736638;stroke:#040000;stroke-width:0.8707;stroke-miterlimit:10;}
	.st50{fill:#97B4A4;stroke:#000000;stroke-linecap:round;stroke-linejoin:round;stroke-miterlimit:10;}
	.st51{fill:#789D87;stroke:#000000;stroke-linecap:round;stroke-linejoin:round;stroke-miterlimit:10;}
	.st52{fill:#905851;stroke:#000000;stroke-linecap:round;stroke-linejoin:round;stroke-miterlimit:10;}
	.st53{fill:#DFCEC6;stroke:#000000;stroke-linecap:round;stroke-linejoin:round;stroke-miterlimit:10;}
	.st54{fill:#61372B;}
	.st55{fill:#E5B891;stroke:#040000;stroke-miterlimit:10;}
	.st56{fill:#DFB69E;stroke:#040000;stroke-width:0.7279;stroke-miterlimit:10;}
	.st57{fill:#A56656;stroke:#040000;stroke-width:0.9617;stroke-miterlimit:10;}
	.st58{fill:#FFA486;stroke:#000000;stroke-width:0.9093;stroke-miterlimit:10;}
	.st59{fill:#382732;stroke:#000000;stroke-width:0.7891;stroke-miterlimit:10;}
	.st60{fill:#382732;}
	.st61{fill:#FF9975;}
	.st62{fill:#6F5E61;stroke:#000000;stroke-width:0.7891;stroke-miterlimit:10;}
	.st63{fill:none;stroke:#040000;stroke-miterlimit:10;}
	.st64{fill:#313535;stroke:#040000;stroke-width:1.0065;stroke-linecap:round;stroke-linejoin:round;stroke-miterlimit:10;}
	.st65{fill:#FFFFFF;stroke:#FFFFFF;stroke-width:0.8446;stroke-miterlimit:10;}
	.st66{fill:#FFFFFF;stroke:#000000;stroke-width:0.7891;stroke-miterlimit:10;}
	.st67{fill:#86524D;stroke:#000000;stroke-width:0.9093;stroke-miterlimit:10;}
	.st68{fill:#FFFFFF;stroke:#000000;stroke-width:0.9093;stroke-linecap:round;stroke-linejoin:round;stroke-miterlimit:10;}
	.st69{fill:#36303A;stroke:#000000;stroke-width:0.7891;stroke-miterlimit:10;}
	.st70{fill:#6A433E;stroke:#000000;stroke-width:0.8804;stroke-miterlimit:10;}
	.st71{fill:#FFA99B;stroke:#000000;stroke-width:0.8804;stroke-miterlimit:10;}
	.st72{fill:#FFFFFF;stroke:#000000;stroke-width:0.8804;stroke-linecap:round;stroke-linejoin:round;stroke-miterlimit:10;}
	.st73{fill:#FFA99B;stroke:#000000;stroke-width:0.8804;stroke-linecap:round;stroke-linejoin:round;stroke-miterlimit:10;}
	.st74{fill:#E9E9E9;stroke:#000000;stroke-width:0.8328;stroke-miterlimit:10;}
	.st75{fill:#537A95;stroke:#000000;stroke-width:0.8328;stroke-miterlimit:10;}
	.st76{fill:#FF9975;stroke:#000000;stroke-width:0.7891;stroke-miterlimit:10;}
	.st77{fill:#EFDBBF;stroke:#000000;stroke-width:0.7891;stroke-miterlimit:10;}
	.st78{fill:#AF959A;stroke:#000000;stroke-linecap:round;stroke-linejoin:round;stroke-miterlimit:10;}
	.st79{fill:#AF959A;}
	.st80{fill:#FFA486;stroke:#000000;stroke-width:0.7947;stroke-miterlimit:10;}
	.st81{fill:#382732;stroke:#000000;stroke-width:0.6897;stroke-miterlimit:10;}
	.st82{fill:#6F5E61;stroke:#000000;stroke-width:0.6897;stroke-miterlimit:10;}
	.st83{fill:none;stroke:#040000;stroke-width:0.874;stroke-miterlimit:10;}
	.st84{fill:#313535;stroke:#040000;stroke-width:1.0909;stroke-linecap:round;stroke-linejoin:round;stroke-miterlimit:10;}
	.st85{fill:#FFFFFF;stroke:#FFFFFF;stroke-width:0.9154;stroke-miterlimit:10;}
	.st86{fill:#FFFFFF;stroke:#000000;stroke-width:0.6897;stroke-miterlimit:10;}
	.st87{fill:#86524D;stroke:#000000;stroke-width:0.7947;stroke-miterlimit:10;}
	.st88{fill:#FFFFFF;stroke:#000000;stroke-width:0.7947;stroke-linecap:round;stroke-linejoin:round;stroke-miterlimit:10;}
	.st89{fill:#36303A;stroke:#000000;stroke-width:0.6897;stroke-miterlimit:10;}
	.st90{fill:#E9E9E9;stroke:#000000;stroke-width:1.0991;stroke-miterlimit:10;}
	.st91{fill:#537A95;stroke:#000000;stroke-width:1.0991;stroke-miterlimit:10;}
	.st92{opacity:0.5;}
	.st93{fill:#FF5748;}
	.st94{fill:#A0A916;}
	.st95{fill:#FFD84A;}
	.st96{fill:#00A8E1;}
	.st97{fill:#FFE5CF;stroke:#040000;stroke-width:0.7253;stroke-miterlimit:10;}
	.st98{fill:#938862;stroke:#040000;stroke-width:0.7253;stroke-miterlimit:10;}
	.st99{fill:#98B3C8;stroke:#040000;stroke-width:0.7253;stroke-miterlimit:10;}
	.st100{fill:#FFFFFF;stroke:#040000;stroke-width:0.7253;stroke-miterlimit:10;}
	.st101{fill:#F7EEE9;stroke:#040000;stroke-width:0.7253;stroke-miterlimit:10;}
	.st102{fill:#FC8A89;stroke:#040000;stroke-width:0.7253;stroke-miterlimit:10;}
	.st103{fill:#FFBB57;stroke:#040000;stroke-width:0.7253;stroke-miterlimit:10;}
	.st104{fill:#E7AD56;stroke:#040000;stroke-width:0.7253;stroke-miterlimit:10;}
	.st105{fill:#E6B282;stroke:#040000;stroke-width:0.7253;stroke-miterlimit:10;}
	.st106{fill:#666666;}
	.st107{fill:#C6182D;stroke:#C6182D;stroke-width:3;stroke-linecap:round;stroke-linejoin:round;stroke-miterlimit:10;}
	.st108{fill:#F7F6EC;stroke:#F7F6EC;stroke-width:3;stroke-linecap:round;stroke-linejoin:round;stroke-miterlimit:10;}
	.st109{opacity:0.2;}
	.st110{fill:#DDD9D4;}
	.st111{opacity:5.000000e-02;clip-path:url(#SVGID_2_);}
	.st112{fill:none;stroke:#000000;stroke-width:2;stroke-miterlimit:10;}
	.st113{fill:none;stroke:#000000;stroke-width:0.9035;stroke-miterlimit:10;}
	.st114{clip-path:url(#SVGID_4_);}
	.st115{fill:#68491B;}
	.st116{fill:#754F1C;}
	.st117{fill:url(#SVGID_5_);}
	.st118{fill:url(#SVGID_6_);}
	.st119{fill:none;stroke:#602E13;stroke-width:1.2551;}
	.st120{fill:#AB9666;stroke:#000000;stroke-width:0.9035;stroke-miterlimit:10;}
	.st121{opacity:5.000000e-02;clip-path:url(#SVGID_8_);}
	.st122{fill:none;stroke:#000000;stroke-width:1.8071;stroke-miterlimit:10;}
	.st123{fill:none;stroke:#C6182D;stroke-width:0.5609;stroke-miterlimit:10;}
	.st124{fill:#C1A67E;}
	.st125{clip-path:url(#SVGID_10_);}
	.st126{clip-path:url(#SVGID_12_);}
	.st127{fill:#AB9666;}
	.st128{clip-path:url(#SVGID_14_);}
	.st129{clip-path:url(#SVGID_16_);}
	.st130{clip-path:url(#SVGID_18_);}
	.st131{clip-path:url(#SVGID_20_);}
	.st132{clip-path:url(#SVGID_22_);}
	.st133{clip-path:url(#SVGID_24_);}
	.st134{clip-path:url(#SVGID_26_);}
	.st135{fill:#AC854F;}
	.st136{clip-path:url(#SVGID_28_);}
	.st137{clip-path:url(#SVGID_30_);}
	.st138{clip-path:url(#SVGID_32_);}
	.st139{clip-path:url(#SVGID_34_);}
	.st140{fill:#C6182D;stroke:#000000;stroke-miterlimit:10;}
	.st141{fill:#F7F6EC;stroke:#000000;stroke-miterlimit:10;}
	.st142{fill:none;stroke:#000000;stroke-width:3;stroke-linecap:round;stroke-linejoin:round;stroke-miterlimit:10;}
	.st143{fill:none;stroke:#C6182D;stroke-miterlimit:10;}
	.st144{fill:none;stroke:#C6182D;stroke-width:0.6406;stroke-miterlimit:10;}
	.st145{fill:#B79F70;}
	.st146{opacity:0.5;fill:#FFFFFF;}
	.st147{clip-path:url(#SVGID_38_);}
	.st148{fill:#F7F0F0;stroke:#000000;stroke-width:2.1005;stroke-miterlimit:10;}
	.st149{fill:#B79F70;stroke:#000000;stroke-width:0.8559;stroke-miterlimit:10;}
	.st150{fill:none;stroke:#000000;stroke-width:0.8559;stroke-miterlimit:10;}
	.st151{fill:#C6182D;stroke:#000000;stroke-width:1.0251;stroke-miterlimit:10;}
	.st152{fill:#FFFFFF;stroke:#000000;stroke-width:2.4107;stroke-linecap:round;stroke-linejoin:round;stroke-miterlimit:10;}
	.st153{fill:#FFE5CF;stroke:#040000;stroke-miterlimit:10;}
	.st154{fill:#938862;stroke:#040000;stroke-miterlimit:10;}
	.st155{fill:#F7EEE9;stroke:#040000;stroke-miterlimit:10;}
	.st156{fill:#FFFFFF;stroke:#040000;stroke-miterlimit:10;}
	.st157{fill:#FC8A89;stroke:#040000;stroke-miterlimit:10;}
	.st158{fill:#98B3C8;stroke:#040000;stroke-miterlimit:10;}
	.st159{fill:#FFBB57;stroke:#040000;stroke-miterlimit:10;}
	.st160{fill:#E6B282;stroke:#040000;stroke-miterlimit:10;}
	.st161{fill:#3F3B39;}
	.st162{fill:#FF282F;}
	.st163{fill:#373733;}
	.st164{fill:#FFD769;}
	.st165{fill:#F4C474;}
	.st166{fill:#E8EAE3;}
	.st167{filter:url(#Adobe_OpacityMaskFilter);}
	.st168{mask:url(#SVGID_39_);}
	.st169{fill:#F0B75C;}
	.st170{fill:none;stroke:#000000;stroke-width:0.8197;stroke-linecap:round;stroke-linejoin:round;stroke-miterlimit:10;}
	.st171{fill:none;stroke:#000000;stroke-width:0.8197;stroke-miterlimit:10;}
	.st172{fill:#F9F4EF;stroke:#040000;stroke-miterlimit:10;}
	.st173{fill:#FFA99B;stroke:#040000;stroke-miterlimit:10;}
	.st174{fill:#36303A;stroke:#040000;stroke-miterlimit:10;}
	.st175{fill:#554E59;}
	.st176{opacity:0.54;fill:#F7EBEB;}
	.st177{fill:#6A433E;stroke:#040000;stroke-miterlimit:10;}
	.st178{fill:#FFA99B;stroke:#040000;stroke-linecap:round;stroke-linejoin:round;stroke-miterlimit:10;}
	.st179{fill:#020202;}
	.st180{fill:#6B3C2B;stroke:#040000;stroke-miterlimit:10;}
	.st181{fill:#FF4F2C;stroke:#040000;stroke-miterlimit:10;}
	.st182{fill:#FFA99B;}
	.st183{fill:#5D75DB;stroke:#040000;stroke-miterlimit:10;}
	.st184{fill:#EFD2AA;stroke:#040000;stroke-miterlimit:10;}
	.st185{fill:#E2C295;stroke:#040000;stroke-miterlimit:10;}
	.st186{fill:#F7EBEB;stroke:#040000;stroke-miterlimit:10;}
	.st187{fill:#FF4F2C;stroke:#040000;stroke-linecap:round;stroke-linejoin:round;stroke-miterlimit:10;}
	.st188{fill:#6F5E68;stroke:#040000;stroke-linecap:round;stroke-linejoin:round;stroke-miterlimit:10;}
	.st189{fill:#DB9A7D;}
	.st190{fill:#DD6A5B;stroke:#040000;stroke-miterlimit:10;}
	.st191{fill:#F4DDBE;stroke:#040000;stroke-miterlimit:10;}
	.st192{fill:#DB9A7D;stroke:#040000;stroke-miterlimit:10;}
	.st193{fill:#7B94B9;stroke:#040000;stroke-miterlimit:10;}
	.st194{fill:#FF282F;stroke:#000000;stroke-width:0.8566;stroke-miterlimit:10;}
	.st195{fill:#FF3E43;}
	.st196{opacity:0.3;}
	.st197{fill:#C7B299;}
	.st198{fill:none;stroke:#AC854F;stroke-width:0.753;stroke-linecap:round;stroke-linejoin:round;stroke-miterlimit:10;}
	.st199{clip-path:url(#SVGID_41_);}
	.st200{clip-path:url(#SVGID_43_);}
	.st201{fill:#B29341;}
	.st202{fill:#97A9DB;}
	.st203{fill:#97A9DB;stroke:#040000;stroke-miterlimit:10;}
	.st204{fill:#BED5F7;stroke:#040000;stroke-miterlimit:10;}
	.st205{fill:#9EBAE6;stroke:#040000;stroke-miterlimit:10;}
	.st206{fill:#723C39;stroke:#040000;stroke-miterlimit:10;}
	.st207{fill:#2D2044;}
	.st208{fill:#F4E58C;stroke:#020202;stroke-miterlimit:10;}
	.st209{stroke:#020202;stroke-miterlimit:10;}
	.st210{fill:#E28675;stroke:#020202;stroke-miterlimit:10;}
	.st211{fill:#535699;}
	.st212{fill:#55996A;stroke:#020202;stroke-miterlimit:10;}
	.st213{fill:#020202;stroke:#020202;stroke-miterlimit:10;}
	.st214{fill:none;stroke:#040000;stroke-linecap:round;stroke-linejoin:round;stroke-miterlimit:10;}
	.st215{fill:#FFFFFF;stroke:#040000;stroke-width:0.5;stroke-miterlimit:10;}
	.st216{clip-path:url(#SVGID_45_);}
	.st217{fill:url(#SVGID_46_);}
	.st218{fill:url(#SVGID_47_);}
	.st219{fill:url(#SVGID_48_);}
	.st220{fill:#C6182D;stroke:#000000;stroke-width:2;stroke-miterlimit:10;}
	.st221{fill:none;stroke:#FFFFFF;stroke-width:5.4451;stroke-linecap:round;stroke-linejoin:round;stroke-miterlimit:10;}
	.st222{fill:#E5E5E5;}
	.st223{fill:#FFFFFF;stroke:#000000;stroke-width:3;stroke-linecap:round;stroke-linejoin:round;stroke-miterlimit:10;}
	.st224{clip-path:url(#SVGID_52_);}
	.st225{fill:#B79F70;stroke:#000000;stroke-width:1.0251;stroke-miterlimit:10;}
	.st226{clip-path:url(#SVGID_56_);}
	.st227{clip-path:url(#SVGID_60_);}
	.st228{clip-path:url(#SVGID_64_);}
	.st229{clip-path:url(#SVGID_68_);}
	.st230{fill:#F9F8EF;}
	.st231{clip-path:url(#SVGID_72_);}
	.st232{fill:#C6182D;stroke:#000000;stroke-width:0.8559;stroke-miterlimit:10;}
	.st233{clip-path:url(#SVGID_76_);}
	.st234{clip-path:url(#SVGID_80_);}
	.st235{fill:#FF282F;stroke:#000000;stroke-width:2.3666;stroke-miterlimit:10;}
	.st236{fill:#FF282F;stroke:#000000;stroke-miterlimit:10;}
	.st237{fill:#FBFFF6;}
	.st238{fill:none;stroke:#FBFFF6;stroke-miterlimit:10;}
	.st239{fill:#3F3B39;stroke:#FCFCF6;stroke-miterlimit:10;}
	.st240{clip-path:url(#SVGID_82_);}
	.st241{fill:#FF282F;stroke:#FCFCF6;stroke-miterlimit:10;}
	.st242{fill:none;stroke:#000000;stroke-miterlimit:10;}
	.st243{fill:none;stroke:#373733;stroke-miterlimit:10;}
	.st244{clip-path:url(#SVGID_84_);}
	.st245{fill:none;stroke:#FFFFFF;stroke-miterlimit:10;}
	.st246{fill:#373733;stroke:#000000;stroke-miterlimit:10;}
	.st247{fill:#FFFFFF;stroke:#000000;stroke-width:0.827;stroke-miterlimit:10;}
	.st248{fill:#FFFFFF;stroke:#FFD84A;stroke-width:1.7405;stroke-miterlimit:10;}
	.st249{fill:#EFF0D6;}
	.st250{clip-path:url(#SVGID_86_);}
	.st251{fill:none;stroke:#000000;stroke-width:1.7405;stroke-miterlimit:10;}
	.st252{fill:#FFD22C;stroke:#000000;stroke-miterlimit:10;}
	.st253{clip-path:url(#SVGID_88_);}
	.st254{clip-path:url(#SVGID_90_);}
	.st255{fill:#614D3F;}
	.st256{filter:url(#Adobe_OpacityMaskFilter_1_);}
	.st257{mask:url(#SVGID_91_);}
	.st258{fill:none;stroke:#000000;stroke-width:1.5032;stroke-linecap:round;stroke-linejoin:round;stroke-miterlimit:10;}
	.st259{fill:none;stroke:#000000;stroke-width:1.5032;stroke-miterlimit:10;}
	.st260{fill:#EFBC6C;}
	.st261{clip-path:url(#SVGID_93_);}
	.st262{clip-path:url(#SVGID_95_);}
	.st263{clip-path:url(#SVGID_97_);}
	.st264{clip-path:url(#SVGID_99_);}
	.st265{fill:#F4C374;stroke:#000000;stroke-width:1.2527;stroke-miterlimit:10;}
	.st266{fill:none;stroke:#000000;stroke-width:1.2527;stroke-linecap:round;stroke-linejoin:round;stroke-miterlimit:10;}
	.st267{fill:#FFFFFF;stroke:#000000;stroke-width:1.2527;stroke-miterlimit:10;}
	.st268{fill:#EFBC6C;stroke:#000000;stroke-width:1.1723;stroke-miterlimit:10;}
	.st269{fill:none;}
	.st270{fill:none;stroke:#000000;stroke-width:1.1723;stroke-miterlimit:10;}
	.st271{fill:#AFAF17;stroke:#000000;stroke-width:1.1723;stroke-miterlimit:10;}
	.st272{fill:#436EC4;stroke:#000000;stroke-width:1.1723;stroke-miterlimit:10;}
	.st273{fill:#C947C6;stroke:#000000;stroke-width:1.1723;stroke-miterlimit:10;}
	.st274{fill:#E82E68;stroke:#000000;stroke-width:1.1723;stroke-miterlimit:10;}
	.st275{fill:#836270;}
	.st276{fill:#A9746B;}
	.st277{fill:#F8FCE4;}
	.st278{fill:#F8BC71;stroke:#000000;stroke-width:0.8735;stroke-miterlimit:10;}
	.st279{fill:#E28675;stroke:#000000;stroke-width:0.8735;stroke-miterlimit:10;}
	.st280{fill:#E28675;}
	.st281{fill:#BA6152;stroke:#000000;stroke-width:0.8735;stroke-linecap:round;stroke-linejoin:round;stroke-miterlimit:10;}
	.st282{fill:#FFFFFF;stroke:#000000;stroke-width:0.8735;stroke-linecap:round;stroke-linejoin:round;stroke-miterlimit:10;}
	.st283{fill:#E05C5C;stroke:#000000;stroke-width:0.8735;stroke-miterlimit:10;}
	.st284{fill:#D49676;stroke:#000000;stroke-width:0.8735;stroke-miterlimit:10;}
	.st285{stroke:#000000;stroke-width:0.4367;stroke-miterlimit:10;}
	.st286{fill:#FFFFFF;stroke:#000000;stroke-width:0.8735;stroke-miterlimit:10;}
	.st287{fill:#2D2044;stroke:#000000;stroke-width:0.8735;stroke-miterlimit:10;}
	.st288{fill:#535699;stroke:#000000;stroke-width:0.8735;stroke-miterlimit:10;}
	.st289{fill:none;stroke:#000000;stroke-width:0.8735;stroke-linecap:round;stroke-linejoin:round;stroke-miterlimit:10;}
	
		.st290{fill-rule:evenodd;clip-rule:evenodd;fill:#EB984E;stroke:#000000;stroke-linecap:round;stroke-linejoin:round;stroke-miterlimit:10;}
	
		.st291{fill-rule:evenodd;clip-rule:evenodd;fill:#BD7231;stroke:#000000;stroke-linecap:round;stroke-linejoin:round;stroke-miterlimit:10;}
	
		.st292{fill-rule:evenodd;clip-rule:evenodd;fill:#B05E15;stroke:#000000;stroke-linecap:round;stroke-linejoin:round;stroke-miterlimit:10;}
	
		.st293{fill-rule:evenodd;clip-rule:evenodd;fill:#D68910;stroke:#000000;stroke-linecap:round;stroke-linejoin:round;stroke-miterlimit:10;}
	.st294{fill:#691F16;stroke:#000000;stroke-linecap:round;stroke-linejoin:round;stroke-miterlimit:10;}
	
		.st295{fill-rule:evenodd;clip-rule:evenodd;fill:#FFFFFF;stroke:#000000;stroke-linecap:round;stroke-linejoin:round;stroke-miterlimit:10;}
	.st296{fill-rule:evenodd;clip-rule:evenodd;stroke:#000000;stroke-linecap:round;stroke-linejoin:round;stroke-miterlimit:10;}
	.st297{fill:#B05E15;stroke:#000000;stroke-linecap:round;stroke-linejoin:round;stroke-miterlimit:10;}
	
		.st298{fill-rule:evenodd;clip-rule:evenodd;fill:#F0F3F4;stroke:#000000;stroke-linecap:round;stroke-linejoin:round;stroke-miterlimit:10;}
	
		.st299{fill-rule:evenodd;clip-rule:evenodd;fill:#F3F3F3;stroke:#000000;stroke-linecap:round;stroke-linejoin:round;stroke-miterlimit:10;}
	
		.st300{fill-rule:evenodd;clip-rule:evenodd;fill:#DB741B;stroke:#000000;stroke-linecap:round;stroke-linejoin:round;stroke-miterlimit:10;}
	
		.st301{fill-rule:evenodd;clip-rule:evenodd;fill:#B3382B;stroke:#000000;stroke-linecap:round;stroke-linejoin:round;stroke-miterlimit:10;}
	
		.st302{fill-rule:evenodd;clip-rule:evenodd;fill:#965013;stroke:#000000;stroke-linecap:round;stroke-linejoin:round;stroke-miterlimit:10;}
	.st303{fill:#EE615A;stroke:#000000;stroke-linecap:round;stroke-linejoin:round;stroke-miterlimit:10;}
	.st304{fill:#78514C;stroke:#000000;stroke-linecap:round;stroke-linejoin:round;stroke-miterlimit:10;}
	.st305{fill:#F3EEDB;stroke:#000000;stroke-linecap:round;stroke-linejoin:round;stroke-miterlimit:10;}
	.st306{fill:#E45A40;stroke:#000000;stroke-linecap:round;stroke-linejoin:round;stroke-miterlimit:10;}
	.st307{fill:#219785;stroke:#000000;stroke-linecap:round;stroke-linejoin:round;stroke-miterlimit:10;}
	.st308{fill:#AE9794;stroke:#000000;stroke-linecap:round;stroke-linejoin:round;stroke-miterlimit:10;}
	.st309{fill:#F79E4C;stroke:#000000;stroke-linecap:round;stroke-linejoin:round;stroke-miterlimit:10;}
	.st310{fill:#F7AD4C;stroke:#000000;stroke-linecap:round;stroke-linejoin:round;stroke-miterlimit:10;}
	.st311{fill:#FAC594;stroke:#000000;stroke-linecap:round;stroke-linejoin:round;stroke-miterlimit:10;}
	.st312{fill:#FFD27A;stroke:#000000;stroke-linecap:round;stroke-linejoin:round;stroke-miterlimit:10;}
	.st313{opacity:0.82;fill:#EE615A;stroke:#000000;stroke-linecap:round;stroke-linejoin:round;stroke-miterlimit:10;}
	.st314{opacity:0.57;fill:#AA7023;stroke:#000000;stroke-linecap:round;stroke-linejoin:round;stroke-miterlimit:10;}
	.st315{fill:#100F0C;stroke:#000000;stroke-width:0.7512;stroke-miterlimit:10;}
	.st316{fill:#676666;stroke:#000000;stroke-width:0.7512;stroke-miterlimit:10;}
	.st317{fill:#0E0A09;stroke:#000000;stroke-width:0.7512;stroke-miterlimit:10;}
	.st318{fill:#FFFCF1;stroke:#000000;stroke-width:0.7512;stroke-miterlimit:10;}
	.st319{fill:#1B3218;stroke:#000000;stroke-width:0.7512;stroke-miterlimit:10;}
	.st320{fill:#E7E4AA;stroke:#000000;stroke-width:0.7512;stroke-miterlimit:10;}
	.st321{fill:#EB6611;stroke:#000000;stroke-width:0.7512;stroke-miterlimit:10;}
	.st322{fill:#E73B0C;stroke:#000000;stroke-width:0.7512;stroke-miterlimit:10;}
	.st323{fill:#DC4911;stroke:#000000;stroke-width:0.7512;stroke-miterlimit:10;}
	.st324{fill:#DD2115;stroke:#000000;stroke-width:0.7512;stroke-miterlimit:10;}
	.st325{fill:#EA590D;stroke:#000000;stroke-width:0.7512;stroke-miterlimit:10;}
	.st326{fill:#FFFFFF;stroke:#000000;stroke-width:0.7512;stroke-miterlimit:10;}
	.st327{fill:#DC3913;stroke:#000000;stroke-width:0.7512;stroke-miterlimit:10;}
	.st328{fill:#F39A00;stroke:#000000;stroke-width:0.7512;stroke-miterlimit:10;}
	.st329{fill:#596E26;stroke:#000000;stroke-width:0.7512;stroke-miterlimit:10;}
	.st330{fill:#A0C115;stroke:#000000;stroke-width:0.7512;stroke-miterlimit:10;}
	.st331{fill:#FBCE40;stroke:#000000;stroke-width:0.7512;stroke-miterlimit:10;}
	.st332{fill:#F8BA22;stroke:#000000;stroke-width:0.7512;stroke-miterlimit:10;}
	.st333{fill:#FCEA66;stroke:#000000;stroke-width:0.7512;stroke-miterlimit:10;}
	.st334{fill:#FF6666;stroke:#000000;stroke-width:0.894;stroke-miterlimit:10;}
	.st335{fill:#FFFFFF;stroke:#000000;stroke-width:0.894;stroke-miterlimit:10;}
	.st336{fill:#999999;stroke:#000000;stroke-width:0.894;stroke-miterlimit:10;}
	.st337{fill:#B3B3B3;stroke:#000000;stroke-width:0.894;stroke-miterlimit:10;}
	.st338{fill:#3F3B39;stroke:#000000;stroke-miterlimit:10;}
	.st339{fill:#AA783F;}
	.st340{fill:#FFFFFF;stroke:#000000;stroke-miterlimit:10;}
	.st341{fill:#F4C474;stroke:#000000;stroke-miterlimit:10;}
	.st342{fill:#E9A459;}
	.st343{fill:#FFFFFF;stroke:#F4C474;stroke-miterlimit:10;}
	.st344{fill:#FF282F;stroke:#F4C474;stroke-miterlimit:10;}
	.st345{fill:#FFFFFF;stroke:#040000;stroke-width:0.6639;stroke-miterlimit:10;}
	.st346{fill:#F7F6EC;stroke:#000000;stroke-linecap:round;stroke-linejoin:round;stroke-miterlimit:10;}
	.st347{fill:#C6182D;stroke:#000000;stroke-linecap:round;stroke-linejoin:round;stroke-miterlimit:10;}
	.st348{fill:none;stroke:#000000;stroke-width:1.315;stroke-miterlimit:10;}
	.st349{clip-path:url(#SVGID_101_);}
	.st350{fill:url(#SVGID_102_);}
	.st351{fill:url(#SVGID_103_);}
	.st352{fill:none;stroke:#602E13;stroke-width:1.8267;}
	.st353{opacity:5.000000e-02;clip-path:url(#SVGID_105_);}
	.st354{fill:none;stroke:#000000;stroke-width:2.63;stroke-miterlimit:10;}
	.st355{fill:none;stroke:#C6182D;stroke-width:0.8163;stroke-miterlimit:10;}
	.st356{clip-path:url(#SVGID_107_);}
	.st357{clip-path:url(#SVGID_109_);}
	.st358{clip-path:url(#SVGID_111_);}
	.st359{clip-path:url(#SVGID_113_);}
	.st360{clip-path:url(#SVGID_115_);}
	.st361{clip-path:url(#SVGID_117_);}
	.st362{clip-path:url(#SVGID_119_);}
	.st363{clip-path:url(#SVGID_121_);}
	.st364{clip-path:url(#SVGID_123_);}
	.st365{clip-path:url(#SVGID_125_);}
	.st366{clip-path:url(#SVGID_127_);}
	.st367{clip-path:url(#SVGID_129_);}
	.st368{clip-path:url(#SVGID_131_);}
	.st369{fill:#E8904D;stroke:#040000;stroke-width:1.46;stroke-miterlimit:10;}
	.st370{fill:#E6B282;stroke:#040000;stroke-width:1.46;stroke-miterlimit:10;}
	.st371{fill:#97A9DB;stroke:#040000;stroke-width:1.3468;stroke-miterlimit:10;}
	.st372{fill:#BED5F7;stroke:#040000;stroke-width:1.3468;stroke-miterlimit:10;}
	.st373{fill:#9EBAE6;stroke:#040000;stroke-width:1.3468;stroke-miterlimit:10;}
	.st374{fill:#723C39;stroke:#040000;stroke-width:1.3468;stroke-miterlimit:10;}
	.st375{fill:#F4E58C;stroke:#020202;stroke-width:1.3468;stroke-miterlimit:10;}
	.st376{stroke:#020202;stroke-width:1.3468;stroke-miterlimit:10;}
	.st377{fill:#E28675;stroke:#020202;stroke-width:1.3468;stroke-miterlimit:10;}
	.st378{fill:#55996A;stroke:#020202;stroke-width:1.3468;stroke-miterlimit:10;}
	.st379{fill:#020202;stroke:#020202;stroke-width:1.3468;stroke-miterlimit:10;}
	.st380{fill:none;stroke:#040000;stroke-width:1.3468;stroke-linecap:round;stroke-linejoin:round;stroke-miterlimit:10;}
	.st381{fill:#FFE5CF;stroke:#040000;stroke-width:1.3698;stroke-miterlimit:10;}
	.st382{fill:#938862;stroke:#040000;stroke-width:1.3698;stroke-miterlimit:10;}
	.st383{fill:#F7EEE9;stroke:#040000;stroke-width:1.3698;stroke-miterlimit:10;}
	.st384{fill:#FFFFFF;stroke:#040000;stroke-width:1.3698;stroke-miterlimit:10;}
	.st385{fill:#FC8A89;stroke:#040000;stroke-width:1.3698;stroke-miterlimit:10;}
	.st386{fill:#98B3C8;stroke:#040000;stroke-width:1.3698;stroke-miterlimit:10;}
	.st387{fill:#FFBB57;stroke:#040000;stroke-width:1.3698;stroke-miterlimit:10;}
	.st388{fill:#E6B282;stroke:#040000;stroke-width:1.3698;stroke-miterlimit:10;}
	.st389{filter:url(#Adobe_OpacityMaskFilter_2_);}
	.st390{mask:url(#SVGID_132_);}
	.st391{fill:none;stroke:#000000;stroke-width:1.1228;stroke-linecap:round;stroke-linejoin:round;stroke-miterlimit:10;}
	.st392{fill:none;stroke:#000000;stroke-width:1.1228;stroke-miterlimit:10;}
	.st393{fill:#F9F4EF;stroke:#040000;stroke-width:1.3698;stroke-miterlimit:10;}
	.st394{fill:#FFA99B;stroke:#040000;stroke-width:1.3698;stroke-miterlimit:10;}
	.st395{fill:#36303A;stroke:#040000;stroke-width:1.3698;stroke-miterlimit:10;}
	.st396{fill:#6A433E;stroke:#040000;stroke-width:1.3698;stroke-miterlimit:10;}
	.st397{fill:#FFA99B;stroke:#040000;stroke-width:1.3698;stroke-linecap:round;stroke-linejoin:round;stroke-miterlimit:10;}
	.st398{fill:#6B3C2B;stroke:#040000;stroke-width:1.3698;stroke-miterlimit:10;}
	.st399{fill:#FF4F2C;stroke:#040000;stroke-width:1.3698;stroke-miterlimit:10;}
	.st400{fill:#5D75DB;stroke:#040000;stroke-width:1.3698;stroke-miterlimit:10;}
	.st401{fill:#EFD2AA;stroke:#040000;stroke-width:1.3698;stroke-miterlimit:10;}
	.st402{fill:#E2C295;stroke:#040000;stroke-width:1.3698;stroke-miterlimit:10;}
	.st403{fill:#F7EBEB;stroke:#040000;stroke-width:1.3698;stroke-miterlimit:10;}
	.st404{fill:#FF4F2C;stroke:#040000;stroke-width:1.3698;stroke-linecap:round;stroke-linejoin:round;stroke-miterlimit:10;}
	.st405{fill:#6F5E68;stroke:#040000;stroke-width:1.3698;stroke-linecap:round;stroke-linejoin:round;stroke-miterlimit:10;}
	.st406{fill:#DD6A5B;stroke:#040000;stroke-width:1.3698;stroke-miterlimit:10;}
	.st407{fill:#F4DDBE;stroke:#040000;stroke-width:1.3698;stroke-miterlimit:10;}
	.st408{fill:#DB9A7D;stroke:#040000;stroke-width:1.3698;stroke-miterlimit:10;}
	.st409{fill:#7B94B9;stroke:#040000;stroke-width:1.3698;stroke-miterlimit:10;}
	.st410{fill:#FF282F;stroke:#000000;stroke-width:1.1734;stroke-miterlimit:10;}
	.st411{fill:#C6182D;stroke:#000000;stroke-width:1.6373;stroke-miterlimit:10;}
	.st412{fill:none;stroke:#000000;stroke-width:5;stroke-linecap:round;stroke-linejoin:round;stroke-miterlimit:10;}
	.st413{fill:none;stroke:#AC854F;stroke-width:0.7139;stroke-linecap:round;stroke-linejoin:round;stroke-miterlimit:10;}
	.st414{clip-path:url(#SVGID_134_);}
	.st415{fill:none;stroke:#AC854F;stroke-width:5;stroke-linecap:round;stroke-linejoin:round;stroke-miterlimit:10;}
	.st416{clip-path:url(#SVGID_136_);}
	.st417{fill:none;stroke:#AC854F;stroke-width:1.3384;stroke-linecap:round;stroke-linejoin:round;stroke-miterlimit:10;}
	.st418{fill:#2AB3BE;}
	.st419{fill:#F7A411;}
	.st420{clip-path:url(#SVGID_140_);}
	.st421{fill:#F7F0F0;stroke:#000000;stroke-width:1.591;stroke-miterlimit:10;}
	.st422{fill:#C6182D;stroke:#000000;stroke-width:0.7765;stroke-miterlimit:10;}
	.st423{fill:url(#SVGID_141_);}
	.st424{fill:#C6182D;stroke:#000000;stroke-width:1.5149;stroke-miterlimit:10;}
	.st425{clip-path:url(#SVGID_145_);}
	.st426{fill:url(#SVGID_146_);}
	.st427{clip-path:url(#SVGID_150_);}
	.st428{fill:url(#SVGID_151_);}
	.st429{fill:#3F3B39;stroke:#000000;stroke-width:1.2912;stroke-miterlimit:10;}
	.st430{fill:#FF282F;stroke:#000000;stroke-width:1.2912;stroke-miterlimit:10;}
	.st431{fill:#FFFFFF;stroke:#000000;stroke-width:1.2912;stroke-miterlimit:10;}
	.st432{fill:#F4C474;stroke:#000000;stroke-width:1.2912;stroke-miterlimit:10;}
	.st433{fill:#FFFFFF;stroke:#F4C474;stroke-width:1.2912;stroke-miterlimit:10;}
	.st434{fill:#FF282F;stroke:#F4C474;stroke-width:1.2912;stroke-miterlimit:10;}
	.st435{clip-path:url(#SVGID_155_);}
	.st436{fill:url(#SVGID_156_);}
	.st437{clip-path:url(#SVGID_160_);}
	.st438{fill:url(#SVGID_161_);}
	.st439{clip-path:url(#SVGID_165_);}
	.st440{fill:url(#SVGID_166_);}
	.st441{clip-path:url(#SVGID_170_);}
	.st442{fill:#F7F0F0;stroke:#000000;stroke-width:1.1829;stroke-miterlimit:10;}
	.st443{fill:#B79F70;stroke:#000000;stroke-width:0.5773;stroke-miterlimit:10;}
	.st444{clip-path:url(#SVGID_174_);}
	.st445{clip-path:url(#SVGID_178_);}
	.st446{clip-path:url(#SVGID_182_);}
	.st447{fill:#F4C374;stroke:#000000;stroke-miterlimit:10;}
	.st448{clip-path:url(#SVGID_186_);}
	.st449{clip-path:url(#SVGID_190_);}
	.st450{clip-path:url(#SVGID_194_);}
	.st451{clip-path:url(#SVGID_198_);}
	.st452{clip-path:url(#SVGID_202_);}
	.st453{clip-path:url(#SVGID_206_);}
	.st454{clip-path:url(#SVGID_210_);}
	.st455{clip-path:url(#SVGID_214_);}
	.st456{clip-path:url(#SVGID_218_);}
	.st457{clip-path:url(#SVGID_222_);}
	.st458{clip-path:url(#SVGID_226_);}
	.st459{clip-path:url(#SVGID_230_);}
	.st460{clip-path:url(#SVGID_234_);}
	.st461{clip-path:url(#SVGID_238_);}
	.st462{clip-path:url(#SVGID_242_);}
	.st463{clip-path:url(#SVGID_246_);}
	.st464{fill:#EFBC6C;stroke:#000000;stroke-miterlimit:10;}
	.st465{fill:#AFAF17;stroke:#000000;stroke-miterlimit:10;}
	.st466{fill:#436EC4;stroke:#000000;stroke-miterlimit:10;}
	.st467{fill:#C947C6;stroke:#000000;stroke-miterlimit:10;}
	.st468{fill:#E82E68;stroke:#000000;stroke-miterlimit:10;}
	.st469{fill:#F8BC71;stroke:#000000;stroke-miterlimit:10;}
	.st470{fill:#E28675;stroke:#000000;stroke-miterlimit:10;}
	.st471{fill:#BA6152;stroke:#000000;stroke-linecap:round;stroke-linejoin:round;stroke-miterlimit:10;}
	.st472{fill:#E05C5C;stroke:#000000;stroke-miterlimit:10;}
	.st473{fill:#D49676;stroke:#000000;stroke-miterlimit:10;}
	.st474{stroke:#000000;stroke-miterlimit:10;}
	.st475{fill:#2D2044;stroke:#000000;stroke-miterlimit:10;}
	.st476{fill:#535699;stroke:#000000;stroke-miterlimit:10;}
	.st477{clip-path:url(#SVGID_250_);}
	.st478{fill:#C6182D;stroke:#000000;stroke-width:0.5773;stroke-miterlimit:10;}
	.st479{clip-path:url(#SVGID_254_);}
	.st480{clip-path:url(#SVGID_258_);}
	.st481{clip-path:url(#SVGID_262_);}
	.st482{clip-path:url(#SVGID_266_);}
	.st483{clip-path:url(#SVGID_270_);}
	.st484{clip-path:url(#SVGID_274_);}
	.st485{clip-path:url(#SVGID_278_);}
	.st486{clip-path:url(#SVGID_282_);}
	.st487{clip-path:url(#SVGID_286_);}
	.st488{clip-path:url(#SVGID_290_);}
	.st489{clip-path:url(#SVGID_294_);}
	.st490{fill:#FFFFFF;stroke:#000000;stroke-width:0.6086;stroke-miterlimit:10;}
</style>
<g>
	<g>
		
			<ellipse transform="matrix(0.9974 -7.176457e-02 7.176457e-02 0.9974 -6.8566 5.3177)" class="st303" cx="70.6" cy="98.1" rx="27.8" ry="12.3"/>
		<path class="st303" d="M106.2,38.1c-1.1,7.9,3.9,15.3,4.9,23.2c0.7,5.6-0.6,11.3-2.5,16.7c-2.1,5.8-5,11.6-10.2,14.9
			c-3.2,2.1-7,3-10.7,3.7c-12.7,2.4-25.7,3.1-38.5,1.9c-2.8-0.3-5.6-0.6-8-2c-2-1.2-3.6-3.1-4.9-5c-8.2-11.7-10.4-27.5-5.6-41
			c0.7-1.9-1.4-3.9-2.5-5.6c-2.9-4.1-6.4-7.8-10.3-10.9c-1.9-1.5-4.1-3.7-3.2-6c0.3-0.7,0.9-1.3,1.5-1.8c2.3-1.7,5.1-2.7,7.9-2.8
			c3.5-0.1,6.8,1.2,10.1,2.3c5.5,1.8,11.1,3.1,16.8,3.9c4.8,0.7,9-0.8,13.9-1.1c3.6-0.2,7.2-0.4,10.7-1c4.3-0.8,8.4-2.2,12.8-2.8
			c4.3-0.6,8.9-0.4,12.7,1.9S106.8,33.8,106.2,38.1z"/>
		<path class="st304" d="M23.9,26.1c0.7-0.7,1.2-1.8,0.9-2.7c-0.2,0-0.4,0-0.6,0c-2.8,0.1-5.7,1-7.9,2.8c-0.6,0.5-1.2,1-1.5,1.8
			c-0.1,0.2-0.1,0.3-0.2,0.5c0.1,0,0.2,0.1,0.3,0.1C18,29.6,21.8,28.6,23.9,26.1z"/>
		<path class="st303" d="M118.3,29.5c7.7,0.6,15.2,5.6,17.8,12.7c0.9,2.4,1.2,5,1.2,7.6c0.1,8.5-3.1,17-8.9,23.4
			S114.6,83.9,105.9,85c-0.5-1.2-1-2.5-0.9-3.9c0.1-1.3,0.9-2.7,2.2-3.1c0.7-0.2,1.4,0.1,2,0c15.1-3.6,21.5-17.1,22.6-23.8
			c0.6-3.3,0.3-6.7-1.2-9.7c-2.2-4.3-6.9-7.1-11.8-7.6c-4.9-0.5-9.9,1.2-13.8,4c-1,0.7-1.9,1.5-3.1,1.8c-2.1,0.6-4.6-1.1-5-3.2
			c-0.6-2.7,2.4-4.2,4.5-5.5C106.3,30.9,112.3,29,118.3,29.5z"/>
		<g>
			<path class="st304" d="M67.5,31.4c-4.2,0.1-8.4,0.2-12.6,0.2c-5.5,0.1-11.6,0-15.8-3.5c-0.4-0.3-0.8-0.7-0.9-1.2
				c-0.3-1,0.5-1.9,1.3-2.5c2.1-1.7,4.5-3,7.1-4c6.3-2.5,13.2-3.7,20-3.6c7,0.2,13.9,1.8,20.7,3.3c2.1,0.5,5.8,1.3,5.9,4.1
				c0,2.8-3.7,4.1-5.8,4.8C81,31.2,74.2,31.3,67.5,31.4z"/>
			<path class="st304" d="M74,18.2c-1.8-0.7-2.6-2.6-1.1-4.3c6.6-7.5-11.7-9.8-16-5.1c-2.7,2.9,1.2,5.5,1.6,6.8c0.3,1-0.3,2.1-1,2.8
				c-0.1,0.1-0.2,0.2-0.2,0.4c0,0.2,0.2,0.4,0.4,0.5C65.5,24.3,74.2,19.3,74,18.2z"/>
		</g>
		<g>
			<g>
				<path class="st305" d="M75.9,83.4C75.9,83.4,75.9,83.3,75.9,83.4c0.1-0.2,0.3-0.3,0.4-0.4c0.7-0.7,0.7-1.8,0-2.5
					c-0.7-0.7-1.8-0.7-2.5,0c-0.2,0.2-0.3,0.3-0.4,0.5c-0.7-0.7-1.8-0.7-2.5,0c-0.7,0.6-0.7,1.7-0.2,2.4c-0.3,0.3-0.4,0.7-0.4,1.1
					c0,1,0.8,1.8,1.7,1.8c0.4,0,0.8-0.1,1.1-0.4c0,0,0.1,0.1,0.1,0.1c0.7,0.7,1.8,0.7,2.5,0C76.6,85.2,76.6,84.1,75.9,83.4z"/>
				<path class="st306" d="M74.3,83.6c-0.1,0.5-0.5,0.8-1,0.8c-0.5-0.1-0.8-0.5-0.8-1s0.5-0.8,1-0.8C74,82.7,74.4,83.1,74.3,83.6z"
					/>
				<path class="st305" d="M65.5,72.7c0,0,0.1,0,0.1,0c0,0.3,0,0.6,0,0.8c0.3,1.3,1.6,2.1,2.9,1.8c1.3-0.3,2.1-1.6,1.8-2.9
					c-0.1-0.3-0.2-0.5-0.3-0.8c1.2-0.3,2-1.6,1.7-2.8c-0.3-1.2-1.4-2-2.6-1.9c-0.2-0.5-0.5-1-1-1.3c-1.1-0.7-2.5-0.4-3.2,0.7
					c-0.3,0.5-0.4,1-0.3,1.5c-0.1,0-0.1,0-0.2,0c-1.3,0.3-2.1,1.6-1.8,2.9S64.3,73,65.5,72.7z"/>
				<path class="st306" d="M66.4,70.7c-0.5-0.4-0.6-1.2-0.2-1.7c0.4-0.5,1.2-0.6,1.7-0.2c0.5,0.4,0.6,1.2,0.2,1.7
					C67.7,71.1,66.9,71.1,66.4,70.7z"/>
				<path class="st305" d="M67.9,78.3c-0.7-0.8-1.9-1-2.8-0.5c-0.2,0.1-0.3,0.2-0.4,0.3c-0.9-1.3-2.7-1.8-3.1-0.1
					c-0.1,0.3-0.1,0.5-0.1,0.8c0,0.1,0,0.2,0,0.2c-0.6,0.1-1.1,0.4-1.5,0.9c-0.5,0.7-0.4,1.5-0.2,2.3c0.1,0.3,0.1,0.6,0.3,0.9
					c0.2,0.4,0.6,0.6,1,0.8c0.9,0.4,2,0.4,3,0.1c0.1,0.1,0.1,0.1,0.2,0.2c0.4,0.4,1,0.7,1.6,0.7c0.8,0,1.5-0.6,1.8-1.3
					c0.2-0.6,0.2-1.3-0.1-1.9C68.7,81.3,69.1,79.6,67.9,78.3z"/>
				<path class="st306" d="M65.4,81.6c-0.1,0.1-0.2,0.3-0.4,0.4c-0.4,0.3-1,0.4-1.5,0.1c-0.4-0.3-0.5-1-0.3-1.4
					C64.2,78.9,66.3,80.2,65.4,81.6z"/>
				<path class="st305" d="M84.2,72.2c-0.7-0.8-1.9-1-2.8-0.5c-0.2,0.1-0.3,0.2-0.4,0.3c-0.9-1.3-2.7-1.8-3.1-0.1
					c-0.1,0.3-0.1,0.5-0.1,0.8c0,0.1,0,0.2,0,0.2c-0.6,0.1-1.1,0.4-1.5,0.9c-0.5,0.7-0.4,1.5-0.2,2.3c0.1,0.3,0.1,0.6,0.3,0.9
					c0.2,0.4,0.6,0.6,1,0.8c0.9,0.4,2,0.4,3,0.1c0.1,0.1,0.1,0.1,0.2,0.2c0.4,0.4,1,0.7,1.6,0.7c0.8,0,1.5-0.6,1.8-1.3
					c0.2-0.6,0.2-1.3-0.1-1.9C85,75.2,85.3,73.5,84.2,72.2z"/>
				<path class="st306" d="M81.6,75.5c-0.1,0.1-0.2,0.3-0.4,0.4c-0.4,0.3-1,0.4-1.5,0.1c-0.4-0.3-0.5-1-0.3-1.4
					C80.4,72.8,82.6,74.1,81.6,75.5z"/>
				<path class="st305" d="M88.4,85.2c-0.1-1.4-1.2-2.4-2.6-2.4c-0.5,0-1,0.2-1.4,0.5c-0.3-1.1-1.3-1.9-2.5-1.9
					c-1.4,0.1-2.4,1.2-2.4,2.6c0,0.7,0.4,1.4,0.9,1.8c-0.8,0.4-1.3,1.3-1.3,2.3c0.1,1.4,1.2,2.4,2.6,2.4c0.5,0,1-0.2,1.3-0.5
					c0.5,0.5,1.1,0.7,1.8,0.7c1.4-0.1,2.4-1.2,2.4-2.6c0-0.2-0.1-0.5-0.1-0.7C88,87,88.5,86.1,88.4,85.2z"/>
				<path class="st306" d="M84.4,86.7c0,0.5-0.5,0.9-1,0.9c-0.4,0-0.8-0.2-1-0.5c0-0.1-0.1-0.2-0.1-0.3
					C82.1,85.5,84.6,85.1,84.4,86.7z"/>
			</g>
			<g>
				<path class="st307" d="M59.3,92.6c-0.2-1.3-0.1-2.9,1.2-3.5c0.8-0.4,1.9-0.3,2.7,0.1c0.8,0.4,1.4,1.1,1.8,1.8
					c1.2,1.7,5.7,9.3,1.7,10.1C63.1,101.9,59.7,94.8,59.3,92.6z"/>
				<path class="st307" d="M83.6,95.7c0.2-0.2,0.4-0.4,0.5-0.7c0.2-0.8-0.6-1.4-1.4-1.6c-1.5-0.3-3.1,0.2-4.4,0.9
					c-1.6,0.9-6.7,4.5-2.1,4.4C78.9,98.6,81.6,97.6,83.6,95.7z"/>
				<path class="st307" d="M69.8,93.3c0-0.6,0-1.3,0.3-1.9c0.3-0.6,0.8-1.1,1.4-1.2c0.7-0.1,1.4,0.5,1.7,1.2
					c0.3,0.7,0.3,1.5,0.2,2.2c-0.2,1.6-0.8,3.2-1.6,4.6c-0.9,1.6-1.5,1-1.7-0.5C69.9,96.3,69.8,94.8,69.8,93.3z"/>
			</g>
		</g>
	</g>
	<g>
		<path class="st304" d="M159.1,77.2c3.3-0.9,6.9-0.6,10.5,2c2.8,2,9.2,12.1-6.2,24.3c-4.8,3.8-10.5,9-15.7,12.3
			c0-1.9,0-6.1,1.1-7.6c0.7-0.9,1.7-1.5,2.6-2.1c4.8-3,9.3-6.5,13.5-10.3c1.8-1.6,3.5-3.5,4.1-5.8c0.7-3-1.1-6.4-4-7.6
			c-2.9-1.2-6.5-0.2-8.5,2.2c-1.9,2.3-2.3,5.6-4.5,7.6C152.4,86.4,151.9,78.9,159.1,77.2z"/>
		<path class="st304" d="M155.7,71.2c0-0.1-0.1-0.3-0.3-0.5c-31.6-5.1-62.5,1.1-62.5,2.5c-0.5,28.6,8.1,42.5,9.8,45.1
			c6.9,10.9,40.4,8.6,44.8,0c0.5-1,1.2-1.8,1.6-2.8C155.4,101.8,157.8,86.2,155.7,71.2z"/>
		<path class="st308" d="M124.5,77.2c15.4-0.9,28.2-3.6,31-6.3c0,0-0.1-0.1-0.1-0.1c-22.8-6.7-57.5-1.4-62.5,2.5
			c-0.1,0.1,0,0.2,0,0.3C95.3,76.2,108.5,78.1,124.5,77.2z"/>
		<path class="st304" d="M141.4,126.8c-1.1,1.1-2.5,1.7-3.8,2.2c-5.7,2.1-20.6,5-28.1-1.5c-2.7-2.3-3.5-6.7-3.8-10.5
			c0.5,0.2,1,0.3,1.5,0.5c1.1,0.4,3-0.1,4.2-0.2c3.3-0.1,6.7-0.3,10-0.4c6.8-0.3,13.7-0.6,20.5-0.8c0.8,0,1.6,0,2.3-0.1
			C145.5,119,143.5,124.8,141.4,126.8z"/>
	</g>
	<g>
		<g>
			<g>
				<path class="st309" d="M118.7,111.6C118.7,111.6,118.7,111.6,118.7,111.6l-2.3,19.7c0,0-20.6,1.2-30.8,9.2l-26.9-15.2
					c0.2-5.5,0.4-21.4,0.4-21.4c0,0.2,28.6,15.6,28.6,15.6C87.8,119.5,118.7,111.6,118.7,111.6z"/>
				<path class="st310" d="M87.7,119.5c0,0-0.1,0-0.1-0.1l-2,21.1c1.3,0.3,30.8-9.2,30.8-9.2l2.6-19.8
					C119,112,87.8,119.5,87.7,119.5z"/>
				<path class="st311" d="M59.1,103.9c-1.1,0.2,26.8,15.2,28.3,16.5c0,0,31.5-8.5,31.5-8.8c0.1-0.8-22.2-10.6-26-12.2
					c-0.5-0.2-1.1-0.3-1.7-0.2C85.5,99.9,62.1,103.4,59.1,103.9z"/>
			</g>
			<g>
				<path class="st309" d="M150.3,131.7C150.3,131.7,150.3,131.7,150.3,131.7l-0.8,19.5c0,0-20.1,2.7-29.5,11.3l-27.4-13
					c-0.2-5.4-1.1-21-1.1-21c0,0.2,29.1,13.2,29.1,13.2C120.6,141.7,150.3,131.7,150.3,131.7z"/>
				<path class="st310" d="M120.6,141.7c0,0-0.1,0-0.1-0.1l-0.4,20.8c1.3,0.2,29.5-11.3,29.5-11.3l1.1-19.5
					C150.6,132,120.6,141.7,120.6,141.7z"/>
				<path class="st312" d="M91.5,128.5c-1.1,0.3,27.4,12.9,28.9,14.1c0,0,30.2-10.6,30.2-10.9c0.1-0.8-22.5-8.8-26.3-10.1
					c-0.5-0.2-1.1-0.2-1.7-0.1C116.9,122.6,94.3,127.8,91.5,128.5z"/>
			</g>
			<g>
				<path class="st309" d="M75.1,113.2C75.1,113.2,75.1,113.2,75.1,113.2l1.2,22.5c0,0-22.9,5.8-32.9,16.8l-32.6-12.3
					c-0.6-0.2-1-0.7-1-1.3c-1-6.9-3.5-22.5-3.5-22.5c0.1,0.2,35.4,11.9,35.4,11.9C41.7,128.3,75.1,113.2,75.1,113.2z"/>
				<path class="st311" d="M41.7,128.3c0,0-0.1,0-0.2-0.1l1.9,24.3c1.5,0.1,29.1-14.5,32.6-16.4c0.2-0.1,0.4-0.4,0.4-0.6l-1-22.4
					C75.5,113.5,41.7,128.3,41.7,128.3z"/>
				<path class="st312" d="M6.3,116.4c-1.2,0.5,33.3,11.8,35.3,13c0,0,33.9-15.9,33.9-16.2c0-0.9-27.2-7.5-31.8-8.6
					c-0.6-0.2-1.3-0.1-2,0.1C35.2,106.5,9.5,115.2,6.3,116.4z"/>
				<path class="st313" d="M44.9,130.1c-0.8,0.4-1.3,1.2-1.2,2.1c0,0,0.8,10.5,1.2,15.4c0.1,1.2,1.3,1.9,2.4,1.3l26.3-13.8
					c0.9-0.5,1.4-1.4,1.3-2.4L74,118.6c-0.1-1.2-1.3-1.9-2.4-1.4L44.9,130.1z"/>
			</g>
			<g>
				<path class="st312" d="M112.8,146.2C112.8,146.2,112.8,146.2,112.8,146.2l-1.8,20.5c0,0-21.3,1.9-31.6,10.5l-27.5-15.3
					c-0.5-0.3-0.8-0.8-0.8-1.3c0-6.3-0.2-20.6-0.2-20.6c0,0.2,30,15.3,30,15.3C81,155.3,112.8,146.2,112.8,146.2z"/>
				<path class="st309" d="M81,155.3c0,0-0.1,0-0.2-0.1l-1.4,21.9c1.4,0.3,31.6-10.5,31.6-10.5l2.1-20.5
					C113.1,146.5,81,155.3,81,155.3z"/>
				<path class="st310" d="M50.9,140.1c-1.2,0.2,28.2,14.9,29.8,16.2c0,0,32.3-9.7,32.4-10c0.1-0.8-23.3-10.3-27.2-11.9
					c-0.6-0.2-1.2-0.3-1.8-0.2C78,135,54,139.4,50.9,140.1z"/>
				<path class="st314" d="M53.1,144.8l0,15.9c0,0.3,0.2,0.5,0.4,0.7l21.8,11.7c0.7,0.4,1.6-0.1,1.7-0.9l1.4-12.2
					c0.2-1.7-0.6-3.3-2.1-4.1l-22.1-11.8C53.7,143.9,53.1,144.3,53.1,144.8z"/>
			</g>
		</g>
	</g>
</g>
</svg>
