<?xml version="1.0" encoding="utf-8"?>
<!-- Generator: Adobe Illustrator 25.0.1, SVG Export Plug-In . SVG Version: 6.00 Build 0)  -->
<svg version="1.1" id="圖層_1" xmlns="http://www.w3.org/2000/svg" xmlns:xlink="http://www.w3.org/1999/xlink" x="0px" y="0px"
	 viewBox="0 0 173.5 200" style="enable-background:new 0 0 173.5 200;" xml:space="preserve">
<style type="text/css">
	.st0{fill:#E5BF1F;}
	.st1{opacity:0.69;fill:url(#SVGID_1_);stroke:#000000;stroke-width:1.498;stroke-miterlimit:10;}
	.st2{fill:#DDB443;}
	.st3{fill:none;stroke:#000000;stroke-width:1.2465;stroke-linecap:round;stroke-linejoin:round;stroke-miterlimit:10;}
	.st4{fill:#231815;}
	.st5{fill:#BC8D24;stroke:#231815;stroke-width:1.498;stroke-linecap:round;stroke-linejoin:round;stroke-miterlimit:10;}
</style>
<g>
	<path class="st0" d="M147.6,91.8c-1.5-5.7-3.6-11.3-6.1-16.6c-4.6-9.9-11.4-19.7-21.6-24.5c-11.6-5.4-21.2-6.5-33.4-5.6
		c-15.2,1.1-36.2,9.5-46,21.9c-17.3,21.8-15.5,54.8,0.3,76.9c9.6,13.4,25.6,20.2,41.7,21c32.3,1.6,65-20.2,67.1-54.1
		C150.1,104.4,149.2,98,147.6,91.8z M102.9,104.2c0.1,2.3-0.3,4.8-1.3,7.3c-1.7,4.3-6.8,6.7-11.1,7.6c-5,1.1-10.3-0.1-12.8-4.9
		C66.2,92.3,102,81.4,102.9,104.2z"/>
	
		<linearGradient id="SVGID_1_" gradientUnits="userSpaceOnUse" x1="-1418.0092" y1="-675.4298" x2="-1334.6548" y2="-556.5016" gradientTransform="matrix(0.9516 -0.3073 0.3073 0.9516 1578.4663 260.6978)">
		<stop  offset="2.790179e-03" style="stop-color:#E7DF00"/>
		<stop  offset="0.1716" style="stop-color:#EAE218;stop-opacity:0.8307"/>
		<stop  offset="0.5287" style="stop-color:#F2EA56;stop-opacity:0.4726"/>
		<stop  offset="1" style="stop-color:#FDF6B0;stop-opacity:0"/>
	</linearGradient>
	<path class="st1" d="M147.6,91.8c-1.5-5.7-3.6-11.3-6.1-16.6c-4.6-9.9-11.4-19.7-21.6-24.5c-11.6-5.4-21.2-6.5-33.4-5.6
		c-15.2,1.1-36.2,9.5-46,21.9c-17.3,21.8-15.5,54.8,0.3,76.9c9.6,13.4,25.6,20.2,41.7,21c32.3,1.6,65-20.2,67.1-54.1
		C150.1,104.4,149.2,98,147.6,91.8z M102.9,104.2c0.1,2.3-0.3,4.8-1.3,7.3c-1.7,4.3-6.8,6.7-11.1,7.6c-5,1.1-10.3-0.1-12.8-4.9
		C66.2,92.3,102,81.4,102.9,104.2z"/>
	<path class="st2" d="M90.6,143.9c-0.4,0.1-1.1,0.1-1.6,0.1c-0.3,0-0.6-0.1-0.7-0.4c0-0.1-0.1-0.1-0.1-0.2c-0.9-1.5-1.7-3-2.5-4.6
		c-0.5-1.2-0.9-3.1-2.5-3c-1.4,0.1-2.9,0.5-4.4,0.7c-0.4,0.1-0.8,0.1-1.1,0.1c0.3-2,0.5-3.9,0.7-5.9c0,0,0,0,0,0
		c0.6-0.1,1.3-0.2,1.9-0.4c0.7-0.1,3.6-0.7,4.4-0.8c0.9-0.2,1.1-0.3,1-1.4c0-0.2-0.2-1.5-0.4-1.7c-0.2-0.5-0.5-0.8-1.5-0.6
		c-0.9,0.2-6.9,1.2-8.4,1.6c-1.3,0.4-6.9,1.4-8.2,1.7c-0.4,0.1-0.8,0.3-1.1,0.5c-0.4,0.2-0.7,0.1-0.7,1c0,0.4,0,0.7,0.1,1
		c0.3,1.5,0.9,1.5,3.4,1.1c0.5-0.1,2.3-0.5,3-0.7c0.9-0.2,1.7-0.4,2.6-0.6c-0.1,0.3-0.3,1.6-0.4,1.9c-0.1,0.4-0.2,1.5-0.3,2.7
		c-0.1,0.6-0.1,0.8-0.2,1.4c-0.3,0.1-0.8,0.2-1,0.3c-1.9,0.5-2.2,0.4-3.4,0.7c-1.2,0.2-1.1,0.4-0.9,1.5c0.3,1.6-0.1,2.3,1.8,1.9
		c1-0.2,2-0.3,3-0.6c-0.1,0-0.2,1.4-0.2,1.5c-0.1,0.7-0.3,1.4-0.4,2.1c0,0.2-0.2,2.3-0.4,2.3c-0.6,0.2-1.2,0.3-1.7,0.5
		c-0.8,0.1-1.6,0.2-2.3,0.4c-1.7,0.4-2,0.4-1.9,1.4c0.1,0.8,0.2,1.2,0.4,2.1c0.2,1.1,1,0.9,2.4,0.6c7-1.6,14.1-2.8,21.2-4
		c0.5-0.1,1-0.2,1.5-0.2c0.5-0.1,0.1-1.7,0-2.8C91.5,144.1,91,143.8,90.6,143.9z M84,144.7c-0.9,0.2-4.3,0.9-5.2,1.1
		c-0.9,0.1-1.7,0.2-2.6,0.4c0.1-0.5,0.2-1.1,0.3-1.6c0.3-1.3,0.5-2.7,0.7-4c0-0.2,0.1-0.4,0.1-0.6c0.9-0.2,3.9-0.7,4.4-0.8
		c0,0,0,0,0,0c0,0,3.1,5.3,3.1,5.3c0,0,0,0.1,0.1,0.1C84.6,144.6,84.3,144.6,84,144.7z"/>
	<path class="st2" d="M125.8,137.1c-0.2-1.1-0.4-2.2-0.7-3.2c-0.4-1.4-0.7-2.8-1-4.2c-0.3-1.6-0.6-3.2-0.9-4.9
		c-0.1-0.8-0.2-1.6-0.3-2.4c0-0.4-0.4-1.5-0.5-1.9c0-0.4-0.2-0.6-0.2-0.8c-0.2-0.8-0.3-0.9-1-0.7c-0.2,0-0.7,0.1-0.9,0.2
		c-0.6,0.3-1.6,0.2-2.3,0.4c-1,0.2-1.9,0.4-2.9,0.6c-2,0.5-3.9,1.1-5.9,1.4c-2,0.4-4.1,0.6-6.1,1c-0.2,0-0.5,0-0.8,0.1
		c-0.7,0.1-1.6,0.2-2.3,0.4c-0.1,0-0.6,0.1-1,0.2c-1.1,0.2-1,0.7-0.7,2c1.1,4.7,1.6,8.6,2.7,12.7c0.3,1.2,0.5,2.6,0.8,3.8
		c0.6,2.7,0.8,3,2.2,2.6c0.8-0.2,1.6-0.4,2.1-1.1c0.2-0.4,0.3-0.8,0.2-1.3c-0.1-0.2-0.3-0.7-0.3-0.7c-0.2-0.7-0.3-1.5-0.5-2.2
		c-0.2-0.9-0.5-1.7-0.7-2.6c1.3-0.3,15.9-2.8,15.9-2.8c0.1,0.4,0.3,1.6,0.4,2c0.1,0.7,0.3,1.4,0.5,2.1c0.2,0.6,0.3,1,0.5,1.5
		c0.4,1.4,1.3,1,2.1,0.7c0.6-0.2,1.5-0.1,1.9-0.7C126.1,139.4,126,138,125.8,137.1z M110.6,131.4c-1.6,0.3-3.1,0.7-4.7,1
		c-0.6,0.1-1.3,0.2-1.9,0.3c-0.4-2-0.7-4-1.2-5.9c0.4-0.1,0.9-0.2,1.3-0.3c0.8-0.2,1.6-0.2,2.4-0.3c0.8-0.2,1.7-0.3,2.5-0.5
		c0.2,0,0.3-0.1,0.5-0.1C109.8,127.5,110.2,129.4,110.6,131.4z M119.9,130.1c-0.2,0-0.4,0.1-0.5,0.1c-0.5,0.1-1,0.1-1.5,0.2
		c-0.8,0.1-1.7,0.2-2.5,0.3c-0.4,0-0.8,0.1-1.1,0.2c-0.1-0.7-0.2-1.5-0.3-2.2c-0.3-1.4-0.6-2.8-0.7-4.2c0.1,0,0.3-0.1,0.4-0.1
		c0.4-0.1,0.8-0.1,1.2-0.2c0.4-0.1,0.8-0.3,1.2-0.4c0.9-0.2,1.7-0.3,2.6-0.5c0.1,0,0.1,0,0.2,0c0,0.1,0.1,0.2,0.1,0.3
		c0.2,0.7,0.4,1.4,0.6,2.1c0.2,0.7,0.2,1.5,0.5,2.2c0.2,0.6,0.3,1.2,0.4,1.8c0,0.1,0,0.2,0.1,0.3
		C120.1,130.1,119.9,130.1,119.9,130.1z"/>
	<g>
		<path class="st3" d="M141.2,122.2c1.6-5.1,2.2-7,2.8-12.3c1.2-9.9-2.9-24.5-8.5-35.3c-5.3-10.3-9.2-14.4-19-19.6
			c-12.3-6.5-29.4-8.3-48.5-1.4c-23.8,8.6-37.8,33.9-34.2,57.3c2.3,14.8,8.4,31.5,20.5,39.9c24.2,16.8,63,10.9,80.7-15.1
			C138.3,131,139.5,127.7,141.2,122.2z"/>
		<g>
			<g>
				<path class="st4" d="M120.9,52.1c4.4,2.5,8.3,5.6,11.5,9.4c3,3.5,5.2,7.5,7.4,11.5c2.7,5,5.3,10.2,7.1,15.7
					c1.8,5.4,2.5,10.8,2.6,16.4c0.1,5.7-0.2,11.4-2.1,16.8c-1.8,5.2-4.6,10.1-7.6,14.6c-5.5,8.3-12.8,15.4-21.7,19.9
					c-9.7,5-20.8,7.3-31.6,7.8c-0.8,0-0.8,1.3,0,1.2c10-0.4,20-2.4,29.1-6.4c9.3-4.1,16.9-10.6,23-18.7c3.3-4.4,6.3-9.3,8.5-14.4
					c2.3-5.3,3.4-10.7,3.6-16.5c0.1-5.8,0-11.6-1.5-17.2c-1.4-5.6-3.7-10.9-6.3-16c-2.5-4.9-5.1-9.8-8.5-14.2
					c-3.5-4.5-7.9-8.2-12.9-11C120.8,50.6,120.2,51.7,120.9,52.1L120.9,52.1z"/>
			</g>
		</g>
		<g>
			<g>
				<path d="M73.5,117.7c-11.6,2.1-23.2,4.2-34.8,6.3c-0.8,0.1-0.5,1.3,0.3,1.2c11.6-2.1,23.2-4.2,34.8-6.3
					C74.6,118.8,74.3,117.6,73.5,117.7L73.5,117.7z"/>
			</g>
		</g>
		<g>
			<g>
				<path d="M108.1,112.3c11.3-2.1,22.5-4.9,33.8-6.7c0.8-0.1,0.5-1.3-0.3-1.2c-11.4,1.7-22.5,4.6-33.8,6.7
					C106.9,111.2,107.3,112.4,108.1,112.3L108.1,112.3z"/>
			</g>
		</g>
		<g>
			<g>
				<path d="M69.3,82.3c-5.4,4.1-8.1,10.4-9.2,16.9c-1.3,7.1-0.1,14.3,1.1,21.4c0.1,0.8,1.3,0.5,1.2-0.3c-1.1-6.7-2.3-13.6-1.1-20.4
					c1-6.2,3.5-12.5,8.7-16.4C70.6,82.9,70,81.8,69.3,82.3L69.3,82.3z"/>
			</g>
		</g>
		<g>
			<g>
				<path d="M73.3,83.6c-2.8,2-5.2,4.5-6.8,7.6c-1.3,2.6-2,5.5-2.6,8.3c-1.4,6.7-0.4,13.6,0.9,20.2c0.2,0.8,1.4,0.5,1.2-0.3
					c-2.3-11.7-3.2-26.9,7.9-34.7C74.6,84.2,74,83.1,73.3,83.6L73.3,83.6z"/>
			</g>
		</g>
		<g>
			<g>
				<path d="M80.2,83.3c3.6-0.8,6.3-3.1,9-5.5c0.4-0.3,0-1.1-0.5-0.9c-3.2,1.3-6.6,1.9-10.1,1.5c-1.5-0.2-3.1-1-4.5,0
					c-1.2,0.9-2.4,1.9-3.5,2.8c-0.3,0.3-0.1,0.8,0.2,0.9c1.2,0.3,2.5,0.6,3.7,0.9C76.4,83.3,78.4,83.6,80.2,83.3
					c0.7-0.1,0.4-1.2-0.3-1.1c-1.8,0.3-3.8-0.1-5.5-0.4c-1.1-0.2-2.2-0.5-3.3-0.8c0.1,0.3,0.2,0.6,0.2,0.9c0.6-0.5,1.2-1,1.8-1.5
					c0.5-0.4,1.1-1,1.7-1.3c0.8-0.4,2,0.1,2.9,0.2c0.7,0.1,1.4,0.2,2,0.2c3.1,0.2,6.2-0.4,9.1-1.6c-0.2-0.3-0.4-0.6-0.5-0.9
					c-2.5,2.2-5.1,4.4-8.5,5.2C79.3,82.4,79.5,83.4,80.2,83.3z"/>
			</g>
		</g>
		<path class="st3" d="M44.5,123.3c-1.2-3.6-10.5-33,11.9-53.4c0.5-0.5,1.3-0.4,1.7,0.1h0c0.4,0.5,0.5,1.2,0,1.7
			c-3.7,4.2-18.8,23.6-9.7,51.1"/>
		<path class="st3" d="M57.7,121c0,0-4.6-14.5-0.7-29.7c4.7-18,22.6-26.4,27.1-28.3c0.5-0.2,0.8-0.9,0.5-1.4l0,0
			c-0.2-0.4-0.8-0.6-1.2-0.4c-2.9,1.3-12.9,6-19.2,12c-7.6,7.3-16.5,21.8-10.5,48.7"/>
		<g>
			<ellipse transform="matrix(0.9947 -0.1032 0.1032 0.9947 -6.2699 9.6465)" class="st3" cx="90.1" cy="65.4" rx="3.2" ry="2.6"/>
			<path class="st3" d="M88.8,65.4c0,0,3.8-0.9,6.8,1.1"/>
		</g>
		<g>
			
				<ellipse transform="matrix(0.2589 -0.9659 0.9659 0.2589 11.0655 146.2128)" class="st3" cx="100.8" cy="65.9" rx="2.6" ry="3.2"/>
			<path class="st3" d="M99.7,65.4c0,0,3.8,0.5,6,3.5"/>
		</g>
		<g>
			
				<ellipse transform="matrix(0.2589 -0.9659 0.9659 0.2589 -4.409121e-02 143.8284)" class="st3" cx="93.7" cy="71.9" rx="2.6" ry="3.2"/>
			<path class="st3" d="M92.6,71.5c0,0,3.8,0.5,6,3.5"/>
		</g>
		<g>
			<ellipse transform="matrix(0.1726 -0.985 0.985 0.1726 26.4289 144.639)" class="st3" cx="99.3" cy="56.6" rx="2.6" ry="3.2"/>
			<path class="st3" d="M98.1,56.2c0,0,3.9,0.2,6.2,2.9"/>
		</g>
		<g>
			
				<ellipse transform="matrix(0.4091 -0.9125 0.9125 0.4091 7.9371 138.0626)" class="st3" cx="110.6" cy="62.9" rx="2.6" ry="3.2"/>
			<path class="st3" d="M109.5,62.2c0,0,3.7,1.1,5.3,4.4"/>
		</g>
		<g>
			
				<ellipse transform="matrix(0.5507 -0.8347 0.8347 0.5507 -10.948 126.7887)" class="st3" cx="112.3" cy="73.6" rx="2.6" ry="3.2"/>
			<path class="st3" d="M111.4,72.7c0,0,3.5,1.7,4.6,5.2"/>
		</g>
		<g>
			
				<ellipse transform="matrix(0.8112 -0.5848 0.5848 0.8112 -19.232 84.1322)" class="st3" cx="120.7" cy="71.8" rx="2.6" ry="3.2"/>
			<path class="st3" d="M120.1,70.8c0,0,2.6,2.8,2.4,6.5"/>
		</g>
		<g>
			<ellipse transform="matrix(0.8236 -0.5672 0.5672 0.8236 -27.1482 82.6827)" class="st3" cx="119.3" cy="85" rx="2.6" ry="3.2"/>
			<path class="st3" d="M118.8,83.9c0,0,2.6,2.9,2.3,6.5"/>
		</g>
		<g>
			
				<ellipse transform="matrix(0.8236 -0.5672 0.5672 0.8236 -23.8494 72.3554)" class="st3" cx="104.4" cy="74.5" rx="2.6" ry="3.2"/>
			<path class="st3" d="M103.8,73.4c0,0,2.6,2.9,2.3,6.5"/>
		</g>
		<g>
			
				<ellipse transform="matrix(0.9988 -4.879449e-02 4.879449e-02 0.9988 -2.6774 4.3663)" class="st3" cx="88.1" cy="57" rx="3.2" ry="2.6"/>
			<path class="st3" d="M86.9,56.9c0,0,3.8-0.7,6.7,1.5"/>
		</g>
		<g>
			<g>
				<path class="st4" d="M87.3,91.7c-5.7,0.9-10.8,5.6-12,11.3c-0.8,3.8,0,8.4,1.9,11.7c1.7,2.9,5.2,4.6,8.4,5.1
					c0.7,0.1,1-1,0.3-1.1c-3-0.5-6.3-2-7.8-4.7c-1.8-3.1-2.5-7.5-1.6-11c1.3-5.2,5.8-9.3,11.1-10.1C88.3,92.6,88,91.5,87.3,91.7
					L87.3,91.7z"/>
			</g>
		</g>
		<g>
			<g>
				<path d="M105,95.2c-3.6-6.2-11.3-9-18.2-7.8c-7.5,1.3-13.8,7.4-15.2,14.9c-1.4,7.6,1.9,17,9.5,20c4.1,1.6,8.8,0.9,12.9-0.1
					c3.8-0.9,7.7-2.6,10.2-5.8c2.3-2.9,3.3-6.7,3.3-10.4C107.6,102.3,107,98.2,105,95.2c-0.4-0.7-1.5,0-1.1,0.6
					c1.6,2.4,2.1,5.5,2.3,8.4c0.2,3.1-0.2,6.3-1.6,9c-1.6,3.3-4.4,5.4-7.8,6.7c-3.6,1.4-7.8,2.2-11.6,2c-8.2-0.5-13-8.8-12.8-16.4
					c0.2-7.4,5.2-14,12.2-16.2c6.9-2.2,15.5,0.2,19.2,6.6C104.3,96.5,105.4,95.9,105,95.2L105,95.2z"/>
			</g>
		</g>
	</g>
	<path class="st5" d="M90.7,143.9c-0.4,0.1-1.1,0.1-1.6,0.1c-0.3,0-0.6-0.1-0.7-0.4c0-0.1-0.1-0.1-0.1-0.2c-0.9-1.5-1.7-3-2.5-4.6
		c-0.5-1.2-0.9-3.1-2.5-3c-1.4,0.1-2.9,0.5-4.4,0.7c-0.4,0.1-0.8,0.1-1.1,0.1c0.3-2,0.5-3.9,0.7-5.9c0,0,0,0,0,0
		c0.6-0.1,1.3-0.2,1.9-0.4c0.7-0.1,3.6-0.7,4.4-0.8c0.9-0.2,1.1-0.3,1-1.4c0-0.2-0.2-1.5-0.4-1.7c-0.2-0.5-0.5-0.8-1.5-0.6
		c-0.9,0.2-6.9,1.2-8.4,1.6c-1.3,0.4-6.9,1.4-8.2,1.7c-0.4,0.1-0.8,0.3-1.1,0.5c-0.4,0.2-0.7,0.1-0.7,1c0,0.4,0,0.7,0.1,1
		c0.3,1.5,0.9,1.5,3.4,1.1c0.5-0.1,2.3-0.5,3-0.7c0.9-0.2,1.7-0.4,2.6-0.6c-0.1,0.3-0.3,1.6-0.4,1.9c-0.1,0.4-0.2,1.5-0.3,2.7
		c-0.1,0.6-0.1,0.8-0.2,1.4c-0.3,0.1-0.8,0.2-1,0.3c-1.9,0.5-2.2,0.4-3.4,0.7c-1.2,0.2-1.1,0.4-0.9,1.5c0.3,1.6-0.1,2.3,1.8,1.9
		c1-0.2,2-0.3,3-0.6c-0.1,0-0.2,1.4-0.2,1.5c-0.1,0.7-0.3,1.4-0.4,2.1c0,0.2-0.2,2.3-0.4,2.3c-0.6,0.2-1.2,0.3-1.7,0.5
		c-0.8,0.1-1.6,0.2-2.3,0.4c-1.7,0.4-2,0.4-1.9,1.4c0.1,0.8,0.2,1.2,0.4,2.1c0.2,1.1,1,0.9,2.4,0.6c7-1.6,14.1-2.8,21.2-4
		c0.5-0.1,1-0.2,1.5-0.2c0.5-0.1,0.1-1.7,0-2.8C91.6,144.2,91.1,143.9,90.7,143.9z M84.1,144.8c-0.9,0.2-4.3,0.9-5.2,1.1
		c-0.9,0.1-1.7,0.2-2.6,0.4c0.1-0.5,0.2-1.1,0.3-1.6c0.3-1.3,0.5-2.7,0.7-4c0-0.2,0.1-0.4,0.1-0.6c0.9-0.2,3.9-0.7,4.4-0.8
		c0,0,0,0,0,0c0,0,3.1,5.3,3.1,5.3c0,0,0,0.1,0.1,0.1C84.7,144.7,84.4,144.7,84.1,144.8z"/>
	<path class="st5" d="M125.9,137.2c-0.2-1.1-0.4-2.2-0.7-3.2c-0.4-1.4-0.7-2.8-1-4.2c-0.3-1.6-0.6-3.2-0.9-4.9
		c-0.1-0.8-0.2-1.6-0.3-2.4c0-0.4-0.4-1.5-0.5-1.9c0-0.4-0.2-0.6-0.2-0.8c-0.2-0.8-0.3-0.9-1-0.7c-0.2,0-0.7,0.1-0.9,0.2
		c-0.6,0.3-1.6,0.2-2.3,0.4c-1,0.2-1.9,0.4-2.9,0.6c-2,0.5-3.9,1.1-5.9,1.4c-2,0.4-4.1,0.6-6.1,1c-0.2,0-0.5,0-0.8,0.1
		c-0.7,0.1-1.6,0.2-2.3,0.4c-0.1,0-0.6,0.1-1,0.2c-1.1,0.2-1,0.7-0.7,2c1.1,4.7,1.6,8.6,2.7,12.7c0.3,1.2,0.5,2.6,0.8,3.8
		c0.6,2.7,0.8,3,2.2,2.6c0.8-0.2,1.6-0.4,2.1-1.1c0.2-0.4,0.3-0.8,0.2-1.3c-0.1-0.2-0.3-0.7-0.3-0.7c-0.2-0.7-0.3-1.5-0.5-2.2
		c-0.2-0.9-0.5-1.7-0.7-2.6c1.3-0.3,15.9-2.8,15.9-2.8c0.1,0.4,0.3,1.6,0.4,2c0.1,0.7,0.3,1.4,0.5,2.1c0.2,0.6,0.3,1,0.5,1.5
		c0.4,1.4,1.3,1,2.1,0.7c0.6-0.2,1.5-0.1,1.9-0.7C126.2,139.5,126.1,138.1,125.9,137.2z M110.6,131.5c-1.6,0.3-3.1,0.7-4.7,1
		c-0.6,0.1-1.3,0.2-1.9,0.3c-0.4-2-0.7-4-1.2-5.9c0.4-0.1,0.9-0.2,1.3-0.3c0.8-0.2,1.6-0.2,2.4-0.3c0.8-0.2,1.7-0.3,2.5-0.5
		c0.2,0,0.3-0.1,0.5-0.1C109.9,127.6,110.3,129.5,110.6,131.5z M120,130.2c-0.2,0-0.4,0.1-0.5,0.1c-0.5,0.1-1,0.1-1.5,0.2
		c-0.8,0.1-1.7,0.2-2.5,0.3c-0.4,0-0.8,0.1-1.1,0.2c-0.1-0.7-0.2-1.5-0.3-2.2c-0.3-1.4-0.6-2.8-0.7-4.2c0.1,0,0.3-0.1,0.4-0.1
		c0.4-0.1,0.8-0.1,1.2-0.2c0.4-0.1,0.8-0.3,1.2-0.4c0.9-0.2,1.7-0.3,2.6-0.5c0.1,0,0.1,0,0.2,0c0,0.1,0.1,0.2,0.1,0.3
		c0.2,0.7,0.4,1.4,0.6,2.1c0.2,0.7,0.2,1.5,0.5,2.2c0.2,0.6,0.3,1.2,0.4,1.8c0,0.1,0,0.2,0.1,0.3C120.2,130.1,120,130.2,120,130.2z"
		/>
</g>
</svg>
