<?xml version="1.0" encoding="utf-8"?>
<!-- Generator: Adobe Illustrator 25.0.1, SVG Export Plug-In . SVG Version: 6.00 Build 0)  -->
<svg version="1.1" id="圖層_1" xmlns="http://www.w3.org/2000/svg" xmlns:xlink="http://www.w3.org/1999/xlink" x="0px" y="0px"
	 viewBox="0 0 166.2 97.5" style="enable-background:new 0 0 166.2 97.5;" xml:space="preserve">
<style type="text/css">
	.st0{fill:none;stroke:#FFFFFF;stroke-width:5;stroke-linecap:round;stroke-linejoin:round;stroke-miterlimit:10;}
	.st1{fill:#B79F70;}
	.st2{fill:#FFFFFF;}
</style>
<g>
	<line class="st0" x1="75.3" y1="57.7" x2="75.3" y2="79.4"/>
	<line class="st0" x1="84.8" y1="62.6" x2="84.8" y2="84.3"/>
	<line class="st0" x1="94.3" y1="68.6" x2="94.3" y2="90.3"/>
</g>
<g>
	<g>
		<circle class="st1" cx="83.1" cy="70.9" r="25"/>
	</g>
	<g>
		<path class="st2" d="M82.9,81.2c-0.7,0-1.4-0.3-1.9-0.8l-12-12c-1.1-1.1-1.1-2.8,0-3.8c1.1-1.1,2.8-1.1,3.9,0l10.1,10.1l10.5-10.5
			c1.1-1.1,2.8-1.1,3.8,0c1.1,1.1,1.1,2.8,0,3.8L84.8,80.4C84.3,80.9,83.6,81.2,82.9,81.2z"/>
	</g>
</g>
</svg>
