<?xml version="1.0" encoding="utf-8"?>
<!-- Generator: Adobe Illustrator 24.3.0, SVG Export Plug-In . SVG Version: 6.00 Build 0)  -->
<svg version="1.1" id="圖層_1" xmlns="http://www.w3.org/2000/svg" xmlns:xlink="http://www.w3.org/1999/xlink" x="0px" y="0px"
	 viewBox="0 0 137.2 75.5" style="enable-background:new 0 0 137.2 75.5;" xml:space="preserve">
<style type="text/css">
	.st0{fill:#EAEAEA;}
	.st1{fill:#22767F;}
	.st2{fill:#EADAC5;}
	.st3{fill:#3358A2;}
	.st4{fill:#D5D5D5;}
	.st5{fill:#DBAC7F;stroke:#040000;stroke-linecap:round;stroke-linejoin:round;stroke-miterlimit:10;}
	.st6{fill:#DBAC7F;}
	.st7{fill:#040000;}
	.st8{fill:none;stroke:#040000;stroke-linecap:round;stroke-linejoin:round;stroke-miterlimit:10;}
	.st9{fill:#A87979;}
	.st10{fill:#A87979;stroke:#040000;stroke-miterlimit:10;}
	.st11{fill:#D2DBE0;stroke:#040000;stroke-miterlimit:10;}
	.st12{fill:#61473A;stroke:#040000;stroke-miterlimit:10;}
	.st13{fill:#FFFFFF;}
	.st14{fill:#DBA777;stroke:#000000;stroke-width:0.8643;stroke-miterlimit:10;}
	.st15{fill:#B98352;stroke:#000000;stroke-width:0.8643;stroke-miterlimit:10;}
	.st16{fill:none;stroke:#000000;stroke-width:0.7891;stroke-miterlimit:10;}
	.st17{fill:#313535;stroke:#040000;stroke-linecap:round;stroke-linejoin:round;stroke-miterlimit:10;}
	.st18{fill:#FFFFFF;stroke:#FFFFFF;stroke-width:0.8391;stroke-miterlimit:10;}
	.st19{fill:#FFA486;}
	.st20{fill:#FFA486;stroke:#000000;stroke-miterlimit:10;}
	.st21{fill:#F7EBEB;stroke:#000000;stroke-miterlimit:10;}
	.st22{fill:#36303A;}
	.st23{fill:#6A433E;stroke:#000000;stroke-miterlimit:10;}
	.st24{fill:#FFA99B;stroke:#000000;stroke-miterlimit:10;}
	.st25{fill:#6A433E;}
	.st26{fill:#FFFFFF;stroke:#000000;stroke-linecap:round;stroke-linejoin:round;stroke-miterlimit:10;}
	.st27{fill:#F4EB73;stroke:#000000;stroke-miterlimit:10;}
	.st28{fill:#FFA99B;stroke:#000000;stroke-linecap:round;stroke-linejoin:round;stroke-miterlimit:10;}
	.st29{fill:#D96252;}
	.st30{fill:#D96252;stroke:#000000;stroke-miterlimit:10;}
	.st31{fill:#FFA486;stroke:#000000;stroke-width:1.0766;stroke-linecap:round;stroke-linejoin:round;stroke-miterlimit:10;}
	.st32{fill:#EFD2AA;}
	.st33{fill:#36303A;stroke:#000000;stroke-miterlimit:10;}
	.st34{fill:#86524D;stroke:#000000;stroke-miterlimit:10;}
	.st35{fill:#86524D;}
	.st36{fill:#6F5E68;stroke:#000000;stroke-miterlimit:10;}
	.st37{fill:#E9E9E9;stroke:#000000;stroke-width:1.0553;stroke-miterlimit:10;}
	.st38{fill:#537A95;stroke:#000000;stroke-width:1.0553;stroke-miterlimit:10;}
	.st39{fill:none;stroke:#000000;stroke-linecap:round;stroke-linejoin:round;stroke-miterlimit:10;}
	.st40{stroke:#000000;stroke-width:0.8013;stroke-miterlimit:10;}
	.st41{fill:#1A1817;stroke:#000000;stroke-width:0.8013;stroke-miterlimit:10;}
	.st42{fill:#FFC856;stroke:#000000;stroke-width:0.8013;stroke-miterlimit:10;}
	.st43{fill:#FAFBF7;stroke:#000000;stroke-width:0.8013;stroke-miterlimit:10;}
	.st44{fill:#928985;stroke:#000000;stroke-width:0.8013;stroke-miterlimit:10;}
	.st45{fill:#0D0D0D;stroke:#000000;stroke-width:0.8013;stroke-miterlimit:10;}
	.st46{fill:#515151;}
	.st47{fill:#9B3635;}
	.st48{fill:#DCB2CD;}
	.st49{fill:#FFFFFF;stroke:#040000;stroke-linecap:round;stroke-linejoin:round;stroke-miterlimit:10;}
	.st50{fill:#75A1A4;stroke:#040000;stroke-miterlimit:10;}
	.st51{fill:#2F6A6E;stroke:#040000;stroke-miterlimit:10;}
	.st52{fill:#D0B3C7;stroke:#040000;stroke-miterlimit:10;}
	.st53{fill:#AF959A;stroke:#040000;stroke-miterlimit:10;}
	.st54{fill:#FFFFFF;stroke:#040000;stroke-width:0.9715;stroke-linecap:round;stroke-linejoin:round;stroke-miterlimit:10;}
	.st55{fill:#5C866F;stroke:#040000;stroke-width:0.75;stroke-miterlimit:10;}
	.st56{fill:#97B4A4;stroke:#040000;stroke-width:0.75;stroke-miterlimit:10;}
	.st57{fill:#789D87;stroke:#040000;stroke-width:0.75;stroke-miterlimit:10;}
	.st58{stroke:#000000;stroke-width:30;stroke-linecap:round;stroke-linejoin:round;stroke-miterlimit:10;}
	.st59{fill:none;stroke:#000000;stroke-width:30;stroke-linecap:round;stroke-linejoin:round;stroke-miterlimit:10;}
	.st60{fill:#F8D6BC;stroke:#040000;stroke-miterlimit:10;}
	.st61{fill:#E6B282;stroke:#040000;stroke-miterlimit:10;}
	.st62{fill:#FFE5CF;stroke:#040000;stroke-width:0.7253;stroke-miterlimit:10;}
	.st63{fill:#938862;stroke:#040000;stroke-width:0.7253;stroke-miterlimit:10;}
	.st64{fill:#98B3C8;stroke:#040000;stroke-width:0.7253;stroke-miterlimit:10;}
	.st65{fill:#FFFFFF;stroke:#040000;stroke-width:0.7253;stroke-miterlimit:10;}
	.st66{fill:#F7EEE9;stroke:#040000;stroke-width:0.7253;stroke-miterlimit:10;}
	.st67{fill:#FC8A89;stroke:#040000;stroke-width:0.7253;stroke-miterlimit:10;}
	.st68{fill:#FFBB57;stroke:#040000;stroke-width:0.7253;stroke-miterlimit:10;}
	.st69{fill:#E7AD56;stroke:#040000;stroke-width:0.7253;stroke-miterlimit:10;}
	.st70{fill:#E6B282;stroke:#040000;stroke-width:0.7253;stroke-miterlimit:10;}
	.st71{fill:#F4DDBE;stroke:#040000;stroke-width:0.75;stroke-miterlimit:10;}
	.st72{fill:#FFA99B;stroke:#040000;stroke-width:0.75;stroke-miterlimit:10;}
	.st73{fill:#36303A;stroke:#040000;stroke-width:0.75;stroke-miterlimit:10;}
	.st74{fill:#554E59;}
	.st75{opacity:0.54;fill:#F7EBEB;}
	.st76{fill:#6A433E;stroke:#040000;stroke-width:0.75;stroke-miterlimit:10;}
	.st77{fill:#FFA99B;stroke:#040000;stroke-width:0.75;stroke-linecap:round;stroke-linejoin:round;stroke-miterlimit:10;}
	.st78{fill:#020202;}
	.st79{fill:#DB9A7D;stroke:#040000;stroke-width:0.75;stroke-miterlimit:10;}
	.st80{fill:#6F5E68;stroke:#040000;stroke-width:0.75;stroke-miterlimit:10;}
	.st81{fill:#FFA99B;}
	.st82{fill:#DD6A5B;stroke:#040000;stroke-width:0.5;stroke-miterlimit:10;}
	.st83{fill:#EFD2AA;stroke:#040000;stroke-width:0.5;stroke-miterlimit:10;}
	.st84{fill:#FFFFFF;stroke:#040000;stroke-width:0.5;stroke-miterlimit:10;}
	.st85{fill:#E2C295;stroke:#040000;stroke-width:0.5;stroke-miterlimit:10;}
	.st86{fill:#F7EBEB;stroke:#040000;stroke-width:0.5;stroke-miterlimit:10;}
	.st87{fill:#6F5E68;stroke:#040000;stroke-width:0.75;stroke-linecap:round;stroke-linejoin:round;stroke-miterlimit:10;}
	.st88{fill:#DB9A7D;}
	.st89{fill:#DD6A5B;stroke:#040000;stroke-width:0.75;stroke-miterlimit:10;}
	.st90{fill:#FFFFFF;stroke:#040000;stroke-width:0.75;stroke-miterlimit:10;}
	.st91{fill:#7B94B9;stroke:#040000;stroke-width:0.75;stroke-miterlimit:10;}
	.st92{fill:#6F5E61;stroke:#000000;stroke-width:1.1524;stroke-miterlimit:10;}
	.st93{fill:#DFCEC6;stroke:#000000;stroke-width:1.1524;stroke-miterlimit:10;}
	.st94{fill:#36303A;stroke:#000000;stroke-width:1.1524;stroke-miterlimit:10;}
	.st95{fill:#36303A;stroke:#000000;stroke-width:1.3348;stroke-miterlimit:10;}
	.st96{fill:#F7EFEB;stroke:#000000;stroke-width:1.3348;stroke-miterlimit:10;}
	.st97{fill:#6F5E61;stroke:#000000;stroke-width:1.1524;stroke-linecap:round;stroke-linejoin:round;stroke-miterlimit:10;}
	.st98{fill:#36303A;stroke:#000000;stroke-width:1.1524;stroke-linecap:round;stroke-linejoin:round;stroke-miterlimit:10;}
	.st99{fill:#D0D0D0;stroke:#000000;stroke-width:1.1524;stroke-linecap:round;stroke-linejoin:round;stroke-miterlimit:10;}
	.st100{fill:#905851;stroke:#000000;stroke-width:1.1524;stroke-miterlimit:10;}
	.st101{fill:#F4D1B4;stroke:#000000;stroke-width:1.1524;stroke-miterlimit:10;}
	.st102{fill:#F7EFEB;}
	.st103{fill:#733832;stroke:#000000;stroke-width:1.1524;stroke-miterlimit:10;}
	.st104{fill:#DBA777;stroke:#000000;stroke-width:1.1524;stroke-miterlimit:10;}
	.st105{fill:#DBA777;}
	.st106{fill:#905851;}
	.st107{fill:#E7E7E7;stroke:#000000;stroke-linecap:round;stroke-linejoin:round;stroke-miterlimit:10;}
	.st108{fill:#954039;}
	.st109{fill:none;stroke:#000000;stroke-width:1.2726;stroke-linecap:round;stroke-linejoin:round;stroke-miterlimit:10;}
	.st110{fill:#954039;stroke:#000000;stroke-miterlimit:10;}
	.st111{fill:#905851;stroke:#000000;stroke-width:1.1524;stroke-linecap:round;stroke-linejoin:round;stroke-miterlimit:10;}
	.st112{fill:#ACABA9;stroke:#000000;stroke-miterlimit:10;}
	.st113{fill:#020202;stroke:#000000;stroke-miterlimit:10;}
	.st114{clip-path:url(#SVGID_2_);}
	.st115{fill:#FFFFFF;stroke:#040000;stroke-width:1.1054;stroke-miterlimit:10;}
	.st116{fill:#FFFFFF;stroke:#040000;stroke-width:1.1054;stroke-linecap:round;stroke-linejoin:round;stroke-miterlimit:10;}
	.st117{fill:#F3F3F3;stroke:#040000;stroke-width:1.1054;stroke-linecap:round;stroke-linejoin:round;stroke-miterlimit:10;}
	.st118{fill:#C5C5C5;stroke:#040000;stroke-width:1.1054;stroke-linecap:round;stroke-linejoin:round;stroke-miterlimit:10;}
	.st119{clip-path:url(#SVGID_4_);}
	.st120{fill:#D7B579;stroke:#040000;stroke-width:1.1054;stroke-linecap:round;stroke-linejoin:round;stroke-miterlimit:10;}
	.st121{fill:#131414;stroke:#040000;stroke-width:1.1054;stroke-linecap:round;stroke-linejoin:round;stroke-miterlimit:10;}
	.st122{fill:#3B3F3F;stroke:#040000;stroke-width:1.1054;stroke-linecap:round;stroke-linejoin:round;stroke-miterlimit:10;}
	.st123{fill:#D7B579;stroke:#040000;stroke-width:1.1054;stroke-miterlimit:10;}
	.st124{opacity:0.5;fill:#FFFFFF;}
	.st125{fill:#966E6E;stroke:#040000;stroke-miterlimit:10;}
	.st126{fill:#2B1D1D;}
	.st127{fill:#522E2E;}
	.st128{clip-path:url(#SVGID_8_);}
	.st129{fill:#FFFFFF;stroke:#000000;stroke-miterlimit:10;}
	.st130{fill:#22767F;stroke:#000000;stroke-width:0.8559;stroke-miterlimit:10;}
	.st131{fill:none;stroke:#000000;stroke-width:0.8559;stroke-miterlimit:10;}
	.st132{fill:#F7F0F0;stroke:#000000;stroke-miterlimit:10;}
	.st133{fill:#666666;stroke:#666666;stroke-miterlimit:10;}
	.st134{fill:#DD6A5B;stroke:#000000;stroke-linecap:round;stroke-linejoin:round;stroke-miterlimit:10;}
	.st135{fill:#98B3C8;stroke:#000000;stroke-linecap:round;stroke-linejoin:round;stroke-miterlimit:10;}
	.st136{fill:#75A2A5;stroke:#000000;stroke-width:1.0824;stroke-miterlimit:10;}
	.st137{fill:#2F6A6E;stroke:#000000;stroke-width:1.0824;stroke-miterlimit:10;}
	.st138{fill:#382732;stroke:#000000;stroke-width:1.0824;stroke-miterlimit:10;}
	.st139{fill:#FFFFFF;stroke:#000000;stroke-width:1.0824;stroke-miterlimit:10;}
	.st140{clip-path:url(#SVGID_12_);}
	.st141{fill:#EFDBBF;stroke:#000000;stroke-miterlimit:10;}
	.st142{fill:#98B3C8;stroke:#000000;stroke-miterlimit:10;}
	.st143{fill:#F7F0F0;stroke:#000000;stroke-width:1.6756;stroke-miterlimit:10;}
	.st144{fill:none;stroke:#000000;stroke-width:2;stroke-miterlimit:10;}
	.st145{fill:#FFFFFF;stroke:#000000;stroke-width:2;stroke-linecap:round;stroke-linejoin:round;stroke-miterlimit:10;}
	.st146{opacity:0.5;fill:#479CA0;}
	.st147{clip-path:url(#SVGID_16_);}
	.st148{fill:#D5D5D5;stroke:#000000;stroke-width:0.8559;stroke-miterlimit:10;}
	.st149{fill:#E5E5E5;stroke:#E5E5E5;stroke-miterlimit:10;}
	.st150{fill:#D7B579;stroke:#000000;stroke-linecap:round;stroke-linejoin:round;stroke-miterlimit:10;}
	.st151{clip-path:url(#SVGID_20_);}
	.st152{fill:#CE7C78;stroke:#000000;stroke-miterlimit:10;}
	.st153{fill:#D7B579;stroke:#000000;stroke-miterlimit:10;}
	.st154{fill:#D8D8D8;stroke:#000000;stroke-width:2.17;stroke-miterlimit:10;}
	.st155{fill:#0D0D0D;stroke:#000000;stroke-width:0.75;stroke-miterlimit:10;}
	.st156{fill:#FFC956;stroke:#000000;stroke-width:0.75;stroke-miterlimit:10;}
	.st157{fill:#FBFCF8;stroke:#000000;stroke-width:0.75;stroke-miterlimit:10;}
	.st158{fill:#1A1817;stroke:#000000;stroke-width:0.75;stroke-miterlimit:10;}
	.st159{fill:#938A86;stroke:#000000;stroke-width:0.75;stroke-miterlimit:10;}
	.st160{stroke:#000000;stroke-width:0.75;stroke-miterlimit:10;}
	.st161{fill:#938862;stroke:#040000;stroke-width:0.8707;stroke-miterlimit:10;}
	.st162{fill:#736638;stroke:#040000;stroke-width:0.8707;stroke-miterlimit:10;}
	.st163{fill:#97B4A4;stroke:#000000;stroke-linecap:round;stroke-linejoin:round;stroke-miterlimit:10;}
	.st164{fill:#789D87;stroke:#000000;stroke-linecap:round;stroke-linejoin:round;stroke-miterlimit:10;}
	.st165{fill:#905851;stroke:#000000;stroke-linecap:round;stroke-linejoin:round;stroke-miterlimit:10;}
	.st166{fill:#DFCEC6;stroke:#000000;stroke-linecap:round;stroke-linejoin:round;stroke-miterlimit:10;}
	.st167{fill:#B0969B;stroke:#000000;stroke-width:3;stroke-miterlimit:10;}
	.st168{fill:#6F5E61;stroke:#000000;stroke-width:1.3651;stroke-miterlimit:10;}
	.st169{fill:#DFCEC6;stroke:#000000;stroke-width:1.3651;stroke-miterlimit:10;}
	.st170{fill:#36303A;stroke:#000000;stroke-width:1.3651;stroke-miterlimit:10;}
	.st171{fill:#36303A;stroke:#000000;stroke-linecap:round;stroke-linejoin:round;stroke-miterlimit:10;}
	.st172{fill:#F2E9EE;stroke:#000000;stroke-linecap:round;stroke-linejoin:round;stroke-miterlimit:10;}
	.st173{fill:#C1817E;stroke:#000000;stroke-width:0.6146;stroke-miterlimit:10;}
	.st174{fill:#ACABA9;stroke:#000000;stroke-width:0.6146;stroke-miterlimit:10;}
	.st175{fill:#020202;stroke:#000000;stroke-width:0.6146;stroke-miterlimit:10;}
	.st176{fill:#61372B;}
	.st177{fill:#E5B891;stroke:#040000;stroke-miterlimit:10;}
	.st178{fill:#DFB69E;stroke:#040000;stroke-width:0.7279;stroke-miterlimit:10;}
	.st179{fill:#A56656;stroke:#040000;stroke-width:0.9617;stroke-miterlimit:10;}
	.st180{fill:#FFA486;stroke:#000000;stroke-width:0.9093;stroke-miterlimit:10;}
	.st181{fill:#382732;stroke:#000000;stroke-width:0.7891;stroke-miterlimit:10;}
	.st182{fill:#382732;}
	.st183{fill:#FF9975;}
	.st184{fill:#6F5E61;stroke:#000000;stroke-width:0.7891;stroke-miterlimit:10;}
	.st185{fill:none;stroke:#040000;stroke-miterlimit:10;}
	.st186{fill:#313535;stroke:#040000;stroke-width:1.0065;stroke-linecap:round;stroke-linejoin:round;stroke-miterlimit:10;}
	.st187{fill:#FFFFFF;stroke:#FFFFFF;stroke-width:0.8446;stroke-miterlimit:10;}
	.st188{fill:#FFFFFF;stroke:#000000;stroke-width:0.7891;stroke-miterlimit:10;}
	.st189{fill:#86524D;stroke:#000000;stroke-width:0.9093;stroke-miterlimit:10;}
	.st190{fill:#FFFFFF;stroke:#000000;stroke-width:0.9093;stroke-linecap:round;stroke-linejoin:round;stroke-miterlimit:10;}
	.st191{fill:#36303A;stroke:#000000;stroke-width:0.7891;stroke-miterlimit:10;}
	.st192{fill:#6A433E;stroke:#000000;stroke-width:0.8804;stroke-miterlimit:10;}
	.st193{fill:#FFA99B;stroke:#000000;stroke-width:0.8804;stroke-miterlimit:10;}
	.st194{fill:#FFFFFF;stroke:#000000;stroke-width:0.8804;stroke-linecap:round;stroke-linejoin:round;stroke-miterlimit:10;}
	.st195{fill:#FFA99B;stroke:#000000;stroke-width:0.8804;stroke-linecap:round;stroke-linejoin:round;stroke-miterlimit:10;}
	.st196{fill:#E9E9E9;stroke:#000000;stroke-width:0.8328;stroke-miterlimit:10;}
	.st197{fill:#537A95;stroke:#000000;stroke-width:0.8328;stroke-miterlimit:10;}
	.st198{fill:#FF9975;stroke:#000000;stroke-width:0.7891;stroke-miterlimit:10;}
	.st199{fill:#EFDBBF;stroke:#000000;stroke-width:0.7891;stroke-miterlimit:10;}
	.st200{fill:#AF959A;stroke:#000000;stroke-linecap:round;stroke-linejoin:round;stroke-miterlimit:10;}
	.st201{fill:#AF959A;}
	.st202{fill:#FFA486;stroke:#000000;stroke-width:0.7947;stroke-miterlimit:10;}
	.st203{fill:#382732;stroke:#000000;stroke-width:0.6897;stroke-miterlimit:10;}
	.st204{fill:#6F5E61;stroke:#000000;stroke-width:0.6897;stroke-miterlimit:10;}
	.st205{fill:none;stroke:#040000;stroke-width:0.874;stroke-miterlimit:10;}
	.st206{fill:#313535;stroke:#040000;stroke-width:1.0909;stroke-linecap:round;stroke-linejoin:round;stroke-miterlimit:10;}
	.st207{fill:#FFFFFF;stroke:#FFFFFF;stroke-width:0.9154;stroke-miterlimit:10;}
	.st208{fill:#FFFFFF;stroke:#000000;stroke-width:0.6897;stroke-miterlimit:10;}
	.st209{fill:#86524D;stroke:#000000;stroke-width:0.7947;stroke-miterlimit:10;}
	.st210{fill:#FFFFFF;stroke:#000000;stroke-width:0.7947;stroke-linecap:round;stroke-linejoin:round;stroke-miterlimit:10;}
	.st211{fill:#36303A;stroke:#000000;stroke-width:0.6897;stroke-miterlimit:10;}
	.st212{fill:#E9E9E9;stroke:#000000;stroke-width:1.0991;stroke-miterlimit:10;}
	.st213{fill:#537A95;stroke:#000000;stroke-width:1.0991;stroke-miterlimit:10;}
	.st214{fill:#FFA486;stroke:#000000;stroke-width:1.3866;stroke-linecap:round;stroke-linejoin:round;stroke-miterlimit:10;}
	.st215{clip-path:url(#SVGID_22_);}
	.st216{fill:#FFFFFF;stroke:#040000;stroke-width:1.1773;stroke-miterlimit:10;}
	.st217{fill:#FFFFFF;stroke:#040000;stroke-width:1.1773;stroke-linecap:round;stroke-linejoin:round;stroke-miterlimit:10;}
	.st218{fill:#F3F3F3;stroke:#040000;stroke-width:1.1773;stroke-linecap:round;stroke-linejoin:round;stroke-miterlimit:10;}
	.st219{fill:#C5C5C5;stroke:#040000;stroke-width:1.1773;stroke-linecap:round;stroke-linejoin:round;stroke-miterlimit:10;}
	.st220{clip-path:url(#SVGID_24_);}
	.st221{fill:#D7B579;stroke:#040000;stroke-width:1.1773;stroke-linecap:round;stroke-linejoin:round;stroke-miterlimit:10;}
	.st222{fill:#131414;stroke:#040000;stroke-width:1.1773;stroke-linecap:round;stroke-linejoin:round;stroke-miterlimit:10;}
	.st223{fill:#3B3F3F;stroke:#040000;stroke-width:1.1773;stroke-linecap:round;stroke-linejoin:round;stroke-miterlimit:10;}
	.st224{fill:#D7B579;stroke:#040000;stroke-width:1.1773;stroke-miterlimit:10;}
	.st225{stroke:#000000;stroke-width:1.5136;stroke-miterlimit:10;}
	.st226{fill:#1A1817;stroke:#000000;stroke-width:1.5136;stroke-miterlimit:10;}
	.st227{fill:#FFC856;stroke:#000000;stroke-width:1.5136;stroke-miterlimit:10;}
	.st228{fill:#FAFBF7;stroke:#000000;stroke-width:1.5136;stroke-miterlimit:10;}
	.st229{fill:#928985;stroke:#000000;stroke-width:1.5136;stroke-miterlimit:10;}
	.st230{fill:#0D0D0D;stroke:#000000;stroke-width:1.5136;stroke-miterlimit:10;}
	.st231{fill:#36303A;stroke:#000000;stroke-width:2.2957;stroke-miterlimit:10;}
	.st232{fill:#F7EFEB;stroke:#000000;stroke-width:2.2957;stroke-miterlimit:10;}
	.st233{fill:#954039;stroke:#000000;stroke-width:1.7199;stroke-miterlimit:10;}
	.st234{fill:#ACABA9;stroke:#000000;stroke-width:1.7199;stroke-miterlimit:10;}
	.st235{fill:#020202;stroke:#000000;stroke-width:1.7199;stroke-miterlimit:10;}
	.st236{fill:#905851;stroke:#000000;stroke-width:1.982;stroke-miterlimit:10;}
	.st237{fill:#F4D1B4;stroke:#000000;stroke-width:1.982;stroke-miterlimit:10;}
	.st238{fill:#36303A;stroke:#000000;stroke-width:1.982;stroke-miterlimit:10;}
	.st239{fill:#733832;stroke:#000000;stroke-width:1.982;stroke-miterlimit:10;}
	.st240{fill:#DFCEC6;stroke:#000000;stroke-width:1.982;stroke-miterlimit:10;}
	.st241{fill:#DBA777;stroke:#000000;stroke-width:1.982;stroke-miterlimit:10;}
	.st242{fill:#E7E7E7;stroke:#000000;stroke-width:1.7199;stroke-linecap:round;stroke-linejoin:round;stroke-miterlimit:10;}
	.st243{fill:#FFFFFF;stroke:#000000;stroke-width:1.7199;stroke-linecap:round;stroke-linejoin:round;stroke-miterlimit:10;}
	.st244{fill:none;stroke:#000000;stroke-width:2.1888;stroke-linecap:round;stroke-linejoin:round;stroke-miterlimit:10;}
	.st245{fill:#905851;stroke:#000000;stroke-width:1.982;stroke-linecap:round;stroke-linejoin:round;stroke-miterlimit:10;}
	.st246{fill:#FFFFFF;stroke:#040000;stroke-width:2.3181;stroke-linecap:round;stroke-linejoin:round;stroke-miterlimit:10;}
	.st247{fill:#75A1A4;stroke:#040000;stroke-width:2.3181;stroke-miterlimit:10;}
	.st248{fill:#2F6A6E;stroke:#040000;stroke-width:2.3181;stroke-miterlimit:10;}
	.st249{fill:#D0B3C7;stroke:#040000;stroke-width:2.3181;stroke-miterlimit:10;}
	.st250{fill:#AF959A;stroke:#040000;stroke-width:2.3181;stroke-miterlimit:10;}
	.st251{fill:none;stroke:#040000;stroke-width:2.3181;stroke-linecap:round;stroke-linejoin:round;stroke-miterlimit:10;}
	.st252{fill:#FFFFFF;stroke:#040000;stroke-width:2.2519;stroke-linecap:round;stroke-linejoin:round;stroke-miterlimit:10;}
	.st253{fill:#5C866F;stroke:#040000;stroke-width:1.7385;stroke-miterlimit:10;}
	.st254{fill:#97B4A4;stroke:#040000;stroke-width:1.7385;stroke-miterlimit:10;}
	.st255{fill:#789D87;stroke:#040000;stroke-width:1.7385;stroke-miterlimit:10;}
	.st256{fill:#F8D6BC;stroke:#040000;stroke-width:1.46;stroke-miterlimit:10;}
	.st257{fill:#E6B282;stroke:#040000;stroke-width:1.46;stroke-miterlimit:10;}
	.st258{fill:#FFE5CF;stroke:#040000;stroke-width:1.3043;stroke-miterlimit:10;}
	.st259{fill:#938862;stroke:#040000;stroke-width:1.3043;stroke-miterlimit:10;}
	.st260{fill:#98B3C8;stroke:#040000;stroke-width:1.3043;stroke-miterlimit:10;}
	.st261{fill:#FFFFFF;stroke:#040000;stroke-width:1.3043;stroke-miterlimit:10;}
	.st262{fill:#F7EEE9;stroke:#040000;stroke-width:1.3043;stroke-miterlimit:10;}
	.st263{fill:#FC8A89;stroke:#040000;stroke-width:1.3043;stroke-miterlimit:10;}
	.st264{fill:#FFBB57;stroke:#040000;stroke-width:1.3043;stroke-miterlimit:10;}
	.st265{fill:#E7AD56;stroke:#040000;stroke-width:1.3043;stroke-miterlimit:10;}
	.st266{fill:#E6B282;stroke:#040000;stroke-width:1.3043;stroke-miterlimit:10;}
	.st267{fill:#F4DDBE;stroke:#040000;stroke-width:1.3488;stroke-miterlimit:10;}
	.st268{fill:#FFA99B;stroke:#040000;stroke-width:1.3488;stroke-miterlimit:10;}
	.st269{fill:#36303A;stroke:#040000;stroke-width:1.3488;stroke-miterlimit:10;}
	.st270{fill:#6A433E;stroke:#040000;stroke-width:1.3488;stroke-miterlimit:10;}
	.st271{fill:#FFA99B;stroke:#040000;stroke-width:1.3488;stroke-linecap:round;stroke-linejoin:round;stroke-miterlimit:10;}
	.st272{fill:#DB9A7D;stroke:#040000;stroke-width:1.3488;stroke-miterlimit:10;}
	.st273{fill:#6F5E68;stroke:#040000;stroke-width:1.3488;stroke-miterlimit:10;}
	.st274{fill:#DD6A5B;stroke:#040000;stroke-width:0.8992;stroke-miterlimit:10;}
	.st275{fill:#EFD2AA;stroke:#040000;stroke-width:0.8992;stroke-miterlimit:10;}
	.st276{fill:#FFFFFF;stroke:#040000;stroke-width:0.8992;stroke-miterlimit:10;}
	.st277{fill:#E2C295;stroke:#040000;stroke-width:0.8992;stroke-miterlimit:10;}
	.st278{fill:#F7EBEB;stroke:#040000;stroke-width:0.8992;stroke-miterlimit:10;}
	.st279{fill:#6F5E68;stroke:#040000;stroke-width:1.3488;stroke-linecap:round;stroke-linejoin:round;stroke-miterlimit:10;}
	.st280{fill:#DD6A5B;stroke:#040000;stroke-width:1.3488;stroke-miterlimit:10;}
	.st281{fill:#FFFFFF;stroke:#040000;stroke-width:1.3488;stroke-miterlimit:10;}
	.st282{fill:#7B94B9;stroke:#040000;stroke-width:1.3488;stroke-miterlimit:10;}
	.st283{clip-path:url(#SVGID_26_);}
	.st284{clip-path:url(#SVGID_28_);}
	.st285{display:none;}
	.st286{fill:#DD6A5B;stroke:#040000;stroke-width:0.9986;stroke-miterlimit:10;}
	.st287{fill:#EFD2AA;stroke:#040000;stroke-width:0.9986;stroke-miterlimit:10;}
	.st288{fill:#E2C295;stroke:#040000;stroke-width:0.9986;stroke-miterlimit:10;}
</style>
<g>
	<g>
		<path class="st125" d="M130.3,72.4c-2.8,1.5-3.2-2.5-3.6-4.2c-0.9-4-2.4-8-3-12.1c-0.3-2.8,0.4-5.5,0.3-8.3
			c-0.1-2.6-1.2-4.2-2-6.6c-1.3-3.7-0.9-9-4.9-11.1c-0.7-0.3-8-2.4-8.1-2.2c-1,2.7-1.7,5.5-2.5,8.2c-0.4,1.4-1.4,2.8-0.8,4.3
			c0.2,0.6,0.6,1.1,1.1,1.6c0.6,0.6,1.4,0.6,1.8,1.5c0.4,0.7,0.4,1.6,0.4,2.4c0,1.7-0.4,3.3-0.4,5c-0.1,3.2-0.2,6.4-0.3,9.7
			c-0.1,1.5,0,3.8-1.8,4.3c-1.3,0.4-2.3-0.6-2.8-1.7c-1-2.4-0.5-5.6-0.6-8.1c-0.1-3.4-0.6-6.7-2.6-9.5c-0.1-0.1-0.1-0.2-0.1-0.3
			c-1.4-1.7-3.3-3.1-4.7-4.9c-1.1-1.3-1.9-2.9-2.5-4.5c-0.7-2-1.1-4.1-1-6.1c-0.7,0-1.4,0.1-2.1,0.2c-8.1,0.6-16.3,1.6-24.4,0.4
			c-0.1,0-0.1,0-0.2-0.1c-4.7,8.8-10,17.3-15.8,25.4c-0.9,2.7-2.3,6.6-5.6,6.9c-2.7,0.2-3-2.7-2.2-4.7c2-4.8,5.3-9.2,7.7-13.8
			c2.4-4.6,2.7-9.7,2.7-14.8c-2.1,0-20.6,0-24.7-0.1c-4.9-0.2-9.6,1.4-14.5,1.1c-2.9,2.2-7.1,4.8-8.2,1.2c-1.6-4.9,6.2-5.6,8.9-6.1
			c3.5-0.7,6.8-1.8,10.2-2.8c3-0.9,6-1.7,8.9-2.9c5.6-2.2,10.6-5.5,16.5-6.8c-0.6-0.1-0.6-1,0-1c1.8,0.1,3.5-0.4,5.2-1
			c1.5-0.6,3-1.2,4.6-1.5c0,0,0,0,0,0c2.3-0.5,4.4-0.3,6.6-0.1c0.7,0.1,1.3,0.1,2,0.2c0.1,0,0.3,0,0.4,0C69.7,9.4,71,8.6,72.4,8
			c0.2-0.1,0.5-0.2,0.7-0.3c1.9-0.8,3.8-1.5,5.8-1.9c1.4-0.3,2.9-0.4,4.4-0.5c3.2-0.2,6.4,0,9.5,0.4c4.3,0.5,8.6,1.8,12,4.5
			c3.2,2.5,5.5,5.9,7.8,9.2c2.3,2.5,5.1,4.5,8,6.2c8.7,5.1,8.5,15.3,8.8,24.2c0.2,4.6,2.6,8.7,3,13.3
			C132.6,65.3,132.9,71,130.3,72.4z"/>
	</g>
	<g>
		<path class="st125" d="M52.5,13.5c-0.7-2.1-2.4-3.4-4.2-4.4c0,0,0,0,0-0.1c-0.4-1.9-1.6-6.4-4.2-6.3c-1.2,0.1-1.4,1.7-1.6,2.5
			c-0.3,1.2-0.7,2.5-0.6,3.7c-2.2,0-4.4,0.6-6.3,1.6c-1.1,0.6-2.1,1.3-3,2.1c-0.7-0.4-1.7-0.5-2.4-0.7c-0.9-0.3-3.5-1.5-4.5-0.8
			c-0.8,0.6-0.3,2.2,0.1,2.9c0.6,1,1.2,2.1,2,3c1,1.1,0.9,1.6,1.1,3c0,0.2,0.1,0.5,0.1,0.7c0.4,2,1,4,2.7,5.3
			c3,2.3,7.1,2.5,10.6,1.5c4-1.1,7-3.6,9.1-7.1C52.6,18.5,53.3,15.9,52.5,13.5z"/>
	</g>
	<g>
		<path class="st126" d="M46.5,15.8c-0.3,0.7-1,1.2-1.8,1.1c-0.6,0-0.6,0.9,0,1c1.2,0.1,2.3-0.7,2.7-1.8
			C47.6,15.5,46.7,15.3,46.5,15.8z"/>
	</g>
	<g>
		<path class="st126" d="M36.3,19.9c-0.4,0.7-1.2,0.9-2,0.7c-0.6-0.2-0.8,0.8-0.2,0.9c1.2,0.3,2.4-0.2,3-1.2
			C37.5,19.8,36.6,19.3,36.3,19.9z"/>
	</g>
	<g>
		<path class="st126" d="M44.3,22.6c0,0.4-0.7,0.8-1.1,0.7c-0.1-0.3-0.2-0.5-0.3-0.8c0.4-0.3,0.8-0.9,0.8-1.4c0-0.3-0.2-0.5-0.5-0.6
			c-0.1,0-0.2,0-0.3,0c-0.6,0-1.7,0.4-2.2,0.8c-0.4,0.4-0.3,1.1,0.2,1.3c0.3,0.1,0.7,0.2,1,0.2c0.2,0.3,0.4,0.8,0.3,1
			c-0.2,0.3-0.9,0.2-1.2,0.1c-0.6-0.2-0.8,0.7-0.3,0.9c0.6,0.2,1.8,0.1,2.2-0.4c0-0.1,0.1-0.1,0.1-0.2c1,0.2,2-0.7,2.1-1.6
			C45.4,21.9,44.4,21.9,44.3,22.6z"/>
	</g>
	<g>
		<path class="st127" d="M94.6,18.3c-1.8,2.8-2.9,5.9-3.3,9.2c-0.1,0.6,0.9,0.6,1,0c0.4-3.2,1.4-6.1,3.1-8.7
			C95.8,18.3,94.9,17.8,94.6,18.3z"/>
	</g>
	<g>
		<path class="st127" d="M53.4,24c0.1-0.6-0.8-0.9-0.9-0.3c-0.2,1.3-0.3,2.7-0.2,4c0.1,0.6,1,0.6,1,0C53.1,26.5,53.1,25.3,53.4,24z"
			/>
	</g>
	<g>
		<path class="st13" d="M35.3,24.4c-2.8,1-5.5,2.2-8.1,3.6c-0.6,0.3-0.1,1.1,0.5,0.8c2.6-1.3,5.2-2.5,7.9-3.5
			C36.1,25.1,35.9,24.2,35.3,24.4z"/>
	</g>
	<g>
		<path class="st13" d="M35.9,26.2c-2.3,2-4.6,4-6.9,6c-0.5,0.4,0.2,1.1,0.7,0.7c2.3-2,4.6-4,6.9-6C37.1,26.5,36.4,25.8,35.9,26.2z"
			/>
	</g>
	<g>
		<path class="st13" d="M59.6,19c-3.4,0.6-6.9,1.2-10.3,1.8c-0.6,0.1-0.4,1,0.3,0.9c3.4-0.6,6.9-1.2,10.3-1.8
			C60.5,19.8,60.2,18.9,59.6,19z"/>
	</g>
	<g>
		<path class="st13" d="M56.9,14.7c-2.7,1.2-5.4,2.4-8.1,3.6c-0.6,0.3-0.1,1.1,0.5,0.8c2.7-1.2,5.4-2.4,8.1-3.6
			C58,15.2,57.5,14.4,56.9,14.7z"/>
	</g>
	<g>
		<path class="st127" d="M43.7,5.1c-0.3,1.2-0.4,2.3-0.2,3.5c0.1,0.6,1,0.6,1,0c-0.1-1.1,0-2.2,0.2-3.3C44.8,4.7,43.8,4.5,43.7,5.1z
			"/>
	</g>
</g>
</svg>
