<?xml version="1.0" encoding="utf-8"?>
<!-- Generator: Adobe Illustrator 24.3.0, SVG Export Plug-In . SVG Version: 6.00 Build 0)  -->
<svg version="1.1" id="圖層_1" xmlns="http://www.w3.org/2000/svg" xmlns:xlink="http://www.w3.org/1999/xlink" x="0px" y="0px"
	 viewBox="0 0 645.9 255.1" style="enable-background:new 0 0 645.9 255.1;" xml:space="preserve">
<style type="text/css">
	.st0{fill:#EADAC5;}
	.st1{fill:#3358A2;}
	.st2{fill:#D5D5D5;}
	.st3{fill:#DBAC7F;stroke:#040000;stroke-linecap:round;stroke-linejoin:round;stroke-miterlimit:10;}
	.st4{fill:#DBAC7F;}
	.st5{fill:#040000;}
	.st6{fill:none;stroke:#040000;stroke-linecap:round;stroke-linejoin:round;stroke-miterlimit:10;}
	.st7{fill:#A87979;}
	.st8{fill:#A87979;stroke:#040000;stroke-miterlimit:10;}
	.st9{fill:#D2DBE0;stroke:#040000;stroke-miterlimit:10;}
	.st10{fill:#61473A;stroke:#040000;stroke-miterlimit:10;}
	.st11{fill:#22767F;}
	.st12{fill:#FFFFFF;}
	.st13{fill:#DBA777;stroke:#000000;stroke-width:0.8643;stroke-miterlimit:10;}
	.st14{fill:#B98352;stroke:#000000;stroke-width:0.8643;stroke-miterlimit:10;}
	.st15{fill:none;stroke:#000000;stroke-width:0.7891;stroke-miterlimit:10;}
	.st16{fill:#313535;stroke:#040000;stroke-linecap:round;stroke-linejoin:round;stroke-miterlimit:10;}
	.st17{fill:#FFFFFF;stroke:#FFFFFF;stroke-width:0.8391;stroke-miterlimit:10;}
	.st18{fill:#FFA486;}
	.st19{fill:#FFA486;stroke:#000000;stroke-miterlimit:10;}
	.st20{fill:#F7EBEB;stroke:#000000;stroke-miterlimit:10;}
	.st21{fill:#36303A;}
	.st22{fill:#6A433E;stroke:#000000;stroke-miterlimit:10;}
	.st23{fill:#FFA99B;stroke:#000000;stroke-miterlimit:10;}
	.st24{fill:#6A433E;}
	.st25{fill:#FFFFFF;stroke:#000000;stroke-linecap:round;stroke-linejoin:round;stroke-miterlimit:10;}
	.st26{fill:#F4EB73;stroke:#000000;stroke-miterlimit:10;}
	.st27{fill:#FFA99B;stroke:#000000;stroke-linecap:round;stroke-linejoin:round;stroke-miterlimit:10;}
	.st28{fill:#D96252;}
	.st29{fill:#D96252;stroke:#000000;stroke-miterlimit:10;}
	.st30{fill:#FFA486;stroke:#000000;stroke-width:1.0766;stroke-linecap:round;stroke-linejoin:round;stroke-miterlimit:10;}
	.st31{fill:#EFD2AA;}
	.st32{fill:#36303A;stroke:#000000;stroke-miterlimit:10;}
	.st33{fill:#86524D;stroke:#000000;stroke-miterlimit:10;}
	.st34{fill:#86524D;}
	.st35{fill:#6F5E68;stroke:#000000;stroke-miterlimit:10;}
	.st36{fill:#E9E9E9;stroke:#000000;stroke-width:1.0553;stroke-miterlimit:10;}
	.st37{fill:#537A95;stroke:#000000;stroke-width:1.0553;stroke-miterlimit:10;}
	.st38{fill:none;stroke:#000000;stroke-linecap:round;stroke-linejoin:round;stroke-miterlimit:10;}
	.st39{stroke:#000000;stroke-width:0.8013;stroke-miterlimit:10;}
	.st40{fill:#1A1817;stroke:#000000;stroke-width:0.8013;stroke-miterlimit:10;}
	.st41{fill:#FFC856;stroke:#000000;stroke-width:0.8013;stroke-miterlimit:10;}
	.st42{fill:#FAFBF7;stroke:#000000;stroke-width:0.8013;stroke-miterlimit:10;}
	.st43{fill:#928985;stroke:#000000;stroke-width:0.8013;stroke-miterlimit:10;}
	.st44{fill:#0D0D0D;stroke:#000000;stroke-width:0.8013;stroke-miterlimit:10;}
	.st45{fill:#515151;}
	.st46{fill:#9B3635;}
	.st47{fill:#DCB2CD;}
	.st48{fill:#FFFFFF;stroke:#040000;stroke-linecap:round;stroke-linejoin:round;stroke-miterlimit:10;}
	.st49{fill:#75A1A4;stroke:#040000;stroke-miterlimit:10;}
	.st50{fill:#2F6A6E;stroke:#040000;stroke-miterlimit:10;}
	.st51{fill:#D0B3C7;stroke:#040000;stroke-miterlimit:10;}
	.st52{fill:#AF959A;stroke:#040000;stroke-miterlimit:10;}
	.st53{fill:#FFFFFF;stroke:#040000;stroke-width:0.9715;stroke-linecap:round;stroke-linejoin:round;stroke-miterlimit:10;}
	.st54{fill:#5C866F;stroke:#040000;stroke-width:0.75;stroke-miterlimit:10;}
	.st55{fill:#97B4A4;stroke:#040000;stroke-width:0.75;stroke-miterlimit:10;}
	.st56{fill:#789D87;stroke:#040000;stroke-width:0.75;stroke-miterlimit:10;}
	.st57{stroke:#000000;stroke-width:30;stroke-linecap:round;stroke-linejoin:round;stroke-miterlimit:10;}
	.st58{fill:none;stroke:#000000;stroke-width:30;stroke-linecap:round;stroke-linejoin:round;stroke-miterlimit:10;}
	.st59{fill:#F8D6BC;stroke:#040000;stroke-miterlimit:10;}
	.st60{fill:#E6B282;stroke:#040000;stroke-miterlimit:10;}
	.st61{fill:#FFE5CF;stroke:#040000;stroke-width:0.7253;stroke-miterlimit:10;}
	.st62{fill:#938862;stroke:#040000;stroke-width:0.7253;stroke-miterlimit:10;}
	.st63{fill:#98B3C8;stroke:#040000;stroke-width:0.7253;stroke-miterlimit:10;}
	.st64{fill:#FFFFFF;stroke:#040000;stroke-width:0.7253;stroke-miterlimit:10;}
	.st65{fill:#F7EEE9;stroke:#040000;stroke-width:0.7253;stroke-miterlimit:10;}
	.st66{fill:#FC8A89;stroke:#040000;stroke-width:0.7253;stroke-miterlimit:10;}
	.st67{fill:#FFBB57;stroke:#040000;stroke-width:0.7253;stroke-miterlimit:10;}
	.st68{fill:#E7AD56;stroke:#040000;stroke-width:0.7253;stroke-miterlimit:10;}
	.st69{fill:#E6B282;stroke:#040000;stroke-width:0.7253;stroke-miterlimit:10;}
	.st70{fill:#F4DDBE;stroke:#040000;stroke-width:0.75;stroke-miterlimit:10;}
	.st71{fill:#FFA99B;stroke:#040000;stroke-width:0.75;stroke-miterlimit:10;}
	.st72{fill:#36303A;stroke:#040000;stroke-width:0.75;stroke-miterlimit:10;}
	.st73{fill:#554E59;}
	.st74{opacity:0.54;fill:#F7EBEB;}
	.st75{fill:#6A433E;stroke:#040000;stroke-width:0.75;stroke-miterlimit:10;}
	.st76{fill:#FFA99B;stroke:#040000;stroke-width:0.75;stroke-linecap:round;stroke-linejoin:round;stroke-miterlimit:10;}
	.st77{fill:#020202;}
	.st78{fill:#DB9A7D;stroke:#040000;stroke-width:0.75;stroke-miterlimit:10;}
	.st79{fill:#6F5E68;stroke:#040000;stroke-width:0.75;stroke-miterlimit:10;}
	.st80{fill:#FFA99B;}
	.st81{fill:#DD6A5B;stroke:#040000;stroke-width:0.5;stroke-miterlimit:10;}
	.st82{fill:#EFD2AA;stroke:#040000;stroke-width:0.5;stroke-miterlimit:10;}
	.st83{fill:#FFFFFF;stroke:#040000;stroke-width:0.5;stroke-miterlimit:10;}
	.st84{fill:#E2C295;stroke:#040000;stroke-width:0.5;stroke-miterlimit:10;}
	.st85{fill:#F7EBEB;stroke:#040000;stroke-width:0.5;stroke-miterlimit:10;}
	.st86{fill:#6F5E68;stroke:#040000;stroke-width:0.75;stroke-linecap:round;stroke-linejoin:round;stroke-miterlimit:10;}
	.st87{fill:#DB9A7D;}
	.st88{fill:#DD6A5B;stroke:#040000;stroke-width:0.75;stroke-miterlimit:10;}
	.st89{fill:#FFFFFF;stroke:#040000;stroke-width:0.75;stroke-miterlimit:10;}
	.st90{fill:#7B94B9;stroke:#040000;stroke-width:0.75;stroke-miterlimit:10;}
	.st91{fill:#6F5E61;stroke:#000000;stroke-width:1.1524;stroke-miterlimit:10;}
	.st92{fill:#DFCEC6;stroke:#000000;stroke-width:1.1524;stroke-miterlimit:10;}
	.st93{fill:#36303A;stroke:#000000;stroke-width:1.1524;stroke-miterlimit:10;}
	.st94{fill:#36303A;stroke:#000000;stroke-width:1.3348;stroke-miterlimit:10;}
	.st95{fill:#F7EFEB;stroke:#000000;stroke-width:1.3348;stroke-miterlimit:10;}
	.st96{fill:#6F5E61;stroke:#000000;stroke-width:1.1524;stroke-linecap:round;stroke-linejoin:round;stroke-miterlimit:10;}
	.st97{fill:#36303A;stroke:#000000;stroke-width:1.1524;stroke-linecap:round;stroke-linejoin:round;stroke-miterlimit:10;}
	.st98{fill:#D0D0D0;stroke:#000000;stroke-width:1.1524;stroke-linecap:round;stroke-linejoin:round;stroke-miterlimit:10;}
	.st99{fill:#905851;stroke:#000000;stroke-width:1.1524;stroke-miterlimit:10;}
	.st100{fill:#F4D1B4;stroke:#000000;stroke-width:1.1524;stroke-miterlimit:10;}
	.st101{fill:#F7EFEB;}
	.st102{fill:#733832;stroke:#000000;stroke-width:1.1524;stroke-miterlimit:10;}
	.st103{fill:#DBA777;stroke:#000000;stroke-width:1.1524;stroke-miterlimit:10;}
	.st104{fill:#DBA777;}
	.st105{fill:#905851;}
	.st106{fill:#E7E7E7;stroke:#000000;stroke-linecap:round;stroke-linejoin:round;stroke-miterlimit:10;}
	.st107{fill:#954039;}
	.st108{fill:none;stroke:#000000;stroke-width:1.2726;stroke-linecap:round;stroke-linejoin:round;stroke-miterlimit:10;}
	.st109{fill:#954039;stroke:#000000;stroke-miterlimit:10;}
	.st110{fill:#905851;stroke:#000000;stroke-width:1.1524;stroke-linecap:round;stroke-linejoin:round;stroke-miterlimit:10;}
	.st111{fill:#ACABA9;stroke:#000000;stroke-miterlimit:10;}
	.st112{fill:#020202;stroke:#000000;stroke-miterlimit:10;}
	.st113{clip-path:url(#SVGID_2_);}
	.st114{fill:#FFFFFF;stroke:#040000;stroke-width:1.1054;stroke-miterlimit:10;}
	.st115{fill:#FFFFFF;stroke:#040000;stroke-width:1.1054;stroke-linecap:round;stroke-linejoin:round;stroke-miterlimit:10;}
	.st116{fill:#F3F3F3;stroke:#040000;stroke-width:1.1054;stroke-linecap:round;stroke-linejoin:round;stroke-miterlimit:10;}
	.st117{fill:#C5C5C5;stroke:#040000;stroke-width:1.1054;stroke-linecap:round;stroke-linejoin:round;stroke-miterlimit:10;}
	.st118{clip-path:url(#SVGID_4_);}
	.st119{fill:#D7B579;stroke:#040000;stroke-width:1.1054;stroke-linecap:round;stroke-linejoin:round;stroke-miterlimit:10;}
	.st120{fill:#131414;stroke:#040000;stroke-width:1.1054;stroke-linecap:round;stroke-linejoin:round;stroke-miterlimit:10;}
	.st121{fill:#3B3F3F;stroke:#040000;stroke-width:1.1054;stroke-linecap:round;stroke-linejoin:round;stroke-miterlimit:10;}
	.st122{fill:#D7B579;stroke:#040000;stroke-width:1.1054;stroke-miterlimit:10;}
	.st123{fill:#EAEAEA;}
	.st124{opacity:0.5;fill:#FFFFFF;}
	.st125{fill:#966E6E;stroke:#040000;stroke-miterlimit:10;}
	.st126{fill:#2B1D1D;}
	.st127{fill:#522E2E;}
	.st128{clip-path:url(#SVGID_8_);}
	.st129{fill:#FFFFFF;stroke:#000000;stroke-miterlimit:10;}
	.st130{fill:#22767F;stroke:#000000;stroke-width:0.8559;stroke-miterlimit:10;}
	.st131{fill:none;stroke:#000000;stroke-width:0.8559;stroke-miterlimit:10;}
	.st132{fill:#F7F0F0;stroke:#000000;stroke-miterlimit:10;}
	.st133{fill:#666666;stroke:#666666;stroke-miterlimit:10;}
	.st134{fill:#DD6A5B;stroke:#000000;stroke-linecap:round;stroke-linejoin:round;stroke-miterlimit:10;}
	.st135{fill:#98B3C8;stroke:#000000;stroke-linecap:round;stroke-linejoin:round;stroke-miterlimit:10;}
	.st136{fill:#75A2A5;stroke:#000000;stroke-width:1.0824;stroke-miterlimit:10;}
	.st137{fill:#2F6A6E;stroke:#000000;stroke-width:1.0824;stroke-miterlimit:10;}
	.st138{fill:#382732;stroke:#000000;stroke-width:1.0824;stroke-miterlimit:10;}
	.st139{fill:#FFFFFF;stroke:#000000;stroke-width:1.0824;stroke-miterlimit:10;}
	.st140{clip-path:url(#SVGID_12_);}
	.st141{fill:#EFDBBF;stroke:#000000;stroke-miterlimit:10;}
	.st142{fill:#98B3C8;stroke:#000000;stroke-miterlimit:10;}
	.st143{fill:#F7F0F0;stroke:#000000;stroke-width:1.6756;stroke-miterlimit:10;}
	.st144{fill:none;stroke:#000000;stroke-width:2;stroke-miterlimit:10;}
	.st145{fill:#FFFFFF;stroke:#000000;stroke-width:2;stroke-linecap:round;stroke-linejoin:round;stroke-miterlimit:10;}
	.st146{opacity:0.5;fill:#479CA0;}
	.st147{clip-path:url(#SVGID_16_);}
	.st148{fill:#D5D5D5;stroke:#000000;stroke-width:0.8559;stroke-miterlimit:10;}
	.st149{fill:#E5E5E5;stroke:#E5E5E5;stroke-miterlimit:10;}
	.st150{fill:#D7B579;stroke:#000000;stroke-linecap:round;stroke-linejoin:round;stroke-miterlimit:10;}
	.st151{clip-path:url(#SVGID_20_);}
	.st152{fill:#CE7C78;stroke:#000000;stroke-miterlimit:10;}
	.st153{fill:#D7B579;stroke:#000000;stroke-miterlimit:10;}
	.st154{fill:#D8D8D8;stroke:#000000;stroke-width:2.17;stroke-miterlimit:10;}
	.st155{fill:#0D0D0D;stroke:#000000;stroke-width:0.75;stroke-miterlimit:10;}
	.st156{fill:#FFC956;stroke:#000000;stroke-width:0.75;stroke-miterlimit:10;}
	.st157{fill:#FBFCF8;stroke:#000000;stroke-width:0.75;stroke-miterlimit:10;}
	.st158{fill:#1A1817;stroke:#000000;stroke-width:0.75;stroke-miterlimit:10;}
	.st159{fill:#938A86;stroke:#000000;stroke-width:0.75;stroke-miterlimit:10;}
	.st160{stroke:#000000;stroke-width:0.75;stroke-miterlimit:10;}
	.st161{fill:#938862;stroke:#040000;stroke-width:0.8707;stroke-miterlimit:10;}
	.st162{fill:#736638;stroke:#040000;stroke-width:0.8707;stroke-miterlimit:10;}
	.st163{fill:#97B4A4;stroke:#000000;stroke-linecap:round;stroke-linejoin:round;stroke-miterlimit:10;}
	.st164{fill:#789D87;stroke:#000000;stroke-linecap:round;stroke-linejoin:round;stroke-miterlimit:10;}
	.st165{fill:#905851;stroke:#000000;stroke-linecap:round;stroke-linejoin:round;stroke-miterlimit:10;}
	.st166{fill:#DFCEC6;stroke:#000000;stroke-linecap:round;stroke-linejoin:round;stroke-miterlimit:10;}
	.st167{fill:#B0969B;stroke:#000000;stroke-width:3;stroke-miterlimit:10;}
	.st168{fill:#6F5E61;stroke:#000000;stroke-width:1.3651;stroke-miterlimit:10;}
	.st169{fill:#DFCEC6;stroke:#000000;stroke-width:1.3651;stroke-miterlimit:10;}
	.st170{fill:#36303A;stroke:#000000;stroke-width:1.3651;stroke-miterlimit:10;}
	.st171{fill:#36303A;stroke:#000000;stroke-linecap:round;stroke-linejoin:round;stroke-miterlimit:10;}
	.st172{fill:#F2E9EE;stroke:#000000;stroke-linecap:round;stroke-linejoin:round;stroke-miterlimit:10;}
	.st173{fill:#C1817E;stroke:#000000;stroke-width:0.6146;stroke-miterlimit:10;}
	.st174{fill:#ACABA9;stroke:#000000;stroke-width:0.6146;stroke-miterlimit:10;}
	.st175{fill:#020202;stroke:#000000;stroke-width:0.6146;stroke-miterlimit:10;}
	.st176{fill:#61372B;}
	.st177{fill:#E5B891;stroke:#040000;stroke-miterlimit:10;}
	.st178{fill:#DFB69E;stroke:#040000;stroke-width:0.7279;stroke-miterlimit:10;}
	.st179{fill:#A56656;stroke:#040000;stroke-width:0.9617;stroke-miterlimit:10;}
	.st180{fill:#FFA486;stroke:#000000;stroke-width:0.9093;stroke-miterlimit:10;}
	.st181{fill:#382732;stroke:#000000;stroke-width:0.7891;stroke-miterlimit:10;}
	.st182{fill:#382732;}
	.st183{fill:#FF9975;}
	.st184{fill:#6F5E61;stroke:#000000;stroke-width:0.7891;stroke-miterlimit:10;}
	.st185{fill:none;stroke:#040000;stroke-miterlimit:10;}
	.st186{fill:#313535;stroke:#040000;stroke-width:1.0065;stroke-linecap:round;stroke-linejoin:round;stroke-miterlimit:10;}
	.st187{fill:#FFFFFF;stroke:#FFFFFF;stroke-width:0.8446;stroke-miterlimit:10;}
	.st188{fill:#FFFFFF;stroke:#000000;stroke-width:0.7891;stroke-miterlimit:10;}
	.st189{fill:#86524D;stroke:#000000;stroke-width:0.9093;stroke-miterlimit:10;}
	.st190{fill:#FFFFFF;stroke:#000000;stroke-width:0.9093;stroke-linecap:round;stroke-linejoin:round;stroke-miterlimit:10;}
	.st191{fill:#36303A;stroke:#000000;stroke-width:0.7891;stroke-miterlimit:10;}
	.st192{fill:#6A433E;stroke:#000000;stroke-width:0.8804;stroke-miterlimit:10;}
	.st193{fill:#FFA99B;stroke:#000000;stroke-width:0.8804;stroke-miterlimit:10;}
	.st194{fill:#FFFFFF;stroke:#000000;stroke-width:0.8804;stroke-linecap:round;stroke-linejoin:round;stroke-miterlimit:10;}
	.st195{fill:#FFA99B;stroke:#000000;stroke-width:0.8804;stroke-linecap:round;stroke-linejoin:round;stroke-miterlimit:10;}
	.st196{fill:#E9E9E9;stroke:#000000;stroke-width:0.8328;stroke-miterlimit:10;}
	.st197{fill:#537A95;stroke:#000000;stroke-width:0.8328;stroke-miterlimit:10;}
	.st198{fill:#FF9975;stroke:#000000;stroke-width:0.7891;stroke-miterlimit:10;}
	.st199{fill:#EFDBBF;stroke:#000000;stroke-width:0.7891;stroke-miterlimit:10;}
	.st200{fill:#AF959A;stroke:#000000;stroke-linecap:round;stroke-linejoin:round;stroke-miterlimit:10;}
	.st201{fill:#AF959A;}
	.st202{fill:#FFA486;stroke:#000000;stroke-width:0.7947;stroke-miterlimit:10;}
	.st203{fill:#382732;stroke:#000000;stroke-width:0.6897;stroke-miterlimit:10;}
	.st204{fill:#6F5E61;stroke:#000000;stroke-width:0.6897;stroke-miterlimit:10;}
	.st205{fill:none;stroke:#040000;stroke-width:0.874;stroke-miterlimit:10;}
	.st206{fill:#313535;stroke:#040000;stroke-width:1.0909;stroke-linecap:round;stroke-linejoin:round;stroke-miterlimit:10;}
	.st207{fill:#FFFFFF;stroke:#FFFFFF;stroke-width:0.9154;stroke-miterlimit:10;}
	.st208{fill:#FFFFFF;stroke:#000000;stroke-width:0.6897;stroke-miterlimit:10;}
	.st209{fill:#86524D;stroke:#000000;stroke-width:0.7947;stroke-miterlimit:10;}
	.st210{fill:#FFFFFF;stroke:#000000;stroke-width:0.7947;stroke-linecap:round;stroke-linejoin:round;stroke-miterlimit:10;}
	.st211{fill:#36303A;stroke:#000000;stroke-width:0.6897;stroke-miterlimit:10;}
	.st212{fill:#E9E9E9;stroke:#000000;stroke-width:1.0991;stroke-miterlimit:10;}
	.st213{fill:#537A95;stroke:#000000;stroke-width:1.0991;stroke-miterlimit:10;}
	.st214{fill:#FFA486;stroke:#000000;stroke-width:1.3866;stroke-linecap:round;stroke-linejoin:round;stroke-miterlimit:10;}
	.st215{stroke:#000000;stroke-width:1.5136;stroke-miterlimit:10;}
	.st216{fill:#1A1817;stroke:#000000;stroke-width:1.5136;stroke-miterlimit:10;}
	.st217{fill:#FFC856;stroke:#000000;stroke-width:1.5136;stroke-miterlimit:10;}
	.st218{fill:#FAFBF7;stroke:#000000;stroke-width:1.5136;stroke-miterlimit:10;}
	.st219{fill:#928985;stroke:#000000;stroke-width:1.5136;stroke-miterlimit:10;}
	.st220{fill:#0D0D0D;stroke:#000000;stroke-width:1.5136;stroke-miterlimit:10;}
	.st221{fill:#36303A;stroke:#000000;stroke-width:2.2957;stroke-miterlimit:10;}
	.st222{fill:#F7EFEB;stroke:#000000;stroke-width:2.2957;stroke-miterlimit:10;}
	.st223{fill:#954039;stroke:#000000;stroke-width:1.7199;stroke-miterlimit:10;}
	.st224{fill:#ACABA9;stroke:#000000;stroke-width:1.7199;stroke-miterlimit:10;}
	.st225{fill:#020202;stroke:#000000;stroke-width:1.7199;stroke-miterlimit:10;}
	.st226{fill:#905851;stroke:#000000;stroke-width:1.982;stroke-miterlimit:10;}
	.st227{fill:#F4D1B4;stroke:#000000;stroke-width:1.982;stroke-miterlimit:10;}
	.st228{fill:#36303A;stroke:#000000;stroke-width:1.982;stroke-miterlimit:10;}
	.st229{fill:#733832;stroke:#000000;stroke-width:1.982;stroke-miterlimit:10;}
	.st230{fill:#DFCEC6;stroke:#000000;stroke-width:1.982;stroke-miterlimit:10;}
	.st231{fill:#DBA777;stroke:#000000;stroke-width:1.982;stroke-miterlimit:10;}
	.st232{fill:#E7E7E7;stroke:#000000;stroke-width:1.7199;stroke-linecap:round;stroke-linejoin:round;stroke-miterlimit:10;}
	.st233{fill:#FFFFFF;stroke:#000000;stroke-width:1.7199;stroke-linecap:round;stroke-linejoin:round;stroke-miterlimit:10;}
	.st234{fill:none;stroke:#000000;stroke-width:2.1888;stroke-linecap:round;stroke-linejoin:round;stroke-miterlimit:10;}
	.st235{fill:#905851;stroke:#000000;stroke-width:1.982;stroke-linecap:round;stroke-linejoin:round;stroke-miterlimit:10;}
	.st236{fill:#FFFFFF;stroke:#040000;stroke-width:2.3181;stroke-linecap:round;stroke-linejoin:round;stroke-miterlimit:10;}
	.st237{fill:#75A1A4;stroke:#040000;stroke-width:2.3181;stroke-miterlimit:10;}
	.st238{fill:#2F6A6E;stroke:#040000;stroke-width:2.3181;stroke-miterlimit:10;}
	.st239{fill:#D0B3C7;stroke:#040000;stroke-width:2.3181;stroke-miterlimit:10;}
	.st240{fill:#AF959A;stroke:#040000;stroke-width:2.3181;stroke-miterlimit:10;}
	.st241{fill:none;stroke:#040000;stroke-width:2.3181;stroke-linecap:round;stroke-linejoin:round;stroke-miterlimit:10;}
	.st242{fill:#FFFFFF;stroke:#040000;stroke-width:2.2519;stroke-linecap:round;stroke-linejoin:round;stroke-miterlimit:10;}
	.st243{fill:#5C866F;stroke:#040000;stroke-width:1.7385;stroke-miterlimit:10;}
	.st244{fill:#97B4A4;stroke:#040000;stroke-width:1.7385;stroke-miterlimit:10;}
	.st245{fill:#789D87;stroke:#040000;stroke-width:1.7385;stroke-miterlimit:10;}
	.st246{fill:#F8D6BC;stroke:#040000;stroke-width:1.46;stroke-miterlimit:10;}
	.st247{fill:#E6B282;stroke:#040000;stroke-width:1.46;stroke-miterlimit:10;}
	.st248{fill:#FFE5CF;stroke:#040000;stroke-width:1.3043;stroke-miterlimit:10;}
	.st249{fill:#938862;stroke:#040000;stroke-width:1.3043;stroke-miterlimit:10;}
	.st250{fill:#98B3C8;stroke:#040000;stroke-width:1.3043;stroke-miterlimit:10;}
	.st251{fill:#FFFFFF;stroke:#040000;stroke-width:1.3043;stroke-miterlimit:10;}
	.st252{fill:#F7EEE9;stroke:#040000;stroke-width:1.3043;stroke-miterlimit:10;}
	.st253{fill:#FC8A89;stroke:#040000;stroke-width:1.3043;stroke-miterlimit:10;}
	.st254{fill:#FFBB57;stroke:#040000;stroke-width:1.3043;stroke-miterlimit:10;}
	.st255{fill:#E7AD56;stroke:#040000;stroke-width:1.3043;stroke-miterlimit:10;}
	.st256{fill:#E6B282;stroke:#040000;stroke-width:1.3043;stroke-miterlimit:10;}
	.st257{fill:#F4DDBE;stroke:#040000;stroke-width:1.3488;stroke-miterlimit:10;}
	.st258{fill:#FFA99B;stroke:#040000;stroke-width:1.3488;stroke-miterlimit:10;}
	.st259{fill:#36303A;stroke:#040000;stroke-width:1.3488;stroke-miterlimit:10;}
	.st260{fill:#6A433E;stroke:#040000;stroke-width:1.3488;stroke-miterlimit:10;}
	.st261{fill:#FFA99B;stroke:#040000;stroke-width:1.3488;stroke-linecap:round;stroke-linejoin:round;stroke-miterlimit:10;}
	.st262{fill:#DB9A7D;stroke:#040000;stroke-width:1.3488;stroke-miterlimit:10;}
	.st263{fill:#6F5E68;stroke:#040000;stroke-width:1.3488;stroke-miterlimit:10;}
	.st264{fill:#DD6A5B;stroke:#040000;stroke-width:0.8992;stroke-miterlimit:10;}
	.st265{fill:#EFD2AA;stroke:#040000;stroke-width:0.8992;stroke-miterlimit:10;}
	.st266{fill:#FFFFFF;stroke:#040000;stroke-width:0.8992;stroke-miterlimit:10;}
	.st267{fill:#E2C295;stroke:#040000;stroke-width:0.8992;stroke-miterlimit:10;}
	.st268{fill:#F7EBEB;stroke:#040000;stroke-width:0.8992;stroke-miterlimit:10;}
	.st269{fill:#6F5E68;stroke:#040000;stroke-width:1.3488;stroke-linecap:round;stroke-linejoin:round;stroke-miterlimit:10;}
	.st270{fill:#DD6A5B;stroke:#040000;stroke-width:1.3488;stroke-miterlimit:10;}
	.st271{fill:#FFFFFF;stroke:#040000;stroke-width:1.3488;stroke-miterlimit:10;}
	.st272{fill:#7B94B9;stroke:#040000;stroke-width:1.3488;stroke-miterlimit:10;}
	.st273{clip-path:url(#SVGID_22_);}
	.st274{fill:#FFFFFF;stroke:#040000;stroke-width:1.1773;stroke-miterlimit:10;}
	.st275{fill:#FFFFFF;stroke:#040000;stroke-width:1.1773;stroke-linecap:round;stroke-linejoin:round;stroke-miterlimit:10;}
	.st276{fill:#F3F3F3;stroke:#040000;stroke-width:1.1773;stroke-linecap:round;stroke-linejoin:round;stroke-miterlimit:10;}
	.st277{fill:#C5C5C5;stroke:#040000;stroke-width:1.1773;stroke-linecap:round;stroke-linejoin:round;stroke-miterlimit:10;}
	.st278{clip-path:url(#SVGID_24_);}
	.st279{fill:#D7B579;stroke:#040000;stroke-width:1.1773;stroke-linecap:round;stroke-linejoin:round;stroke-miterlimit:10;}
	.st280{fill:#131414;stroke:#040000;stroke-width:1.1773;stroke-linecap:round;stroke-linejoin:round;stroke-miterlimit:10;}
	.st281{fill:#3B3F3F;stroke:#040000;stroke-width:1.1773;stroke-linecap:round;stroke-linejoin:round;stroke-miterlimit:10;}
	.st282{fill:#D7B579;stroke:#040000;stroke-width:1.1773;stroke-miterlimit:10;}
</style>
<g>
	<g>
		<path class="st132" d="M614.7,238.5c-3.1-2.2-27.1-28.3-33.2-35.6c-3.3-3.9-6.6-7.8-9.9-11.7c-2.2-2.6-4.3-6.2-7.8-7.1
			c-3.8-1-8.5-0.2-12.4-0.1c-5.4,0.1-10.8,0.2-16.1,0.2c-9.1,0.2-18.2,0.3-27.3,0.4c-1.4,0-2.9,0-4.3,0.1c-1,0-1.9,0-2.9,0
			c-17.4,0.3-37.6,0.7-58.1,1h0c-2.5,0-5,0.1-7.5,0.1c-24,0.4-48.1,0.7-68.5,0.9c-1.3,0-2.5,0-3.7,0c-0.9,0-1.8,0-2.8,0
			c-21.4,0.1-44,0.2-66.6,0.2c-2.1,0-4.2,0-6.2,0c-24.4,0.1-48.8,0.1-71.8,0c-2.1,0-4.3,0-6.4,0c-22.8,0-44.1-0.2-62.5-0.4
			c-2.8,0-5.5-0.1-8.1-0.1c-17.1-0.2-31.2-0.5-41.1-1c-9.3-0.4-12.6,5.2-18.7,12.4c-14,16.7-28.3,32.8-44.6,47.4
			c-0.5,0.4-0.1,1.4,0.5,1.3c10.8-0.8,29.6-1.3,53.9-1.6c2.7,0,5.4-0.1,8.3-0.1c27.1-0.3,60.2-0.5,96.4-0.5h6.6
			c28.3,0,58.4,0,88.9,0h6.2c26.9,0,54,0,80.5,0h6.4c30.1,0,59.3-0.1,86.3-0.2c2.3,0,4.5,0,6.7,0c25.3-0.2,48.6-0.4,68.6-0.8
			c2.5,0,5-0.1,7.4-0.1c32.7-0.7,55.7-1.7,63.4-3.3C615.2,239.8,615.2,238.8,614.7,238.5z"/>
	</g>
	<g>
		<path class="st129" d="M146.6,186.7c-13.7,16.1-27.4,32.2-41.2,48.3c-2.8,3.3-5.7,6.7-8.5,10c-2.8,0-5.6,0.1-8.3,0.1
			c4.8-5.6,9.6-11.3,14.4-16.9c11.8-13.9,23.7-27.8,35.5-41.7C141.2,186.6,143.8,186.6,146.6,186.7z"/>
	</g>
	<g>
		<path class="st129" d="M215.5,187c-4.2,19.4-9.4,38.6-15.5,57.5h-6.6c6.3-18.8,11.5-38,15.8-57.5C211.2,187,213.4,187,215.5,187z"
			/>
	</g>
	<g>
		<path class="st129" d="M295.1,244.5h-6.2c-0.5-19.2-1.1-38.3-1.6-57.5c2.1,0,4.2,0,6.2,0C294.1,206.1,294.6,225.3,295.1,244.5z"/>
	</g>
	<g>
		<path class="st129" d="M382.1,244.5h-6.4c-4.8-19.3-9.9-38.6-15.5-57.7c0.9,0,1.8,0,2.8,0c1.2,0,2.5,0,3.7,0
			C372.2,205.9,377.3,225.1,382.1,244.5z"/>
	</g>
	<g>
		<path class="st129" d="M475.1,244.2c-2.2,0-4.5,0-6.7,0c-9.5-20.5-20-40.5-33.2-58.4c2.5,0,5-0.1,7.5-0.1h0
			C455.5,203.8,465.8,223.8,475.1,244.2z"/>
	</g>
	<g>
		<path class="st129" d="M551.1,243.3c-2.4,0-4.9,0.1-7.4,0.1c-2-3-4-6-6.1-9c-11.6-16.7-26.2-32.2-36.8-49.7c1,0,2,0,2.9,0
			c1.4,0,2.9,0,4.3-0.1c10.4,16.3,24.1,31,35,46.7C545.8,235.2,548.5,239.2,551.1,243.3z"/>
	</g>
</g>
<g>
	<path class="st9" d="M622.8,152.2c-1.4-14.1-11.5-18.8-24.4-22.9c-20.4-6.5-43.2-7.5-64.3-4.5c-15.5,2.2-42,5.9-44.9,24.1
		c0,0.3-0.1,0.6-0.1,0.9c-0.1,0.6-0.1,1.2-0.1,1.9c-0.1,7.7-0.7,15.5-0.3,23.2c1.1,21.6,25,34.6,44.8,39.4
		c22.6,5.5,47.1,3.3,67.9-7.1c5.3-2.7,12.4-6.2,15.5-11.5c3.5-6,4.6-12.9,5.5-19.6C623.4,168.1,623.6,160.1,622.8,152.2z"/>
	<g>
		<path class="st10" d="M489.2,147.3c4.7,6.9,12.8,11,20.4,13.8c8.5,3.1,17.4,4.9,26.3,6c10,1.3,20.1,1.8,30.2,1.4
			c9.8-0.4,19.6-1.8,29-4.6c5-1.5,9.8-3.5,14.4-5.9c3.9-2.1,8.3-4.5,10.9-8.2c0.5-0.8,0.9-1.6,1.2-2.5c0.1-0.5-0.6-0.7-0.8-0.2
			c-0.5,2.1-2.1,3.7-3.6,5.1c-1.8,1.5-3.7,2.8-5.7,4c-4.5,2.5-9.2,4.6-14,6.3c-9.2,3.1-18.8,4.7-28.4,5.3
			c-9.8,0.6-19.6,0.3-29.3-0.8c-8.9-1-17.9-2.6-26.5-5.3c-7.8-2.5-16-6-21.6-12.3c-0.7-0.7-1.3-1.5-1.8-2.3
			C489.6,146.5,488.9,146.9,489.2,147.3L489.2,147.3z"/>
	</g>
	<g>
		<path d="M491.4,186.8c5.7,7.1,11.4,12.5,19.6,16.4c8.9,4.3,18.4,7.9,28.1,10c9.3,2,18.9,2.3,28.3,1.3c9.2-1,18.3-3.3,26.8-6.9
			c4.3-1.8,8.4-3.9,12.4-6.3c2-1.2,3.9-2.6,5.9-3.8c1.8-1,3.6-2.3,4.9-3.9c0.7-0.8,1.2-1.7,1.6-2.7c0.2-0.5-0.5-0.9-0.7-0.4
			c-0.8,2-2.2,3.4-3.9,4.7c-1,0.8-2,1.4-3.1,2c-1,0.6-1.9,1.3-2.9,1.9c-3.8,2.5-7.8,4.7-12,6.6c-8.3,3.8-17.2,6.4-26.2,7.7
			c-9.2,1.3-18.7,1.3-27.9-0.3c-9.8-1.7-19.2-5.2-28.2-9.2c-8.1-3.6-13.9-8.5-20-15c-0.8-0.8-1.5-1.7-2.2-2.6
			C491.6,185.9,491.1,186.4,491.4,186.8L491.4,186.8z"/>
	</g>
	<g>
		<path class="st10" d="M558.6,139c-3.6-0.3-7.3,0.3-10.7,1.8c-1.1,0.5-2.4,1.4-2.3,2.9c0.2,1.5,2,1.7,3.2,1.9
			c3.8,0.7,7.7,0.8,11.6,0.3c1.7-0.2,3.4-0.4,5-1c1-0.4,2.4-1.1,2.6-2.3c0.1-0.8-0.6-1.1-1.2-1.4c-0.9-0.4-1.8-0.8-2.7-1.1
			c-2-0.7-4.1-1-6.2-1.1c-0.5,0-0.5,0.8,0,0.8c2.9,0.1,5.8,0.8,8.5,2.1c1.9,1-0.9,2.3-1.8,2.5c-1.4,0.4-2.9,0.6-4.3,0.8
			c-2.9,0.3-5.9,0.3-8.8,0c-0.8-0.1-1.6-0.2-2.4-0.3c-0.6-0.1-1.3-0.2-1.9-0.5c-1-0.4-0.8-1.5-0.1-2.1c0.5-0.5,1.3-0.8,2-1.1
			c3-1.2,6.3-1.7,9.6-1.4C559.1,139.9,559.1,139.1,558.6,139L558.6,139z"/>
	</g>
	<g>
		<path class="st10" d="M574.5,142.4c9.5-1.3,19.2-0.4,28.3,2.6c0.5,0.2,0.7-0.6,0.2-0.8c-9.2-3-19.1-3.9-28.7-2.6
			C573.8,141.8,574,142.5,574.5,142.4L574.5,142.4z"/>
	</g>
	<g>
		<path class="st10" d="M561.3,150.1c0.6,3.3,1.9,6.5,3.9,9.2c0.3,0.4,1,0,0.7-0.4c-1.9-2.7-3.2-5.8-3.8-9
			C562,149.4,561.2,149.6,561.3,150.1L561.3,150.1z"/>
	</g>
	<g>
		<path class="st10" d="M560.8,135.6c0.1-2,1.5-3.8,2.8-5.3c1.2-1.5,2.6-2.9,4-4.1c0.4-0.3-0.2-0.9-0.6-0.6c-1.7,1.4-3.2,3-4.5,4.7
			c-1.2,1.5-2.4,3.2-2.5,5.2C560,136.1,560.8,136.1,560.8,135.6L560.8,135.6z"/>
	</g>
	<g>
		<path class="st10" d="M508,142.3c3.4-1.2,6.6-2,10.2-1.9c3.5,0.1,7,0.8,10.5,1.6c0.5,0.1,0.7-0.6,0.2-0.8
			c-3.5-0.8-7.1-1.5-10.7-1.6c-3.7-0.1-7,0.8-10.4,2C507.4,141.7,507.6,142.5,508,142.3L508,142.3z"/>
	</g>
</g>
<g>
	<g>
		<path class="st136" d="M100.5,18.6c-0.7-2.8-1.9-5.2-4-7.1c-6.9-6.1-20.1-1.4-24.6,5.5c-3.9,6-1.9,13.6-4.1,20.1
			c-2.1,6.3-2.7,12.2-0.2,18.7c2,5.1,7.3,9.3,12.6,8.2c2.7-0.5,4.9-2.3,6.9-4.2c4.6-4.6,8-10.3,10.1-16.5
			C99.4,36.9,102.4,26.5,100.5,18.6z"/>
		<g>
			<path class="st137" d="M81.9,186.6c-0.3,0-0.5-0.2-0.6-0.5c-0.1-0.3-7.7-33-9.6-45.8c-2.1-14.1-2.1-38.7,0-65.6
				c2.3-29,10.4-41.4,10.7-42c0.2-0.3,0.6-0.4,0.9-0.2c0.3,0.2,0.4,0.6,0.2,0.9c-0.1,0.1-8.3,12.8-10.5,41.4
				c-2.1,26.8-2.1,51.2,0,65.3c1.9,12.7,9.5,45.4,9.6,45.7c0.1,0.3-0.1,0.7-0.5,0.7C82,186.6,82,186.6,81.9,186.6z"/>
		</g>
		<path class="st136" d="M140.4,57.8c1.1-4.8,0.7-9.8-2-13.7c-2.7-3.9-7.3-6.2-12-7.1c-10.8-2-22.5,3.6-27.9,13.2
			c-2.7,4.8-3.8,10.3-6.3,15.2c-1.9,3.6-4.5,6.9-5.8,10.8c-3.7,11.7,8,23.6,18.8,25.8c6.4,1.3,13.1,0.2,19-2.6
			c5.9-2.8,11.3-7.9,11.9-14.4c0.5-5.2-2.1-10.5-0.7-15.5C136.6,65.4,139.4,62,140.4,57.8z"/>
		<path class="st136" d="M76.8,92.3c-0.5-3.4-1.3-6.6-2.8-9.1c-1.8-3-4.9-4.9-7.4-7.4c-2.9-3-4.9-7-8.5-9
			c-5.3-2.9-12.3-0.4-16.1,4.2c-3.6,4.4-5.1,10.2-5.8,15.7c-0.8,6.1-1.7,12.4-1.4,18.6c0.3,5.8,1.9,11.8,5.5,16.4
			c3.1,4,7.6,6.9,12.5,8.4c4.9,1.6,10.5,1.8,15-0.7c3.8-2.1,6.4-5.9,7.8-10.1c1.4-4.1,1.7-8.5,1.7-12.9
			C77.3,102.4,77.4,97.2,76.8,92.3z"/>
		<path class="st136" d="M127.7,124.7c-3-3.1-7-5.4-10.8-5.8c-9.1-0.8-20.3,9.5-22.8,17.7c-0.5,1.7-0.7,3.5-0.3,5.2
			c0.7,3,3.2,5.3,6,6.4c2.8,1.1,6,1.2,9,0.9c7.1-0.7,13.9-3.6,19.4-8.1C134.1,136.2,132.1,129.5,127.7,124.7z"/>
		<g>
			<path class="st137" d="M78.4,174.7c-0.3,0-0.6-0.2-0.6-0.5c0-0.1-2-15-11.6-31.7c-9.8-17.2-13.4-50.8-13.1-51.6
				c0.1-0.3,0.5-0.5,0.8-0.4c0.3,0.1,0.5,0.4,0.4,0.7c0,1.6,3.5,34.1,13,50.7c9.7,17,11.7,32,11.7,32.2
				C79,174.4,78.8,174.7,78.4,174.7C78.4,174.7,78.4,174.7,78.4,174.7z"/>
		</g>
		<g>
			<path class="st137" d="M81.9,176.6c-0.3,0-0.6-0.2-0.6-0.5c0-0.1-1.7-13.4,4-26.1c5.7-12.8,29.1-20.4,30.1-20.7
				c0.3-0.1,0.7,0.1,0.8,0.4c0.1,0.3-0.1,0.7-0.4,0.8c-0.2,0.1-23.8,7.8-29.3,20.1c-5.5,12.4-3.9,25.3-3.9,25.4
				C82.6,176.2,82.3,176.5,81.9,176.6C82,176.6,82,176.6,81.9,176.6z"/>
		</g>
		<g>
			<path class="st137" d="M81.7,180c-0.3,0-0.5-0.2-0.6-0.5c-0.3-1.3-6.3-30.9-1.7-47.1c2.7-9.6,7.5-16.4,12.6-23.7
				c3.6-5.2,7.4-10.5,10.6-17.2c7.8-16,16.3-38.3,16.4-38.5c0.1-0.3,0.5-0.5,0.8-0.4c0.3,0.1,0.5,0.5,0.4,0.8
				c-0.1,0.2-8.7,22.6-16.5,38.6c-3.3,6.8-7.1,12.2-10.7,17.4c-5,7.1-9.8,13.9-12.4,23.3c-4.5,16,1.6,46.2,1.7,46.5
				c0.1,0.3-0.1,0.7-0.5,0.7C81.8,180,81.7,180,81.7,180z"/>
		</g>
		<path class="st138" d="M52.7,169.4c-2.4,4.9,0.8,41.6,7.1,46.7c6.3,5.1,34.8,5,39.8,1c4.9-4,10.3-42.6,7.9-47.2
			C105,165.2,55.2,164.5,52.7,169.4z"/>
		<path class="st139" d="M98.9,174.8c-0.2-0.2-0.3-0.4-0.5-0.7c-0.2-0.2-0.4-0.4-0.6-0.5c-0.2-0.1-0.5-0.1-0.6,0c0,0,0,0,0,0
			c-0.1,0.1-0.2,0.2-0.2,0.3c-0.1,0.1-0.1,0.3,0,0.4c0.2,0.5,0.4,0.8,0.7,1.2c0.2,0.3,0.7,0.5,1,0.3
			C98.9,175.6,99.1,175.2,98.9,174.8z"/>
		<path class="st139" d="M103,187.2c-0.2-0.2-0.3-0.4-0.5-0.7c-0.2-0.2-0.4-0.4-0.6-0.5c-0.2-0.1-0.5-0.1-0.6,0c0,0,0,0,0,0
			c-0.1,0.1-0.2,0.2-0.2,0.3c-0.1,0.1-0.1,0.3,0,0.4c0.2,0.5,0.4,0.8,0.7,1.2c0.2,0.3,0.7,0.5,1,0.3
			C103.1,188.1,103.3,187.6,103,187.2z"/>
		<path class="st139" d="M95.5,213.9c-0.2-0.2-0.3-0.4-0.5-0.7c-0.2-0.2-0.4-0.4-0.6-0.5c-0.2-0.1-0.5-0.1-0.6,0c0,0,0,0,0,0
			c-0.1,0.1-0.2,0.2-0.2,0.3c-0.1,0.1-0.1,0.3,0,0.4c0.2,0.5,0.4,0.8,0.7,1.2c0.2,0.3,0.7,0.5,1,0.3
			C95.5,214.8,95.7,214.3,95.5,213.9z"/>
		<path class="st139" d="M85.7,172.4c-0.2-0.2-0.3-0.4-0.5-0.7c-0.2-0.2-0.4-0.4-0.6-0.5c-0.2-0.1-0.5-0.1-0.6,0c0,0,0,0,0,0
			c-0.1,0.1-0.2,0.2-0.2,0.3c-0.1,0.1-0.1,0.3,0,0.4c0.2,0.5,0.4,0.8,0.7,1.2c0.2,0.3,0.7,0.5,1,0.3C85.8,173.2,86,172.8,85.7,172.4
			z"/>
		<path class="st139" d="M72.2,180.7c-0.2-0.2-0.3-0.4-0.5-0.7c-0.2-0.2-0.4-0.4-0.6-0.5c-0.2-0.1-0.5-0.1-0.6,0c0,0,0,0,0,0
			c-0.1,0.1-0.2,0.2-0.2,0.3c-0.1,0.1-0.1,0.3,0,0.4c0.2,0.5,0.4,0.8,0.7,1.2c0.2,0.3,0.7,0.5,1,0.3C72.3,181.5,72.5,181,72.2,180.7
			z"/>
		<path class="st139" d="M61.9,172.4c-0.2-0.2-0.3-0.4-0.5-0.7c-0.2-0.2-0.4-0.4-0.6-0.5c-0.2-0.1-0.5-0.1-0.6,0c0,0,0,0,0,0
			c-0.1,0.1-0.2,0.2-0.2,0.3c-0.1,0.1-0.1,0.3,0,0.4c0.2,0.5,0.4,0.8,0.7,1.2c0.2,0.3,0.7,0.5,1,0.3
			C61.9,173.2,62.1,172.8,61.9,172.4z"/>
		<path class="st139" d="M83.9,189.4c-0.2-0.2-0.3-0.4-0.5-0.7c-0.2-0.2-0.4-0.4-0.6-0.5c-0.2-0.1-0.5-0.1-0.6,0c0,0,0,0,0,0
			c-0.1,0.1-0.2,0.2-0.2,0.3c-0.1,0.1-0.1,0.3,0,0.4c0.2,0.5,0.4,0.8,0.7,1.2c0.2,0.3,0.7,0.5,1,0.3C84,190.3,84.2,189.8,83.9,189.4
			z"/>
		<path class="st139" d="M94.4,199.8c-0.2-0.2-0.3-0.4-0.5-0.7c-0.2-0.2-0.4-0.4-0.6-0.5c-0.2-0.1-0.5-0.1-0.6,0c0,0,0,0,0,0
			c-0.1,0.1-0.2,0.2-0.2,0.3c-0.1,0.1-0.1,0.3,0,0.4c0.2,0.5,0.4,0.8,0.7,1.2c0.2,0.3,0.7,0.5,1,0.3
			C94.5,200.6,94.7,200.1,94.4,199.8z"/>
		<path class="st139" d="M66.6,196.3c-0.2-0.2-0.3-0.4-0.5-0.7c-0.2-0.2-0.4-0.4-0.6-0.5c-0.2-0.1-0.5-0.1-0.6,0c0,0,0,0,0,0
			c-0.1,0.1-0.2,0.2-0.2,0.3c-0.1,0.1-0.1,0.3,0,0.4c0.2,0.5,0.4,0.8,0.7,1.2c0.2,0.3,0.7,0.5,1,0.3
			C66.7,197.1,66.9,196.6,66.6,196.3z"/>
		<path class="st139" d="M79.3,208.1c-0.2-0.2-0.3-0.4-0.5-0.7c-0.2-0.2-0.4-0.4-0.6-0.5c-0.2-0.1-0.5-0.1-0.6,0c0,0,0,0,0,0
			c-0.1,0.1-0.2,0.2-0.2,0.3c-0.1,0.1-0.1,0.3,0,0.4c0.2,0.5,0.4,0.8,0.7,1.2c0.2,0.3,0.7,0.5,1,0.3
			C79.4,208.9,79.6,208.4,79.3,208.1z"/>
		<path class="st139" d="M66,212.3c-0.2-0.2-0.3-0.4-0.5-0.7c-0.2-0.2-0.4-0.4-0.6-0.5c-0.2-0.1-0.5-0.1-0.6,0c0,0,0,0,0,0
			c-0.1,0.1-0.2,0.2-0.2,0.3c-0.1,0.1-0.1,0.3,0,0.4c0.2,0.5,0.4,0.8,0.7,1.2c0.2,0.3,0.7,0.5,1,0.3C66,213.2,66.2,212.7,66,212.3z"
			/>
		<g>
			<path class="st137" d="M105.7,87c-0.3,0-0.5-0.2-0.6-0.4c-0.1-0.3,0.1-0.7,0.4-0.8l18.7-5.5c0.3-0.1,0.7,0.1,0.8,0.4
				c0.1,0.3-0.1,0.7-0.4,0.8L105.9,87C105.8,87,105.8,87,105.7,87z"/>
		</g>
		<g>
			<path class="st137" d="M114,67.7c-0.3,0-0.5-0.2-0.6-0.4l-2.4-7.1c-0.1-0.3,0.1-0.7,0.4-0.8c0.3-0.1,0.7,0.1,0.8,0.4l2.4,7.1
				c0.1,0.3-0.1,0.7-0.4,0.8C114.2,67.7,114.1,67.7,114,67.7z"/>
		</g>
		<g>
			<path class="st137" d="M78.3,44.3c-0.2,0-0.5-0.1-0.6-0.4c-0.1-0.3,0-0.7,0.3-0.8l8.5-4c0.3-0.1,0.7,0,0.8,0.3
				c0.1,0.3,0,0.7-0.3,0.8l-8.5,4C78.5,44.3,78.4,44.3,78.3,44.3z"/>
		</g>
		<g>
			<path class="st137" d="M59.3,123.4c-0.1,0-0.2,0-0.3-0.1c-0.3-0.2-0.4-0.6-0.2-0.9l5.8-8.4c0.2-0.3,0.6-0.4,0.9-0.2
				c0.3,0.2,0.4,0.6,0.2,0.9l-5.8,8.4C59.7,123.4,59.5,123.4,59.3,123.4z"/>
		</g>
		<g>
			<path class="st137" d="M55.4,105.4c-0.1,0-0.2,0-0.3-0.1L43.4,99c-0.3-0.2-0.4-0.5-0.3-0.8c0.2-0.3,0.5-0.4,0.8-0.3l11.7,6.3
				c0.3,0.2,0.4,0.5,0.3,0.8C55.9,105.3,55.7,105.4,55.4,105.4z"/>
		</g>
		<g>
			<path class="st137" d="M112.9,138c0,0-0.1,0-0.1,0l-9.7-2.3c-0.3-0.1-0.5-0.4-0.5-0.7c0.1-0.3,0.4-0.5,0.7-0.5l9.7,2.3
				c0.3,0.1,0.5,0.4,0.5,0.7C113.4,137.8,113.1,138,112.9,138z"/>
		</g>
	</g>
</g>
</svg>
