<?xml version="1.0" encoding="utf-8"?>
<!-- Generator: Adobe Illustrator 24.3.0, SVG Export Plug-In . SVG Version: 6.00 Build 0)  -->
<svg version="1.1" id="圖層_1" xmlns="http://www.w3.org/2000/svg" xmlns:xlink="http://www.w3.org/1999/xlink" x="0px" y="0px"
	 viewBox="0 0 645.9 255.1" style="enable-background:new 0 0 645.9 255.1;" xml:space="preserve">
<style type="text/css">
	.st0{fill:#EAEAEA;}
	.st1{fill:#22767F;}
	.st2{fill:#EADAC5;}
	.st3{fill:#3358A2;}
	.st4{fill:#D5D5D5;}
	.st5{fill:#DBAC7F;stroke:#040000;stroke-linecap:round;stroke-linejoin:round;stroke-miterlimit:10;}
	.st6{fill:#DBAC7F;}
	.st7{fill:#040000;}
	.st8{fill:none;stroke:#040000;stroke-linecap:round;stroke-linejoin:round;stroke-miterlimit:10;}
	.st9{fill:#A87979;}
	.st10{fill:#A87979;stroke:#040000;stroke-miterlimit:10;}
	.st11{fill:#D2DBE0;stroke:#040000;stroke-miterlimit:10;}
	.st12{fill:#61473A;stroke:#040000;stroke-miterlimit:10;}
	.st13{fill:#FFFFFF;}
	.st14{fill:#DBA777;stroke:#000000;stroke-width:0.8643;stroke-miterlimit:10;}
	.st15{fill:#B98352;stroke:#000000;stroke-width:0.8643;stroke-miterlimit:10;}
	.st16{fill:none;stroke:#000000;stroke-width:0.7891;stroke-miterlimit:10;}
	.st17{fill:#313535;stroke:#040000;stroke-linecap:round;stroke-linejoin:round;stroke-miterlimit:10;}
	.st18{fill:#FFFFFF;stroke:#FFFFFF;stroke-width:0.8391;stroke-miterlimit:10;}
	.st19{fill:#FFA486;}
	.st20{fill:#FFA486;stroke:#000000;stroke-miterlimit:10;}
	.st21{fill:#F7EBEB;stroke:#000000;stroke-miterlimit:10;}
	.st22{fill:#36303A;}
	.st23{fill:#6A433E;stroke:#000000;stroke-miterlimit:10;}
	.st24{fill:#FFA99B;stroke:#000000;stroke-miterlimit:10;}
	.st25{fill:#6A433E;}
	.st26{fill:#FFFFFF;stroke:#000000;stroke-linecap:round;stroke-linejoin:round;stroke-miterlimit:10;}
	.st27{fill:#F4EB73;stroke:#000000;stroke-miterlimit:10;}
	.st28{fill:#FFA99B;stroke:#000000;stroke-linecap:round;stroke-linejoin:round;stroke-miterlimit:10;}
	.st29{fill:#D96252;}
	.st30{fill:#D96252;stroke:#000000;stroke-miterlimit:10;}
	.st31{fill:#FFA486;stroke:#000000;stroke-width:1.0766;stroke-linecap:round;stroke-linejoin:round;stroke-miterlimit:10;}
	.st32{fill:#EFD2AA;}
	.st33{fill:#36303A;stroke:#000000;stroke-miterlimit:10;}
	.st34{fill:#86524D;stroke:#000000;stroke-miterlimit:10;}
	.st35{fill:#86524D;}
	.st36{fill:#6F5E68;stroke:#000000;stroke-miterlimit:10;}
	.st37{fill:#E9E9E9;stroke:#000000;stroke-width:1.0553;stroke-miterlimit:10;}
	.st38{fill:#537A95;stroke:#000000;stroke-width:1.0553;stroke-miterlimit:10;}
	.st39{fill:none;stroke:#000000;stroke-linecap:round;stroke-linejoin:round;stroke-miterlimit:10;}
	.st40{stroke:#000000;stroke-width:0.8013;stroke-miterlimit:10;}
	.st41{fill:#1A1817;stroke:#000000;stroke-width:0.8013;stroke-miterlimit:10;}
	.st42{fill:#FFC856;stroke:#000000;stroke-width:0.8013;stroke-miterlimit:10;}
	.st43{fill:#FAFBF7;stroke:#000000;stroke-width:0.8013;stroke-miterlimit:10;}
	.st44{fill:#928985;stroke:#000000;stroke-width:0.8013;stroke-miterlimit:10;}
	.st45{fill:#0D0D0D;stroke:#000000;stroke-width:0.8013;stroke-miterlimit:10;}
	.st46{fill:#515151;}
	.st47{fill:#9B3635;}
	.st48{fill:#DCB2CD;}
	.st49{fill:#FFFFFF;stroke:#040000;stroke-linecap:round;stroke-linejoin:round;stroke-miterlimit:10;}
	.st50{fill:#75A1A4;stroke:#040000;stroke-miterlimit:10;}
	.st51{fill:#2F6A6E;stroke:#040000;stroke-miterlimit:10;}
	.st52{fill:#D0B3C7;stroke:#040000;stroke-miterlimit:10;}
	.st53{fill:#AF959A;stroke:#040000;stroke-miterlimit:10;}
	.st54{fill:#FFFFFF;stroke:#040000;stroke-width:0.9715;stroke-linecap:round;stroke-linejoin:round;stroke-miterlimit:10;}
	.st55{fill:#5C866F;stroke:#040000;stroke-width:0.75;stroke-miterlimit:10;}
	.st56{fill:#97B4A4;stroke:#040000;stroke-width:0.75;stroke-miterlimit:10;}
	.st57{fill:#789D87;stroke:#040000;stroke-width:0.75;stroke-miterlimit:10;}
	.st58{stroke:#000000;stroke-width:30;stroke-linecap:round;stroke-linejoin:round;stroke-miterlimit:10;}
	.st59{fill:none;stroke:#000000;stroke-width:30;stroke-linecap:round;stroke-linejoin:round;stroke-miterlimit:10;}
	.st60{fill:#F8D6BC;stroke:#040000;stroke-miterlimit:10;}
	.st61{fill:#E6B282;stroke:#040000;stroke-miterlimit:10;}
	.st62{fill:#FFE5CF;stroke:#040000;stroke-width:0.7253;stroke-miterlimit:10;}
	.st63{fill:#938862;stroke:#040000;stroke-width:0.7253;stroke-miterlimit:10;}
	.st64{fill:#98B3C8;stroke:#040000;stroke-width:0.7253;stroke-miterlimit:10;}
	.st65{fill:#FFFFFF;stroke:#040000;stroke-width:0.7253;stroke-miterlimit:10;}
	.st66{fill:#F7EEE9;stroke:#040000;stroke-width:0.7253;stroke-miterlimit:10;}
	.st67{fill:#FC8A89;stroke:#040000;stroke-width:0.7253;stroke-miterlimit:10;}
	.st68{fill:#FFBB57;stroke:#040000;stroke-width:0.7253;stroke-miterlimit:10;}
	.st69{fill:#E7AD56;stroke:#040000;stroke-width:0.7253;stroke-miterlimit:10;}
	.st70{fill:#E6B282;stroke:#040000;stroke-width:0.7253;stroke-miterlimit:10;}
	.st71{fill:#F4DDBE;stroke:#040000;stroke-width:0.75;stroke-miterlimit:10;}
	.st72{fill:#FFA99B;stroke:#040000;stroke-width:0.75;stroke-miterlimit:10;}
	.st73{fill:#36303A;stroke:#040000;stroke-width:0.75;stroke-miterlimit:10;}
	.st74{fill:#554E59;}
	.st75{opacity:0.54;fill:#F7EBEB;}
	.st76{fill:#6A433E;stroke:#040000;stroke-width:0.75;stroke-miterlimit:10;}
	.st77{fill:#FFA99B;stroke:#040000;stroke-width:0.75;stroke-linecap:round;stroke-linejoin:round;stroke-miterlimit:10;}
	.st78{fill:#020202;}
	.st79{fill:#DB9A7D;stroke:#040000;stroke-width:0.75;stroke-miterlimit:10;}
	.st80{fill:#6F5E68;stroke:#040000;stroke-width:0.75;stroke-miterlimit:10;}
	.st81{fill:#FFA99B;}
	.st82{fill:#DD6A5B;stroke:#040000;stroke-width:0.5;stroke-miterlimit:10;}
	.st83{fill:#EFD2AA;stroke:#040000;stroke-width:0.5;stroke-miterlimit:10;}
	.st84{fill:#FFFFFF;stroke:#040000;stroke-width:0.5;stroke-miterlimit:10;}
	.st85{fill:#E2C295;stroke:#040000;stroke-width:0.5;stroke-miterlimit:10;}
	.st86{fill:#F7EBEB;stroke:#040000;stroke-width:0.5;stroke-miterlimit:10;}
	.st87{fill:#6F5E68;stroke:#040000;stroke-width:0.75;stroke-linecap:round;stroke-linejoin:round;stroke-miterlimit:10;}
	.st88{fill:#DB9A7D;}
	.st89{fill:#DD6A5B;stroke:#040000;stroke-width:0.75;stroke-miterlimit:10;}
	.st90{fill:#FFFFFF;stroke:#040000;stroke-width:0.75;stroke-miterlimit:10;}
	.st91{fill:#7B94B9;stroke:#040000;stroke-width:0.75;stroke-miterlimit:10;}
	.st92{fill:#6F5E61;stroke:#000000;stroke-width:1.1524;stroke-miterlimit:10;}
	.st93{fill:#DFCEC6;stroke:#000000;stroke-width:1.1524;stroke-miterlimit:10;}
	.st94{fill:#36303A;stroke:#000000;stroke-width:1.1524;stroke-miterlimit:10;}
	.st95{fill:#36303A;stroke:#000000;stroke-width:1.3348;stroke-miterlimit:10;}
	.st96{fill:#F7EFEB;stroke:#000000;stroke-width:1.3348;stroke-miterlimit:10;}
	.st97{fill:#6F5E61;stroke:#000000;stroke-width:1.1524;stroke-linecap:round;stroke-linejoin:round;stroke-miterlimit:10;}
	.st98{fill:#36303A;stroke:#000000;stroke-width:1.1524;stroke-linecap:round;stroke-linejoin:round;stroke-miterlimit:10;}
	.st99{fill:#D0D0D0;stroke:#000000;stroke-width:1.1524;stroke-linecap:round;stroke-linejoin:round;stroke-miterlimit:10;}
	.st100{fill:#905851;stroke:#000000;stroke-width:1.1524;stroke-miterlimit:10;}
	.st101{fill:#F4D1B4;stroke:#000000;stroke-width:1.1524;stroke-miterlimit:10;}
	.st102{fill:#F7EFEB;}
	.st103{fill:#733832;stroke:#000000;stroke-width:1.1524;stroke-miterlimit:10;}
	.st104{fill:#DBA777;stroke:#000000;stroke-width:1.1524;stroke-miterlimit:10;}
	.st105{fill:#DBA777;}
	.st106{fill:#905851;}
	.st107{fill:#E7E7E7;stroke:#000000;stroke-linecap:round;stroke-linejoin:round;stroke-miterlimit:10;}
	.st108{fill:#954039;}
	.st109{fill:none;stroke:#000000;stroke-width:1.2726;stroke-linecap:round;stroke-linejoin:round;stroke-miterlimit:10;}
	.st110{fill:#954039;stroke:#000000;stroke-miterlimit:10;}
	.st111{fill:#905851;stroke:#000000;stroke-width:1.1524;stroke-linecap:round;stroke-linejoin:round;stroke-miterlimit:10;}
	.st112{fill:#ACABA9;stroke:#000000;stroke-miterlimit:10;}
	.st113{fill:#020202;stroke:#000000;stroke-miterlimit:10;}
	.st114{clip-path:url(#SVGID_2_);}
	.st115{fill:#FFFFFF;stroke:#040000;stroke-width:1.1054;stroke-miterlimit:10;}
	.st116{fill:#FFFFFF;stroke:#040000;stroke-width:1.1054;stroke-linecap:round;stroke-linejoin:round;stroke-miterlimit:10;}
	.st117{fill:#F3F3F3;stroke:#040000;stroke-width:1.1054;stroke-linecap:round;stroke-linejoin:round;stroke-miterlimit:10;}
	.st118{fill:#C5C5C5;stroke:#040000;stroke-width:1.1054;stroke-linecap:round;stroke-linejoin:round;stroke-miterlimit:10;}
	.st119{clip-path:url(#SVGID_4_);}
	.st120{fill:#D7B579;stroke:#040000;stroke-width:1.1054;stroke-linecap:round;stroke-linejoin:round;stroke-miterlimit:10;}
	.st121{fill:#131414;stroke:#040000;stroke-width:1.1054;stroke-linecap:round;stroke-linejoin:round;stroke-miterlimit:10;}
	.st122{fill:#3B3F3F;stroke:#040000;stroke-width:1.1054;stroke-linecap:round;stroke-linejoin:round;stroke-miterlimit:10;}
	.st123{fill:#D7B579;stroke:#040000;stroke-width:1.1054;stroke-miterlimit:10;}
	.st124{opacity:0.5;fill:#FFFFFF;}
	.st125{fill:#966E6E;stroke:#040000;stroke-miterlimit:10;}
	.st126{fill:#2B1D1D;}
	.st127{fill:#522E2E;}
	.st128{clip-path:url(#SVGID_8_);}
	.st129{fill:#FFFFFF;stroke:#000000;stroke-miterlimit:10;}
	.st130{fill:#22767F;stroke:#000000;stroke-width:0.8559;stroke-miterlimit:10;}
	.st131{fill:none;stroke:#000000;stroke-width:0.8559;stroke-miterlimit:10;}
	.st132{fill:#F7F0F0;stroke:#000000;stroke-miterlimit:10;}
	.st133{fill:#666666;stroke:#666666;stroke-miterlimit:10;}
	.st134{fill:#DD6A5B;stroke:#000000;stroke-linecap:round;stroke-linejoin:round;stroke-miterlimit:10;}
	.st135{fill:#98B3C8;stroke:#000000;stroke-linecap:round;stroke-linejoin:round;stroke-miterlimit:10;}
	.st136{fill:#75A2A5;stroke:#000000;stroke-width:1.0824;stroke-miterlimit:10;}
	.st137{fill:#2F6A6E;stroke:#000000;stroke-width:1.0824;stroke-miterlimit:10;}
	.st138{fill:#382732;stroke:#000000;stroke-width:1.0824;stroke-miterlimit:10;}
	.st139{fill:#FFFFFF;stroke:#000000;stroke-width:1.0824;stroke-miterlimit:10;}
	.st140{clip-path:url(#SVGID_12_);}
	.st141{fill:#EFDBBF;stroke:#000000;stroke-miterlimit:10;}
	.st142{fill:#98B3C8;stroke:#000000;stroke-miterlimit:10;}
	.st143{fill:#F7F0F0;stroke:#000000;stroke-width:1.6756;stroke-miterlimit:10;}
	.st144{fill:none;stroke:#000000;stroke-width:2;stroke-miterlimit:10;}
	.st145{fill:#FFFFFF;stroke:#000000;stroke-width:2;stroke-linecap:round;stroke-linejoin:round;stroke-miterlimit:10;}
	.st146{opacity:0.5;fill:#479CA0;}
	.st147{clip-path:url(#SVGID_16_);}
	.st148{fill:#D5D5D5;stroke:#000000;stroke-width:0.8559;stroke-miterlimit:10;}
	.st149{fill:#E5E5E5;stroke:#E5E5E5;stroke-miterlimit:10;}
	.st150{fill:#D7B579;stroke:#000000;stroke-linecap:round;stroke-linejoin:round;stroke-miterlimit:10;}
	.st151{clip-path:url(#SVGID_20_);}
	.st152{fill:#CE7C78;stroke:#000000;stroke-miterlimit:10;}
	.st153{fill:#D7B579;stroke:#000000;stroke-miterlimit:10;}
	.st154{fill:#D8D8D8;stroke:#000000;stroke-width:2.17;stroke-miterlimit:10;}
	.st155{fill:#0D0D0D;stroke:#000000;stroke-width:0.75;stroke-miterlimit:10;}
	.st156{fill:#FFC956;stroke:#000000;stroke-width:0.75;stroke-miterlimit:10;}
	.st157{fill:#FBFCF8;stroke:#000000;stroke-width:0.75;stroke-miterlimit:10;}
	.st158{fill:#1A1817;stroke:#000000;stroke-width:0.75;stroke-miterlimit:10;}
	.st159{fill:#938A86;stroke:#000000;stroke-width:0.75;stroke-miterlimit:10;}
	.st160{stroke:#000000;stroke-width:0.75;stroke-miterlimit:10;}
	.st161{fill:#938862;stroke:#040000;stroke-width:0.8707;stroke-miterlimit:10;}
	.st162{fill:#736638;stroke:#040000;stroke-width:0.8707;stroke-miterlimit:10;}
	.st163{fill:#97B4A4;stroke:#000000;stroke-linecap:round;stroke-linejoin:round;stroke-miterlimit:10;}
	.st164{fill:#789D87;stroke:#000000;stroke-linecap:round;stroke-linejoin:round;stroke-miterlimit:10;}
	.st165{fill:#905851;stroke:#000000;stroke-linecap:round;stroke-linejoin:round;stroke-miterlimit:10;}
	.st166{fill:#DFCEC6;stroke:#000000;stroke-linecap:round;stroke-linejoin:round;stroke-miterlimit:10;}
	.st167{fill:#B0969B;stroke:#000000;stroke-width:3;stroke-miterlimit:10;}
	.st168{fill:#6F5E61;stroke:#000000;stroke-width:1.3651;stroke-miterlimit:10;}
	.st169{fill:#DFCEC6;stroke:#000000;stroke-width:1.3651;stroke-miterlimit:10;}
	.st170{fill:#36303A;stroke:#000000;stroke-width:1.3651;stroke-miterlimit:10;}
	.st171{fill:#36303A;stroke:#000000;stroke-linecap:round;stroke-linejoin:round;stroke-miterlimit:10;}
	.st172{fill:#F2E9EE;stroke:#000000;stroke-linecap:round;stroke-linejoin:round;stroke-miterlimit:10;}
	.st173{fill:#C1817E;stroke:#000000;stroke-width:0.6146;stroke-miterlimit:10;}
	.st174{fill:#ACABA9;stroke:#000000;stroke-width:0.6146;stroke-miterlimit:10;}
	.st175{fill:#020202;stroke:#000000;stroke-width:0.6146;stroke-miterlimit:10;}
	.st176{fill:#61372B;}
	.st177{fill:#E5B891;stroke:#040000;stroke-miterlimit:10;}
	.st178{fill:#DFB69E;stroke:#040000;stroke-width:0.7279;stroke-miterlimit:10;}
	.st179{fill:#A56656;stroke:#040000;stroke-width:0.9617;stroke-miterlimit:10;}
	.st180{fill:#FFA486;stroke:#000000;stroke-width:0.9093;stroke-miterlimit:10;}
	.st181{fill:#382732;stroke:#000000;stroke-width:0.7891;stroke-miterlimit:10;}
	.st182{fill:#382732;}
	.st183{fill:#FF9975;}
	.st184{fill:#6F5E61;stroke:#000000;stroke-width:0.7891;stroke-miterlimit:10;}
	.st185{fill:none;stroke:#040000;stroke-miterlimit:10;}
	.st186{fill:#313535;stroke:#040000;stroke-width:1.0065;stroke-linecap:round;stroke-linejoin:round;stroke-miterlimit:10;}
	.st187{fill:#FFFFFF;stroke:#FFFFFF;stroke-width:0.8446;stroke-miterlimit:10;}
	.st188{fill:#FFFFFF;stroke:#000000;stroke-width:0.7891;stroke-miterlimit:10;}
	.st189{fill:#86524D;stroke:#000000;stroke-width:0.9093;stroke-miterlimit:10;}
	.st190{fill:#FFFFFF;stroke:#000000;stroke-width:0.9093;stroke-linecap:round;stroke-linejoin:round;stroke-miterlimit:10;}
	.st191{fill:#36303A;stroke:#000000;stroke-width:0.7891;stroke-miterlimit:10;}
	.st192{fill:#6A433E;stroke:#000000;stroke-width:0.8804;stroke-miterlimit:10;}
	.st193{fill:#FFA99B;stroke:#000000;stroke-width:0.8804;stroke-miterlimit:10;}
	.st194{fill:#FFFFFF;stroke:#000000;stroke-width:0.8804;stroke-linecap:round;stroke-linejoin:round;stroke-miterlimit:10;}
	.st195{fill:#FFA99B;stroke:#000000;stroke-width:0.8804;stroke-linecap:round;stroke-linejoin:round;stroke-miterlimit:10;}
	.st196{fill:#E9E9E9;stroke:#000000;stroke-width:0.8328;stroke-miterlimit:10;}
	.st197{fill:#537A95;stroke:#000000;stroke-width:0.8328;stroke-miterlimit:10;}
	.st198{fill:#FF9975;stroke:#000000;stroke-width:0.7891;stroke-miterlimit:10;}
	.st199{fill:#EFDBBF;stroke:#000000;stroke-width:0.7891;stroke-miterlimit:10;}
	.st200{fill:#AF959A;stroke:#000000;stroke-linecap:round;stroke-linejoin:round;stroke-miterlimit:10;}
	.st201{fill:#AF959A;}
	.st202{fill:#FFA486;stroke:#000000;stroke-width:0.7947;stroke-miterlimit:10;}
	.st203{fill:#382732;stroke:#000000;stroke-width:0.6897;stroke-miterlimit:10;}
	.st204{fill:#6F5E61;stroke:#000000;stroke-width:0.6897;stroke-miterlimit:10;}
	.st205{fill:none;stroke:#040000;stroke-width:0.874;stroke-miterlimit:10;}
	.st206{fill:#313535;stroke:#040000;stroke-width:1.0909;stroke-linecap:round;stroke-linejoin:round;stroke-miterlimit:10;}
	.st207{fill:#FFFFFF;stroke:#FFFFFF;stroke-width:0.9154;stroke-miterlimit:10;}
	.st208{fill:#FFFFFF;stroke:#000000;stroke-width:0.6897;stroke-miterlimit:10;}
	.st209{fill:#86524D;stroke:#000000;stroke-width:0.7947;stroke-miterlimit:10;}
	.st210{fill:#FFFFFF;stroke:#000000;stroke-width:0.7947;stroke-linecap:round;stroke-linejoin:round;stroke-miterlimit:10;}
	.st211{fill:#36303A;stroke:#000000;stroke-width:0.6897;stroke-miterlimit:10;}
	.st212{fill:#E9E9E9;stroke:#000000;stroke-width:1.0991;stroke-miterlimit:10;}
	.st213{fill:#537A95;stroke:#000000;stroke-width:1.0991;stroke-miterlimit:10;}
	.st214{fill:#FFA486;stroke:#000000;stroke-width:1.3866;stroke-linecap:round;stroke-linejoin:round;stroke-miterlimit:10;}
	.st215{stroke:#000000;stroke-width:1.5136;stroke-miterlimit:10;}
	.st216{fill:#1A1817;stroke:#000000;stroke-width:1.5136;stroke-miterlimit:10;}
	.st217{fill:#FFC856;stroke:#000000;stroke-width:1.5136;stroke-miterlimit:10;}
	.st218{fill:#FAFBF7;stroke:#000000;stroke-width:1.5136;stroke-miterlimit:10;}
	.st219{fill:#928985;stroke:#000000;stroke-width:1.5136;stroke-miterlimit:10;}
	.st220{fill:#0D0D0D;stroke:#000000;stroke-width:1.5136;stroke-miterlimit:10;}
	.st221{fill:#36303A;stroke:#000000;stroke-width:2.2957;stroke-miterlimit:10;}
	.st222{fill:#F7EFEB;stroke:#000000;stroke-width:2.2957;stroke-miterlimit:10;}
	.st223{fill:#954039;stroke:#000000;stroke-width:1.7199;stroke-miterlimit:10;}
	.st224{fill:#ACABA9;stroke:#000000;stroke-width:1.7199;stroke-miterlimit:10;}
	.st225{fill:#020202;stroke:#000000;stroke-width:1.7199;stroke-miterlimit:10;}
	.st226{fill:#905851;stroke:#000000;stroke-width:1.982;stroke-miterlimit:10;}
	.st227{fill:#F4D1B4;stroke:#000000;stroke-width:1.982;stroke-miterlimit:10;}
	.st228{fill:#36303A;stroke:#000000;stroke-width:1.982;stroke-miterlimit:10;}
	.st229{fill:#733832;stroke:#000000;stroke-width:1.982;stroke-miterlimit:10;}
	.st230{fill:#DFCEC6;stroke:#000000;stroke-width:1.982;stroke-miterlimit:10;}
	.st231{fill:#DBA777;stroke:#000000;stroke-width:1.982;stroke-miterlimit:10;}
	.st232{fill:#E7E7E7;stroke:#000000;stroke-width:1.7199;stroke-linecap:round;stroke-linejoin:round;stroke-miterlimit:10;}
	.st233{fill:#FFFFFF;stroke:#000000;stroke-width:1.7199;stroke-linecap:round;stroke-linejoin:round;stroke-miterlimit:10;}
	.st234{fill:none;stroke:#000000;stroke-width:2.1888;stroke-linecap:round;stroke-linejoin:round;stroke-miterlimit:10;}
	.st235{fill:#905851;stroke:#000000;stroke-width:1.982;stroke-linecap:round;stroke-linejoin:round;stroke-miterlimit:10;}
	.st236{fill:#FFFFFF;stroke:#040000;stroke-width:2.3181;stroke-linecap:round;stroke-linejoin:round;stroke-miterlimit:10;}
	.st237{fill:#75A1A4;stroke:#040000;stroke-width:2.3181;stroke-miterlimit:10;}
	.st238{fill:#2F6A6E;stroke:#040000;stroke-width:2.3181;stroke-miterlimit:10;}
	.st239{fill:#D0B3C7;stroke:#040000;stroke-width:2.3181;stroke-miterlimit:10;}
	.st240{fill:#AF959A;stroke:#040000;stroke-width:2.3181;stroke-miterlimit:10;}
	.st241{fill:none;stroke:#040000;stroke-width:2.3181;stroke-linecap:round;stroke-linejoin:round;stroke-miterlimit:10;}
	.st242{fill:#FFFFFF;stroke:#040000;stroke-width:2.2519;stroke-linecap:round;stroke-linejoin:round;stroke-miterlimit:10;}
	.st243{fill:#5C866F;stroke:#040000;stroke-width:1.7385;stroke-miterlimit:10;}
	.st244{fill:#97B4A4;stroke:#040000;stroke-width:1.7385;stroke-miterlimit:10;}
	.st245{fill:#789D87;stroke:#040000;stroke-width:1.7385;stroke-miterlimit:10;}
	.st246{fill:#F8D6BC;stroke:#040000;stroke-width:1.46;stroke-miterlimit:10;}
	.st247{fill:#E6B282;stroke:#040000;stroke-width:1.46;stroke-miterlimit:10;}
	.st248{fill:#FFE5CF;stroke:#040000;stroke-width:1.3043;stroke-miterlimit:10;}
	.st249{fill:#938862;stroke:#040000;stroke-width:1.3043;stroke-miterlimit:10;}
	.st250{fill:#98B3C8;stroke:#040000;stroke-width:1.3043;stroke-miterlimit:10;}
	.st251{fill:#FFFFFF;stroke:#040000;stroke-width:1.3043;stroke-miterlimit:10;}
	.st252{fill:#F7EEE9;stroke:#040000;stroke-width:1.3043;stroke-miterlimit:10;}
	.st253{fill:#FC8A89;stroke:#040000;stroke-width:1.3043;stroke-miterlimit:10;}
	.st254{fill:#FFBB57;stroke:#040000;stroke-width:1.3043;stroke-miterlimit:10;}
	.st255{fill:#E7AD56;stroke:#040000;stroke-width:1.3043;stroke-miterlimit:10;}
	.st256{fill:#E6B282;stroke:#040000;stroke-width:1.3043;stroke-miterlimit:10;}
	.st257{fill:#F4DDBE;stroke:#040000;stroke-width:1.3488;stroke-miterlimit:10;}
	.st258{fill:#FFA99B;stroke:#040000;stroke-width:1.3488;stroke-miterlimit:10;}
	.st259{fill:#36303A;stroke:#040000;stroke-width:1.3488;stroke-miterlimit:10;}
	.st260{fill:#6A433E;stroke:#040000;stroke-width:1.3488;stroke-miterlimit:10;}
	.st261{fill:#FFA99B;stroke:#040000;stroke-width:1.3488;stroke-linecap:round;stroke-linejoin:round;stroke-miterlimit:10;}
	.st262{fill:#DB9A7D;stroke:#040000;stroke-width:1.3488;stroke-miterlimit:10;}
	.st263{fill:#6F5E68;stroke:#040000;stroke-width:1.3488;stroke-miterlimit:10;}
	.st264{fill:#DD6A5B;stroke:#040000;stroke-width:0.8992;stroke-miterlimit:10;}
	.st265{fill:#EFD2AA;stroke:#040000;stroke-width:0.8992;stroke-miterlimit:10;}
	.st266{fill:#FFFFFF;stroke:#040000;stroke-width:0.8992;stroke-miterlimit:10;}
	.st267{fill:#E2C295;stroke:#040000;stroke-width:0.8992;stroke-miterlimit:10;}
	.st268{fill:#F7EBEB;stroke:#040000;stroke-width:0.8992;stroke-miterlimit:10;}
	.st269{fill:#6F5E68;stroke:#040000;stroke-width:1.3488;stroke-linecap:round;stroke-linejoin:round;stroke-miterlimit:10;}
	.st270{fill:#DD6A5B;stroke:#040000;stroke-width:1.3488;stroke-miterlimit:10;}
	.st271{fill:#FFFFFF;stroke:#040000;stroke-width:1.3488;stroke-miterlimit:10;}
	.st272{fill:#7B94B9;stroke:#040000;stroke-width:1.3488;stroke-miterlimit:10;}
	.st273{clip-path:url(#SVGID_22_);}
	.st274{fill:#FFFFFF;stroke:#040000;stroke-width:1.1773;stroke-miterlimit:10;}
	.st275{fill:#FFFFFF;stroke:#040000;stroke-width:1.1773;stroke-linecap:round;stroke-linejoin:round;stroke-miterlimit:10;}
	.st276{fill:#F3F3F3;stroke:#040000;stroke-width:1.1773;stroke-linecap:round;stroke-linejoin:round;stroke-miterlimit:10;}
	.st277{fill:#C5C5C5;stroke:#040000;stroke-width:1.1773;stroke-linecap:round;stroke-linejoin:round;stroke-miterlimit:10;}
	.st278{clip-path:url(#SVGID_24_);}
	.st279{fill:#D7B579;stroke:#040000;stroke-width:1.1773;stroke-linecap:round;stroke-linejoin:round;stroke-miterlimit:10;}
	.st280{fill:#131414;stroke:#040000;stroke-width:1.1773;stroke-linecap:round;stroke-linejoin:round;stroke-miterlimit:10;}
	.st281{fill:#3B3F3F;stroke:#040000;stroke-width:1.1773;stroke-linecap:round;stroke-linejoin:round;stroke-miterlimit:10;}
	.st282{fill:#D7B579;stroke:#040000;stroke-width:1.1773;stroke-miterlimit:10;}
</style>
<g>
	<path class="st167" d="M69.4,193.7c0,0-39.7,50.7-34.2,57.8c5.5,7.1,573.7,3.2,579.8,0c6.1-3.2-26.2-61.4-26.2-61.4L69.4,193.7z"/>
	<g>
		<path d="M256.5,248.1c-50.1,0-206.8-1.8-210.4-3c-0.4-0.1-0.6-0.4-0.8-0.8c-1.3-4,19.4-31.9,23.5-37.4c0.2-0.3,0.7-0.4,1-0.2
			c0.3,0.2,0.4,0.6,0.2,0.9c-12.1,16-24,33.8-23.3,36.2c6.2,1.1,198.5,3.6,223.5,2.9c24.5-0.7,163.5-3.5,195-2.6
			c32.4,1,132.2,1.8,138.1,0.5c0.3-3-9.8-27.1-16.5-41.9c-0.2-0.3,0-0.7,0.4-0.9c0.4-0.1,0.8,0,0.9,0.3c0,0.1,4.7,10.4,8.9,20.7
			c8.9,21.4,7.9,22.2,7.2,22.7c-2.6,2-115.1,0.6-139.1-0.2c-31.5-1-170.4,1.9-194.9,2.6C267.8,248.1,263.1,248.1,256.5,248.1z"/>
	</g>
	<g>
		<path d="M166.7,233.1h-19.9c-0.4,0-0.7-0.3-0.7-0.7c0-0.4,0.3-0.7,0.7-0.7h19.9c0.4,0,0.7,0.3,0.7,0.7
			C167.4,232.8,167.1,233.1,166.7,233.1z"/>
	</g>
	<g>
		<path d="M229.7,218.4h-19.9c-0.4,0-0.7-0.3-0.7-0.7c0-0.4,0.3-0.7,0.7-0.7h19.9c0.4,0,0.7,0.3,0.7,0.7
			C230.3,218.1,230,218.4,229.7,218.4z"/>
	</g>
	<g>
		<path d="M305.3,233.1h-19.9c-0.4,0-0.7-0.3-0.7-0.7c0-0.4,0.3-0.7,0.7-0.7h19.9c0.4,0,0.7,0.3,0.7,0.7
			C306,232.8,305.7,233.1,305.3,233.1z"/>
	</g>
	<g>
		<path d="M378.9,218.4h-19.9c-0.4,0-0.7-0.3-0.7-0.7c0-0.4,0.3-0.7,0.7-0.7h19.9c0.4,0,0.7,0.3,0.7,0.7
			C379.6,218.1,379.2,218.4,378.9,218.4z"/>
	</g>
	<g>
		<path d="M469.6,233.1h-19.9c-0.4,0-0.7-0.3-0.7-0.7c0-0.4,0.3-0.7,0.7-0.7h19.9c0.4,0,0.7,0.3,0.7,0.7
			C470.3,232.8,470,233.1,469.6,233.1z"/>
	</g>
	<g>
		<path d="M551.5,218.4h-19.9c-0.4,0-0.7-0.3-0.7-0.7c0-0.4,0.3-0.7,0.7-0.7h19.9c0.4,0,0.7,0.3,0.7,0.7
			C552.2,218.1,551.9,218.4,551.5,218.4z"/>
	</g>
</g>
<g>
	<g>
		<path class="st168" d="M115.8,230.7c0,4.5-17.9,8.2-39.9,8.2c-22,0-39.9-3.7-39.9-8.2c0-4.5,28.4-10.9,39.9-10.9
			S115.8,226.2,115.8,230.7z"/>
	</g>
	<g>
		<path class="st168" d="M75.9,226.4c-1.1,0-2-0.7-2.4-1.8L29.1,69.6l120.6-30c1-0.9,2.6-0.8,3.5,0.3c0.9,1,0.8,2.6-0.3,3.5
			l-118.2,28l43.6,152.1c0.4,1.3-0.4,2.7-1.7,3C76.3,226.4,76.1,226.4,75.9,226.4z"/>
	</g>
	<g>
		<path class="st168" d="M31.9,72.8c-1,0-2-0.7-2.3-1.7l-2.8-8.9c-0.4-1.3,0.3-2.7,1.6-3.1c1.3-0.4,2.7,0.3,3.1,1.6l2.8,8.9
			c0.4,1.3-0.3,2.7-1.6,3.1C32.4,72.8,32.1,72.8,31.9,72.8z"/>
	</g>
	<g>
		<path class="st168" d="M25.9,74.1c-0.7-0.3-1.2-0.9-1.4-1.6c-0.4-1.3,0.4-2.7,1.7-3l11.6-3.1c1.3-0.4,2.7,0.4,3,1.7
			c0.4,1.3-0.4,2.7-1.7,3l-11.6,3.1C26.9,74.4,26.3,74.3,25.9,74.1z"/>
	</g>
	<g>
		<path class="st168" d="M175.2,31.6l-16.5,16.5l-15.8-15.8c-4.5-4.5-4.5-11.9,0-16.5l0,0c4.5-4.5,11.9-4.5,16.5,0L175.2,31.6z"/>
	</g>
	<g>
		<path class="st169" d="M205.7,36.8l-22-10.5c-3.6-1.7-7.9-1-10.8,1.8c-3,3-6,5.9-8.9,9c-2.8,3-5.6,6-8.5,8.9
			c-2.9,3-3.6,7.5-1.6,11.2l11.8,21.9c0.8,1.5,2.8,1.7,3.9,0.5l36.8-39C207.6,39.4,207.2,37.5,205.7,36.8z"/>
	</g>
	<g>
		<path class="st170" d="M167.8,30.8c-0.2,0-0.4-0.1-0.6-0.2l-11.4-10.9c-0.3-0.3-0.3-0.8,0-1.2c0.3-0.3,0.8-0.3,1.2,0l11.4,10.9
			c0.3,0.3,0.3,0.8,0,1.2C168.2,30.7,168,30.8,167.8,30.8z"/>
	</g>
	<g>
		<path class="st170" d="M164.4,34.1c-0.2,0-0.4-0.1-0.6-0.2L152.5,23c-0.3-0.3-0.3-0.8,0-1.2c0.3-0.3,0.8-0.3,1.2,0L165,32.7
			c0.3,0.3,0.3,0.8,0,1.2C164.9,34.1,164.7,34.1,164.4,34.1z"/>
	</g>
	<g>
		<path class="st170" d="M161.1,37.4c-0.2,0-0.4-0.1-0.6-0.2l-11.4-10.9c-0.3-0.3-0.3-0.8,0-1.2c0.3-0.3,0.8-0.3,1.2,0L161.7,36
			c0.3,0.3,0.3,0.8,0,1.2C161.6,37.4,161.4,37.4,161.1,37.4z"/>
	</g>
	<g>
		<path class="st170" d="M157.8,40.8c-0.2,0-0.4-0.1-0.6-0.2l-11.4-10.9c-0.3-0.3-0.3-0.8,0-1.2c0.3-0.3,0.8-0.3,1.2,0l11.4,10.9
			c0.3,0.3,0.3,0.8,0,1.2C158.3,40.7,158,40.8,157.8,40.8z"/>
	</g>
</g>
<g>
	<g>
		<path class="st171" d="M491.7,109.7l0.1,5.9c0,0,11.4,7.8,46.2,8.1c33.3,0.3,46.3-7.6,46.3-7.6v-6.4H491.7z"/>
		<g>
			<path class="st171" d="M556.6,239.5c-3.9,0-8.7,0-14.7-0.1c-13.8-0.2-29.6-0.7-31.2-1c-0.9-0.2-1.6-0.4-3.8-20
				c-1.1-10.1-2.5-24.1-4.1-41.6c-2.7-29.8-5.1-60-5.1-60.3l1.8-0.1c3.6,45.8,9.7,114.8,11.8,120.2c5.2,0.6,55.3,1.7,60.2,0.6
				c1.5-5.6,4.2-75.5,5.7-121.9l1.8,0.1c0,0.3-1,30.6-2.2,60.8c-0.7,17.7-1.4,31.9-2,42.1c-1.1,19.7-1.6,20.1-2.2,20.5
				C572.5,238.9,571.7,239.5,556.6,239.5z"/>
		</g>
		<g>
			<path class="st171" d="M555.2,220.8c-3.6,0-8.1,0-13.6-0.1c-12.8-0.2-27.5-0.6-29-1c-0.9-0.2-1.5-0.3-3.5-18.6
				c-1-9.4-2.3-22.4-3.8-38.7c-2.5-27.7-4.7-55.8-4.7-56.1l1.8-0.1c3.3,42.5,8.9,106.4,11,111.8c5,0.6,51.2,1.6,55.9,0.6
				c1.4-5.4,3.9-70.2,5.3-113.3l1.8,0.1c0,0.3-0.9,28.5-2.1,56.5c-0.7,16.5-1.3,29.6-1.8,39.1c-1,18.4-1.5,18.7-2,19.1
				C570.1,220.2,569.4,220.8,555.2,220.8z"/>
		</g>
		<ellipse class="st172" cx="538.1" cy="109.7" rx="46.3" ry="10"/>
	</g>
	<g>
		<path class="st110" d="M573.6,77.7c0-3.5-2.1-6.5-5.2-7.8l-0.7-16.4h-5.1L562,69.9c-3,1.3-5.2,4.3-5.2,7.8c0,0.1,0,0.2,0,0.3h0
			v29.7c0,0.9,0.7,1.6,1.6,1.6H572c0.9,0,1.6-0.7,1.6-1.6V78h0C573.6,77.9,573.6,77.8,573.6,77.7z"/>
		<rect x="556.8" y="80.9" class="st112" width="16.9" height="16.7"/>
		<path class="st113" d="M565.6,61.4h-0.9c-1.7,0-3.1-1.4-3.1-3.1v-1.8c0-1.7,1.4-3.1,3.1-3.1h0.9c1.7,0,3.1,1.4,3.1,3.1v1.8
			C568.7,60.1,567.3,61.4,565.6,61.4z"/>
	</g>
	<g>
		<path class="st173" d="M562,89.9c0-2.2-1.3-4-3.2-4.8L558.3,75h-3.1l-0.4,10.1c-1.9,0.8-3.2,2.6-3.2,4.8c0,0.1,0,0.1,0,0.2h0v18.3
			c0,0.5,0.4,1,1,1h8.4c0.5,0,1-0.4,1-1V90h0C562,90,562,89.9,562,89.9z"/>
		<rect x="551.6" y="91.9" class="st174" width="10.4" height="10.3"/>
		<path class="st175" d="M557,79.9h-0.5c-1.1,0-1.9-0.9-1.9-1.9v-1.1c0-1.1,0.9-1.9,1.9-1.9h0.5c1.1,0,1.9,0.9,1.9,1.9V78
			C558.9,79,558.1,79.9,557,79.9z"/>
	</g>
</g>
<g>
	
		<rect x="522.4" y="96.7" transform="matrix(3.602516e-03 -1 1 3.602516e-03 434.8421 631.3208)" class="st107" width="23.7" height="1.5"/>
	<path class="st26" d="M528.4,109.8c0.6-0.7,3-1.2,5.8-1.2c2.9,0,5.2,0.5,5.8,1.3L528.4,109.8z"/>
	<path class="st108" d="M528.3,79.9c0,0,0.9,0.1,2.9,0c2.2-0.1,5.2,0.1,6.4-0.3s3.4,1.3,3.4,1.3l0.1,6.3l-3.4,3.8l-2.3,0.5l-3.1-0.4
		l-2.2-1.2l-2-2.9l-0.3-3.6L528.3,79.9z"/>
	<path class="st109" d="M534.2,91.7c1.2,0,2.4-0.3,3.4-0.9c0.3-0.2,0.5-0.3,0.8-0.5c0.4-0.3,0.8-0.7,1.1-1c0.5-0.6,0.9-1.2,1.1-1.9
		c0.4-1.1,0.6-2.2,0.5-3.5L540,74l-11.4,0l-0.1,1.1l-0.3,2.7l-0.2,1.9l-0.1,1.2l-0.4,3C526.9,88,530.1,91.7,534.2,91.7z"/>
	<path class="st110" d="M527.8,80c0,0,0.3-0.9,3.1-0.4c2.7,0.4,3.9-0.6,7-0.2c1.3,0.1,2.8,0.9,2.8,0.9"/>
</g>
</svg>
