<?xml version="1.0" encoding="utf-8"?>
<!-- Generator: Adobe Illustrator 24.3.0, SVG Export Plug-In . SVG Version: 6.00 Build 0)  -->
<svg version="1.1" id="圖層_1" xmlns="http://www.w3.org/2000/svg" xmlns:xlink="http://www.w3.org/1999/xlink" x="0px" y="0px"
	 viewBox="0 0 675.2 52.4" style="enable-background:new 0 0 675.2 52.4;" xml:space="preserve">
<style type="text/css">
	.st0{fill:#EAEAEA;}
	.st1{fill:#22767F;}
	.st2{fill:none;stroke:#000000;stroke-linecap:round;stroke-linejoin:round;stroke-miterlimit:10;}
</style>
<g>
	<rect x="-8.5" y="-17.1" class="st0" width="692" height="42.7"/>
	<rect x="-8.5" y="25.5" class="st1" width="692" height="42.7"/>
</g>
<g>
	<g>
		<line class="st2" x1="44.3" y1="13" x2="20.7" y2="40.1"/>
		<line class="st2" x1="151.2" y1="13" x2="127.5" y2="40.1"/>
		<line class="st2" x1="62.1" y1="13" x2="38.5" y2="40.1"/>
		<line class="st2" x1="79.9" y1="13" x2="56.3" y2="40.1"/>
		<line class="st2" x1="97.7" y1="13" x2="74.1" y2="40.1"/>
		<line class="st2" x1="115.6" y1="13" x2="91.9" y2="40.1"/>
		<line class="st2" x1="133.4" y1="13" x2="109.7" y2="40.1"/>
	</g>
	<g>
		<line class="st2" x1="170.1" y1="13" x2="146.5" y2="40.1"/>
		<line class="st2" x1="276.9" y1="13" x2="253.3" y2="40.1"/>
		<line class="st2" x1="187.9" y1="13" x2="164.3" y2="40.1"/>
		<line class="st2" x1="205.7" y1="13" x2="182.1" y2="40.1"/>
		<line class="st2" x1="223.5" y1="13" x2="199.9" y2="40.1"/>
		<line class="st2" x1="241.3" y1="13" x2="217.7" y2="40.1"/>
		<line class="st2" x1="259.1" y1="13" x2="235.5" y2="40.1"/>
	</g>
	<g>
		<line class="st2" x1="295.9" y1="13" x2="272.3" y2="40.1"/>
		<line class="st2" x1="402.7" y1="13" x2="379.1" y2="40.1"/>
		<line class="st2" x1="313.7" y1="13" x2="290.1" y2="40.1"/>
		<line class="st2" x1="331.5" y1="13" x2="307.9" y2="40.1"/>
		<line class="st2" x1="349.3" y1="13" x2="325.7" y2="40.1"/>
		<line class="st2" x1="367.1" y1="13" x2="343.5" y2="40.1"/>
		<line class="st2" x1="384.9" y1="13" x2="361.3" y2="40.1"/>
	</g>
	<g>
		<line class="st2" x1="421.7" y1="13" x2="398" y2="40.1"/>
		<line class="st2" x1="528.5" y1="13" x2="504.9" y2="40.1"/>
		<line class="st2" x1="439.5" y1="13" x2="415.8" y2="40.1"/>
		<line class="st2" x1="457.3" y1="13" x2="433.6" y2="40.1"/>
		<line class="st2" x1="475.1" y1="13" x2="451.4" y2="40.1"/>
		<line class="st2" x1="492.9" y1="13" x2="469.3" y2="40.1"/>
		<line class="st2" x1="510.7" y1="13" x2="487.1" y2="40.1"/>
	</g>
	<g>
		<line class="st2" x1="547.5" y1="13" x2="523.8" y2="40.1"/>
		<line class="st2" x1="654.3" y1="13" x2="630.6" y2="40.1"/>
		<line class="st2" x1="565.3" y1="13" x2="541.6" y2="40.1"/>
		<line class="st2" x1="583.1" y1="13" x2="559.4" y2="40.1"/>
		<line class="st2" x1="600.9" y1="13" x2="577.2" y2="40.1"/>
		<line class="st2" x1="618.7" y1="13" x2="595" y2="40.1"/>
		<line class="st2" x1="636.5" y1="13" x2="612.8" y2="40.1"/>
	</g>
</g>
</svg>
