<?xml version="1.0" encoding="utf-8"?>
<!-- Generator: Adobe Illustrator 24.3.0, SVG Export Plug-In . SVG Version: 6.00 Build 0)  -->
<svg version="1.1" id="圖層_1" xmlns="http://www.w3.org/2000/svg" xmlns:xlink="http://www.w3.org/1999/xlink" x="0px" y="0px"
	 viewBox="0 0 138.6 170.4" style="enable-background:new 0 0 138.6 170.4;" xml:space="preserve">
<style type="text/css">
	.st0{fill:#EAEAEA;}
	.st1{fill:#22767F;}
	.st2{fill:#EADAC5;}
	.st3{fill:#3358A2;}
	.st4{fill:#D5D5D5;}
	.st5{fill:#DBAC7F;stroke:#040000;stroke-linecap:round;stroke-linejoin:round;stroke-miterlimit:10;}
	.st6{fill:#DBAC7F;}
	.st7{fill:#040000;}
	.st8{fill:none;stroke:#040000;stroke-linecap:round;stroke-linejoin:round;stroke-miterlimit:10;}
	.st9{fill:#A87979;}
	.st10{fill:#A87979;stroke:#040000;stroke-miterlimit:10;}
	.st11{fill:#D2DBE0;stroke:#040000;stroke-miterlimit:10;}
	.st12{fill:#61473A;stroke:#040000;stroke-miterlimit:10;}
	.st13{fill:#FFFFFF;}
	.st14{fill:#DBA777;stroke:#000000;stroke-width:0.8643;stroke-miterlimit:10;}
	.st15{fill:#B98352;stroke:#000000;stroke-width:0.8643;stroke-miterlimit:10;}
	.st16{fill:none;stroke:#000000;stroke-width:0.7891;stroke-miterlimit:10;}
	.st17{fill:#313535;stroke:#040000;stroke-linecap:round;stroke-linejoin:round;stroke-miterlimit:10;}
	.st18{fill:#FFFFFF;stroke:#FFFFFF;stroke-width:0.8391;stroke-miterlimit:10;}
	.st19{fill:#FFA486;}
	.st20{fill:#FFA486;stroke:#000000;stroke-miterlimit:10;}
	.st21{fill:#F7EBEB;stroke:#000000;stroke-miterlimit:10;}
	.st22{fill:#36303A;}
	.st23{fill:#6A433E;stroke:#000000;stroke-miterlimit:10;}
	.st24{fill:#FFA99B;stroke:#000000;stroke-miterlimit:10;}
	.st25{fill:#6A433E;}
	.st26{fill:#FFFFFF;stroke:#000000;stroke-linecap:round;stroke-linejoin:round;stroke-miterlimit:10;}
	.st27{fill:#F4EB73;stroke:#000000;stroke-miterlimit:10;}
	.st28{fill:#FFA99B;stroke:#000000;stroke-linecap:round;stroke-linejoin:round;stroke-miterlimit:10;}
	.st29{fill:#D96252;}
	.st30{fill:#D96252;stroke:#000000;stroke-miterlimit:10;}
	.st31{fill:#FFA486;stroke:#000000;stroke-width:1.0766;stroke-linecap:round;stroke-linejoin:round;stroke-miterlimit:10;}
	.st32{fill:#EFD2AA;}
	.st33{fill:#36303A;stroke:#000000;stroke-miterlimit:10;}
	.st34{fill:#86524D;stroke:#000000;stroke-miterlimit:10;}
	.st35{fill:#86524D;}
	.st36{fill:#6F5E68;stroke:#000000;stroke-miterlimit:10;}
	.st37{fill:#E9E9E9;stroke:#000000;stroke-width:1.0553;stroke-miterlimit:10;}
	.st38{fill:#537A95;stroke:#000000;stroke-width:1.0553;stroke-miterlimit:10;}
	.st39{fill:none;stroke:#000000;stroke-linecap:round;stroke-linejoin:round;stroke-miterlimit:10;}
	.st40{stroke:#000000;stroke-width:0.8013;stroke-miterlimit:10;}
	.st41{fill:#1A1817;stroke:#000000;stroke-width:0.8013;stroke-miterlimit:10;}
	.st42{fill:#FFC856;stroke:#000000;stroke-width:0.8013;stroke-miterlimit:10;}
	.st43{fill:#FAFBF7;stroke:#000000;stroke-width:0.8013;stroke-miterlimit:10;}
	.st44{fill:#928985;stroke:#000000;stroke-width:0.8013;stroke-miterlimit:10;}
	.st45{fill:#0D0D0D;stroke:#000000;stroke-width:0.8013;stroke-miterlimit:10;}
	.st46{fill:#515151;}
	.st47{fill:#9B3635;}
	.st48{fill:#DCB2CD;}
	.st49{fill:#FFFFFF;stroke:#040000;stroke-linecap:round;stroke-linejoin:round;stroke-miterlimit:10;}
	.st50{fill:#75A1A4;stroke:#040000;stroke-miterlimit:10;}
	.st51{fill:#2F6A6E;stroke:#040000;stroke-miterlimit:10;}
	.st52{fill:#D0B3C7;stroke:#040000;stroke-miterlimit:10;}
	.st53{fill:#AF959A;stroke:#040000;stroke-miterlimit:10;}
	.st54{fill:#FFFFFF;stroke:#040000;stroke-width:0.9715;stroke-linecap:round;stroke-linejoin:round;stroke-miterlimit:10;}
	.st55{fill:#5C866F;stroke:#040000;stroke-width:0.75;stroke-miterlimit:10;}
	.st56{fill:#97B4A4;stroke:#040000;stroke-width:0.75;stroke-miterlimit:10;}
	.st57{fill:#789D87;stroke:#040000;stroke-width:0.75;stroke-miterlimit:10;}
	.st58{stroke:#000000;stroke-width:30;stroke-linecap:round;stroke-linejoin:round;stroke-miterlimit:10;}
	.st59{fill:none;stroke:#000000;stroke-width:30;stroke-linecap:round;stroke-linejoin:round;stroke-miterlimit:10;}
	.st60{fill:#F8D6BC;stroke:#040000;stroke-miterlimit:10;}
	.st61{fill:#E6B282;stroke:#040000;stroke-miterlimit:10;}
	.st62{fill:#FFE5CF;stroke:#040000;stroke-width:0.7253;stroke-miterlimit:10;}
	.st63{fill:#938862;stroke:#040000;stroke-width:0.7253;stroke-miterlimit:10;}
	.st64{fill:#98B3C8;stroke:#040000;stroke-width:0.7253;stroke-miterlimit:10;}
	.st65{fill:#FFFFFF;stroke:#040000;stroke-width:0.7253;stroke-miterlimit:10;}
	.st66{fill:#F7EEE9;stroke:#040000;stroke-width:0.7253;stroke-miterlimit:10;}
	.st67{fill:#FC8A89;stroke:#040000;stroke-width:0.7253;stroke-miterlimit:10;}
	.st68{fill:#FFBB57;stroke:#040000;stroke-width:0.7253;stroke-miterlimit:10;}
	.st69{fill:#E7AD56;stroke:#040000;stroke-width:0.7253;stroke-miterlimit:10;}
	.st70{fill:#E6B282;stroke:#040000;stroke-width:0.7253;stroke-miterlimit:10;}
	.st71{fill:#F4DDBE;stroke:#040000;stroke-width:0.75;stroke-miterlimit:10;}
	.st72{fill:#FFA99B;stroke:#040000;stroke-width:0.75;stroke-miterlimit:10;}
	.st73{fill:#36303A;stroke:#040000;stroke-width:0.75;stroke-miterlimit:10;}
	.st74{fill:#554E59;}
	.st75{opacity:0.54;fill:#F7EBEB;}
	.st76{fill:#6A433E;stroke:#040000;stroke-width:0.75;stroke-miterlimit:10;}
	.st77{fill:#FFA99B;stroke:#040000;stroke-width:0.75;stroke-linecap:round;stroke-linejoin:round;stroke-miterlimit:10;}
	.st78{fill:#020202;}
	.st79{fill:#DB9A7D;stroke:#040000;stroke-width:0.75;stroke-miterlimit:10;}
	.st80{fill:#6F5E68;stroke:#040000;stroke-width:0.75;stroke-miterlimit:10;}
	.st81{fill:#FFA99B;}
	.st82{fill:#DD6A5B;stroke:#040000;stroke-width:0.5;stroke-miterlimit:10;}
	.st83{fill:#EFD2AA;stroke:#040000;stroke-width:0.5;stroke-miterlimit:10;}
	.st84{fill:#FFFFFF;stroke:#040000;stroke-width:0.5;stroke-miterlimit:10;}
	.st85{fill:#E2C295;stroke:#040000;stroke-width:0.5;stroke-miterlimit:10;}
	.st86{fill:#F7EBEB;stroke:#040000;stroke-width:0.5;stroke-miterlimit:10;}
	.st87{fill:#6F5E68;stroke:#040000;stroke-width:0.75;stroke-linecap:round;stroke-linejoin:round;stroke-miterlimit:10;}
	.st88{fill:#DB9A7D;}
	.st89{fill:#DD6A5B;stroke:#040000;stroke-width:0.75;stroke-miterlimit:10;}
	.st90{fill:#FFFFFF;stroke:#040000;stroke-width:0.75;stroke-miterlimit:10;}
	.st91{fill:#7B94B9;stroke:#040000;stroke-width:0.75;stroke-miterlimit:10;}
	.st92{fill:#6F5E61;stroke:#000000;stroke-width:1.1524;stroke-miterlimit:10;}
	.st93{fill:#DFCEC6;stroke:#000000;stroke-width:1.1524;stroke-miterlimit:10;}
	.st94{fill:#36303A;stroke:#000000;stroke-width:1.1524;stroke-miterlimit:10;}
	.st95{fill:#36303A;stroke:#000000;stroke-width:1.3348;stroke-miterlimit:10;}
	.st96{fill:#F7EFEB;stroke:#000000;stroke-width:1.3348;stroke-miterlimit:10;}
	.st97{fill:#6F5E61;stroke:#000000;stroke-width:1.1524;stroke-linecap:round;stroke-linejoin:round;stroke-miterlimit:10;}
	.st98{fill:#36303A;stroke:#000000;stroke-width:1.1524;stroke-linecap:round;stroke-linejoin:round;stroke-miterlimit:10;}
	.st99{fill:#D0D0D0;stroke:#000000;stroke-width:1.1524;stroke-linecap:round;stroke-linejoin:round;stroke-miterlimit:10;}
	.st100{fill:#905851;stroke:#000000;stroke-width:1.1524;stroke-miterlimit:10;}
	.st101{fill:#F4D1B4;stroke:#000000;stroke-width:1.1524;stroke-miterlimit:10;}
	.st102{fill:#F7EFEB;}
	.st103{fill:#733832;stroke:#000000;stroke-width:1.1524;stroke-miterlimit:10;}
	.st104{fill:#DBA777;stroke:#000000;stroke-width:1.1524;stroke-miterlimit:10;}
	.st105{fill:#DBA777;}
	.st106{fill:#905851;}
	.st107{fill:#E7E7E7;stroke:#000000;stroke-linecap:round;stroke-linejoin:round;stroke-miterlimit:10;}
	.st108{fill:#954039;}
	.st109{fill:none;stroke:#000000;stroke-width:1.2726;stroke-linecap:round;stroke-linejoin:round;stroke-miterlimit:10;}
	.st110{fill:#954039;stroke:#000000;stroke-miterlimit:10;}
	.st111{fill:#905851;stroke:#000000;stroke-width:1.1524;stroke-linecap:round;stroke-linejoin:round;stroke-miterlimit:10;}
	.st112{fill:#ACABA9;stroke:#000000;stroke-miterlimit:10;}
	.st113{fill:#020202;stroke:#000000;stroke-miterlimit:10;}
	.st114{clip-path:url(#SVGID_2_);}
	.st115{fill:#FFFFFF;stroke:#040000;stroke-width:1.1054;stroke-miterlimit:10;}
	.st116{fill:#FFFFFF;stroke:#040000;stroke-width:1.1054;stroke-linecap:round;stroke-linejoin:round;stroke-miterlimit:10;}
	.st117{fill:#F3F3F3;stroke:#040000;stroke-width:1.1054;stroke-linecap:round;stroke-linejoin:round;stroke-miterlimit:10;}
	.st118{fill:#C5C5C5;stroke:#040000;stroke-width:1.1054;stroke-linecap:round;stroke-linejoin:round;stroke-miterlimit:10;}
	.st119{clip-path:url(#SVGID_4_);}
	.st120{fill:#D7B579;stroke:#040000;stroke-width:1.1054;stroke-linecap:round;stroke-linejoin:round;stroke-miterlimit:10;}
	.st121{fill:#131414;stroke:#040000;stroke-width:1.1054;stroke-linecap:round;stroke-linejoin:round;stroke-miterlimit:10;}
	.st122{fill:#3B3F3F;stroke:#040000;stroke-width:1.1054;stroke-linecap:round;stroke-linejoin:round;stroke-miterlimit:10;}
	.st123{fill:#D7B579;stroke:#040000;stroke-width:1.1054;stroke-miterlimit:10;}
	.st124{opacity:0.5;fill:#FFFFFF;}
	.st125{fill:#966E6E;stroke:#040000;stroke-miterlimit:10;}
	.st126{fill:#2B1D1D;}
	.st127{fill:#522E2E;}
	.st128{clip-path:url(#SVGID_8_);}
	.st129{fill:#FFFFFF;stroke:#000000;stroke-miterlimit:10;}
	.st130{fill:#22767F;stroke:#000000;stroke-width:0.8559;stroke-miterlimit:10;}
	.st131{fill:none;stroke:#000000;stroke-width:0.8559;stroke-miterlimit:10;}
	.st132{fill:#F7F0F0;stroke:#000000;stroke-miterlimit:10;}
	.st133{fill:#666666;stroke:#666666;stroke-miterlimit:10;}
	.st134{fill:#DD6A5B;stroke:#000000;stroke-linecap:round;stroke-linejoin:round;stroke-miterlimit:10;}
	.st135{fill:#98B3C8;stroke:#000000;stroke-linecap:round;stroke-linejoin:round;stroke-miterlimit:10;}
	.st136{fill:#75A2A5;stroke:#000000;stroke-width:1.0824;stroke-miterlimit:10;}
	.st137{fill:#2F6A6E;stroke:#000000;stroke-width:1.0824;stroke-miterlimit:10;}
	.st138{fill:#382732;stroke:#000000;stroke-width:1.0824;stroke-miterlimit:10;}
	.st139{fill:#FFFFFF;stroke:#000000;stroke-width:1.0824;stroke-miterlimit:10;}
	.st140{clip-path:url(#SVGID_12_);}
	.st141{fill:#EFDBBF;stroke:#000000;stroke-miterlimit:10;}
	.st142{fill:#98B3C8;stroke:#000000;stroke-miterlimit:10;}
	.st143{fill:#F7F0F0;stroke:#000000;stroke-width:1.6756;stroke-miterlimit:10;}
	.st144{fill:none;stroke:#000000;stroke-width:2;stroke-miterlimit:10;}
	.st145{fill:#FFFFFF;stroke:#000000;stroke-width:2;stroke-linecap:round;stroke-linejoin:round;stroke-miterlimit:10;}
	.st146{opacity:0.5;fill:#479CA0;}
	.st147{clip-path:url(#SVGID_16_);}
	.st148{fill:#D5D5D5;stroke:#000000;stroke-width:0.8559;stroke-miterlimit:10;}
	.st149{fill:#E5E5E5;stroke:#E5E5E5;stroke-miterlimit:10;}
	.st150{fill:#D7B579;stroke:#000000;stroke-linecap:round;stroke-linejoin:round;stroke-miterlimit:10;}
	.st151{clip-path:url(#SVGID_20_);}
	.st152{fill:#CE7C78;stroke:#000000;stroke-miterlimit:10;}
	.st153{fill:#D7B579;stroke:#000000;stroke-miterlimit:10;}
	.st154{fill:#D8D8D8;stroke:#000000;stroke-width:2.17;stroke-miterlimit:10;}
	.st155{fill:#0D0D0D;stroke:#000000;stroke-width:0.75;stroke-miterlimit:10;}
	.st156{fill:#FFC956;stroke:#000000;stroke-width:0.75;stroke-miterlimit:10;}
	.st157{fill:#FBFCF8;stroke:#000000;stroke-width:0.75;stroke-miterlimit:10;}
	.st158{fill:#1A1817;stroke:#000000;stroke-width:0.75;stroke-miterlimit:10;}
	.st159{fill:#938A86;stroke:#000000;stroke-width:0.75;stroke-miterlimit:10;}
	.st160{stroke:#000000;stroke-width:0.75;stroke-miterlimit:10;}
	.st161{fill:#938862;stroke:#040000;stroke-width:0.8707;stroke-miterlimit:10;}
	.st162{fill:#736638;stroke:#040000;stroke-width:0.8707;stroke-miterlimit:10;}
	.st163{fill:#97B4A4;stroke:#000000;stroke-linecap:round;stroke-linejoin:round;stroke-miterlimit:10;}
	.st164{fill:#789D87;stroke:#000000;stroke-linecap:round;stroke-linejoin:round;stroke-miterlimit:10;}
	.st165{fill:#905851;stroke:#000000;stroke-linecap:round;stroke-linejoin:round;stroke-miterlimit:10;}
	.st166{fill:#DFCEC6;stroke:#000000;stroke-linecap:round;stroke-linejoin:round;stroke-miterlimit:10;}
	.st167{fill:#B0969B;stroke:#000000;stroke-width:3;stroke-miterlimit:10;}
	.st168{fill:#6F5E61;stroke:#000000;stroke-width:1.3651;stroke-miterlimit:10;}
	.st169{fill:#DFCEC6;stroke:#000000;stroke-width:1.3651;stroke-miterlimit:10;}
	.st170{fill:#36303A;stroke:#000000;stroke-width:1.3651;stroke-miterlimit:10;}
	.st171{fill:#36303A;stroke:#000000;stroke-linecap:round;stroke-linejoin:round;stroke-miterlimit:10;}
	.st172{fill:#F2E9EE;stroke:#000000;stroke-linecap:round;stroke-linejoin:round;stroke-miterlimit:10;}
	.st173{fill:#C1817E;stroke:#000000;stroke-width:0.6146;stroke-miterlimit:10;}
	.st174{fill:#ACABA9;stroke:#000000;stroke-width:0.6146;stroke-miterlimit:10;}
	.st175{fill:#020202;stroke:#000000;stroke-width:0.6146;stroke-miterlimit:10;}
	.st176{fill:#61372B;}
	.st177{fill:#E5B891;stroke:#040000;stroke-miterlimit:10;}
	.st178{fill:#DFB69E;stroke:#040000;stroke-width:0.7279;stroke-miterlimit:10;}
	.st179{fill:#A56656;stroke:#040000;stroke-width:0.9617;stroke-miterlimit:10;}
	.st180{fill:#FFA486;stroke:#000000;stroke-width:0.9093;stroke-miterlimit:10;}
	.st181{fill:#382732;stroke:#000000;stroke-width:0.7891;stroke-miterlimit:10;}
	.st182{fill:#382732;}
	.st183{fill:#FF9975;}
	.st184{fill:#6F5E61;stroke:#000000;stroke-width:0.7891;stroke-miterlimit:10;}
	.st185{fill:none;stroke:#040000;stroke-miterlimit:10;}
	.st186{fill:#313535;stroke:#040000;stroke-width:1.0065;stroke-linecap:round;stroke-linejoin:round;stroke-miterlimit:10;}
	.st187{fill:#FFFFFF;stroke:#FFFFFF;stroke-width:0.8446;stroke-miterlimit:10;}
	.st188{fill:#FFFFFF;stroke:#000000;stroke-width:0.7891;stroke-miterlimit:10;}
	.st189{fill:#86524D;stroke:#000000;stroke-width:0.9093;stroke-miterlimit:10;}
	.st190{fill:#FFFFFF;stroke:#000000;stroke-width:0.9093;stroke-linecap:round;stroke-linejoin:round;stroke-miterlimit:10;}
	.st191{fill:#36303A;stroke:#000000;stroke-width:0.7891;stroke-miterlimit:10;}
	.st192{fill:#6A433E;stroke:#000000;stroke-width:0.8804;stroke-miterlimit:10;}
	.st193{fill:#FFA99B;stroke:#000000;stroke-width:0.8804;stroke-miterlimit:10;}
	.st194{fill:#FFFFFF;stroke:#000000;stroke-width:0.8804;stroke-linecap:round;stroke-linejoin:round;stroke-miterlimit:10;}
	.st195{fill:#FFA99B;stroke:#000000;stroke-width:0.8804;stroke-linecap:round;stroke-linejoin:round;stroke-miterlimit:10;}
	.st196{fill:#E9E9E9;stroke:#000000;stroke-width:0.8328;stroke-miterlimit:10;}
	.st197{fill:#537A95;stroke:#000000;stroke-width:0.8328;stroke-miterlimit:10;}
	.st198{fill:#FF9975;stroke:#000000;stroke-width:0.7891;stroke-miterlimit:10;}
	.st199{fill:#EFDBBF;stroke:#000000;stroke-width:0.7891;stroke-miterlimit:10;}
	.st200{fill:#AF959A;stroke:#000000;stroke-linecap:round;stroke-linejoin:round;stroke-miterlimit:10;}
	.st201{fill:#AF959A;}
	.st202{fill:#FFA486;stroke:#000000;stroke-width:0.7947;stroke-miterlimit:10;}
	.st203{fill:#382732;stroke:#000000;stroke-width:0.6897;stroke-miterlimit:10;}
	.st204{fill:#6F5E61;stroke:#000000;stroke-width:0.6897;stroke-miterlimit:10;}
	.st205{fill:none;stroke:#040000;stroke-width:0.874;stroke-miterlimit:10;}
	.st206{fill:#313535;stroke:#040000;stroke-width:1.0909;stroke-linecap:round;stroke-linejoin:round;stroke-miterlimit:10;}
	.st207{fill:#FFFFFF;stroke:#FFFFFF;stroke-width:0.9154;stroke-miterlimit:10;}
	.st208{fill:#FFFFFF;stroke:#000000;stroke-width:0.6897;stroke-miterlimit:10;}
	.st209{fill:#86524D;stroke:#000000;stroke-width:0.7947;stroke-miterlimit:10;}
	.st210{fill:#FFFFFF;stroke:#000000;stroke-width:0.7947;stroke-linecap:round;stroke-linejoin:round;stroke-miterlimit:10;}
	.st211{fill:#36303A;stroke:#000000;stroke-width:0.6897;stroke-miterlimit:10;}
	.st212{fill:#E9E9E9;stroke:#000000;stroke-width:1.0991;stroke-miterlimit:10;}
	.st213{fill:#537A95;stroke:#000000;stroke-width:1.0991;stroke-miterlimit:10;}
	.st214{fill:#FFA486;stroke:#000000;stroke-width:1.3866;stroke-linecap:round;stroke-linejoin:round;stroke-miterlimit:10;}
	.st215{clip-path:url(#SVGID_22_);}
	.st216{fill:#FFFFFF;stroke:#040000;stroke-width:1.1773;stroke-miterlimit:10;}
	.st217{fill:#FFFFFF;stroke:#040000;stroke-width:1.1773;stroke-linecap:round;stroke-linejoin:round;stroke-miterlimit:10;}
	.st218{fill:#F3F3F3;stroke:#040000;stroke-width:1.1773;stroke-linecap:round;stroke-linejoin:round;stroke-miterlimit:10;}
	.st219{fill:#C5C5C5;stroke:#040000;stroke-width:1.1773;stroke-linecap:round;stroke-linejoin:round;stroke-miterlimit:10;}
	.st220{clip-path:url(#SVGID_24_);}
	.st221{fill:#D7B579;stroke:#040000;stroke-width:1.1773;stroke-linecap:round;stroke-linejoin:round;stroke-miterlimit:10;}
	.st222{fill:#131414;stroke:#040000;stroke-width:1.1773;stroke-linecap:round;stroke-linejoin:round;stroke-miterlimit:10;}
	.st223{fill:#3B3F3F;stroke:#040000;stroke-width:1.1773;stroke-linecap:round;stroke-linejoin:round;stroke-miterlimit:10;}
	.st224{fill:#D7B579;stroke:#040000;stroke-width:1.1773;stroke-miterlimit:10;}
	.st225{stroke:#000000;stroke-width:1.5136;stroke-miterlimit:10;}
	.st226{fill:#1A1817;stroke:#000000;stroke-width:1.5136;stroke-miterlimit:10;}
	.st227{fill:#FFC856;stroke:#000000;stroke-width:1.5136;stroke-miterlimit:10;}
	.st228{fill:#FAFBF7;stroke:#000000;stroke-width:1.5136;stroke-miterlimit:10;}
	.st229{fill:#928985;stroke:#000000;stroke-width:1.5136;stroke-miterlimit:10;}
	.st230{fill:#0D0D0D;stroke:#000000;stroke-width:1.5136;stroke-miterlimit:10;}
	.st231{fill:#36303A;stroke:#000000;stroke-width:2.2957;stroke-miterlimit:10;}
	.st232{fill:#F7EFEB;stroke:#000000;stroke-width:2.2957;stroke-miterlimit:10;}
	.st233{fill:#954039;stroke:#000000;stroke-width:1.7199;stroke-miterlimit:10;}
	.st234{fill:#ACABA9;stroke:#000000;stroke-width:1.7199;stroke-miterlimit:10;}
	.st235{fill:#020202;stroke:#000000;stroke-width:1.7199;stroke-miterlimit:10;}
	.st236{fill:#905851;stroke:#000000;stroke-width:1.982;stroke-miterlimit:10;}
	.st237{fill:#F4D1B4;stroke:#000000;stroke-width:1.982;stroke-miterlimit:10;}
	.st238{fill:#36303A;stroke:#000000;stroke-width:1.982;stroke-miterlimit:10;}
	.st239{fill:#733832;stroke:#000000;stroke-width:1.982;stroke-miterlimit:10;}
	.st240{fill:#DFCEC6;stroke:#000000;stroke-width:1.982;stroke-miterlimit:10;}
	.st241{fill:#DBA777;stroke:#000000;stroke-width:1.982;stroke-miterlimit:10;}
	.st242{fill:#E7E7E7;stroke:#000000;stroke-width:1.7199;stroke-linecap:round;stroke-linejoin:round;stroke-miterlimit:10;}
	.st243{fill:#FFFFFF;stroke:#000000;stroke-width:1.7199;stroke-linecap:round;stroke-linejoin:round;stroke-miterlimit:10;}
	.st244{fill:none;stroke:#000000;stroke-width:2.1888;stroke-linecap:round;stroke-linejoin:round;stroke-miterlimit:10;}
	.st245{fill:#905851;stroke:#000000;stroke-width:1.982;stroke-linecap:round;stroke-linejoin:round;stroke-miterlimit:10;}
	.st246{fill:#FFFFFF;stroke:#040000;stroke-width:2.3181;stroke-linecap:round;stroke-linejoin:round;stroke-miterlimit:10;}
	.st247{fill:#75A1A4;stroke:#040000;stroke-width:2.3181;stroke-miterlimit:10;}
	.st248{fill:#2F6A6E;stroke:#040000;stroke-width:2.3181;stroke-miterlimit:10;}
	.st249{fill:#D0B3C7;stroke:#040000;stroke-width:2.3181;stroke-miterlimit:10;}
	.st250{fill:#AF959A;stroke:#040000;stroke-width:2.3181;stroke-miterlimit:10;}
	.st251{fill:none;stroke:#040000;stroke-width:2.3181;stroke-linecap:round;stroke-linejoin:round;stroke-miterlimit:10;}
	.st252{fill:#FFFFFF;stroke:#040000;stroke-width:2.2519;stroke-linecap:round;stroke-linejoin:round;stroke-miterlimit:10;}
	.st253{fill:#5C866F;stroke:#040000;stroke-width:1.7385;stroke-miterlimit:10;}
	.st254{fill:#97B4A4;stroke:#040000;stroke-width:1.7385;stroke-miterlimit:10;}
	.st255{fill:#789D87;stroke:#040000;stroke-width:1.7385;stroke-miterlimit:10;}
	.st256{fill:#F8D6BC;stroke:#040000;stroke-width:1.46;stroke-miterlimit:10;}
	.st257{fill:#E6B282;stroke:#040000;stroke-width:1.46;stroke-miterlimit:10;}
	.st258{fill:#FFE5CF;stroke:#040000;stroke-width:1.3043;stroke-miterlimit:10;}
	.st259{fill:#938862;stroke:#040000;stroke-width:1.3043;stroke-miterlimit:10;}
	.st260{fill:#98B3C8;stroke:#040000;stroke-width:1.3043;stroke-miterlimit:10;}
	.st261{fill:#FFFFFF;stroke:#040000;stroke-width:1.3043;stroke-miterlimit:10;}
	.st262{fill:#F7EEE9;stroke:#040000;stroke-width:1.3043;stroke-miterlimit:10;}
	.st263{fill:#FC8A89;stroke:#040000;stroke-width:1.3043;stroke-miterlimit:10;}
	.st264{fill:#FFBB57;stroke:#040000;stroke-width:1.3043;stroke-miterlimit:10;}
	.st265{fill:#E7AD56;stroke:#040000;stroke-width:1.3043;stroke-miterlimit:10;}
	.st266{fill:#E6B282;stroke:#040000;stroke-width:1.3043;stroke-miterlimit:10;}
	.st267{fill:#F4DDBE;stroke:#040000;stroke-width:1.3488;stroke-miterlimit:10;}
	.st268{fill:#FFA99B;stroke:#040000;stroke-width:1.3488;stroke-miterlimit:10;}
	.st269{fill:#36303A;stroke:#040000;stroke-width:1.3488;stroke-miterlimit:10;}
	.st270{fill:#6A433E;stroke:#040000;stroke-width:1.3488;stroke-miterlimit:10;}
	.st271{fill:#FFA99B;stroke:#040000;stroke-width:1.3488;stroke-linecap:round;stroke-linejoin:round;stroke-miterlimit:10;}
	.st272{fill:#DB9A7D;stroke:#040000;stroke-width:1.3488;stroke-miterlimit:10;}
	.st273{fill:#6F5E68;stroke:#040000;stroke-width:1.3488;stroke-miterlimit:10;}
	.st274{fill:#DD6A5B;stroke:#040000;stroke-width:0.8992;stroke-miterlimit:10;}
	.st275{fill:#EFD2AA;stroke:#040000;stroke-width:0.8992;stroke-miterlimit:10;}
	.st276{fill:#FFFFFF;stroke:#040000;stroke-width:0.8992;stroke-miterlimit:10;}
	.st277{fill:#E2C295;stroke:#040000;stroke-width:0.8992;stroke-miterlimit:10;}
	.st278{fill:#F7EBEB;stroke:#040000;stroke-width:0.8992;stroke-miterlimit:10;}
	.st279{fill:#6F5E68;stroke:#040000;stroke-width:1.3488;stroke-linecap:round;stroke-linejoin:round;stroke-miterlimit:10;}
	.st280{fill:#DD6A5B;stroke:#040000;stroke-width:1.3488;stroke-miterlimit:10;}
	.st281{fill:#FFFFFF;stroke:#040000;stroke-width:1.3488;stroke-miterlimit:10;}
	.st282{fill:#7B94B9;stroke:#040000;stroke-width:1.3488;stroke-miterlimit:10;}
	.st283{clip-path:url(#SVGID_26_);}
	.st284{clip-path:url(#SVGID_28_);}
	.st285{display:none;}
	.st286{fill:#DD6A5B;stroke:#040000;stroke-width:0.9986;stroke-miterlimit:10;}
	.st287{fill:#EFD2AA;stroke:#040000;stroke-width:0.9986;stroke-miterlimit:10;}
	.st288{fill:#E2C295;stroke:#040000;stroke-width:0.9986;stroke-miterlimit:10;}
</style>
<g>
	<g>
		<path class="st155" d="M35,123.1c-0.3,0-0.6,0-1,0c-7.2,0-14.6-0.5-20.4-1.3c-2.9-0.4-5.2-0.8-6.8-1.3c-1.4-0.4-3-1.1-3-2.2
			c0-0.9,1-1.6,3.1-2.2c1.6-0.5,4-0.9,6.9-1.3c5.8-0.8,13.3-1.2,20.6-1.3c6.8,0,13.6,0.3,19.1,0.9c6,0.7,9.6,1.6,10.6,2.8
			c0.4,0.4,0.4,0.9,0.4,1.1c-0.1,0.9-1.1,1.6-3.2,2.3c-1.7,0.5-4,1-6.9,1.3C49.1,122.7,42,123.1,35,123.1z M5.4,118.4
			c0.5,0.5,2.9,1.4,9.2,2.2c5.6,0.7,12.7,1.1,19.5,1.2c7.1,0,14.4-0.3,20-1c8-1,9.1-2.2,9.2-2.4c-0.1-0.2-1.3-1.3-9.1-2.3
			c-5.5-0.7-12.6-1-19.6-1c-6.9,0-14.1,0.5-19.8,1.2C7.3,117.1,5.7,118.1,5.4,118.4z"/>
	</g>
	<path class="st156" d="M41.6,70.2c-1-2.1-1.9-4.2-2.4-6.5c-0.9,0-1.8,0-2.7-0.1c0.2,2.6,0.9,4.8,1.7,6.7
		C39.4,70.3,40.5,70.2,41.6,70.2z"/>
	<path class="st156" d="M41.7,88.7c3.1-2.7,3.9-6.9,3.4-9.8c-0.4-2.4-1.6-4.7-2.8-7.3c-1.1,0.1-2.3,0.1-3.5,0.1
		c0.8,1.7,1.5,3.2,1.8,4.7c0.5,3.1-0.1,8.4-5.9,8.9c-5.7,0.5-8-4.4-7.4-8.5c0.2-1.7,1.2-3.3,2.2-5.1c-1.2,0-2.4-0.1-3.6-0.2
		c-1.4,2.1-2.7,4-3.1,6.5c-0.6,3.9,0.3,8.2,3.5,10.8c2.7-0.1,5.4-0.2,8.2-0.2C36.9,88.6,39.3,88.6,41.7,88.7z"/>
	<path class="st156" d="M29.6,63.8c-0.5,2.6-1.6,4.6-2.8,6.4c1.1,0.1,2.3,0.1,3.5,0.2c1-1.9,2-4,2.3-6.6
		C31.6,63.7,30.6,63.7,29.6,63.8z"/>
	<path class="st156" d="M34.5,90c-2,0-3.9,0.1-5.9,0.1c1.6,0.7,3.5,1.1,5.9,1c2,0,3.7-0.4,5.1-1.1C37.9,90,36.2,90,34.5,90z"/>
	<path class="st156" d="M39,62.3c0-0.1,0-0.1,0-0.2c-0.1,0.1-0.2,0.1-0.4,0.2C38.7,62.3,38.9,62.3,39,62.3z"/>
	<path class="st157" d="M33.9,71.8c-1.4,0-2.9,0-4.3-0.1c-1,1.8-2,3.4-2.2,5.1c-0.6,4.1,1.6,9.1,7.4,8.5c5.8-0.5,6.5-5.8,5.9-8.9
		c-0.2-1.4-1-2.9-1.8-4.7c-1.4,0-2.8,0.1-4.1,0.1C34.4,71.8,34.2,71.8,33.9,71.8z"/>
	<path class="st157" d="M38.2,70.3c-0.8-1.9-1.5-4-1.7-6.7c-0.8,0-1.5,0-2.3,0c-0.6,0-1.1,0-1.7,0c-0.3,2.6-1.3,4.7-2.3,6.6
		c1.2,0,2.4,0.1,3.6,0.1C35.3,70.4,36.8,70.4,38.2,70.3z"/>
	<path class="st158" d="M31.2,46.9c0.3,0.1,0.6,0.2,1,0.2c0-0.1,0-0.2,0-0.3C31.8,46.8,31.5,46.9,31.2,46.9z"/>
	<path class="st158" d="M31,61.9c-0.2,0-0.3-0.1-0.3-0.2c-0.1-0.1-0.1-12.2,0-13.5c-0.4-0.1-0.8-0.3-1.1-0.5
		c-0.4,2.4-0.2,14.5,0.1,14.6c0.1,0,0.2,0,0.3,0c0.1,0,0.1,0,0.2,0C30.3,62.1,30.6,62,31,61.9z"/>
	<path class="st158" d="M36.3,47.2c0.5-0.1,0.9-0.2,1.3-0.3c-0.3,0-0.7-0.1-1.2-0.1C36.4,46.9,36.3,47.1,36.3,47.2z"/>
	<path class="st158" d="M34.2,48.7c-0.1,0-0.9,0-1.9-0.1c0.1,2.5,0.1,12.7,0,13c0,0,0,0.1-0.1,0.1c0.3,0,0.6,0,0.9,0
		c0.7-0.1,1.8-0.1,2.6,0.1c1.7,0.1,3.2,0.4,3.2,0.4c0.4-0.3,0.2-11.2-0.2-14.2C37.4,48.7,34.8,48.7,34.2,48.7
		C34.3,48.7,34.3,48.7,34.2,48.7z"/>
	<path class="st158" d="M32.7,61.9c0-0.1,0.2-0.2,0.5-0.2c-0.3,0-0.6,0-0.9,0c-0.2,0.4-0.9,0.4-1.3,0.2c-0.4,0.1-0.7,0.2-0.9,0.4
		c0.9,0,1.7-0.1,2.6-0.1C32.7,62.1,32.7,62,32.7,61.9z"/>
	<path class="st158" d="M36.5,62.2c0.7,0,1.4,0,2,0c0.2-0.1,0.3-0.1,0.4-0.2c0,0-1.4-0.2-3.2-0.4C36.2,61.8,36.5,62,36.5,62.2z"/>
	<path class="st158" d="M35.8,61.7c-0.8-0.2-2-0.2-2.6-0.1C34,61.6,35,61.6,35.8,61.7z"/>
	<path class="st158" d="M32.7,61.9c0,0.1,0,0.3,0,0.4c0.5,0,1,0,1.6,0c0.7,0,1.5,0,2.3,0c0-0.2-0.3-0.4-0.7-0.5
		c-0.8-0.1-1.8-0.1-2.6-0.1C32.9,61.7,32.7,61.8,32.7,61.9z"/>
	<path class="st159" d="M32.4,61.5c0.1-0.3,0-10.4,0-13c-0.5-0.1-1.1-0.2-1.7-0.3c-0.1,1.2-0.1,13.4,0,13.5c0.1,0.1,0.2,0.1,0.3,0.2
		c0.4-0.1,0.8-0.2,1.3-0.2C32.3,61.6,32.3,61.6,32.4,61.5z"/>
	<path class="st159" d="M32.3,61.7c-0.5,0-0.9,0.1-1.3,0.2C31.4,62,32.1,62.1,32.3,61.7z"/>
	<path class="st158" d="M36.4,46.8c0-0.2,0-0.4,0-0.6c-0.6-0.1-1.3-0.2-2.1-0.1c-0.1,0-0.2,0-0.3,0c0,0.3,0,0.6,0,0.7
		C34.8,46.7,35.7,46.7,36.4,46.8z"/>
	<path class="st158" d="M36.4,44.7c0-0.8-0.1-1.6-0.2-1.7c-0.1-0.2-0.6-0.3-1.3-0.3c0,0.9,0,1.6,0,1.9C35.5,44.6,36,44.7,36.4,44.7z
		"/>
	<path class="st158" d="M32.9,46.8c0-0.1,0-0.3,0-0.6c-0.3,0-0.5,0.1-0.8,0.1c0,0.2,0,0.4,0,0.5C32.4,46.8,32.6,46.8,32.9,46.8z"/>
	<path class="st158" d="M32.9,43.3c0-0.1,0.3-0.2,0.6-0.1c0-0.1,0-0.3,0-0.5c-0.6,0.1-1.2,0.2-1.3,0.3c-0.1,0.2-0.2,0.9-0.2,1.7
		c0.3,0,0.5-0.1,0.8-0.1C32.9,44.3,32.9,43.8,32.9,43.3z"/>
	<path class="st158" d="M34,46.7C34,46.8,34,46.8,34,46.7c-0.1,0.2-0.9,0.2-1.1,0.1c0,0,0,0,0-0.1c-0.3,0-0.5,0-0.8,0
		c0,0.1,0,0.2,0,0.3c0.6,0.1,1.3,0.2,2.1,0.2c0.8,0,1.5,0,2-0.1c0-0.1,0.1-0.2,0.1-0.4C35.7,46.7,34.8,46.7,34,46.7z"/>
	<path class="st159" d="M33.5,43.2c-0.3,0-0.6,0-0.6,0.1c0,0.5-0.1,0.9-0.1,1.4c0.3,0,0.5,0,0.7-0.1C33.6,44.4,33.6,43.9,33.5,43.2z
		"/>
	<path class="st159" d="M34,46.7c0-0.1,0-0.3,0-0.7c-0.4,0-0.8,0-1.1,0.1c0,0.3,0,0.5,0,0.6C33.3,46.7,33.6,46.7,34,46.7z"/>
	<path class="st159" d="M32.9,46.8c0.1,0.1,0.9,0.1,1,0c0,0,0,0,0-0.1C33.6,46.7,33.3,46.7,32.9,46.8C32.9,46.8,32.9,46.8,32.9,46.8
		z"/>
	<path class="st160" d="M35,42.7c-0.2-15.4,1.4,31.2,0.5-42.4H34c0.9,73.5-0.6,26.9-0.5,42.4C34,42.7,34.5,42.7,35,42.7z"/>
	<path class="st160" d="M33.9,43.3c0,0.1,0,0.6,0.1,1.3c0.2,0,0.3,0,0.3,0c0.2,0,0.4,0,0.7,0c0-0.3,0-1,0-1.9c-0.5,0-1,0-1.4,0
		c0,0.2,0,0.3,0,0.5C33.7,43.2,33.9,43.2,33.9,43.3z"/>
	<path class="st159" d="M34,44.6c0-0.7,0-1.3-0.1-1.3c0-0.1-0.2-0.1-0.4-0.1c0,0.7,0,1.2,0,1.5C33.7,44.6,33.9,44.6,34,44.6z"/>
	<path class="st155" d="M64.3,92.3c-1-1.2-4.6-2.1-10.6-2.8c-3.6-0.4-7.6-0.7-11.9-0.8c-0.6,0.5-1.3,1-2.2,1.4
		c5.3,0.1,10.5,0.4,14.6,0.9c7.8,1,9,2.1,9.1,2.3c-0.1,0.2-1.2,1.4-9.2,2.4c-2.2,0.3-4.7,0.5-7.4,0.7c0.6,0.4,1.2,0.8,1.8,1.3
		c2.2-0.2,4.2-0.4,6.1-0.6c2.9-0.4,5.3-0.8,6.9-1.3c2.1-0.6,3.1-1.3,3.2-2.3C64.7,93.2,64.7,92.7,64.3,92.3z"/>
	<path class="st155" d="M40.6,96.6c-2.2,0.1-4.4,0.1-6.6,0.1c-2,0-4.1-0.1-6.1-0.1c-0.2,0.4-0.5,0.8-0.8,1.4c1.7,0.1,3.4,0.1,5,0.1
		c0.1-0.3,0.1-0.6,0.2-0.9c0-0.2,0.2-0.3,0.4-0.3c0.2,0,0.3,0.2,0.3,0.4c0,0.2-0.1,0.5-0.1,0.8c0.4,0,0.9,0,1.3,0c0.3,0,0.6,0,1,0
		c0.5,0,1,0,1.5,0c0-0.1,0-0.2-0.1-0.3c0-0.2,0.1-0.3,0.2-0.4c0.2,0,0.3,0.1,0.4,0.2c0,0.1,0.1,0.3,0.1,0.5c1.4,0,2.8,0,4.2-0.1
		c-0.2-0.4-0.5-0.8-0.7-1.2C40.6,96.8,40.6,96.7,40.6,96.6z"/>
	<path class="st155" d="M22.6,96.3c-0.4,0.4-0.8,0.9-1.2,1.4c1.7,0.1,3.4,0.2,5.1,0.3c0.3-0.5,0.6-1,0.8-1.4
		C25.6,96.5,24.1,96.4,22.6,96.3z"/>
	<path class="st155" d="M14.6,95.6c-6.3-0.8-8.7-1.7-9.2-2.2c0.3-0.3,2-1.3,9.4-2.2c4-0.5,8.9-0.9,13.8-1c-0.9-0.4-1.6-0.8-2.3-1.3
		c-4.5,0.2-8.8,0.6-12.5,1.1c-2.9,0.4-5.2,0.8-6.9,1.3c-2.1,0.6-3.1,1.3-3.1,2.2c0,1.2,1.6,1.8,3,2.2c1.6,0.5,3.9,0.9,6.8,1.3
		c2.1,0.3,4.4,0.5,6.9,0.7c0.4-0.5,0.8-0.9,1.2-1.3C19.2,96.1,16.8,95.8,14.6,95.6z"/>
	<path class="st155" d="M41.2,96.6c0.2,0.4,0.5,0.9,0.8,1.4c1.9-0.1,3.7-0.2,5.5-0.3c-0.6-0.5-1.3-0.9-1.8-1.3
		C44.2,96.5,42.7,96.6,41.2,96.6z"/>
	<path class="st156" d="M34.5,90c1.7,0,3.4,0,5,0c0.8-0.4,1.5-0.8,2.2-1.4c-2.4-0.1-4.8-0.1-7.2-0.1c-2.7,0-5.5,0.1-8.2,0.2
		c0.7,0.5,1.4,1,2.3,1.3C30.6,90.1,32.6,90,34.5,90z"/>
	<path class="st155" d="M21.8,96.3c-0.4,0.4-0.8,0.9-1.2,1.3c0.3,0,0.5,0,0.8,0.1c0.4-0.5,0.9-1,1.2-1.4
		C22.3,96.3,22,96.3,21.8,96.3z"/>
	<path class="st155" d="M45.7,96.4c0.6,0.4,1.2,0.8,1.8,1.3c0.3,0,0.6,0,0.9-0.1c-0.6-0.5-1.2-0.9-1.8-1.3
		C46.3,96.4,46,96.4,45.7,96.4z"/>
	<path class="st155" d="M32.7,97c-0.2,0-0.3,0.1-0.4,0.3c0,0.2-0.1,0.5-0.2,0.9c0.2,0,0.4,0,0.6,0c0.1-0.3,0.1-0.6,0.1-0.8
		C32.9,97.2,32.8,97,32.7,97z"/>
	<path class="st155" d="M36.7,97.5c-0.2,0-0.3,0.2-0.2,0.4c0,0.1,0,0.2,0.1,0.3c0.2,0,0.4,0,0.6,0c0-0.2-0.1-0.3-0.1-0.5
		C37,97.5,36.8,97.4,36.7,97.5z"/>
	<path class="st155" d="M27.2,96.6c-0.2,0.4-0.5,0.9-0.8,1.4c0.2,0,0.5,0,0.7,0c0.3-0.6,0.6-1,0.8-1.4
		C27.7,96.6,27.4,96.6,27.2,96.6z"/>
	<path class="st155" d="M40.6,96.6c0,0.1,0,0.2,0,0.2c0.2,0.4,0.4,0.7,0.7,1.2c0.2,0,0.5,0,0.7,0c-0.3-0.5-0.6-1-0.8-1.4
		C41,96.6,40.8,96.6,40.6,96.6z"/>
	<path class="st155" d="M51.5,64.7c6.2,0.9,7.8,1.9,7.9,2.3c0,0-0.4,1.3-8,2.4c-2.9,0.4-6.3,0.7-9.9,0.9c0.2,0.5,0.5,0.9,0.7,1.4
		c3.4-0.2,6.7-0.5,9.5-0.9c2.6-0.4,4.7-0.8,6.2-1.3c1.9-0.6,2.8-1.4,2.9-2.3c0-0.3,0-0.7-0.4-1.2c-1.9-2.1-11.7-3.3-21.5-3.6
		c0.1,0.5,0.1,1,0.2,1.4C43.7,63.8,48,64.2,51.5,64.7z"/>
	<path class="st155" d="M16.9,69.2c-6.5-0.9-7.8-1.9-8-2.2c0.2-0.2,1.6-1.2,8.2-2.2c3.7-0.5,8.1-0.9,12.5-1.1
		c0.1-0.3,0.1-0.6,0.2-0.9c0-0.2,0.1-0.4,0.3-0.5c-0.1,0-0.1,0-0.2,0c-4.9,0.2-9.7,0.6-13.6,1.2c-2.6,0.4-4.6,0.8-6.1,1.3
		c-1.3,0.4-2.8,1.1-2.8,2.2c0,1.2,1.5,1.8,2.7,2.2c1.4,0.5,3.4,0.9,6,1.3c2.9,0.4,6.2,0.8,9.7,1c0.3-0.5,0.6-0.9,0.9-1.4
		C23.3,69.9,19.9,69.6,16.9,69.2z"/>
	<path class="st155" d="M38.2,70.3c0.2,0.5,0.4,1,0.6,1.4c1.2,0,2.3-0.1,3.5-0.1c-0.2-0.5-0.5-0.9-0.7-1.4
		C40.5,70.2,39.4,70.3,38.2,70.3z"/>
	<path class="st156" d="M32.7,62.5c-1.1,0-2-0.1-2.6-0.2c-0.2,0.2-0.3,0.3-0.3,0.5c0,0.3-0.1,0.6-0.2,0.9c1,0,2-0.1,3-0.1
		C32.6,63.3,32.7,62.9,32.7,62.5z"/>
	<path class="st156" d="M36.5,62.5c0,0.4,0,0.8,0,1.1c0.9,0,1.8,0,2.7,0.1c-0.1-0.5-0.2-1-0.2-1.4c-0.2,0-0.3,0-0.5,0
		C38.1,62.4,37.4,62.5,36.5,62.5z"/>
	<path class="st155" d="M30.3,70.3c-1.2,0-2.3-0.1-3.5-0.2c-0.3,0.5-0.6,0.9-0.9,1.4c1.2,0.1,2.4,0.1,3.6,0.2
		C29.8,71.2,30,70.8,30.3,70.3z"/>
	<path class="st157" d="M32.7,62.5c0,0.4-0.1,0.8-0.1,1.2c0.6,0,1.1,0,1.7,0c0.8,0,1.5,0,2.3,0c0-0.4,0-0.8,0-1.1
		C35.4,62.6,33.9,62.6,32.7,62.5z"/>
	<path class="st155" d="M33.9,70.4c-1.2,0-2.4,0-3.6-0.1c-0.3,0.5-0.5,1-0.8,1.4c1.4,0.1,2.9,0.1,4.3,0.1c0.3,0,0.6,0,0.8,0
		c1.4,0,2.8,0,4.1-0.1c-0.2-0.5-0.4-0.9-0.6-1.4C36.8,70.4,35.3,70.4,33.9,70.4z"/>
	<path class="st155" d="M30.1,62.3c-0.1,0-0.1,0-0.2,0C30,62.3,30,62.3,30.1,62.3C30.1,62.3,30.1,62.3,30.1,62.3z"/>
	<path class="st155" d="M32.7,62.2c-0.9,0-1.7,0-2.6,0.1c0,0,0,0,0,0c0.6,0.1,1.5,0.1,2.6,0.2C32.7,62.4,32.7,62.3,32.7,62.2z"/>
	<path class="st155" d="M36.5,62.5c0.8,0,1.6-0.1,2-0.3c-0.7,0-1.4,0-2,0c0,0,0,0,0,0C36.5,62.4,36.5,62.4,36.5,62.5z"/>
	<path class="st155" d="M34.3,62.2c-0.5,0-1,0-1.6,0c0,0.1,0,0.2,0,0.3c1.3,0,2.7,0.1,3.8,0c0-0.1,0-0.2,0-0.2c0,0,0,0,0,0
		C35.8,62.2,35,62.2,34.3,62.2z"/>
	<path class="st155" d="M36.4,46.2c0.8,0.1,1.4,0.3,1.7,0.5c-0.1,0.1-0.3,0.1-0.6,0.2c0.5,0.1,0.9,0.2,1,0.3
		c0.1,0.1,0.1,0.3,0.2,0.7c0.5-0.3,0.9-0.7,0.9-1.2c0-0.2,0-0.6-0.4-0.9c-0.5-0.5-1.6-0.9-2.9-1.1C36.5,45.2,36.5,45.8,36.4,46.2z"
		/>
	<path class="st155" d="M31.2,46.9c-0.3-0.1-0.5-0.1-0.6-0.2c0.3-0.1,0.8-0.3,1.5-0.4c0-0.4,0-1,0-1.4c-1.5,0.2-3.2,0.7-3.2,1.9
		c0,0.4,0.2,0.8,0.6,1c0-0.2,0.1-0.3,0.1-0.4C29.8,47.1,30.4,47,31.2,46.9z"/>
	<path class="st155" d="M30.7,48.2c0.1-0.7,1.5-0.7,1.6-0.1c0,0.1,0,0.3,0,0.5c1,0.1,1.8,0.1,1.9,0.1c0,0,0,0,0.1,0
		c0.5,0,3.1,0,4.5-0.8c-0.1-0.4-0.1-0.6-0.2-0.7c-0.1-0.1-0.5-0.2-1-0.3c-0.3,0.1-0.8,0.2-1.3,0.3c0,0.1,0,0.1-0.1,0.1
		c-0.3,0.1-3.9,0.2-4,0c0,0,0-0.1,0-0.1c-0.4-0.1-0.7-0.1-1-0.2c-0.8,0.1-1.4,0.2-1.6,0.4c0,0.1-0.1,0.2-0.1,0.4
		C29.8,47.9,30.2,48.1,30.7,48.2C30.7,48.2,30.7,48.2,30.7,48.2z"/>
	<path class="st155" d="M32.3,48c-0.1-0.6-1.5-0.6-1.6,0.1c0,0,0,0,0,0.1c0.5,0.2,1.1,0.3,1.7,0.3C32.3,48.3,32.3,48.1,32.3,48z"/>
	<path class="st158" d="M32.1,46.3c0.2,0,0.5-0.1,0.8-0.1c0-0.4,0-0.9,0-1.4c-0.2,0-0.5,0.1-0.8,0.1C32.1,45.3,32.1,45.8,32.1,46.3z
		"/>
	<path class="st158" d="M35,44.9l-1,0c0,0.4,0,0.8,0,1.2c0.1,0,0.2,0,0.3,0c0.8,0,1.5,0.1,2.1,0.1c0-0.4,0-1,0-1.4
		c-0.5-0.1-1-0.1-1.5-0.1C35,44.8,35,44.8,35,44.9z"/>
	<path class="st155" d="M32.2,47.1c0,0.1,0,0.1,0,0.1c0.1,0.2,3.7,0.1,4,0c0,0,0.1,0,0.1-0.1c-0.6,0.1-1.3,0.1-2,0.1
		C33.5,47.3,32.8,47.2,32.2,47.1z"/>
	<path class="st159" d="M34,44.9l-0.4,0c0,0,0-0.1,0-0.2c-0.2,0-0.4,0-0.7,0.1c0,0.6,0,1.1,0,1.4c0.3,0,0.7-0.1,1.1-0.1
		C34,45.7,34,45.3,34,44.9z"/>
	<path class="st158" d="M35,44.9c0,0,0-0.1,0-0.2c-0.2,0-0.5,0-0.7,0c0,0-0.1,0-0.3,0c0,0.1,0,0.2,0,0.2L35,44.9z"/>
	<path class="st159" d="M33.6,44.9l0.4,0c0-0.1,0-0.2,0-0.2c-0.1,0-0.3,0-0.4,0C33.6,44.8,33.6,44.8,33.6,44.9z"/>
	<g>
		<path class="st155" d="M26.5,122.2c0-1.8-1.2-45.1,0-51.5c1.2-6.4,5.9-22,6.1-22.7l1.4,0.4c0,0.2-4.9,16.2-6,22.5
			c-1.1,6.3,0,50.8,0,51.3L26.5,122.2z"/>
	</g>
	<g>
		<path class="st155" d="M3.9,118.4c-0.1-1.7-2.4-42,3.5-52.3c5.9-10.2,21.2-19.8,21.9-20.3l0.8,1.2c-0.2,0.1-15.7,9.9-21.4,19.7
			c-5.7,9.9-3.3,51.1-3.3,51.5L3.9,118.4z"/>
	</g>
	<g>
		<path class="st155" d="M13.4,121.2c-0.1-1.8-1.8-43.6,1-50.6c2.8-6.9,15.3-22.7,15.9-23.4l1.1,0.9c-0.1,0.2-12.9,16.3-15.7,23
			c-2.7,6.7-1,49.5-0.9,50L13.4,121.2z"/>
	</g>
	<g>
		<path class="st155" d="M42.2,122.2l-1.4,0c0-0.4,1.1-45,0-51.3c-1.1-6.3-6-22.4-6.1-22.5l1.4-0.4c0.2,0.7,5,16.3,6.1,22.7
			C43.4,77.1,42.3,120.4,42.2,122.2z"/>
	</g>
	<g>
		<path class="st155" d="M64.7,118.4l-1.4-0.1c0-0.4,2.4-41.6-3.3-51.5c-5.7-9.9-21.2-19.7-21.4-19.7l0.8-1.2
			c0.7,0.4,16,10,21.9,20.3C67.1,76.4,64.8,116.7,64.7,118.4z"/>
	</g>
	<g>
		<path class="st155" d="M55.2,121.2l-1.4-0.1c0-0.4,1.8-43.3-0.9-50c-2.7-6.8-15.5-22.9-15.6-23l1.1-0.9c0.5,0.7,13,16.4,15.8,23.4
			C57,77.7,55.3,119.5,55.2,121.2z"/>
	</g>
</g>
<g>
	<path class="st160" d="M93.3,111.6c-0.2-18.5,0.4-38.6-0.7-111.3h-1.4c1,72.7,0.5,92.8,0.7,111.3C92.3,111.6,92.9,111.6,93.3,111.6
		z"/>
	<g>
		<path class="st155" d="M92.4,167.3c-0.1,0-0.2,0-0.3,0c-2.7,0-6.1-0.2-8.8-0.6c-1.5-0.2-2.6-0.4-3.5-0.6c-1-0.3-1.9-0.6-1.9-1.4
			c0-0.8,0.9-1.1,1.9-1.4c0.9-0.2,2-0.4,3.5-0.6c2.8-0.3,6.2-0.6,8.9-0.6c3.2,0,12.8,0.4,14.2,1.9c0.2,0.2,0.3,0.5,0.3,0.8
			c-0.1,0.7-0.6,1.4-5.7,2C98.3,167.1,95,167.3,92.4,167.3z M80,164.7c2.1,0.5,7.3,1.1,12,1.1c5,0,10.6-0.6,12.6-1.2
			c-2-0.6-7.5-1.2-12.4-1.1C87.5,163.6,82.2,164.1,80,164.7z"/>
	</g>
	<path class="st156" d="M91.1,131.3c-1.1,0-2-0.1-2.6-0.2c-0.2,0.2-0.3,0.3-0.3,0.5c-0.2,1.4-0.6,2.6-1,3.6c1.1,0,2.1,0,3.2,0
		C90.7,134,91,132.7,91.1,131.3z"/>
	<path class="st156" d="M93,154.1c-2.7,0.3-4.7-0.7-5.9-2.3c-1.9,0.1-3.9,0.2-5.8,0.3c0.4,1.6,1.1,3.2,2.3,4.4
		c2.9,0.2,5.8,0.2,8.5,0.3c2.8,0,5.9-0.1,8.8-0.2c1.2-1.4,2-3,2.4-4.6c-1.8-0.1-3.7-0.2-5.6-0.2C96.8,152.9,95.3,153.9,93,154.1z"/>
	<path class="st156" d="M95.4,135.2c1,0,2,0,3,0c-0.5-1.4-0.9-2.9-1-4.4c-0.3,0.3-1.3,0.4-2.5,0.5C94.9,132.7,95.1,134,95.4,135.2z"
		/>
	<path class="st156" d="M98.6,143.7c1.2,0,2.4,0,3.6-0.1c-1-2.2-2.2-4.5-3.3-6.9c-1.1,0-2.2,0-3.2,0
		C96.6,139.5,97.9,141.7,98.6,143.7z"/>
	<path class="st156" d="M86.5,136.7c-1.3,2.6-3.1,4.6-4.2,6.8c1.3,0,2.6,0.1,4,0.1c0.9-2.1,2.5-4.3,3.6-7
		C88.7,136.7,87.6,136.7,86.5,136.7z"/>
	<path class="st156" d="M92.1,158.2c-2.2,0-4.4-0.1-6.7-0.2c1.8,1.2,4.3,1.9,7.5,1.8c2.7-0.1,4.7-0.7,6.3-1.8
		c-2.1,0.1-4.2,0.1-6.3,0.1C92.6,158.2,92.3,158.2,92.1,158.2z"/>
	<path class="st156" d="M99,145.1c0.3,1.5,0.2,3.5-0.5,5.2c1.7,0.1,3.4,0.1,5,0.2c0.1-1.1,0.1-2.1,0-2.9c-0.1-0.8-0.4-1.7-0.7-2.6
		C101.5,145.1,100.3,145.1,99,145.1C99,145.1,99,145.1,99,145.1z"/>
	<path class="st156" d="M85.7,145.5c0-0.2,0.1-0.3,0.1-0.5c-1.4,0-2.8-0.1-4.1-0.1c-0.2,0.6-0.4,1.2-0.5,1.8
		c-0.2,1.3-0.2,2.6-0.1,3.9c1.7-0.1,3.5-0.2,5.2-0.3C85.6,148.9,85.4,147.1,85.7,145.5z"/>
	<path class="st157" d="M92.1,145.1c-2.1,0-4.2,0-6.4-0.1c0,0.2-0.1,0.3-0.1,0.5c-0.2,1.6,0,3.3,0.6,4.8c2.1-0.1,4.2-0.1,6.1-0.1
		c2,0,4,0,6.1,0.1c0.7-1.7,0.7-3.7,0.5-5.2c0,0,0,0,0,0c-1.8,0-3.6,0-5.5,0C93,145.1,92.6,145.1,92.1,145.1z"/>
	<path class="st157" d="M92.8,136.6c-1,0-2,0-3,0c-1.1,2.7-2.7,4.9-3.6,7c2,0,3.9,0.1,5.9,0.1c2.1,0,4.3,0,6.5,0c-0.7-2-2-4.2-2.9-7
		C94.7,136.6,93.8,136.6,92.8,136.6z"/>
	<path class="st157" d="M92.5,151.7c-1.7,0-3.5,0-5.3,0.1c1.2,1.6,3.2,2.6,5.9,2.3c2.2-0.2,3.7-1.1,4.7-2.4
		C95.9,151.7,94.2,151.6,92.5,151.7z"/>
	<path class="st157" d="M95.4,135.2c-0.3-1.2-0.4-2.5-0.5-4c-1.2,0.1-2.6,0-3.8,0c-0.1,1.4-0.3,2.8-0.7,4c0.8,0,1.6,0,2.5,0
		C93.6,135.2,94.5,135.2,95.4,135.2z"/>
	<path class="st158" d="M90.6,116.7c0.7,0.1,1.5,0.1,2.4,0.1c1.5,0,3-0.1,4.1-0.3c-0.1-0.3-0.1-0.6-0.2-0.6
		c-0.2-0.2-1.1-0.4-2.2-0.4c0,0.3-0.1,0.5-0.2,0.5c-0.3,0.1-3.9,0.2-4,0c0,0-0.1-0.2-0.1-0.5c-1.3,0.1-2.3,0.3-2.5,0.5
		c0,0-0.1,0.1-0.1,0.3c0.4,0.1,0.9,0.2,1.3,0.2C89.6,116.2,90.5,116.3,90.6,116.7z"/>
	<path class="st158" d="M91.8,129.1c-0.3,0-0.7,0-1,0c0,0.7,0,1.1,0,1.2c0,0,0,0.1-0.1,0.1c0.3,0,0.6,0,0.9,0
		c0.7-0.1,1.8-0.1,2.6,0.1c1.7,0.1,3.2,0.4,3.2,0.4c0.1-0.1,0.1-0.8,0.2-1.8c-1.6,0.1-3.3,0.1-5,0.1C92.3,129.1,92,129.1,91.8,129.1
		z"/>
	<path class="st158" d="M90.8,127.6c0.3,0,0.7,0,1,0c1.9,0,3.9,0,5.8-0.1c0-1.3,0-2.8,0-4.4c-1.7,0-3.5-0.1-5.4-0.1
		c-0.5,0-0.9,0-1.4,0C90.8,124.7,90.8,126.3,90.8,127.6z"/>
	<path class="st158" d="M93,118.2c-0.8,0-1.5,0-2.3-0.1c0,0.9,0,2.2,0,3.6c0.5,0,0.9,0,1.4,0c1.6,0,3.4,0,5.3,0.1
		c0-1.4-0.1-2.7-0.2-3.8c-1.9,0.2-3.7,0.3-4.2,0.3C93,118.2,93,118.2,93,118.2z"/>
	<path class="st158" d="M87.6,123.2c0,1.5,0,3,0.1,4.3c0.4,0,0.8,0,1.3,0c0-1.3,0-2.9,0-4.4C88.5,123.2,88.1,123.2,87.6,123.2z"/>
	<path class="st158" d="M89,130.5c0,0,0-0.6,0-1.4c-0.4,0-0.8,0-1.2,0c0.1,1.2,0.1,2,0.2,2c0.1,0,0.3,0,0.4,0.1
		c0.2-0.2,0.5-0.3,0.9-0.5C89.2,130.6,89.1,130.5,89,130.5z"/>
	<path class="st158" d="M89,118c-0.4-0.1-0.9-0.1-1.3-0.2c-0.1,1.1-0.1,2.5-0.1,4c0.4,0,0.9,0,1.3,0C89,120.2,89,118.9,89,118z"/>
	<path class="st158" d="M91.1,130.6c0-0.1,0.2-0.2,0.5-0.2c-0.3,0-0.6,0-0.9,0c-0.2,0.4-0.9,0.4-1.3,0.2c-0.4,0.1-0.7,0.3-0.9,0.5
		c0.6,0.1,1.5,0.1,2.6,0.2C91.1,131,91.1,130.8,91.1,130.6z"/>
	<path class="st158" d="M94.9,131c0,0.1,0,0.2,0,0.2c1.2-0.1,2.2-0.2,2.5-0.5c0,0-1.4-0.2-3.2-0.4C94.6,130.5,94.9,130.7,94.9,131z"
		/>
	<path class="st158" d="M94.2,130.4c-0.8-0.2-2-0.2-2.6-0.1C92.4,130.3,93.3,130.4,94.2,130.4z"/>
	<path class="st158" d="M94.9,131.3c0-0.1,0-0.2,0-0.2c0-0.3-0.3-0.5-0.7-0.6c-0.8-0.1-1.8-0.1-2.6-0.1c-0.3,0.1-0.5,0.1-0.5,0.2
		c0,0.2,0,0.4,0,0.7C92.3,131.3,93.7,131.3,94.9,131.3z"/>
	<path class="st159" d="M90.7,123.1c-0.6,0-1.2,0-1.8,0c0,1.5,0,3.1,0,4.4c0.6,0,1.2,0,1.8,0C90.8,126.3,90.8,124.7,90.7,123.1z"/>
	<path class="st159" d="M89.2,116.5c0.4,0.1,0.9,0.1,1.4,0.2C90.5,116.3,89.6,116.2,89.2,116.5z"/>
	<path class="st159" d="M90.7,118.1c-0.6,0-1.2-0.1-1.7-0.2c0,0.9,0,2.3,0,3.8c0.6,0,1.2,0,1.8,0C90.7,120.3,90.7,119.1,90.7,118.1z
		"/>
	<path class="st159" d="M90.7,129.1c-0.6,0-1.2,0-1.7,0c0,0.9,0,1.4,0,1.4c0.1,0.1,0.2,0.1,0.3,0.2c0.4-0.1,0.8-0.2,1.3-0.2
		c0,0,0-0.1,0.1-0.1C90.7,130.2,90.7,129.8,90.7,129.1z"/>
	<path class="st159" d="M90.7,130.4c-0.5,0-0.9,0.1-1.3,0.2C89.8,130.8,90.5,130.8,90.7,130.4z"/>
	<path class="st158" d="M92.3,115.5c0.8,0,1.7,0,2.4,0c0-0.3,0.1-0.6,0.1-0.9c-0.5,0-1.1,0-1.7,0c-0.3,0-0.5,0-0.8,0
		C92.4,115,92.4,115.3,92.3,115.5z"/>
	<path class="st158" d="M91.3,115.5c0-0.1,0-0.5-0.1-0.9c-0.3,0-0.5,0-0.8,0.1c0,0.3,0,0.6,0,0.9C90.7,115.5,91,115.5,91.3,115.5z"
		/>
	<path class="st158" d="M91.3,112.1c0-0.2,0.9-0.2,1,0c0,0.1,0,0.5,0.1,1.1c0.1,0,0.2,0,0.3,0c0-0.4-0.1-0.9-0.1-1.6
		c-0.9,0-1.7,0.1-1.9,0.4c-0.1,0.2-0.2,0.7-0.2,1.4c0.3,0,0.5,0,0.8-0.1C91.2,112.8,91.3,112.4,91.3,112.1z"/>
	<path class="st158" d="M93.1,113.1c0.5,0,1.1,0,1.7,0c0-0.7-0.1-1.2-0.2-1.4c-0.1-0.2-1.1-0.3-2.1-0.3c0,0.7,0.1,1.3,0.1,1.6
		C92.8,113.1,92.9,113.1,93.1,113.1z"/>
	<path class="st158" d="M92.3,115.5C92.3,115.5,92.3,115.5,92.3,115.5c-0.1,0.2-0.9,0.2-1.1,0.1c0,0,0,0,0-0.1c-0.3,0-0.5,0-0.8,0
		c0,0.2,0,0.4,0.1,0.5c0.1,0.2,3.7,0.1,4,0c0.1,0,0.1-0.2,0.2-0.5C94,115.5,93.2,115.4,92.3,115.5z"/>
	<path class="st159" d="M92.3,115.5c0-0.1,0-0.5,0-0.9c-0.4,0-0.8,0-1.1,0.1c0,0.4,0,0.8,0.1,0.9C91.6,115.5,92,115.5,92.3,115.5z"
		/>
	<path class="st159" d="M92.3,112c-0.1-0.2-1-0.2-1,0c0,0.4-0.1,0.7-0.1,1.1c0.4,0,0.7,0,1.1-0.1C92.3,112.6,92.3,112.1,92.3,112z"
		/>
	<path class="st159" d="M92.3,115.5C92.3,115.5,92.3,115.5,92.3,115.5c-0.4-0.1-0.7,0-1.1,0c0,0,0,0.1,0,0.1
		C91.4,115.6,92.2,115.7,92.3,115.5z"/>
	<path class="st155" d="M135.6,139.3c-0.4-0.5-1.6-1.9-14.8-3c-6.4-0.5-14.3-0.9-22.4-1c0.2,0.5,0.4,1,0.6,1.4c8,0.1,15.8,0.4,22,1
		c10.7,0.9,13,2.1,13.4,2.4c-0.4,0.3-2.7,1.5-13.6,2.5c-5.4,0.5-11.8,0.8-18.5,1c0.2,0.5,0.4,0.9,0.6,1.4c6.8-0.2,13.3-0.5,18.7-1
		c4.2-0.4,7.5-0.9,9.9-1.4c3-0.7,4.3-1.3,4.5-2.3C135.9,140,135.9,139.7,135.6,139.3z"/>
	<path class="st155" d="M64,142.5c-8.9-0.8-12.5-1.8-13.4-2.3c0.9-0.5,4.5-1.5,13.7-2.3c6.4-0.6,14.3-1,22.2-1.1
		c0.2-0.5,0.5-0.9,0.7-1.4c-8.6,0.2-17.1,0.6-24,1.3c-4.2,0.4-7.5,0.9-9.8,1.3c-3.1,0.6-4.3,1.3-4.3,2.3c0,1,1.2,1.7,4.2,2.3
		c2.3,0.5,5.6,1,9.7,1.4c5.4,0.5,11.9,0.9,18.7,1.1c0.2-0.5,0.4-1,0.6-1.4C75.7,143.3,69.4,143,64,142.5z"/>
	<path class="st155" d="M86.2,143.6c-1.3,0-2.7-0.1-4-0.1c-0.2,0.5-0.4,0.9-0.6,1.4c1.4,0,2.7,0.1,4.1,0.1
		C85.9,144.6,86,144.1,86.2,143.6z"/>
	<path class="st156" d="M89.8,136.7c0.2-0.5,0.4-0.9,0.5-1.4c-1.1,0-2.1,0-3.2,0c-0.2,0.5-0.4,1-0.7,1.4
		C87.6,136.7,88.7,136.7,89.8,136.7z"/>
	<path class="st155" d="M98.6,143.7c0.2,0.5,0.3,1,0.4,1.4c1.3,0,2.6,0,3.8-0.1c-0.2-0.5-0.4-0.9-0.6-1.4
		C101,143.6,99.8,143.7,98.6,143.7z"/>
	<path class="st156" d="M95.7,136.6c1.1,0,2.2,0,3.2,0c-0.2-0.5-0.4-1-0.6-1.4c-1,0-2,0-3,0C95.5,135.7,95.6,136.2,95.7,136.6z"/>
	<path class="st155" d="M92.1,143.7c-2,0-3.9,0-5.9-0.1c-0.2,0.5-0.4,1-0.5,1.4c2.1,0,4.2,0.1,6.4,0.1c0.5,0,0.9,0,1.4,0
		c1.8,0,3.7,0,5.5,0c-0.1-0.5-0.2-0.9-0.4-1.4C96.4,143.7,94.3,143.7,92.1,143.7z"/>
	<path class="st157" d="M95.7,136.6c-0.1-0.5-0.3-0.9-0.4-1.4c-0.9,0-1.7,0-2.6,0c-0.8,0-1.6,0-2.5,0c-0.2,0.5-0.3,1-0.5,1.4
		c1,0,2,0,3,0C93.8,136.6,94.7,136.6,95.7,136.6z"/>
	<path class="st155" d="M77,126.8c-4.8-0.6-6.5-1.1-7.1-1.4c1.6-0.8,8.5-1.9,17.7-2.2c0-0.5,0-1,0-1.4c-4.1,0.1-8.1,0.4-11.4,0.8
		c-7.3,0.9-7.9,1.9-7.9,2.8c0,0.9,0.6,1.9,7.8,2.8c3.4,0.4,7.5,0.7,11.7,0.9c0-0.4,0-0.9-0.1-1.4C83.9,127.4,80.2,127.2,77,126.8z"
		/>
	<path class="st155" d="M114.3,125.3c-0.4,0.3-2,1-7.4,1.6c-2.8,0.3-6,0.5-9.4,0.6c0,0.5,0,1,0,1.4c3.7-0.1,7.2-0.4,10.1-0.7
		c2.3-0.3,4.2-0.6,5.5-1c1.8-0.5,2.6-1,2.7-1.8c0-0.2,0-0.6-0.3-1c-1.5-1.7-10.4-2.5-18-2.7c0,0.5,0,0.9,0,1.4
		C106.7,123.5,113.1,124.5,114.3,125.3z"/>
	<path class="st158" d="M87.6,123.2c0.4,0,0.9,0,1.3,0c0-0.5,0-1,0-1.4c-0.4,0-0.9,0-1.3,0C87.6,122.3,87.6,122.7,87.6,123.2z"/>
	<path class="st155" d="M89,127.6c-0.4,0-0.8,0-1.3,0c0,0.5,0,1,0.1,1.4c0.4,0,0.8,0,1.2,0C89,128.6,89,128.1,89,127.6z"/>
	<path class="st158" d="M92.1,121.7c-0.5,0-0.9,0-1.4,0c0,0.5,0,0.9,0,1.4c0.5,0,0.9,0,1.4,0c1.9,0,3.7,0,5.4,0.1c0-0.5,0-1,0-1.4
		C95.6,121.7,93.7,121.7,92.1,121.7z"/>
	<path class="st155" d="M91.8,127.6c-0.3,0-0.7,0-1,0c0,0.5,0,1,0,1.4c0.3,0,0.7,0,1,0c0.2,0,0.5,0,0.7,0c1.7,0,3.3,0,5-0.1
		c0-0.4,0-0.9,0-1.4C95.7,127.6,93.7,127.6,91.8,127.6z"/>
	<path class="st155" d="M90.8,127.6c-0.6,0-1.2,0-1.8,0c0,0.5,0,1,0,1.4c0.6,0,1.2,0,1.7,0C90.7,128.7,90.7,128.2,90.8,127.6z"/>
	<path class="st159" d="M90.7,121.7c-0.6,0-1.2,0-1.8,0c0,0.5,0,0.9,0,1.4c0.6,0,1.2,0,1.8,0C90.7,122.7,90.7,122.2,90.7,121.7z"/>
	<path class="st155" d="M109.1,152.4c6.4,0.7,8.2,1.4,8.6,1.7c-0.5,0.3-2.3,1.1-8.8,1.8c-2.4,0.3-5.2,0.5-8,0.6
		c-0.5,0.6-1.1,1.1-1.8,1.5c3.7-0.1,7.4-0.4,10.6-0.8c2.7-0.3,4.9-0.7,6.4-1.1c2.1-0.5,3-1.1,3.1-2c0-0.2,0-0.6-0.3-1
		c-0.3-0.4-1.3-1.5-9.9-2.4c-1.7-0.2-3.6-0.3-5.6-0.4c-0.1,0.5-0.1,0.9-0.2,1.4C105.3,152.1,107.3,152.2,109.1,152.4z"/>
	<path class="st155" d="M83.6,156.5c-2.9-0.2-5.8-0.4-8.4-0.7c-6-0.6-8.1-1.3-8.8-1.6c0.7-0.3,2.9-1,9-1.6c1.9-0.2,3.9-0.4,6-0.5
		c-0.1-0.5-0.2-0.9-0.3-1.4c-2.3,0.2-4.6,0.4-6.7,0.6c-2.8,0.3-5,0.7-6.6,1c-1.9,0.4-3.1,0.9-3.1,1.9c0,0.8,0.9,1.4,3.1,1.9
		c1.6,0.4,3.8,0.7,6.5,1c3.3,0.4,7.2,0.7,11.1,0.8C84.7,157.6,84.1,157.1,83.6,156.5z"/>
	<path class="st156" d="M97.7,151.7c1.9,0.1,3.8,0.1,5.6,0.2c0.1-0.5,0.2-1,0.2-1.4c-1.6-0.1-3.3-0.2-5-0.2
		C98.3,150.8,98,151.3,97.7,151.7z"/>
	<path class="st155" d="M100.9,156.6c-2.9,0.1-6,0.2-8.8,0.2c-2.7,0-5.6-0.1-8.5-0.3c0.5,0.6,1.1,1.1,1.8,1.5
		c2.3,0.1,4.5,0.2,6.7,0.2c0.3,0,0.5,0,0.8,0c2.1,0,4.2,0,6.3-0.1C99.8,157.6,100.4,157.1,100.9,156.6z"/>
	<path class="st156" d="M87.2,151.8c-0.3-0.4-0.6-0.9-0.8-1.4c-1.7,0.1-3.5,0.2-5.2,0.3c0.1,0.5,0.1,1,0.3,1.4
		C83.3,151.9,85.2,151.8,87.2,151.8z"/>
	<path class="st157" d="M92.5,150.2c-2,0-4.1,0.1-6.1,0.1c0.2,0.5,0.5,1,0.8,1.4c1.8-0.1,3.6-0.1,5.3-0.1c1.7,0,3.5,0,5.2,0.1
		c0.3-0.4,0.6-0.9,0.8-1.4C96.5,150.2,94.4,150.2,92.5,150.2z"/>
	<path class="st155" d="M85.8,115.7c0.6-0.4,2.4-0.8,4.7-1c0-0.5,0-1,0-1.4c-1.1,0.1-2.2,0.3-3.1,0.5c-2.2,0.5-3.2,1.1-3.2,2
		c0,0.9,1,1.5,3.1,2c0.2,0,0.3,0.1,0.5,0.1c0-0.6,0.1-1.1,0.2-1.4C86.9,116.1,86.1,115.9,85.8,115.7z"/>
	<path class="st155" d="M94.8,114.6c2.9,0.1,5.1,0.7,5.7,1.1c-0.4,0.3-1.6,0.7-3.4,0.9c0.1,0.4,0.1,0.8,0.2,1.4
		c2.3-0.3,4.6-0.9,4.7-2.3c0-0.2,0-0.6-0.4-1c-0.9-1-3.9-1.5-6.8-1.6C94.8,113.6,94.8,114.1,94.8,114.6z"/>
	<path class="st155" d="M93,116.8c-0.8,0-1.6,0-2.4-0.1c0,0,0,0,0,0.1c0,0.1,0,0.6,0.1,1.4c0.8,0.1,1.5,0.1,2.3,0.1c0,0,0.1,0,0.1,0
		c0.5,0,2.3,0,4.2-0.3c0-0.6-0.1-1.1-0.2-1.4C95.9,116.7,94.5,116.8,93,116.8z"/>
	<path class="st155" d="M89,116.9c0-0.1,0.1-0.3,0.2-0.3c-0.5-0.1-0.9-0.1-1.3-0.2c-0.1,0.3-0.1,0.8-0.2,1.4
		c0.4,0.1,0.8,0.1,1.3,0.2C89,117.4,89,117,89,116.9z"/>
	<path class="st155" d="M90.6,116.8C90.6,116.7,90.6,116.7,90.6,116.8c-0.5-0.1-1-0.2-1.4-0.2c-0.1,0.1-0.2,0.2-0.2,0.3
		c0,0.1,0,0.5,0,1.1c0.5,0.1,1.1,0.1,1.7,0.2C90.7,117.4,90.7,116.9,90.6,116.8z"/>
	<path class="st158" d="M90.4,114.7c0.3,0,0.5,0,0.8-0.1c0-0.4,0-0.9,0-1.4c-0.3,0-0.5,0-0.8,0.1C90.4,113.7,90.4,114.2,90.4,114.7z
		"/>
	<path class="st158" d="M93.1,113.1c-0.2,0-0.3,0-0.5,0c0,0.3,0,0.5,0,0.5s0-0.2,0-0.5c-0.1,0-0.2,0-0.3,0c0,0.5,0,1,0,1.4
		c0.2,0,0.5,0,0.8,0c0.6,0,1.2,0,1.7,0c0-0.5,0-1,0-1.4C94.2,113.1,93.6,113.1,93.1,113.1z"/>
	<path class="st159" d="M92.3,113.1c-0.4,0-0.7,0-1.1,0.1c0,0.5,0,1,0,1.4c0.4,0,0.7,0,1.1-0.1C92.4,114.1,92.4,113.6,92.3,113.1z"
		/>
	<g>
		<path class="st155" d="M106.5,165.1l-1.2-0.8c0.1-0.1,2-3,4.7-4.9c1.5-1.1,3.7-2.5,6.3-4.2c6.8-4.4,18.2-11.8,18.2-15V140
			c0-3.2-8.7-8-15-11.6c-2.1-1.2-4-2.3-5.6-3.2c-0.3-0.2-0.9-0.5-1.6-0.9c-3.5-1.9-10-5.4-11.6-8.4l1.3-0.7c1.4,2.6,7.9,6.1,11,7.8
			c0.8,0.4,1.4,0.8,1.7,1c1.5,0.9,3.4,2,5.5,3.2c7.4,4.2,15.7,8.9,15.7,12.9v0.2c0,3.6-8.1,9.2-18.8,16.2c-2.5,1.6-4.7,3.1-6.2,4.2
			C108.4,162.3,106.5,165,106.5,165.1z"/>
	</g>
	<g>
		<path class="st155" d="M78,165.1c0,0-1.9-2.8-4.3-4.6c-1.5-1.1-3.8-2.6-6.4-4.3c-10.7-6.9-18.8-12.5-18.8-16.1V140
			c0-4.4,9.3-9.3,16.8-13.3c1.2-0.7,2.4-1.3,3.4-1.9c0.4-0.2,0.9-0.5,1.6-0.9c3.2-1.8,13.1-7.1,14-8.6l1.2,0.8
			c-1,1.6-7.6,5.3-14.6,9.1c-0.7,0.4-1.3,0.7-1.6,0.9c-1,0.6-2.2,1.2-3.5,1.9c-6.4,3.4-16,8.6-16,12.1v0.2
			c0,3.1,11.4,10.5,18.1,14.9c2.6,1.7,4.9,3.2,6.5,4.3c2.7,2,4.6,4.8,4.7,4.9L78,165.1z"/>
	</g>
</g>
</svg>
