<?xml version="1.0" encoding="utf-8"?>
<!-- Generator: Adobe Illustrator 24.3.0, SVG Export Plug-In . SVG Version: 6.00 Build 0)  -->
<svg version="1.1" id="圖層_1" xmlns="http://www.w3.org/2000/svg" xmlns:xlink="http://www.w3.org/1999/xlink" x="0px" y="0px"
	 viewBox="0 0 166.2 97.5" style="enable-background:new 0 0 166.2 97.5;" xml:space="preserve">
<style type="text/css">
	.st0{stroke:#FFFFFF;stroke-width:5;stroke-linecap:round;stroke-linejoin:round;stroke-miterlimit:10;}
	.st1{fill:none;stroke:#FFFFFF;stroke-width:5;stroke-linecap:round;stroke-linejoin:round;stroke-miterlimit:10;}
	.st2{fill:none;stroke:#000000;stroke-width:1.3866;stroke-linecap:round;stroke-linejoin:round;stroke-miterlimit:10;}
</style>
<g>
	<g>
		<path class="st0" d="M32.8,20.5C30.6,21,28.7,21.9,27,23c-2.4,1.6-3.5,3.3-3.5,5.1c0,1,0.4,1.7,1.2,2.3c0.3,0.3,1.2,0.7,2.7,1.4
			c1.9,0.8,3.1,1.6,3.8,2.2c1.1,1,1.6,2.4,1.6,4.1c0,2.1-1.1,4-3.2,5.5c-1.9,1.4-3.9,2-6.1,2c-2,0-3.1-0.5-3.1-1.6
			c0-0.3,0.1-0.6,0.3-0.9c0.2-0.3,0.5-0.4,0.8-0.4c0.2,0,0.5,0.1,1,0.2c0.5,0.2,0.8,0.2,1,0.2c1.4,0,2.9-0.5,4.4-1.4
			c1.6-1.1,2.4-2.3,2.4-3.8c0-0.9-0.3-1.7-1-2.3c-0.5-0.3-1.4-0.8-3-1.6c-1.9-0.8-3.1-1.5-3.6-2c-1.1-0.9-1.7-2.3-1.7-4
			c0-2,1-3.9,3-5.7c1.4-1.3,3.3-2.4,5.5-3.3c0.5-0.8,1.2-1.2,2.2-1.2c1.2,0,1.8,0.5,1.8,1.6C33.7,20,33.4,20.4,32.8,20.5z"/>
		<path class="st0" d="M46.5,43.4c-1.4,1.1-2.7,1.7-4.1,1.7c-1.5,0-2.8-0.5-3.7-1.6c-1-1.1-1.4-2.4-1.4-3.9c0-1.9,0.5-3.8,1.4-5.5
			s2.2-3,3.7-4c0.8-0.5,1.8-0.8,2.9-0.8c1.3,0,1.9,0.6,1.9,1.7c-0.3,1.1-0.9,1.6-1.8,1.6c-0.9,0-1.6-0.2-2-0.5
			c-2.7,1.9-3.9,4.3-3.9,7.1c0,1,0.2,1.8,0.6,2.5s1.1,0.9,1.9,0.9c1.1,0,1.9-0.3,2.6-0.8c0.2-0.3,0.6-0.7,1.3-1.2
			c0.5-0.5,0.8-0.8,1.1-0.8s0.5,0.2,0.8,0.5c0.2,0.3,0.3,0.6,0.3,0.9C48.1,41.7,47.5,42.5,46.5,43.4z"/>
		<path class="st0" d="M63.7,32.1c-0.7,0.3-1.2,0.5-1.6,0.5c-0.1,0-0.3-0.1-0.8-0.2c-3.3,1.5-5.2,4.7-5.8,9.5
			c-0.3,2.5-0.8,3.8-1.3,3.8c-0.4,0-0.8-0.3-1.1-0.7s-0.5-0.9-0.5-1.4c0.1-0.4,0.2-1,0.4-2c0.2-1.1,0.3-2.2,0.3-3.2
			c0-1.1-0.2-2.2-0.4-3.3c-0.5-0.5-0.7-1-0.8-1.5c-0.2-1-0.3-1.9-0.3-2.5c0-0.2,0.1-0.5,0.3-0.8s0.3-0.5,0.5-0.5
			c0.8,0,1.4,0.7,1.7,2.1s0.5,2.5,0.7,3.3c0.9-1.7,2.1-3.1,3.6-4.3c1.4-1.1,2.9-1.7,4.4-1.7c0.4,0,0.8,0.2,1.1,0.6
			c0.3,0.4,0.5,0.8,0.5,1.2C64.9,31.4,64.5,31.8,63.7,32.1z"/>
		<path class="st0" d="M77.4,39.7c-0.1,0.3-0.3,0.8-0.5,1.4c-0.4,1-1.1,1.9-2.1,2.8c-1.1,0.8-2,1.3-3,1.3c-1.6,0-2.9-0.7-3.9-2.1
			c-0.9-1.3-1.4-2.7-1.4-4.4c0-1.6,0.4-3.1,1.1-4.6c0.8-1.6,1.8-2.8,3.1-3.5c0.7-0.3,1.2-0.7,1.5-1.1c0.2,0,0.3-0.1,0.5-0.1
			c0.1,0,0.4,0.1,0.8,0.2c1.3,0.5,2.4,1.3,3.2,2.5c0.8,1.2,1.2,2.5,1.2,3.9C77.9,37.5,77.7,38.7,77.4,39.7z M74.2,32.9
			c-0.6,0-1.1-0.2-1.5-0.4c-1.3,0.1-2.4,0.8-3.1,2c-0.6,1.1-0.9,2.5-0.9,3.9c0,1.2,0.3,2.1,0.8,2.9c0.6,0.8,1.3,1.2,2.2,1.2
			c1,0,1.9-0.7,2.8-2.2c0.8-1.3,1.3-2.6,1.3-3.9C75.7,34.8,75.2,33.6,74.2,32.9z"/>
		<path class="st0" d="M87.3,20L87,20.2c-0.4,1.6-0.8,3.8-1.1,6.4c-0.4,2.8-0.5,5.2-0.5,7.1c0,4.7,0.2,8.5,0.5,11.6
			c0,0.4-0.2,0.6-0.6,0.6c-0.5,0-1.1-0.5-1.6-1.3s-0.8-1.5-0.8-2c0-0.2,0-0.6,0-1.3s0-1.1,0-1.3c0-0.6,0.1-1,0.3-1.4
			c-0.2-1.5-0.2-3.5-0.2-6c0-4.8,0.8-10,2.5-15.6c0.2-0.5,0.3-0.8,0.6-0.8c0.4,0,0.8,0.3,1.4,0.8s0.9,1.1,0.9,1.5
			C88.5,19.1,88.1,19.6,87.3,20z"/>
		<path class="st0" d="M96.8,20l-0.3,0.2c-0.4,1.6-0.8,3.8-1.1,6.4c-0.4,2.8-0.5,5.2-0.5,7.1c0,4.7,0.2,8.5,0.5,11.6
			c0,0.4-0.2,0.6-0.6,0.6c-0.5,0-1.1-0.5-1.6-1.3s-0.8-1.5-0.8-2c0-0.2,0-0.6,0-1.3s0-1.1,0-1.3c0-0.6,0.1-1,0.3-1.4
			c-0.2-1.5-0.2-3.5-0.2-6c0-4.8,0.8-10,2.5-15.6c0.2-0.5,0.3-0.8,0.6-0.8c0.4,0,0.8,0.3,1.4,0.8s0.9,1.1,0.9,1.5
			C98,19.1,97.6,19.6,96.8,20z"/>
		<path class="st0" d="M131.8,25.5c-0.1,0.3-0.1,0.4-0.1,0.5c0,0.2,0,1,0,2.4s0,2.3,0,2.6c0,3.4-0.9,6.5-2.5,9.4
			c-2,3.3-4.4,4.9-7.3,4.9c-1.9,0-3.7-0.9-5.2-2.6c-1.9-2-2.8-5.3-2.8-9.9c0-1.1,0.1-2.7,0.2-4.8s0.2-3.7,0.2-4.8c0-0.2,0-0.6,0-1.3
			c-0.1-0.6-0.1-1-0.1-1.2c0-0.6,0.3-0.9,1.1-0.9c0.9,0,1.4,1,1.4,3.1c0,0.6-0.1,2.2-0.3,4.8c-0.2,2.6-0.3,4.6-0.3,5.9
			c0,2.9,0.5,5.1,1.6,6.7c1.1,1.8,2.5,2.7,4.3,2.7c2,0,3.9-1.4,5.4-4.1c1.4-2.6,2.2-5.5,2.2-8.8c0-3.9-0.4-7.6-1.1-11.2l-0.3-1.7
			c0-0.3,0.2-0.6,0.4-0.8c0.2-0.2,0.5-0.4,0.8-0.4c0.7,0,1.1,0.3,1.1,1c0.1,0.2,0.2,0.5,0.3,0.8c0.8,3.3,1.3,5.5,1.3,6.9
			C131.8,25.1,131.8,25.3,131.8,25.5z"/>
		<path class="st0" d="M146,37.4c-1.3,1.1-3.3,2.2-6.2,3.3c0.1,1,0.1,1.9,0.1,2.7c0,3-0.2,5.6-0.7,7.9c-0.3,1.2-0.7,1.8-1.3,1.8
			c-0.8,0-1.2-0.4-1.2-1.3c0-0.1,0.1-0.6,0.4-1.6c0.2-1,0.4-2.5,0.4-4.7v-2.1c0-0.5,0-1.1,0-1.9c-1.1-0.1-1.6-0.5-1.6-1.2
			c0-0.6,0.5-1.1,1.6-1.5c0-0.2,0-0.5,0-0.8s0-0.6,0-0.9c0-2.7,0.5-5.2,1.4-7.7c1.3-3.2,3-4.8,5.1-4.8c1.6,0,2.8,0.7,3.6,2
			c0.8,1.1,1.1,2.6,1.1,4.3C148.6,33.7,147.7,35.8,146,37.4z M145.7,28.2c-0.5-0.7-1.1-1-1.9-1c-0.7,0-1.4,0.5-2,1.4
			c-1.4,2-2.2,5.3-2.2,9.6c2.3-0.8,3.9-1.7,4.9-2.6c1.3-1.3,1.9-3,1.9-5.2C146.4,29.6,146.2,28.8,145.7,28.2z"/>
	</g>
	<line class="st1" x1="75.3" y1="56.7" x2="75.3" y2="78.4"/>
	<line class="st1" x1="84.8" y1="61.6" x2="84.8" y2="83.3"/>
	<line class="st1" x1="94.3" y1="67.6" x2="94.3" y2="89.3"/>
</g>
<g>
	<g>
		<path d="M32.8,20.5C30.6,21,28.7,21.9,27,23c-2.4,1.6-3.5,3.3-3.5,5.1c0,1,0.4,1.7,1.2,2.3c0.3,0.3,1.2,0.7,2.7,1.4
			c1.9,0.8,3.1,1.6,3.8,2.2c1.1,1,1.6,2.4,1.6,4.1c0,2.1-1.1,4-3.2,5.5c-1.9,1.4-3.9,2-6.1,2c-2,0-3.1-0.5-3.1-1.6
			c0-0.3,0.1-0.6,0.3-0.9c0.2-0.3,0.5-0.4,0.8-0.4c0.2,0,0.5,0.1,1,0.2c0.5,0.2,0.8,0.2,1,0.2c1.4,0,2.9-0.5,4.4-1.4
			c1.6-1.1,2.4-2.3,2.4-3.8c0-0.9-0.3-1.7-1-2.3c-0.5-0.3-1.4-0.8-3-1.6c-1.9-0.8-3.1-1.5-3.6-2c-1.1-0.9-1.7-2.3-1.7-4
			c0-2,1-3.9,3-5.7c1.4-1.3,3.3-2.4,5.5-3.3c0.5-0.8,1.2-1.2,2.2-1.2c1.2,0,1.8,0.5,1.8,1.6C33.7,20,33.4,20.4,32.8,20.5z"/>
		<path d="M46.5,43.4c-1.4,1.1-2.7,1.7-4.1,1.7c-1.5,0-2.8-0.5-3.7-1.6c-1-1.1-1.4-2.4-1.4-3.9c0-1.9,0.5-3.8,1.4-5.5s2.2-3,3.7-4
			c0.8-0.5,1.8-0.8,2.9-0.8c1.3,0,1.9,0.6,1.9,1.7c-0.3,1.1-0.9,1.6-1.8,1.6c-0.9,0-1.6-0.2-2-0.5c-2.7,1.9-3.9,4.3-3.9,7.1
			c0,1,0.2,1.8,0.6,2.5s1.1,0.9,1.9,0.9c1.1,0,1.9-0.3,2.6-0.8c0.2-0.3,0.6-0.7,1.3-1.2c0.5-0.5,0.8-0.8,1.1-0.8s0.5,0.2,0.8,0.5
			c0.2,0.3,0.3,0.6,0.3,0.9C48.1,41.7,47.5,42.5,46.5,43.4z"/>
		<path d="M63.7,32.1c-0.7,0.3-1.2,0.5-1.6,0.5c-0.1,0-0.3-0.1-0.8-0.2c-3.3,1.5-5.2,4.7-5.8,9.5c-0.3,2.5-0.8,3.8-1.3,3.8
			c-0.4,0-0.8-0.3-1.1-0.7s-0.5-0.9-0.5-1.4c0.1-0.4,0.2-1,0.4-2c0.2-1.1,0.3-2.2,0.3-3.2c0-1.1-0.2-2.2-0.4-3.3
			c-0.5-0.5-0.7-1-0.8-1.5c-0.2-1-0.3-1.9-0.3-2.5c0-0.2,0.1-0.5,0.3-0.8s0.3-0.5,0.5-0.5c0.8,0,1.4,0.7,1.7,2.1s0.5,2.5,0.7,3.3
			c0.9-1.7,2.1-3.1,3.6-4.3c1.4-1.1,2.9-1.7,4.4-1.7c0.4,0,0.8,0.2,1.1,0.6c0.3,0.4,0.5,0.8,0.5,1.2C64.9,31.4,64.5,31.8,63.7,32.1z
			"/>
		<path d="M77.4,39.7c-0.1,0.3-0.3,0.8-0.5,1.4c-0.4,1-1.1,1.9-2.1,2.8c-1.1,0.8-2,1.3-3,1.3c-1.6,0-2.9-0.7-3.9-2.1
			c-0.9-1.3-1.4-2.7-1.4-4.4c0-1.6,0.4-3.1,1.1-4.6c0.8-1.6,1.8-2.8,3.1-3.5c0.7-0.3,1.2-0.7,1.5-1.1c0.2,0,0.3-0.1,0.5-0.1
			c0.1,0,0.4,0.1,0.8,0.2c1.3,0.5,2.4,1.3,3.2,2.5c0.8,1.2,1.2,2.5,1.2,3.9C77.9,37.5,77.7,38.7,77.4,39.7z M74.2,32.9
			c-0.6,0-1.1-0.2-1.5-0.4c-1.3,0.1-2.4,0.8-3.1,2c-0.6,1.1-0.9,2.5-0.9,3.9c0,1.2,0.3,2.1,0.8,2.9c0.6,0.8,1.3,1.2,2.2,1.2
			c1,0,1.9-0.7,2.8-2.2c0.8-1.3,1.3-2.6,1.3-3.9C75.7,34.8,75.2,33.6,74.2,32.9z"/>
		<path d="M87.3,20L87,20.2c-0.4,1.6-0.8,3.8-1.1,6.4c-0.4,2.8-0.5,5.2-0.5,7.1c0,4.7,0.2,8.5,0.5,11.6c0,0.4-0.2,0.6-0.6,0.6
			c-0.5,0-1.1-0.5-1.6-1.3s-0.8-1.5-0.8-2c0-0.2,0-0.6,0-1.3s0-1.1,0-1.3c0-0.6,0.1-1,0.3-1.4c-0.2-1.5-0.2-3.5-0.2-6
			c0-4.8,0.8-10,2.5-15.6c0.2-0.5,0.3-0.8,0.6-0.8c0.4,0,0.8,0.3,1.4,0.8s0.9,1.1,0.9,1.5C88.5,19.1,88.1,19.6,87.3,20z"/>
		<path d="M96.8,20l-0.3,0.2c-0.4,1.6-0.8,3.8-1.1,6.4c-0.4,2.8-0.5,5.2-0.5,7.1c0,4.7,0.2,8.5,0.5,11.6c0,0.4-0.2,0.6-0.6,0.6
			c-0.5,0-1.1-0.5-1.6-1.3s-0.8-1.5-0.8-2c0-0.2,0-0.6,0-1.3s0-1.1,0-1.3c0-0.6,0.1-1,0.3-1.4c-0.2-1.5-0.2-3.5-0.2-6
			c0-4.8,0.8-10,2.5-15.6c0.2-0.5,0.3-0.8,0.6-0.8c0.4,0,0.8,0.3,1.4,0.8s0.9,1.1,0.9,1.5C98,19.1,97.6,19.6,96.8,20z"/>
		<path d="M131.8,25.5c-0.1,0.3-0.1,0.4-0.1,0.5c0,0.2,0,1,0,2.4s0,2.3,0,2.6c0,3.4-0.9,6.5-2.5,9.4c-2,3.3-4.4,4.9-7.3,4.9
			c-1.9,0-3.7-0.9-5.2-2.6c-1.9-2-2.8-5.3-2.8-9.9c0-1.1,0.1-2.7,0.2-4.8s0.2-3.7,0.2-4.8c0-0.2,0-0.6,0-1.3c-0.1-0.6-0.1-1-0.1-1.2
			c0-0.6,0.3-0.9,1.1-0.9c0.9,0,1.4,1,1.4,3.1c0,0.6-0.1,2.2-0.3,4.8c-0.2,2.6-0.3,4.6-0.3,5.9c0,2.9,0.5,5.1,1.6,6.7
			c1.1,1.8,2.5,2.7,4.3,2.7c2,0,3.9-1.4,5.4-4.1c1.4-2.6,2.2-5.5,2.2-8.8c0-3.9-0.4-7.6-1.1-11.2l-0.3-1.7c0-0.3,0.2-0.6,0.4-0.8
			c0.2-0.2,0.5-0.4,0.8-0.4c0.7,0,1.1,0.3,1.1,1c0.1,0.2,0.2,0.5,0.3,0.8c0.8,3.3,1.3,5.5,1.3,6.9C131.8,25.1,131.8,25.3,131.8,25.5
			z"/>
		<path d="M146,37.4c-1.3,1.1-3.3,2.2-6.2,3.3c0.1,1,0.1,1.9,0.1,2.7c0,3-0.2,5.6-0.7,7.9c-0.3,1.2-0.7,1.8-1.3,1.8
			c-0.8,0-1.2-0.4-1.2-1.3c0-0.1,0.1-0.6,0.4-1.6c0.2-1,0.4-2.5,0.4-4.7v-2.1c0-0.5,0-1.1,0-1.9c-1.1-0.1-1.6-0.5-1.6-1.2
			c0-0.6,0.5-1.1,1.6-1.5c0-0.2,0-0.5,0-0.8s0-0.6,0-0.9c0-2.7,0.5-5.2,1.4-7.7c1.3-3.2,3-4.8,5.1-4.8c1.6,0,2.8,0.7,3.6,2
			c0.8,1.1,1.1,2.6,1.1,4.3C148.6,33.7,147.7,35.8,146,37.4z M145.7,28.2c-0.5-0.7-1.1-1-1.9-1c-0.7,0-1.4,0.5-2,1.4
			c-1.4,2-2.2,5.3-2.2,9.6c2.3-0.8,3.9-1.7,4.9-2.6c1.3-1.3,1.9-3,1.9-5.2C146.4,29.6,146.2,28.8,145.7,28.2z"/>
	</g>
	<line class="st2" x1="75.3" y1="56.7" x2="75.3" y2="78.4"/>
	<line class="st2" x1="84.8" y1="61.6" x2="84.8" y2="83.3"/>
	<line class="st2" x1="94.3" y1="67.6" x2="94.3" y2="89.3"/>
</g>
</svg>
