<?xml version="1.0" encoding="utf-8"?>
<!-- Generator: Adobe Illustrator 24.3.0, SVG Export Plug-In . SVG Version: 6.00 Build 0)  -->
<svg version="1.1" id="圖層_1" xmlns="http://www.w3.org/2000/svg" xmlns:xlink="http://www.w3.org/1999/xlink" x="0px" y="0px"
	 viewBox="0 0 166.2 97.5" style="enable-background:new 0 0 166.2 97.5;" xml:space="preserve">
<style type="text/css">
	.st0{fill:#EADAC5;}
	.st1{fill:#3358A2;}
	.st2{fill:#D5D5D5;}
	.st3{fill:#DBAC7F;stroke:#040000;stroke-linecap:round;stroke-linejoin:round;stroke-miterlimit:10;}
	.st4{fill:#DBAC7F;}
	.st5{fill:#040000;}
	.st6{fill:none;stroke:#040000;stroke-linecap:round;stroke-linejoin:round;stroke-miterlimit:10;}
	.st7{fill:#A87979;}
	.st8{fill:#A87979;stroke:#040000;stroke-miterlimit:10;}
	.st9{fill:#D2DBE0;stroke:#040000;stroke-miterlimit:10;}
	.st10{fill:#61473A;stroke:#040000;stroke-miterlimit:10;}
	.st11{fill:#22767F;}
	.st12{fill:#FFFFFF;}
	.st13{fill:#DBA777;stroke:#000000;stroke-width:0.8643;stroke-miterlimit:10;}
	.st14{fill:#B98352;stroke:#000000;stroke-width:0.8643;stroke-miterlimit:10;}
	.st15{fill:none;stroke:#000000;stroke-width:0.7891;stroke-miterlimit:10;}
	.st16{fill:#313535;stroke:#040000;stroke-linecap:round;stroke-linejoin:round;stroke-miterlimit:10;}
	.st17{fill:#FFFFFF;stroke:#FFFFFF;stroke-width:0.8391;stroke-miterlimit:10;}
	.st18{fill:#FFA486;}
	.st19{fill:#FFA486;stroke:#000000;stroke-miterlimit:10;}
	.st20{fill:#F7EBEB;stroke:#000000;stroke-miterlimit:10;}
	.st21{fill:#36303A;}
	.st22{fill:#6A433E;stroke:#000000;stroke-miterlimit:10;}
	.st23{fill:#FFA99B;stroke:#000000;stroke-miterlimit:10;}
	.st24{fill:#6A433E;}
	.st25{fill:#FFFFFF;stroke:#000000;stroke-linecap:round;stroke-linejoin:round;stroke-miterlimit:10;}
	.st26{fill:#F4EB73;stroke:#000000;stroke-miterlimit:10;}
	.st27{fill:#FFA99B;stroke:#000000;stroke-linecap:round;stroke-linejoin:round;stroke-miterlimit:10;}
	.st28{fill:#D96252;}
	.st29{fill:#D96252;stroke:#000000;stroke-miterlimit:10;}
	.st30{fill:#FFA486;stroke:#000000;stroke-width:1.0766;stroke-linecap:round;stroke-linejoin:round;stroke-miterlimit:10;}
	.st31{fill:#EFD2AA;}
	.st32{fill:#36303A;stroke:#000000;stroke-miterlimit:10;}
	.st33{fill:#86524D;stroke:#000000;stroke-miterlimit:10;}
	.st34{fill:#86524D;}
	.st35{fill:#6F5E68;stroke:#000000;stroke-miterlimit:10;}
	.st36{fill:#E9E9E9;stroke:#000000;stroke-width:1.0553;stroke-miterlimit:10;}
	.st37{fill:#537A95;stroke:#000000;stroke-width:1.0553;stroke-miterlimit:10;}
	.st38{fill:none;stroke:#000000;stroke-linecap:round;stroke-linejoin:round;stroke-miterlimit:10;}
	.st39{stroke:#000000;stroke-width:0.8013;stroke-miterlimit:10;}
	.st40{fill:#1A1817;stroke:#000000;stroke-width:0.8013;stroke-miterlimit:10;}
	.st41{fill:#FFC856;stroke:#000000;stroke-width:0.8013;stroke-miterlimit:10;}
	.st42{fill:#FAFBF7;stroke:#000000;stroke-width:0.8013;stroke-miterlimit:10;}
	.st43{fill:#928985;stroke:#000000;stroke-width:0.8013;stroke-miterlimit:10;}
	.st44{fill:#0D0D0D;stroke:#000000;stroke-width:0.8013;stroke-miterlimit:10;}
	.st45{fill:#515151;}
	.st46{fill:#9B3635;}
	.st47{fill:#DCB2CD;}
	.st48{fill:#FFFFFF;stroke:#040000;stroke-linecap:round;stroke-linejoin:round;stroke-miterlimit:10;}
	.st49{fill:#75A1A4;stroke:#040000;stroke-miterlimit:10;}
	.st50{fill:#2F6A6E;stroke:#040000;stroke-miterlimit:10;}
	.st51{fill:#D0B3C7;stroke:#040000;stroke-miterlimit:10;}
	.st52{fill:#AF959A;stroke:#040000;stroke-miterlimit:10;}
	.st53{fill:#FFFFFF;stroke:#040000;stroke-width:0.9715;stroke-linecap:round;stroke-linejoin:round;stroke-miterlimit:10;}
	.st54{fill:#5C866F;stroke:#040000;stroke-width:0.75;stroke-miterlimit:10;}
	.st55{fill:#97B4A4;stroke:#040000;stroke-width:0.75;stroke-miterlimit:10;}
	.st56{fill:#789D87;stroke:#040000;stroke-width:0.75;stroke-miterlimit:10;}
	.st57{stroke:#000000;stroke-width:30;stroke-linecap:round;stroke-linejoin:round;stroke-miterlimit:10;}
	.st58{fill:none;stroke:#000000;stroke-width:30;stroke-linecap:round;stroke-linejoin:round;stroke-miterlimit:10;}
	.st59{fill:#F8D6BC;stroke:#040000;stroke-miterlimit:10;}
	.st60{fill:#E6B282;stroke:#040000;stroke-miterlimit:10;}
	.st61{fill:#FFE5CF;stroke:#040000;stroke-width:0.7253;stroke-miterlimit:10;}
	.st62{fill:#938862;stroke:#040000;stroke-width:0.7253;stroke-miterlimit:10;}
	.st63{fill:#98B3C8;stroke:#040000;stroke-width:0.7253;stroke-miterlimit:10;}
	.st64{fill:#FFFFFF;stroke:#040000;stroke-width:0.7253;stroke-miterlimit:10;}
	.st65{fill:#F7EEE9;stroke:#040000;stroke-width:0.7253;stroke-miterlimit:10;}
	.st66{fill:#FC8A89;stroke:#040000;stroke-width:0.7253;stroke-miterlimit:10;}
	.st67{fill:#FFBB57;stroke:#040000;stroke-width:0.7253;stroke-miterlimit:10;}
	.st68{fill:#E7AD56;stroke:#040000;stroke-width:0.7253;stroke-miterlimit:10;}
	.st69{fill:#E6B282;stroke:#040000;stroke-width:0.7253;stroke-miterlimit:10;}
	.st70{fill:#F4DDBE;stroke:#040000;stroke-width:0.75;stroke-miterlimit:10;}
	.st71{fill:#FFA99B;stroke:#040000;stroke-width:0.75;stroke-miterlimit:10;}
	.st72{fill:#36303A;stroke:#040000;stroke-width:0.75;stroke-miterlimit:10;}
	.st73{fill:#554E59;}
	.st74{opacity:0.54;fill:#F7EBEB;}
	.st75{fill:#6A433E;stroke:#040000;stroke-width:0.75;stroke-miterlimit:10;}
	.st76{fill:#FFA99B;stroke:#040000;stroke-width:0.75;stroke-linecap:round;stroke-linejoin:round;stroke-miterlimit:10;}
	.st77{fill:#020202;}
	.st78{fill:#DB9A7D;stroke:#040000;stroke-width:0.75;stroke-miterlimit:10;}
	.st79{fill:#6F5E68;stroke:#040000;stroke-width:0.75;stroke-miterlimit:10;}
	.st80{fill:#FFA99B;}
	.st81{fill:#DD6A5B;stroke:#040000;stroke-width:0.5;stroke-miterlimit:10;}
	.st82{fill:#EFD2AA;stroke:#040000;stroke-width:0.5;stroke-miterlimit:10;}
	.st83{fill:#FFFFFF;stroke:#040000;stroke-width:0.5;stroke-miterlimit:10;}
	.st84{fill:#E2C295;stroke:#040000;stroke-width:0.5;stroke-miterlimit:10;}
	.st85{fill:#F7EBEB;stroke:#040000;stroke-width:0.5;stroke-miterlimit:10;}
	.st86{fill:#6F5E68;stroke:#040000;stroke-width:0.75;stroke-linecap:round;stroke-linejoin:round;stroke-miterlimit:10;}
	.st87{fill:#DB9A7D;}
	.st88{fill:#DD6A5B;stroke:#040000;stroke-width:0.75;stroke-miterlimit:10;}
	.st89{fill:#FFFFFF;stroke:#040000;stroke-width:0.75;stroke-miterlimit:10;}
	.st90{fill:#7B94B9;stroke:#040000;stroke-width:0.75;stroke-miterlimit:10;}
	.st91{fill:#6F5E61;stroke:#000000;stroke-width:1.1524;stroke-miterlimit:10;}
	.st92{fill:#DFCEC6;stroke:#000000;stroke-width:1.1524;stroke-miterlimit:10;}
	.st93{fill:#36303A;stroke:#000000;stroke-width:1.1524;stroke-miterlimit:10;}
	.st94{fill:#36303A;stroke:#000000;stroke-width:1.3348;stroke-miterlimit:10;}
	.st95{fill:#F7EFEB;stroke:#000000;stroke-width:1.3348;stroke-miterlimit:10;}
	.st96{fill:#6F5E61;stroke:#000000;stroke-width:1.1524;stroke-linecap:round;stroke-linejoin:round;stroke-miterlimit:10;}
	.st97{fill:#36303A;stroke:#000000;stroke-width:1.1524;stroke-linecap:round;stroke-linejoin:round;stroke-miterlimit:10;}
	.st98{fill:#D0D0D0;stroke:#000000;stroke-width:1.1524;stroke-linecap:round;stroke-linejoin:round;stroke-miterlimit:10;}
	.st99{fill:#905851;stroke:#000000;stroke-width:1.1524;stroke-miterlimit:10;}
	.st100{fill:#F4D1B4;stroke:#000000;stroke-width:1.1524;stroke-miterlimit:10;}
	.st101{fill:#F7EFEB;}
	.st102{fill:#733832;stroke:#000000;stroke-width:1.1524;stroke-miterlimit:10;}
	.st103{fill:#DBA777;stroke:#000000;stroke-width:1.1524;stroke-miterlimit:10;}
	.st104{fill:#DBA777;}
	.st105{fill:#905851;}
	.st106{fill:#E7E7E7;stroke:#000000;stroke-linecap:round;stroke-linejoin:round;stroke-miterlimit:10;}
	.st107{fill:#954039;}
	.st108{fill:none;stroke:#000000;stroke-width:1.2726;stroke-linecap:round;stroke-linejoin:round;stroke-miterlimit:10;}
	.st109{fill:#954039;stroke:#000000;stroke-miterlimit:10;}
	.st110{fill:#905851;stroke:#000000;stroke-width:1.1524;stroke-linecap:round;stroke-linejoin:round;stroke-miterlimit:10;}
	.st111{fill:#ACABA9;stroke:#000000;stroke-miterlimit:10;}
	.st112{fill:#020202;stroke:#000000;stroke-miterlimit:10;}
	.st113{clip-path:url(#SVGID_2_);}
	.st114{fill:#FFFFFF;stroke:#040000;stroke-width:1.1054;stroke-miterlimit:10;}
	.st115{fill:#FFFFFF;stroke:#040000;stroke-width:1.1054;stroke-linecap:round;stroke-linejoin:round;stroke-miterlimit:10;}
	.st116{fill:#F3F3F3;stroke:#040000;stroke-width:1.1054;stroke-linecap:round;stroke-linejoin:round;stroke-miterlimit:10;}
	.st117{fill:#C5C5C5;stroke:#040000;stroke-width:1.1054;stroke-linecap:round;stroke-linejoin:round;stroke-miterlimit:10;}
	.st118{clip-path:url(#SVGID_4_);}
	.st119{fill:#D7B579;stroke:#040000;stroke-width:1.1054;stroke-linecap:round;stroke-linejoin:round;stroke-miterlimit:10;}
	.st120{fill:#131414;stroke:#040000;stroke-width:1.1054;stroke-linecap:round;stroke-linejoin:round;stroke-miterlimit:10;}
	.st121{fill:#3B3F3F;stroke:#040000;stroke-width:1.1054;stroke-linecap:round;stroke-linejoin:round;stroke-miterlimit:10;}
	.st122{fill:#D7B579;stroke:#040000;stroke-width:1.1054;stroke-miterlimit:10;}
	.st123{fill:#EAEAEA;}
	.st124{opacity:0.5;fill:#FFFFFF;}
	.st125{fill:#966E6E;stroke:#040000;stroke-miterlimit:10;}
	.st126{fill:#2B1D1D;}
	.st127{fill:#522E2E;}
	.st128{clip-path:url(#SVGID_8_);}
	.st129{fill:#FFFFFF;stroke:#000000;stroke-miterlimit:10;}
	.st130{fill:#22767F;stroke:#000000;stroke-width:0.8559;stroke-miterlimit:10;}
	.st131{fill:none;stroke:#000000;stroke-width:0.8559;stroke-miterlimit:10;}
	.st132{fill:#F7F0F0;stroke:#000000;stroke-miterlimit:10;}
	.st133{fill:#666666;stroke:#666666;stroke-miterlimit:10;}
	.st134{fill:#DD6A5B;stroke:#000000;stroke-linecap:round;stroke-linejoin:round;stroke-miterlimit:10;}
	.st135{fill:#98B3C8;stroke:#000000;stroke-linecap:round;stroke-linejoin:round;stroke-miterlimit:10;}
	.st136{fill:#75A2A5;stroke:#000000;stroke-width:1.0824;stroke-miterlimit:10;}
	.st137{fill:#2F6A6E;stroke:#000000;stroke-width:1.0824;stroke-miterlimit:10;}
	.st138{fill:#382732;stroke:#000000;stroke-width:1.0824;stroke-miterlimit:10;}
	.st139{fill:#FFFFFF;stroke:#000000;stroke-width:1.0824;stroke-miterlimit:10;}
	.st140{clip-path:url(#SVGID_12_);}
	.st141{fill:#EFDBBF;stroke:#000000;stroke-miterlimit:10;}
	.st142{fill:#98B3C8;stroke:#000000;stroke-miterlimit:10;}
	.st143{fill:#F7F0F0;stroke:#000000;stroke-width:1.6756;stroke-miterlimit:10;}
	.st144{fill:none;stroke:#000000;stroke-width:2;stroke-miterlimit:10;}
	.st145{fill:#FFFFFF;stroke:#000000;stroke-width:2;stroke-linecap:round;stroke-linejoin:round;stroke-miterlimit:10;}
	.st146{opacity:0.5;fill:#479CA0;}
	.st147{clip-path:url(#SVGID_16_);}
	.st148{fill:#D5D5D5;stroke:#000000;stroke-width:0.8559;stroke-miterlimit:10;}
	.st149{fill:#E5E5E5;stroke:#E5E5E5;stroke-miterlimit:10;}
	.st150{fill:#D7B579;stroke:#000000;stroke-linecap:round;stroke-linejoin:round;stroke-miterlimit:10;}
	.st151{clip-path:url(#SVGID_20_);}
	.st152{fill:#CE7C78;stroke:#000000;stroke-miterlimit:10;}
	.st153{fill:#D7B579;stroke:#000000;stroke-miterlimit:10;}
	.st154{fill:#D8D8D8;stroke:#000000;stroke-width:2.17;stroke-miterlimit:10;}
	.st155{fill:#0D0D0D;stroke:#000000;stroke-width:0.75;stroke-miterlimit:10;}
	.st156{fill:#FFC956;stroke:#000000;stroke-width:0.75;stroke-miterlimit:10;}
	.st157{fill:#FBFCF8;stroke:#000000;stroke-width:0.75;stroke-miterlimit:10;}
	.st158{fill:#1A1817;stroke:#000000;stroke-width:0.75;stroke-miterlimit:10;}
	.st159{fill:#938A86;stroke:#000000;stroke-width:0.75;stroke-miterlimit:10;}
	.st160{stroke:#000000;stroke-width:0.75;stroke-miterlimit:10;}
	.st161{fill:#938862;stroke:#040000;stroke-width:0.8707;stroke-miterlimit:10;}
	.st162{fill:#736638;stroke:#040000;stroke-width:0.8707;stroke-miterlimit:10;}
	.st163{fill:#97B4A4;stroke:#000000;stroke-linecap:round;stroke-linejoin:round;stroke-miterlimit:10;}
	.st164{fill:#789D87;stroke:#000000;stroke-linecap:round;stroke-linejoin:round;stroke-miterlimit:10;}
	.st165{fill:#905851;stroke:#000000;stroke-linecap:round;stroke-linejoin:round;stroke-miterlimit:10;}
	.st166{fill:#DFCEC6;stroke:#000000;stroke-linecap:round;stroke-linejoin:round;stroke-miterlimit:10;}
	.st167{fill:#B0969B;stroke:#000000;stroke-width:3;stroke-miterlimit:10;}
	.st168{fill:#6F5E61;stroke:#000000;stroke-width:1.3651;stroke-miterlimit:10;}
	.st169{fill:#DFCEC6;stroke:#000000;stroke-width:1.3651;stroke-miterlimit:10;}
	.st170{fill:#36303A;stroke:#000000;stroke-width:1.3651;stroke-miterlimit:10;}
	.st171{fill:#36303A;stroke:#000000;stroke-linecap:round;stroke-linejoin:round;stroke-miterlimit:10;}
	.st172{fill:#F2E9EE;stroke:#000000;stroke-linecap:round;stroke-linejoin:round;stroke-miterlimit:10;}
	.st173{fill:#C1817E;stroke:#000000;stroke-width:0.6146;stroke-miterlimit:10;}
	.st174{fill:#ACABA9;stroke:#000000;stroke-width:0.6146;stroke-miterlimit:10;}
	.st175{fill:#020202;stroke:#000000;stroke-width:0.6146;stroke-miterlimit:10;}
	.st176{fill:#61372B;}
	.st177{fill:#E5B891;stroke:#040000;stroke-miterlimit:10;}
	.st178{fill:#DFB69E;stroke:#040000;stroke-width:0.7279;stroke-miterlimit:10;}
	.st179{fill:#A56656;stroke:#040000;stroke-width:0.9617;stroke-miterlimit:10;}
	.st180{fill:#FFA486;stroke:#000000;stroke-width:0.9093;stroke-miterlimit:10;}
	.st181{fill:#382732;stroke:#000000;stroke-width:0.7891;stroke-miterlimit:10;}
	.st182{fill:#382732;}
	.st183{fill:#FF9975;}
	.st184{fill:#6F5E61;stroke:#000000;stroke-width:0.7891;stroke-miterlimit:10;}
	.st185{fill:none;stroke:#040000;stroke-miterlimit:10;}
	.st186{fill:#313535;stroke:#040000;stroke-width:1.0065;stroke-linecap:round;stroke-linejoin:round;stroke-miterlimit:10;}
	.st187{fill:#FFFFFF;stroke:#FFFFFF;stroke-width:0.8446;stroke-miterlimit:10;}
	.st188{fill:#FFFFFF;stroke:#000000;stroke-width:0.7891;stroke-miterlimit:10;}
	.st189{fill:#86524D;stroke:#000000;stroke-width:0.9093;stroke-miterlimit:10;}
	.st190{fill:#FFFFFF;stroke:#000000;stroke-width:0.9093;stroke-linecap:round;stroke-linejoin:round;stroke-miterlimit:10;}
	.st191{fill:#36303A;stroke:#000000;stroke-width:0.7891;stroke-miterlimit:10;}
	.st192{fill:#6A433E;stroke:#000000;stroke-width:0.8804;stroke-miterlimit:10;}
	.st193{fill:#FFA99B;stroke:#000000;stroke-width:0.8804;stroke-miterlimit:10;}
	.st194{fill:#FFFFFF;stroke:#000000;stroke-width:0.8804;stroke-linecap:round;stroke-linejoin:round;stroke-miterlimit:10;}
	.st195{fill:#FFA99B;stroke:#000000;stroke-width:0.8804;stroke-linecap:round;stroke-linejoin:round;stroke-miterlimit:10;}
	.st196{fill:#E9E9E9;stroke:#000000;stroke-width:0.8328;stroke-miterlimit:10;}
	.st197{fill:#537A95;stroke:#000000;stroke-width:0.8328;stroke-miterlimit:10;}
	.st198{fill:#FF9975;stroke:#000000;stroke-width:0.7891;stroke-miterlimit:10;}
	.st199{fill:#EFDBBF;stroke:#000000;stroke-width:0.7891;stroke-miterlimit:10;}
	.st200{fill:#AF959A;stroke:#000000;stroke-linecap:round;stroke-linejoin:round;stroke-miterlimit:10;}
	.st201{fill:#AF959A;}
	.st202{fill:#FFA486;stroke:#000000;stroke-width:0.7947;stroke-miterlimit:10;}
	.st203{fill:#382732;stroke:#000000;stroke-width:0.6897;stroke-miterlimit:10;}
	.st204{fill:#6F5E61;stroke:#000000;stroke-width:0.6897;stroke-miterlimit:10;}
	.st205{fill:none;stroke:#040000;stroke-width:0.874;stroke-miterlimit:10;}
	.st206{fill:#313535;stroke:#040000;stroke-width:1.0909;stroke-linecap:round;stroke-linejoin:round;stroke-miterlimit:10;}
	.st207{fill:#FFFFFF;stroke:#FFFFFF;stroke-width:0.9154;stroke-miterlimit:10;}
	.st208{fill:#FFFFFF;stroke:#000000;stroke-width:0.6897;stroke-miterlimit:10;}
	.st209{fill:#86524D;stroke:#000000;stroke-width:0.7947;stroke-miterlimit:10;}
	.st210{fill:#FFFFFF;stroke:#000000;stroke-width:0.7947;stroke-linecap:round;stroke-linejoin:round;stroke-miterlimit:10;}
	.st211{fill:#36303A;stroke:#000000;stroke-width:0.6897;stroke-miterlimit:10;}
	.st212{fill:#E9E9E9;stroke:#000000;stroke-width:1.0991;stroke-miterlimit:10;}
	.st213{fill:#537A95;stroke:#000000;stroke-width:1.0991;stroke-miterlimit:10;}
	.st214{fill:#FFA486;stroke:#000000;stroke-width:1.3866;stroke-linecap:round;stroke-linejoin:round;stroke-miterlimit:10;}
	.st215{stroke:#000000;stroke-width:1.5136;stroke-miterlimit:10;}
	.st216{fill:#1A1817;stroke:#000000;stroke-width:1.5136;stroke-miterlimit:10;}
	.st217{fill:#FFC856;stroke:#000000;stroke-width:1.5136;stroke-miterlimit:10;}
	.st218{fill:#FAFBF7;stroke:#000000;stroke-width:1.5136;stroke-miterlimit:10;}
	.st219{fill:#928985;stroke:#000000;stroke-width:1.5136;stroke-miterlimit:10;}
	.st220{fill:#0D0D0D;stroke:#000000;stroke-width:1.5136;stroke-miterlimit:10;}
	.st221{fill:#36303A;stroke:#000000;stroke-width:2.2957;stroke-miterlimit:10;}
	.st222{fill:#F7EFEB;stroke:#000000;stroke-width:2.2957;stroke-miterlimit:10;}
	.st223{fill:#954039;stroke:#000000;stroke-width:1.7199;stroke-miterlimit:10;}
	.st224{fill:#ACABA9;stroke:#000000;stroke-width:1.7199;stroke-miterlimit:10;}
	.st225{fill:#020202;stroke:#000000;stroke-width:1.7199;stroke-miterlimit:10;}
	.st226{fill:#905851;stroke:#000000;stroke-width:1.982;stroke-miterlimit:10;}
	.st227{fill:#F4D1B4;stroke:#000000;stroke-width:1.982;stroke-miterlimit:10;}
	.st228{fill:#36303A;stroke:#000000;stroke-width:1.982;stroke-miterlimit:10;}
	.st229{fill:#733832;stroke:#000000;stroke-width:1.982;stroke-miterlimit:10;}
	.st230{fill:#DFCEC6;stroke:#000000;stroke-width:1.982;stroke-miterlimit:10;}
	.st231{fill:#DBA777;stroke:#000000;stroke-width:1.982;stroke-miterlimit:10;}
	.st232{fill:#E7E7E7;stroke:#000000;stroke-width:1.7199;stroke-linecap:round;stroke-linejoin:round;stroke-miterlimit:10;}
	.st233{fill:#FFFFFF;stroke:#000000;stroke-width:1.7199;stroke-linecap:round;stroke-linejoin:round;stroke-miterlimit:10;}
	.st234{fill:none;stroke:#000000;stroke-width:2.1888;stroke-linecap:round;stroke-linejoin:round;stroke-miterlimit:10;}
	.st235{fill:#905851;stroke:#000000;stroke-width:1.982;stroke-linecap:round;stroke-linejoin:round;stroke-miterlimit:10;}
	.st236{fill:#FFFFFF;stroke:#040000;stroke-width:2.3181;stroke-linecap:round;stroke-linejoin:round;stroke-miterlimit:10;}
	.st237{fill:#75A1A4;stroke:#040000;stroke-width:2.3181;stroke-miterlimit:10;}
	.st238{fill:#2F6A6E;stroke:#040000;stroke-width:2.3181;stroke-miterlimit:10;}
	.st239{fill:#D0B3C7;stroke:#040000;stroke-width:2.3181;stroke-miterlimit:10;}
	.st240{fill:#AF959A;stroke:#040000;stroke-width:2.3181;stroke-miterlimit:10;}
	.st241{fill:none;stroke:#040000;stroke-width:2.3181;stroke-linecap:round;stroke-linejoin:round;stroke-miterlimit:10;}
	.st242{fill:#FFFFFF;stroke:#040000;stroke-width:2.2519;stroke-linecap:round;stroke-linejoin:round;stroke-miterlimit:10;}
	.st243{fill:#5C866F;stroke:#040000;stroke-width:1.7385;stroke-miterlimit:10;}
	.st244{fill:#97B4A4;stroke:#040000;stroke-width:1.7385;stroke-miterlimit:10;}
	.st245{fill:#789D87;stroke:#040000;stroke-width:1.7385;stroke-miterlimit:10;}
	.st246{fill:#F8D6BC;stroke:#040000;stroke-width:1.46;stroke-miterlimit:10;}
	.st247{fill:#E6B282;stroke:#040000;stroke-width:1.46;stroke-miterlimit:10;}
	.st248{fill:#FFE5CF;stroke:#040000;stroke-width:1.3043;stroke-miterlimit:10;}
	.st249{fill:#938862;stroke:#040000;stroke-width:1.3043;stroke-miterlimit:10;}
	.st250{fill:#98B3C8;stroke:#040000;stroke-width:1.3043;stroke-miterlimit:10;}
	.st251{fill:#FFFFFF;stroke:#040000;stroke-width:1.3043;stroke-miterlimit:10;}
	.st252{fill:#F7EEE9;stroke:#040000;stroke-width:1.3043;stroke-miterlimit:10;}
	.st253{fill:#FC8A89;stroke:#040000;stroke-width:1.3043;stroke-miterlimit:10;}
	.st254{fill:#FFBB57;stroke:#040000;stroke-width:1.3043;stroke-miterlimit:10;}
	.st255{fill:#E7AD56;stroke:#040000;stroke-width:1.3043;stroke-miterlimit:10;}
	.st256{fill:#E6B282;stroke:#040000;stroke-width:1.3043;stroke-miterlimit:10;}
	.st257{fill:#F4DDBE;stroke:#040000;stroke-width:1.3488;stroke-miterlimit:10;}
	.st258{fill:#FFA99B;stroke:#040000;stroke-width:1.3488;stroke-miterlimit:10;}
	.st259{fill:#36303A;stroke:#040000;stroke-width:1.3488;stroke-miterlimit:10;}
	.st260{fill:#6A433E;stroke:#040000;stroke-width:1.3488;stroke-miterlimit:10;}
	.st261{fill:#FFA99B;stroke:#040000;stroke-width:1.3488;stroke-linecap:round;stroke-linejoin:round;stroke-miterlimit:10;}
	.st262{fill:#DB9A7D;stroke:#040000;stroke-width:1.3488;stroke-miterlimit:10;}
	.st263{fill:#6F5E68;stroke:#040000;stroke-width:1.3488;stroke-miterlimit:10;}
	.st264{fill:#DD6A5B;stroke:#040000;stroke-width:0.8992;stroke-miterlimit:10;}
	.st265{fill:#EFD2AA;stroke:#040000;stroke-width:0.8992;stroke-miterlimit:10;}
	.st266{fill:#FFFFFF;stroke:#040000;stroke-width:0.8992;stroke-miterlimit:10;}
	.st267{fill:#E2C295;stroke:#040000;stroke-width:0.8992;stroke-miterlimit:10;}
	.st268{fill:#F7EBEB;stroke:#040000;stroke-width:0.8992;stroke-miterlimit:10;}
	.st269{fill:#6F5E68;stroke:#040000;stroke-width:1.3488;stroke-linecap:round;stroke-linejoin:round;stroke-miterlimit:10;}
	.st270{fill:#DD6A5B;stroke:#040000;stroke-width:1.3488;stroke-miterlimit:10;}
	.st271{fill:#FFFFFF;stroke:#040000;stroke-width:1.3488;stroke-miterlimit:10;}
	.st272{fill:#7B94B9;stroke:#040000;stroke-width:1.3488;stroke-miterlimit:10;}
	.st273{clip-path:url(#SVGID_22_);}
	.st274{fill:#FFFFFF;stroke:#040000;stroke-width:1.2439;stroke-miterlimit:10;}
	.st275{fill:#FFFFFF;stroke:#040000;stroke-width:1.2439;stroke-linecap:round;stroke-linejoin:round;stroke-miterlimit:10;}
	.st276{fill:#F3F3F3;stroke:#040000;stroke-width:1.2439;stroke-linecap:round;stroke-linejoin:round;stroke-miterlimit:10;}
	.st277{fill:#C5C5C5;stroke:#040000;stroke-width:1.2439;stroke-linecap:round;stroke-linejoin:round;stroke-miterlimit:10;}
	.st278{clip-path:url(#SVGID_24_);}
	.st279{fill:#D7B579;stroke:#040000;stroke-width:1.2439;stroke-linecap:round;stroke-linejoin:round;stroke-miterlimit:10;}
	.st280{fill:#131414;stroke:#040000;stroke-width:1.2439;stroke-linecap:round;stroke-linejoin:round;stroke-miterlimit:10;}
	.st281{fill:#3B3F3F;stroke:#040000;stroke-width:1.2439;stroke-linecap:round;stroke-linejoin:round;stroke-miterlimit:10;}
	.st282{fill:#D7B579;stroke:#040000;stroke-width:1.2439;stroke-miterlimit:10;}
</style>
<g>
	<g>
		<path d="M32.2,17.7c-2.2,0.5-4.1,1.4-5.8,2.5c-2.4,1.6-3.5,3.3-3.5,5.1c0,1,0.4,1.7,1.2,2.3c0.3,0.3,1.2,0.7,2.7,1.4
			c1.9,0.8,3.1,1.6,3.8,2.2c1.1,1,1.6,2.4,1.6,4.1c0,2.1-1.1,4-3.2,5.5c-1.9,1.4-3.9,2-6.1,2c-2,0-3.1-0.5-3.1-1.6
			c0-0.3,0.1-0.6,0.3-0.9c0.2-0.3,0.5-0.4,0.8-0.4c0.2,0,0.5,0.1,1,0.2c0.5,0.2,0.8,0.2,1,0.2c1.4,0,2.9-0.5,4.4-1.4
			c1.6-1.1,2.4-2.3,2.4-3.8c0-0.9-0.3-1.7-1-2.3c-0.5-0.3-1.4-0.8-3-1.6c-1.9-0.8-3.1-1.5-3.6-2c-1.1-0.9-1.7-2.3-1.7-4
			c0-2,1-3.9,3-5.7c1.4-1.3,3.3-2.4,5.5-3.3c0.5-0.8,1.2-1.2,2.2-1.2c1.2,0,1.8,0.5,1.8,1.6C33.1,17.2,32.8,17.6,32.2,17.7z"/>
		<path d="M45.9,40.6c-1.4,1.1-2.7,1.7-4.1,1.7c-1.5,0-2.8-0.5-3.7-1.6c-1-1.1-1.4-2.4-1.4-3.9c0-1.9,0.5-3.8,1.4-5.5
			c0.9-1.7,2.2-3,3.7-4c0.8-0.5,1.8-0.8,2.9-0.8c1.3,0,1.9,0.6,1.9,1.7c-0.3,1.1-0.9,1.6-1.8,1.6c-0.9,0-1.6-0.2-2-0.5
			c-2.7,1.9-3.9,4.3-3.9,7.1c0,1,0.2,1.8,0.6,2.5s1.1,0.9,1.9,0.9c1.1,0,1.9-0.3,2.6-0.8c0.2-0.3,0.6-0.7,1.3-1.2
			c0.5-0.5,0.8-0.8,1.1-0.8c0.3,0,0.5,0.2,0.8,0.5c0.2,0.3,0.3,0.6,0.3,0.9C47.5,38.9,46.9,39.7,45.9,40.6z"/>
		<path d="M63.1,29.3c-0.7,0.3-1.2,0.5-1.6,0.5c-0.1,0-0.3-0.1-0.8-0.2c-3.3,1.5-5.2,4.7-5.8,9.5c-0.3,2.5-0.8,3.8-1.3,3.8
			c-0.4,0-0.8-0.3-1.1-0.7s-0.5-0.9-0.5-1.4c0.1-0.4,0.2-1,0.4-2c0.2-1.1,0.3-2.2,0.3-3.2c0-1.1-0.2-2.2-0.4-3.3
			c-0.5-0.5-0.7-1-0.8-1.5c-0.2-1-0.3-1.9-0.3-2.5c0-0.2,0.1-0.5,0.3-0.8c0.2-0.3,0.3-0.5,0.5-0.5c0.8,0,1.4,0.7,1.7,2.1
			c0.3,1.4,0.5,2.5,0.7,3.3c0.9-1.7,2.1-3.1,3.6-4.3c1.4-1.1,2.9-1.7,4.4-1.7c0.4,0,0.8,0.2,1.1,0.6c0.3,0.4,0.5,0.8,0.5,1.2
			C64.3,28.6,63.9,29,63.1,29.3z"/>
		<path d="M76.8,36.9c-0.1,0.3-0.3,0.8-0.5,1.4c-0.4,1-1.1,1.9-2.1,2.8c-1.1,0.8-2,1.3-3,1.3c-1.6,0-2.9-0.7-3.9-2.1
			c-0.9-1.3-1.4-2.7-1.4-4.4c0-1.6,0.4-3.1,1.1-4.6c0.8-1.6,1.8-2.8,3.1-3.5c0.7-0.3,1.2-0.7,1.5-1.1c0.2,0,0.3-0.1,0.5-0.1
			c0.1,0,0.4,0.1,0.8,0.2c1.3,0.5,2.4,1.3,3.2,2.5c0.8,1.2,1.2,2.5,1.2,3.9C77.3,34.7,77.1,35.9,76.8,36.9z M73.6,30.1
			c-0.6,0-1.1-0.2-1.5-0.4c-1.3,0.1-2.4,0.8-3.1,2c-0.6,1.1-0.9,2.5-0.9,3.9c0,1.2,0.3,2.1,0.8,2.9c0.6,0.8,1.3,1.2,2.2,1.2
			c1,0,1.9-0.7,2.8-2.2c0.8-1.3,1.3-2.6,1.3-3.9C75.1,32,74.6,30.8,73.6,30.1z"/>
		<path d="M86.7,17.2l-0.3,0.2c-0.4,1.6-0.8,3.8-1.1,6.4c-0.4,2.8-0.5,5.2-0.5,7.1c0,4.7,0.2,8.5,0.5,11.6c0,0.4-0.2,0.6-0.6,0.6
			c-0.5,0-1.1-0.5-1.6-1.3c-0.5-0.8-0.8-1.5-0.8-2c0-0.2,0-0.6,0-1.3c0-0.7,0-1.1,0-1.3c0-0.6,0.1-1,0.3-1.4c-0.2-1.5-0.2-3.5-0.2-6
			c0-4.8,0.8-10,2.5-15.6c0.2-0.5,0.3-0.8,0.6-0.8c0.4,0,0.8,0.3,1.4,0.8c0.6,0.5,0.9,1.1,0.9,1.5C87.9,16.3,87.5,16.8,86.7,17.2z"
			/>
		<path d="M96.2,17.2l-0.3,0.2c-0.4,1.6-0.8,3.8-1.1,6.4c-0.4,2.8-0.5,5.2-0.5,7.1c0,4.7,0.2,8.5,0.5,11.6c0,0.4-0.2,0.6-0.6,0.6
			c-0.5,0-1.1-0.5-1.6-1.3c-0.5-0.8-0.8-1.5-0.8-2c0-0.2,0-0.6,0-1.3c0-0.7,0-1.1,0-1.3c0-0.6,0.1-1,0.3-1.4c-0.2-1.5-0.2-3.5-0.2-6
			c0-4.8,0.8-10,2.5-15.6c0.2-0.5,0.3-0.8,0.6-0.8c0.4,0,0.8,0.3,1.4,0.8c0.6,0.5,0.9,1.1,0.9,1.5C97.4,16.3,97,16.8,96.2,17.2z"/>
		<path d="M131.2,22.7c-0.1,0.3-0.1,0.4-0.1,0.5c0,0.2,0,1,0,2.4c0,1.4,0,2.3,0,2.6c0,3.4-0.9,6.5-2.5,9.4c-2,3.3-4.4,4.9-7.3,4.9
			c-1.9,0-3.7-0.9-5.2-2.6c-1.9-2-2.8-5.3-2.8-9.9c0-1.1,0.1-2.7,0.2-4.8c0.1-2.1,0.2-3.7,0.2-4.8c0-0.2,0-0.6,0-1.3
			c-0.1-0.6-0.1-1-0.1-1.2c0-0.6,0.3-0.9,1.1-0.9c0.9,0,1.4,1,1.4,3.1c0,0.6-0.1,2.2-0.3,4.8c-0.2,2.6-0.3,4.6-0.3,5.9
			c0,2.9,0.5,5.1,1.6,6.7c1.1,1.8,2.5,2.7,4.3,2.7c2,0,3.9-1.4,5.4-4.1c1.4-2.6,2.2-5.5,2.2-8.8c0-3.9-0.4-7.6-1.1-11.2l-0.3-1.7
			c0-0.3,0.2-0.6,0.4-0.8c0.2-0.2,0.5-0.4,0.8-0.4c0.7,0,1.1,0.3,1.1,1c0.1,0.2,0.2,0.5,0.3,0.8c0.8,3.3,1.3,5.5,1.3,6.9
			C131.2,22.3,131.2,22.5,131.2,22.7z"/>
		<path d="M145.4,34.6c-1.3,1.1-3.3,2.2-6.2,3.3c0.1,1,0.1,1.9,0.1,2.7c0,3-0.2,5.6-0.7,7.9c-0.3,1.2-0.7,1.8-1.3,1.8
			c-0.8,0-1.2-0.4-1.2-1.3c0-0.1,0.1-0.6,0.4-1.6c0.2-1,0.4-2.5,0.4-4.7v-2.1c0-0.5,0-1.1,0-1.9c-1.1-0.1-1.6-0.5-1.6-1.2
			c0-0.6,0.5-1.1,1.6-1.5c0-0.2,0-0.5,0-0.8c0-0.3,0-0.6,0-0.9c0-2.7,0.5-5.2,1.4-7.7c1.3-3.2,3-4.8,5.1-4.8c1.6,0,2.8,0.7,3.6,2
			c0.8,1.1,1.1,2.6,1.1,4.3C148,30.9,147.1,33,145.4,34.6z M145.1,25.4c-0.5-0.7-1.1-1-1.9-1c-0.7,0-1.4,0.5-2,1.4
			c-1.4,2-2.2,5.3-2.2,9.6c2.3-0.8,3.9-1.7,4.9-2.6c1.3-1.3,1.9-3,1.9-5.2C145.8,26.8,145.6,26,145.1,25.4z"/>
	</g>
	<line class="st214" x1="74.7" y1="53.9" x2="74.7" y2="75.6"/>
	<line class="st214" x1="84.2" y1="58.8" x2="84.2" y2="80.5"/>
	<line class="st214" x1="93.7" y1="64.8" x2="93.7" y2="86.5"/>
</g>
</svg>
