<?xml version="1.0" encoding="utf-8"?>
<!-- Generator: Adobe Illustrator 24.3.0, SVG Export Plug-In . SVG Version: 6.00 Build 0)  -->
<svg version="1.1" id="圖層_1" xmlns="http://www.w3.org/2000/svg" xmlns:xlink="http://www.w3.org/1999/xlink" x="0px" y="0px"
	 viewBox="0 0 166.2 97.5" style="enable-background:new 0 0 166.2 97.5;" xml:space="preserve">
<style type="text/css">
	.st0{fill:none;stroke:#FFFFFF;stroke-width:5;stroke-linecap:round;stroke-linejoin:round;stroke-miterlimit:10;}
	.st1{fill:none;stroke:#000000;stroke-width:1.3866;stroke-linecap:round;stroke-linejoin:round;stroke-miterlimit:10;}
	.st2{stroke:#FFFFFF;stroke-width:4;stroke-linecap:round;stroke-linejoin:round;stroke-miterlimit:10;}
</style>
<g>
	<line class="st0" x1="75.3" y1="57.7" x2="75.3" y2="79.4"/>
	<line class="st0" x1="84.8" y1="62.6" x2="84.8" y2="84.3"/>
	<line class="st0" x1="94.3" y1="68.6" x2="94.3" y2="90.3"/>
</g>
<g>
	<line class="st1" x1="75.3" y1="57.7" x2="75.3" y2="79.4"/>
	<line class="st1" x1="84.8" y1="62.6" x2="84.8" y2="84.3"/>
	<line class="st1" x1="94.3" y1="68.6" x2="94.3" y2="90.3"/>
</g>
<g>
	<g>
		<path class="st2" d="M26.6,21.5c-2.1,0.5-4,1.3-5.7,2.4c-2.3,1.5-3.5,3.2-3.5,5.1c0,1,0.4,1.7,1.2,2.3c0.3,0.3,1.2,0.7,2.7,1.4
			c1.8,0.8,3.1,1.5,3.7,2.1c1,1,1.6,2.4,1.6,4c0,2.1-1,3.9-3.1,5.4c-1.9,1.3-3.9,2-6,2c-2,0-3-0.5-3-1.6c0-0.3,0.1-0.6,0.3-0.9
			c0.2-0.3,0.5-0.4,0.8-0.4c0.2,0,0.5,0.1,1,0.1c0.4,0.1,0.8,0.2,1,0.2c1.4,0,2.9-0.4,4.3-1.4c1.6-1,2.4-2.3,2.4-3.7
			c0-0.9-0.3-1.7-1-2.3c-0.4-0.3-1.4-0.8-3-1.6c-1.9-0.8-3-1.5-3.6-1.9c-1.1-0.9-1.6-2.2-1.6-3.9c0-1.9,1-3.8,3-5.6
			c1.4-1.3,3.2-2.4,5.5-3.3c0.4-0.8,1.2-1.2,2.2-1.2c1.2,0,1.8,0.5,1.8,1.5C27.5,21,27.2,21.4,26.6,21.5z"/>
		<path class="st2" d="M54,35.8c-0.4,2.5-1.1,4.8-2.2,6.8c-1.4,2.6-3.1,4-5,4c-2.2,0-3.9-2.3-5.1-7c-0.7,1.5-1.9,3.2-3.7,5
			c-1.8,1.9-3.1,2.8-3.9,2.8c-0.4,0-0.9-0.4-1.3-1.2c-0.4-0.6-0.7-1.2-0.9-1.9c-1-3.6-1.5-6.6-1.5-9c0-1.7,0.1-3.4,0.5-5
			c0.1-0.8,0.6-1.2,1.2-1.2c0.9,0,1.4,0.8,1.4,2.3c0,0.3-0.1,0.9-0.4,1.7c-0.3,0.9-0.4,1.5-0.4,2c0,4.2,0.6,7.3,1.7,9.5
			c1.2-0.6,2.4-1.7,3.7-3.4c1.2-1.7,2.1-3.5,2.6-5.3c0.4-1.4,0.9-2.2,1.5-2.2c0.5,0,0.8,0.5,1,1.5c0.9,5.8,2.1,8.8,3.5,8.8
			c0.7,0,1.5-0.6,2.5-1.7c0.8-1,1.5-2.6,2-4.6c0.4-1.8,0.6-3.6,0.6-5.4c0-0.1,0-0.4-0.1-0.7c-0.1-0.3-0.1-0.6-0.1-0.7
			c0-0.9,0.4-1.3,1.2-1.3c0.5,0,0.9,0.4,1.2,1.2c0.2,0.9,0.4,1.6,0.4,2.2C54.5,34.5,54.3,35.5,54,35.8z"/>
		<path class="st2" d="M61.7,35.3c-0.9,3.5-1.3,6.2-1.3,8.2c0.5,0.5,0.7,1.1,0.7,1.7c0,0.5-0.3,0.8-0.7,0.8c-0.6,0-1.1-0.5-1.6-1.4
			c-0.4-0.7-0.6-1.7-0.6-2.9c0-1,0.5-4,1.5-9.2c-0.1-0.4-0.1-0.7-0.1-0.9c0-0.3,0.2-0.6,0.6-0.9c1.4,0.1,2.1,0.7,2.1,1.9
			C62.2,33.5,62,34.4,61.7,35.3z M63.2,20.9c-1.5-0.3-2.2-1-2.2-2.4c0-0.2,0-0.4,0-0.7c0.1-0.8,0.6-1.4,1.6-1.7
			c1.2,0.1,1.9,1,1.9,2.5C64.4,20.1,64,20.9,63.2,20.9z"/>
		<path class="st2" d="M77.6,38.2c-1.3,1.1-3.3,2.2-6.1,3.2c0.1,1,0.1,1.9,0.1,2.7c0,2.9-0.2,5.5-0.7,7.8c-0.3,1.2-0.7,1.8-1.2,1.8
			c-0.8,0-1.2-0.4-1.2-1.2c0-0.1,0.1-0.6,0.4-1.6c0.2-1,0.4-2.5,0.4-4.6v-2.1c0-0.5,0-1.1,0-1.8c-1.1-0.1-1.6-0.5-1.6-1.2
			c0-0.6,0.5-1.1,1.5-1.5c0-0.2,0-0.5,0-0.8c0-0.3,0-0.6,0-0.9c0-2.6,0.4-5.2,1.4-7.6c1.2-3.1,2.9-4.8,5.1-4.8
			c1.6,0,2.8,0.7,3.6,1.9c0.7,1.1,1.1,2.5,1.1,4.3C80.3,34.5,79.4,36.6,77.6,38.2z M77.4,29.1c-0.5-0.7-1.1-1-1.8-1
			c-0.7,0-1.4,0.5-2,1.4c-1.4,2-2.1,5.2-2.2,9.5c2.3-0.8,3.9-1.6,4.9-2.6c1.2-1.2,1.9-3,1.9-5.2C78,30.5,77.8,29.8,77.4,29.1z"/>
		<path class="st2" d="M94.7,46.3c-2.9,0-5-1.4-6.3-4.2c-0.3,0.1-0.7,0.1-1,0.1c-1.3,0-2.4-0.2-3.1-0.7c-0.9-0.5-1.4-1.1-1.4-1.7
			c0-0.8,0.4-1.2,1.1-1.2c0.1,0,0.5,0.2,1.1,0.7c0.6,0.4,1.3,0.6,1.9,0.6c0.2,0,0.5,0,0.7,0c-0.1-0.6-0.2-1.2-0.2-1.7
			c0-1.8,0.4-3.6,1.3-5.2c1-1.9,2.3-2.9,3.8-2.9c0.9,0,1.9,0.5,2.8,1.5c0.7,0.7,1,1.6,1,2.6c0,1.5-0.6,2.9-1.9,4.3
			c-1.1,1.3-2.5,2.3-4.2,3c0.7,1.6,1.9,2.4,3.6,2.4c0.3,0,0.9,0,1.6-0.2c0.7-0.1,1.1-0.1,1.3-0.1c0.3,0,0.5,0.1,0.7,0.4
			c0.2,0.3,0.3,0.6,0.3,0.9C98.1,45.7,96.9,46.3,94.7,46.3z M93.8,33c-0.4-0.3-0.8-0.5-1.2-0.5c-0.7,0-1.4,0.6-1.9,1.7
			c-0.5,1.1-0.8,2.3-0.8,3.5c0,0.4,0,1,0.1,1.5c1.2-0.5,2.2-1.2,3.1-2.2c0.9-0.9,1.3-1.8,1.3-2.8C94.4,33.8,94.2,33.4,93.8,33z"/>
		<path class="st2" d="M131.5,26.5c-0.1,0.3-0.1,0.4-0.1,0.5c0,0.2,0,1,0,2.4c0,1.4,0,2.2,0,2.5c0,3.4-0.9,6.4-2.5,9.2
			c-1.9,3.3-4.3,4.9-7.2,4.9c-1.9,0-3.6-0.9-5.2-2.6c-1.9-2-2.8-5.3-2.8-9.7c0-1,0.1-2.6,0.2-4.7c0.1-2.1,0.2-3.7,0.2-4.7
			c0-0.2,0-0.6,0-1.2c-0.1-0.6-0.1-1-0.1-1.2c0-0.6,0.3-0.9,1-0.9c0.9,0,1.4,1,1.4,3c0,0.6-0.1,2.1-0.3,4.8
			c-0.2,2.6-0.3,4.5-0.3,5.8c0,2.8,0.5,5.1,1.5,6.6c1.1,1.8,2.5,2.7,4.2,2.7c2,0,3.8-1.3,5.3-4c1.4-2.5,2.2-5.4,2.2-8.6
			c0-3.8-0.4-7.5-1.1-11l-0.3-1.7c0-0.3,0.2-0.6,0.4-0.8c0.2-0.2,0.5-0.4,0.8-0.4c0.7,0,1.1,0.3,1.1,1c0.1,0.2,0.1,0.4,0.3,0.8
			c0.8,3.2,1.2,5.5,1.2,6.8C131.6,26,131.5,26.2,131.5,26.5z"/>
		<path class="st2" d="M145.5,38.2c-1.3,1.1-3.3,2.2-6.1,3.2c0.1,1,0.1,1.9,0.1,2.7c0,2.9-0.2,5.5-0.7,7.8c-0.3,1.2-0.7,1.8-1.2,1.8
			c-0.8,0-1.2-0.4-1.2-1.2c0-0.1,0.1-0.6,0.4-1.6c0.2-1,0.4-2.5,0.4-4.6v-2.1c0-0.5,0-1.1,0-1.8c-1.1-0.1-1.6-0.5-1.6-1.2
			c0-0.6,0.5-1.1,1.5-1.5c0-0.2,0-0.5,0-0.8c0-0.3,0-0.6,0-0.9c0-2.6,0.4-5.2,1.4-7.6c1.2-3.1,2.9-4.8,5.1-4.8
			c1.6,0,2.8,0.7,3.6,1.9c0.7,1.1,1.1,2.5,1.1,4.3C148.2,34.5,147.3,36.6,145.5,38.2z M145.3,29.1c-0.5-0.7-1.1-1-1.8-1
			c-0.7,0-1.4,0.5-2,1.4c-1.4,2-2.1,5.2-2.2,9.5c2.3-0.8,3.9-1.6,4.9-2.6c1.2-1.2,1.9-3,1.9-5.2C145.9,30.5,145.7,29.8,145.3,29.1z"
			/>
	</g>
	<g>
		<path d="M26.6,21.5c-2.1,0.5-4,1.3-5.7,2.4c-2.3,1.5-3.5,3.2-3.5,5.1c0,1,0.4,1.7,1.2,2.3c0.3,0.3,1.2,0.7,2.7,1.4
			c1.8,0.8,3.1,1.5,3.7,2.1c1,1,1.6,2.4,1.6,4c0,2.1-1,3.9-3.1,5.4c-1.9,1.3-3.9,2-6,2c-2,0-3-0.5-3-1.6c0-0.3,0.1-0.6,0.3-0.9
			c0.2-0.3,0.5-0.4,0.8-0.4c0.2,0,0.5,0.1,1,0.1c0.4,0.1,0.8,0.2,1,0.2c1.4,0,2.9-0.4,4.3-1.4c1.6-1,2.4-2.3,2.4-3.7
			c0-0.9-0.3-1.7-1-2.3c-0.4-0.3-1.4-0.8-3-1.6c-1.9-0.8-3-1.5-3.6-1.9c-1.1-0.9-1.6-2.2-1.6-3.9c0-1.9,1-3.8,3-5.6
			c1.4-1.3,3.2-2.4,5.5-3.3c0.4-0.8,1.2-1.2,2.2-1.2c1.2,0,1.8,0.5,1.8,1.5C27.5,21,27.2,21.4,26.6,21.5z"/>
		<path d="M54,35.8c-0.4,2.5-1.1,4.8-2.2,6.8c-1.4,2.6-3.1,4-5,4c-2.2,0-3.9-2.3-5.1-7c-0.7,1.5-1.9,3.2-3.7,5
			c-1.8,1.9-3.1,2.8-3.9,2.8c-0.4,0-0.9-0.4-1.3-1.2c-0.4-0.6-0.7-1.2-0.9-1.9c-1-3.6-1.5-6.6-1.5-9c0-1.7,0.1-3.4,0.5-5
			c0.1-0.8,0.6-1.2,1.2-1.2c0.9,0,1.4,0.8,1.4,2.3c0,0.3-0.1,0.9-0.4,1.7c-0.3,0.9-0.4,1.5-0.4,2c0,4.2,0.6,7.3,1.7,9.5
			c1.2-0.6,2.4-1.7,3.7-3.4c1.2-1.7,2.1-3.5,2.6-5.3c0.4-1.4,0.9-2.2,1.5-2.2c0.5,0,0.8,0.5,1,1.5c0.9,5.8,2.1,8.8,3.5,8.8
			c0.7,0,1.5-0.6,2.5-1.7c0.8-1,1.5-2.6,2-4.6c0.4-1.8,0.6-3.6,0.6-5.4c0-0.1,0-0.4-0.1-0.7c-0.1-0.3-0.1-0.6-0.1-0.7
			c0-0.9,0.4-1.3,1.2-1.3c0.5,0,0.9,0.4,1.2,1.2c0.2,0.9,0.4,1.6,0.4,2.2C54.5,34.5,54.3,35.5,54,35.8z"/>
		<path d="M61.7,35.3c-0.9,3.5-1.3,6.2-1.3,8.2c0.5,0.5,0.7,1.1,0.7,1.7c0,0.5-0.3,0.8-0.7,0.8c-0.6,0-1.1-0.5-1.6-1.4
			c-0.4-0.7-0.6-1.7-0.6-2.9c0-1,0.5-4,1.5-9.2c-0.1-0.4-0.1-0.7-0.1-0.9c0-0.3,0.2-0.6,0.6-0.9c1.4,0.1,2.1,0.7,2.1,1.9
			C62.2,33.5,62,34.4,61.7,35.3z M63.2,20.9c-1.5-0.3-2.2-1-2.2-2.4c0-0.2,0-0.4,0-0.7c0.1-0.8,0.6-1.4,1.6-1.7
			c1.2,0.1,1.9,1,1.9,2.5C64.4,20.1,64,20.9,63.2,20.9z"/>
		<path d="M77.6,38.2c-1.3,1.1-3.3,2.2-6.1,3.2c0.1,1,0.1,1.9,0.1,2.7c0,2.9-0.2,5.5-0.7,7.8c-0.3,1.2-0.7,1.8-1.2,1.8
			c-0.8,0-1.2-0.4-1.2-1.2c0-0.1,0.1-0.6,0.4-1.6c0.2-1,0.4-2.5,0.4-4.6v-2.1c0-0.5,0-1.1,0-1.8c-1.1-0.1-1.6-0.5-1.6-1.2
			c0-0.6,0.5-1.1,1.5-1.5c0-0.2,0-0.5,0-0.8c0-0.3,0-0.6,0-0.9c0-2.6,0.4-5.2,1.4-7.6c1.2-3.1,2.9-4.8,5.1-4.8
			c1.6,0,2.8,0.7,3.6,1.9c0.7,1.1,1.1,2.5,1.1,4.3C80.2,34.5,79.4,36.6,77.6,38.2z M77.4,29.1c-0.5-0.7-1.1-1-1.8-1
			c-0.7,0-1.4,0.5-2,1.4c-1.4,2-2.1,5.2-2.2,9.5c2.3-0.8,3.9-1.6,4.9-2.6c1.2-1.2,1.9-3,1.9-5.2C78,30.5,77.8,29.8,77.4,29.1z"/>
		<path d="M94.7,46.3c-2.9,0-5-1.4-6.3-4.2c-0.3,0.1-0.7,0.1-1,0.1c-1.3,0-2.4-0.2-3.1-0.7c-0.9-0.5-1.4-1.1-1.4-1.7
			c0-0.8,0.4-1.2,1.1-1.2c0.1,0,0.5,0.2,1.1,0.7c0.6,0.4,1.3,0.6,1.9,0.6c0.2,0,0.5,0,0.7,0c-0.1-0.6-0.2-1.2-0.2-1.7
			c0-1.8,0.4-3.6,1.3-5.2c1-1.9,2.3-2.9,3.8-2.9c0.9,0,1.9,0.5,2.8,1.5c0.7,0.7,1,1.6,1,2.6c0,1.5-0.6,2.9-1.9,4.3
			c-1.1,1.3-2.5,2.3-4.2,3c0.7,1.6,1.9,2.4,3.6,2.4c0.3,0,0.9,0,1.6-0.2c0.7-0.1,1.1-0.1,1.3-0.1c0.3,0,0.5,0.1,0.7,0.4
			c0.2,0.3,0.3,0.6,0.3,0.9C98.1,45.7,96.9,46.3,94.7,46.3z M93.8,33c-0.4-0.3-0.8-0.5-1.2-0.5c-0.7,0-1.4,0.6-1.9,1.7
			c-0.5,1.1-0.8,2.3-0.8,3.5c0,0.4,0,1,0.1,1.5c1.2-0.5,2.2-1.2,3.1-2.2c0.9-0.9,1.3-1.8,1.3-2.8C94.4,33.8,94.2,33.4,93.8,33z"/>
		<path d="M131.5,26.5c-0.1,0.3-0.1,0.4-0.1,0.5c0,0.2,0,1,0,2.4c0,1.4,0,2.2,0,2.5c0,3.4-0.9,6.4-2.5,9.2c-1.9,3.3-4.3,4.9-7.2,4.9
			c-1.9,0-3.6-0.9-5.2-2.6c-1.9-2-2.8-5.3-2.8-9.7c0-1,0.1-2.6,0.2-4.7c0.1-2.1,0.2-3.7,0.2-4.7c0-0.2,0-0.6,0-1.2
			c-0.1-0.6-0.1-1-0.1-1.2c0-0.6,0.3-0.9,1-0.9c0.9,0,1.4,1,1.4,3c0,0.6-0.1,2.1-0.3,4.8c-0.2,2.6-0.3,4.5-0.3,5.8
			c0,2.8,0.5,5.1,1.5,6.6c1.1,1.8,2.5,2.7,4.2,2.7c2,0,3.8-1.3,5.3-4c1.4-2.5,2.2-5.4,2.2-8.6c0-3.8-0.4-7.5-1.1-11l-0.3-1.7
			c0-0.3,0.2-0.6,0.4-0.8c0.2-0.2,0.5-0.4,0.8-0.4c0.7,0,1.1,0.3,1.1,1c0.1,0.2,0.1,0.4,0.3,0.8c0.8,3.2,1.2,5.5,1.2,6.8
			C131.6,26,131.5,26.2,131.5,26.5z"/>
		<path d="M145.5,38.2c-1.3,1.1-3.3,2.2-6.1,3.2c0.1,1,0.1,1.9,0.1,2.7c0,2.9-0.2,5.5-0.7,7.8c-0.3,1.2-0.7,1.8-1.2,1.8
			c-0.8,0-1.2-0.4-1.2-1.2c0-0.1,0.1-0.6,0.4-1.6c0.2-1,0.4-2.5,0.4-4.6v-2.1c0-0.5,0-1.1,0-1.8c-1.1-0.1-1.6-0.5-1.6-1.2
			c0-0.6,0.5-1.1,1.5-1.5c0-0.2,0-0.5,0-0.8c0-0.3,0-0.6,0-0.9c0-2.6,0.4-5.2,1.4-7.6c1.2-3.1,2.9-4.8,5.1-4.8
			c1.6,0,2.8,0.7,3.6,1.9c0.7,1.1,1.1,2.5,1.1,4.3C148.2,34.5,147.3,36.6,145.5,38.2z M145.3,29.1c-0.5-0.7-1.1-1-1.8-1
			c-0.7,0-1.4,0.5-2,1.4c-1.4,2-2.1,5.2-2.2,9.5c2.3-0.8,3.9-1.6,4.9-2.6c1.2-1.2,1.9-3,1.9-5.2C145.9,30.5,145.7,29.8,145.3,29.1z"
			/>
	</g>
</g>
</svg>
