<?xml version="1.0" encoding="utf-8"?>
<!-- Generator: Adobe Illustrator 24.3.0, SVG Export Plug-In . SVG Version: 6.00 Build 0)  -->
<svg version="1.1" id="圖層_1" xmlns="http://www.w3.org/2000/svg" xmlns:xlink="http://www.w3.org/1999/xlink" x="0px" y="0px"
	 viewBox="0 0 166.2 97.5" style="enable-background:new 0 0 166.2 97.5;" xml:space="preserve">
<style type="text/css">
	.st0{stroke:#FFFFFF;stroke-width:2;stroke-miterlimit:10;}
	.st1{fill:none;stroke:#FFFFFF;stroke-width:3;stroke-linecap:round;stroke-linejoin:round;stroke-miterlimit:10;}
	.st2{fill:none;stroke:#000000;stroke-width:1.3866;stroke-linecap:round;stroke-linejoin:round;stroke-miterlimit:10;}
</style>
<g>
	<g>
		<path class="st0" d="M32.2,17.7c-2.2,0.5-4.1,1.4-5.8,2.5c-2.4,1.6-3.5,3.3-3.5,5.1c0,1,0.4,1.7,1.2,2.3c0.3,0.3,1.2,0.7,2.7,1.4
			c1.9,0.8,3.1,1.6,3.8,2.2c1.1,1,1.6,2.4,1.6,4.1c0,2.1-1.1,4-3.2,5.5c-1.9,1.4-3.9,2-6.1,2c-2,0-3.1-0.5-3.1-1.6
			c0-0.3,0.1-0.6,0.3-0.9c0.2-0.3,0.5-0.4,0.8-0.4c0.2,0,0.5,0.1,1,0.2c0.5,0.2,0.8,0.2,1,0.2c1.4,0,2.9-0.5,4.4-1.4
			c1.6-1.1,2.4-2.3,2.4-3.8c0-0.9-0.3-1.7-1-2.3c-0.5-0.3-1.4-0.8-3-1.6c-1.9-0.8-3.1-1.5-3.6-2c-1.1-0.9-1.7-2.3-1.7-4
			c0-2,1-3.9,3-5.7c1.4-1.3,3.3-2.4,5.5-3.3c0.5-0.8,1.2-1.2,2.2-1.2c1.2,0,1.8,0.5,1.8,1.6C33.1,17.2,32.8,17.6,32.2,17.7z"/>
		<path class="st0" d="M45.9,40.6c-1.4,1.1-2.7,1.7-4.1,1.7c-1.5,0-2.8-0.5-3.7-1.6c-1-1.1-1.4-2.4-1.4-3.9c0-1.9,0.5-3.8,1.4-5.5
			s2.2-3,3.7-4c0.8-0.5,1.8-0.8,2.9-0.8c1.3,0,1.9,0.6,1.9,1.7c-0.3,1.1-0.9,1.6-1.8,1.6c-0.9,0-1.6-0.2-2-0.5
			c-2.7,1.9-3.9,4.3-3.9,7.1c0,1,0.2,1.8,0.6,2.5s1.1,0.9,1.9,0.9c1.1,0,1.9-0.3,2.6-0.8c0.2-0.3,0.6-0.7,1.3-1.2
			c0.5-0.5,0.8-0.8,1.1-0.8s0.5,0.2,0.8,0.5c0.2,0.3,0.3,0.6,0.3,0.9C47.5,38.9,46.9,39.7,45.9,40.6z"/>
		<path class="st0" d="M63.1,29.3c-0.7,0.3-1.2,0.5-1.6,0.5c-0.1,0-0.3-0.1-0.8-0.2c-3.3,1.5-5.2,4.7-5.8,9.5
			c-0.3,2.5-0.8,3.8-1.3,3.8c-0.4,0-0.8-0.3-1.1-0.7S52,41.3,52,40.8c0.1-0.4,0.2-1,0.4-2c0.2-1.1,0.3-2.2,0.3-3.2
			c0-1.1-0.2-2.2-0.4-3.3c-0.5-0.5-0.7-1-0.8-1.5c-0.2-1-0.3-1.9-0.3-2.5c0-0.2,0.1-0.5,0.3-0.8S51.8,27,52,27
			c0.8,0,1.4,0.7,1.7,2.1s0.5,2.5,0.7,3.3c0.9-1.7,2.1-3.1,3.6-4.3c1.4-1.1,2.9-1.7,4.4-1.7c0.4,0,0.8,0.2,1.1,0.6s0.5,0.8,0.5,1.2
			C64.3,28.6,63.9,29,63.1,29.3z"/>
		<path class="st0" d="M76.8,36.9c-0.1,0.3-0.3,0.8-0.5,1.4c-0.4,1-1.1,1.9-2.1,2.8c-1.1,0.8-2,1.3-3,1.3c-1.6,0-2.9-0.7-3.9-2.1
			c-0.9-1.3-1.4-2.7-1.4-4.4c0-1.6,0.4-3.1,1.1-4.6c0.8-1.6,1.8-2.8,3.1-3.5c0.7-0.3,1.2-0.7,1.5-1.1c0.2,0,0.3-0.1,0.5-0.1
			c0.1,0,0.4,0.1,0.8,0.2c1.3,0.5,2.4,1.3,3.2,2.5c0.8,1.2,1.2,2.5,1.2,3.9C77.3,34.7,77.1,35.9,76.8,36.9z M73.6,30.1
			c-0.6,0-1.1-0.2-1.5-0.4c-1.3,0.1-2.4,0.8-3.1,2c-0.6,1.1-0.9,2.5-0.9,3.9c0,1.2,0.3,2.1,0.8,2.9c0.6,0.8,1.3,1.2,2.2,1.2
			c1,0,1.9-0.7,2.8-2.2c0.8-1.3,1.3-2.6,1.3-3.9C75.1,32,74.6,30.8,73.6,30.1z"/>
		<path class="st0" d="M86.7,17.2l-0.3,0.2c-0.4,1.6-0.8,3.8-1.1,6.4c-0.4,2.8-0.5,5.2-0.5,7.1c0,4.7,0.2,8.5,0.5,11.6
			c0,0.4-0.2,0.6-0.6,0.6c-0.5,0-1.1-0.5-1.6-1.3s-0.8-1.5-0.8-2c0-0.2,0-0.6,0-1.3s0-1.1,0-1.3c0-0.6,0.1-1,0.3-1.4
			c-0.2-1.5-0.2-3.5-0.2-6c0-4.8,0.8-10,2.5-15.6c0.2-0.5,0.3-0.8,0.6-0.8c0.4,0,0.8,0.3,1.4,0.8s0.9,1.1,0.9,1.5
			C87.9,16.3,87.5,16.8,86.7,17.2z"/>
		<path class="st0" d="M96.2,17.2l-0.3,0.2c-0.4,1.6-0.8,3.8-1.1,6.4c-0.4,2.8-0.5,5.2-0.5,7.1c0,4.7,0.2,8.5,0.5,11.6
			c0,0.4-0.2,0.6-0.6,0.6c-0.5,0-1.1-0.5-1.6-1.3s-0.8-1.5-0.8-2c0-0.2,0-0.6,0-1.3s0-1.1,0-1.3c0-0.6,0.1-1,0.3-1.4
			c-0.2-1.5-0.2-3.5-0.2-6c0-4.8,0.8-10,2.5-15.6c0.2-0.5,0.3-0.8,0.6-0.8c0.4,0,0.8,0.3,1.4,0.8s0.9,1.1,0.9,1.5
			C97.4,16.3,97,16.8,96.2,17.2z"/>
		<path class="st0" d="M131.2,22.7c-0.1,0.3-0.1,0.4-0.1,0.5c0,0.2,0,1,0,2.4s0,2.3,0,2.6c0,3.4-0.9,6.5-2.5,9.4
			c-2,3.3-4.4,4.9-7.3,4.9c-1.9,0-3.7-0.9-5.2-2.6c-1.9-2-2.8-5.3-2.8-9.9c0-1.1,0.1-2.7,0.2-4.8s0.2-3.7,0.2-4.8c0-0.2,0-0.6,0-1.3
			c-0.1-0.6-0.1-1-0.1-1.2c0-0.6,0.3-0.9,1.1-0.9c0.9,0,1.4,1,1.4,3.1c0,0.6-0.1,2.2-0.3,4.8c-0.2,2.6-0.3,4.6-0.3,5.9
			c0,2.9,0.5,5.1,1.6,6.7c1.1,1.8,2.5,2.7,4.3,2.7c2,0,3.9-1.4,5.4-4.1c1.4-2.6,2.2-5.5,2.2-8.8c0-3.9-0.4-7.6-1.1-11.2l-0.3-1.7
			c0-0.3,0.2-0.6,0.4-0.8c0.2-0.2,0.5-0.4,0.8-0.4c0.7,0,1.1,0.3,1.1,1c0.1,0.2,0.2,0.5,0.3,0.8c0.8,3.3,1.3,5.5,1.3,6.9
			C131.2,22.3,131.2,22.5,131.2,22.7z"/>
		<path class="st0" d="M145.4,34.6c-1.3,1.1-3.3,2.2-6.2,3.3c0.1,1,0.1,1.9,0.1,2.7c0,3-0.2,5.6-0.7,7.9c-0.3,1.2-0.7,1.8-1.3,1.8
			c-0.8,0-1.2-0.4-1.2-1.3c0-0.1,0.1-0.6,0.4-1.6c0.2-1,0.4-2.5,0.4-4.7v-2.1c0-0.5,0-1.1,0-1.9c-1.1-0.1-1.6-0.5-1.6-1.2
			c0-0.6,0.5-1.1,1.6-1.5c0-0.2,0-0.5,0-0.8s0-0.6,0-0.9c0-2.7,0.5-5.2,1.4-7.7c1.3-3.2,3-4.8,5.1-4.8c1.6,0,2.8,0.7,3.6,2
			c0.8,1.1,1.1,2.6,1.1,4.3C148,30.9,147.1,33,145.4,34.6z M145.1,25.4c-0.5-0.7-1.1-1-1.9-1c-0.7,0-1.4,0.5-2,1.4
			c-1.4,2-2.2,5.3-2.2,9.6c2.3-0.8,3.9-1.7,4.9-2.6c1.3-1.3,1.9-3,1.9-5.2C145.8,26.8,145.6,26,145.1,25.4z"/>
	</g>
	<line class="st1" x1="74.7" y1="53.9" x2="74.7" y2="75.6"/>
	<line class="st1" x1="84.2" y1="58.8" x2="84.2" y2="80.5"/>
	<line class="st1" x1="93.7" y1="64.8" x2="93.7" y2="86.5"/>
</g>
<g>
	<g>
		<path d="M32.4,18.1c-2.2,0.5-4.1,1.4-5.8,2.5c-2.4,1.6-3.5,3.3-3.5,5.1c0,1,0.4,1.7,1.2,2.3c0.3,0.3,1.2,0.7,2.7,1.4
			c1.9,0.8,3.1,1.6,3.8,2.2c1.1,1,1.6,2.4,1.6,4.1c0,2.1-1.1,4-3.2,5.5c-1.9,1.4-3.9,2-6.1,2c-2,0-3.1-0.5-3.1-1.6
			c0-0.3,0.1-0.6,0.3-0.9c0.2-0.3,0.5-0.4,0.8-0.4c0.2,0,0.5,0.1,1,0.2c0.5,0.2,0.8,0.2,1,0.2c1.4,0,2.9-0.5,4.4-1.4
			c1.6-1.1,2.4-2.3,2.4-3.8c0-0.9-0.3-1.7-1-2.3c-0.5-0.3-1.4-0.8-3-1.6c-1.9-0.8-3.1-1.5-3.6-2c-1.1-0.9-1.7-2.3-1.7-4
			c0-2,1-3.9,3-5.7c1.4-1.3,3.3-2.4,5.5-3.3c0.5-0.8,1.2-1.2,2.2-1.2c1.2,0,1.8,0.5,1.8,1.6C33.3,17.6,33,18,32.4,18.1z"/>
		<path d="M46.1,41c-1.4,1.1-2.7,1.7-4.1,1.7c-1.5,0-2.8-0.5-3.7-1.6c-1-1.1-1.4-2.4-1.4-3.9c0-1.9,0.5-3.8,1.4-5.5s2.2-3,3.7-4
			c0.8-0.5,1.8-0.8,2.9-0.8c1.3,0,1.9,0.6,1.9,1.7c-0.3,1.1-0.9,1.6-1.8,1.6c-0.9,0-1.6-0.2-2-0.5c-2.7,1.9-3.9,4.3-3.9,7.1
			c0,1,0.2,1.8,0.6,2.5c0.4,0.7,1.1,0.9,1.9,0.9c1.1,0,1.9-0.3,2.6-0.8c0.2-0.3,0.6-0.7,1.3-1.2c0.5-0.5,0.8-0.8,1.1-0.8
			c0.3,0,0.5,0.2,0.8,0.5c0.2,0.3,0.3,0.6,0.3,0.9C47.7,39.3,47.1,40.1,46.1,41z"/>
		<path d="M63.3,29.7c-0.7,0.3-1.2,0.5-1.6,0.5c-0.1,0-0.3-0.1-0.8-0.2c-3.3,1.5-5.2,4.7-5.8,9.5c-0.3,2.5-0.8,3.8-1.3,3.8
			c-0.4,0-0.8-0.3-1.1-0.7c-0.3-0.4-0.5-0.9-0.5-1.4c0.1-0.4,0.2-1,0.4-2c0.2-1.1,0.3-2.2,0.3-3.2c0-1.1-0.2-2.2-0.4-3.3
			c-0.5-0.5-0.7-1-0.8-1.5c-0.2-1-0.3-1.9-0.3-2.5c0-0.2,0.1-0.5,0.3-0.8c0.2-0.3,0.3-0.5,0.5-0.5c0.8,0,1.4,0.7,1.7,2.1
			c0.3,1.4,0.5,2.5,0.7,3.3c0.9-1.7,2.1-3.1,3.6-4.3c1.4-1.1,2.9-1.7,4.4-1.7c0.4,0,0.8,0.2,1.1,0.6c0.3,0.4,0.5,0.8,0.5,1.2
			C64.5,29,64.1,29.4,63.3,29.7z"/>
		<path d="M77,37.3c-0.1,0.3-0.3,0.8-0.5,1.4c-0.4,1-1.1,1.9-2.1,2.8c-1.1,0.8-2,1.3-3,1.3c-1.6,0-2.9-0.7-3.9-2.1
			c-0.9-1.3-1.4-2.7-1.4-4.4c0-1.6,0.4-3.1,1.1-4.6c0.8-1.6,1.8-2.8,3.1-3.5c0.7-0.3,1.2-0.7,1.5-1.1c0.2,0,0.3-0.1,0.5-0.1
			c0.1,0,0.4,0.1,0.8,0.2c1.3,0.5,2.4,1.3,3.2,2.5c0.8,1.2,1.2,2.5,1.2,3.9C77.5,35.1,77.3,36.3,77,37.3z M73.8,30.5
			c-0.6,0-1.1-0.2-1.5-0.4c-1.3,0.1-2.4,0.8-3.1,2c-0.6,1.1-0.9,2.5-0.9,3.9c0,1.2,0.3,2.1,0.8,2.9c0.6,0.8,1.3,1.2,2.2,1.2
			c1,0,1.9-0.7,2.8-2.2c0.8-1.3,1.3-2.6,1.3-3.9C75.3,32.4,74.8,31.2,73.8,30.5z"/>
		<path d="M86.9,17.6l-0.3,0.2c-0.4,1.6-0.8,3.8-1.1,6.4C85.1,27,85,29.4,85,31.3c0,4.7,0.2,8.5,0.5,11.6c0,0.4-0.2,0.6-0.6,0.6
			c-0.5,0-1.1-0.5-1.6-1.3s-0.8-1.5-0.8-2c0-0.2,0-0.6,0-1.3s0-1.1,0-1.3c0-0.6,0.1-1,0.3-1.4c-0.2-1.5-0.2-3.5-0.2-6
			c0-4.8,0.8-10,2.5-15.6c0.2-0.5,0.3-0.8,0.6-0.8c0.4,0,0.8,0.3,1.4,0.8s0.9,1.1,0.9,1.5C88.1,16.7,87.7,17.2,86.9,17.6z"/>
		<path d="M96.4,17.6l-0.3,0.2c-0.4,1.6-0.8,3.8-1.1,6.4c-0.4,2.8-0.5,5.2-0.5,7.1c0,4.7,0.2,8.5,0.5,11.6c0,0.4-0.2,0.6-0.6,0.6
			c-0.5,0-1.1-0.5-1.6-1.3s-0.8-1.5-0.8-2c0-0.2,0-0.6,0-1.3s0-1.1,0-1.3c0-0.6,0.1-1,0.3-1.4c-0.2-1.5-0.2-3.5-0.2-6
			c0-4.8,0.8-10,2.5-15.6c0.2-0.5,0.3-0.8,0.6-0.8c0.4,0,0.8,0.3,1.4,0.8s0.9,1.1,0.9,1.5C97.6,16.7,97.2,17.2,96.4,17.6z"/>
		<path d="M131.4,23.1c-0.1,0.3-0.1,0.4-0.1,0.5c0,0.2,0,1,0,2.4c0,1.4,0,2.3,0,2.6c0,3.4-0.9,6.5-2.5,9.4c-2,3.3-4.4,4.9-7.3,4.9
			c-1.9,0-3.7-0.9-5.2-2.6c-1.9-2-2.8-5.3-2.8-9.9c0-1.1,0.1-2.7,0.2-4.8c0.1-2.1,0.2-3.7,0.2-4.8c0-0.2,0-0.6,0-1.3
			c-0.1-0.6-0.1-1-0.1-1.2c0-0.6,0.3-0.9,1.1-0.9c0.9,0,1.4,1,1.4,3.1c0,0.6-0.1,2.2-0.3,4.8c-0.2,2.6-0.3,4.6-0.3,5.9
			c0,2.9,0.5,5.1,1.6,6.7c1.1,1.8,2.5,2.7,4.3,2.7c2,0,3.9-1.4,5.4-4.1c1.4-2.6,2.2-5.5,2.2-8.8c0-3.9-0.4-7.6-1.1-11.2l-0.3-1.7
			c0-0.3,0.2-0.6,0.4-0.8c0.2-0.2,0.5-0.4,0.8-0.4c0.7,0,1.1,0.3,1.1,1c0.1,0.2,0.2,0.5,0.3,0.8c0.8,3.3,1.3,5.5,1.3,6.9
			C131.4,22.7,131.4,22.9,131.4,23.1z"/>
		<path d="M145.6,35c-1.3,1.1-3.3,2.2-6.2,3.3c0.1,1,0.1,1.9,0.1,2.7c0,3-0.2,5.6-0.7,7.9c-0.3,1.2-0.7,1.8-1.3,1.8
			c-0.8,0-1.2-0.4-1.2-1.3c0-0.1,0.1-0.6,0.4-1.6c0.2-1,0.4-2.5,0.4-4.7V41c0-0.5,0-1.1,0-1.9c-1.1-0.1-1.6-0.5-1.6-1.2
			c0-0.6,0.5-1.1,1.6-1.5c0-0.2,0-0.5,0-0.8s0-0.6,0-0.9c0-2.7,0.5-5.2,1.4-7.7c1.3-3.2,3-4.8,5.1-4.8c1.6,0,2.8,0.7,3.6,2
			c0.8,1.1,1.1,2.6,1.1,4.3C148.2,31.3,147.4,33.4,145.6,35z M145.4,25.8c-0.5-0.7-1.1-1-1.9-1c-0.7,0-1.4,0.5-2,1.4
			c-1.4,2-2.2,5.3-2.2,9.6c2.3-0.8,3.9-1.7,4.9-2.6c1.3-1.3,1.9-3,1.9-5.2C146.1,27.2,145.9,26.4,145.4,25.8z"/>
	</g>
	<line class="st2" x1="74.9" y1="54.3" x2="74.9" y2="76"/>
	<line class="st2" x1="84.4" y1="59.2" x2="84.4" y2="80.9"/>
	<line class="st2" x1="93.9" y1="65.2" x2="93.9" y2="86.9"/>
</g>
</svg>
