<?xml version="1.0" encoding="utf-8"?>
<!-- Generator: Adobe Illustrator 25.0.0, SVG Export Plug-In . SVG Version: 6.00 Build 0)  -->
<svg version="1.1" id="圖層_1" xmlns="http://www.w3.org/2000/svg" xmlns:xlink="http://www.w3.org/1999/xlink" x="0px" y="0px"
	 viewBox="0 0 210 117.3" style="enable-background:new 0 0 210 117.3;" xml:space="preserve">
<style type="text/css">
	.st0{fill:#412110;}
	.st1{fill:#412110;stroke:#412110;stroke-width:0.6505;stroke-miterlimit:10;}
	.st2{fill:#412110;stroke:#412110;stroke-width:3.903;stroke-miterlimit:10;}
	.st3{fill:#412110;stroke:#412110;stroke-width:0.9107;stroke-miterlimit:10;}
</style>
<g>
	<path class="st0" d="M150,90.7c-0.5-0.7-1.1-1.3-1.9-1.7c0.2-0.3,0.4-0.6,0.5-1c0.9-2.8-1.3-4.2-2.9-5.2l-0.3-0.2c-2-1-4-1.9-6-2.7
		c0.6-0.6,1-1.3,1.1-2.1c0.1-0.6,0-1.2-0.2-1.8c0.7-0.3,1.4-0.8,1.9-1.4c0.7-1,1.1-2.2,0.8-3.4c-0.1-0.9-0.6-1.7-1.4-2.3
		c-0.7-0.5-1.6-0.8-2.4-0.9c0.1-0.4,0.1-0.7,0.1-1.1c-0.2-2.9-2.7-3.4-4.6-3.8l-0.4-0.1c-1.4-0.3-8.8-0.3-11.2-0.3l0.5-0.5
		c2.2-2.2,3.1-5.1,2.4-7.6c-0.3-1.4-1.2-2.5-2.6-2.9l0,0c-2.4-0.6-4.5,1.6-5.9,3.1c-0.3,0.3-0.6,0.7-0.8,0.8l0,0
		c-0.3,0.2-1.1,0.7-2.7,1.8c-2.7,1.8-6.6,4.4-9.1,5.9c-2.1,0-4.4-0.1-5.8-0.1l-1-0.3c1.8-1.9,4.6-5.1,6.2-8.2c1.4-2.8,1.4-5.8,0-8
		c-0.7-1.2-1.9-2-3.3-2c-2.3,0.1-4,2.5-5.7,5c-0.2,0.3-0.5,0.7-0.5,0.8c-0.2,0.2-1.2,0.9-2.1,1.6c-2.5,1.8-6.3,4.5-8.4,6.9
		c-0.7,0.8-3.2,3.5-5.4,5.9c-1.8,1.9-3.3,3.6-3.7,4s-1,1.1-1.8,1.9c-0.9,0.9-1.7,1.8-2.3,2.4c-1,0.6-6.2,1.7-10.5,2.5
		c-0.8,0.1-1.3,0.8-1.3,1.6c0.1,0.8,0.8,1.3,1.6,1.3H61c7.1-1.2,11.2-2.3,12.1-3.3c0.5-0.6,1.4-1.5,2.3-2.4c0.8-0.8,1.5-1.5,1.9-2
		s1.9-2.1,3.6-4c2.2-2.4,4.7-5.1,5.4-5.9c1.8-2.1,5.5-4.7,7.9-6.4c0.9-0.6,1.8-1.2,2.6-2c0.3-0.4,0.5-0.7,0.8-1.1
		c0.6-0.9,2.4-3.7,3.4-3.7c0.5,0.2,0.8,0.6,1,1.1c0.3,0.6,0.9,2.3-0.3,4.8c-1.8,3.5-5.5,7.3-6.9,8.7c-2.5-0.5-4.1-0.4-4.9,0.3
		c-0.6,0.6-0.5,1.5,0,2s1.2,0.5,1.8,0.2c0.2,0,1-0.1,3.2,0.4l3.6,0.9c0.1,0,0.2,0,0.3,0c0.9,0,9,0.2,10.5,0.1c0.8,0,4.4-0.1,7.6-0.2
		l2.4-0.1h0.1c0.1,0,0.2,0,0.2,0l2.8-0.1c1.2-0.1,10.1,0,11.2,0.2l0.4,0.1c2,0.4,2.3,0.6,2.3,1.2c0,0.4-0.2,0.8-0.5,1L107,71.7
		c-0.8,0-1.4,0.7-1.3,1.5s0.7,1.4,1.5,1.3h0.2l29.1-3.4h0.1c0.7-0.1,2.5-0.2,3.3,0.3c0.1,0.1,0.2,0.2,0.2,0.4c0.1,0.4,0,0.9-0.2,1.2
		c-0.6,0.5-1.3,0.9-2.1,0.9h-0.1l-29.5,5.2c-0.8,0.1-1.4,0.8-1.3,1.6s0.8,1.4,1.6,1.3h0.2l28.8-5.1c0.2,0.3,0.2,0.6,0.2,0.9
		c0,0.2-0.7,1.2-3.1,2c-2.5,0.8-7.1,1.9-7.3,2l0,0l-21.2,4.6c-0.8,0.1-1.4,0.8-1.3,1.6s0.8,1.4,1.6,1.3c0.1,0,0.2,0,0.3,0l21.1-4.5
		c0.2,0,0.4,0.2,0.5,0.4c0.1,0.5-0.9,1.2-1.9,1.5c-0.5,0.2-1.5,0.5-2.8,1c-1.1,0.4-2.6,1-4.1,1.5c-0.1,0-0.2,0.1-0.3,0.1
		c-1.3,0.5-2.7,0.9-4.2,1.2c-1.7,0.1-4.1,1-7,2.1c-1.5,0.6-3,1.1-4.4,1.6c-2.2,0.6-4.4,1.1-6.7,1.5h-0.2c-4.4,0.8-9.3,1.3-11.7,1.1
		c-4.5-0.4-7.1,0-13.8,2.1c-7.3,2.2-10.5,2.7-10.6,2.7c-0.8,0.1-1.4,0.7-1.3,1.5s0.7,1.4,1.5,1.3H61c0.1,0,3.5-0.5,11.1-2.9
		c6.7-2.1,8.8-2.4,12.7-2c2.6,0.2,7.6-0.3,12.1-1.1c2.8,1.2,5.6,2,8.6,2.5c1.4,0.3,2.7,0.6,3.9,0.9c4.9,1.3,19.8,2.5,20,2.5
		s0.5,0,0.7,0c2.6,0,4.4-1.2,4.7-3.2c0-0.2,0-0.3,0-0.5c1.6,0.2,3.5,0.4,4.9,0.5c3.2,0.1,5.5-0.7,6.3-2.3c0.3-0.6,0.4-1.2,0.4-1.8
		c0.8,0,1.6-0.2,2.3-0.6c1.1-0.6,1.8-1.7,2-2.9C150.7,92.4,150.5,91.4,150,90.7z M116.7,62.8l-6.6,0.2c1.8-1.2,3.7-2.5,5.2-3.5
		c1.3-0.8,2.3-1.6,2.6-1.7l0,0c0.5-0.3,0.9-0.7,1.3-1.2c0.7-0.7,2.4-2.4,3.2-2.3c0.4,0.3,0.6,0.8,0.6,1.3c0.1,0.7,0.2,2.5-1.8,4.4
		c-1.4,1.4-2.1,2.1-2.5,2.6l-0.1,0.1L116.7,62.8z M135.3,82.1c0.4-0.1,0.7-0.3,1.1-0.4c1.7,0.7,6.5,2.6,7.4,3.2l0.4,0.2
		c1.7,1.1,1.9,1.4,1.7,1.9c-0.1,0.4-0.4,0.6-0.8,0.7l-14.3-3.8l0,0c0-0.2-0.1-0.3-0.2-0.5C132.1,83.1,134,82.6,135.3,82.1z
		 M129.3,101.2c-3.8-0.3-15.6-1.4-19.5-2.4c-1.3-0.4-2.7-0.7-4.1-0.9c-1.3-0.3-2.5-0.5-3.7-0.9c0.8-0.2,1.5-0.4,2.1-0.6
		c0.9-0.3,1.9-0.6,2.8-1l24.4,4.5c0.2,0.1,0.3,0.3,0.3,0.6C131.6,101.1,130.4,101.3,129.3,101.2z M143.2,97.3
		c-0.1,0.2-1.1,0.8-3.6,0.7c-2.6-0.1-7.3-0.8-7.5-0.9l-19.8-3.7c0.9-0.3,1.8-0.5,2.7-0.7c1.6-0.2,3.2-0.7,4.7-1.3l23.7,4.9
		C143.3,96.7,143.3,97,143.2,97.3L143.2,97.3z M147.7,92.6c-0.1,0.4-0.3,0.8-0.7,1c-0.7,0.3-1.5,0.3-2.3,0.1l0,0h-0.1l-19.9-4.1
		c1-0.4,1.8-0.7,2.1-0.8c1.3-0.3,2.4-1.1,3.3-2.1l14.5,3.9h0.1c0.7,0.2,2.4,0.8,2.9,1.5C147.7,92.3,147.7,92.5,147.7,92.6
		L147.7,92.6z"/>
	<path class="st0" d="M114.1,22.7h35c0.8,0,1.4-0.6,1.4-1.4v-2.1c0-0.8-0.6-1.4-1.4-1.4c-0.8,0-1.4,0.6-1.4,1.4v0.7h-3.6v-5.7
		c0-0.8-0.6-1.4-1.4-1.4h-22.6c-0.8,0-1.4,0.6-1.4,1.4s0.6,1.4,1.4,1.4h12.6v4.3h-18.6c-2.7,0-5.7,2.1-5.7,5V32
		c0,0.8,0.6,1.4,1.4,1.4h11.4c0.8,0,1.4-0.6,1.4-1.4v-2.1h25v0.7c0,0.8,0.6,1.4,1.4,1.4c0.8,0,1.4-0.6,1.4-1.4v-2.1
		c0-0.8-0.6-1.4-1.4-1.4h-27.8c-0.8,0-1.4,0.6-1.4,1.4v2.1h-8.6v-5.7C111.3,23.7,112.8,22.7,114.1,22.7z M135.6,15.5h5.7v4.3h-5.7
		V15.5z"/>
	<path class="st0" d="M109.8,36.2c-0.8,0-1.4,0.6-1.4,1.4v17.1c0,0.8,0.6,1.4,1.4,1.4c0.8,0,1.4-0.6,1.4-1.4v-17
		C111.3,36.9,110.6,36.2,109.8,36.2z"/>
	<path class="st0" d="M115.6,36.2c-0.8,0-1.4,0.6-1.4,1.4v12.9c0,0.8,0.6,1.4,1.4,1.4c0.8,0,1.4-0.6,1.4-1.4V37.7
		C117,36.9,116.4,36.2,115.6,36.2z"/>
	<path class="st0" d="M121.3,36.2c-0.8,0-1.4,0.6-1.4,1.4v10c0,0.8,0.6,1.4,1.4,1.4c0.8,0,1.4-0.6,1.4-1.4v-10
		C122.7,36.9,122.1,36.2,121.3,36.2z"/>
</g>
</svg>
