<?xml version="1.0" encoding="utf-8"?>
<!-- Generator: Adobe Illustrator 25.0.0, SVG Export Plug-In . SVG Version: 6.00 Build 0)  -->
<svg version="1.1" id="圖層_1" xmlns="http://www.w3.org/2000/svg" xmlns:xlink="http://www.w3.org/1999/xlink" x="0px" y="0px"
	 viewBox="0 0 210 117.3" style="enable-background:new 0 0 210 117.3;" xml:space="preserve">
<style type="text/css">
	.st0{fill:#412110;}
	.st1{fill:#412110;stroke:#412110;stroke-width:0.6505;stroke-miterlimit:10;}
	.st2{fill:#412110;stroke:#412110;stroke-width:3.903;stroke-miterlimit:10;}
	.st3{fill:#412110;stroke:#412110;stroke-width:0.9107;stroke-miterlimit:10;}
</style>
<g>
	<g>
		<path class="st0" d="M170.8,69.3h5.9c-0.1-0.2-0.3-0.4-0.4-0.6c-0.5-0.5-1.2-0.8-1.9-0.8h-1.3C172.1,68,171.2,68.5,170.8,69.3z"/>
		<path class="st0" d="M170.8,69.3h5.9c-0.1-0.2-0.3-0.4-0.4-0.6c-0.5-0.5-1.2-0.8-1.9-0.8h-1.3C172.1,68,171.2,68.5,170.8,69.3z"/>
		<path class="st0" d="M170.8,74.6h5.9c-0.1-0.2-0.3-0.4-0.4-0.6c-0.5-0.5-1.2-0.8-1.9-0.8h-1.3C172.1,73.3,171.2,73.8,170.8,74.6z"
			/>
		<path class="st0" d="M170.8,80h5.9c-0.1-0.2-0.3-0.4-0.4-0.6c-0.5-0.5-1.2-0.8-1.9-0.8h-1.3C172.1,78.6,171.2,79.1,170.8,80z"/>
		<rect x="166.4" y="46.7" class="st0" width="1.3" height="10.7"/>
		<rect x="182.4" y="46.7" class="st0" width="1.3" height="10.7"/>
		<path class="st0" d="M199.7,83.9h-22.3c-0.8,0.8-1.8,1.3-3,1.3h-1.3c-2.2,0-4-1.8-4-4c0-1,0.4-1.9,1-2.7c-1.4-1.5-1.4-3.8,0-5.3
			c-1.1-1.3-1.3-3.1-0.5-4.6c-1.6-1-2.2-2.9-1.6-4.7h-0.2c-2.2,0-4-1.8-4-4h-2.7c-0.7,0-1.3-0.6-1.3-1.3V45.3c0-0.7,0.6-1.3,1.3-1.3
			h5.3c0.7,0,1.3,0.6,1.3,1.3h20c0.7,0,1.3,0.6,1.3,1.3v10.7c0,0.7-0.6,1.3-1.3,1.3h-3.9l0.1,2.7c1.3,0.2,2.5,0.9,3.2,2l3.9,5.9h8.6
			c0.7,0,1.3,0.6,1.3,1.3v12C201,83.4,200.4,83.9,199.7,83.9z M182.3,81.3l-0.4-8h-1c-1,0-2.1-0.2-3-0.7c-0.1,0.3-0.3,0.5-0.5,0.7
			c1.4,1.5,1.4,3.8,0,5.3c0.7,0.7,1,1.7,1,2.7H182.3z M174.8,69.3h-1.7c-0.7,0-1.3,0.6-1.3,1.3c0,0.7,0.6,1.3,1.3,1.3h1.3
			c0.7,0,1.2-0.5,1.3-1.2C175.3,70.3,175,69.8,174.8,69.3z M171.7,76c0,0.7,0.6,1.3,1.3,1.3h1.3c0.7,0,1.3-0.6,1.3-1.3
			c0-0.7-0.6-1.3-1.3-1.3H173C172.3,74.6,171.7,75.2,171.7,76z M173.1,82.6h1.3c0.7,0,1.3-0.6,1.3-1.3c0-0.7-0.6-1.3-1.3-1.3h-1.3
			c-0.7,0-1.3,0.6-1.3,1.3C171.7,82,172.3,82.6,173.1,82.6z M167.7,61.3h5.5v-0.8c-0.1-1.1-0.9-1.9-2-1.9h-3.9
			c-0.1,0.1-0.2,0.1-0.2,0.2c-0.6,0.4-0.9,1.2-0.5,1.8C166.8,61.1,167.3,61.3,167.7,61.3z M162.4,46.7v10.6h2.4
			c0.1-0.1,0.2-0.2,0.3-0.3V46.7H162.4z M167.7,56h3.5c2.5,0,4.5,1.9,4.7,4.4v0.9h5.3l-0.2-3.9c0,0,0,0,0-0.1V48h-13.3V56z
			 M186.4,48h-2.7v8h2.7V48z M198.4,72h-8c-0.4,0-0.9-0.2-1.1-0.6l-4.3-6.5c-0.4-0.6-1-0.9-1.7-0.9h-11.5c-0.7,0-1.3,0.6-1.3,1.3
			c0,0.7,0.6,1.3,1.3,1.3h4c0.6,0,1.1,0.4,1.3,0.9l0.1,0.4c0.5,1.6,2.1,2.7,3.8,2.7h2.3c0.7,0,1.3,0.6,1.3,1.3l0.4,9.4h13.4V72z"/>
	</g>
	<g>
		<path class="st1" d="M143,75.7c1.7-5.7,4.5-15.4,4.5-20.5c0-10.3-3.2-27.7-24.3-27.7c-8.7,0-15.2,3.1-19.4,9.2
			c-4.1,6-5,13.3-5,18.5c0,5,2.6,13.2,4.2,18.7c0.6,2,1.1,3.5,1.2,4.2l0,0c1,4.5,3.2,10.6,4.2,11.6c2.8,2.8,9.7,5.3,14.6,5.3
			c4.4,0,11.5-2.2,14.6-5.3c1.2-1.2,2.9-5.7,3.9-9.6c0-0.1,0-0.1,0-0.2s0-0.1,0.1-0.2c0-0.1,0.1-0.2,0.1-0.4
			C142.1,78.7,142.5,77.3,143,75.7z M142,71.5c-0.6-2-1.8-3.8-3.3-5.1c1.9-1,3.7-2,5.5-3.2C143.5,66,142.7,68.9,142,71.5z
			 M109.9,65.2c-3.7-1.6-7.9-3.8-8.3-4.7v-0.1c-0.2-1.2-0.4-2.4-0.6-3.6c1,1,2.1,1.9,3.3,2.7c0.5,0.3,1.1,0.1,1.4-0.4
			c0.1-0.1,0.1-0.2,0.1-0.4c0-0.1,1-5.7,2.7-9.1c1.1-2.3,3.8-5,5.1-6.2c1.5,1.5,4.9,4.9,8,6.1c4,1.7,11,2.8,11.3,2.8
			c0.6,0.1,1.1-0.3,1.2-0.9c0-0.1,0-0.1,0-0.2c-0.1-2-0.5-4-1.2-5.9c-0.1-0.2-0.2-0.5-0.3-0.7c2.1,1,4,2.2,5.9,3.6
			c3,2.5,6.5,8,6.5,10.3l0,0c-0.1,0.4-0.1,0.8-0.2,1.2v0.1c-0.4,0.9-4.6,3.4-8.4,5.3c-1.1-0.3-2.3-0.8-3.6-1.3
			c-3-1.2-6.4-2.5-9.6-2.5c-3.5,0-7.5,1.6-10.8,2.9C111.5,64.6,110.6,64.9,109.9,65.2L109.9,65.2z M123.2,29.7
			c17.5,0,21.8,12.5,22.2,23.8c-1.4-2.6-3.3-4.9-5.4-6.8c-3.4-2.8-8.9-5.1-9.2-5.2c-0.5-0.2-1.2,0.1-1.4,0.6
			c-0.1,0.3-0.1,0.6,0.1,0.9c0.6,1,1.1,2.1,1.6,3.2c0.5,1.2,0.8,2.6,0.9,3.9c-2.2-0.4-6.8-1.3-9.5-2.5c-3.5-1.5-7.9-6.3-8-6.4
			c-0.4-0.4-1-0.5-1.5-0.1c-0.2,0.2-4.6,4.1-6.3,7.5c-1.3,2.5-2.1,6.1-2.6,8.1c-1.1-0.9-2.6-2.3-3.1-3.8
			C101.5,44.5,104.9,29.7,123.2,29.7z M102.3,63.7c1.7,1,3.4,1.9,5.2,2.7c-1.4,1.3-2.5,2.9-3.1,4.7C103.8,69,103,66.3,102.3,63.7z
			 M136.3,88.3c-2.5,2.4-8.7,4.7-13.1,4.7c-4.3,0-10.8-2.3-13.1-4.7c-0.7-0.7-2.7-6.4-3.7-10.6c0,0,0,0,0-0.1s-0.1-0.3-0.1-0.5
			c-0.2-0.9-0.3-1.7-0.3-2.6c0-2.9,2.2-6.6,4.3-7.3c0.9-0.3,1.9-0.7,2.9-1.1c3.1-1.2,6.9-2.7,10-2.7c2.8,0,5.9,1.2,8.8,2.4
			c1.5,0.6,2.9,1.1,4.2,1.5c2.1,0.6,4.4,4.7,4.3,7.7c-0.1,1.2-0.2,2.3-0.5,3.5c-0.1,0.5-0.2,0.8-0.3,1.1l0,0
			C138.7,83.3,137.2,87.4,136.3,88.3z"/>
		<path class="st2" d="M113.7,56.4c-0.6,0-1.1,0.5-1.1,1.1s0.5,1.1,1.1,1.1s1.1-0.5,1.1-1.1S114.3,56.4,113.7,56.4z"/>
		<path class="st2" d="M132.6,56.4c-0.6,0-1.1,0.5-1.1,1.1s0.5,1.1,1.1,1.1s1.1-0.5,1.1-1.1C133.6,56.9,133.2,56.4,132.6,56.4z"/>
		<path class="st1" d="M126.7,72.1c-1.2-0.2-2.3-0.4-3.5-0.4c-1.2,0.1-2.4,0.2-3.5,0.4c-0.6,0.1-1,0.6-1,1.1c0.1,0.6,0.6,1,1.1,1
			l0,0c0.1,0,0.1,0,0.2,0c1-0.2,2.1-0.3,3.2-0.4c1.1,0.1,2.1,0.2,3.2,0.4c0.6,0.1,1.1-0.3,1.2-0.9S127.3,72.3,126.7,72.1L126.7,72.1
			z"/>
		<path class="st1" d="M126.7,77.8c-1.2-0.2-2.3-0.4-3.5-0.4c-1.2,0.1-2.4,0.2-3.5,0.4c-0.6,0.1-1,0.6-1,1.1c0.1,0.6,0.6,1,1.1,1
			l0,0c0.1,0,0.1,0,0.2,0c1-0.2,2.1-0.3,3.2-0.4c1.1,0.1,2.1,0.2,3.2,0.4c0.6,0.1,1.1-0.3,1.2-0.9S127.3,77.9,126.7,77.8L126.7,77.8
			z"/>
	</g>
	<g>
		<g>
			<path class="st0" d="M76.1,33.8l-4.4-3.1c-0.6-0.4-1.4-0.3-1.9,0.3L59.6,45.2c-0.4,0.6-0.3,1.4,0.3,1.9l4.4,3.1
				c0.6,0.4,1.4,0.3,1.9-0.3l10.2-14.2C76.8,35.1,76.7,34.3,76.1,33.8z M62.6,45.7l8.6-12l2.2,1.6l-8.6,12L62.6,45.7z"/>
			<path class="st0" d="M79.7,24.1c-4.2-3-10.1-2.1-13.1,2.2L42.3,60.1c-1.1,1.5-2.3,4.8-3.8,9.9c-0.7,2.5-1.8,4.8-3.3,6.9l-6.9,9.6
				c-1.7,2.4-1.2,5.8,1.2,7.5c2.4,1.7,5.8,1.2,7.5-1.2l6.9-9.6c1.5-2.1,3.3-3.9,5.5-5.3c4.3-3,7.1-5.3,8.2-6.8l24.3-33.8
				C84.9,33,84,27.1,79.7,24.1z M31.2,91.8c-1.2-0.9-1.5-2.5-0.6-3.8l2.7-3.8l4.4,3.1L35,91.1C34.1,92.4,32.4,92.6,31.2,91.8z
				 M55.4,69.5c-0.9,1.2-3.6,3.4-7.5,6.1c-2.4,1.6-4.4,3.6-6.1,6l-2.6,3.6l-4.4-3.1l2.6-3.6c1.7-2.3,2.9-4.9,3.7-7.7
				c1.3-4.6,2.5-7.9,3.4-9.1l24.3-33.8c2.2-3,6.4-3.7,9.4-1.5s3.7,6.4,1.5,9.4L55.4,69.5z"/>
		</g>
		<g>
			<polygon class="st0" points="10,78.5 20.9,84.3 9.1,80.6 			"/>
		</g>
		<g>
			<polygon class="st0" points="15.2,66.7 22.9,79.3 13.3,68 			"/>
		</g>
		<g>
			<polygon class="st0" points="29.6,66.3 28.5,77.6 27.2,66.4 			"/>
		</g>
	</g>
</g>
</svg>
