<?xml version="1.0" encoding="utf-8"?>
<!-- Generator: Adobe Illustrator 25.0.0, SVG Export Plug-In . SVG Version: 6.00 Build 0)  -->
<svg version="1.1" id="圖層_1" xmlns="http://www.w3.org/2000/svg" xmlns:xlink="http://www.w3.org/1999/xlink" x="0px" y="0px"
	 viewBox="0 0 210 117.3" style="enable-background:new 0 0 210 117.3;" xml:space="preserve">
<style type="text/css">
	.st0{fill:#412110;}
	.st1{fill:#412110;stroke:#412110;stroke-width:0.6505;stroke-miterlimit:10;}
	.st2{fill:#412110;stroke:#412110;stroke-width:3.903;stroke-miterlimit:10;}
	.st3{fill:#412110;stroke:#412110;stroke-width:0.9107;stroke-miterlimit:10;}
</style>
<g>
	<path class="st0" d="M78.1,52.3c-1,0-1.8,0.8-1.8,1.8V106h-6.6V73.1c0-1-0.8-1.8-1.8-1.8s-1.8,0.8-1.8,1.8V106h-6.5V54.1
		c0-1-0.8-1.8-1.8-1.8S56,53.1,56,54.1v53.7c0,1,0.8,1.8,1.8,1.8h20.3c1,0,1.8-0.8,1.8-1.8V54.1C79.9,53.1,79.1,52.3,78.1,52.3z"/>
	<path class="st0" d="M77,39.2c5.3-4.8,5.8-13,1.2-18.4c-0.1-0.1-0.1-0.2-0.2-0.2c-4.9-5.5-13.3-6-18.8-1.2
		c-0.4,0.4-0.8,0.7-1.2,1.2c-0.1,0.1-0.1,0.1-0.2,0.2c-4.7,5.5-4.2,13.6,1.1,18.5c-6.1,0.2-11,5.3-11,11.4v26.1c0,1,0.8,1.8,1.8,1.8
		s1.8-0.8,1.8-1.8V50.6c0-4.3,3.5-7.8,7.8-7.8l0,0H61l5.5,8c0.6,0.8,1.7,1,2.5,0.5c0.2-0.1,0.3-0.3,0.5-0.5l5.5-8h1.7
		c4.3,0,7.8,3.5,7.8,7.8v26.1c0,1,0.8,1.8,1.8,1.8s1.8-0.8,1.8-1.8V50.6C87.9,44.5,83.1,39.4,77,39.2z M73.6,21.4
		c-1.8,0.6-3.8,1-5.7,1s-3.9-0.3-5.7-1C65.6,18.9,70.2,18.9,73.6,21.4z M58.1,29.4c0-1.8,0.5-3.6,1.5-5.2c2.6,1.2,5.4,1.8,8.3,1.8
		c2.9,0,5.7-0.6,8.3-1.8c1,1.6,1.5,3.4,1.5,5.2c0,5.4-4.4,9.8-9.8,9.8S58.2,34.8,58.1,29.4L58.1,29.4z M67.9,46.6l-2.6-3.8h5.2
		L67.9,46.6z"/>
	<path class="st0" d="M152,52.2c-1,0-1.8,0.8-1.8,1.8v52h-6.6V73c0-1-0.8-1.8-1.8-1.8S140,72,140,73v32.9h-6.6v-52
		c0-1-0.8-1.8-1.8-1.8s-1.8,0.8-1.8,1.8v53.7c0,1,0.8,1.8,1.8,1.8h20.3c1,0,1.8-0.8,1.8-1.8V54C153.8,53,153,52.2,152,52.2z"/>
	<path class="st0" d="M150.9,39.1c5.3-4.8,5.8-13,1.2-18.5l-0.2-0.2c-4.9-5.5-13.3-6.1-18.8-1.2c-0.4,0.4-0.8,0.8-1.2,1.2
		c-0.1,0.1-0.1,0.1-0.2,0.2c-4.7,5.5-4.1,13.6,1.1,18.5c-6.1,0.2-11,5.2-11,11.4v26.1c0,1,0.8,1.8,1.8,1.8s1.8-0.8,1.8-1.8V50.5
		c0-4.3,3.5-7.8,7.8-7.8h1.7l5.5,8c0.6,0.8,1.7,1,2.5,0.5c0.2-0.1,0.3-0.3,0.5-0.5l5.5-8h1.7c4.3,0,7.8,3.5,7.8,7.8v26.1
		c0,1,0.8,1.8,1.8,1.8s1.8-0.8,1.8-1.8V50.5C161.8,44.4,157,39.3,150.9,39.1z M147.6,21.3c-3.7,1.3-7.7,1.3-11.4,0
		C139.5,18.9,144.1,18.9,147.6,21.3z M132,29.3c0-1.9,0.5-3.7,1.5-5.3c5.3,2.4,11.3,2.4,16.6,0c2.8,4.6,1.4,10.6-3.2,13.5
		s-10.6,1.4-13.5-3.2C132.5,32.8,132,31.1,132,29.3L132,29.3z M141.8,46.6l-2.7-3.8h5.3L141.8,46.6z"/>
	<path class="st0" d="M121.9,22.2c0.3,0.3,0.8,0.5,1.3,0.5s0.9-0.2,1.3-0.5l5.8-5.8c0.7-0.7,0.7-1.8,0-2.5l-5.8-5.8
		c-0.7-0.7-1.9-0.6-2.5,0.1s-0.6,1.7,0,2.4l2.7,2.7H85.2l2.7-2.7c0.7-0.7,0.6-1.9-0.1-2.5c-0.7-0.6-1.7-0.6-2.4,0l-5.8,5.8
		c-0.7,0.7-0.7,1.8,0,2.5l0,0l5.8,5.8c0.7,0.7,1.8,0.7,2.5,0s0.7-1.8,0-2.5l-2.8-2.8h39.5l-2.7,2.7
		C121.2,20.4,121.2,21.5,121.9,22.2z"/>
</g>
</svg>
