<?xml version="1.0" encoding="utf-8"?>
<!-- Generator: Adobe Illustrator 25.0.0, SVG Export Plug-In . SVG Version: 6.00 Build 0)  -->
<svg version="1.1" id="圖層_1" xmlns="http://www.w3.org/2000/svg" xmlns:xlink="http://www.w3.org/1999/xlink" x="0px" y="0px"
	 viewBox="0 0 334.6 148.8" style="enable-background:new 0 0 334.6 148.8;" xml:space="preserve">
<style type="text/css">
	.st0{fill:#412110;}
	.st1{fill:#412110;stroke:#412110;stroke-width:0.6505;stroke-miterlimit:10;}
	.st2{fill:#412110;stroke:#412110;stroke-width:3.903;stroke-miterlimit:10;}
	.st3{fill:#412110;stroke:#412110;stroke-width:0.9107;stroke-miterlimit:10;}
</style>
<g>
	<path class="st0" d="M140.5,68.1c-1,0-1.8,0.8-1.8,1.8v51.9h-6.6V88.9c0-1-0.8-1.8-1.8-1.8s-1.8,0.8-1.8,1.8v32.9H122V69.9
		c0-1-0.8-1.8-1.8-1.8c-1,0-1.8,0.8-1.8,1.8v53.7c0,1,0.8,1.8,1.8,1.8h20.3c1,0,1.8-0.8,1.8-1.8V69.9
		C142.3,68.9,141.5,68.1,140.5,68.1z"/>
	<path class="st0" d="M139.4,55c5.3-4.8,5.8-13,1.2-18.4c-0.1-0.1-0.1-0.2-0.2-0.2c-4.9-5.5-13.3-6-18.8-1.2
		c-0.4,0.4-0.8,0.7-1.2,1.2c-0.1,0.1-0.1,0.1-0.2,0.2c-4.7,5.5-4.2,13.6,1.1,18.5c-6.1,0.2-11,5.3-11,11.4v26.1c0,1,0.8,1.8,1.8,1.8
		s1.8-0.8,1.8-1.8V66.4c0-4.3,3.5-7.8,7.8-7.8c0,0,0,0,0,0h1.7l5.5,8c0.6,0.8,1.7,1,2.5,0.5c0.2-0.1,0.3-0.3,0.5-0.5l5.5-8h1.7
		c4.3,0,7.8,3.5,7.8,7.8v26.1c0,1,0.8,1.8,1.8,1.8s1.8-0.8,1.8-1.8V66.4C150.3,60.3,145.5,55.2,139.4,55z M136,37.2
		c-1.8,0.6-3.8,1-5.7,1c-1.9,0-3.9-0.3-5.7-1C128,34.7,132.6,34.7,136,37.2z M120.5,45.2c0-1.8,0.5-3.6,1.5-5.2
		c2.6,1.2,5.4,1.8,8.3,1.8c2.9,0,5.7-0.6,8.3-1.8c1,1.6,1.5,3.4,1.5,5.2c0,5.4-4.4,9.8-9.8,9.8S120.6,50.6,120.5,45.2L120.5,45.2z
		 M130.3,62.4l-2.6-3.8h5.2L130.3,62.4z"/>
	<path class="st0" d="M214.4,68c-1,0-1.8,0.8-1.8,1.8v52H206V88.8c0-1-0.8-1.8-1.8-1.8c-1,0-1.8,0.8-1.8,1.8v32.9h-6.6v-52
		c0-1-0.8-1.8-1.8-1.8c-1,0-1.8,0.8-1.8,1.8v53.7c0,1,0.8,1.8,1.8,1.8h20.3c1,0,1.8-0.8,1.8-1.8V69.8C216.2,68.8,215.4,68,214.4,68z
		"/>
	<path class="st0" d="M213.3,54.9c5.3-4.8,5.8-13,1.2-18.5l-0.2-0.2c-4.9-5.5-13.3-6.1-18.8-1.2c-0.4,0.4-0.8,0.8-1.2,1.2
		c-0.1,0.1-0.1,0.1-0.2,0.2c-4.7,5.5-4.1,13.6,1.1,18.5c-6.1,0.2-11,5.2-11,11.4v26.1c0,1,0.8,1.8,1.8,1.8s1.8-0.8,1.8-1.8V66.3
		c0-4.3,3.5-7.8,7.8-7.8h1.7l5.5,8c0.6,0.8,1.7,1,2.5,0.5c0.2-0.1,0.3-0.3,0.5-0.5l5.5-8h1.7c4.3,0,7.8,3.5,7.8,7.8v26.1
		c0,1,0.8,1.8,1.8,1.8s1.8-0.8,1.8-1.8V66.3C224.2,60.2,219.4,55.1,213.3,54.9z M210,37.1c-3.7,1.3-7.7,1.3-11.4,0
		C201.9,34.7,206.5,34.7,210,37.1z M194.4,45.1c0-1.9,0.5-3.7,1.5-5.3c5.3,2.4,11.3,2.4,16.6,0c2.8,4.6,1.4,10.6-3.2,13.5
		s-10.6,1.4-13.5-3.2C194.9,48.6,194.4,46.9,194.4,45.1L194.4,45.1z M204.2,62.4l-2.7-3.8h5.3L204.2,62.4z"/>
	<path class="st0" d="M184.3,38c0.3,0.3,0.8,0.5,1.3,0.5c0.5,0,0.9-0.2,1.3-0.5l5.8-5.8c0.7-0.7,0.7-1.8,0-2.5l-5.8-5.8
		c-0.7-0.7-1.9-0.6-2.5,0.1c-0.6,0.7-0.6,1.7,0,2.4l2.7,2.7h-39.5l2.7-2.7c0.7-0.7,0.6-1.9-0.1-2.5c-0.7-0.6-1.7-0.6-2.4,0l-5.8,5.8
		c-0.7,0.7-0.7,1.8,0,2.5c0,0,0,0,0,0l5.8,5.8c0.7,0.7,1.8,0.7,2.5,0c0.7-0.7,0.7-1.8,0-2.5l-2.8-2.8H187l-2.7,2.7
		C183.6,36.2,183.6,37.3,184.3,38z"/>
</g>
</svg>
