<?xml version="1.0" encoding="utf-8"?>
<!-- Generator: Adobe Illustrator 25.0.0, SVG Export Plug-In . SVG Version: 6.00 Build 0)  -->
<svg version="1.1" id="圖層_1" xmlns="http://www.w3.org/2000/svg" xmlns:xlink="http://www.w3.org/1999/xlink" x="0px" y="0px"
	 viewBox="0 0 210 117.3" style="enable-background:new 0 0 210 117.3;" xml:space="preserve">
<style type="text/css">
	.st0{fill:#412110;}
	.st1{fill:#412110;stroke:#412110;stroke-width:0.6505;stroke-miterlimit:10;}
	.st2{fill:#412110;stroke:#412110;stroke-width:3.903;stroke-miterlimit:10;}
	.st3{fill:#412110;stroke:#412110;stroke-width:0.9107;stroke-miterlimit:10;}
</style>
<g>
	<g>
		<path class="st0" d="M89.2,72.9c-0.3-0.9-1.3-1.4-2.2-1.2c0,0-7.4,2.3-10.7,2.7c-3.3,0.4-11,0-11,0c-1-0.1-1.8,0.7-1.9,1.7l0,0
			c0,0.6,0.2,1.1,0.7,1.5c0.3,0.2,0.6,0.3,1,0.4c0.3,0,8.1,0.5,11.7,0s11-2.7,11.3-2.8C89,74.8,89.5,73.8,89.2,72.9z"/>
		<g>
			<path class="st0" d="M100.6,75.1c0.9-1.9,7.6-16.3,6.7-23.5c-0.6-5.1-2.8-7.3-4.5-8.3s-3.7-1.2-5.5-0.4c-2.9,1.2-4.5,4.8-5.2,7
				c-1.7-0.3-3.5-0.7-5.5-1.2c-4.3-1.1-9.2-2.4-13.7-1.8c-4.9,0.6-10.2,3.5-14.4,5.8c-1.2,0.7-2.4,1.3-3.4,1.8c-1.2-2-3.6-5-6.7-5.5
				c-1.9-0.3-3.9,0.4-5.2,1.7c-1.4,1.4-3,4.1-2.4,9.1c0.9,7.4,11.5,20.4,12.3,21.3c1.8,3.6,3.6,6.8,4.5,7.6h0.1
				c4.8,3.8,14.9,5.6,21,4.8c6.1-0.7,15.6-5,19.3-9.8C98.7,82.7,99.7,79.1,100.6,75.1z M98.6,46.1c0.8-0.3,1.7-0.2,2.4,0.2
				c1.4,0.8,2.4,2.9,2.8,5.7c0.3,2.4-0.5,6.1-1.8,9.9c-0.8-4.3-3.2-8.2-6.7-10.8C95.8,49.4,97,46.8,98.6,46.1L98.6,46.1z M44.2,59.3
				c-0.3-2.8,0.1-5,1.3-6.2c0.6-0.6,1.4-0.9,2.3-0.8c1.8,0.3,3.5,2.6,4.4,4.1c-2.8,3.3-4.2,7.7-3.8,12.1v0.1
				C46.3,65.2,44.5,61.7,44.2,59.3z M78.2,90c-5.9,0.7-14.8-1.3-18.4-4.1l0,0c-1.2-1.2-7.3-13.3-7.9-17.8c-0.5-3.9,1.8-9.1,4.4-10.4
				c1.2-0.5,2.5-1.3,3.8-2c4-2.2,8.9-4.8,13.2-5.4C77,49.8,81.4,51,85.7,52c2.1,0.5,4.1,1.1,6,1.3c0.3,0.1,0.5,0.1,0.8,0.2
				c0.1,0,0.2,0.1,0.2,0.1c2.6,1.3,5.6,5.7,5.9,9.3c0.4,4.2-2.5,17.1-3.5,18.6C92.3,85.2,84.1,89.3,78.2,90z"/>
			<path class="st0" d="M87.2,68.5c0.9-0.3,1.5-1.2,1.2-2.2c-0.3-0.9-1.2-1.5-2.2-1.2h-0.1c0,0-7.4,2.3-10.7,2.7c-3.3,0.4-11,0-11,0
				c-1-0.1-1.8,0.7-1.9,1.7s0.7,1.8,1.7,1.9c0.3,0,8.1,0.5,11.7,0S86.9,68.6,87.2,68.5z"/>
			<path class="st0" d="M86.4,61.9c0.9-0.2,1.5-1.2,1.3-2.1s-1.2-1.5-2.1-1.3c-0.1,0-0.1,0-0.2,0.1c0,0-7.4,2.3-10.7,2.7
				c-3.3,0.4-11,0-11,0c-1-0.1-1.8,0.7-1.9,1.7c0,0.6,0.2,1.1,0.7,1.5c0.3,0.2,0.6,0.3,1,0.4c0.3,0,8.1,0.5,11.7,0
				C78.7,64.3,86.1,62,86.4,61.9z"/>
		</g>
	</g>
	<g>
		<path class="st3" d="M125.6,24.3c-0.5,0.5-5.2,5.3-5.2,9.3c0,3.4,2.7,6.1,6.1,6.1c3.4,0,6.1-2.7,6.1-6.1c0-4-4.7-8.8-5.2-9.3
			C126.9,23.9,126.1,23.9,125.6,24.3z M126.5,37.2c-2,0-3.6-1.6-3.6-3.6s2.1-4.9,3.6-6.6c1.5,1.7,3.6,4.5,3.6,6.6
			C130.1,35.6,128.5,37.2,126.5,37.2z"/>
		<path class="st3" d="M168.1,37.2h-6.3v-5.7c0-0.7-0.6-1.3-1.3-1.3H158v-3.8h4.4c3.8,0,6.9-3.1,6.9-6.9c0-0.7-0.6-1.3-1.3-1.3
			h-41.6c-0.7,0-1.3,0.6-1.3,1.3s0.6,1.3,1.3,1.3h18.9v9.5h-2.5c-0.7,0-1.3,0.6-1.3,1.3v5.7h-6.3c-0.7,0-1.3,0.6-1.3,1.3v32.3
			c0,0,0,0,0,0.1v26.9c0,0.7,0.6,1.3,1.3,1.3H168c0.7,0,1.3-0.6,1.3-1.3V38.5C169.4,37.8,168.8,37.2,168.1,37.2z M148,20.8h18.7
			c-0.6,1.9-2.3,3.2-4.2,3.2H148V20.8z M148,26.5h7.6v3.8H148V26.5z M144.2,32.8h15.1v4.4h-15.1V32.8z M166.9,96.5h-30.3V68.1
			c0,0,0,0,0-0.1V39.7h30.3V96.5z"/>
	</g>
</g>
</svg>
