<?xml version="1.0" encoding="utf-8"?>
<!-- Generator: Adobe Illustrator 25.0.0, SVG Export Plug-In . SVG Version: 6.00 Build 0)  -->
<svg version="1.1" id="圖層_1" xmlns="http://www.w3.org/2000/svg" xmlns:xlink="http://www.w3.org/1999/xlink" x="0px" y="0px"
	 viewBox="0 0 334.6 148.8" style="enable-background:new 0 0 334.6 148.8;" xml:space="preserve">
<style type="text/css">
	.st0{fill:#412110;}
	.st1{fill:#412110;stroke:#412110;stroke-width:0.6505;stroke-miterlimit:10;}
	.st2{fill:#412110;stroke:#412110;stroke-width:3.903;stroke-miterlimit:10;}
	.st3{fill:#412110;stroke:#412110;stroke-width:0.9107;stroke-miterlimit:10;}
</style>
<g>
	<g>
		<path class="st0" d="M232.8,85h5.9c-0.1-0.2-0.3-0.4-0.4-0.6c-0.5-0.5-1.2-0.8-1.9-0.8h-1.3C234.1,83.7,233.2,84.2,232.8,85z"/>
		<path class="st0" d="M232.8,85h5.9c-0.1-0.2-0.3-0.4-0.4-0.6c-0.5-0.5-1.2-0.8-1.9-0.8h-1.3C234.1,83.7,233.2,84.2,232.8,85z"/>
		<path class="st0" d="M232.8,90.3h5.9c-0.1-0.2-0.3-0.4-0.4-0.6c-0.5-0.5-1.2-0.8-1.9-0.8h-1.3C234.1,89,233.2,89.5,232.8,90.3z"/>
		<path class="st0" d="M232.8,95.7h5.9c-0.1-0.2-0.3-0.4-0.4-0.6c-0.5-0.5-1.2-0.8-1.9-0.8h-1.3C234.1,94.3,233.2,94.8,232.8,95.7z"
			/>
		<rect x="228.4" y="62.4" class="st0" width="1.3" height="10.7"/>
		<rect x="244.4" y="62.4" class="st0" width="1.3" height="10.7"/>
		<path class="st0" d="M261.7,99.6h-22.3c-0.8,0.8-1.8,1.3-3,1.3h-1.3c-2.2,0-4-1.8-4-4c0-1,0.4-1.9,1-2.7c-1.4-1.5-1.4-3.8,0-5.3
			c-1.1-1.3-1.3-3.1-0.5-4.6c-1.6-1-2.2-2.9-1.6-4.7h-0.2c-2.2,0-4-1.8-4-4h-2.7c-0.7,0-1.3-0.6-1.3-1.3V61c0-0.7,0.6-1.3,1.3-1.3
			h5.3c0.7,0,1.3,0.6,1.3,1.3h20c0.7,0,1.3,0.6,1.3,1.3V73c0,0.7-0.6,1.3-1.3,1.3h-3.9l0.1,2.7c1.3,0.2,2.5,0.9,3.2,2l3.9,5.9h8.6
			c0.7,0,1.3,0.6,1.3,1.3v12C263,99.1,262.4,99.6,261.7,99.6z M244.3,97l-0.4-8h-1c-1,0-2.1-0.2-3-0.7c-0.1,0.3-0.3,0.5-0.5,0.7
			c1.4,1.5,1.4,3.8,0,5.3c0.7,0.7,1,1.7,1,2.7H244.3z M236.8,85h-1.7c-0.7,0-1.3,0.6-1.3,1.3c0,0.7,0.6,1.3,1.3,1.3h1.3
			c0.7,0,1.2-0.5,1.3-1.2C237.3,86,237,85.5,236.8,85z M233.7,91.7c0,0.7,0.6,1.3,1.3,1.3h1.3c0.7,0,1.3-0.6,1.3-1.3
			c0-0.7-0.6-1.3-1.3-1.3h-1.3C234.3,90.3,233.7,90.9,233.7,91.7z M235.1,98.3h1.3c0.7,0,1.3-0.6,1.3-1.3c0-0.7-0.6-1.3-1.3-1.3
			h-1.3c-0.7,0-1.3,0.6-1.3,1.3C233.7,97.7,234.3,98.3,235.1,98.3z M229.7,77h5.5l0-0.8c-0.1-1.1-0.9-1.9-2-1.9h-3.9
			c-0.1,0.1-0.2,0.1-0.2,0.2c-0.6,0.4-0.9,1.2-0.5,1.8C228.8,76.8,229.3,77,229.7,77z M224.4,62.4V73h2.4c0.1-0.1,0.2-0.2,0.3-0.3
			V62.4H224.4z M229.7,71.7h3.5c2.5,0,4.5,1.9,4.7,4.4l0,0.9h5.3l-0.2-3.9c0,0,0,0,0-0.1v-9.3h-13.3V71.7z M248.4,63.7h-2.7v8h2.7
			V63.7z M260.4,87.7h-8c-0.4,0-0.9-0.2-1.1-0.6l-4.3-6.5c-0.4-0.6-1-0.9-1.7-0.9h-11.5c-0.7,0-1.3,0.6-1.3,1.3
			c0,0.7,0.6,1.3,1.3,1.3h4c0.6,0,1.1,0.4,1.3,0.9l0.1,0.4c0.5,1.6,2.1,2.7,3.8,2.7h2.3c0.7,0,1.3,0.6,1.3,1.3L247,97h13.4V87.7z"/>
	</g>
	<g>
		<path class="st1" d="M205,91.4c1.7-5.7,4.5-15.4,4.5-20.5c0-10.3-3.2-27.7-24.3-27.7c-8.7,0-15.2,3.1-19.4,9.2
			c-4.1,6-5,13.3-5,18.5c0,5,2.6,13.2,4.2,18.7c0.6,2,1.1,3.5,1.2,4.2c0,0,0,0,0,0c1,4.5,3.2,10.6,4.2,11.6
			c2.8,2.8,9.7,5.3,14.6,5.3c4.4,0,11.5-2.2,14.6-5.3c1.2-1.2,2.9-5.7,3.9-9.6c0-0.1,0-0.1,0-0.2c0-0.1,0-0.1,0.1-0.2
			c0-0.1,0.1-0.2,0.1-0.4C204.1,94.4,204.5,93,205,91.4z M204,87.2c-0.6-2-1.8-3.8-3.3-5.1c1.9-1,3.7-2,5.5-3.2
			C205.5,81.7,204.7,84.6,204,87.2z M171.9,80.9c-3.7-1.6-7.9-3.8-8.3-4.7c0,0,0-0.1,0-0.1c-0.2-1.2-0.4-2.4-0.6-3.6
			c1,1,2.1,1.9,3.3,2.7c0.5,0.3,1.1,0.1,1.4-0.4c0.1-0.1,0.1-0.2,0.1-0.4c0-0.1,1-5.7,2.7-9.1c1.1-2.3,3.8-5,5.1-6.2
			c1.5,1.5,4.9,4.9,8,6.1c4,1.7,11,2.8,11.3,2.8c0.6,0.1,1.1-0.3,1.2-0.9c0-0.1,0-0.1,0-0.2c-0.1-2-0.5-4-1.2-5.9
			c-0.1-0.2-0.2-0.5-0.3-0.7c2.1,1,4,2.2,5.9,3.6c3,2.5,6.5,8,6.5,10.3c0,0,0,0,0,0c-0.1,0.4-0.1,0.8-0.2,1.2c0,0,0,0.1,0,0.1
			c-0.4,0.9-4.6,3.4-8.4,5.3c-1.1-0.3-2.3-0.8-3.6-1.3c-3-1.2-6.4-2.5-9.6-2.5c-3.5,0-7.5,1.6-10.8,2.9
			C173.5,80.3,172.6,80.6,171.9,80.9L171.9,80.9z M185.2,45.4c17.5,0,21.8,12.5,22.2,23.8c-1.4-2.6-3.3-4.9-5.4-6.8
			c-3.4-2.8-8.9-5.1-9.2-5.2c-0.5-0.2-1.2,0.1-1.4,0.6c-0.1,0.3-0.1,0.6,0.1,0.9c0.6,1,1.1,2.1,1.6,3.2c0.5,1.2,0.8,2.6,0.9,3.9
			c-2.2-0.4-6.8-1.3-9.5-2.5c-3.5-1.5-7.9-6.3-8-6.4c-0.4-0.4-1-0.5-1.5-0.1c-0.2,0.2-4.6,4.1-6.3,7.5c-1.3,2.5-2.1,6.1-2.6,8.1
			c-1.1-0.9-2.6-2.3-3.1-3.8C163.5,60.2,166.9,45.4,185.2,45.4z M164.3,79.4c1.7,1,3.4,1.9,5.2,2.7c-1.4,1.3-2.5,2.9-3.1,4.7
			C165.8,84.7,165,82,164.3,79.4z M198.3,104c-2.5,2.4-8.7,4.7-13.1,4.7c-4.3,0-10.8-2.3-13.1-4.7c-0.7-0.7-2.7-6.4-3.7-10.6
			c0,0,0,0,0-0.1c0-0.1-0.1-0.3-0.1-0.5c-0.2-0.9-0.3-1.7-0.3-2.6c0-2.9,2.2-6.6,4.3-7.3c0.9-0.3,1.9-0.7,2.9-1.1
			c3.1-1.2,6.9-2.7,10-2.7c2.8,0,5.9,1.2,8.8,2.4c1.5,0.6,2.9,1.1,4.2,1.5c2.1,0.6,4.4,4.7,4.3,7.7c-0.1,1.2-0.2,2.3-0.5,3.5
			c-0.1,0.5-0.2,0.8-0.3,1.1l0,0C200.7,99,199.2,103.1,198.3,104z"/>
		<path class="st2" d="M175.7,72.1c-0.6,0-1.1,0.5-1.1,1.1c0,0.6,0.5,1.1,1.1,1.1c0.6,0,1.1-0.5,1.1-1.1
			C176.8,72.6,176.3,72.1,175.7,72.1z"/>
		<path class="st2" d="M194.6,72.1c-0.6,0-1.1,0.5-1.1,1.1c0,0.6,0.5,1.1,1.1,1.1c0.6,0,1.1-0.5,1.1-1.1
			C195.6,72.6,195.2,72.1,194.6,72.1z"/>
		<path class="st1" d="M188.7,87.8c-1.2-0.2-2.3-0.4-3.5-0.4c-1.2,0.1-2.4,0.2-3.5,0.4c-0.6,0.1-1,0.6-1,1.1c0.1,0.6,0.6,1,1.1,1
			l0,0c0.1,0,0.1,0,0.2,0c1-0.2,2.1-0.3,3.2-0.4c1.1,0.1,2.1,0.2,3.2,0.4c0.6,0.1,1.1-0.3,1.2-0.9S189.3,88,188.7,87.8L188.7,87.8z"
			/>
		<path class="st1" d="M188.7,93.5c-1.2-0.2-2.3-0.4-3.5-0.4c-1.2,0.1-2.4,0.2-3.5,0.4c-0.6,0.1-1,0.6-1,1.1c0.1,0.6,0.6,1,1.1,1
			l0,0c0.1,0,0.1,0,0.2,0c1-0.2,2.1-0.3,3.2-0.4c1.1,0.1,2.1,0.2,3.2,0.4c0.6,0.1,1.1-0.3,1.2-0.9S189.3,93.6,188.7,93.5L188.7,93.5
			z"/>
	</g>
	<g>
		<g>
			<path class="st0" d="M138.1,49.5l-4.4-3.1c-0.6-0.4-1.4-0.3-1.9,0.3l-10.2,14.2c-0.4,0.6-0.3,1.4,0.3,1.9l4.4,3.1
				c0.6,0.4,1.4,0.3,1.9-0.3l10.2-14.2C138.8,50.8,138.7,50,138.1,49.5z M124.6,61.4l8.6-12l2.2,1.6l-8.6,12L124.6,61.4z"/>
			<path class="st0" d="M141.7,39.8c-4.2-3-10.1-2.1-13.1,2.2l-24.3,33.8c-1.1,1.5-2.3,4.8-3.8,9.9c-0.7,2.5-1.8,4.8-3.3,6.9
				l-6.9,9.6c-1.7,2.4-1.2,5.8,1.2,7.5c2.4,1.7,5.8,1.2,7.5-1.2l6.9-9.6c1.5-2.1,3.3-3.9,5.5-5.3c4.3-3,7.1-5.3,8.2-6.8l24.3-33.8
				C146.9,48.7,146,42.8,141.7,39.8z M93.2,107.5c-1.2-0.9-1.5-2.5-0.6-3.8l2.7-3.8l4.4,3.1l-2.7,3.8
				C96.1,108.1,94.4,108.3,93.2,107.5z M117.4,85.2c-0.9,1.2-3.6,3.4-7.5,6.1c-2.4,1.6-4.4,3.6-6.1,6l-2.6,3.6l-4.4-3.1l2.6-3.6
				c1.7-2.3,2.9-4.9,3.7-7.7c1.3-4.6,2.5-7.9,3.4-9.1l24.3-33.8c2.2-3,6.4-3.7,9.4-1.5c3,2.2,3.7,6.4,1.5,9.4L117.4,85.2z"/>
		</g>
		<g>
			<polygon class="st0" points="72,94.2 82.9,100 71.1,96.3 			"/>
		</g>
		<g>
			<polygon class="st0" points="77.2,82.4 84.9,95 75.3,83.7 			"/>
		</g>
		<g>
			<polygon class="st0" points="91.6,82 90.5,93.3 89.2,82.1 			"/>
		</g>
	</g>
</g>
</svg>
