<?xml version="1.0" encoding="utf-8"?>
<!-- Generator: Adobe Illustrator 25.0.0, SVG Export Plug-In . SVG Version: 6.00 Build 0)  -->
<svg version="1.1" id="圖層_1" xmlns="http://www.w3.org/2000/svg" xmlns:xlink="http://www.w3.org/1999/xlink" x="0px" y="0px"
	 viewBox="0 0 334.6 148.8" style="enable-background:new 0 0 334.6 148.8;" xml:space="preserve">
<style type="text/css">
	.st0{fill:#412110;}
	.st1{fill:#412110;stroke:#412110;stroke-width:0.6505;stroke-miterlimit:10;}
	.st2{fill:#412110;stroke:#412110;stroke-width:3.903;stroke-miterlimit:10;}
	.st3{fill:#412110;stroke:#412110;stroke-width:0.9107;stroke-miterlimit:10;}
</style>
<g>
	<path class="st0" d="M212.5,106.7c-0.5-0.7-1.1-1.3-1.9-1.7c0.2-0.3,0.4-0.6,0.5-1c0.9-2.8-1.3-4.2-2.9-5.2l-0.3-0.2
		c-2-1-4-1.9-6-2.7c0.6-0.6,1-1.3,1.1-2.1c0.1-0.6,0-1.2-0.2-1.8c0.7-0.3,1.4-0.8,1.9-1.4c0.7-1,1.1-2.2,0.8-3.4
		c-0.1-0.9-0.6-1.7-1.4-2.3c-0.7-0.5-1.6-0.8-2.4-0.9c0.1-0.4,0.1-0.7,0.1-1.1c-0.2-2.9-2.7-3.4-4.6-3.8l-0.4-0.1
		c-1.4-0.3-8.8-0.3-11.2-0.3l0.5-0.5c2.2-2.2,3.1-5.1,2.4-7.6c-0.3-1.4-1.2-2.5-2.6-2.9l0,0c-2.4-0.6-4.5,1.6-5.9,3.1
		c-0.3,0.3-0.6,0.7-0.8,0.8l0,0c-0.3,0.2-1.1,0.7-2.7,1.8c-2.7,1.8-6.6,4.4-9.1,5.9c-2.1,0-4.4-0.1-5.8-0.1l-1-0.3
		c1.8-1.9,4.6-5.1,6.2-8.2c1.4-2.8,1.4-5.8,0-8c-0.7-1.2-1.9-2-3.3-2c-2.3,0.1-4,2.5-5.7,5c-0.2,0.3-0.5,0.7-0.5,0.8
		c-0.2,0.2-1.2,0.9-2.1,1.6c-2.5,1.8-6.3,4.5-8.4,6.9c-0.7,0.8-3.2,3.5-5.4,5.9c-1.8,1.9-3.3,3.6-3.7,4s-1,1.1-1.8,1.9
		c-0.9,0.9-1.7,1.8-2.3,2.4c-1,0.6-6.2,1.7-10.5,2.5c-0.8,0.1-1.3,0.8-1.3,1.6c0.1,0.8,0.8,1.3,1.6,1.3c0,0,0.1,0,0.1,0
		c7.1-1.2,11.2-2.3,12.1-3.3c0.5-0.6,1.4-1.5,2.3-2.4c0.8-0.8,1.5-1.5,1.9-2s1.9-2.1,3.6-4c2.2-2.4,4.7-5.1,5.4-5.9
		c1.8-2.1,5.5-4.7,7.9-6.4c0.9-0.6,1.8-1.2,2.6-2c0.3-0.4,0.5-0.7,0.8-1.1c0.6-0.9,2.4-3.7,3.4-3.7c0.5,0.2,0.8,0.6,1,1.1
		c0.3,0.6,0.9,2.3-0.3,4.8c-1.8,3.5-5.5,7.3-6.9,8.7c-2.5-0.5-4.1-0.4-4.9,0.3c-0.6,0.6-0.5,1.5,0,2c0.5,0.5,1.2,0.5,1.8,0.2
		c0.2,0,1-0.1,3.2,0.4l3.6,0.9c0.1,0,0.2,0,0.3,0c0.9,0,9,0.2,10.5,0.1c0.8,0,4.4-0.1,7.6-0.2l2.4-0.1h0.1c0.1,0,0.2,0,0.2,0
		l2.8-0.1c1.2-0.1,10.1,0,11.2,0.2l0.4,0.1c2,0.4,2.3,0.6,2.3,1.2c0,0.4-0.2,0.8-0.5,1l-28.8,3.3c-0.8,0-1.4,0.7-1.3,1.5
		s0.7,1.4,1.5,1.3h0.2l29.1-3.4h0.1c0.7-0.1,2.5-0.2,3.3,0.3c0.1,0.1,0.2,0.2,0.2,0.4c0.1,0.4,0,0.9-0.2,1.2
		c-0.6,0.5-1.3,0.9-2.1,0.9h-0.1l-29.5,5.2c-0.8,0.1-1.4,0.8-1.3,1.6s0.8,1.4,1.6,1.3h0.2l28.8-5.1c0.2,0.3,0.2,0.6,0.2,0.9
		c0,0.2-0.7,1.2-3.1,2c-2.5,0.8-7.1,1.9-7.3,2l0,0l-21.2,4.6c-0.8,0.1-1.4,0.8-1.3,1.6s0.8,1.4,1.6,1.3c0.1,0,0.2,0,0.3,0l21.1-4.5
		c0.2,0,0.4,0.2,0.5,0.4c0.1,0.5-0.9,1.2-1.9,1.5c-0.5,0.2-1.5,0.5-2.8,1c-1.1,0.4-2.6,1-4.1,1.5c-0.1,0-0.2,0.1-0.3,0.1
		c-1.3,0.5-2.7,0.9-4.2,1.2c-1.7,0.1-4.1,1-7,2.1c-1.5,0.6-3,1.1-4.4,1.6c-2.2,0.6-4.4,1.1-6.7,1.5h-0.2c-4.4,0.8-9.3,1.3-11.7,1.1
		c-4.5-0.4-7.1,0-13.8,2.1c-7.3,2.2-10.5,2.7-10.6,2.7c-0.8,0.1-1.4,0.7-1.3,1.5c0.1,0.8,0.7,1.4,1.5,1.3h0.2
		c0.1,0,3.5-0.5,11.1-2.9c6.7-2.1,8.8-2.4,12.7-2c2.6,0.2,7.6-0.3,12.1-1.1c2.8,1.2,5.6,2,8.6,2.5c1.4,0.3,2.7,0.6,3.9,0.9
		c4.9,1.3,19.8,2.5,20,2.5c0.2,0,0.5,0,0.7,0c2.6,0,4.4-1.2,4.7-3.2c0-0.2,0-0.3,0-0.5c1.6,0.2,3.5,0.4,4.9,0.5
		c3.2,0.1,5.5-0.7,6.3-2.3c0.3-0.6,0.4-1.2,0.4-1.8c0.8,0,1.6-0.2,2.3-0.6c1.1-0.6,1.8-1.7,2-2.9C213.2,108.4,213,107.4,212.5,106.7
		z M179.2,78.8l-6.6,0.2c1.8-1.2,3.7-2.5,5.2-3.5c1.3-0.8,2.3-1.6,2.6-1.7l0,0c0.5-0.3,0.9-0.7,1.3-1.2c0.7-0.7,2.4-2.4,3.2-2.3
		c0.4,0.3,0.6,0.8,0.6,1.3c0.1,0.7,0.2,2.5-1.8,4.4c-1.4,1.4-2.1,2.1-2.5,2.6c0,0-0.1,0.1-0.1,0.1L179.2,78.8z M197.8,98.1
		c0.4-0.1,0.7-0.3,1.1-0.4c1.7,0.7,6.5,2.6,7.4,3.2l0.4,0.2c1.7,1.1,1.9,1.4,1.7,1.9c-0.1,0.4-0.4,0.6-0.8,0.7l-14.3-3.8
		c0,0,0,0,0,0c0-0.2-0.1-0.3-0.2-0.5C194.6,99.1,196.5,98.6,197.8,98.1z M191.8,117.2c-3.8-0.3-15.6-1.4-19.5-2.4
		c-1.3-0.4-2.7-0.7-4.1-0.9c-1.3-0.3-2.5-0.5-3.7-0.9c0.8-0.2,1.5-0.4,2.1-0.6c0.9-0.3,1.9-0.6,2.8-1l24.4,4.5
		c0.2,0.1,0.3,0.3,0.3,0.6C194.1,117.1,192.9,117.3,191.8,117.2z M205.7,113.3c-0.1,0.2-1.1,0.8-3.6,0.7c-2.6-0.1-7.3-0.8-7.5-0.9
		l-19.8-3.7c0.9-0.3,1.8-0.5,2.7-0.7c1.6-0.2,3.2-0.7,4.7-1.3l23.7,4.9C205.8,112.7,205.8,113,205.7,113.3L205.7,113.3z
		 M210.2,108.6c-0.1,0.4-0.3,0.8-0.7,1c-0.7,0.3-1.5,0.3-2.3,0.1h0h-0.1l-19.9-4.1c1-0.4,1.8-0.7,2.1-0.8c1.3-0.3,2.4-1.1,3.3-2.1
		l14.5,3.9h0.1c0.7,0.2,2.4,0.8,2.9,1.5C210.2,108.3,210.2,108.5,210.2,108.6L210.2,108.6z"/>
	<path class="st0" d="M176.6,38.7h35c0.8,0,1.4-0.6,1.4-1.4v-2.1c0-0.8-0.6-1.4-1.4-1.4c-0.8,0-1.4,0.6-1.4,1.4v0.7h-3.6v-5.7
		c0-0.8-0.6-1.4-1.4-1.4h-22.6c-0.8,0-1.4,0.6-1.4,1.4s0.6,1.4,1.4,1.4h12.6v4.3h-18.6c-2.7,0-5.7,2.1-5.7,5V48
		c0,0.8,0.6,1.4,1.4,1.4h11.4c0.8,0,1.4-0.6,1.4-1.4v-2.1h25v0.7c0,0.8,0.6,1.4,1.4,1.4c0.8,0,1.4-0.6,1.4-1.4v-2.1
		c0-0.8-0.6-1.4-1.4-1.4h-27.8c-0.8,0-1.4,0.6-1.4,1.4v2.1h-8.6v-5.7C173.8,39.7,175.3,38.7,176.6,38.7z M198.1,31.5h5.7v4.3h-5.7
		V31.5z"/>
	<path class="st0" d="M172.3,52.2c-0.8,0-1.4,0.6-1.4,1.4v17.1c0,0.8,0.6,1.4,1.4,1.4c0.8,0,1.4-0.6,1.4-1.4V53.7
		C173.8,52.9,173.1,52.2,172.3,52.2z"/>
	<path class="st0" d="M178.1,52.2c-0.8,0-1.4,0.6-1.4,1.4v12.9c0,0.8,0.6,1.4,1.4,1.4c0.8,0,1.4-0.6,1.4-1.4V53.7
		C179.5,52.9,178.9,52.2,178.1,52.2z"/>
	<path class="st0" d="M183.8,52.2c-0.8,0-1.4,0.6-1.4,1.4v10c0,0.8,0.6,1.4,1.4,1.4c0.8,0,1.4-0.6,1.4-1.4v-10
		C185.2,52.9,184.6,52.2,183.8,52.2z"/>
</g>
</svg>
