<?xml version="1.0" encoding="utf-8"?>
<!-- Generator: Adobe Illustrator 25.0.0, SVG Export Plug-In . SVG Version: 6.00 Build 0)  -->
<svg version="1.1" id="圖層_1" xmlns="http://www.w3.org/2000/svg" xmlns:xlink="http://www.w3.org/1999/xlink" x="0px" y="0px"
	 viewBox="0 0 334.6 148.8" style="enable-background:new 0 0 334.6 148.8;" xml:space="preserve">
<style type="text/css">
	.st0{fill:#412110;}
	.st1{fill:#412110;stroke:#412110;stroke-width:0.6505;stroke-miterlimit:10;}
	.st2{fill:#412110;stroke:#412110;stroke-width:3.903;stroke-miterlimit:10;}
	.st3{fill:#412110;stroke:#412110;stroke-width:0.9107;stroke-miterlimit:10;}
</style>
<g>
	<g>
		<path class="st0" d="M151.5,88.6c-0.3-0.9-1.3-1.4-2.2-1.2c0,0-7.4,2.3-10.7,2.7c-3.3,0.4-11,0-11,0c-1-0.1-1.8,0.7-1.9,1.7
			c0,0,0,0,0,0c0,0.6,0.2,1.1,0.7,1.5c0.3,0.2,0.6,0.3,1,0.4c0.3,0,8.1,0.5,11.7,0s11-2.7,11.3-2.8
			C151.3,90.5,151.8,89.5,151.5,88.6z"/>
		<g>
			<path class="st0" d="M162.9,90.8c0.9-1.9,7.6-16.3,6.7-23.5c-0.6-5.1-2.8-7.3-4.5-8.3c-1.7-1-3.7-1.2-5.5-0.4
				c-2.9,1.2-4.5,4.8-5.2,7c-1.7-0.3-3.5-0.7-5.5-1.2c-4.3-1.1-9.2-2.4-13.7-1.8c-4.9,0.6-10.2,3.5-14.4,5.8
				c-1.2,0.7-2.4,1.3-3.4,1.8c-1.2-2-3.6-5-6.7-5.5c-1.9-0.3-3.9,0.4-5.2,1.7c-1.4,1.4-3,4.1-2.4,9.1c0.9,7.4,11.5,20.4,12.3,21.3
				c1.8,3.6,3.6,6.8,4.5,7.6l0.1,0c4.8,3.8,14.9,5.6,21,4.8c6.1-0.7,15.6-5,19.3-9.8C161,98.4,162,94.8,162.9,90.8z M160.9,61.8
				c0.8-0.3,1.7-0.2,2.4,0.2c1.4,0.8,2.4,2.9,2.8,5.7c0.3,2.4-0.5,6.1-1.8,9.9c-0.8-4.3-3.2-8.2-6.7-10.8
				C158.1,65.1,159.3,62.5,160.9,61.8L160.9,61.8z M106.5,75c-0.3-2.8,0.1-5,1.3-6.2c0.6-0.6,1.4-0.9,2.3-0.8
				c1.8,0.3,3.5,2.6,4.4,4.1c-2.8,3.3-4.2,7.7-3.8,12.1c0,0,0,0.1,0,0.1C108.6,80.9,106.8,77.4,106.5,75z M140.5,105.7
				c-5.9,0.7-14.8-1.3-18.4-4.1l0,0c-1.2-1.2-7.3-13.3-7.9-17.8c-0.5-3.9,1.8-9.1,4.4-10.4c1.2-0.5,2.5-1.3,3.8-2
				c4-2.2,8.9-4.8,13.2-5.4c3.7-0.5,8.1,0.7,12.4,1.7c2.1,0.5,4.1,1.1,6,1.3c0.3,0.1,0.5,0.1,0.8,0.2c0.1,0,0.2,0.1,0.2,0.1
				c2.6,1.3,5.6,5.7,5.9,9.3c0.4,4.2-2.5,17.1-3.5,18.6C154.6,100.9,146.4,105,140.5,105.7z"/>
			<path class="st0" d="M149.5,84.2c0.9-0.3,1.5-1.2,1.2-2.2c-0.3-0.9-1.2-1.5-2.2-1.2c0,0-0.1,0-0.1,0c0,0-7.4,2.3-10.7,2.7
				c-3.3,0.4-11,0-11,0c-1-0.1-1.8,0.7-1.9,1.7c-0.1,1,0.7,1.8,1.7,1.9c0.3,0,8.1,0.5,11.7,0C141.8,86.6,149.2,84.3,149.5,84.2z"/>
			<path class="st0" d="M148.7,77.6c0.9-0.2,1.5-1.2,1.3-2.1c-0.2-0.9-1.2-1.5-2.1-1.3c-0.1,0-0.1,0-0.2,0.1c0,0-7.4,2.3-10.7,2.7
				c-3.3,0.4-11,0-11,0c-1-0.1-1.8,0.7-1.9,1.7c0,0.6,0.2,1.1,0.7,1.5c0.3,0.2,0.6,0.3,1,0.4c0.3,0,8.1,0.5,11.7,0
				C141,80,148.4,77.7,148.7,77.6z"/>
		</g>
	</g>
	<g>
		<path class="st3" d="M187.9,40c-0.5,0.5-5.2,5.3-5.2,9.3c0,3.4,2.7,6.1,6.1,6.1c3.4,0,6.1-2.7,6.1-6.1c0-4-4.7-8.8-5.2-9.3
			C189.2,39.6,188.4,39.6,187.9,40z M188.8,52.9c-2,0-3.6-1.6-3.6-3.6c0-2,2.1-4.9,3.6-6.6c1.5,1.7,3.6,4.5,3.6,6.6
			C192.4,51.3,190.8,52.9,188.8,52.9z"/>
		<path class="st3" d="M230.4,52.9h-6.3v-5.7c0-0.7-0.6-1.3-1.3-1.3h-2.5v-3.8h4.4c3.8,0,6.9-3.1,6.9-6.9c0-0.7-0.6-1.3-1.3-1.3
			h-41.6c-0.7,0-1.3,0.6-1.3,1.3c0,0.7,0.6,1.3,1.3,1.3h18.9V46h-2.5c-0.7,0-1.3,0.6-1.3,1.3v5.7h-6.3c-0.7,0-1.3,0.6-1.3,1.3
			l0,32.3c0,0,0,0,0,0.1v26.9c0,0.7,0.6,1.3,1.3,1.3h32.8c0.7,0,1.3-0.6,1.3-1.3V54.2C231.7,53.5,231.1,52.9,230.4,52.9z
			 M210.3,36.5H229c-0.6,1.9-2.3,3.2-4.2,3.2h-14.5V36.5z M210.3,42.2h7.6V46h-7.6V42.2z M206.5,48.5h15.1v4.4h-15.1V48.5z
			 M229.2,112.2h-30.3V83.8c0,0,0,0,0-0.1l0-28.3h30.3V112.2z"/>
	</g>
</g>
</svg>
