<svg xmlns="http://www.w3.org/2000/svg" width="1144" height="195" fill="none"><path fill="#000" d="M0 12.411c0-6.627 5.373-12 12-12h1120c6.63 0 12 5.373 12 12v170c0 6.628-5.37 12-12 12H12c-6.627 0-12-5.372-12-12v-170Z"/><path fill="#F2F7FA" d="M0 12.411c0-6.627 5.373-12 12-12h178v66H0v-54Z"/><path fill="#fff" d="M190 .411h1v-1h-1v1Zm0 66v1h1v-1h-1Zm-190 0h-1v1h1v-1Zm12-66v1h178v-2H12v1Zm178 0h-1v66h2v-66h-1Zm0 66v-1H0v2h190v-1Zm-190 0h1v-54h-2v54h1Zm12-66v-1c-7.18 0-13 5.82-13 13h2c0-6.075 4.925-11 11-11v-1Z"/><path fill="#2A2A2A" d="m25.344 34.26 1.04-.705c.203.17.416.373.64.608.224.224.395.427.512.608l-1.088.784a3.557 3.557 0 0 0-.48-.64 9.396 9.396 0 0 0-.624-.656Zm-4.672.895h7.088v1.584h-7.088v-1.584Zm-.016-5.936h7.04v1.52h-7.04v-1.52Zm5.392-2.752 1.584.4c-.203.384-.395.758-.576 1.12a13.78 13.78 0 0 1-.512.944l-1.232-.384c.128-.31.261-.656.4-1.04.15-.395.261-.741.336-1.04Zm-2.624-.544h1.664v7.616h-1.664v-7.616Zm-2.544.944 1.28-.48c.192.299.373.63.544.992.17.363.283.677.336.944l-1.376.528a4.368 4.368 0 0 0-.288-.944 8.544 8.544 0 0 0-.496-1.04Zm2.624 11.296.992-1.168c.32.17.667.373 1.04.608.384.224.752.448 1.104.672.352.224.64.427.864.608l-1.04 1.312a9.944 9.944 0 0 0-.832-.656c-.341-.235-.699-.47-1.072-.704-.373-.245-.725-.47-1.056-.672Zm2.4-7.056c.107.053.256.15.448.288.203.139.41.288.624.448.224.15.427.293.608.432.192.139.33.24.416.304l-1.024 1.216a7.277 7.277 0 0 0-.432-.464 13.43 13.43 0 0 0-.56-.56 25.963 25.963 0 0 0-.56-.544c-.17-.17-.325-.31-.464-.416l.944-.704Zm-3.744-.048 1.168.4a8.18 8.18 0 0 1-.832 1.552c-.341.523-.71.939-1.104 1.248a5.58 5.58 0 0 0-.512-.64 3.481 3.481 0 0 0-.592-.56c.245-.15.485-.33.72-.544.245-.213.47-.448.672-.704.203-.256.363-.506.48-.752Zm5.632-4.608h7.584v1.632h-7.584v-1.632ZM30 32.883v.992h3.088v-.992H30Zm0 2.304v1.008h3.088v-1.008H30Zm0-4.608v.976h3.088v-.976H30Zm-1.728-1.44h6.624v8.48h-6.624v-8.48Zm2.272-1.792 2.096.256c-.17.49-.352.97-.544 1.44a36.08 36.08 0 0 1-.496 1.2L30 29.94a14.275 14.275 0 0 0 .416-1.744c.053-.31.096-.592.128-.848ZM29.808 37.7l1.568.992a6.479 6.479 0 0 1-.864.832 8.37 8.37 0 0 1-1.056.784c-.363.245-.72.453-1.072.624a8.998 8.998 0 0 0-.576-.624 14.322 14.322 0 0 0-.656-.592c.33-.15.661-.336.992-.56.341-.235.656-.48.944-.736a5.7 5.7 0 0 0 .72-.72Zm1.936.976 1.344-.944c.299.192.613.416.944.672.341.256.667.507.976.752.31.245.565.47.768.672l-1.456 1.04a7.721 7.721 0 0 0-.72-.688 28.95 28.95 0 0 0-1.856-1.504Zm-8.448-4.816h1.648v1.696c0 .448-.043.907-.128 1.376-.085.47-.25.934-.496 1.392-.245.459-.613.89-1.104 1.296-.48.416-1.12.79-1.92 1.12a2.301 2.301 0 0 0-.256-.464 7.357 7.357 0 0 0-.352-.512 3.481 3.481 0 0 0-.368-.4c.672-.256 1.2-.538 1.584-.848.395-.32.693-.65.896-.992.203-.341.336-.683.4-1.024a5.38 5.38 0 0 0 .096-.992V33.86Zm14.144-7.472h7.312v1.68H37.44v-1.68Zm-.544 3.36h8.208v1.696h-8.208v-1.696Zm-.16 8.8h14.48v1.776h-14.48v-1.776Zm1.632-3.024h11.248v1.744H38.368v-1.744Zm3.456-8.48h1.792v7.488h-1.792v-7.488Zm1.184 7.216h1.968v5.6h-1.968v-5.6Zm2.768-7.52h1.76v5.44h-1.76v-5.44Zm2.928-.736h1.824v6.864c0 .438-.053.779-.16 1.024-.096.245-.293.443-.592.592a3.38 3.38 0 0 1-1.072.24c-.416.032-.907.048-1.472.048a4.03 4.03 0 0 0-.224-.848 4.435 4.435 0 0 0-.352-.832c.363.01.715.016 1.056.016.352 0 .581-.005.688-.016.128 0 .208-.016.24-.048.043-.032.064-.101.064-.208v-6.832Zm-10 1.056h1.76v2.864c0 .576-.07 1.179-.208 1.808a4.91 4.91 0 0 1-.768 1.792c-.384.555-.944 1.035-1.68 1.44a3.625 3.625 0 0 0-.368-.448c-.15-.17-.31-.341-.48-.512a4.107 4.107 0 0 0-.4-.384c.65-.341 1.125-.715 1.424-1.12a3.26 3.26 0 0 0 .576-1.296 6.48 6.48 0 0 0 .144-1.328V27.06Z"/><path fill="#F2F7FA" d="M190 .411h478v66H190v-66Z"/><path fill="#fff" d="M668 .411h1v-1h-1v1Zm0 66v1h1v-1h-1Zm-478-66v1h478v-2H190v1Zm478 0h-1v66h2v-66h-1Zm0 66v-1H190v2h478v-1Z"/><path fill="#2A2A2A" d="M219.136 30.827v1.696h3.456v-1.696h-3.456Zm-1.76-1.632h7.088v4.976h-7.088v-4.976Zm3.712 4.496h1.808v3.84c0 .224.016.368.048.432.032.053.107.08.224.08h.592c.085 0 .149-.048.192-.144.053-.096.091-.282.112-.56.032-.288.053-.725.064-1.312.117.096.267.192.448.288a5.78 5.78 0 0 0 1.152.432c-.043.79-.133 1.398-.272 1.824-.128.438-.315.736-.56.896-.235.17-.549.256-.944.256h-1.104c-.48 0-.848-.07-1.104-.208-.256-.139-.432-.368-.528-.688-.085-.31-.128-.736-.128-1.28v-3.856Zm-2.688.24h1.888a13.128 13.128 0 0 1-.256 1.936 6.262 6.262 0 0 1-.56 1.632 4.4 4.4 0 0 1-1.072 1.344c-.448.395-1.035.741-1.76 1.04a2.943 2.943 0 0 0-.288-.528 17.265 17.265 0 0 0-.4-.544 2.864 2.864 0 0 0-.416-.448c.608-.213 1.093-.464 1.456-.752.363-.298.64-.63.832-.992.192-.373.325-.779.4-1.216.085-.448.144-.938.176-1.472Zm.464-8.672h3.872v1.728h-3.872V25.26Zm-1.12 1.424 1.872.48a18.21 18.21 0 0 1-.976 2 7.573 7.573 0 0 1-1.248 1.696 6.624 6.624 0 0 0-.72-.544 8.367 8.367 0 0 0-.752-.48 6.47 6.47 0 0 0 1.088-1.488 9.044 9.044 0 0 0 .736-1.664Zm3.536-1.424h1.984c.16.512.368 1.024.624 1.536.256.502.544.976.864 1.424.32.448.651.827.992 1.136-.16.096-.347.213-.56.352-.203.139-.4.288-.592.448a5.2 5.2 0 0 0-.48.416 10.361 10.361 0 0 1-1.424-2.048 16.04 16.04 0 0 1-1.056-2.384h-.352v-.88Zm-10.048 4.464h4.832v1.456h-4.832v-1.456Zm.064-4.4h4.736v1.44h-4.736v-1.44Zm-.064 6.592h4.832v1.44h-4.832v-1.44Zm-.752-4.448h6.112v1.52h-6.112v-1.52Zm1.584 6.656h4.032v4.88h-4.032v-1.52h2.384v-1.84h-2.384v-1.52Zm-.864 0h1.616v5.504H211.2v-5.504Zm16.736-8.432h4.608v9.824h-4.608v-1.744h2.832v-6.336h-2.832v-1.744Zm.032 4h3.488v1.712h-3.488v-1.712Zm6.832-4.224h4.896v1.776H234.8v-1.776Zm0 3.808h4.896v1.728H234.8v-1.728Zm-.032 3.792h4.912v1.728h-4.912v-1.728Zm-7.84-7.376h1.776v11.216h-1.776V25.691Zm12.064-.224h1.904v12.176c0 .502-.064.89-.192 1.168-.117.288-.336.512-.656.672-.32.15-.715.245-1.184.288-.469.043-1.04.064-1.712.064a4.852 4.852 0 0 0-.16-.624 5.637 5.637 0 0 0-.24-.672 3.89 3.89 0 0 0-.272-.56l.864.032h.768c.235-.01.395-.016.48-.016.149 0 .251-.026.304-.08.064-.053.096-.15.096-.288v-12.16Zm-5.344 0h1.888v5.808c0 .683-.043 1.419-.128 2.208-.085.79-.245 1.579-.48 2.368a8.765 8.765 0 0 1-1.008 2.24 7.012 7.012 0 0 1-1.776 1.872 3.71 3.71 0 0 0-.416-.448c-.171-.16-.352-.32-.544-.48a2.405 2.405 0 0 0-.496-.352c.683-.501 1.221-1.05 1.616-1.648a7.195 7.195 0 0 0 .88-1.888 9.954 9.954 0 0 0 .368-1.984c.064-.661.096-1.296.096-1.904v-5.792Z"/><path fill="#F2F7FA" d="M668 .411h238v66H668v-66Z"/><path fill="#fff" d="M906 .411h1v-1h-1v1Zm0 66v1h1v-1h-1Zm-238-66v1h238v-2H668v1Zm238 0h-1v66h2v-66h-1Zm0 66v-1H668v2h238v-1Z"/><path fill="#F2F7FA" d="M906 .411h226c6.63 0 12 5.373 12 12v54H906v-66Z"/><path fill="#fff" d="M906-.589h226c7.18 0 13 5.82 13 13h-2c0-6.075-4.92-11-11-11H906v-2Zm239 68H906v-2h237l2 2Zm-239-1v-66 66Zm226-67c7.18 0 13 5.82 13 13v55l-2-2v-53c0-6.075-4.92-11-11-11v-2Z"/><path fill="#2A2A2A" d="M930.976 25.515h5.696v1.68h-5.696v-1.68Zm1.616 3.408h2.72v1.664h-3.232l.512-1.664Zm-.976 4.416.816-1.44c.213.139.432.299.656.48.235.181.453.363.656.544.203.17.363.33.48.48l-.848 1.6a3.212 3.212 0 0 0-.464-.528c-.203-.203-.416-.4-.64-.592a9.39 9.39 0 0 0-.656-.544Zm4.944-6.656h1.696v9.36h-1.696v-9.36Zm2.688-1.552h1.792v12.544c0 .502-.059.89-.176 1.168-.107.277-.309.49-.608.64-.288.15-.661.25-1.12.304-.448.053-.992.08-1.632.08a5.594 5.594 0 0 0-.224-.944 6.348 6.348 0 0 0-.352-.944c.427.022.827.038 1.2.048.384 0 .64-.005.768-.016.128-.01.219-.037.272-.08.053-.053.08-.144.08-.272V25.131Zm-7.088.992 1.824.24a41.85 41.85 0 0 1-.432 2.288c-.16.779-.363 1.547-.608 2.304a13.942 13.942 0 0 1-.864 2.128 9.11 9.11 0 0 1-1.168 1.792 3.058 3.058 0 0 0-.32-.464 6.104 6.104 0 0 0-.416-.496 4.849 4.849 0 0 0-.384-.4c.363-.448.677-.965.944-1.552a11.83 11.83 0 0 0 .688-1.904 19.53 19.53 0 0 0 .464-2.016c.117-.672.208-1.312.272-1.92Zm2.432 2.8h.352l.304-.048 1.104.32c-.288 2.603-.843 4.806-1.664 6.608-.811 1.792-1.835 3.142-3.072 4.048a3.231 3.231 0 0 0-.336-.512 7.451 7.451 0 0 0-.448-.56 2.817 2.817 0 0 0-.416-.4c1.163-.79 2.096-1.947 2.8-3.472.704-1.536 1.163-3.408 1.376-5.616v-.368Zm-5.232-4.08 1.776.528a27.205 27.205 0 0 1-1.088 2.816 26.548 26.548 0 0 1-1.376 2.688 14.61 14.61 0 0 1-1.568 2.224 5.191 5.191 0 0 0-.224-.624 13.278 13.278 0 0 0-.688-1.456 14.32 14.32 0 0 0 1.232-1.744c.405-.661.773-1.37 1.104-2.128.331-.757.608-1.525.832-2.304Zm-1.28 4.4 1.728-1.728.032.032v12.288h-1.76V29.243Zm14.368 2.576h14.768v1.936h-14.768V31.82Zm6.384-2.544h2.016v8.336c0 .544-.075.966-.224 1.264-.139.299-.405.523-.8.672-.384.15-.853.245-1.408.288-.555.043-1.2.059-1.936.048a3.344 3.344 0 0 0-.192-.656 34.313 34.313 0 0 0-.304-.72 5.273 5.273 0 0 0-.32-.608l1.104.032c.373.01.704.016.992.016h.624c.171 0 .288-.027.352-.08.064-.053.096-.15.096-.288v-8.304Zm-4.704-3.472h10.08v1.888h-10.08v-1.888Zm9.44 0h.512l.448-.112 1.456 1.104a17.566 17.566 0 0 1-1.696 1.568 30.664 30.664 0 0 1-1.968 1.504 19.51 19.51 0 0 1-2 1.216 5.392 5.392 0 0 0-.368-.464 10.07 10.07 0 0 0-.464-.496 8.257 8.257 0 0 0-.432-.432 14.445 14.445 0 0 0 1.744-1.04 17.29 17.29 0 0 0 1.632-1.248c.491-.426.869-.816 1.136-1.168v-.432Z"/><path fill="#fff" d="M0 66.411h190v64H0v-64Z"/><path fill="#fff" d="M190 130.411v1h1v-1h-1Zm-190 0h-1v1h1v-1Zm190-64h-1v64h2v-64h-1Zm0 64v-1H0v2h190v-1Zm-190 0h1v-64h-2v64h1Z"/><path fill="#2A2A2A" d="M27.024 98.587h7.52v.928h-7.52v-.928Zm-.928-6.912h9.264v.992h-9.264v-.992Zm-.08 8.992h9.344v1.008h-9.344v-1.008Zm6.352 1.968.848-.56c.277.245.56.512.848.8.288.288.555.576.8.864.256.277.459.533.608.768l-.896.64a6.509 6.509 0 0 0-.576-.768 15.1 15.1 0 0 0-.8-.896 21.448 21.448 0 0 0-.832-.848Zm-4.752-7.904V96.7h6.288v-1.968h-6.288Zm-1.008-.944h8.352v3.84h-8.352v-3.84Zm3.488 7.328h1.12v3.392c0 .267-.032.48-.096.64-.064.171-.203.299-.416.384a3.096 3.096 0 0 1-.816.144c-.33.021-.747.032-1.248.032a2.364 2.364 0 0 0-.144-.512 7.487 7.487 0 0 0-.224-.496c.395.011.73.016 1.008.016.277.011.464.011.56 0 .107-.011.176-.032.208-.064s.048-.085.048-.16v-3.376Zm-2.224.912.912.512c-.31.48-.699.949-1.168 1.408-.47.459-.95.853-1.44 1.184a3.552 3.552 0 0 0-.352-.368 3.748 3.748 0 0 0-.4-.352c.47-.309.928-.683 1.376-1.12a7.778 7.778 0 0 0 1.072-1.264Zm1.104-9.792h.976v2.128h-.976v-2.128Zm.08 1.968h.88v3.04h-.88v-3.04Zm2.368-1.968h.992v2.128h-.992v-2.128Zm0 1.968h.896v3.04h-.896v-3.04Zm-10.592.24h5.152v1.12h-5.152v-1.12Zm2.24-3.472h1.104v14.704h-1.104V90.971Zm-.032 4.144.752.24a26.66 26.66 0 0 1-.48 1.984 25.9 25.9 0 0 1-.624 2.016 19.969 19.969 0 0 1-.752 1.84 9.564 9.564 0 0 1-.832 1.456 2.268 2.268 0 0 0-.272-.528c-.128-.203-.24-.373-.336-.512.267-.363.528-.795.784-1.296s.496-1.045.72-1.632c.224-.587.427-1.184.608-1.792.181-.619.325-1.21.432-1.776Zm1.056 1.456c.096.107.235.299.416.576.192.267.395.56.608.88.224.32.427.619.608.896.181.267.304.459.368.576l-.656.896c-.096-.203-.23-.459-.4-.768-.16-.31-.336-.63-.528-.96-.192-.33-.373-.635-.544-.912-.17-.288-.31-.512-.416-.672l.544-.512ZM43.6 91.355h1.216v11.888c0 .299.027.528.08.688a.53.53 0 0 0 .304.32c.16.053.39.08.688.08h3.136c.299 0 .517-.08.656-.24.15-.171.256-.469.32-.896.075-.427.128-1.024.16-1.792.15.107.33.213.544.32.224.096.421.16.592.192-.053.875-.15 1.573-.288 2.096-.128.512-.341.88-.64 1.104-.288.224-.715.336-1.28.336h-3.296c-.555 0-.992-.064-1.312-.192a1.212 1.212 0 0 1-.688-.688c-.128-.32-.192-.773-.192-1.36V91.355Zm6.016 2.656.864 1.024c-.533.448-1.136.89-1.808 1.328a39.35 39.35 0 0 1-2.112 1.248c-.725.405-1.44.79-2.144 1.152a2.02 2.02 0 0 0-.224-.464 8.65 8.65 0 0 0-.272-.48A42.27 42.27 0 0 0 46 96.635a32.4 32.4 0 0 0 2-1.312c.63-.458 1.168-.896 1.616-1.312Zm-8.784-2.8 1.168.4a24.171 24.171 0 0 1-3.184 5.264 16.4 16.4 0 0 1-1.936 2.064 1.598 1.598 0 0 0-.192-.384 10.07 10.07 0 0 0-.272-.448 3.952 3.952 0 0 0-.256-.384 14.206 14.206 0 0 0 1.792-1.792 18.153 18.153 0 0 0 1.616-2.24c.49-.81.912-1.637 1.264-2.48Zm-1.84 4.192 1.184-1.184.016.032v11.408h-1.2V95.403Zm14.256-3.776h7.232v1.056h-7.232v-1.056Zm-.528 3.264h8.096v1.072H52.72v-1.072Zm-.32 9.12h14.48v1.12H52.4v-1.12Zm1.664-3.136h11.152v1.104H54.064v-1.104Zm3.792-8.816h1.136v7.344h-1.136V92.06Zm1.264 7.04h1.232v5.68H59.12v-5.68Zm2.688-7.216h1.104v5.36h-1.104v-5.36Zm2.992-.816h1.136v7.168c0 .33-.043.582-.128.752-.075.17-.235.304-.48.4a3.967 3.967 0 0 1-.96.176 26.63 26.63 0 0 1-1.44.032 3.694 3.694 0 0 0-.16-.544 4.019 4.019 0 0 0-.24-.56c.459.01.87.022 1.232.032.363 0 .603-.005.72-.016.128-.01.213-.032.256-.064.043-.043.064-.117.064-.224v-7.152Zm-10.032 1.008h1.104v2.72c0 .555-.064 1.136-.192 1.744a4.998 4.998 0 0 1-.72 1.76c-.352.566-.88 1.067-1.584 1.504a1.178 1.178 0 0 0-.224-.288 4.093 4.093 0 0 0-.304-.304 1.677 1.677 0 0 0-.256-.24c.64-.395 1.11-.827 1.408-1.296.31-.47.512-.954.608-1.456.107-.501.16-.981.16-1.44v-2.704Zm13.808.416h13.84v1.104h-13.84v-1.104Zm6.224-1.52h1.232v2.144H74.8v-2.144Zm-5.552 4.32h12.08v1.056H70.4v9.328h-1.152V95.291Zm11.44 0h1.168v8.912c0 .352-.048.629-.144.832-.096.203-.272.352-.528.448-.267.096-.624.155-1.072.176-.448.021-1.003.032-1.664.032a3.8 3.8 0 0 0-.096-.368 9.5 9.5 0 0 0-.144-.432 2.364 2.364 0 0 0-.176-.368 68.69 68.69 0 0 0 1.44.016c.437.011.725.011.864 0s.23-.043.272-.096c.053-.043.08-.123.08-.24v-8.912Zm-7.408.768h1.104c-.053.704-.181 1.302-.384 1.792s-.539.896-1.008 1.216c-.459.32-1.099.576-1.92.768a1.875 1.875 0 0 0-.24-.448 2.27 2.27 0 0 0-.336-.4c.715-.15 1.264-.346 1.648-.592.395-.245.672-.554.832-.928.16-.373.261-.843.304-1.408Zm2.976.016h1.072v1.856c0 .15.027.246.08.288.053.043.181.064.384.064H79.2c.107 0 .187-.021.24-.064.064-.042.112-.138.144-.288.032-.16.053-.394.064-.704.107.075.25.15.432.224.181.064.347.112.496.144-.053.64-.17 1.072-.352 1.296-.17.213-.47.32-.896.32h-1.664c-.373 0-.661-.037-.864-.112a.735.735 0 0 1-.432-.384c-.075-.181-.112-.437-.112-.768v-1.872Zm-3.76 3.952h1.088v4.928h-1.088v-4.928Zm.656 0h5.44v3.936h-5.44v-.944h4.336v-2.048h-4.336v-.944Zm-1.504-6.448 1.152-.224c.192.299.368.63.528.992.17.363.299.683.384.96l-1.232.288a5.934 5.934 0 0 0-.336-.976c-.16-.384-.325-.73-.496-1.04Zm6.432-.272 1.312.24c-.181.374-.373.742-.576 1.104a10.79 10.79 0 0 1-.544.928l-1.168-.24c.17-.277.347-.608.528-.992a20.4 20.4 0 0 0 .448-1.04Zm10.048-.512v3.04h6.384v-3.04h-6.384ZM86.96 91.66h8.784v5.328H86.96V91.66Zm-2.336 7.04h5.696v6.848h-1.2v-5.712h-3.344v5.856h-1.152V98.7Zm7.456 0h6.016v6.896H96.88v-5.76h-3.648v5.856H92.08V98.7Zm-6.928 4.96h4.464v1.168h-4.464v-1.168Zm7.504 0h4.752v1.168h-4.752v-1.168Z"/><path fill="#fff" d="M190 66.411h478v64H190v-64Z"/><path fill="#fff" d="M668 130.411v1h1v-1h-1Zm0-64h-1v64h2v-64h-1Zm0 64v-1H190v2h478v-1Z"/><path fill="#2A2A2A" d="M211.104 92.491h13.84v1.104h-13.84v-1.104Zm6.224-1.52h1.232v2.144h-1.232v-2.144Zm-5.552 4.32h12.08v1.056h-10.928v9.328h-1.152V95.291Zm11.44 0h1.168v8.912c0 .352-.048.629-.144.832-.096.203-.272.352-.528.448-.267.096-.624.155-1.072.176-.448.021-1.003.032-1.664.032a3.633 3.633 0 0 0-.096-.368 10.925 10.925 0 0 0-.144-.432 2.337 2.337 0 0 0-.176-.368 68.69 68.69 0 0 0 1.44.016c.437.011.725.011.864 0s.229-.043.272-.096c.053-.043.08-.123.08-.24v-8.912Zm-7.408.768h1.104c-.053.704-.181 1.302-.384 1.792s-.539.896-1.008 1.216c-.459.32-1.099.576-1.92.768a1.897 1.897 0 0 0-.24-.448 2.245 2.245 0 0 0-.336-.4c.715-.15 1.264-.346 1.648-.592.395-.245.672-.554.832-.928.16-.373.261-.843.304-1.408Zm2.976.016h1.072v1.856c0 .15.027.246.08.288.053.043.181.064.384.064h1.408c.107 0 .187-.021.24-.064.064-.042.112-.138.144-.288.032-.16.053-.394.064-.704.107.075.251.15.432.224.181.064.347.112.496.144-.053.64-.171 1.072-.352 1.296-.171.213-.469.32-.896.32h-1.664c-.373 0-.661-.037-.864-.112a.733.733 0 0 1-.432-.384c-.075-.181-.112-.437-.112-.768v-1.872Zm-3.76 3.952h1.088v4.928h-1.088v-4.928Zm.656 0h5.44v3.936h-5.44v-.944h4.336v-2.048h-4.336v-.944Zm-1.504-6.448 1.152-.224c.192.299.368.63.528.992.171.363.299.683.384.96l-1.232.288a5.934 5.934 0 0 0-.336-.976c-.16-.384-.325-.73-.496-1.04Zm6.432-.272 1.312.24a21.1 21.1 0 0 1-.576 1.104c-.192.363-.373.672-.544.928l-1.168-.24c.171-.277.347-.608.528-.992a20.4 20.4 0 0 0 .448-1.04Zm10.048-.512v3.04h6.384v-3.04h-6.384Zm-1.168-1.136h8.784v5.328h-8.784V91.66Zm-2.336 7.04h5.696v6.848h-1.2v-5.712h-3.344v5.856h-1.152v-6.992Zm7.456 0h6.016v6.896h-1.216v-5.76h-3.648v5.856h-1.152v-6.992Zm-6.928 4.96h4.464v1.168h-4.464v-1.168Zm7.504 0h4.752v1.168h-4.752v-1.168Zm7.392-11.696h8.24v1.12h-8.24v-1.12Zm-.272 5.264h8.72v1.12h-8.72v-1.12Zm5.808-4.976h1.184v13.424h-1.184V92.251Zm-3.712 0h1.136v5.136c0 1.003-.053 2-.16 2.992a11.296 11.296 0 0 1-.656 2.848c-.331.917-.859 1.771-1.584 2.56a1.477 1.477 0 0 0-.256-.288 10.03 10.03 0 0 0-.336-.288 1.69 1.69 0 0 0-.304-.224c.651-.725 1.125-1.504 1.424-2.336a10.16 10.16 0 0 0 .592-2.576 25.21 25.21 0 0 0 .144-2.688v-5.136Zm10.784-1.024 1.136.464c-.395.49-.848.97-1.36 1.44a17.38 17.38 0 0 1-1.616 1.312 15.21 15.21 0 0 1-1.648 1.056 2.872 2.872 0 0 0-.4-.448 3.765 3.765 0 0 0-.464-.4c.512-.266 1.04-.581 1.584-.944a13.972 13.972 0 0 0 1.536-1.184 9.83 9.83 0 0 0 1.232-1.296Zm.464 4.416 1.088.448c-.405.523-.88 1.035-1.424 1.536-.544.502-1.115.97-1.712 1.408a14.08 14.08 0 0 1-1.744 1.12 4.164 4.164 0 0 0-.384-.432 4.18 4.18 0 0 0-.48-.416 14.39 14.39 0 0 0 1.696-1.008 17.474 17.474 0 0 0 1.648-1.28c.523-.459.96-.917 1.312-1.376Zm.368 4.32 1.12.448a11.94 11.94 0 0 1-1.632 2.096 15.585 15.585 0 0 1-4.48 3.168 4.21 4.21 0 0 0-.384-.496 3.9 3.9 0 0 0-.48-.464c.8-.331 1.568-.736 2.304-1.216a13.373 13.373 0 0 0 2.032-1.632 8.956 8.956 0 0 0 1.52-1.904Zm12.8-8.208.816-.672c.267.181.549.39.848.624.299.224.576.454.832.688.267.224.48.432.64.624l-.832.752a6.803 6.803 0 0 0-.624-.64 9.042 9.042 0 0 0-.816-.72 9.244 9.244 0 0 0-.864-.656Zm-10.464 2.208h14.272v1.168h-14.272v-1.168Zm.56 3.552h7.072v1.168h-7.072v-1.168Zm2.88.624h1.2v5.712h-1.2v-5.712Zm-3.376 5.888 2.256-.448 2.784-.576c.992-.213 1.979-.427 2.96-.64l.096 1.088c-.907.213-1.824.427-2.752.64a399.695 399.695 0 0 1-4.96 1.12l-.384-1.184Zm8.096-12.992h1.28a53.96 53.96 0 0 0 .128 4.24c.107 1.344.256 2.576.448 3.696.203 1.12.443 2.091.72 2.912.288.821.603 1.461.944 1.92.352.448.725.672 1.12.672.224 0 .389-.24.496-.72.107-.48.187-1.253.24-2.32.128.128.293.256.496.384s.389.224.56.288c-.064.928-.165 1.653-.304 2.176-.139.523-.336.891-.592 1.104-.245.224-.576.336-.992.336-.533 0-1.019-.181-1.456-.544-.427-.363-.805-.875-1.136-1.536a13.24 13.24 0 0 1-.864-2.352 26.017 26.017 0 0 1-.608-2.992 53.503 53.503 0 0 1-.352-3.488 71.948 71.948 0 0 1-.128-3.776Zm8.736.912h4.576v9.552h-4.576v-1.12h3.456v-7.328h-3.456v-1.104Zm0 4.16h3.952v1.088h-3.952v-1.088Zm6.768-4.448h5.392v1.12h-5.392v-1.12Zm0 3.888h5.392v1.088h-5.392v-1.088Zm-.112 3.92h5.472v1.088h-5.472v-1.088Zm-7.328-7.52h1.136v11.056h-1.136V91.947Zm12.384-.288h1.184v12.448c0 .373-.053.661-.16.864-.096.213-.272.368-.528.464-.267.096-.624.155-1.072.176-.448.032-1.019.048-1.712.048a1.699 1.699 0 0 0-.096-.384 4.361 4.361 0 0 0-.16-.432 2.337 2.337 0 0 0-.176-.368c.352.011.683.016.992.016.32.011.597.011.832 0h.496c.149 0 .251-.027.304-.08.064-.064.096-.165.096-.304V91.659Zm-5.648 0h1.168v5.712c0 .672-.037 1.387-.112 2.144a12.255 12.255 0 0 1-.448 2.256 8.314 8.314 0 0 1-.976 2.16c-.437.693-1.019 1.317-1.744 1.872a1.697 1.697 0 0 0-.24-.288 10.406 10.406 0 0 0-.336-.32 3.011 3.011 0 0 0-.304-.224c.683-.512 1.221-1.077 1.616-1.696.395-.629.693-1.28.896-1.952a9.553 9.553 0 0 0 .384-2.016c.064-.672.096-1.323.096-1.952V91.66Zm16.16 7.056h6.256v.928h-6.256v-.928Zm0 2.624h6.256v.944h-6.256v-.944Zm.016 2.624h6.992v1.024h-6.992v-1.024Zm-1.84-11.36h8.752v2.752h-1.088v-1.712h-6.608v1.712h-1.056v-2.752Zm4.416 4.192h1.12v7.712h-1.12v-7.712Zm-2.176-.752H304v1.04h-6.112v8.608h-1.136v-8.576l1.04-1.072h.096Zm1.52-5.088 1.136.224c-.448 1.621-1.067 3.083-1.856 4.384-.779 1.302-1.712 2.379-2.8 3.232a2.247 2.247 0 0 0-.24-.272 3.191 3.191 0 0 0-.32-.336 2.855 2.855 0 0 0-.288-.256c1.056-.778 1.947-1.765 2.672-2.96a15.232 15.232 0 0 0 1.696-4.016Zm1.664 3.184 1.12.272c-.192.416-.389.838-.592 1.264-.192.416-.379.773-.56 1.072l-.912-.256c.171-.32.347-.704.528-1.152.181-.459.32-.858.416-1.2Zm-11.104-2.096h5.648v1.12h-5.648v-1.12Zm1.616 4.672h3.6v7.008h-3.6v-1.056h2.56v-4.88h-2.56v-1.072Zm.256-4.144 1.152.176a34.642 34.642 0 0 1-.624 3.264 20.382 20.382 0 0 1-.912 2.928 11.442 11.442 0 0 1-1.264 2.416 5.073 5.073 0 0 0-.192-.336 16.486 16.486 0 0 0-.256-.432 2.16 2.16 0 0 0-.24-.352 9.35 9.35 0 0 0 1.088-2.112c.309-.81.565-1.685.768-2.624.203-.95.363-1.925.48-2.928Zm-.752 4.144h1.008v8.272h-1.008v-8.272Zm16.368 9.408-.352-.848c.651-.267 1.147-.608 1.488-1.024.352-.416.528-.928.528-1.536l-.288-1.344.864 1.216a.93.93 0 0 1-.4.288 1.612 1.612 0 0 1-.448.064c-.331 0-.613-.096-.848-.288-.235-.192-.352-.475-.352-.848 0-.384.117-.672.352-.864a1.36 1.36 0 0 1 .864-.288c.448 0 .784.171 1.008.512.235.331.352.773.352 1.328 0 .864-.251 1.611-.752 2.24-.501.629-1.173 1.093-2.016 1.392Zm15.472-14.336h1.168v4.656c0 .672-.021 1.408-.064 2.208-.043.79-.128 1.595-.256 2.416a15.523 15.523 0 0 1-.544 2.416 9.199 9.199 0 0 1-.96 2.16 1.457 1.457 0 0 0-.288-.208l-.384-.224a1.634 1.634 0 0 0-.352-.16 8.959 8.959 0 0 0 .912-2.032c.224-.736.389-1.488.496-2.256.117-.768.192-1.52.224-2.256a47.69 47.69 0 0 0 .048-2.064v-4.656Zm.752 0h11.376v2.72H323.68v-.864h10.208v-1.008H323.68v-.848Zm5.6 2.976h1.12v2.384h-1.12v-2.384Zm-.896 5.824h1.04v4h-1.04v-4Zm-3.408-5.552h3.408v.624h-3.408v-.624Zm1.456 5.088h8.176v.784h-8.176v-.784Zm-1.488-3.856h3.456v.624h-3.456v-.624Zm6.32-1.232h3.568v.624h-3.568v-.624Zm-.032 1.232h3.648v.624h-3.648v-.624Zm.608 1.872v.8h2.128v-.8h-2.128Zm-3.056 0v.8h2.096v-.8h-2.096Zm-2.96 0v.8h2v-.8h-2Zm-1.008-.624h10.176v2.048h-10.176v-2.048Zm9.408 2.608h1.104l-.016.176c0 .117-.005.213-.016.288a45.311 45.311 0 0 1-.16 2.528c-.064.64-.139 1.125-.224 1.456-.085.331-.187.565-.304.704a.894.894 0 0 1-.368.272 1.297 1.297 0 0 1-.464.112 4.42 4.42 0 0 1-.592.032c-.245 0-.501-.005-.768-.016a2.827 2.827 0 0 0-.08-.464 1.702 1.702 0 0 0-.176-.448c.245.021.464.032.656.032.203.011.352.016.448.016a.779.779 0 0 0 .24-.032.24.24 0 0 0 .16-.112c.075-.096.144-.293.208-.592.075-.309.139-.768.192-1.376a40.88 40.88 0 0 0 .16-2.384v-.192Zm-7.792 1.984v.752h4.992v-.752h-4.992Zm-.928-.608h6.88v1.968h-6.88v-1.968Zm1.264-2.272 1.12.208a10.896 10.896 0 0 1-1.424 1.728 10.888 10.888 0 0 1-2 1.552 3.292 3.292 0 0 0-.384-.384 2.896 2.896 0 0 0-.4-.32 9.022 9.022 0 0 0 1.872-1.328c.523-.501.928-.987 1.216-1.456Zm-2.176 5.072a276.54 276.54 0 0 1 2.128-.064 270.486 270.486 0 0 0 5.248-.192l-.016.752a256.4 256.4 0 0 1-3.904.192c-1.28.064-2.405.117-3.376.16l-.08-.848Zm6.064-.544.72-.384c.288.213.581.464.88.752.299.277.523.528.672.752l-.768.416a6.742 6.742 0 0 0-.656-.768 7.738 7.738 0 0 0-.848-.768Zm8.688-12.784h1.2v14.704h-1.2V90.971Zm-1.472 3.04.912.128c-.032.438-.085.918-.16 1.44a14.515 14.515 0 0 1-.272 1.536c-.107.502-.229.95-.368 1.344l-.944-.32c.149-.362.277-.778.384-1.248.107-.48.197-.97.272-1.472.085-.512.144-.981.176-1.408Zm2.784-.096.848-.368c.245.427.475.896.688 1.408.224.502.379.923.464 1.264l-.896.464a5.948 5.948 0 0 0-.256-.832 17.59 17.59 0 0 0-.4-.992 8.703 8.703 0 0 0-.448-.944Zm3.28-2.208 1.168.192a23.184 23.184 0 0 1-.528 2.288 20.197 20.197 0 0 1-.688 2.096c-.245.65-.517 1.227-.816 1.728a3.131 3.131 0 0 0-.32-.192 4.682 4.682 0 0 0-.4-.208 30.93 30.93 0 0 0-.352-.16 9.18 9.18 0 0 0 .832-1.616 16.6 16.6 0 0 0 .64-1.984c.192-.715.347-1.43.464-2.144Zm0 2.656h7.456v1.152h-7.824l.368-1.152Zm2.592-3.328h1.216v13.584h-1.216V91.035Zm-3.392 7.808h7.904v1.12h-7.904v-1.12Zm-1.2 5.136h9.84v1.136h-9.84v-1.136Zm14.128-8.624h8.864v1.008h-8.864v-1.008Zm3.776-1.84h1.152v5.248h-1.152v-5.248Zm-1.664 5.632v2.304h4.592v-2.304h-4.592Zm-1.072-.944h6.8v4.192h-6.8v-4.192Zm-3.264-6.48h13.2v14h-1.248v-12.88H355.04v12.88h-1.2v-14Zm.672 12.128h11.792v1.12h-11.792v-1.12Zm17.104-7.984h9.344v1.152h-9.344v-1.152Zm4.608 3.824h5.392v1.12h-5.392v-1.12Zm-.624-3.248h1.248v8.112l-1.248-.176v-7.936Zm-3.808 1.936 1.248.144c-.224 1.611-.597 3.024-1.12 4.24-.523 1.216-1.232 2.219-2.128 3.008a2.491 2.491 0 0 0-.288-.272l-.368-.304a7.59 7.59 0 0 0-.336-.24c.885-.693 1.563-1.6 2.032-2.72.48-1.12.8-2.405.96-3.856Zm.768 2.064c.277.821.64 1.483 1.088 1.984a4.65 4.65 0 0 0 1.552 1.152 6.9 6.9 0 0 0 1.936.544c.715.096 1.483.144 2.304.144h3.472c.288 0 .507-.005.656-.016a4.248 4.248 0 0 0-.176.368 7.545 7.545 0 0 0-.176.448 4.036 4.036 0 0 0-.096.4h-3.744c-.949 0-1.829-.064-2.64-.192a7 7 0 0 1-2.176-.672 5.473 5.473 0 0 1-1.712-1.408c-.501-.608-.923-1.397-1.264-2.368l.976-.384Zm3.024-9.472h1.264v2.592h-1.264v-2.592Zm-6.032 1.84h13.376V96.3h-1.232v-2.336h-10.96V96.3h-1.184v-3.488Zm17.024 13.312-.352-.848c.651-.267 1.147-.608 1.488-1.024.352-.416.528-.928.528-1.536l-.288-1.344.864 1.216a.93.93 0 0 1-.4.288 1.612 1.612 0 0 1-.448.064c-.331 0-.613-.096-.848-.288-.235-.192-.352-.475-.352-.848 0-.384.117-.672.352-.864a1.36 1.36 0 0 1 .864-.288c.448 0 .784.171 1.008.512.235.331.352.773.352 1.328 0 .864-.251 1.611-.752 2.24-.501.629-1.173 1.093-2.016 1.392Zm16.304-9.104h9.168v1.168h-9.168V97.02Zm8.752 0h1.248v.368c0 .085-.005.155-.016.208a149.69 149.69 0 0 1-.192 3.184 26.156 26.156 0 0 1-.208 2.16c-.075.576-.16 1.029-.256 1.36-.096.331-.219.571-.368.72a1.27 1.27 0 0 1-.528.416 2.143 2.143 0 0 1-.704.16c-.267.021-.635.027-1.104.016-.459 0-.939-.016-1.44-.048a2.393 2.393 0 0 0-.128-.608 2.024 2.024 0 0 0-.272-.592c.523.043 1.008.069 1.456.08.448.021.768.032.96.032.16 0 .293-.016.4-.048a.633.633 0 0 0 .272-.16c.16-.149.288-.469.384-.96.107-.501.197-1.237.272-2.208.085-.981.16-2.261.224-3.84v-.24Zm-6.56-5.728 1.28.368a18.241 18.241 0 0 1-1.392 2.576 16 16 0 0 1-1.728 2.256 14.407 14.407 0 0 1-1.936 1.792 4.126 4.126 0 0 0-.304-.304 13.158 13.158 0 0 0-.4-.352 5.625 5.625 0 0 0-.336-.288 11.348 11.348 0 0 0 1.936-1.616 14.15 14.15 0 0 0 1.648-2.064c.491-.757.901-1.547 1.232-2.368Zm5.584-.032c.256.534.571 1.083.944 1.648a19.22 19.22 0 0 0 1.216 1.616c.437.512.885.992 1.344 1.44.469.438.923.81 1.36 1.12a7.067 7.067 0 0 0-.736.688 3.6 3.6 0 0 0-.272.368 14.633 14.633 0 0 1-1.36-1.264 25.46 25.46 0 0 1-1.36-1.584 26.329 26.329 0 0 1-1.248-1.76 24.284 24.284 0 0 1-1.04-1.808l1.152-.464Zm-4.4 6.096h1.296a19.957 19.957 0 0 1-.416 2.56 9.436 9.436 0 0 1-.88 2.352c-.395.736-.944 1.403-1.648 2-.693.597-1.6 1.099-2.72 1.504a4.89 4.89 0 0 0-.208-.368 4.365 4.365 0 0 0-.288-.384 2.656 2.656 0 0 0-.288-.304c1.045-.341 1.888-.773 2.528-1.296.651-.533 1.152-1.125 1.504-1.776a7.896 7.896 0 0 0 .768-2.064c.16-.725.277-1.466.352-2.224ZM416.56 99.9h6.816v1.056h-6.816V99.9Zm0-6.08h6.72v.976h-6.72v-.976Zm5.536-2.512 1.024.32-.576 1.056c-.192.341-.373.64-.544.896l-.816-.304c.16-.277.325-.603.496-.976.181-.373.32-.704.416-.992Zm-2.72-.16h1.072v7.072h-1.072v-7.072Zm-2.528.528.848-.336c.203.288.395.608.576.96.181.341.304.64.368.896l-.896.368a4.683 4.683 0 0 0-.352-.928 8.147 8.147 0 0 0-.544-.96Zm2.56 10.544.752-.72c.331.224.688.475 1.072.752.384.277.747.555 1.088.832.352.267.64.507.864.72l-.784.816a11.064 11.064 0 0 0-.832-.736 24.058 24.058 0 0 0-1.088-.864 30.38 30.38 0 0 0-1.072-.8Zm.976-7.232c.149.075.363.203.64.384a36.537 36.537 0 0 1 1.792 1.136c.267.17.459.299.576.384l-.656.88a6.2 6.2 0 0 0-.608-.512 14.048 14.048 0 0 0-.832-.64 19.186 19.186 0 0 0-.848-.624 11.697 11.697 0 0 0-.672-.464l.608-.544Zm-1.088-.64.8.304a9.148 9.148 0 0 1-.848 1.36c-.331.448-.693.864-1.088 1.248a6.935 6.935 0 0 1-1.168.928 3.068 3.068 0 0 0-.336-.416 3.292 3.292 0 0 0-.384-.384 6.187 6.187 0 0 0 1.136-.784c.384-.33.741-.693 1.072-1.088.331-.394.603-.784.816-1.168Zm4.096-2.624h7.6v1.056h-7.6v-1.056Zm1.632 5.936v1.536h4.32V97.66h-4.32Zm0 2.432v1.568h4.32v-1.568h-4.32Zm0-4.864v1.52h4.32v-1.52h-4.32Zm-1.104-.96h6.576v8.336h-6.576v-8.336Zm2.624-2.048 1.312.176c-.139.459-.288.918-.448 1.376-.16.459-.309.859-.448 1.2l-1.024-.208c.075-.235.149-.501.224-.8.085-.31.16-.613.224-.912.075-.31.128-.587.16-.832Zm-1.152 10.688 1.056.608a9.996 9.996 0 0 1-.976.816 9.686 9.686 0 0 1-1.184.752 11.48 11.48 0 0 1-1.2.608 5.926 5.926 0 0 0-.384-.416 3.245 3.245 0 0 0-.416-.384c.395-.16.789-.347 1.184-.56a12.23 12.23 0 0 0 1.104-.704c.341-.256.613-.496.816-.72Zm2.336.688.88-.608c.309.192.635.411.976.656.352.235.683.475.992.72.32.245.581.469.784.672l-.944.656a8.397 8.397 0 0 0-.736-.672 19.084 19.084 0 0 0-.96-.736 15.374 15.374 0 0 0-.992-.688Zm-8.368-5.024h1.088v1.648c0 .437-.043.891-.128 1.36a4.661 4.661 0 0 1-.464 1.376c-.235.459-.587.896-1.056 1.312-.469.416-1.099.8-1.888 1.152a2.473 2.473 0 0 0-.176-.32 24.43 24.43 0 0 0-.24-.336 1.848 1.848 0 0 0-.24-.256c.704-.309 1.264-.64 1.68-.992.416-.352.725-.715.928-1.088.203-.384.336-.763.4-1.136a6.52 6.52 0 0 0 .096-1.104v-1.616Zm19.344 1.264h6.208v.864h-6.208v-.864Zm-1.68-7.84h9.376v.928h-9.376v-.928Zm.384 1.92H446v.88h-8.592v-.88Zm-.912 1.984h10.416v.928h-10.416V95.9Zm2.208 6.016h6.24v.864h-6.24v-.864Zm-.736-4.176h7.056v.928h-5.936v6.992h-1.12v-7.92Zm6.56 0h1.152v6.608c0 .309-.037.549-.112.72-.075.171-.229.299-.464.384-.224.085-.523.133-.896.144-.373.021-.843.032-1.408.032a2.62 2.62 0 0 0-.144-.528 3.856 3.856 0 0 0-.208-.512c.405.011.779.016 1.12.016.341.011.565.011.672 0 .107-.011.181-.037.224-.08.043-.032.064-.096.064-.192V97.74Zm-3.52-6.768h1.184v5.472h-1.184v-5.472Zm-8.064 1.008.656-.864c.341.139.693.304 1.056.496.373.192.72.395 1.04.608.331.214.597.41.8.592l-.704.992a4.497 4.497 0 0 0-.768-.624c-.32-.224-.661-.442-1.024-.656a10.065 10.065 0 0 0-1.056-.544Zm-.8 4.336.656-.896c.341.128.699.288 1.072.48a16.2 16.2 0 0 1 1.056.56c.331.192.603.379.816.56l-.688 1.008a5.608 5.608 0 0 0-.8-.576 12.561 12.561 0 0 0-1.056-.608 12.308 12.308 0 0 0-1.056-.528Zm.464 8.384c.277-.416.581-.912.912-1.488.331-.576.667-1.184 1.008-1.824.341-.651.656-1.28.944-1.888l.912.752a91.866 91.866 0 0 1-.864 1.776 93.43 93.43 0 0 1-.944 1.808c-.32.587-.629 1.131-.928 1.632l-1.04-.768Zm20.048-10.176h4.624v1.04h-4.624v-1.04Zm5.568 1.76h4.496v1.056h-4.496v-1.056Zm-3.68-5.232h1.072v14.64h-1.072v-14.64Zm5.744 5.68h1.072v8.944h-1.072v-8.944Zm-5.728-1.536.784.208c-.16.885-.363 1.77-.608 2.656a22.178 22.178 0 0 1-.832 2.464c-.299.757-.619 1.392-.96 1.904a4.164 4.164 0 0 0-.384-.432 3.245 3.245 0 0 0-.416-.384c.341-.448.667-1.019.976-1.712.309-.693.587-1.45.832-2.272.256-.821.459-1.632.608-2.432Zm.976 1.984c.085.085.213.224.384.416.181.192.373.406.576.64.203.224.384.438.544.64.171.192.288.33.352.416l-.688.8a4.473 4.473 0 0 0-.352-.56 17.855 17.855 0 0 0-.496-.704c-.171-.256-.336-.49-.496-.704a7.032 7.032 0 0 0-.4-.496l.576-.448Zm2.112-4.784 1.376.432c-.021.107-.128.17-.32.192v4.96c0 .566-.021 1.179-.064 1.84a16.697 16.697 0 0 1-.224 2 10.793 10.793 0 0 1-.512 2 8.052 8.052 0 0 1-.896 1.824 1.39 1.39 0 0 0-.208-.288 3.574 3.574 0 0 0-.304-.272 2.236 2.236 0 0 0-.304-.208 7.327 7.327 0 0 0 .976-2.208c.203-.8.331-1.605.384-2.416.064-.81.096-1.568.096-2.272v-5.584Zm3.904-1.344 1.024.816a13.81 13.81 0 0 1-2.064.944c-.768.288-1.52.539-2.256.752a1.954 1.954 0 0 0-.176-.432 2.351 2.351 0 0 0-.24-.432c.448-.15.901-.314 1.36-.496a19.39 19.39 0 0 0 1.312-.56c.416-.203.763-.4 1.04-.592Zm-12.416 1.056h3.232v10.624h-3.232v-1.088h2.224v-8.448h-2.224v-1.088Zm.048 4.688h2.736v1.072h-2.736v-1.072Zm-.64-4.688h.992v11.888h-.992V92.107Zm19.008 13.2a20.022 20.022 0 0 0-1.12-1.28 33.284 33.284 0 0 0-1.232-1.232c-.405-.395-.8-.747-1.184-1.056l1.04-.912c.384.309.789.667 1.216 1.072.427.405.843.821 1.248 1.248.416.427.789.837 1.12 1.232l-1.088.928ZM484.304 94.3l1.168.384c-.352.459-.757.912-1.216 1.36a16.182 16.182 0 0 1-2.944 2.224 2.199 2.199 0 0 0-.24-.304 4.876 4.876 0 0 0-.32-.352 2.496 2.496 0 0 0-.304-.288c.736-.362 1.445-.81 2.128-1.344a9.635 9.635 0 0 0 1.728-1.68Zm4.096.688.816-.704c.491.288 1.003.619 1.536.992.533.363 1.035.73 1.504 1.104.48.363.869.694 1.168.992l-.88.816a14.55 14.55 0 0 0-1.12-1.024 26.052 26.052 0 0 0-1.488-1.152 19.326 19.326 0 0 0-1.536-1.024Zm-1.376 2.208c-.437.576-1.003 1.174-1.696 1.792-.693.608-1.461 1.2-2.304 1.776a22.02 22.02 0 0 1-2.608 1.504 1.585 1.585 0 0 0-.192-.336 7.323 7.323 0 0 0-.24-.352 2.081 2.081 0 0 0-.256-.32 17.378 17.378 0 0 0 2.64-1.472 19.476 19.476 0 0 0 2.32-1.824c.693-.65 1.248-1.274 1.664-1.872h1.216c.427.502.907.998 1.44 1.488.544.49 1.12.955 1.728 1.392a21.53 21.53 0 0 0 1.856 1.168c.64.352 1.269.651 1.888.896a6.12 6.12 0 0 0-.4.528c-.139.203-.261.389-.368.56-.587-.288-1.2-.619-1.84-.992a26.475 26.475 0 0 1-1.84-1.232 24.52 24.52 0 0 1-1.68-1.344 13.08 13.08 0 0 1-1.328-1.36Zm-4.416 3.136h8.848v5.312h-1.216v-4.24h-6.48v4.304h-1.152v-5.376Zm.544 3.76h7.728v1.072h-7.728v-1.072Zm3.2-13.12h1.232v2.08h-1.232v-2.08Zm-6.016 1.472h13.36v2.912h-1.232v-1.808h-10.96v1.808h-1.168v-2.912Zm18.656 2.8v1.6h7.904v-1.6h-7.904Zm0-2.528v1.568h7.904v-1.568h-7.904Zm-1.184-1.008h10.288v6.144h-10.288v-6.144Zm.896 7.504h9.584v1.088h-9.584v-1.088Zm9.28 0h1.216l-.016.096c0 .064-.005.139-.016.224 0 .085-.005.16-.016.224a40.467 40.467 0 0 1-.32 2.912c-.107.747-.224 1.323-.352 1.728-.128.395-.272.677-.432.848-.149.16-.315.272-.496.336a2.003 2.003 0 0 1-.608.112 6.72 6.72 0 0 1-.848.016c-.352 0-.731-.011-1.136-.032a3.016 3.016 0 0 0-.096-.528 1.815 1.815 0 0 0-.224-.528c.395.043.757.069 1.088.08.341.011.581.016.72.016.149 0 .267-.011.352-.032a.48.48 0 0 0 .24-.16c.128-.117.245-.357.352-.72.107-.373.208-.912.304-1.616a39.24 39.24 0 0 0 .288-2.784v-.192Zm-8.08-1.872 1.168.368a12.56 12.56 0 0 1-1.344 1.808 17.674 17.674 0 0 1-1.616 1.6c-.565.491-1.136.917-1.712 1.28a3.279 3.279 0 0 0-.272-.272 10.912 10.912 0 0 0-.352-.336 1.734 1.734 0 0 0-.32-.24 13.964 13.964 0 0 0 2.512-1.856c.8-.736 1.445-1.52 1.936-2.352Zm1.744 2.208 1.136.336a12.105 12.105 0 0 1-1.392 2.144 16.924 16.924 0 0 1-1.744 1.856 14.612 14.612 0 0 1-1.92 1.488 2.436 2.436 0 0 0-.256-.288l-.352-.32a4.249 4.249 0 0 0-.304-.256 12.767 12.767 0 0 0 2.768-2.144 11.948 11.948 0 0 0 2.064-2.816Zm3.312.08 1.152.272a15.068 15.068 0 0 1-1.664 3.344c-.672 1.013-1.419 1.856-2.24 2.528a3.901 3.901 0 0 0-.272-.24c-.117-.096-.24-.192-.368-.288-.117-.085-.219-.16-.304-.224.811-.619 1.536-1.397 2.176-2.336a12.573 12.573 0 0 0 1.52-3.056Zm12.72-1.04h7.52v.928h-7.52v-.928Zm-.928-6.912h9.264v.992h-9.264v-.992Zm-.08 8.992h9.344v1.008h-9.344v-1.008Zm6.352 1.968.848-.56c.277.245.56.512.848.8.288.288.555.576.8.864.256.277.459.533.608.768l-.896.64a6.576 6.576 0 0 0-.576-.768 14.995 14.995 0 0 0-.8-.896 21.24 21.24 0 0 0-.832-.848Zm-4.752-7.904V96.7h6.288v-1.968h-6.288Zm-1.008-.944h8.352v3.84h-8.352v-3.84Zm3.488 7.328h1.12v3.392c0 .267-.032.48-.096.64-.064.171-.203.299-.416.384a3.091 3.091 0 0 1-.816.144c-.331.021-.747.032-1.248.032a2.33 2.33 0 0 0-.144-.512 7.487 7.487 0 0 0-.224-.496c.395.011.731.016 1.008.016.277.011.464.011.56 0 .107-.011.176-.032.208-.064s.048-.085.048-.16v-3.376Zm-2.224.912.912.512c-.309.48-.699.949-1.168 1.408a10.28 10.28 0 0 1-1.44 1.184 3.552 3.552 0 0 0-.352-.368 3.778 3.778 0 0 0-.4-.352 9.339 9.339 0 0 0 1.376-1.12 7.793 7.793 0 0 0 1.072-1.264Zm1.104-9.792h.976v2.128h-.976v-2.128Zm.08 1.968h.88v3.04h-.88v-3.04Zm2.368-1.968h.992v2.128h-.992v-2.128Zm0 1.968h.896v3.04h-.896v-3.04Zm-10.592.24h5.152v1.12h-5.152v-1.12Zm2.24-3.472h1.104v14.704h-1.104V90.971Zm-.032 4.144.752.24a26.66 26.66 0 0 1-.48 1.984 25.645 25.645 0 0 1-.624 2.016 19.969 19.969 0 0 1-.752 1.84 9.59 9.59 0 0 1-.832 1.456 2.256 2.256 0 0 0-.272-.528c-.128-.203-.24-.373-.336-.512.267-.363.528-.795.784-1.296s.496-1.045.72-1.632c.224-.587.427-1.184.608-1.792.181-.619.325-1.21.432-1.776Zm1.056 1.456c.096.107.235.299.416.576.192.267.395.56.608.88.224.32.427.619.608.896.181.267.304.459.368.576l-.656.896a14.217 14.217 0 0 0-.4-.768c-.16-.31-.336-.63-.528-.96-.192-.33-.373-.635-.544-.912a15.779 15.779 0 0 0-.416-.672l.544-.512Zm13.376-5.024h4.192v.96h-4.192v-.96Zm-.176 4.336h4.528v.96h-4.528v-.96Zm0 2.128h4.528v.96h-4.528v-.96Zm-.832-4.352h6.208v1.024h-6.208V93.66Zm6.432.48h7.984v1.12h-7.984v-1.12Zm-.48 9.904h8.784v1.136h-8.784v-1.136Zm.752-5.2h7.488v1.12h-7.488v-1.12Zm-5.344 1.312h4.112v4.512h-4.112v-.96h2.992v-2.592h-2.992v-.96Zm-.624 0h1.104v5.296h-1.104v-5.296Zm9.008-9.136h1.184v3.664h-1.184V91.02Zm0 3.488h1.184v10.128h-1.184V94.507Z"/><path fill="#fff" d="M668 66.411h238v64H668v-64Z"/><path fill="#fff" d="M906 130.411v1h1v-1h-1Zm0-64h-1v64h2v-64h-1Zm0 64v-1H668v2h238v-1Z"/><path fill="#fff" d="M906 66.411h238v64H906v-64Z"/><path fill="#fff" d="M1144 130.411v1h1v-1h-1Zm0-64h-1v64h2v-64h-1Zm0 64v-1H906v2h238v-1Z"/><path fill="#2A2A2A" d="m936.32 97.467 1.264.368c-.576 1.483-1.349 2.736-2.32 3.76a12.484 12.484 0 0 1-3.44 2.544c-1.312.661-2.784 1.2-4.416 1.616a2.368 2.368 0 0 0-.208-.384 4.72 4.72 0 0 0-.288-.416 3.736 3.736 0 0 0-.272-.352c1.611-.331 3.051-.795 4.32-1.392 1.28-.608 2.368-1.376 3.264-2.304.907-.938 1.605-2.085 2.096-3.44Zm-5.232-2.752 1.232.464a13.185 13.185 0 0 1-1.328 1.504 18.266 18.266 0 0 1-3.152 2.512 3.033 3.033 0 0 0-.272-.304 5.914 5.914 0 0 0-.704-.656 14.707 14.707 0 0 0 3.04-2.176 8.504 8.504 0 0 0 1.184-1.344Zm.656 2.848c.747 1.888 1.925 3.424 3.536 4.608 1.621 1.173 3.669 1.968 6.144 2.384a3.513 3.513 0 0 0-.288.336l-.288.416c-.085.149-.16.277-.224.384-1.696-.331-3.189-.832-4.48-1.504a11.53 11.53 0 0 1-3.312-2.592c-.907-1.045-1.648-2.272-2.224-3.68l1.136-.352Zm-4.768-4.512h14.048v1.184h-14.048v-1.184Zm6.384-2.096h1.216v2.848h-1.216v-2.848Zm2.528 4.432.976-.72a27.002 27.002 0 0 1 3.12 2.384c.491.416.891.8 1.2 1.152l-1.056.848a9.233 9.233 0 0 0-1.12-1.184c-.469-.437-.981-.87-1.536-1.296a26.503 26.503 0 0 0-1.584-1.184Zm10.08 1.904v5.664h-1.152v-4.544h-2.32v-1.12h3.472Zm0 5.168c.384.597.917 1.04 1.6 1.328.683.277 1.493.437 2.432.48.448.011.987.021 1.616.032h2.016c.704-.011 1.381-.027 2.032-.048a52.634 52.634 0 0 0 1.728-.08 3.645 3.645 0 0 0-.144.336c-.053.139-.107.283-.16.432a3.63 3.63 0 0 0-.096.416c-.448.011-.976.021-1.584.032-.597.021-1.232.032-1.904.032-.661.011-1.301.011-1.92 0a257.42 257.42 0 0 1-1.584-.032c-1.035-.043-1.925-.213-2.672-.512a4.43 4.43 0 0 1-1.872-1.408c-.405.352-.821.699-1.248 1.04-.427.352-.869.704-1.328 1.056l-.592-1.184a39.85 39.85 0 0 0 1.296-.88c.469-.341.917-.688 1.344-1.04h1.04Zm-3.216-10.384.848-.736c.341.235.688.507 1.04.816.363.299.693.603.992.912.299.299.533.587.704.864l-.912.832a4.626 4.626 0 0 0-.688-.88 13.34 13.34 0 0 0-.944-.944c-.341-.32-.688-.608-1.04-.864Zm6.416 1.584.752-.688c.512.181 1.051.395 1.616.64.576.235 1.125.475 1.648.72a13.5 13.5 0 0 1 1.328.688l-.8.768a12.796 12.796 0 0 0-1.28-.704 29.552 29.552 0 0 0-1.632-.752c-.576-.256-1.12-.48-1.632-.672Zm-1.536 1.328h8.272v.928h-7.136v7.36h-1.136v-8.288Zm7.712 0h1.152v7.088c0 .299-.037.528-.112.688-.075.149-.219.272-.432.368-.213.085-.496.139-.848.16a43.16 43.16 0 0 1-1.328.016 2.597 2.597 0 0 0-.128-.496 2.558 2.558 0 0 0-.208-.48c.384.011.725.016 1.024.016h.608c.107-.011.176-.037.208-.08.043-.043.064-.107.064-.192v-7.088Zm-7.696-3.36h7.984v.96h-7.984v-.96Zm.608 5.696h7.536v.896h-7.536v-.896Zm0 2.352h7.536v.944h-7.536v-.944Zm3.216-4.304h1.088v7.84h-1.088v-7.84Zm3.76-3.744h.272l.24-.064.752.592c-.363.33-.773.662-1.232.992-.459.32-.939.619-1.44.896a14.47 14.47 0 0 1-1.488.72 4.978 4.978 0 0 0-.64-.704 13.83 13.83 0 0 0 2.592-1.408 6.91 6.91 0 0 0 .944-.8v-.224Zm6.784 13.68a20.022 20.022 0 0 0-1.12-1.28 33.284 33.284 0 0 0-1.232-1.232c-.405-.395-.8-.747-1.184-1.056l1.04-.912c.384.309.789.667 1.216 1.072.427.405.843.821 1.248 1.248.416.427.789.837 1.12 1.232l-1.088.928Zm16.88-11.152h9.744v1.152h-9.744v-1.152Zm.544 4.672h8.72v1.136h-8.72v-1.136Zm-.944 5.168h10.384v1.136h-10.384v-1.136Zm4.656-9.504h1.2v10.192h-1.2V94.491Zm-2.096-2.72.8-.832c.405.224.832.48 1.28.768.448.278.875.56 1.28.848.405.288.736.555.992.8l-.848.96a8.021 8.021 0 0 0-.944-.816c-.395-.31-.816-.613-1.264-.912-.448-.299-.88-.57-1.296-.816Zm-3.152-.752 1.12.352a23.277 23.277 0 0 1-1.28 2.656 22.063 22.063 0 0 1-1.568 2.464 17.728 17.728 0 0 1-1.712 2.048 4.517 4.517 0 0 0-.192-.368 9.822 9.822 0 0 0-.24-.448 3.084 3.084 0 0 0-.24-.368 15.387 15.387 0 0 0 1.568-1.776 20.54 20.54 0 0 0 1.424-2.176c.437-.779.811-1.573 1.12-2.384Zm-1.664 4.128 1.12-1.136.032.016v11.616h-1.152V95.147Zm20.432-4.176h1.216v2.048h-1.216v-2.048Zm-6.032 1.376h13.39v2.624h-1.23v-1.52h-10.976v1.728h-1.184v-2.832Zm4.16 2.976h9.31v1.072h-9.31v-1.072Zm1.312 5.648h6.748v1.008h-6.748v-1.008Zm0 3.088h6.748v1.04h-6.748v-1.04Zm-.528-5.968h7.856v7.584h-1.17v-6.544h-5.534v6.592h-1.152v-7.632Zm3.2-2.272 1.316.304c-.153.49-.308.987-.468 1.488-.16.501-.309.933-.448 1.296l-1.056-.288c.085-.256.171-.55.256-.88.085-.33.165-.661.24-.992a9.31 9.31 0 0 0 .16-.928Zm-5.2-1.52 1.104.352a15.713 15.713 0 0 1-1.2 2.176c-.459.704-.955 1.36-1.488 1.968a14.428 14.428 0 0 1-1.616 1.616 2.278 2.278 0 0 0-.208-.32 5.2 5.2 0 0 0-.272-.4 2.487 2.487 0 0 0-.272-.336c.533-.395 1.04-.859 1.52-1.392a14.335 14.335 0 0 0 2.432-3.664Zm-1.36 2.912 1.056-1.056.08.048v9.488h-1.136v-8.48Zm17.266 8.096c-.34-.427-.72-.853-1.12-1.28-.41-.427-.82-.837-1.23-1.232-.41-.395-.8-.747-1.19-1.056l1.04-.912c.39.309.79.667 1.22 1.072.42.405.84.821 1.25 1.248.41.427.79.837 1.12 1.232l-1.09.928Zm21.79-2.608.86-.608c.44.224.9.485 1.38.784.49.299.95.597 1.39.896.45.299.82.571 1.11.816l-.93.72c-.27-.245-.62-.523-1.04-.832-.43-.299-.89-.608-1.38-.928-.48-.32-.94-.603-1.39-.848Zm-7.54-4.128h10.44v.96h-10.44v-.96Zm-1.93 2.064h14.32v1.008h-14.32v-1.008Zm.17-9.024h13.83v.992h-13.83v-.992Zm6.37 9.216h1.22v3.584c0 .32-.04.56-.13.72-.09.171-.25.299-.5.384-.23.085-.55.139-.94.16-.38.021-.86.032-1.44.032-.02-.16-.07-.341-.14-.544a6.776 6.776 0 0 0-.24-.544c.45.011.85.016 1.2.016.34.011.57.011.68 0 .12 0 .2-.021.23-.064.04-.032.06-.096.06-.192v-3.552Zm-3.07 1.216 1.12.384c-.32.384-.69.763-1.12 1.136-.43.373-.87.72-1.34 1.04-.46.32-.92.597-1.36.832a4.222 4.222 0 0 0-.28-.272c-.1-.096-.21-.192-.33-.288a6.973 6.973 0 0 0-.32-.24 13.6 13.6 0 0 0 2.01-1.136c.67-.459 1.2-.944 1.62-1.456Zm-1.22-7.28v1.84h9.8v-1.84h-9.8Zm-1.12-.928h12.1v3.696h-12.1v-3.696Zm3.56-1.856h1.1v5.12h-1.1v-5.12Zm3.64 0h1.14v5.12h-1.14v-5.12Zm7.49 4.896h14.27v1.104h-14.27v-1.104Zm1.03-2.912h12.3v1.088h-12.3v-1.088Zm1.72 5.76h7.73v1.088h-7.73v-1.088Zm6.24-5.328c.35.896.79 1.75 1.33 2.56.56.8 1.2 1.51 1.92 2.128a9.618 9.618 0 0 0 2.35 1.456c-.09.075-.19.171-.3.288-.1.117-.19.24-.29.368-.08.117-.16.224-.22.32-.88-.427-1.69-.976-2.43-1.648a12.406 12.406 0 0 1-1.99-2.336 15.104 15.104 0 0 1-1.44-2.832l1.07-.304Zm-6.96-2.736 1.03-.384c.2.245.39.512.57.8.2.288.37.576.53.864.16.278.28.528.35.752l-1.07.448a8.238 8.238 0 0 0-.57-1.216c-.27-.47-.55-.89-.84-1.264Zm8.84-.448 1.18.4c-.26.459-.54.917-.85 1.376-.3.448-.57.832-.83 1.152l-1.02-.384c.17-.224.34-.485.52-.784.2-.299.38-.603.55-.912.18-.31.33-.592.45-.848Zm-.74 8.512h1.23s0 .064-.01.192c0 .128-.01.235-.04.32-.06 1.077-.13 1.952-.22 2.624-.09.672-.18 1.189-.29 1.552-.09.363-.22.624-.37.784-.15.16-.31.272-.48.336-.16.064-.36.107-.6.128a7.87 7.87 0 0 1-.92.016c-.38 0-.79-.011-1.23-.032a2.791 2.791 0 0 0-.11-.592 1.915 1.915 0 0 0-.26-.544c.43.043.83.069 1.2.08.38.011.64.016.79.016.15 0 .26-.011.35-.032.1-.021.18-.069.26-.144.1-.107.2-.32.28-.64.09-.32.16-.795.23-1.424.07-.629.14-1.451.19-2.464v-.176Zm-4.48.336h1.26a9.901 9.901 0 0 1-.44 1.904 5.5 5.5 0 0 1-.85 1.6c-.38.469-.87.885-1.49 1.248-.61.363-1.38.667-2.3.912a2.81 2.81 0 0 0-.2-.336 2.831 2.831 0 0 0-.24-.368 2.539 2.539 0 0 0-.25-.304c.85-.203 1.55-.453 2.09-.752.56-.299 1-.645 1.32-1.04.33-.395.57-.832.73-1.312.17-.48.3-.997.37-1.552Zm.69-9.12 1.26.24c-.25 1.099-.58 2.16-.97 3.184a16.04 16.04 0 0 1-1.43 2.864c-.56.896-1.24 1.718-2.01 2.464-.78.736-1.7 1.371-2.76 1.904a1.708 1.708 0 0 0-.22-.32l-.27-.352a2.563 2.563 0 0 0-.26-.304c.99-.48 1.86-1.061 2.61-1.744.76-.693 1.4-1.461 1.92-2.304.52-.843.95-1.733 1.3-2.672.35-.95.63-1.936.83-2.96Zm12.99 14.368c-.34-.427-.71-.853-1.12-1.28-.41-.427-.82-.837-1.23-1.232-.41-.395-.8-.747-1.19-1.056l1.04-.912c.39.309.79.667 1.22 1.072.43.405.84.821 1.25 1.248.41.427.79.837 1.12 1.232l-1.09.928Zm13.02-12.096h12.88v1.072h-12.88v-1.072Zm.79 2.384h11.37v1.04h-11.37v-1.04Zm-1.43 2.384h14.15v1.088h-14.15V97.98Zm-.12 2.576h14.44v1.072h-14.44v-1.072Zm6.56-6.736h1.21v4.944h-1.21V93.82Zm-3.76-2.432 1.05-.448c.29.299.56.635.82 1.008.26.373.46.715.57 1.024l-1.12.496c-.09-.299-.26-.645-.51-1.04a5.903 5.903 0 0 0-.81-1.04Zm7.52-.448 1.24.384c-.25.374-.52.742-.81 1.104-.28.363-.54.672-.79.928l-1.04-.352c.16-.192.33-.405.5-.64.17-.245.34-.49.5-.736.16-.256.29-.485.4-.688Zm-3.84 7.936h1.26c-.09.747-.21 1.435-.38 2.064a6.11 6.11 0 0 1-.74 1.68c-.31.501-.73.949-1.26 1.344-.54.395-1.21.731-2.02 1.008-.81.288-1.79.528-2.94.72a1.292 1.292 0 0 0-.15-.352c-.06-.128-.14-.261-.22-.4a2.063 2.063 0 0 0-.24-.32c1.08-.16 1.99-.357 2.73-.592.76-.235 1.38-.517 1.86-.848.49-.331.87-.704 1.15-1.12.28-.427.49-.901.63-1.424.13-.533.24-1.12.32-1.76Zm1.61 2a5.036 5.036 0 0 0 2.32 2.608c1.09.587 2.51.96 4.26 1.12-.09.085-.18.192-.27.32-.1.139-.19.277-.28.416-.07.139-.13.261-.19.368-1.21-.16-2.28-.427-3.2-.8-.9-.363-1.67-.853-2.29-1.472-.6-.629-1.09-1.413-1.45-2.352l1.1-.208Zm14.87-8.848c-.45.566-1.03 1.147-1.73 1.744-.71.587-1.48 1.152-2.34 1.696-.84.544-1.71 1.019-2.61 1.424-.04-.085-.1-.187-.19-.304a2.126 2.126 0 0 0-.24-.352 2.547 2.547 0 0 0-.25-.304c.9-.394 1.78-.864 2.64-1.408a20.26 20.26 0 0 0 2.35-1.76c.7-.619 1.27-1.221 1.69-1.808h1.2c.44.502.94.992 1.49 1.472.56.47 1.14.912 1.75 1.328.61.416 1.24.795 1.88 1.136.65.33 1.29.613 1.91.848-.13.15-.26.325-.4.528a4.57 4.57 0 0 0-.35.544c-.8-.363-1.63-.8-2.48-1.312a24.438 24.438 0 0 1-2.42-1.68 14.398 14.398 0 0 1-1.9-1.792Zm-3.8 5.68h7.67v.928h-7.67v-.928Zm3.2-3.936h1.24v2.176h-1.24v-2.176Zm-5.72 10.656c.59-.053 1.28-.112 2.04-.176.78-.064 1.6-.139 2.47-.224.87-.085 1.75-.171 2.64-.256v1.088a2091.21 2091.21 0 0 1-6.98.704l-.17-1.136Zm6.46-3.856c.6 1.12 1.51 2.021 2.75 2.704 1.25.672 2.73 1.131 4.43 1.376-.08.075-.17.171-.27.288l-.27.384c-.07.139-.14.261-.21.368a14.616 14.616 0 0 1-3.18-.944 9.577 9.577 0 0 1-2.53-1.584 8.056 8.056 0 0 1-1.76-2.288l1.04-.304Zm5.39-.272.9.704c-.41.299-.86.597-1.35.896-.49.299-.98.581-1.48.848-.49.267-.96.507-1.4.72l-.76-.656c.44-.213.91-.464 1.4-.752.51-.288.99-.581 1.46-.88.48-.309.89-.603 1.23-.88Zm-9.31-4.928h8.43v5.648h-8.43v-.976h7.23v-3.68h-7.23v-.992Zm-.72 0h1.18v9.2l-1.18.128v-9.328Z"/><path fill="#fff" d="M0 130.411h190v64H12c-6.627 0-12-5.372-12-12v-52Z"/><path fill="#fff" d="M0 130.411h190H0Zm191 65H12c-7.18 0-13-5.82-13-13h2c0 6.075 4.925 11 11 11h177l2 2Zm-179 0c-7.18 0-13-5.82-13-13v-52h2v52c0 6.075 4.925 11 11 11v2Zm179-65v65l-2-2v-63h2Z"/><path fill="#2A2A2A" d="M29.856 157.403h5.2v1.136h-5.2v-1.136Zm0 7.264h5.472v1.136h-5.472v-1.136Zm-.064-3.664h4.928v1.104h-4.928v-1.104Zm-8.56-3.6h4.704v1.136h-4.704v-1.136Zm.176 3.6h4.496v1.104h-4.496v-1.104Zm7.824-5.952h1.2v14.64h-1.2v-14.64Zm-8.592 9.952c.587-.085 1.27-.187 2.048-.304.79-.128 1.621-.267 2.496-.416l2.656-.448.048 1.072c-.832.149-1.664.304-2.496.464a1324.517 1324.517 0 0 0-4.512.816l-.24-1.184Zm4.768-9.952h1.168v7.472c0 .523-.053 1.109-.16 1.76a8.22 8.22 0 0 1-.624 2.016c-.31.683-.763 1.333-1.36 1.952-.587.619-1.365 1.157-2.336 1.616a4.233 4.233 0 0 0-.4-.48 7.527 7.527 0 0 0-.464-.432c.725-.309 1.333-.672 1.824-1.088a6.242 6.242 0 0 0 1.92-2.8c.17-.48.283-.939.336-1.376.064-.448.096-.837.096-1.168v-7.472Zm17.44 7.536h7.52v.928h-7.52v-.928Zm-.928-6.912h9.264v.992H41.92v-.992Zm-.08 8.992h9.344v1.008H41.84v-1.008Zm6.352 1.968.848-.56c.277.245.56.512.848.8.288.288.555.576.8.864.256.277.459.533.608.768l-.896.64a6.509 6.509 0 0 0-.576-.768 15.1 15.1 0 0 0-.8-.896 21.448 21.448 0 0 0-.832-.848Zm-4.752-7.904v1.968h6.288v-1.968H43.44Zm-1.008-.944h8.352v3.84h-8.352v-3.84Zm3.488 7.328h1.12v3.392c0 .267-.032.48-.096.64-.064.171-.203.299-.416.384a3.096 3.096 0 0 1-.816.144c-.33.021-.747.032-1.248.032a2.364 2.364 0 0 0-.144-.512 7.487 7.487 0 0 0-.224-.496c.395.011.73.016 1.008.016.277.011.464.011.56 0 .107-.011.176-.032.208-.064s.048-.085.048-.16v-3.376Zm-2.224.912.912.512c-.31.48-.699.949-1.168 1.408-.47.459-.95.853-1.44 1.184a3.552 3.552 0 0 0-.352-.368 3.748 3.748 0 0 0-.4-.352c.47-.309.928-.683 1.376-1.12a7.778 7.778 0 0 0 1.072-1.264Zm1.104-9.792h.976v2.128H44.8v-2.128Zm.08 1.968h.88v3.04h-.88v-3.04Zm2.368-1.968h.992v2.128h-.992v-2.128Zm0 1.968h.896v3.04h-.896v-3.04Zm-10.592.24h5.152v1.12h-5.152v-1.12Zm2.24-3.472H40v14.704h-1.104v-14.704Zm-.032 4.144.752.24a26.66 26.66 0 0 1-.48 1.984c-.181.683-.39 1.355-.624 2.016a19.969 19.969 0 0 1-.752 1.84 9.564 9.564 0 0 1-.832 1.456 2.268 2.268 0 0 0-.272-.528c-.128-.203-.24-.373-.336-.512.267-.363.528-.795.784-1.296s.496-1.045.72-1.632c.224-.587.427-1.184.608-1.792.181-.619.325-1.211.432-1.776Zm1.056 1.456c.096.107.235.299.416.576.192.267.395.56.608.88.224.32.427.619.608.896.181.267.304.459.368.576l-.656.896c-.096-.203-.23-.459-.4-.768-.16-.309-.336-.629-.528-.96a40.052 40.052 0 0 0-.544-.912c-.17-.288-.31-.512-.416-.672l.544-.512Zm19.504-5.216h1.216v11.888c0 .299.027.528.08.688a.53.53 0 0 0 .304.32c.16.053.39.08.688.08h3.136c.299 0 .517-.08.656-.24.15-.171.256-.469.32-.896.075-.427.128-1.024.16-1.792.15.107.33.213.544.32.224.096.421.16.592.192-.053.875-.15 1.573-.288 2.096-.128.512-.341.88-.64 1.104-.288.224-.715.336-1.28.336h-3.296c-.555 0-.992-.064-1.312-.192a1.212 1.212 0 0 1-.688-.688c-.128-.32-.192-.773-.192-1.36v-11.856Zm6.016 2.656.864 1.024c-.533.448-1.136.891-1.808 1.328-.672.427-1.376.843-2.112 1.248-.725.405-1.44.789-2.144 1.152a2.018 2.018 0 0 0-.224-.464 8.876 8.876 0 0 0-.272-.48 42.351 42.351 0 0 0 2.08-1.184 32.8 32.8 0 0 0 2-1.312c.63-.459 1.168-.896 1.616-1.312Zm-8.784-2.8 1.168.4a24.14 24.14 0 0 1-3.184 5.264 16.358 16.358 0 0 1-1.936 2.064 1.584 1.584 0 0 0-.192-.384 10.012 10.012 0 0 0-.272-.448 3.952 3.952 0 0 0-.256-.384 14.186 14.186 0 0 0 1.792-1.792 18.13 18.13 0 0 0 2.88-4.72Zm-1.84 4.192L56 158.219l.016.032v11.408h-1.2v-10.256Zm14.256-3.776h7.232v1.056h-7.232v-1.056Zm-.528 3.264h8.096v1.072h-8.096v-1.072Zm-.32 9.12h14.48v1.12h-14.48v-1.12Zm1.664-3.136H81.04v1.104H69.888v-1.104Zm3.792-8.816h1.136v7.344H73.68v-7.344Zm1.264 7.04h1.232v5.68h-1.232v-5.68Zm2.688-7.216h1.104v5.36h-1.104v-5.36Zm2.992-.816h1.136v7.168c0 .331-.043.581-.128.752-.075.171-.235.304-.48.4a3.986 3.986 0 0 1-.96.176c-.395.021-.875.032-1.44.032a3.704 3.704 0 0 0-.16-.544 4.034 4.034 0 0 0-.24-.56c.459.011.87.021 1.232.032.363 0 .603-.005.72-.016.128-.011.213-.032.256-.064.043-.043.064-.117.064-.224v-7.152Zm-10.032 1.008h1.104v2.72c0 .555-.064 1.136-.192 1.744a4.995 4.995 0 0 1-.72 1.76c-.352.565-.88 1.067-1.584 1.504a1.19 1.19 0 0 0-.224-.288 4.018 4.018 0 0 0-.304-.304 1.637 1.637 0 0 0-.256-.24c.64-.395 1.11-.827 1.408-1.296.31-.469.512-.955.608-1.456.107-.501.16-.981.16-1.44v-2.704Zm13.808.416h13.84v1.104H84.4v-1.104Zm6.224-1.52h1.232v2.144h-1.232v-2.144Zm-5.552 4.32h12.08v1.056H86.224v9.328h-1.152v-10.384Zm11.44 0h1.168v8.912c0 .352-.048.629-.144.832-.096.203-.272.352-.528.448-.267.096-.624.155-1.072.176-.448.021-1.003.032-1.664.032a3.8 3.8 0 0 0-.096-.368 9.5 9.5 0 0 0-.144-.432 2.364 2.364 0 0 0-.176-.368 68.69 68.69 0 0 0 1.44.016c.437.011.725.011.864 0s.23-.043.272-.096c.053-.043.08-.123.08-.24v-8.912Zm-7.408.768h1.104c-.053.704-.181 1.301-.384 1.792a2.703 2.703 0 0 1-1.008 1.216c-.459.32-1.099.576-1.92.768a1.881 1.881 0 0 0-.24-.448 2.256 2.256 0 0 0-.336-.4c.715-.149 1.264-.347 1.648-.592.395-.245.672-.555.832-.928.16-.373.261-.843.304-1.408Zm2.976.016h1.072v1.856c0 .149.027.245.08.288.053.043.181.064.384.064h1.408c.107 0 .187-.021.24-.064.064-.043.112-.139.144-.288a4.69 4.69 0 0 0 .064-.704c.107.075.25.149.432.224.181.064.347.112.496.144-.053.64-.17 1.072-.352 1.296-.17.213-.47.32-.896.32h-1.664c-.373 0-.661-.037-.864-.112a.737.737 0 0 1-.432-.384c-.075-.181-.112-.437-.112-.768v-1.872Zm-3.76 3.952h1.088v4.928H88.32v-4.928Zm.656 0h5.44v3.936h-5.44v-.944h4.336v-2.048h-4.336v-.944Zm-1.504-6.448 1.152-.224c.192.299.368.629.528.992.17.363.299.683.384.96l-1.232.288a5.931 5.931 0 0 0-.336-.976c-.16-.384-.325-.731-.496-1.04Zm6.432-.272 1.312.24c-.181.373-.373.741-.576 1.104-.192.363-.373.672-.544.928l-1.168-.24c.17-.277.347-.608.528-.992.181-.395.33-.741.448-1.04Zm10.048-.512v3.04h6.384v-3.04h-6.384Zm-1.168-1.136h8.784v5.328h-8.784v-5.328Zm-2.336 7.04h5.696v6.848h-1.2v-5.712H101.6v5.856h-1.152v-6.992Zm7.456 0h6.016v6.896h-1.216v-5.76h-3.648v5.856h-1.152v-6.992Zm-6.928 4.96h4.464v1.168h-4.464v-1.168Zm7.504 0h4.752v1.168h-4.752v-1.168Z"/><path fill="#fff" d="M190 130.411h478v64H190v-64Z"/><path fill="#fff" d="M668 194.411v1h1v-1h-1Zm0-64h-1v64h2v-64h-1Zm0 64v-1H190v2h478v-1Z"/><path fill="#2A2A2A" d="M211.104 156.491h13.84v1.104h-13.84v-1.104Zm6.224-1.52h1.232v2.144h-1.232v-2.144Zm-5.552 4.32h12.08v1.056h-10.928v9.328h-1.152v-10.384Zm11.44 0h1.168v8.912c0 .352-.048.629-.144.832-.096.203-.272.352-.528.448-.267.096-.624.155-1.072.176-.448.021-1.003.032-1.664.032a3.633 3.633 0 0 0-.096-.368 10.925 10.925 0 0 0-.144-.432 2.337 2.337 0 0 0-.176-.368 68.69 68.69 0 0 0 1.44.016c.437.011.725.011.864 0s.229-.043.272-.096c.053-.043.08-.123.08-.24v-8.912Zm-7.408.768h1.104c-.053.704-.181 1.301-.384 1.792a2.707 2.707 0 0 1-1.008 1.216c-.459.32-1.099.576-1.92.768a1.903 1.903 0 0 0-.24-.448 2.23 2.23 0 0 0-.336-.4c.715-.149 1.264-.347 1.648-.592.395-.245.672-.555.832-.928.16-.373.261-.843.304-1.408Zm2.976.016h1.072v1.856c0 .149.027.245.08.288.053.043.181.064.384.064h1.408c.107 0 .187-.021.24-.064.064-.043.112-.139.144-.288.032-.16.053-.395.064-.704a2.3 2.3 0 0 0 .432.224c.181.064.347.112.496.144-.053.64-.171 1.072-.352 1.296-.171.213-.469.32-.896.32h-1.664c-.373 0-.661-.037-.864-.112a.736.736 0 0 1-.432-.384c-.075-.181-.112-.437-.112-.768v-1.872Zm-3.76 3.952h1.088v4.928h-1.088v-4.928Zm.656 0h5.44v3.936h-5.44v-.944h4.336v-2.048h-4.336v-.944Zm-1.504-6.448 1.152-.224c.192.299.368.629.528.992.171.363.299.683.384.96l-1.232.288a5.931 5.931 0 0 0-.336-.976c-.16-.384-.325-.731-.496-1.04Zm6.432-.272 1.312.24c-.181.373-.373.741-.576 1.104-.192.363-.373.672-.544.928l-1.168-.24c.171-.277.347-.608.528-.992.181-.395.331-.741.448-1.04Zm10.048-.512v3.04h6.384v-3.04h-6.384Zm-1.168-1.136h8.784v5.328h-8.784v-5.328Zm-2.336 7.04h5.696v6.848h-1.2v-5.712h-3.344v5.856h-1.152v-6.992Zm7.456 0h6.016v6.896h-1.216v-5.76h-3.648v5.856h-1.152v-6.992Zm-6.928 4.96h4.464v1.168h-4.464v-1.168Zm7.504 0h4.752v1.168h-4.752v-1.168Zm8.224-9.104h11.968v1.184h-10.768v9.952h-1.2v-11.136Zm11.376 0h1.2v9.568c0 .373-.048.667-.144.88-.096.213-.277.368-.544.464-.277.096-.651.155-1.12.176-.469.021-1.04.032-1.712.032a4.647 4.647 0 0 0-.256-.832 2.772 2.772 0 0 0-.176-.4c.352.011.688.016 1.008.016.331.011.619.011.864 0h.512c.149 0 .245-.027.288-.08.053-.053.08-.139.08-.256v-9.568Zm-8.576-2.864h3.424v1.072h-3.424v-1.072Zm2.592 0h1.328c.053 1.152.171 2.213.352 3.184.181.971.443 1.851.784 2.64.352.779.8 1.451 1.344 2.016.544.555 1.211 1.003 2 1.344a4.106 4.106 0 0 0-.608.688 13.6 13.6 0 0 0-.256.352 7.445 7.445 0 0 1-2.064-1.52 8 8 0 0 1-1.392-2.144 13.313 13.313 0 0 1-.848-2.72 24.44 24.44 0 0 1-.384-3.248h-.256v-.592Zm.144 3.168 1.12.192c-.267 1.653-.757 3.056-1.472 4.208-.715 1.152-1.723 2.064-3.024 2.736a1.253 1.253 0 0 0-.224-.32 8.662 8.662 0 0 0-.304-.352 2.215 2.215 0 0 0-.288-.272c1.216-.587 2.165-1.387 2.848-2.4.683-1.024 1.131-2.288 1.344-3.792Zm13.824-.56 1.168.384c-.352.459-.757.912-1.216 1.36a16.248 16.248 0 0 1-2.944 2.224 2.193 2.193 0 0 0-.24-.304 4.855 4.855 0 0 0-.32-.352 2.543 2.543 0 0 0-.304-.288 12.304 12.304 0 0 0 2.128-1.344 9.615 9.615 0 0 0 1.728-1.68Zm4.096.688.816-.704c.491.288 1.003.619 1.536.992a25.26 25.26 0 0 1 1.504 1.104c.48.363.869.693 1.168.992l-.88.816a14.47 14.47 0 0 0-1.12-1.024 26.052 26.052 0 0 0-1.488-1.152 19.408 19.408 0 0 0-1.536-1.024Zm-1.376 2.208c-.437.576-1.003 1.173-1.696 1.792-.693.608-1.461 1.2-2.304 1.776a22.02 22.02 0 0 1-2.608 1.504 1.585 1.585 0 0 0-.192-.336 7.323 7.323 0 0 0-.24-.352 2.081 2.081 0 0 0-.256-.32 17.37 17.37 0 0 0 2.64-1.472 19.476 19.476 0 0 0 2.32-1.824c.693-.651 1.248-1.275 1.664-1.872h1.216a17.2 17.2 0 0 0 1.44 1.488c.544.491 1.12.955 1.728 1.392.608.427 1.227.816 1.856 1.168.64.352 1.269.651 1.888.896a6.12 6.12 0 0 0-.4.528c-.139.203-.261.389-.368.56-.587-.288-1.2-.619-1.84-.992a26.44 26.44 0 0 1-1.84-1.232 24.34 24.34 0 0 1-1.68-1.344 13.12 13.12 0 0 1-1.328-1.36Zm-4.416 3.136h8.848v5.312h-1.216v-4.24h-6.48v4.304h-1.152v-5.376Zm.544 3.76h7.728v1.072h-7.728v-1.072Zm3.2-13.12h1.232v2.08h-1.232v-2.08Zm-6.016 1.472h13.36v2.912h-1.232v-1.808h-10.96v1.808H258.8v-2.912Zm18.512 2.064.816-.704c.395.181.805.395 1.232.64.437.245.843.496 1.216.752.384.256.699.496.944.72l-.848.784a7.412 7.412 0 0 0-.912-.72 17.677 17.677 0 0 0-1.2-.784 12.295 12.295 0 0 0-1.248-.688Zm7.408-2.192h.24l.208-.048.768.464a10.495 10.495 0 0 1-2 2.528 15.08 15.08 0 0 1-2.72 1.984 21.326 21.326 0 0 1-3.12 1.456 25.174 25.174 0 0 1-3.2.944 3.661 3.661 0 0 0-.24-.544 3.3 3.3 0 0 0-.32-.528 21.028 21.028 0 0 0 3.072-.8c1.035-.363 2.027-.8 2.976-1.312a14.062 14.062 0 0 0 2.544-1.776c.757-.661 1.355-1.387 1.792-2.176v-.192Zm-5.36 0h5.648v1.024h-5.648v-1.024Zm1.184-1.376 1.36.288c-.747.853-1.669 1.664-2.768 2.432-1.088.768-2.373 1.451-3.856 2.048a2.898 2.898 0 0 0-.528-.64 2.036 2.036 0 0 0-.304-.256 17.562 17.562 0 0 0 2.624-1.152 14.242 14.242 0 0 0 2.048-1.344c.587-.469 1.061-.928 1.424-1.376Zm-1.184 9.424.896-.688c.416.213.848.464 1.296.752.459.277.885.565 1.28.864.395.288.72.565.976.832l-.944.768a5.842 5.842 0 0 0-.944-.832c-.384-.299-.8-.597-1.248-.896a18.005 18.005 0 0 0-1.312-.8Zm7.68-2.448h.256l.224-.048.784.432a9.966 9.966 0 0 1-2.032 3.024 12.162 12.162 0 0 1-2.896 2.16 18.52 18.52 0 0 1-3.504 1.408c-1.237.363-2.507.64-3.808.832a3.464 3.464 0 0 0-.224-.576 2.23 2.23 0 0 0-.304-.512 25.67 25.67 0 0 0 3.632-.704 17.654 17.654 0 0 0 3.328-1.28 11.183 11.183 0 0 0 2.72-1.904 7.924 7.924 0 0 0 1.824-2.64v-.192Zm-5.184 0h5.504v1.04h-5.504v-1.04Zm1.28-1.488 1.344.304c-.811.939-1.851 1.829-3.12 2.672-1.269.843-2.784 1.573-4.544 2.192a1.466 1.466 0 0 0-.208-.32 4.2 4.2 0 0 0-.272-.336 1.28 1.28 0 0 0-.256-.272 21.946 21.946 0 0 0 3.056-1.232c.917-.459 1.712-.949 2.384-1.472.672-.523 1.211-1.035 1.616-1.536Zm11.872 4.656h2.832v.88h-2.832v-.88Zm1.264-1.792h3.584v.896h-3.584v-.896Zm-.768-6.48h8.688v.912h-8.688v-.912Zm-.4 3.84h9.28v.944h-9.28v-.944Zm1.056-1.936h7.536v.896h-7.536v-.896Zm3.04-1.424h1.152v3.776H299.2v-3.776Zm.016 6h1.12v5.2c0 .288-.037.512-.112.672-.064.16-.203.283-.416.368-.203.085-.475.133-.816.144-.341.021-.763.032-1.264.032a3.06 3.06 0 0 0-.128-.496 6.584 6.584 0 0 0-.192-.512c.352.011.672.016.96.016h.592c.107 0 .176-.021.208-.064.032-.032.048-.091.048-.176v-5.184Zm-1.296-1.136.608-.704c.405.107.832.24 1.28.4.459.16.896.331 1.312.512.416.171.763.336 1.04.496l-.624.784a9.06 9.06 0 0 0-1.024-.512 22.02 22.02 0 0 0-1.296-.528c-.448-.181-.88-.331-1.296-.448Zm-1.232-6.816.912-.368c.192.245.384.528.576.848.203.309.352.576.448.8l-.928.432a6.315 6.315 0 0 0-.432-.832 7.778 7.778 0 0 0-.576-.88Zm.912 9.744h.192l.176-.032.672.272c-.288.971-.752 1.792-1.392 2.464-.629.672-1.323 1.184-2.08 1.536a5.036 5.036 0 0 0-.304-.416 3.238 3.238 0 0 0-.352-.384c.448-.181.88-.427 1.296-.736a5.4 5.4 0 0 0 1.088-1.12c.32-.437.555-.907.704-1.408v-.176Zm5.68-1.312.896.672c-.427.363-.885.736-1.376 1.12-.491.373-.939.688-1.344.944l-.656-.544c.256-.192.539-.411.848-.656.309-.256.608-.517.896-.784.288-.277.533-.528.736-.752Zm-1.456-8.816 1.056.352c-.203.32-.405.629-.608.928a16.54 16.54 0 0 1-.576.8l-.848-.32c.16-.245.331-.533.512-.864.192-.341.347-.64.464-.896Zm-1.504 9.216c.267.619.619 1.2 1.056 1.744a8.02 8.02 0 0 0 1.504 1.44 7.164 7.164 0 0 0 1.824.976 5.177 5.177 0 0 0-.4.416 3.052 3.052 0 0 0-.352.48 7.793 7.793 0 0 1-1.84-1.152 9.31 9.31 0 0 1-1.504-1.664 9.76 9.76 0 0 1-1.072-2l.784-.24Zm-10.352-5.728h5.184v1.12h-5.184v-1.12Zm2.24-3.472h1.104v14.704h-1.104v-14.704Zm-.032 4.144.752.24a26.66 26.66 0 0 1-.48 1.984 25.567 25.567 0 0 1-.624 2.016 19.969 19.969 0 0 1-.752 1.84 9.59 9.59 0 0 1-.832 1.456 2.256 2.256 0 0 0-.272-.528c-.128-.203-.24-.373-.336-.512.267-.363.528-.795.784-1.296s.496-1.045.72-1.632c.224-.587.427-1.184.608-1.792.181-.619.325-1.211.432-1.776Zm1.056 1.36c.096.107.235.299.416.576.192.277.395.576.608.896.224.32.427.619.608.896.192.277.32.475.384.592l-.672.896a24.69 24.69 0 0 0-.384-.768c-.16-.309-.341-.635-.544-.976a47.789 47.789 0 0 0-.544-.944 15.779 15.779 0 0 0-.416-.672l.544-.496Zm14.464-5.504h1.2v14.704h-1.2v-14.704Zm-1.472 3.04.912.128c-.032.437-.085.917-.16 1.44a14.488 14.488 0 0 1-.272 1.536 10.98 10.98 0 0 1-.368 1.344l-.944-.32c.149-.363.277-.779.384-1.248.107-.48.197-.971.272-1.472.085-.512.144-.981.176-1.408Zm2.784-.096.848-.368c.245.427.475.896.688 1.408.224.501.379.923.464 1.264l-.896.464a5.944 5.944 0 0 0-.256-.832 17.47 17.47 0 0 0-.4-.992 8.73 8.73 0 0 0-.448-.944Zm3.28-2.208 1.168.192a23.19 23.19 0 0 1-.528 2.288 20.205 20.205 0 0 1-.688 2.096 10.784 10.784 0 0 1-.816 1.728 3.245 3.245 0 0 0-.32-.192 4.57 4.57 0 0 0-.4-.208 37.31 37.31 0 0 0-.352-.16 9.146 9.146 0 0 0 .832-1.616c.245-.619.459-1.28.64-1.984.192-.715.347-1.429.464-2.144Zm0 2.656h7.456v1.152h-7.824l.368-1.152Zm2.592-3.328h1.216v13.584h-1.216v-13.584Zm-3.392 7.808h7.904v1.12h-7.904v-1.12Zm-1.2 5.136h9.84v1.136h-9.84v-1.136Zm12.096-10.848h12.88v1.056h-12.88v-1.056Zm.784 2.464h11.296v1.024h-11.296v-1.024Zm1.472 8.64h10.912v1.056H324.64v-1.056Zm-2.976-6.176h14.208v1.088h-14.208v-1.088Zm4.512 2.304h8.304v1.056h-8.304v-1.056Zm1.952-6.72h1.232v5.184h-1.232v-5.184Zm1.296 7.232h1.216v3.808h-1.216v-3.808Zm-4.848-9.44 1.024-.416c.267.299.523.635.768 1.008s.421.704.528.992l-1.088.48a5.99 5.99 0 0 0-.512-1.008 9.598 9.598 0 0 0-.72-1.056Zm7.248-.496 1.264.384c-.235.373-.48.747-.736 1.12-.256.373-.491.699-.704.976l-1.008-.352a9.87 9.87 0 0 0 .432-.656c.149-.256.288-.512.416-.768.139-.256.251-.491.336-.704Zm-6.768 7.568 1.264.208c-.331 1.536-.827 2.896-1.488 4.08-.661 1.173-1.472 2.144-2.432 2.912a2.832 2.832 0 0 0-.304-.288c-.117-.107-.24-.213-.368-.32a7.59 7.59 0 0 0-.336-.24c.96-.661 1.739-1.536 2.336-2.624.608-1.099 1.051-2.341 1.328-3.728Zm20.864 5.216.784-.816c.608.192 1.221.405 1.84.64.619.224 1.2.448 1.744.672.555.213 1.035.421 1.44.624l-.992.88a20.024 20.024 0 0 0-1.344-.656 61.442 61.442 0 0 0-1.68-.688 32.577 32.577 0 0 0-1.792-.656Zm-8.464-2.032h14.32v1.056h-14.32v-1.056Zm1.008-2.896h12.368v1.056h-12.368v-1.056Zm2.832-1.792h1.216v5.136h-1.216v-5.136Zm2.656-4.912h1.168v4.768h-1.168v-4.768Zm2.736 4.912h1.216v5.136h-1.216v-5.136Zm-6.512-2.128v1.456h8.848v-1.456h-8.848Zm0-2.32v1.424h8.848v-1.424h-8.848Zm-1.168-.944h11.216v5.664h-11.216v-5.664Zm3.296 11.328 1.088.72c-.437.267-.944.528-1.52.784a23.51 23.51 0 0 1-1.776.704c-.608.224-1.195.411-1.76.56a13.488 13.488 0 0 0-.368-.464 4.028 4.028 0 0 0-.4-.432 29.718 29.718 0 0 0 1.712-.528 19.754 19.754 0 0 0 1.712-.656 9.153 9.153 0 0 0 1.312-.688Zm11.104-7.376h14.08v1.232h-14.08v-1.232Zm7.792.496a18.619 18.619 0 0 0 1.424 3.616 11.944 11.944 0 0 0 2.176 2.912 9.7 9.7 0 0 0 2.944 1.952 4.367 4.367 0 0 0-.32.32l-.32.416a3.002 3.002 0 0 0-.256.384 10.758 10.758 0 0 1-3.056-2.192 13.235 13.235 0 0 1-2.24-3.168 21.396 21.396 0 0 1-1.536-3.952l1.184-.288Zm-1.408-5.072h1.296c0 .693-.021 1.467-.064 2.32a26.35 26.35 0 0 1-.24 2.64 16.473 16.473 0 0 1-.64 2.752 12.223 12.223 0 0 1-1.216 2.672 10.79 10.79 0 0 1-1.968 2.384c-.8.736-1.781 1.371-2.944 1.904a3.192 3.192 0 0 0-.416-.528 4.924 4.924 0 0 0-.496-.464c1.131-.491 2.08-1.077 2.848-1.76a9.58 9.58 0 0 0 1.904-2.24c.491-.811.869-1.648 1.136-2.512.267-.864.453-1.723.56-2.576.107-.864.171-1.685.192-2.464.032-.779.048-1.488.048-2.128Zm10.96 15.136-.352-.848c.651-.267 1.147-.608 1.488-1.024.352-.416.528-.928.528-1.536l-.288-1.344.864 1.216a.93.93 0 0 1-.4.288 1.612 1.612 0 0 1-.448.064c-.331 0-.613-.096-.848-.288-.235-.192-.352-.475-.352-.848 0-.384.117-.672.352-.864a1.36 1.36 0 0 1 .864-.288c.448 0 .784.171 1.008.512.235.331.352.773.352 1.328 0 .864-.251 1.611-.752 2.24-.501.629-1.173 1.093-2.016 1.392Zm18.608-11.824 1.168.384c-.352.459-.757.912-1.216 1.36a16.248 16.248 0 0 1-2.944 2.224 2.193 2.193 0 0 0-.24-.304 4.855 4.855 0 0 0-.32-.352 2.543 2.543 0 0 0-.304-.288 12.304 12.304 0 0 0 2.128-1.344 9.615 9.615 0 0 0 1.728-1.68Zm4.096.688.816-.704c.491.288 1.003.619 1.536.992a25.26 25.26 0 0 1 1.504 1.104c.48.363.869.693 1.168.992l-.88.816a14.47 14.47 0 0 0-1.12-1.024 26.052 26.052 0 0 0-1.488-1.152 19.408 19.408 0 0 0-1.536-1.024Zm-1.376 2.208c-.437.576-1.003 1.173-1.696 1.792-.693.608-1.461 1.2-2.304 1.776a22.02 22.02 0 0 1-2.608 1.504 1.585 1.585 0 0 0-.192-.336 7.323 7.323 0 0 0-.24-.352 2.081 2.081 0 0 0-.256-.32 17.37 17.37 0 0 0 2.64-1.472 19.476 19.476 0 0 0 2.32-1.824c.693-.651 1.248-1.275 1.664-1.872h1.216a17.2 17.2 0 0 0 1.44 1.488c.544.491 1.12.955 1.728 1.392.608.427 1.227.816 1.856 1.168.64.352 1.269.651 1.888.896a6.12 6.12 0 0 0-.4.528c-.139.203-.261.389-.368.56-.587-.288-1.2-.619-1.84-.992a26.44 26.44 0 0 1-1.84-1.232 24.34 24.34 0 0 1-1.68-1.344 13.12 13.12 0 0 1-1.328-1.36Zm-4.416 3.136h8.848v5.312h-1.216v-4.24h-6.48v4.304h-1.152v-5.376Zm.544 3.76h7.728v1.072h-7.728v-1.072Zm3.2-13.12h1.232v2.08h-1.232v-2.08Zm-6.016 1.472h13.36v2.912h-1.232v-1.808h-10.96v1.808h-1.168v-2.912Zm18.656 2.8v1.6h7.904v-1.6h-7.904Zm0-2.528v1.568h7.904v-1.568h-7.904Zm-1.184-1.008h10.288v6.144h-10.288v-6.144Zm.896 7.504h9.584v1.088h-9.584v-1.088Zm9.28 0h1.216l-.016.096c0 .064-.005.139-.016.224 0 .085-.005.16-.016.224a40.465 40.465 0 0 1-.32 2.912c-.107.747-.224 1.323-.352 1.728-.128.395-.272.677-.432.848-.149.16-.315.272-.496.336a2.003 2.003 0 0 1-.608.112 6.72 6.72 0 0 1-.848.016c-.352 0-.731-.011-1.136-.032a3.016 3.016 0 0 0-.096-.528 1.815 1.815 0 0 0-.224-.528c.395.043.757.069 1.088.08.341.011.581.016.72.016.149 0 .267-.011.352-.032a.48.48 0 0 0 .24-.16c.128-.117.245-.357.352-.72.107-.373.208-.912.304-1.616a39.24 39.24 0 0 0 .288-2.784v-.192Zm-8.08-1.872 1.168.368a12.616 12.616 0 0 1-1.344 1.808 17.663 17.663 0 0 1-1.616 1.6c-.565.491-1.136.917-1.712 1.28a3.279 3.279 0 0 0-.272-.272 10.912 10.912 0 0 0-.352-.336 1.734 1.734 0 0 0-.32-.24 13.96 13.96 0 0 0 2.512-1.856c.8-.736 1.445-1.52 1.936-2.352Zm1.744 2.208 1.136.336a12.102 12.102 0 0 1-1.392 2.144 16.924 16.924 0 0 1-1.744 1.856 14.612 14.612 0 0 1-1.92 1.488 2.436 2.436 0 0 0-.256-.288l-.352-.32a4.249 4.249 0 0 0-.304-.256 12.767 12.767 0 0 0 2.768-2.144 11.946 11.946 0 0 0 2.064-2.816Zm3.312.08 1.152.272a15.066 15.066 0 0 1-1.664 3.344c-.672 1.013-1.419 1.856-2.24 2.528a3.901 3.901 0 0 0-.272-.24c-.117-.096-.24-.192-.368-.288-.117-.085-.219-.16-.304-.224.811-.619 1.536-1.397 2.176-2.336a12.571 12.571 0 0 0 1.52-3.056Zm13.28-2.336h6.16v1.056h-6.16v-1.056Zm-.032-3.84h6.928v1.104h-6.928v-1.104Zm2.96-2.464h1.184v6.928h-1.184v-6.928Zm-3.456 2.464h1.136v3.872c0 .619-.027 1.291-.08 2.016a20.662 20.662 0 0 1-.288 2.224 12.083 12.083 0 0 1-.592 2.192 7.455 7.455 0 0 1-1.04 1.952 2.34 2.34 0 0 0-.272-.224c-.117-.075-.24-.149-.368-.224a3.53 3.53 0 0 0-.336-.176 6.829 6.829 0 0 0 .992-1.84c.245-.661.427-1.333.544-2.016.128-.693.208-1.376.24-2.048.043-.672.064-1.296.064-1.872v-3.856Zm2.192 4.384c.491 1.653 1.259 3.083 2.304 4.288s2.373 2.059 3.984 2.56a4.14 4.14 0 0 0-.304.304l-.288.384a5.06 5.06 0 0 0-.224.368c-1.675-.619-3.045-1.584-4.112-2.896-1.056-1.312-1.856-2.891-2.4-4.736l1.04-.272Zm4.88-4.384h.176l.208-.048.832.192a24.512 24.512 0 0 1-.464 1.712 13.857 13.857 0 0 1-.512 1.488l-1.024-.224c.139-.363.283-.821.432-1.376a18.4 18.4 0 0 0 .352-1.552v-.192Zm-.64 3.84h.224l.208-.064.768.288c-.331 1.44-.821 2.693-1.472 3.76a10.779 10.779 0 0 1-2.304 2.704 11.467 11.467 0 0 1-2.864 1.728 3.294 3.294 0 0 0-.208-.352 7.323 7.323 0 0 0-.24-.352 2.268 2.268 0 0 0-.272-.288 9.156 9.156 0 0 0 2.656-1.504 9.975 9.975 0 0 0 2.16-2.448c.619-.96 1.067-2.048 1.344-3.264v-.208Zm-10.496 1.536 1.136-1.36v8.24h-1.136v-6.88Zm-2.208-4.88h4.704v1.088h-4.704v-1.088Zm2.16-2.928h1.136v3.536h-1.136v-3.536Zm1.056 6.464c.117.107.288.293.512.56.235.256.48.539.736.848.267.309.507.597.72.864.224.267.384.459.48.576l-.72.816a10.229 10.229 0 0 0-.496-.72 28.816 28.816 0 0 0-.672-.912c-.235-.32-.464-.613-.688-.88a23.335 23.335 0 0 0-.512-.624l.64-.528Zm1.2-3.536h.24l.208-.048.64.432a15.16 15.16 0 0 1-1.392 2.704 17.947 17.947 0 0 1-1.856 2.384 14.664 14.664 0 0 1-2.016 1.808 3.663 3.663 0 0 0-.176-.368 2.26 2.26 0 0 0-.224-.384 1.507 1.507 0 0 0-.224-.304 12.05 12.05 0 0 0 1.888-1.584 14.86 14.86 0 0 0 1.712-2.096c.512-.757.912-1.525 1.2-2.304v-.24Zm.784 2.864.752.544c-.245.341-.507.688-.784 1.04-.277.352-.533.651-.768.896l-.608-.448c.149-.181.309-.389.48-.624.181-.245.352-.491.512-.736.171-.256.309-.48.416-.672Zm17.232-3.856h7.632v1.056h-7.632v-1.056Zm-.608 3.424h8.592v1.072h-8.592v-1.072Zm1.728 5.008h5.264v.944h-5.264v-.944Zm0 2.56h5.264v1.024h-5.264v-1.024Zm-.496-5.104h6.416v6.816h-1.152v-5.824h-4.16v5.856h-1.104v-6.848Zm.896-7.872h1.104v5.984h-1.104v-5.984Zm3.232 0h1.12v5.984h-1.12v-5.984Zm-10.464 3.952h4.656v1.04h-4.656v-1.04Zm-.816 2.736h5.968v1.056H432.4v-1.056Zm.336 2.176.848-.208c.171.469.32.981.448 1.536.128.544.213 1.019.256 1.424l-.912.24a9.164 9.164 0 0 0-.208-1.44 11.998 11.998 0 0 0-.432-1.552Zm-.512 4.288c.523-.096 1.131-.203 1.824-.32.693-.128 1.429-.267 2.208-.416a84.93 84.93 0 0 1 2.352-.448l.064 1.024a757.5 757.5 0 0 1-2.192.448l-2.112.432c-.672.139-1.291.261-1.856.368l-.288-1.088Zm5.072-4.688.976.272a58.28 58.28 0 0 0-.48 1.584c-.16.544-.32 1.003-.48 1.376l-.752-.256c.085-.267.176-.576.272-.928.096-.352.187-.709.272-1.072.085-.363.149-.688.192-.976Zm-2.336-4.048h1.072v8.656l-1.072.16v-8.816Zm-.08-4.416h.64v.256h.352v.32c-.192.405-.443.859-.752 1.36-.299.491-.645.992-1.04 1.504a11.033 11.033 0 0 1-1.376 1.472 1.575 1.575 0 0 0-.224-.272 2.268 2.268 0 0 0-.272-.288 1.575 1.575 0 0 0-.272-.224 9.264 9.264 0 0 0 1.264-1.328c.384-.48.715-.96.992-1.44s.507-.933.688-1.36Zm.176 0h.896c.352.299.709.629 1.072.992.373.363.72.725 1.04 1.088.32.363.581.688.784.976l-.816.912a12.253 12.253 0 0 0-.752-.992 18.413 18.413 0 0 0-.976-1.12c-.341-.384-.677-.72-1.008-1.008h-.24v-.848Zm15.296 6.048h9.168v1.168h-9.168v-1.168Zm8.752 0h1.248v.368c0 .085-.005.155-.016.208a149.908 149.908 0 0 1-.192 3.184 26.156 26.156 0 0 1-.208 2.16c-.075.576-.16 1.029-.256 1.36-.096.331-.219.571-.368.72a1.27 1.27 0 0 1-.528.416 2.143 2.143 0 0 1-.704.16c-.267.021-.635.027-1.104.016-.459 0-.939-.016-1.44-.048a2.393 2.393 0 0 0-.128-.608 2.024 2.024 0 0 0-.272-.592c.523.043 1.008.069 1.456.08.448.021.768.032.96.032.16 0 .293-.016.4-.048a.633.633 0 0 0 .272-.16c.16-.149.288-.469.384-.96.107-.501.197-1.237.272-2.208.085-.981.16-2.261.224-3.84v-.24Zm-6.56-5.728 1.28.368a18.225 18.225 0 0 1-1.392 2.576 16.046 16.046 0 0 1-1.728 2.256 14.388 14.388 0 0 1-1.936 1.792 4.106 4.106 0 0 0-.304-.304 13.022 13.022 0 0 0-.4-.352 5.857 5.857 0 0 0-.336-.288 11.367 11.367 0 0 0 1.936-1.616 14.119 14.119 0 0 0 1.648-2.064c.491-.757.901-1.547 1.232-2.368Zm5.584-.032c.256.533.571 1.083.944 1.648.373.555.779 1.093 1.216 1.616.437.512.885.992 1.344 1.44.469.437.923.811 1.36 1.12a6.88 6.88 0 0 0-.736.688 3.632 3.632 0 0 0-.272.368 14.688 14.688 0 0 1-1.36-1.264 25.694 25.694 0 0 1-1.36-1.584 26.251 26.251 0 0 1-1.248-1.76 24.366 24.366 0 0 1-1.04-1.808l1.152-.464Zm-4.4 6.096h1.296a19.949 19.949 0 0 1-.416 2.56 9.436 9.436 0 0 1-.88 2.352c-.395.736-.944 1.403-1.648 2-.693.597-1.6 1.099-2.72 1.504a4.89 4.89 0 0 0-.208-.368 4.365 4.365 0 0 0-.288-.384 2.656 2.656 0 0 0-.288-.304c1.045-.341 1.888-.773 2.528-1.296.651-.533 1.152-1.125 1.504-1.776a7.896 7.896 0 0 0 .768-2.064c.16-.725.277-1.467.352-2.224Zm18.288-6.352h1.28c0 1.216.037 2.395.112 3.536a39.67 39.67 0 0 0 .336 3.2c.149 1.003.331 1.915.544 2.736.213.821.448 1.531.704 2.128.267.587.549 1.045.848 1.376.299.32.608.48.928.48.235 0 .405-.229.512-.688.107-.459.187-1.227.24-2.304.128.139.293.272.496.4s.389.224.56.288c-.075.917-.181 1.632-.32 2.144-.139.512-.336.875-.592 1.088-.245.213-.576.32-.992.32-.533 0-1.019-.187-1.456-.56-.427-.373-.811-.896-1.152-1.568-.341-.672-.64-1.461-.896-2.368a29.063 29.063 0 0 1-.624-3.024 41.357 41.357 0 0 1-.384-3.472 60.846 60.846 0 0 1-.144-3.712Zm2.24.752.704-.736c.331.139.672.304 1.024.496s.683.389.992.592c.309.203.56.395.752.576l-.736.832a6.424 6.424 0 0 0-.752-.592 12.097 12.097 0 0 0-.976-.624 13.217 13.217 0 0 0-1.008-.544Zm2.08 4.112 1.2.288c-.704 2.155-1.659 4.032-2.864 5.632a14.862 14.862 0 0 1-4.304 3.904 3.022 3.022 0 0 0-.272-.304 10.851 10.851 0 0 1-.336-.352 2.183 2.183 0 0 0-.32-.272 13.251 13.251 0 0 0 4.224-3.616c1.152-1.504 2.043-3.264 2.672-5.28Zm-12.064-2.336h13.888v1.184h-13.888v-1.184Zm-.096 9.824a185.26 185.26 0 0 0 2.032-.384c.779-.16 1.6-.331 2.464-.512.864-.181 1.728-.357 2.592-.528l.096 1.136a911.7 911.7 0 0 1-2.48.544c-.832.181-1.632.357-2.4.528-.757.16-1.445.309-2.064.448l-.24-1.232Zm2.128-6.176v2.784h3.264v-2.784h-3.264Zm-1.12-1.056h5.552v4.88h-5.552v-4.88Zm14.656 8.08h14.352v.976H479.84v-.976Zm.096-10.4h14.176v.992h-14.176v-.992Zm1.104 8.048h12.144v.96H481.04v-.96Zm5.312-9.664h1.2v12.48h-1.2v-12.48Zm5.568-1.12.64.928c-.715.128-1.525.245-2.432.352-.896.096-1.84.181-2.832.256-.992.064-1.989.123-2.992.176a93.552 93.552 0 0 1-2.912.08c0-.139-.032-.299-.096-.48a3.25 3.25 0 0 0-.16-.464c.928-.032 1.888-.069 2.88-.112a214.01 214.01 0 0 0 2.944-.176c.971-.075 1.877-.16 2.72-.256.853-.096 1.6-.197 2.24-.304Zm-9.2 7.584v1.216h8.64v-1.216h-8.64Zm0-2.016v1.2h8.64v-1.2h-8.64Zm-1.168-.864h11.024v4.976h-11.024v-4.976Zm22.128 4.448h4.592v.928h-5.248l.656-.928Zm4.24 0h.256l.224-.048.72.432a7.185 7.185 0 0 1-1.968 2.496 10.394 10.394 0 0 1-2.832 1.632 17.809 17.809 0 0 1-3.344.976 3.53 3.53 0 0 0-.176-.336 8.061 8.061 0 0 0-.24-.384 1.507 1.507 0 0 0-.224-.304 18.446 18.446 0 0 0 3.2-.8c1.013-.352 1.899-.811 2.656-1.376a5.733 5.733 0 0 0 1.728-2.096v-.192Zm-4.368.64a6.45 6.45 0 0 0 1.616 1.76 9.725 9.725 0 0 0 2.352 1.28c.896.341 1.861.592 2.896.752a4.21 4.21 0 0 0-.272.304 8.224 8.224 0 0 0-.272.384 4.467 4.467 0 0 1-.208.352 13.707 13.707 0 0 1-2.96-.912 10.036 10.036 0 0 1-2.416-1.504 8.018 8.018 0 0 1-1.728-2.08l.992-.336Zm-.24-3.552v1.072h4.672v-1.072h-4.672Zm0-1.84v1.056h4.672v-1.056h-4.672Zm-1.104-.832h6.928v4.576h-6.928v-4.576Zm.464-2.064h7.424v1.024h-7.424v-1.024Zm.384-1.6 1.136.176a20.963 20.963 0 0 1-1.12 2.336c-.437.8-.987 1.547-1.648 2.24a2.35 2.35 0 0 0-.4-.4 2.554 2.554 0 0 0-.448-.304 9.631 9.631 0 0 0 1.52-2.016c.416-.736.736-1.413.96-2.032Zm1.232 7.872 1.184.224a12.7 12.7 0 0 1-1.744 2.096c-.693.683-1.525 1.307-2.496 1.872a2.617 2.617 0 0 0-.24-.272 1.783 1.783 0 0 0-.288-.288 1.575 1.575 0 0 0-.272-.224c.917-.48 1.701-1.024 2.352-1.632.651-.619 1.152-1.211 1.504-1.776Zm-6.576-.032 1.088-1.296v8.176h-1.088v-6.88Zm-2.016-4.8h4.352v1.056h-4.352v-1.056Zm1.968-2.96h1.104v3.536h-1.104v-3.536Zm1.008 6.528.464.56c.224.256.459.539.704.848.245.299.469.576.672.832.203.256.347.443.432.56l-.72.816a6.018 6.018 0 0 0-.432-.704c-.192-.288-.4-.587-.624-.896a22.954 22.954 0 0 0-.624-.864c-.192-.267-.352-.48-.48-.64l.608-.512Zm.944-3.568h.224l.208-.048.624.4c-.32.971-.736 1.92-1.248 2.848a19.865 19.865 0 0 1-1.68 2.544 13.485 13.485 0 0 1-1.824 1.952 1.83 1.83 0 0 0-.16-.336 3.396 3.396 0 0 0-.24-.384 1.925 1.925 0 0 0-.224-.288 11.734 11.734 0 0 0 1.712-1.76 16.649 16.649 0 0 0 1.536-2.24c.459-.811.816-1.627 1.072-2.448v-.24Zm.912 2.912.72.528c-.213.341-.443.688-.688 1.04a18.41 18.41 0 0 1-.672.912l-.576-.448c.192-.267.405-.597.64-.992.245-.395.437-.741.576-1.04Zm20.656.976h1.088v7.728h-1.088v-7.728Zm-7.04.96h1.04v5.136h-1.04v-5.136Zm-2.096 1.344h.96v4.128h-.96v-4.128Zm6.384-.688h6.032v.976h-4.992v3.952h-1.04v-4.928Zm.288-7.968h5.952v4.672h-5.984v-.896h4.88v-2.88h-4.848v-.896Zm-6.144.768h4.56v3.056h-4.56v-.896h3.536v-1.264h-3.536v-.896Zm5.024 1.12h8.432v.88H517.6v-.88Zm-2.944 7.296h2.72v.976h-2.72v-.976Zm9.408-1.216h1.056v3.744c0 .245-.027.437-.08.576a.645.645 0 0 1-.32.336 1.625 1.625 0 0 1-.656.144c-.267.011-.597.016-.992.016a1.539 1.539 0 0 0-.112-.448 3.793 3.793 0 0 0-.176-.464c.256.011.48.016.672.016h.416c.128 0 .192-.064.192-.192v-3.728Zm-6.176-2.48h7.792v2.208h-1.04v-1.28h-5.744v1.28h-1.008v-2.208Zm-4.032-6.08 1.216.192c-.117.299-.235.592-.352.88-.117.277-.224.523-.32.736l-.976-.208c.085-.235.165-.501.24-.8.085-.309.149-.576.192-.8Zm-1.76 1.36h1.024v6.624h-1.024v-6.624Zm-.832 11.696c.533-.075 1.141-.165 1.824-.272l2.192-.368c.779-.139 1.557-.272 2.336-.4l.048 1.056-3.328.576c-1.099.203-2.069.379-2.912.528l-.16-1.12Zm.832-5.6h4.08v-1.312h-3.568v-.928h4.576v3.152h-5.088v-.912Zm15.232 1.488h6.816v1.056h-6.816v-1.056Zm0-6.08h6.72v.976h-6.72v-.976Zm5.536-2.512 1.024.32-.576 1.056c-.192.341-.373.64-.544.896l-.816-.304c.16-.277.325-.603.496-.976.181-.373.32-.704.416-.992Zm-2.72-.16h1.072v7.072h-1.072v-7.072Zm-2.528.528.848-.336c.203.288.395.608.576.96.181.341.304.64.368.896l-.896.368a4.674 4.674 0 0 0-.352-.928 8.147 8.147 0 0 0-.544-.96Zm2.56 10.544.752-.72c.331.224.688.475 1.072.752.384.277.747.555 1.088.832.352.267.64.507.864.72l-.784.816a11.064 11.064 0 0 0-.832-.736 24.058 24.058 0 0 0-1.088-.864 30.38 30.38 0 0 0-1.072-.8Zm.976-7.232c.149.075.363.203.64.384a36.241 36.241 0 0 1 1.792 1.136c.267.171.459.299.576.384l-.656.88a6.186 6.186 0 0 0-.608-.512 14.005 14.005 0 0 0-.832-.64 19.186 19.186 0 0 0-.848-.624 11.646 11.646 0 0 0-.672-.464l.608-.544Zm-1.088-.64.8.304a9.169 9.169 0 0 1-.848 1.36c-.331.448-.693.864-1.088 1.248a6.94 6.94 0 0 1-1.168.928 3.087 3.087 0 0 0-.336-.416 3.292 3.292 0 0 0-.384-.384 6.206 6.206 0 0 0 1.136-.784 9.422 9.422 0 0 0 1.072-1.088c.331-.395.603-.784.816-1.168Zm4.096-2.624h7.6v1.056h-7.6v-1.056Zm1.632 5.936v1.536h4.32v-1.536h-4.32Zm0 2.432v1.568h4.32v-1.568h-4.32Zm0-4.864v1.52h4.32v-1.52h-4.32Zm-1.104-.96h6.576v8.336h-6.576v-8.336Zm2.624-2.048 1.312.176a34.96 34.96 0 0 1-.448 1.376c-.16.459-.309.859-.448 1.2l-1.024-.208c.075-.235.149-.501.224-.8.085-.309.16-.613.224-.912.075-.309.128-.587.16-.832Zm-1.152 10.688 1.056.608a9.996 9.996 0 0 1-.976.816 9.686 9.686 0 0 1-1.184.752 11.48 11.48 0 0 1-1.2.608 5.926 5.926 0 0 0-.384-.416 3.245 3.245 0 0 0-.416-.384c.395-.16.789-.347 1.184-.56a12.23 12.23 0 0 0 1.104-.704c.341-.256.613-.496.816-.72Zm2.336.688.88-.608c.309.192.635.411.976.656.352.235.683.475.992.72.32.245.581.469.784.672l-.944.656a8.397 8.397 0 0 0-.736-.672 19.084 19.084 0 0 0-.96-.736 15.374 15.374 0 0 0-.992-.688Zm-8.368-5.024h1.088v1.648c0 .437-.043.891-.128 1.36a4.661 4.661 0 0 1-.464 1.376c-.235.459-.587.896-1.056 1.312-.469.416-1.099.8-1.888 1.152a2.473 2.473 0 0 0-.176-.32 24.43 24.43 0 0 0-.24-.336 1.848 1.848 0 0 0-.24-.256c.704-.309 1.264-.64 1.68-.992.416-.352.725-.715.928-1.088.203-.384.336-.763.4-1.136a6.52 6.52 0 0 0 .096-1.104v-1.616Z"/><path fill="#fff" d="M668 130.411h238v64H668v-64Z"/><path fill="#fff" d="M906 194.411v1h1v-1h-1Zm0-64h-1v64h2v-64h-1Zm0 64v-1H668v2h238v-1Z"/><path fill="#fff" d="M906 130.411h238v52c0 6.628-5.37 12-12 12H906v-64Z"/><path fill="#fff" d="M906 130.411h238-238Zm239 52c0 7.18-5.82 13-13 13H906v-2h226c6.08 0 11-4.925 11-11h2Zm-239 12v-64 64Zm239-64v52c0 7.18-5.82 13-13 13v-2c6.08 0 11-4.925 11-11v-52h2Z"/><path fill="#2A2A2A" d="M932.96 155.931h7.872v1.152h-7.872v-1.152Zm4.688 4.768h1.216v7.456c0 .373-.053.656-.16.848-.107.203-.293.357-.56.464-.277.085-.656.133-1.136.144-.469.021-1.099.032-1.888.032a3.166 3.166 0 0 0-.144-.576 4.027 4.027 0 0 0-.256-.608l1.088.032c.341.011.64.011.896 0h.528c.149-.011.256-.037.32-.08.064-.053.096-.144.096-.272v-7.44Zm-5.392-.352h9.024v1.152h-9.024v-1.152Zm-3.184 1.248 1.056-1.056.128.064v9.136h-1.184v-8.144Zm1.84-3.2 1.136.416a19.217 19.217 0 0 1-1.408 2.016 22.443 22.443 0 0 1-3.392 3.44 8.235 8.235 0 0 0-.256-.32 9.272 9.272 0 0 0-.304-.384 2.832 2.832 0 0 0-.288-.304 14.6 14.6 0 0 0 1.648-1.376 18.114 18.114 0 0 0 1.568-1.68c.501-.597.933-1.2 1.296-1.808Zm-.64-3.44 1.152.48c-.352.459-.763.933-1.232 1.424-.459.48-.944.944-1.456 1.392-.501.437-.992.827-1.472 1.168a5.38 5.38 0 0 0-.208-.304 2.852 2.852 0 0 0-.256-.368 1.396 1.396 0 0 0-.24-.288c.448-.309.901-.661 1.36-1.056.469-.395.907-.805 1.312-1.232.416-.427.763-.832 1.04-1.216Zm21.856 7.552h1.184v6.416h-1.184v-6.416Zm-3.504-.432h8.256v1.056h-8.256v-1.056Zm-.704 6.128h9.312v1.056h-9.312v-1.056Zm1.072-3.136h7.536v1.04h-7.536v-1.04Zm1.344-8.384v2.944h4.832v-2.944h-4.832Zm-1.12-1.04h7.12v5.024h-7.12v-5.024Zm-4 .656h1.184v13.36h-1.184v-13.36Zm-2.608 3.184h5.792v1.12h-5.792v-1.12Zm2.672.432.752.32c-.16.565-.357 1.152-.592 1.76a32.827 32.827 0 0 1-.768 1.792 17.56 17.56 0 0 1-.864 1.664 9.116 9.116 0 0 1-.912 1.312 4.018 4.018 0 0 0-.288-.56 5.402 5.402 0 0 0-.336-.544 8.1 8.1 0 0 0 .88-1.152c.288-.448.565-.933.832-1.456.277-.523.528-1.051.752-1.584.224-.544.405-1.061.544-1.552Zm2.32-4.72.832.928c-.491.192-1.051.373-1.68.544-.629.171-1.28.32-1.952.448-.661.117-1.307.219-1.936.304a1.92 1.92 0 0 0-.144-.448 7.36 7.36 0 0 0-.208-.464 80.04 80.04 0 0 0 1.84-.352c.64-.128 1.243-.272 1.808-.432a11.492 11.492 0 0 0 1.44-.528Zm-1.264 6.336c.107.096.261.251.464.464.213.203.443.427.688.672.245.235.464.459.656.672.203.213.347.368.432.464l-.72.944a8.052 8.052 0 0 0-.416-.608 21.143 21.143 0 0 0-.576-.784 33.26 33.26 0 0 0-.608-.768 12.887 12.887 0 0 0-.48-.56l.56-.496Zm15.68 7.776a20.022 20.022 0 0 0-1.12-1.28 33.284 33.284 0 0 0-1.232-1.232c-.405-.395-.8-.747-1.184-1.056l1.04-.912c.384.309.789.667 1.216 1.072.427.405.843.821 1.248 1.248.416.427.789.837 1.12 1.232l-1.088.928Zm18.864-7.392h7.872v.88h-7.872v-.88Zm-.288 6.576h8.272v.896h-8.272v-.896Zm2.688-13.52h.896v2.016h-.896v-2.016Zm2.048 0h.896v2.016h-.896v-2.016Zm-2.64 9.392v1.392h4.192v-1.392h-4.192Zm-1.008-.8h6.24v2.992h-6.24v-2.992Zm.624-4.384v1.104h4.944v-1.104h-4.944Zm0-1.904v1.088h4.944v-1.088h-4.944Zm-.928-.832h6.848v4.672h-6.848v-4.672Zm1.056 10.432.864-.288c.181.267.331.576.448.928.128.341.219.64.272.896l-.912.336a6.25 6.25 0 0 0-.24-.912 4.903 4.903 0 0 0-.432-.96Zm3.728-.32 1.008.288c-.16.331-.331.667-.512 1.008l-.448.864-.8-.272c.139-.267.277-.581.416-.944a8.86 8.86 0 0 0 .336-.944Zm-10.208-2.624h3.552v.88h-3.552v-.88Zm0 2.048h3.552v.88h-3.552v-.88Zm-.576-4.048h4.096v.864h-3.056v6.896h-1.04v-7.76Zm3.44 0h1.04v6.624c0 .256-.027.459-.08.608-.053.149-.171.267-.352.352a1.793 1.793 0 0 1-.688.144c-.267.021-.613.032-1.04.032a1.92 1.92 0 0 0-.112-.48 3.726 3.726 0 0 0-.208-.464c.288.011.544.016.768.016h.448c.149-.011.224-.085.224-.224v-6.608Zm-3.44-6.4h4.512v4.864h-.96v-3.952h-2.64v3.952h-.912v-4.864Zm-.928 4.448h6.384v2.32h-.96v-1.424h-4.496v1.424h-.928v-2.32Zm2.688-2.496h2.4v.768h-1.648v2.08h-.752v-2.848Zm6.288-.72h.752v3.936h-.752v-3.936Zm1.904 0h.752v3.936h-.752v-3.936Zm12.8 2.048h4.402v.944h-4.402v-.944Zm-.544 2.784v2.032h1.472v-2.032h-1.472Zm-.848-.832h3.216v3.696h-3.216v-3.696Zm4.884.832v2.032h1.56v-2.032h-1.56Zm-.87-.832h3.33v3.696h-3.33v-3.696Zm-2.814 4.128 1.024.08c-.149 1.067-.421 2-.816 2.8a5.596 5.596 0 0 1-1.616 1.968 1.73 1.73 0 0 0-.208-.24 7.345 7.345 0 0 0-.288-.272 1.319 1.319 0 0 0-.272-.192 4.47 4.47 0 0 0 1.472-1.712c.352-.704.587-1.515.704-2.432Zm-.192 2.064.672-.608c.331.299.672.629 1.024.992.363.352.64.656.83.912l-.686.72a8.735 8.735 0 0 0-.816-.976 18.84 18.84 0 0 0-1.024-1.04Zm4.196-2.08 1.04.08c-.15 1.056-.44 1.984-.85 2.784a5.76 5.76 0 0 1-1.62 1.952 2.122 2.122 0 0 0-.21-.224 4.162 4.162 0 0 0-.3-.288 2.081 2.081 0 0 0-.272-.208 4.486 4.486 0 0 0 1.472-1.696c.36-.693.61-1.493.74-2.4Zm-.24 2.16.75-.528c.28.256.56.544.85.864.29.309.57.613.83.912.26.288.48.549.64.784l-.8.624a6.934 6.934 0 0 0-.61-.832 33.76 33.76 0 0 0-.82-.944c-.28-.32-.57-.613-.84-.88Zm-1.46-10.944c-.267.48-.603.971-1.008 1.472s-.859.976-1.36 1.424c-.491.437-1.013.827-1.568 1.168a2.454 2.454 0 0 0-.256-.496 3.997 3.997 0 0 0-.336-.48 8.795 8.795 0 0 0 1.584-1.136 11.77 11.77 0 0 0 1.36-1.472c.405-.523.736-1.04.992-1.552h1.102c.33.544.72 1.077 1.17 1.6.46.512.94.976 1.44 1.392.51.416 1.02.763 1.54 1.04-.11.128-.23.293-.36.496-.11.203-.21.384-.28.544-.51-.309-1.01-.683-1.51-1.12-.5-.437-.97-.901-1.41-1.392-.43-.501-.8-.997-1.1-1.488Zm-8.992 1.984h4.448v.944h-4.448v-.944Zm0 2.4h4.464v.944h-4.464v-.944Zm-.608 2.432h4.88v.96h-4.88v-.96Zm2.4-6.736h.976v7.232h-.976v-7.232Zm.496 8.576.528-.192c.213.32.405.677.576 1.072.181.384.315.715.4.992l-.592.24a5.72 5.72 0 0 0-.384-1.024 13.19 13.19 0 0 0-.528-1.088Zm-.992.224.592-.128c.16.405.299.853.416 1.344.128.48.208.891.24 1.232l-.608.144a9.299 9.299 0 0 0-.224-1.248 9.92 9.92 0 0 0-.416-1.344Zm-.976.176.624-.08c.075.469.133.976.176 1.52.053.533.075.992.064 1.376l-.672.096a12.81 12.81 0 0 0-.016-1.408 12.219 12.219 0 0 0-.176-1.504Zm-1.04-.304.736.144c-.021.469-.064.944-.128 1.424a9.71 9.71 0 0 1-.24 1.328 3.15 3.15 0 0 1-.448 1.072l-.688-.384c.277-.405.464-.933.56-1.584a17.81 17.81 0 0 0 .208-2Zm.112-9.232H996v.992h-4.368v6.848h-.992v-7.84Zm4.496 7.296h.992v.176c0 .117-.005.213-.016.288a131.284 131.284 0 0 1-.16 3.216c-.053.8-.123 1.408-.208 1.824-.075.405-.176.688-.304.848a1.18 1.18 0 0 1-.368.304 1.195 1.195 0 0 1-.464.112 3.489 3.489 0 0 1-.608.016h-.784a3.171 3.171 0 0 0-.08-.496 2.654 2.654 0 0 0-.16-.464c.256.032.491.048.704.048.224.011.384.016.48.016a.841.841 0 0 0 .256-.032.36.36 0 0 0 .176-.144c.085-.107.16-.347.224-.72.064-.384.123-.96.176-1.728.053-.779.101-1.803.144-3.072v-.192Z"/></svg>