<?xml version="1.0" encoding="iso-8859-1"?>
<!-- Generator: Adobe Illustrator 24.2.3, SVG Export Plug-In . SVG Version: 6.00 Build 0)  -->
<svg version="1.1" id="&#x5716;&#x5C64;_1" xmlns="http://www.w3.org/2000/svg" xmlns:xlink="http://www.w3.org/1999/xlink" x="0px"
	 y="0px" viewBox="0 0 694.259 1214.763" style="enable-background:new 0 0 694.259 1214.763;" xml:space="preserve">
<path style="opacity:0.07;fill:#C9C08E;" d="M109.942,0.004L86.803,23.149L63.658,0.004L63.654,0H52.507l0.002,0.004L37.135,15.373
	v21.74H15.39L0.018,52.486H0.016L0,52.47v11.182l0.016-0.016h0.002l23.145,23.141L0.018,109.926l-0.002-0.004v0.004L0,109.91v11.174
	l0.016-0.016h0.002l15.372,15.373h21.745v21.744l15.373,15.373l-15.373,15.373v21.743H15.39L0.026,226.04H0.022l-0.006,0.008
	L0,226.032v11.178l0.016-0.016h0.002l23.143,23.145L0.018,283.483L0,283.464v11.182l0.016-0.016l15.374,15.373h21.741v21.743
	l15.373,15.378l-15.373,15.369v21.744l-21.741-0.008L0.026,399.602l-0.008-0.008l-0.002,0.012L0,399.59v11.174l0.018-0.016
	l23.145,23.145L0.016,457.037L0,457.021v11.186l0.016-0.016l15.374,15.37h21.741v21.747l15.373,15.365l-15.373,15.378v21.74H15.39
	L0.026,573.164l-0.008-0.004l-0.002,0.012L0,573.156v11.17l0.016-0.016h0.002l23.145,23.145L0.016,630.599L0,630.583v11.186
	l0.016-0.016l15.374,15.365h21.741v21.744l15.373,15.373l-15.373,15.378v21.731H15.39L0.018,746.722v-0.004l-0.002,0.004L0,746.706
	v11.182l0.018-0.02l23.145,23.149L0.016,804.161L0,804.145v11.178l0.018-0.016L15.39,830.68h21.745v21.747l15.369,15.366
	l-15.369,15.373v21.743H15.39L0.018,920.283v-0.004l-0.002,0.004L0,920.267v11.178l0.016-0.017h0.002l23.145,23.141L0.016,977.714
	L0,977.698v11.19l0.016-0.016l15.374,15.365h21.741v21.74l15.373,15.373l-15.373,15.382v21.735H15.39l-15.364,15.373h-0.01
	L0,1093.825v11.186l0.022-0.02l23.141,23.141l-23.145,23.145H0.016L0,1151.26v11.178l0.018-0.016l15.372,15.374h21.741v21.747
	l15.218,15.22h11.452l23.002-23.004l22.991,23.004h11.454l15.216-15.22v-21.739l21.738-0.008l15.375-15.374l15.371,15.374h21.742
	v21.747l15.22,15.22h11.449l22.996-23.004l23,23.004H294.8l15.223-15.22v-21.739l21.739-0.008l15.374-15.374l15.369,15.374h21.752
	v21.747l15.208,15.22h11.451l23.006-23.004l22.994,23.004h11.444l15.22-15.22v-21.739l21.739-0.008l15.371-15.374l15.375,15.374
	h21.744v21.747l15.218,15.22h11.451l22.996-23.004l23,23.004h11.436l15.237-15.22v-21.739l21.736-0.008l15.375-15.374v-11.154
	l-0.006,0.008l-23.139-23.141l23.139-23.145h0.006v-11.15h-0.006l-15.369-15.373H657.14l0.008-21.735l-15.384-15.382l15.384-15.365
	v-21.748h21.736l15.375-15.365v-11.158h-0.006l-23.139-23.145l23.139-23.141h0.006v-11.15l-0.006,0.004l-15.369-15.373h-21.736
	v-21.743l-15.384-15.373h0.004l-0.004-0.004l15.384-15.361V830.68h21.736l15.375-15.373v-11.154l-0.006,0.008l-23.149-23.144
	l23.149-23.145l0.006-0.004v-11.15l-0.006,0.004l-15.369-15.378h-21.736v-21.731l-15.384-15.378l15.384-15.373v-21.744h21.736
	l15.369-15.365l0.006,0.004v-11.162l-0.006,0.004l-23.149-23.145l23.155-23.145v-11.15l-0.006,0.012l-15.369-15.381h-21.736v-21.74
	l-15.384-15.378l15.384-15.365V483.56h21.736l15.375-15.37v-11.157l-0.006,0.004l-23.149-23.141l23.149-23.149h0.006v-11.154
	l-0.006,0.012l-15.369-15.378H657.14l0.008-21.743l-15.384-15.361l0.004-0.004h-0.004l15.384-15.373v-21.743h21.736l15.369-15.373
	l0.006,0.008v-11.162l-0.006,0.008l-23.139-23.144l23.145-23.145V226.04l-0.006,0.008l-15.369-15.373H657.14v-21.743l-15.375-15.373
	v-0.004l15.375-15.369v-21.744h21.744l15.369-15.373l0.006,0.008v-11.154l-0.006,0.004l-23.149-23.149l23.149-23.141h0.006v-11.15
	h-0.006l-15.369-15.373H657.14l0.008-21.74L641.765,0.004V0h-11.141l-23.147,23.149L584.334,0.004V0h-11.152l0.002,0.004
	l-15.373,15.369v21.74h-21.744L520.7,52.486l-15.38-15.373h-21.739V15.369L468.205,0.004L468.207,0h-11.143l-0.006,0.004h0.006
	l-23.145,23.145L410.774,0.004V0H399.62l0.002,0.004l-15.366,15.369v21.74h-21.752l-15.373,15.373l-15.37-15.373h-21.739V15.369
	L294.647,0.004L294.653,0H283.5l-23.143,23.149L237.214,0.004V0h-11.15l0.002,0.004l-15.375,15.369v21.74h-21.742l-15.365,15.373
	h-0.006l-15.373-15.373h-21.74v-21.74L121.094,0.004L121.096,0h-11.154l-0.006,0.004H109.942z M105.776,53.268v14.536h14.53
	l18.979,18.973l-18.979,18.973h-14.534v14.544l-18.973,18.973l-18.977-18.981V105.75H53.286L34.313,86.777l18.973-18.973h14.536
	V53.268l18.981-18.973L105.776,53.268z M254.784,144.848l-23.145,23.137l-13.066-13.07v-26.35h-26.358l-13.066-13.066l23.144-23.149
	l21.291,21.289h9.918v9.917L254.784,144.848z M428.346,144.84l-23.147,23.145l-13.066-13.07v-26.35h-26.356l-13.069-13.066
	l23.147-23.149l21.282,21.289h9.924v9.917L428.346,144.84z M601.904,144.848l-23.147,23.137l-13.064-13.07v-26.35h-26.36
	l-13.064-13.066l23.147-23.149l21.282,21.289h9.917v9.917L601.904,144.848z M630.623,173.566l-23.147,23.137l-23.149-23.145
	l23.149-23.145l23.147,23.141l-0.004,0.004L630.623,173.566z M640.99,241.361l18.978,18.978l-18.982,18.973H626.45v14.536
	l-18.973,18.977l-18.975-18.977v-14.536h-14.536l-18.975-18.973l18.975-18.978h14.534v-14.536l18.977-18.973l18.981,18.973v14.536
	H640.99z M640.99,414.919l18.978,18.977l-18.978,18.978h-14.532v14.532l-18.981,18.981l-18.977-18.981l0.002-14.532h-14.536
	l-18.975-18.978l18.971-18.977h14.54v-14.536l18.975-18.977l18.973,18.977v14.536H640.99z M640.99,588.477l18.978,18.977
	l-18.978,18.981h-14.532v14.536l-18.981,18.973l-18.975-18.981v-14.528h-14.536l-18.975-18.981l18.971-18.977h14.54v-14.532
	l18.975-18.981l18.981,18.981v14.532H640.99z M640.99,762.039l18.978,18.978l-18.978,18.973l-14.54-0.004v14.544l-18.973,18.973
	l-18.977-18.981v-14.536h-14.534l-18.975-18.969l18.971-18.978h14.54v-14.536l18.975-18.977l18.981,18.977v14.536H640.99z
	 M640.99,935.596l18.978,18.973l-18.978,18.99l-14.532-0.016v14.544l-18.981,18.973l-18.977-18.981v-14.536h-14.534l-18.975-18.973
	l18.975-18.973h14.534V921.06l18.977-18.973l18.973,18.973v14.536H640.99z M439.494,1070.072l23.141-23.145l13.066,13.058v26.362
	h26.354l13.069,13.067l-23.143,23.144l-21.284-21.284h-9.924l0.006-9.921L439.494,1070.072z M265.936,1070.072l23.141-23.145
	l13.064,13.058l0.002,26.362h26.356l13.06,13.067l-23.141,23.144l-21.28-21.284h-9.922v-9.921L265.936,1070.072z M92.374,1070.072
	l23.142-23.145l13.066,13.066v26.354h26.356l13.062,13.067l-23.142,23.144l-21.279-21.284h-9.927v-9.921L92.374,1070.072z
	 M53.29,973.543l-18.973-18.973l18.969-18.973h14.536V921.06l18.977-18.973l18.973,18.973v14.536h14.538l18.975,18.973
	l-18.975,18.99l-14.534-0.016v14.544l-18.973,18.973l-18.981-18.981v-14.536H53.29z M53.286,799.985l-18.969-18.969l18.969-18.978
	h14.536v-14.536l18.981-18.977l18.973,18.977v14.536h14.534l18.975,18.978l-18.975,18.973l-14.538-0.004v14.544l-18.969,18.973
	l-18.981-18.981v-14.536H53.286z M53.29,626.435l-18.973-18.981l18.969-18.977h14.542v-14.532l18.975-18.973l18.969,18.973v14.532
	h14.538l18.975,18.977l-18.979,18.981h-14.53v14.536l-18.973,18.965l-18.981-18.973v-14.528H53.29z M53.29,452.874l-18.973-18.978
	l18.969-18.977h14.542v-14.536l18.975-18.977l18.973,18.977v14.536h14.53l18.979,18.977l-18.975,18.978h-14.538v14.532
	l-18.973,18.981l-18.977-18.981v-14.532H53.29z M53.286,279.312l-18.969-18.973l18.969-18.978h14.536v-14.536l18.981-18.973
	l18.969,18.973v14.536h14.538l18.975,18.978l-18.979,18.973h-14.53v14.536l-18.973,18.977l-18.981-18.977v-14.536H53.286z
	 M154.937,218.559l13.064,13.062l-23.141,23.145l-21.28-21.284h-9.921v-9.922l-21.284-21.284l23.149-23.141l13.06,13.066v26.358
	H154.937z M328.493,218.559l13.066,13.062l-23.141,23.145l-21.284-21.284h-9.92v-9.922l-21.284-21.284l23.147-23.145l13.066,13.062
	v26.366H328.493z M502.054,218.559l13.069,13.062l-23.143,23.145l-21.283-21.284h-9.925v-9.922l-21.278-21.284l23.141-23.145
	l13.066,13.062v26.366H502.054z M601.901,318.398l-23.144,23.145l-13.064-13.058v-26.366h-26.36l-13.064-13.062l23.147-23.145
	l21.288,21.284h9.911v9.922L601.901,318.398z M601.904,491.956l-23.143,23.145l-13.068-13.062V475.68h-26.36l-13.064-13.07
	l23.147-23.145l21.282,21.284h9.921v9.926L601.904,491.956z M601.904,665.517l-23.147,23.145L565.693,675.6v-26.366h-26.364
	l-13.06-13.062l23.143-23.144l21.286,21.284h9.917v9.921L601.904,665.517z M601.901,839.075l-23.141,23.141l-13.068-13.062v-26.358
	h-26.364l-13.06-13.066l23.147-23.149l21.282,21.292h9.917v9.922L601.901,839.075z M601.904,1012.633l-23.147,23.145l-13.064-13.066
	v-26.354h-26.36l-13.064-13.07l23.147-23.137l21.282,21.268h9.921v9.933L601.904,1012.633z M365.779,996.357l-13.07-13.07
	l23.147-23.145l21.282,21.277h9.92v9.933l21.289,21.281l-23.141,23.145l-13.073-13.066v-26.354H365.779z M192.217,996.357
	l-13.062-13.07l23.143-23.137l21.282,21.268h9.922v9.933l21.282,21.281l-23.145,23.145l-13.07-13.066l0.004-26.354H192.217z
	 M92.374,896.515l23.149-23.145l13.066,13.07v26.342h26.35l13.066,13.07l-23.145,23.153l-21.28-21.292h-9.927v-9.922L92.374,896.515
	z M92.374,722.953l23.149-23.141l13.06,13.066v26.35h26.354l13.064,13.07l-23.141,23.137l-21.28-21.28h-9.921v-9.921L92.374,722.953
	z M92.374,549.399l23.149-23.145l13.06,13.062v26.358h26.354l13.064,13.066l-23.141,23.141l-21.28-21.284h-9.921v-9.917
	L92.374,549.399z M92.374,375.837l23.142-23.149l13.069,13.066v26.354h26.354l13.062,13.07l-23.142,23.141l-21.279-21.28h-9.921
	v-9.926L92.374,375.837z M254.784,318.398l-23.145,23.145l-13.07-13.058l0.004-26.366h-26.356l-13.062-13.062l23.143-23.145
	l21.287,21.284h9.918v9.922L254.784,318.398z M573.184,347.119h-0.006l0.006,0.004l-15.371,15.369v21.744l-21.746-0.008
	L520.7,399.606v-0.012l-0.008,0.012l-15.371-15.378h-21.739v-21.736l-15.375-15.369l0.004-0.004h-0.004l15.375-15.373v-21.743
	h21.739l15.38-15.373l15.367,15.373h21.746v21.743L573.184,347.119z M573.184,520.673l-15.373,15.378v21.74h-21.744L520.7,573.164
	v-0.004l-15.38-15.369h-21.739v-21.74l-15.375-15.378l15.375-15.369V483.56h21.739l15.38-15.37l15.367,15.37h21.744v21.747
	L573.184,520.673z M573.184,694.235l-15.373,15.378v21.731h-21.744L520.7,746.718l-0.008,0.008l-15.371-15.381h-21.739v-21.736
	l-15.375-15.373v-0.004l15.375-15.369v-21.744h21.739l15.38-15.373l15.367,15.373h21.744v21.744L573.184,694.235z M573.178,867.793
	l-15.367,15.373v21.743h-21.744l-15.375,15.373L505.32,904.91h-21.741v-21.743l-15.373-15.373l15.373-15.374V830.68h21.741
	l15.371-15.373l15.382,15.373h21.738v21.747L573.178,867.793z M439.494,896.515l23.143-23.145l13.064,13.062v26.35h26.354
	l13.069,13.07l-23.143,23.153l-21.284-21.292h-9.924v-9.922L439.494,896.515z M265.936,896.515l23.141-23.145l13.066,13.062v26.35
	h26.36l13.056,13.07l-23.141,23.153l-21.28-21.292h-9.922v-9.922L265.936,896.515z M121.094,867.793v-0.004l15.371-15.37V830.68
	h21.74l15.373-15.373l15.371,15.373h21.742v21.747l15.375,15.366l-15.375,15.373v21.743h-21.744l-15.363,15.369l-0.006,0.004
	l-15.373-15.373h-21.74v-21.743L121.094,867.793z M121.094,694.235v-0.004l15.365-15.369v-21.744h21.744l15.375-15.365l0.006-0.008
	l15.363,15.373h21.744v21.744l15.375,15.373l-15.375,15.378v21.731h-21.744l-15.369,15.378l-15.373-15.378h-21.746v-21.731
	L121.094,694.235z M121.094,520.673l15.371-15.369V483.56h21.738l15.375-15.37l15.371,15.37h21.742l0.006,21.747l15.37,15.365
	l-15.37,15.378v21.74h-21.75l-15.363,15.369h-0.006l-15.373-15.369h-21.74v-21.74L121.094,520.673z M328.493,392.109l13.066,13.07
	l-23.141,23.141l-21.284-21.28h-9.918v-9.926l-21.287-21.276l23.147-23.149l13.066,13.066v26.354H328.493z M502.054,392.109
	l13.069,13.07L491.98,428.32l-21.284-21.28h-9.924v-9.926l-21.278-21.276l23.143-23.149l13.064,13.066v26.354H502.054z
	 M502.054,565.674l13.069,13.062l-23.143,23.144l-21.284-21.284h-9.924l0.006-9.921l-21.284-21.277l23.141-23.145l13.066,13.062
	v26.358H502.054z M365.777,822.796l-13.069-13.066l23.151-23.149l21.284,21.292h9.913v9.922l21.289,21.28l-23.147,23.141
	l-13.066-13.062v-26.358H365.777z M192.217,822.796l-13.068-13.071l23.144-23.144l21.291,21.292h9.918v9.922l21.282,21.28
	l-23.145,23.145l-13.07-13.066v-26.358H192.217z M192.211,649.234l-13.056-13.054l23.143-23.153l21.282,21.284h9.922v9.917
	l21.282,21.289l-23.145,23.145L218.573,675.6v-26.366H192.211z M192.217,475.68l-13.068-13.07l23.144-23.145l21.287,21.284h9.918
	v9.926l21.287,21.28l-23.145,23.145l-13.07-13.062l0.004-26.358H192.217z M428.346,491.956l-23.147,23.145l-13.066-13.062V475.68
	h-26.354l-13.074-13.07l23.151-23.145l21.282,21.284h9.92v9.926L428.346,491.956z M467.43,588.477l18.977,18.977l-18.977,18.981
	h-14.536v14.536l-18.971,18.973l-18.983-18.981v-14.528h-14.528l-18.975-18.981l18.971-18.977h14.532v-14.532l18.975-18.981
	l18.98,18.981v14.532H467.43z M265.936,722.953l23.141-23.145l13.066,13.071v26.35h26.35l13.066,13.07l-23.141,23.137l-21.28-21.28
	h-9.922v-9.921L265.936,722.953z M226.856,626.435l-18.981-18.981l18.971-18.977h14.53v-14.532l18.981-18.981l18.973,18.981v14.532
	h14.542l18.969,18.977l-18.969,18.981H279.33v14.536l-18.973,18.973l-18.981-18.981v-14.528H226.856z M347.136,584.309
	l23.144,23.145l-23.144,23.145h-0.004l-23.143-23.145l23.143-23.145l0,0H347.136z M428.346,665.517l-23.147,23.145L392.133,675.6
	v-26.366h-26.356l-13.069-13.054l23.147-23.153l21.282,21.284h9.92v9.921L428.346,665.517z M352.708,578.737l13.069-13.062h26.356
	v-26.358l13.066-13.062l23.147,23.145l-21.289,21.281v9.917h-9.926l-21.276,21.281L352.708,578.737z M341.559,636.18l-13.066,13.054
	h-26.35v26.358l-13.066,13.07l-23.141-23.153l21.28-21.277v-9.921h9.922l21.28-21.284L341.559,636.18z M318.418,601.881
	l-21.284-21.284h-9.918v-9.917l-21.287-21.281l23.143-23.145l13.069,13.062l0.002,26.358h26.356l13.06,13.062L318.418,601.881z
	 M283.504,694.231l-23.147,23.149l-23.143-23.149l23.143-23.141L283.504,694.231z M331.762,731.344h-21.739v-21.736l-15.37-15.373
	l15.37-15.373v-21.744h21.739l15.37-15.365l15.373,15.365h21.752v21.744l15.366,15.369l-0.002,0.004h0.002l-15.366,15.378v21.731
	h-21.752l-15.359,15.373h-0.01l-0.004,0.004L331.762,731.344z M365.777,739.228h26.356v-26.35l13.066-13.066l23.147,23.141
	l-21.289,21.284v9.918h-9.92l-21.278,21.28l-23.145-23.144L365.777,739.228z M410.774,694.235l-0.004-0.004l23.144-23.141
	l23.149,23.141v0.004h-0.006l-23.143,23.145L410.774,694.235z M410.77,520.673l23.149-23.141l23.145,23.141l-23.141,23.145
	L410.77,520.673z M362.505,483.56h21.745v21.747l15.37,15.365l-15.37,15.378v21.74h-21.745l-15.369,15.373v-0.004l-0.004,0.004
	l-15.37-15.373h-21.739v-21.74l-15.375-15.378l15.375-15.369V483.56h21.739l15.374-15.37L362.505,483.56z M328.493,475.68h-26.35
	v26.358l-13.066,13.062l-23.147-23.145l21.287-21.28v-9.918l9.918-0.008l21.284-21.284l23.141,23.145L328.493,475.68z
	 M283.5,520.673l-23.143,23.149l-23.143-23.149l23.143-23.141L283.5,520.673z M254.784,549.399l-21.287,21.284v9.913h-9.918
	l-21.282,21.281l-23.143-23.141l13.062-13.062h26.356v-26.358l13.066-13.062L254.784,549.399z M254.784,722.953l-21.282,21.284
	v9.918h-9.922l-21.282,21.28l-23.143-23.144l13.062-13.062h26.356v-26.35l13.066-13.071L254.784,722.953z M241.376,814.521v-14.536
	h-14.53l-18.971-18.969l18.971-18.978h14.538v-14.536l18.973-18.977l18.973,18.977v14.536h14.54l18.971,18.978l-18.969,18.973
	l-14.534-0.004v14.544l-18.981,18.973L241.376,814.521z M287.216,817.795v-9.922h9.918l21.284-21.284l23.141,23.141l-13.066,13.074
	l-26.35-0.008v26.358l-13.066,13.062l-23.141-23.141L287.216,817.795z M323.993,781.016l23.143-23.149l23.147,23.149l-23.147,23.144
	L323.993,781.016z M414.939,814.521v-14.536h-14.532l-18.971-18.969l18.971-18.978h14.532v-14.536l18.983-18.977l18.971,18.977
	v14.536h14.536l18.975,18.978l-18.979,18.973l-14.536-0.004v14.544l-18.967,18.973L414.939,814.521z M460.772,817.795v-9.922h9.924
	l21.284-21.284l23.143,23.145l-13.069,13.07l-26.354-0.008v26.358l-13.066,13.062l-23.141-23.141L460.772,817.795z M470.696,754.155
	h-9.924v-9.921l-21.278-21.281l23.141-23.145l13.066,13.071l0.002,26.35h26.35l13.071,13.07l-23.143,23.137L470.696,754.155z
	 M439.494,665.51l21.278-21.277v-9.921h9.924l21.284-21.284l23.143,23.153l-13.069,13.054h-26.352V675.6l-13.066,13.062
	L439.494,665.51z M439.494,491.956l21.284-21.28v-9.918l9.918-0.008l21.284-21.284l23.143,23.145l-13.069,13.07H475.7v26.358
	l-13.064,13.062L439.494,491.956z M452.89,400.383v14.536h14.54l18.977,18.977l-18.977,18.978h-14.536v14.532l-18.98,18.981
	l-18.975-18.981v-14.532h-14.528l-18.982-18.981l18.978-18.973h14.532v-14.536l18.979-18.977L452.89,400.383z M407.055,397.122
	v9.918h-9.918l-21.278,21.28l-23.145-23.141l13.064-13.066l26.354-0.004v-26.354l13.066-13.066l23.147,23.149L407.055,397.122z
	 M370.282,433.896l-23.147,23.141l-23.147-23.141l23.143-23.149h0.004L370.282,433.896z M279.33,400.383v14.536h14.542
	l18.969,18.977l-18.969,18.978H279.33v14.532l-18.973,18.981l-18.981-18.981v-14.532h-14.52l-18.981-18.978l18.971-18.977h14.53
	v-14.536l18.981-18.977L279.33,400.383z M233.502,397.122v9.918h-9.922l-21.282,21.28l-23.143-23.141l13.062-13.066l26.356-0.004
	v-26.354l13.066-13.066l23.145,23.149L233.502,397.122z M196.727,433.896l-23.149,23.141l-23.149-23.141l23.149-23.149
	L196.727,433.896z M196.727,607.454l-23.149,23.145l-23.145-23.145l23.145-23.145L196.727,607.454z M196.727,781.016l-23.149,23.144
	l-23.145-23.144l23.145-23.149L196.727,781.016z M192.217,912.79l26.352-0.008v-26.35l13.07-13.062l23.145,23.145l-21.287,21.284
	v9.913h-9.913l-21.287,21.292l-23.143-23.153L192.217,912.79z M237.214,867.793l23.143-23.145l23.147,23.145l-23.147,23.149
	L237.214,867.793z M331.762,904.91h-21.741v-21.743l-15.368-15.373l-0.006-0.004l15.373-15.37V830.68h21.741l15.37-15.373
	l15.378,15.373h21.748v21.747l15.364,15.366l-15.364,15.373v21.743h-21.748l-15.373,15.369l-0.004,0.004L331.762,904.91z
	 M365.777,912.79l26.356-0.008v-26.35l13.066-13.062l23.147,23.145l-21.289,21.284v9.913h-9.926l-21.276,21.284l-23.147-23.149
	L365.777,912.79z M410.77,867.793l23.144-23.145l23.149,23.145l-23.141,23.149L410.77,867.793z M497.551,781.016l23.149-23.149
	l23.143,23.149L520.7,804.161L497.551,781.016z M497.551,607.454l23.141-23.145h0.008l0,0l23.143,23.145L520.7,630.599
	L497.551,607.454z M520.695,457.037l-23.145-23.141l23.141-23.149h0.008l23.145,23.149L520.695,457.037z M502.054,302.119H475.7
	v26.366l-13.064,13.058l-23.143-23.145l21.278-21.28v-9.922h9.924l21.284-21.284l23.143,23.145L502.054,302.119z M457.063,347.119
	l-23.149,23.145l-23.144-23.145l23.144-23.149L457.063,347.119z M405.199,341.543l-13.066-13.058v-26.366h-26.354l-13.07-13.062
	l23.147-23.145l21.289,21.284h9.911l0.006,9.922l21.284,21.28L405.199,341.543z M362.509,310.003h21.748v21.743l15.364,15.378
	l-15.364,15.369v21.744l-21.748-0.008l-15.373,15.378v-0.012l-0.004,0.008l-15.364-15.373h-21.748v-21.736l-15.373-15.369
	l0.006-0.004l15.368-15.373v-21.743h21.741l15.374-15.373L362.509,310.003z M328.499,302.119h-26.356v26.366l-13.066,13.058
	l-23.147-23.145l21.287-21.28v-9.922h9.918l21.284-21.284l23.141,23.145L328.499,302.119z M283.5,347.119v0.004l-23.143,23.141
	l-23.143-23.141l-0.006-0.004l23.149-23.149L283.5,347.119z M188.949,310.003h21.742v21.743l15.375,15.378l-15.375,15.369v21.744
	l-21.742-0.008l-15.365,15.378l-0.006-0.012l-0.006,0.012l-15.369-15.378h-21.738v-21.743l-15.371-15.361l15.371-15.378v-21.743
	h21.738l15.375-15.373L188.949,310.003z M154.939,302.119h-26.354v26.366l-13.062,13.058l-23.149-23.145l21.284-21.28v-9.922h9.915
	l21.287-21.284l23.145,23.145L154.939,302.119z M168.005,462.61l-13.066,13.07h-26.356v26.358l-13.06,13.062l-23.149-23.145
	l21.284-21.277v-9.921l9.921-0.008l21.279-21.284L168.005,462.61z M168.001,636.18l-13.062,13.054h-26.356v26.358l-13.06,13.07
	l-23.147-23.145l21.283-21.276v-9.93h9.915l21.285-21.284L168.001,636.18z M168.001,809.734l-13.062,13.07l-26.35-0.008v26.358
	l-13.066,13.062l-23.147-23.141l21.277-21.28v-9.922h9.927l21.28-21.292L168.001,809.734z M168.005,983.287l-13.066,13.07h-26.356
	v26.354l-13.06,13.066l-23.149-23.145l21.278-21.281v-9.933h9.927l21.28-21.268L168.005,983.287z M150.433,954.569l23.145-23.141
	h0.006l23.142,23.141l-23.149,23.145L150.433,954.569z M241.376,988.079v-14.536h-14.528l-18.973-18.973l18.971-18.973h14.538
	V921.06l18.973-18.973l18.981,18.973v14.536h14.534l18.969,18.973l-18.969,18.99l-14.542-0.016v14.544l-18.973,18.973
	L241.376,988.079z M287.216,991.352v-9.933h9.922l21.28-21.268l23.141,23.137l-13.06,13.07h-26.356v26.354l-13.066,13.066
	l-23.141-23.145L287.216,991.352z M323.989,954.569l23.143-23.141h0.004l23.144,23.141l-23.149,23.145L323.989,954.569z
	 M414.939,988.079v-14.536h-14.532l-18.971-18.973l18.971-18.973h14.532V921.06l18.975-18.973l18.975,18.973v14.536h14.536
	l18.979,18.981l-18.979,18.981l-14.532-0.016v14.544l-18.971,18.973L414.939,988.079z M460.778,991.352v-9.933h9.918l21.284-21.268
	l23.143,23.137l-13.069,13.07H475.7v26.354l-13.064,13.066l-23.143-23.145L460.778,991.352z M497.551,954.569l23.149-23.141
	l23.143,23.141L520.7,977.714L497.551,954.569z M526.274,925.848l13.058-13.058l26.36-0.008v-26.35l13.064-13.062l23.144,23.145
	l-21.287,21.284v9.913h-9.917l-21.282,21.292L526.274,925.848z M526.274,752.291l13.058-13.062h26.36v-26.35l13.064-13.066
	l23.144,23.141l-21.287,21.284v9.918h-9.917l-21.282,21.28L526.274,752.291z M526.268,578.737l13.064-13.062h26.36v-26.358
	l13.068-13.062l23.143,23.145l-21.284,21.284v9.913h-9.927l-21.28,21.284L526.268,578.737z M526.274,405.179l13.058-13.066
	l26.36-0.004v-26.354l13.064-13.066l23.147,23.149l-21.289,21.284v9.918h-9.917l-21.282,21.28L526.274,405.179z M526.274,231.613
	l13.058-13.055h26.36v-26.366l13.064-13.062l23.144,23.153l-21.287,21.284v9.913h-9.917l-21.282,21.284L526.274,231.613z
	 M543.842,260.339l-23.147,23.144l-23.145-23.144l23.149-23.145L543.842,260.339z M452.894,226.825v14.536h14.536l18.975,18.978
	l-18.975,18.973h-14.54v14.536l-18.967,18.977l-18.983-18.977v-14.536h-14.528l-18.975-18.973l18.971-18.978h14.532v-14.536
	l18.975-18.973L452.894,226.825z M407.062,223.56v9.922h-9.93l-21.276,21.284l-23.141-23.145l13.064-13.062h26.354v-26.366
	l13.066-13.058l23.147,23.149L407.062,223.56z M370.282,260.339l-23.151,23.144l-23.143-23.144l23.143-23.145h0.004L370.282,260.339
	z M279.33,226.825v14.536h14.542l18.969,18.978l-18.969,18.973H279.33v14.536l-18.973,18.977l-18.981-18.977v-14.536h-14.528
	l-18.973-18.973l18.971-18.978h14.538v-14.536l18.973-18.973L279.33,226.825z M233.502,223.568v9.913h-9.918l-21.287,21.284
	l-23.143-23.145l13.062-13.062h26.356v-26.366l13.066-13.062l23.145,23.153L233.502,223.568z M196.727,260.339l-23.149,23.144
	l-23.145-23.144l23.145-23.145h0.006L196.727,260.339z M86.803,196.703l-23.145-23.145h-0.004l23.149-23.145l23.139,23.145
	L86.803,196.703z M109.946,347.119l-23.143,23.145l-23.145-23.145l23.145-23.149L109.946,347.119z M86.803,497.528l23.143,23.145
	l-0.004,0.004l-23.139,23.145l-23.149-23.149L86.803,497.528z M109.942,694.231v0.004L86.803,717.38l-23.145-23.149l23.145-23.141
	L109.942,694.231z M109.942,867.793l-23.139,23.149l-23.145-23.149l23.145-23.145L109.942,867.793z M109.946,1041.35l-0.01,0.008
	l-23.132,23.145l-23.149-23.153l23.145-23.145L109.946,1041.35z M158.205,1078.468h-21.74v-21.735l-15.371-15.382l15.371-15.373
	v-21.74h21.74l15.373-15.373l15.369,15.373h21.744v21.748l15.375,15.365l-15.375,15.382v21.735h-21.744l-15.363,15.373h-0.006
	L158.205,1078.468z M192.217,1086.348h26.356v-26.362l13.066-13.058l23.145,23.145l-21.287,21.281v9.921h-9.918l-21.282,21.284
	l-23.143-23.153L192.217,1086.348z M237.214,1041.35l23.143-23.145l23.147,23.145l-23.147,23.153L237.214,1041.35z
	 M331.768,1078.468h-21.745v-21.735l-15.375-15.382h0.006l15.37-15.373v-21.74h21.739l15.37-15.365l15.378,15.365h21.748v21.748
	l15.364,15.365l-15.364,15.382v21.735h-21.748l-15.373,15.373h-0.004L331.768,1078.468z M365.779,1086.348h26.354v-26.362
	l13.066-13.058l23.147,23.145l-21.289,21.281v9.921h-9.926l-21.276,21.284l-23.141-23.153L365.779,1086.348z M410.774,1041.35
	h-0.004l23.144-23.145l23.149,23.145l-23.141,23.153L410.774,1041.35z M505.32,1078.468h-21.739v-21.735l-15.375-15.382
	l15.375-15.373v-21.74h21.739l15.38-15.373l15.367,15.373h21.744v21.74l15.367,15.373l-15.367,15.382v21.735h-21.744l-15.367,15.373
	h-0.008L505.32,1078.468z M539.332,1086.348h26.36v-26.362l13.064-13.058l23.144,23.145l-21.282,21.281v9.921h-9.921l-21.282,21.284
	l-23.141-23.153L539.332,1086.348z M584.334,1041.35l23.143-23.145l23.147,23.145l-23.147,23.153L584.334,1041.35z M584.334,867.793
	l23.143-23.145l23.147,23.145l-23.147,23.149L584.334,867.793z M584.334,694.231l23.143-23.141l23.143,23.141l-23.143,23.149
	L584.334,694.231z M584.334,520.673l23.143-23.145l23.147,23.145l-23.147,23.149L584.334,520.673z M584.334,347.119l23.143-23.149
	l23.147,23.149v0.004l-23.147,23.141L584.334,347.119z M536.067,136.441h21.744v21.744l15.367,15.373l-15.367,15.373v21.743h-21.744
	l-15.361,15.366H520.7l-0.004,0.008l-15.375-15.373h-21.739v-21.743l-15.375-15.373h0.004l-0.004-0.004l15.375-15.369v-21.744
	h21.735l15.384-15.373L536.067,136.441z M502.054,128.565H475.7v26.35l-13.064,13.07l-23.143-23.145l21.278-21.284v-9.917h9.92
	l21.289-21.281l23.143,23.141L502.054,128.565z M457.063,173.554l-0.006,0.004l0.006,0.008l-23.141,23.137l-23.149-23.145
	l23.149-23.145L457.063,173.554z M362.509,136.441h21.748v21.744l15.364,15.373l-15.364,15.373v21.743h-21.748l-15.364,15.366h-0.01
	l-0.004,0.008l-15.364-15.373h-21.748v-21.743l-15.373-15.373h0.006l15.368-15.373v-21.744h21.748l15.364-15.373h0.004
	L362.509,136.441z M328.493,128.565h-26.35v26.35l-13.066,13.07L265.93,144.84l21.284-21.284v-9.917h9.92l21.284-21.289
	l23.141,23.149L328.493,128.565z M283.504,173.558l-23.147,23.145l-23.143-23.145l23.143-23.145L283.504,173.558z M188.949,136.441
	h21.742l0.006,21.744l15.373,15.373l-15.373,15.373v21.743h-21.748l-15.365,15.373l-0.006-0.008v0.008l-15.373-15.373h-21.74
	v-21.743l-15.371-15.366v-0.012l15.371-15.369v-21.744h21.74l15.373-15.373L188.949,136.441z M154.939,128.565h-26.356v26.35
	l-13.06,13.07L92.374,144.84l21.284-21.284v-9.917h9.921l21.279-21.281l23.142,23.141L154.939,128.565z M5.595,58.067l13.068-13.07
	h26.356V18.635L58.083,5.577l23.145,23.145L59.942,50.006v9.918h-9.917L28.74,81.204L5.595,58.067z M45.015,154.915v-26.35H18.663
	L5.595,115.498L28.74,92.35l21.285,21.289h9.917v9.917l21.284,21.284l-23.143,23.145L45.015,154.915z M5.599,231.613l13.064-13.055
	h26.352v-26.366l13.068-13.062l23.143,23.153l-21.284,21.284v9.913h-9.923L28.74,254.766L5.599,231.613z M45.019,328.485v-26.366
	H18.663L5.595,289.056l23.144-23.145l21.285,21.284h9.917v9.922l21.284,21.28l-23.143,23.145L45.019,328.485z M5.599,405.179
	l13.064-13.066l26.356-0.004v-26.354l13.064-13.066l23.145,23.149l-21.287,21.284v9.918h-9.923L28.74,428.32L5.599,405.179z
	 M45.015,502.038V475.68h-26.36L5.593,462.61l23.151-23.145l21.281,21.284h9.917v9.926l21.284,21.28l-23.143,23.145L45.015,502.038z
	 M5.595,578.737l13.06-13.062h26.36v-26.358l13.068-13.062l23.143,23.145l-21.284,21.284v9.913h-9.917L28.74,601.878L5.595,578.737z
	 M45.015,675.6v-26.366h-26.36L5.595,636.18l23.144-23.153l21.285,21.284h9.917v9.917l21.287,21.281l-23.145,23.153L45.015,675.6z
	 M5.599,752.291l13.056-13.062h26.36v-26.35l13.068-13.071l23.143,23.145l-21.284,21.284v9.918h-9.923l-21.279,21.28L5.599,752.291z
	 M45.015,849.154v-26.358H18.663L5.595,809.729l23.144-23.149l21.285,21.292h9.917v9.922l21.284,21.28L58.083,862.22L45.015,849.154
	z M5.599,925.852l13.064-13.062l26.352-0.008v-26.35l13.068-13.062l23.143,23.145l-21.284,21.284v9.913h-9.917L28.74,949.005
	L5.599,925.852z M45.015,1022.711v-26.354h-26.36l-13.062-13.07l23.147-23.145l21.285,21.277h9.917v9.933l21.284,21.281
	l-23.143,23.153L45.015,1022.711z M5.599,1099.406l13.056-13.058h26.36v-26.362l13.068-13.058l23.143,23.145l-21.284,21.281v9.921
	h-9.923l-21.279,21.284L5.599,1099.406z M58.083,1209.339l-13.068-13.07v-26.35H18.663l-13.068-13.071l23.149-23.149l21.281,21.289
	h9.917v9.921l21.284,21.281L58.083,1209.339z M67.822,1161.637v-14.524H53.29l-18.973-18.981l18.969-18.973h14.536v-14.54
	l18.981-18.974l18.973,18.974v14.54h14.534l18.975,18.978l-18.979,18.977h-14.53v14.532l-18.973,18.978L67.822,1161.637z
	 M154.939,1169.919h-26.356v26.35l-13.06,13.07l-23.149-23.149l21.278-21.272v-9.93h9.927l21.279-21.289l23.142,23.149
	L154.939,1169.919z M150.433,1128.136l23.145-23.145h0.006l23.142,23.141l-23.149,23.145L150.433,1128.136z M231.639,1209.339
	l-13.066-13.07v-26.35h-26.352l-13.066-13.071l23.143-23.149l21.289,21.289h9.915v9.921l21.282,21.281L231.639,1209.339z
	 M241.376,1161.637v-14.524h-14.528l-18.973-18.977l18.973-18.978h14.528v-14.54l18.981-18.974l18.973,18.974v14.54h14.542
	l18.969,18.978l-18.969,18.977H279.33v14.532l-18.973,18.978L241.376,1161.637z M328.499,1169.919h-26.356v26.35l-13.066,13.07
	l-23.147-23.149l21.284-21.281v-9.921h9.92l21.284-21.289l23.141,23.149L328.499,1169.919z M347.132,1151.276l-23.143-23.141
	l23.143-23.145h0.004l23.147,23.141l-23.147,23.145H347.132z M405.199,1209.339l-13.066-13.07v-26.35h-26.354l-13.07-13.071
	l23.147-23.149l21.282,21.289h9.92v9.913l21.289,21.289L405.199,1209.339z M414.939,1161.637v-14.524h-14.528l-18.975-18.981
	l18.971-18.973h14.532v-14.54l18.983-18.974l18.971,18.974v14.54h14.536l18.975,18.978l-18.979,18.977h-14.532v14.532
	l-18.971,18.978L414.939,1161.637z M502.054,1169.919H475.7v26.35l-13.064,13.07l-23.143-23.149l21.284-21.281v-9.921h9.913
	l21.289-21.289l23.143,23.149L502.054,1169.919z M497.551,1128.131l23.141-23.141h0.008l23.143,23.145l-23.143,23.141
	L497.551,1128.131z M578.761,1209.339l-13.068-13.07v-26.35h-26.36l-13.064-13.071l23.147-23.149l21.282,21.289h9.917l0.004,9.913
	l21.284,21.289L578.761,1209.339z M588.499,1161.637v-14.524h-14.534l-18.975-18.977l18.975-18.978h14.536v-14.54l18.975-18.974
	l18.981,18.974v14.54h14.532l18.978,18.978l-18.978,18.977h-14.54v14.532l-18.973,18.978L588.499,1161.637z M688.682,1156.849
	l-13.062,13.071h-26.364v26.35l-13.056,13.07l-23.151-23.149l21.284-21.281v-9.921h9.919l21.283-21.289L688.682,1156.849z
	 M649.256,1059.986v26.362h26.356l13.07,13.067l-23.147,23.144l-21.283-21.284h-9.919v-9.921l-21.283-21.281l23.143-23.145
	L649.256,1059.986z M688.682,983.287l-13.07,13.07h-26.356v26.354l-13.056,13.066l-23.151-23.145l21.284-21.281v-9.933h9.919
	l21.283-21.268L688.682,983.287z M649.256,886.432v26.35h26.356l13.07,13.07l-23.147,23.153l-21.283-21.292h-9.921v-9.922
	l-21.282-21.276L636.2,873.37L649.256,886.432z M688.682,809.729l-13.07,13.074l-26.356-0.008v26.358l-13.062,13.062l-23.144-23.141
	l21.282-21.28v-9.922h9.921l21.283-21.292L688.682,809.729z M649.256,712.878v26.35h26.356l13.07,13.062l-23.147,23.153
	l-21.283-21.289h-9.921v-9.921l-21.287-21.281l23.149-23.145L649.256,712.878z M688.673,636.18l-13.06,13.054h-26.356V675.6
	l-13.062,13.062l-23.149-23.153l21.287-21.277v-9.921h9.921l21.283-21.284L688.673,636.18z M649.256,539.316v26.358h26.356
	l13.07,13.066l-23.147,23.141l-21.283-21.284h-9.921v-9.921l-21.281-21.277l23.149-23.145L649.256,539.316z M688.682,462.61
	l-13.062,13.07h-26.364v26.358L636.2,515.101l-23.155-23.145l21.287-21.28v-9.918l9.921-0.008l21.283-21.284L688.682,462.61z
	 M649.256,365.755v26.354h26.356l13.07,13.07l-23.147,23.141l-21.283-21.28h-9.921v-9.926l-21.287-21.276l23.149-23.149
	L649.256,365.755z M688.682,289.056l-13.07,13.062h-26.356v26.366L636.2,341.543l-23.149-23.145l21.281-21.28v-9.922h9.921
	l21.283-21.284L688.682,289.056z M649.256,192.193v26.366h26.356l13.07,13.062l-23.147,23.145l-21.283-21.284h-9.919v-9.922
	l-21.284-21.284l23.144-23.145L649.256,192.193z M688.682,115.498l-13.07,13.066h-26.356v26.35l-13.062,13.07l-23.143-23.145
	l21.283-21.284v-9.917h9.919l21.283-21.289L688.682,115.498z M636.194,5.577l13.062,13.062v26.358h26.356l13.06,13.07
	l-23.137,23.137l-21.283-21.28h-9.921v-9.921l-21.287-21.284L636.194,5.577z M626.45,53.268v14.536h14.54l18.978,18.973
	L640.99,105.75h-14.532v14.544l-18.981,18.973l-18.977-18.981V105.75h-14.534L554.99,86.777l18.975-18.973h14.534V53.268
	l18.969-18.973L626.45,53.268z M539.332,44.997h26.36V18.635l13.064-13.058l23.144,23.145l-21.282,21.284v9.918h-9.921
	l-21.284,21.28l-23.145-23.137L539.332,44.997z M543.842,86.777L520.7,109.922l-0.008,0.004l-23.141-23.149L520.7,63.636
	L543.842,86.777z M462.634,5.577L475.7,18.639v26.358h26.354l13.069,13.07L491.98,81.204l-21.289-21.28h-9.92v-9.921l-21.278-21.284
	L462.634,5.577z M452.894,53.268v14.536h14.532l18.979,18.973L467.43,105.75h-14.536v14.544l-18.971,18.973l-18.983-18.981V105.75
	h-14.528L381.43,86.777l18.978-18.973h14.532V53.268l18.975-18.973L452.894,53.268z M365.779,44.997h26.354V18.639l13.066-13.062
	l23.147,23.145l-21.291,21.284v9.918h-9.918l-21.278,21.28l-23.145-23.144L365.779,44.997z M347.136,63.636l23.147,23.141
	l-23.147,23.149v-0.004l-0.004,0.004l-23.143-23.149l23.143-23.141H347.136z M289.076,5.577l13.066,13.062v26.358h26.356
	l13.06,13.07l-23.141,23.137l-21.284-21.28h-9.92v-9.921L265.93,28.718L289.076,5.577z M279.33,53.268v14.536h14.542l18.969,18.973
	l-18.969,18.973H279.33v14.544l-18.973,18.973l-18.981-18.981V105.75h-14.528l-18.973-18.973l18.973-18.973h14.528V53.268
	l18.977-18.973L279.33,53.268z M192.215,44.997h26.358V18.635l13.066-13.058l23.145,23.145l-21.287,21.284v9.918h-9.913
	l-21.287,21.28l-23.143-23.137L192.215,44.997z M173.584,63.636l23.142,23.141l-23.149,23.145v0.004l-23.145-23.149l23.145-23.141
	H173.584z M115.517,5.577l13.066,13.062v26.358h26.356l13.062,13.07l-23.142,23.137l-21.285-21.28h-9.915v-9.921L92.374,28.718
	L115.517,5.577z"/>
</svg>
