<?xml version="1.0" encoding="iso-8859-1"?>
<!-- Generator: Adobe Illustrator 24.2.3, SVG Export Plug-In . SVG Version: 6.00 Build 0)  -->
<svg version="1.1" id="&#x5716;&#x5C64;_1" xmlns="http://www.w3.org/2000/svg" xmlns:xlink="http://www.w3.org/1999/xlink" x="0px"
	 y="0px" viewBox="0 0 43.683 76.433" style="enable-background:new 0 0 43.683 76.433;" xml:space="preserve">
<path style="opacity:0.07;fill:#C9C08E;" d="M6.918,0L5.462,1.457L4.005,0l0,0H3.304l0,0L2.337,0.967v1.368H0.968L0.001,3.302h0
	L0,3.301v0.704l0.001-0.001h0L1.457,5.46L0.001,6.917l0,0v0L0,6.916v0.703l0.001-0.001h0l0.967,0.967h1.368v1.368l0.967,0.967
	l-0.967,0.967v1.368H0.968l-0.967,0.967h0l0,0L0,14.222v0.703l0.001-0.001h0l1.456,1.456l-1.456,1.456L0,17.836v0.704l0.001-0.001
	l0.967,0.967h1.368v1.368l0.967,0.968l-0.967,0.967v1.368l-1.368-0.001l-0.967,0.967l-0.001,0l0,0.001L0,25.142v0.703l0.001-0.001
	l1.456,1.456l-1.456,1.456L0,28.756v0.704l0.001-0.001l0.967,0.967h1.368v1.368l0.967,0.967l-0.967,0.968v1.368H0.968l-0.967,0.967
	l-0.001,0l0,0.001L0,36.063v0.703l0.001-0.001h0l1.456,1.456l-1.456,1.456L0,39.677v0.704l0.001-0.001l0.967,0.967h1.368v1.368
	l0.967,0.967l-0.967,0.968v1.367H0.968l-0.967,0.968v0l0,0L0,46.983v0.704l0.001-0.001l1.456,1.457l-1.456,1.456L0,50.597V51.3
	l0.001-0.001l0.967,0.967h1.368v1.368l0.967,0.967l-0.967,0.967v1.368H0.968l-0.967,0.967v0l0,0L0,57.904v0.703l0.001-0.001h0
	l1.456,1.456l-1.456,1.456L0,61.517v0.704l0.001-0.001l0.967,0.967h1.368v1.368l0.967,0.967L2.336,66.49v1.368H0.968l-0.967,0.967
	H0.001L0,68.824v0.704l0.001-0.001l1.456,1.456l-1.456,1.456h0L0,72.438v0.703l0.001-0.001l0.967,0.967h1.368v1.368l0.958,0.958
	h0.721l1.447-1.447l1.447,1.447h0.721l0.957-0.958v-1.368l1.368-0.001l0.967-0.967l0.967,0.967h1.368v1.368l0.958,0.958h0.72
	l1.447-1.447l1.447,1.447h0.72l0.958-0.958v-1.368l1.368-0.001l0.967-0.967l0.967,0.967h1.369v1.368l0.957,0.958h0.721l1.448-1.447
	l1.447,1.447h0.72l0.958-0.958v-1.368l1.368-0.001l0.967-0.967l0.967,0.967h1.368v1.368l0.958,0.958h0.721l1.447-1.447l1.447,1.447
	h0.72l0.959-0.958v-1.368l1.368-0.001l0.967-0.967v-0.702l0,0.001l-1.456-1.456l1.456-1.456h0v-0.702h0l-0.967-0.967h-1.368
	l0.001-1.368l-0.968-0.968l0.968-0.967v-1.368h1.368l0.967-0.967v-0.702h0l-1.456-1.456l1.456-1.456h0v-0.702l0,0l-0.967-0.967
	h-1.368v-1.368l-0.968-0.967h0l0,0l0.968-0.967v-1.368h1.368l0.967-0.967v-0.702l0,0l-1.457-1.456l1.457-1.456l0,0v-0.702l0,0
	l-0.967-0.968h-1.368v-1.367l-0.968-0.968l0.968-0.967v-1.368h1.368l0.967-0.967l0,0v-0.702l0,0l-1.457-1.456l1.457-1.456v-0.702
	l0,0.001l-0.967-0.968h-1.368v-1.368l-0.968-0.968l0.968-0.967v-1.368h1.368l0.967-0.967v-0.702l0,0l-1.457-1.456l1.457-1.457h0
	v-0.702l0,0.001l-0.967-0.968h-1.368l0.001-1.368l-0.968-0.967l0,0h0l0.968-0.967v-1.368h1.368l0.967-0.967l0,0v-0.702l0,0
	l-1.456-1.456l1.456-1.456v-0.702l0,0l-0.967-0.967h-1.368v-1.368L40.38,10.92v0l0.967-0.967V8.585h1.368l0.967-0.967l0,0.001V6.916
	l0,0L42.226,5.46l1.457-1.456h0V3.302h0l-0.967-0.967h-1.368l0.001-1.368L40.38,0v0h-0.701l-1.456,1.457L36.766,0v0h-0.702l0,0
	l-0.967,0.967v1.368H33.73l-0.967,0.967l-0.968-0.967h-1.368V0.967L29.46,0l0,0h-0.701l0,0h0l-1.456,1.456L25.846,0v0h-0.702l0,0
	l-0.967,0.967v1.368h-1.369l-0.967,0.967l-0.967-0.967h-1.368V0.967L18.539,0l0,0h-0.702l-1.456,1.457L14.926,0v0h-0.702l0,0
	l-0.967,0.967v1.368h-1.368l-0.967,0.967h0L9.954,2.335H8.586V0.967L7.619,0l0,0L6.918,0L6.918,0L6.918,0z M6.655,3.352v0.915H7.57
	L8.764,5.46L7.57,6.654H6.655v0.915L5.461,8.763L4.267,7.568V6.654H3.353L2.159,5.46l1.194-1.194h0.915V3.352l1.194-1.194
	L6.655,3.352z M16.031,9.114l-1.456,1.456l-0.822-0.822V8.089h-1.658l-0.822-0.822l1.456-1.457l1.34,1.339h0.624v0.624L16.031,9.114
	z M26.952,9.113l-1.456,1.456l-0.822-0.822V8.089h-1.658l-0.822-0.822l1.456-1.457l1.339,1.339h0.624v0.624L26.952,9.113z
	 M37.872,9.114l-1.456,1.456l-0.822-0.822V8.089h-1.659l-0.822-0.822l1.456-1.457l1.339,1.339h0.624v0.624L37.872,9.114z
	 M39.679,10.921l-1.456,1.456l-1.457-1.456l1.457-1.456L39.679,10.921L39.679,10.921L39.679,10.921z M40.331,15.187l1.194,1.194
	l-1.194,1.194h-0.915v0.915l-1.194,1.194l-1.194-1.194v-0.915h-0.915l-1.194-1.194l1.194-1.194h0.914v-0.915l1.194-1.194
	l1.194,1.194v0.915H40.331z M40.331,26.107l1.194,1.194l-1.194,1.194h-0.914v0.914l-1.194,1.194l-1.194-1.194l0-0.914h-0.915
	l-1.194-1.194l1.194-1.194h0.915v-0.915l1.194-1.194l1.194,1.194v0.915H40.331z M40.331,37.027l1.194,1.194l-1.194,1.194h-0.914
	v0.915l-1.194,1.194l-1.194-1.194v-0.914h-0.915l-1.194-1.194l1.194-1.194h0.915v-0.914l1.194-1.194l1.194,1.194v0.914H40.331z
	 M40.331,47.948l1.194,1.194l-1.194,1.194l-0.915,0v0.915l-1.194,1.194l-1.194-1.194v-0.915h-0.914l-1.194-1.194l1.194-1.194h0.915
	v-0.915l1.194-1.194l1.194,1.194v0.915H40.331z M40.331,58.868l1.194,1.194l-1.194,1.195l-0.914-0.001v0.915l-1.194,1.194
	l-1.194-1.194v-0.915h-0.914l-1.194-1.194l1.194-1.194h0.914v-0.915l1.194-1.194l1.194,1.194v0.915H40.331z M27.653,67.329
	l1.456-1.456l0.822,0.822v1.659h1.658l0.822,0.822l-1.456,1.456l-1.339-1.339h-0.624l0-0.624L27.653,67.329z M16.733,67.329
	l1.456-1.456l0.822,0.822l0,1.659h1.658l0.822,0.822l-1.456,1.456l-1.339-1.339h-0.624v-0.624L16.733,67.329z M5.812,67.329
	l1.456-1.456l0.822,0.822v1.658h1.658l0.822,0.822l-1.456,1.456l-1.339-1.339H7.151v-0.624L5.812,67.329z M3.353,61.256
	l-1.194-1.194l1.194-1.194h0.915v-0.915l1.194-1.194l1.194,1.194v0.915H7.57l1.194,1.194L7.57,61.257l-0.914-0.001v0.915
	l-1.194,1.194L4.267,62.17v-0.915H3.353z M3.353,50.335l-1.194-1.194l1.194-1.194h0.915v-0.915l1.194-1.194l1.194,1.194v0.915H7.57
	l1.194,1.194L7.57,50.336l-0.915,0v0.915l-1.194,1.194L4.267,51.25v-0.915H3.353z M3.353,39.416l-1.194-1.194l1.194-1.194h0.915
	v-0.914l1.194-1.194l1.194,1.194v0.914H7.57l1.194,1.194L7.57,39.416H6.655v0.915l-1.194,1.193L4.267,40.33v-0.914H3.353z
	 M3.353,28.495l-1.194-1.194l1.194-1.194h0.915v-0.915l1.194-1.194l1.194,1.194v0.915H7.57l1.194,1.194L7.57,28.495H6.655v0.914
	l-1.194,1.194l-1.194-1.194v-0.914H3.353z M3.353,17.574l-1.194-1.194l1.194-1.194h0.915v-0.915l1.194-1.194l1.194,1.194v0.915H7.57
	l1.194,1.194L7.57,17.574H6.655v0.915l-1.194,1.194l-1.194-1.194v-0.915H3.353z M9.749,13.752l0.822,0.822L9.115,16.03l-1.339-1.339
	H7.151v-0.624l-1.339-1.339l1.457-1.456l0.822,0.822v1.658H9.749z M20.669,13.752l0.822,0.822l-1.456,1.456l-1.339-1.339h-0.624
	v-0.624l-1.339-1.339l1.456-1.456l0.822,0.822v1.659H20.669z M31.589,13.752l0.822,0.822l-1.456,1.456l-1.339-1.339h-0.625v-0.624
	l-1.339-1.339l1.456-1.456l0.822,0.822v1.659H31.589z M37.872,20.034l-1.456,1.456l-0.822-0.822v-1.659h-1.659l-0.822-0.822
	l1.456-1.456l1.339,1.339h0.624v0.624L37.872,20.034z M37.872,30.954l-1.456,1.456l-0.822-0.822V29.93h-1.659l-0.822-0.822
	l1.456-1.456l1.339,1.339h0.624v0.625L37.872,30.954z M37.872,41.875l-1.456,1.456l-0.822-0.822V40.85h-1.659l-0.822-0.822
	l1.456-1.456l1.339,1.339h0.624v0.624L37.872,41.875z M37.872,52.795l-1.456,1.456l-0.822-0.822v-1.658h-1.659l-0.822-0.822
	l1.456-1.457l1.339,1.34h0.624v0.624L37.872,52.795z M37.872,63.715l-1.456,1.456l-0.822-0.822v-1.658h-1.659l-0.822-0.822
	l1.456-1.456l1.339,1.338h0.624v0.625L37.872,63.715z M23.015,62.691l-0.822-0.822l1.456-1.456l1.339,1.339h0.624v0.625l1.339,1.339
	l-1.456,1.456l-0.823-0.822v-1.658H23.015z M12.094,62.691l-0.822-0.822l1.456-1.456l1.339,1.338h0.624v0.625l1.339,1.339
	l-1.456,1.456l-0.822-0.822l0-1.658H12.094z M5.812,56.409l1.457-1.456l0.822,0.822v1.657h1.658l0.822,0.822l-1.456,1.457
	l-1.339-1.34H7.151v-0.624L5.812,56.409z M5.812,45.488l1.457-1.456l0.822,0.822v1.658h1.658l0.822,0.822l-1.456,1.456l-1.339-1.339
	H7.151v-0.624L5.812,45.488z M5.812,34.568l1.457-1.456l0.822,0.822v1.658h1.658l0.822,0.822l-1.456,1.456l-1.339-1.339H7.151
	v-0.624L5.812,34.568z M5.812,23.648l1.456-1.457l0.822,0.822v1.658h1.658l0.822,0.822L9.115,26.95l-1.339-1.339H7.151v-0.625
	L5.812,23.648z M16.031,20.034l-1.456,1.456l-0.822-0.822l0-1.659h-1.658l-0.822-0.822l1.456-1.456l1.339,1.339h0.624v0.624
	L16.031,20.034z M36.065,21.841L36.065,21.841L36.065,21.841l-0.967,0.967v1.368l-1.368-0.001l-0.967,0.968v-0.001l-0.001,0.001
	l-0.967-0.968h-1.368v-1.368l-0.967-0.967l0,0h0l0.967-0.967v-1.368h1.368l0.968-0.967l0.967,0.967h1.368v1.368L36.065,21.841z
	 M36.065,32.761l-0.967,0.968v1.368H33.73l-0.967,0.967v0l-0.968-0.967h-1.368v-1.368l-0.967-0.968l0.967-0.967v-1.368h1.368
	l0.968-0.967l0.967,0.967h1.368v1.368L36.065,32.761z M36.065,43.682l-0.967,0.968v1.367H33.73l-0.967,0.967l-0.001,0l-0.967-0.968
	h-1.368v-1.368l-0.967-0.967v0l0.967-0.967v-1.368h1.368l0.968-0.967l0.967,0.967h1.368v1.368L36.065,43.682z M36.065,54.602
	l-0.967,0.967v1.368H33.73l-0.967,0.967l-0.967-0.967h-1.368v-1.368l-0.967-0.967l0.967-0.967v-1.368h1.368l0.967-0.967l0.968,0.967
	h1.368v1.368L36.065,54.602z M27.653,56.409l1.456-1.456l0.822,0.822v1.658h1.658l0.822,0.822l-1.456,1.457l-1.339-1.34h-0.624
	v-0.624L27.653,56.409z M16.733,56.409l1.456-1.456l0.822,0.822v1.658h1.659l0.822,0.822l-1.456,1.457l-1.339-1.34h-0.624v-0.624
	L16.733,56.409z M7.619,54.602L7.619,54.602l0.967-0.967v-1.368h1.368l0.967-0.967l0.967,0.967h1.368v1.368l0.967,0.967
	l-0.967,0.967v1.368h-1.368l-0.967,0.967l0,0l-0.967-0.967H8.586v-1.368L7.619,54.602z M7.619,43.682L7.619,43.682l0.967-0.967
	v-1.368h1.368l0.967-0.967l0-0.001l0.967,0.967h1.368v1.368l0.967,0.967l-0.967,0.968v1.367h-1.368l-0.967,0.968l-0.967-0.968H8.586
	v-1.367L7.619,43.682z M7.619,32.761l0.967-0.967v-1.368h1.368l0.967-0.967l0.967,0.967h1.368l0,1.368l0.967,0.967l-0.967,0.968
	v1.368h-1.368l-0.967,0.967h0l-0.967-0.967H8.586v-1.368L7.619,32.761z M20.669,24.672l0.822,0.822l-1.456,1.456l-1.339-1.339
	h-0.624v-0.625l-1.339-1.339l1.456-1.457l0.822,0.822v1.658H20.669z M31.589,24.672l0.822,0.822l-1.456,1.456l-1.339-1.339h-0.624
	v-0.625l-1.339-1.339l1.456-1.457l0.822,0.822v1.658H31.589z M31.589,35.592l0.822,0.822l-1.456,1.456l-1.339-1.339h-0.624l0-0.624
	l-1.339-1.339l1.456-1.456l0.822,0.822v1.658H31.589z M23.015,51.771l-0.822-0.822l1.457-1.457l1.339,1.34h0.624v0.624l1.339,1.339
	l-1.456,1.456l-0.822-0.822v-1.658H23.015z M12.094,51.771l-0.822-0.822l1.456-1.456l1.34,1.34h0.624v0.624l1.339,1.339
	l-1.456,1.456l-0.822-0.822v-1.658H12.094z M12.094,40.85l-0.821-0.821l1.456-1.457l1.339,1.339h0.624v0.624l1.339,1.339
	l-1.456,1.456l-0.822-0.822V40.85H12.094z M12.094,29.93l-0.822-0.822l1.456-1.456l1.339,1.339h0.624v0.625l1.339,1.339
	l-1.456,1.456l-0.822-0.822l0-1.658H12.094z M26.952,30.954l-1.456,1.456l-0.822-0.822V29.93h-1.658l-0.823-0.822l1.457-1.456
	l1.339,1.339h0.624v0.625L26.952,30.954z M29.411,37.027l1.194,1.194l-1.194,1.194h-0.915v0.915l-1.194,1.194l-1.194-1.194v-0.914
	h-0.914L24,38.221l1.194-1.194h0.914v-0.914l1.194-1.194l1.194,1.194v0.914H29.411z M16.733,45.488l1.456-1.456l0.822,0.822v1.658
	h1.658l0.822,0.822l-1.456,1.456l-1.339-1.339h-0.624v-0.624L16.733,45.488z M14.274,39.416l-1.194-1.194l1.194-1.194h0.914v-0.914
	l1.194-1.194l1.194,1.194v0.914h0.915l1.194,1.194l-1.194,1.194h-0.915v0.915l-1.194,1.194l-1.194-1.194v-0.914H14.274z
	 M21.842,36.765l1.456,1.456l-1.456,1.456h0l-1.456-1.456L21.842,36.765L21.842,36.765L21.842,36.765z M26.952,41.875l-1.456,1.456
	l-0.822-0.822V40.85h-1.658l-0.822-0.821l1.456-1.457l1.339,1.339h0.624v0.624L26.952,41.875z M22.193,36.414l0.822-0.822h1.658
	v-1.658l0.822-0.822l1.456,1.456l-1.339,1.339v0.624h-0.625l-1.339,1.339L22.193,36.414z M21.491,40.029l-0.822,0.821h-1.658v1.658
	l-0.822,0.822l-1.456-1.457l1.339-1.339v-0.624h0.624l1.339-1.339L21.491,40.029z M20.035,37.871l-1.339-1.339h-0.624v-0.624
	l-1.339-1.339l1.456-1.456l0.822,0.822l0,1.658h1.658l0.822,0.822L20.035,37.871z M17.838,43.681l-1.456,1.457l-1.456-1.457
	l1.456-1.456L17.838,43.681z M20.875,46.016h-1.368v-1.368l-0.967-0.967l0.967-0.967v-1.368h1.368l0.967-0.967l0.967,0.967h1.369
	v1.368l0.967,0.967l0,0h0l-0.967,0.968v1.367h-1.369l-0.966,0.967h-0.001l0,0L20.875,46.016z M23.015,46.513h1.658v-1.658
	l0.822-0.822l1.456,1.456l-1.339,1.339v0.624h-0.624l-1.339,1.339l-1.456-1.456L23.015,46.513z M25.846,43.682L25.846,43.682
	l1.456-1.456l1.457,1.456v0h0l-1.456,1.456L25.846,43.682z M25.846,32.761l1.457-1.456l1.456,1.456l-1.456,1.456L25.846,32.761z
	 M22.809,30.426h1.368v1.368l0.967,0.967l-0.967,0.968v1.368h-1.368l-0.967,0.967v0l0,0l-0.967-0.967h-1.368v-1.368l-0.967-0.968
	l0.967-0.967v-1.368h1.368l0.967-0.967L22.809,30.426z M20.669,29.93h-1.658v1.658l-0.822,0.822l-1.456-1.456l1.339-1.339v-0.624
	l0.624-0.001l1.339-1.339l1.456,1.456L20.669,29.93z M17.838,32.761l-1.456,1.457l-1.456-1.457l1.456-1.456L17.838,32.761z
	 M16.031,34.568l-1.339,1.339v0.624h-0.624l-1.339,1.339l-1.456-1.456l0.822-0.822h1.658v-1.658l0.822-0.822L16.031,34.568z
	 M16.031,45.488l-1.339,1.339v0.624h-0.624l-1.339,1.339l-1.456-1.456l0.822-0.822h1.658v-1.658l0.822-0.822L16.031,45.488z
	 M15.187,51.25v-0.915h-0.914l-1.194-1.194l1.194-1.194h0.915v-0.915l1.194-1.194l1.194,1.194v0.915h0.915l1.194,1.194l-1.194,1.194
	l-0.914,0v0.915l-1.194,1.194L15.187,51.25z M18.072,51.456v-0.624h0.624l1.339-1.339l1.456,1.456l-0.822,0.823l-1.658,0v1.658
	l-0.822,0.822l-1.456-1.456L18.072,51.456z M20.386,49.142l1.456-1.457l1.456,1.457l-1.456,1.456L20.386,49.142z M26.108,51.25
	v-0.915h-0.914L24,49.142l1.194-1.194h0.914v-0.915l1.194-1.194l1.194,1.194v0.915h0.915l1.194,1.194l-1.194,1.194l-0.915,0v0.915
	l-1.193,1.194L26.108,51.25z M28.992,51.456v-0.624h0.624l1.339-1.339l1.456,1.456l-0.822,0.822l-1.658,0v1.658l-0.822,0.822
	l-1.456-1.456L28.992,51.456z M29.616,47.452h-0.624v-0.624l-1.339-1.339l1.456-1.456l0.822,0.822l0,1.658h1.658l0.822,0.822
	l-1.456,1.456L29.616,47.452z M27.653,41.874l1.339-1.339v-0.624h0.624l1.339-1.339l1.456,1.457l-0.822,0.821h-1.658v1.659
	l-0.822,0.822L27.653,41.874z M27.653,30.954l1.339-1.339v-0.624l0.624-0.001l1.339-1.339l1.456,1.456l-0.822,0.822h-1.658v1.658
	l-0.822,0.822L27.653,30.954z M28.496,25.192v0.915h0.915l1.194,1.194l-1.194,1.194h-0.915v0.914l-1.194,1.194l-1.194-1.194v-0.914
	h-0.914L24,27.301l1.194-1.194h0.914v-0.915l1.194-1.194L28.496,25.192z M25.612,24.987v0.624h-0.624l-1.339,1.339l-1.456-1.456
	l0.822-0.822l1.658,0v-1.658l0.822-0.822l1.456,1.457L25.612,24.987z M23.298,27.301l-1.456,1.456l-1.456-1.456l1.456-1.457h0
	L23.298,27.301z M17.576,25.192v0.915h0.915l1.194,1.194l-1.194,1.194h-0.915v0.914l-1.194,1.194l-1.194-1.194v-0.914h-0.914
	l-1.194-1.194l1.194-1.194h0.914v-0.915l1.194-1.194L17.576,25.192z M14.692,24.987v0.624h-0.624l-1.339,1.339l-1.456-1.456
	l0.822-0.822l1.658,0v-1.658l0.822-0.822l1.456,1.457L14.692,24.987z M12.378,27.301l-1.457,1.456l-1.457-1.456l1.457-1.457
	L12.378,27.301z M12.378,38.221l-1.457,1.456l-1.456-1.456l1.456-1.456L12.378,38.221z M12.378,49.142l-1.457,1.456l-1.456-1.456
	l1.456-1.457L12.378,49.142z M12.094,57.433l1.658,0v-1.658l0.822-0.822l1.456,1.456l-1.339,1.339v0.624h-0.624l-1.339,1.34
	l-1.456-1.457L12.094,57.433z M14.926,54.602l1.456-1.456l1.456,1.456l-1.456,1.457L14.926,54.602z M20.875,56.937h-1.368v-1.368
	l-0.967-0.967l0,0l0.967-0.967v-1.368h1.368l0.967-0.967l0.968,0.967h1.368v1.368l0.967,0.967l-0.967,0.967v1.368h-1.368
	l-0.967,0.967l0,0L20.875,56.937z M23.015,57.433l1.658,0v-1.658l0.822-0.822l1.456,1.456l-1.339,1.339v0.624h-0.625l-1.339,1.339
	l-1.456-1.457L23.015,57.433z M25.846,54.602l1.456-1.456l1.457,1.456l-1.456,1.457L25.846,54.602z M31.306,49.142l1.457-1.457
	l1.456,1.457l-1.456,1.456L31.306,49.142z M31.306,38.221l1.456-1.456h0.001l0,0l1.456,1.456l-1.456,1.456L31.306,38.221z
	 M32.762,28.757l-1.456-1.456l1.456-1.457h0.001l1.456,1.457L32.762,28.757z M31.589,19.009h-1.658v1.659l-0.822,0.822l-1.456-1.456
	l1.339-1.339V18.07h0.624l1.339-1.339l1.456,1.456L31.589,19.009z M28.759,21.841l-1.457,1.456l-1.456-1.456l1.456-1.457
	L28.759,21.841z M25.495,21.49l-0.822-0.822v-1.659h-1.658l-0.822-0.822l1.456-1.456l1.339,1.339h0.624l0,0.624l1.339,1.339
	L25.495,21.49z M22.809,19.505h1.368v1.368l0.967,0.968l-0.967,0.967v1.368l-1.368-0.001l-0.967,0.968v-0.001l0,0l-0.967-0.967
	h-1.368v-1.368l-0.967-0.967l0,0l0.967-0.967v-1.368h1.368l0.967-0.967L22.809,19.505z M20.669,19.009h-1.658v1.659l-0.822,0.822
	l-1.456-1.456l1.339-1.339V18.07h0.624l1.339-1.339l1.456,1.456L20.669,19.009z M17.838,21.841L17.838,21.841l-1.456,1.456
	l-1.456-1.456l0,0l1.457-1.457L17.838,21.841z M11.889,19.505h1.368v1.368l0.967,0.968l-0.967,0.967v1.368l-1.368-0.001
	l-0.967,0.968l0-0.001l0,0.001l-0.967-0.968H8.586v-1.368l-0.967-0.967l0.967-0.968v-1.368h1.368l0.967-0.967L11.889,19.505z
	 M9.749,19.009H8.091v1.659L7.269,21.49l-1.457-1.456l1.339-1.339V18.07h0.624l1.339-1.339l1.456,1.456L9.749,19.009z
	 M10.571,29.108L9.749,29.93H8.09v1.658L7.269,32.41l-1.457-1.456l1.339-1.339v-0.624l0.624-0.001l1.339-1.339L10.571,29.108z
	 M10.571,40.029L9.749,40.85H8.09v1.658l-0.822,0.822l-1.456-1.456l1.339-1.339v-0.625h0.624l1.339-1.339L10.571,40.029z
	 M10.571,50.949l-0.822,0.822l-1.658,0v1.658l-0.822,0.822l-1.456-1.456l1.339-1.339v-0.624h0.625l1.339-1.34L10.571,50.949z
	 M10.571,61.869l-0.822,0.822H8.09v1.658l-0.822,0.822l-1.457-1.456l1.339-1.339v-0.625h0.625l1.339-1.338L10.571,61.869z
	 M9.465,60.062l1.456-1.456h0l1.456,1.456l-1.457,1.456L9.465,60.062z M15.187,62.17v-0.915h-0.914l-1.194-1.194l1.194-1.194h0.915
	v-0.915l1.194-1.194l1.194,1.194v0.915h0.914l1.194,1.194l-1.194,1.195l-0.915-0.001v0.915l-1.194,1.194L15.187,62.17z
	 M18.072,62.376v-0.625h0.624l1.339-1.338l1.456,1.456l-0.822,0.822h-1.658v1.658l-0.822,0.822l-1.456-1.456L18.072,62.376z
	 M20.386,60.062l1.456-1.456h0l1.456,1.456l-1.457,1.456L20.386,60.062z M26.108,62.17v-0.915h-0.914L24,60.062l1.194-1.194h0.914
	v-0.915l1.194-1.194l1.194,1.194v0.915h0.915l1.194,1.194l-1.194,1.194l-0.914-0.001v0.915l-1.194,1.194L26.108,62.17z
	 M28.992,62.376v-0.625h0.624l1.339-1.338l1.456,1.456l-0.822,0.822h-1.658v1.658l-0.822,0.822l-1.456-1.456L28.992,62.376z
	 M31.306,60.062l1.457-1.456l1.456,1.456l-1.456,1.456L31.306,60.062z M33.113,58.255l0.822-0.822l1.659,0v-1.658l0.822-0.822
	l1.456,1.456l-1.339,1.339v0.624h-0.624l-1.339,1.34L33.113,58.255z M33.113,47.334l0.822-0.822h1.659v-1.658l0.822-0.822
	l1.456,1.456l-1.339,1.339v0.624h-0.624l-1.339,1.339L33.113,47.334z M33.113,36.414l0.822-0.822h1.659v-1.658l0.822-0.822
	l1.456,1.456l-1.339,1.339v0.624h-0.625l-1.339,1.339L33.113,36.414z M33.113,25.494l0.822-0.822l1.659,0v-1.658l0.822-0.822
	l1.456,1.457l-1.339,1.339v0.624h-0.624l-1.339,1.339L33.113,25.494z M33.113,14.573l0.822-0.821h1.659v-1.659l0.822-0.822
	l1.456,1.457l-1.339,1.339v0.624h-0.624l-1.339,1.339L33.113,14.573z M34.219,16.381l-1.456,1.456l-1.456-1.456l1.457-1.456
	L34.219,16.381z M28.496,14.272v0.915h0.915l1.194,1.194l-1.194,1.194h-0.915v0.915l-1.193,1.194l-1.194-1.194v-0.915h-0.914
	L24,16.381l1.194-1.194h0.914v-0.915l1.194-1.194L28.496,14.272z M25.612,14.066v0.624h-0.625l-1.339,1.339l-1.456-1.456
	l0.822-0.822h1.658v-1.659l0.822-0.822l1.456,1.457L25.612,14.066z M23.298,16.381l-1.457,1.456l-1.456-1.456l1.456-1.456h0
	L23.298,16.381z M17.576,14.272v0.915h0.915l1.194,1.194l-1.194,1.194h-0.915v0.915l-1.194,1.194l-1.194-1.194v-0.915h-0.914
	l-1.194-1.194l1.194-1.194h0.915v-0.915l1.194-1.194L17.576,14.272z M14.692,14.067v0.624h-0.624l-1.339,1.339l-1.456-1.456
	l0.822-0.822h1.658v-1.659l0.822-0.822l1.456,1.457L14.692,14.067z M12.378,16.381l-1.457,1.456l-1.456-1.456l1.456-1.456h0
	L12.378,16.381z M5.462,12.377L4.005,10.92h0l1.457-1.456l1.456,1.456L5.462,12.377z M6.918,21.841l-1.456,1.456l-1.456-1.456
	l1.456-1.457L6.918,21.841z M5.462,31.305l1.456,1.456l0,0l-1.456,1.456l-1.457-1.457L5.462,31.305z M6.918,43.681L6.918,43.681
	l-1.456,1.457l-1.456-1.457l1.456-1.456L6.918,43.681z M6.918,54.602l-1.456,1.457l-1.456-1.457l1.456-1.456L6.918,54.602z
	 M6.918,65.522L6.918,65.522l-1.456,1.457l-1.457-1.457l1.456-1.456L6.918,65.522z M9.954,67.858H8.586V66.49l-0.967-0.968
	l0.967-0.967v-1.368h1.368l0.967-0.967l0.967,0.967h1.368v1.368l0.967,0.967l-0.967,0.968v1.368h-1.368l-0.967,0.967h0L9.954,67.858
	z M12.094,68.353h1.658v-1.659l0.822-0.822l1.456,1.456l-1.339,1.339v0.624h-0.624l-1.339,1.339l-1.456-1.457L12.094,68.353z
	 M14.926,65.522l1.456-1.456l1.456,1.456l-1.456,1.457L14.926,65.522z M20.875,67.858h-1.368V66.49l-0.967-0.968h0l0.967-0.967
	v-1.368h1.368l0.967-0.967l0.968,0.967h1.368v1.368l0.967,0.967l-0.967,0.968v1.368h-1.368l-0.967,0.967h0L20.875,67.858z
	 M23.015,68.353h1.658v-1.659l0.822-0.822l1.456,1.456l-1.339,1.339v0.624h-0.625l-1.339,1.339l-1.456-1.457L23.015,68.353z
	 M25.846,65.522L25.846,65.522l1.456-1.456l1.457,1.456l-1.456,1.457L25.846,65.522z M31.795,67.858h-1.368V66.49l-0.967-0.968
	l0.967-0.967v-1.368h1.368l0.968-0.967l0.967,0.967h1.368v1.368l0.967,0.967l-0.967,0.968v1.368H33.73l-0.967,0.967h-0.001
	L31.795,67.858z M33.935,68.353h1.659v-1.659l0.822-0.822l1.456,1.456l-1.339,1.339v0.624h-0.624l-1.339,1.339l-1.456-1.457
	L33.935,68.353z M36.766,65.522l1.456-1.456l1.456,1.456l-1.456,1.457L36.766,65.522z M36.766,54.602l1.456-1.456l1.456,1.456
	l-1.456,1.457L36.766,54.602z M36.766,43.681l1.456-1.456l1.456,1.456l-1.456,1.457L36.766,43.681z M36.766,32.761l1.456-1.456
	l1.456,1.456l-1.456,1.457L36.766,32.761z M36.766,21.841l1.456-1.457l1.456,1.457v0l-1.456,1.456L36.766,21.841z M33.73,8.585
	h1.368v1.368l0.967,0.967l-0.967,0.967v1.368H33.73l-0.967,0.967h0l0,0l-0.967-0.967h-1.368v-1.368L29.46,10.92h0l0,0l0.967-0.967
	V8.585h1.368l0.968-0.967L33.73,8.585z M31.589,8.089h-1.658v1.658l-0.822,0.822l-1.456-1.456l1.339-1.339V7.15h0.624l1.339-1.339
	l1.456,1.456L31.589,8.089z M28.759,10.92L28.759,10.92L28.759,10.92l-1.456,1.457l-1.457-1.456l1.457-1.456L28.759,10.92z
	 M22.809,8.585h1.368v1.368l0.967,0.967l-0.967,0.967v1.368h-1.368l-0.967,0.967h-0.001l0,0l-0.967-0.967h-1.368v-1.368
	l-0.967-0.967h0l0.967-0.967V8.585h1.368l0.967-0.967h0L22.809,8.585z M20.669,8.089h-1.658v1.658l-0.822,0.822l-1.456-1.456
	l1.339-1.339V7.15h0.624l1.339-1.339l1.456,1.457L20.669,8.089z M17.838,10.92l-1.456,1.456l-1.456-1.456l1.456-1.456L17.838,10.92z
	 M11.889,8.585h1.368l0,1.368l0.967,0.967l-0.967,0.967v1.368h-1.368l-0.967,0.967l0,0v0l-0.967-0.967H8.586v-1.368l-0.967-0.967
	V10.92l0.967-0.967V8.585h1.368l0.967-0.967L11.889,8.585z M9.749,8.089H8.09v1.658L7.269,10.57L5.812,9.113l1.339-1.339V7.15h0.624
	l1.339-1.339l1.456,1.456L9.749,8.089z M0.352,3.654l0.822-0.822h1.658V1.173l0.822-0.822l1.456,1.456L3.772,3.146V3.77H3.148
	L1.808,5.109L0.352,3.654z M2.832,9.747V8.089H1.174L0.352,7.267l1.456-1.457L3.148,7.15h0.624v0.624l1.339,1.339L3.655,10.57
	L2.832,9.747z M0.352,14.573l0.822-0.821h1.658v-1.659l0.822-0.822l1.456,1.457l-1.339,1.339v0.624H3.147L1.808,16.03L0.352,14.573z
	 M2.833,20.668v-1.659H1.174l-0.822-0.822l1.456-1.456l1.339,1.339h0.624v0.624l1.339,1.339L3.655,21.49L2.833,20.668z
	 M0.352,25.494l0.822-0.822l1.658,0v-1.658l0.822-0.822l1.456,1.457l-1.339,1.339v0.624H3.147L1.808,26.95L0.352,25.494z
	 M2.832,31.588V29.93H1.174l-0.822-0.822l1.457-1.456l1.339,1.339h0.624v0.625l1.339,1.339L3.655,32.41L2.832,31.588z M0.352,36.414
	l0.822-0.822h1.659v-1.658l0.822-0.822l1.456,1.456l-1.339,1.339v0.624H3.148L1.808,37.87L0.352,36.414z M2.832,42.509V40.85H1.174
	l-0.822-0.821l1.456-1.457l1.339,1.339h0.624v0.624l1.339,1.339l-1.456,1.457L2.832,42.509z M0.352,47.334l0.821-0.822h1.659v-1.658
	l0.822-0.822l1.456,1.456l-1.339,1.339v0.624H3.147l-1.339,1.339L0.352,47.334z M2.832,53.429v-1.658H1.174l-0.822-0.822
	l1.456-1.457l1.339,1.34h0.624v0.624l1.339,1.339l-1.456,1.456L2.832,53.429z M0.352,58.255l0.822-0.822l1.658,0v-1.658l0.822-0.822
	l1.456,1.456l-1.339,1.339v0.624H3.148l-1.339,1.34L0.352,58.255z M2.832,64.349v-1.658H1.174l-0.822-0.822l1.456-1.456l1.339,1.339
	h0.624v0.625l1.339,1.339l-1.456,1.457L2.832,64.349z M0.352,69.175l0.821-0.822h1.659v-1.659l0.822-0.822l1.456,1.456l-1.339,1.339
	v0.624H3.147l-1.339,1.339L0.352,69.175z M3.655,76.092L2.832,75.27v-1.658H1.174l-0.822-0.822l1.457-1.457l1.339,1.339h0.624v0.624
	l1.339,1.339L3.655,76.092z M4.267,73.091v-0.914H3.353l-1.194-1.194l1.194-1.194h0.915v-0.915l1.194-1.194l1.194,1.194v0.915H7.57
	l1.194,1.194L7.57,72.177H6.655v0.914l-1.194,1.194L4.267,73.091z M9.749,73.612H8.09v1.658l-0.822,0.822l-1.457-1.457l1.339-1.338
	v-0.625h0.625l1.339-1.339l1.456,1.457L9.749,73.612z M9.465,70.983l1.456-1.456h0l1.456,1.456l-1.457,1.456L9.465,70.983z
	 M14.575,76.092l-0.822-0.822v-1.658h-1.658l-0.822-0.822l1.456-1.457l1.339,1.339h0.624v0.624l1.339,1.339L14.575,76.092z
	 M15.187,73.091v-0.914h-0.914l-1.194-1.194l1.194-1.194h0.914v-0.915l1.194-1.194l1.194,1.194v0.915h0.915l1.194,1.194
	l-1.194,1.194h-0.915v0.914l-1.194,1.194L15.187,73.091z M20.669,73.612h-1.658v1.658l-0.822,0.822l-1.456-1.457l1.339-1.339v-0.624
	h0.624l1.339-1.339l1.456,1.457L20.669,73.612z M21.842,72.439l-1.456-1.456l1.456-1.456h0l1.456,1.456L21.842,72.439L21.842,72.439
	z M25.495,76.092l-0.822-0.822v-1.658h-1.658l-0.822-0.822l1.456-1.457l1.339,1.339h0.624v0.624l1.339,1.339L25.495,76.092z
	 M26.108,73.091v-0.914h-0.914L24,70.982l1.194-1.194h0.914v-0.915l1.194-1.194l1.194,1.194v0.915h0.915l1.194,1.194l-1.194,1.194
	h-0.914v0.914l-1.194,1.194L26.108,73.091z M31.589,73.612h-1.658v1.658l-0.822,0.822l-1.456-1.457l1.339-1.339v-0.624h0.624
	l1.339-1.339l1.456,1.457L31.589,73.612z M31.306,70.982l1.456-1.456h0.001l1.456,1.456l-1.456,1.456L31.306,70.982z M36.416,76.092
	l-0.822-0.822v-1.658h-1.659l-0.822-0.822l1.456-1.457l1.339,1.339h0.624l0,0.624l1.339,1.339L36.416,76.092z M37.029,73.091v-0.914
	h-0.914l-1.194-1.194l1.194-1.194h0.915v-0.915l1.194-1.194l1.194,1.194v0.915h0.914l1.194,1.194l-1.194,1.194h-0.915v0.914
	l-1.194,1.194L37.029,73.091z M43.332,72.789l-0.822,0.822h-1.659v1.658l-0.821,0.822l-1.457-1.457l1.339-1.339v-0.624h0.624
	l1.339-1.339L43.332,72.789z M40.851,66.695v1.659h1.658l0.822,0.822l-1.456,1.456l-1.339-1.339h-0.624v-0.624l-1.339-1.339
	l1.456-1.456L40.851,66.695z M43.332,61.869l-0.822,0.822h-1.658v1.658l-0.821,0.822l-1.457-1.456l1.339-1.339v-0.625h0.624
	l1.339-1.338L43.332,61.869z M40.851,55.775v1.658h1.658l0.822,0.822l-1.456,1.457l-1.339-1.34h-0.624v-0.624l-1.339-1.339
	l1.457-1.456L40.851,55.775z M43.332,50.948l-0.822,0.823l-1.658,0v1.658l-0.822,0.822l-1.456-1.456l1.339-1.339v-0.624h0.624
	l1.339-1.34L43.332,50.948z M40.851,44.855v1.658h1.658l0.822,0.822l-1.456,1.457l-1.339-1.339h-0.624v-0.624l-1.339-1.339
	l1.457-1.456L40.851,44.855z M43.332,40.029L42.51,40.85h-1.658v1.659l-0.822,0.822l-1.457-1.457l1.339-1.339v-0.624h0.624
	l1.339-1.339L43.332,40.029z M40.851,33.934v1.658h1.658l0.822,0.822l-1.456,1.456l-1.339-1.339h-0.624v-0.624l-1.339-1.339
	l1.457-1.456L40.851,33.934z M43.332,29.108L42.51,29.93h-1.659v1.658L40.03,32.41l-1.457-1.456l1.339-1.339v-0.624l0.624-0.001
	l1.339-1.339L43.332,29.108z M40.851,23.013v1.658h1.658l0.822,0.822l-1.456,1.456l-1.339-1.339h-0.624v-0.625l-1.339-1.339
	l1.457-1.457L40.851,23.013z M43.332,18.188l-0.822,0.822h-1.658v1.659L40.03,21.49l-1.457-1.456l1.339-1.339V18.07h0.624
	l1.339-1.339L43.332,18.188z M40.851,12.093v1.659h1.658l0.822,0.822l-1.456,1.456l-1.339-1.339h-0.624v-0.624l-1.339-1.339
	l1.456-1.456L40.851,12.093z M43.332,7.267L42.51,8.089h-1.658v1.658L40.03,10.57l-1.456-1.456l1.339-1.339V7.15h0.624l1.339-1.339
	L43.332,7.267z M40.03,0.351l0.822,0.822v1.658h1.658l0.822,0.822l-1.456,1.456L40.537,3.77h-0.624V3.146l-1.339-1.339L40.03,0.351z
	 M39.416,3.352v0.915h0.915l1.194,1.194l-1.194,1.194h-0.914v0.915l-1.194,1.194l-1.194-1.194V6.654h-0.914L34.92,5.46l1.194-1.194
	h0.914V3.352l1.194-1.194L39.416,3.352z M33.935,2.831h1.659V1.173l0.822-0.822l1.456,1.456l-1.339,1.339V3.77h-0.624l-1.339,1.339
	l-1.456-1.456L33.935,2.831z M34.219,5.46l-1.456,1.456l-0.001,0L31.306,5.46l1.457-1.456L34.219,5.46z M29.109,0.351l0.822,0.822
	v1.658h1.658l0.822,0.822l-1.456,1.456L29.616,3.77h-0.624V3.146l-1.339-1.339L29.109,0.351z M28.496,3.352v0.915h0.914l1.194,1.194
	l-1.194,1.194h-0.915v0.915l-1.194,1.194l-1.194-1.194V6.654h-0.914L24,5.46l1.194-1.194h0.914V3.352l1.194-1.194L28.496,3.352z
	 M23.015,2.831h1.658V1.173l0.822-0.822l1.456,1.456l-1.34,1.339V3.77h-0.624l-1.339,1.339l-1.456-1.456L23.015,2.831z
	 M21.842,4.004l1.456,1.456l-1.456,1.457v0l0,0L20.386,5.46L21.842,4.004L21.842,4.004z M18.189,0.351l0.822,0.822v1.658h1.658
	l0.822,0.822l-1.456,1.456L18.696,3.77h-0.624V3.146l-1.339-1.339L18.189,0.351z M17.576,3.352v0.915h0.915l1.194,1.194
	l-1.194,1.194h-0.915v0.915l-1.194,1.194l-1.194-1.194V6.654h-0.914L13.08,5.46l1.194-1.194h0.914V3.352l1.194-1.194L17.576,3.352z
	 M12.094,2.831h1.658V1.173l0.822-0.822l1.456,1.456l-1.339,1.339V3.77h-0.624l-1.339,1.339l-1.456-1.456L12.094,2.831z
	 M10.922,4.004l1.456,1.456l-1.457,1.456v0L9.465,5.46L10.922,4.004L10.922,4.004z M7.268,0.351L8.09,1.173v1.658h1.658l0.822,0.822
	L9.115,5.109L7.775,3.77H7.151V3.146L5.812,1.807L7.268,0.351z"/>
</svg>
