<?xml version="1.0" encoding="iso-8859-1"?>
<!-- Generator: Adobe Illustrator 24.2.3, SVG Export Plug-In . SVG Version: 6.00 Build 0)  -->
<svg version="1.1" id="&#x5716;&#x5C64;_1" xmlns="http://www.w3.org/2000/svg" xmlns:xlink="http://www.w3.org/1999/xlink" x="0px"
	 y="0px" viewBox="0 0 318.418 557.144" style="enable-background:new 0 0 318.418 557.144;" xml:space="preserve">
<path style="opacity:0.07;fill:#C9C08E;" d="M50.424,0.002L39.812,10.617L29.197,0.002L29.195,0h-5.113l0.001,0.002l-7.051,7.049
	v9.971H7.058l-7.05,7.051H0.007L0,24.065v5.128l0.007-0.007h0.001L10.624,39.8L0.008,50.417l-0.001-0.002v0.002L0,50.409v5.125
	l0.007-0.007h0.001l7.05,7.051h9.973v9.973l7.051,7.051l-7.051,7.051v9.972H7.058l-7.046,7.047H0.01l-0.003,0.004L0,103.668v5.127
	l0.007-0.007h0.001l10.614,10.615L0.008,130.018L0,130.009v5.128l0.007-0.007l7.051,7.051h9.972v9.972l7.051,7.053l-7.051,7.049
	v9.973l-9.972-0.004l-7.046,7.051l-0.004-0.004l-0.001,0.005L0,183.27v5.125l0.008-0.007l10.615,10.615L0.007,209.617L0,209.61v5.13
	l0.007-0.007l7.051,7.049h9.972v9.974l7.051,7.047l-7.051,7.053v9.971H7.058l-7.046,7.051l-0.004-0.002l-0.001,0.005L0,262.875
	v5.123l0.007-0.007h0.001l10.615,10.615L0.007,289.221L0,289.213v5.13l0.007-0.007l7.051,7.047h9.972v9.973l7.051,7.051
	l-7.051,7.053v9.967H7.058l-7.05,7.053v-0.002l-0.001,0.002L0,342.472v5.128l0.008-0.009l10.615,10.617L0.007,368.824L0,368.816
	v5.127l0.008-0.007l7.05,7.051h9.973v9.974l7.049,7.047l-7.049,7.051v9.972H7.058l-7.05,7.051v-0.002l-0.001,0.002L0,422.075v5.127
	l0.007-0.008h0.001l10.615,10.613L0.007,448.423L0,448.416v5.132l0.007-0.007l7.051,7.047h9.972v9.971l7.051,7.051l-7.051,7.055
	v9.969H7.058l-7.046,7.051H0.007L0,501.677v5.13l0.01-0.009l10.613,10.613L0.008,528.026H0.007L0,528.019v5.127l0.008-0.007
	l7.05,7.051h9.972v9.974l6.98,6.981h5.252l10.55-10.551l10.545,10.551h5.253l6.979-6.981v-9.971l9.97-0.004l7.052-7.051l7.05,7.051
	h9.972v9.974l6.981,6.981h5.251l10.547-10.551l10.549,10.551h5.249l6.982-6.981v-9.971l9.971-0.004l7.051-7.051l7.049,7.051h9.976
	v9.974l6.975,6.981h5.252l10.552-10.551l10.546,10.551h5.249l6.981-6.981v-9.971l9.971-0.004l7.05-7.051l7.052,7.051h9.973v9.974
	l6.98,6.981h5.252l10.547-10.551l10.549,10.551h5.245l6.988-6.981v-9.971l9.969-0.004l7.052-7.051v-5.116l-0.003,0.004
	l-10.612-10.613l10.612-10.615h0.003v-5.114h-0.003l-7.049-7.051h-9.973l0.004-9.969l-7.056-7.055l7.056-7.047v-9.975h9.969
	l7.052-7.047v-5.117h-0.003l-10.612-10.615l10.612-10.613h0.003v-5.114l-0.003,0.002l-7.049-7.051h-9.969v-9.972l-7.056-7.051h0.002
	l-0.002-0.002l7.056-7.045v-9.974h9.969l7.052-7.051v-5.116l-0.003,0.004l-10.617-10.615l10.617-10.615l0.003-0.002v-5.114
	l-0.003,0.002l-7.049-7.053h-9.969v-9.967l-7.056-7.053l7.056-7.051v-9.973h9.969l7.049-7.047l0.003,0.002v-5.119l-0.003,0.002
	l-10.617-10.615l10.62-10.615v-5.114l-0.003,0.005l-7.049-7.055h-9.969v-9.971l-7.056-7.053l7.056-7.047v-9.974h9.969l7.052-7.049
	v-5.117l-0.003,0.002l-10.617-10.613l10.617-10.617h0.003v-5.116l-0.003,0.005l-7.049-7.053h-9.973l0.004-9.972l-7.056-7.045
	l0.002-0.002h-0.002l7.056-7.051v-9.972h9.969l7.049-7.051l0.003,0.004v-5.119l-0.003,0.004l-10.612-10.615l10.615-10.615v-5.116
	l-0.003,0.004l-7.049-7.051h-9.973v-9.972l-7.052-7.051v-0.002l7.052-7.049v-9.973h9.973l7.049-7.051l0.003,0.004v-5.116
	l-0.003,0.002L307.798,39.8l10.617-10.613h0.003v-5.114h-0.003l-7.049-7.051h-9.973l0.004-9.971l-7.056-7.049V0h-5.11
	l-10.616,10.617L268.001,0.002V0h-5.115l0.001,0.002l-7.051,7.049v9.971h-9.973l-7.048,7.051l-7.054-7.051h-9.971V7.049
	l-7.052-7.047L214.74,0h-5.111l-0.003,0.002h0.003l-10.615,10.615L188.399,0.002V0h-5.115l0.001,0.002l-7.047,7.049v9.971h-9.976
	l-7.051,7.051l-7.049-7.051h-9.971V7.049l-7.052-7.047L135.141,0h-5.115l-10.614,10.617L108.797,0.002V0h-5.114l0.001,0.002
	l-7.052,7.049v9.971h-9.972l-7.047,7.051h-0.003l-7.051-7.051h-9.971V7.051l-7.05-7.049L55.54,0h-5.116l-0.003,0.002H50.424z
	 M48.514,24.431v6.667h6.664l8.705,8.702l-8.705,8.702h-6.666v6.67l-8.702,8.702l-8.704-8.706v-6.667h-6.667L15.737,39.8
	l8.702-8.702h6.667v-6.667l8.706-8.702L48.514,24.431z M116.855,66.434L106.24,77.045l-5.993-5.995V58.966H88.158l-5.993-5.993
	l10.615-10.617l9.765,9.764h4.549v4.548L116.855,66.434z M196.458,66.43l-10.616,10.615l-5.993-5.995V58.966h-12.088l-5.994-5.993
	l10.616-10.617l9.761,9.764h4.551v4.548L196.458,66.43z M276.06,66.434l-10.616,10.611l-5.992-5.995V58.966h-12.09l-5.992-5.993
	l10.616-10.617l9.761,9.764h4.548v4.548L276.06,66.434z M289.232,79.605l-10.616,10.612l-10.617-10.615l10.617-10.615l10.616,10.613
	l-0.002,0.002L289.232,79.605z M293.986,110.699l8.704,8.704l-8.706,8.702h-6.667v6.667l-8.702,8.704l-8.703-8.704v-6.667h-6.667
	l-8.703-8.702l8.703-8.704h6.666v-6.667l8.704-8.702l8.706,8.702v6.667H293.986z M293.986,190.3l8.704,8.704l-8.704,8.704h-6.665
	v6.665l-8.706,8.706l-8.704-8.706l0.001-6.665h-6.667l-8.703-8.704l8.701-8.704h6.669v-6.667l8.703-8.704l8.702,8.704v6.667H293.986
	z M293.986,269.902l8.704,8.704l-8.704,8.706h-6.665v6.667l-8.706,8.702l-8.703-8.706v-6.663h-6.667l-8.703-8.706l8.701-8.704h6.669
	v-6.665l8.703-8.706l8.706,8.706v6.665H293.986z M293.986,349.505l8.704,8.704l-8.704,8.702l-6.669-0.002v6.671l-8.702,8.702
	l-8.704-8.706v-6.667h-6.666l-8.703-8.7l8.701-8.704h6.669v-6.667l8.703-8.704l8.706,8.704v6.667H293.986z M293.986,429.106
	l8.704,8.702l-8.704,8.709l-6.665-0.007v6.671l-8.706,8.702l-8.704-8.706v-6.667h-6.666l-8.703-8.702l8.703-8.702h6.666v-6.667
	l8.704-8.702l8.702,8.702v6.667H293.986z M201.571,490.782l10.613-10.615l5.993,5.989v12.091h12.087l5.994,5.993l-10.614,10.615
	l-9.762-9.762h-4.551l0.003-4.55L201.571,490.782z M121.97,490.782l10.613-10.615l5.992,5.989l0.001,12.091h12.088l5.99,5.993
	l-10.613,10.615l-9.76-9.762h-4.551v-4.55L121.97,490.782z M42.367,490.782l10.614-10.615l5.993,5.993v12.087h12.088l5.991,5.993
	l-10.614,10.615l-9.759-9.762h-4.553v-4.55L42.367,490.782z M24.441,446.51l-8.702-8.702l8.7-8.702h6.667v-6.667l8.704-8.702
	l8.702,8.702v6.667h6.668l8.703,8.702l-8.703,8.709l-6.666-0.007v6.671l-8.702,8.702l-8.706-8.706v-6.667H24.441z M24.439,366.909
	l-8.7-8.7l8.7-8.704h6.667v-6.667l8.706-8.704l8.702,8.704v6.667h6.666l8.703,8.704l-8.703,8.702l-6.668-0.002v6.671l-8.7,8.702
	l-8.706-8.706v-6.667H24.439z M24.441,287.311l-8.702-8.706l8.7-8.704h6.67v-6.665l8.703-8.702l8.7,8.702v6.665h6.668l8.703,8.704
	l-8.705,8.706h-6.664v6.667l-8.702,8.698l-8.706-8.702v-6.663H24.441z M24.441,207.708l-8.702-8.704l8.7-8.704h6.67v-6.667
	l8.703-8.704l8.702,8.704v6.667h6.664l8.705,8.704l-8.703,8.704h-6.668v6.665l-8.702,8.706l-8.704-8.706v-6.665H24.441z
	 M24.439,128.105l-8.7-8.702l8.7-8.704h6.667v-6.667l8.706-8.702l8.7,8.702v6.667h6.668l8.703,8.704l-8.705,8.702h-6.664v6.667
	l-8.702,8.704l-8.706-8.704v-6.667H24.439z M71.061,100.241l5.992,5.991l-10.613,10.615l-9.76-9.762h-4.55v-4.551l-9.762-9.762
	l10.617-10.613l5.99,5.993v12.089H71.061z M150.661,100.241l5.993,5.991l-10.613,10.615l-9.762-9.762h-4.55v-4.551l-9.762-9.762
	l10.616-10.615l5.993,5.991v12.093H150.661z M230.264,100.241l5.994,5.991l-10.614,10.615l-9.761-9.762h-4.552v-4.551l-9.759-9.762
	l10.613-10.615l5.993,5.991v12.093H230.264z M276.059,146.031l-10.615,10.615l-5.992-5.989v-12.093h-12.09l-5.992-5.991
	l10.616-10.615l9.764,9.762h4.546v4.551L276.059,146.031z M276.06,225.633l-10.614,10.615l-5.994-5.991v-12.089h-12.09l-5.992-5.995
	l10.616-10.615l9.761,9.762h4.55v4.552L276.06,225.633z M276.06,305.236l-10.616,10.615l-5.992-5.991v-12.093H247.36l-5.99-5.991
	l10.614-10.615l9.763,9.762h4.548v4.55L276.06,305.236z M276.059,384.837l-10.613,10.613l-5.994-5.991v-12.089H247.36l-5.99-5.993
	l10.616-10.617l9.761,9.766h4.548v4.551L276.059,384.837z M276.06,464.438l-10.616,10.615l-5.992-5.993v-12.087h-12.09l-5.992-5.995
	l10.616-10.611l9.761,9.755h4.55v4.556L276.06,464.438z M167.762,456.974l-5.995-5.995l10.616-10.615l9.761,9.758h4.55v4.556
	l9.764,9.76l-10.613,10.615l-5.996-5.993v-12.087H167.762z M88.159,456.974l-5.991-5.995l10.614-10.611l9.761,9.755h4.551v4.556
	l9.761,9.76l-10.615,10.615l-5.995-5.993l0.002-12.087H88.159z M42.367,411.181l10.617-10.615l5.993,5.995v12.082h12.085
	l5.993,5.995l-10.615,10.619l-9.76-9.766h-4.553v-4.551L42.367,411.181z M42.367,331.578l10.617-10.613l5.99,5.993v12.085h12.087
	l5.992,5.995l-10.613,10.611l-9.76-9.76h-4.55v-4.55L42.367,331.578z M42.367,251.979l10.617-10.615l5.99,5.991v12.089h12.087
	l5.992,5.993l-10.613,10.613l-9.76-9.762h-4.55v-4.548L42.367,251.979z M42.367,172.376l10.614-10.617l5.994,5.993v12.087h12.087
	l5.991,5.995l-10.614,10.613l-9.759-9.76h-4.55v-4.552L42.367,172.376z M116.855,146.031l-10.615,10.615l-5.995-5.989l0.002-12.093
	H88.159l-5.991-5.991l10.614-10.615l9.763,9.762h4.549v4.551L116.855,146.031z M262.888,159.204h-0.003l0.003,0.002l-7.05,7.049
	v9.973l-9.974-0.004l-7.048,7.053v-0.005l-0.004,0.005l-7.05-7.053h-9.971v-9.969l-7.052-7.049l0.002-0.002h-0.002l7.052-7.051
	v-9.972h9.971l7.054-7.051l7.048,7.051h9.974v9.972L262.888,159.204z M262.888,238.804l-7.051,7.053v9.971h-9.973l-7.048,7.051
	v-0.002l-7.054-7.049h-9.971v-9.971l-7.052-7.053l7.052-7.049v-9.972h9.971l7.054-7.049l7.048,7.049h9.973v9.974L262.888,238.804z
	 M262.888,318.407l-7.051,7.053v9.967h-9.973l-7.048,7.051l-0.004,0.004l-7.05-7.055h-9.971v-9.969l-7.052-7.051v-0.002l7.052-7.049
	v-9.973h9.971l7.054-7.051l7.048,7.051h9.973v9.973L262.888,318.407z M262.885,398.008l-7.048,7.051v9.972h-9.973l-7.052,7.051
	l-7.05-7.051h-9.972v-9.972l-7.051-7.051l7.051-7.051v-9.971h9.972l7.05-7.051l7.055,7.051h9.97v9.974L262.885,398.008z
	 M201.571,411.181l10.614-10.615l5.992,5.991v12.085h12.087l5.994,5.995l-10.614,10.619l-9.762-9.766h-4.551v-4.551L201.571,411.181
	z M121.97,411.181l10.613-10.615l5.993,5.991v12.085h12.09l5.988,5.995l-10.613,10.619l-9.76-9.766h-4.551v-4.551L121.97,411.181z
	 M55.539,398.008v-0.002l7.05-7.049v-9.971h9.971l7.051-7.051l7.05,7.051h9.972v9.974l7.052,7.047l-7.052,7.051v9.972H86.66
	l-7.046,7.049l-0.003,0.002l-7.051-7.051h-9.971v-9.972L55.539,398.008z M55.539,318.407v-0.002l7.047-7.049v-9.973h9.973
	l7.052-7.047l0.003-0.004l7.046,7.051h9.973v9.973l7.052,7.051l-7.052,7.053v9.967H86.66l-7.049,7.053l-7.051-7.053h-9.974v-9.967
	L55.539,318.407z M55.539,238.804l7.05-7.049v-9.972h9.97l7.052-7.049l7.05,7.049h9.972l0.003,9.974l7.049,7.047l-7.049,7.053v9.971
	H86.66l-7.046,7.049h-0.003l-7.051-7.049h-9.971v-9.971L55.539,238.804z M150.661,179.838l5.993,5.995l-10.613,10.613l-9.762-9.76
	h-4.549v-4.552l-9.763-9.758l10.616-10.617l5.993,5.993v12.087H150.661z M230.264,179.838l5.994,5.995l-10.614,10.613l-9.762-9.76
	h-4.551v-4.552l-9.759-9.758l10.614-10.617l5.992,5.993v12.087H230.264z M230.264,259.443l5.994,5.991l-10.614,10.615l-9.762-9.762
	h-4.551l0.003-4.55l-9.762-9.758l10.613-10.615l5.993,5.991v12.089H230.264z M167.762,377.371l-5.994-5.993l10.618-10.617
	l9.762,9.766h4.547v4.551l9.764,9.76l-10.616,10.613l-5.993-5.991v-12.089H167.762z M88.159,377.371l-5.994-5.995l10.615-10.615
	l9.765,9.766h4.549v4.551l9.761,9.76l-10.615,10.615l-5.995-5.993v-12.089H88.159z M88.156,297.767l-5.988-5.987l10.614-10.619
	l9.761,9.762h4.551v4.548l9.761,9.764l-10.615,10.615l-5.993-5.991v-12.093H88.156z M88.159,218.168l-5.994-5.995l10.615-10.615
	l9.763,9.762h4.549v4.552l9.763,9.76l-10.615,10.615l-5.995-5.991l0.002-12.089H88.159z M196.458,225.633l-10.616,10.615
	l-5.993-5.991v-12.089h-12.087l-5.996-5.995l10.618-10.615l9.761,9.762h4.55v4.552L196.458,225.633z M214.384,269.902l8.704,8.704
	l-8.704,8.706h-6.667v6.667l-8.701,8.702l-8.707-8.706v-6.663h-6.663l-8.703-8.706l8.701-8.704h6.665v-6.665l8.703-8.706
	l8.705,8.706v6.665H214.384z M121.97,331.578l10.613-10.615l5.993,5.995v12.085h12.085l5.993,5.995l-10.613,10.611l-9.76-9.76
	h-4.551v-4.55L121.97,331.578z M104.046,287.311l-8.706-8.706l8.701-8.704h6.664v-6.665l8.706-8.706l8.702,8.706v6.665h6.67
	l8.7,8.704l-8.7,8.706h-6.67v6.667l-8.702,8.702l-8.706-8.706v-6.663H104.046z M159.212,267.99l10.615,10.615l-10.615,10.615h-0.002
	l-10.614-10.615l10.614-10.615l0,0H159.212z M196.458,305.236l-10.616,10.615l-5.993-5.991v-12.093h-12.088l-5.994-5.987
	l10.616-10.619l9.761,9.762h4.55v4.55L196.458,305.236z M161.768,265.434l5.994-5.991h12.088v-12.089l5.993-5.991l10.616,10.615
	l-9.764,9.76v4.548h-4.552l-9.758,9.76L161.768,265.434z M156.654,291.78l-5.993,5.987h-12.085v12.089l-5.993,5.995l-10.613-10.619
	l9.76-9.758v-4.55h4.551l9.76-9.762L156.654,291.78z M146.041,276.049l-9.762-9.762h-4.549v-4.548l-9.763-9.76l10.614-10.615
	l5.994,5.991l0.001,12.089h12.088l5.99,5.991L146.041,276.049z M130.027,318.405l-10.616,10.617l-10.614-10.617l10.614-10.613
	L130.027,318.405z M152.161,335.427h-9.971v-9.969l-7.049-7.051l7.049-7.051v-9.973h9.971l7.049-7.047l7.051,7.047h9.976v9.973
	l7.047,7.049l-0.001,0.002h0.001l-7.047,7.053v9.967h-9.976l-7.045,7.051h-0.005l-0.002,0.002L152.161,335.427z M167.762,339.043
	h12.088v-12.085l5.993-5.993l10.616,10.613l-9.764,9.762v4.549h-4.55l-9.759,9.76l-10.615-10.615L167.762,339.043z M188.399,318.407
	l-0.002-0.002l10.615-10.613l10.617,10.613v0.002h-0.003l-10.614,10.615L188.399,318.407z M188.397,238.804l10.617-10.613
	l10.615,10.613l-10.613,10.615L188.397,238.804z M166.261,221.782h9.973v9.974l7.049,7.047l-7.049,7.053v9.971h-9.973l-7.049,7.051
	v-0.002l-0.002,0.002l-7.049-7.051h-9.971v-9.971l-7.052-7.053l7.052-7.049v-9.972h9.971l7.051-7.049L166.261,221.782z
	 M150.661,218.168h-12.085v12.089l-5.993,5.991l-10.616-10.615l9.763-9.76v-4.549l4.549-0.004l9.762-9.762l10.613,10.615
	L150.661,218.168z M130.026,238.804l-10.614,10.617l-10.614-10.617l10.614-10.613L130.026,238.804z M116.855,251.979l-9.763,9.762
	v4.547h-4.549l-9.761,9.76l-10.614-10.613l5.991-5.991h12.088v-12.089l5.993-5.991L116.855,251.979z M116.855,331.578l-9.761,9.762
	v4.549h-4.551l-9.761,9.76l-10.614-10.615l5.991-5.991h12.088v-12.085l5.993-5.995L116.855,331.578z M110.706,373.575v-6.667h-6.664
	l-8.701-8.7l8.701-8.704h6.668v-6.667l8.702-8.704l8.702,8.704v6.667h6.669l8.701,8.704l-8.7,8.702l-6.666-0.002v6.671l-8.706,8.702
	L110.706,373.575z M131.73,375.077v-4.551h4.549l9.762-9.762l10.613,10.613l-5.993,5.996l-12.085-0.004v12.089l-5.993,5.991
	l-10.613-10.613L131.73,375.077z M148.598,358.209l10.614-10.617l10.616,10.617l-10.616,10.615L148.598,358.209z M190.31,373.575
	v-6.667h-6.665l-8.701-8.7l8.701-8.704h6.665v-6.667l8.707-8.704l8.701,8.704v6.667h6.667l8.703,8.704l-8.705,8.702l-6.667-0.002
	v6.671l-8.699,8.702L190.31,373.575z M211.33,375.077v-4.551h4.551l9.762-9.762l10.614,10.615l-5.994,5.995l-12.087-0.004v12.089
	l-5.993,5.991l-10.613-10.613L211.33,375.077z M215.882,345.889h-4.551v-4.55l-9.759-9.76l10.613-10.615l5.993,5.995l0.001,12.085
	h12.085l5.995,5.995l-10.614,10.611L215.882,345.889z M201.571,305.232l9.759-9.758v-4.55h4.551l9.762-9.762l10.614,10.619
	l-5.994,5.987h-12.086v12.093l-5.993,5.991L201.571,305.232z M201.571,225.633l9.762-9.76v-4.549l4.549-0.004l9.762-9.762
	l10.614,10.615l-5.994,5.995h-12.087v12.089l-5.992,5.991L201.571,225.633z M207.715,183.633v6.667h6.669l8.704,8.704l-8.704,8.704
	h-6.667v6.665l-8.705,8.706l-8.703-8.706v-6.665h-6.663l-8.706-8.706l8.704-8.702h6.665v-6.667l8.705-8.704L207.715,183.633z
	 M186.694,182.138v4.549h-4.549l-9.759,9.76l-10.615-10.613l5.992-5.993l12.087-0.002v-12.087l5.993-5.993l10.616,10.617
	L186.694,182.138z M169.828,199.004l-10.616,10.613l-10.616-10.613l10.614-10.617h0.002L169.828,199.004z M128.113,183.633v6.667
	h6.67l8.7,8.704l-8.7,8.704h-6.67v6.665l-8.702,8.706l-8.706-8.706v-6.665h-6.659l-8.706-8.704l8.701-8.704h6.664v-6.667
	l8.706-8.704L128.113,183.633z M107.094,182.138v4.549h-4.551l-9.761,9.76l-10.614-10.613l5.991-5.993l12.088-0.002v-12.087
	l5.993-5.993l10.615,10.617L107.094,182.138z M90.228,199.004l-10.617,10.613l-10.617-10.613l10.617-10.617L90.228,199.004z
	 M90.228,278.605l-10.617,10.615l-10.615-10.615l10.615-10.615L90.228,278.605z M90.228,358.209l-10.617,10.615l-10.615-10.615
	l10.615-10.617L90.228,358.209z M88.159,418.646l12.086-0.004v-12.085l5.995-5.991l10.615,10.615l-9.763,9.762v4.547h-4.547
	l-9.763,9.766l-10.614-10.619L88.159,418.646z M108.797,398.008l10.614-10.615l10.616,10.615l-10.616,10.617L108.797,398.008z
	 M152.161,415.032h-9.972v-9.972l-7.048-7.051l-0.003-0.002l7.051-7.049v-9.971h9.972l7.049-7.051l7.053,7.051h9.974v9.974
	l7.046,7.047l-7.046,7.051v9.972h-9.974l-7.051,7.049l-0.002,0.002L152.161,415.032z M167.762,418.646l12.088-0.004v-12.085
	l5.993-5.991l10.616,10.615l-9.764,9.762v4.547h-4.552l-9.758,9.762l-10.616-10.617L167.762,418.646z M188.397,398.008
	l10.615-10.615l10.617,10.615l-10.613,10.617L188.397,398.008z M228.199,358.209l10.617-10.617l10.614,10.617l-10.614,10.615
	L228.199,358.209z M228.199,278.605l10.613-10.615h0.004l0,0l10.614,10.615l-10.614,10.615L228.199,278.605z M238.814,209.617
	l-10.615-10.613l10.613-10.617h0.004l10.615,10.617L238.814,209.617z M230.264,138.565h-12.087v12.093l-5.992,5.989l-10.614-10.615
	l9.759-9.76v-4.551h4.551l9.762-9.762l10.614,10.615L230.264,138.565z M209.63,159.204l-10.617,10.615l-10.615-10.615l10.615-10.617
	L209.63,159.204z M185.842,156.647l-5.993-5.989v-12.093h-12.087l-5.995-5.991l10.616-10.615l9.764,9.762h4.546l0.003,4.551
	l9.762,9.76L185.842,156.647z M166.263,142.181h9.974v9.972l7.046,7.053l-7.046,7.049v9.973l-9.974-0.004l-7.051,7.053v-0.005
	l-0.002,0.004l-7.046-7.051h-9.974v-9.969l-7.051-7.049l0.003-0.002l7.048-7.051v-9.972h9.972l7.051-7.051L166.263,142.181z
	 M150.664,138.565h-12.088v12.093l-5.993,5.989l-10.616-10.615l9.763-9.76v-4.551h4.549l9.762-9.762l10.613,10.615L150.664,138.565z
	 M130.026,159.204v0.002l-10.614,10.613l-10.614-10.613l-0.003-0.002l10.617-10.617L130.026,159.204z M86.661,142.181h9.972v9.972
	l7.052,7.053l-7.052,7.049v9.973l-9.972-0.004l-7.047,7.053l-0.003-0.005l-0.003,0.005l-7.049-7.053h-9.97v-9.972l-7.05-7.045
	l7.05-7.053v-9.972h9.97l7.052-7.051L86.661,142.181z M71.062,138.565H58.975v12.093l-5.991,5.989l-10.617-10.615l9.762-9.76v-4.551
	h4.548l9.763-9.762l10.615,10.615L71.062,138.565z M77.055,212.173l-5.993,5.995H58.974v12.089l-5.99,5.991l-10.617-10.615
	l9.762-9.758v-4.55l4.55-0.004l9.759-9.762L77.055,212.173z M77.053,291.78l-5.991,5.987H58.974v12.089l-5.99,5.995l-10.616-10.615
	l9.761-9.758v-4.554h4.548l9.762-9.762L77.053,291.78z M77.053,371.38l-5.991,5.995l-12.085-0.004v12.089l-5.993,5.991
	l-10.616-10.613l9.758-9.76v-4.551h4.553l9.76-9.766L77.053,371.38z M77.055,450.979l-5.993,5.995H58.974v12.087l-5.99,5.993
	l-10.617-10.615l9.759-9.76v-4.556h4.553l9.76-9.755L77.055,450.979z M68.995,437.808l10.615-10.613h0.003l10.614,10.613
	l-10.617,10.615L68.995,437.808z M110.706,453.177v-6.667h-6.663l-8.702-8.702l8.701-8.702h6.668v-6.667l8.702-8.702l8.706,8.702
	v6.667h6.666l8.7,8.702l-8.7,8.709l-6.67-0.007v6.671l-8.702,8.702L110.706,453.177z M131.73,454.678v-4.556h4.551l9.76-9.755
	l10.613,10.611l-5.99,5.995h-12.088v12.087l-5.993,5.993l-10.613-10.615L131.73,454.678z M148.596,437.808l10.614-10.613h0.002
	l10.615,10.613l-10.617,10.615L148.596,437.808z M190.31,453.177v-6.667h-6.665l-8.701-8.702l8.701-8.702h6.665v-6.667l8.703-8.702
	l8.703,8.702v6.667h6.667l8.705,8.706l-8.705,8.706l-6.665-0.007v6.671l-8.701,8.702L190.31,453.177z M211.333,454.678v-4.556h4.549
	l9.762-9.755l10.614,10.611l-5.994,5.995h-12.087v12.087l-5.992,5.993l-10.614-10.615L211.333,454.678z M228.199,437.808
	l10.617-10.613l10.614,10.613l-10.614,10.615L228.199,437.808z M241.373,424.635l5.989-5.989l12.09-0.004v-12.085l5.992-5.991
	l10.615,10.615l-9.763,9.762v4.547h-4.548l-9.761,9.766L241.373,424.635z M241.373,345.034l5.989-5.991h12.09v-12.085l5.992-5.993
	l10.615,10.613l-9.763,9.762v4.549h-4.548l-9.761,9.76L241.373,345.034z M241.37,265.434l5.992-5.991h12.09v-12.089l5.994-5.991
	l10.614,10.615l-9.762,9.762v4.547h-4.553l-9.76,9.762L241.37,265.434z M241.373,185.833l5.989-5.993l12.09-0.002v-12.087
	l5.992-5.993l10.616,10.617l-9.764,9.762v4.549h-4.548l-9.761,9.76L241.373,185.833z M241.373,106.228l5.989-5.987h12.09V88.148
	l5.992-5.991l10.615,10.619l-9.763,9.762v4.547h-4.548l-9.761,9.762L241.373,106.228z M249.43,119.403l-10.616,10.615
	l-10.615-10.615l10.617-10.615L249.43,119.403z M207.717,104.032v6.667h6.667l8.703,8.704l-8.703,8.702h-6.669v6.667l-8.699,8.704
	l-8.707-8.704v-6.667h-6.663l-8.703-8.702l8.701-8.704h6.665v-6.667l8.703-8.702L207.717,104.032z M186.696,102.534v4.551h-4.554
	l-9.758,9.762l-10.613-10.615l5.992-5.991h12.087V88.148l5.993-5.989l10.616,10.617L186.696,102.534z M169.828,119.403
	l-10.618,10.615l-10.614-10.615l10.614-10.615h0.002L169.828,119.403z M128.113,104.032v6.667h6.67l8.7,8.704l-8.7,8.702h-6.67
	v6.667l-8.702,8.704l-8.706-8.704v-6.667h-6.663l-8.702-8.702l8.701-8.704h6.668v-6.667l8.702-8.702L128.113,104.032z
	 M107.094,102.538v4.547h-4.549l-9.763,9.762l-10.614-10.615l5.991-5.991h12.088V88.148l5.993-5.991l10.615,10.619L107.094,102.538z
	 M90.228,119.403l-10.617,10.615l-10.615-10.615l10.615-10.615h0.003L90.228,119.403z M39.812,90.217L29.197,79.601h-0.002
	l10.617-10.615l10.612,10.615L39.812,90.217z M50.426,159.204L39.812,169.82l-10.615-10.615l10.615-10.617L50.426,159.204z
	 M39.812,228.188l10.614,10.615l-0.002,0.002l-10.612,10.615l-10.617-10.617L39.812,228.188z M50.424,318.405v0.002l-10.612,10.615
	l-10.615-10.617l10.615-10.613L50.424,318.405z M50.424,398.008l-10.612,10.617l-10.615-10.617l10.615-10.615L50.424,398.008z
	 M50.426,477.609l-0.005,0.004l-10.61,10.615l-10.617-10.619l10.615-10.615L50.426,477.609z M72.56,494.633h-9.971v-9.969
	l-7.05-7.055l7.05-7.051v-9.971h9.971l7.051-7.051l7.049,7.051h9.973v9.975l7.052,7.047l-7.052,7.055v9.969H86.66l-7.046,7.051
	h-0.003L72.56,494.633z M88.159,498.247h12.088v-12.091l5.993-5.989l10.615,10.615l-9.763,9.76v4.55h-4.549l-9.761,9.762
	l-10.614-10.619L88.159,498.247z M108.797,477.609l10.614-10.615l10.616,10.615l-10.616,10.619L108.797,477.609z M152.164,494.633
	h-9.973v-9.969l-7.052-7.055h0.003l7.049-7.051v-9.971h9.971l7.049-7.047l7.053,7.047h9.974v9.975l7.046,7.047l-7.046,7.055v9.969
	h-9.974l-7.051,7.051h-0.002L152.164,494.633z M167.762,498.247h12.087v-12.091l5.993-5.989l10.616,10.615l-9.764,9.76v4.55h-4.552
	l-9.758,9.762l-10.613-10.619L167.762,498.247z M188.399,477.609h-0.002l10.615-10.615l10.617,10.615l-10.613,10.619
	L188.399,477.609z M231.762,494.633h-9.971v-9.969l-7.052-7.055l7.052-7.051v-9.971h9.971l7.054-7.051l7.048,7.051h9.973v9.971
	l7.048,7.051l-7.048,7.055v9.969h-9.973l-7.048,7.051h-0.004L231.762,494.633z M247.362,498.247h12.09v-12.091l5.992-5.989
	l10.615,10.615l-9.761,9.76v4.55h-4.55l-9.761,9.762l-10.614-10.619L247.362,498.247z M268.001,477.609l10.614-10.615l10.616,10.615
	l-10.616,10.619L268.001,477.609z M268.001,398.008l10.614-10.615l10.616,10.615l-10.616,10.617L268.001,398.008z M268.001,318.405
	l10.614-10.613l10.614,10.613l-10.614,10.617L268.001,318.405z M268.001,238.804l10.614-10.615l10.616,10.615l-10.616,10.617
	L268.001,238.804z M268.001,159.204l10.614-10.617l10.616,10.617v0.002l-10.616,10.613L268.001,159.204z M245.864,62.578h9.973
	v9.973l7.048,7.051l-7.048,7.051v9.972h-9.973l-7.045,7.047h-0.003l-0.002,0.004l-7.052-7.051h-9.971v-9.972l-7.052-7.051h0.002
	l-0.002-0.002l7.052-7.049v-9.973h9.969l7.056-7.051L245.864,62.578z M230.264,58.966h-12.087v12.085l-5.992,5.995L201.571,66.43
	l9.759-9.762V52.12h4.55l9.764-9.76l10.614,10.613L230.264,58.966z M209.63,79.599l-0.003,0.002l0.003,0.004l-10.613,10.612
	l-10.617-10.615l10.617-10.615L209.63,79.599z M166.263,62.578h9.974v9.973l7.046,7.051l-7.046,7.051v9.972h-9.974l-7.046,7.047
	h-0.005l-0.002,0.004l-7.046-7.051h-9.974v-9.972l-7.051-7.051h0.003l7.048-7.051v-9.973h9.974l7.046-7.051h0.002L166.263,62.578z
	 M150.661,58.966h-12.085v12.085l-5.993,5.995L121.967,66.43l9.762-9.762V52.12h4.55l9.762-9.764l10.613,10.617L150.661,58.966z
	 M130.027,79.601l-10.616,10.615l-10.614-10.615l10.614-10.615L130.027,79.601z M86.661,62.578h9.972l0.003,9.973l7.051,7.051
	l-7.051,7.051v9.972h-9.974l-7.047,7.051l-0.003-0.004v0.004l-7.051-7.051h-9.971v-9.972l-7.05-7.047v-0.005l7.05-7.049v-9.973
	h9.971l7.051-7.051L86.661,62.578z M71.062,58.966H58.974v12.085l-5.99,5.995L42.367,66.43l9.762-9.762V52.12h4.55l9.759-9.76
	l10.614,10.613L71.062,58.966z M2.566,26.632l5.994-5.995h12.088V8.547l5.992-5.989l10.615,10.615l-9.763,9.762v4.549h-4.548
	l-9.762,9.76L2.566,26.632z M20.646,71.051V58.966H8.56l-5.994-5.993l10.615-10.617l9.762,9.764h4.548v4.548l9.762,9.762
	L26.64,77.045L20.646,71.051z M2.568,106.228l5.992-5.987h12.086V88.148l5.994-5.991l10.614,10.619l-9.762,9.762v4.547h-4.551
	l-9.759,9.762L2.568,106.228z M20.648,150.658v-12.093H8.56l-5.994-5.991l10.615-10.615l9.762,9.762h4.548v4.551l9.762,9.76
	L26.64,156.647L20.648,150.658z M2.568,185.833l5.992-5.993l12.088-0.002v-12.087l5.992-5.993l10.615,10.617l-9.763,9.762v4.549
	h-4.551l-9.759,9.76L2.568,185.833z M20.646,230.257v-12.089H8.556l-5.991-5.995l10.618-10.615l9.76,9.762h4.548v4.552l9.762,9.76
	L26.64,236.248L20.646,230.257z M2.566,265.434l5.99-5.991h12.09v-12.089l5.994-5.991l10.614,10.615l-9.762,9.762v4.547h-4.548
	l-9.762,9.76L2.566,265.434z M20.646,309.86v-12.093H8.556l-5.99-5.987l10.615-10.619l9.762,9.762h4.548v4.548l9.763,9.76
	L26.64,315.851L20.646,309.86z M2.568,345.034l5.988-5.991h12.09v-12.085l5.994-5.995l10.614,10.615l-9.762,9.762v4.549h-4.551
	l-9.759,9.76L2.568,345.034z M20.646,389.459v-12.089H8.56l-5.994-5.993l10.615-10.617l9.762,9.766h4.548v4.551l9.762,9.76
	L26.64,395.452L20.646,389.459z M2.568,424.637l5.992-5.991l12.086-0.004v-12.085l5.994-5.991l10.614,10.615l-9.762,9.762v4.547
	h-4.548l-9.762,9.766L2.568,424.637z M20.646,469.061v-12.087H8.556l-5.991-5.995l10.616-10.615l9.762,9.758h4.548v4.556l9.762,9.76
	L26.64,475.057L20.646,469.061z M2.568,504.236l5.988-5.989h12.09v-12.091l5.994-5.989l10.614,10.615l-9.762,9.76v4.55h-4.551
	l-9.759,9.762L2.568,504.236z M26.64,554.657l-5.994-5.995v-12.085H8.56l-5.994-5.995l10.617-10.617l9.76,9.764h4.548v4.55
	l9.762,9.76L26.64,554.657z M31.106,532.778v-6.661h-6.665l-8.702-8.706l8.7-8.702h6.667v-6.669l8.706-8.702l8.702,8.702v6.669
	h6.666l8.703,8.704l-8.705,8.704h-6.664v6.665l-8.702,8.704L31.106,532.778z M71.062,536.577H58.974v12.085l-5.99,5.995
	L42.367,544.04l9.759-9.756v-4.554h4.553l9.759-9.764l10.614,10.617L71.062,536.577z M68.995,517.413l10.615-10.615h0.003
	l10.614,10.613l-10.617,10.615L68.995,517.413z M106.24,554.657l-5.993-5.995v-12.085H88.161l-5.993-5.995l10.614-10.617
	l9.764,9.764h4.548v4.55l9.761,9.76L106.24,554.657z M110.706,532.778v-6.661h-6.663l-8.702-8.704l8.702-8.704h6.663v-6.669
	l8.706-8.702l8.702,8.702v6.669h6.67l8.7,8.704l-8.7,8.704h-6.67v6.665l-8.702,8.704L110.706,532.778z M150.664,536.577h-12.088
	v12.085l-5.993,5.995l-10.616-10.617l9.762-9.76v-4.55h4.55l9.762-9.764l10.613,10.617L150.664,536.577z M159.21,528.026
	l-10.614-10.613l10.614-10.615h0.002l10.616,10.613l-10.616,10.615H159.21z M185.842,554.657l-5.993-5.995v-12.085h-12.087
	l-5.995-5.995l10.616-10.617l9.761,9.764h4.55v4.547l9.764,9.764L185.842,554.657z M190.31,532.778v-6.661h-6.663l-8.703-8.706
	l8.701-8.702h6.665v-6.669l8.707-8.702l8.701,8.702v6.669h6.667l8.703,8.704l-8.705,8.704h-6.665v6.665l-8.701,8.704L190.31,532.778
	z M230.264,536.577h-12.087v12.085l-5.992,5.995l-10.614-10.617l9.762-9.76v-4.55h4.547l9.764-9.764l10.614,10.617L230.264,536.577z
	 M228.199,517.411l10.613-10.613h0.004l10.614,10.615l-10.614,10.613L228.199,517.411z M265.445,554.657l-5.994-5.995v-12.085
	h-12.09l-5.992-5.995l10.616-10.617l9.761,9.764h4.548l0.002,4.547l9.762,9.764L265.445,554.657z M269.912,532.778v-6.661h-6.666
	l-8.703-8.704l8.703-8.704h6.667v-6.669l8.703-8.702l8.706,8.702v6.669h6.665l8.704,8.704l-8.704,8.704h-6.669v6.665l-8.702,8.704
	L269.912,532.778z M315.86,530.582l-5.991,5.995h-12.092v12.085l-5.988,5.995l-10.618-10.617l9.762-9.76v-4.55h4.549l9.761-9.764
	L315.86,530.582z M297.778,486.156v12.091h12.088l5.995,5.993l-10.616,10.615l-9.761-9.762h-4.549v-4.55l-9.761-9.76l10.614-10.615
	L297.778,486.156z M315.86,450.979l-5.995,5.995h-12.088v12.087l-5.988,5.993l-10.618-10.615l9.762-9.76v-4.556h4.549l9.761-9.755
	L315.86,450.979z M297.778,406.557v12.085h12.088l5.995,5.995l-10.616,10.619l-9.761-9.766h-4.55v-4.551l-9.761-9.758l10.618-10.615
	L297.778,406.557z M315.86,371.378l-5.995,5.996l-12.088-0.004v12.089l-5.991,5.991l-10.615-10.613l9.761-9.76v-4.551h4.55
	l9.761-9.766L315.86,371.378z M297.778,326.958v12.085h12.088l5.995,5.991l-10.616,10.619l-9.761-9.764h-4.55v-4.55l-9.763-9.76
	l10.617-10.615L297.778,326.958z M315.856,291.78l-5.99,5.987h-12.088v12.093l-5.991,5.991l-10.617-10.619l9.763-9.758v-4.55h4.55
	l9.761-9.762L315.856,291.78z M297.778,247.354v12.089h12.088l5.995,5.993l-10.616,10.613l-9.761-9.762h-4.55v-4.55l-9.76-9.758
	l10.617-10.615L297.778,247.354z M315.86,212.173l-5.991,5.995h-12.092v12.089l-5.988,5.991l-10.62-10.615l9.763-9.76v-4.549
	l4.55-0.004l9.761-9.762L315.86,212.173z M297.778,167.751v12.087h12.088l5.995,5.995l-10.616,10.613l-9.761-9.76h-4.55v-4.552
	l-9.763-9.758l10.617-10.617L297.778,167.751z M315.86,132.574l-5.995,5.991h-12.088v12.093l-5.988,5.989l-10.617-10.615l9.76-9.76
	v-4.551h4.55l9.761-9.762L315.86,132.574z M297.778,88.148v12.093h12.088l5.995,5.991l-10.616,10.615l-9.761-9.762h-4.549v-4.551
	l-9.762-9.762l10.615-10.615L297.778,88.148z M315.86,52.973l-5.995,5.993h-12.088v12.085l-5.991,5.995L281.172,66.43l9.761-9.762
	V52.12h4.549l9.761-9.764L315.86,52.973z M291.787,2.558l5.991,5.991v12.089h12.088l5.99,5.995l-10.611,10.611l-9.761-9.76h-4.55
	v-4.55l-9.763-9.762L291.787,2.558z M287.318,24.431v6.667h6.669l8.704,8.702l-8.704,8.702h-6.665v6.67l-8.706,8.702l-8.704-8.706
	v-6.667h-6.666l-8.703-8.702l8.703-8.702h6.666v-6.667l8.7-8.702L287.318,24.431z M247.362,20.638h12.09V8.547l5.992-5.989
	l10.615,10.615l-9.761,9.762v4.549h-4.55l-9.762,9.76L241.37,26.632L247.362,20.638z M249.43,39.8l-10.614,10.615l-0.004,0.002
	L228.199,39.8l10.617-10.613L249.43,39.8z M212.185,2.558l5.993,5.991v12.089h12.087l5.994,5.995l-10.614,10.611l-9.764-9.76h-4.55
	v-4.55l-9.759-9.762L212.185,2.558z M207.717,24.431v6.667h6.665l8.705,8.702l-8.703,8.702h-6.667v6.67l-8.701,8.702l-8.707-8.706
	v-6.667h-6.663l-8.706-8.702l8.704-8.702h6.665v-6.667l8.703-8.702L207.717,24.431z M167.762,20.638h12.087V8.549l5.993-5.991
	l10.616,10.615l-9.765,9.762v4.549h-4.549l-9.759,9.76l-10.615-10.615L167.762,20.638z M159.212,29.186L169.828,39.8l-10.616,10.617
	v-0.002l-0.002,0.002L148.596,39.8l10.614-10.613H159.212z M132.583,2.558l5.993,5.991v12.089h12.088l5.99,5.995l-10.613,10.611
	l-9.762-9.76h-4.55v-4.55l-9.762-9.762L132.583,2.558z M128.113,24.431v6.667h6.67l8.7,8.702l-8.7,8.702h-6.67v6.67l-8.702,8.702
	l-8.706-8.706v-6.667h-6.663L95.34,39.8l8.702-8.702h6.663v-6.667l8.704-8.702L128.113,24.431z M88.158,20.638h12.089V8.547
	l5.993-5.989l10.615,10.615l-9.763,9.762v4.549h-4.547l-9.763,9.76L82.168,26.632L88.158,20.638z M79.613,29.186L90.228,39.8
	L79.611,50.415v0.002L68.995,39.8l10.615-10.613H79.613z M52.981,2.558l5.993,5.991v12.089h12.088l5.991,5.995L66.439,37.244
	l-9.762-9.76h-4.548v-4.55l-9.762-9.762L52.981,2.558z"/>
</svg>
