<?xml version="1.0" encoding="iso-8859-1"?>
<!-- Generator: Adobe Illustrator 24.2.3, SVG Export Plug-In . SVG Version: 6.00 Build 0)  -->
<svg version="1.1" id="&#x5716;&#x5C64;_1" xmlns="http://www.w3.org/2000/svg" xmlns:xlink="http://www.w3.org/1999/xlink" x="694px"
	 y="1215px" preserveAspectRatio="none" style="enable-background:new 0 0 10.571 18.496;" xml:space="preserve">
<path style="opacity:0.07;fill:#C9C08E;" d="M1.674,0L1.322,0.352L0.969,0l0,0h-0.17l0,0L0.565,0.234v0.331H0.234L0,0.799h0l0,0
	v0.17l0,0h0l0.352,0.352L0,1.674l0,0v0l0,0v0.17l0,0h0l0.234,0.234h0.331v0.331L0.8,2.643L0.565,2.877v0.331H0.234L0,3.442h0l0,0
	l0,0v0.17l0,0h0l0.352,0.352L0,4.316l0,0v0.17l0,0L0.234,4.72h0.331v0.331l0.234,0.234L0.565,5.519V5.85l-0.331,0L0,6.084l0,0l0,0
	l0,0v0.17l0,0l0.352,0.352L0,6.959l0,0v0.17l0,0l0.234,0.234h0.331v0.331l0.234,0.234L0.565,8.162v0.331H0.234L0,8.727l0,0l0,0l0,0
	v0.17l0,0h0l0.352,0.352L0,9.602l0,0v0.17l0,0l0.234,0.234h0.331v0.331l0.234,0.234l-0.234,0.234v0.331H0.234L0,11.37v0l0,0l0,0
	v0.17l0,0l0.352,0.352L0,12.244l0,0v0.17l0,0l0.234,0.234h0.331v0.331l0.234,0.234l-0.234,0.234v0.331H0.234L0,14.012v0l0,0l0,0
	v0.17l0,0h0l0.352,0.352L0,14.887l0,0v0.17l0,0l0.234,0.234h0.331v0.331l0.234,0.234L0.565,16.09v0.331H0.234L0,16.655h0l0,0v0.17
	l0,0l0.352,0.352L0,17.53h0l0,0v0.17l0,0l0.234,0.234h0.331v0.331l0.232,0.232h0.174l0.35-0.35l0.35,0.35h0.174l0.232-0.232v-0.331
	l0.331,0l0.234-0.234l0.234,0.234h0.331v0.331l0.232,0.232h0.174l0.35-0.35l0.35,0.35h0.174l0.232-0.232v-0.331l0.331,0l0.234-0.234
	l0.234,0.234h0.331v0.331l0.232,0.232h0.174l0.35-0.35l0.35,0.35h0.174l0.232-0.232v-0.331l0.331,0l0.234-0.234l0.234,0.234h0.331
	v0.331l0.232,0.232h0.174l0.35-0.35l0.35,0.35h0.174l0.232-0.232v-0.331l0.331,0l0.234-0.234v-0.17l0,0l-0.352-0.352l0.352-0.352h0
	v-0.17h0l-0.234-0.234h-0.331l0-0.331l-0.234-0.234l0.234-0.234v-0.331h0.331l0.234-0.234v-0.17h0l-0.352-0.352l0.352-0.352h0v-0.17
	l0,0l-0.234-0.234h-0.331v-0.331l-0.234-0.234h0l0,0l0.234-0.234v-0.331h0.331l0.234-0.234v-0.17l0,0l-0.352-0.352l0.352-0.352l0,0
	v-0.17l0,0l-0.234-0.234h-0.331v-0.331l-0.234-0.234l0.234-0.234v-0.331h0.331l0.234-0.234l0,0v-0.17l0,0l-0.352-0.352l0.353-0.352
	v-0.17l0,0l-0.234-0.234h-0.331V8.162L9.772,7.928l0.234-0.234V7.363h0.331l0.234-0.234v-0.17l0,0l-0.352-0.352l0.352-0.352h0v-0.17
	l0,0L10.337,5.85h-0.331l0-0.331L9.772,5.285l0,0h0l0.234-0.234V4.72h0.331l0.234-0.234l0,0v-0.17l0,0l-0.352-0.352l0.352-0.352
	v-0.17l0,0l-0.234-0.234h-0.331V2.877L9.772,2.643v0l0.234-0.234V2.077h0.331l0.234-0.234l0,0v-0.17l0,0l-0.352-0.352l0.352-0.352h0
	v-0.17h0l-0.234-0.234h-0.331l0-0.331L9.772,0v0h-0.17L9.25,0.352L8.897,0v0h-0.17l0,0L8.493,0.234v0.331H8.162L7.928,0.799
	L7.694,0.565H7.363V0.234L7.129,0l0,0h-0.17l0,0h0L6.607,0.352L6.255,0v0h-0.17l0,0L5.851,0.234v0.331H5.52L5.286,0.799L5.051,0.565
	H4.72V0.234L4.486,0l0,0h-0.17L3.964,0.352L3.612,0v0h-0.17l0,0L3.208,0.234v0.331H2.877L2.643,0.799h0L2.409,0.565H2.078V0.234
	L1.844,0l0,0L1.674,0L1.674,0L1.674,0z M1.611,0.811v0.221h0.221l0.289,0.289L1.832,1.61H1.611v0.221L1.322,2.121L1.033,1.832V1.61
	H0.811L0.522,1.321l0.289-0.289h0.221V0.811l0.289-0.289L1.611,0.811z M3.879,2.205L3.527,2.558L3.328,2.359V1.958H2.927
	L2.728,1.759L3.08,1.406L3.404,1.73h0.151v0.151L3.879,2.205z M6.522,2.205L6.17,2.558L5.971,2.359V1.958H5.569L5.37,1.759
	l0.352-0.352L6.047,1.73h0.151v0.151L6.522,2.205z M9.165,2.205L8.812,2.558L8.613,2.359V1.958H8.212L8.013,1.759l0.352-0.352
	L8.69,1.73h0.151v0.151L9.165,2.205z M9.602,2.643L9.25,2.995L8.897,2.643L9.25,2.29L9.602,2.643L9.602,2.643L9.602,2.643z
	 M9.76,3.675l0.289,0.289L9.76,4.253H9.538v0.221L9.25,4.763L8.961,4.474V4.253H8.739L8.45,3.964l0.289-0.289h0.221V3.454
	L9.25,3.165l0.289,0.289v0.221H9.76z M9.76,6.318l0.289,0.289L9.76,6.896H9.539v0.221L9.25,7.406L8.961,7.117l0-0.221H8.739
	L8.45,6.607l0.289-0.289h0.221V6.096L9.25,5.807l0.289,0.289v0.221H9.76z M9.76,8.96l0.289,0.289L9.76,9.538H9.539V9.76L9.25,10.048
	L8.961,9.759V9.538H8.739L8.45,9.249L8.739,8.96h0.221V8.739L9.25,8.45l0.289,0.289V8.96H9.76z M9.76,11.603l0.289,0.289
	L9.76,12.181l-0.221,0v0.221L9.25,12.691l-0.289-0.289v-0.221H8.739L8.45,11.892l0.289-0.289h0.221v-0.221l0.289-0.289l0.289,0.289
	v0.221H9.76z M9.76,14.246l0.289,0.289L9.76,14.824l-0.221,0v0.221L9.25,15.334l-0.289-0.289v-0.221H8.739L8.45,14.534l0.289-0.289
	h0.221v-0.221l0.289-0.289l0.289,0.289v0.221H9.76z M6.692,16.293l0.352-0.352l0.199,0.199v0.401h0.401l0.199,0.199l-0.352,0.352
	l-0.324-0.324H7.016l0-0.151L6.692,16.293z M4.049,16.293l0.352-0.352L4.6,16.14l0,0.401h0.401l0.199,0.199l-0.352,0.352
	l-0.324-0.324H4.373v-0.151L4.049,16.293z M1.407,16.293l0.352-0.352l0.199,0.199v0.401h0.401l0.199,0.199l-0.352,0.352
	l-0.324-0.324H1.73v-0.151L1.407,16.293z M0.811,14.823l-0.289-0.289l0.289-0.289h0.221v-0.221l0.289-0.289l0.289,0.289v0.221h0.221
	l0.289,0.289l-0.289,0.289l-0.221,0v0.221l-0.289,0.289l-0.289-0.289v-0.221H0.811z M0.811,12.181l-0.289-0.289l0.289-0.289h0.221
	v-0.221l0.289-0.289l0.289,0.289v0.221h0.221l0.289,0.289l-0.289,0.289l-0.221,0v0.221l-0.289,0.289l-0.289-0.289v-0.221H0.811z
	 M0.811,9.538L0.523,9.249L0.811,8.96h0.221V8.739L1.322,8.45l0.289,0.289V8.96h0.221l0.289,0.289L1.832,9.538H1.611V9.76
	l-0.289,0.289L1.033,9.759V9.538H0.811z M0.811,6.896L0.523,6.607l0.289-0.289h0.221V6.096l0.289-0.289l0.289,0.289v0.221h0.221
	l0.289,0.289L1.832,6.896H1.611v0.221L1.322,7.406L1.033,7.117V6.896H0.811z M0.811,4.253L0.523,3.964l0.289-0.289h0.221V3.454
	l0.289-0.289l0.289,0.289v0.221h0.221l0.289,0.289L1.832,4.253H1.611v0.221L1.322,4.763L1.033,4.474V4.253H0.811z M2.359,3.328
	l0.199,0.199L2.206,3.879L1.882,3.555H1.731V3.404L1.407,3.08l0.352-0.352l0.199,0.199v0.401H2.359z M5.002,3.328l0.199,0.199
	L4.848,3.879L4.524,3.555H4.373V3.404L4.049,3.08l0.352-0.352L4.6,2.926v0.401H5.002z M7.644,3.328l0.199,0.199L7.491,3.879
	L7.167,3.555H7.016V3.404L6.692,3.08l0.352-0.352l0.199,0.199v0.401H7.644z M9.165,4.848L8.812,5.2L8.613,5.002V4.6H8.212
	L8.013,4.401l0.352-0.352L8.69,4.373h0.151v0.151L9.165,4.848z M9.165,7.491L8.812,7.843L8.613,7.644V7.243H8.212L8.013,7.044
	l0.352-0.352L8.69,7.015h0.151v0.151L9.165,7.491z M9.165,10.133l-0.352,0.352l-0.199-0.199V9.885H8.212L8.013,9.686l0.352-0.352
	L8.69,9.658h0.151v0.151L9.165,10.133z M9.165,12.776l-0.352,0.352l-0.199-0.199v-0.401H8.212l-0.199-0.199l0.352-0.352l0.324,0.324
	h0.151v0.151L9.165,12.776z M9.165,15.419l-0.352,0.352l-0.199-0.199v-0.401H8.212l-0.199-0.199l0.352-0.352l0.324,0.324h0.151
	v0.151L9.165,15.419z M5.569,15.171L5.37,14.972l0.352-0.352l0.324,0.324h0.151v0.151l0.324,0.324L6.17,15.771l-0.199-0.199v-0.401
	H5.569z M2.927,15.171l-0.199-0.199l0.352-0.352l0.324,0.324h0.151v0.151l0.324,0.324l-0.352,0.352l-0.199-0.199l0-0.401H2.927z
	 M1.407,13.651l0.352-0.352l0.199,0.199v0.401h0.401l0.199,0.199L2.206,14.45l-0.324-0.324H1.73v-0.151L1.407,13.651z M1.407,11.008
	l0.352-0.352l0.199,0.199v0.401h0.401l0.199,0.199l-0.352,0.352l-0.324-0.324H1.731v-0.151L1.407,11.008z M1.407,8.365l0.352-0.352
	l0.199,0.199v0.401h0.401l0.199,0.199L2.206,9.164L1.882,8.84H1.731V8.689L1.407,8.365z M1.407,5.723L1.759,5.37l0.199,0.199V5.97
	h0.401l0.199,0.199L2.206,6.522L1.882,6.198H1.731V6.047L1.407,5.723z M3.879,4.848L3.527,5.2L3.328,5.002l0-0.401H2.927
	L2.728,4.401L3.08,4.049l0.324,0.324h0.151v0.151L3.879,4.848z M8.727,5.285L8.727,5.285L8.727,5.285L8.493,5.519V5.85l-0.331,0
	L7.928,6.084v0l0,0L7.694,5.85H7.363V5.519L7.129,5.285l0,0h0l0.234-0.234V4.72h0.331l0.234-0.234L8.162,4.72h0.331v0.331
	L8.727,5.285z M8.727,7.928L8.493,8.162v0.331H8.162L7.928,8.727v0L7.694,8.493H7.363V8.162L7.129,7.928l0.234-0.234V7.363h0.331
	l0.234-0.234l0.234,0.234h0.331v0.331L8.727,7.928z M8.727,10.571l-0.234,0.234v0.331H8.162L7.928,11.37l0,0l-0.234-0.234H7.363
	v-0.331l-0.234-0.234v0l0.234-0.234v-0.331h0.331l0.234-0.234l0.234,0.234h0.331v0.331L8.727,10.571z M8.727,13.213l-0.234,0.234
	v0.331H8.162l-0.234,0.234l-0.234-0.234H7.363v-0.331l-0.234-0.234l0.234-0.234v-0.331h0.331l0.234-0.234l0.234,0.234h0.331v0.331
	L8.727,13.213z M6.692,13.651l0.352-0.352l0.199,0.199v0.401h0.401l0.199,0.199L7.491,14.45l-0.324-0.324H7.016v-0.151L6.692,13.651
	z M4.049,13.651l0.352-0.352L4.6,13.497v0.401h0.401l0.199,0.199L4.848,14.45l-0.324-0.324H4.373v-0.151L4.049,13.651z
	 M1.844,13.213L1.844,13.213l0.234-0.234v-0.331h0.331l0.234-0.234l0.234,0.234h0.331v0.331l0.234,0.234l-0.234,0.234v0.331H2.877
	l-0.234,0.234l0,0l-0.234-0.234H2.078v-0.331L1.844,13.213z M1.844,10.571L1.844,10.571l0.234-0.234v-0.331h0.331l0.234-0.234l0,0
	l0.234,0.234h0.331v0.331l0.234,0.234l-0.234,0.234v0.331H2.877L2.643,11.37l-0.234-0.234H2.078v-0.331L1.844,10.571z M1.844,7.928
	l0.234-0.234V7.363h0.331l0.234-0.234l0.234,0.234h0.331l0,0.331l0.234,0.234L3.208,8.162v0.331H2.877L2.643,8.727h0L2.409,8.493
	H2.078V8.162L1.844,7.928z M5.002,5.97l0.199,0.199L4.848,6.522L4.524,6.198H4.373V6.047L4.049,5.723L4.402,5.37L4.6,5.569V5.97
	H5.002z M7.644,5.97l0.199,0.199L7.491,6.522L7.167,6.198H7.016V6.047L6.692,5.723L7.044,5.37l0.199,0.199V5.97H7.644z M7.644,8.613
	l0.199,0.199L7.491,9.164L7.167,8.84H7.016l0-0.151L6.692,8.365l0.352-0.352l0.199,0.199v0.401H7.644z M5.569,12.528L5.37,12.329
	l0.353-0.352l0.324,0.324h0.151v0.151l0.324,0.324L6.17,13.128l-0.199-0.199v-0.401H5.569z M2.927,12.528l-0.199-0.199l0.352-0.352
	l0.324,0.324h0.151v0.151l0.324,0.324l-0.352,0.352l-0.199-0.199v-0.401H2.927z M2.927,9.885L2.728,9.687L3.08,9.334l0.324,0.324
	h0.151v0.151l0.324,0.324l-0.352,0.352l-0.199-0.199V9.885H2.927z M2.927,7.243L2.728,7.044L3.08,6.691l0.324,0.324h0.151v0.151
	l0.324,0.324L3.527,7.843L3.328,7.644l0-0.401H2.927z M6.522,7.491L6.17,7.843L5.971,7.644V7.243H5.569L5.37,7.044l0.353-0.352
	l0.324,0.324h0.151v0.151L6.522,7.491z M7.117,8.96l0.289,0.289L7.117,9.538H6.896V9.76l-0.289,0.289L6.318,9.759V9.538H6.097
	L5.808,9.249L6.097,8.96h0.221V8.739L6.607,8.45l0.289,0.289V8.96H7.117z M4.049,11.008l0.352-0.352L4.6,10.854v0.401h0.401
	l0.199,0.199l-0.352,0.352l-0.324-0.324H4.373v-0.151L4.049,11.008z M3.454,9.538L3.165,9.249L3.454,8.96h0.221V8.739L3.964,8.45
	l0.289,0.289V8.96h0.221l0.289,0.289L4.475,9.538H4.253V9.76l-0.289,0.289L3.675,9.759V9.538H3.454z M5.286,8.897l0.352,0.352
	L5.286,9.602h0L4.933,9.249L5.286,8.897L5.286,8.897L5.286,8.897z M6.522,10.133L6.17,10.486l-0.199-0.199V9.885H5.569L5.37,9.687
	l0.352-0.353l0.324,0.324h0.151v0.151L6.522,10.133z M5.37,8.812l0.199-0.199h0.401V8.212L6.17,8.013l0.352,0.352L6.198,8.689V8.84
	H6.047L5.723,9.164L5.37,8.812z M5.201,9.687L5.002,9.885H4.6v0.401l-0.199,0.199l-0.352-0.353l0.324-0.324V9.658h0.151l0.324-0.324
	L5.201,9.687z M4.848,9.164L4.524,8.84H4.373V8.689L4.049,8.365l0.352-0.352L4.6,8.212l0,0.401h0.401l0.199,0.199L4.848,9.164z
	 M4.317,10.571l-0.352,0.352l-0.352-0.352l0.352-0.352L4.317,10.571z M5.051,11.136H4.72v-0.331l-0.234-0.234l0.234-0.234v-0.331
	h0.331l0.234-0.234l0.234,0.234h0.331v0.331l0.234,0.234l0,0h0l-0.234,0.234v0.331H5.52L5.286,11.37h0l0,0L5.051,11.136z
	 M5.569,11.256h0.401v-0.401l0.199-0.199l0.352,0.352l-0.324,0.324v0.151H6.047l-0.324,0.324l-0.352-0.352L5.569,11.256z
	 M6.255,10.571L6.255,10.571l0.352-0.352l0.352,0.352v0h0l-0.352,0.352L6.255,10.571z M6.254,7.928l0.352-0.352l0.352,0.352
	L6.607,8.28L6.254,7.928z M5.52,7.363h0.331v0.331l0.234,0.234L5.851,8.162v0.331H5.52L5.286,8.727v0l0,0L5.051,8.493H4.72V8.162
	L4.486,7.928L4.72,7.694V7.363h0.331l0.234-0.234L5.52,7.363z M5.002,7.243H4.6v0.401L4.402,7.843L4.049,7.491l0.324-0.324V7.016
	l0.151,0l0.324-0.324l0.352,0.352L5.002,7.243z M4.317,7.928L3.964,8.28L3.612,7.928l0.352-0.352L4.317,7.928z M3.879,8.365
	L3.555,8.689V8.84H3.404L3.08,9.164L2.728,8.812l0.199-0.199h0.401V8.212l0.199-0.199L3.879,8.365z M3.879,11.008l-0.324,0.324
	v0.151H3.404L3.08,11.807l-0.352-0.352l0.199-0.199h0.401v-0.401l0.199-0.199L3.879,11.008z M3.675,12.402v-0.221H3.454
	l-0.289-0.289l0.289-0.289h0.221v-0.221l0.289-0.289l0.289,0.289v0.221h0.221l0.289,0.289l-0.289,0.289l-0.221,0v0.221l-0.289,0.289
	L3.675,12.402z M4.373,12.452v-0.151h0.151l0.324-0.324l0.352,0.352l-0.199,0.199l-0.401,0v0.401l-0.199,0.199l-0.352-0.352
	L4.373,12.452z M4.933,11.892l0.352-0.352l0.352,0.352l-0.352,0.352L4.933,11.892z M6.318,12.402v-0.221H6.097l-0.289-0.289
	l0.289-0.289h0.221v-0.221l0.289-0.289l0.289,0.289v0.221h0.221l0.289,0.289l-0.289,0.289l-0.221,0v0.221l-0.289,0.289L6.318,12.402
	z M7.016,12.452v-0.151h0.151l0.324-0.324l0.352,0.352l-0.199,0.199l-0.401,0v0.401l-0.199,0.199l-0.352-0.352L7.016,12.452z
	 M7.167,11.483H7.016v-0.151l-0.324-0.324l0.352-0.352l0.199,0.199l0,0.401h0.401l0.199,0.199l-0.352,0.352L7.167,11.483z
	 M6.692,10.133l0.324-0.324V9.658h0.151l0.324-0.324l0.352,0.353L7.644,9.885H7.243v0.401l-0.199,0.199L6.692,10.133z M6.692,7.491
	l0.324-0.324V7.016l0.151,0l0.324-0.324l0.352,0.352L7.644,7.243H7.243v0.401L7.044,7.843L6.692,7.491z M6.896,6.096v0.221h0.221
	l0.289,0.289L7.117,6.896H6.896v0.221L6.607,7.406L6.318,7.117V6.896H6.097L5.808,6.607l0.289-0.289h0.221V6.096l0.289-0.289
	L6.896,6.096z M6.198,6.047v0.151H6.047L5.723,6.522L5.371,6.169L5.569,5.97l0.401,0V5.569L6.17,5.37l0.352,0.352L6.198,6.047z
	 M5.638,6.607L5.286,6.959L4.933,6.607l0.352-0.352h0L5.638,6.607z M4.253,6.096v0.221h0.221l0.289,0.289L4.475,6.896H4.253v0.221
	L3.964,7.406L3.675,7.117V6.896H3.454L3.165,6.607l0.289-0.289h0.221V6.096l0.289-0.289L4.253,6.096z M3.555,6.047v0.151H3.404
	L3.08,6.522L2.728,6.169L2.927,5.97l0.401,0V5.569L3.527,5.37l0.352,0.352L3.555,6.047z M2.995,6.607L2.643,6.959L2.29,6.607
	l0.352-0.352L2.995,6.607z M2.995,9.249L2.643,9.602L2.291,9.249l0.352-0.352L2.995,9.249z M2.995,11.892l-0.352,0.352l-0.352-0.352
	l0.352-0.352L2.995,11.892z M2.927,13.898l0.401,0v-0.401l0.199-0.199l0.352,0.352l-0.324,0.324v0.151H3.404L3.08,14.45
	l-0.352-0.353L2.927,13.898z M3.612,13.213l0.352-0.352l0.352,0.352l-0.352,0.352L3.612,13.213z M5.051,13.778H4.72v-0.331
	l-0.234-0.234l0,0l0.234-0.234v-0.331h0.331l0.234-0.234l0.234,0.234h0.331v0.331l0.234,0.234l-0.234,0.234v0.331H5.52l-0.234,0.234
	l0,0L5.051,13.778z M5.569,13.898l0.401,0v-0.401l0.199-0.199l0.352,0.352l-0.324,0.324v0.151H6.047L5.723,14.45L5.37,14.097
	L5.569,13.898z M6.254,13.213l0.352-0.352l0.352,0.352l-0.352,0.352L6.254,13.213z M7.576,11.892l0.352-0.352l0.352,0.352
	l-0.352,0.352L7.576,11.892z M7.576,9.249l0.352-0.352h0l0,0l0.352,0.352L7.928,9.602L7.576,9.249z M7.928,6.959L7.576,6.607
	l0.352-0.352h0l0.352,0.352L7.928,6.959z M7.644,4.6H7.243v0.401L7.044,5.2L6.692,4.848l0.324-0.324V4.373h0.151l0.324-0.324
	l0.352,0.352L7.644,4.6z M6.959,5.285L6.607,5.638L6.254,5.285l0.352-0.352L6.959,5.285z M6.17,5.2L5.971,5.002V4.6H5.569
	L5.37,4.401l0.352-0.352l0.324,0.324h0.151l0,0.151l0.324,0.324L6.17,5.2z M5.52,4.72h0.331v0.331l0.234,0.234L5.851,5.519V5.85
	l-0.331,0L5.286,6.084v0l0,0L5.052,5.85H4.72V5.519L4.486,5.285l0,0L4.72,5.051V4.72h0.331l0.234-0.234L5.52,4.72z M5.002,4.6H4.6
	v0.401L4.402,5.2L4.049,4.848l0.324-0.324V4.373h0.151l0.324-0.324l0.352,0.352L5.002,4.6z M4.317,5.285L4.317,5.285L3.964,5.638
	L3.612,5.285l0,0l0.352-0.352L4.317,5.285z M2.877,4.72h0.331v0.331l0.234,0.234L3.208,5.519V5.85l-0.331,0L2.643,6.084l0,0l0,0
	L2.409,5.85H2.078V5.519L1.844,5.285l0.234-0.234V4.72h0.331l0.234-0.234L2.877,4.72z M2.359,4.6H1.958v0.401L1.759,5.2L1.407,4.848
	l0.324-0.324V4.373h0.151l0.324-0.324l0.352,0.352L2.359,4.6z M2.558,7.044L2.359,7.243H1.958v0.401L1.759,7.843L1.407,7.491
	l0.324-0.324V7.016l0.151,0l0.324-0.324L2.558,7.044z M2.558,9.687L2.359,9.885H1.958v0.401l-0.199,0.199l-0.352-0.352l0.324-0.324
	V9.658h0.151l0.324-0.324L2.558,9.687z M2.558,12.329l-0.199,0.199l-0.401,0v0.401l-0.199,0.199l-0.352-0.352l0.324-0.324v-0.151
	h0.151l0.324-0.324L2.558,12.329z M2.558,14.972l-0.199,0.199H1.958v0.401l-0.199,0.199l-0.352-0.352l0.324-0.324v-0.151h0.151
	l0.324-0.324L2.558,14.972z M2.291,14.534l0.352-0.352h0l0.352,0.352l-0.352,0.352L2.291,14.534z M3.675,15.045v-0.221H3.454
	l-0.289-0.289l0.289-0.289h0.221v-0.221l0.289-0.289l0.289,0.289v0.221h0.221l0.289,0.289l-0.289,0.289l-0.221,0v0.221l-0.289,0.289
	L3.675,15.045z M4.373,15.095v-0.151h0.151l0.324-0.324l0.352,0.352l-0.199,0.199H4.6v0.401l-0.199,0.199l-0.352-0.352L4.373,15.095
	z M4.933,14.534l0.352-0.352h0l0.352,0.352l-0.352,0.352L4.933,14.534z M6.318,15.045v-0.221H6.097l-0.289-0.289l0.289-0.289h0.221
	v-0.221l0.289-0.289l0.289,0.289v0.221h0.221l0.289,0.289l-0.289,0.289l-0.221,0v0.221l-0.289,0.289L6.318,15.045z M7.016,15.095
	v-0.151h0.151l0.324-0.324l0.352,0.352l-0.199,0.199H7.243v0.401l-0.199,0.199l-0.352-0.352L7.016,15.095z M7.576,14.534
	l0.352-0.352l0.352,0.352l-0.352,0.352L7.576,14.534z M8.013,14.097l0.199-0.199l0.401,0v-0.401l0.199-0.199l0.352,0.352
	l-0.324,0.324v0.151H8.69L8.366,14.45L8.013,14.097z M8.013,11.455l0.199-0.199h0.401v-0.401l0.199-0.199l0.352,0.352l-0.324,0.324
	v0.151H8.69l-0.324,0.324L8.013,11.455z M8.013,8.812l0.199-0.199h0.401V8.212l0.199-0.199l0.352,0.352L8.841,8.689V8.84H8.689
	L8.365,9.164L8.013,8.812z M8.013,6.169L8.212,5.97l0.401,0V5.569L8.812,5.37l0.352,0.352L8.841,6.047v0.151H8.69L8.366,6.522
	L8.013,6.169z M8.013,3.527l0.199-0.199h0.401V2.926l0.199-0.199L9.165,3.08L8.841,3.404v0.151H8.69L8.366,3.879L8.013,3.527z
	 M8.281,3.964L7.928,4.316L7.576,3.964l0.352-0.352L8.281,3.964z M6.896,3.454v0.221h0.221l0.289,0.289L7.117,4.253H6.896v0.221
	L6.607,4.763L6.318,4.474V4.253H6.097L5.808,3.964l0.289-0.289h0.221V3.454l0.289-0.289L6.896,3.454z M6.198,3.404v0.151H6.047
	L5.723,3.879L5.371,3.527l0.199-0.199h0.401V2.926L6.17,2.728L6.522,3.08L6.198,3.404z M5.638,3.964L5.286,4.316L4.933,3.964
	l0.352-0.352h0L5.638,3.964z M4.253,3.454v0.221h0.221l0.289,0.289L4.475,4.253H4.253v0.221L3.964,4.763L3.675,4.474V4.253H3.454
	L3.165,3.964l0.289-0.289h0.221V3.454l0.289-0.289L4.253,3.454z M3.555,3.404v0.151H3.404L3.08,3.879L2.728,3.527l0.199-0.199h0.401
	V2.926l0.199-0.199L3.879,3.08L3.555,3.404z M2.995,3.964L2.643,4.316L2.291,3.964l0.352-0.352h0L2.995,3.964z M1.322,2.995
	L0.969,2.643h0L1.322,2.29l0.352,0.352L1.322,2.995z M1.674,5.285L1.322,5.638L0.969,5.285l0.352-0.352L1.674,5.285z M1.322,7.575
	l0.352,0.352l0,0L1.322,8.28L0.969,7.928L1.322,7.575z M1.674,10.571L1.674,10.571l-0.352,0.352l-0.352-0.352l0.352-0.352
	L1.674,10.571z M1.674,13.213l-0.352,0.352l-0.352-0.352l0.352-0.352L1.674,13.213z M1.674,15.856L1.674,15.856l-0.352,0.353
	l-0.352-0.353l0.352-0.352L1.674,15.856z M2.409,16.421H2.078V16.09l-0.234-0.234l0.234-0.234v-0.331h0.331l0.234-0.234l0.234,0.234
	h0.331v0.331l0.234,0.234L3.208,16.09v0.331H2.877l-0.234,0.234h0L2.409,16.421z M2.927,16.541h0.401V16.14l0.199-0.199l0.352,0.352
	l-0.324,0.324v0.151H3.404L3.08,17.092L2.728,16.74L2.927,16.541z M3.612,15.856l0.352-0.352l0.352,0.352l-0.352,0.353L3.612,15.856
	z M5.052,16.421H4.72V16.09l-0.234-0.234h0l0.234-0.234v-0.331h0.331l0.234-0.234l0.234,0.234h0.331v0.331l0.234,0.234L5.851,16.09
	v0.331H5.52l-0.234,0.234h0L5.052,16.421z M5.569,16.541h0.401V16.14l0.199-0.199l0.352,0.352l-0.324,0.324v0.151H6.047
	l-0.324,0.324L5.371,16.74L5.569,16.541z M6.255,15.856L6.255,15.856l0.352-0.352l0.352,0.352l-0.352,0.353L6.255,15.856z
	 M7.694,16.421H7.363V16.09l-0.234-0.234l0.234-0.234v-0.331h0.331l0.234-0.234l0.234,0.234h0.331v0.331l0.234,0.234L8.493,16.09
	v0.331H8.162l-0.234,0.234h0L7.694,16.421z M8.212,16.541h0.401V16.14l0.199-0.199l0.352,0.352l-0.324,0.324v0.151H8.69
	l-0.324,0.324L8.013,16.74L8.212,16.541z M8.897,15.856l0.352-0.352l0.352,0.352L9.25,16.208L8.897,15.856z M8.897,13.213
	l0.352-0.352l0.352,0.352L9.25,13.566L8.897,13.213z M8.897,10.571l0.352-0.352l0.352,0.352L9.25,10.923L8.897,10.571z M8.897,7.928
	L9.25,7.575l0.352,0.352L9.25,8.28L8.897,7.928z M8.897,5.285L9.25,4.933l0.352,0.352v0L9.25,5.638L8.897,5.285z M8.162,2.077h0.331
	v0.331l0.234,0.234L8.493,2.877v0.331H8.162L7.928,3.442h0l0,0L7.694,3.208H7.363V2.877L7.129,2.643h0l0,0l0.234-0.234V2.077h0.331
	l0.234-0.234L8.162,2.077z M7.644,1.958H7.243v0.401L7.044,2.558L6.692,2.205l0.324-0.324V1.73h0.151l0.324-0.324l0.352,0.352
	L7.644,1.958z M6.959,2.643L6.959,2.643L6.959,2.643L6.607,2.995L6.255,2.643L6.607,2.29L6.959,2.643z M5.52,2.077h0.331v0.331
	l0.234,0.234L5.851,2.877v0.331H5.52L5.286,3.442h0l0,0L5.052,3.208H4.72V2.877L4.486,2.643h0L4.72,2.409V2.077h0.331l0.234-0.234h0
	L5.52,2.077z M5.002,1.958H4.6v0.401L4.402,2.558L4.049,2.205l0.324-0.324V1.73h0.151l0.324-0.324l0.352,0.352L5.002,1.958z
	 M4.317,2.643L3.964,2.995L3.612,2.643L3.964,2.29L4.317,2.643z M2.877,2.077h0.331l0,0.331l0.234,0.234L3.208,2.877v0.331H2.877
	L2.643,3.442l0,0v0L2.409,3.208H2.078V2.877L1.844,2.643v0l0.234-0.234V2.077h0.331l0.234-0.234L2.877,2.077z M2.359,1.958H1.958
	v0.401L1.759,2.558L1.407,2.205l0.324-0.324V1.73h0.151l0.324-0.324l0.352,0.352L2.359,1.958z M0.085,0.884l0.199-0.199h0.401V0.284
	l0.199-0.199l0.352,0.352L0.913,0.761v0.151H0.762L0.438,1.236L0.085,0.884z M0.685,2.359V1.958H0.284L0.085,1.759l0.352-0.352
	L0.762,1.73h0.151v0.151l0.324,0.324L0.884,2.558L0.685,2.359z M0.085,3.527l0.199-0.199h0.401V2.926l0.199-0.199L1.237,3.08
	L0.913,3.404v0.151H0.762L0.438,3.879L0.085,3.527z M0.685,5.002V4.6H0.284L0.085,4.401l0.352-0.352l0.324,0.324h0.151v0.151
	l0.324,0.324L0.884,5.2L0.685,5.002z M0.085,6.169L0.284,5.97l0.401,0V5.569L0.884,5.37l0.352,0.352L0.913,6.047v0.151H0.762
	L0.438,6.522L0.085,6.169z M0.685,7.644V7.243H0.284L0.085,7.044l0.352-0.352l0.324,0.324h0.151v0.151l0.324,0.324L0.884,7.843
	L0.685,7.644z M0.085,8.812l0.199-0.199h0.401V8.212l0.199-0.199l0.352,0.352L0.913,8.689V8.84H0.762L0.438,9.164L0.085,8.812z
	 M0.685,10.287V9.885H0.284L0.085,9.687l0.352-0.353l0.324,0.324h0.151v0.151l0.324,0.324l-0.352,0.353L0.685,10.287z M0.085,11.455
	l0.199-0.199h0.401v-0.401l0.199-0.199l0.352,0.352l-0.324,0.324v0.151H0.762l-0.324,0.324L0.085,11.455z M0.685,12.929v-0.401
	H0.284l-0.199-0.199l0.352-0.352l0.324,0.324h0.151v0.151l0.324,0.324l-0.352,0.352L0.685,12.929z M0.085,14.097l0.199-0.199
	l0.401,0v-0.401l0.199-0.199l0.352,0.352l-0.324,0.324v0.151H0.762L0.438,14.45L0.085,14.097z M0.685,15.572v-0.401H0.284
	l-0.199-0.199l0.352-0.352l0.324,0.324h0.151v0.151l0.324,0.324l-0.352,0.353L0.685,15.572z M0.085,16.74l0.199-0.199h0.401V16.14
	l0.199-0.199l0.352,0.352l-0.324,0.324v0.151H0.762l-0.324,0.324L0.085,16.74z M0.884,18.414l-0.199-0.199v-0.401H0.284
	l-0.199-0.199l0.352-0.352l0.324,0.324h0.151v0.151l0.324,0.324L0.884,18.414z M1.033,17.687v-0.221H0.811l-0.289-0.289l0.289-0.289
	h0.221v-0.221l0.289-0.289l0.289,0.289v0.221h0.221l0.289,0.289l-0.289,0.289H1.611v0.221l-0.289,0.289L1.033,17.687z M2.359,17.813
	H1.958v0.401l-0.199,0.199l-0.352-0.352l0.324-0.324v-0.151h0.151l0.324-0.324l0.352,0.352L2.359,17.813z M2.291,17.177l0.352-0.352
	h0l0.352,0.352L2.643,17.53L2.291,17.177z M3.527,18.414l-0.199-0.199v-0.401H2.927l-0.199-0.199l0.352-0.352l0.324,0.324h0.151
	v0.151l0.324,0.324L3.527,18.414z M3.675,17.687v-0.221H3.454l-0.289-0.289l0.289-0.289h0.221v-0.221l0.289-0.289l0.289,0.289v0.221
	h0.221l0.289,0.289l-0.289,0.289H4.253v0.221l-0.289,0.289L3.675,17.687z M5.002,17.813H4.6v0.401l-0.199,0.199l-0.352-0.352
	l0.324-0.324v-0.151h0.151l0.324-0.324l0.352,0.352L5.002,17.813z M5.286,17.53l-0.352-0.352l0.352-0.352h0l0.352,0.352L5.286,17.53
	L5.286,17.53z M6.17,18.414l-0.199-0.199v-0.401H5.569L5.37,17.614l0.352-0.352l0.324,0.324h0.151v0.151l0.324,0.324L6.17,18.414z
	 M6.318,17.687v-0.221H6.097l-0.289-0.289l0.289-0.289h0.221v-0.221l0.289-0.289l0.289,0.289v0.221h0.221l0.289,0.289l-0.289,0.289
	H6.896v0.221l-0.289,0.289L6.318,17.687z M7.644,17.813H7.243v0.401l-0.199,0.199l-0.352-0.352l0.324-0.324v-0.151h0.151
	l0.324-0.324l0.352,0.352L7.644,17.813z M7.576,17.177l0.352-0.352h0l0.352,0.352L7.928,17.53L7.576,17.177z M8.812,18.414
	l-0.199-0.199v-0.401H8.212l-0.199-0.199l0.352-0.352l0.324,0.324h0.151l0,0.151l0.324,0.324L8.812,18.414z M8.961,17.687v-0.221
	H8.739L8.45,17.177l0.289-0.289h0.221v-0.221l0.289-0.289l0.289,0.289v0.221H9.76l0.289,0.289L9.76,17.466H9.538v0.221L9.25,17.976
	L8.961,17.687z M10.486,17.614l-0.199,0.199H9.886v0.401l-0.199,0.199l-0.352-0.352l0.324-0.324v-0.151H9.81l0.324-0.324
	L10.486,17.614z M9.886,16.14v0.401h0.401l0.199,0.199l-0.352,0.352L9.81,16.768H9.659v-0.151l-0.324-0.324l0.352-0.352L9.886,16.14
	z M10.486,14.972l-0.199,0.199H9.886v0.401l-0.199,0.199l-0.352-0.352l0.324-0.324v-0.151H9.81l0.324-0.324L10.486,14.972z
	 M9.886,13.497v0.401h0.401l0.199,0.199l-0.352,0.353L9.81,14.126H9.658v-0.151l-0.324-0.324l0.352-0.352L9.886,13.497z
	 M10.486,12.329l-0.199,0.199l-0.401,0v0.401l-0.199,0.199l-0.352-0.352l0.324-0.324v-0.151H9.81l0.324-0.324L10.486,12.329z
	 M9.886,10.854v0.401h0.401l0.199,0.199l-0.352,0.353L9.81,11.483H9.658v-0.151l-0.324-0.324l0.352-0.352L9.886,10.854z
	 M10.486,9.687l-0.199,0.199H9.886v0.401l-0.199,0.199l-0.352-0.353l0.324-0.324V9.658H9.81l0.324-0.324L10.486,9.687z M9.886,8.212
	v0.401h0.401l0.199,0.199l-0.352,0.352L9.81,8.84H9.658V8.689L9.334,8.365l0.352-0.352L9.886,8.212z M10.486,7.044l-0.199,0.199
	H9.886v0.401L9.687,7.843L9.334,7.491l0.324-0.324V7.016l0.151,0l0.324-0.324L10.486,7.044z M9.886,5.569V5.97h0.401l0.199,0.199
	l-0.352,0.352L9.81,6.198H9.658V6.047L9.334,5.723L9.687,5.37L9.886,5.569z M10.486,4.401L10.287,4.6H9.886v0.401L9.687,5.2
	L9.334,4.848l0.324-0.324V4.373H9.81l0.324-0.324L10.486,4.401z M9.886,2.926v0.401h0.401l0.199,0.199l-0.352,0.352L9.81,3.555
	H9.659V3.404L9.334,3.08l0.352-0.352L9.886,2.926z M10.486,1.759l-0.199,0.199H9.886v0.401L9.687,2.558L9.334,2.205l0.324-0.324
	V1.73H9.81l0.324-0.324L10.486,1.759z M9.687,0.085l0.199,0.199v0.401h0.401l0.199,0.199l-0.352,0.352L9.81,0.912H9.658V0.761
	L9.334,0.437L9.687,0.085z M9.538,0.811v0.221H9.76l0.289,0.289L9.76,1.61H9.539v0.221L9.25,2.121L8.961,1.832V1.61H8.739
	L8.45,1.321l0.289-0.289h0.221V0.811l0.289-0.289L9.538,0.811z M8.212,0.685h0.401V0.284l0.199-0.199l0.352,0.352L8.841,0.761v0.151
	H8.69L8.365,1.236L8.013,0.884L8.212,0.685z M8.281,1.321L7.928,1.674l0,0L7.576,1.321l0.352-0.352L8.281,1.321z M7.044,0.085
	l0.199,0.199v0.401h0.401l0.199,0.199L7.491,1.236L7.167,0.912H7.016V0.761L6.692,0.437L7.044,0.085z M6.896,0.811v0.221h0.221
	l0.289,0.289L7.117,1.61H6.896v0.221L6.607,2.121L6.318,1.832V1.61H6.097L5.808,1.321l0.289-0.289h0.221V0.811l0.289-0.289
	L6.896,0.811z M5.569,0.685h0.401V0.284L6.17,0.085l0.352,0.352L6.198,0.761v0.151H6.047L5.723,1.236L5.371,0.884L5.569,0.685z
	 M5.286,0.969l0.352,0.352L5.286,1.674v0l0,0L4.933,1.321L5.286,0.969L5.286,0.969z M4.402,0.085L4.6,0.284v0.401h0.401l0.199,0.199
	L4.848,1.236L4.524,0.912H4.373V0.761L4.049,0.437L4.402,0.085z M4.253,0.811v0.221h0.221l0.289,0.289L4.475,1.61H4.253v0.221
	L3.964,2.121L3.675,1.832V1.61H3.454L3.165,1.321l0.289-0.289h0.221V0.811l0.289-0.289L4.253,0.811z M2.927,0.685h0.401V0.284
	l0.199-0.199l0.352,0.352L3.555,0.761v0.151H3.404L3.08,1.236L2.728,0.884L2.927,0.685z M2.643,0.969l0.352,0.352L2.643,1.674v0
	L2.291,1.321L2.643,0.969L2.643,0.969z M1.759,0.085l0.199,0.199v0.401h0.401l0.199,0.199L2.206,1.236L1.882,0.912H1.731V0.761
	L1.407,0.437L1.759,0.085z"/>
</svg>
