<?xml version="1.0" encoding="iso-8859-1"?>
<!-- Generator: Adobe Illustrator 24.2.3, SVG Export Plug-In . SVG Version: 6.00 Build 0)  -->
<svg version="1.1" id="&#x5716;&#x5C64;_1" xmlns="http://www.w3.org/2000/svg" xmlns:xlink="http://www.w3.org/1999/xlink" x="0px"
	 y="0px" viewBox="0 0 64 64" style="enable-background:new 0 0 64 64;" xml:space="preserve">
<g>
	<g>
		<path style="fill:#CBA470;" d="M54.989,32.566c-0.028,0-0.056-0.003-0.084-0.01l-2.707-0.623c-0.1-0.023-0.186-0.085-0.239-0.174
			c-0.053-0.088-0.067-0.194-0.04-0.292l4.028-14.757c0.053-0.196,0.254-0.312,0.448-0.268l1.505,0.347
			c0.197,0.045,0.323,0.238,0.286,0.437L55.36,32.259c-0.019,0.101-0.079,0.189-0.164,0.246
			C55.134,32.545,55.062,32.566,54.989,32.566z M52.749,31.287l1.943,0.447l2.687-14.291l-0.799-0.184L52.749,31.287z"/>
		<path style="fill:#CBA470;" d="M47.211,29.934c-0.068,0-0.136-0.019-0.195-0.054l-2.376-1.439c-0.088-0.053-0.15-0.14-0.172-0.24
			c-0.022-0.1-0.003-0.205,0.053-0.291l8.447-12.752c0.111-0.168,0.336-0.22,0.509-0.114l1.321,0.8
			c0.173,0.105,0.233,0.328,0.134,0.504l-7.391,13.391c-0.05,0.09-0.134,0.156-0.233,0.182
			C47.276,29.93,47.243,29.934,47.211,29.934z M45.366,27.999l1.705,1.033L54.097,16.3l-0.702-0.425L45.366,27.999z"/>
		<path style="fill:#CBA470;" d="M41.102,25.496c-0.101,0.005-0.202-0.043-0.273-0.117l-1.913-2.015
			c-0.071-0.075-0.108-0.175-0.103-0.277c0.005-0.102,0.051-0.198,0.128-0.266l11.512-10.073c0.153-0.133,0.383-0.123,0.522,0.024
			l1.064,1.122c0.139,0.147,0.138,0.377-0.003,0.522L41.372,25.381C41.301,25.455,41.204,25.496,41.102,25.496z M39.733,23.129
			l1.372,1.446l10.137-10.425l-0.566-0.596L39.733,23.129z"/>
		<path style="fill:#CBA470;" d="M36.437,19.581c-0.033,0-0.066-0.004-0.098-0.013c-0.099-0.026-0.183-0.093-0.232-0.183
			l-1.335-2.436c-0.049-0.09-0.06-0.196-0.029-0.294c0.031-0.098,0.1-0.179,0.192-0.225l13.7-6.805
			c0.184-0.09,0.401-0.02,0.499,0.157l0.741,1.354c0.097,0.177,0.037,0.4-0.136,0.504l-13.107,7.886
			C36.572,19.563,36.505,19.581,36.437,19.581z M35.621,16.931l0.958,1.748l12.46-7.498l-0.394-0.719L35.621,16.931z"/>
		<path style="fill:#CBA470;" d="M32.806,13.157c-0.014-0.024-0.026-0.05-0.034-0.078l-0.815-2.656
			c-0.031-0.098-0.019-0.204,0.031-0.294c0.05-0.089,0.134-0.155,0.233-0.181l14.793-3.892c0.196-0.052,0.397,0.064,0.456,0.254
			l0.452,1.477c0.059,0.194-0.045,0.399-0.235,0.466l-14.431,5.071c-0.097,0.034-0.203,0.027-0.295-0.019
			C32.897,13.271,32.843,13.22,32.806,13.157z M32.793,10.577l0.585,1.906l13.719-4.821l-0.24-0.784L32.793,10.577z"/>
	</g>
	<path style="fill:#CBA470;" d="M62.492,67.084c-0.208,0-0.376-0.168-0.377-0.375L61.894,2.367h-297.795
		c-0.208,0-0.377-0.169-0.377-0.377s0.169-0.377,0.377-0.377H62.27c0.208,0,0.376,0.168,0.377,0.376l0.222,64.717
		c0,0.209-0.167,0.378-0.375,0.378C62.493,67.084,62.493,67.084,62.492,67.084z"/>
	<path style="fill:#CBA470;" d="M60.072,76.584c-0.208,0-0.377-0.169-0.377-0.377V11.549h-6.608c-0.208,0-0.377-0.169-0.377-0.377
		V4.565h-457.514c-0.208,0-0.377-0.169-0.377-0.377c0-0.208,0.169-0.377,0.377-0.377H53.087c0.208,0,0.377,0.169,0.377,0.377v6.608
		h6.608c0.208,0,0.377,0.169,0.377,0.377v65.035C60.449,76.415,60.28,76.584,60.072,76.584z"/>
	<path style="fill:#CBA470;" d="M53.998,115.38c-0.208,0-0.377-0.169-0.377-0.377V46l-0.522-0.151
		c-15.719-4.527-28.138-17.046-32.41-32.67l-0.146-0.532h-215.004c-0.208,0-0.377-0.169-0.377-0.377
		c0-0.208,0.169-0.377,0.377-0.377H20.831c0.17,0,0.319,0.114,0.363,0.277l0.222,0.809c4.204,15.373,16.424,27.69,31.892,32.145
		l0.794,0.229c0.161,0.047,0.272,0.194,0.272,0.362v69.287C54.375,115.212,54.206,115.38,53.998,115.38z"/>
	<path style="fill:#CBA470;" d="M51.765,115.38L51.765,115.38c-0.209,0-0.377-0.169-0.377-0.377l0.035-67.363
		c-15.498-4.852-27.93-17.381-32.544-32.796h-93.256c-0.208,0-0.377-0.169-0.377-0.377c0-0.208,0.169-0.377,0.377-0.377h93.537
		c0.167,0,0.315,0.11,0.362,0.271C24.026,29.75,36.437,42.257,51.91,47.003c0.159,0.049,0.266,0.195,0.266,0.36l-0.035,67.64
		C52.142,115.212,51.973,115.38,51.765,115.38z"/>
</g>
</svg>
