<?xml version="1.0" encoding="iso-8859-1"?>
<!-- Generator: Adobe Illustrator 24.2.3, SVG Export Plug-In . SVG Version: 6.00 Build 0)  -->
<svg version="1.1" id="&#x5716;&#x5C64;_1" xmlns="http://www.w3.org/2000/svg" xmlns:xlink="http://www.w3.org/1999/xlink" x="0px"
	 y="0px" viewBox="0 0 64 64" style="enable-background:new 0 0 64 64;" xml:space="preserve">
<g>
	<g>
		<path style="fill:#C7A26F;" d="M47.191,63.21c-0.056,0-0.112-0.006-0.168-0.02l-5.388-1.239c-0.199-0.045-0.371-0.17-0.476-0.346
			c-0.105-0.175-0.134-0.386-0.08-0.582l8.016-29.366c0.106-0.389,0.497-0.627,0.892-0.533l2.995,0.689
			c0.392,0.09,0.643,0.474,0.569,0.869l-5.624,29.916c-0.038,0.2-0.156,0.377-0.327,0.489C47.479,63.168,47.336,63.21,47.191,63.21z
			 M42.733,60.665l3.866,0.889l5.346-28.44l-1.591-0.366L42.733,60.665z"/>
		<path style="fill:#C7A26F;" d="M31.711,57.973c-0.136,0-0.271-0.037-0.389-0.108L26.594,55c-0.174-0.105-0.298-0.278-0.343-0.478
			c-0.044-0.199-0.006-0.408,0.106-0.578l16.81-25.377c0.222-0.337,0.668-0.437,1.014-0.228l2.629,1.592
			c0.344,0.209,0.462,0.651,0.268,1.004L32.368,57.585c-0.099,0.179-0.266,0.31-0.463,0.362
			C31.841,57.964,31.776,57.973,31.711,57.973z M28.039,54.121l3.393,2.056l13.984-25.335l-1.396-0.846L28.039,54.121z"/>
		<path style="fill:#C7A26F;" d="M19.554,49.141c-0.199,0.005-0.402-0.085-0.544-0.233l-3.806-4.01
			c-0.141-0.148-0.215-0.348-0.205-0.552c0.009-0.203,0.102-0.395,0.255-0.529l22.91-20.046c0.301-0.265,0.76-0.244,1.038,0.048
			l2.117,2.231c0.277,0.292,0.274,0.751-0.006,1.039l-21.22,21.824C19.95,49.058,19.756,49.141,19.554,49.141z M16.829,44.431
			l2.731,2.877l20.174-20.748l-1.125-1.186L16.829,44.431z"/>
		<path style="fill:#C7A26F;" d="M10.27,37.37c-0.065,0-0.131-0.009-0.196-0.026c-0.197-0.053-0.364-0.185-0.462-0.363l-2.656-4.848
			c-0.098-0.179-0.119-0.391-0.058-0.585c0.061-0.195,0.199-0.356,0.382-0.447l27.263-13.542c0.36-0.176,0.798-0.041,0.991,0.312
			l1.476,2.695c0.193,0.353,0.074,0.796-0.271,1.003L10.657,37.263C10.54,37.334,10.405,37.37,10.27,37.37z M8.647,32.097
			l1.906,3.479L35.35,20.654l-0.784-1.432L8.647,32.097z"/>
		<path style="fill:#C7A26F;" d="M3.95,24.535c-0.064-0.015-0.126-0.039-0.184-0.071C3.586,24.367,3.454,24.2,3.4,24.004
			l-1.465-5.33c-0.054-0.197-0.026-0.408,0.079-0.582c0.104-0.176,0.276-0.301,0.475-0.347l29.654-6.879
			c0.391-0.088,0.786,0.144,0.892,0.532l0.814,2.963c0.107,0.388-0.112,0.791-0.495,0.913L4.351,24.52
			C4.22,24.562,4.081,24.566,3.95,24.535z M3.588,19.029l1.051,3.825l27.573-8.79L31.78,12.49L3.588,19.029z"/>
	</g>
	<path style="fill:#C7A26F;" d="M62.121,131.902c-0.413,0-0.748-0.334-0.75-0.747L60.932,3.113h-910.474
		c-0.414,0-0.75-0.336-0.75-0.75s0.336-0.75,0.75-0.75H61.68c0.413,0,0.749,0.334,0.75,0.747l0.442,128.789
		c0.001,0.414-0.333,0.751-0.748,0.753C62.123,131.902,62.122,131.902,62.121,131.902z"/>
	<path style="fill:#C7A26F;" d="M57.306,150.809c-0.414,0-0.75-0.336-0.75-0.75V21.387h-13.15c-0.414,0-0.75-0.336-0.75-0.75V7.486
		h-556.074c-0.414,0-0.75-0.336-0.75-0.75s0.336-0.75,0.75-0.75H43.406c0.414,0,0.75,0.336,0.75,0.75v13.15h13.15
		c0.414,0,0.75,0.336,0.75,0.75v129.423C58.056,150.474,57.72,150.809,57.306,150.809z"/>
</g>
</svg>
