<?xml version="1.0" encoding="iso-8859-1"?>
<!-- Generator: Adobe Illustrator 24.2.3, SVG Export Plug-In . SVG Version: 6.00 Build 0)  -->
<svg version="1.1" id="&#x5716;&#x5C64;_1" xmlns="http://www.w3.org/2000/svg" xmlns:xlink="http://www.w3.org/1999/xlink" x="0px"
	 y="0px" viewBox="0 0 568.601 235.294" style="enable-background:new 0 0 568.601 235.294;" xml:space="preserve">
<g>
	<g>
		<g>
			<g>
				<path style="fill:#C7A26F;" d="M283.586,224.751l-49.304-33.145L45.041,191.52v-24.757H25.477V68.807h19.564V43.691h188.762
					l49.3-33.148l49.303,33.148H523.56v25.116h19.564v97.956H523.56v24.757l-1.699,0.001l-188.975,0.086L283.586,224.751z
					 M48.44,187.158l186.679,0.084l48.467,32.583l48.463-32.583h0.418l187.693-0.084v-24.76h19.564V73.172H520.16V48.055H331.569
					L283.103,15.47l-48.464,32.585H48.44v25.116H28.877v89.227H48.44V187.158z"/>
			</g>
			<g>
				<g>
					<polygon style="fill:#C7A26F;" points="233.486,179.232 34.345,179.232 34.345,55.889 233.486,55.889 233.486,56.617 
						34.912,56.617 34.912,178.504 233.486,178.504 					"/>
				</g>
				<g>
					<polygon style="fill:#C7A26F;" points="534.256,179.232 332.237,179.232 332.237,178.504 533.69,178.504 533.69,56.617 
						332.237,56.617 332.237,55.889 534.256,55.889 					"/>
				</g>
			</g>
		</g>
	</g>
</g>
</svg>
