<?xml version="1.0" encoding="iso-8859-1"?>
<!-- Generator: Adobe Illustrator 24.2.3, SVG Export Plug-In . SVG Version: 6.00 Build 0)  -->
<svg version="1.1" id="&#x5716;&#x5C64;_1" xmlns="http://www.w3.org/2000/svg" xmlns:xlink="http://www.w3.org/1999/xlink" x="0px"
	 y="0px" viewBox="0 0 601.843 249.05" style="enable-background:new 0 0 601.843 249.05;" xml:space="preserve">
<g>
	<g>
		<g>
			<g>
				<path style="fill:#C7A26F;" d="M300.148,240.555l-53.412-35.907l-205.012-0.094v-26.82H20.529V71.615h21.194V44.405h204.492
					l53.409-35.91l53.411,35.91h207.084v27.209h21.195v106.119h-21.195v26.82l-1.841,0.001l-204.723,0.093L300.148,240.555z
					 M45.406,199.828l202.236,0.091l52.506,35.298l52.502-35.298h0.452l203.335-0.091v-26.823h21.195V76.343h-21.195V49.134H352.129
					l-52.505-35.301l-52.502,35.301H45.406v27.209H24.212v96.662h21.194V199.828z"/>
			</g>
			<g>
				<g>
					<polygon style="fill:#C7A26F;" points="245.872,191.242 30.136,191.242 30.136,57.621 245.872,57.621 245.872,58.409 
						30.75,58.409 30.75,190.453 245.872,190.453 					"/>
				</g>
				<g>
					<polygon style="fill:#C7A26F;" points="571.707,191.242 352.852,191.242 352.852,190.453 571.093,190.453 571.093,58.409 
						352.852,58.409 352.852,57.621 571.707,57.621 					"/>
				</g>
			</g>
			<g>
				<path style="fill:#FFFFFF;" d="M172.731,146.297v5.725h-68.543v-5.725h37.443c4.177-9.902,8.974-25.916,11.449-37.211
					l6.499,1.238c-3.172,11.527-7.813,26.226-11.759,35.973H172.731z M169.637,104.908h-62.122v-5.647h62.122V104.908z
					 M125.463,142.971c-1.083-8.819-4.332-22.358-7.272-32.492l5.725-1.393c3.018,10.367,6.267,23.518,7.659,32.415L125.463,142.971
					z M136.68,98.333c-0.619-3.327-2.244-8.587-3.713-12.533l5.57-1.47c1.547,3.945,3.25,8.974,4.023,12.301L136.68,98.333z"/>
				<path style="fill:#FFFFFF;" d="M229.746,128.968c3.946,6.267,8.587,14.622,10.753,19.728l-5.183,2.862
					c-0.851-2.089-2.089-4.874-3.559-7.736c-19.496,6.885-22.048,7.969-23.673,9.207c-0.387-1.625-1.47-4.41-2.398-5.88
					c1.315-0.619,3.25-1.934,3.25-4.874V88.74h29.475v36.283h-23.75v19.031l14.776-4.796c-1.547-2.785-3.171-5.57-4.564-7.968
					L229.746,128.968z M214.661,93.923v10.057h18.103V93.923H214.661z M232.763,119.84v-10.676h-18.103v10.676H232.763z
					 M270.826,133.455c0,3.249-0.696,4.874-2.785,5.802c-2.089,1.005-5.57,1.083-11.218,1.005c-0.232-1.547-0.851-3.868-1.702-5.493
					c4.022,0.155,7.582,0.155,8.587,0.078c1.083,0,1.47-0.31,1.47-1.393V94.619h-14.003v60.729h-5.647V89.204h25.297V133.455z"/>
				<path style="fill:#FFFFFF;" d="M319.563,126.725v21.352c0,3.171-0.696,4.642-2.63,5.57c-1.857,0.928-4.874,1.083-9.902,1.083
					c-0.232-1.47-1.006-3.791-1.702-5.338c3.327,0.155,6.421,0.077,7.272,0.077c1.006,0,1.393-0.309,1.393-1.392v-19.65l-8.51,2.476
					l-1.625-5.647c2.862-0.619,6.343-1.547,10.134-2.553v-17.097h-9.284v-5.415h9.284V84.717h5.57v15.473h6.808v5.415h-6.808v15.55
					l7.582-2.089l0.696,5.184L319.563,126.725z M338.285,130.748c-0.773,8.277-2.939,17.561-8.51,24.523
					c-0.851-1.005-3.249-2.63-4.564-3.172c7.118-8.742,8.046-20.888,8.046-29.629v-13.384h35.045v21.662H338.285z M355.305,86.11
					c-0.465,0.773-1.006,1.47-1.625,2.244c5.184,5.106,13.926,10.366,21.197,13.151c-0.928,1.315-2.012,3.636-2.398,5.106
					c-7.349-3.559-15.937-9.129-21.661-14.776c-5.647,6.499-13.306,11.836-20.733,15.55c-0.464-1.083-1.934-3.791-2.94-4.874
					c9.052-4.023,18.258-10.521,23.363-18.257L355.305,86.11z M338.285,134.925h31.951v20.114h-5.184v-2.321h-21.738v2.553h-5.029
					V134.925z M363.041,126.415v-4.642h-24.369v0.773c0,1.238,0,2.553-0.078,3.868H363.041z M338.672,113.419v4.487h24.369v-4.487
					H338.672z M360.41,100.267v4.255h-18.799v-4.255H360.41z M343.314,139.335v8.974h21.738v-8.974H343.314z"/>
				<path style="fill:#FFFFFF;" d="M417.116,138.716c-1.779,6.344-5.105,12.532-8.587,16.633c-0.929-0.851-3.095-2.321-4.332-3.095
					c3.559-3.636,6.266-9.128,7.736-14.699L417.116,138.716z M429.881,135.931h-21.738V87.579h21.738V135.931z M424.699,92.376
					h-11.527v9.825h11.527V92.376z M424.699,106.688h-11.527v9.902h11.527V106.688z M424.699,121.155h-11.527v10.057h11.527V121.155
					z M425.936,137.478c2.553,3.713,5.184,8.665,6.421,11.914l-4.564,2.166c-1.083-3.249-3.79-8.432-6.188-12.146L425.936,137.478z
					 M475.525,142.584h-4.642v6.73c0,2.785-0.619,4.255-2.553,5.105c-2.166,0.774-5.647,0.774-11.218,0.774
					c-0.231-1.315-0.928-3.327-1.624-4.642c4.022,0.077,7.736,0.077,8.819,0.077c0.928-0.077,1.314-0.31,1.314-1.315v-6.73h-24.446
					v12.765h-5.183v-12.765h-5.029v-4.41h5.029v-19.65h14.621v-4.487h-19.341v-4.332h11.141v-5.106h-7.35v-4.255h7.35v-4.642h-9.361
					V91.37h9.361v-6.653h5.105v6.653h11.45v-6.653h5.183v6.653h9.438v4.332h-9.438v4.642h8.2v4.255h-8.2v5.106h11.062v4.332H455.72
					v4.487h15.163v19.65h4.642V142.584z M441.176,122.857v5.493h9.438v-5.493H441.176z M441.176,138.175h9.438v-5.802h-9.438
					V138.175z M447.52,100.344h11.45v-4.642h-11.45V100.344z M447.52,109.705h11.45v-5.106h-11.45V109.705z M455.72,122.857v5.493
					h9.902v-5.493H455.72z M465.622,138.175v-5.802h-9.902v5.802H465.622z"/>
			</g>
		</g>
	</g>
</g>
</svg>
