<?xml version="1.0" encoding="iso-8859-1"?>
<!-- Generator: Adobe Illustrator 24.2.3, SVG Export Plug-In . SVG Version: 6.00 Build 0)  -->
<svg version="1.1" id="&#x5716;&#x5C64;_1" xmlns="http://www.w3.org/2000/svg" xmlns:xlink="http://www.w3.org/1999/xlink" x="0px"
	 y="0px" viewBox="0 0 64 64" style="enable-background:new 0 0 64 64;" xml:space="preserve">
<g>
	<path style="fill:#C7A26F;" d="M62.121,67.902c-0.413,0-0.748-0.334-0.75-0.747L60.932-60.887h-910.474
		c-0.414,0-0.75-0.336-0.75-0.75s0.336-0.75,0.75-0.75H61.68c0.413,0,0.749,0.334,0.75,0.747l0.442,128.789
		c0.001,0.414-0.333,0.751-0.748,0.753C62.123,67.902,62.122,67.902,62.121,67.902z"/>
	<path style="fill:#C7A26F;" d="M57.306,86.809c-0.414,0-0.75-0.336-0.75-0.75V-42.613h-13.15c-0.414,0-0.75-0.336-0.75-0.75v-13.15
		h-556.074c-0.414,0-0.75-0.336-0.75-0.75s0.336-0.75,0.75-0.75H43.406c0.414,0,0.75,0.336,0.75,0.75v13.15h13.15
		c0.414,0,0.75,0.336,0.75,0.75V86.059C58.056,86.474,57.72,86.809,57.306,86.809z"/>
</g>
</svg>
