<?xml version="1.0" encoding="iso-8859-1"?>
<!-- Generator: Adobe Illustrator 24.2.3, SVG Export Plug-In . SVG Version: 6.00 Build 0)  -->
<svg version="1.1" id="&#x5716;&#x5C64;_1" xmlns="http://www.w3.org/2000/svg" xmlns:xlink="http://www.w3.org/1999/xlink" x="0px"
	 y="0px" viewBox="0 0 64 64" style="enable-background:new 0 0 64 64;" xml:space="preserve">
<g>
	<path style="fill:#CBA470;" d="M62.492,90.631c-0.208,0-0.376-0.168-0.377-0.375L61.894-46.633h-297.795
		c-0.208,0-0.377-0.169-0.377-0.377c0-0.208,0.169-0.377,0.377-0.377H62.27c0.208,0,0.376,0.168,0.377,0.376l0.222,137.264
		c0,0.209-0.167,0.378-0.375,0.378C62.493,90.631,62.493,90.631,62.492,90.631z"/>
	<path style="fill:#CBA470;" d="M60.072,100.131c-0.208,0-0.377-0.169-0.377-0.377V-37.451h-6.608c-0.208,0-0.377-0.169-0.377-0.377
		v-6.608h-457.514c-0.208,0-0.377-0.169-0.377-0.377s0.169-0.377,0.377-0.377H53.087c0.208,0,0.377,0.169,0.377,0.377v6.608h6.608
		c0.208,0,0.377,0.169,0.377,0.377V99.755C60.449,99.963,60.28,100.131,60.072,100.131z"/>
	<path style="fill:#CBA470;" d="M53.998,66.38c-0.208,0-0.377-0.169-0.377-0.377V-3l-0.522-0.151
		c-15.719-4.527-28.138-17.046-32.41-32.67l-0.146-0.532h-215.004c-0.208,0-0.377-0.169-0.377-0.377
		c0-0.208,0.169-0.377,0.377-0.377H20.831c0.17,0,0.319,0.114,0.363,0.277l0.222,0.809C25.619-20.648,37.839-8.33,53.308-3.875
		l0.794,0.229c0.161,0.047,0.272,0.194,0.272,0.362v69.287C54.375,66.212,54.206,66.38,53.998,66.38z"/>
	<path style="fill:#CBA470;" d="M51.765,66.38L51.765,66.38c-0.209,0-0.377-0.169-0.377-0.377l0.035-67.363
		C35.925-6.212,23.493-18.74,18.879-34.155h-93.256c-0.208,0-0.377-0.169-0.377-0.377c0-0.208,0.169-0.377,0.377-0.377h93.537
		c0.167,0,0.315,0.11,0.362,0.271C24.026-19.25,36.437-6.743,51.91-1.997c0.159,0.049,0.266,0.195,0.266,0.36l-0.035,67.64
		C52.142,66.212,51.973,66.38,51.765,66.38z"/>
</g>
</svg>
