<?xml version="1.0" encoding="iso-8859-1"?>
<!-- Generator: Adobe Illustrator 24.2.3, SVG Export Plug-In . SVG Version: 6.00 Build 0)  -->
<svg version="1.1" id="&#x5716;&#x5C64;_1" xmlns="http://www.w3.org/2000/svg" xmlns:xlink="http://www.w3.org/1999/xlink" x="0px"
	 y="0px" viewBox="0 0 64 64" style="enable-background:new 0 0 64 64;" xml:space="preserve">
<g>
	<path style="fill:#CBA470;" d="M108.492,67.084c-0.208,0-0.376-0.168-0.377-0.375l-0.221-64.342h-297.795
		c-0.208,0-0.377-0.169-0.377-0.377s0.169-0.377,0.377-0.377h298.17c0.208,0,0.376,0.168,0.377,0.376l0.222,64.717
		c0,0.209-0.167,0.378-0.375,0.378C108.493,67.084,108.493,67.084,108.492,67.084z"/>
	<path style="fill:#CBA470;" d="M106.072,76.584c-0.208,0-0.377-0.169-0.377-0.377V11.549h-6.608c-0.208,0-0.377-0.169-0.377-0.377
		V4.565h-457.514c-0.208,0-0.377-0.169-0.377-0.377c0-0.208,0.169-0.377,0.377-0.377H99.087c0.208,0,0.377,0.169,0.377,0.377v6.608
		h6.608c0.208,0,0.377,0.169,0.377,0.377v65.035C106.449,76.415,106.28,76.584,106.072,76.584z"/>
	<path style="fill:#CBA470;" d="M99.998,115.38c-0.208,0-0.377-0.169-0.377-0.377V46l-0.522-0.151
		c-15.719-4.527-28.138-17.046-32.41-32.67l-0.146-0.532h-215.004c-0.208,0-0.377-0.169-0.377-0.377
		c0-0.208,0.169-0.377,0.377-0.377H66.831c0.17,0,0.319,0.114,0.363,0.277l0.222,0.809c4.204,15.373,16.424,27.69,31.892,32.145
		l0.794,0.229c0.161,0.047,0.272,0.194,0.272,0.362v69.287C100.375,115.212,100.206,115.38,99.998,115.38z"/>
	<path style="fill:#CBA470;" d="M97.765,115.38L97.765,115.38c-0.209,0-0.377-0.169-0.377-0.377l0.035-67.363
		c-15.498-4.852-27.93-17.381-32.544-32.796h-93.256c-0.208,0-0.377-0.169-0.377-0.377c0-0.208,0.169-0.377,0.377-0.377h93.537
		c0.167,0,0.315,0.11,0.362,0.271C70.026,29.75,82.437,42.257,97.91,47.003c0.159,0.049,0.266,0.195,0.266,0.36l-0.035,67.64
		C98.142,115.212,97.973,115.38,97.765,115.38z"/>
</g>
</svg>
