<?xml version="1.0" encoding="iso-8859-1"?>
<!-- Generator: Adobe Illustrator 24.2.3, SVG Export Plug-In . SVG Version: 6.00 Build 0)  -->
<svg version="1.1" id="&#x5716;&#x5C64;_1" xmlns="http://www.w3.org/2000/svg" xmlns:xlink="http://www.w3.org/1999/xlink" x="0px"
	 y="0px" viewBox="0 0 64 64" style="enable-background:new 0 0 64 64;" xml:space="preserve">
<g>
	<path style="fill:#CBA470;" d="M111.492,139.631c-0.208,0-0.376-0.168-0.377-0.375L110.894,2.367h-297.795
		c-0.208,0-0.377-0.169-0.377-0.377s0.169-0.377,0.377-0.377h298.17c0.208,0,0.376,0.168,0.377,0.376l0.222,137.264
		c0,0.209-0.167,0.378-0.375,0.378C111.493,139.631,111.493,139.631,111.492,139.631z"/>
	<path style="fill:#CBA470;" d="M109.072,149.131c-0.208,0-0.377-0.169-0.377-0.377V11.549h-6.608c-0.208,0-0.377-0.169-0.377-0.377
		V4.565h-457.514c-0.208,0-0.377-0.169-0.377-0.377c0-0.208,0.169-0.377,0.377-0.377h457.891c0.208,0,0.377,0.169,0.377,0.377v6.608
		h6.608c0.208,0,0.377,0.169,0.377,0.377v137.582C109.449,148.963,109.28,149.131,109.072,149.131z"/>
	<path style="fill:#CBA470;" d="M102.998,115.38c-0.208,0-0.377-0.169-0.377-0.377V46l-0.522-0.151
		c-15.719-4.527-28.138-17.046-32.41-32.67l-0.146-0.532h-215.004c-0.208,0-0.377-0.169-0.377-0.377
		c0-0.208,0.169-0.377,0.377-0.377H69.831c0.17,0,0.319,0.114,0.363,0.277l0.222,0.809c4.204,15.373,16.424,27.69,31.892,32.145
		l0.794,0.229c0.161,0.047,0.272,0.194,0.272,0.362v69.287C103.375,115.212,103.206,115.38,102.998,115.38z"/>
	<path style="fill:#CBA470;" d="M100.765,115.38L100.765,115.38c-0.209,0-0.377-0.169-0.377-0.377l0.035-67.363
		c-15.498-4.852-27.93-17.381-32.544-32.796h-93.256c-0.208,0-0.377-0.169-0.377-0.377c0-0.208,0.169-0.377,0.377-0.377h93.537
		c0.167,0,0.315,0.11,0.362,0.271c4.504,15.388,16.914,27.895,32.388,32.641c0.159,0.049,0.266,0.195,0.266,0.36l-0.035,67.64
		C101.142,115.212,100.973,115.38,100.765,115.38z"/>
</g>
<g>
	<g>
		<g>
			
				<rect x="4.141" y="18.25" style="fill:none;stroke:#CBA470;stroke-linecap:round;stroke-linejoin:round;stroke-miterlimit:10;" width="2.696" height="2.682"/>
		</g>
		<g>
			
				<path style="fill-rule:evenodd;clip-rule:evenodd;fill:none;stroke:#CBA470;stroke-linecap:round;stroke-linejoin:round;stroke-miterlimit:10;" d="
				M6.838,19.591c0,0.741-0.603,1.341-1.348,1.341c-0.744,0-1.348-0.6-1.348-1.341c0-0.741,0.604-1.341,1.348-1.341
				C6.234,18.25,6.838,18.851,6.838,19.591z"/>
		</g>
	</g>
	<g>
		<g>
			
				<rect x="11.723" y="18.25" style="fill:none;stroke:#CBA470;stroke-linecap:round;stroke-linejoin:round;stroke-miterlimit:10;" width="2.696" height="2.682"/>
		</g>
		<g>
			
				<path style="fill-rule:evenodd;clip-rule:evenodd;fill:none;stroke:#CBA470;stroke-linecap:round;stroke-linejoin:round;stroke-miterlimit:10;" d="
				M14.419,19.591c0,0.741-0.604,1.341-1.348,1.341c-0.745,0-1.348-0.6-1.348-1.341c0-0.741,0.603-1.341,1.348-1.341
				C13.815,18.25,14.419,18.851,14.419,19.591z"/>
		</g>
	</g>
	<g>
		<g>
			
				<rect x="19.303" y="18.25" style="fill:none;stroke:#CBA470;stroke-linecap:round;stroke-linejoin:round;stroke-miterlimit:10;" width="2.696" height="2.682"/>
		</g>
		<g>
			
				<path style="fill-rule:evenodd;clip-rule:evenodd;fill:none;stroke:#CBA470;stroke-linecap:round;stroke-linejoin:round;stroke-miterlimit:10;" d="
				M21.999,19.591c0,0.741-0.604,1.341-1.348,1.341c-0.745,0-1.348-0.6-1.348-1.341c0-0.741,0.603-1.341,1.348-1.341
				C21.396,18.25,21.999,18.851,21.999,19.591z"/>
		</g>
	</g>
	<g>
		<g>
			
				<rect x="26.884" y="18.25" style="fill:none;stroke:#CBA470;stroke-linecap:round;stroke-linejoin:round;stroke-miterlimit:10;" width="2.696" height="2.682"/>
		</g>
		<g>
			
				<path style="fill-rule:evenodd;clip-rule:evenodd;fill:none;stroke:#CBA470;stroke-linecap:round;stroke-linejoin:round;stroke-miterlimit:10;" d="
				M29.58,19.591c0,0.741-0.604,1.341-1.348,1.341c-0.745,0-1.348-0.6-1.348-1.341c0-0.741,0.603-1.341,1.348-1.341
				C28.977,18.25,29.58,18.851,29.58,19.591z"/>
		</g>
	</g>
	<g>
		<g>
			
				<rect x="34.465" y="18.25" style="fill:none;stroke:#CBA470;stroke-linecap:round;stroke-linejoin:round;stroke-miterlimit:10;" width="2.696" height="2.682"/>
		</g>
		<g>
			
				<path style="fill-rule:evenodd;clip-rule:evenodd;fill:none;stroke:#CBA470;stroke-linecap:round;stroke-linejoin:round;stroke-miterlimit:10;" d="
				M37.161,19.591c0,0.741-0.604,1.341-1.348,1.341c-0.744,0-1.348-0.6-1.348-1.341c0-0.741,0.604-1.341,1.348-1.341
				C36.557,18.25,37.161,18.851,37.161,19.591z"/>
		</g>
	</g>
	<g>
		<g>
			
				<rect x="42.046" y="18.25" style="fill:none;stroke:#CBA470;stroke-linecap:round;stroke-linejoin:round;stroke-miterlimit:10;" width="2.696" height="2.682"/>
		</g>
		<g>
			
				<path style="fill-rule:evenodd;clip-rule:evenodd;fill:none;stroke:#CBA470;stroke-linecap:round;stroke-linejoin:round;stroke-miterlimit:10;" d="
				M44.742,19.591c0,0.741-0.603,1.341-1.348,1.341c-0.744,0-1.348-0.6-1.348-1.341c0-0.741,0.604-1.341,1.348-1.341
				C44.139,18.25,44.742,18.851,44.742,19.591z"/>
		</g>
	</g>
	<g>
		<g>
			
				<rect x="49.626" y="18.25" style="fill:none;stroke:#CBA470;stroke-linecap:round;stroke-linejoin:round;stroke-miterlimit:10;" width="2.696" height="2.682"/>
		</g>
		<g>
			
				<path style="fill-rule:evenodd;clip-rule:evenodd;fill:none;stroke:#CBA470;stroke-linecap:round;stroke-linejoin:round;stroke-miterlimit:10;" d="
				M52.322,19.591c0,0.741-0.603,1.341-1.348,1.341c-0.744,0-1.348-0.6-1.348-1.341c0-0.741,0.604-1.341,1.348-1.341
				C51.72,18.25,52.322,18.851,52.322,19.591z"/>
		</g>
	</g>
	<g>
		<g>
			
				<rect x="57.208" y="18.25" style="fill:none;stroke:#CBA470;stroke-linecap:round;stroke-linejoin:round;stroke-miterlimit:10;" width="2.696" height="2.682"/>
		</g>
		<g>
			
				<path style="fill-rule:evenodd;clip-rule:evenodd;fill:none;stroke:#CBA470;stroke-linecap:round;stroke-linejoin:round;stroke-miterlimit:10;" d="
				M59.904,19.591c0,0.741-0.604,1.341-1.348,1.341c-0.745,0-1.348-0.6-1.348-1.341c0-0.741,0.603-1.341,1.348-1.341
				C59.3,18.25,59.904,18.851,59.904,19.591z"/>
		</g>
	</g>
</g>
</svg>
