<?xml version="1.0" encoding="iso-8859-1"?>
<!-- Generator: Adobe Illustrator 24.2.3, SVG Export Plug-In . SVG Version: 6.00 Build 0)  -->
<svg version="1.1" id="&#x5716;&#x5C64;_1" xmlns="http://www.w3.org/2000/svg" xmlns:xlink="http://www.w3.org/1999/xlink" x="0px"
	 y="0px" viewBox="0 0 64 64" style="enable-background:new 0 0 64 64;" xml:space="preserve">
<g>
	<path style="fill:#C7A26F;" d="M125.121,131.902c-0.413,0-0.748-0.334-0.75-0.747L123.932,3.113h-910.474
		c-0.414,0-0.75-0.336-0.75-0.75s0.336-0.75,0.75-0.75H124.68c0.413,0,0.749,0.334,0.75,0.747l0.442,128.789
		c0.001,0.414-0.333,0.751-0.748,0.753C125.123,131.902,125.122,131.902,125.121,131.902z"/>
	<path style="fill:#C7A26F;" d="M120.306,150.809c-0.414,0-0.75-0.336-0.75-0.75V21.387h-13.15c-0.414,0-0.75-0.336-0.75-0.75V7.486
		h-556.074c-0.414,0-0.75-0.336-0.75-0.75s0.336-0.75,0.75-0.75h556.824c0.414,0,0.75,0.336,0.75,0.75v13.15h13.15
		c0.414,0,0.75,0.336,0.75,0.75v129.423C121.056,150.474,120.72,150.809,120.306,150.809z"/>
</g>
</svg>
