<?xml version="1.0" encoding="iso-8859-1"?>
<!-- Generator: Adobe Illustrator 24.2.3, SVG Export Plug-In . SVG Version: 6.00 Build 0)  -->
<svg version="1.1" id="&#x5716;&#x5C64;_1" xmlns="http://www.w3.org/2000/svg" xmlns:xlink="http://www.w3.org/1999/xlink" x="0px"
	 y="0px" viewBox="0 0 1506.978 983.358" style="enable-background:new 0 0 1506.978 983.358;" xml:space="preserve">
<g>
	<path style="fill:#C7A26F;" d="M1506.978,996.17l-0.442-1138.465c0-0.414-0.336-0.75-0.75-0.75H912.414H1.192
		c-0.414,0-0.75,0.335-0.75,0.75L0,996.17c0,0,0,0.001,0,0.001c0,0.001,0,0.001,0,0.001l0.442,128.79
		c0.001,0.413,0.337,0.747,0.75,0.747h593.372h911.222c0.413,0,0.749-0.334,0.75-0.747l0.442-128.79c0-0.001,0-0.001,0-0.001
		C1506.977,996.171,1506.978,996.171,1506.978,996.17z M594.564,1124.21H1.94L1.5,996.168L1.942-141.544h910.472h592.622
		l0.441,1137.712l-0.439,128.043H594.564z"/>
	<path style="fill:#C7A26F;" d="M1501.412-124.77h-13.15v-13.15c0-0.414-0.336-0.75-0.75-0.75H576.29H19.466
		c-0.414,0-0.75,0.336-0.75,0.75v13.15H5.566c-0.414,0-0.75,0.336-0.75,0.75V977.264v129.422c0,0.414,0.336,0.75,0.75,0.75h13.15
		v13.15c0,0.414,0.336,0.75,0.75,0.75H576.29h911.222c0.414,0,0.75-0.336,0.75-0.75v-13.15h13.15c0.414,0,0.75-0.336,0.75-0.75
		V977.264V-124.02C1502.162-124.434,1501.826-124.77,1501.412-124.77z M1500.662,1105.936h-13.15c-0.414,0-0.75,0.336-0.75,0.75
		v13.15H576.29H20.216v-13.15c0-0.414-0.336-0.75-0.75-0.75H6.316V977.264V-123.27h13.15c0.414,0,0.75-0.336,0.75-0.75v-13.15
		H576.29h910.472v13.15c0,0.414,0.336,0.75,0.75,0.75h13.15V977.264V1105.936z"/>
	<path style="fill:#C7A26F;" d="M1476.627,1111.915h-210.668c-0.024,0-0.044,0.011-0.068,0.014H811.814l-6.008-6.67H995.49
		c0.01,0,0.019-0.005,0.029-0.006h427.801c0.338,0,0.634-0.226,0.724-0.552l0.441-1.61c8.365-30.593,32.684-55.104,63.466-63.971
		l1.582-0.455c0.321-0.093,0.542-0.387,0.542-0.721V900.058V-55.277c0-0.334-0.221-0.628-0.542-0.721l-1.582-0.456
		c-30.782-8.866-55.101-33.378-63.466-63.971l-0.441-1.61c-0.089-0.326-0.385-0.552-0.723-0.552H994.88H805.196l6.009-6.67h454.713
		c0.014,0.001,0.026,0.008,0.041,0.008h210.668c0.414,0,0.75-0.336,0.75-0.75v-2.187c0-0.414-0.336-0.75-0.75-0.75h-210.668
		l-455.435-0.008c-0.308-0.25-0.759-0.224-1.028,0.074l-0.127,0.141c-0.002,0.002-0.005,0.003-0.007,0.005
		c-0.003,0.003-0.005,0.008-0.008,0.012l-9.121,10.126h-94.396l-9.262-10.283c-0.268-0.298-0.72-0.324-1.027-0.074l-454.528,0.008
		H30.351c-0.414,0-0.75,0.336-0.75,0.75v2.187c0,0.414,0.336,0.75,0.75,0.75H241.02l453.845-0.008l6.008,6.67H512.098H83.659
		c-0.338,0-0.634,0.226-0.723,0.552l-0.442,1.611c-8.365,30.592-32.684,55.104-63.465,63.97l-1.582,0.456
		c-0.321,0.092-0.542,0.386-0.542,0.721v955.335v137.886c0,0.334,0.221,0.628,0.542,0.721l1.582,0.455
		c30.782,8.866,55.101,33.378,63.466,63.971l0.441,1.61c0.089,0.326,0.385,0.552,0.723,0.552h428.439c0.107,0,0.208-0.024,0.3-0.065
		c0.095,0.043,0.198,0.071,0.309,0.071h188.775l-6.008,6.67l-453.846-0.009c-0.107,0-0.208,0.024-0.301,0.065
		c-0.094-0.043-0.198-0.07-0.308-0.07H30.351c-0.414,0-0.75,0.336-0.75,0.75v2.187c0,0.414,0.336,0.75,0.75,0.75H241.02
		c0.107,0,0.208-0.024,0.3-0.065c0.095,0.043,0.198,0.071,0.309,0.071l454.53,0.009c0.308,0.25,0.758,0.223,1.026-0.075l0.129-0.143
		c0,0,0.001-0.001,0.002-0.001c0.001-0.001,0.001-0.002,0.002-0.003l9.129-10.135h94.398l9.118,10.122
		c0.004,0.005,0.006,0.011,0.01,0.016c0.003,0.003,0.006,0.004,0.009,0.006l0.125,0.138c0.148,0.164,0.352,0.248,0.557,0.248
		c0.167,0,0.332-0.061,0.469-0.173l455.436-0.009c0.01,0,0.019-0.005,0.029-0.006h210.03c0.414,0,0.75-0.336,0.75-0.75v-2.187
		C1477.377,1112.25,1477.041,1111.915,1476.627,1111.915z M994.88-121.086h427.867l0.29,1.058
		c8.503,31.094,33.217,56.006,64.498,65.016l1.039,0.299v954.771v137.321l-1.039,0.299c-31.281,9.01-55.995,33.923-64.498,65.016
		l-0.29,1.059H994.88c-0.01,0-0.019,0.005-0.029,0.006H804.455l-2.581-2.866l432.59-0.008c0.01,0,0.019-0.005,0.029-0.006h185.504
		c0.333,0,0.626-0.22,0.72-0.539c8.964-30.623,33.662-55.513,64.454-64.957c0.315-0.097,0.53-0.388,0.53-0.717l-0.07-134.608
		l0.07-952.057c0-0.33-0.215-0.621-0.53-0.717c-30.792-9.444-55.49-34.334-64.454-64.958c-0.093-0.319-0.387-0.539-0.72-0.539
		h-186.142l-432.59-0.008l2.581-2.866H994.88z M754.2,1051.236c-0.284-0.316-0.83-0.316-1.114,0l-43.375,48.157h-0.926
		l44.858-49.801l44.861,49.801h-0.925L754.2,1051.236z M795.56,1099.393l-16.833,0l-24.532-26.763c-0.284-0.311-0.821-0.311-1.105,0
		l-24.532,26.763l-16.829,0l41.914-46.534L795.56,1099.393z M708.359,1100.893l-2.581,2.866h-0.926l2.581-2.866H708.359z
		 M273.733,1099.384c-0.107,0-0.208,0.024-0.3,0.065c-0.095-0.043-0.198-0.071-0.309-0.071H87.542
		c-9.182-30.677-33.922-55.609-64.763-65.266l0.069-134.054c0,0,0,0,0,0s0,0,0,0l-0.07-951.505
		c30.841-9.656,55.582-34.588,64.764-65.266h185.583l433.032-0.008l46.32,51.424c0.142,0.158,0.345,0.248,0.557,0.248
		s0.415-0.09,0.557-0.248l46.322-51.424l433.941,0.008h185.582c9.182,30.677,33.923,55.61,64.764,65.266l-0.07,951.505c0,0,0,0,0,0
		s0,0,0,0l0.069,134.054c-30.841,9.656-55.581,34.589-64.764,65.266h-185.582c-0.01,0-0.019,0.005-0.029,0.006l-433.303,0.008
		l-46.322-51.424c-0.284-0.316-0.83-0.316-1.114,0l-46.32,51.424L273.733,1099.384z M709.101-116.721l43.375,48.156
		c0.142,0.158,0.345,0.248,0.557,0.248s0.415-0.09,0.557-0.248l43.378-48.156h0.925l-44.861,49.801l-44.858-49.801H709.101z
		 M706.824-118.221l-2.581-2.866h0.926l2.581,2.866H706.824z M711.12-116.721l16.829,0l24.532,26.763
		c0.142,0.155,0.343,0.243,0.553,0.243c0.21,0,0.411-0.088,0.553-0.243l24.532-26.763l16.832,0l-41.917,46.534L711.12-116.721z
		 M798.32-118.221l2.581-2.866h0.925l-2.581,2.866H798.32z M799.854,1100.893l2.581,2.866h-0.925l-2.581-2.866H799.854z
		 M1475.877-130.748h-196.709c-0.014-0.001-0.026-0.008-0.041-0.008H812.401c0.013-0.062,0.03-0.122,0.027-0.186
		c-0.01-0.191-0.096-0.369-0.234-0.501l453.764,0.008h209.918V-130.748z M809.143-130.236v0.229c0,0.213,0.091,0.403,0.233,0.539
		l-6.198,6.881h-0.925L809.143-130.236z M798.882-121.086l-2.581,2.866l-18.513,0c-0.21,0-0.411,0.088-0.553,0.243l-24.202,26.403
		l-24.202-26.403c-0.142-0.155-0.343-0.243-0.553-0.243l-18.51,0l-2.581-2.866H798.882z M31.101-131.436H241.02l452.856-0.008
		c-0.138,0.132-0.224,0.31-0.234,0.5c-0.003,0.064,0.014,0.125,0.027,0.187l-452.649,0.008H31.101V-131.436z M696.693-129.468
		c0.142-0.136,0.232-0.326,0.232-0.539v-0.232l6.893,7.653h-0.926L696.693-129.468z M512.707,1103.758
		c-0.107,0-0.208,0.024-0.3,0.065c-0.095-0.043-0.198-0.071-0.309-0.071H84.231l-0.29-1.059
		c-8.502-31.093-33.216-56.006-64.498-65.016l-1.039-0.299V900.058V-54.713l1.039-0.299c31.281-9.01,55.995-33.922,64.497-65.016
		l0.291-1.059h427.867h190.127l2.581,2.866l-431.681,0.008H86.981c-0.333,0-0.626,0.22-0.72,0.539
		c-8.963,30.623-33.661,55.513-64.454,64.958c-0.315,0.096-0.53,0.387-0.53,0.717l0.07,952.057l-0.07,134.608
		c0,0.329,0.215,0.62,0.53,0.717c30.793,9.444,55.49,34.334,64.454,64.957c0.093,0.319,0.387,0.539,0.72,0.539h186.143
		c0.107,0,0.208-0.024,0.3-0.065c0.095,0.043,0.198,0.071,0.309,0.071l431.681,0.008l-2.581,2.866H512.707z M31.101,1113.415H241.02
		c0.107,0,0.208-0.024,0.301-0.065c0.094,0.043,0.198,0.07,0.308,0.07l452.649,0.009c-0.013,0.062-0.03,0.123-0.027,0.187
		c0.01,0.192,0.096,0.369,0.234,0.501l-452.856-0.009c-0.107,0-0.208,0.024-0.3,0.065c-0.095-0.043-0.198-0.071-0.309-0.071H31.101
		V1113.415z M697.535,1112.91v-0.232c0-0.212-0.09-0.402-0.232-0.538l6.198-6.881h0.926L697.535,1112.91z M707.797,1103.758
		l2.581-2.866l18.51,0c0.21,0,0.411-0.088,0.553-0.243l24.202-26.402l24.202,26.402c0.142,0.155,0.342,0.243,0.553,0.243l18.514,0
		l2.581,2.866H707.797z M803.787,1105.258l6.198,6.881c-0.142,0.136-0.233,0.326-0.233,0.539v0.229l-6.89-7.649H803.787z
		 M1475.877,1114.101h-209.918c-0.01,0-0.019,0.005-0.029,0.006l-453.126,0.009c0.138-0.132,0.224-0.309,0.234-0.501
		c0.003-0.064-0.014-0.125-0.027-0.187h466.726c0.024,0,0.044-0.011,0.068-0.014h196.073V1114.101z"/>
</g>
</svg>
