<?xml version="1.0" encoding="iso-8859-1"?>
<!-- Generator: Adobe Illustrator 24.2.3, SVG Export Plug-In . SVG Version: 6.00 Build 0)  -->
<svg version="1.1" id="&#x5716;&#x5C64;_1" xmlns="http://www.w3.org/2000/svg" xmlns:xlink="http://www.w3.org/1999/xlink" x="0px"
	 y="0px" viewBox="0 0 1506.978 141.027" style="enable-background:new 0 0 1506.978 141.027;" xml:space="preserve">
<g>
	<path style="fill:#C7A26F;" d="M1506.978-4.512l-0.442-1138.465c0-0.414-0.336-0.75-0.75-0.75H912.414H1.192
		c-0.414,0-0.75,0.335-0.75,0.75L0-4.512c0,0,0,0.001,0,0.001C0-4.51,0-4.51,0-4.509l0.442,128.79
		c0.001,0.413,0.337,0.747,0.75,0.747h593.372h911.222c0.413,0,0.749-0.334,0.75-0.747l0.442-128.79c0-0.001,0-0.001,0-0.001
		C1506.977-4.511,1506.978-4.512,1506.978-4.512z M594.564,123.528H1.94L1.5-4.515l0.442-1137.712h910.472h592.622l0.441,1137.712
		l-0.439,128.043H594.564z"/>
	<path style="fill:#C7A26F;" d="M1501.412-1125.453h-13.15v-13.15c0-0.414-0.336-0.75-0.75-0.75H576.29H19.466
		c-0.414,0-0.75,0.336-0.75,0.75v13.15H5.566c-0.414,0-0.75,0.336-0.75,0.75V-23.418v129.422c0,0.414,0.336,0.75,0.75,0.75h13.15
		v13.15c0,0.414,0.336,0.75,0.75,0.75H576.29h911.222c0.414,0,0.75-0.336,0.75-0.75v-13.15h13.15c0.414,0,0.75-0.336,0.75-0.75
		V-23.418v-1101.284C1502.162-1125.117,1501.826-1125.453,1501.412-1125.453z M1500.662,105.254h-13.15
		c-0.414,0-0.75,0.336-0.75,0.75v13.15H576.29H20.216v-13.15c0-0.414-0.336-0.75-0.75-0.75H6.316V-23.418v-1100.534h13.15
		c0.414,0,0.75-0.336,0.75-0.75v-13.15H576.29h910.472v13.15c0,0.414,0.336,0.75,0.75,0.75h13.15V-23.418V105.254z"/>
	<path style="fill:#C7A26F;" d="M1476.627,111.232h-210.668c-0.024,0-0.044,0.011-0.068,0.014H811.814l-6.008-6.67H995.49
		c0.01,0,0.019-0.005,0.029-0.006h427.801c0.338,0,0.634-0.226,0.724-0.552l0.441-1.61c8.365-30.593,32.684-55.104,63.466-63.971
		l1.582-0.455c0.321-0.093,0.542-0.387,0.542-0.721v-137.886v-955.335c0-0.334-0.221-0.628-0.542-0.721l-1.582-0.456
		c-30.782-8.866-55.101-33.378-63.466-63.971l-0.441-1.61c-0.089-0.326-0.385-0.552-0.723-0.552H994.88H805.196l6.009-6.67h454.713
		c0.014,0.001,0.026,0.008,0.041,0.008h210.668c0.414,0,0.75-0.336,0.75-0.75v-2.187c0-0.414-0.336-0.75-0.75-0.75h-210.668
		l-455.435-0.008c-0.308-0.25-0.759-0.224-1.028,0.074l-0.127,0.141c-0.002,0.002-0.005,0.003-0.007,0.005
		c-0.003,0.003-0.005,0.008-0.008,0.012l-9.121,10.126h-94.396l-9.262-10.283c-0.268-0.298-0.72-0.324-1.027-0.074l-454.528,0.008
		H30.351c-0.414,0-0.75,0.336-0.75,0.75v2.187c0,0.414,0.336,0.75,0.75,0.75H241.02l453.845-0.008l6.008,6.67H512.098H83.659
		c-0.338,0-0.634,0.226-0.723,0.552l-0.442,1.611c-8.365,30.592-32.684,55.104-63.465,63.97l-1.582,0.456
		c-0.321,0.092-0.542,0.386-0.542,0.721v955.335V37.261c0,0.334,0.221,0.628,0.542,0.721l1.582,0.455
		c30.782,8.866,55.101,33.378,63.466,63.971l0.441,1.61c0.089,0.326,0.385,0.552,0.723,0.552h428.439c0.107,0,0.208-0.024,0.3-0.065
		c0.095,0.043,0.198,0.071,0.309,0.071h188.775l-6.008,6.67l-453.846-0.009c-0.107,0-0.208,0.024-0.301,0.065
		c-0.094-0.043-0.198-0.07-0.308-0.07H30.351c-0.414,0-0.75,0.336-0.75,0.75v2.187c0,0.414,0.336,0.75,0.75,0.75H241.02
		c0.107,0,0.208-0.024,0.3-0.065c0.095,0.043,0.198,0.071,0.309,0.071l454.53,0.009c0.308,0.25,0.758,0.223,1.026-0.075l0.129-0.143
		c0,0,0.001-0.001,0.002-0.001c0.001-0.001,0.001-0.002,0.002-0.003l9.129-10.135h94.398l9.118,10.122
		c0.004,0.005,0.006,0.011,0.01,0.016c0.003,0.003,0.006,0.003,0.009,0.006l0.125,0.138c0.148,0.164,0.352,0.248,0.557,0.248
		c0.167,0,0.332-0.061,0.469-0.173l455.436-0.009c0.01,0,0.019-0.005,0.029-0.006h210.03c0.414,0,0.75-0.336,0.75-0.75v-2.187
		C1477.377,111.568,1477.041,111.232,1476.627,111.232z M994.88-1121.769h427.867l0.29,1.058
		c8.503,31.094,33.217,56.006,64.498,65.016l1.039,0.299v954.771V36.697l-1.039,0.299c-31.281,9.01-55.995,33.923-64.498,65.016
		l-0.29,1.059H994.88c-0.01,0-0.019,0.005-0.029,0.006H804.455l-2.581-2.866l432.59-0.008c0.01,0,0.019-0.005,0.029-0.006h185.504
		c0.333,0,0.626-0.22,0.72-0.539c8.964-30.623,33.662-55.513,64.454-64.957c0.315-0.097,0.53-0.388,0.53-0.717l-0.07-134.608
		l0.07-952.057c0-0.33-0.215-0.621-0.53-0.717c-30.792-9.444-55.49-34.334-64.454-64.958c-0.093-0.319-0.387-0.539-0.72-0.539
		h-186.142l-432.59-0.008l2.581-2.866H994.88z M754.2,50.553c-0.284-0.316-0.83-0.316-1.114,0L709.71,98.71h-0.926l44.858-49.801
		l44.861,49.801h-0.925L754.2,50.553z M795.56,98.71l-16.833,0l-24.532-26.763c-0.284-0.311-0.821-0.311-1.105,0l-24.532,26.763
		l-16.829,0l41.914-46.534L795.56,98.71z M708.359,100.21l-2.581,2.866h-0.926l2.581-2.866L708.359,100.21z M273.733,98.702
		c-0.107,0-0.208,0.024-0.3,0.065c-0.095-0.043-0.198-0.071-0.309-0.071H87.542C78.359,68.019,53.619,43.087,22.778,33.43
		l0.069-134.054c0,0,0,0,0,0s0,0,0,0l-0.07-951.505c30.841-9.656,55.582-34.588,64.764-65.266h185.583l433.032-0.008l46.32,51.424
		c0.142,0.158,0.345,0.248,0.557,0.248s0.415-0.09,0.557-0.248l46.322-51.424l433.941,0.008h185.582
		c9.182,30.677,33.923,55.61,64.764,65.266l-0.07,951.505c0,0,0,0,0,0s0,0,0,0L1484.2,33.43
		c-30.841,9.656-55.581,34.589-64.764,65.266h-185.582c-0.01,0-0.019,0.005-0.029,0.006L800.522,98.71L754.2,47.286
		c-0.284-0.316-0.83-0.316-1.114,0l-46.32,51.424L273.733,98.702z M709.101-1117.403l43.375,48.156
		c0.142,0.158,0.345,0.248,0.557,0.248s0.415-0.09,0.557-0.248l43.378-48.156h0.925l-44.861,49.801l-44.858-49.801H709.101z
		 M706.824-1118.903l-2.581-2.866h0.926l2.581,2.866H706.824z M711.12-1117.403l16.829,0l24.532,26.763
		c0.142,0.155,0.343,0.243,0.553,0.243c0.21,0,0.411-0.088,0.553-0.243l24.532-26.763l16.832,0l-41.917,46.534L711.12-1117.403z
		 M798.32-1118.903l2.581-2.866h0.925l-2.581,2.866H798.32z M799.854,100.21l2.581,2.866h-0.925l-2.581-2.866L799.854,100.21z
		 M1475.877-1131.431h-196.709c-0.014-0.001-0.026-0.008-0.041-0.008H812.401c0.013-0.062,0.03-0.122,0.027-0.186
		c-0.01-0.191-0.096-0.369-0.234-0.501l453.764,0.008h209.918V-1131.431z M809.143-1130.918v0.229c0,0.213,0.091,0.403,0.233,0.539
		l-6.198,6.881h-0.925L809.143-1130.918z M798.882-1121.769l-2.581,2.866l-18.513,0c-0.21,0-0.411,0.088-0.553,0.243l-24.202,26.403
		l-24.202-26.403c-0.142-0.155-0.343-0.243-0.553-0.243l-18.51,0l-2.581-2.866H798.882z M31.101-1132.118H241.02l452.856-0.008
		c-0.138,0.132-0.224,0.31-0.234,0.5c-0.003,0.064,0.014,0.125,0.027,0.187l-452.649,0.008H31.101V-1132.118z M696.693-1130.151
		c0.142-0.136,0.232-0.326,0.232-0.539v-0.232l6.893,7.653h-0.926L696.693-1130.151z M512.707,103.076
		c-0.107,0-0.208,0.024-0.3,0.065c-0.095-0.043-0.198-0.071-0.309-0.071H84.231l-0.29-1.059
		c-8.502-31.093-33.216-56.006-64.498-65.016l-1.039-0.299v-137.321v-954.771l1.039-0.299c31.281-9.01,55.995-33.922,64.497-65.016
		l0.291-1.059h427.867h190.127l2.581,2.866l-431.681,0.008H86.981c-0.333,0-0.626,0.22-0.72,0.539
		c-8.963,30.623-33.661,55.513-64.454,64.958c-0.315,0.096-0.53,0.387-0.53,0.717l0.07,952.057l-0.07,134.608
		c0,0.329,0.215,0.62,0.53,0.717c30.793,9.444,55.49,34.334,64.454,64.957c0.093,0.319,0.387,0.539,0.72,0.539h186.143
		c0.107,0,0.208-0.024,0.3-0.065c0.095,0.043,0.198,0.071,0.309,0.071l431.681,0.008l-2.581,2.866H512.707z M31.101,112.732H241.02
		c0.107,0,0.208-0.024,0.301-0.065c0.094,0.043,0.198,0.07,0.308,0.07l452.649,0.009c-0.013,0.062-0.03,0.123-0.027,0.187
		c0.01,0.192,0.096,0.369,0.234,0.501l-452.856-0.009c-0.107,0-0.208,0.024-0.3,0.065c-0.095-0.043-0.198-0.071-0.309-0.071H31.101
		V112.732z M697.535,112.228v-0.232c0-0.212-0.09-0.402-0.232-0.538l6.198-6.881h0.926L697.535,112.228z M707.797,103.076
		l2.581-2.866l18.51,0c0.21,0,0.411-0.088,0.553-0.243l24.202-26.402l24.202,26.402c0.142,0.155,0.342,0.243,0.553,0.243l18.514,0
		l2.581,2.866H707.797z M803.787,104.576l6.198,6.881c-0.142,0.137-0.233,0.326-0.233,0.539v0.229l-6.89-7.649H803.787z
		 M1475.877,113.419h-209.918c-0.01,0-0.019,0.005-0.029,0.006l-453.126,0.009c0.138-0.132,0.224-0.309,0.234-0.501
		c0.003-0.064-0.014-0.125-0.027-0.187h466.726c0.024,0,0.044-0.011,0.068-0.014h196.073V113.419z"/>
	<path style="fill:#C7A26F;" d="M1491.708,63.553c-0.171-0.111-0.379-0.151-0.579-0.103l-5.388,1.238
		c-0.199,0.045-0.371,0.17-0.476,0.346c-0.105,0.175-0.134,0.386-0.08,0.582l8.016,29.367c0.091,0.333,0.392,0.553,0.723,0.553
		c0.056,0,0.112-0.006,0.169-0.02l2.995-0.69c0.392-0.09,0.643-0.474,0.569-0.869l-5.624-29.915
		C1491.997,63.842,1491.879,63.666,1491.708,63.553z M1494.459,93.894l-7.621-27.919l3.866-0.888l5.346,28.439L1494.459,93.894z"/>
	<path style="fill:#C7A26F;" d="M1476.474,69.055c-0.099-0.179-0.266-0.31-0.463-0.362c-0.196-0.053-0.407-0.022-0.582,0.083
		l-4.729,2.864c-0.174,0.105-0.298,0.278-0.343,0.478c-0.044,0.199-0.006,0.408,0.106,0.578l16.81,25.378
		c0.144,0.218,0.382,0.336,0.626,0.336c0.133,0,0.267-0.035,0.388-0.108l2.628-1.593c0.344-0.209,0.462-0.651,0.268-1.004
		L1476.474,69.055z M1488.126,96.645l-15.981-24.126l3.393-2.056l13.984,25.335L1488.126,96.645z"/>
	<path style="fill:#C7A26F;" d="M1464.197,77.727c-0.142-0.146-0.312-0.264-0.542-0.228c-0.204,0.001-0.399,0.086-0.54,0.233
		l-3.806,4.011c-0.141,0.148-0.215,0.348-0.205,0.552c0.009,0.203,0.102,0.395,0.255,0.529l22.909,20.046
		c0.142,0.124,0.318,0.186,0.494,0.186c0.199,0,0.397-0.079,0.544-0.234l2.117-2.232c0.277-0.291,0.274-0.75-0.006-1.038
		L1464.197,77.727z M1482.715,101.267l-21.779-19.057l2.731-2.878l20.174,20.748L1482.715,101.267z"/>
	<path style="fill:#C7A26F;" d="M1480.846,105.072l-26.083-15.693c-0.175-0.106-0.385-0.136-0.583-0.081
		c-0.197,0.053-0.364,0.185-0.462,0.363l-2.656,4.848c-0.098,0.179-0.119,0.391-0.058,0.585c0.061,0.195,0.199,0.356,0.382,0.447
		l27.264,13.541c0.107,0.053,0.221,0.078,0.333,0.078c0.266,0,0.522-0.142,0.658-0.39l1.476-2.695
		C1481.311,105.721,1481.191,105.279,1480.846,105.072z M1478.672,107.418l-25.919-12.873l1.906-3.479l24.797,14.92
		L1478.672,107.418z"/>
	<path style="fill:#C7A26F;" d="M21.712,65.035c-0.105-0.176-0.276-0.301-0.476-0.346l-5.388-1.238
		c-0.199-0.049-0.408-0.009-0.579,0.103c-0.171,0.112-0.289,0.289-0.327,0.489L9.319,93.958c-0.074,0.396,0.177,0.779,0.569,0.869
		l2.996,0.69c0.057,0.014,0.113,0.02,0.169,0.02c0.331,0,0.632-0.22,0.723-0.553l8.016-29.367
		C21.846,65.421,21.817,65.21,21.712,65.035z M12.519,93.894l-1.592-0.367l5.347-28.439l3.866,0.888L12.519,93.894z"/>
	<path style="fill:#C7A26F;" d="M36.621,72.118c-0.045-0.199-0.169-0.372-0.343-0.478l-4.729-2.864
		c-0.175-0.105-0.387-0.136-0.582-0.083c-0.197,0.053-0.365,0.184-0.463,0.362L15.794,95.705c-0.194,0.353-0.076,0.795,0.268,1.004
		l2.628,1.593c0.121,0.073,0.255,0.108,0.388,0.108c0.244,0,0.482-0.118,0.626-0.336l16.81-25.378
		C36.627,72.526,36.666,72.317,36.621,72.118z M18.852,96.645l-1.396-0.847L31.44,70.464l3.393,2.056L18.852,96.645z"/>
	<path style="fill:#C7A26F;" d="M47.873,82.296c0.01-0.204-0.064-0.403-0.205-0.552l-3.806-4.011
		c-0.141-0.147-0.335-0.232-0.54-0.233c-0.187-0.033-0.4,0.081-0.542,0.228L21.56,99.551c-0.281,0.288-0.284,0.747-0.006,1.038
		l2.117,2.232c0.147,0.155,0.346,0.234,0.544,0.234c0.176,0,0.352-0.062,0.494-0.186l22.909-20.046
		C47.771,82.69,47.864,82.499,47.873,82.296z M24.263,101.267l-1.125-1.187l20.174-20.748l2.731,2.878L24.263,101.267z"/>
	<path style="fill:#C7A26F;" d="M55.973,95.093c0.062-0.194,0.041-0.406-0.058-0.585l-2.656-4.848
		c-0.098-0.179-0.265-0.311-0.462-0.363c-0.198-0.055-0.408-0.025-0.583,0.081l-26.083,15.693c-0.345,0.207-0.464,0.649-0.271,1.003
		l1.476,2.695c0.136,0.248,0.393,0.39,0.658,0.39c0.112,0,0.226-0.025,0.333-0.078l27.264-13.541
		C55.774,95.45,55.912,95.289,55.973,95.093z M28.306,107.418l-0.784-1.432l24.797-14.92l1.906,3.479L28.306,107.418z"/>
	<path style="fill:#C7A26F;" d="M734.261,16.281c-0.083-0.188-0.237-0.332-0.429-0.402c-0.192-0.07-0.405-0.06-0.587,0.03
		l-4.967,2.429c-0.183,0.09-0.322,0.25-0.385,0.444c-0.062,0.195-0.042,0.406,0.055,0.586l14.47,26.782
		c0.135,0.25,0.393,0.394,0.66,0.394c0.111,0,0.223-0.024,0.329-0.076l2.761-1.352c0.361-0.177,0.519-0.607,0.357-0.976
		L734.261,16.281z M743.395,44.803l-13.756-25.461l3.563-1.743l11.66,26.485L743.395,44.803z"/>
	<path style="fill:#C7A26F;" d="M749.874,11.992c-0.16-0.127-0.365-0.185-0.567-0.155l-5.477,0.752
		c-0.202,0.028-0.384,0.137-0.504,0.302s-0.168,0.372-0.132,0.573l5.353,29.966c0.064,0.362,0.379,0.618,0.737,0.618
		c0.034,0,0.068-0.002,0.103-0.007l3.044-0.418c0.398-0.055,0.683-0.414,0.645-0.815l-2.92-30.3
		C750.136,12.304,750.034,12.118,749.874,11.992z M749.896,42.457l-5.089-28.488l3.93-0.539l2.776,28.805L749.896,42.457z"/>
	<path style="fill:#C7A26F;" d="M765.023,12.812c-0.121-0.165-0.304-0.272-0.506-0.299l-5.483-0.719
		c-0.205-0.028-0.407,0.03-0.566,0.157c-0.159,0.128-0.26,0.315-0.278,0.519l-2.742,30.317c-0.036,0.4,0.25,0.759,0.65,0.812
		l3.05,0.398c0.033,0.005,0.065,0.007,0.098,0.007c0.359,0,0.675-0.259,0.738-0.622l5.175-29.998
		C765.193,13.183,765.145,12.976,765.023,12.812z M758.627,42.418l-1.622-0.213l2.607-28.822l3.935,0.517L758.627,42.418z"/>
	<path style="fill:#C7A26F;" d="M706.941,88.617l31.595-36.692c0.13-0.15,0.194-0.347,0.18-0.545
		c-0.015-0.199-0.108-0.383-0.259-0.513l-0.847-0.729c-0.314-0.271-0.787-0.234-1.058,0.079l-31.595,36.691
		c-0.27,0.313-0.235,0.787,0.079,1.058l0.847,0.729c0.136,0.117,0.31,0.182,0.489,0.182c0.019,0,0.037-0.001,0.056-0.002
		C706.627,88.861,706.811,88.767,706.941,88.617z"/>
	<path style="fill:#C7A26F;" d="M770.735,50.217c-0.27-0.313-0.743-0.35-1.058-0.079l-0.847,0.729
		c-0.151,0.13-0.244,0.313-0.259,0.513c-0.015,0.198,0.05,0.395,0.18,0.545l31.594,36.692c0.13,0.15,0.314,0.244,0.513,0.259
		c0.019,0.001,0.037,0.002,0.056,0.002c0.179,0,0.353-0.064,0.489-0.182l0.847-0.729c0.314-0.271,0.349-0.744,0.079-1.058
		L770.735,50.217z"/>
	<path style="fill:#C7A26F;" d="M740.149,42.928c-0.015-0.198-0.108-0.383-0.259-0.513l-0.423-0.364
		c-0.314-0.271-0.788-0.235-1.057,0.079l-38.763,44.961c-0.13,0.15-0.195,0.347-0.18,0.545c0.015,0.199,0.108,0.384,0.259,0.513
		l0.424,0.364c0.142,0.122,0.315,0.182,0.488,0.182c0.211,0,0.42-0.088,0.568-0.261l38.763-44.961
		C740.099,43.323,740.164,43.127,740.149,42.928z"/>
	<path style="fill:#C7A26F;" d="M806.08,88.434c0.148,0.173,0.357,0.261,0.568,0.261c0.173,0,0.347-0.06,0.489-0.182l0.423-0.364
		c0.151-0.13,0.244-0.314,0.259-0.513c0.015-0.198-0.05-0.395-0.18-0.545l-38.763-44.961c-0.092-0.108-0.211-0.17-0.337-0.211
		l10.82-23.677c0.085-0.186,0.09-0.397,0.015-0.588c-0.075-0.189-0.224-0.341-0.413-0.418l-5.117-2.095
		c-0.189-0.076-0.401-0.074-0.588,0.009s-0.332,0.238-0.401,0.43l-10.38,28.616c-0.137,0.378,0.049,0.798,0.421,0.95l2.845,1.164
		c0.093,0.038,0.189,0.056,0.284,0.056c0.286,0,0.557-0.163,0.683-0.438l0.945-2.067L806.08,88.434z M765.643,44.65l-1.511-0.618
		L774,16.827l3.671,1.503L765.643,44.65z"/>
	<path style="fill:#C7A26F;" d="M555.185,90.777h-2.696c-0.414,0-0.75,0.336-0.75,0.75v2.683c0,0.414,0.336,0.75,0.75,0.75h2.696
		c0.414,0,0.75-0.336,0.75-0.75v-2.683C555.935,91.113,555.599,90.777,555.185,90.777z M553.837,93.46
		c-0.33,0-0.598-0.266-0.598-0.592s0.269-0.591,0.598-0.591s0.598,0.265,0.598,0.591S554.167,93.46,553.837,93.46z"/>
	<path style="fill:#C7A26F;" d="M563.516,92.863v-1.336c0-0.414-0.336-0.75-0.75-0.75h-2.696c-0.414,0-0.75,0.336-0.75,0.75v2.683
		c0,0.414,0.336,0.75,0.75,0.75h2.696c0.414,0,0.75-0.336,0.75-0.75v-1.337c0-0.002,0-0.003,0-0.005S563.516,92.865,563.516,92.863z
		 M561.418,93.46c-0.33,0-0.598-0.266-0.598-0.592s0.269-0.591,0.598-0.591c0.329,0,0.596,0.263,0.598,0.588v0.005
		C562.014,93.195,561.747,93.46,561.418,93.46z"/>
	<path style="fill:#C7A26F;" d="M570.347,90.777h-2.696c-0.414,0-0.75,0.336-0.75,0.75v2.683c0,0.414,0.336,0.75,0.75,0.75h2.696
		c0.414,0,0.75-0.336,0.75-0.75v-2.683C571.097,91.113,570.761,90.777,570.347,90.777z M568.999,93.46
		c-0.33,0-0.598-0.266-0.598-0.592s0.269-0.591,0.598-0.591s0.598,0.265,0.598,0.591S569.329,93.46,568.999,93.46z"/>
	<path style="fill:#C7A26F;" d="M578.678,92.863v-1.336c0-0.414-0.336-0.75-0.75-0.75h-2.696c-0.414,0-0.75,0.336-0.75,0.75v2.683
		c0,0.414,0.336,0.75,0.75,0.75h2.696c0.414,0,0.75-0.336,0.75-0.75v-1.337c0-0.002,0-0.003,0-0.005S578.678,92.865,578.678,92.863z
		 M576.58,93.46c-0.33,0-0.598-0.266-0.598-0.592s0.269-0.591,0.598-0.591c0.329,0,0.596,0.263,0.598,0.588v0.005
		C577.176,93.195,576.909,93.46,576.58,93.46z"/>
	<path style="fill:#C7A26F;" d="M585.509,90.777h-2.696c-0.414,0-0.75,0.336-0.75,0.75v2.683c0,0.414,0.336,0.75,0.75,0.75h2.696
		c0.414,0,0.75-0.336,0.75-0.75v-2.683C586.259,91.113,585.923,90.777,585.509,90.777z M583.562,92.868
		c0-0.326,0.269-0.591,0.598-0.591s0.598,0.265,0.598,0.591s-0.268,0.592-0.598,0.592S583.562,93.194,583.562,92.868z"/>
	<path style="fill:#C7A26F;" d="M593.089,90.777h-2.696c-0.414,0-0.75,0.336-0.75,0.75v2.683c0,0.414,0.336,0.75,0.75,0.75h2.696
		c0.414,0,0.75-0.336,0.75-0.75v-2.683C593.839,91.113,593.503,90.777,593.089,90.777z M591.741,93.46
		c-0.33,0-0.598-0.266-0.598-0.592s0.269-0.591,0.598-0.591s0.598,0.265,0.598,0.591S592.071,93.46,591.741,93.46z"/>
	<path style="fill:#C7A26F;" d="M600.67,90.777h-2.696c-0.414,0-0.75,0.336-0.75,0.75v2.683c0,0.414,0.336,0.75,0.75,0.75h2.696
		c0.414,0,0.75-0.336,0.75-0.75v-2.683C601.42,91.113,601.084,90.777,600.67,90.777z M599.322,93.46
		c-0.33,0-0.598-0.266-0.598-0.592s0.268-0.591,0.598-0.591s0.598,0.265,0.598,0.591S599.651,93.46,599.322,93.46z"/>
	<path style="fill:#C7A26F;" d="M608.251,90.777h-2.696c-0.414,0-0.75,0.336-0.75,0.75v2.683c0,0.414,0.336,0.75,0.75,0.75h2.696
		c0.414,0,0.75-0.336,0.75-0.75v-2.683C609.001,91.113,608.665,90.777,608.251,90.777z M606.903,93.46
		c-0.33,0-0.598-0.266-0.598-0.592s0.269-0.591,0.598-0.591s0.598,0.265,0.598,0.591S607.232,93.46,606.903,93.46z"/>
	<path style="fill:#C7A26F;" d="M615.832,90.777h-2.696c-0.414,0-0.75,0.336-0.75,0.75v2.683c0,0.414,0.336,0.75,0.75,0.75h2.696
		c0.414,0,0.75-0.336,0.75-0.75v-2.683C616.582,91.113,616.246,90.777,615.832,90.777z M614.484,93.46
		c-0.33,0-0.598-0.266-0.598-0.592s0.268-0.591,0.598-0.591s0.598,0.265,0.598,0.591S614.813,93.46,614.484,93.46z"/>
	<path style="fill:#C7A26F;" d="M623.413,90.777h-2.696c-0.414,0-0.75,0.336-0.75,0.75v2.683c0,0.414,0.336,0.75,0.75,0.75h2.696
		c0.414,0,0.75-0.336,0.75-0.75v-2.683C624.163,91.113,623.827,90.777,623.413,90.777z M622.065,93.46
		c-0.33,0-0.598-0.266-0.598-0.592s0.269-0.591,0.598-0.591s0.598,0.265,0.598,0.591S622.395,93.46,622.065,93.46z"/>
	<path style="fill:#C7A26F;" d="M630.994,90.777h-2.696c-0.414,0-0.75,0.336-0.75,0.75v2.683c0,0.414,0.336,0.75,0.75,0.75h2.696
		c0.414,0,0.75-0.336,0.75-0.75v-2.683C631.744,91.113,631.408,90.777,630.994,90.777z M629.646,93.46
		c-0.33,0-0.598-0.266-0.598-0.592s0.269-0.591,0.598-0.591s0.598,0.265,0.598,0.591S629.976,93.46,629.646,93.46z"/>
	<path style="fill:#C7A26F;" d="M638.575,90.777h-2.696c-0.414,0-0.75,0.336-0.75,0.75v2.683c0,0.414,0.336,0.75,0.75,0.75h2.696
		c0.414,0,0.75-0.336,0.75-0.75v-2.683C639.325,91.113,638.989,90.777,638.575,90.777z M637.227,93.46
		c-0.33,0-0.598-0.266-0.598-0.592s0.269-0.591,0.598-0.591s0.598,0.265,0.598,0.591S637.556,93.46,637.227,93.46z"/>
	<path style="fill:#C7A26F;" d="M646.156,90.777h-2.696c-0.414,0-0.75,0.336-0.75,0.75v2.683c0,0.414,0.336,0.75,0.75,0.75h2.696
		c0.414,0,0.75-0.336,0.75-0.75v-2.683C646.906,91.113,646.57,90.777,646.156,90.777z M644.808,93.46
		c-0.33,0-0.599-0.266-0.599-0.592s0.269-0.591,0.599-0.591c0.33,0,0.598,0.265,0.598,0.591S645.138,93.46,644.808,93.46z"/>
	<path style="fill:#C7A26F;" d="M653.736,90.777h-2.696c-0.414,0-0.75,0.336-0.75,0.75v2.683c0,0.414,0.336,0.75,0.75,0.75h2.696
		c0.414,0,0.75-0.336,0.75-0.75v-2.683C654.486,91.113,654.15,90.777,653.736,90.777z M652.388,93.46
		c-0.33,0-0.598-0.266-0.598-0.592s0.268-0.591,0.598-0.591s0.598,0.265,0.598,0.591S652.718,93.46,652.388,93.46z"/>
	<path style="fill:#C7A26F;" d="M661.317,90.777h-2.696c-0.414,0-0.75,0.336-0.75,0.75v2.683c0,0.414,0.336,0.75,0.75,0.75h2.696
		c0.414,0,0.75-0.336,0.75-0.75v-2.683C662.067,91.113,661.731,90.777,661.317,90.777z M659.969,93.46
		c-0.33,0-0.598-0.266-0.598-0.592s0.268-0.591,0.598-0.591s0.598,0.265,0.598,0.591S660.299,93.46,659.969,93.46z"/>
	<path style="fill:#C7A26F;" d="M668.898,90.777h-2.696c-0.414,0-0.75,0.336-0.75,0.75v1.336c0,0.002,0,0.003,0,0.005
		s0,0.003,0,0.005v1.337c0,0.414,0.336,0.75,0.75,0.75h2.696c0.414,0,0.75-0.336,0.75-0.75v-2.683
		C669.648,91.113,669.312,90.777,668.898,90.777z M666.952,92.87v-0.005c0.001-0.325,0.269-0.588,0.598-0.588
		c0.33,0,0.598,0.265,0.598,0.591s-0.269,0.592-0.598,0.592C667.221,93.46,666.953,93.195,666.952,92.87z"/>
	<path style="fill:#C7A26F;" d="M676.479,90.777h-2.696c-0.414,0-0.75,0.336-0.75,0.75v2.683c0,0.414,0.336,0.75,0.75,0.75h2.696
		c0.414,0,0.75-0.336,0.75-0.75v-2.683C677.229,91.113,676.893,90.777,676.479,90.777z M675.131,93.46
		c-0.33,0-0.598-0.266-0.598-0.592s0.269-0.591,0.598-0.591s0.598,0.265,0.598,0.591S675.46,93.46,675.131,93.46z"/>
	<path style="fill:#C7A26F;" d="M684.06,90.777h-2.696c-0.414,0-0.75,0.336-0.75,0.75v2.683c0,0.414,0.336,0.75,0.75,0.75h2.696
		c0.414,0,0.75-0.336,0.75-0.75v-2.683C684.81,91.113,684.474,90.777,684.06,90.777z M682.114,92.868
		c0-0.326,0.268-0.591,0.598-0.591s0.598,0.265,0.598,0.591s-0.268,0.592-0.598,0.592S682.114,93.194,682.114,92.868z"/>
	<path style="fill:#C7A26F;" d="M691.641,90.777h-2.696c-0.414,0-0.75,0.336-0.75,0.75v2.683c0,0.414,0.336,0.75,0.75,0.75h2.696
		c0.414,0,0.75-0.336,0.75-0.75v-2.683C692.391,91.113,692.055,90.777,691.641,90.777z M690.293,93.46
		c-0.33,0-0.598-0.266-0.598-0.592s0.269-0.591,0.598-0.591s0.598,0.265,0.598,0.591S690.623,93.46,690.293,93.46z"/>
	<path style="fill:#C7A26F;" d="M699.222,90.777h-2.696c-0.414,0-0.75,0.336-0.75,0.75v2.683c0,0.414,0.336,0.75,0.75,0.75h2.696
		c0.414,0,0.75-0.336,0.75-0.75v-2.683C699.972,91.113,699.636,90.777,699.222,90.777z M697.874,93.46
		c-0.33,0-0.598-0.266-0.598-0.592s0.268-0.591,0.598-0.591s0.598,0.265,0.598,0.591S698.203,93.46,697.874,93.46z"/>
	<path style="fill:#C7A26F;" d="M805.437,90.777c-0.414,0-0.75,0.336-0.75,0.75v2.683c0,0.414,0.336,0.75,0.75,0.75h2.696
		c0.414,0,0.75-0.336,0.75-0.75v-1.337c0-0.002,0-0.003,0-0.005s0-0.003,0-0.005v-1.336c0-0.414-0.336-0.75-0.75-0.75H805.437z
		 M806.785,93.46c-0.33,0-0.598-0.266-0.598-0.592s0.268-0.591,0.598-0.591c0.329,0,0.597,0.263,0.598,0.588v0.005
		C807.381,93.195,807.114,93.46,806.785,93.46z"/>
	<path style="fill:#C7A26F;" d="M813.018,90.777c-0.414,0-0.75,0.336-0.75,0.75v2.683c0,0.414,0.336,0.75,0.75,0.75h2.696
		c0.414,0,0.75-0.336,0.75-0.75v-2.683c0-0.414-0.336-0.75-0.75-0.75H813.018z M813.768,92.868c0-0.326,0.269-0.591,0.598-0.591
		s0.598,0.265,0.598,0.591s-0.268,0.592-0.598,0.592S813.768,93.194,813.768,92.868z"/>
	<path style="fill:#C7A26F;" d="M820.598,90.777c-0.414,0-0.75,0.336-0.75,0.75v2.683c0,0.414,0.336,0.75,0.75,0.75h2.696
		c0.414,0,0.75-0.336,0.75-0.75v-2.683c0-0.414-0.336-0.75-0.75-0.75H820.598z M821.947,93.46c-0.33,0-0.599-0.266-0.599-0.592
		s0.269-0.591,0.599-0.591c0.33,0,0.598,0.265,0.598,0.591S822.276,93.46,821.947,93.46z"/>
	<path style="fill:#C7A26F;" d="M828.18,90.777c-0.414,0-0.75,0.336-0.75,0.75v2.683c0,0.414,0.336,0.75,0.75,0.75h2.696
		c0.414,0,0.75-0.336,0.75-0.75v-2.683c0-0.414-0.336-0.75-0.75-0.75H828.18z M828.93,92.868c0-0.326,0.269-0.591,0.598-0.591
		s0.598,0.265,0.598,0.591s-0.268,0.592-0.598,0.592S828.93,93.194,828.93,92.868z"/>
	<path style="fill:#C7A26F;" d="M835.76,90.777c-0.414,0-0.75,0.336-0.75,0.75v2.683c0,0.414,0.336,0.75,0.75,0.75h2.696
		c0.414,0,0.75-0.336,0.75-0.75v-2.683c0-0.414-0.336-0.75-0.75-0.75H835.76z M837.108,93.46c-0.33,0-0.598-0.266-0.598-0.592
		s0.269-0.591,0.598-0.591s0.598,0.265,0.598,0.591S837.438,93.46,837.108,93.46z"/>
	<path style="fill:#C7A26F;" d="M843.341,90.777c-0.414,0-0.75,0.336-0.75,0.75v2.683c0,0.414,0.336,0.75,0.75,0.75h2.696
		c0.414,0,0.75-0.336,0.75-0.75v-2.683c0-0.414-0.336-0.75-0.75-0.75H843.341z M844.689,93.46c-0.33,0-0.598-0.266-0.598-0.592
		s0.268-0.591,0.598-0.591s0.598,0.265,0.598,0.591S845.019,93.46,844.689,93.46z"/>
	<path style="fill:#C7A26F;" d="M850.922,90.777c-0.414,0-0.75,0.336-0.75,0.75v2.683c0,0.414,0.336,0.75,0.75,0.75h2.696
		c0.414,0,0.75-0.336,0.75-0.75v-2.683c0-0.414-0.336-0.75-0.75-0.75H850.922z M852.27,93.46c-0.33,0-0.598-0.266-0.598-0.592
		s0.269-0.591,0.598-0.591s0.598,0.265,0.598,0.591S852.6,93.46,852.27,93.46z"/>
	<path style="fill:#C7A26F;" d="M858.503,90.777c-0.414,0-0.75,0.336-0.75,0.75v2.683c0,0.414,0.336,0.75,0.75,0.75h2.696
		c0.414,0,0.75-0.336,0.75-0.75v-1.337c0-0.002,0-0.003,0-0.005s0-0.003,0-0.005v-1.336c0-0.414-0.336-0.75-0.75-0.75H858.503z
		 M859.852,93.46c-0.33,0-0.598-0.266-0.598-0.592s0.269-0.591,0.598-0.591c0.329,0,0.596,0.263,0.598,0.588v0.005
		C860.448,93.195,860.18,93.46,859.852,93.46z"/>
	<path style="fill:#C7A26F;" d="M866.084,90.777c-0.414,0-0.75,0.336-0.75,0.75v2.683c0,0.414,0.336,0.75,0.75,0.75h2.696
		c0.414,0,0.75-0.336,0.75-0.75v-2.683c0-0.414-0.336-0.75-0.75-0.75H866.084z M867.432,93.46c-0.33,0-0.598-0.266-0.598-0.592
		s0.269-0.591,0.598-0.591s0.598,0.265,0.598,0.591S867.762,93.46,867.432,93.46z"/>
	<path style="fill:#C7A26F;" d="M873.665,90.777c-0.414,0-0.75,0.336-0.75,0.75v2.683c0,0.414,0.336,0.75,0.75,0.75h2.696
		c0.414,0,0.75-0.336,0.75-0.75v-2.683c0-0.414-0.336-0.75-0.75-0.75H873.665z M875.013,93.46c-0.33,0-0.598-0.266-0.598-0.592
		s0.269-0.591,0.598-0.591s0.598,0.265,0.598,0.591S875.343,93.46,875.013,93.46z"/>
	<path style="fill:#C7A26F;" d="M881.246,90.777c-0.414,0-0.75,0.336-0.75,0.75v2.683c0,0.414,0.336,0.75,0.75,0.75h2.696
		c0.414,0,0.75-0.336,0.75-0.75v-2.683c0-0.414-0.336-0.75-0.75-0.75H881.246z M882.593,93.46c-0.33,0-0.598-0.266-0.598-0.592
		s0.268-0.591,0.598-0.591c0.33,0,0.599,0.265,0.599,0.591S882.923,93.46,882.593,93.46z"/>
	<path style="fill:#C7A26F;" d="M888.826,90.777c-0.414,0-0.75,0.336-0.75,0.75v2.683c0,0.414,0.336,0.75,0.75,0.75h2.696
		c0.414,0,0.75-0.336,0.75-0.75v-2.683c0-0.414-0.336-0.75-0.75-0.75H888.826z M890.174,93.46c-0.33,0-0.598-0.266-0.598-0.592
		s0.269-0.591,0.598-0.591s0.598,0.265,0.598,0.591S890.504,93.46,890.174,93.46z"/>
	<path style="fill:#C7A26F;" d="M896.407,90.777c-0.414,0-0.75,0.336-0.75,0.75v1.336c0,0.002,0,0.003,0,0.005s0,0.003,0,0.005
		v1.337c0,0.414,0.336,0.75,0.75,0.75h2.696c0.414,0,0.75-0.336,0.75-0.75v-2.683c0-0.414-0.336-0.75-0.75-0.75H896.407z
		 M897.755,93.46c-0.329,0-0.596-0.264-0.598-0.589v-0.005c0.001-0.325,0.269-0.588,0.598-0.588c0.33,0,0.598,0.265,0.598,0.591
		S898.084,93.46,897.755,93.46z"/>
	<path style="fill:#C7A26F;" d="M903.989,90.777c-0.414,0-0.75,0.336-0.75,0.75v2.683c0,0.414,0.336,0.75,0.75,0.75h2.696
		c0.414,0,0.75-0.336,0.75-0.75v-2.683c0-0.414-0.336-0.75-0.75-0.75H903.989z M905.336,93.46c-0.33,0-0.598-0.266-0.598-0.592
		s0.268-0.591,0.598-0.591s0.598,0.265,0.598,0.591S905.666,93.46,905.336,93.46z"/>
	<path style="fill:#C7A26F;" d="M911.569,90.777c-0.414,0-0.75,0.336-0.75,0.75v2.683c0,0.414,0.336,0.75,0.75,0.75h2.696
		c0.414,0,0.75-0.336,0.75-0.75v-2.683c0-0.414-0.336-0.75-0.75-0.75H911.569z M912.319,92.868c0-0.326,0.269-0.591,0.598-0.591
		s0.598,0.265,0.598,0.591s-0.268,0.592-0.598,0.592S912.319,93.194,912.319,92.868z"/>
	<path style="fill:#C7A26F;" d="M919.15,90.777c-0.414,0-0.75,0.336-0.75,0.75v2.683c0,0.414,0.336,0.75,0.75,0.75h2.696
		c0.414,0,0.75-0.336,0.75-0.75v-2.683c0-0.414-0.336-0.75-0.75-0.75H919.15z M920.498,93.46c-0.33,0-0.598-0.266-0.598-0.592
		s0.268-0.591,0.598-0.591c0.33,0,0.599,0.265,0.599,0.591S920.828,93.46,920.498,93.46z"/>
	<path style="fill:#C7A26F;" d="M926.73,90.777c-0.414,0-0.75,0.336-0.75,0.75v2.683c0,0.414,0.336,0.75,0.75,0.75h2.696
		c0.414,0,0.75-0.336,0.75-0.75v-2.683c0-0.414-0.336-0.75-0.75-0.75H926.73z M928.079,93.46c-0.33,0-0.598-0.266-0.598-0.592
		s0.268-0.591,0.598-0.591s0.598,0.265,0.598,0.591S928.408,93.46,928.079,93.46z"/>
	<path style="fill:#C7A26F;" d="M934.312,90.777c-0.414,0-0.75,0.336-0.75,0.75v2.683c0,0.414,0.336,0.75,0.75,0.75h2.696
		c0.414,0,0.75-0.336,0.75-0.75v-2.683c0-0.414-0.336-0.75-0.75-0.75H934.312z M935.66,93.46c-0.33,0-0.598-0.266-0.598-0.592
		s0.269-0.591,0.598-0.591s0.598,0.265,0.598,0.591S935.99,93.46,935.66,93.46z"/>
	<path style="fill:#C7A26F;" d="M941.893,90.777c-0.414,0-0.75,0.336-0.75,0.75v2.683c0,0.414,0.336,0.75,0.75,0.75h2.696
		c0.414,0,0.75-0.336,0.75-0.75v-2.683c0-0.414-0.336-0.75-0.75-0.75H941.893z M943.241,93.46c-0.33,0-0.598-0.266-0.598-0.592
		s0.269-0.591,0.598-0.591s0.598,0.265,0.598,0.591S943.57,93.46,943.241,93.46z"/>
	<path style="fill:#C7A26F;" d="M949.474,90.777c-0.414,0-0.75,0.336-0.75,0.75v1.336c0,0.002,0,0.003,0,0.005s0,0.003,0,0.005
		v1.337c0,0.414,0.336,0.75,0.75,0.75h2.696c0.414,0,0.75-0.336,0.75-0.75v-2.683c0-0.414-0.336-0.75-0.75-0.75H949.474z
		 M950.821,93.46c-0.329,0-0.596-0.264-0.598-0.589v-0.005c0.001-0.325,0.269-0.588,0.598-0.588c0.33,0,0.598,0.265,0.598,0.591
		S951.151,93.46,950.821,93.46z"/>
	<path style="fill:#C7A26F;" d="M956.929,90.777c-0.414,0-0.75,0.336-0.75,0.75v2.683c0,0.414,0.336,0.75,0.75,0.75h2.696
		c0.414,0,0.75-0.336,0.75-0.75v-2.683c0-0.414-0.336-0.75-0.75-0.75H956.929z M958.277,93.46c-0.33,0-0.598-0.266-0.598-0.592
		s0.269-0.591,0.598-0.591s0.598,0.265,0.598,0.591S958.606,93.46,958.277,93.46z"/>
	<path style="fill:#C7A26F;" d="M964.51,90.777c-0.414,0-0.75,0.336-0.75,0.75v1.336c0,0.002,0,0.003,0,0.005s0,0.003,0,0.005v1.337
		c0,0.414,0.336,0.75,0.75,0.75h2.696c0.414,0,0.75-0.336,0.75-0.75v-2.683c0-0.414-0.336-0.75-0.75-0.75H964.51z M965.857,93.46
		c-0.329,0-0.596-0.264-0.598-0.589v-0.005c0.001-0.325,0.269-0.588,0.598-0.588c0.33,0,0.598,0.265,0.598,0.591
		S966.187,93.46,965.857,93.46z"/>
	<path style="fill:#C7A26F;" d="M972.09,90.777c-0.414,0-0.75,0.336-0.75,0.75v2.683c0,0.414,0.336,0.75,0.75,0.75h2.696
		c0.414,0,0.75-0.336,0.75-0.75v-2.683c0-0.414-0.336-0.75-0.75-0.75H972.09z M973.438,93.46c-0.33,0-0.598-0.266-0.598-0.592
		s0.269-0.591,0.598-0.591s0.598,0.265,0.598,0.591S973.768,93.46,973.438,93.46z"/>
	<path style="fill:#C7A26F;" d="M979.671,90.777c-0.414,0-0.75,0.336-0.75,0.75v2.683c0,0.414,0.336,0.75,0.75,0.75h2.696
		c0.414,0,0.75-0.336,0.75-0.75v-2.683c0-0.414-0.336-0.75-0.75-0.75H979.671z M981.02,93.46c-0.33,0-0.599-0.266-0.599-0.592
		s0.269-0.591,0.599-0.591c0.33,0,0.598,0.265,0.598,0.591S981.35,93.46,981.02,93.46z"/>
	<path style="fill:#C7A26F;" d="M987.252,90.777c-0.414,0-0.75,0.336-0.75,0.75v2.683c0,0.414,0.336,0.75,0.75,0.75h2.696
		c0.414,0,0.75-0.336,0.75-0.75v-2.683c0-0.414-0.336-0.75-0.75-0.75H987.252z M988.6,93.46c-0.33,0-0.598-0.266-0.598-0.592
		s0.268-0.591,0.598-0.591s0.598,0.265,0.598,0.591S988.93,93.46,988.6,93.46z"/>
	<path style="fill:#C7A26F;" d="M994.833,90.777c-0.414,0-0.75,0.336-0.75,0.75v2.683c0,0.414,0.336,0.75,0.75,0.75h2.696
		c0.414,0,0.75-0.336,0.75-0.75v-2.683c0-0.414-0.336-0.75-0.75-0.75H994.833z M995.583,92.868c0-0.326,0.268-0.591,0.598-0.591
		s0.598,0.265,0.598,0.591s-0.268,0.592-0.598,0.592S995.583,93.194,995.583,92.868z"/>
	<path style="fill:#C7A26F;" d="M1002.414,90.777c-0.414,0-0.75,0.336-0.75,0.75v2.683c0,0.414,0.336,0.75,0.75,0.75h2.696
		c0.414,0,0.75-0.336,0.75-0.75v-2.683c0-0.414-0.336-0.75-0.75-0.75H1002.414z M1003.762,93.46c-0.33,0-0.598-0.266-0.598-0.592
		s0.269-0.591,0.598-0.591s0.598,0.265,0.598,0.591S1004.091,93.46,1003.762,93.46z"/>
	<path style="fill:#C7A26F;" d="M1009.995,90.777c-0.414,0-0.75,0.336-0.75,0.75v2.683c0,0.414,0.336,0.75,0.75,0.75h2.696
		c0.414,0,0.75-0.336,0.75-0.75v-2.683c0-0.414-0.336-0.75-0.75-0.75H1009.995z M1011.343,93.46c-0.33,0-0.598-0.266-0.598-0.592
		s0.269-0.591,0.598-0.591s0.598,0.265,0.598,0.591S1011.673,93.46,1011.343,93.46z"/>
	<path style="fill:#C7A26F;" d="M1017.576,90.777c-0.414,0-0.75,0.336-0.75,0.75v2.683c0,0.414,0.336,0.75,0.75,0.75h2.696
		c0.414,0,0.75-0.336,0.75-0.75v-2.683c0-0.414-0.336-0.75-0.75-0.75H1017.576z M1018.924,93.46c-0.33,0-0.598-0.266-0.598-0.592
		s0.269-0.591,0.598-0.591s0.598,0.265,0.598,0.591S1019.253,93.46,1018.924,93.46z"/>
	<path style="fill:#C7A26F;" d="M1025.157,90.777c-0.414,0-0.75,0.336-0.75,0.75v2.683c0,0.414,0.336,0.75,0.75,0.75h2.696
		c0.414,0,0.75-0.336,0.75-0.75v-1.337c0-0.002,0-0.003,0-0.005s0-0.003,0-0.005v-1.336c0-0.414-0.336-0.75-0.75-0.75H1025.157z
		 M1026.505,93.46c-0.33,0-0.598-0.266-0.598-0.592s0.269-0.591,0.598-0.591c0.329,0,0.596,0.263,0.598,0.588v0.005
		C1027.101,93.195,1026.834,93.46,1026.505,93.46z"/>
	<path style="fill:#C7A26F;" d="M1032.737,90.777c-0.414,0-0.75,0.336-0.75,0.75v2.683c0,0.414,0.336,0.75,0.75,0.75h2.696
		c0.414,0,0.75-0.336,0.75-0.75v-2.683c0-0.414-0.336-0.75-0.75-0.75H1032.737z M1034.085,93.46c-0.33,0-0.598-0.266-0.598-0.592
		s0.269-0.591,0.598-0.591s0.598,0.265,0.598,0.591S1034.415,93.46,1034.085,93.46z"/>
	<path style="fill:#C7A26F;" d="M1040.318,90.777c-0.414,0-0.75,0.336-0.75,0.75v2.683c0,0.414,0.336,0.75,0.75,0.75h2.696
		c0.414,0,0.75-0.336,0.75-0.75v-2.683c0-0.414-0.336-0.75-0.75-0.75H1040.318z M1041.666,93.46c-0.33,0-0.598-0.266-0.598-0.592
		s0.269-0.591,0.598-0.591s0.598,0.265,0.598,0.591S1041.996,93.46,1041.666,93.46z"/>
	<path style="fill:#C7A26F;" d="M1047.899,90.777c-0.414,0-0.75,0.336-0.75,0.75v2.683c0,0.414,0.336,0.75,0.75,0.75h2.696
		c0.414,0,0.75-0.336,0.75-0.75v-2.683c0-0.414-0.336-0.75-0.75-0.75H1047.899z M1049.247,93.46c-0.33,0-0.598-0.266-0.598-0.592
		s0.268-0.591,0.598-0.591s0.598,0.265,0.598,0.591S1049.576,93.46,1049.247,93.46z"/>
	<path style="fill:#C7A26F;" d="M1055.48,90.777c-0.414,0-0.75,0.336-0.75,0.75v2.683c0,0.414,0.336,0.75,0.75,0.75h2.696
		c0.414,0,0.75-0.336,0.75-0.75v-2.683c0-0.414-0.336-0.75-0.75-0.75H1055.48z M1056.829,93.46c-0.33,0-0.598-0.266-0.598-0.592
		s0.269-0.591,0.598-0.591s0.598,0.265,0.598,0.591S1057.158,93.46,1056.829,93.46z"/>
	<path style="fill:#C7A26F;" d="M1063.061,90.777c-0.414,0-0.75,0.336-0.75,0.75v2.683c0,0.414,0.336,0.75,0.75,0.75h2.696
		c0.414,0,0.75-0.336,0.75-0.75v-2.683c0-0.414-0.336-0.75-0.75-0.75H1063.061z M1064.409,93.46c-0.33,0-0.598-0.266-0.598-0.592
		s0.269-0.591,0.598-0.591s0.598,0.265,0.598,0.591S1064.739,93.46,1064.409,93.46z"/>
	<path style="fill:#C7A26F;" d="M1070.642,90.777c-0.414,0-0.75,0.336-0.75,0.75v2.683c0,0.414,0.336,0.75,0.75,0.75h2.696
		c0.414,0,0.75-0.336,0.75-0.75v-2.683c0-0.414-0.336-0.75-0.75-0.75H1070.642z M1071.99,93.46c-0.33,0-0.598-0.266-0.598-0.592
		s0.269-0.591,0.598-0.591s0.598,0.265,0.598,0.591S1072.319,93.46,1071.99,93.46z"/>
	<path style="fill:#C7A26F;" d="M1078.223,90.777c-0.414,0-0.75,0.336-0.75,0.75v2.683c0,0.414,0.336,0.75,0.75,0.75h2.696
		c0.414,0,0.75-0.336,0.75-0.75v-2.683c0-0.414-0.336-0.75-0.75-0.75H1078.223z M1079.571,93.46c-0.33,0-0.598-0.266-0.598-0.592
		s0.269-0.591,0.598-0.591s0.598,0.265,0.598,0.591S1079.9,93.46,1079.571,93.46z"/>
	<path style="fill:#C7A26F;" d="M1085.804,90.777c-0.414,0-0.75,0.336-0.75,0.75v2.683c0,0.414,0.336,0.75,0.75,0.75h2.696
		c0.414,0,0.75-0.336,0.75-0.75v-2.683c0-0.414-0.336-0.75-0.75-0.75H1085.804z M1087.152,93.46c-0.33,0-0.598-0.266-0.598-0.592
		s0.269-0.591,0.598-0.591s0.598,0.265,0.598,0.591S1087.481,93.46,1087.152,93.46z"/>
	<path style="fill:#C7A26F;" d="M1093.384,90.777c-0.414,0-0.75,0.336-0.75,0.75v2.683c0,0.414,0.336,0.75,0.75,0.75h2.696
		c0.414,0,0.75-0.336,0.75-0.75v-2.683c0-0.414-0.336-0.75-0.75-0.75H1093.384z M1094.733,93.46c-0.33,0-0.599-0.266-0.599-0.592
		s0.269-0.591,0.599-0.591c0.33,0,0.598,0.265,0.598,0.591S1095.062,93.46,1094.733,93.46z"/>
	<path style="fill:#C7A26F;" d="M1100.965,90.777c-0.414,0-0.75,0.336-0.75,0.75v2.683c0,0.414,0.336,0.75,0.75,0.75h2.696
		c0.414,0,0.75-0.336,0.75-0.75v-2.683c0-0.414-0.336-0.75-0.75-0.75H1100.965z M1102.313,93.46c-0.33,0-0.598-0.266-0.598-0.592
		s0.268-0.591,0.598-0.591s0.598,0.265,0.598,0.591S1102.643,93.46,1102.313,93.46z"/>
	<path style="fill:#C7A26F;" d="M1108.467,90.777c-0.414,0-0.75,0.336-0.75,0.75v2.683c0,0.414,0.336,0.75,0.75,0.75h2.696
		c0.414,0,0.75-0.336,0.75-0.75v-2.683c0-0.414-0.336-0.75-0.75-0.75H1108.467z M1109.815,93.46c-0.33,0-0.598-0.266-0.598-0.592
		s0.269-0.591,0.598-0.591s0.598,0.265,0.598,0.591S1110.145,93.46,1109.815,93.46z"/>
	<path style="fill:#C7A26F;" d="M1116.048,90.777c-0.414,0-0.75,0.336-0.75,0.75v2.683c0,0.414,0.336,0.75,0.75,0.75h2.696
		c0.414,0,0.75-0.336,0.75-0.75v-2.683c0-0.414-0.336-0.75-0.75-0.75H1116.048z M1117.396,93.46c-0.33,0-0.598-0.266-0.598-0.592
		s0.268-0.591,0.598-0.591s0.598,0.265,0.598,0.591S1117.726,93.46,1117.396,93.46z"/>
	<path style="fill:#C7A26F;" d="M1123.629,90.777c-0.414,0-0.75,0.336-0.75,0.75v2.683c0,0.414,0.336,0.75,0.75,0.75h2.696
		c0.414,0,0.75-0.336,0.75-0.75v-2.683c0-0.414-0.336-0.75-0.75-0.75H1123.629z M1124.977,93.46c-0.33,0-0.598-0.266-0.598-0.592
		s0.269-0.591,0.598-0.591s0.598,0.265,0.598,0.591S1125.307,93.46,1124.977,93.46z"/>
	<path style="fill:#C7A26F;" d="M1131.21,90.777c-0.414,0-0.75,0.336-0.75,0.75v2.683c0,0.414,0.336,0.75,0.75,0.75h2.696
		c0.414,0,0.75-0.336,0.75-0.75v-2.683c0-0.414-0.336-0.75-0.75-0.75H1131.21z M1132.558,93.46c-0.33,0-0.598-0.266-0.598-0.592
		s0.268-0.591,0.598-0.591s0.598,0.265,0.598,0.591S1132.888,93.46,1132.558,93.46z"/>
	<path style="fill:#C7A26F;" d="M1138.791,90.777c-0.414,0-0.75,0.336-0.75,0.75v2.683c0,0.414,0.336,0.75,0.75,0.75h2.696
		c0.414,0,0.75-0.336,0.75-0.75v-2.683c0-0.414-0.336-0.75-0.75-0.75H1138.791z M1140.139,93.46c-0.33,0-0.598-0.266-0.598-0.592
		s0.269-0.591,0.598-0.591s0.598,0.265,0.598,0.591S1140.469,93.46,1140.139,93.46z"/>
	<path style="fill:#C7A26F;" d="M1146.372,90.777c-0.414,0-0.75,0.336-0.75,0.75v1.336c0,0.002,0,0.003,0,0.005s0,0.003,0,0.005
		v1.337c0,0.414,0.336,0.75,0.75,0.75h2.696c0.414,0,0.75-0.336,0.75-0.75v-2.683c0-0.414-0.336-0.75-0.75-0.75H1146.372z
		 M1147.72,93.46c-0.329,0-0.596-0.264-0.598-0.589v-0.005c0.001-0.325,0.269-0.588,0.598-0.588c0.33,0,0.598,0.265,0.598,0.591
		S1148.049,93.46,1147.72,93.46z"/>
	<path style="fill:#C7A26F;" d="M1153.953,90.777c-0.414,0-0.75,0.336-0.75,0.75v2.683c0,0.414,0.336,0.75,0.75,0.75h2.696
		c0.414,0,0.75-0.336,0.75-0.75v-2.683c0-0.414-0.336-0.75-0.75-0.75H1153.953z M1155.3,93.46c-0.33,0-0.598-0.266-0.598-0.592
		s0.268-0.591,0.598-0.591c0.33,0,0.599,0.265,0.599,0.591S1155.63,93.46,1155.3,93.46z"/>
	<path style="fill:#C7A26F;" d="M1161.534,90.777c-0.414,0-0.75,0.336-0.75,0.75v2.683c0,0.414,0.336,0.75,0.75,0.75h2.696
		c0.414,0,0.75-0.336,0.75-0.75v-2.683c0-0.414-0.336-0.75-0.75-0.75H1161.534z M1162.882,93.46c-0.33,0-0.598-0.266-0.598-0.592
		s0.269-0.591,0.598-0.591s0.598,0.265,0.598,0.591S1163.211,93.46,1162.882,93.46z"/>
	<path style="fill:#C7A26F;" d="M1169.115,90.777c-0.414,0-0.75,0.336-0.75,0.75v2.683c0,0.414,0.336,0.75,0.75,0.75h2.696
		c0.414,0,0.75-0.336,0.75-0.75v-2.683c0-0.414-0.336-0.75-0.75-0.75H1169.115z M1170.462,93.46c-0.33,0-0.598-0.266-0.598-0.592
		s0.268-0.591,0.598-0.591s0.598,0.265,0.598,0.591S1170.792,93.46,1170.462,93.46z"/>
	<path style="fill:#C7A26F;" d="M1176.695,90.777c-0.414,0-0.75,0.336-0.75,0.75v2.683c0,0.414,0.336,0.75,0.75,0.75h2.696
		c0.414,0,0.75-0.336,0.75-0.75v-2.683c0-0.414-0.336-0.75-0.75-0.75H1176.695z M1178.043,93.46c-0.33,0-0.598-0.266-0.598-0.592
		s0.268-0.591,0.598-0.591s0.598,0.265,0.598,0.591S1178.373,93.46,1178.043,93.46z"/>
	<path style="fill:#C7A26F;" d="M1184.276,90.777c-0.414,0-0.75,0.336-0.75,0.75v2.683c0,0.414,0.336,0.75,0.75,0.75h2.696
		c0.414,0,0.75-0.336,0.75-0.75v-2.683c0-0.414-0.336-0.75-0.75-0.75H1184.276z M1185.624,93.46c-0.33,0-0.598-0.266-0.598-0.592
		s0.269-0.591,0.598-0.591s0.598,0.265,0.598,0.591S1185.954,93.46,1185.624,93.46z"/>
	<path style="fill:#C7A26F;" d="M1191.857,90.777c-0.414,0-0.75,0.336-0.75,0.75v2.683c0,0.414,0.336,0.75,0.75,0.75h2.696
		c0.414,0,0.75-0.336,0.75-0.75v-1.337c0-0.002,0-0.003,0-0.005s0-0.003,0-0.005v-1.336c0-0.414-0.336-0.75-0.75-0.75H1191.857z
		 M1193.205,93.46c-0.33,0-0.598-0.266-0.598-0.592s0.268-0.591,0.598-0.591c0.329,0,0.597,0.263,0.598,0.588v0.005
		C1193.801,93.195,1193.534,93.46,1193.205,93.46z"/>
	<path style="fill:#C7A26F;" d="M1199.438,90.777c-0.414,0-0.75,0.336-0.75,0.75v2.683c0,0.414,0.336,0.75,0.75,0.75h2.696
		c0.414,0,0.75-0.336,0.75-0.75v-2.683c0-0.414-0.336-0.75-0.75-0.75H1199.438z M1200.188,92.868c0-0.326,0.269-0.591,0.598-0.591
		s0.598,0.265,0.598,0.591s-0.268,0.592-0.598,0.592S1200.188,93.194,1200.188,92.868z"/>
	<path style="fill:#C7A26F;" d="M1207.019,90.777c-0.414,0-0.75,0.336-0.75,0.75v2.683c0,0.414,0.336,0.75,0.75,0.75h2.696
		c0.414,0,0.75-0.336,0.75-0.75v-2.683c0-0.414-0.336-0.75-0.75-0.75H1207.019z M1208.367,93.46c-0.33,0-0.598-0.266-0.598-0.592
		s0.269-0.591,0.598-0.591s0.598,0.265,0.598,0.591S1208.697,93.46,1208.367,93.46z"/>
	<path style="fill:#C7A26F;" d="M1214.6,90.777c-0.414,0-0.75,0.336-0.75,0.75v2.683c0,0.414,0.336,0.75,0.75,0.75h2.696
		c0.414,0,0.75-0.336,0.75-0.75v-2.683c0-0.414-0.336-0.75-0.75-0.75H1214.6z M1215.948,93.46c-0.33,0-0.598-0.266-0.598-0.592
		s0.268-0.591,0.598-0.591s0.598,0.265,0.598,0.591S1216.277,93.46,1215.948,93.46z"/>
	<path style="fill:#C7A26F;" d="M1222.18,90.777c-0.414,0-0.75,0.336-0.75,0.75v2.683c0,0.414,0.336,0.75,0.75,0.75h2.696
		c0.414,0,0.75-0.336,0.75-0.75v-2.683c0-0.414-0.336-0.75-0.75-0.75H1222.18z M1223.528,93.46c-0.33,0-0.598-0.266-0.598-0.592
		s0.269-0.591,0.598-0.591s0.598,0.265,0.598,0.591S1223.858,93.46,1223.528,93.46z"/>
	<path style="fill:#C7A26F;" d="M1229.761,90.777c-0.414,0-0.75,0.336-0.75,0.75v2.683c0,0.414,0.336,0.75,0.75,0.75h2.696
		c0.414,0,0.75-0.336,0.75-0.75v-1.337c0-0.002,0-0.003,0-0.005s0-0.003,0-0.005v-1.336c0-0.414-0.336-0.75-0.75-0.75H1229.761z
		 M1231.109,93.46c-0.33,0-0.598-0.266-0.598-0.592s0.268-0.591,0.598-0.591c0.329,0,0.597,0.263,0.598,0.588v0.005
		C1231.706,93.195,1231.438,93.46,1231.109,93.46z"/>
	<path style="fill:#C7A26F;" d="M1237.342,90.777c-0.414,0-0.75,0.336-0.75,0.75v2.683c0,0.414,0.336,0.75,0.75,0.75h2.696
		c0.414,0,0.75-0.336,0.75-0.75v-2.683c0-0.414-0.336-0.75-0.75-0.75H1237.342z M1238.691,93.46c-0.33,0-0.599-0.266-0.599-0.592
		s0.269-0.591,0.599-0.591c0.33,0,0.598,0.265,0.598,0.591S1239.021,93.46,1238.691,93.46z"/>
	<path style="fill:#C7A26F;" d="M1244.923,90.777c-0.414,0-0.75,0.336-0.75,0.75v2.683c0,0.414,0.336,0.75,0.75,0.75h2.696
		c0.414,0,0.75-0.336,0.75-0.75v-1.337c0-0.002,0-0.003,0-0.005s0-0.003,0-0.005v-1.336c0-0.414-0.336-0.75-0.75-0.75H1244.923z
		 M1246.271,93.46c-0.33,0-0.598-0.266-0.598-0.592s0.269-0.591,0.598-0.591c0.329,0,0.596,0.263,0.598,0.588v0.005
		C1246.868,93.195,1246.6,93.46,1246.271,93.46z"/>
	<path style="fill:#C7A26F;" d="M1252.504,90.777c-0.414,0-0.75,0.336-0.75,0.75v2.683c0,0.414,0.336,0.75,0.75,0.75h2.696
		c0.414,0,0.75-0.336,0.75-0.75v-2.683c0-0.414-0.336-0.75-0.75-0.75H1252.504z M1253.852,93.46c-0.33,0-0.598-0.266-0.598-0.592
		s0.269-0.591,0.598-0.591s0.598,0.265,0.598,0.591S1254.182,93.46,1253.852,93.46z"/>
	<path style="fill:#C7A26F;" d="M1259.817,90.777c-0.414,0-0.75,0.336-0.75,0.75v2.683c0,0.414,0.336,0.75,0.75,0.75h2.696
		c0.414,0,0.75-0.336,0.75-0.75v-2.683c0-0.414-0.336-0.75-0.75-0.75H1259.817z M1261.165,93.46c-0.33,0-0.598-0.266-0.598-0.592
		s0.269-0.591,0.598-0.591s0.598,0.265,0.598,0.591S1261.495,93.46,1261.165,93.46z"/>
	<path style="fill:#C7A26F;" d="M1267.398,90.777c-0.414,0-0.75,0.336-0.75,0.75v2.683c0,0.414,0.336,0.75,0.75,0.75h2.696
		c0.414,0,0.75-0.336,0.75-0.75v-1.337c0-0.002,0-0.003,0-0.005s0-0.003,0-0.005v-1.336c0-0.414-0.336-0.75-0.75-0.75H1267.398z
		 M1268.746,93.46c-0.33,0-0.598-0.266-0.598-0.592s0.269-0.591,0.598-0.591c0.329,0,0.596,0.263,0.598,0.588v0.005
		C1269.342,93.195,1269.075,93.46,1268.746,93.46z"/>
	<path style="fill:#C7A26F;" d="M1274.979,90.777c-0.414,0-0.75,0.336-0.75,0.75v2.683c0,0.414,0.336,0.75,0.75,0.75h2.696
		c0.414,0,0.75-0.336,0.75-0.75v-2.683c0-0.414-0.336-0.75-0.75-0.75H1274.979z M1276.327,93.46c-0.33,0-0.598-0.266-0.598-0.592
		s0.269-0.591,0.598-0.591s0.598,0.265,0.598,0.591S1276.656,93.46,1276.327,93.46z"/>
	<path style="fill:#C7A26F;" d="M1282.56,90.777c-0.414,0-0.75,0.336-0.75,0.75v2.683c0,0.414,0.336,0.75,0.75,0.75h2.696
		c0.414,0,0.75-0.336,0.75-0.75v-1.337c0-0.002,0-0.003,0-0.005s0-0.003,0-0.005v-1.336c0-0.414-0.336-0.75-0.75-0.75H1282.56z
		 M1283.908,93.46c-0.33,0-0.598-0.266-0.598-0.592s0.269-0.591,0.598-0.591c0.329,0,0.596,0.263,0.598,0.588v0.005
		C1284.505,93.195,1284.237,93.46,1283.908,93.46z"/>
	<path style="fill:#C7A26F;" d="M1290.141,90.777c-0.414,0-0.75,0.336-0.75,0.75v2.683c0,0.414,0.336,0.75,0.75,0.75h2.696
		c0.414,0,0.75-0.336,0.75-0.75v-2.683c0-0.414-0.336-0.75-0.75-0.75H1290.141z M1290.891,92.868c0-0.326,0.269-0.591,0.598-0.591
		s0.598,0.265,0.598,0.591s-0.268,0.592-0.598,0.592S1290.891,93.194,1290.891,92.868z"/>
	<path style="fill:#C7A26F;" d="M1297.722,90.777c-0.414,0-0.75,0.336-0.75,0.75v2.683c0,0.414,0.336,0.75,0.75,0.75h2.696
		c0.414,0,0.75-0.336,0.75-0.75v-2.683c0-0.414-0.336-0.75-0.75-0.75H1297.722z M1299.07,93.46c-0.33,0-0.598-0.266-0.598-0.592
		s0.269-0.591,0.598-0.591s0.598,0.265,0.598,0.591S1299.399,93.46,1299.07,93.46z"/>
	<path style="fill:#C7A26F;" d="M1305.302,90.777c-0.414,0-0.75,0.336-0.75,0.75v2.683c0,0.414,0.336,0.75,0.75,0.75h2.696
		c0.414,0,0.75-0.336,0.75-0.75v-2.683c0-0.414-0.336-0.75-0.75-0.75H1305.302z M1306.65,93.46c-0.33,0-0.598-0.266-0.598-0.592
		s0.268-0.591,0.598-0.591c0.33,0,0.599,0.265,0.599,0.591S1306.98,93.46,1306.65,93.46z"/>
	<path style="fill:#C7A26F;" d="M1312.883,90.777c-0.414,0-0.75,0.336-0.75,0.75v2.683c0,0.414,0.336,0.75,0.75,0.75h2.696
		c0.414,0,0.75-0.336,0.75-0.75v-2.683c0-0.414-0.336-0.75-0.75-0.75H1312.883z M1314.232,93.46c-0.33,0-0.599-0.266-0.599-0.592
		s0.269-0.591,0.599-0.591c0.33,0,0.598,0.265,0.598,0.591S1314.562,93.46,1314.232,93.46z"/>
	<path style="fill:#C7A26F;" d="M1320.464,90.777c-0.414,0-0.75,0.336-0.75,0.75v2.683c0,0.414,0.336,0.75,0.75,0.75h2.696
		c0.414,0,0.75-0.336,0.75-0.75v-1.337c0-0.002,0-0.003,0-0.005s0-0.003,0-0.005v-1.336c0-0.414-0.336-0.75-0.75-0.75H1320.464z
		 M1321.812,93.46c-0.33,0-0.598-0.266-0.598-0.592s0.269-0.591,0.598-0.591c0.329,0,0.596,0.263,0.598,0.588v0.005
		C1322.409,93.195,1322.141,93.46,1321.812,93.46z"/>
	<path style="fill:#C7A26F;" d="M1328.045,90.777c-0.414,0-0.75,0.336-0.75,0.75v2.683c0,0.414,0.336,0.75,0.75,0.75h2.696
		c0.414,0,0.75-0.336,0.75-0.75v-2.683c0-0.414-0.336-0.75-0.75-0.75H1328.045z M1329.393,93.46c-0.33,0-0.598-0.266-0.598-0.592
		s0.268-0.591,0.598-0.591s0.598,0.265,0.598,0.591S1329.723,93.46,1329.393,93.46z"/>
	<path style="fill:#C7A26F;" d="M1335.626,90.777c-0.414,0-0.75,0.336-0.75,0.75v2.683c0,0.414,0.336,0.75,0.75,0.75h2.696
		c0.414,0,0.75-0.336,0.75-0.75v-2.683c0-0.414-0.336-0.75-0.75-0.75H1335.626z M1336.376,92.868c0-0.326,0.269-0.591,0.598-0.591
		s0.598,0.265,0.598,0.591s-0.268,0.592-0.598,0.592S1336.376,93.194,1336.376,92.868z"/>
	<path style="fill:#C7A26F;" d="M1343.207,90.777c-0.414,0-0.75,0.336-0.75,0.75v2.683c0,0.414,0.336,0.75,0.75,0.75h2.696
		c0.414,0,0.75-0.336,0.75-0.75v-2.683c0-0.414-0.336-0.75-0.75-0.75H1343.207z M1344.554,93.46c-0.33,0-0.598-0.266-0.598-0.592
		s0.268-0.591,0.598-0.591c0.33,0,0.599,0.265,0.599,0.591S1344.884,93.46,1344.554,93.46z"/>
	<path style="fill:#C7A26F;" d="M1350.788,90.777c-0.414,0-0.75,0.336-0.75,0.75v2.683c0,0.414,0.336,0.75,0.75,0.75h2.696
		c0.414,0,0.75-0.336,0.75-0.75v-2.683c0-0.414-0.336-0.75-0.75-0.75H1350.788z M1352.135,93.46c-0.33,0-0.598-0.266-0.598-0.592
		s0.268-0.591,0.598-0.591s0.598,0.265,0.598,0.591S1352.465,93.46,1352.135,93.46z"/>
	<path style="fill:#C7A26F;" d="M1358.369,90.777c-0.414,0-0.75,0.336-0.75,0.75v2.683c0,0.414,0.336,0.75,0.75,0.75h2.696
		c0.414,0,0.75-0.336,0.75-0.75v-2.683c0-0.414-0.336-0.75-0.75-0.75H1358.369z M1359.717,93.46c-0.33,0-0.598-0.266-0.598-0.592
		s0.269-0.591,0.598-0.591s0.598,0.265,0.598,0.591S1360.046,93.46,1359.717,93.46z"/>
	<path style="fill:#C7A26F;" d="M1365.95,90.777c-0.414,0-0.75,0.336-0.75,0.75v2.683c0,0.414,0.336,0.75,0.75,0.75h2.696
		c0.414,0,0.75-0.336,0.75-0.75v-1.337c0-0.002,0-0.003,0-0.005s0-0.003,0-0.005v-1.336c0-0.414-0.336-0.75-0.75-0.75H1365.95z
		 M1367.297,93.46c-0.33,0-0.598-0.266-0.598-0.592s0.268-0.591,0.598-0.591c0.329,0,0.597,0.263,0.598,0.588v0.005
		C1367.894,93.195,1367.627,93.46,1367.297,93.46z"/>
	<path style="fill:#C7A26F;" d="M1373.53,90.777c-0.414,0-0.75,0.336-0.75,0.75v2.683c0,0.414,0.336,0.75,0.75,0.75h2.696
		c0.414,0,0.75-0.336,0.75-0.75v-2.683c0-0.414-0.336-0.75-0.75-0.75H1373.53z M1374.28,92.868c0-0.326,0.269-0.591,0.598-0.591
		s0.598,0.265,0.598,0.591s-0.268,0.592-0.598,0.592S1374.28,93.194,1374.28,92.868z"/>
	<path style="fill:#C7A26F;" d="M1381.111,90.777c-0.414,0-0.75,0.336-0.75,0.75v2.683c0,0.414,0.336,0.75,0.75,0.75h2.696
		c0.414,0,0.75-0.336,0.75-0.75v-2.683c0-0.414-0.336-0.75-0.75-0.75H1381.111z M1382.459,93.46c-0.33,0-0.598-0.266-0.598-0.592
		s0.269-0.591,0.598-0.591s0.598,0.265,0.598,0.591S1382.789,93.46,1382.459,93.46z"/>
	<path style="fill:#C7A26F;" d="M1388.692,90.777c-0.414,0-0.75,0.336-0.75,0.75v1.336c0,0.002,0,0.003,0,0.005s0,0.003,0,0.005
		v1.337c0,0.414,0.336,0.75,0.75,0.75h2.696c0.414,0,0.75-0.336,0.75-0.75v-2.683c0-0.414-0.336-0.75-0.75-0.75H1388.692z
		 M1389.442,92.87v-0.005c0.001-0.325,0.269-0.588,0.598-0.588c0.33,0,0.598,0.265,0.598,0.591s-0.268,0.592-0.598,0.592
		C1389.711,93.46,1389.444,93.195,1389.442,92.87z"/>
	<path style="fill:#C7A26F;" d="M1396.273,90.777c-0.414,0-0.75,0.336-0.75,0.75v2.683c0,0.414,0.336,0.75,0.75,0.75h2.696
		c0.414,0,0.75-0.336,0.75-0.75v-2.683c0-0.414-0.336-0.75-0.75-0.75H1396.273z M1397.621,93.46c-0.33,0-0.598-0.266-0.598-0.592
		s0.269-0.591,0.598-0.591s0.598,0.265,0.598,0.591S1397.951,93.46,1397.621,93.46z"/>
	<path style="fill:#C7A26F;" d="M1403.854,90.777c-0.414,0-0.75,0.336-0.75,0.75v2.683c0,0.414,0.336,0.75,0.75,0.75h2.696
		c0.414,0,0.75-0.336,0.75-0.75v-2.683c0-0.414-0.336-0.75-0.75-0.75H1403.854z M1405.202,93.46c-0.33,0-0.598-0.266-0.598-0.592
		s0.268-0.591,0.598-0.591s0.598,0.265,0.598,0.591S1405.531,93.46,1405.202,93.46z"/>
	<path style="fill:#C7A26F;" d="M100.699,90.777h-2.696c-0.414,0-0.75,0.336-0.75,0.75v2.683c0,0.414,0.336,0.75,0.75,0.75h2.696
		c0.414,0,0.75-0.336,0.75-0.75v-2.683C101.449,91.113,101.113,90.777,100.699,90.777z M99.35,93.46
		c-0.33,0-0.598-0.266-0.598-0.592s0.268-0.591,0.598-0.591c0.33,0,0.599,0.265,0.599,0.591S99.68,93.46,99.35,93.46z"/>
	<path style="fill:#C7A26F;" d="M108.279,90.777h-2.696c-0.414,0-0.75,0.336-0.75,0.75v2.683c0,0.414,0.336,0.75,0.75,0.75h2.696
		c0.414,0,0.75-0.336,0.75-0.75v-2.683C109.029,91.113,108.693,90.777,108.279,90.777z M106.931,93.46
		c-0.33,0-0.598-0.266-0.598-0.592s0.268-0.591,0.598-0.591s0.598,0.265,0.598,0.591S107.261,93.46,106.931,93.46z"/>
	<path style="fill:#C7A26F;" d="M115.86,90.777h-2.696c-0.414,0-0.75,0.336-0.75,0.75v2.683c0,0.414,0.336,0.75,0.75,0.75h2.696
		c0.414,0,0.75-0.336,0.75-0.75v-2.683C116.61,91.113,116.274,90.777,115.86,90.777z M114.512,93.46
		c-0.33,0-0.598-0.266-0.598-0.592s0.269-0.591,0.598-0.591s0.598,0.265,0.598,0.591S114.842,93.46,114.512,93.46z"/>
	<path style="fill:#C7A26F;" d="M123.441,90.777h-2.696c-0.414,0-0.75,0.336-0.75,0.75v2.683c0,0.414,0.336,0.75,0.75,0.75h2.696
		c0.414,0,0.75-0.336,0.75-0.75v-2.683C124.191,91.113,123.855,90.777,123.441,90.777z M122.093,93.46
		c-0.33,0-0.598-0.266-0.598-0.592s0.269-0.591,0.598-0.591s0.598,0.265,0.598,0.591S122.423,93.46,122.093,93.46z"/>
	<path style="fill:#C7A26F;" d="M131.022,90.777h-2.696c-0.414,0-0.75,0.336-0.75,0.75v2.683c0,0.414,0.336,0.75,0.75,0.75h2.696
		c0.414,0,0.75-0.336,0.75-0.75v-2.683C131.772,91.113,131.436,90.777,131.022,90.777z M129.674,93.46
		c-0.33,0-0.598-0.266-0.598-0.592s0.269-0.591,0.598-0.591s0.598,0.265,0.598,0.591S130.004,93.46,129.674,93.46z"/>
	<path style="fill:#C7A26F;" d="M138.603,90.777h-2.696c-0.414,0-0.75,0.336-0.75,0.75v2.683c0,0.414,0.336,0.75,0.75,0.75h2.696
		c0.414,0,0.75-0.336,0.75-0.75v-2.683C139.353,91.113,139.017,90.777,138.603,90.777z M137.255,93.46
		c-0.33,0-0.598-0.266-0.598-0.592s0.269-0.591,0.598-0.591s0.598,0.265,0.598,0.591S137.584,93.46,137.255,93.46z"/>
	<path style="fill:#C7A26F;" d="M146.934,92.863v-1.336c0-0.414-0.336-0.75-0.75-0.75h-2.696c-0.414,0-0.75,0.336-0.75,0.75v2.683
		c0,0.414,0.336,0.75,0.75,0.75h2.696c0.414,0,0.75-0.336,0.75-0.75v-1.337c0-0.002,0-0.003,0-0.005S146.934,92.865,146.934,92.863z
		 M144.835,93.46c-0.33,0-0.598-0.266-0.598-0.592s0.268-0.591,0.598-0.591c0.329,0,0.597,0.263,0.598,0.588v0.005
		C145.432,93.195,145.165,93.46,144.835,93.46z"/>
	<path style="fill:#C7A26F;" d="M153.765,90.777h-2.696c-0.414,0-0.75,0.336-0.75,0.75v2.683c0,0.414,0.336,0.75,0.75,0.75h2.696
		c0.414,0,0.75-0.336,0.75-0.75v-2.683C154.515,91.113,154.179,90.777,153.765,90.777z M152.417,93.46
		c-0.33,0-0.598-0.266-0.598-0.592s0.269-0.591,0.598-0.591s0.598,0.265,0.598,0.591S152.747,93.46,152.417,93.46z"/>
	<path style="fill:#C7A26F;" d="M161.346,90.777h-2.696c-0.414,0-0.75,0.336-0.75,0.75v2.683c0,0.414,0.336,0.75,0.75,0.75h2.696
		c0.414,0,0.75-0.336,0.75-0.75v-2.683C162.096,91.113,161.76,90.777,161.346,90.777z M159.998,93.46
		c-0.33,0-0.598-0.266-0.598-0.592s0.268-0.591,0.598-0.591s0.598,0.265,0.598,0.591S160.327,93.46,159.998,93.46z"/>
	<path style="fill:#C7A26F;" d="M168.927,90.777h-2.696c-0.414,0-0.75,0.336-0.75,0.75v2.683c0,0.414,0.336,0.75,0.75,0.75h2.696
		c0.414,0,0.75-0.336,0.75-0.75v-2.683C169.677,91.113,169.341,90.777,168.927,90.777z M166.98,92.868
		c0-0.326,0.269-0.591,0.598-0.591s0.598,0.265,0.598,0.591s-0.268,0.592-0.598,0.592S166.98,93.194,166.98,92.868z"/>
	<path style="fill:#C7A26F;" d="M176.507,90.777h-2.696c-0.414,0-0.75,0.336-0.75,0.75v2.683c0,0.414,0.336,0.75,0.75,0.75h2.696
		c0.414,0,0.75-0.336,0.75-0.75v-2.683C177.257,91.113,176.921,90.777,176.507,90.777z M175.159,93.46
		c-0.33,0-0.598-0.266-0.598-0.592s0.269-0.591,0.598-0.591s0.598,0.265,0.598,0.591S175.489,93.46,175.159,93.46z"/>
	<path style="fill:#C7A26F;" d="M184.088,90.777h-2.696c-0.414,0-0.75,0.336-0.75,0.75v2.683c0,0.414,0.336,0.75,0.75,0.75h2.696
		c0.414,0,0.75-0.336,0.75-0.75v-2.683C184.838,91.113,184.502,90.777,184.088,90.777z M182.74,93.46
		c-0.33,0-0.598-0.266-0.598-0.592s0.268-0.591,0.598-0.591s0.598,0.265,0.598,0.591S183.069,93.46,182.74,93.46z"/>
	<path style="fill:#C7A26F;" d="M191.668,90.777h-2.696c-0.414,0-0.75,0.336-0.75,0.75v2.683c0,0.414,0.336,0.75,0.75,0.75h2.696
		c0.414,0,0.75-0.336,0.75-0.75v-2.683C192.418,91.113,192.083,90.777,191.668,90.777z M190.321,93.46
		c-0.33,0-0.598-0.266-0.598-0.592s0.269-0.591,0.598-0.591s0.598,0.265,0.598,0.591S190.65,93.46,190.321,93.46z"/>
	<path style="fill:#C7A26F;" d="M200,92.863v-1.336c0-0.414-0.336-0.75-0.75-0.75h-2.696c-0.414,0-0.75,0.336-0.75,0.75v2.683
		c0,0.414,0.336,0.75,0.75,0.75h2.696c0.414,0,0.75-0.336,0.75-0.75v-1.337c0-0.002,0-0.003,0-0.005S200,92.865,200,92.863z
		 M197.902,93.46c-0.33,0-0.598-0.266-0.598-0.592s0.268-0.591,0.598-0.591c0.329,0,0.597,0.263,0.598,0.588v0.005
		C198.499,93.195,198.231,93.46,197.902,93.46z"/>
	<path style="fill:#C7A26F;" d="M206.831,90.777h-2.696c-0.414,0-0.75,0.336-0.75,0.75v2.683c0,0.414,0.336,0.75,0.75,0.75h2.696
		c0.414,0,0.75-0.336,0.75-0.75v-2.683C207.581,91.113,207.245,90.777,206.831,90.777z M205.483,93.46
		c-0.33,0-0.598-0.266-0.598-0.592s0.269-0.591,0.598-0.591s0.598,0.265,0.598,0.591S205.812,93.46,205.483,93.46z"/>
	<path style="fill:#C7A26F;" d="M214.412,90.777h-2.696c-0.414,0-0.75,0.336-0.75,0.75v2.683c0,0.414,0.336,0.75,0.75,0.75h2.696
		c0.414,0,0.75-0.336,0.75-0.75v-2.683C215.162,91.113,214.826,90.777,214.412,90.777z M213.063,93.46
		c-0.33,0-0.598-0.266-0.598-0.592s0.269-0.591,0.598-0.591s0.598,0.265,0.598,0.591S213.393,93.46,213.063,93.46z"/>
	<path style="fill:#C7A26F;" d="M221.992,90.777h-2.696c-0.414,0-0.75,0.336-0.75,0.75v2.683c0,0.414,0.336,0.75,0.75,0.75h2.696
		c0.414,0,0.75-0.336,0.75-0.75v-2.683C222.742,91.113,222.406,90.777,221.992,90.777z M220.644,93.46
		c-0.33,0-0.598-0.266-0.598-0.592s0.268-0.591,0.598-0.591s0.598,0.265,0.598,0.591S220.974,93.46,220.644,93.46z"/>
	<path style="fill:#C7A26F;" d="M229.574,90.777h-2.696c-0.414,0-0.75,0.336-0.75,0.75v2.683c0,0.414,0.336,0.75,0.75,0.75h2.696
		c0.414,0,0.75-0.336,0.75-0.75v-2.683C230.324,91.113,229.988,90.777,229.574,90.777z M228.226,93.46
		c-0.33,0-0.599-0.266-0.599-0.592s0.269-0.591,0.599-0.591c0.33,0,0.598,0.265,0.598,0.591S228.556,93.46,228.226,93.46z"/>
	<path style="fill:#C7A26F;" d="M237.154,90.777h-2.696c-0.414,0-0.75,0.336-0.75,0.75v2.683c0,0.414,0.336,0.75,0.75,0.75h2.696
		c0.414,0,0.75-0.336,0.75-0.75v-2.683C237.904,91.113,237.568,90.777,237.154,90.777z M235.806,93.46
		c-0.33,0-0.598-0.266-0.598-0.592s0.269-0.591,0.598-0.591s0.598,0.265,0.598,0.591S236.136,93.46,235.806,93.46z"/>
	<path style="fill:#C7A26F;" d="M244.735,90.777h-2.696c-0.414,0-0.75,0.336-0.75,0.75v2.683c0,0.414,0.336,0.75,0.75,0.75h2.696
		c0.414,0,0.75-0.336,0.75-0.75v-2.683C245.485,91.113,245.149,90.777,244.735,90.777z M243.387,93.46
		c-0.33,0-0.598-0.266-0.598-0.592s0.269-0.591,0.598-0.591s0.598,0.265,0.598,0.591S243.717,93.46,243.387,93.46z"/>
	<path style="fill:#C7A26F;" d="M252.237,90.777h-2.696c-0.414,0-0.75,0.336-0.75,0.75v2.683c0,0.414,0.336,0.75,0.75,0.75h2.696
		c0.414,0,0.75-0.336,0.75-0.75v-2.683C252.987,91.113,252.651,90.777,252.237,90.777z M250.889,93.46
		c-0.33,0-0.598-0.266-0.598-0.592s0.269-0.591,0.598-0.591s0.598,0.265,0.598,0.591S251.219,93.46,250.889,93.46z"/>
	<path style="fill:#C7A26F;" d="M259.818,90.777h-2.696c-0.414,0-0.75,0.336-0.75,0.75v2.683c0,0.414,0.336,0.75,0.75,0.75h2.696
		c0.414,0,0.75-0.336,0.75-0.75v-2.683C260.568,91.113,260.232,90.777,259.818,90.777z M258.47,93.46
		c-0.33,0-0.598-0.266-0.598-0.592s0.269-0.591,0.598-0.591s0.598,0.265,0.598,0.591S258.8,93.46,258.47,93.46z"/>
	<path style="fill:#C7A26F;" d="M267.399,90.777h-2.696c-0.414,0-0.75,0.336-0.75,0.75v2.683c0,0.414,0.336,0.75,0.75,0.75h2.696
		c0.414,0,0.75-0.336,0.75-0.75v-2.683C268.149,91.113,267.813,90.777,267.399,90.777z M266.051,93.46
		c-0.33,0-0.598-0.266-0.598-0.592s0.269-0.591,0.598-0.591s0.598,0.265,0.598,0.591S266.38,93.46,266.051,93.46z"/>
	<path style="fill:#C7A26F;" d="M274.98,90.777h-2.696c-0.414,0-0.75,0.336-0.75,0.75v2.683c0,0.414,0.336,0.75,0.75,0.75h2.696
		c0.414,0,0.75-0.336,0.75-0.75v-2.683C275.73,91.113,275.394,90.777,274.98,90.777z M273.632,93.46
		c-0.33,0-0.599-0.266-0.599-0.592s0.269-0.591,0.599-0.591c0.33,0,0.598,0.265,0.598,0.591S273.962,93.46,273.632,93.46z"/>
	<path style="fill:#C7A26F;" d="M283.311,92.863v-1.336c0-0.414-0.336-0.75-0.75-0.75h-2.696c-0.414,0-0.75,0.336-0.75,0.75v2.683
		c0,0.414,0.336,0.75,0.75,0.75h2.696c0.414,0,0.75-0.336,0.75-0.75v-1.337c0-0.002,0-0.003,0-0.005S283.311,92.865,283.311,92.863z
		 M281.212,93.46c-0.33,0-0.598-0.266-0.598-0.592s0.268-0.591,0.598-0.591c0.329,0,0.597,0.263,0.598,0.588v0.005
		C281.809,93.195,281.542,93.46,281.212,93.46z"/>
	<path style="fill:#C7A26F;" d="M290.142,90.777h-2.696c-0.414,0-0.75,0.336-0.75,0.75v2.683c0,0.414,0.336,0.75,0.75,0.75h2.696
		c0.414,0,0.75-0.336,0.75-0.75v-2.683C290.892,91.113,290.556,90.777,290.142,90.777z M288.793,93.46
		c-0.33,0-0.598-0.266-0.598-0.592s0.268-0.591,0.598-0.591s0.598,0.265,0.598,0.591S289.123,93.46,288.793,93.46z"/>
	<path style="fill:#C7A26F;" d="M297.723,90.777h-2.696c-0.414,0-0.75,0.336-0.75,0.75v2.683c0,0.414,0.336,0.75,0.75,0.75h2.696
		c0.414,0,0.75-0.336,0.75-0.75v-2.683C298.473,91.113,298.137,90.777,297.723,90.777z M296.375,93.46
		c-0.33,0-0.598-0.266-0.598-0.592s0.269-0.591,0.598-0.591s0.598,0.265,0.598,0.591S296.704,93.46,296.375,93.46z"/>
	<path style="fill:#C7A26F;" d="M305.304,90.777h-2.696c-0.414,0-0.75,0.336-0.75,0.75v2.683c0,0.414,0.336,0.75,0.75,0.75h2.696
		c0.414,0,0.75-0.336,0.75-0.75v-2.683C306.054,91.113,305.718,90.777,305.304,90.777z M303.956,93.46
		c-0.33,0-0.598-0.266-0.598-0.592s0.269-0.591,0.598-0.591s0.598,0.265,0.598,0.591S304.285,93.46,303.956,93.46z"/>
	<path style="fill:#C7A26F;" d="M312.884,90.777h-2.696c-0.414,0-0.75,0.336-0.75,0.75v2.683c0,0.414,0.336,0.75,0.75,0.75h2.696
		c0.414,0,0.75-0.336,0.75-0.75v-2.683C313.634,91.113,313.298,90.777,312.884,90.777z M311.537,93.46
		c-0.33,0-0.598-0.266-0.598-0.592s0.269-0.591,0.598-0.591s0.598,0.265,0.598,0.591S311.866,93.46,311.537,93.46z"/>
	<path style="fill:#C7A26F;" d="M320.465,90.777h-2.696c-0.414,0-0.75,0.336-0.75,0.75v2.683c0,0.414,0.336,0.75,0.75,0.75h2.696
		c0.414,0,0.75-0.336,0.75-0.75v-2.683C321.215,91.113,320.879,90.777,320.465,90.777z M319.117,93.46
		c-0.33,0-0.598-0.266-0.598-0.592s0.269-0.591,0.598-0.591s0.598,0.265,0.598,0.591S319.447,93.46,319.117,93.46z"/>
	<path style="fill:#C7A26F;" d="M328.796,92.863v-1.336c0-0.414-0.336-0.75-0.75-0.75h-2.696c-0.414,0-0.75,0.336-0.75,0.75v2.683
		c0,0.414,0.336,0.75,0.75,0.75h2.696c0.414,0,0.75-0.336,0.75-0.75v-1.337c0-0.002,0-0.003,0-0.005S328.796,92.865,328.796,92.863z
		 M326.698,93.46c-0.33,0-0.598-0.266-0.598-0.592s0.268-0.591,0.598-0.591c0.329,0,0.597,0.263,0.598,0.588v0.005
		C327.294,93.195,327.027,93.46,326.698,93.46z"/>
	<path style="fill:#C7A26F;" d="M335.626,90.777h-2.696c-0.414,0-0.75,0.336-0.75,0.75v1.336c0,0.002,0,0.003,0,0.005
		s0,0.003,0,0.005v1.337c0,0.414,0.336,0.75,0.75,0.75h2.696c0.414,0,0.75-0.336,0.75-0.75v-2.683
		C336.376,91.113,336.041,90.777,335.626,90.777z M334.278,93.46c-0.329,0-0.596-0.264-0.598-0.589v-0.005
		c0.001-0.325,0.269-0.588,0.598-0.588c0.33,0,0.598,0.265,0.598,0.591S334.608,93.46,334.278,93.46z"/>
	<path style="fill:#C7A26F;" d="M343.208,90.777h-2.696c-0.414,0-0.75,0.336-0.75,0.75v2.683c0,0.414,0.336,0.75,0.75,0.75h2.696
		c0.414,0,0.75-0.336,0.75-0.75v-2.683C343.958,91.113,343.622,90.777,343.208,90.777z M341.859,93.46
		c-0.33,0-0.598-0.266-0.598-0.592s0.269-0.591,0.598-0.591s0.598,0.265,0.598,0.591S342.189,93.46,341.859,93.46z"/>
	<path style="fill:#C7A26F;" d="M350.789,90.777h-2.696c-0.414,0-0.75,0.336-0.75,0.75v2.683c0,0.414,0.336,0.75,0.75,0.75h2.696
		c0.414,0,0.75-0.336,0.75-0.75v-2.683C351.539,91.113,351.203,90.777,350.789,90.777z M348.843,92.868
		c0-0.326,0.269-0.591,0.598-0.591s0.598,0.265,0.598,0.591s-0.268,0.592-0.598,0.592S348.843,93.194,348.843,92.868z"/>
	<path style="fill:#C7A26F;" d="M358.37,90.777h-2.696c-0.414,0-0.75,0.336-0.75,0.75v2.683c0,0.414,0.336,0.75,0.75,0.75h2.696
		c0.414,0,0.75-0.336,0.75-0.75v-2.683C359.12,91.113,358.784,90.777,358.37,90.777z M357.021,93.46
		c-0.33,0-0.598-0.266-0.598-0.592s0.269-0.591,0.598-0.591s0.598,0.265,0.598,0.591S357.351,93.46,357.021,93.46z"/>
	<path style="fill:#C7A26F;" d="M366.7,92.863v-1.336c0-0.414-0.336-0.75-0.75-0.75h-2.696c-0.414,0-0.75,0.336-0.75,0.75v2.683
		c0,0.414,0.336,0.75,0.75,0.75h2.696c0.414,0,0.75-0.336,0.75-0.75v-1.337c0-0.002,0-0.003,0-0.005S366.7,92.865,366.7,92.863z
		 M364.602,93.46c-0.33,0-0.598-0.266-0.598-0.592s0.268-0.591,0.598-0.591c0.329,0,0.597,0.263,0.598,0.588v0.005
		C365.199,93.195,364.931,93.46,364.602,93.46z"/>
	<path style="fill:#C7A26F;" d="M373.531,90.777h-2.696c-0.414,0-0.75,0.336-0.75,0.75v2.683c0,0.414,0.336,0.75,0.75,0.75h2.696
		c0.414,0,0.75-0.336,0.75-0.75v-2.683C374.281,91.113,373.945,90.777,373.531,90.777z M372.183,93.46
		c-0.33,0-0.598-0.266-0.598-0.592s0.269-0.591,0.598-0.591s0.598,0.265,0.598,0.591S372.513,93.46,372.183,93.46z"/>
	<path style="fill:#C7A26F;" d="M381.862,92.863v-1.336c0-0.414-0.336-0.75-0.75-0.75h-2.696c-0.414,0-0.75,0.336-0.75,0.75v2.683
		c0,0.414,0.336,0.75,0.75,0.75h2.696c0.414,0,0.75-0.336,0.75-0.75v-1.337c0-0.002,0-0.003,0-0.005S381.862,92.865,381.862,92.863z
		 M379.764,93.46c-0.33,0-0.598-0.266-0.598-0.592s0.268-0.591,0.598-0.591c0.329,0,0.597,0.263,0.598,0.588v0.005
		C380.361,93.195,380.093,93.46,379.764,93.46z"/>
	<path style="fill:#C7A26F;" d="M388.693,90.777h-2.696c-0.414,0-0.75,0.336-0.75,0.75v2.683c0,0.414,0.336,0.75,0.75,0.75h2.696
		c0.414,0,0.75-0.336,0.75-0.75v-2.683C389.443,91.113,389.107,90.777,388.693,90.777z M387.345,93.46
		c-0.33,0-0.599-0.266-0.599-0.592s0.269-0.591,0.599-0.591c0.33,0,0.598,0.265,0.598,0.591S387.675,93.46,387.345,93.46z"/>
	<path style="fill:#C7A26F;" d="M397.023,92.863v-1.336c0-0.414-0.336-0.75-0.75-0.75h-2.696c-0.414,0-0.75,0.336-0.75,0.75v2.683
		c0,0.414,0.336,0.75,0.75,0.75h2.696c0.414,0,0.75-0.336,0.75-0.75v-1.337c0-0.002,0-0.003,0-0.005S397.023,92.865,397.023,92.863z
		 M394.926,93.46c-0.33,0-0.598-0.266-0.598-0.592s0.269-0.591,0.598-0.591c0.329,0,0.596,0.263,0.598,0.588v0.005
		C395.522,93.195,395.254,93.46,394.926,93.46z"/>
	<path style="fill:#C7A26F;" d="M404.337,92.863v-1.336c0-0.414-0.336-0.75-0.75-0.75h-2.696c-0.414,0-0.75,0.336-0.75,0.75v2.683
		c0,0.414,0.336,0.75,0.75,0.75h2.696c0.414,0,0.75-0.336,0.75-0.75v-1.337c0-0.002,0-0.003,0-0.005S404.337,92.865,404.337,92.863z
		 M402.239,93.46c-0.33,0-0.598-0.266-0.598-0.592s0.268-0.591,0.598-0.591c0.329,0,0.597,0.263,0.598,0.588v0.005
		C402.835,93.195,402.568,93.46,402.239,93.46z"/>
	<path style="fill:#C7A26F;" d="M411.167,90.777h-2.696c-0.414,0-0.75,0.336-0.75,0.75v2.683c0,0.414,0.336,0.75,0.75,0.75h2.696
		c0.414,0,0.75-0.336,0.75-0.75v-2.683C411.917,91.113,411.582,90.777,411.167,90.777z M409.82,93.46
		c-0.33,0-0.598-0.266-0.598-0.592s0.269-0.591,0.598-0.591s0.598,0.265,0.598,0.591S410.149,93.46,409.82,93.46z"/>
	<path style="fill:#C7A26F;" d="M418.749,90.777h-2.696c-0.414,0-0.75,0.336-0.75,0.75v2.683c0,0.414,0.336,0.75,0.75,0.75h2.696
		c0.414,0,0.75-0.336,0.75-0.75v-2.683C419.499,91.113,419.163,90.777,418.749,90.777z M417.401,93.46
		c-0.33,0-0.599-0.266-0.599-0.592s0.269-0.591,0.599-0.591c0.33,0,0.598,0.265,0.598,0.591S417.73,93.46,417.401,93.46z"/>
	<path style="fill:#C7A26F;" d="M426.33,90.777h-2.696c-0.414,0-0.75,0.336-0.75,0.75v1.336c0,0.002,0,0.003,0,0.005
		s0,0.003,0,0.005v1.337c0,0.414,0.336,0.75,0.75,0.75h2.696c0.414,0,0.75-0.336,0.75-0.75v-2.683
		C427.08,91.113,426.744,90.777,426.33,90.777z M424.384,92.87v-0.005c0.001-0.325,0.269-0.588,0.598-0.588
		c0.33,0,0.598,0.265,0.598,0.591s-0.268,0.592-0.598,0.592C424.653,93.46,424.385,93.195,424.384,92.87z"/>
	<path style="fill:#C7A26F;" d="M433.911,90.777h-2.696c-0.414,0-0.75,0.336-0.75,0.75v2.683c0,0.414,0.336,0.75,0.75,0.75h2.696
		c0.414,0,0.75-0.336,0.75-0.75v-2.683C434.661,91.113,434.325,90.777,433.911,90.777z M432.562,93.46
		c-0.33,0-0.598-0.266-0.598-0.592s0.269-0.591,0.598-0.591s0.598,0.265,0.598,0.591S432.892,93.46,432.562,93.46z"/>
	<path style="fill:#C7A26F;" d="M441.491,90.777h-2.696c-0.414,0-0.75,0.336-0.75,0.75v2.683c0,0.414,0.336,0.75,0.75,0.75h2.696
		c0.414,0,0.75-0.336,0.75-0.75v-2.683C442.241,91.113,441.905,90.777,441.491,90.777z M440.143,93.46
		c-0.33,0-0.598-0.266-0.598-0.592s0.268-0.591,0.598-0.591s0.598,0.265,0.598,0.591S440.473,93.46,440.143,93.46z"/>
	<path style="fill:#C7A26F;" d="M449.072,90.777h-2.696c-0.414,0-0.75,0.336-0.75,0.75v2.683c0,0.414,0.336,0.75,0.75,0.75h2.696
		c0.414,0,0.75-0.336,0.75-0.75v-2.683C449.822,91.113,449.486,90.777,449.072,90.777z M447.724,93.46
		c-0.33,0-0.598-0.266-0.598-0.592s0.269-0.591,0.598-0.591s0.598,0.265,0.598,0.591S448.054,93.46,447.724,93.46z"/>
	<path style="fill:#C7A26F;" d="M456.653,90.777h-2.696c-0.414,0-0.75,0.336-0.75,0.75v2.683c0,0.414,0.336,0.75,0.75,0.75h2.696
		c0.414,0,0.75-0.336,0.75-0.75v-2.683C457.403,91.113,457.067,90.777,456.653,90.777z M455.305,93.46
		c-0.33,0-0.598-0.266-0.598-0.592s0.268-0.591,0.598-0.591s0.598,0.265,0.598,0.591S455.635,93.46,455.305,93.46z"/>
	<path style="fill:#C7A26F;" d="M464.234,90.777h-2.696c-0.414,0-0.75,0.336-0.75,0.75v2.683c0,0.414,0.336,0.75,0.75,0.75h2.696
		c0.414,0,0.75-0.336,0.75-0.75v-2.683C464.984,91.113,464.648,90.777,464.234,90.777z M462.886,93.46
		c-0.33,0-0.598-0.266-0.598-0.592s0.269-0.591,0.598-0.591s0.598,0.265,0.598,0.591S463.216,93.46,462.886,93.46z"/>
	<path style="fill:#C7A26F;" d="M471.815,90.777h-2.696c-0.414,0-0.75,0.336-0.75,0.75v2.683c0,0.414,0.336,0.75,0.75,0.75h2.696
		c0.414,0,0.75-0.336,0.75-0.75v-2.683C472.565,91.113,472.229,90.777,471.815,90.777z M470.467,93.46
		c-0.33,0-0.598-0.266-0.598-0.592s0.269-0.591,0.598-0.591s0.598,0.265,0.598,0.591S470.797,93.46,470.467,93.46z"/>
	<path style="fill:#C7A26F;" d="M479.396,90.777H476.7c-0.414,0-0.75,0.336-0.75,0.75v2.683c0,0.414,0.336,0.75,0.75,0.75h2.696
		c0.414,0,0.75-0.336,0.75-0.75v-2.683C480.146,91.113,479.81,90.777,479.396,90.777z M478.047,93.46
		c-0.33,0-0.598-0.266-0.598-0.592s0.268-0.591,0.598-0.591c0.33,0,0.599,0.265,0.599,0.591S478.377,93.46,478.047,93.46z"/>
	<path style="fill:#C7A26F;" d="M486.977,90.777h-2.696c-0.414,0-0.75,0.336-0.75,0.75v2.683c0,0.414,0.336,0.75,0.75,0.75h2.696
		c0.414,0,0.75-0.336,0.75-0.75v-2.683C487.727,91.113,487.391,90.777,486.977,90.777z M485.628,93.46
		c-0.33,0-0.598-0.266-0.598-0.592s0.269-0.591,0.598-0.591s0.598,0.265,0.598,0.591S485.958,93.46,485.628,93.46z"/>
	<path style="fill:#C7A26F;" d="M494.557,90.777h-2.696c-0.414,0-0.75,0.336-0.75,0.75v1.336c0,0.002,0,0.003,0,0.005
		s0,0.003,0,0.005v1.337c0,0.414,0.336,0.75,0.75,0.75h2.696c0.414,0,0.75-0.336,0.75-0.75v-2.683
		C495.307,91.113,494.971,90.777,494.557,90.777z M493.209,93.46c-0.329,0-0.596-0.264-0.598-0.589v-0.005
		c0.001-0.325,0.269-0.588,0.598-0.588c0.33,0,0.598,0.265,0.598,0.591S493.539,93.46,493.209,93.46z"/>
	<path style="fill:#C7A26F;" d="M502.139,90.777h-2.696c-0.414,0-0.75,0.336-0.75,0.75v2.683c0,0.414,0.336,0.75,0.75,0.75h2.696
		c0.414,0,0.75-0.336,0.75-0.75v-2.683C502.889,91.113,502.553,90.777,502.139,90.777z M500.791,93.46
		c-0.33,0-0.598-0.266-0.598-0.592s0.268-0.591,0.598-0.591s0.598,0.265,0.598,0.591S501.12,93.46,500.791,93.46z"/>
	<path style="fill:#C7A26F;" d="M509.72,90.777h-2.696c-0.414,0-0.75,0.336-0.75,0.75v1.336c0,0.002,0,0.003,0,0.005
		s0,0.003,0,0.005v1.337c0,0.414,0.336,0.75,0.75,0.75h2.696c0.414,0,0.75-0.336,0.75-0.75v-2.683
		C510.47,91.113,510.134,90.777,509.72,90.777z M507.773,92.87v-0.005c0.001-0.325,0.269-0.588,0.598-0.588
		c0.33,0,0.598,0.265,0.598,0.591s-0.268,0.592-0.598,0.592C508.042,93.46,507.775,93.195,507.773,92.87z"/>
	<path style="fill:#C7A26F;" d="M517.3,90.777h-2.696c-0.414,0-0.75,0.336-0.75,0.75v2.683c0,0.414,0.336,0.75,0.75,0.75h2.696
		c0.414,0,0.75-0.336,0.75-0.75v-2.683C518.05,91.113,517.714,90.777,517.3,90.777z M515.952,93.46c-0.33,0-0.598-0.266-0.598-0.592
		s0.268-0.591,0.598-0.591c0.33,0,0.599,0.265,0.599,0.591S516.282,93.46,515.952,93.46z"/>
	<path style="fill:#C7A26F;" d="M524.881,90.777h-2.696c-0.414,0-0.75,0.336-0.75,0.75v2.683c0,0.414,0.336,0.75,0.75,0.75h2.696
		c0.414,0,0.75-0.336,0.75-0.75v-2.683C525.631,91.113,525.295,90.777,524.881,90.777z M523.533,93.46
		c-0.33,0-0.598-0.266-0.598-0.592s0.268-0.591,0.598-0.591s0.598,0.265,0.598,0.591S523.862,93.46,523.533,93.46z"/>
	<path style="fill:#C7A26F;" d="M532.462,90.777h-2.696c-0.414,0-0.75,0.336-0.75,0.75v2.683c0,0.414,0.336,0.75,0.75,0.75h2.696
		c0.414,0,0.75-0.336,0.75-0.75v-2.683C533.212,91.113,532.876,90.777,532.462,90.777z M531.114,93.46
		c-0.33,0-0.598-0.266-0.598-0.592s0.269-0.591,0.598-0.591s0.598,0.265,0.598,0.591S531.444,93.46,531.114,93.46z"/>
	<path style="fill:#C7A26F;" d="M540.043,90.777h-2.696c-0.414,0-0.75,0.336-0.75,0.75v2.683c0,0.414,0.336,0.75,0.75,0.75h2.696
		c0.414,0,0.75-0.336,0.75-0.75v-2.683C540.793,91.113,540.457,90.777,540.043,90.777z M538.695,93.46
		c-0.33,0-0.598-0.266-0.598-0.592s0.269-0.591,0.598-0.591s0.598,0.265,0.598,0.591S539.024,93.46,538.695,93.46z"/>
	<path style="fill:#C7A26F;" d="M547.624,90.777h-2.696c-0.414,0-0.75,0.336-0.75,0.75v2.683c0,0.414,0.336,0.75,0.75,0.75h2.696
		c0.414,0,0.75-0.336,0.75-0.75v-2.683C548.374,91.113,548.038,90.777,547.624,90.777z M546.275,93.46
		c-0.33,0-0.598-0.266-0.598-0.592s0.269-0.591,0.598-0.591s0.598,0.265,0.598,0.591S546.605,93.46,546.275,93.46z"/>
</g>
</svg>
