<?xml version="1.0" encoding="iso-8859-1"?>
<!-- Generator: Adobe Illustrator 24.2.3, SVG Export Plug-In . SVG Version: 6.00 Build 0)  -->
<svg version="1.1" id="&#x5716;&#x5C64;_1" xmlns="http://www.w3.org/2000/svg" xmlns:xlink="http://www.w3.org/1999/xlink" x="0px"
	 y="0px" viewBox="0 0 1506.978 151.027" style="enable-background:new 0 0 1506.978 151.027;" xml:space="preserve">
<g>
	<path style="fill:#C7A26F;" d="M1497.089,44.278l-2.995-0.69c-0.394-0.09-0.786,0.145-0.892,0.534l-8.016,29.367
		c-0.054,0.197-0.025,0.407,0.08,0.583c0.105,0.175,0.276,0.3,0.476,0.346l5.388,1.239c0.056,0.013,0.112,0.019,0.168,0.019
		c0.145,0,0.288-0.042,0.411-0.123c0.171-0.112,0.289-0.288,0.327-0.489l5.624-29.916
		C1497.732,44.752,1497.481,44.369,1497.089,44.278z M1490.705,74.019l-3.866-0.889l7.621-27.918l1.591,0.367L1490.705,74.019z"/>
	<path style="fill:#C7A26F;" d="M1470.356,66.988c0.045,0.199,0.169,0.372,0.343,0.478l4.729,2.864
		c0.119,0.071,0.253,0.108,0.389,0.108c0.065,0,0.13-0.008,0.193-0.025c0.197-0.053,0.365-0.184,0.463-0.362l14.709-26.649
		c0.194-0.352,0.076-0.795-0.268-1.004l-2.628-1.592c-0.345-0.208-0.792-0.108-1.014,0.228l-16.81,25.377
		C1470.351,66.58,1470.312,66.789,1470.356,66.988z M1488.126,42.461l1.396,0.846l-13.984,25.335l-3.393-2.055L1488.126,42.461z"/>
	<path style="fill:#C7A26F;" d="M1459.105,56.811c-0.01,0.204,0.064,0.403,0.205,0.551l3.806,4.01
		c0.141,0.148,0.335,0.232,0.54,0.234c0.001,0,0.003,0,0.004,0c0.203,0,0.396-0.082,0.538-0.227l21.221-21.824
		c0.281-0.289,0.284-0.747,0.006-1.039l-2.117-2.232c-0.278-0.293-0.737-0.313-1.038-0.048l-22.909,20.046
		C1459.207,56.416,1459.114,56.607,1459.105,56.811z M1482.715,37.838l1.125,1.187l-20.174,20.748l-2.73-2.877L1482.715,37.838z"/>
	<path style="fill:#C7A26F;" d="M1451.005,44.013c-0.062,0.195-0.041,0.406,0.058,0.585l2.656,4.848
		c0.098,0.179,0.265,0.311,0.462,0.364c0.064,0.017,0.13,0.026,0.196,0.026c0.135,0,0.269-0.037,0.387-0.107l26.083-15.694
		c0.345-0.208,0.464-0.65,0.271-1.003l-1.476-2.695c-0.193-0.353-0.63-0.49-0.991-0.312l-27.264,13.542
		C1451.204,43.656,1451.066,43.818,1451.005,44.013z M1478.672,31.688l0.783,1.431l-24.797,14.92l-1.906-3.478L1478.672,31.688z"/>
	<path style="fill:#C7A26F;" d="M1506.978,1153.292l-0.442-1138.465c0-0.414-0.336-0.75-0.75-0.75H912.414H1.192
		c-0.414,0-0.75,0.335-0.75,0.75L0,1153.292c0,0,0,0.001,0,0.001c0,0.001,0,0.001,0,0.001l0.442,128.79
		c0.001,0.413,0.337,0.747,0.75,0.747h593.372h911.222c0.413,0,0.749-0.334,0.75-0.747l0.442-128.79c0,0,0-0.001,0-0.001
		C1506.977,1153.293,1506.978,1153.293,1506.978,1153.292z M594.564,1281.333H1.94L1.5,1153.29L1.942,15.578h910.472h592.622
		l0.441,1137.712l-0.439,128.043H594.564z"/>
	<path style="fill:#C7A26F;" d="M1501.412,32.352h-13.15v-13.15c0-0.414-0.336-0.75-0.75-0.75H576.29H19.466
		c-0.414,0-0.75,0.336-0.75,0.75v13.15H5.566c-0.414,0-0.75,0.336-0.75,0.75v1101.284v129.422c0,0.414,0.336,0.75,0.75,0.75h13.15
		v13.15c0,0.414,0.336,0.75,0.75,0.75H576.29h911.222c0.414,0,0.75-0.336,0.75-0.75v-13.15h13.15c0.414,0,0.75-0.336,0.75-0.75
		v-129.422V33.102C1502.162,32.688,1501.826,32.352,1501.412,32.352z M1500.662,1263.058h-13.15c-0.414,0-0.75,0.336-0.75,0.75
		v13.15H576.29H20.216v-13.15c0-0.414-0.336-0.75-0.75-0.75H6.316v-128.672V33.852h13.15c0.414,0,0.75-0.336,0.75-0.75v-13.15
		H576.29h910.472v13.15c0,0.414,0.336,0.75,0.75,0.75h13.15v1100.534V1263.058z"/>
	<path style="fill:#C7A26F;" d="M15.27,75.552c0.123,0.081,0.266,0.123,0.411,0.123c0.056,0,0.112-0.006,0.168-0.019l5.388-1.239
		c0.199-0.046,0.371-0.171,0.476-0.346c0.105-0.175,0.134-0.386,0.08-0.583l-8.016-29.367c-0.106-0.389-0.499-0.624-0.892-0.534
		l-2.996,0.69c-0.392,0.09-0.643,0.474-0.569,0.87l5.624,29.916C14.981,75.264,15.099,75.44,15.27,75.552z M12.519,45.212
		l7.621,27.918l-3.866,0.889l-5.347-28.44L12.519,45.212z"/>
	<path style="fill:#C7A26F;" d="M30.504,70.05c0.099,0.179,0.266,0.31,0.463,0.362c0.063,0.017,0.128,0.025,0.193,0.025
		c0.136,0,0.271-0.037,0.389-0.108l4.729-2.864c0.174-0.106,0.298-0.278,0.343-0.478c0.044-0.199,0.006-0.408-0.106-0.578
		l-16.81-25.377c-0.223-0.336-0.67-0.436-1.014-0.228l-2.628,1.592c-0.344,0.208-0.462,0.652-0.268,1.004L30.504,70.05z
		 M18.852,42.461l15.98,24.126l-3.393,2.055L17.456,43.307L18.852,42.461z"/>
	<path style="fill:#C7A26F;" d="M42.781,61.379c0.141,0.145,0.335,0.227,0.538,0.227c0.001,0,0.003,0,0.004,0
		c0.204-0.001,0.399-0.085,0.54-0.234l3.806-4.01c0.141-0.148,0.215-0.347,0.205-0.551c-0.009-0.204-0.102-0.396-0.255-0.53
		L24.708,36.235c-0.302-0.265-0.76-0.245-1.038,0.048l-2.117,2.232c-0.277,0.292-0.274,0.75,0.006,1.039L42.781,61.379z
		 M24.263,37.838l21.779,19.058l-2.73,2.877L23.138,39.025L24.263,37.838z"/>
	<path style="fill:#C7A26F;" d="M26.132,34.033l26.083,15.694c0.118,0.071,0.251,0.107,0.387,0.107c0.065,0,0.131-0.009,0.196-0.026
		c0.197-0.053,0.364-0.185,0.462-0.364l2.656-4.848c0.098-0.179,0.119-0.39,0.058-0.585c-0.061-0.195-0.199-0.356-0.382-0.447
		L28.328,30.024c-0.359-0.179-0.798-0.041-0.991,0.312l-1.476,2.695C25.667,33.383,25.787,33.826,26.132,34.033z M28.306,31.688
		l25.919,12.874l-1.906,3.478l-24.797-14.92L28.306,31.688z"/>
	<path style="fill:#C7A26F;" d="M727.284,120.329c0.062,0.194,0.202,0.355,0.385,0.445l4.967,2.429
		c0.104,0.051,0.216,0.076,0.33,0.076c0.087,0,0.174-0.015,0.258-0.045c0.191-0.07,0.346-0.216,0.429-0.402l12.264-27.859
		c0.162-0.368,0.004-0.799-0.357-0.976l-2.761-1.352c-0.361-0.176-0.798-0.037-0.989,0.317l-14.47,26.782
		C727.241,119.923,727.222,120.134,727.284,120.329z M742.785,94.308l1.467,0.718l-11.66,26.486l-3.563-1.743L742.785,94.308z"/>
	<path style="fill:#C7A26F;" d="M742.716,126.22c0.12,0.166,0.302,0.274,0.504,0.302l5.477,0.752
		c0.034,0.004,0.068,0.007,0.102,0.007c0.168,0,0.332-0.056,0.465-0.162c0.16-0.127,0.262-0.313,0.281-0.517l2.92-30.299
		c0.039-0.4-0.246-0.76-0.645-0.815l-3.044-0.418c-0.399-0.047-0.77,0.215-0.84,0.611l-5.353,29.965
		C742.548,125.848,742.596,126.055,742.716,126.22z M749.287,96.655l1.617,0.222l-2.776,28.805l-3.93-0.54L749.287,96.655z"/>
	<path style="fill:#C7A26F;" d="M757.858,127.159c0.134,0.107,0.299,0.165,0.469,0.165c0.032,0,0.065-0.002,0.098-0.006l5.483-0.719
		c0.202-0.026,0.385-0.134,0.506-0.299s0.17-0.371,0.135-0.572l-5.175-29.998c-0.069-0.397-0.447-0.672-0.836-0.616l-3.05,0.399
		c-0.399,0.052-0.686,0.41-0.65,0.811l2.742,30.318C757.598,126.845,757.699,127.032,757.858,127.159z M758.018,96.693l4.92,28.519
		l-3.935,0.516l-2.607-28.823L758.018,96.693z"/>
	<path style="fill:#C7A26F;" d="M772.247,123.531c0.07,0.192,0.214,0.347,0.401,0.43c0.097,0.043,0.2,0.064,0.304,0.064
		c0.097,0,0.193-0.019,0.284-0.056l5.117-2.095c0.189-0.077,0.338-0.228,0.413-0.418s0.07-0.402-0.015-0.587l-10.82-23.676
		c0.125-0.041,0.244-0.104,0.337-0.211l38.763-44.961c0.13-0.151,0.195-0.347,0.18-0.545c-0.015-0.198-0.108-0.383-0.258-0.513
		l-0.423-0.365c-0.313-0.27-0.788-0.234-1.058,0.079L767.042,95.25l-0.944-2.067c-0.167-0.366-0.592-0.534-0.966-0.383l-2.845,1.163
		c-0.373,0.152-0.559,0.572-0.421,0.95L772.247,123.531z M765.033,94.461l12.028,26.32l-3.671,1.503l-9.868-27.206L765.033,94.461z"
		/>
	<path style="fill:#C7A26F;" d="M735.942,88.894c0.148,0.172,0.358,0.261,0.569,0.261c0.173,0,0.347-0.06,0.489-0.181l0.847-0.729
		c0.151-0.13,0.244-0.314,0.259-0.513c0.015-0.199-0.05-0.395-0.18-0.545l-31.595-36.692c-0.27-0.313-0.743-0.35-1.058-0.079
		l-0.847,0.729c-0.151,0.129-0.244,0.314-0.259,0.512c-0.015,0.199,0.05,0.395,0.18,0.545L735.942,88.894z"/>
	<path style="fill:#C7A26F;" d="M769.068,88.973c0.142,0.122,0.316,0.181,0.489,0.181c0.211,0,0.42-0.088,0.569-0.261l31.594-36.691
		c0.13-0.151,0.194-0.347,0.18-0.545c-0.015-0.198-0.108-0.383-0.259-0.512l-0.847-0.729c-0.314-0.271-0.787-0.234-1.058,0.079
		l-31.594,36.692c-0.13,0.151-0.194,0.347-0.18,0.545c0.015,0.198,0.108,0.383,0.259,0.513L769.068,88.973z"/>
	<path style="fill:#C7A26F;" d="M698.857,51.475c-0.015,0.198,0.05,0.395,0.18,0.545L737.8,96.981
		c0.148,0.172,0.357,0.26,0.568,0.26c0.173,0,0.347-0.06,0.489-0.182l0.423-0.364c0.151-0.13,0.244-0.314,0.259-0.513
		c0.015-0.198-0.05-0.395-0.18-0.545l-38.763-44.961c-0.269-0.312-0.742-0.35-1.057-0.079l-0.424,0.365
		C698.965,51.092,698.872,51.276,698.857,51.475z"/>
	<path style="fill:#C7A26F;" d="M554.576,48.334c0.414,0,0.75-0.336,0.75-0.75v-2.683c0-0.414-0.336-0.75-0.75-0.75h-2.696
		c-0.414,0-0.75,0.336-0.75,0.75v2.683c0,0.414,0.336,0.75,0.75,0.75H554.576z M553.228,45.651c0.33,0,0.598,0.265,0.598,0.591
		s-0.269,0.591-0.598,0.591s-0.598-0.265-0.598-0.591S552.898,45.651,553.228,45.651z"/>
	<path style="fill:#C7A26F;" d="M562.156,48.334c0.414,0,0.75-0.336,0.75-0.75v-1.336c0-0.002,0-0.003,0-0.005s0-0.003,0-0.005
		v-1.336c0-0.414-0.336-0.75-0.75-0.75h-2.696c-0.414,0-0.75,0.336-0.75,0.75v2.683c0,0.414,0.336,0.75,0.75,0.75H562.156z
		 M560.809,45.651c0.329,0,0.596,0.264,0.598,0.589v0.005c-0.001,0.325-0.269,0.589-0.598,0.589c-0.33,0-0.598-0.265-0.598-0.591
		S560.479,45.651,560.809,45.651z"/>
	<path style="fill:#C7A26F;" d="M569.738,48.334c0.414,0,0.75-0.336,0.75-0.75v-2.683c0-0.414-0.336-0.75-0.75-0.75h-2.696
		c-0.414,0-0.75,0.336-0.75,0.75v2.683c0,0.414,0.336,0.75,0.75,0.75H569.738z M568.39,45.651c0.33,0,0.598,0.265,0.598,0.591
		s-0.269,0.591-0.598,0.591s-0.598-0.265-0.598-0.591S568.06,45.651,568.39,45.651z"/>
	<path style="fill:#C7A26F;" d="M577.318,48.334c0.414,0,0.75-0.336,0.75-0.75v-1.336c0-0.002,0-0.003,0-0.005s0-0.003,0-0.005
		v-1.336c0-0.414-0.336-0.75-0.75-0.75h-2.696c-0.414,0-0.75,0.336-0.75,0.75v2.683c0,0.414,0.336,0.75,0.75,0.75H577.318z
		 M575.971,45.651c0.329,0,0.596,0.264,0.598,0.589v0.005c-0.001,0.325-0.269,0.589-0.598,0.589c-0.33,0-0.598-0.265-0.598-0.591
		S575.641,45.651,575.971,45.651z"/>
	<path style="fill:#C7A26F;" d="M584.899,48.334c0.414,0,0.75-0.336,0.75-0.75v-2.683c0-0.414-0.336-0.75-0.75-0.75h-2.696
		c-0.414,0-0.75,0.336-0.75,0.75v2.683c0,0.414,0.336,0.75,0.75,0.75H584.899z M583.551,45.651c0.33,0,0.598,0.265,0.598,0.591
		s-0.268,0.591-0.598,0.591s-0.598-0.265-0.598-0.591S583.222,45.651,583.551,45.651z"/>
	<path style="fill:#C7A26F;" d="M592.48,48.334c0.414,0,0.75-0.336,0.75-0.75v-2.683c0-0.414-0.336-0.75-0.75-0.75h-2.696
		c-0.414,0-0.75,0.336-0.75,0.75v2.683c0,0.414,0.336,0.75,0.75,0.75H592.48z M591.132,45.651c0.33,0,0.598,0.265,0.598,0.591
		s-0.269,0.591-0.598,0.591s-0.598-0.265-0.598-0.591S590.802,45.651,591.132,45.651z"/>
	<path style="fill:#C7A26F;" d="M600.061,48.334c0.414,0,0.75-0.336,0.75-0.75v-2.683c0-0.414-0.336-0.75-0.75-0.75h-2.696
		c-0.414,0-0.75,0.336-0.75,0.75v2.683c0,0.414,0.336,0.75,0.75,0.75H600.061z M598.712,45.651c0.33,0,0.598,0.265,0.598,0.591
		s-0.269,0.591-0.598,0.591s-0.598-0.265-0.598-0.591S598.383,45.651,598.712,45.651z"/>
	<path style="fill:#C7A26F;" d="M607.642,48.334c0.414,0,0.75-0.336,0.75-0.75v-2.683c0-0.414-0.336-0.75-0.75-0.75h-2.696
		c-0.414,0-0.75,0.336-0.75,0.75v2.683c0,0.414,0.336,0.75,0.75,0.75H607.642z M606.293,45.651c0.33,0,0.598,0.265,0.598,0.591
		s-0.269,0.591-0.598,0.591s-0.598-0.265-0.598-0.591S605.964,45.651,606.293,45.651z"/>
	<path style="fill:#C7A26F;" d="M615.223,48.334c0.414,0,0.75-0.336,0.75-0.75v-1.336c0-0.002,0-0.003,0-0.005s0-0.003,0-0.005
		v-1.336c0-0.414-0.336-0.75-0.75-0.75h-2.696c-0.414,0-0.75,0.336-0.75,0.75v2.683c0,0.414,0.336,0.75,0.75,0.75H615.223z
		 M614.473,46.24v0.005c-0.001,0.325-0.269,0.589-0.598,0.589c-0.33,0-0.598-0.265-0.598-0.591s0.268-0.591,0.598-0.591
		C614.204,45.651,614.471,45.915,614.473,46.24z"/>
	<path style="fill:#C7A26F;" d="M622.804,48.334c0.414,0,0.75-0.336,0.75-0.75v-2.683c0-0.414-0.336-0.75-0.75-0.75h-2.696
		c-0.414,0-0.75,0.336-0.75,0.75v2.683c0,0.414,0.336,0.75,0.75,0.75H622.804z M621.456,45.651c0.33,0,0.598,0.265,0.598,0.591
		s-0.269,0.591-0.598,0.591s-0.598-0.265-0.598-0.591S621.126,45.651,621.456,45.651z"/>
	<path style="fill:#C7A26F;" d="M630.384,48.334c0.414,0,0.75-0.336,0.75-0.75v-2.683c0-0.414-0.336-0.75-0.75-0.75h-2.696
		c-0.414,0-0.75,0.336-0.75,0.75v2.683c0,0.414,0.336,0.75,0.75,0.75H630.384z M629.037,45.651c0.33,0,0.598,0.265,0.598,0.591
		s-0.268,0.591-0.598,0.591s-0.598-0.265-0.598-0.591S628.707,45.651,629.037,45.651z"/>
	<path style="fill:#C7A26F;" d="M637.965,48.334c0.414,0,0.75-0.336,0.75-0.75v-2.683c0-0.414-0.336-0.75-0.75-0.75h-2.696
		c-0.414,0-0.75,0.336-0.75,0.75v2.683c0,0.414,0.336,0.75,0.75,0.75H637.965z M636.617,45.651c0.33,0,0.598,0.265,0.598,0.591
		s-0.269,0.591-0.598,0.591s-0.598-0.265-0.598-0.591S636.288,45.651,636.617,45.651z"/>
	<path style="fill:#C7A26F;" d="M645.546,48.334c0.414,0,0.75-0.336,0.75-0.75v-2.683c0-0.414-0.336-0.75-0.75-0.75h-2.696
		c-0.414,0-0.75,0.336-0.75,0.75v2.683c0,0.414,0.336,0.75,0.75,0.75H645.546z M644.199,45.651c0.33,0,0.598,0.265,0.598,0.591
		s-0.268,0.591-0.598,0.591c-0.33,0-0.599-0.265-0.599-0.591S643.869,45.651,644.199,45.651z"/>
	<path style="fill:#C7A26F;" d="M653.127,48.334c0.414,0,0.75-0.336,0.75-0.75v-2.683c0-0.414-0.336-0.75-0.75-0.75h-2.696
		c-0.414,0-0.75,0.336-0.75,0.75v2.683c0,0.414,0.336,0.75,0.75,0.75H653.127z M651.779,45.651c0.33,0,0.598,0.265,0.598,0.591
		s-0.269,0.591-0.598,0.591s-0.598-0.265-0.598-0.591S651.449,45.651,651.779,45.651z"/>
	<path style="fill:#C7A26F;" d="M660.708,48.334c0.414,0,0.75-0.336,0.75-0.75v-2.683c0-0.414-0.336-0.75-0.75-0.75h-2.696
		c-0.414,0-0.75,0.336-0.75,0.75v2.683c0,0.414,0.336,0.75,0.75,0.75H660.708z M659.36,45.651c0.33,0,0.598,0.265,0.598,0.591
		s-0.269,0.591-0.598,0.591s-0.598-0.265-0.598-0.591S659.03,45.651,659.36,45.651z"/>
	<path style="fill:#C7A26F;" d="M668.289,48.334c0.414,0,0.75-0.336,0.75-0.75v-2.683c0-0.414-0.336-0.75-0.75-0.75h-2.696
		c-0.414,0-0.75,0.336-0.75,0.75v1.336c0,0.002,0,0.003,0,0.005s0,0.003,0,0.005v1.336c0,0.414,0.336,0.75,0.75,0.75H668.289z
		 M666.941,45.651c0.33,0,0.598,0.265,0.598,0.591s-0.268,0.591-0.598,0.591c-0.329,0-0.597-0.264-0.598-0.589V46.24
		C666.344,45.915,666.612,45.651,666.941,45.651z"/>
	<path style="fill:#C7A26F;" d="M675.87,48.334c0.414,0,0.75-0.336,0.75-0.75v-2.683c0-0.414-0.336-0.75-0.75-0.75h-2.696
		c-0.414,0-0.75,0.336-0.75,0.75v2.683c0,0.414,0.336,0.75,0.75,0.75H675.87z M674.521,45.651c0.33,0,0.598,0.265,0.598,0.591
		s-0.269,0.591-0.598,0.591s-0.598-0.265-0.598-0.591S674.192,45.651,674.521,45.651z"/>
	<path style="fill:#C7A26F;" d="M683.45,48.334c0.414,0,0.75-0.336,0.75-0.75v-2.683c0-0.414-0.336-0.75-0.75-0.75h-2.696
		c-0.414,0-0.75,0.336-0.75,0.75v2.683c0,0.414,0.336,0.75,0.75,0.75H683.45z M682.7,46.243c0,0.326-0.268,0.591-0.598,0.591
		s-0.598-0.265-0.598-0.591s0.268-0.591,0.598-0.591S682.7,45.917,682.7,46.243z"/>
	<path style="fill:#C7A26F;" d="M691.032,48.334c0.414,0,0.75-0.336,0.75-0.75v-2.683c0-0.414-0.336-0.75-0.75-0.75h-2.696
		c-0.414,0-0.75,0.336-0.75,0.75v2.683c0,0.414,0.336,0.75,0.75,0.75H691.032z M689.684,45.651c0.33,0,0.598,0.265,0.598,0.591
		s-0.269,0.591-0.598,0.591s-0.598-0.265-0.598-0.591S689.354,45.651,689.684,45.651z"/>
	<path style="fill:#C7A26F;" d="M698.612,48.334c0.414,0,0.75-0.336,0.75-0.75v-1.336c0-0.002,0-0.003,0-0.005s0-0.003,0-0.005
		v-1.336c0-0.414-0.336-0.75-0.75-0.75h-2.696c-0.414,0-0.75,0.336-0.75,0.75v2.683c0,0.414,0.336,0.75,0.75,0.75H698.612z
		 M697.862,46.24v0.005c-0.001,0.325-0.269,0.589-0.598,0.589c-0.33,0-0.598-0.265-0.598-0.591s0.268-0.591,0.598-0.591
		C697.593,45.651,697.861,45.915,697.862,46.24z"/>
	<path style="fill:#C7A26F;" d="M804.828,48.334h2.696c0.414,0,0.75-0.336,0.75-0.75v-1.336c0-0.002,0-0.003,0-0.005
		s0-0.003,0-0.005v-1.336c0-0.414-0.336-0.75-0.75-0.75h-2.696c-0.414,0-0.75,0.336-0.75,0.75v2.683
		C804.078,47.998,804.414,48.334,804.828,48.334z M806.175,45.651c0.329,0,0.597,0.264,0.598,0.589v0.005
		c-0.001,0.325-0.269,0.589-0.598,0.589c-0.33,0-0.598-0.265-0.598-0.591S805.846,45.651,806.175,45.651z"/>
	<path style="fill:#C7A26F;" d="M812.408,48.334h2.696c0.414,0,0.75-0.336,0.75-0.75v-2.683c0-0.414-0.336-0.75-0.75-0.75h-2.696
		c-0.414,0-0.75,0.336-0.75,0.75v2.683C811.658,47.998,811.994,48.334,812.408,48.334z M814.354,46.243
		c0,0.326-0.268,0.591-0.598,0.591s-0.598-0.265-0.598-0.591s0.268-0.591,0.598-0.591S814.354,45.917,814.354,46.243z"/>
	<path style="fill:#C7A26F;" d="M819.989,48.334h2.696c0.414,0,0.75-0.336,0.75-0.75v-2.683c0-0.414-0.336-0.75-0.75-0.75h-2.696
		c-0.414,0-0.75,0.336-0.75,0.75v2.683C819.239,47.998,819.575,48.334,819.989,48.334z M821.337,45.651
		c0.33,0,0.598,0.265,0.598,0.591s-0.268,0.591-0.598,0.591c-0.33,0-0.599-0.265-0.599-0.591S821.007,45.651,821.337,45.651z"/>
	<path style="fill:#C7A26F;" d="M827.57,48.334h2.696c0.414,0,0.75-0.336,0.75-0.75v-2.683c0-0.414-0.336-0.75-0.75-0.75h-2.696
		c-0.414,0-0.75,0.336-0.75,0.75v2.683C826.82,47.998,827.156,48.334,827.57,48.334z M828.918,45.651
		c0.33,0,0.598,0.265,0.598,0.591s-0.268,0.591-0.598,0.591s-0.598-0.265-0.598-0.591S828.589,45.651,828.918,45.651z"/>
	<path style="fill:#C7A26F;" d="M835.151,48.334h2.696c0.414,0,0.75-0.336,0.75-0.75v-2.683c0-0.414-0.336-0.75-0.75-0.75h-2.696
		c-0.414,0-0.75,0.336-0.75,0.75v2.683C834.401,47.998,834.737,48.334,835.151,48.334z M836.499,45.651
		c0.33,0,0.598,0.265,0.598,0.591s-0.269,0.591-0.598,0.591s-0.598-0.265-0.598-0.591S836.169,45.651,836.499,45.651z"/>
	<path style="fill:#C7A26F;" d="M842.732,48.334h2.696c0.414,0,0.75-0.336,0.75-0.75v-1.336c0-0.002,0-0.003,0-0.005
		s0-0.003,0-0.005v-1.336c0-0.414-0.336-0.75-0.75-0.75h-2.696c-0.414,0-0.75,0.336-0.75,0.75v2.683
		C841.982,47.998,842.318,48.334,842.732,48.334z M844.08,45.651c0.329,0,0.596,0.264,0.598,0.589v0.005
		c-0.001,0.325-0.269,0.589-0.598,0.589c-0.33,0-0.598-0.265-0.598-0.591S843.75,45.651,844.08,45.651z"/>
	<path style="fill:#C7A26F;" d="M850.312,48.334h2.696c0.414,0,0.75-0.336,0.75-0.75v-2.683c0-0.414-0.336-0.75-0.75-0.75h-2.696
		c-0.414,0-0.75,0.336-0.75,0.75v2.683C849.562,47.998,849.898,48.334,850.312,48.334z M851.661,45.651
		c0.33,0,0.598,0.265,0.598,0.591s-0.269,0.591-0.598,0.591s-0.598-0.265-0.598-0.591S851.331,45.651,851.661,45.651z"/>
	<path style="fill:#C7A26F;" d="M857.894,48.334h2.696c0.414,0,0.75-0.336,0.75-0.75v-1.336c0-0.002,0-0.003,0-0.005
		s0-0.003,0-0.005v-1.336c0-0.414-0.336-0.75-0.75-0.75h-2.696c-0.414,0-0.75,0.336-0.75,0.75v2.683
		C857.144,47.998,857.479,48.334,857.894,48.334z M859.84,46.24v0.005c-0.001,0.325-0.269,0.589-0.598,0.589
		c-0.33,0-0.598-0.265-0.598-0.591s0.269-0.591,0.598-0.591C859.571,45.651,859.839,45.915,859.84,46.24z"/>
	<path style="fill:#C7A26F;" d="M865.475,48.334h2.696c0.414,0,0.75-0.336,0.75-0.75v-2.683c0-0.414-0.336-0.75-0.75-0.75h-2.696
		c-0.414,0-0.75,0.336-0.75,0.75v2.683C864.725,47.998,865.061,48.334,865.475,48.334z M866.823,45.651
		c0.33,0,0.598,0.265,0.598,0.591s-0.268,0.591-0.598,0.591s-0.598-0.265-0.598-0.591S866.493,45.651,866.823,45.651z"/>
	<path style="fill:#C7A26F;" d="M873.056,48.334h2.696c0.414,0,0.75-0.336,0.75-0.75v-2.683c0-0.414-0.336-0.75-0.75-0.75h-2.696
		c-0.414,0-0.75,0.336-0.75,0.75v2.683C872.306,47.998,872.642,48.334,873.056,48.334z M874.404,45.651
		c0.33,0,0.598,0.265,0.598,0.591s-0.268,0.591-0.598,0.591s-0.598-0.265-0.598-0.591S874.074,45.651,874.404,45.651z"/>
	<path style="fill:#C7A26F;" d="M880.636,48.334h2.696c0.414,0,0.75-0.336,0.75-0.75v-2.683c0-0.414-0.336-0.75-0.75-0.75h-2.696
		c-0.414,0-0.75,0.336-0.75,0.75v2.683C879.886,47.998,880.222,48.334,880.636,48.334z M881.984,45.651
		c0.33,0,0.599,0.265,0.599,0.591s-0.269,0.591-0.599,0.591c-0.33,0-0.598-0.265-0.598-0.591S881.654,45.651,881.984,45.651z"/>
	<path style="fill:#C7A26F;" d="M888.217,48.334h2.696c0.414,0,0.75-0.336,0.75-0.75v-2.683c0-0.414-0.336-0.75-0.75-0.75h-2.696
		c-0.414,0-0.75,0.336-0.75,0.75v2.683C887.467,47.998,887.803,48.334,888.217,48.334z M889.565,45.651
		c0.33,0,0.598,0.265,0.598,0.591s-0.269,0.591-0.598,0.591s-0.598-0.265-0.598-0.591S889.235,45.651,889.565,45.651z"/>
	<path style="fill:#C7A26F;" d="M895.798,48.334h2.696c0.414,0,0.75-0.336,0.75-0.75v-2.683c0-0.414-0.336-0.75-0.75-0.75h-2.696
		c-0.414,0-0.75,0.336-0.75,0.75v2.683C895.048,47.998,895.384,48.334,895.798,48.334z M897.146,45.651
		c0.33,0,0.598,0.265,0.598,0.591s-0.268,0.591-0.598,0.591s-0.598-0.265-0.598-0.591S896.816,45.651,897.146,45.651z"/>
	<path style="fill:#C7A26F;" d="M903.379,48.334h2.696c0.414,0,0.75-0.336,0.75-0.75v-2.683c0-0.414-0.336-0.75-0.75-0.75h-2.696
		c-0.414,0-0.75,0.336-0.75,0.75v2.683C902.629,47.998,902.965,48.334,903.379,48.334z M904.727,45.651
		c0.33,0,0.598,0.265,0.598,0.591s-0.269,0.591-0.598,0.591s-0.598-0.265-0.598-0.591S904.397,45.651,904.727,45.651z"/>
	<path style="fill:#C7A26F;" d="M910.96,48.334h2.696c0.414,0,0.75-0.336,0.75-0.75v-2.683c0-0.414-0.336-0.75-0.75-0.75h-2.696
		c-0.414,0-0.75,0.336-0.75,0.75v2.683C910.21,47.998,910.546,48.334,910.96,48.334z M912.308,45.651
		c0.33,0,0.598,0.265,0.598,0.591s-0.268,0.591-0.598,0.591s-0.598-0.265-0.598-0.591S911.979,45.651,912.308,45.651z"/>
	<path style="fill:#C7A26F;" d="M918.541,48.334h2.696c0.414,0,0.75-0.336,0.75-0.75v-2.683c0-0.414-0.336-0.75-0.75-0.75h-2.696
		c-0.414,0-0.75,0.336-0.75,0.75v2.683C917.791,47.998,918.126,48.334,918.541,48.334z M919.888,45.651
		c0.33,0,0.599,0.265,0.599,0.591s-0.269,0.591-0.599,0.591c-0.33,0-0.598-0.265-0.598-0.591S919.559,45.651,919.888,45.651z"/>
	<path style="fill:#C7A26F;" d="M926.121,48.334h2.696c0.414,0,0.75-0.336,0.75-0.75v-2.683c0-0.414-0.336-0.75-0.75-0.75h-2.696
		c-0.414,0-0.75,0.336-0.75,0.75v2.683C925.371,47.998,925.707,48.334,926.121,48.334z M928.067,46.243
		c0,0.326-0.269,0.591-0.598,0.591s-0.598-0.265-0.598-0.591s0.268-0.591,0.598-0.591S928.067,45.917,928.067,46.243z"/>
	<path style="fill:#C7A26F;" d="M933.703,48.334h2.696c0.414,0,0.75-0.336,0.75-0.75v-2.683c0-0.414-0.336-0.75-0.75-0.75h-2.696
		c-0.414,0-0.75,0.336-0.75,0.75v2.683C932.953,47.998,933.289,48.334,933.703,48.334z M935.051,45.651
		c0.33,0,0.598,0.265,0.598,0.591s-0.269,0.591-0.598,0.591s-0.598-0.265-0.598-0.591S934.721,45.651,935.051,45.651z"/>
	<path style="fill:#C7A26F;" d="M941.283,48.334h2.696c0.414,0,0.75-0.336,0.75-0.75v-2.683c0-0.414-0.336-0.75-0.75-0.75h-2.696
		c-0.414,0-0.75,0.336-0.75,0.75v2.683C940.533,47.998,940.869,48.334,941.283,48.334z M942.631,45.651
		c0.33,0,0.598,0.265,0.598,0.591s-0.269,0.591-0.598,0.591s-0.598-0.265-0.598-0.591S942.302,45.651,942.631,45.651z"/>
	<path style="fill:#C7A26F;" d="M948.114,46.248v1.336c0,0.414,0.336,0.75,0.75,0.75h2.696c0.414,0,0.75-0.336,0.75-0.75v-2.683
		c0-0.414-0.336-0.75-0.75-0.75h-2.696c-0.414,0-0.75,0.336-0.75,0.75v1.336c0,0.002,0,0.003,0,0.005S948.114,46.246,948.114,46.248
		z M950.212,45.651c0.33,0,0.598,0.265,0.598,0.591s-0.269,0.591-0.598,0.591c-0.329,0-0.596-0.264-0.598-0.589V46.24
		C949.616,45.915,949.883,45.651,950.212,45.651z"/>
	<path style="fill:#C7A26F;" d="M956.319,48.334h2.696c0.414,0,0.75-0.336,0.75-0.75v-2.683c0-0.414-0.336-0.75-0.75-0.75h-2.696
		c-0.414,0-0.75,0.336-0.75,0.75v2.683C955.569,47.998,955.905,48.334,956.319,48.334z M957.667,45.651
		c0.33,0,0.598,0.265,0.598,0.591s-0.269,0.591-0.598,0.591s-0.598-0.265-0.598-0.591S957.338,45.651,957.667,45.651z"/>
	<path style="fill:#C7A26F;" d="M963.15,46.248v1.336c0,0.414,0.336,0.75,0.75,0.75h2.696c0.414,0,0.75-0.336,0.75-0.75v-2.683
		c0-0.414-0.336-0.75-0.75-0.75H963.9c-0.414,0-0.75,0.336-0.75,0.75v1.336c0,0.002,0,0.003,0,0.005S963.15,46.246,963.15,46.248z
		 M965.248,45.651c0.33,0,0.598,0.265,0.598,0.591s-0.269,0.591-0.598,0.591c-0.329,0-0.596-0.264-0.598-0.589V46.24
		C964.652,45.915,964.919,45.651,965.248,45.651z"/>
	<path style="fill:#C7A26F;" d="M971.481,48.334h2.696c0.414,0,0.75-0.336,0.75-0.75v-2.683c0-0.414-0.336-0.75-0.75-0.75h-2.696
		c-0.414,0-0.75,0.336-0.75,0.75v2.683C970.731,47.998,971.067,48.334,971.481,48.334z M972.829,45.651
		c0.33,0,0.598,0.265,0.598,0.591s-0.269,0.591-0.598,0.591s-0.598-0.265-0.598-0.591S972.5,45.651,972.829,45.651z"/>
	<path style="fill:#C7A26F;" d="M979.062,48.334h2.696c0.414,0,0.75-0.336,0.75-0.75v-2.683c0-0.414-0.336-0.75-0.75-0.75h-2.696
		c-0.414,0-0.75,0.336-0.75,0.75v2.683C978.312,47.998,978.648,48.334,979.062,48.334z M980.411,45.651
		c0.33,0,0.598,0.265,0.598,0.591s-0.268,0.591-0.598,0.591c-0.33,0-0.599-0.265-0.599-0.591S980.081,45.651,980.411,45.651z"/>
	<path style="fill:#C7A26F;" d="M986.643,48.334h2.696c0.414,0,0.75-0.336,0.75-0.75v-2.683c0-0.414-0.336-0.75-0.75-0.75h-2.696
		c-0.414,0-0.75,0.336-0.75,0.75v2.683C985.893,47.998,986.229,48.334,986.643,48.334z M987.991,45.651
		c0.33,0,0.598,0.265,0.598,0.591s-0.269,0.591-0.598,0.591s-0.598-0.265-0.598-0.591S987.661,45.651,987.991,45.651z"/>
	<path style="fill:#C7A26F;" d="M994.224,48.334h2.696c0.414,0,0.75-0.336,0.75-0.75v-2.683c0-0.414-0.336-0.75-0.75-0.75h-2.696
		c-0.414,0-0.75,0.336-0.75,0.75v2.683C993.474,47.998,993.81,48.334,994.224,48.334z M996.169,46.243
		c0,0.326-0.268,0.591-0.598,0.591s-0.598-0.265-0.598-0.591s0.268-0.591,0.598-0.591S996.169,45.917,996.169,46.243z"/>
	<path style="fill:#C7A26F;" d="M1001.804,48.334h2.696c0.414,0,0.75-0.336,0.75-0.75v-2.683c0-0.414-0.336-0.75-0.75-0.75h-2.696
		c-0.414,0-0.75,0.336-0.75,0.75v2.683C1001.054,47.998,1001.39,48.334,1001.804,48.334z M1003.152,45.651
		c0.33,0,0.598,0.265,0.598,0.591s-0.269,0.591-0.598,0.591s-0.598-0.265-0.598-0.591S1002.823,45.651,1003.152,45.651z"/>
	<path style="fill:#C7A26F;" d="M1009.386,48.334h2.696c0.414,0,0.75-0.336,0.75-0.75v-2.683c0-0.414-0.336-0.75-0.75-0.75h-2.696
		c-0.414,0-0.75,0.336-0.75,0.75v2.683C1008.636,47.998,1008.972,48.334,1009.386,48.334z M1010.734,45.651
		c0.33,0,0.598,0.265,0.598,0.591s-0.269,0.591-0.598,0.591s-0.598-0.265-0.598-0.591S1010.404,45.651,1010.734,45.651z"/>
	<path style="fill:#C7A26F;" d="M1016.966,48.334h2.696c0.414,0,0.75-0.336,0.75-0.75v-2.683c0-0.414-0.336-0.75-0.75-0.75h-2.696
		c-0.414,0-0.75,0.336-0.75,0.75v2.683C1016.216,47.998,1016.552,48.334,1016.966,48.334z M1018.314,45.651
		c0.33,0,0.598,0.265,0.598,0.591s-0.269,0.591-0.598,0.591s-0.598-0.265-0.598-0.591S1017.985,45.651,1018.314,45.651z"/>
	<path style="fill:#C7A26F;" d="M1024.547,48.334h2.696c0.414,0,0.75-0.336,0.75-0.75v-2.683c0-0.414-0.336-0.75-0.75-0.75h-2.696
		c-0.414,0-0.75,0.336-0.75,0.75v2.683C1023.797,47.998,1024.133,48.334,1024.547,48.334z M1025.896,45.651
		c0.33,0,0.598,0.265,0.598,0.591s-0.269,0.591-0.598,0.591s-0.598-0.265-0.598-0.591S1025.566,45.651,1025.896,45.651z"/>
	<path style="fill:#C7A26F;" d="M1032.128,48.334h2.696c0.414,0,0.75-0.336,0.75-0.75v-2.683c0-0.414-0.336-0.75-0.75-0.75h-2.696
		c-0.414,0-0.75,0.336-0.75,0.75v2.683C1031.378,47.998,1031.714,48.334,1032.128,48.334z M1033.476,45.651
		c0.33,0,0.598,0.265,0.598,0.591s-0.269,0.591-0.598,0.591s-0.598-0.265-0.598-0.591S1033.146,45.651,1033.476,45.651z"/>
	<path style="fill:#C7A26F;" d="M1039.708,48.334h2.696c0.414,0,0.75-0.336,0.75-0.75v-2.683c0-0.414-0.336-0.75-0.75-0.75h-2.696
		c-0.414,0-0.75,0.336-0.75,0.75v2.683C1038.958,47.998,1039.294,48.334,1039.708,48.334z M1041.057,45.651
		c0.33,0,0.598,0.265,0.598,0.591s-0.269,0.591-0.598,0.591s-0.598-0.265-0.598-0.591S1040.727,45.651,1041.057,45.651z"/>
	<path style="fill:#C7A26F;" d="M1047.29,48.334h2.696c0.414,0,0.75-0.336,0.75-0.75v-1.336c0-0.002,0-0.003,0-0.005
		s0-0.003,0-0.005v-1.336c0-0.414-0.336-0.75-0.75-0.75h-2.696c-0.414,0-0.75,0.336-0.75,0.75v2.683
		C1046.54,47.998,1046.875,48.334,1047.29,48.334z M1048.637,45.651c0.329,0,0.597,0.264,0.598,0.589v0.005
		c-0.001,0.325-0.269,0.589-0.598,0.589c-0.33,0-0.598-0.265-0.598-0.591S1048.308,45.651,1048.637,45.651z"/>
	<path style="fill:#C7A26F;" d="M1054.871,48.334h2.696c0.414,0,0.75-0.336,0.75-0.75v-2.683c0-0.414-0.336-0.75-0.75-0.75h-2.696
		c-0.414,0-0.75,0.336-0.75,0.75v2.683C1054.121,47.998,1054.457,48.334,1054.871,48.334z M1056.219,45.651
		c0.33,0,0.598,0.265,0.598,0.591s-0.268,0.591-0.598,0.591s-0.598-0.265-0.598-0.591S1055.89,45.651,1056.219,45.651z"/>
	<path style="fill:#C7A26F;" d="M1062.452,48.334h2.696c0.414,0,0.75-0.336,0.75-0.75v-2.683c0-0.414-0.336-0.75-0.75-0.75h-2.696
		c-0.414,0-0.75,0.336-0.75,0.75v2.683C1061.702,47.998,1062.038,48.334,1062.452,48.334z M1063.8,45.651
		c0.33,0,0.598,0.265,0.598,0.591s-0.269,0.591-0.598,0.591s-0.598-0.265-0.598-0.591S1063.47,45.651,1063.8,45.651z"/>
	<path style="fill:#C7A26F;" d="M1070.032,48.334h2.696c0.414,0,0.75-0.336,0.75-0.75v-2.683c0-0.414-0.336-0.75-0.75-0.75h-2.696
		c-0.414,0-0.75,0.336-0.75,0.75v2.683C1069.282,47.998,1069.618,48.334,1070.032,48.334z M1071.38,45.651
		c0.33,0,0.598,0.265,0.598,0.591s-0.269,0.591-0.598,0.591s-0.598-0.265-0.598-0.591S1071.051,45.651,1071.38,45.651z"/>
	<path style="fill:#C7A26F;" d="M1077.613,48.334h2.696c0.414,0,0.75-0.336,0.75-0.75v-2.683c0-0.414-0.336-0.75-0.75-0.75h-2.696
		c-0.414,0-0.75,0.336-0.75,0.75v2.683C1076.863,47.998,1077.199,48.334,1077.613,48.334z M1078.961,45.651
		c0.33,0,0.598,0.265,0.598,0.591s-0.268,0.591-0.598,0.591s-0.598-0.265-0.598-0.591S1078.632,45.651,1078.961,45.651z"/>
	<path style="fill:#C7A26F;" d="M1085.194,48.334h2.696c0.414,0,0.75-0.336,0.75-0.75v-2.683c0-0.414-0.336-0.75-0.75-0.75h-2.696
		c-0.414,0-0.75,0.336-0.75,0.75v2.683C1084.444,47.998,1084.78,48.334,1085.194,48.334z M1086.542,45.651
		c0.33,0,0.598,0.265,0.598,0.591s-0.269,0.591-0.598,0.591s-0.598-0.265-0.598-0.591S1086.213,45.651,1086.542,45.651z"/>
	<path style="fill:#C7A26F;" d="M1092.775,48.334h2.696c0.414,0,0.75-0.336,0.75-0.75v-2.683c0-0.414-0.336-0.75-0.75-0.75h-2.696
		c-0.414,0-0.75,0.336-0.75,0.75v2.683C1092.025,47.998,1092.361,48.334,1092.775,48.334z M1094.124,45.651
		c0.33,0,0.598,0.265,0.598,0.591s-0.268,0.591-0.598,0.591c-0.33,0-0.599-0.265-0.599-0.591S1093.793,45.651,1094.124,45.651z"/>
	<path style="fill:#C7A26F;" d="M1100.356,48.334h2.696c0.414,0,0.75-0.336,0.75-0.75v-2.683c0-0.414-0.336-0.75-0.75-0.75h-2.696
		c-0.414,0-0.75,0.336-0.75,0.75v2.683C1099.606,47.998,1099.942,48.334,1100.356,48.334z M1101.704,45.651
		c0.33,0,0.598,0.265,0.598,0.591s-0.269,0.591-0.598,0.591s-0.598-0.265-0.598-0.591S1101.374,45.651,1101.704,45.651z"/>
	<path style="fill:#C7A26F;" d="M1107.858,48.334h2.696c0.414,0,0.75-0.336,0.75-0.75v-2.683c0-0.414-0.336-0.75-0.75-0.75h-2.696
		c-0.414,0-0.75,0.336-0.75,0.75v2.683C1107.108,47.998,1107.444,48.334,1107.858,48.334z M1109.206,45.651
		c0.33,0,0.598,0.265,0.598,0.591s-0.269,0.591-0.598,0.591s-0.598-0.265-0.598-0.591S1108.876,45.651,1109.206,45.651z"/>
	<path style="fill:#C7A26F;" d="M1115.439,48.334h2.696c0.414,0,0.75-0.336,0.75-0.75v-2.683c0-0.414-0.336-0.75-0.75-0.75h-2.696
		c-0.414,0-0.75,0.336-0.75,0.75v2.683C1114.689,47.998,1115.025,48.334,1115.439,48.334z M1116.787,45.651
		c0.33,0,0.598,0.265,0.598,0.591s-0.269,0.591-0.598,0.591s-0.598-0.265-0.598-0.591S1116.457,45.651,1116.787,45.651z"/>
	<path style="fill:#C7A26F;" d="M1123.02,48.334h2.696c0.414,0,0.75-0.336,0.75-0.75v-2.683c0-0.414-0.336-0.75-0.75-0.75h-2.696
		c-0.414,0-0.75,0.336-0.75,0.75v2.683C1122.27,47.998,1122.605,48.334,1123.02,48.334z M1124.368,45.651
		c0.33,0,0.598,0.265,0.598,0.591s-0.269,0.591-0.598,0.591s-0.598-0.265-0.598-0.591S1124.038,45.651,1124.368,45.651z"/>
	<path style="fill:#C7A26F;" d="M1130.601,48.334h2.696c0.414,0,0.75-0.336,0.75-0.75v-2.683c0-0.414-0.336-0.75-0.75-0.75h-2.696
		c-0.414,0-0.75,0.336-0.75,0.75v2.683C1129.851,47.998,1130.187,48.334,1130.601,48.334z M1132.547,46.243
		c0,0.326-0.269,0.591-0.598,0.591s-0.598-0.265-0.598-0.591s0.268-0.591,0.598-0.591S1132.547,45.917,1132.547,46.243z"/>
	<path style="fill:#C7A26F;" d="M1138.182,48.334h2.696c0.414,0,0.75-0.336,0.75-0.75v-2.683c0-0.414-0.336-0.75-0.75-0.75h-2.696
		c-0.414,0-0.75,0.336-0.75,0.75v2.683C1137.432,47.998,1137.768,48.334,1138.182,48.334z M1139.53,45.651
		c0.33,0,0.598,0.265,0.598,0.591s-0.268,0.591-0.598,0.591s-0.598-0.265-0.598-0.591S1139.2,45.651,1139.53,45.651z"/>
	<path style="fill:#C7A26F;" d="M1145.013,46.248v1.336c0,0.414,0.336,0.75,0.75,0.75h2.696c0.414,0,0.75-0.336,0.75-0.75v-2.683
		c0-0.414-0.336-0.75-0.75-0.75h-2.696c-0.414,0-0.75,0.336-0.75,0.75v1.336c0,0.002,0,0.003,0,0.005
		S1145.013,46.246,1145.013,46.248z M1147.11,45.651c0.33,0,0.598,0.265,0.598,0.591s-0.269,0.591-0.598,0.591
		c-0.329,0-0.596-0.264-0.598-0.589V46.24C1146.514,45.915,1146.782,45.651,1147.11,45.651z"/>
	<path style="fill:#C7A26F;" d="M1153.343,48.334h2.696c0.414,0,0.75-0.336,0.75-0.75v-2.683c0-0.414-0.336-0.75-0.75-0.75h-2.696
		c-0.414,0-0.75,0.336-0.75,0.75v2.683C1152.593,47.998,1152.929,48.334,1153.343,48.334z M1154.691,45.651
		c0.33,0,0.599,0.265,0.599,0.591s-0.269,0.591-0.599,0.591c-0.33,0-0.598-0.265-0.598-0.591S1154.361,45.651,1154.691,45.651z"/>
	<path style="fill:#C7A26F;" d="M1160.924,48.334h2.696c0.414,0,0.75-0.336,0.75-0.75v-2.683c0-0.414-0.336-0.75-0.75-0.75h-2.696
		c-0.414,0-0.75,0.336-0.75,0.75v2.683C1160.174,47.998,1160.51,48.334,1160.924,48.334z M1162.273,45.651
		c0.33,0,0.598,0.265,0.598,0.591s-0.268,0.591-0.598,0.591c-0.33,0-0.599-0.265-0.599-0.591S1161.943,45.651,1162.273,45.651z"/>
	<path style="fill:#C7A26F;" d="M1168.505,48.334h2.696c0.414,0,0.75-0.336,0.75-0.75v-2.683c0-0.414-0.336-0.75-0.75-0.75h-2.696
		c-0.414,0-0.75,0.336-0.75,0.75v2.683C1167.755,47.998,1168.091,48.334,1168.505,48.334z M1169.853,45.651
		c0.33,0,0.598,0.265,0.598,0.591s-0.269,0.591-0.598,0.591s-0.598-0.265-0.598-0.591S1169.523,45.651,1169.853,45.651z"/>
	<path style="fill:#C7A26F;" d="M1176.086,48.334h2.696c0.414,0,0.75-0.336,0.75-0.75v-2.683c0-0.414-0.336-0.75-0.75-0.75h-2.696
		c-0.414,0-0.75,0.336-0.75,0.75v2.683C1175.336,47.998,1175.672,48.334,1176.086,48.334z M1178.032,46.243
		c0,0.326-0.269,0.591-0.598,0.591s-0.598-0.265-0.598-0.591s0.268-0.591,0.598-0.591S1178.032,45.917,1178.032,46.243z"/>
	<path style="fill:#C7A26F;" d="M1183.667,48.334h2.696c0.414,0,0.75-0.336,0.75-0.75v-2.683c0-0.414-0.336-0.75-0.75-0.75h-2.696
		c-0.414,0-0.75,0.336-0.75,0.75v2.683C1182.917,47.998,1183.252,48.334,1183.667,48.334z M1185.015,45.651
		c0.33,0,0.598,0.265,0.598,0.591s-0.269,0.591-0.598,0.591s-0.598-0.265-0.598-0.591S1184.685,45.651,1185.015,45.651z"/>
	<path style="fill:#C7A26F;" d="M1191.248,48.334h2.696c0.414,0,0.75-0.336,0.75-0.75v-1.336c0-0.002,0-0.003,0-0.005
		s0-0.003,0-0.005v-1.336c0-0.414-0.336-0.75-0.75-0.75h-2.696c-0.414,0-0.75,0.336-0.75,0.75v2.683
		C1190.498,47.998,1190.833,48.334,1191.248,48.334z M1192.595,45.651c0.329,0,0.597,0.264,0.598,0.589v0.005
		c-0.001,0.325-0.269,0.589-0.598,0.589c-0.33,0-0.598-0.265-0.598-0.591S1192.266,45.651,1192.595,45.651z"/>
	<path style="fill:#C7A26F;" d="M1198.828,48.334h2.696c0.414,0,0.75-0.336,0.75-0.75v-2.683c0-0.414-0.336-0.75-0.75-0.75h-2.696
		c-0.414,0-0.75,0.336-0.75,0.75v2.683C1198.078,47.998,1198.414,48.334,1198.828,48.334z M1200.176,45.651
		c0.33,0,0.598,0.265,0.598,0.591s-0.268,0.591-0.598,0.591s-0.598-0.265-0.598-0.591S1199.847,45.651,1200.176,45.651z"/>
	<path style="fill:#C7A26F;" d="M1206.41,48.334h2.696c0.414,0,0.75-0.336,0.75-0.75v-2.683c0-0.414-0.336-0.75-0.75-0.75h-2.696
		c-0.414,0-0.75,0.336-0.75,0.75v2.683C1205.66,47.998,1205.996,48.334,1206.41,48.334z M1207.758,45.651
		c0.33,0,0.598,0.265,0.598,0.591s-0.269,0.591-0.598,0.591s-0.598-0.265-0.598-0.591S1207.428,45.651,1207.758,45.651z"/>
	<path style="fill:#C7A26F;" d="M1213.99,48.334h2.696c0.414,0,0.75-0.336,0.75-0.75v-2.683c0-0.414-0.336-0.75-0.75-0.75h-2.696
		c-0.414,0-0.75,0.336-0.75,0.75v2.683C1213.24,47.998,1213.576,48.334,1213.99,48.334z M1215.937,46.243
		c0,0.326-0.269,0.591-0.598,0.591s-0.598-0.265-0.598-0.591s0.268-0.591,0.598-0.591S1215.937,45.917,1215.937,46.243z"/>
	<path style="fill:#C7A26F;" d="M1221.571,48.334h2.696c0.414,0,0.75-0.336,0.75-0.75v-2.683c0-0.414-0.336-0.75-0.75-0.75h-2.696
		c-0.414,0-0.75,0.336-0.75,0.75v2.683C1220.821,47.998,1221.157,48.334,1221.571,48.334z M1222.919,45.651
		c0.33,0,0.598,0.265,0.598,0.591s-0.269,0.591-0.598,0.591s-0.598-0.265-0.598-0.591S1222.589,45.651,1222.919,45.651z"/>
	<path style="fill:#C7A26F;" d="M1229.152,48.334h2.696c0.414,0,0.75-0.336,0.75-0.75v-1.336c0-0.002,0-0.003,0-0.005
		s0-0.003,0-0.005v-1.336c0-0.414-0.336-0.75-0.75-0.75h-2.696c-0.414,0-0.75,0.336-0.75,0.75v2.683
		C1228.402,47.998,1228.738,48.334,1229.152,48.334z M1230.5,45.651c0.329,0,0.596,0.264,0.598,0.589v0.005
		c-0.001,0.325-0.269,0.589-0.598,0.589c-0.33,0-0.598-0.265-0.598-0.591S1230.17,45.651,1230.5,45.651z"/>
	<path style="fill:#C7A26F;" d="M1236.733,48.334h2.696c0.414,0,0.75-0.336,0.75-0.75v-2.683c0-0.414-0.336-0.75-0.75-0.75h-2.696
		c-0.414,0-0.75,0.336-0.75,0.75v2.683C1235.983,47.998,1236.319,48.334,1236.733,48.334z M1238.082,45.651
		c0.33,0,0.598,0.265,0.598,0.591s-0.268,0.591-0.598,0.591c-0.33,0-0.599-0.265-0.599-0.591S1237.751,45.651,1238.082,45.651z"/>
	<path style="fill:#C7A26F;" d="M1244.313,48.334h2.696c0.414,0,0.75-0.336,0.75-0.75v-1.336c0-0.002,0-0.003,0-0.005
		s0-0.003,0-0.005v-1.336c0-0.414-0.336-0.75-0.75-0.75h-2.696c-0.414,0-0.75,0.336-0.75,0.75v2.683
		C1243.563,47.998,1243.899,48.334,1244.313,48.334z M1246.26,46.24v0.005c-0.001,0.325-0.269,0.589-0.598,0.589
		c-0.33,0-0.598-0.265-0.598-0.591s0.269-0.591,0.598-0.591C1245.991,45.651,1246.258,45.915,1246.26,46.24z"/>
	<path style="fill:#C7A26F;" d="M1251.895,48.334h2.696c0.414,0,0.75-0.336,0.75-0.75v-2.683c0-0.414-0.336-0.75-0.75-0.75h-2.696
		c-0.414,0-0.75,0.336-0.75,0.75v2.683C1251.145,47.998,1251.48,48.334,1251.895,48.334z M1253.243,45.651
		c0.33,0,0.598,0.265,0.598,0.591s-0.268,0.591-0.598,0.591s-0.598-0.265-0.598-0.591S1252.913,45.651,1253.243,45.651z"/>
	<path style="fill:#C7A26F;" d="M1259.208,48.334h2.696c0.414,0,0.75-0.336,0.75-0.75v-2.683c0-0.414-0.336-0.75-0.75-0.75h-2.696
		c-0.414,0-0.75,0.336-0.75,0.75v2.683C1258.458,47.998,1258.793,48.334,1259.208,48.334z M1260.556,45.651
		c0.33,0,0.598,0.265,0.598,0.591s-0.269,0.591-0.598,0.591s-0.598-0.265-0.598-0.591S1260.226,45.651,1260.556,45.651z"/>
	<path style="fill:#C7A26F;" d="M1266.789,48.334h2.696c0.414,0,0.75-0.336,0.75-0.75v-1.336c0-0.002,0-0.003,0-0.005
		s0-0.003,0-0.005v-1.336c0-0.414-0.336-0.75-0.75-0.75h-2.696c-0.414,0-0.75,0.336-0.75,0.75v2.683
		C1266.039,47.998,1266.375,48.334,1266.789,48.334z M1268.137,45.651c0.329,0,0.596,0.264,0.598,0.589v0.005
		c-0.001,0.325-0.269,0.589-0.598,0.589c-0.33,0-0.598-0.265-0.598-0.591S1267.807,45.651,1268.137,45.651z"/>
	<path style="fill:#C7A26F;" d="M1274.369,48.334h2.696c0.414,0,0.75-0.336,0.75-0.75v-2.683c0-0.414-0.336-0.75-0.75-0.75h-2.696
		c-0.414,0-0.75,0.336-0.75,0.75v2.683C1273.619,47.998,1273.955,48.334,1274.369,48.334z M1276.315,46.243
		c0,0.326-0.269,0.591-0.598,0.591s-0.598-0.265-0.598-0.591s0.268-0.591,0.598-0.591S1276.315,45.917,1276.315,46.243z"/>
	<path style="fill:#C7A26F;" d="M1281.951,48.334h2.696c0.414,0,0.75-0.336,0.75-0.75v-2.683c0-0.414-0.336-0.75-0.75-0.75h-2.696
		c-0.414,0-0.75,0.336-0.75,0.75v2.683C1281.201,47.998,1281.537,48.334,1281.951,48.334z M1283.299,45.651
		c0.33,0,0.598,0.265,0.598,0.591s-0.269,0.591-0.598,0.591s-0.598-0.265-0.598-0.591S1282.969,45.651,1283.299,45.651z"/>
	<path style="fill:#C7A26F;" d="M1289.531,48.334h2.696c0.414,0,0.75-0.336,0.75-0.75v-2.683c0-0.414-0.336-0.75-0.75-0.75h-2.696
		c-0.414,0-0.75,0.336-0.75,0.75v2.683C1288.781,47.998,1289.117,48.334,1289.531,48.334z M1290.879,45.651
		c0.33,0,0.598,0.265,0.598,0.591s-0.268,0.591-0.598,0.591s-0.598-0.265-0.598-0.591S1290.55,45.651,1290.879,45.651z"/>
	<path style="fill:#C7A26F;" d="M1297.112,48.334h2.696c0.414,0,0.75-0.336,0.75-0.75v-2.683c0-0.414-0.336-0.75-0.75-0.75h-2.696
		c-0.414,0-0.75,0.336-0.75,0.75v2.683C1296.362,47.998,1296.698,48.334,1297.112,48.334z M1298.46,45.651
		c0.33,0,0.598,0.265,0.598,0.591s-0.268,0.591-0.598,0.591s-0.598-0.265-0.598-0.591S1298.131,45.651,1298.46,45.651z"/>
	<path style="fill:#C7A26F;" d="M1304.693,48.334h2.696c0.414,0,0.75-0.336,0.75-0.75v-2.683c0-0.414-0.336-0.75-0.75-0.75h-2.696
		c-0.414,0-0.75,0.336-0.75,0.75v2.683C1303.943,47.998,1304.279,48.334,1304.693,48.334z M1306.041,45.651
		c0.33,0,0.598,0.265,0.598,0.591s-0.269,0.591-0.598,0.591s-0.598-0.265-0.598-0.591S1305.711,45.651,1306.041,45.651z"/>
	<path style="fill:#C7A26F;" d="M1312.274,48.334h2.696c0.414,0,0.75-0.336,0.75-0.75v-2.683c0-0.414-0.336-0.75-0.75-0.75h-2.696
		c-0.414,0-0.75,0.336-0.75,0.75v2.683C1311.524,47.998,1311.86,48.334,1312.274,48.334z M1313.623,45.651
		c0.33,0,0.598,0.265,0.598,0.591s-0.268,0.591-0.598,0.591c-0.33,0-0.599-0.265-0.599-0.591S1313.292,45.651,1313.623,45.651z"/>
	<path style="fill:#C7A26F;" d="M1319.855,48.334h2.696c0.414,0,0.75-0.336,0.75-0.75v-1.336c0-0.002,0-0.003,0-0.005
		s0-0.003,0-0.005v-1.336c0-0.414-0.336-0.75-0.75-0.75h-2.696c-0.414,0-0.75,0.336-0.75,0.75v2.683
		C1319.105,47.998,1319.441,48.334,1319.855,48.334z M1321.203,45.651c0.329,0,0.596,0.264,0.598,0.589v0.005
		c-0.001,0.325-0.269,0.589-0.598,0.589c-0.33,0-0.598-0.265-0.598-0.591S1320.874,45.651,1321.203,45.651z"/>
	<path style="fill:#C7A26F;" d="M1327.436,48.334h2.696c0.414,0,0.75-0.336,0.75-0.75v-2.683c0-0.414-0.336-0.75-0.75-0.75h-2.696
		c-0.414,0-0.75,0.336-0.75,0.75v2.683C1326.686,47.998,1327.022,48.334,1327.436,48.334z M1328.784,45.651
		c0.33,0,0.598,0.265,0.598,0.591s-0.269,0.591-0.598,0.591s-0.598-0.265-0.598-0.591S1328.454,45.651,1328.784,45.651z"/>
	<path style="fill:#C7A26F;" d="M1335.017,48.334h2.696c0.414,0,0.75-0.336,0.75-0.75v-2.683c0-0.414-0.336-0.75-0.75-0.75h-2.696
		c-0.414,0-0.75,0.336-0.75,0.75v2.683C1334.267,47.998,1334.603,48.334,1335.017,48.334z M1336.365,45.651
		c0.33,0,0.598,0.265,0.598,0.591s-0.268,0.591-0.598,0.591s-0.598-0.265-0.598-0.591S1336.035,45.651,1336.365,45.651z"/>
	<path style="fill:#C7A26F;" d="M1342.597,48.334h2.696c0.414,0,0.75-0.336,0.75-0.75v-2.683c0-0.414-0.336-0.75-0.75-0.75h-2.696
		c-0.414,0-0.75,0.336-0.75,0.75v2.683C1341.847,47.998,1342.183,48.334,1342.597,48.334z M1343.945,45.651
		c0.33,0,0.599,0.265,0.599,0.591s-0.269,0.591-0.599,0.591c-0.33,0-0.598-0.265-0.598-0.591S1343.615,45.651,1343.945,45.651z"/>
	<path style="fill:#C7A26F;" d="M1350.178,48.334h2.696c0.414,0,0.75-0.336,0.75-0.75v-2.683c0-0.414-0.336-0.75-0.75-0.75h-2.696
		c-0.414,0-0.75,0.336-0.75,0.75v2.683C1349.428,47.998,1349.764,48.334,1350.178,48.334z M1351.526,45.651
		c0.33,0,0.598,0.265,0.598,0.591s-0.269,0.591-0.598,0.591s-0.598-0.265-0.598-0.591S1351.196,45.651,1351.526,45.651z"/>
	<path style="fill:#C7A26F;" d="M1357.01,46.248v1.336c0,0.414,0.336,0.75,0.75,0.75h2.696c0.414,0,0.75-0.336,0.75-0.75v-2.683
		c0-0.414-0.336-0.75-0.75-0.75h-2.696c-0.414,0-0.75,0.336-0.75,0.75v1.336c0,0.002,0,0.003,0,0.005S1357.01,46.246,1357.01,46.248
		z M1359.107,45.651c0.33,0,0.598,0.265,0.598,0.591s-0.269,0.591-0.598,0.591c-0.329,0-0.596-0.264-0.598-0.589V46.24
		C1358.511,45.915,1358.779,45.651,1359.107,45.651z"/>
	<path style="fill:#C7A26F;" d="M1365.34,48.334h2.696c0.414,0,0.75-0.336,0.75-0.75v-2.683c0-0.414-0.336-0.75-0.75-0.75h-2.696
		c-0.414,0-0.75,0.336-0.75,0.75v2.683C1364.59,47.998,1364.926,48.334,1365.34,48.334z M1366.688,45.651
		c0.33,0,0.599,0.265,0.599,0.591s-0.269,0.591-0.599,0.591c-0.33,0-0.598-0.265-0.598-0.591S1366.358,45.651,1366.688,45.651z"/>
	<path style="fill:#C7A26F;" d="M1372.921,48.334h2.696c0.414,0,0.75-0.336,0.75-0.75v-2.683c0-0.414-0.336-0.75-0.75-0.75h-2.696
		c-0.414,0-0.75,0.336-0.75,0.75v2.683C1372.171,47.998,1372.507,48.334,1372.921,48.334z M1374.269,45.651
		c0.33,0,0.598,0.265,0.598,0.591s-0.268,0.591-0.598,0.591s-0.598-0.265-0.598-0.591S1373.939,45.651,1374.269,45.651z"/>
	<path style="fill:#C7A26F;" d="M1380.501,48.334h2.696c0.414,0,0.75-0.336,0.75-0.75v-2.683c0-0.414-0.336-0.75-0.75-0.75h-2.696
		c-0.414,0-0.75,0.336-0.75,0.75v2.683C1379.751,47.998,1380.087,48.334,1380.501,48.334z M1381.85,45.651
		c0.33,0,0.598,0.265,0.598,0.591s-0.269,0.591-0.598,0.591s-0.598-0.265-0.598-0.591S1381.52,45.651,1381.85,45.651z"/>
	<path style="fill:#C7A26F;" d="M1387.333,46.248v1.336c0,0.414,0.336,0.75,0.75,0.75h2.696c0.414,0,0.75-0.336,0.75-0.75v-2.683
		c0-0.414-0.336-0.75-0.75-0.75h-2.696c-0.414,0-0.75,0.336-0.75,0.75v1.336c0,0.002,0,0.003,0,0.005
		S1387.333,46.246,1387.333,46.248z M1389.431,45.651c0.33,0,0.598,0.265,0.598,0.591s-0.268,0.591-0.598,0.591
		c-0.329,0-0.597-0.264-0.598-0.589V46.24C1388.834,45.915,1389.102,45.651,1389.431,45.651z"/>
	<path style="fill:#C7A26F;" d="M1395.664,48.334h2.696c0.414,0,0.75-0.336,0.75-0.75v-2.683c0-0.414-0.336-0.75-0.75-0.75h-2.696
		c-0.414,0-0.75,0.336-0.75,0.75v2.683C1394.914,47.998,1395.25,48.334,1395.664,48.334z M1397.012,45.651
		c0.33,0,0.598,0.265,0.598,0.591s-0.269,0.591-0.598,0.591s-0.598-0.265-0.598-0.591S1396.682,45.651,1397.012,45.651z"/>
	<path style="fill:#C7A26F;" d="M1403.244,48.334h2.696c0.414,0,0.75-0.336,0.75-0.75v-2.683c0-0.414-0.336-0.75-0.75-0.75h-2.696
		c-0.414,0-0.75,0.336-0.75,0.75v2.683C1402.494,47.998,1402.83,48.334,1403.244,48.334z M1405.19,46.243
		c0,0.326-0.269,0.591-0.598,0.591s-0.598-0.265-0.598-0.591s0.268-0.591,0.598-0.591S1405.19,45.917,1405.19,46.243z"/>
	<path style="fill:#C7A26F;" d="M100.089,48.334c0.414,0,0.75-0.336,0.75-0.75v-2.683c0-0.414-0.336-0.75-0.75-0.75h-2.696
		c-0.414,0-0.75,0.336-0.75,0.75v2.683c0,0.414,0.336,0.75,0.75,0.75H100.089z M98.741,45.651c0.33,0,0.599,0.265,0.599,0.591
		s-0.269,0.591-0.599,0.591c-0.33,0-0.598-0.265-0.598-0.591S98.411,45.651,98.741,45.651z"/>
	<path style="fill:#C7A26F;" d="M107.67,48.334c0.414,0,0.75-0.336,0.75-0.75v-2.683c0-0.414-0.336-0.75-0.75-0.75h-2.696
		c-0.414,0-0.75,0.336-0.75,0.75v2.683c0,0.414,0.336,0.75,0.75,0.75H107.67z M106.322,45.651c0.33,0,0.598,0.265,0.598,0.591
		s-0.269,0.591-0.598,0.591s-0.598-0.265-0.598-0.591S105.992,45.651,106.322,45.651z"/>
	<path style="fill:#C7A26F;" d="M115.251,48.334c0.414,0,0.75-0.336,0.75-0.75v-2.683c0-0.414-0.336-0.75-0.75-0.75h-2.696
		c-0.414,0-0.75,0.336-0.75,0.75v2.683c0,0.414,0.336,0.75,0.75,0.75H115.251z M113.903,45.651c0.33,0,0.598,0.265,0.598,0.591
		s-0.269,0.591-0.598,0.591s-0.598-0.265-0.598-0.591S113.573,45.651,113.903,45.651z"/>
	<path style="fill:#C7A26F;" d="M122.832,48.334c0.414,0,0.75-0.336,0.75-0.75v-2.683c0-0.414-0.336-0.75-0.75-0.75h-2.696
		c-0.414,0-0.75,0.336-0.75,0.75v2.683c0,0.414,0.336,0.75,0.75,0.75H122.832z M121.484,45.651c0.33,0,0.598,0.265,0.598,0.591
		s-0.269,0.591-0.598,0.591s-0.598-0.265-0.598-0.591S121.154,45.651,121.484,45.651z"/>
	<path style="fill:#C7A26F;" d="M130.413,48.334c0.414,0,0.75-0.336,0.75-0.75v-2.683c0-0.414-0.336-0.75-0.75-0.75h-2.696
		c-0.414,0-0.75,0.336-0.75,0.75v2.683c0,0.414,0.336,0.75,0.75,0.75H130.413z M129.065,45.651c0.33,0,0.598,0.265,0.598,0.591
		s-0.268,0.591-0.598,0.591s-0.598-0.265-0.598-0.591S128.735,45.651,129.065,45.651z"/>
	<path style="fill:#C7A26F;" d="M137.994,48.334c0.414,0,0.75-0.336,0.75-0.75v-2.683c0-0.414-0.336-0.75-0.75-0.75h-2.696
		c-0.414,0-0.75,0.336-0.75,0.75v2.683c0,0.414,0.336,0.75,0.75,0.75H137.994z M136.646,45.651c0.33,0,0.598,0.265,0.598,0.591
		s-0.269,0.591-0.598,0.591s-0.598-0.265-0.598-0.591S136.316,45.651,136.646,45.651z"/>
	<path style="fill:#C7A26F;" d="M145.574,48.334c0.414,0,0.75-0.336,0.75-0.75v-1.336c0-0.002,0-0.003,0-0.005s0-0.003,0-0.005
		v-1.336c0-0.414-0.336-0.75-0.75-0.75h-2.696c-0.414,0-0.75,0.336-0.75,0.75v2.683c0,0.414,0.336,0.75,0.75,0.75H145.574z
		 M144.226,45.651c0.329,0,0.597,0.264,0.598,0.589v0.005c-0.001,0.325-0.269,0.589-0.598,0.589c-0.33,0-0.598-0.265-0.598-0.591
		S143.896,45.651,144.226,45.651z"/>
	<path style="fill:#C7A26F;" d="M153.156,48.334c0.414,0,0.75-0.336,0.75-0.75v-2.683c0-0.414-0.336-0.75-0.75-0.75h-2.696
		c-0.414,0-0.75,0.336-0.75,0.75v2.683c0,0.414,0.336,0.75,0.75,0.75H153.156z M151.808,45.651c0.33,0,0.598,0.265,0.598,0.591
		s-0.269,0.591-0.598,0.591s-0.598-0.265-0.598-0.591S151.478,45.651,151.808,45.651z"/>
	<path style="fill:#C7A26F;" d="M160.736,48.334c0.414,0,0.75-0.336,0.75-0.75v-2.683c0-0.414-0.336-0.75-0.75-0.75h-2.696
		c-0.414,0-0.75,0.336-0.75,0.75v2.683c0,0.414,0.336,0.75,0.75,0.75H160.736z M159.388,45.651c0.33,0,0.598,0.265,0.598,0.591
		s-0.269,0.591-0.598,0.591s-0.598-0.265-0.598-0.591S159.059,45.651,159.388,45.651z"/>
	<path style="fill:#C7A26F;" d="M168.317,48.334c0.414,0,0.75-0.336,0.75-0.75v-2.683c0-0.414-0.336-0.75-0.75-0.75h-2.696
		c-0.414,0-0.75,0.336-0.75,0.75v2.683c0,0.414,0.336,0.75,0.75,0.75H168.317z M166.969,45.651c0.33,0,0.598,0.265,0.598,0.591
		s-0.268,0.591-0.598,0.591s-0.598-0.265-0.598-0.591S166.64,45.651,166.969,45.651z"/>
	<path style="fill:#C7A26F;" d="M175.898,48.334c0.414,0,0.75-0.336,0.75-0.75v-2.683c0-0.414-0.336-0.75-0.75-0.75h-2.696
		c-0.414,0-0.75,0.336-0.75,0.75v2.683c0,0.414,0.336,0.75,0.75,0.75H175.898z M174.55,45.651c0.33,0,0.598,0.265,0.598,0.591
		s-0.269,0.591-0.598,0.591s-0.598-0.265-0.598-0.591S174.22,45.651,174.55,45.651z"/>
	<path style="fill:#C7A26F;" d="M183.479,48.334c0.414,0,0.75-0.336,0.75-0.75v-2.683c0-0.414-0.336-0.75-0.75-0.75h-2.696
		c-0.414,0-0.75,0.336-0.75,0.75v2.683c0,0.414,0.336,0.75,0.75,0.75H183.479z M182.729,46.243c0,0.326-0.269,0.591-0.598,0.591
		s-0.598-0.265-0.598-0.591s0.268-0.591,0.598-0.591S182.729,45.917,182.729,46.243z"/>
	<path style="fill:#C7A26F;" d="M191.059,48.334c0.414,0,0.75-0.336,0.75-0.75v-2.683c0-0.414-0.336-0.75-0.75-0.75h-2.696
		c-0.414,0-0.75,0.336-0.75,0.75v2.683c0,0.414,0.336,0.75,0.75,0.75H191.059z M189.711,45.651c0.33,0,0.598,0.265,0.598,0.591
		s-0.268,0.591-0.598,0.591s-0.598-0.265-0.598-0.591S189.382,45.651,189.711,45.651z"/>
	<path style="fill:#C7A26F;" d="M198.641,48.334c0.414,0,0.75-0.336,0.75-0.75v-1.336c0-0.002,0-0.003,0-0.005s0-0.003,0-0.005
		v-1.336c0-0.414-0.336-0.75-0.75-0.75h-2.696c-0.414,0-0.75,0.336-0.75,0.75v2.683c0,0.414,0.336,0.75,0.75,0.75H198.641z
		 M197.293,45.651c0.329,0,0.596,0.264,0.598,0.589v0.005c-0.001,0.325-0.269,0.589-0.598,0.589c-0.33,0-0.598-0.265-0.598-0.591
		S196.963,45.651,197.293,45.651z"/>
	<path style="fill:#C7A26F;" d="M206.222,48.334c0.414,0,0.75-0.336,0.75-0.75v-2.683c0-0.414-0.336-0.75-0.75-0.75h-2.696
		c-0.414,0-0.75,0.336-0.75,0.75v2.683c0,0.414,0.336,0.75,0.75,0.75H206.222z M204.874,45.651c0.33,0,0.598,0.265,0.598,0.591
		s-0.269,0.591-0.598,0.591s-0.598-0.265-0.598-0.591S204.544,45.651,204.874,45.651z"/>
	<path style="fill:#C7A26F;" d="M213.802,48.334c0.414,0,0.75-0.336,0.75-0.75v-2.683c0-0.414-0.336-0.75-0.75-0.75h-2.696
		c-0.414,0-0.75,0.336-0.75,0.75v2.683c0,0.414,0.336,0.75,0.75,0.75H213.802z M212.454,45.651c0.33,0,0.598,0.265,0.598,0.591
		s-0.269,0.591-0.598,0.591s-0.598-0.265-0.598-0.591S212.125,45.651,212.454,45.651z"/>
	<path style="fill:#C7A26F;" d="M221.383,48.334c0.414,0,0.75-0.336,0.75-0.75v-2.683c0-0.414-0.336-0.75-0.75-0.75h-2.696
		c-0.414,0-0.75,0.336-0.75,0.75v2.683c0,0.414,0.336,0.75,0.75,0.75H221.383z M220.035,45.651c0.33,0,0.598,0.265,0.598,0.591
		s-0.269,0.591-0.598,0.591s-0.598-0.265-0.598-0.591S219.705,45.651,220.035,45.651z"/>
	<path style="fill:#C7A26F;" d="M228.964,48.334c0.414,0,0.75-0.336,0.75-0.75v-2.683c0-0.414-0.336-0.75-0.75-0.75h-2.696
		c-0.414,0-0.75,0.336-0.75,0.75v2.683c0,0.414,0.336,0.75,0.75,0.75H228.964z M227.617,45.651c0.33,0,0.598,0.265,0.598,0.591
		s-0.268,0.591-0.598,0.591c-0.33,0-0.599-0.265-0.599-0.591S227.287,45.651,227.617,45.651z"/>
	<path style="fill:#C7A26F;" d="M236.545,48.334c0.414,0,0.75-0.336,0.75-0.75v-2.683c0-0.414-0.336-0.75-0.75-0.75h-2.696
		c-0.414,0-0.75,0.336-0.75,0.75v2.683c0,0.414,0.336,0.75,0.75,0.75H236.545z M235.197,45.651c0.33,0,0.598,0.265,0.598,0.591
		s-0.269,0.591-0.598,0.591s-0.598-0.265-0.598-0.591S234.867,45.651,235.197,45.651z"/>
	<path style="fill:#C7A26F;" d="M244.125,48.334c0.414,0,0.75-0.336,0.75-0.75v-2.683c0-0.414-0.336-0.75-0.75-0.75h-2.696
		c-0.414,0-0.75,0.336-0.75,0.75v2.683c0,0.414,0.336,0.75,0.75,0.75H244.125z M242.778,45.651c0.33,0,0.598,0.265,0.598,0.591
		s-0.268,0.591-0.598,0.591s-0.598-0.265-0.598-0.591S242.448,45.651,242.778,45.651z"/>
	<path style="fill:#C7A26F;" d="M251.628,48.334c0.414,0,0.75-0.336,0.75-0.75v-2.683c0-0.414-0.336-0.75-0.75-0.75h-2.696
		c-0.414,0-0.75,0.336-0.75,0.75v2.683c0,0.414,0.336,0.75,0.75,0.75H251.628z M250.28,45.651c0.33,0,0.598,0.265,0.598,0.591
		s-0.269,0.591-0.598,0.591s-0.598-0.265-0.598-0.591S249.95,45.651,250.28,45.651z"/>
	<path style="fill:#C7A26F;" d="M259.208,48.334c0.414,0,0.75-0.336,0.75-0.75v-2.683c0-0.414-0.336-0.75-0.75-0.75h-2.696
		c-0.414,0-0.75,0.336-0.75,0.75v2.683c0,0.414,0.336,0.75,0.75,0.75H259.208z M257.861,45.651c0.33,0,0.598,0.265,0.598,0.591
		s-0.268,0.591-0.598,0.591s-0.598-0.265-0.598-0.591S257.531,45.651,257.861,45.651z"/>
	<path style="fill:#C7A26F;" d="M266.79,48.334c0.414,0,0.75-0.336,0.75-0.75v-2.683c0-0.414-0.336-0.75-0.75-0.75h-2.696
		c-0.414,0-0.75,0.336-0.75,0.75v2.683c0,0.414,0.336,0.75,0.75,0.75H266.79z M265.442,45.651c0.33,0,0.598,0.265,0.598,0.591
		s-0.268,0.591-0.598,0.591c-0.33,0-0.599-0.265-0.599-0.591S265.112,45.651,265.442,45.651z"/>
	<path style="fill:#C7A26F;" d="M274.371,48.334c0.414,0,0.75-0.336,0.75-0.75v-2.683c0-0.414-0.336-0.75-0.75-0.75h-2.696
		c-0.414,0-0.75,0.336-0.75,0.75v2.683c0,0.414,0.336,0.75,0.75,0.75H274.371z M273.023,45.651c0.33,0,0.598,0.265,0.598,0.591
		s-0.268,0.591-0.598,0.591c-0.33,0-0.599-0.265-0.599-0.591S272.693,45.651,273.023,45.651z"/>
	<path style="fill:#C7A26F;" d="M281.951,48.334c0.414,0,0.75-0.336,0.75-0.75v-1.336c0-0.002,0-0.003,0-0.005s0-0.003,0-0.005
		v-1.336c0-0.414-0.336-0.75-0.75-0.75h-2.696c-0.414,0-0.75,0.336-0.75,0.75v2.683c0,0.414,0.336,0.75,0.75,0.75H281.951z
		 M280.603,45.651c0.329,0,0.597,0.264,0.598,0.589v0.005c-0.001,0.325-0.269,0.589-0.598,0.589c-0.33,0-0.598-0.265-0.598-0.591
		S280.273,45.651,280.603,45.651z"/>
	<path style="fill:#C7A26F;" d="M289.532,48.334c0.414,0,0.75-0.336,0.75-0.75v-2.683c0-0.414-0.336-0.75-0.75-0.75h-2.696
		c-0.414,0-0.75,0.336-0.75,0.75v2.683c0,0.414,0.336,0.75,0.75,0.75H289.532z M288.184,45.651c0.33,0,0.598,0.265,0.598,0.591
		s-0.269,0.591-0.598,0.591s-0.598-0.265-0.598-0.591S287.854,45.651,288.184,45.651z"/>
	<path style="fill:#C7A26F;" d="M297.113,48.334c0.414,0,0.75-0.336,0.75-0.75v-2.683c0-0.414-0.336-0.75-0.75-0.75h-2.696
		c-0.414,0-0.75,0.336-0.75,0.75v2.683c0,0.414,0.336,0.75,0.75,0.75H297.113z M295.765,45.651c0.33,0,0.598,0.265,0.598,0.591
		s-0.269,0.591-0.598,0.591s-0.598-0.265-0.598-0.591S295.436,45.651,295.765,45.651z"/>
	<path style="fill:#C7A26F;" d="M304.694,48.334c0.414,0,0.75-0.336,0.75-0.75v-2.683c0-0.414-0.336-0.75-0.75-0.75h-2.696
		c-0.414,0-0.75,0.336-0.75,0.75v2.683c0,0.414,0.336,0.75,0.75,0.75H304.694z M303.346,45.651c0.33,0,0.598,0.265,0.598,0.591
		s-0.269,0.591-0.598,0.591s-0.598-0.265-0.598-0.591S303.017,45.651,303.346,45.651z"/>
	<path style="fill:#C7A26F;" d="M312.275,48.334c0.414,0,0.75-0.336,0.75-0.75v-2.683c0-0.414-0.336-0.75-0.75-0.75h-2.696
		c-0.414,0-0.75,0.336-0.75,0.75v2.683c0,0.414,0.336,0.75,0.75,0.75H312.275z M310.927,45.651c0.33,0,0.598,0.265,0.598,0.591
		s-0.268,0.591-0.598,0.591s-0.598-0.265-0.598-0.591S310.598,45.651,310.927,45.651z"/>
	<path style="fill:#C7A26F;" d="M319.856,48.334c0.414,0,0.75-0.336,0.75-0.75v-2.683c0-0.414-0.336-0.75-0.75-0.75h-2.696
		c-0.414,0-0.75,0.336-0.75,0.75v2.683c0,0.414,0.336,0.75,0.75,0.75H319.856z M318.508,45.651c0.33,0,0.598,0.265,0.598,0.591
		s-0.269,0.591-0.598,0.591s-0.598-0.265-0.598-0.591S318.178,45.651,318.508,45.651z"/>
	<path style="fill:#C7A26F;" d="M327.437,48.334c0.414,0,0.75-0.336,0.75-0.75v-1.336c0-0.002,0-0.003,0-0.005s0-0.003,0-0.005
		v-1.336c0-0.414-0.336-0.75-0.75-0.75h-2.696c-0.414,0-0.75,0.336-0.75,0.75v2.683c0,0.414,0.336,0.75,0.75,0.75H327.437z
		 M326.088,45.651c0.329,0,0.597,0.264,0.598,0.589v0.005c-0.001,0.325-0.269,0.589-0.598,0.589c-0.33,0-0.598-0.265-0.598-0.591
		S325.759,45.651,326.088,45.651z"/>
	<path style="fill:#C7A26F;" d="M335.018,48.334c0.414,0,0.75-0.336,0.75-0.75v-2.683c0-0.414-0.336-0.75-0.75-0.75h-2.696
		c-0.414,0-0.75,0.336-0.75,0.75v1.336c0,0.002,0,0.003,0,0.005s0,0.003,0,0.005v1.336c0,0.414,0.336,0.75,0.75,0.75H335.018z
		 M333.669,45.651c0.33,0,0.598,0.265,0.598,0.591s-0.269,0.591-0.598,0.591c-0.329,0-0.596-0.264-0.598-0.589V46.24
		C333.073,45.915,333.34,45.651,333.669,45.651z"/>
	<path style="fill:#C7A26F;" d="M342.598,48.334c0.414,0,0.75-0.336,0.75-0.75v-2.683c0-0.414-0.336-0.75-0.75-0.75h-2.696
		c-0.414,0-0.75,0.336-0.75,0.75v2.683c0,0.414,0.336,0.75,0.75,0.75H342.598z M341.25,45.651c0.33,0,0.598,0.265,0.598,0.591
		s-0.269,0.591-0.598,0.591s-0.598-0.265-0.598-0.591S340.92,45.651,341.25,45.651z"/>
	<path style="fill:#C7A26F;" d="M350.18,48.334c0.414,0,0.75-0.336,0.75-0.75v-2.683c0-0.414-0.336-0.75-0.75-0.75h-2.696
		c-0.414,0-0.75,0.336-0.75,0.75v2.683c0,0.414,0.336,0.75,0.75,0.75H350.18z M349.429,46.243c0,0.326-0.268,0.591-0.598,0.591
		s-0.598-0.265-0.598-0.591s0.268-0.591,0.598-0.591S349.429,45.917,349.429,46.243z"/>
	<path style="fill:#C7A26F;" d="M357.76,48.334c0.414,0,0.75-0.336,0.75-0.75v-2.683c0-0.414-0.336-0.75-0.75-0.75h-2.696
		c-0.414,0-0.75,0.336-0.75,0.75v2.683c0,0.414,0.336,0.75,0.75,0.75H357.76z M356.412,45.651c0.33,0,0.598,0.265,0.598,0.591
		s-0.269,0.591-0.598,0.591s-0.598-0.265-0.598-0.591S356.083,45.651,356.412,45.651z"/>
	<path style="fill:#C7A26F;" d="M365.341,48.334c0.414,0,0.75-0.336,0.75-0.75v-1.336c0-0.002,0-0.003,0-0.005s0-0.003,0-0.005
		v-1.336c0-0.414-0.336-0.75-0.75-0.75h-2.696c-0.414,0-0.75,0.336-0.75,0.75v2.683c0,0.414,0.336,0.75,0.75,0.75H365.341z
		 M364.591,46.24v0.005c-0.001,0.325-0.269,0.589-0.598,0.589c-0.33,0-0.598-0.265-0.598-0.591s0.268-0.591,0.598-0.591
		C364.322,45.651,364.589,45.915,364.591,46.24z"/>
	<path style="fill:#C7A26F;" d="M372.922,48.334c0.414,0,0.75-0.336,0.75-0.75v-2.683c0-0.414-0.336-0.75-0.75-0.75h-2.696
		c-0.414,0-0.75,0.336-0.75,0.75v2.683c0,0.414,0.336,0.75,0.75,0.75H372.922z M371.574,45.651c0.33,0,0.598,0.265,0.598,0.591
		s-0.268,0.591-0.598,0.591s-0.598-0.265-0.598-0.591S371.244,45.651,371.574,45.651z"/>
	<path style="fill:#C7A26F;" d="M380.503,48.334c0.414,0,0.75-0.336,0.75-0.75v-1.336c0-0.002,0-0.003,0-0.005s0-0.003,0-0.005
		v-1.336c0-0.414-0.336-0.75-0.75-0.75h-2.696c-0.414,0-0.75,0.336-0.75,0.75v2.683c0,0.414,0.336,0.75,0.75,0.75H380.503z
		 M379.753,46.24v0.005c-0.001,0.325-0.269,0.589-0.598,0.589c-0.33,0-0.598-0.265-0.598-0.591s0.269-0.591,0.598-0.591
		C379.484,45.651,379.751,45.915,379.753,46.24z"/>
	<path style="fill:#C7A26F;" d="M388.083,48.334c0.414,0,0.75-0.336,0.75-0.75v-2.683c0-0.414-0.336-0.75-0.75-0.75h-2.696
		c-0.414,0-0.75,0.336-0.75,0.75v1.336c0,0.002,0,0.003,0,0.005s0,0.003,0,0.005v1.336c0,0.414,0.336,0.75,0.75,0.75H388.083z
		 M386.736,45.651c0.33,0,0.598,0.265,0.598,0.591s-0.268,0.591-0.598,0.591c-0.329,0-0.597-0.264-0.598-0.589V46.24
		C386.139,45.915,386.407,45.651,386.736,45.651z"/>
	<path style="fill:#C7A26F;" d="M395.665,48.334c0.414,0,0.75-0.336,0.75-0.75v-2.683c0-0.414-0.336-0.75-0.75-0.75h-2.696
		c-0.414,0-0.75,0.336-0.75,0.75v2.683c0,0.414,0.336,0.75,0.75,0.75H395.665z M394.316,45.651c0.33,0,0.598,0.265,0.598,0.591
		s-0.269,0.591-0.598,0.591s-0.598-0.265-0.598-0.591S393.987,45.651,394.316,45.651z"/>
	<path style="fill:#C7A26F;" d="M402.978,48.334c0.414,0,0.75-0.336,0.75-0.75v-1.336c0-0.002,0-0.003,0-0.005s0-0.003,0-0.005
		v-1.336c0-0.414-0.336-0.75-0.75-0.75h-2.696c-0.414,0-0.75,0.336-0.75,0.75v2.683c0,0.414,0.336,0.75,0.75,0.75H402.978z
		 M401.629,45.651c0.329,0,0.597,0.264,0.598,0.589v0.005c-0.001,0.325-0.269,0.589-0.598,0.589c-0.33,0-0.598-0.265-0.598-0.591
		S401.3,45.651,401.629,45.651z"/>
	<path style="fill:#C7A26F;" d="M410.559,48.334c0.414,0,0.75-0.336,0.75-0.75v-2.683c0-0.414-0.336-0.75-0.75-0.75h-2.696
		c-0.414,0-0.75,0.336-0.75,0.75v2.683c0,0.414,0.336,0.75,0.75,0.75H410.559z M409.21,45.651c0.33,0,0.598,0.265,0.598,0.591
		s-0.268,0.591-0.598,0.591s-0.598-0.265-0.598-0.591S408.881,45.651,409.21,45.651z"/>
	<path style="fill:#C7A26F;" d="M418.139,48.334c0.414,0,0.75-0.336,0.75-0.75v-2.683c0-0.414-0.336-0.75-0.75-0.75h-2.696
		c-0.414,0-0.75,0.336-0.75,0.75v2.683c0,0.414,0.336,0.75,0.75,0.75H418.139z M416.792,45.651c0.33,0,0.598,0.265,0.598,0.591
		s-0.268,0.591-0.598,0.591c-0.33,0-0.599-0.265-0.599-0.591S416.461,45.651,416.792,45.651z"/>
	<path style="fill:#C7A26F;" d="M425.721,48.334c0.414,0,0.75-0.336,0.75-0.75v-2.683c0-0.414-0.336-0.75-0.75-0.75h-2.696
		c-0.414,0-0.75,0.336-0.75,0.75v1.336c0,0.002,0,0.003,0,0.005s0,0.003,0,0.005v1.336c0,0.414,0.336,0.75,0.75,0.75H425.721z
		 M424.373,45.651c0.33,0,0.598,0.265,0.598,0.591s-0.268,0.591-0.598,0.591c-0.329,0-0.597-0.264-0.598-0.589V46.24
		C423.776,45.915,424.043,45.651,424.373,45.651z"/>
	<path style="fill:#C7A26F;" d="M433.301,48.334c0.414,0,0.75-0.336,0.75-0.75v-2.683c0-0.414-0.336-0.75-0.75-0.75h-2.696
		c-0.414,0-0.75,0.336-0.75,0.75v2.683c0,0.414,0.336,0.75,0.75,0.75H433.301z M431.953,45.651c0.33,0,0.598,0.265,0.598,0.591
		s-0.269,0.591-0.598,0.591s-0.598-0.265-0.598-0.591S431.624,45.651,431.953,45.651z"/>
	<path style="fill:#C7A26F;" d="M440.882,48.334c0.414,0,0.75-0.336,0.75-0.75v-2.683c0-0.414-0.336-0.75-0.75-0.75h-2.696
		c-0.414,0-0.75,0.336-0.75,0.75v2.683c0,0.414,0.336,0.75,0.75,0.75H440.882z M439.534,45.651c0.33,0,0.598,0.265,0.598,0.591
		s-0.269,0.591-0.598,0.591s-0.598-0.265-0.598-0.591S439.204,45.651,439.534,45.651z"/>
	<path style="fill:#C7A26F;" d="M448.463,48.334c0.414,0,0.75-0.336,0.75-0.75v-2.683c0-0.414-0.336-0.75-0.75-0.75h-2.696
		c-0.414,0-0.75,0.336-0.75,0.75v2.683c0,0.414,0.336,0.75,0.75,0.75H448.463z M447.115,45.651c0.33,0,0.598,0.265,0.598,0.591
		s-0.269,0.591-0.598,0.591s-0.598-0.265-0.598-0.591S446.785,45.651,447.115,45.651z"/>
	<path style="fill:#C7A26F;" d="M456.044,48.334c0.414,0,0.75-0.336,0.75-0.75v-1.336c0-0.002,0-0.003,0-0.005s0-0.003,0-0.005
		v-1.336c0-0.414-0.336-0.75-0.75-0.75h-2.696c-0.414,0-0.75,0.336-0.75,0.75v2.683c0,0.414,0.336,0.75,0.75,0.75H456.044z
		 M455.294,46.24v0.005c-0.001,0.325-0.269,0.589-0.598,0.589c-0.33,0-0.598-0.265-0.598-0.591s0.268-0.591,0.598-0.591
		C455.025,45.651,455.292,45.915,455.294,46.24z"/>
	<path style="fill:#C7A26F;" d="M463.625,48.334c0.414,0,0.75-0.336,0.75-0.75v-2.683c0-0.414-0.336-0.75-0.75-0.75h-2.696
		c-0.414,0-0.75,0.336-0.75,0.75v2.683c0,0.414,0.336,0.75,0.75,0.75H463.625z M462.277,45.651c0.33,0,0.598,0.265,0.598,0.591
		s-0.268,0.591-0.598,0.591s-0.598-0.265-0.598-0.591S461.947,45.651,462.277,45.651z"/>
	<path style="fill:#C7A26F;" d="M471.206,48.334c0.414,0,0.75-0.336,0.75-0.75v-2.683c0-0.414-0.336-0.75-0.75-0.75h-2.696
		c-0.414,0-0.75,0.336-0.75,0.75v2.683c0,0.414,0.336,0.75,0.75,0.75H471.206z M469.858,45.651c0.33,0,0.598,0.265,0.598,0.591
		s-0.268,0.591-0.598,0.591s-0.598-0.265-0.598-0.591S469.528,45.651,469.858,45.651z"/>
	<path style="fill:#C7A26F;" d="M478.787,48.334c0.414,0,0.75-0.336,0.75-0.75v-2.683c0-0.414-0.336-0.75-0.75-0.75h-2.696
		c-0.414,0-0.75,0.336-0.75,0.75v2.683c0,0.414,0.336,0.75,0.75,0.75H478.787z M477.438,45.651c0.33,0,0.599,0.265,0.599,0.591
		s-0.269,0.591-0.599,0.591c-0.33,0-0.598-0.265-0.598-0.591S477.108,45.651,477.438,45.651z"/>
	<path style="fill:#C7A26F;" d="M486.367,48.334c0.414,0,0.75-0.336,0.75-0.75v-2.683c0-0.414-0.336-0.75-0.75-0.75h-2.696
		c-0.414,0-0.75,0.336-0.75,0.75v2.683c0,0.414,0.336,0.75,0.75,0.75H486.367z M485.019,45.651c0.33,0,0.598,0.265,0.598,0.591
		s-0.269,0.591-0.598,0.591s-0.598-0.265-0.598-0.591S484.689,45.651,485.019,45.651z"/>
	<path style="fill:#C7A26F;" d="M493.948,48.334c0.414,0,0.75-0.336,0.75-0.75v-2.683c0-0.414-0.336-0.75-0.75-0.75h-2.696
		c-0.414,0-0.75,0.336-0.75,0.75v1.336c0,0.002,0,0.003,0,0.005s0,0.003,0,0.005v1.336c0,0.414,0.336,0.75,0.75,0.75H493.948z
		 M492.6,45.651c0.33,0,0.598,0.265,0.598,0.591s-0.269,0.591-0.598,0.591c-0.329,0-0.596-0.264-0.598-0.589V46.24
		C492.003,45.915,492.271,45.651,492.6,45.651z"/>
	<path style="fill:#C7A26F;" d="M501.529,48.334c0.414,0,0.75-0.336,0.75-0.75v-2.683c0-0.414-0.336-0.75-0.75-0.75h-2.696
		c-0.414,0-0.75,0.336-0.75,0.75v2.683c0,0.414,0.336,0.75,0.75,0.75H501.529z M500.181,45.651c0.33,0,0.598,0.265,0.598,0.591
		s-0.269,0.591-0.598,0.591s-0.598-0.265-0.598-0.591S499.852,45.651,500.181,45.651z"/>
	<path style="fill:#C7A26F;" d="M509.11,48.334c0.414,0,0.75-0.336,0.75-0.75v-2.683c0-0.414-0.336-0.75-0.75-0.75h-2.696
		c-0.414,0-0.75,0.336-0.75,0.75v2.683c0,0.414,0.336,0.75,0.75,0.75H509.11z M507.762,45.651c0.33,0,0.598,0.265,0.598,0.591
		s-0.268,0.591-0.598,0.591s-0.598-0.265-0.598-0.591S507.433,45.651,507.762,45.651z"/>
	<path style="fill:#C7A26F;" d="M516.691,48.334c0.414,0,0.75-0.336,0.75-0.75v-2.683c0-0.414-0.336-0.75-0.75-0.75h-2.696
		c-0.414,0-0.75,0.336-0.75,0.75v2.683c0,0.414,0.336,0.75,0.75,0.75H516.691z M515.342,45.651c0.33,0,0.599,0.265,0.599,0.591
		s-0.269,0.591-0.599,0.591c-0.33,0-0.598-0.265-0.598-0.591S515.013,45.651,515.342,45.651z"/>
	<path style="fill:#C7A26F;" d="M524.271,48.334c0.414,0,0.75-0.336,0.75-0.75v-2.683c0-0.414-0.336-0.75-0.75-0.75h-2.696
		c-0.414,0-0.75,0.336-0.75,0.75v2.683c0,0.414,0.336,0.75,0.75,0.75H524.271z M523.521,46.243c0,0.326-0.269,0.591-0.598,0.591
		s-0.598-0.265-0.598-0.591s0.268-0.591,0.598-0.591S523.521,45.917,523.521,46.243z"/>
	<path style="fill:#C7A26F;" d="M531.853,48.334c0.414,0,0.75-0.336,0.75-0.75v-2.683c0-0.414-0.336-0.75-0.75-0.75h-2.696
		c-0.414,0-0.75,0.336-0.75,0.75v2.683c0,0.414,0.336,0.75,0.75,0.75H531.853z M530.505,45.651c0.33,0,0.598,0.265,0.598,0.591
		s-0.269,0.591-0.598,0.591s-0.598-0.265-0.598-0.591S530.175,45.651,530.505,45.651z"/>
	<path style="fill:#C7A26F;" d="M539.434,48.334c0.414,0,0.75-0.336,0.75-0.75v-2.683c0-0.414-0.336-0.75-0.75-0.75h-2.696
		c-0.414,0-0.75,0.336-0.75,0.75v2.683c0,0.414,0.336,0.75,0.75,0.75H539.434z M538.085,45.651c0.33,0,0.598,0.265,0.598,0.591
		s-0.269,0.591-0.598,0.591s-0.598-0.265-0.598-0.591S537.756,45.651,538.085,45.651z"/>
	<path style="fill:#C7A26F;" d="M547.014,48.334c0.414,0,0.75-0.336,0.75-0.75v-2.683c0-0.414-0.336-0.75-0.75-0.75h-2.696
		c-0.414,0-0.75,0.336-0.75,0.75v1.336c0,0.002,0,0.003,0,0.005s0,0.003,0,0.005v1.336c0,0.414,0.336,0.75,0.75,0.75H547.014z
		 M545.666,45.651c0.33,0,0.598,0.265,0.598,0.591s-0.269,0.591-0.598,0.591c-0.329,0-0.596-0.264-0.598-0.589V46.24
		C545.07,45.915,545.337,45.651,545.666,45.651z"/>
	<path style="fill:#C7A26F;" d="M1476.627,1269.037h-210.668c-0.024,0-0.044,0.011-0.068,0.014H811.814l-6.008-6.67H995.49
		c0.01,0,0.019-0.005,0.029-0.006h427.801c0.338,0,0.634-0.226,0.724-0.552l0.441-1.61c8.365-30.593,32.684-55.104,63.466-63.971
		l1.582-0.455c0.321-0.093,0.542-0.387,0.542-0.721V1057.18V101.845c0-0.334-0.221-0.628-0.542-0.721l-1.582-0.456
		c-30.782-8.866-55.101-33.378-63.466-63.971l-0.441-1.61c-0.089-0.326-0.385-0.552-0.723-0.552H994.88H805.196l6.009-6.67h454.713
		c0.014,0.001,0.026,0.008,0.041,0.008h210.668c0.414,0,0.75-0.336,0.75-0.75v-2.187c0-0.414-0.336-0.75-0.75-0.75h-210.668
		l-455.435-0.008c-0.308-0.25-0.759-0.224-1.028,0.074l-0.127,0.141c-0.002,0.002-0.005,0.003-0.007,0.005
		c-0.003,0.003-0.005,0.008-0.008,0.012l-9.121,10.126h-94.396l-9.262-10.283c-0.268-0.298-0.72-0.324-1.027-0.074L241.02,24.187
		H30.351c-0.414,0-0.75,0.336-0.75,0.75v2.187c0,0.414,0.336,0.75,0.75,0.75H241.02l453.845-0.008l6.008,6.67H512.098H83.659
		c-0.338,0-0.634,0.226-0.723,0.552l-0.442,1.611c-8.365,30.592-32.684,55.104-63.465,63.97l-1.582,0.456
		c-0.321,0.092-0.542,0.386-0.542,0.721v955.335v137.886c0,0.334,0.221,0.628,0.542,0.721l1.582,0.455
		c30.782,8.866,55.101,33.378,63.466,63.971l0.441,1.61c0.089,0.326,0.385,0.552,0.723,0.552h428.439c0.107,0,0.208-0.024,0.3-0.065
		c0.095,0.043,0.198,0.071,0.309,0.071h188.775l-6.008,6.67l-453.846-0.009c-0.107,0-0.208,0.024-0.301,0.065
		c-0.094-0.043-0.198-0.07-0.308-0.07H30.351c-0.414,0-0.75,0.336-0.75,0.75v2.187c0,0.414,0.336,0.75,0.75,0.75H241.02
		c0.107,0,0.208-0.024,0.3-0.065c0.095,0.043,0.198,0.071,0.309,0.071l454.53,0.009c0.308,0.25,0.758,0.223,1.026-0.075l0.129-0.143
		c0,0,0.001-0.001,0.002-0.001c0.001-0.001,0.001-0.002,0.002-0.003l9.129-10.135h94.398l9.118,10.122
		c0.004,0.005,0.006,0.011,0.01,0.016c0.003,0.003,0.006,0.004,0.009,0.006l0.125,0.138c0.148,0.164,0.352,0.248,0.557,0.248
		c0.167,0,0.332-0.061,0.469-0.173l455.436-0.009c0.01,0,0.019-0.005,0.029-0.006h210.03c0.414,0,0.75-0.336,0.75-0.75v-2.187
		C1477.377,1269.373,1477.041,1269.037,1476.627,1269.037z M994.88,36.036h427.867l0.29,1.058
		c8.503,31.094,33.217,56.006,64.498,65.016l1.039,0.299v954.771v137.321l-1.039,0.299c-31.281,9.01-55.995,33.923-64.498,65.016
		l-0.29,1.059H994.88c-0.01,0-0.019,0.005-0.029,0.006H804.455l-2.581-2.866l432.59-0.008c0.01,0,0.019-0.005,0.029-0.006h185.504
		c0.333,0,0.626-0.22,0.72-0.539c8.964-30.623,33.662-55.513,64.454-64.957c0.315-0.097,0.53-0.388,0.53-0.717l-0.07-134.608
		l0.07-952.057c0-0.33-0.215-0.621-0.53-0.717c-30.792-9.444-55.49-34.334-64.454-64.958c-0.093-0.319-0.387-0.539-0.72-0.539
		h-186.142l-432.59-0.008l2.581-2.866H994.88z M754.2,1208.358c-0.284-0.316-0.83-0.316-1.114,0l-43.375,48.157h-0.926
		l44.858-49.801l44.861,49.801h-0.925L754.2,1208.358z M795.56,1256.515l-16.833,0l-24.532-26.763c-0.284-0.311-0.821-0.311-1.105,0
		l-24.532,26.763l-16.829,0l41.914-46.534L795.56,1256.515z M708.359,1258.015l-2.581,2.866h-0.926l2.581-2.866H708.359z
		 M273.733,1256.506c-0.107,0-0.208,0.024-0.3,0.065c-0.095-0.043-0.198-0.071-0.309-0.071H87.542
		c-9.182-30.677-33.922-55.609-64.763-65.266l0.069-134.054c0,0,0,0,0,0c0,0,0,0,0,0l-0.07-951.505
		C53.619,96.02,78.36,71.087,87.542,40.409h185.583l433.032-0.008l46.32,51.424c0.142,0.158,0.345,0.248,0.557,0.248
		s0.415-0.09,0.557-0.248l46.322-51.424l433.941,0.008h185.582c9.182,30.677,33.923,55.61,64.764,65.266l-0.07,951.505c0,0,0,0,0,0
		c0,0,0,0,0,0l0.069,134.054c-30.841,9.656-55.581,34.589-64.764,65.266h-185.582c-0.01,0-0.019,0.005-0.029,0.006l-433.303,0.008
		L754.2,1205.09c-0.284-0.316-0.83-0.316-1.114,0l-46.32,51.424L273.733,1256.506z M709.101,40.401l43.375,48.156
		c0.142,0.158,0.345,0.248,0.557,0.248s0.415-0.09,0.557-0.248l43.378-48.156h0.925l-44.861,49.801l-44.858-49.801H709.101z
		 M706.824,38.901l-2.581-2.866h0.926l2.581,2.866H706.824z M711.12,40.401l16.829,0l24.532,26.763
		c0.142,0.155,0.343,0.243,0.553,0.243c0.21,0,0.411-0.088,0.553-0.243l24.532-26.763l16.832,0l-41.917,46.534L711.12,40.401z
		 M798.32,38.901l2.581-2.866h0.925l-2.581,2.866H798.32z M799.854,1258.015l2.581,2.866h-0.925l-2.581-2.866H799.854z
		 M1475.877,26.374h-196.709c-0.014-0.001-0.026-0.008-0.041-0.008H812.401c0.013-0.062,0.03-0.122,0.027-0.186
		c-0.01-0.191-0.096-0.369-0.234-0.501l453.764,0.008h209.918V26.374z M809.143,26.886v0.229c0,0.213,0.091,0.403,0.233,0.539
		l-6.198,6.881h-0.925L809.143,26.886z M798.882,36.036l-2.581,2.866l-18.513,0c-0.21,0-0.411,0.088-0.553,0.243l-24.202,26.403
		l-24.202-26.403c-0.142-0.155-0.343-0.243-0.553-0.243l-18.51,0l-2.581-2.866H798.882z M31.101,25.687H241.02l452.856-0.008
		c-0.138,0.132-0.224,0.31-0.234,0.5c-0.003,0.064,0.014,0.125,0.027,0.187L241.02,26.374H31.101V25.687z M696.693,27.654
		c0.142-0.136,0.232-0.326,0.232-0.539v-0.232l6.893,7.653h-0.926L696.693,27.654z M512.707,1260.88c-0.107,0-0.208,0.024-0.3,0.065
		c-0.095-0.043-0.198-0.071-0.309-0.071H84.231l-0.29-1.059c-8.502-31.093-33.216-56.006-64.498-65.016l-1.039-0.299V1057.18
		V102.409l1.039-0.299C50.725,93.1,75.438,68.188,83.94,37.094l0.291-1.059h427.867h190.127l2.581,2.866l-431.681,0.008H86.981
		c-0.333,0-0.626,0.22-0.72,0.539c-8.963,30.623-33.661,55.513-64.454,64.958c-0.315,0.096-0.53,0.387-0.53,0.717l0.07,952.057
		l-0.07,134.608c0,0.329,0.215,0.62,0.53,0.717c30.793,9.444,55.49,34.334,64.454,64.957c0.093,0.319,0.387,0.539,0.72,0.539
		h186.143c0.107,0,0.208-0.024,0.3-0.065c0.095,0.043,0.198,0.071,0.309,0.071l431.681,0.008l-2.581,2.866H512.707z
		 M31.101,1270.537H241.02c0.107,0,0.208-0.024,0.301-0.065c0.094,0.043,0.198,0.07,0.308,0.07l452.649,0.009
		c-0.013,0.062-0.03,0.123-0.027,0.187c0.01,0.192,0.096,0.369,0.234,0.501l-452.856-0.009c-0.107,0-0.208,0.024-0.3,0.065
		c-0.095-0.043-0.198-0.071-0.309-0.071H31.101V1270.537z M697.535,1270.032v-0.232c0-0.212-0.09-0.402-0.232-0.538l6.198-6.881
		h0.926L697.535,1270.032z M707.797,1260.88l2.581-2.866l18.51,0c0.21,0,0.411-0.088,0.553-0.243l24.202-26.402l24.202,26.402
		c0.142,0.155,0.342,0.243,0.553,0.243l18.514,0l2.581,2.866H707.797z M803.787,1262.38l6.198,6.881
		c-0.142,0.136-0.233,0.326-0.233,0.539v0.229l-6.89-7.649H803.787z M1475.877,1271.223h-209.918c-0.01,0-0.019,0.005-0.029,0.006
		l-453.126,0.009c0.138-0.132,0.224-0.309,0.234-0.501c0.003-0.064-0.014-0.125-0.027-0.187h466.726
		c0.024,0,0.044-0.011,0.068-0.014h196.073V1271.223z"/>
</g>
</svg>
