<?xml version="1.0" encoding="iso-8859-1"?>
<!-- Generator: Adobe Illustrator 24.2.3, SVG Export Plug-In . SVG Version: 6.00 Build 0)  -->
<svg version="1.1" id="&#x5716;&#x5C64;_1" xmlns="http://www.w3.org/2000/svg" xmlns:xlink="http://www.w3.org/1999/xlink" x="0px"
	 y="0px" viewBox="0 0 1509.378 2075.765" style="enable-background:new 0 0 1509.378 2075.765;" xml:space="preserve">
<g>
	<g>
		<path style="fill:#C7A26F;" d="M1505.978,2676.538L1505.978,2676.538c-0.415,0-0.751-1.908-0.75-4.251l1.021-4617.871h-592.62
			c-0.414,0-0.75-1.902-0.75-4.246c0-2.344,0.336-4.246,0.75-4.246H1507c0.199,0,0.39,0.447,0.53,1.245
			c0.141,0.798,0.22,1.88,0.22,3.006l-1.022,4622.123C1506.727,2674.642,1506.392,2676.538,1505.978,2676.538z"/>
		<path style="fill:#C7A26F;" d="M1501.161,2569.509c0,0-0.001,0-0.002,0c-0.414-0.005-0.749-1.907-0.748-4.251l1.464-4407.39
			h-13.149c-0.414,0-0.75-1.902-0.75-4.246v-74.444H577.505c-0.414,0-0.75-1.902-0.75-4.246c0-2.344,0.336-4.246,0.75-4.246h911.221
			c0.414,0,0.75,1.902,0.75,4.246v74.444h13.15c0.199,0,0.391,0.447,0.531,1.245c0.141,0.798,0.219,1.88,0.219,3.006
			l-1.465,4411.641C1501.91,2567.612,1501.574,2569.509,1501.161,2569.509z"/>
		<path style="fill:#C7A26F;" d="M1489.073,2132.434c-0.001,0-0.001,0-0.002,0c-0.414-0.005-0.749-1.907-0.748-4.257l1.464-3582.204
			l-1.037-1.687c-31.282-51.007-55.996-192.037-64.499-368.065l-0.289-5.995H996.094c-0.414,0-0.75-1.902-0.75-4.246
			s0.336-4.246,0.75-4.246h428.44c0.338,0,0.635,1.279,0.724,3.125l0.44,9.12c8.365,173.186,32.685,311.952,63.467,362.144
			l1.58,2.576c0.322,0.526,0.544,2.197,0.543,4.093l-1.465,3585.402C1489.823,2130.543,1489.487,2132.434,1489.073,2132.434z"/>
		<path style="fill:#C7A26F;" d="M1484.63,2132.434c-0.001,0-0.001,0-0.002,0c-0.414-0.005-0.749-1.907-0.748-4.257l1.533-3563.709
			c-30.842-54.664-55.581-195.808-64.763-369.475h-185.582c-0.414,0-0.75-1.902-0.75-4.246c0-2.344,0.336-4.246,0.75-4.246h186.143
			c0.333,0,0.626,1.245,0.72,3.057c8.963,173.356,33.66,314.261,64.453,367.731c0.315,0.549,0.531,2.202,0.53,4.07l-1.534,3566.851
			C1485.379,2130.543,1485.043,2132.434,1484.63,2132.434z"/>
	</g>
	<g>
		<path style="fill:#C7A26F;" d="M0.5,2676.538c0,0-0.001,0-0.002,0c-0.414-0.006-0.749-1.908-0.748-4.257l1.907-4622.122
			c0.001-2.338,0.336-4.234,0.75-4.234h911.222c0.414,0,0.75,1.902,0.75,4.246s-0.336,4.246-0.75,4.246H3.156L1.25,2672.304
			C1.249,2674.647,0.913,2676.538,0.5,2676.538z"/>
		<path style="fill:#C7A26F;" d="M5.316,2569.509L5.316,2569.509c-0.415-0.005-0.751-1.907-0.75-4.251l1.465-4411.641
			c0.001-2.344,0.336-4.24,0.75-4.24h13.15v-74.444c0-2.344,0.336-4.246,0.75-4.246h556.824c0.414,0,0.75,1.902,0.75,4.246
			s-0.336,4.246-0.75,4.246H21.431v74.444c0,2.344-0.336,4.246-0.75,4.246H7.53L6.066,2565.274
			C6.065,2567.612,5.73,2569.509,5.316,2569.509z"/>
		<path style="fill:#C7A26F;" d="M17.404,2132.434c0,0-0.001,0-0.002,0c-0.414-0.005-0.749-1.907-0.748-4.257l1.464-3585.402
			c0.001-1.885,0.222-3.544,0.542-4.07l1.582-2.576c30.782-50.192,55.101-188.958,63.466-362.144l0.441-9.12
			c0.089-1.845,0.385-3.125,0.723-3.125h428.439c0.414,0,0.75,1.902,0.75,4.246c0,2.344-0.336,4.246-0.75,4.246H85.445l-0.29,5.995
			c-8.502,176.028-33.216,317.058-64.498,368.065l-1.041,1.693L18.154,2128.2C18.153,2130.543,17.818,2132.434,17.404,2132.434z"/>
		<path style="fill:#C7A26F;" d="M21.847,2132.434L21.847,2132.434c-0.416-0.005-0.751-1.907-0.75-4.251l1.395-3566.851
			c0.001-1.862,0.216-3.504,0.53-4.048c30.793-53.464,55.49-194.37,64.454-367.731c0.094-1.812,0.387-3.057,0.72-3.057h186.143
			c0.414,0,0.75,1.902,0.75,4.246c0,2.344-0.336,4.246-0.75,4.246H88.756c-9.182,173.678-33.921,314.822-64.765,369.48
			L22.597,2128.2C22.596,2130.538,22.261,2132.434,21.847,2132.434z"/>
	</g>
</g>
</svg>
