<?xml version="1.0" encoding="iso-8859-1"?>
<!-- Generator: Adobe Illustrator 24.2.3, SVG Export Plug-In . SVG Version: 6.00 Build 0)  -->
<svg version="1.1" id="&#x5716;&#x5C64;_1" xmlns="http://www.w3.org/2000/svg" xmlns:xlink="http://www.w3.org/1999/xlink" x="0px"
	 y="0px" viewBox="0 0 1509.378 661.221" style="enable-background:new 0 0 1509.378 661.221;" xml:space="preserve">
<g>
	<g>
		<path style="fill:#C7A26F;" d="M1505.978,685.07L1505.978,685.07c-0.415,0-0.751-0.337-0.75-0.751l1.021-815.713h-592.62
			c-0.414,0-0.75-0.336-0.75-0.75s0.336-0.75,0.75-0.75H1507c0.199,0,0.39,0.079,0.53,0.22c0.141,0.141,0.22,0.332,0.22,0.531
			l-1.022,816.464C1506.727,684.735,1506.392,685.07,1505.978,685.07z"/>
		<path style="fill:#C7A26F;" d="M1501.161,666.164c0,0-0.001,0-0.002,0c-0.414-0.001-0.749-0.337-0.748-0.751l1.464-778.533
			h-13.149c-0.414,0-0.75-0.336-0.75-0.75v-13.15H577.505c-0.414,0-0.75-0.336-0.75-0.75c0-0.414,0.336-0.75,0.75-0.75h911.221
			c0.414,0,0.75,0.336,0.75,0.75v13.15h13.15c0.199,0,0.391,0.079,0.531,0.22c0.141,0.141,0.219,0.332,0.219,0.531l-1.465,779.284
			C1501.91,665.829,1501.574,666.164,1501.161,666.164z"/>
		<path style="fill:#C7A26F;" d="M1489.073,588.958c-0.001,0-0.001,0-0.002,0c-0.414-0.001-0.749-0.337-0.748-0.752l1.464-632.77
			l-1.037-0.298c-31.282-9.01-55.996-33.922-64.499-65.016l-0.289-1.059H996.094c-0.414,0-0.75-0.336-0.75-0.75
			s0.336-0.75,0.75-0.75h428.44c0.338,0,0.635,0.226,0.724,0.552l0.44,1.611c8.365,30.592,32.685,55.104,63.467,63.97l1.58,0.455
			c0.322,0.093,0.544,0.388,0.543,0.723l-1.465,633.335C1489.823,588.624,1489.487,588.958,1489.073,588.958z"/>
		<path style="fill:#C7A26F;" d="M1484.63,588.958c-0.001,0-0.001,0-0.002,0c-0.414-0.001-0.749-0.337-0.748-0.752l1.533-629.503
			c-30.842-9.656-55.581-34.588-64.763-65.265h-185.582c-0.414,0-0.75-0.336-0.75-0.75s0.336-0.75,0.75-0.75h186.143
			c0.333,0,0.626,0.22,0.72,0.54c8.963,30.622,33.66,55.512,64.453,64.957c0.315,0.097,0.531,0.389,0.53,0.719l-1.534,630.058
			C1485.379,588.624,1485.043,588.958,1484.63,588.958z"/>
	</g>
	<g>
		<path style="fill:#C7A26F;" d="M0.5,685.07c0,0-0.001,0-0.002,0c-0.414-0.001-0.749-0.337-0.748-0.752l1.907-816.464
			c0.001-0.413,0.336-0.748,0.75-0.748h911.222c0.414,0,0.75,0.336,0.75,0.75s-0.336,0.75-0.75,0.75H3.156L1.25,684.322
			C1.249,684.736,0.913,685.07,0.5,685.07z"/>
		<path style="fill:#C7A26F;" d="M5.316,666.164L5.316,666.164c-0.415-0.001-0.751-0.337-0.75-0.751l1.465-779.284
			c0.001-0.414,0.336-0.749,0.75-0.749h13.15v-13.15c0-0.414,0.336-0.75,0.75-0.75h556.824c0.414,0,0.75,0.336,0.75,0.75
			s-0.336,0.75-0.75,0.75H21.431v13.15c0,0.414-0.336,0.75-0.75,0.75H7.53L6.066,665.416C6.065,665.829,5.73,666.164,5.316,666.164z
			"/>
		<path style="fill:#C7A26F;" d="M17.404,588.958c0,0-0.001,0-0.002,0c-0.414-0.001-0.749-0.337-0.748-0.752l1.464-633.335
			c0.001-0.333,0.222-0.626,0.542-0.719l1.582-0.455c30.782-8.866,55.101-33.378,63.466-63.97l0.441-1.611
			c0.089-0.326,0.385-0.552,0.723-0.552h428.439c0.414,0,0.75,0.336,0.75,0.75s-0.336,0.75-0.75,0.75H85.445l-0.29,1.059
			c-8.502,31.094-33.216,56.006-64.498,65.016l-1.041,0.299L18.154,588.21C18.153,588.624,17.818,588.958,17.404,588.958z"/>
		<path style="fill:#C7A26F;" d="M21.847,588.958L21.847,588.958c-0.416-0.001-0.751-0.337-0.75-0.751l1.395-630.058
			c0.001-0.329,0.216-0.619,0.53-0.715c30.793-9.444,55.49-34.334,64.454-64.957c0.094-0.32,0.387-0.54,0.72-0.54h186.143
			c0.414,0,0.75,0.336,0.75,0.75s-0.336,0.75-0.75,0.75H88.756c-9.182,30.679-33.921,55.611-64.765,65.266L22.597,588.21
			C22.596,588.623,22.261,588.958,21.847,588.958z"/>
	</g>
	<g>
		<path style="fill:#C7A26F;" d="M1423.07,793.403H994.63c-0.414,0-0.75-0.336-0.75-0.75s0.336-0.75,0.75-0.75h427.867l0.289-1.059
			c8.503-31.094,33.217-56.006,64.498-65.016l1.039-0.299V588.208c0-0.414,0.336-0.75,0.75-0.75s0.75,0.336,0.75,0.75v137.886
			c0,0.334-0.222,0.628-0.543,0.721l-1.581,0.455c-30.781,8.866-55.101,33.378-63.466,63.97l-0.44,1.611
			C1423.704,793.177,1423.407,793.403,1423.07,793.403z"/>
		<path style="fill:#C7A26F;" d="M1419.746,789.029h-186.143c-0.414,0-0.75-0.336-0.75-0.75s0.336-0.75,0.75-0.75h185.582
			c9.182-30.677,33.923-55.609,64.764-65.266l-0.069-134.055c0-0.415,0.335-0.75,0.75-0.75c0.414,0,0.75,0.335,0.75,0.75
			l0.069,134.608c0,0.33-0.215,0.621-0.53,0.718c-30.793,9.444-55.49,34.334-64.453,64.956
			C1420.372,788.809,1420.079,789.029,1419.746,789.029z"/>
	</g>
	<g>
		<path style="fill:#C7A26F;" d="M511.847,793.403H83.408c-0.338,0-0.634-0.226-0.724-0.552l-0.44-1.611
			c-8.366-30.592-32.685-55.104-63.466-63.97l-1.582-0.455c-0.321-0.092-0.542-0.386-0.542-0.721V588.208
			c0-0.414,0.336-0.75,0.75-0.75s0.75,0.336,0.75,0.75v137.321l1.039,0.299c31.281,9.01,55.995,33.922,64.498,65.016l0.29,1.059
			h427.867c0.414,0,0.75,0.336,0.75,0.75S512.261,793.403,511.847,793.403z"/>
		<path style="fill:#C7A26F;" d="M272.874,789.029H86.732c-0.333,0-0.626-0.22-0.72-0.54c-8.964-30.623-33.661-55.512-64.454-64.956
			c-0.315-0.097-0.53-0.388-0.53-0.718l0.07-134.608c0-0.414,0.336-0.75,0.75-0.75l0,0c0.414,0,0.75,0.336,0.75,0.75l-0.069,134.055
			c30.841,9.656,55.582,34.588,64.764,65.266h185.582c0.414,0,0.75,0.336,0.75,0.75S273.288,789.029,272.874,789.029z"/>
	</g>
</g>
</svg>
