<?xml version="1.0" encoding="iso-8859-1"?>
<!-- Generator: Adobe Illustrator 24.2.3, SVG Export Plug-In . SVG Version: 6.00 Build 0)  -->
<svg version="1.1" id="&#x5716;&#x5C64;_1" xmlns="http://www.w3.org/2000/svg" xmlns:xlink="http://www.w3.org/1999/xlink" x="0px"
	 y="0px" viewBox="0 0 230.605 65.32" style="enable-background:new 0 0 230.605 65.32;" xml:space="preserve">
<g>
	<g id="GoTo_2_">
		<g>
			<path style="fill:#02468F;" d="M107.929,14.021c-0.266-0.607-0.624-1.137-1.053-1.602c-2.331-2.526-6.747-3.1-9.79-3.498
				c-6.037-0.788-10.57-0.934-16.642-0.825c-2.917,0.052-5.834,0.133-8.751,0.197c-1.209,0.027-2.7,0.329-3.882,0.035
				c-1.358-0.337-0.647-1.925-0.491-2.886c0.114-0.707,0.013-0.97-0.664-1.113c-0.929-0.197-1.972-0.195-2.917-0.245
				c-2.392-0.128-4.781,0.017-7.174-0.048c-5.731-0.157-11.474-0.03-17.192,0.4c-5.618,0.422-11.236,1.125-16.747,2.352
				c-4.716,1.049-9.499,2.448-13.735,4.893C8.1,12.138,7.33,12.635,6.594,13.187c-2.266,1.699-1.959,1.959-0.753,4.306
				c0.457,0.889,0.829,1.823,1.14,2.776c0.668,2.045,1.062,4.18,1.316,6.319c0.564,4.755,0.454,9.589,0.097,14.356
				c-0.345,4.606-0.952,9.192-1.737,13.74c-0.3,1.738-0.627,3.472-0.986,5.198c-0.134,0.647-0.274,1.292-0.419,1.937
				c-0.204,0.906-0.437,1.906,0.901,1.502c11.003-3.317,21.847-7.171,32.884-10.372c6.165-1.788,12.378-3.387,18.627-4.826
				c0.863-0.199,1.735-0.459,2.609-0.59c0.477-0.072,0.998-0.132,1.274,0.373c0.318,0.584-0.031,1.315-0.182,1.888
				c-0.049,0.188-0.332,0.965-0.173,1.138c0.206,0.225,0.98,0.051,1.211,0.026c0.868-0.094,1.73-0.259,2.587-0.427
				c3.057-0.6,6.028-1.55,9.068-2.195c4.32-0.916,8.701-1.576,13.065-2.224c2.84-0.422,5.686-0.813,8.537-1.151
				c0.225-0.027,0.45-0.047,0.675-0.073c0.757-0.077,0.381-0.041,1.336-0.165c1.091-0.141,1.063-0.123,2.138-0.338l1.599-0.482
				l0.664-0.224c0.304-0.105,0.608-0.207,0.737-0.314c0.275-0.15,0.483-0.531,0.57-0.801c0.115-0.267,0.348-1.048,0.445-1.486
				c0.258-1.159,0.517-2.674,0.762-3.795c0.187-0.856,0.425-2.437,0.668-3.283c0.028-0.098,0.427-1.964,0.557-2.581
				c0.535-3.197,1.043-5.273,1.499-8.384c0.229-1.561,0.464-3.13,0.834-4.663C108.527,16.812,108.589,15.53,107.929,14.021z
				 M41.204,31.919c-0.422,0.016-0.788,0.145-1.098,0.384c-0.309,0.239-0.566,0.533-0.768,0.882
				c-0.204,0.348-0.361,0.69-0.473,1.024c-0.106,0.315-0.211,0.701-0.316,1.147l0.026-0.001l-0.592,4.286l-0.004,0.034
				c-0.006,0.046-0.014,0.103-0.024,0.172l-0.1,0.481c-0.016,0.114-0.03,0.218-0.043,0.309c-0.054,0.229-0.108,0.459-0.162,0.688
				c-0.092,0.345-0.183,0.689-0.275,1.033c-0.114,0.345-0.238,0.68-0.371,1.003c-0.545,1.385-1.323,2.699-2.335,3.943
				c-1.035,1.244-2.227,2.267-3.577,3.07c-1.346,0.78-2.711,1.299-4.096,1.557c-1.366,0.28-2.702,0.343-4.007,0.189
				c-1.309-0.131-2.549-0.526-3.719-1.184c-1.169-0.659-2.118-1.565-2.843-2.719c-0.726-1.153-1.183-2.408-1.372-3.765
				c-0.083-0.678-0.124-1.347-0.121-2.006l0.004-0.511l0.033-0.479l0.066-0.48l0.004-0.034c-0.001-0.159,0.019-0.308,0.061-0.446
				l2.351-17.036l0.014-0.103l0.071-0.514c0.113-0.663,0.271-1.328,0.474-1.995c0.136-0.346,0.262-0.692,0.376-1.037
				c0.098-0.231,0.209-0.474,0.333-0.729c0.034-0.092,0.08-0.185,0.138-0.278c0.653-1.366,1.546-2.628,2.679-3.786
				c1.152-1.136,2.415-2.037,3.79-2.703c1.394-0.645,2.767-1.051,4.117-1.217c1.35-0.166,2.67-0.115,3.961,0.153
				c1.29,0.268,2.477,0.802,3.56,1.6c1.085,0.799,1.919,1.812,2.501,3.039c0.579,1.251,0.909,2.555,0.987,3.916
				c0.012,0.227,0.015,0.454,0.005,0.681c-0.013,0.092-0.016,0.194-0.01,0.307l-0.004,0.512l-0.033,0.478l-0.066,0.48l-0.004,0.273
				l-0.024,0.172l-0.529,3.838l-6.605,0.256c-0.334,0.013-0.579,0.022-0.734,0.029c-0.156,0.006-0.334,0.013-0.533,0.021
				c-0.201,0.008-0.512,0.02-0.935,0.036c0.025-0.183,0.046-0.331,0.061-0.446c0.445-0.017,0.823-0.151,1.134-0.402
				c0.311-0.251,0.567-0.545,0.769-0.883c0.201-0.337,0.359-0.678,0.473-1.024c0.114-0.345,0.213-0.747,0.299-1.205
				c0.006-0.045,0.012-0.091,0.019-0.137l0.019-0.137l0.004-0.273l0.033-0.24l0.004-0.273c0.009-0.068,0.008-0.137-0.005-0.204
				c0.013-0.091,0.014-0.182,0.005-0.273c-0.042-0.657-0.175-1.221-0.398-1.689c-0.223-0.468-0.546-0.853-0.969-1.155
				c-0.401-0.302-0.89-0.522-1.469-0.659c-0.581-0.114-1.209-0.135-1.882-0.063c-1.354,0.189-2.454,0.708-3.301,1.56
				c-0.435,0.426-0.792,0.928-1.071,1.507c-0.032,0.069-0.064,0.139-0.095,0.208c-0.032,0.07-0.066,0.15-0.1,0.243
				c-0.067,0.162-0.122,0.323-0.166,0.483c-0.035,0.092-0.059,0.184-0.071,0.275c-0.079,0.254-0.136,0.506-0.17,0.757l-0.071,0.275
				l-0.009,0.069l-2.351,17.036c-0.016,0.114-0.028,0.205-0.038,0.274c-0.003,0.023-0.006,0.046-0.009,0.068l0,0.239l-0.038,0.274
				l-0.005,0.273c-0.013,0.251-0.003,0.5,0.029,0.749c0.013,0.067,0.026,0.135,0.039,0.203c0.073,0.589,0.257,1.104,0.549,1.547
				c0.545,0.865,1.436,1.376,2.676,1.532c0.632,0.067,1.277,0.041,1.935-0.075c0.638-0.138,1.223-0.365,1.753-0.681
				c1.035-0.608,1.805-1.536,2.308-2.783c0.067-0.162,0.133-0.323,0.2-0.485l0.138-0.516c0.013-0.091,0.029-0.206,0.047-0.343
				c0.006-0.045,0.025-0.103,0.057-0.173l0.038-0.274c0.006-0.045,0.012-0.091,0.019-0.137l0.005-0.034l0.435-3.154l-5.304,0.206
				l0.68-4.928l11.875-0.461c0.289-0.011,0.506-0.02,0.651-0.025c0.145-0.006,0.284-0.011,0.416-0.016
				c0.134-0.005,0.323-0.013,0.568-0.022c0.155-0.006,0.344-0.013,0.566-0.022C41.243,31.634,41.223,31.782,41.204,31.919z
				 M61.201,22.452c-0.01,0.076-0.02,0.147-0.03,0.213c-0.009,0.066-0.016,0.118-0.022,0.156l-1.539,11.154
				c-0.005,0.038-0.013,0.095-0.023,0.17l-0.027,0.198c-0.029,0.077-0.048,0.153-0.059,0.228c-0.028,0.208-0.066,0.407-0.109,0.597
				c-0.267,1.138-0.762,2.267-1.484,3.386c-0.756,1.101-1.699,2.031-2.829,2.789c-1.105,0.72-2.241,1.187-3.405,1.401
				c-1.127,0.213-2.227,0.218-3.297,0.015c-1.107-0.201-2.097-0.652-2.971-1.351c-0.884-0.755-1.508-1.68-1.868-2.776
				c-0.343-1.096-0.465-2.2-0.366-3.314l0.055-0.397c0.01-0.075,0.015-0.146,0.015-0.212c0-0.066,0.002-0.117,0.008-0.155
				l1.539-11.154c0.005-0.038,0.021-0.085,0.048-0.143l0.004-0.028l0.027-0.199c0.01-0.075,0.022-0.16,0.035-0.255
				c0.026-0.189,0.07-0.379,0.132-0.569c0.267-1.138,0.762-2.267,1.483-3.386c0.757-1.101,1.69-2.03,2.801-2.788
				c1.124-0.72,2.269-1.188,3.433-1.402c1.109-0.213,2.208-0.217,3.297-0.015c1.089,0.203,2.079,0.653,2.971,1.351
				c0.865,0.756,1.479,1.682,1.84,2.777c0.343,1.096,0.465,2.201,0.367,3.314L61.201,22.452z M84.656,20.016
				c-0.044,0.314-0.076,0.545-0.097,0.691c-0.021,0.147-0.044,0.314-0.07,0.502c-0.026,0.189-0.067,0.482-0.123,0.88
				c-0.164,0.006-0.306,0.011-0.429,0.016c0.059-0.418,0.004-0.755-0.162-1.009c-0.168-0.254-0.39-0.449-0.664-0.585
				c-0.275-0.135-0.561-0.229-0.858-0.281c-0.297-0.051-0.648-0.08-1.052-0.086l-3.461,0.129l-2.364,17.562
				c-0.026,0.189-0.032,0.522-0.018,1.001c0.013,0.478,0.132,0.938,0.355,1.377c0.222,0.44,0.639,0.648,1.251,0.625
				c-0.018,0.126-0.036,0.262-0.057,0.408c-0.205,0.008-0.378,0.014-0.521,0.019c-0.244,0.009-0.428,0.016-0.55,0.02
				c-0.122,0.005-0.25,0.009-0.382,0.014c-0.133,0.005-0.321,0.012-0.565,0.021c-0.021,0.001-0.305,0.011-0.856,0.032
				c-0.55,0.02-1.183,0.044-1.896,0.07c-0.713,0.026-1.351,0.05-1.911,0.071c-0.56,0.021-0.881,0.033-0.963,0.036
				c-0.163,0.006-0.295,0.011-0.398,0.015c-0.122,0.005-0.234,0.009-0.336,0.013c-0.204,0.008-0.362,0.013-0.474,0.017
				c-0.112,0.004-0.256,0.01-0.428,0.016c-0.173,0.007-0.433,0.016-0.78,0.029c0.021-0.146,0.039-0.283,0.057-0.408
				c0.407-0.015,0.749-0.137,1.024-0.366c0.275-0.229,0.506-0.498,0.692-0.807c0.185-0.309,0.329-0.616,0.432-0.922
				c0.104-0.306,0.206-0.68,0.309-1.12l2.355-17.5l-3.323,0.005c-0.411,0.036-0.773,0.091-1.087,0.165
				c-0.315,0.074-0.63,0.19-0.946,0.348c-0.317,0.158-0.599,0.371-0.85,0.641c-0.251,0.27-0.405,0.614-0.464,1.032
				c-0.102,0.004-0.235,0.009-0.397,0.015c0.062-0.44,0.174-1.246,0.338-2.418s0.326-2.329,0.485-3.47
				c0.16-1.14,0.118-0.847,0.183-1.307l19.718-0.613L84.656,20.016z M93.446,38.153c-0.474,0.092-0.948,0.14-1.415,0.141
				c-0.43,0.001-0.856-0.036-1.274-0.113c-0.912-0.161-1.742-0.532-2.467-1.104c-0.746-0.629-1.274-1.403-1.577-2.306
				c-0.286-0.893-0.393-1.802-0.318-2.707l0.043-0.325c0.004-0.039,0.008-0.079,0.007-0.115c0-0.075,0.002-0.13,0.008-0.171
				l1.137-8.667c0.007-0.051,0.021-0.105,0.043-0.159l0.043-0.329c0.021-0.164,0.059-0.332,0.112-0.5
				c0.202-0.891,0.599-1.813,1.171-2.714c0.607-0.897,1.364-1.66,2.255-2.277c0.914-0.593,1.85-0.981,2.792-1.16
				c0.896-0.177,1.8-0.186,2.687-0.028c0.899,0.162,1.729,0.533,2.465,1.103c0.735,0.634,1.255,1.406,1.558,2.309
				c0.286,0.893,0.392,1.802,0.319,2.706l-0.058,0.61l-1.175,8.954c-0.032,0.11-0.04,0.144-0.045,0.179
				c-0.022,0.17-0.052,0.335-0.086,0.491c-0.21,0.922-0.607,1.845-1.18,2.745c-0.607,0.898-1.372,1.662-2.278,2.279
				C95.32,37.584,94.391,37.973,93.446,38.153z"/>
			<path style="fill:#02468F;" d="M54.573,21.852c-0.215-0.171-0.492-0.291-0.831-0.359c-0.357-0.068-0.737-0.07-1.143-0.005
				c-0.376,0.08-0.704,0.215-0.984,0.405c-0.264,0.19-0.495,0.419-0.691,0.688c-0.198,0.285-0.35,0.642-0.457,1.07
				c-0.025,0.066-0.042,0.132-0.051,0.198c-0.007,0.049-0.012,0.09-0.017,0.123l-0.01,0.074l-0.003,0.025
				c-0.002,0.016-0.006,0.041-0.01,0.074l-1.335,9.674c-0.009,0.066-0.017,0.123-0.024,0.172l-0.003,0.025l0,0.171
				c-0.043,0.426-0.012,0.783,0.09,1.073c0.1,0.306,0.258,0.544,0.473,0.716c0.215,0.172,0.492,0.291,0.831,0.359
				c0.356,0.068,0.729,0.07,1.119,0.006c0.376-0.079,0.704-0.215,0.985-0.405c0.28-0.19,0.518-0.419,0.714-0.688
				c0.182-0.284,0.327-0.64,0.433-1.069c0.025-0.066,0.043-0.132,0.052-0.198c0.004-0.033,0.01-0.074,0.017-0.123l0.01-0.074
				c0.002-0.016,0.008-0.033,0.019-0.05c0.01-0.017,0.016-0.033,0.019-0.049l1.335-9.674c0.004-0.033,0.004-0.061,0-0.086
				c-0.005-0.024-0.005-0.053,0-0.086l0.003-0.024l0.024-0.172c0.027-0.425-0.011-0.782-0.114-1.072
				C54.937,22.262,54.788,22.023,54.573,21.852z"/>
			<path style="fill:#02468F;" d="M92.55,23.407l-1.144,8.218c-0.033,0.33-0.014,0.58,0.054,0.772
				c0.065,0.201,0.157,0.344,0.285,0.446c0.134,0.108,0.317,0.186,0.543,0.233c0.249,0.048,0.518,0.051,0.799,0.006
				c0.25-0.052,0.484-0.147,0.677-0.277c0.197-0.133,0.368-0.297,0.508-0.486c0.119-0.187,0.226-0.449,0.305-0.764
				c0.024-0.068,0.033-0.1,0.037-0.13l0.014-0.102c0.01-0.079,0.024-0.132,0.044-0.176l1.108-7.849l-0.005-0.03l0.03-0.279
				c0.017-0.282-0.008-0.535-0.076-0.73c-0.058-0.209-0.142-0.349-0.266-0.447c-0.135-0.108-0.317-0.186-0.542-0.232
				c-0.125-0.025-0.257-0.037-0.393-0.038c-0.137-0.001-0.28,0.01-0.426,0.033c-0.25,0.053-0.483,0.147-0.676,0.278
				c-0.182,0.13-0.348,0.294-0.488,0.484c-0.137,0.195-0.248,0.455-0.325,0.765c-0.023,0.067-0.032,0.099-0.037,0.13l-0.011,0.081
				L92.55,23.407z"/>
			<path style="fill:#02468F;" d="M97.436,45.526c0.327,0.258,0.704,0.578,1.264,0.891c0.725,0.405,1.81,0.841,2.515,0.4
				c1.235-0.774,1.351-1.339,1.688-2.805c-0.89,0.763-1.865,0.995-2.842,1.155C99.189,45.303,98.314,45.421,97.436,45.526z"/>
			<path style="fill:#02468F;" d="M108.685,32.239c-0.721-0.134-1.31-0.104-2.164,0.172c-0.015,0.077-0.029,0.156-0.045,0.233
				l-0.58,2.858c-0.395,1.905-0.823,3.802-1.322,5.693c-0.098,0.335-0.179,0.636-0.278,0.965c1.113-1.001,2.407-2.277,3.204-2.805
				c3.946-2.617,6.734-2.937,8.801-3.347C114.266,34.129,111.432,32.751,108.685,32.239z"/>
			<path style="fill:#02468F;" d="M0.727,65.32c-0.033,0-0.066-0.003-0.1-0.007c-0.374-0.056-0.675-0.114-0.621-0.496
				c0.992-6.94,1.814-14.314,2.357-21.332C3.035,34.8,3.4,25.734,3.378,17.007c-0.001-0.387,0.228-0.45,0.65-0.463
				c0.377,0,0.689,0.006,0.69,0.391C4.74,25.7,4.404,34.872,3.729,43.595c-0.547,7.048-1.328,14.157-2.325,21.127
				C1.354,65.07,1.061,65.32,0.727,65.32z"/>
		</g>
		<g>
			<g>
				<path style="fill:#02468F;" d="M103.952,6.923c-0.008,0-0.016-0.001-0.024-0.002c-0.109-0.013-0.186-0.113-0.173-0.224
					l0.582-5.001c0.012-0.11,0.1-0.185,0.221-0.175c0.109,0.013,0.186,0.113,0.173,0.224l-0.582,5.001
					C104.137,6.848,104.051,6.923,103.952,6.923z"/>
				<path style="fill:#02468F;" d="M104.641,1.082c-0.007,0-0.014,0-0.021-0.001c-0.109-0.012-0.188-0.111-0.177-0.221l0.071-0.681
					c0.012-0.11,0.11-0.185,0.219-0.179c0.109,0.012,0.188,0.111,0.177,0.221l-0.071,0.681
					C104.828,1.005,104.742,1.082,104.641,1.082z"/>
			</g>
			<g>
				<path style="fill:#02468F;" d="M108.675,10.048c-0.044,0-0.089-0.015-0.126-0.046c-0.084-0.071-0.096-0.198-0.027-0.283
					l3.776-4.641c0.07-0.084,0.194-0.098,0.28-0.027c0.084,0.071,0.096,0.198,0.027,0.283l-3.776,4.641
					C108.789,10.023,108.732,10.048,108.675,10.048z"/>
				<path style="fill:#02468F;" d="M112.881,4.905c-0.044,0-0.088-0.015-0.126-0.045c-0.084-0.071-0.098-0.197-0.029-0.283
					l0.427-0.532c0.07-0.086,0.195-0.098,0.28-0.029c0.084,0.071,0.098,0.197,0.029,0.283l-0.427,0.532
					C112.996,4.88,112.938,4.905,112.881,4.905z"/>
			</g>
			<g>
				<path style="fill:#02468F;" d="M106.781,8.266c-0.026,0-0.051-0.005-0.076-0.015c-0.101-0.042-0.15-0.16-0.108-0.263l0.934-2.29
					c0.042-0.102,0.16-0.151,0.26-0.109c0.101,0.042,0.15,0.16,0.108,0.263l-0.934,2.29C106.933,8.219,106.858,8.266,106.781,8.266z
					"/>
				<path style="fill:#02468F;" d="M107.962,5.312c-0.027,0-0.053-0.005-0.08-0.017c-0.1-0.044-0.146-0.163-0.102-0.265l0.409-0.945
					c0.044-0.102,0.161-0.148,0.261-0.103c0.1,0.044,0.146,0.163,0.102,0.265l-0.409,0.945
					C108.11,5.267,108.038,5.312,107.962,5.312z"/>
			</g>
			<g>
				<path style="fill:#02468F;" d="M110.115,11.718c-0.067,0-0.133-0.035-0.171-0.098c-0.056-0.095-0.026-0.218,0.069-0.276
					l2.101-1.272c0.092-0.056,0.215-0.027,0.272,0.07c0.056,0.095,0.026,0.218-0.069,0.276l-2.101,1.272
					C110.185,11.709,110.15,11.718,110.115,11.718z"/>
				<path style="fill:#02468F;" d="M112.805,10.064c-0.069,0-0.136-0.036-0.172-0.101c-0.054-0.097-0.022-0.22,0.074-0.274
					l0.885-0.51c0.095-0.056,0.216-0.023,0.271,0.075c0.054,0.097,0.022,0.22-0.074,0.274l-0.885,0.51
					C112.872,10.055,112.838,10.064,112.805,10.064z"/>
			</g>
			<g>
				<path style="fill:#02468F;" d="M111.02,14.126c-0.088,0-0.169-0.06-0.192-0.151c-0.027-0.108,0.036-0.217,0.143-0.245
					l4.568-1.304c0.104-0.024,0.215,0.038,0.242,0.144c0.027,0.108-0.036,0.217-0.143,0.245l-4.568,1.304
					C111.053,14.124,111.036,14.126,111.02,14.126z"/>
				<path style="fill:#02468F;" d="M116.228,12.672c-0.088,0-0.168-0.059-0.191-0.149c-0.029-0.108,0.034-0.218,0.14-0.246
					l0.653-0.177c0.105-0.028,0.215,0.035,0.243,0.142c0.029,0.108-0.034,0.218-0.14,0.246l-0.653,0.177
					C116.262,12.67,116.245,12.672,116.228,12.672z"/>
			</g>
		</g>
	</g>
	<g id="GoTo_TRAVEL_2_">
		<path style="fill:#02468F;" d="M40.392,59.42v-1.861c0-0.575,0.364-0.97,0.912-0.97c0.527,0,0.891,0.395,0.906,0.959
			c0,0.047-0.026,0.074-0.068,0.074h-0.337c-0.042,0-0.068-0.026-0.074-0.074c-0.016-0.321-0.174-0.511-0.427-0.511
			c-0.269,0-0.432,0.195-0.432,0.506v1.897c0,0.311,0.185,0.506,0.453,0.506c0.264,0,0.448-0.195,0.448-0.469v-0.717H41.41
			c-0.047,0-0.074-0.026-0.074-0.068v-0.279c0-0.047,0.026-0.074,0.074-0.074h0.622c0.137,0,0.216,0.079,0.216,0.216v0.896
			c0,0.543-0.379,0.944-0.928,0.944C40.772,60.395,40.392,59.994,40.392,59.42z"/>
		<path style="fill:#02468F;" d="M51.225,56.716v0.3c0,0.047-0.026,0.074-0.074,0.074h-0.569v3.173c0,0.047-0.026,0.074-0.074,0.074
			h-0.332c-0.042,0-0.068-0.026-0.068-0.074V57.09h-0.574c-0.042,0-0.069-0.026-0.069-0.074v-0.3c0-0.042,0.026-0.069,0.069-0.069
			h1.618C51.198,56.647,51.225,56.674,51.225,56.716z"/>
		<path style="fill:#02468F;" d="M52.268,59.399v-1.14c0-0.59,0.385-0.991,0.933-0.991c0.548,0,0.928,0.4,0.928,0.954v1.214
			c0,0.553-0.38,0.954-0.928,0.954C52.652,60.39,52.268,59.989,52.268,59.399z M53.649,59.457v-1.256c0-0.29-0.179-0.49-0.448-0.49
			c-0.269,0-0.453,0.2-0.453,0.527v1.182c0,0.327,0.185,0.527,0.453,0.527C53.469,59.947,53.649,59.747,53.649,59.457z"/>
		<path style="fill:#02468F;" d="M43.771,59.399v-1.14c0-0.59,0.385-0.991,0.933-0.991c0.548,0,0.928,0.4,0.928,0.954v1.214
			c0,0.553-0.38,0.954-0.928,0.954C44.156,60.39,43.771,59.989,43.771,59.399z M45.152,59.457v-1.256c0-0.29-0.179-0.49-0.448-0.49
			c-0.269,0-0.453,0.2-0.453,0.527v1.182c0,0.327,0.185,0.527,0.453,0.527C44.973,59.947,45.152,59.747,45.152,59.457z"/>
		<path style="fill:#02468F;" d="M60.039,56.716v0.3c0,0.047-0.026,0.074-0.074,0.074h-0.569v3.173c0,0.047-0.026,0.074-0.074,0.074
			H58.99c-0.042,0-0.068-0.026-0.068-0.074V57.09h-0.574c-0.042,0-0.069-0.026-0.069-0.074v-0.3c0-0.042,0.026-0.069,0.069-0.069
			h1.618C60.013,56.647,60.039,56.674,60.039,56.716z"/>
		<path style="fill:#02468F;" d="M61.949,60.263v-2.699c0-0.574,0.364-0.975,0.896-0.975c0.543,0,0.912,0.401,0.912,0.975v0.422
			c0,0.406-0.195,0.701-0.469,0.849l0.564,1.423c0.016,0.047-0.021,0.079-0.068,0.079h-0.358c-0.042,0-0.063-0.021-0.074-0.063
			l-0.501-1.328h-0.427v1.318c0,0.047-0.026,0.074-0.068,0.074h-0.337C61.975,60.337,61.949,60.311,61.949,60.263z M62.829,58.508
			c0.274,0,0.448-0.2,0.448-0.511v-0.453c0-0.306-0.174-0.506-0.427-0.506s-0.427,0.2-0.427,0.506v0.965H62.829z"/>
		<path style="fill:#02468F;" d="M66.011,60.263v-2.699c0-0.58,0.359-0.97,0.902-0.97c0.543,0,0.906,0.39,0.906,0.97v2.699
			c0,0.047-0.026,0.074-0.074,0.074h-0.332c-0.042,0-0.074-0.026-0.074-0.074v-1.17h-0.854v1.17c0,0.047-0.026,0.074-0.068,0.074
			H66.08C66.037,60.337,66.011,60.311,66.011,60.263z M67.339,58.656v-1.112c0-0.316-0.153-0.501-0.427-0.501
			c-0.269,0-0.427,0.185-0.427,0.501v1.112H67.339z"/>
		<path style="fill:#02468F;" d="M71.688,56.721l-0.627,3.442c-0.021,0.127-0.1,0.195-0.227,0.195h-0.29
			c-0.126,0-0.206-0.068-0.227-0.195l-0.627-3.442c-0.005-0.042,0.016-0.074,0.063-0.074h0.342c0.042,0,0.074,0.021,0.079,0.063
			l0.517,3.089l0.517-3.089c0.005-0.042,0.032-0.063,0.074-0.063h0.342C71.673,56.647,71.699,56.679,71.688,56.721z"/>
		<path style="fill:#02468F;" d="M73.692,59.409v-1.834c0-0.543,0.369-0.943,0.901-0.943h0.553c0.042,0,0.069,0.026,0.069,0.068v0.3
			c0,0.047-0.026,0.074-0.069,0.074H74.63c-0.274,0-0.459,0.211-0.459,0.511v0.67h0.843c0.047,0,0.074,0.026,0.074,0.074v0.285
			c0,0.047-0.026,0.074-0.074,0.074h-0.843v0.712c0,0.3,0.185,0.511,0.459,0.511h0.517c0.042,0,0.069,0.026,0.069,0.074v0.3
			c0,0.042-0.026,0.069-0.069,0.069h-0.553C74.061,60.353,73.692,59.952,73.692,59.409z"/>
		<path style="fill:#02468F;" d="M78.44,59.91c0.047,0,0.074,0.026,0.074,0.074v0.3c0,0.042-0.026,0.069-0.074,0.069h-0.532
			c-0.538,0-0.87-0.401-0.87-0.928v-2.709c0-0.042,0.026-0.069,0.069-0.069h0.337c0.047,0,0.074,0.026,0.074,0.069v2.693
			c0,0.3,0.174,0.501,0.416,0.501H78.44z"/>
	</g>
	<g id="&#x30C8;&#x30E9;&#x30D9;&#x30EB;_1_">
		<polygon style="fill:#02468F;" points="196.66,21.807 193.739,21.807 193.739,26.438 196.409,26.438 		"/>
		<path style="fill:#02468F;" d="M189.007,20.193c0-0.362,0.098-0.802,0.098-0.802c0.296-1.443,1.538-2.537,3.049-2.615
			l-10.747-0.003l-3.5,20.371l5.51,0.039l1.912-11.05l7.541,20.151h6.261l-10.038-25.39
			C189.054,20.693,189.007,20.407,189.007,20.193z"/>
		<path style="fill:#02468F;" d="M135.198,19.2c0.364-1.345,1.551-2.349,2.993-2.424h-2.52h-0.069h-6.545l-5.184,29.507h6.046
			l2.907-14.914l8.709,5.305l1.586-6.368l-9.134-4.89L135.198,19.2z"/>
		<polygon style="fill:#02468F;" points="209.602,37.027 205.024,46.283 211.069,46.283 215.064,37.072 217.262,16.776 
			211.801,16.697 		"/>
		<path style="fill:#02468F;" d="M223.157,39.644l0.236-2.523l1.901-17.646c0.023-0.083,0.04-0.139,0.04-0.139
			c0.296-1.443,1.538-2.537,3.049-2.615h-2.793l0.001-0.012l-5.268-0.055l-2.748,26.944l2.254,2.176l7.634-1.748l-0.019-0.321
			c0.007-0.206,0.014-0.46,0.014-0.645c0-0.362,0.098-0.802,0.098-0.802c0.296-1.443,1.538-2.537,3.049-2.615H223.157z"/>
		<polygon style="fill:#02468F;" points="168.788,25.012 151.295,25.012 150.056,30.434 162.724,30.434 162.585,31.357 
			151.824,46.227 158.81,46.227 169.045,31.402 170.151,25.051 168.788,25.051 		"/>
		<path style="fill:#02468F;" d="M171.445,16.779h-18.588l-1.144,5.349h18.837l0.534-3.069c0.407-1.274,1.56-2.212,2.951-2.284
			h-2.589L171.445,16.779z"/>
		<path style="fill:#02468F;" d="M198.24,21.807v4.631h2.67l0.054-1.974c0.086-1.585,1.318-2.555,2.903-2.655l0.039-0.002H198.24z"
			/>
	</g>
</g>
</svg>
