<?xml version="1.0" encoding="iso-8859-1"?>
<!-- Generator: Adobe Illustrator 24.2.3, SVG Export Plug-In . SVG Version: 6.00 Build 0)  -->
<svg version="1.1" id="&#x5716;&#x5C64;_1" xmlns="http://www.w3.org/2000/svg" xmlns:xlink="http://www.w3.org/1999/xlink" x="0px"
	 y="0px" viewBox="0 0 384.463 122.007" style="enable-background:new 0 0 384.463 122.007;" xml:space="preserve">
<g>
	<g>
		
			<rect x="0.5" y="114.874" style="fill:#FFFFFF;stroke:#0568AB;stroke-linecap:round;stroke-linejoin:round;stroke-miterlimit:10;" width="116.64" height="6.633"/>
		<path style="fill:#FCE6DD;stroke:#0568AB;stroke-linecap:round;stroke-linejoin:round;stroke-miterlimit:10;" d="M52.394,67.937
			l-3.435,3.194c0,0,1.378,10.957,11.398,11.249c0,0,10.617,0.901,11.398-11.249l-1.244-4.069L52.394,67.937z"/>
		<path style="fill:#96D4E0;stroke:#0568AB;stroke-linecap:round;stroke-linejoin:round;stroke-miterlimit:10;" d="M104.009,103.279
			c0,0-3.698-10.307-5.341-15.706c-1.643-5.399-7.396-7.853-7.396-7.853L71.755,71.13c0,0-2.15,8.099-10.779,8.835
			c-8.628,0.737-12.018-8.835-12.018-8.835L29.441,79.72c0,0-5.752,2.454-7.396,7.853c-1.643,5.399-5.341,15.706-5.341,15.706
			s-4.52,10.798,3.698,11.78s28.556,0,28.556,0l7.088-0.307l15.709,0.307c0,0,20.338,0.982,28.556,0
			S104.009,103.279,104.009,103.279z"/>
		<g>
			<path style="fill:#FCE6DD;stroke:#0568AB;stroke-linecap:round;stroke-linejoin:round;stroke-miterlimit:10;" d="M88.414,46.662
				c0,0-2.892,17.798-19.841,21.109c-8.085,1.58-12.158,0.583-12.158,0.583s-19.306-3.135-22.112-19.622
				c0,0-4.008-22.765,8.618-31.25s31.665-7.45,38.68,0C88.615,24.932,90.018,36.521,88.414,46.662z"/>
			<path style="fill:#0568AB;stroke:#0568AB;stroke-linecap:round;stroke-linejoin:round;stroke-miterlimit:10;" d="M71.847,20.566
				c0,0-2.986,4.035-7.549,5.812c-6.346,2.472-4.609-1.937-4.609-1.937c-0.668,2.539-4.242,4.657-6.42,5.148
				c-5.357,1.209-3.801-3.211-3.801-3.211c-2.472,3.14-7.816,10.482-14.496,6.346c0,0-2.271,11.624-0.668,14.831
				c0,0-9.615-16.634-0.605-32.734C41.251,1.326,51.405-1.64,68.106,1.834c0,0,14.029-2.111,20.907,13.12
				c6.419,14.214-0.599,30.596-0.599,30.596s2.46-12.158-1.462-14.964C86.952,30.586,82.325,29.057,71.847,20.566z"/>
			<path style="fill:#FCE6DD;stroke:#0568AB;stroke-linecap:round;stroke-linejoin:round;stroke-miterlimit:10;" d="M34.971,38.937
				c0,0-1.366-3.752-4.8-1.171c-3.083,2.317-1.48,9.981,4.8,11.342"/>
			<path style="fill:#FCE6DD;stroke:#0568AB;stroke-linecap:round;stroke-linejoin:round;stroke-miterlimit:10;" d="M88.162,38.59
				c0,0,1.802-3.563,4.905-0.592c2.786,2.667,0.282,10.086-6.115,10.691"/>
			<path style="fill:#040000;stroke:#0568AB;stroke-miterlimit:10;" d="M52.583,34.189c0,0-3.466-2.398-7.132,0.732
				c0,0-0.513,0.54,0.211,0.591c0.335,0.024,0.993-0.458,1.943-0.808c2.277-0.839,4.302-0.107,5.105,0.243
				c0.496,0.216,0.561-0.005,0.333-0.303C52.903,34.459,52.583,34.189,52.583,34.189z"/>
			<path style="fill:#040000;stroke:#0568AB;stroke-miterlimit:10;" d="M68.339,34.189c0,0,3.466-2.398,7.132,0.732
				c0,0,0.513,0.54-0.211,0.591c-0.335,0.024-0.993-0.458-1.943-0.808c-2.277-0.839-4.302-0.107-5.105,0.243
				c-0.496,0.216-0.561-0.005-0.333-0.303C68.019,34.459,68.339,34.189,68.339,34.189z"/>
			<path style="fill:#0568AB;" d="M52.39,40.082c0.014,0.733,0.067,2.262-1.854,2.262c-1.42,0-1.854-1.169-1.854-2.262
				c0-1.249,0.83-2.262,1.854-2.262C51.56,37.82,52.366,38.833,52.39,40.082z"/>
			<path style="fill:#0568AB;" d="M69.848,40.082c-0.014,0.733-0.067,2.262,1.854,2.262c1.42,0,1.854-1.169,1.854-2.262
				c0-1.249-0.83-2.262-1.854-2.262C70.678,37.82,69.872,38.833,69.848,40.082z"/>
			<path style="fill:#FFFFFF;stroke:#0568AB;stroke-linecap:round;stroke-linejoin:round;stroke-miterlimit:10;" d="M39.914,40.908
				c0,0,21.778,11.991,43.423-0.033c0,0,2.004-1.202,2.271,1.47c0.267,2.672-0.007,15.712-1.871,17.369
				c-5.627,5.004-10.424,9.743-22.382,9.753c-10.218,0.008-14.839-2.95-22.318-8.7c0,0-2.766-2.039-1.529-19.057
				C37.509,41.709,37.719,39.905,39.914,40.908z"/>
			
				<line style="fill:#FFFFFF;stroke:#0568AB;stroke-linecap:round;stroke-linejoin:round;stroke-miterlimit:10;" x1="37.509" y1="41.709" x2="33.832" y2="36.86"/>
			
				<line style="fill:#FFFFFF;stroke:#0568AB;stroke-linecap:round;stroke-linejoin:round;stroke-miterlimit:10;" x1="37.509" y1="56.851" x2="33.367" y2="48.585"/>
			
				<line style="fill:#FFFFFF;stroke:#0568AB;stroke-linecap:round;stroke-linejoin:round;stroke-miterlimit:10;" x1="85.268" y1="41.166" x2="89.817" y2="36.815"/>
			
				<line style="fill:none;stroke:#0568AB;stroke-linecap:round;stroke-linejoin:round;stroke-miterlimit:10;" x1="84.888" y1="55.583" x2="87.964" y2="48.585"/>
		</g>
		<path style="fill:none;stroke:#0568AB;stroke-linecap:round;stroke-linejoin:round;stroke-miterlimit:10;" d="M42.72,47.555
			c0,0,18.371,7.485,36.742,1.031"/>
		<path style="fill:none;stroke:#0568AB;stroke-linecap:round;stroke-linejoin:round;stroke-miterlimit:10;" d="M41.251,52.563
			c0,0,19.531,8.619,38.212,1.031"/>
		<path style="fill:none;stroke:#0568AB;stroke-linecap:round;stroke-linejoin:round;stroke-miterlimit:10;" d="M41.919,56.851
			c0,0,19.437,9.275,38.212,0"/>
		<path style="fill:#96D4E0;stroke:#0568AB;stroke-linecap:round;stroke-linejoin:round;stroke-miterlimit:10;" d="M30.777,100.58
			l21.663,4.193l0.399,10.118c0,0-24.219,1.15-32.437,0.168c-8.218-0.982-3.698-11.78-3.698-11.78s3.698-10.307,5.341-15.706
			c1.644-5.399,7.396-7.853,7.396-7.853l19.517-8.589c0,0,3.592,8.787,10.401,8.851s9.564-2.886,12.395-8.851l19.517,8.589
			c0,0,5.752,2.454,7.396,7.853c1.644,5.399,5.341,15.706,5.341,15.706s4.52,10.798-3.698,11.78
			c-8.218,0.982-32.645-0.08-32.645-0.08l-0.295-9.878l22.565-4.521"/>
		<path style="fill:#FCE6DD;stroke:#0568AB;stroke-linecap:round;stroke-linejoin:round;stroke-miterlimit:10;" d="M52.44,104.773
			c0,0,4.71-2.261,6.847,0c0,0,0.935,0.511,1.069,1.678c0,0,1.737,0.875,2.138,3.647s-1.799,4.807-4.142,5.398
			c-2.605,0.656-5.513-0.604-5.513-0.604L52.44,104.773z"/>
		<path style="fill:#FCE6DD;stroke:#0568AB;stroke-linecap:round;stroke-linejoin:round;stroke-miterlimit:10;" d="M67.596,105.292
			c0,0-4.713-2.78-6.851-0.519c0,0-0.935,0.511-1.069,1.678c0,0-1.737,0.875-2.138,3.647c-0.401,2.772,1.799,4.807,4.142,5.398
			c2.605,0.656,5.985-0.516,5.985-0.516L67.596,105.292z"/>
	</g>
	<g>
		
			<rect x="267.323" y="114.874" style="fill:#FFFFFF;stroke:#0568AB;stroke-linecap:round;stroke-linejoin:round;stroke-miterlimit:10;" width="116.64" height="6.633"/>
		
			<rect x="136.492" y="114.874" style="fill:#FFFFFF;stroke:#0568AB;stroke-linecap:round;stroke-linejoin:round;stroke-miterlimit:10;" width="116.64" height="6.633"/>
		<path style="fill:#FCE6DD;stroke:#0568AB;stroke-linecap:round;stroke-linejoin:round;stroke-miterlimit:10;" d="M319.217,67.937
			l-3.435,3.194c0,0,1.378,10.957,11.398,11.249c0,0,10.617,0.901,11.398-11.249l-1.244-4.069L319.217,67.937z"/>
		<path style="fill:#FEE98C;stroke:#0568AB;stroke-linecap:round;stroke-linejoin:round;stroke-miterlimit:10;" d="M370.832,103.279
			c0,0-3.698-10.307-5.341-15.706c-1.643-5.399-7.396-7.853-7.396-7.853l-19.517-8.589c0,0-2.15,8.099-10.779,8.835
			c-8.628,0.737-12.018-8.835-12.018-8.835l-19.517,8.589c0,0-5.752,2.454-7.396,7.853c-1.643,5.399-5.341,15.706-5.341,15.706
			s-4.52,10.798,3.698,11.78c8.218,0.982,28.556,0,28.556,0l7.088-0.307l15.709,0.307c0,0,20.338,0.982,28.556,0
			C375.352,114.077,370.832,103.279,370.832,103.279z"/>
		<g>
			<path style="fill:#0568AB;stroke:#0568AB;stroke-linecap:round;stroke-linejoin:round;stroke-miterlimit:10;" d="M300.076,22.922
				c0,0-8.305,19.102-5.719,35.99c0.481,3.144,2.734,5.721,5.761,6.699c8.934,2.888,31.624,7.767,55.422,0.7
				c3.056-0.908,4.38-3.498,4.819-6.656c1.101-7.927,2.347-14.21-4.523-35.333L300.076,22.922z"/>
			<path style="fill:#FCE6DD;stroke:#0568AB;stroke-linecap:round;stroke-linejoin:round;stroke-miterlimit:10;" d="M355.238,46.662
				c0,0-2.892,17.798-19.841,21.109c-8.085,1.58-12.158,0.583-12.158,0.583s-19.306-3.135-22.112-19.622
				c0,0-4.008-22.765,8.618-31.25s31.665-7.45,38.68,0S356.841,36.521,355.238,46.662z"/>
			<path style="fill:#0568AB;stroke:#0568AB;stroke-linecap:round;stroke-linejoin:round;stroke-miterlimit:10;" d="M338.578,30.348
				c0,0-2.633,0.132-5.715,0.088c-1.072-0.015-4.823-2.729-4.823-2.729s-1.987,2.377-3.496,2.421
				c-2.34,0.069-5.827,0.041-9.694-0.26c-0.761-0.059-1.549-3.981-2.366-4.009c0,0-0.958,3.873-2.378,3.891
				c-1.661,0.02-3.956,0.064-6.092,0.159c0,0-4.491,14.44-2.888,17.647c0,0-8.376-16.943,2.888-31.556
				c8.084-10.487,15.687-10.157,24.265-10.036c0,0,17.558-0.66,24.97,12.809c7.519,13.664,1.988,26.779,1.988,26.779
				s0.205-12.239-2.719-15.907c0,0-2.764,0.607-7.634,0.767c-1.051,0.035-2.91-3.32-2.91-3.32S339.581,30.399,338.578,30.348z"/>
			<path style="fill:#FCE6DD;stroke:#0568AB;stroke-linecap:round;stroke-linejoin:round;stroke-miterlimit:10;" d="M301.794,38.937
				c0,0-1.366-3.752-4.8-1.171c-3.083,2.317-1.48,9.981,4.8,11.342"/>
			<path style="fill:#FCE6DD;stroke:#0568AB;stroke-linecap:round;stroke-linejoin:round;stroke-miterlimit:10;" d="M354.366,39.57
				c0,0,2.422-4.543,5.525-1.572c2.786,2.667,0.282,10.086-6.115,10.691"/>
			<path style="fill:#0568AB;stroke:#0568AB;stroke-miterlimit:10;" d="M319.407,34.189c0,0-3.466-2.398-7.132,0.732
				c0,0-0.513,0.54,0.211,0.591c0.335,0.024,0.993-0.458,1.943-0.808c2.277-0.839,4.302-0.107,5.105,0.243
				c0.496,0.216,0.561-0.005,0.333-0.303C319.726,34.459,319.407,34.189,319.407,34.189z"/>
			<path style="fill:#0568AB;stroke:#0568AB;stroke-miterlimit:10;" d="M335.163,34.189c0,0,3.466-2.398,7.132,0.732
				c0,0,0.513,0.54-0.211,0.591c-0.335,0.024-0.993-0.458-1.943-0.808c-2.277-0.839-4.302-0.107-5.105,0.243
				c-0.496,0.216-0.561-0.005-0.333-0.303C334.843,34.459,335.163,34.189,335.163,34.189z"/>
			<path style="fill:#0568AB;" d="M319.214,40.082c0.014,0.733,0.067,2.262-1.854,2.262c-1.42,0-1.854-1.169-1.854-2.262
				c0-1.249,0.83-2.262,1.854-2.262C318.384,37.82,319.19,38.833,319.214,40.082z"/>
			<path style="fill:#0568AB;" d="M336.671,40.082c-0.014,0.733-0.067,2.262,1.854,2.262c1.42,0,1.854-1.169,1.854-2.262
				c0-1.249-0.83-2.262-1.854-2.262S336.695,38.833,336.671,40.082z"/>
			<path style="fill:#FFFFFF;stroke:#0568AB;stroke-linecap:round;stroke-linejoin:round;stroke-miterlimit:10;" d="M306.738,40.908
				c0,0,21.778,11.991,43.423-0.033c0,0,2.004-1.202,2.271,1.47c0.267,2.672-0.007,15.712-1.871,17.369
				c-5.627,5.004-10.424,9.743-22.382,9.753c-10.218,0.008-14.839-2.95-22.318-8.7c0,0-2.766-2.039-1.529-19.057
				C304.333,41.709,304.542,39.905,306.738,40.908z"/>
			
				<line style="fill:#FFFFFF;stroke:#0568AB;stroke-linecap:round;stroke-linejoin:round;stroke-miterlimit:10;" x1="304.333" y1="41.709" x2="300.655" y2="36.86"/>
			
				<line style="fill:#FFFFFF;stroke:#0568AB;stroke-linecap:round;stroke-linejoin:round;stroke-miterlimit:10;" x1="304.333" y1="56.851" x2="300.191" y2="48.585"/>
			
				<line style="fill:#FFFFFF;stroke:#0568AB;stroke-linecap:round;stroke-linejoin:round;stroke-miterlimit:10;" x1="352.092" y1="41.166" x2="356.641" y2="36.815"/>
			
				<line style="fill:none;stroke:#0568AB;stroke-linecap:round;stroke-linejoin:round;stroke-miterlimit:10;" x1="351.711" y1="55.583" x2="354.787" y2="48.585"/>
		</g>
		<path style="fill:none;stroke:#0568AB;stroke-linecap:round;stroke-linejoin:round;stroke-miterlimit:10;" d="M309.544,47.555
			c0,0,18.371,7.485,36.742,1.031"/>
		<path style="fill:none;stroke:#0568AB;stroke-linecap:round;stroke-linejoin:round;stroke-miterlimit:10;" d="M308.074,52.563
			c0,0,19.531,8.619,38.212,1.031"/>
		<path style="fill:none;stroke:#0568AB;stroke-linecap:round;stroke-linejoin:round;stroke-miterlimit:10;" d="M308.742,56.851
			c0,0,19.437,9.275,38.212,0"/>
		<path style="fill:#FEE98C;stroke:#0568AB;stroke-linecap:round;stroke-linejoin:round;stroke-miterlimit:10;" d="M297.6,100.58
			l21.663,4.193l0.399,10.118c0,0-24.219,1.15-32.437,0.168c-8.218-0.982-3.698-11.78-3.698-11.78s3.698-10.307,5.341-15.706
			s7.396-7.853,7.396-7.853l19.517-8.589c0,0,3.592,8.787,10.401,8.851s9.564-2.886,12.395-8.851l19.517,8.589
			c0,0,5.752,2.454,7.396,7.853c1.644,5.399,5.341,15.706,5.341,15.706s4.52,10.798-3.698,11.78
			c-8.218,0.982-32.645-0.08-32.645-0.08l-0.295-9.878l22.565-4.521"/>
		<path style="fill:#FCE6DD;stroke:#0568AB;stroke-linecap:round;stroke-linejoin:round;stroke-miterlimit:10;" d="M319.264,104.773
			c0,0,4.71-2.261,6.847,0c0,0,0.935,0.511,1.069,1.678c0,0,1.737,0.875,2.138,3.647c0.401,2.772-1.799,4.807-4.142,5.398
			c-2.605,0.656-5.513-0.604-5.513-0.604L319.264,104.773z"/>
		<path style="fill:#FCE6DD;stroke:#0568AB;stroke-linecap:round;stroke-linejoin:round;stroke-miterlimit:10;" d="M334.42,105.292
			c0,0-4.713-2.78-6.851-0.519c0,0-0.935,0.511-1.069,1.678c0,0-1.737,0.875-2.138,3.647c-0.401,2.772,1.799,4.807,4.142,5.398
			c2.605,0.656,5.985-0.516,5.985-0.516L334.42,105.292z"/>
	</g>
	
		<line style="fill:#FFFFFF;stroke:#0568AB;stroke-linecap:round;stroke-linejoin:round;stroke-miterlimit:10;" x1="131.433" y1="60.974" x2="131.433" y2="82.394"/>
	
		<line style="fill:#FFFFFF;stroke:#0568AB;stroke-linecap:round;stroke-linejoin:round;stroke-miterlimit:10;" x1="256.879" y1="60.974" x2="256.879" y2="82.394"/>
	
		<line style="fill:#FFFFFF;stroke:#0568AB;stroke-linecap:round;stroke-linejoin:round;stroke-miterlimit:10;" x1="134.69" y1="71.684" x2="253.132" y2="71.684"/>
</g>
</svg>
