<?xml version="1.0" encoding="iso-8859-1"?>
<!-- Generator: Adobe Illustrator 24.2.3, SVG Export Plug-In . SVG Version: 6.00 Build 0)  -->
<svg version="1.1" id="&#x5716;&#x5C64;_1" xmlns="http://www.w3.org/2000/svg" xmlns:xlink="http://www.w3.org/1999/xlink" x="0px"
	 y="0px" viewBox="0 0 296.879 153.634" style="enable-background:new 0 0 296.879 153.634;" xml:space="preserve">
<g>
	<g>
		<g>
			<path style="fill:#96D4E0;stroke:#0568AB;stroke-linecap:round;stroke-linejoin:round;stroke-miterlimit:10;" d="
				M198.344,108.059l-14.055,4.903v39.223h71.909v-33.339c0,0-0.981-8.825-15.362-10.786c0,0-6.864,4.576-20.592,4.903
				C220.243,112.962,206.188,113.942,198.344,108.059z"/>
			
				<path style="fill:#FCE6DD;stroke:#0568AB;stroke-width:1.1609;stroke-linecap:round;stroke-linejoin:round;stroke-miterlimit:10;" d="
				M210.764,94.985v9.152l-12.421,3.922c0,0,1.307,12.094,21.899,11.767c0,0,14.709-0.654,20.592-11.767l-11.113-3.269l-0.981-9.806
				H210.764z"/>
			<path style="fill:#FCE6DD;stroke:#0568AB;stroke-linecap:round;stroke-linejoin:round;stroke-miterlimit:10;" d="M247.214,72.982
				c0,0-2.892,17.798-19.841,21.109c-8.085,1.58-12.158,0.583-12.158,0.583s-19.306-3.135-22.112-19.622
				c0,0-4.008-22.765,8.618-31.25s31.665-7.45,38.68,0C247.415,51.252,248.818,62.841,247.214,72.982z"/>
			<path style="fill:#0568AB;stroke:#0568AB;stroke-miterlimit:10;" d="M211.383,60.509c0,0-3.466-2.398-7.132,0.732
				c0,0-0.513,0.54,0.212,0.591c0.335,0.024,0.993-0.458,1.943-0.808c2.277-0.839,4.302-0.107,5.105,0.243
				c0.496,0.216,0.561-0.005,0.333-0.303C211.703,60.779,211.383,60.509,211.383,60.509z"/>
			<path style="fill:#0568AB;stroke:#0568AB;stroke-miterlimit:10;" d="M227.139,60.509c0,0,3.466-2.398,7.132,0.732
				c0,0,0.513,0.54-0.211,0.591c-0.335,0.024-0.993-0.458-1.943-0.808c-2.277-0.839-4.302-0.107-5.105,0.243
				c-0.496,0.216-0.561-0.005-0.333-0.303C226.82,60.779,227.139,60.509,227.139,60.509z"/>
			<path style="fill:#0568AB;" d="M211.19,66.402c0.014,0.733,0.067,2.262-1.854,2.262c-1.42,0-1.854-1.169-1.854-2.262
				c0-1.249,0.83-2.262,1.854-2.262S211.166,65.153,211.19,66.402z"/>
			<path style="fill:#0568AB;" d="M228.648,66.402c-0.014,0.733-0.067,2.262,1.854,2.262c1.42,0,1.854-1.169,1.854-2.262
				c0-1.249-0.83-2.262-1.854-2.262S228.672,65.153,228.648,66.402z"/>
			
				<line style="fill:#FFFFFF;stroke:#0568AB;stroke-linecap:round;stroke-linejoin:round;stroke-miterlimit:10;" x1="196.31" y1="68.029" x2="192.632" y2="63.18"/>
			
				<line style="fill:#FFFFFF;stroke:#0568AB;stroke-linecap:round;stroke-linejoin:round;stroke-miterlimit:10;" x1="196.31" y1="83.171" x2="192.167" y2="74.905"/>
			
				<line style="fill:#FFFFFF;stroke:#0568AB;stroke-linecap:round;stroke-linejoin:round;stroke-miterlimit:10;" x1="244.069" y1="67.486" x2="248.617" y2="63.135"/>
			
				<line style="fill:none;stroke:#0568AB;stroke-linecap:round;stroke-linejoin:round;stroke-miterlimit:10;" x1="243.688" y1="81.903" x2="246.764" y2="74.905"/>
			<path style="fill:#FCE6DD;stroke:#0568AB;stroke-linecap:round;stroke-linejoin:round;stroke-miterlimit:10;" d="
				M194.793,113.298c0,0,1.689,0,1.502-6.382c0,0-1.502-10.136-2.44-11.075c-0.939-0.939-2.628-1.877-3.379,1.689s0,5.819,0,5.819
				s-5.443-0.375-6.945,2.44c-1.502,2.816-2.44,3.566-1.314,5.819c1.126,2.252,1.689,3.191,1.689,3.191l-4.88,29.47
				c0,0-1.877,9.573,7.321,8.822s8.822-5.631,8.822-6.382S194.793,113.298,194.793,113.298z"/>
			
				<path style="fill:#FCE6DD;stroke:#0568AB;stroke-width:1.1983;stroke-linecap:round;stroke-linejoin:round;stroke-miterlimit:10;" d="
				M256.198,118.845l-13.046,10.372v13.496l-11.471-3.374c0,0-0.45-2.474-3.824-3.374c0,0-1.799-3.599-6.748-0.675
				s-3.824,9.672-2.024,11.246s7.648,5.049,15.295,5.449c7.648,0.4,21.818,0,21.818,0V118.845z"/>
			<path style="fill:#FCE6DD;stroke:#0568AB;stroke-linecap:round;stroke-linejoin:round;stroke-miterlimit:10;" d="M185.835,108.47
				c0,0,3.704,2.112,7.936-0.803"/>
			
				<path style="fill:#0568AB;stroke:#0568AB;stroke-width:1.2139;stroke-linecap:round;stroke-linejoin:round;stroke-miterlimit:10;" d="
				M237.234,43.114c0,0-2.805,7.553-17.296,9.33c0,0-5.609,1.333,0-4.665c0,0-13.556,13.106-23.84,11.329v5.331l-6.077,3.11
				c0,0-9.115-50.425,38.098-43.095c0,0,17.997-6.976,24.074,22.28c0,0,4.207,17.705,0,18.593l-5.609,2.221
				C246.583,67.549,244.713,47.112,237.234,43.114z"/>
			<path style="fill:#FCE6DD;stroke:#0568AB;stroke-linecap:round;stroke-linejoin:round;stroke-miterlimit:10;" d="M193.771,65.257
				c0,0-1.366-3.752-4.8-1.171c-3.083,2.317-1.48,9.981,4.8,11.342"/>
			<path style="fill:#0568AB;stroke:#0568AB;stroke-linecap:round;stroke-linejoin:round;stroke-miterlimit:10;" d="M240.101,88.193
				c0,0,9.98,5.042,9.273,13.489s5.252,17.889,10.977,19.428c0,0,7.18,2.1,10.699-2.264c0,0,4.176-7.75-3.003-12.189
				c-3.143-1.943-9.573,0.02-9.855-6.57s-4.781-8.248-7.416-10.657c-2.874-2.628-8.022-4.197-8.022-4.197L240.101,88.193z"/>
			<path style="fill:#FFFFFF;stroke:#0568AB;stroke-linecap:round;stroke-linejoin:round;stroke-miterlimit:10;" d="M198.715,67.227
				c0,0,21.778,11.991,43.423-0.033c0,0,2.004-1.202,2.271,1.47c0.267,2.672-0.007,15.712-1.871,17.369
				c-5.627,5.004-10.424,9.743-22.382,9.753c-10.218,0.008-14.839-2.95-22.318-8.7c0,0-2.766-2.039-1.529-19.057
				C196.31,68.029,196.519,66.225,198.715,67.227z"/>
			<path style="fill:none;stroke:#0568AB;stroke-linecap:round;stroke-linejoin:round;stroke-miterlimit:10;" d="M201.52,73.875
				c0,0,18.371,7.485,36.742,1.031"/>
			<path style="fill:none;stroke:#0568AB;stroke-linecap:round;stroke-linejoin:round;stroke-miterlimit:10;" d="M238.263,79.914
				c-18.681,7.589-38.212-1.031-38.212-1.031"/>
			<path style="fill:none;stroke:#0568AB;stroke-linecap:round;stroke-linejoin:round;stroke-miterlimit:10;" d="M200.719,83.171
				c0,0,19.437,9.275,38.212,0"/>
			<path style="fill:#FCE6DD;stroke:#0568AB;stroke-linecap:round;stroke-linejoin:round;stroke-miterlimit:10;" d="M245.753,66.924
				c0,0,3.012-5.577,6.115-2.607c2.786,2.667,0.282,10.086-6.115,10.691"/>
			
				<line style="fill:none;stroke:#0568AB;stroke-linecap:round;stroke-linejoin:round;stroke-miterlimit:10;" x1="189.803" y1="90.701" x2="185.835" y2="86.384"/>
			
				<line style="fill:none;stroke:#0568AB;stroke-linecap:round;stroke-linejoin:round;stroke-miterlimit:10;" x1="187.589" y1="94.985" x2="180.951" y2="92.203"/>
		</g>
		<g>
			
				<path style="fill:#FFFFFF;stroke:#0568AB;stroke-width:1.1609;stroke-linecap:round;stroke-linejoin:round;stroke-miterlimit:10;" d="
				M289.278,54.503V31.362c0-2.762-2.238-5-5-5c-2.761,0-5,2.238-5,5v23.141c-4.139,1.899-7.02,6.069-7.02,10.921
				c0,6.639,5.381,12.021,12.02,12.021s12.021-5.382,12.021-12.021C296.298,60.571,293.418,56.401,289.278,54.503z"/>
			<path style="fill:#F17171;" d="M286.278,43.326v13.101l1.749,0.802c3.202,1.469,5.271,4.686,5.271,8.194
				c0,4.974-4.047,9.021-9.021,9.021c-4.974,0-9.02-4.047-9.02-9.021c0-3.509,2.069-6.726,5.271-8.194l1.749-0.802V43.326"/>
			<path style="fill:#F2F2F2;" d="M282.278,43.326V31.362c0-1.103,0.897-2,2-2s2,0.897,2,2v11.964"/>
			
				<line style="fill:none;stroke:#FFFFFF;stroke-width:1.1609;stroke-linecap:round;stroke-linejoin:round;stroke-miterlimit:10;" x1="287.985" y1="53.04" x2="291.559" y2="53.04"/>
			
				<line style="fill:none;stroke:#FFFFFF;stroke-width:1.1609;stroke-linecap:round;stroke-linejoin:round;stroke-miterlimit:10;" x1="287.985" y1="49.802" x2="291.559" y2="49.802"/>
			
				<line style="fill:none;stroke:#FFFFFF;stroke-width:1.1609;stroke-linecap:round;stroke-linejoin:round;stroke-miterlimit:10;" x1="287.985" y1="46.564" x2="291.559" y2="46.564"/>
			
				<line style="fill:none;stroke:#FFFFFF;stroke-width:1.1609;stroke-linecap:round;stroke-linejoin:round;stroke-miterlimit:10;" x1="287.985" y1="43.326" x2="291.559" y2="43.326"/>
			
				<line style="fill:none;stroke:#FFFFFF;stroke-width:1.1609;stroke-linecap:round;stroke-linejoin:round;stroke-miterlimit:10;" x1="287.985" y1="40.088" x2="291.559" y2="40.088"/>
		</g>
		<g>
			<path style="fill:#FCE6DD;stroke:#0568AB;stroke-linecap:round;stroke-linejoin:round;stroke-miterlimit:10;" d="M90.137,95.3
				l-3.831,8.259c0,0-1.863,7.414,10.745,6.382c0,0,7.363-0.751,9.141-6.382l-1.32-7.321L90.137,95.3z"/>
			<path style="fill:#FCE6DD;stroke:#0568AB;stroke-linecap:round;stroke-linejoin:round;stroke-miterlimit:10;" d="M127.755,75.245
				c0,0-3.165,19.477-21.712,23.101c-8.848,1.729-13.305,0.637-13.305,0.637S71.611,95.553,68.54,77.51
				c0,0-4.386-24.912,9.431-34.198s34.652-8.153,42.328,0S129.51,64.148,127.755,75.245z"/>
			<path style="fill:#0568AB;stroke:#0568AB;stroke-miterlimit:10;" d="M88.545,61.596c0,0-3.793-2.624-7.805,0.801
				c0,0-0.562,0.59,0.231,0.647c0.367,0.026,1.087-0.501,2.127-0.884c2.492-0.918,4.707-0.117,5.587,0.266
				c0.543,0.236,0.614-0.005,0.365-0.332C88.895,61.891,88.545,61.596,88.545,61.596z"/>
			<path style="fill:#0568AB;stroke:#0568AB;stroke-miterlimit:10;" d="M105.787,61.596c0,0,3.793-2.624,7.805,0.801
				c0,0,0.562,0.59-0.231,0.647c-0.367,0.026-1.087-0.501-2.127-0.884c-2.492-0.918-4.707-0.117-5.587,0.266
				c-0.543,0.236-0.614-0.005-0.365-0.332C105.437,61.891,105.787,61.596,105.787,61.596z"/>
			<path style="fill:#0568AB;" d="M88.334,68.044c0.015,0.802,0.073,2.475-2.029,2.475c-1.554,0-2.029-1.279-2.029-2.475
				c0-1.367,0.908-2.475,2.029-2.475C87.425,65.569,88.307,66.678,88.334,68.044z"/>
			<path style="fill:#0568AB;" d="M107.438,68.044c-0.015,0.802-0.073,2.475,2.029,2.475c1.554,0,2.029-1.279,2.029-2.475
				c0-1.367-0.908-2.475-2.029-2.475C108.346,65.569,107.464,66.678,107.438,68.044z"/>
			<path style="fill:#FFFFFF;stroke:#0568AB;stroke-linecap:round;stroke-linejoin:round;stroke-miterlimit:10;" d="M74.681,68.948
				c0,0,23.832,13.122,47.518-0.036c0,0,2.193-1.316,2.486,1.608s-0.008,17.194-2.047,19.007
				c-6.158,5.476-11.407,10.662-24.493,10.673c-11.182,0.009-16.238-3.228-24.422-9.52c0,0-3.027-2.231-1.673-20.855
				C72.049,69.825,72.279,67.851,74.681,68.948z"/>
			
				<line style="fill:#FFFFFF;stroke:#0568AB;stroke-linecap:round;stroke-linejoin:round;stroke-miterlimit:10;" x1="72.049" y1="86.395" x2="67.517" y2="77.35"/>
			
				<line style="fill:#FFFFFF;stroke:#0568AB;stroke-linecap:round;stroke-linejoin:round;stroke-miterlimit:10;" x1="124.313" y1="69.231" x2="129.291" y2="64.469"/>
			
				<line style="fill:none;stroke:#0568AB;stroke-linecap:round;stroke-linejoin:round;stroke-miterlimit:10;" x1="123.897" y1="85.008" x2="127.263" y2="77.35"/>
			<path style="fill:none;stroke:#0568AB;stroke-linecap:round;stroke-linejoin:round;stroke-miterlimit:10;" d="M77.752,76.222
				c0,0,20.104,8.191,40.208,1.128"/>
			<path style="fill:none;stroke:#0568AB;stroke-linecap:round;stroke-linejoin:round;stroke-miterlimit:10;" d="M76.143,81.703
				c0,0,21.373,9.432,41.816,1.128"/>
			
				<path style="fill:none;stroke:#0568AB;stroke-width:1.0943;stroke-linecap:round;stroke-linejoin:round;stroke-miterlimit:10;" d="
				M76.874,86.395c0,0,21.271,10.15,41.816,0"/>
			
				<path style="fill:#0568AB;stroke:#0568AB;stroke-width:0.9459;stroke-linecap:round;stroke-linejoin:round;stroke-miterlimit:10;" d="
				M84.624,43.255c0,0-11.516,8.919-15.128,22.011l-1.992,0.962c0,0-4.287-17.459,0.785-26.584
				c6.162-11.086,21.491-18.707,35.008-11.106c0,0,18.255-8.009,25.09,15.649c0,0,2.664,13.859,2.042,21.661c0,0,0,0-2.825,0
				c0,0-10.273-1.781-17.948-8.922S93.201,37.701,84.624,43.255z"/>
			<path style="fill:#FEE98C;stroke:#0568AB;stroke-linecap:round;stroke-linejoin:round;stroke-miterlimit:10;" d="M86.307,103.559
				c0,0,9.374,12.013,19.885,0l19.521,5.758c0,0,6.57,1.374,6.664,9.634v9.01h-11.169v23.276h-49.93v-37.447L86.307,103.559z"/>
			<path style="fill:#FCE6DD;stroke:#0568AB;stroke-linecap:round;stroke-linejoin:round;stroke-miterlimit:10;" d="M67.149,107.74
				c0,0-2.628-11.826,7.227-14.078c0,0,9.291-1.971,9.573,7.039c0,0-0.282,7.602-4.223,9.01c0,0-13.515,33.224-14.36,34.913
				c0,0-4.323,7.456-13.796,0c-7.224-5.686,0.475-16.163,2.534-18.583C55.034,124.948,67.149,107.74,67.149,107.74z"/>
			<g>
				
					<rect x="69.729" y="100.111" style="fill:#E6E6E5;stroke:#0568AB;stroke-linecap:round;stroke-linejoin:round;stroke-miterlimit:10;" width="29.095" height="18.583"/>
				
					<rect x="69.729" y="100.111" style="fill:#0568AB;stroke:#0568AB;stroke-width:0.4714;stroke-linecap:round;stroke-linejoin:round;stroke-miterlimit:10;" width="29.095" height="4.13"/>
				
					<rect x="72.92" y="97.108" style="fill:#E6E6E5;stroke:#0568AB;stroke-linecap:round;stroke-linejoin:round;stroke-miterlimit:10;" width="6.945" height="3.003"/>
				
					<circle style="fill:#0568AB;stroke:#0568AB;stroke-width:0.8539;stroke-linecap:round;stroke-linejoin:round;stroke-miterlimit:10;" cx="84.495" cy="111.533" r="4.888"/>
			</g>
			<path style="fill:#FCE6DD;stroke:#0568AB;stroke-linecap:round;stroke-linejoin:round;stroke-miterlimit:10;" d="
				M120.927,136.459l-16.049-17.457c0,0-0.845-7.884-6.757-6.757c-5.913,1.126-8.728,1.971-10.699,7.039
				c-1.971,5.068,4.223,6.757,8.447,9.573c4.223,2.816,12.952,19.709,20.272,21.399c6.993,1.614,10.903,1.943,14.92-4.657
				c0.365-0.599,0.566-1.29,0.566-1.991v-15.595h-10.418L120.927,136.459z"/>
			<path style="fill:#F7D45E;stroke:#0568AB;stroke-linecap:round;stroke-linejoin:round;stroke-miterlimit:10;" d="M57.007,99.323
				c0,0,0.094-5.549,3.473-6.334c0,0-3.003-1.056-3.003-3.978c0,0-1.079,3.662-3.191,3.662
				C54.285,92.674,57.007,94.405,57.007,99.323z"/>
			<path style="fill:#F7D45E;stroke:#0568AB;stroke-linecap:round;stroke-linejoin:round;stroke-miterlimit:10;" d="M49.055,92.531
				c0,0,0.104-6.155,3.852-7.025c0,0-3.331-1.171-3.331-4.412c0,0-1.197,4.062-3.539,4.062
				C46.037,85.157,49.055,87.076,49.055,92.531z"/>
			
				<path style="fill:#FCE6DD;stroke:#0568AB;stroke-width:1.0701;stroke-linecap:round;stroke-linejoin:round;stroke-miterlimit:10;" d="
				M70.06,66.288c0,0-1.599-4.393-5.621-1.372c-3.611,2.713-1.733,11.688,5.621,13.283"/>
			<path style="fill:#FCE6DD;stroke:#0568AB;stroke-linecap:round;stroke-linejoin:round;stroke-miterlimit:10;" d="M127.48,66.411
				c0,0,1.972-3.899,5.368-0.648c3.048,2.918,0.308,11.037-6.692,11.699"/>
			
				<line style="fill:#FFFFFF;stroke:#0568AB;stroke-linecap:round;stroke-linejoin:round;stroke-miterlimit:10;" x1="72.049" y1="69.825" x2="69.714" y2="64.518"/>
		</g>
	</g>
	
		<circle style="fill:#F2D630;stroke:#0568AB;stroke-linecap:round;stroke-linejoin:round;stroke-miterlimit:10;" cx="17.362" cy="15.725" r="9.751"/>
	<g>
		
			<line style="fill:none;stroke:#0568AB;stroke-linecap:round;stroke-linejoin:round;stroke-miterlimit:10;" x1="6.858" y1="22.608" x2="2.626" y2="27.66"/>
		
			<line style="fill:none;stroke:#0568AB;stroke-linecap:round;stroke-linejoin:round;stroke-miterlimit:10;" x1="15.716" y1="25.998" x2="15.453" y2="31.369"/>
		
			<line style="fill:none;stroke:#0568AB;stroke-linecap:round;stroke-linejoin:round;stroke-miterlimit:10;" x1="23.941" y1="24.183" x2="27.091" y2="29.553"/>
		
			<line style="fill:none;stroke:#0568AB;stroke-linecap:round;stroke-linejoin:round;stroke-miterlimit:10;" x1="27.504" y1="19.127" x2="34.069" y2="20.202"/>
		
			<line style="fill:none;stroke:#0568AB;stroke-linecap:round;stroke-linejoin:round;stroke-miterlimit:10;" x1="27.275" y1="10.856" x2="32.527" y2="8.58"/>
		
			<line style="fill:none;stroke:#0568AB;stroke-linecap:round;stroke-linejoin:round;stroke-miterlimit:10;" x1="20.743" y1="5.342" x2="22.056" y2="0.5"/>
		
			<line style="fill:none;stroke:#0568AB;stroke-linecap:round;stroke-linejoin:round;stroke-miterlimit:10;" x1="12.866" y1="5.867" x2="10.444" y2="0.5"/>
		
			<line style="fill:none;stroke:#0568AB;stroke-linecap:round;stroke-linejoin:round;stroke-miterlimit:10;" x1="7.252" y1="9.887" x2="2.232" y2="8.049"/>
		
			<line style="fill:none;stroke:#0568AB;stroke-linecap:round;stroke-linejoin:round;stroke-miterlimit:10;" x1="6.858" y1="15.788" x2="0" y2="15.788"/>
	</g>
</g>
</svg>
