<?xml version="1.0" encoding="iso-8859-1"?>
<!-- Generator: Adobe Illustrator 24.2.3, SVG Export Plug-In . SVG Version: 6.00 Build 0)  -->
<svg version="1.1" id="&#x5716;&#x5C64;_1" xmlns="http://www.w3.org/2000/svg" xmlns:xlink="http://www.w3.org/1999/xlink" x="0px"
	 y="0px" viewBox="0 0 334.601 207.485" style="enable-background:new 0 0 334.601 207.485;" xml:space="preserve">
<g>
	<g>
		
			<path style="fill:#E6E6E5;stroke:#0568AB;stroke-width:1.2528;stroke-linecap:round;stroke-linejoin:round;stroke-miterlimit:10;" d="
			M131.866,108.244h-7.981c-2.431,0-4.409,1.978-4.409,4.409c0,1.054,0.378,2.074,1.065,2.873c1.936,2.254,4.751,3.546,7.723,3.546
			h3.602c2.431,0,4.409-1.978,4.409-4.409v-2.011C136.275,110.222,134.297,108.244,131.866,108.244z"/>
		
			<path style="fill:#E6E6E5;stroke:#0568AB;stroke-width:1.2528;stroke-linecap:round;stroke-linejoin:round;stroke-miterlimit:10;" d="
			M291.201,108.244h-7.982c-2.431,0-4.409,1.978-4.409,4.409v2.011c0,2.431,1.978,4.409,4.409,4.409h3.603
			c2.971,0,5.786-1.293,7.723-3.546c0.687-0.799,1.065-1.82,1.065-2.874C295.61,110.222,293.633,108.244,291.201,108.244z"/>
		
			<path style="fill:#FFFFFF;stroke:#0568AB;stroke-width:1.2528;stroke-linecap:round;stroke-linejoin:round;stroke-miterlimit:10;" d="
			M150.648,120.508h113.79c0.251,0,0.489-0.113,0.648-0.308s0.221-0.451,0.169-0.697l-6.038-28.86
			c-1.372-6.559-7.232-11.32-13.933-11.32h-75.504c-6.706,0-12.566,4.765-13.934,11.33l-6.015,28.851
			c-0.051,0.246,0.011,0.502,0.169,0.697C150.159,120.394,150.397,120.508,150.648,120.508z"/>
		
			<path style="fill:#FFFFFF;stroke:#0568AB;stroke-width:1.2528;stroke-linecap:round;stroke-linejoin:round;stroke-miterlimit:10;" d="
			M164.173,145.506h-16.488c-5.235,0-9.493,4.259-9.493,9.493c0,5.235,4.259,9.494,9.493,9.494h16.488
			c5.234,0,9.493-4.259,9.493-9.494C173.667,149.764,169.408,145.506,164.173,145.506z"/>
		
			<path style="fill:#96D4E0;stroke:#0568AB;stroke-width:1.2528;stroke-linecap:round;stroke-linejoin:round;stroke-miterlimit:10;" d="
			M257.814,140.181l1.525,0.678c3.988-8.972,5.837-15.81,5.856-15.878l-1.613-0.432
			C263.564,124.616,261.745,131.337,257.814,140.181z"/>
		
			<path style="fill:#96D4E0;stroke:#0568AB;stroke-width:1.2528;stroke-linecap:round;stroke-linejoin:round;stroke-miterlimit:10;" d="
			M155.747,140.859l1.525-0.678c-3.931-8.845-5.75-15.566-5.768-15.633l-1.613,0.432
			C149.91,125.049,151.758,131.887,155.747,140.859z"/>
		
			<path style="fill:#E6E6E5;stroke:#0568AB;stroke-width:1.2528;stroke-linecap:round;stroke-linejoin:round;stroke-miterlimit:10;" d="
			M230.854,145.506h-46.65c-2.36,0-4.281,1.92-4.281,4.281v9.459c0,2.361,1.921,4.281,4.281,4.281h46.65
			c2.361,0,4.281-1.921,4.281-4.281v-9.459C235.135,147.426,233.214,145.506,230.854,145.506z"/>
		
			<path style="fill:#FFFFFF;stroke:#0568AB;stroke-width:1.2528;stroke-linecap:round;stroke-linejoin:round;stroke-miterlimit:10;" d="
			M250.884,145.506c-5.234,0-9.493,4.259-9.493,9.493c0,5.235,4.259,9.494,9.493,9.494h16.488c5.235,0,9.493-4.259,9.493-9.494
			c0-5.234-4.259-9.493-9.493-9.493H250.884z"/>
		
			<path style="fill:#E6E6E5;stroke:#0568AB;stroke-width:1.2528;stroke-linecap:round;stroke-linejoin:round;stroke-miterlimit:10;" d="
			M272.08,119.844l-6.03-28.81c-2.231-10.656-11.751-18.39-22.637-18.39h-71.767c-10.887,0-20.407,7.734-22.637,18.39l-6.03,28.81
			c-0.024,0.114-0.072,0.221-0.139,0.316c-8.636,12.02-13.201,26.197-13.201,40.997v17.504h53.847v-9.343
			c0-0.461,0.374-0.835,0.835-0.835h46.418c0.461,0,0.835,0.374,0.835,0.835v9.343h53.847v-17.504
			c0-14.8-4.565-28.977-13.201-40.997C272.151,120.065,272.103,119.958,272.08,119.844z M155.846,90.652
			c1.368-6.565,7.229-11.33,13.934-11.33h75.504c6.701,0,12.561,4.76,13.933,11.32l6.038,28.86c0.051,0.246-0.011,0.502-0.169,0.697
			s-0.396,0.308-0.648,0.308h-113.79c-0.251,0-0.489-0.113-0.648-0.308c-0.158-0.195-0.221-0.451-0.169-0.697L155.846,90.652z
			 M265.195,124.981c-0.018,0.068-1.868,6.906-5.856,15.878l-1.525-0.678c3.931-8.845,5.75-15.566,5.768-15.633L265.195,124.981z
			 M157.272,140.181l-1.525,0.678c-3.988-8.972-5.837-15.81-5.856-15.878l1.613-0.432
			C151.522,124.616,153.341,131.337,157.272,140.181z M164.173,164.493h-16.488c-5.235,0-9.493-4.259-9.493-9.494
			c0-5.234,4.259-9.493,9.493-9.493h16.488c5.234,0,9.493,4.259,9.493,9.493C173.667,160.234,169.408,164.493,164.173,164.493z
			 M235.135,159.246c0,2.361-1.92,4.281-4.281,4.281h-46.65c-2.36,0-4.281-1.921-4.281-4.281v-9.459
			c0-2.361,1.921-4.281,4.281-4.281h46.65c2.361,0,4.281,1.92,4.281,4.281V159.246z M276.866,154.999
			c0,5.235-4.259,9.494-9.493,9.494h-16.488c-5.234,0-9.493-4.259-9.493-9.494c0-5.234,4.259-9.493,9.493-9.493h16.488
			C272.607,145.506,276.866,149.764,276.866,154.999z"/>
		
			<path style="fill:#666767;stroke:#0568AB;stroke-width:1.2528;stroke-linecap:round;stroke-linejoin:round;stroke-miterlimit:10;" d="
			M284.401,188.025H129.39c-2.586,0-4.682-2.096-4.682-4.682v0c0-2.586,2.096-4.682,4.682-4.682h155.011
			c2.586,0,4.682,2.096,4.682,4.682v0C289.083,185.929,286.987,188.025,284.401,188.025z"/>
		
			<path style="fill:#999999;stroke:#0568AB;stroke-width:1.2528;stroke-linecap:round;stroke-linejoin:round;stroke-miterlimit:10;" d="
			M146.114,206.711h-7.897c-2.979,0-5.394-2.415-5.394-5.394v-13.291h18.685v13.291
			C151.508,204.296,149.093,206.711,146.114,206.711z"/>
		
			<path style="fill:#999999;stroke:#0568AB;stroke-width:1.2528;stroke-linecap:round;stroke-linejoin:round;stroke-miterlimit:10;" d="
			M279.404,206.711h-7.897c-2.979,0-5.394-2.415-5.394-5.394v-13.291h18.685v13.291
			C284.798,204.296,282.383,206.711,279.404,206.711z"/>
		
			<path style="fill:#0568AB;stroke:#0568AB;stroke-width:1.2528;stroke-linecap:round;stroke-linejoin:round;stroke-miterlimit:10;" d="
			M185.659,106.94h-15.892c-2.988,0-5.517,2.139-6.013,5.085l-1.406,8.352h30.731l-1.406-8.352
			C191.176,109.079,188.647,106.94,185.659,106.94z"/>
		
			<path style="fill:#0568AB;stroke:#0568AB;stroke-width:1.2528;stroke-linecap:round;stroke-linejoin:round;stroke-miterlimit:10;" d="
			M244.024,106.94h-15.892c-2.988,0-5.517,2.139-6.014,5.085l-1.406,8.352h30.731l-1.406-8.352
			C249.541,109.079,247.012,106.94,244.024,106.94z"/>
		
			<path style="fill:#F7D45E;stroke:#0568AB;stroke-width:1.2528;stroke-linecap:round;stroke-linejoin:round;stroke-miterlimit:10;" d="
			M268.631,157.223c1.226,0,2.224-0.998,2.224-2.224c0-1.226-0.998-2.224-2.224-2.224c-1.226,0-2.223,0.998-2.223,2.224
			C266.408,156.225,267.406,157.223,268.631,157.223z"/>
		
			<circle style="fill:#F6BEAC;stroke:#0568AB;stroke-width:1.2528;stroke-linecap:round;stroke-linejoin:round;stroke-miterlimit:10;" cx="254.312" cy="154.999" r="4.675"/>
		
			<path style="fill:#F7D45E;stroke:#0568AB;stroke-width:1.2528;stroke-linecap:round;stroke-linejoin:round;stroke-miterlimit:10;" d="
			M147.544,157.223c-1.226,0-2.224-0.998-2.224-2.224c0-1.226,0.998-2.224,2.224-2.224c1.226,0,2.223,0.998,2.223,2.224
			C149.767,156.225,148.77,157.223,147.544,157.223z"/>
		
			<circle style="fill:#F6BEAC;stroke:#0568AB;stroke-width:1.2528;stroke-linecap:round;stroke-linejoin:round;stroke-miterlimit:10;" cx="161.863" cy="154.999" r="4.675"/>
		
			<line style="fill:#F6BEAC;stroke:#0568AB;stroke-width:1.2528;stroke-linecap:round;stroke-linejoin:round;stroke-miterlimit:10;" x1="136.275" y1="114.664" x2="142.979" y2="119.844"/>
		
			<line style="fill:#F6BEAC;stroke:#0568AB;stroke-width:1.2528;stroke-linecap:round;stroke-linejoin:round;stroke-miterlimit:10;" x1="278.811" y1="114.664" x2="272.08" y2="119.844"/>
	</g>
	<g>
		<g>
			
				<rect x="303.997" y="59.041" transform="matrix(-0.9269 0.3753 -0.3753 -0.9269 638.1039 34.4804)" style="fill:#96D4E0;stroke:#0568AB;stroke-width:0.8638;stroke-linecap:round;stroke-linejoin:round;stroke-miterlimit:10;" width="23.395" height="40.675"/>
			
				<rect x="300.433" y="56.365" transform="matrix(-0.9269 0.3753 -0.3753 -0.9269 614.3037 -2.6531)" style="fill:#96D4E0;stroke:#0568AB;stroke-width:0.8638;stroke-linecap:round;stroke-linejoin:round;stroke-miterlimit:10;" width="13.955" height="4.259"/>
			
				<rect x="300.935" y="47.439" transform="matrix(-0.9269 0.3753 -0.3753 -0.9269 606.5629 -13.743)" style="fill:#96D4E0;stroke:#0568AB;stroke-width:0.8638;stroke-linecap:round;stroke-linejoin:round;stroke-miterlimit:10;" width="7.369" height="9.512"/>
			
				<rect x="295.361" y="51.365" transform="matrix(-0.9269 0.3753 -0.3753 -0.9269 594.5892 -8.9044)" style="fill:#96D4E0;stroke:#0568AB;stroke-width:0.8638;stroke-linecap:round;stroke-linejoin:round;stroke-miterlimit:10;" width="5.601" height="4.168"/>
			
				<line style="fill:none;stroke:#0568AB;stroke-width:0.8638;stroke-linecap:round;stroke-linejoin:round;stroke-miterlimit:10;" x1="288.455" y1="53.609" x2="277.454" y2="52.149"/>
			
				<line style="fill:none;stroke:#0568AB;stroke-width:0.8638;stroke-linecap:round;stroke-linejoin:round;stroke-miterlimit:10;" x1="289.354" y1="57.015" x2="281.235" y2="60.302"/>
			
				<line style="fill:none;stroke:#0568AB;stroke-width:0.8638;stroke-linecap:round;stroke-linejoin:round;stroke-miterlimit:10;" x1="290.888" y1="60.804" x2="285.669" y2="67.297"/>
		</g>
		
			<rect x="303.343" y="70.653" transform="matrix(0.9269 -0.3753 0.3753 0.9269 -7.2709 121.1609)" style="fill:#FFFFFF;stroke:#0568AB;stroke-width:1.0154;stroke-linecap:round;stroke-linejoin:round;stroke-miterlimit:10;" width="8.151" height="17.187"/>
	</g>
	<g>
		<path style="fill:#FCE6DD;stroke:#0568AB;stroke-linecap:round;stroke-linejoin:round;stroke-miterlimit:10;" d="M36.274,185.05
			l-1.02,6.457c0,0,1.388,4.967,11.523,4.414l1.942-3.579l0.453-7.292H36.274z"/>
		<path style="fill:#FCE6DD;stroke:#0568AB;stroke-linecap:round;stroke-linejoin:round;stroke-miterlimit:10;" d="M89.912,185.05
			l1.02,6.457c0,0-1.388,4.967-11.523,4.414l-1.942-3.579l-0.453-7.292H89.912z"/>
		<path style="fill:#F6BEAC;stroke:#0568AB;stroke-linecap:round;stroke-linejoin:round;stroke-miterlimit:10;" d="M35.254,191.507
			c0,0-6.813,4.98-13.489,4.98c0,0-7.379,1.067-4.568,6.403c1.849,3.509,5.546,4.98,16.125,3.557s15.85-3.201,15.85-3.201v-11.738
			C49.172,191.507,41.715,195.42,35.254,191.507z"/>
		<g>
			<path style="fill:#FCE6DD;stroke:#0568AB;stroke-linecap:round;stroke-linejoin:round;stroke-miterlimit:10;" d="M60.959,56.174
				l-3.432,5.223c0,0,1.932,6.586,9.238,6.83c0,0,8.711,1.425,9.281-8.714l-1.878-4.069L60.959,56.174z"/>
			<path style="fill:#BAE0DB;stroke:#0568AB;stroke-linecap:round;stroke-linejoin:round;stroke-miterlimit:10;" d="M57.429,60.571
				L36.102,48.437c0,0-6.219,3.483-8.729,12.96L39.187,70.5l2.097,40.882c0,0,26.276,8.211,52.278,0l2.988-30.481l5.803,4.771
				l8.318-11.16l-6.774-8.47c0,0-8.983-8.499-19.23-7.211l-8.622,0.681c0,0-2.341,6.189-9.45,7.133
				C66.595,66.646,61.53,67.511,57.429,60.571z"/>
			<path style="fill:#FCE6DD;stroke:#0568AB;stroke-linecap:round;stroke-linejoin:round;stroke-miterlimit:10;" d="M36.102,48.437
				l-7.598-4.626L17.731,15.975c0,0,3.993-9.881,0.39-10.415s-4.248,2.321-4.248,2.321S9.982-2.08,2.642,1.142
				S9.18,21.554,9.18,21.554l4.752,26.958c0,0,0.553,8.548,13.44,12.884L36.102,48.437z"/>
			<path style="fill:#FCE6DD;stroke:#0568AB;stroke-linecap:round;stroke-linejoin:round;stroke-miterlimit:10;" d="M85.954,41.07
				c0,0-6.068,14.644-16.578,15.815c-4.533,0.505-7.612-0.247-7.612-0.247s-11.359-2.207-15.261-14.059
				c0,0-2.922-16.598,6.283-22.784s23.086-5.432,28.2,0S87.123,33.677,85.954,41.07z"/>
			<path style="fill:#0568AB;stroke:#0568AB;stroke-miterlimit:10;" d="M57.664,33.594c0,0-2.527-1.748-5.2,0.534
				c0,0-0.374,0.393,0.154,0.431c0.244,0.017,0.724-0.334,1.417-0.589c1.66-0.612,3.136-0.078,3.722,0.177
				c0.362,0.157,0.409-0.004,0.243-0.221C57.898,33.791,57.664,33.594,57.664,33.594z"/>
			<path style="fill:#0568AB;stroke:#0568AB;stroke-miterlimit:10;" d="M69.152,33.594c0,0,2.527-1.748,5.2,0.534
				c0,0,0.374,0.393-0.154,0.431c-0.244,0.017-0.724-0.334-1.417-0.589c-1.66-0.612-3.136-0.078-3.722,0.177
				c-0.362,0.157-0.409-0.004-0.243-0.221C68.919,33.791,69.152,33.594,69.152,33.594z"/>
			<path style="fill:#0568AB;" d="M57.524,37.891c0.01,0.535,0.049,1.649-1.352,1.649c-1.035,0-1.352-0.852-1.352-1.649
				c0-0.911,0.605-1.649,1.352-1.649S57.506,36.98,57.524,37.891z"/>
			<path style="fill:#0568AB;" d="M70.252,37.891c-0.01,0.535-0.049,1.649,1.352,1.649c1.035,0,1.352-0.852,1.352-1.649
				c0-0.911-0.605-1.649-1.352-1.649C70.857,36.242,70.269,36.98,70.252,37.891z"/>
			<path style="fill:#FCE6DD;stroke:#0568AB;stroke-linecap:round;stroke-linejoin:round;stroke-miterlimit:10;" d="M65.497,41.721
				c0,0-1.681-0.961-2.639,0.751s0.821,2.946,2.326,3.013"/>
			<path style="fill:#FFFFFF;stroke:#0568AB;stroke-linecap:round;stroke-linejoin:round;stroke-miterlimit:10;" d="M61.097,48.9
				c0,0,3.644,4.747,9.261-0.388L61.097,48.9z"/>
			<path style="fill:#0568AB;stroke:#0568AB;stroke-linecap:round;stroke-linejoin:round;stroke-miterlimit:10;" d="M74.594,23.639
				c0,0-7.896,2.922-13.289,0.64c0,0-1.812,3.563,0.165,6.087c0,0-2.313,0.292-8.205-8.452c0,0,0.514,8.225-7.205,10.709
				l-0.652,3.618c0,0-11.29-20.808,15.934-30.278c0,0,12.34-3.289,19.108,5.469c0,0,8.254-0.146,9.74,7.737
				c1.486,7.882-4.205,17.627-4.205,17.627l-1.243-3.117L74.594,23.639z"/>
			<path style="fill:#FCE6DD;stroke:#0568AB;stroke-linecap:round;stroke-linejoin:round;stroke-miterlimit:10;" d="M46.989,35.438
				c0,0-0.996-2.735-3.499-0.854c-2.248,1.689-1.079,7.277,3.499,8.269"/>
			<path style="fill:#FCE6DD;stroke:#0568AB;stroke-linecap:round;stroke-linejoin:round;stroke-miterlimit:10;" d="M84.857,34.339
				c0,0,1.821-3.416,4.154-1.182c2.095,2.005,0.212,7.584-4.598,8.039"/>
		</g>
		<path style="fill:#C8D8E4;stroke:#0568AB;stroke-miterlimit:10;" d="M41.285,107.883l-6.707,78.561c0,0,4.091,3.765,14.594,0.364
			l16.403-51.51c0.331-1.22,2.104-1.079,2.239,0.177l9.442,51.804c0,0,5.82,2.561,13.006-1.308l3.301-78.089
			C93.562,107.883,68.775,116.948,41.285,107.883z"/>
		<path style="fill:#FCE6DD;stroke:#0568AB;stroke-linecap:round;stroke-linejoin:round;stroke-miterlimit:10;" d="M102.353,85.672
			c0,0,3.154,7.892,2.096,10.916c-1.546,4.422-3.898,5.913-10.415,9.974l-0.473,12.554c0,0,12.657-6.286,22.31-18.814
			c0.524-0.68,0.884-1.475,1.056-2.316c0.685-3.353,0.289-10.405-6.257-23.475L102.353,85.672z"/>
		<path style="fill:#F6BEAC;stroke:#0568AB;stroke-linecap:round;stroke-linejoin:round;stroke-miterlimit:10;" d="M91.173,191.507
			c0,0,6.813,4.98,13.489,4.98c0,0,7.379,1.067,4.568,6.403c-1.849,3.509-5.546,4.98-16.125,3.557s-15.85-3.201-15.85-3.201v-11.738
			C77.255,191.507,84.712,195.42,91.173,191.507z"/>
	</g>
</g>
</svg>
