<?xml version="1.0" encoding="utf-8"?>
<!-- Generator: Adobe Illustrator 25.0.0, SVG Export Plug-In . SVG Version: 6.00 Build 0)  -->
<svg version="1.1" id="圖層_1" xmlns="http://www.w3.org/2000/svg" xmlns:xlink="http://www.w3.org/1999/xlink" x="0px" y="0px"
	 viewBox="0 0 334.6 207.5" style="enable-background:new 0 0 334.6 207.5;" xml:space="preserve">
<style type="text/css">
	.st0{fill:#412110;}
	.st1{fill:#412110;stroke:#412110;stroke-width:0.6505;stroke-miterlimit:10;}
	.st2{fill:#412110;stroke:#412110;stroke-width:3.903;stroke-miterlimit:10;}
	.st3{fill:#412110;stroke:#412110;stroke-width:0.9107;stroke-miterlimit:10;}
</style>
<g>
	<g>
		<path class="st0" d="M229.5-133.7h5.9c-0.1-0.2-0.3-0.4-0.4-0.6c-0.5-0.5-1.2-0.8-1.9-0.8h-1.3C230.9-135.1,230-134.6,229.5-133.7
			z"/>
		<path class="st0" d="M229.5-133.7h5.9c-0.1-0.2-0.3-0.4-0.4-0.6c-0.5-0.5-1.2-0.8-1.9-0.8h-1.3C230.9-135.1,230-134.6,229.5-133.7
			z"/>
		<path class="st0" d="M229.5-128.4h5.9c-0.1-0.2-0.3-0.4-0.4-0.6c-0.5-0.5-1.2-0.8-1.9-0.8h-1.3C230.9-129.8,230-129.2,229.5-128.4
			z"/>
		<path class="st0" d="M229.5-123.1h5.9c-0.1-0.2-0.3-0.4-0.4-0.6c-0.5-0.5-1.2-0.8-1.9-0.8h-1.3C230.9-124.4,230-123.9,229.5-123.1
			z"/>
		<rect x="225.2" y="-156.4" class="st0" width="1.3" height="10.7"/>
		<rect x="241.1" y="-156.4" class="st0" width="1.3" height="10.7"/>
		<path class="st0" d="M258.5-119.1h-22.3c-0.8,0.8-1.8,1.3-3,1.3h-1.3c-2.2,0-4-1.8-4-4c0-1,0.4-1.9,1-2.7c-1.4-1.5-1.4-3.8,0-5.3
			c-1.1-1.3-1.3-3.1-0.5-4.6c-1.6-1-2.2-2.9-1.6-4.7h-0.2c-2.2,0-4-1.8-4-4h-2.7c-0.7,0-1.3-0.6-1.3-1.3v-13.3
			c0-0.7,0.6-1.3,1.3-1.3h5.3c0.7,0,1.3,0.6,1.3,1.3h20c0.7,0,1.3,0.6,1.3,1.3v10.7c0,0.7-0.6,1.3-1.3,1.3h-3.9l0.1,2.7
			c1.3,0.2,2.5,0.9,3.2,2l3.9,5.9h8.6c0.7,0,1.3,0.6,1.3,1.3v12C259.8-119.7,259.2-119.1,258.5-119.1z M241.1-121.8l-0.4-8h-1
			c-1,0-2.1-0.2-3-0.7c-0.1,0.3-0.3,0.5-0.5,0.7c1.4,1.5,1.4,3.8,0,5.3c0.7,0.7,1,1.7,1,2.7H241.1z M233.6-133.7h-1.7
			c-0.7,0-1.3,0.6-1.3,1.3s0.6,1.3,1.3,1.3h1.3c0.7,0,1.2-0.5,1.3-1.2C234.1-132.7,233.8-133.2,233.6-133.7z M230.5-127.1
			c0,0.7,0.6,1.3,1.3,1.3h1.3c0.7,0,1.3-0.6,1.3-1.3s-0.6-1.3-1.3-1.3h-1.3C231.1-128.4,230.5-127.8,230.5-127.1z M231.8-120.4h1.3
			c0.7,0,1.3-0.6,1.3-1.3c0-0.7-0.6-1.3-1.3-1.3h-1.3c-0.7,0-1.3,0.6-1.3,1.3C230.5-121,231.1-120.4,231.8-120.4z M226.5-141.7h5.5
			l0-0.8c-0.1-1.1-0.9-1.9-2-1.9h-3.9c-0.1,0.1-0.2,0.1-0.2,0.2c-0.6,0.4-0.9,1.2-0.5,1.8C225.6-142,226-141.7,226.5-141.7z
			 M221.2-156.4v10.7h2.4c0.1-0.1,0.2-0.2,0.3-0.3v-10.3H221.2z M226.5-147.1h3.5c2.5,0,4.5,1.9,4.7,4.4l0,0.9h5.3l-0.2-3.9
			c0,0,0,0,0-0.1v-9.3h-13.3V-147.1z M245.1-155.1h-2.7v8h2.7V-155.1z M257.1-131.1h-8c-0.4,0-0.9-0.2-1.1-0.6l-4.3-6.5
			c-0.4-0.6-1-0.9-1.7-0.9h-11.5c-0.7,0-1.3,0.6-1.3,1.3c0,0.7,0.6,1.3,1.3,1.3h4c0.6,0,1.1,0.4,1.3,0.9l0.1,0.4
			c0.5,1.6,2.1,2.7,3.8,2.7h2.3c0.7,0,1.3,0.6,1.3,1.3l0.5,9.4h13.4V-131.1z"/>
	</g>
	<g>
		<path class="st1" d="M201.7-127.4c1.7-5.7,4.5-15.4,4.5-20.5c0-10.3-3.2-27.7-24.3-27.7c-8.7,0-15.2,3.1-19.4,9.2
			c-4.1,6-5,13.3-5,18.5c0,5,2.6,13.2,4.2,18.7c0.6,2,1.1,3.5,1.2,4.2c0,0,0,0,0,0c1,4.5,3.2,10.6,4.2,11.6
			c2.8,2.8,9.7,5.3,14.6,5.3c4.4,0,11.5-2.2,14.6-5.3c1.2-1.2,2.9-5.7,3.9-9.6c0-0.1,0-0.1,0-0.2c0-0.1,0-0.1,0.1-0.2
			s0.1-0.2,0.1-0.4C200.9-124.4,201.3-125.7,201.7-127.4z M200.8-131.5c-0.6-2-1.8-3.8-3.3-5.1c1.9-1,3.7-2,5.5-3.2
			C202.3-137.1,201.5-134.1,200.8-131.5z M168.7-137.8c-3.7-1.6-7.9-3.8-8.3-4.7c0,0,0-0.1,0-0.1c-0.2-1.2-0.4-2.4-0.6-3.6
			c1,1,2.1,1.9,3.3,2.7c0.5,0.3,1.1,0.1,1.4-0.4c0.1-0.1,0.1-0.2,0.1-0.4c0-0.1,1-5.7,2.7-9.1c1.1-2.3,3.8-5,5.1-6.2
			c1.5,1.5,4.9,4.9,8,6.1c4,1.7,11,2.8,11.3,2.8c0.6,0.1,1.1-0.3,1.2-0.9c0-0.1,0-0.1,0-0.2c-0.1-2-0.5-4-1.2-5.9
			c-0.1-0.2-0.2-0.5-0.3-0.7c2.1,1,4,2.2,5.9,3.6c3,2.5,6.5,8,6.5,10.3c0,0,0,0,0,0c-0.1,0.4-0.1,0.8-0.2,1.2c0,0,0,0.1,0,0.1
			c-0.4,0.9-4.6,3.4-8.4,5.3c-1.1-0.3-2.3-0.8-3.6-1.3c-3-1.2-6.4-2.5-9.6-2.5c-3.5,0-7.5,1.6-10.8,2.9
			C170.2-138.4,169.4-138.1,168.7-137.8L168.7-137.8z M181.9-173.4c17.5,0,21.8,12.5,22.2,23.8c-1.4-2.6-3.3-4.9-5.4-6.8
			c-3.4-2.8-8.9-5.1-9.2-5.2c-0.5-0.2-1.2,0.1-1.4,0.6c-0.1,0.3-0.1,0.6,0.1,0.9c0.6,1,1.1,2.1,1.6,3.2c0.5,1.2,0.8,2.6,0.9,3.9
			c-2.2-0.4-6.8-1.3-9.5-2.5c-3.5-1.5-7.9-6.3-8-6.4c-0.4-0.4-1-0.5-1.5-0.1c-0.2,0.2-4.6,4.1-6.3,7.5c-1.3,2.5-2.1,6.1-2.6,8.1
			c-1.1-0.9-2.6-2.3-3.1-3.8C160.2-158.5,163.6-173.4,181.9-173.4z M161.1-139.3c1.7,1,3.4,1.9,5.2,2.7c-1.4,1.3-2.5,2.9-3.1,4.7
			C162.5-134.1,161.7-136.7,161.1-139.3z M195-114.7c-2.5,2.4-8.7,4.7-13.1,4.7c-4.3,0-10.8-2.3-13.1-4.7c-0.7-0.7-2.7-6.4-3.7-10.6
			c0,0,0,0,0-0.1c0-0.1-0.1-0.3-0.1-0.5c-0.2-0.9-0.3-1.7-0.3-2.6c0-2.9,2.2-6.6,4.3-7.3c0.9-0.3,1.9-0.7,2.9-1.1
			c3.1-1.2,6.9-2.7,10-2.7c2.8,0,5.9,1.2,8.8,2.4c1.5,0.6,2.9,1.1,4.2,1.5c2.1,0.6,4.4,4.7,4.3,7.7c-0.1,1.2-0.2,2.3-0.5,3.5
			c-0.1,0.5-0.2,0.8-0.3,1.1l0,0C197.5-119.8,196-115.7,195-114.7z"/>
		<path class="st2" d="M172.5-146.7c-0.6,0-1.1,0.5-1.1,1.1s0.5,1.1,1.1,1.1c0.6,0,1.1-0.5,1.1-1.1S173.1-146.7,172.5-146.7z"/>
		<path class="st2" d="M191.4-146.7c-0.6,0-1.1,0.5-1.1,1.1s0.5,1.1,1.1,1.1c0.6,0,1.1-0.5,1.1-1.1S191.9-146.7,191.4-146.7z"/>
		<path class="st1" d="M185.4-130.9c-1.2-0.2-2.3-0.4-3.5-0.4c-1.2,0.1-2.4,0.2-3.5,0.4c-0.6,0.1-1,0.6-1,1.1c0.1,0.6,0.6,1,1.1,1
			l0,0c0.1,0,0.1,0,0.2,0c1-0.2,2.1-0.3,3.2-0.4c1.1,0.1,2.1,0.2,3.2,0.4c0.6,0.1,1.1-0.3,1.2-0.9
			C186.5-130.2,186.1-130.8,185.4-130.9L185.4-130.9z"/>
		<path class="st1" d="M185.4-125.3c-1.2-0.2-2.3-0.4-3.5-0.4c-1.2,0.1-2.4,0.2-3.5,0.4c-0.6,0.1-1,0.6-1,1.1s0.6,1,1.1,1l0,0
			c0.1,0,0.1,0,0.2,0c1-0.2,2.1-0.3,3.2-0.4c1.1,0.1,2.1,0.2,3.2,0.4c0.6,0.1,1.1-0.3,1.2-0.9S186.1-125.1,185.4-125.3L185.4-125.3z
			"/>
	</g>
	<g>
		<g>
			<path class="st0" d="M139.2-168.9l-4.5-2.9c-0.6-0.4-1.5-0.2-1.9,0.4l-9.5,14.6c-0.4,0.6-0.2,1.5,0.4,1.9l4.5,2.9
				c0.6,0.4,1.5,0.2,1.9-0.4l9.5-14.6C139.9-167.6,139.8-168.5,139.2-168.9z M126.2-156.4l8.1-12.4l2.3,1.5l-8.1,12.4L126.2-156.4z"
				/>
			<path class="st0" d="M142.4-178.8c-4.4-2.8-10.2-1.6-13,2.8l-22.7,34.9c-1,1.5-2.1,4.9-3.3,10.1c-0.6,2.5-1.6,4.9-3,7l-6.4,9.9
				c-1.6,2.5-0.9,5.8,1.6,7.4c2.5,1.6,5.8,0.9,7.4-1.6l6.4-9.9c1.4-2.1,3.2-4,5.2-5.6c4.2-3.2,6.8-5.6,7.8-7.1l22.7-34.9
				C148-170.1,146.7-176,142.4-178.8z M97-109c-1.2-0.8-1.6-2.5-0.8-3.7l2.6-3.9l4.5,2.9l-2.6,3.9C99.9-108.5,98.2-108.1,97-109z
				 M120.2-132.3c-0.8,1.2-3.4,3.6-7.2,6.4c-2.3,1.7-4.3,3.8-5.8,6.3l-2.4,3.7l-4.5-2.9l2.4-3.7c1.6-2.4,2.7-5.1,3.4-7.9
				c1.1-4.6,2.1-8,2.9-9.2l22.7-34.9c2-3.1,6.2-4,9.3-2c3.1,2,4,6.2,2,9.3L120.2-132.3z"/>
		</g>
		<g>
			<polygon class="st0" points="75.2,-121.3 86.3,-115.9 74.4,-119.1 			"/>
		</g>
		<g>
			<polygon class="st0" points="79.9,-133.3 88.1,-121.1 78,-131.8 			"/>
		</g>
		<g>
			<polygon class="st0" points="94.2,-134.3 93.6,-123 91.8,-134.2 			"/>
		</g>
	</g>
</g>
<g>
	<g>
		<path class="st0" d="M518.5-128.8c-0.3-0.9-1.3-1.4-2.2-1.2c0,0-7.4,2.3-10.7,2.7c-3.3,0.4-11,0-11,0c-1-0.1-1.8,0.7-1.9,1.7
			c0,0,0,0,0,0c0,0.6,0.2,1.1,0.7,1.5c0.3,0.2,0.6,0.3,1,0.4c0.3,0,8.1,0.5,11.7,0c3.6-0.4,11-2.7,11.3-2.8
			C518.3-126.9,518.8-127.9,518.5-128.8z"/>
		<g>
			<path class="st0" d="M529.9-126.6c0.9-1.9,7.6-16.3,6.7-23.5c-0.6-5.1-2.8-7.3-4.5-8.3c-1.7-1-3.7-1.2-5.5-0.4
				c-2.9,1.2-4.5,4.8-5.2,7c-1.7-0.3-3.5-0.7-5.5-1.2c-4.3-1.1-9.2-2.4-13.7-1.8c-4.9,0.6-10.2,3.5-14.4,5.8
				c-1.2,0.7-2.4,1.3-3.4,1.8c-1.2-2-3.6-5-6.7-5.5c-1.9-0.3-3.9,0.4-5.2,1.7c-1.4,1.4-3,4.1-2.4,9.1c0.9,7.4,11.5,20.4,12.3,21.3
				c1.8,3.6,3.6,6.8,4.5,7.6l0.1,0c4.8,3.8,14.9,5.6,21,4.8s15.6-5,19.3-9.8C528-119,529-122.6,529.9-126.6z M527.9-155.6
				c0.8-0.3,1.7-0.2,2.4,0.2c1.4,0.8,2.4,2.9,2.8,5.7c0.3,2.4-0.5,6.1-1.8,9.9c-0.8-4.3-3.2-8.2-6.7-10.8
				C525.2-152.3,526.3-154.9,527.9-155.6L527.9-155.6z M473.6-142.4c-0.3-2.8,0.1-5,1.3-6.2c0.6-0.6,1.4-0.9,2.3-0.8
				c1.8,0.3,3.5,2.6,4.4,4.1c-2.8,3.3-4.2,7.7-3.8,12.1c0,0,0,0.1,0,0.1C475.6-136.5,473.9-140,473.6-142.4z M507.5-111.7
				c-5.9,0.7-14.8-1.3-18.4-4.1l0,0c-1.2-1.2-7.3-13.3-7.9-17.8c-0.5-3.9,1.8-9.1,4.4-10.4c1.2-0.5,2.5-1.3,3.8-2
				c4-2.2,8.9-4.8,13.2-5.4c3.7-0.5,8.1,0.7,12.4,1.7c2.1,0.5,4.1,1.1,6,1.3c0.3,0.1,0.5,0.1,0.8,0.2c0.1,0,0.2,0.1,0.2,0.1
				c2.6,1.3,5.6,5.7,5.9,9.3c0.4,4.2-2.5,17.1-3.5,18.6C521.7-116.6,513.4-112.5,507.5-111.7z"/>
			<path class="st0" d="M516.6-133.2c0.9-0.3,1.5-1.2,1.2-2.2s-1.2-1.5-2.2-1.2c0,0-0.1,0-0.1,0c0,0-7.4,2.3-10.7,2.7
				c-3.3,0.4-11,0-11,0c-1-0.1-1.8,0.7-1.9,1.7c-0.1,1,0.7,1.8,1.7,1.9c0.3,0,8.1,0.5,11.7,0S516.3-133.1,516.6-133.2z"/>
			<path class="st0" d="M515.8-139.8c0.9-0.2,1.5-1.2,1.3-2.1s-1.2-1.5-2.1-1.3c-0.1,0-0.1,0-0.2,0.1c0,0-7.4,2.3-10.7,2.7
				s-11,0-11,0c-1-0.1-1.8,0.7-1.9,1.7c0,0.6,0.2,1.1,0.7,1.5c0.3,0.2,0.6,0.3,1,0.4c0.3,0,8.1,0.5,11.7,0
				C508-137.5,515.4-139.7,515.8-139.8z"/>
		</g>
	</g>
	<g>
		<path class="st3" d="M554.9-177.4c-0.5,0.5-5.2,5.3-5.2,9.3c0,3.4,2.7,6.1,6.1,6.1c3.4,0,6.1-2.7,6.1-6.1c0-4-4.7-8.8-5.2-9.3
			C556.2-177.9,555.4-177.9,554.9-177.4z M555.8-164.5c-2,0-3.6-1.6-3.6-3.6c0-2,2.1-4.9,3.6-6.6c1.5,1.7,3.6,4.5,3.6,6.6
			C559.4-166.1,557.8-164.5,555.8-164.5z"/>
		<path class="st3" d="M597.5-164.5h-6.3v-5.7c0-0.7-0.6-1.3-1.3-1.3h-2.5v-3.8h4.4c3.8,0,6.9-3.1,6.9-6.9c0-0.7-0.6-1.3-1.3-1.3
			h-41.6c-0.7,0-1.3,0.6-1.3,1.3s0.6,1.3,1.3,1.3h18.9v9.5h-2.5c-0.7,0-1.3,0.6-1.3,1.3v5.7h-6.3c-0.7,0-1.3,0.6-1.3,1.3l0,32.3
			c0,0,0,0,0,0.1v26.9c0,0.7,0.6,1.3,1.3,1.3h32.8c0.7,0,1.3-0.6,1.3-1.3v-59.3C598.7-164,598.2-164.5,597.5-164.5z M577.3-180.9
			H596c-0.6,1.9-2.3,3.2-4.2,3.2h-14.5V-180.9z M577.3-175.2h7.6v3.8h-7.6V-175.2z M573.5-168.9h15.1v4.4h-15.1V-168.9z
			 M596.2-105.2h-30.3v-28.4c0,0,0,0,0-0.1l0-28.3h30.3V-105.2z"/>
	</g>
</g>
<g>
	<path class="st0" d="M212.5,136c-0.5-0.7-1.1-1.3-1.9-1.7c0.2-0.3,0.4-0.6,0.5-1c0.9-2.8-1.3-4.2-2.9-5.2l-0.3-0.2
		c-2-1-4-1.9-6-2.7c0.6-0.6,1-1.3,1.1-2.1c0.1-0.6,0-1.2-0.2-1.8c0.7-0.3,1.4-0.8,1.9-1.4c0.7-1,1.1-2.2,0.8-3.4
		c-0.1-0.9-0.6-1.7-1.4-2.3c-0.7-0.5-1.6-0.8-2.4-0.9c0.1-0.4,0.1-0.7,0.1-1.1c-0.2-2.9-2.7-3.4-4.6-3.8l-0.4-0.1
		c-1.4-0.3-8.8-0.3-11.2-0.3l0.5-0.5c2.2-2.2,3.1-5.1,2.4-7.6c-0.3-1.4-1.2-2.5-2.6-2.9l0,0c-2.4-0.6-4.5,1.6-5.9,3.1
		c-0.3,0.3-0.6,0.7-0.8,0.8l0,0c-0.3,0.2-1.1,0.7-2.7,1.8c-2.7,1.8-6.6,4.4-9.1,5.9c-2.1,0-4.4-0.1-5.8-0.1l-1-0.3
		c1.8-1.9,4.6-5.1,6.2-8.2c1.4-2.8,1.4-5.8,0-8c-0.7-1.2-1.9-2-3.3-2c-2.3,0.1-4,2.5-5.7,5c-0.2,0.3-0.5,0.7-0.5,0.8
		c-0.2,0.2-1.2,0.9-2.1,1.6c-2.5,1.8-6.3,4.5-8.4,6.9c-0.7,0.8-3.2,3.5-5.4,5.9c-1.8,1.9-3.3,3.6-3.7,4s-1,1.1-1.8,1.9
		c-0.9,0.9-1.7,1.8-2.3,2.4c-1,0.6-6.2,1.7-10.5,2.5c-0.8,0.1-1.3,0.8-1.3,1.6c0.1,0.8,0.8,1.3,1.6,1.3c0,0,0.1,0,0.1,0
		c7.1-1.2,11.2-2.3,12.1-3.3c0.5-0.6,1.4-1.5,2.3-2.4c0.8-0.8,1.5-1.5,1.9-2c0.4-0.4,1.9-2.1,3.6-4c2.2-2.4,4.7-5.1,5.4-5.9
		c1.8-2.1,5.5-4.7,7.9-6.4c0.9-0.6,1.8-1.2,2.6-2c0.3-0.4,0.5-0.7,0.8-1.1c0.6-0.9,2.4-3.7,3.4-3.7c0.5,0.2,0.8,0.6,1,1.1
		c0.3,0.6,0.9,2.3-0.3,4.8c-1.8,3.5-5.5,7.3-6.9,8.7c-2.5-0.5-4.1-0.4-4.9,0.3c-0.6,0.6-0.5,1.5,0,2c0.5,0.5,1.2,0.5,1.8,0.2
		c0.2,0,1-0.1,3.2,0.4l3.6,0.9c0.1,0,0.2,0,0.3,0c0.9,0,9,0.2,10.5,0.1c0.8,0,4.4-0.1,7.6-0.2l2.4-0.1h0.1c0.1,0,0.2,0,0.2,0
		l2.8-0.1c1.2-0.1,10.1,0,11.2,0.2l0.4,0.1c2,0.4,2.3,0.6,2.3,1.2c0,0.4-0.2,0.8-0.5,1l-28.8,3.3c-0.8,0-1.4,0.7-1.3,1.5
		s0.7,1.4,1.5,1.3h0.2L199,116h0.1c0.7-0.1,2.5-0.2,3.3,0.3c0.1,0.1,0.2,0.2,0.2,0.4c0.1,0.4,0,0.9-0.2,1.2
		c-0.6,0.5-1.3,0.9-2.1,0.9h-0.1l-29.5,5.2c-0.8,0.1-1.4,0.8-1.3,1.6c0.1,0.8,0.8,1.4,1.6,1.3h0.2l28.8-5.1c0.2,0.3,0.2,0.6,0.2,0.9
		c0,0.2-0.7,1.2-3.1,2c-2.5,0.8-7.1,1.9-7.3,2l0,0l-21.2,4.6c-0.8,0.1-1.4,0.8-1.3,1.6c0.1,0.8,0.8,1.4,1.6,1.3c0.1,0,0.2,0,0.3,0
		l21.1-4.5c0.2,0,0.4,0.2,0.5,0.4c0.1,0.5-0.9,1.2-1.9,1.5c-0.5,0.2-1.5,0.5-2.8,1c-1.1,0.4-2.6,1-4.1,1.5c-0.1,0-0.2,0.1-0.3,0.1
		c-1.3,0.5-2.7,0.9-4.2,1.2c-1.7,0.1-4.1,1-7,2.1c-1.5,0.6-3,1.1-4.4,1.6c-2.2,0.6-4.4,1.1-6.7,1.5h-0.2c-4.4,0.8-9.3,1.3-11.7,1.1
		c-4.5-0.4-7.1,0-13.8,2.1c-7.3,2.2-10.5,2.7-10.6,2.7c-0.8,0.1-1.4,0.7-1.3,1.5c0.1,0.8,0.7,1.4,1.5,1.3h0.2
		c0.1,0,3.5-0.5,11.1-2.9c6.7-2.1,8.8-2.4,12.7-2c2.6,0.2,7.6-0.3,12.1-1.1c2.8,1.2,5.6,2,8.6,2.5c1.4,0.3,2.7,0.6,3.9,0.9
		c4.9,1.3,19.8,2.5,20,2.5c0.2,0,0.5,0,0.7,0c2.6,0,4.4-1.2,4.7-3.2c0-0.2,0-0.3,0-0.5c1.6,0.2,3.5,0.4,4.9,0.5
		c3.2,0.1,5.5-0.7,6.3-2.3c0.3-0.6,0.4-1.2,0.4-1.8c0.8,0,1.6-0.2,2.3-0.6c1.1-0.6,1.8-1.7,2-2.9C213.2,137.7,213,136.8,212.5,136z
		 M179.2,108.1l-6.6,0.2c1.8-1.2,3.7-2.5,5.2-3.5c1.3-0.8,2.3-1.6,2.6-1.7l0,0c0.5-0.3,0.9-0.7,1.3-1.2c0.7-0.7,2.4-2.4,3.2-2.3
		c0.4,0.3,0.6,0.8,0.6,1.3c0.1,0.7,0.2,2.5-1.8,4.4c-1.4,1.4-2.1,2.1-2.5,2.6c0,0-0.1,0.1-0.1,0.1L179.2,108.1z M197.8,127.5
		c0.4-0.1,0.7-0.3,1.1-0.4c1.7,0.7,6.5,2.6,7.4,3.2l0.4,0.2c1.7,1.1,1.9,1.4,1.7,1.9c-0.1,0.4-0.4,0.6-0.8,0.7l-14.3-3.8
		c0,0,0,0,0,0c0-0.2-0.1-0.3-0.2-0.5C194.6,128.4,196.5,127.9,197.8,127.5z M191.8,146.6c-3.8-0.3-15.6-1.4-19.5-2.4
		c-1.3-0.4-2.7-0.7-4.1-0.9c-1.3-0.3-2.5-0.5-3.7-0.9c0.8-0.2,1.5-0.4,2.1-0.6c0.9-0.3,1.9-0.6,2.8-1l24.4,4.5
		c0.2,0.1,0.3,0.3,0.3,0.6C194.1,146.4,192.9,146.7,191.8,146.6z M205.7,142.7c-0.1,0.2-1.1,0.8-3.6,0.7c-2.6-0.1-7.3-0.8-7.5-0.9
		l-19.8-3.7c0.9-0.3,1.8-0.5,2.7-0.7c1.6-0.2,3.2-0.7,4.7-1.3l23.7,4.9C205.8,142.1,205.8,142.4,205.7,142.7L205.7,142.7z
		 M210.2,138c-0.1,0.4-0.3,0.8-0.7,1c-0.7,0.3-1.5,0.3-2.3,0.1h0h-0.1l-19.9-4.1c1-0.4,1.8-0.7,2.1-0.8c1.3-0.3,2.4-1.1,3.3-2.1
		l14.5,3.9h0.1c0.7,0.2,2.4,0.8,2.9,1.5C210.2,137.7,210.2,137.8,210.2,138L210.2,138z"/>
	<path class="st0" d="M176.6,68h35c0.8,0,1.4-0.6,1.4-1.4v-2.1c0-0.8-0.6-1.4-1.4-1.4c-0.8,0-1.4,0.6-1.4,1.4v0.7h-3.6v-5.7
		c0-0.8-0.6-1.4-1.4-1.4h-22.6c-0.8,0-1.4,0.6-1.4,1.4s0.6,1.4,1.4,1.4h12.6v4.3h-18.6c-2.7,0-5.7,2.1-5.7,5v7.1
		c0,0.8,0.6,1.4,1.4,1.4h11.4c0.8,0,1.4-0.6,1.4-1.4v-2.1h25v0.7c0,0.8,0.6,1.4,1.4,1.4c0.8,0,1.4-0.6,1.4-1.4v-2.1
		c0-0.8-0.6-1.4-1.4-1.4h-27.8c-0.8,0-1.4,0.6-1.4,1.4v2.1h-8.6v-5.7C173.8,69,175.3,68,176.6,68z M198.1,60.9h5.7v4.3h-5.7V60.9z"
		/>
	<path class="st0" d="M172.3,81.6c-0.8,0-1.4,0.6-1.4,1.4v17.1c0,0.8,0.6,1.4,1.4,1.4c0.8,0,1.4-0.6,1.4-1.4V83
		C173.8,82.2,173.1,81.6,172.3,81.6z"/>
	<path class="st0" d="M178.1,81.6c-0.8,0-1.4,0.6-1.4,1.4v12.9c0,0.8,0.6,1.4,1.4,1.4c0.8,0,1.4-0.6,1.4-1.4V83
		C179.5,82.2,178.9,81.6,178.1,81.6z"/>
	<path class="st0" d="M183.8,81.6c-0.8,0-1.4,0.6-1.4,1.4v10c0,0.8,0.6,1.4,1.4,1.4c0.8,0,1.4-0.6,1.4-1.4V83
		C185.2,82.2,184.6,81.6,183.8,81.6z"/>
</g>
<g>
	<path class="st0" d="M507.5,97.4c-1,0-1.8,0.8-1.8,1.8v51.9h-6.6v-32.9c0-1-0.8-1.8-1.8-1.8s-1.8,0.8-1.8,1.8v32.9H489V99.2
		c0-1-0.8-1.8-1.8-1.8s-1.8,0.8-1.8,1.8v53.7c0,1,0.8,1.8,1.8,1.8h20.3c1,0,1.8-0.8,1.8-1.8V99.2C509.3,98.2,508.5,97.4,507.5,97.4z
		"/>
	<path class="st0" d="M506.4,84.4c5.3-4.8,5.8-13,1.2-18.4c-0.1-0.1-0.1-0.2-0.2-0.2c-4.9-5.5-13.3-6-18.8-1.2
		c-0.4,0.4-0.8,0.7-1.2,1.2c-0.1,0.1-0.1,0.1-0.2,0.2c-4.7,5.5-4.2,13.6,1.1,18.5c-6.1,0.2-11,5.3-11,11.4v26.1c0,1,0.8,1.8,1.8,1.8
		s1.8-0.8,1.8-1.8V95.7c0-4.3,3.5-7.8,7.8-7.8c0,0,0,0,0,0h1.7l5.5,8c0.6,0.8,1.7,1,2.5,0.5c0.2-0.1,0.3-0.3,0.5-0.5l5.5-8h1.7
		c4.3,0,7.8,3.5,7.8,7.8v26.1c0,1,0.8,1.8,1.8,1.8c1,0,1.8-0.8,1.8-1.8V95.7C517.4,89.6,512.5,84.6,506.4,84.4z M503.1,66.6
		c-1.8,0.6-3.8,1-5.7,1c-1.9,0-3.9-0.3-5.7-1C495.1,64.1,499.7,64.1,503.1,66.6z M487.6,74.6c0-1.8,0.5-3.6,1.5-5.2
		c2.6,1.2,5.4,1.8,8.3,1.8c2.9,0,5.7-0.6,8.3-1.8c1,1.6,1.5,3.4,1.5,5.2c0,5.4-4.4,9.8-9.8,9.8S487.6,80,487.6,74.6L487.6,74.6z
		 M497.4,91.7l-2.6-3.8h5.2L497.4,91.7z"/>
	<path class="st0" d="M581.4,97.4c-1,0-1.8,0.8-1.8,1.8v52H573v-32.9c0-1-0.8-1.8-1.8-1.8c-1,0-1.8,0.8-1.8,1.8v32.9h-6.6v-52
		c0-1-0.8-1.8-1.8-1.8c-1,0-1.8,0.8-1.8,1.8v53.7c0,1,0.8,1.8,1.8,1.8h20.3c1,0,1.8-0.8,1.8-1.8V99.1
		C583.2,98.2,582.4,97.4,581.4,97.4z"/>
	<path class="st0" d="M580.3,84.3c5.3-4.8,5.8-13,1.2-18.5l-0.2-0.2c-4.9-5.5-13.3-6.1-18.8-1.2c-0.4,0.4-0.8,0.8-1.2,1.2
		c-0.1,0.1-0.1,0.1-0.2,0.2c-4.7,5.5-4.1,13.6,1.1,18.5c-6.1,0.2-11,5.2-11,11.4v26.1c0,1,0.8,1.8,1.8,1.8c1,0,1.8-0.8,1.8-1.8V95.7
		c0-4.3,3.5-7.8,7.8-7.8h1.7l5.5,8c0.6,0.8,1.7,1,2.5,0.5c0.2-0.1,0.3-0.3,0.5-0.5l5.5-8h1.7c4.3,0,7.8,3.5,7.8,7.8v26.1
		c0,1,0.8,1.8,1.8,1.8c1,0,1.8-0.8,1.8-1.8V95.7C591.3,89.5,586.4,84.5,580.3,84.3z M577,66.5c-3.7,1.3-7.7,1.3-11.4,0
		C569,64,573.6,64,577,66.5z M561.4,74.5c0-1.9,0.5-3.7,1.5-5.3c5.3,2.4,11.3,2.4,16.6,0c2.8,4.6,1.4,10.6-3.2,13.5
		s-10.6,1.4-13.5-3.2C562,78,561.5,76.2,561.4,74.5L561.4,74.5z M571.2,91.7l-2.7-3.8h5.3L571.2,91.7z"/>
	<path class="st0" d="M551.3,67.4c0.3,0.3,0.8,0.5,1.3,0.5c0.5,0,0.9-0.2,1.3-0.5l5.8-5.8c0.7-0.7,0.7-1.8,0-2.5l-5.8-5.8
		c-0.7-0.7-1.9-0.6-2.5,0.1c-0.6,0.7-0.6,1.7,0,2.4l2.7,2.7h-39.5l2.7-2.7c0.7-0.7,0.6-1.9-0.1-2.5c-0.7-0.6-1.7-0.6-2.4,0l-5.8,5.8
		c-0.7,0.7-0.7,1.8,0,2.5c0,0,0,0,0,0l5.8,5.8c0.7,0.7,1.8,0.7,2.5,0c0.7-0.7,0.7-1.8,0-2.5l-2.8-2.8h39.6l-2.7,2.7
		C550.6,65.6,550.6,66.7,551.3,67.4z"/>
</g>
</svg>
