<?xml version="1.0" encoding="utf-8"?>
<!-- Generator: Adobe Illustrator 25.0.1, SVG Export Plug-In . SVG Version: 6.00 Build 0)  -->
<svg version="1.1" id="圖層_1" xmlns="http://www.w3.org/2000/svg" xmlns:xlink="http://www.w3.org/1999/xlink" x="0px" y="0px"
	 viewBox="0 0 345 216" style="enable-background:new 0 0 345 216;" xml:space="preserve">
<style type="text/css">
	.st0{fill:#E6E6E6;stroke:#0568AB;stroke-width:1.2528;stroke-linecap:round;stroke-linejoin:round;stroke-miterlimit:10;}
	.st1{fill:#FFFFFF;stroke:#0568AB;stroke-width:1.2528;stroke-linecap:round;stroke-linejoin:round;stroke-miterlimit:10;}
	.st2{fill:#91E5F1;stroke:#0568AB;stroke-width:1.2528;stroke-linecap:round;stroke-linejoin:round;stroke-miterlimit:10;}
	.st3{fill:#666666;stroke:#0568AB;stroke-width:1.2528;stroke-linecap:round;stroke-linejoin:round;stroke-miterlimit:10;}
	.st4{fill:#999999;stroke:#0568AB;stroke-width:1.2528;stroke-linecap:round;stroke-linejoin:round;stroke-miterlimit:10;}
	.st5{fill:#0568AB;stroke:#0568AB;stroke-width:1.2528;stroke-linecap:round;stroke-linejoin:round;stroke-miterlimit:10;}
	.st6{fill:#F7D45E;stroke:#0568AB;stroke-width:1.2528;stroke-linecap:round;stroke-linejoin:round;stroke-miterlimit:10;}
	.st7{fill:#FCC1AE;stroke:#0568AB;stroke-width:1.2528;stroke-linecap:round;stroke-linejoin:round;stroke-miterlimit:10;}
	.st8{fill:#91E5F1;stroke:#0568AB;stroke-width:0.8638;stroke-linecap:round;stroke-linejoin:round;stroke-miterlimit:10;}
	.st9{fill:none;stroke:#0568AB;stroke-width:0.8638;stroke-linecap:round;stroke-linejoin:round;stroke-miterlimit:10;}
	.st10{fill:#FFFFFF;stroke:#0568AB;stroke-width:1.0154;stroke-linecap:round;stroke-linejoin:round;stroke-miterlimit:10;}
	.st11{fill:#FFE8DE;stroke:#0568AB;stroke-linecap:round;stroke-linejoin:round;stroke-miterlimit:10;}
	.st12{fill:#FCC1AE;stroke:#0568AB;stroke-linecap:round;stroke-linejoin:round;stroke-miterlimit:10;}
	.st13{fill:#9AE3DF;stroke:#0568AB;stroke-linecap:round;stroke-linejoin:round;stroke-miterlimit:10;}
	.st14{fill:#0568AB;stroke:#0568AB;stroke-miterlimit:10;}
	.st15{fill:#0568AB;}
	.st16{fill:#FFFFFF;stroke:#0568AB;stroke-linecap:round;stroke-linejoin:round;stroke-miterlimit:10;}
	.st17{fill:#0568AB;stroke:#0568AB;stroke-linecap:round;stroke-linejoin:round;stroke-miterlimit:10;}
	.st18{fill:#CADBE7;stroke:#0568AB;stroke-miterlimit:10;}
</style>
<g>
	<path class="st0" d="M138,112.5h-8c-2.4,0-4.4,2-4.4,4.4c0,1.1,0.4,2.1,1.1,2.9c1.9,2.3,4.8,3.5,7.7,3.5h3.6c2.4,0,4.4-2,4.4-4.4
		v-2C142.5,114.5,140.5,112.5,138,112.5z"/>
	<path class="st0" d="M297.4,112.5h-8c-2.4,0-4.4,2-4.4,4.4v2c0,2.4,2,4.4,4.4,4.4h3.6c3,0,5.8-1.3,7.7-3.5c0.7-0.8,1.1-1.8,1.1-2.9
		C301.8,114.5,299.8,112.5,297.4,112.5z"/>
	<path class="st1" d="M156.8,124.8h113.8c0.3,0,0.5-0.1,0.6-0.3c0.2-0.2,0.2-0.5,0.2-0.7l-6-28.9c-1.4-6.6-7.2-11.3-13.9-11.3H176
		c-6.7,0-12.6,4.8-13.9,11.3l-6,28.9c-0.1,0.2,0,0.5,0.2,0.7C156.3,124.7,156.6,124.8,156.8,124.8z"/>
	<path class="st1" d="M170.4,149.8h-16.5c-5.2,0-9.5,4.3-9.5,9.5c0,5.2,4.3,9.5,9.5,9.5h16.5c5.2,0,9.5-4.3,9.5-9.5
		C179.8,154.1,175.6,149.8,170.4,149.8z"/>
	<path class="st2" d="M264,144.5l1.5,0.7c4-9,5.8-15.8,5.9-15.9l-1.6-0.4C269.7,128.9,267.9,135.6,264,144.5z"/>
	<path class="st2" d="M161.9,145.2l1.5-0.7c-3.9-8.8-5.7-15.6-5.8-15.6l-1.6,0.4C156.1,129.4,157.9,136.2,161.9,145.2z"/>
	<path class="st0" d="M237,149.8h-46.7c-2.4,0-4.3,1.9-4.3,4.3v9.5c0,2.4,1.9,4.3,4.3,4.3H237c2.4,0,4.3-1.9,4.3-4.3v-9.5
		C241.3,151.7,239.4,149.8,237,149.8z"/>
	<path class="st1" d="M257.1,149.8c-5.2,0-9.5,4.3-9.5,9.5c0,5.2,4.3,9.5,9.5,9.5h16.5c5.2,0,9.5-4.3,9.5-9.5c0-5.2-4.3-9.5-9.5-9.5
		H257.1z"/>
	<path class="st0" d="M278.3,124.1l-6-28.8c-2.2-10.7-11.8-18.4-22.6-18.4h-71.8c-10.9,0-20.4,7.7-22.6,18.4l-6,28.8
		c0,0.1-0.1,0.2-0.1,0.3c-8.6,12-13.2,26.2-13.2,41V183h53.8v-9.3c0-0.5,0.4-0.8,0.8-0.8h46.4c0.5,0,0.8,0.4,0.8,0.8v9.3h53.8v-17.5
		c0-14.8-4.6-29-13.2-41C278.3,124.4,278.3,124.3,278.3,124.1z M162,95c1.4-6.6,7.2-11.3,13.9-11.3h75.5c6.7,0,12.6,4.8,13.9,11.3
		l6,28.9c0.1,0.2,0,0.5-0.2,0.7c-0.2,0.2-0.4,0.3-0.6,0.3H156.8c-0.3,0-0.5-0.1-0.6-0.3c-0.2-0.2-0.2-0.5-0.2-0.7L162,95z
		 M271.4,129.3c0,0.1-1.9,6.9-5.9,15.9l-1.5-0.7c3.9-8.8,5.7-15.6,5.8-15.6L271.4,129.3z M163.5,144.5l-1.5,0.7
		c-4-9-5.8-15.8-5.9-15.9l1.6-0.4C157.7,128.9,159.5,135.6,163.5,144.5z M170.4,168.8h-16.5c-5.2,0-9.5-4.3-9.5-9.5
		c0-5.2,4.3-9.5,9.5-9.5h16.5c5.2,0,9.5,4.3,9.5,9.5C179.8,164.5,175.6,168.8,170.4,168.8z M241.3,163.5c0,2.4-1.9,4.3-4.3,4.3
		h-46.7c-2.4,0-4.3-1.9-4.3-4.3v-9.5c0-2.4,1.9-4.3,4.3-4.3H237c2.4,0,4.3,1.9,4.3,4.3V163.5z M283,159.3c0,5.2-4.3,9.5-9.5,9.5
		h-16.5c-5.2,0-9.5-4.3-9.5-9.5c0-5.2,4.3-9.5,9.5-9.5h16.5C278.8,149.8,283,154.1,283,159.3z"/>
	<path class="st3" d="M290.6,192.3h-155c-2.6,0-4.7-2.1-4.7-4.7l0,0c0-2.6,2.1-4.7,4.7-4.7h155c2.6,0,4.7,2.1,4.7,4.7l0,0
		C295.3,190.2,293.2,192.3,290.6,192.3z"/>
	<path class="st4" d="M152.3,211h-7.9c-3,0-5.4-2.4-5.4-5.4v-13.3h18.7v13.3C157.7,208.6,155.3,211,152.3,211z"/>
	<path class="st4" d="M285.6,211h-7.9c-3,0-5.4-2.4-5.4-5.4v-13.3H291v13.3C291,208.6,288.6,211,285.6,211z"/>
	<path class="st5" d="M191.8,111.2h-15.9c-3,0-5.5,2.1-6,5.1l-1.4,8.4h30.7l-1.4-8.4C197.4,113.4,194.8,111.2,191.8,111.2z"/>
	<path class="st5" d="M250.2,111.2h-15.9c-3,0-5.5,2.1-6,5.1l-1.4,8.4h30.7l-1.4-8.4C255.7,113.4,253.2,111.2,250.2,111.2z"/>
	<path class="st6" d="M274.8,161.5c1.2,0,2.2-1,2.2-2.2c0-1.2-1-2.2-2.2-2.2c-1.2,0-2.2,1-2.2,2.2
		C272.6,160.5,273.6,161.5,274.8,161.5z"/>
	<circle class="st7" cx="260.5" cy="159.3" r="4.7"/>
	<path class="st6" d="M153.7,161.5c-1.2,0-2.2-1-2.2-2.2c0-1.2,1-2.2,2.2-2.2c1.2,0,2.2,1,2.2,2.2
		C155.9,160.5,154.9,161.5,153.7,161.5z"/>
	<circle class="st7" cx="168" cy="159.3" r="4.7"/>
	<line class="st7" x1="142.5" y1="119" x2="149.2" y2="124.1"/>
	<line class="st7" x1="285" y1="119" x2="278.3" y2="124.1"/>
</g>
<g>
	<g>
		
			<rect x="310.2" y="63.3" transform="matrix(-0.9269 0.3753 -0.3753 -0.9269 651.626 40.45)" class="st8" width="23.4" height="40.7"/>
		
			<rect x="306.6" y="60.7" transform="matrix(-0.9269 0.3753 -0.3753 -0.9269 627.8257 3.3165)" class="st8" width="14" height="4.3"/>
		
			<rect x="307.1" y="51.7" transform="matrix(-0.9269 0.3753 -0.3753 -0.9269 620.0849 -7.7734)" class="st8" width="7.4" height="9.5"/>
		
			<rect x="301.5" y="55.7" transform="matrix(-0.9269 0.3753 -0.3753 -0.9269 608.1112 -2.9347)" class="st8" width="5.6" height="4.2"/>
		<line class="st9" x1="294.6" y1="57.9" x2="283.6" y2="56.5"/>
		<line class="st9" x1="295.5" y1="61.3" x2="287.4" y2="64.6"/>
		<line class="st9" x1="297.1" y1="65.1" x2="291.8" y2="71.6"/>
	</g>
	
		<rect x="309.5" y="75" transform="matrix(0.9269 -0.3753 0.3753 0.9269 -8.4336 123.7945)" class="st10" width="8.2" height="17.2"/>
</g>
<g>
	<path class="st11" d="M42.5,189.4l-1,6.5c0,0,1.4,5,11.5,4.4l1.9-3.6l0.5-7.3H42.5z"/>
	<path class="st11" d="M96.1,189.4l1,6.5c0,0-1.4,5-11.5,4.4l-1.9-3.6l-0.5-7.3H96.1z"/>
	<path class="st12" d="M41.4,195.8c0,0-6.8,5-13.5,5c0,0-7.4,1.1-4.6,6.4c1.8,3.5,5.5,5,16.1,3.6s15.8-3.2,15.8-3.2v-11.7
		C55.4,195.8,47.9,199.7,41.4,195.8z"/>
	<g>
		<path class="st11" d="M67.1,60.5l-3.4,5.2c0,0,1.9,6.6,9.2,6.8c0,0,8.7,1.4,9.3-8.7l-1.9-4.1L67.1,60.5z"/>
		<path class="st13" d="M63.6,64.9L42.3,52.7c0,0-6.2,3.5-8.7,13l11.8,9.1l2.1,40.9c0,0,26.3,8.2,52.3,0l3-30.5l5.8,4.8l8.3-11.2
			l-6.8-8.5c0,0-9-8.5-19.2-7.2l-8.6,0.7c0,0-2.3,6.2-9.5,7.1C72.8,70.9,67.7,71.8,63.6,64.9z"/>
		<path class="st11" d="M42.3,52.7l-7.6-4.6L23.9,20.3c0,0,4-9.9,0.4-10.4c-3.6-0.5-4.2,2.3-4.2,2.3s-3.9-10-11.2-6.7
			s6.5,20.4,6.5,20.4l4.8,27c0,0,0.6,8.5,13.4,12.9L42.3,52.7z"/>
		<path class="st11" d="M92.1,45.4c0,0-6.1,14.6-16.6,15.8c-4.5,0.5-7.6-0.2-7.6-0.2s-11.4-2.2-15.3-14.1c0,0-2.9-16.6,6.3-22.8
			s23.1-5.4,28.2,0C92.3,29.5,93.3,38,92.1,45.4z"/>
		<path class="st14" d="M63.8,37.9c0,0-2.5-1.7-5.2,0.5c0,0-0.4,0.4,0.2,0.4c0.2,0,0.7-0.3,1.4-0.6c1.7-0.6,3.1-0.1,3.7,0.2
			c0.4,0.2,0.4,0,0.2-0.2C64.1,38.1,63.8,37.9,63.8,37.9z"/>
		<path class="st14" d="M75.3,37.9c0,0,2.5-1.7,5.2,0.5c0,0,0.4,0.4-0.2,0.4c-0.2,0-0.7-0.3-1.4-0.6c-1.7-0.6-3.1-0.1-3.7,0.2
			c-0.4,0.2-0.4,0-0.2-0.2C75.1,38.1,75.3,37.9,75.3,37.9z"/>
		<path class="st15" d="M63.7,42.2c0,0.5,0,1.6-1.4,1.6c-1,0-1.4-0.9-1.4-1.6c0-0.9,0.6-1.6,1.4-1.6S63.7,41.3,63.7,42.2z"/>
		<path class="st15" d="M76.4,42.2c0,0.5,0,1.6,1.4,1.6c1,0,1.4-0.9,1.4-1.6c0-0.9-0.6-1.6-1.4-1.6C77,40.5,76.4,41.3,76.4,42.2z"/>
		<path class="st11" d="M71.7,46c0,0-1.7-1-2.6,0.8c-1,1.7,0.8,2.9,2.3,3"/>
		<path class="st16" d="M67.3,53.2c0,0,3.6,4.7,9.3-0.4L67.3,53.2z"/>
		<path class="st17" d="M80.8,27.9c0,0-7.9,2.9-13.3,0.6c0,0-1.8,3.6,0.2,6.1c0,0-2.3,0.3-8.2-8.5c0,0,0.5,8.2-7.2,10.7l-0.7,3.6
			c0,0-11.3-20.8,15.9-30.3c0,0,12.3-3.3,19.1,5.5c0,0,8.3-0.1,9.7,7.7s-4.2,17.6-4.2,17.6L90.9,38L80.8,27.9z"/>
		<path class="st11" d="M53.2,39.7c0,0-1-2.7-3.5-0.9c-2.2,1.7-1.1,7.3,3.5,8.3"/>
		<path class="st11" d="M91,38.6c0,0,1.8-3.4,4.2-1.2c2.1,2,0.2,7.6-4.6,8"/>
	</g>
	<path class="st18" d="M47.5,112.2l-6.7,78.6c0,0,4.1,3.8,14.6,0.4l16.4-51.5c0.3-1.2,2.1-1.1,2.2,0.2l9.4,51.8c0,0,5.8,2.6,13-1.3
		l3.3-78.1C99.7,112.2,75,121.2,47.5,112.2z"/>
	<path class="st11" d="M108.5,90c0,0,3.2,7.9,2.1,10.9c-1.5,4.4-3.9,5.9-10.4,10l-0.5,12.6c0,0,12.7-6.3,22.3-18.8
		c0.5-0.7,0.9-1.5,1.1-2.3c0.7-3.4,0.3-10.4-6.3-23.5L108.5,90z"/>
	<path class="st12" d="M97.4,195.8c0,0,6.8,5,13.5,5c0,0,7.4,1.1,4.6,6.4c-1.8,3.5-5.5,5-16.1,3.6s-15.8-3.2-15.8-3.2v-11.7
		C83.4,195.8,90.9,199.7,97.4,195.8z"/>
</g>
</svg>
