<?xml version="1.0" encoding="iso-8859-1"?>
<!-- Generator: Adobe Illustrator 24.2.3, SVG Export Plug-In . SVG Version: 6.00 Build 0)  -->
<svg version="1.1" id="&#x5716;&#x5C64;_1" xmlns="http://www.w3.org/2000/svg" xmlns:xlink="http://www.w3.org/1999/xlink" x="0px"
	 y="0px" viewBox="0 0 377.225 119.811" style="enable-background:new 0 0 377.225 119.811;" xml:space="preserve">
<g>
	
		<rect x="0.5" y="112.679" style="fill:#FFFFFF;stroke:#0568AB;stroke-linecap:round;stroke-linejoin:round;stroke-miterlimit:10;" width="376.225" height="6.633"/>
	
		<path style="fill:#0568AB;stroke:#0568AB;stroke-width:1.2233;stroke-linecap:round;stroke-linejoin:round;stroke-miterlimit:10;" d="
		M300.076,20.727c0,0-8.305,28.587-5.719,53.861c0.481,4.705,2.734,8.562,5.761,10.026c8.934,4.322,31.624,11.623,55.422,1.047
		c3.056-1.358,4.38-5.234,4.819-9.96c1.101-11.864,2.347-21.266-4.523-52.878L300.076,20.727z"/>
	<path style="fill:#0568AB;stroke:#0568AB;stroke-linecap:round;stroke-linejoin:round;stroke-miterlimit:10;" d="M28.65,40.788
		c0,0,3.496,24.327-4.81,30.944c0,0-0.812,1.83,7.97,2.393c0,0,12.724,11.122,68.192,0c0,0-12.275-2.072-7.827-34.612L28.65,40.788z
		"/>
	<path style="fill:#FCE6DD;stroke:#0568AB;stroke-linecap:round;stroke-linejoin:round;stroke-miterlimit:10;" d="M52.44,63.426
		l-3.482,5.509c0,0,1.378,10.957,11.398,11.249c0,0,10.617,0.901,11.398-11.249l-4.089-5.509H52.44z"/>
	<path style="fill:#CCE7D9;stroke:#0568AB;stroke-linecap:round;stroke-linejoin:round;stroke-miterlimit:10;" d="M104.009,101.084
		c0,0-3.698-10.307-5.341-15.706c-1.643-5.399-7.396-7.853-7.396-7.853l-19.517-8.589c0,0-2.15,8.099-10.779,8.835
		c-8.628,0.737-12.018-8.835-12.018-8.835l-19.517,8.589c0,0-5.752,2.454-7.396,7.853c-1.643,5.399-5.341,15.706-5.341,15.706
		s-4.52,10.798,3.698,11.78c8.218,0.982,28.556,0,28.556,0l7.088-0.307l15.709,0.307c0,0,20.338,0.982,28.556,0
		C108.528,111.882,104.009,101.084,104.009,101.084z"/>
	<path style="fill:#CCE7D9;stroke:#0568AB;stroke-linecap:round;stroke-linejoin:round;stroke-miterlimit:10;" d="M30.777,98.384
		l21.663,4.193l0.399,10.118c0,0-24.219,1.15-32.437,0.168c-8.218-0.982-3.698-11.78-3.698-11.78s3.698-10.307,5.341-15.706
		c1.644-5.399,7.396-7.853,7.396-7.853l19.517-8.589c0,0,3.592,8.787,10.401,8.851c6.809,0.064,9.564-2.886,12.395-8.851
		l19.517,8.589c0,0,5.752,2.454,7.396,7.853c1.644,5.399,5.341,15.706,5.341,15.706s4.52,10.798-3.698,11.78
		c-8.218,0.982-32.645-0.08-32.645-0.08l-0.295-9.878l22.565-4.521"/>
	<path style="fill:#FCE6DD;stroke:#0568AB;stroke-linecap:round;stroke-linejoin:round;stroke-miterlimit:10;" d="M52.44,102.577
		c0,0,4.71-2.261,6.847,0c0,0,0.935,0.511,1.069,1.678c0,0,1.737,0.875,2.138,3.647s-1.799,4.807-4.142,5.398
		c-2.605,0.656-5.513-0.604-5.513-0.604L52.44,102.577z"/>
	<path style="fill:#FCE6DD;stroke:#0568AB;stroke-linecap:round;stroke-linejoin:round;stroke-miterlimit:10;" d="M67.596,103.096
		c0,0-4.713-2.78-6.851-0.519c0,0-0.935,0.511-1.069,1.678c0,0-1.737,0.875-2.138,3.647c-0.401,2.772,1.799,4.807,4.142,5.398
		c2.605,0.656,5.985-0.516,5.985-0.516L67.596,103.096z"/>
	<path style="fill:#FCE6DD;stroke:#0568AB;stroke-linecap:round;stroke-linejoin:round;stroke-miterlimit:10;" d="M88.414,44.467
		c0,0-5.118,17.786-21.449,20.414c-7.072,1.138-12.003-0.011-12.003-0.011s-13.525-2.71-20.659-18.333c0,0-4.008-22.765,8.618-31.25
		s31.665-7.45,38.68,0C88.615,22.737,90.018,34.326,88.414,44.467z"/>
	<path style="fill:#FCE6DD;stroke:#0568AB;stroke-linecap:round;stroke-linejoin:round;stroke-miterlimit:10;" d="M88.162,36.394
		c0,0,1.802-3.563,4.905-0.592c2.786,2.667,0.282,10.086-6.115,10.691"/>
	<path style="fill:#040000;stroke:#0568AB;stroke-miterlimit:10;" d="M53.899,31.994c0,0-3.466-2.398-7.132,0.732
		c0,0-0.513,0.54,0.211,0.591c0.335,0.024,0.993-0.458,1.943-0.808c2.277-0.839,4.302-0.107,5.105,0.243
		c0.496,0.216,0.561-0.005,0.333-0.303C54.218,32.264,53.899,31.994,53.899,31.994z"/>
	<path style="fill:#040000;stroke:#0568AB;stroke-miterlimit:10;" d="M69.747,31.994c0,0,3.466-2.398,7.132,0.732
		c0,0,0.513,0.54-0.211,0.591c-0.335,0.024-0.993-0.458-1.943-0.808c-2.277-0.839-4.302-0.107-5.105,0.243
		c-0.496,0.216-0.561-0.005-0.333-0.303C69.427,32.264,69.747,31.994,69.747,31.994z"/>
	<path style="fill:#0568AB;" d="M53.706,37.887c0.014,0.733,0.067,2.262-1.854,2.262c-1.42,0-1.854-1.169-1.854-2.262
		c0-1.249,0.83-2.262,1.854-2.262C52.876,35.625,53.682,36.638,53.706,37.887z"/>
	<path style="fill:#0568AB;" d="M71.256,37.887c-0.014,0.733-0.067,2.262,1.854,2.262c1.42,0,1.854-1.169,1.854-2.262
		c0-1.249-0.83-2.262-1.854-2.262C72.085,35.625,71.279,36.638,71.256,37.887z"/>
	
		<line style="fill:#FFFFFF;stroke:#0568AB;stroke-linecap:round;stroke-linejoin:round;stroke-miterlimit:10;" x1="37.509" y1="54.656" x2="33.367" y2="46.39"/>
	
		<line style="fill:none;stroke:#0568AB;stroke-linecap:round;stroke-linejoin:round;stroke-miterlimit:10;" x1="84.888" y1="53.388" x2="87.964" y2="46.39"/>
	<path style="fill:#0568AB;stroke:#0568AB;stroke-linecap:round;stroke-linejoin:round;stroke-miterlimit:10;" d="M56.36,17.954
		c0,0,3.318-8.165,13.484-1.126c7.422,5.139,14.27,14.671,18.144,18.797c0,0,3.131-0.968,4.186-0.526
		c0,0-0.782-19.021-12.044-28.969c0,0-11.1-11.45-22.64-1.689c0,0-9.296-6.57-18.306,1.689c-7.884,7.227-9.385,19.709-10.535,30.96
		l5.183-2.425C33.832,34.664,45.191,5.472,56.36,17.954z"/>
	<path style="fill:#FCE6DD;stroke:#0568AB;stroke-linecap:round;stroke-linejoin:round;stroke-miterlimit:10;" d="M34.971,36.742
		c0,0-1.366-3.752-4.8-1.171c-3.083,2.317-1.48,9.981,4.8,11.342"/>
	<path style="fill:#FCE6DD;stroke:#0568AB;stroke-linecap:round;stroke-linejoin:round;stroke-miterlimit:10;" d="M60.356,42.169
		c0,0,3.943-1.64,5.174,2.342c1.045,3.379-2.928,3.383-3.619,3.524"/>
	<path style="fill:#FCE6DD;stroke:#0568AB;stroke-linecap:round;stroke-linejoin:round;stroke-miterlimit:10;" d="M52.44,50.523
		c0,0,2.035,7.131,15.225,2.345"/>
	<path style="fill:#FCE6DD;stroke:#0568AB;stroke-linecap:round;stroke-linejoin:round;stroke-miterlimit:10;" d="M321.167,62.793
		l-5.385,6.142c0,0,1.378,10.957,11.398,11.249c0,0,10.617,0.901,11.398-11.249l-2.277-5.579L321.167,62.793z"/>
	<path style="fill:#F6BEAC;stroke:#0568AB;stroke-linecap:round;stroke-linejoin:round;stroke-miterlimit:10;" d="M370.832,101.084
		c0,0-3.698-10.307-5.341-15.706c-1.643-5.399-7.396-7.853-7.396-7.853l-19.517-8.589c0,0-2.15,8.099-10.779,8.835
		c-8.628,0.737-12.018-8.835-12.018-8.835l-19.517,8.589c0,0-5.752,2.454-7.396,7.853c-1.643,5.399-5.341,15.706-5.341,15.706
		s-4.52,10.798,3.698,11.78c8.218,0.982,28.556,0,28.556,0l7.088-0.307l15.709,0.307c0,0,20.338,0.982,28.556,0
		C375.352,111.882,370.832,101.084,370.832,101.084z"/>
	<path style="fill:#F6BEAC;stroke:#0568AB;stroke-linecap:round;stroke-linejoin:round;stroke-miterlimit:10;" d="M297.6,98.384
		l21.663,4.193l0.399,10.118c0,0-24.219,1.15-32.437,0.168c-8.218-0.982-3.698-11.78-3.698-11.78s3.698-10.307,5.341-15.706
		s7.396-7.853,7.396-7.853l19.517-8.589c0,0,3.592,8.787,10.401,8.851c6.809,0.064,9.564-2.886,12.395-8.851l19.517,8.589
		c0,0,5.752,2.454,7.396,7.853c1.644,5.399,5.341,15.706,5.341,15.706s4.52,10.798-3.698,11.78
		c-8.218,0.982-32.645-0.08-32.645-0.08l-0.295-9.878l22.565-4.521"/>
	<path style="fill:#FCE6DD;stroke:#0568AB;stroke-linecap:round;stroke-linejoin:round;stroke-miterlimit:10;" d="M319.264,102.577
		c0,0,4.71-2.261,6.847,0c0,0,0.935,0.511,1.069,1.678c0,0,1.737,0.875,2.138,3.647c0.401,2.772-1.799,4.807-4.142,5.398
		c-2.605,0.656-5.513-0.604-5.513-0.604L319.264,102.577z"/>
	<path style="fill:#FCE6DD;stroke:#0568AB;stroke-linecap:round;stroke-linejoin:round;stroke-miterlimit:10;" d="M334.42,103.096
		c0,0-4.713-2.78-6.851-0.519c0,0-0.935,0.511-1.069,1.678c0,0-1.737,0.875-2.138,3.647c-0.401,2.772,1.799,4.807,4.142,5.398
		c2.605,0.656,5.985-0.516,5.985-0.516L334.42,103.096z"/>
	<path style="fill:#FCE6DD;stroke:#0568AB;stroke-linecap:round;stroke-linejoin:round;stroke-miterlimit:10;" d="M355.238,44.467
		c0,0-8.323,20.085-22.738,21.692c-6.218,0.693-10.441-0.339-10.441-0.339s-15.58-3.027-20.932-19.283c0,0-4.008-22.765,8.618-31.25
		s31.665-7.45,38.68,0S356.841,34.326,355.238,44.467z"/>
	<path style="fill:#0568AB;stroke:#0568AB;stroke-linecap:round;stroke-linejoin:round;stroke-miterlimit:10;" d="M338.578,28.153
		c0,0-2.633,0.132-5.715,0.088c-1.072-0.015-4.823-2.729-4.823-2.729s-1.987,2.377-3.496,2.421c-2.34,0.069-5.827,0.041-9.694-0.26
		c-0.761-0.059-1.549-3.981-2.366-4.009c0,0-0.958,3.873-2.378,3.891c-1.661,0.02-3.956,0.064-6.092,0.159
		c0,0-4.491,14.44-2.888,17.647c0,0-8.376-16.943,2.888-31.556c8.084-10.487,15.687-10.157,24.265-10.036
		c0,0,17.558-0.66,24.97,12.809c7.519,13.664,1.988,26.779,1.988,26.779s0.205-12.239-2.719-15.907c0,0-2.764,0.607-7.634,0.767
		c-1.051,0.035-2.91-3.32-2.91-3.32S339.581,28.204,338.578,28.153z"/>
	<path style="fill:#FCE6DD;stroke:#0568AB;stroke-linecap:round;stroke-linejoin:round;stroke-miterlimit:10;" d="M354.366,37.374
		c0,0,2.422-4.543,5.525-1.572c2.786,2.667,0.282,10.086-6.115,10.691"/>
	<path style="fill:#0568AB;stroke:#0568AB;stroke-miterlimit:10;" d="M316.436,34.213c0,0-3.466-2.398-7.132,0.732
		c0,0-0.513,0.54,0.211,0.591c0.335,0.024,0.993-0.458,1.943-0.808c2.277-0.839,4.302-0.107,5.105,0.243
		c0.496,0.216,0.561-0.005,0.333-0.303C316.756,34.483,316.436,34.213,316.436,34.213z"/>
	<path style="fill:#0568AB;stroke:#0568AB;stroke-miterlimit:10;" d="M332.193,34.213c0,0,3.466-2.398,7.132,0.732
		c0,0,0.513,0.54-0.211,0.591c-0.335,0.024-0.993-0.458-1.943-0.808c-2.277-0.839-4.302-0.107-5.105,0.243
		c-0.496,0.216-0.561-0.005-0.333-0.303C331.873,34.483,332.193,34.213,332.193,34.213z"/>
	<path style="fill:#0568AB;" d="M316.243,40.106c0.014,0.733,0.067,2.262-1.854,2.262c-1.42,0-1.854-1.169-1.854-2.262
		c0-1.249,0.83-2.262,1.854-2.262S316.219,38.857,316.243,40.106z"/>
	<path style="fill:#0568AB;" d="M333.701,40.106c-0.014,0.733-0.067,2.262,1.854,2.262c1.42,0,1.854-1.169,1.854-2.262
		c0-1.249-0.83-2.262-1.854-2.262S333.725,38.857,333.701,40.106z"/>
	
		<line style="fill:#FFFFFF;stroke:#0568AB;stroke-linecap:round;stroke-linejoin:round;stroke-miterlimit:10;" x1="304.333" y1="54.656" x2="300.191" y2="46.39"/>
	
		<line style="fill:none;stroke:#0568AB;stroke-linecap:round;stroke-linejoin:round;stroke-miterlimit:10;" x1="351.711" y1="53.388" x2="354.787" y2="46.39"/>
	<path style="fill:#FCE6DD;stroke:#0568AB;stroke-linecap:round;stroke-linejoin:round;stroke-miterlimit:10;" d="M327.18,45.359
		c0,0-2.306-1.318-3.62,1.031c-1.314,2.348,1.126,4.041,3.191,4.133"/>
	<path style="fill:#FCE6DD;stroke:#0568AB;stroke-linecap:round;stroke-linejoin:round;stroke-miterlimit:10;" d="M321.483,55.94
		c0,0,5.492,3.478,12.364-1.266"/>
	<g>
		
			<rect x="187.893" y="6.359" style="fill:#E2F1FD;stroke:#0568AB;stroke-linecap:round;stroke-linejoin:round;stroke-miterlimit:10;" width="6.503" height="101.191"/>
		
			<rect x="146.178" y="107.55" style="fill:#E2F1FD;stroke:#0568AB;stroke-linecap:round;stroke-linejoin:round;stroke-miterlimit:10;" width="90.099" height="4.673"/>
	</g>
	<path style="fill:#FCE6DD;stroke:#0568AB;stroke-linecap:round;stroke-linejoin:round;stroke-miterlimit:10;" d="M302.569,36.742
		c0,0-1.366-3.752-4.8-1.171c-3.083,2.317-1.48,9.981,4.8,11.342"/>
</g>
</svg>
