<?xml version="1.0" encoding="utf-8"?>
<!-- Generator: Adobe Illustrator 24.3.0, SVG Export Plug-In . SVG Version: 6.00 Build 0)  -->
<svg version="1.1" id="圖層_1" xmlns="http://www.w3.org/2000/svg" xmlns:xlink="http://www.w3.org/1999/xlink" x="0px" y="0px"
	 viewBox="0 0 58.3 58.3" style="enable-background:new 0 0 58.3 58.3;" xml:space="preserve">
<style type="text/css">
	.st0{opacity:0.9;}
	.st1{fill:#FFFFFF;}
	.st2{fill:#333333;}
</style>
<g class="st0">
	<circle class="st1" cx="-855.3" cy="53.8" r="31.6"/>
	<path class="st2" d="M-850,73.2c-0.6,0-1.3-0.2-1.8-0.7l-16.6-16.8c-1-1-1-2.5,0-3.5l16.6-16.8c1-1,2.6-1,3.5,0c1,1,1,2.6,0,3.5
		l-14.9,15.1l14.9,15.1c1,1,1,2.6,0,3.5C-848.7,72.9-849.3,73.2-850,73.2z"/>
</g>
<g class="st0">
	<circle class="st1" cx="29.1" cy="29.1" r="27.1"/>
	<path class="st2" d="M24.6,45.7c-0.5,0-1.1-0.2-1.5-0.6c-0.8-0.8-0.9-2.2,0-3l12.8-12.9L23.1,16.2c-0.8-0.8-0.8-2.2,0-3
		c0.8-0.8,2.2-0.8,3,0l14.3,14.5c0.8,0.8,0.8,2.2,0,3L26.1,45.1C25.7,45.5,25.2,45.7,24.6,45.7z"/>
</g>
</svg>
